<?xml version="1.0" standalone="no"?>
<!DOCTYPE svg PUBLIC "-//W3C//DTD SVG 1.1//EN"
  "http://www.w3.org/Graphics/SVG/1.1/DTD/svg11.dtd">
<svg width="37.22200012207031mm" height="135.2722930908203mm" viewBox="-10.138999938964844 207.86970520019526 37.22200012207031 135.2722930908203" xmlns="http://www.w3.org/2000/svg" version="1.1">
	<title>svgOutput</title>
	<desc>Yellowjacket</desc>
<path d="M -9.138999938964844 334.8320007324218 L -6.3420000076293945 326.7177124023437 L -5.668000221252441 324.7623901367187 L -5.553247451782227 324.42947387695307 L -5.386000156402588 315.03100585937494 L -4.931000232696533 314.7548522949218 L -2.9904682636260986 313.57714843749994 L -2.7569165229797363 313.4353942871093 L -2.533515691757202 313.29980468749994 L -1.8366978168487549 312.8769226074218 L -1.6430517435073853 312.75939941406244 L -1.5479999780654907 311.6960144042968 L -1.5158179998397827 311.2959899902343 L -1.1660000085830688 306.94799804687494 L -0.8119999766349792 302.0499877929687 L -0.4869999885559082 297.0039978027343 L -0.45367681980133057 296.4211120605468 L -0.3673996031284332 294.91198730468744 L -0.1899999976158142 291.80899047851557 L 0.07800000160932541 286.46398925781244 L 0.3179999887943268 280.9710083007812 L 0.5210000276565552 275.52200317382807 L 0.6840000152587891 270.2120056152343 L 0.7723259925842285 266.4979858398437 L 0.8069999814033508 265.0400085449218 L 0.835879385471344 263.26708984374994 L 0.8363159894943237 263.2402954101562 L 0.8541736006736755 262.1440124511718 L 0.8889999985694885 260.00601196289057 L 0.9231486916542053 256.1186218261718 L 0.9319999814033508 255.11099243164057 L 0.9340000152587891 250.354995727539 L 0.9259234666824341 249.3893432617187 L 0.8955687284469604 245.75999450683588 L 0.8949999809265137 245.69200134277338 L 0.8176816701889038 241.6309967041015 L 0.8090000152587891 241.17500305175776 L 0.6769999861717224 236.8049926757812 L 0.6636415719985962 236.48800659179682 L 0.6282787322998047 235.64883422851557 L 0.49900001287460327 232.5809936523437 L 0.32290974259376526 229.37600708007807 L 0.2781953513622284 228.56216430664057 L 0.2750000059604645 228.50399780273432 L 0.004000000189989805 224.57400512695307 L -0.31200000643730164 220.7369995117187 L -0.5384486317634583 218.44210815429682 L -0.5042385458946228 218.40275573730463 L -0.42762550711631775 218.3146362304687 L -0.29331618547439575 218.16014099121088 L -0.000065774263930507 217.8228149414062 L 0.0016880979528650641 217.82080078124994 L 0.9654154777526855 216.7122192382812 L 7.684487342834473 208.98326110839838 L 7.774942874908447 208.8792114257812 L 7.783210277557373 208.86970520019526 L 7.941249370574951 209.007095336914 L 10.402225494384766 211.14669799804682 L 10.963000297546387 211.63424682617182 L 15.197522163391113 215.31578063964838 L 15.477999687194824 215.5596313476562 L 16.10907554626465 216.1082916259765 L 16.96499252319336 216.85244750976557 L 17.760995864868164 217.5444946289062 L 18.45669174194336 218.14933776855463 L 18.459001541137695 218.15135192871088 L 18.53291893005371 218.21560668945307 L 18.55825424194336 218.23764038085932 L 18.541027069091797 218.42721557617182 L 18.51820945739746 218.6782836914062 L 18.195999145507812 221.06599426269526 L 17.743999481201172 224.88999938964838 L 17.33300018310547 228.8079986572265 L 17.281465530395508 229.37600708007807 L 17.228479385375977 229.96000671386713 L 16.98025894165039 232.69578552246088 L 16.964000701904297 232.87499999999994 L 16.917390823364258 233.47200012207026 L 16.757495880126953 235.52000427246088 L 16.71677589416504 236.0415649414062 L 16.760000228881836 236.104995727539 L 16.802221298217773 236.15087890624994 L 16.94499969482422 236.30599975585932 L 17.131000518798828 236.46699523925776 L 17.252275466918945 236.5440063476562 L 17.31999969482422 236.58700561523432 L 17.36678695678711 236.6078491210937 L 17.46430778503418 236.6513061523437 L 18.43199920654297 236.5452270507812 L 18.49799919128418 236.53799438476557 L 18.686891555786133 236.53256225585932 L 20.0377254486084 236.49372863769526 L 20.087778091430664 236.49229431152338 L 20.23699951171875 236.48800659179682 L 20.27235984802246 236.49055480957026 L 20.479999542236328 236.50553894042963 L 20.514999389648438 236.50805664062494 L 21.774999618530273 236.59899902343744 L 22.81800079345703 236.81454467773432 L 23.09600067138672 236.87199401855463 L 23.273000717163086 236.94192504882807 L 23.46299934387207 237.0169830322265 L 23.783000946044922 237.14340209960932 L 24.17799949645996 237.29943847656244 L 24.187000274658203 237.302993774414 L 24.615917205810547 237.59700012207026 L 25.038999557495117 237.88699340820307 L 25.642000198364258 238.62100219726557 L 25.990999221801758 239.49499511718744 L 26.08300018310547 240.50300598144526 L 25.916000366210938 241.63400268554682 L 25.630144119262695 242.47399902343744 L 25.535879135131836 242.75100708007807 L 25.493000030517578 242.87699890136713 L 25.383853912353516 243.09399414062494 L 24.816999435424805 244.22099304199213 L 24.576000213623047 244.59504699707026 L 24.416126251220703 244.84318542480463 L 24.405000686645508 244.85600280761713 L 24.257999420166016 245.00700378417963 L 24.099000930786133 245.15299987792963 L 23.92799949645996 245.29499816894526 L 23.743999481201172 245.4329986572265 L 23.548999786376953 245.56599426269526 L 23.340999603271484 245.69599914550776 L 23.22835922241211 245.75999450683588 L 23.121000289916992 245.82099914550776 L 22.889999389648438 245.9329986572265 L 22.643999099731445 246.0440063476562 L 22.573163986206055 246.07385253906244 L 22.382999420166016 246.15400695800776 L 22.10700035095215 246.2630004882812 L 21.81599998474121 246.37199401855463 L 21.61867332458496 246.44099426269526 L 21.510000228881836 246.47900390624994 L 21.482534408569336 246.48800659179682 L 21.14699935913086 246.59800720214838 L 20.81414031982422 246.72033691406244 L 20.79599952697754 246.72700500488276 L 20.514999389648438 246.84138488769526 L 20.479999542236328 246.85563659667963 L 20.457000732421875 246.865005493164 L 20.1299991607666 247.01400756835932 L 19.81399917602539 247.17399597167963 L 19.51099967956543 247.34300231933588 L 19.215999603271484 247.53599548339838 L 18.933000564575195 247.74299621582026 L 18.84518814086914 247.81408691406244 L 18.65999984741211 247.9640045166015 L 18.39900016784668 248.19799804687494 L 18.342466354370117 248.25430297851557 L 18.14900016784668 248.44700622558588 L 17.91876220703125 248.69929504394526 L 17.909000396728516 248.71000671386713 L 17.674999237060547 248.98800659179682 L 17.560611724853516 249.14085388183588 L 17.45199966430664 249.28599548339838 L 17.250930786132812 249.58618164062494 L 17.23900032043457 249.60400390624994 L 17.17090606689453 249.71850585937494 L 17.115999221801758 249.85600280761713 L 17.095308303833008 249.90780639648432 L 16.993000030517578 250.1640014648437 L 16.770000457763672 250.80200195312494 L 16.56599998474121 251.46800231933588 L 16.384000778198242 252.1524810791015 L 16.381999969482422 252.16000366210932 L 16.2189998626709 252.87899780273432 L 16.075000762939453 253.62499999999994 L 16.01848602294922 253.95199584960932 L 15.944000244140625 254.3829956054687 L 15.831999778747559 255.16099548339838 L 15.81533432006836 255.30284118652338 L 15.673877716064453 258.04800415039057 L 15.638223648071289 258.7399291992187 L 15.597000122070312 260.2680053710937 L 15.561217308044434 262.1440124511718 L 15.50100040435791 265.3009948730468 L 15.486653327941895 266.4979858398437 L 15.477999687194824 267.22000122070307 L 15.439000129699707 270.47399902343744 L 15.413000106811523 275.78698730468744 L 15.42199993133545 281.23999023437494 L 15.46207046508789 286.2470092773437 L 15.465999603271484 286.7380065917968 L 15.477999687194824 287.57192993164057 L 15.543000221252441 292.08898925781244 L 15.588171005249023 294.18704223632807 L 15.603779792785645 294.91198730468744 L 15.654999732971191 297.2909851074218 L 15.800000190734863 302.3460083007812 L 15.979999542236328 307.2529907226562 L 16.160953521728516 311.2959899902343 L 16.19300079345703 312.01199340820307 L 16.244470596313477 312.97244262695307 L 16.257226943969727 313.21047973632807 L 17.026216506958008 313.71548461914057 L 17.23910140991211 313.8552856445312 L 19.3700008392334 315.2546997070312 L 19.709999084472656 315.4779968261718 L 19.555484771728516 324.1609802246093 L 19.549379348754883 324.5041198730468 L 22.87700080871582 335.40200805664057 L 19.311044692993164 337.8972778320312 L 16.778331756591797 339.66955566406244 L 16.282272338867188 340.0166625976562 L 15.477999687194824 340.57946777343744 L 13.244999885559082 342.14199829101557 L 11.411806106567383 340.7595825195312 L 10.963000297546387 340.42114257812494 L 8.833670616149902 338.8153991699218 L 8.053682327270508 338.22720336914057 L 6.738999843597412 339.0249938964843 L 5.517207145690918 338.2227172851562 L 0.24699999392032623 341.9100036621093 L -1.798271656036377 340.3676452636718 L -3.2169363498687744 339.29785156249994 L -5.668000221252441 337.44949340820307 L -6.3420000076293945 336.9412231445312 L -9.138999938964844 334.8320007324218 M 23.12983512878418 239.4891967773437 L 23.014047622680664 239.38822937011713 L 22.93189239501953 239.3165893554687 L 22.81992530822754 239.21896362304682 L 22.736364364624023 239.14610290527338 L 22.61143684387207 239.03718566894526 L 22.586000442504883 239.01499938964838 L 22.527999877929688 238.97187805175776 L 22.4689998626709 238.927993774414 L 22.45572280883789 238.92109680175776 L 22.436717987060547 238.91123962402338 L 22.288000106811523 238.82099914550776 L 22.182512283325195 238.77299499511713 L 22.099000930786133 238.7350006103515 L 21.902000427246094 238.66999816894526 L 21.698999404907227 238.62699890136713 L 21.492000579833984 238.60800170898432 L 21.284000396728516 238.6119995117187 L 21.077999114990234 238.63900756835932 L 20.87700080871582 238.68899536132807 L 20.68199920654297 238.761001586914 L 20.658382415771484 238.77299499511713 L 20.617916107177734 238.79356384277338 L 20.514999389648438 238.84585571289057 L 20.496999740600586 238.854995727539 L 20.479999542236328 238.86604309082026 L 20.322999954223633 238.96800231933588 L 20.163000106811523 239.10099792480463 L 20.018999099731445 239.24999999999994 L 19.89299964904785 239.41499328613276 L 19.78499984741211 239.59300231933588 L 19.774534225463867 239.61599731445307 L 19.761999130249023 239.64353942871088 L 19.698999404907227 239.781997680664 L 19.634000778198242 239.97900390624994 L 19.590999603271484 240.18200683593744 L 19.57200050354004 240.38900756835932 L 19.576000213623047 240.59700012207026 L 19.60300064086914 240.802993774414 L 19.652999877929688 241.00399780273432 L 19.725000381469727 241.19900512695307 L 19.761999130249023 241.27182006835932 L 19.776348114013672 241.30004882812494 L 19.819000244140625 241.38400268554682 L 19.854736328125 241.4390258789062 L 19.93199920654297 241.5579986572265 L 19.943082809448242 241.57133483886713 L 20.020112991333008 241.6640014648437 L 20.065000534057617 241.71800231933588 L 20.096332550048828 241.74827575683588 L 20.130504608154297 241.7813110351562 L 20.1560001373291 241.81700134277338 L 20.24045753479004 241.9022827148437 L 20.259000778198242 241.92100524902338 L 20.35516929626465 242.00442504882807 L 20.415605545043945 242.05683898925776 L 20.479999542236328 242.11270141601557 L 20.514999389648438 242.14305114746088 L 20.67958641052246 242.28581237792963 L 20.896535873413086 242.47399902343744 L 20.929397583007812 242.5025024414062 L 20.95975685119629 242.52883911132807 L 21.070730209350586 242.62509155273432 L 21.163999557495117 242.7059936523437 L 21.225744247436523 242.75100708007807 L 21.236495971679688 242.75883483886713 L 21.281999588012695 242.792007446289 L 21.370506286621094 242.83830261230463 L 21.41200065612793 242.8600006103515 L 21.449377059936523 242.8723754882812 L 21.461999893188477 242.88000488281244 L 21.650999069213867 242.96699523925776 L 21.847999572753906 243.031997680664 L 22.052000045776367 243.07400512695307 L 22.257999420166016 243.09399414062494 L 22.465999603271484 243.08999633789057 L 22.527999877929688 243.08187866210932 L 22.672000885009766 243.063003540039 L 22.87299919128418 243.0130004882812 L 23.06800079345703 242.94099426269526 L 23.253999710083008 242.84700012207026 L 23.39968490600586 242.75100708007807 L 23.427000045776367 242.73300170898432 L 23.586999893188477 242.60099792480463 L 23.708919525146484 242.47399902343744 L 23.731000900268555 242.45100402832026 L 23.783000946044922 242.3838500976562 L 23.857999801635742 242.2870025634765 L 23.96500015258789 242.10899353027338 L 24.052000045776367 241.91999816894526 L 24.115999221801758 241.72300720214838 L 24.128437042236328 241.6640014648437 L 24.159000396728516 241.51899719238276 L 24.17799949645996 241.313003540039 L 24.173999786376953 241.104995727539 L 24.14699935913086 240.89900207519526 L 24.097000122070312 240.69799804687494 L 24.024999618530273 240.50300598144526 L 23.93199920654297 240.31799316406244 L 23.81800079345703 240.14399719238276 L 23.783000946044922 240.10189819335932 L 23.765911102294922 240.08132934570307 L 23.684999465942383 239.98399353027338 L 23.675872802734375 239.97517395019526 L 23.58588218688965 239.88821411132807 L 23.535999298095703 239.83999633789057 L 23.502256393432617 239.8140258789062 L 23.491905212402344 239.80606079101557 L 23.483999252319336 239.79800415039057 L 23.46299934387207 239.77969360351557 L 23.44965934753418 239.76805114746088 L 23.415889739990234 239.73861694335932 L 23.350234985351562 239.68136596679682 L 23.338871002197266 239.67146301269526 L 23.2752685546875 239.61599731445307 L 23.151962280273438 239.5084838867187 L 23.139999389648438 239.49699401855463 L 23.12983512878418 239.4891967773437 M -1.8087847232818604 332.84643554687494 L -1.7899999618530273 332.8720092773437 L -1.409000039100647 333.26599121093744 L -1.2319999933242798 333.4049987792968 L -1.0160000324249268 333.4989929199218 L -0.765999972820282 333.5459899902343 L -0.48899999260902405 333.54299926757807 L -0.19200000166893005 333.4920043945312 L 0 333.4314880371093 L 0.11900000274181366 333.3940124511718 L 0.4359999895095825 333.24999999999994 L 0.75 333.0650024414062 L 1.0549999475479126 332.8429870605468 L 1.3420000076293945 332.58898925781244 L 1.8093713521957397 332.1361999511718 L 1.9790890216827393 331.9717712402343 L 2.0160000324249268 331.9360046386718 L 2.1668243408203125 331.77600097656244 L 2.2790000438690186 331.65701293945307 L 2.509999990463257 331.35998535156244 L 2.7049999237060547 331.05200195312494 L 2.8589999675750732 330.73999023437494 L 2.9679999351501465 330.43301391601557 L 3.0280001163482666 330.13699340820307 L 3.0399999618530273 329.85998535156244 L 3.0194900035858154 329.7279968261718 L 3.000999927520752 329.60900878906244 L 2.9140000343322754 329.39001464843744 L 2.7799999713897705 329.20901489257807 L 2.3989999294281006 328.8160095214843 L 2.2219998836517334 328.6759948730468 L 2.00600004196167 328.5820007324218 L 1.7569999694824219 328.53601074218744 L 1.4800000190734863 328.53799438476557 L 1.1820000410079956 328.58898925781244 L 0.8709999918937683 328.68701171874994 L 0.5550000071525574 328.8309936523437 L 0.23999999463558197 329.01599121093744 L 0 329.1912536621093 L -0.06400000303983688 329.2380065917968 L -0.35100001096725464 329.4920043945312 L -1.024999976158142 330.1449890136718 L -1.2879999876022339 330.4240112304687 L -1.5199999809265137 330.7210083007812 L -1.715000033378601 331.0289916992187 L -1.8110530376434326 331.2236022949218 L -1.86899995803833 331.3410034179687 L -1.9769999980926514 331.6489868164062 L -2.003261089324951 331.77600097656244 L -2.0380001068115234 331.94400024414057 L -2.0429086685180664 332.0675964355468 L -2.0490000247955322 332.2210083007812 L -2.010999917984009 332.4719848632812 L -1.9229999780654907 332.6910095214843 L -1.8087847232818604 332.84643554687494 M -0.5580000281333923 319.22500610351557 L -0.2985755205154419 319.4880065917968 L 0 319.79067993164057 L 0.0949999988079071 319.88699340820307 L 0.37400001287460327 320.1449890136718 L 0.6710000038146973 320.3729858398437 L 0.9789999723434448 320.5650024414062 L 1.2910000085830688 320.7160034179687 L 1.5989999771118164 320.82299804687494 L 1.8949999809265137 320.88198852539057 L 2.0480000972747803 320.88809204101557 L 2.1710000038146973 320.8930053710937 L 2.421999931335449 320.85501098632807 L 2.6410000324249268 320.7699890136718 L 2.822000026702881 320.6380004882812 L 3.0399999618530273 320.43106079101557 L 3.2160000801086426 320.2640075683593 L 3.3550000190734863 320.08999633789057 L 3.4489998817443848 319.8779907226562 L 3.496000051498413 319.6329956054687 L 3.4944007396698 319.4880065917968 L 3.493000030517578 319.36099243164057 L 3.441999912261963 319.06799316406244 L 3.3440001010894775 318.7630004882812 L 3.200000047683716 318.4509887695312 L 3.0399999618530273 318.1846313476562 L 3.015000104904175 318.1430053710937 L 2.7929999828338623 317.8429870605468 L 2.5390000343322754 317.5610046386718 L 2.419827699661255 317.4400024414062 L 1.8869999647140503 316.8989868164062 L 1.6080000400543213 316.64001464843744 L 1.309999942779541 316.41299438476557 L 1.0019999742507935 316.2210083007812 L 0.6899999976158142 316.0700073242187 L 0.382999986410141 315.96301269531244 L 0.08699999749660492 315.9039916992187 L 0 315.90054321289057 L -0.1899999976158142 315.8930053710937 L -0.4410000145435333 315.9299926757812 L -0.6600000262260437 316.01599121093744 L -0.8410000205039978 316.14700317382807 L -1.2339999675750732 316.52200317382807 L -1.3739999532699585 316.6960144042968 L -1.468000054359436 316.90798950195307 L -1.5140000581741333 317.1530151367187 L -1.5119999647140503 317.4249877929687 L -1.509389042854309 317.4400024414062 L -1.4609999656677246 317.7179870605468 L -1.3619999885559082 318.0230102539062 L -1.218999981880188 318.33401489257807 L -1.034000039100647 318.6430053710937 L -0.8109999895095825 318.94299316406244 L -0.5580000281333923 319.22500610351557 M 6.321000099182129 320.86099243164057 L 6.210230827331543 320.8930053710937 L 5.781000137329102 321.01699829101557 L 5.267000198364258 321.24600219726557 L 4.790999889373779 321.5450134277343 L 4.360000133514404 321.90701293945307 L 3.984999895095825 322.3259887695312 L 3.6710000038146973 322.79199218749994 L 3.424999952316284 323.29800415039057 L 3.3325178623199463 323.58401489257807 L 3.252000093460083 323.83300781249994 L 3.1549999713897705 324.38699340820307 L 3.135999917984009 324.94900512695307 L 3.196000099182129 325.5079956054687 L 3.3329999446868896 326.05398559570307 L 3.5439999103546143 326.5750122070312 L 3.8259999752044678 327.06201171874994 L 4.172999858856201 327.5039978027343 L 4.355769157409668 327.6799926757812 L 4.578000068664551 327.8940124511718 L 5.0329999923706055 328.22399902343744 L 5.53000020980835 328.4880065917968 L 6.059000015258789 328.67898559570307 L 6.609000205993652 328.7950134277343 L 7.170000076293945 328.83401489257807 L 7.730999946594238 328.7940063476562 L 8.192000389099121 328.69509887695307 L 8.281000137329102 328.6759948730468 L 8.809000015258789 328.4830017089843 L 9.305000305175781 328.2179870605468 L 9.382659912109375 328.16149902343744 L 9.760000228881836 327.88699340820307 L 9.973882675170898 327.6799926757812 L 10.163999557495117 327.49600219726557 L 10.510000228881836 327.05200195312494 L 10.789999961853027 326.5650024414062 L 10.859000205993652 326.3934936523437 L 10.963000297546387 326.1349792480468 L 11 326.04299926757807 L 11.026000022888184 325.9378356933593 L 11.135000228881836 325.4970092773437 L 11.192999839782715 324.93798828124994 L 11.17300033569336 324.37600708007807 L 11.074000358581543 323.8219909667968 L 11.026000022888184 323.67468261718744 L 10.99644947052002 323.58401489257807 L 10.963000297546387 323.48135375976557 L 10.899999618530273 323.28799438476557 L 10.859000205993652 323.2041625976562 L 10.652999877929688 322.78298950195307 L 10.338000297546387 322.3169860839843 L 9.961000442504883 321.8989868164062 L 9.71591567993164 321.6941833496093 L 9.529000282287598 321.53799438476557 L 9.052000045776367 321.24099731445307 L 8.538000106811523 321.0130004882812 L 8.192000389099121 320.9145202636718 L 8.11644172668457 320.8930053710937 L 7.997000217437744 320.85900878906244 L 7.440000057220459 320.78100585937494 L 6.877999782562256 320.78201293945307 L 6.321000099182129 320.86099243164057 M 7.498000144958496 232.84800720214838 L 7.73466682434082 232.96800231933588 L 7.7820000648498535 232.9920043945312 L 7.909586429595947 233.042007446289 L 8.07800006866455 233.10800170898432 L 8.192000389099121 233.13993835449213 L 8.385000228881836 233.19400024414057 L 8.697999954223633 233.24899291992182 L 9.015000343322754 233.27400207519526 L 9.333000183105469 233.26699829101557 L 9.64900016784668 233.22900390624994 L 9.960000038146973 233.16099548339838 L 10.239999771118164 233.06921386718744 L 10.26200008392334 233.06199645996088 L 10.30746841430664 233.042007446289 L 10.342592239379883 233.0265502929687 L 10.475703239440918 232.96800231933588 L 10.514549255371094 232.95091247558588 L 10.553000450134277 232.93400573730463 L 10.831000328063965 232.77900695800776 L 10.963000297546387 232.68659973144526 L 11.090999603271484 232.59700012207026 L 11.329819679260254 232.3927154541015 L 11.333000183105469 232.38999938964838 L 11.553000450134277 232.16000366210932 L 11.75 231.91000366210932 L 11.854999542236328 231.74543762207026 L 11.868000030517578 231.72506713867182 L 11.920999526977539 231.64199829101557 L 12.0649995803833 231.35800170898432 L 12.180999755859375 231.06199645996088 L 12.267000198364258 230.7559967041015 L 12.288000106811523 230.63862609863276 L 12.322999954223633 230.44299316406244 L 12.347000122070312 230.12499999999994 L 12.340999603271484 229.80700683593744 L 12.303000450134277 229.4920043945312 L 12.288000106811523 229.42439270019526 L 12.277263641357422 229.37600708007807 L 12.234000205993652 229.18099975585932 L 12.13599967956543 228.87800598144526 L 12.008000373840332 228.58700561523432 L 11.868000030517578 228.33840942382807 L 11.85200023651123 228.3099975585937 L 11.670000076293945 228.04899597167963 L 11.463000297546387 227.80700683593744 L 11.234000205993652 227.58700561523432 L 11.092803001403809 227.47573852539057 L 10.984000205993652 227.38999938964838 L 10.963000297546387 227.3766479492187 L 10.71500015258789 227.21899414062494 L 10.432000160217285 227.07499694824213 L 10.239999771118164 227.00041198730463 L 10.205495834350586 226.9869995117187 L 10.13599967956543 226.96000671386713 L 9.829000473022461 226.87300109863276 L 9.515999794006348 226.81799316406244 L 9.199000358581543 226.79299926757807 L 8.880999565124512 226.80000305175776 L 8.5649995803833 226.83799743652338 L 8.253999710083008 226.90600585937494 L 8.192000389099121 226.9263305664062 L 8.006909370422363 226.9869995117187 L 7.952000141143799 227.00500488281244 L 7.660999774932861 227.1329956054687 L 7.641962051391602 227.1436157226562 L 7.382999897003174 227.28799438476557 L 7.122000217437744 227.47000122070307 L 6.88100004196167 227.67700195312494 L 6.7049055099487305 227.861099243164 L 6.689443111419678 227.8772583007812 L 6.660999774932861 227.906997680664 L 6.519726276397705 228.08628845214838 L 6.464000225067139 228.156997680664 L 6.375894546508789 228.29508972167963 L 6.293000221252441 228.42500305175776 L 6.2440290451049805 228.52157592773432 L 6.14900016784668 228.708999633789 L 6.126828670501709 228.76557922363276 L 6.120707988739014 228.7811889648437 L 6.0329999923706055 229.00500488281244 L 6.0317277908325195 229.00952148437494 L 5.982876300811768 229.18334960937494 L 5.955999851226807 229.26499938964838 L 5.932790756225586 229.37600708007807 L 5.88700008392334 229.59500122070307 L 5.855999946594238 229.9299926757812 L 5.861999988555908 230.26699829101557 L 5.88700008392334 230.45620727539057 L 5.893862724304199 230.50814819335932 L 5.906000137329102 230.60000610351557 L 5.986999988555908 230.92700195312494 L 5.992330074310303 230.94139099121088 L 6.036509037017822 231.06071472167963 L 6.078000068664551 231.18899536132807 L 6.1159539222717285 231.2752838134765 L 6.137685775756836 231.32469177246088 L 6.181367874145508 231.42399597167963 L 6.205999851226807 231.479995727539 L 6.361999988555908 231.75700378417963 L 6.370875835418701 231.76972961425776 L 6.544000148773193 232.0180053710937 L 6.636451721191406 232.12608337402338 L 6.750999927520752 232.25999450683588 L 6.980000019073486 232.479995727539 L 6.990772724151611 232.48849487304682 L 7.230000019073486 232.67700195312494 L 7.3199567794799805 232.734390258789 L 7.342527389526367 232.748794555664 L 7.498000144958496 232.84800720214838 M 9.90375804901123 224.3200073242187 L 9.92199993133545 224.304946899414 L 10.008000373840332 224.23399353027338 L 10.152000427246094 224.083999633789 L 10.239999771118164 223.9696655273437 L 10.279000282287598 223.9190063476562 L 10.303000450134277 223.87930297851557 L 10.305999755859375 223.87434387207026 L 10.38599967956543 223.7420043945312 L 10.472000122070312 223.552993774414 L 10.536999702453613 223.35600280761713 L 10.56313705444336 223.2319946289062 L 10.579999923706055 223.1519927978515 L 10.598999977111816 222.94599914550776 L 10.595000267028809 222.73800659179682 L 10.567999839782715 222.531997680664 L 10.517999649047852 222.33000183105463 L 10.446000099182129 222.136001586914 L 10.35200023651123 221.94999694824213 L 10.305999755859375 221.8795776367187 L 10.303000450134277 221.87498474121088 L 10.23900032043457 221.7769927978515 L 10.219598770141602 221.75366210937494 L 10.216472625732422 221.7498931884765 L 10.105999946594238 221.6170043945312 L 9.956999778747559 221.47300720214838 L 9.92199993133545 221.446060180664 L 9.842761993408203 221.3850708007812 L 9.791999816894531 221.34599304199213 L 9.76371955871582 221.3289947509765 L 9.61400032043457 221.23899841308588 L 9.49451732635498 221.18400573730463 L 9.425000190734863 221.1519927978515 L 9.318922996520996 221.1170043945312 L 9.227999687194824 221.08700561523432 L 9.024999618530273 221.04499816894526 L 8.817999839782715 221.02600097656244 L 8.609999656677246 221.02999877929682 L 8.404999732971191 221.05700683593744 L 8.20300006866455 221.1069946289062 L 8.17591667175293 221.1170043945312 L 8.037178039550781 221.168228149414 L 8.008000373840332 221.17900085449213 L 7.998053550720215 221.18400573730463 L 7.822999954223633 221.27200317382807 L 7.736000061035156 221.3289947509765 L 7.64900016784668 221.386001586914 L 7.645582675933838 221.38883972167963 L 7.503223896026611 221.50717163085932 L 7.488999843597412 221.51899719238276 L 7.34499979019165 221.66799926757807 L 7.324047088623047 221.69543457031244 L 7.321000099182129 221.69799804687494 L 7.316222667694092 221.70568847656244 L 7.218999862670898 221.83299255371088 L 7.111999988555908 222.011001586914 L 7.092101097106934 222.05400085449213 L 7.070026874542236 222.1016998291015 L 7.039999961853027 222.14999389648432 L 7.0311689376831055 222.18566894531244 L 7.025000095367432 222.19900512695307 L 6.960000038146973 222.39700317382807 L 6.932000160217285 222.53233337402338 L 6.918000221252441 222.60000610351557 L 6.9120001792907715 222.66209411621088 L 6.8979997634887695 222.80700683593744 L 6.9019999504089355 223.01400756835932 L 6.9120001792907715 223.09030151367182 L 6.928999900817871 223.22000122070307 L 6.931970119476318 223.2319946289062 L 6.932000160217285 223.2321166992187 L 6.960755348205566 223.34829711914057 L 6.973058700561523 223.39799499511713 L 6.979000091552734 223.42199707031244 L 7.051000118255615 223.61599731445307 L 7.144999980926514 223.80200195312494 L 7.258999824523926 223.97599792480463 L 7.272022247314453 223.99179077148432 L 7.390999794006348 224.136001586914 L 7.540999889373779 224.27999877929682 L 7.5930633544921875 224.3200073242187 L 7.704999923706055 224.40600585937494 L 7.798179626464844 224.46200561523432 L 7.802363395690918 224.46452331542963 L 7.874682426452637 224.5079956054687 L 7.879673004150391 224.511001586914 L 7.882999897003174 224.5130004882812 L 8.071999549865723 224.60000610351557 L 8.192000389099121 224.6395874023437 L 8.269000053405762 224.66499328613276 L 8.472000122070312 224.70700073242182 L 8.678999900817871 224.72700500488276 L 8.88700008392334 224.72300720214838 L 9.093000411987305 224.69599914550776 L 9.293999671936035 224.64599609374994 L 9.48900032043457 224.57299804687494 L 9.612333297729492 224.511001586914 L 9.618301391601562 224.5079956054687 L 9.673999786376953 224.479995727539 L 9.847999572753906 224.36599731445307 L 9.90375804901123 224.3200073242187 M 7.711766242980957 252.781997680664 L 7.743373870849609 252.80099487304682 L 7.748364448547363 252.80400085449213 L 7.764999866485596 252.81399536132807 L 7.953999996185303 252.89999389648432 L 8.151000022888184 252.96499633789057 L 8.192000389099121 252.97367858886713 L 8.354000091552734 253.0079956054687 L 8.560999870300293 253.0269927978515 L 8.769000053405762 253.02299499511713 L 8.975000381469727 252.99600219726557 L 9.175999641418457 252.94599914550776 L 9.371000289916992 252.87399291992182 L 9.508766174316406 252.80400085449213 L 9.514670372009277 252.80099487304682 L 9.552063941955566 252.781997680664 L 9.555999755859375 252.77999877929682 L 9.636091232299805 252.72798156738276 L 9.729999542236328 252.667007446289 L 9.890000343322754 252.5339965820312 L 9.982000350952148 252.43881225585932 L 10.034000396728516 252.38499450683588 L 10.15999984741211 252.22000122070307 L 10.234999656677246 252.09638977050776 L 10.23799991607666 252.0914459228515 L 10.267999649047852 252.042007446289 L 10.330793380737305 251.90400695800776 L 10.354000091552734 251.85299682617182 L 10.418999671936035 251.65600585937494 L 10.461999893188477 251.45300292968744 L 10.480999946594238 251.24600219726557 L 10.47700023651123 251.03799438476557 L 10.449999809265137 250.83299255371088 L 10.399999618530273 250.6309967041015 L 10.354355812072754 250.5073852539062 L 10.32800006866455 250.43600463867182 L 10.234000205993652 250.25100708007807 L 10.119999885559082 250.07699584960932 L 9.98799991607666 249.917007446289 L 9.924458503723145 249.85600280761713 L 9.838000297546387 249.77299499511713 L 9.673999786376953 249.64700317382807 L 9.496000289916992 249.53999328613276 L 9.354567527770996 249.47489929199213 L 9.307000160217285 249.45300292968744 L 9.176676750183105 249.41000366210932 L 9.109999656677246 249.3880004882812 L 8.906999588012695 249.34599304199213 L 8.699999809265137 249.32600402832026 L 8.491999626159668 249.33000183105463 L 8.28600025177002 249.3569946289062 L 8.192000389099121 249.380386352539 L 8.085000038146973 249.406997680664 L 8.076874732971191 249.41000366210932 L 7.930674076080322 249.46398925781244 L 7.889999866485596 249.47900390624994 L 7.704999923706055 249.57299804687494 L 7.592052459716797 249.64700317382807 L 7.531000137329102 249.68699645996088 L 7.498236656188965 249.71403503417963 L 7.370999813079834 249.81900024414057 L 7.335480213165283 249.85600280761713 L 7.2270002365112305 249.96899414062494 L 7.129461288452148 250.095962524414 L 7.10099983215332 250.1329956054687 L 7.0695905685424805 250.18476867675776 L 6.993000030517578 250.31100463867182 L 6.9070000648498535 250.49999999999994 L 6.873956203460693 250.60014343261713 L 6.8470001220703125 250.68183898925776 L 6.843999862670898 250.690933227539 L 6.8420000076293945 250.69700622558588 L 6.798999786376953 250.90100097656244 L 6.78000020980835 251.1069946289062 L 6.783999919891357 251.3150024414062 L 6.810999870300293 251.52099609374994 L 6.843999862670898 251.65365600585932 L 6.8470001220703125 251.66572570800776 L 6.861000061035156 251.72200012207026 L 6.900345802307129 251.82856750488276 L 6.928199768066406 251.90400695800776 L 6.933000087738037 251.917007446289 L 7.0269999504089355 252.10200500488276 L 7.139999866485596 252.27600097656244 L 7.2729997634887695 252.43600463867182 L 7.421999931335449 252.58000183105463 L 7.586999893188477 252.70700073242182 L 7.687072277069092 252.7671508789062 L 7.711766242980957 252.781997680664 M 10.963000297546387 330.72122192382807 L 11.01099967956543 330.8720092773437 L 11.154000282287598 331.18798828124994 L 11.33899974822998 331.5029907226562 L 11.539259910583496 331.77600097656244 L 11.562000274658203 331.80700683593744 L 11.695399284362793 331.9583129882812 L 11.8149995803833 332.09399414062494 L 11.856145858764648 332.1365356445312 L 12.031881332397461 332.3181762695312 L 12.288000106811523 332.5829467773437 L 12.426569938659668 332.7261657714843 L 12.468000411987305 332.7690124511718 L 12.746999740600586 333.03100585937494 L 13.043999671936035 333.2630004882812 L 13.22819709777832 333.3796081542968 L 13.35200023651123 333.45800781249994 L 13.663999557495117 333.6119995117187 L 13.86458969116211 333.6823425292968 L 13.972000122070312 333.72000122070307 L 14.267999649047852 333.78100585937494 L 14.336000442504883 333.78372192382807 L 14.543999671936035 333.79199218749994 L 14.644195556640625 333.7768249511718 L 14.795000076293945 333.7539978027343 L 15.013999938964844 333.66699218749994 L 15.029793739318848 333.65530395507807 L 15.194999694824219 333.53298950195307 L 15.477999687194824 333.2593383789062 L 15.58899974822998 333.15200805664057 L 15.648664474487305 333.0760192871093 L 15.727999687194824 332.97500610351557 L 15.821999549865723 332.7590026855468 L 15.869000434875488 332.51000976562494 L 15.868550300598145 332.4476928710937 L 15.868107795715332 332.38647460937494 L 15.866999626159668 332.2330017089843 L 15.818076133728027 331.95263671874994 L 15.8149995803833 331.9349975585937 L 15.764897346496582 331.77600097656244 L 15.717000007629395 331.6239929199218 L 15.572999954223633 331.30801391601557 L 15.477999687194824 331.14624023437494 L 15.387999534606934 330.9930114746093 L 15.166000366210938 330.68899536132807 L 14.911999702453613 330.40200805664057 L 14.260000228881836 329.7269897460937 L 13.980999946594238 329.46499633789057 L 13.682999610900879 329.2330017089843 L 13.375 329.03799438476557 L 13.062999725341797 328.8840026855468 L 12.755999565124512 328.77600097656244 L 12.460000038146973 328.71499633789057 L 12.288000106811523 328.70816040039057 L 12.182999610900879 328.70401000976557 L 12.031843185424805 328.7268981933593 L 11.932000160217285 328.7420043945312 L 11.713000297546387 328.82901000976557 L 11.531999588012695 328.96301269531244 L 11.138999938964844 329.34399414062494 L 10.99899959564209 329.52099609374994 L 10.963000297546387 329.6037292480468 L 10.904999732971191 329.7369995117187 L 10.859000205993652 329.98599243164057 L 10.861000061035156 330.2630004882812 L 10.911999702453613 330.5610046386718 L 10.963000297546387 330.72122192382807 M 14.357999801635742 320.10900878906244 L 14.988524436950684 319.4880065917968 L 15.020000457763672 319.4570007324218 L 15.277999877929688 319.17800903320307 L 15.477999687194824 318.91748046874994 L 15.505999565124512 318.88101196289057 L 15.697999954223633 318.5719909667968 L 15.848999977111816 318.26000976562494 L 15.869000434875488 318.2026062011718 L 15.956000328063965 317.95300292968744 L 16.014999389648438 317.65701293945307 L 16.023616790771484 317.4400024414062 L 16.025999069213867 317.38000488281244 L 15.98799991607666 317.1289978027343 L 15.902999877929688 316.91101074218744 L 15.869000434875488 316.86413574218744 L 15.770999908447266 316.72900390624994 L 15.477999687194824 316.4211120605468 L 15.397000312805176 316.3359985351562 L 15.222999572753906 316.1960144042968 L 15.01099967956543 316.1019897460937 L 14.765999794006348 316.0559997558593 L 14.494000434875488 316.05801391601557 L 14.336000442504883 316.0855102539062 L 14.201000213623047 316.10900878906244 L 13.895999908447266 316.20800781249994 L 13.583999633789062 316.3510131835937 L 13.274999618530273 316.53698730468744 L 12.97599983215332 316.7590026855468 L 12.694000244140625 317.01199340820307 L 12.632369995117188 317.07278442382807 L 12.288000106811523 317.41247558593744 L 12.031999588012695 317.6650085449218 L 11.77299976348877 317.94400024414057 L 11.545999526977539 318.24099731445307 L 11.354000091552734 318.5499877929687 L 11.20300006866455 318.86099243164057 L 11.095999717712402 319.1690063476562 L 11.036999702453613 319.46499633789057 L 11.036083221435547 319.4880065917968 L 11.026000022888184 319.74099731445307 L 11.062999725341797 319.9920043945312 L 11.14900016784668 320.2109985351562 L 11.279999732971191 320.3930053710937 L 11.654999732971191 320.78601074218744 L 11.829000473022461 320.9249877929687 L 12.041000366210938 321.0190124511718 L 12.28600025177002 321.0660095214843 L 12.288000106811523 321.0659790039062 L 12.426656723022461 321.06497192382807 L 12.557999610900879 321.06399536132807 L 12.85099983215332 321.0130004882812 L 13.156000137329102 320.9140014648437 L 13.467000007629395 320.7699890136718 L 13.776000022888184 320.58499145507807 L 14.076000213623047 320.3630065917968 L 14.357999801635742 320.10900878906244 z" fill="#A9A9A9" stroke="rgb(255,0,0)" stroke-width="0.001mm" />
</svg>