<?xml version="1.0" encoding="utf-8"?>
<!-- Generator: Adobe Illustrator 24.1.0, SVG Export Plug-In . SVG Version: 6.00 Build 0)  -->
<svg version="1.1" id="Layer_1" xmlns="http://www.w3.org/2000/svg" xmlns:xlink="http://www.w3.org/1999/xlink" x="0px" y="0px"
	 viewBox="0 0 105.5 383.4" style="enable-background:new 0 0 105.5 383.4;" xml:space="preserve">
<style type="text/css">
	.st0{fill:#4D4D4D;stroke:#FF0000;stroke-width:8.035216e-03;stroke-miterlimit:11.3386;}
</style>
<desc>yellowjacket</desc>
<path class="st0" d="M93.6,361.5l-10.1,7.1l-7.2,5l-1.4,1l-8.6,6l-5.2-3.9l-7.3-5.5l-2.2-1.7l-3.7,2.3l-3.5-2.3L29.4,380l-5.8-4.4
	l-4-3l-6.9-5.2l-1.9-1.4l-7.9-6l7.9-23l1.9-5.5l0.3-0.9l0.5-26.6l7.5-4.5l0.6-0.4l2-1.2l0.5-0.3l0.3-3l0.1-1.1l1-12.3l1-13.9
	l0.9-14.3l0.1-1.7l0.2-4.3l0.5-8.8l0.8-15.2l0.7-15.6l0.6-15.4l0.5-15.1l0.3-10.5l0.1-4.1l0.1-5l0-0.1l0.1-3.1l0.1-6.1l0.1-11l0-2.9
	l0-13.5l0-2.7l-0.1-10.3l0-0.2l-0.2-11.5l0-1.3L30.7,82l0-0.9l-0.1-2.4L30.2,70L29.7,61l-0.1-2.3l0-0.2l-0.8-11.1l-0.9-10.9L27.2,30
	l0.1-0.1l0.2-0.2l0.4-0.4l0.8-1l0,0l2.7-3.1l19-21.9l0.3-0.3l0,0l0.4,0.4l7,6.1l13.6,11.8l2.6,2.2l2.4,2.1l2.3,2l2,1.7l0,0l0.2,0.2
	l0.1,0.1l0,0.5l-0.1,0.7l-0.9,6.8L79,48.2l-1.2,11.1L77.7,61l-0.9,9.4l0,0.5L76,81.1L76,81.8l0,0l0.3,0l4.9-0.5l3-0.1l0.5,0l1.3,0
	l4.4,0.3l3.7,0.8l0.5,0.2l0.5,0.2l0.9,0.4l1.1,0.4l0,0l2.4,1.7l1.7,2.1l1,2.5l0.3,2.9l-0.5,3.2l-0.8,2.4l-0.3,0.8l-0.1,0.4l-0.3,0.6
	l-1.6,3.2l-2.6,4.1l-0.2,0.3l-1.5,1.9l0,0l-1,0l-1.8,0.2l-1.8,0.4l-1.8,0.6l-1.7,0.7l-0.1,0l-1.7,0.9l-1.6,1l-1.5,1.2l-1.5,1.3
	l-1.3,1.4l-1.2,1.5l-1.1,1.6l-1,1.7l-0.6,1.3l-0.2,0.4l-0.6,1.8L74,127l0,1l-0.1,1.9l0,0l-0.7,14.3l-0.1,4.3l-0.1,5.3l-0.2,8.9
	l0,3.4l-0.1,11.3l-0.1,15.1l0,15.5l0.1,15.6l0.2,15.2l0.1,5.9l0,2.1l0.1,6.7l0.4,14.3l0.5,13.9l0.5,11.5l0.1,2l0.1,2.7l0,0.7L77,300
	l0.6,0.4l2.8,1.9l3.2,2.1l1,0.6l-0.4,24.6l0,1L93.6,361.5 M88.1,98L88.1,98L88.1,98l0.1,0.1l0.4,0.4l0.4,0.3l0.1,0.1l0.5,0.3
	l0.5,0.2l0.6,0.2l0.6,0.1l0.6,0.1l0.6,0l0.2,0l0.4-0.1l0.6-0.1l0.6-0.2l0.5-0.3l0.4-0.3l0.1-0.1l0.5-0.4l0.3-0.4L96,98l0.1-0.2
	l0.2-0.3l0.3-0.5l0.2-0.5l0.2-0.6l0-0.2l0.1-0.4l0.1-0.6l0-0.6l-0.1-0.6L97,93.1l-0.2-0.6L96.6,92l-0.3-0.5l-0.1-0.1l0-0.1L95.9,91
	l0,0l-0.3-0.2l-0.1-0.1l-0.1-0.1l-0.1-0.1l0,0l-0.1-0.1L95,90.3l0,0l0,0l-0.1,0l0-0.1l-0.1-0.1L94.7,90l0,0l-0.4-0.3L94,89.4
	l-0.1-0.1l0,0l-0.4-0.4l0,0l-0.2-0.1l-0.1-0.1l-0.3-0.3l-0.3-0.2L92.4,88l-0.5-0.3l-0.3-0.1l-0.2-0.1l-0.6-0.2l-0.6-0.1l-0.6-0.1
	l-0.6,0l-0.6,0.1l-0.6,0.1l-0.6,0.2l-0.1,0l-0.1,0.1l-0.3,0.2l0,0l-0.4,0.3l-0.5,0.4L85.5,89l-0.4,0.5l-0.3,0.5l0,0.1l0,0.1
	l-0.2,0.4L84.4,91l-0.1,0.6l-0.1,0.6l0,0.6l0.1,0.6l0.1,0.6l0.2,0.6l0.1,0.2l0,0.1l0.1,0.2l0.1,0.2l0.2,0.3l0,0l0.2,0.3l0.1,0.2
	l0.4,0.4l0,0l0.2,0.1l0.1,0.1l0.3,0.3l0.2,0.2l0.2,0.2l0,0l0.4,0.4l0.1,0.1l0.2,0.2L88,98L88.1,98L88.1,98 M66.2,355.8l0.4,0.2
	l0.9,0.4l0.6,0.2l0.3,0.1l0.8,0.2l0.2,0l0.6,0l0.3,0l0.4-0.1l0.6-0.2l0,0l0.5-0.3l1.1-1.1l0.2-0.2l0.2-0.3l0.3-0.6l0.1-0.7l0-0.2
	l0-0.2l0-0.4l-0.1-0.8l0-0.1l-0.1-0.5l-0.1-0.4l-0.4-0.9l-0.5-0.9l-0.6-0.9l-0.7-0.8l-1.8-1.9l-0.8-0.7l-0.8-0.7l-0.9-0.6l-0.9-0.4
	l-0.9-0.3l-0.8-0.2l-0.5,0l-0.3,0l-0.4,0.1l-0.3,0l-0.6,0.2l-0.5,0.4l-1.1,1.1l-0.4,0.5l-0.3,0.6l-0.1,0.7l0,0.8l0.1,0.8l0.3,0.9
	l0.4,0.9l0.5,0.9l0.6,0.8l0.1,0.1l0.4,0.4l0.3,0.4l0.1,0.1l0.5,0.5l0.7,0.8l0.4,0.4l0.1,0.1l0.8,0.7l0.8,0.7L66.2,355.8 M69.4,318.2
	l1.8-1.8l0.1-0.1l0.7-0.8l0.6-0.8l0.5-0.9l0.4-0.9l0.1-0.2L74,312l0.2-0.8l0-0.6l0-0.2l-0.1-0.7l-0.2-0.6l-0.1-0.1l-0.3-0.4
	l-1.1-1.1l-0.5-0.4l-0.6-0.3l-0.7-0.1l-0.8,0l-0.4,0.1l-0.4,0.1l-0.9,0.3l-0.9,0.4l-0.9,0.5l-0.8,0.6l-0.8,0.7l-0.2,0.2l-1,1
	l-0.7,0.7l-0.7,0.8l-0.6,0.8l-0.5,0.9l-0.4,0.9l-0.3,0.9l-0.2,0.8l0,0.1l0,0.7l0.1,0.7l0.2,0.6l0.4,0.5l1.1,1.1l0.5,0.4l0.6,0.3
	l0.7,0.1l0,0l0.4,0l0.4,0l0.8-0.1l0.9-0.3l0.9-0.4l0.9-0.5l0.9-0.6L69.4,318.2 M23.6,354.3L23.6,354.3l1.1,1.2l0.5,0.4l0.6,0.3
	l0.7,0.1l0.8,0l0.8-0.1l0.5-0.2l0.3-0.1l0.9-0.4l0.9-0.5l0.9-0.6l0.8-0.7l1.3-1.3l0.5-0.5l0.1-0.1l0.4-0.5l0.3-0.3l0.7-0.8l0.6-0.9
	l0.4-0.9l0.3-0.9l0.2-0.8l0-0.8l-0.1-0.4l-0.1-0.3l-0.2-0.6l-0.4-0.5l-1.1-1.1l-0.5-0.4l-0.6-0.3l-0.7-0.1l-0.8,0l-0.8,0.1l-0.9,0.3
	l-0.9,0.4l-0.9,0.5l-0.7,0.5l-0.2,0.1l-0.8,0.7l-1.9,1.9l-0.7,0.8l-0.7,0.8l-0.6,0.9l-0.3,0.6l-0.2,0.3l-0.3,0.9l-0.1,0.4l-0.1,0.5
	l0,0.4l0,0.4l0.1,0.7l0.2,0.6L23.6,354.3 M27.2,315.7l0.7,0.7l0.8,0.9l0.3,0.3l0.8,0.7l0.8,0.6l0.9,0.5l0.9,0.4l0.9,0.3l0.8,0.2
	l0.4,0l0.3,0l0.7-0.1l0.6-0.2l0.5-0.4l0.6-0.6l0.5-0.5l0.4-0.5l0.3-0.6l0.1-0.7l0-0.4l0-0.4l-0.1-0.8l-0.3-0.9l-0.4-0.9l-0.5-0.8
	l-0.1-0.1l-0.6-0.9l-0.7-0.8l-0.3-0.3l-1.5-1.5l-0.8-0.7l-0.8-0.6l-0.9-0.5l-0.9-0.4l-0.9-0.3l-0.8-0.2l-0.2,0l-0.5,0l-0.7,0.1
	l-0.6,0.2l-0.5,0.4l-1.1,1.1l-0.4,0.5l-0.3,0.6l-0.1,0.7l0,0.8l0,0l0.1,0.8l0.3,0.9l0.4,0.9l0.5,0.9l0.6,0.9L27.2,315.7 M46.7,320.3
	l-0.3,0.1l-1.2,0.4l-1.5,0.6l-1.3,0.8l-1.2,1l-1.1,1.2l-0.9,1.3l-0.7,1.4l-0.3,0.8l-0.2,0.7l-0.3,1.6l-0.1,1.6l0.2,1.6l0.4,1.5
	l0.6,1.5l0.8,1.4l1,1.3l0.5,0.5l0.6,0.6l1.3,0.9l1.4,0.7l1.5,0.5l1.6,0.3l1.6,0.1l1.6-0.1l1.3-0.3l0.3-0.1l1.5-0.5l1.4-0.8l0.2-0.2
	l1.1-0.8l0.6-0.6l0.5-0.5l1-1.3l0.8-1.4l0.2-0.5l0.4-1l0.1-0.3l0.3-1.2l0.2-1.6l-0.1-1.6l-0.3-1.6l-0.1-0.4l-0.1-0.3l-0.3-0.8
	l-0.1-0.2l-0.6-1.2l-0.9-1.3l-1.1-1.2l-0.7-0.6l-0.5-0.4l-1.4-0.8l-1.5-0.6l-1-0.3l-0.2-0.1l-0.3-0.1l-1.6-0.2l-1.6,0L46.7,320.3
	 M50,70.8l0.7,0.3l0.1,0.1l0.4,0.1l0.5,0.2l0.3,0.1l0.5,0.2l0.9,0.2l0.9,0.1l0.9,0l0.9-0.1l0.9-0.2l0.8-0.3l0.1,0l0.1-0.1l0.1,0
	l0.4-0.2l0.1,0l0.1,0l0.8-0.4l0.7-0.5l0.7-0.6l0,0l0.6-0.7l0.6-0.7l0.3-0.5l0-0.1l0.2-0.2l0.4-0.8l0.3-0.8l0.2-0.9l0.1-0.3l0.1-0.6
	l0.1-0.9l0-0.9l-0.1-0.9l0-0.2l0-0.1l-0.1-0.6l-0.3-0.9l-0.4-0.8L62.4,58l0-0.1l-0.5-0.7l-0.6-0.7l-0.6-0.6l-0.4-0.3l-0.3-0.2
	l-0.8-0.5l-0.8-0.4l-0.5-0.2l-0.1,0l-0.2-0.1l-0.9-0.2l-0.9-0.2l-0.9-0.1l-0.9,0L53,53.8L52.1,54L52,54l-0.5,0.2l-0.2,0.1l-0.8,0.4
	l-0.1,0L49.7,55l-0.7,0.5l-0.7,0.6l-0.5,0.5l0,0l-0.1,0.1l-0.4,0.5l-0.2,0.2l-0.2,0.4l-0.2,0.4l-0.1,0.3l-0.3,0.5l-0.1,0.2l0,0
	l-0.2,0.6l0,0l-0.1,0.5l-0.1,0.2L45.6,61l-0.1,0.6l-0.1,0.9l0,1l0.1,0.5l0,0.1l0,0.3l0.2,0.9l0,0l0.1,0.3l0.1,0.4l0.1,0.2l0.1,0.1
	l0.1,0.3l0.1,0.2l0.4,0.8l0,0l0.5,0.7l0.3,0.3l0.3,0.4l0.6,0.6l0,0l0.7,0.5l0.3,0.2l0.1,0L50,70.8 M56.8,46.6L56.8,46.6l0.3-0.2
	l0.4-0.4l0.2-0.3l0.1-0.1l0.1-0.1l0,0l0.2-0.4l0.2-0.5l0.2-0.6l0.1-0.4l0-0.2l0.1-0.6l0-0.6l-0.1-0.6L58.6,41l-0.2-0.5l-0.3-0.5
	L58,39.7l0,0l-0.2-0.3l-0.1-0.1l0,0L57.4,39L57,38.6l-0.1-0.1l-0.2-0.2l-0.1-0.1l-0.1,0L56,37.9l-0.3-0.2l-0.2-0.1l-0.3-0.1
	l-0.3-0.1l-0.6-0.1l-0.6-0.1l-0.6,0l-0.6,0.1L52,37.5l-0.1,0l-0.4,0.1l-0.1,0l0,0L50.9,38l-0.2,0.2l-0.2,0.2l0,0L50,38.7l0,0
	l-0.4,0.4l-0.1,0.1l0,0l0,0l-0.3,0.4l-0.3,0.5l-0.1,0.1l-0.1,0.1l-0.1,0.1l0,0.1l0,0l-0.2,0.6l-0.1,0.4l0,0.2l0,0.2l0,0.4l0,0.6
	l0,0.2l0,0.4l0,0l0,0l0.1,0.3l0,0.1l0,0.1l0.2,0.5l0.3,0.5l0.3,0.5l0,0l0.3,0.4l0.4,0.4l0.1,0.1l0.3,0.2l0.3,0.2l0,0l0.2,0.1l0,0
	l0,0l0.5,0.2l0.3,0.1l0.2,0.1l0.6,0.1l0.6,0.1l0.6,0l0.6-0.1l0.6-0.1l0.6-0.2l0.3-0.2l0,0l0.2-0.1l0.5-0.3L56.8,46.6 M48.9,119.8
	l-0.1,0.1l-0.2,0.4l-0.2,0.5l-0.1,0.3l-0.1,0.2l0,0l0,0L48,122l-0.1,0.6l0,0.6l0.1,0.6l0.1,0.4l0,0l0,0.2l0.1,0.3l0.1,0.2l0,0
	l0.3,0.5l0.3,0.5l0.4,0.5l0.4,0.4l0.5,0.4l0.3,0.2l0.1,0l0.1,0.1l0,0l0,0l0.5,0.2l0.6,0.2l0.1,0l0.5,0.1L53,128l0.6,0l0.6-0.1
	l0.6-0.1l0.6-0.2l0.4-0.2l0,0l0.1-0.1l0,0l0.2-0.1l0.3-0.2l0.5-0.4l0.3-0.3l0.1-0.2l0.4-0.5l0.2-0.4l0,0l0.1-0.1l0.2-0.4l0.1-0.1
	l0.2-0.6l0.1-0.6l0.1-0.6l0-0.6l-0.1-0.6l-0.1-0.6l-0.1-0.4l-0.1-0.2l-0.3-0.5l-0.3-0.5l-0.4-0.5l-0.2-0.2l-0.2-0.2l-0.5-0.4
	l-0.5-0.3l-0.4-0.2l-0.1-0.1l-0.4-0.1l-0.2-0.1l-0.6-0.1l-0.6-0.1l-0.6,0l-0.6,0.1l-0.3,0.1l-0.3,0.1l0,0l-0.4,0.2l-0.1,0l-0.5,0.3
	l-0.3,0.2l-0.2,0.1l-0.1,0.1l-0.4,0.3l-0.1,0.1l-0.3,0.3l-0.3,0.4L48.9,119.8z"/>
</svg>
