<?xml version="1.0" encoding="utf-8"?>
<!-- Generator: Adobe Illustrator 24.1.0, SVG Export Plug-In . SVG Version: 6.00 Build 0)  -->
<svg version="1.1" id="Layer_1" xmlns="http://www.w3.org/2000/svg" xmlns:xlink="http://www.w3.org/1999/xlink" x="0px" y="0px"
	 viewBox="0 0 96.4 383.6" style="enable-background:new 0 0 96.4 383.6;" xml:space="preserve">
<style type="text/css">
	.st0{fill:#4D4D4D;stroke:#FF0000;stroke-width:8.035216e-03;stroke-miterlimit:11.3386;}
</style>
<desc>yellowjacket</desc>
<path class="st0" d="M52.6,127.4L52.6,127.4l0.2,0.1l0,0l0.1,0l0.8-0.1l0.6,0l0,0l0.3-0.1l1.1-0.4l0,0l0,0l0.9-0.8l0.2-0.2l0,0
	l0.4-0.7l0.4-0.6l0,0l0.3-1.4l0,0l0-0.1l-0.1-1.4l0,0l-0.1-0.3l-0.5-1.1l0,0l0-0.1l-0.9-1.1l0,0l0,0l-0.6-0.4l-0.1-0.1l-0.5-0.3
	l-1.5-0.4l-1.5,0.1l-1.4,0.6l0,0l-0.6,0.5l-0.6,0.5l-0.6,1l-0.2,0.2l-0.1,0.5l-0.2,0.9l0,0l0,0.1l0,0.2l0,0.1l0.1,1.4l0.5,1.3
	l0.9,1.1l1.2,0.7L52.6,127.4L52.6,127.4 M84.7,305.2l-0.5,24.6l0,0l0,1l3.2,10.7l6.2,20.3l-9.8,6.8l-17.5,12.2l-4.6-3.4l-10.1-7.7
	l-3.7,2.3l-3.5-2.3l-7.4,5.1l-7.6,5.3l-14.6-11l-12-9.1l9.9-28.5l0.4-1l0.5-26.6l8.1-4.9l2.5-1.5l0.2-1.9l0.1-1.1l1.1-13.5l1-13.9
	l0.9-14.3l0.2-3.7l0.6-11l0.5-10.5l0.2-4.7l0.7-15.6l0.6-15.4l0.5-15.1l0.4-14.7l0.1-6l0.1-8.3l0.1-13.9l0-13.5l0-5.8l0-4.1l0-0.9
	l0-2.4l-0.2-12.8L31,82.1l-0.5-12l-0.4-6.9l-0.3-4.7l0-0.1l-0.7-11l-0.9-10.9l-0.7-7.4l0.1-0.1l0.2-0.3l0.2-0.2L37.3,18l4.8-5.5
	l8.4-9.7l13.8,12l1.4,1.2l15.5,13.5l0.2,0.2l0.2,0.2l0.1,0.1l-1,7.5l-1.3,10.8l-0.9,8.4l-0.3,2.7l-0.3,3.8L77.2,71L76.3,83
	l-0.8,12.4l-0.7,12.8l-0.1,1.6l0,0.8l-0.5,10.8l-0.5,13.5l-0.4,13.9l-0.2,7.5l0,1l-0.1,5.8l-0.2,14.7l-0.1,15.1l0,15.5l0.1,15.6
	l0.1,10.3l0.1,4.9l0.2,10.2l0.1,4.6l0.3,9.3l0.1,4.6l0,0.5l0.5,13.9l0.6,13.5l0,0.1l0.2,3.3l2.2,1.4l3.4,2.3l3.2,2.1L84.7,305.2
	 M38,328.9l-0.2,1.4l0,0.1l-0.1,1.6l0.2,1.6l0.2,1l0,0.2l0.1,0.4l0,0l0.3,0.6l0.2,0.6l0.1,0.2l0.2,0.4l0.4,0.7l0.1,0.3l0.3,0.4
	l0.5,0.7l0.1,0.1l1.1,1.1l1.3,0.9l0.3,0.2l0.9,0.5l0.2,0.1l1.5,0.5l1.6,0.3l1.6,0.1l1.6-0.1l0.5-0.1l1-0.2l1.5-0.5l0.2-0.1l0.9-0.5
	l0.3-0.2l0.7-0.5l0.6-0.5l0.3-0.3l0.8-0.8l0.3-0.4l0.7-0.9l0.3-0.5l0.5-0.9l0.3-0.7l0.3-0.7l0.3-1.3l0.1-0.3l0.2-1.6l0-1l0-0.6
	l0-0.1l-0.2-1l0,0l-0.1-0.5l-0.5-1.5l-0.7-1.4l-0.9-1.3l-1.1-1.2l-1.2-1l0,0l-1.3-0.8l-1.1-0.5l-0.4-0.2l-1.5-0.4l-1.6-0.2h-1.6
	l-1.6,0.2l-1.5,0.4l-1,0.4l-0.5,0.2l-1.4,0.8l-1.2,1l-1.1,1.2l-0.9,1.3l-0.7,1.4l-0.5,1.5L38,328.9 M37,319.6l0.7-0.7l0.2-0.2l0,0
	l0.4-0.5l0.1-0.2l0.1-0.2l0.1-0.3l0.1-0.6l0-0.1l0-0.8l-0.1-0.8l-0.2-0.5l0-0.1l-0.1-0.3l-0.3-0.7l-0.1-0.2l-0.4-0.7l-0.1-0.2
	l-0.3-0.5l-0.3-0.4L36,311l-1.8-1.9l-0.8-0.7l-0.8-0.6l0,0l-0.8-0.5l-0.1-0.1l-0.3-0.1l-0.4-0.2l-0.2-0.1l-0.6-0.2l-0.3-0.1
	l-0.4-0.1l-0.4-0.1l-0.4,0l-0.4,0l-0.7,0.1l-0.6,0.2l-0.5,0.4l-0.1,0.1l-0.4,0.4l-0.6,0.6l-0.1,0.1l-0.3,0.4l-0.2,0.5l-0.1,0.1
	l-0.1,0.7l0,0.1l0,0.5l0,0.2l0.1,0.8l0.3,0.9l0.1,0.3l0.1,0.3l0.1,0.3l0.5,0.9l0.6,0.8l0,0l0.7,0.8l1.8,1.9l0.1,0.1l0.7,0.7l0.5,0.4
	l0.4,0.3l0.9,0.5l0.9,0.4l0.1,0l0.2,0.1l0.6,0.2l0.8,0.2l0.8,0l0.7-0.1l0.6-0.2l0.5-0.4L37,319.6 M60.4,318.6l0.1,0.1l0.1,0.1
	l0.2,0.3l0.3,0.4l0.5,0.5l0.2,0.2l0.2,0.2l0.3,0.2l0.6,0.3l0.4,0.1l0.2,0l0.8,0l0.1,0l0.7-0.1l0.1,0l0.8-0.3l0.9-0.4l0.4-0.3
	l0.4-0.3l0.9-0.6l0.4-0.3l0,0l0.4-0.4l1.9-1.8l0.7-0.8l0.1-0.1l0.6-0.8l0.4-0.7l0.1-0.2l0.4-0.9l0.1-0.2l0.1-0.3l0.2-0.5l0.2-0.8
	l0-0.8l-0.1-0.7l-0.2-0.5l0-0.1l-0.4-0.5l-0.2-0.3l-0.1-0.1l-0.7-0.8l0,0l-0.5-0.4l-0.3-0.1l-0.3-0.2l-0.7-0.1l-0.8,0l-0.8,0.1
	l-0.4,0.1l-0.5,0.1l-0.8,0.4l-0.1,0l-0.9,0.5l-0.9,0.6l-0.8,0.7l-1.9,1.8l-0.7,0.8l-0.6,0.7l0,0l-0.1,0.1l-0.4,0.7l-0.1,0.2l0,0
	l-0.4,0.8l-0.1,0.1l0,0l-0.3,0.8l0,0.2l-0.1,0.7l0,0.8l0.1,0.7l0,0.1L60.4,318.6 M72.9,350l-0.5-0.9l-0.6-0.9l-0.5-0.6l-0.2-0.3
	l-1.8-1.9l-0.8-0.7l-0.8-0.7l-0.1-0.1l-0.5-0.3l-0.3-0.2l-0.5-0.3l-0.3-0.2l-0.4-0.1l-0.5-0.2l-0.3-0.1l-0.5-0.1l-0.3,0l-0.4,0
	l-0.7,0.1L62,343l-0.3,0.2l-0.1,0.1l-0.1,0.1l-0.7,0.7l-0.4,0.4l-0.4,0.5l0,0l-0.3,0.6l-0.1,0.7l0,0.1l0,0.7l0.1,0.7l0,0.2l0.1,0.2
	l0.2,0.7l0.1,0.1l0.3,0.8l0.5,0.9l0.6,0.9l0.7,0.8l1.2,1.3l0.6,0.6l0.1,0.1l0.6,0.6l0.6,0.5l0.2,0.2l0.7,0.5l0.2,0.1l0.7,0.4l0.1,0
	l0.1,0l0.7,0.3l0.2,0.1l0.8,0.2l0,0l0.8,0l0.3,0l0.1,0l0.4-0.1l0.6-0.2l0.5-0.4l1.1-1.1l0.1-0.2l0.1-0.2l0.1-0.2l0.3-0.6l0.1-0.6
	l0-0.1l0-0.8l-0.1-0.8l-0.3-0.9l-0.1-0.2l-0.1-0.1L72.9,350L72.9,350 M37.3,345.2l-0.1-0.4l-0.1-0.3l0,0l-0.4-0.5l-0.2-0.2l-0.8-0.8
	l-0.1-0.1l-0.5-0.4l-0.6-0.3l-0.7-0.1l-0.8,0l-0.4,0.1l-0.5,0.1l-0.5,0.1l-0.4,0.1l-0.3,0.1l-0.6,0.3l-0.9,0.5l-0.8,0.6l-0.1,0.1
	l-0.8,0.7l-1,1l-0.9,0.9l0,0l-0.7,0.8l-0.2,0.3l-0.1,0.1l-0.4,0.5l-0.3,0.4l-0.3,0.5l-0.2,0.4l-0.2,0.4l-0.1,0.1l-0.3,0.9l-0.2,0.8
	l0,0.8l0.1,0.7l0.1,0.3l0.1,0.4l0.2,0.2l0.2,0.3l0.4,0.4l0.7,0.7l0.3,0.2l0.2,0.1l0.6,0.3l0.7,0.1l0.1,0l0.1,0l0.6,0l0.8-0.1
	l0.9-0.3l0.8-0.3l0.1-0.1l0.9-0.5l0.9-0.6l0.8-0.7l0,0l0.1-0.1l1.8-1.8l0.7-0.8l0.7-0.8l0.6-0.9l0-0.1l0.4-0.8l0,0L37,348l0.1-0.2
	l0.1-0.2l0.2-0.8l0-0.8L37.3,345.2 M45.9,63.3l0.1,1.4l1,2.5l1.7,2l2,1.2l0.3,0.2l2.6,0.6l2.7-0.2l0.1,0l2.4-1l2-1.7l1.4-2.3
	l0.6-2.6l0-0.3l-0.2-2.4l-1-2.5l-1.7-2L57.7,55l-2.6-0.6l-2.7,0.2l-2.5,1l-2,1.7l-1.4,2.3L45.8,62L45.9,63.3 M50.8,46.4l0.6,0.4
	l0.3,0.2l0,0l1.4,0.4l0,0l0.1,0l1.4-0.1l0,0l1.1-0.4l0,0l0.3-0.1l0,0l0.4-0.3l0.8-0.6l0,0l0.1-0.1l0.7-1.2l0,0l0.3-1.4l0,0l0-0.1
	l-0.1-1.4l0,0l-0.5-1.3l0,0l0,0l-0.4-0.5l-0.6-0.7l0,0l0,0l-0.9-0.6L55.5,38L54,37.7l-1.5,0.1l-1.2,0.5l-0.2,0.1L50.3,39l-0.4,0.3
	l-0.5,0.7l-0.2,0.3l-0.1,0.2l-0.3,1.2l-0.1,0.2l0.1,0.8l0,0.4l0,0.3l0.4,0.9l0.2,0.5l1,1.2l0,0l0,0L50.8,46.4z"/>
</svg>
