<?xml version="1.0" standalone="no"?>
<!DOCTYPE svg PUBLIC "-//W3C//DTD SVG 1.1//EN"
  "http://www.w3.org/Graphics/SVG/1.1/DTD/svg11.dtd">
<svg width="119.75000381469727mm" height="73.63099670410155mm" viewBox="31.518001556396484 79.96099853515624 119.75000381469727 73.63099670410155" xmlns="http://www.w3.org/2000/svg" version="1.1">
	<title>svgOutput</title>
	<desc>Yellowjacket</desc>
<path d="M 145.58799743652344 146.20700073242185 L 141.94476318359375 148.56384277343747 L 138.24530029296875 150.9570617675781 L 135.71800231933594 152.59199523925778 L 131.54617309570312 149.20167541503903 L 127.1806869506836 145.65397644042966 L 118.52357482910156 142.31359863281247 L 117.87799835205078 139.27752685546872 L 117.82440185546875 139.0254974365234 L 117.66305541992188 138.2667083740234 L 117.62240600585938 138.07551574707028 L 117.59318542480469 137.9380950927734 L 117.47940826416016 137.40301513671872 L 117.47599792480469 137.3869934082031 L 117.45161437988281 137.39218139648435 L 117.4494400024414 137.39263916015622 L 117.44916534423828 137.3912200927734 L 113.47229766845703 135.84100341796872 L 112.03471374511719 135.28060913085935 L 109.48136138916016 134.28529357910153 L 108.94754028320312 134.07720947265622 L 107.71175384521484 133.59547424316403 L 107.47789001464844 133.50431823730466 L 107.1971435546875 133.3948822021484 L 101.42942810058594 131.14656066894528 L 101.23815155029297 131.0720062255859 L 98.30400085449219 129.92823791503903 L 81.91999816894531 123.54158020019528 L 70.43020629882812 119.06273651123044 L 65.53600311279297 117.15492248535153 L 65.08895874023438 116.98065948486325 L 64.7947006225586 116.86595916748044 L 64.70216369628906 116.82988739013669 L 64.01580047607422 116.90950775146482 L 63.95537185668945 116.91651916503903 L 63.071998596191406 117.01899719238278 L 60.393001556396484 117.25700378417966 L 57.82699966430664 117.40799713134763 L 55.39899826049805 117.47100067138669 L 53.13199996948242 117.44599914550778 L 51.04899978637695 117.33300018310544 L 49.16899871826172 117.13300323486325 L 49.152000427246094 117.13008880615232 L 47.5099983215332 116.84899902343747 L 46.0880012512207 116.48200225830075 L 45.46200180053711 116.24337005615232 L 44.917999267578125 116.03600311279294 L 44.0099983215332 115.515998840332 L 43.37300109863281 114.92600250244138 L 43.241790771484375 114.68800354003903 L 43.01300048828125 114.27300262451169 L 42.93299865722656 113.56199645996091 L 43.1349983215332 112.80100250244138 L 43.617000579833984 111.9960021972656 L 44.37300109863281 111.15599822998044 L 45.39699935913086 110.28800201416013 L 45.46200180053711 110.24308013916013 L 46.67900085449219 109.40200042724607 L 47.98015213012695 108.63767242431638 L 48.058162689208984 108.59184265136716 L 48.20600128173828 108.50499725341794 L 49.07054901123047 108.06214904785153 L 46.91496658325195 106.4960021972656 L 37.479278564453125 99.64047241210935 L 37.47600173950195 99.6380920410156 L 35.63981246948242 98.30400085449216 L 33.527626037597656 96.76938629150388 L 33.4969596862793 96.7471008300781 L 33.372100830078125 96.64955139160153 L 32.792999267578125 96.19709014892575 L 32.768001556396484 96.17755889892575 L 32.518001556396484 95.9822311401367 L 32.518001556396484 89.6431198120117 L 32.518001556396484 88.69899749755858 L 32.518001556396484 85.28430938720702 L 32.518001556396484 80.96099853515624 L 32.790000915527344 80.96099853515624 L 36.754398345947266 80.96099853515624 L 37.47600173950195 80.96099853515624 L 44.45800018310547 80.96099853515624 L 46.331546783447266 80.96099853515624 L 46.89678192138672 81.9199981689453 L 47.362998962402344 82.71099853515624 L 48.81005096435547 84.63497924804686 L 49.14099884033203 85.07499694824217 L 51.3120002746582 87.46099853515624 L 52.632049560546875 88.69899749755858 L 52.727821350097656 88.78881835937499 L 52.775001525878906 88.83799743652342 L 52.92161178588867 88.97056579589842 L 53.854000091552734 89.84500122070311 L 54.21084976196289 90.1362838745117 L 54.61199951171875 90.49900054931639 L 56.52137756347656 92.04355621337889 L 56.784000396728516 92.25599670410155 L 57.89347457885742 93.07616424560545 L 58.77100372314453 93.72486114501952 L 59.118839263916016 93.98199462890624 L 59.26900100708008 94.09300231933592 L 59.605743408203125 94.3231964111328 L 60.45808792114258 94.90586090087889 L 61.20580291748047 95.41700744628905 L 61.696617126464844 95.75252532958983 L 61.827693939208984 95.84213256835936 L 62.04399871826172 95.98999786376952 L 62.21004104614258 96.09612274169919 L 65.08100128173828 97.93099975585935 L 65.53600311279297 98.204475402832 L 65.70159149169922 98.30400085449216 L 65.79808807373047 98.36199951171872 L 67.13062286376953 99.16290283203122 L 67.36714172363281 99.305061340332 L 68.35199737548828 99.8970031738281 L 69.00772094726562 100.26913452148435 L 71.44964599609375 101.65497589111325 L 71.82499694824219 101.86799621582028 L 75.46700286865234 103.82599639892575 L 77.04000091552734 104.6283264160156 L 79.24299621582031 105.75199890136716 L 80.17227935791016 106.20200347900388 L 81.91999816894531 107.04832458496091 L 83.11499786376953 107.62699890136716 L 86.86509704589844 109.34901428222653 L 87.0479965209961 109.43299865722653 L 91.00199890136719 111.15299987792966 L 94.94100189208984 112.76999664306638 L 98.30400085449219 114.06758880615232 L 98.82599639892578 114.26899719238278 L 100.43501281738281 114.84846496582028 L 102.61900329589844 115.63500213623044 L 106.28399658203125 116.85500335693357 L 109.78600311279297 117.9179992675781 L 113.09100341796875 118.81199645996091 L 114.68800354003906 119.18465423583982 L 116.16799926757812 119.52999877929685 L 116.396728515625 119.57344055175778 L 116.99149322509766 119.68639373779294 L 118.0929183959961 119.94065856933591 L 119.72086334228516 120.31646728515622 L 120.79747772216797 120.56500244140622 L 121.12126922607422 120.63974761962888 L 122.3407211303711 120.92125701904294 L 123.33575439453125 121.15095520019528 L 123.38700103759766 121.16278839111325 L 124.13300323486328 121.33499908447263 L 124.13336181640625 121.33341979980466 L 124.13711547851562 121.31718444824216 L 124.13899230957031 121.30904388427732 L 124.86768341064453 120.76731109619138 L 125.07231140136719 120.61518096923825 L 127.44400024414062 118.85199737548825 L 135.5469207763672 121.97853851318357 L 135.86538696289062 122.10141754150388 L 147.2449951171875 122.71800231933591 L 149.15907287597656 129.91081237792966 L 149.61639404296875 131.62936401367185 L 149.79698181152344 132.30799865722653 L 150.26800537109375 134.07800292968747 L 148.57823181152344 135.1712951660156 L 147.5431671142578 135.84100341796872 L 144.80905151367188 137.61000061035153 L 145.10699462890625 139.1190032958984 L 143.9340362548828 139.9911193847656 L 144.8520050048828 143.44097900390622 L 145.28997802734375 145.08700561523435 L 145.56112670898438 146.10600280761716 L 145.58799743652344 146.20700073242185 M 137.531005859375 143.72900390624997 L 137.5449981689453 143.40299987792966 L 137.54177856445312 143.36000061035153 L 137.5189971923828 143.05599975585935 L 137.4530029296875 142.69799804687497 L 137.3489990234375 142.33500671386716 L 137.2100067138672 141.97900390624997 L 136.9447479248047 141.3832092285156 L 136.8280029296875 141.1210021972656 L 136.656005859375 140.77900695800778 L 136.45599365234375 140.45899963378903 L 136.23399353027344 140.16999816894528 L 135.99400329589844 139.9179992675781 L 135.74200439453125 139.71099853515622 L 135.48500061035156 139.55200195312497 L 135.22900390625 139.4470062255859 L 135.16799926757812 139.43475341796872 L 134.97999572753906 139.3970031738281 L 134.7449951171875 139.40400695800778 L 134.5279998779297 139.46699523925778 L 134.0279998779297 139.69000244140622 L 133.83599853515625 139.80799865722653 L 133.6739959716797 139.97799682617185 L 133.54400634765625 140.1970062255859 L 133.4510040283203 140.4579925537109 L 133.39700317382812 140.75500488281247 L 133.38299560546875 141.08099365234372 L 133.40036010742188 141.3119964599609 L 133.40899658203125 141.42700195312497 L 133.47500610351562 141.7859954833984 L 133.57899475097656 142.14799499511716 L 133.718994140625 142.50500488281247 L 134.10011291503906 143.36000061035153 L 134.1009979248047 143.36199951171872 L 134.27200317382812 143.70500183105466 L 134.4720001220703 144.02499389648435 L 134.69500732421875 144.3139953613281 L 134.93499755859375 144.56500244140622 L 135.16799926757812 144.7580871582031 L 135.18600463867188 144.77299499511716 L 135.4429931640625 144.93099975585935 L 135.55752563476562 144.97824096679685 L 135.6999969482422 145.03700256347653 L 135.947998046875 145.08700561523435 L 136.1840057373047 145.08000183105466 L 136.39999389648438 145.0169982910156 L 136.89999389648438 144.79400634765622 L 137.0919952392578 144.67599487304685 L 137.2550048828125 144.50500488281247 L 137.38400268554688 144.28700256347653 L 137.4770050048828 144.02600097656247 L 137.531005859375 143.72900390624997 M 121.39481353759766 137.01142883300778 L 121.39372253417969 137.01277160644528 L 121.26499938964844 137.1710052490234 L 121.2505111694336 137.1945648193359 L 121.23733520507812 137.21600341796872 L 121.10700225830078 137.42799377441403 L 121.00199890136719 137.68499755859372 L 120.95099639892578 137.93299865722653 L 120.95558166503906 138.14823913574216 L 120.95561218261719 138.1496887207031 L 120.95600128173828 138.1679992675781 L 121.01799774169922 138.38400268554685 L 121.23400115966797 138.88200378417966 L 121.3499984741211 139.0720062255859 L 121.51699829101562 139.2339935302734 L 121.56715393066406 139.26400756835935 L 121.73100280761719 139.36199951171872 L 121.98699951171875 139.45300292968747 L 122.27999877929688 139.50500488281247 L 122.5999984741211 139.51800537109372 L 122.87999725341797 139.49426269531247 L 122.94200134277344 139.4889984130859 L 123.2959976196289 139.42199707031247 L 123.65299987792969 139.31599426269528 L 123.78189849853516 139.26400756835935 L 123.7979736328125 139.25752258300778 L 124.00499725341797 139.17399597167966 L 124.85099792480469 138.78900146484372 L 125.19000244140625 138.61500549316403 L 125.50599670410156 138.41400146484372 L 125.79100036621094 138.19099426269528 L 126.04000091552734 137.94999694824216 L 126.24600219726562 137.6970062255859 L 126.40399932861328 137.44000244140622 L 126.4958724975586 137.21600341796872 L 126.50900268554688 137.18400573730466 L 126.55999755859375 136.93499755859372 L 126.55400085449219 136.69999694824216 L 126.49299621582031 136.48500061035153 L 126.2770004272461 135.98699951171872 L 126.1883316040039 135.84100341796872 L 126.16100311279297 135.7960052490234 L 125.99400329589844 135.6349945068359 L 125.77999877929688 135.50700378417966 L 125.52400207519531 135.41499328613278 L 125.23100280761719 135.36300659179685 L 124.9280014038086 135.3516693115234 L 124.91000366210938 135.35099792480466 L 124.56900024414062 135.37899780273435 L 124.21499633789062 135.4470062255859 L 123.85800170898438 135.55200195312497 L 123.50599670410156 135.6940002441406 L 123.38700103759766 135.74829101562497 L 123.1838150024414 135.84100341796872 L 122.87999725341797 135.97961425781247 L 122.66000366210938 136.08000183105466 L 122.32099914550781 136.25300598144528 L 122.00499725341797 136.45399475097653 L 121.71900177001953 136.67799377441403 L 121.47000122070312 136.91900634765622 L 121.39481353759766 137.01142883300778 M 130.64999389648438 137.66900634765622 L 131.07200622558594 137.77410888671872 L 131.1959991455078 137.80499267578122 L 131.7550048828125 137.8639984130859 L 132.31700134277344 137.8450012207031 L 132.87100219726562 137.74699401855466 L 133.40499877929688 137.57299804687497 L 133.91099548339844 137.32699584960935 L 134.3769989013672 137.0119934082031 L 134.7949981689453 136.63600158691403 L 135.156005859375 136.20500183105466 L 135.38340759277344 135.84100341796872 L 135.45399475097656 135.72799682617185 L 135.68299865722656 135.2149963378906 L 135.69647216796875 135.1679992675781 L 135.83799743652344 134.67399597167966 L 135.91600036621094 134.11700439453122 L 135.91600036621094 133.55499267578122 L 135.83799743652344 132.99800109863278 L 135.70538330078125 132.5359954833984 L 135.68299865722656 132.4579925537109 L 135.45399475097656 131.9440002441406 L 135.156005859375 131.46699523925778 L 134.8243865966797 131.0720062255859 L 134.7949981689453 131.03700256347653 L 134.3769989013672 130.66000366210935 L 133.91099548339844 130.34599304199216 L 133.40499877929688 130.09899902343747 L 132.87100219726562 129.92599487304685 L 132.31700134277344 129.82800292968747 L 131.7550048828125 129.80799865722653 L 131.1959991455078 129.86700439453122 L 131.07200622558594 129.89788818359372 L 130.64999389648438 130.00300598144528 L 130.12899780273438 130.21400451660153 L 129.64199829101562 130.49499511718747 L 129.19900512695312 130.84100341796872 L 128.97598266601562 131.0720062255859 L 128.80799865722656 131.2460021972656 L 128.47799682617188 131.70100402832028 L 128.21400451660156 132.1970062255859 L 128.02099609375 132.7250061035156 L 127.90399932861328 133.27499389648435 L 127.86499786376953 133.83599853515622 L 127.90399932861328 134.3970031738281 L 128.02099609375 134.9470062255859 L 128.10162353515625 135.1679992675781 L 128.21400451660156 135.47599792480466 L 128.4082794189453 135.84100341796872 L 128.47799682617188 135.97200012207028 L 128.80799865722656 136.42700195312497 L 129.19900512695312 136.83099365234372 L 129.64199829101562 137.17799377441403 L 130.12899780273438 137.45899963378903 L 130.64999389648438 137.66900634765622 M 142.1219940185547 128.30700683593747 L 142.0063934326172 128.26580810546872 L 141.86099243164062 128.21400451660153 L 141.56399536132812 128.16000366210935 L 141.31199645996094 128.14918518066403 L 141.23800659179688 128.14599609374997 L 141.0330047607422 128.1614074707031 L 140.89199829101562 128.17199707031247 L 140.5330047607422 128.23800659179685 L 140.17100524902344 128.34199523925778 L 139.81399536132812 128.48100280761716 L 139.26400756835938 128.72615051269528 L 138.95700073242188 128.86300659179685 L 138.61399841308594 129.03500366210935 L 138.29400634765625 129.23500061035153 L 138.0050048828125 129.45700073242185 L 137.75399780273438 129.6970062255859 L 137.54600524902344 129.9490051269531 L 137.38800048828125 130.20599365234372 L 137.28199768066406 130.46200561523435 L 137.23199462890625 130.71099853515622 L 137.23899841308594 130.94599914550778 L 137.27557373046875 131.0720062255859 L 137.302001953125 131.1629943847656 L 137.52499389648438 131.6629943847656 L 137.64300537109375 131.85499572753903 L 137.81399536132812 132.0169982910156 L 138.03199768066406 132.1470031738281 L 138.29299926757812 132.24000549316403 L 138.58999633789062 132.29400634765622 L 138.91600036621094 132.30799865722653 L 139.26300048828125 132.28199768066403 L 139.26400756835938 132.28181457519528 L 139.62100219726562 132.21600341796872 L 139.98399353027344 132.11199951171872 L 140.33999633789062 131.97200012207028 L 140.6252899169922 131.84498596191403 L 141.197998046875 131.5899963378906 L 141.5399932861328 131.41900634765622 L 141.86000061035156 131.21899414062497 L 142.05050659179688 131.0720062255859 L 142.1490020751953 130.9960021972656 L 142.4010009765625 130.75599670410153 L 142.60800170898438 130.50500488281247 L 142.76699829101562 130.24800109863278 L 142.8719940185547 129.9909973144531 L 142.9219970703125 129.74299621582028 L 142.9149932861328 129.50700378417966 L 142.8520050048828 129.2910003662109 L 142.73292541503906 129.02400207519528 L 142.6372833251953 128.80958557128903 L 142.62899780273438 128.7910003662109 L 142.51100158691406 128.59899902343747 L 142.34100341796875 128.43600463867185 L 142.1219940185547 128.30700683593747 M 126.71162414550781 123.23203277587888 L 126.71109008789062 123.23235321044919 L 126.5790023803711 123.31300354003903 L 126.55892944335938 123.33369445800778 L 126.41699981689453 123.48000335693357 L 126.29000091552734 123.6940002441406 L 126.197998046875 123.95099639892575 L 126.14600372314453 124.24299621582028 L 126.13300323486328 124.56400299072263 L 126.14460754394531 124.7004470825195 L 126.14468383789062 124.70135498046872 L 126.16200256347656 124.90499877929685 L 126.22899627685547 125.25900268554685 L 126.33499908447266 125.6159973144531 L 126.47699737548828 125.96800231933591 L 126.86199951171875 126.81500244140622 L 126.94488525390625 126.97599792480466 L 126.97599792480469 127.03644561767575 L 127.03600311279297 127.15299987792966 L 127.23699951171875 127.4690017700195 L 127.45999908447266 127.75499725341794 L 127.70099639892578 128.00399780273435 L 127.86499786376953 128.13688659667966 L 127.9540023803711 128.20899963378903 L 128.21099853515625 128.36700439453122 L 128.4669952392578 128.47200012207028 L 128.71600341796875 128.52299499511716 L 128.9510040283203 128.51800537109372 L 129.0240020751953 128.49694824218747 L 129.16600036621094 128.45599365234372 L 129.66400146484375 128.24000549316403 L 129.85499572753906 128.12399291992185 L 130.01600646972656 127.95700073242185 L 130.1439971923828 127.74299621582028 L 130.23599243164062 127.48699951171872 L 130.28799438476562 127.1940002441406 L 130.29617309570312 126.97599792480466 L 130.3000030517578 126.87400054931638 L 130.27200317382812 126.53199768066403 L 130.20399475097656 126.17800140380857 L 130.0989990234375 125.82099914550778 L 129.95700073242188 125.4690017700195 L 129.71080017089844 124.92800140380857 L 129.57200622558594 124.62300109863278 L 129.3979949951172 124.28399658203122 L 129.19700622558594 123.9690017700195 L 128.97300720214844 123.68299865722653 L 128.73199462890625 123.43399810791013 L 128.47999572753906 123.22799682617185 L 128.22300720214844 123.06999969482419 L 127.96700286865234 122.9649963378906 L 127.86499786376953 122.94410705566403 L 127.71800231933594 122.91400146484372 L 127.48300170898438 122.91999816894528 L 127.26699829101562 122.98100280761716 L 126.97599792480469 123.10721588134763 L 126.76899719238281 123.19699859619138 L 126.71162414550781 123.23203277587888 M 49.45500183105469 113.39900207519528 L 49.41699981689453 113.17800140380857 L 49.35499954223633 112.96199798583982 L 49.26900100708008 112.75399780273435 L 49.15999984741211 112.55799865722653 L 49.152000427246094 112.54673767089841 L 49.029998779296875 112.37499999999997 L 48.88100051879883 112.20700073242185 L 48.7130012512207 112.05799865722653 L 48.529998779296875 111.92800140380857 L 48.33300018310547 111.8190002441406 L 48.125999450683594 111.73300170898435 L 47.90999984741211 111.67099761962888 L 47.68899917602539 111.63300323486325 L 47.46500015258789 111.6210021972656 L 47.2400016784668 111.63300323486325 L 47.104000091552734 111.65638732910153 L 47.01900100708008 111.67099761962888 L 46.803001403808594 111.73300170898435 L 46.59600067138672 111.8190002441406 L 46.39899826049805 111.92800140380857 L 46.215999603271484 112.05799865722653 L 46.04899978637695 112.20700073242185 L 45.89899826049805 112.37499999999997 L 45.76900100708008 112.55799865722653 L 45.72339630126953 112.63999938964841 L 45.65999984741211 112.75399780273435 L 45.57400131225586 112.96199798583982 L 45.512001037597656 113.17800140380857 L 45.474998474121094 113.39900207519528 L 45.46200180053711 113.62300109863278 L 45.474998474121094 113.84700012207028 L 45.512001037597656 114.0690002441406 L 45.57400131225586 114.28500366210935 L 45.65999984741211 114.49199676513669 L 45.76844787597656 114.68800354003903 L 45.76900100708008 114.68900299072263 L 45.89899826049805 114.87200164794919 L 46.04899978637695 115.03900146484372 L 46.215999603271484 115.18900299072263 L 46.39899826049805 115.3190002441406 L 46.59600067138672 115.42700195312497 L 46.803001403808594 115.51300048828122 L 47.01900100708008 115.57599639892575 L 47.104000091552734 115.59023284912107 L 47.2400016784668 115.61299896240232 L 47.46500015258789 115.62599945068357 L 47.68899917602539 115.61299896240232 L 47.90999984741211 115.57599639892575 L 48.125999450683594 115.51300048828122 L 48.33300018310547 115.42700195312497 L 48.529998779296875 115.3190002441406 L 48.7130012512207 115.18900299072263 L 48.88100051879883 115.03900146484372 L 49.029998779296875 114.87200164794919 L 49.152000427246094 114.70026397705075 L 49.15999984741211 114.68900299072263 L 49.160552978515625 114.68800354003903 L 49.26900100708008 114.49199676513669 L 49.35499954223633 114.28500366210935 L 49.41699981689453 114.0690002441406 L 49.45500183105469 113.84700012207028 L 49.46699905395508 113.62300109863278 L 49.45500183105469 113.39900207519528 M 40.41299819946289 91.12499999999999 L 40.400001525878906 91.34899902343749 L 40.41299819946289 91.57399749755858 L 40.45000076293945 91.7949981689453 L 40.512001037597656 92.01100158691405 L 40.597999572753906 92.21800231933592 L 40.707000732421875 92.41500091552733 L 40.83700180053711 92.59799957275389 L 40.959999084472656 92.7349395751953 L 40.98699951171875 92.76499938964842 L 41.15399932861328 92.91500091552733 L 41.33700180053711 93.0449981689453 L 41.534000396728516 93.15399932861327 L 41.74100112915039 93.23999786376952 L 41.957000732421875 93.30200195312499 L 42.178001403808594 93.33899688720702 L 42.40299987792969 93.35199737548827 L 42.62699890136719 93.33899688720702 L 42.847999572753906 93.30200195312499 L 43.007999420166016 93.25607299804686 L 43.06399917602539 93.23999786376952 L 43.270999908447266 93.15399932861327 L 43.46799850463867 93.0449981689453 L 43.6510009765625 92.91500091552733 L 43.819000244140625 92.76499938964842 L 43.96799850463867 92.59799957275389 L 44.097999572753906 92.41500091552733 L 44.207000732421875 92.21800231933592 L 44.23109817504883 92.16000366210936 L 44.292999267578125 92.01100158691405 L 44.35499954223633 91.7949981689453 L 44.391998291015625 91.57399749755858 L 44.404998779296875 91.34899902343749 L 44.391998291015625 91.12499999999999 L 44.35499954223633 90.90399932861327 L 44.292999267578125 90.68800354003905 L 44.207000732421875 90.48100280761717 L 44.097999572753906 90.28399658203124 L 43.97581481933594 90.11199951171874 L 43.96799850463867 90.10099792480467 L 43.819000244140625 89.93299865722655 L 43.6510009765625 89.78399658203124 L 43.46799850463867 89.65399932861327 L 43.270999908447266 89.5449981689453 L 43.06399917602539 89.45899963378905 L 43.007999420166016 89.4429244995117 L 42.847999572753906 89.39700317382811 L 42.62699890136719 89.36000061035155 L 42.40299987792969 89.3470001220703 L 42.178001403808594 89.36000061035155 L 41.957000732421875 89.39700317382811 L 41.74100112915039 89.45899963378905 L 41.534000396728516 89.5449981689453 L 41.33700180053711 89.65399932861327 L 41.15399932861328 89.78399658203124 L 40.98699951171875 89.93299865722655 L 40.959999084472656 89.96324157714842 L 40.83700180053711 90.10099792480467 L 40.829185485839844 90.11199951171874 L 40.707000732421875 90.28399658203124 L 40.597999572753906 90.48100280761717 L 40.512001037597656 90.68800354003905 L 40.45000076293945 90.90399932861327 L 40.41299819946289 91.12499999999999 M 47.10499954223633 99.45700073242185 L 47.44200134277344 99.47599792480466 L 47.77799987792969 99.45700073242185 L 48.11000061035156 99.40100097656247 L 48.43299865722656 99.30699920654294 L 48.74399948120117 99.17800140380857 L 49.03900146484375 99.015998840332 L 49.152000427246094 98.93587493896482 L 49.31399917602539 98.82099914550778 L 49.564998626708984 98.59600067138669 L 49.78900146484375 98.3450012207031 L 49.818180084228516 98.30400085449216 L 49.98400115966797 98.07099914550778 L 50.14699935913086 97.77600097656247 L 50.2760009765625 97.4649963378906 L 50.36899948120117 97.140998840332 L 50.42499923706055 96.80899810791013 L 50.444000244140625 96.47299957275388 L 50.42499923706055 96.13700103759763 L 50.36899948120117 95.80500030517577 L 50.2760009765625 95.48200225830077 L 50.14699935913086 95.17099761962889 L 49.98400115966797 94.87599945068358 L 49.78900146484375 94.60099792480467 L 49.564998626708984 94.34999847412108 L 49.4058837890625 94.20800018310545 L 49.31399917602539 94.12599945068358 L 49.152000427246094 94.01112365722655 L 49.03900146484375 93.93099975585936 L 48.74399948120117 93.7679977416992 L 48.43299865722656 93.63899993896483 L 48.11000061035156 93.54599761962889 L 47.77799987792969 93.48999786376952 L 47.44200134277344 93.4710006713867 L 47.10499954223633 93.48999786376952 L 46.77299880981445 93.54599761962889 L 46.45000076293945 93.63899993896483 L 46.138999938964844 93.7679977416992 L 45.84400177001953 93.93099975585936 L 45.56999969482422 94.12599945068358 L 45.47774887084961 94.20800018310545 L 45.31800079345703 94.34999847412108 L 45.09400177001953 94.60099792480467 L 44.89899826049805 94.87599945068358 L 44.736000061035156 95.17099761962889 L 44.608001708984375 95.48200225830077 L 44.513999938964844 95.80500030517577 L 44.45800018310547 96.13700103759763 L 44.43899917602539 96.47299957275388 L 44.45800018310547 96.80899810791013 L 44.513999938964844 97.140998840332 L 44.608001708984375 97.4649963378906 L 44.736000061035156 97.77600097656247 L 44.89899826049805 98.07099914550778 L 45.0648193359375 98.30400085449216 L 45.09400177001953 98.3450012207031 L 45.31800079345703 98.59600067138669 L 45.56999969482422 98.82099914550778 L 45.84400177001953 99.015998840332 L 46.138999938964844 99.17800140380857 L 46.45000076293945 99.30699920654294 L 46.77299880981445 99.40100097656247 L 47.104000091552734 99.45683288574216 L 47.10499954223633 99.45700073242185 M 63.70500183105469 111.71199798583982 L 63.92900085449219 111.72499847412107 L 64.15299987792969 111.71199798583982 L 64.3740005493164 111.67400360107419 L 64.58999633789062 111.61199951171872 L 64.7979965209961 111.52600097656247 L 64.99400329589844 111.4179992675781 L 65.177001953125 111.28800201416013 L 65.34500122070312 111.13800048828122 L 65.49400329589844 110.97100067138669 L 65.53600311279297 110.91155242919919 L 65.6240005493164 110.78700256347653 L 65.7324447631836 110.59200286865232 L 65.73300170898438 110.59100341796872 L 65.81900024414062 110.38300323486325 L 65.88099670410156 110.1679992675781 L 65.91899871826172 109.94599914550778 L 65.93099975585938 109.72200012207028 L 65.91899871826172 109.49800109863278 L 65.88099670410156 109.27600097656247 L 65.81900024414062 109.06099700927732 L 65.73300170898438 108.85299682617185 L 65.6240005493164 108.65699768066403 L 65.53600311279297 108.53312683105466 L 65.49400329589844 108.47399902343747 L 65.34500122070312 108.30599975585935 L 65.177001953125 108.15599822998044 L 64.99400329589844 108.02700042724607 L 64.7979965209961 107.9179992675781 L 64.58999633789062 107.83200073242185 L 64.3740005493164 107.76999664306638 L 64.15299987792969 107.73200225830075 L 63.92900085449219 107.7200012207031 L 63.70500183105469 107.73200225830075 L 63.487998962402344 107.76914215087888 L 63.483001708984375 107.76999664306638 L 63.266998291015625 107.83200073242185 L 63.060001373291016 107.9179992675781 L 62.862998962402344 108.02700042724607 L 62.68000030517578 108.15599822998044 L 62.51300048828125 108.30599975585935 L 62.362998962402344 108.47399902343747 L 62.31327438354492 108.54399871826169 L 62.233001708984375 108.65699768066403 L 62.125 108.85299682617185 L 62.03900146484375 109.06099700927732 L 61.97700119018555 109.27600097656247 L 61.93899917602539 109.49800109863278 L 61.92599868774414 109.72200012207028 L 61.93899917602539 109.94599914550778 L 61.97700119018555 110.1679992675781 L 62.03900146484375 110.38300323486325 L 62.125 110.59100341796872 L 62.12554931640625 110.59200286865232 L 62.233001708984375 110.78700256347653 L 62.362998962402344 110.97100067138669 L 62.51300048828125 111.13800048828122 L 62.68000030517578 111.28800201416013 L 62.862998962402344 111.4179992675781 L 63.060001373291016 111.52600097656247 L 63.266998291015625 111.61199951171872 L 63.483001708984375 111.67400360107419 L 63.487998962402344 111.67485809326169 L 63.70500183105469 111.71199798583982 z" fill="#A9A9A9" stroke="rgb(255,0,0)" stroke-width="0.001mm" />
</svg>