<?xml version="1.0" encoding="utf-8"?>
<!-- Generator: Adobe Illustrator 24.1.0, SVG Export Plug-In . SVG Version: 6.00 Build 0)  -->
<svg version="1.1" id="Layer_1" xmlns="http://www.w3.org/2000/svg" xmlns:xlink="http://www.w3.org/1999/xlink" x="0px" y="0px"
	 viewBox="0 0 339.4 208.7" style="enable-background:new 0 0 339.4 208.7;" xml:space="preserve">
<style type="text/css">
	.st0{fill:#4D4D4D;stroke:#FF0000;stroke-width:8.035216e-03;stroke-miterlimit:11.3386;}
</style>
<desc>yellowjacket</desc>
<path class="st0" d="M323.3,187.8l-10.3,6.7l-10.5,6.8l-7.2,4.6l-11.8-9.6l-12.4-10.1l-24.5-9.5l-1.8-8.6l-0.2-0.7l-0.5-2.2
	l-0.1-0.5l-0.1-0.4l-0.3-1.5l0,0l-0.1,0l0,0l0,0l-11.3-4.4l-4.1-1.6L221,154l-1.5-0.6L216,152l-0.7-0.3l-0.8-0.3l-16.3-6.4l-0.5-0.2
	l-8.3-3.2l-46.4-18.1l-32.6-12.7l-13.9-5.4l-1.3-0.5l-0.8-0.3l-0.3-0.1l-1.9,0.2l-0.2,0l-2.5,0.3l-7.6,0.7l-7.3,0.4l-6.9,0.2
	l-6.4-0.1l-5.9-0.3l-5.3-0.6l0,0l-4.7-0.8l-4-1l-1.8-0.7l-1.5-0.6l-2.6-1.5l-1.8-1.7l-0.4-0.7l-0.6-1.2l-0.2-2l0.6-2.2l1.4-2.3
	l2.1-2.4l2.9-2.5l0.2-0.1l3.4-2.4l3.7-2.2l0.2-0.1l0.4-0.2l2.5-1.3l-6.1-4.4L16.9,55.8l0,0L11.7,52l-6-4.4l-0.1-0.1l-0.4-0.3L3.6,46
	L3.5,46l-0.7-0.6v-18v-2.7v-9.7V2.8h0.8h11.2h2h19.8H42l1.6,2.7l1.3,2.2l4.1,5.5l0.9,1.2l6.2,6.8l3.7,3.5l0.3,0.3l0.1,0.1l0.4,0.4
	l2.6,2.5l1,0.8l1.1,1l5.4,4.4l0.7,0.6l3.1,2.3l2.5,1.8l1,0.7l0.4,0.3l1,0.7l2.4,1.7l2.1,1.4l1.4,1l0.4,0.3l0.6,0.4l0.5,0.3l8.1,5.2
	l1.3,0.8l0.5,0.3l0.3,0.2l3.8,2.3l0.7,0.4l2.8,1.7l1.9,1.1l6.9,3.9l1.1,0.6l10.3,5.6l4.5,2.3l6.2,3.2l2.6,1.3l5,2.4l3.4,1.6
	l10.6,4.9l0.5,0.2l11.2,4.9l11.2,4.6l9.5,3.7l1.5,0.6l4.6,1.6l6.2,2.2l10.4,3.5l9.9,3l9.4,2.5l4.5,1.1l4.2,1l0.6,0.1l1.7,0.3
	l3.1,0.7l4.6,1.1l3.1,0.7l0.9,0.2l3.5,0.8l2.8,0.7l0.1,0l2.1,0.5l0,0l0,0l0,0l2.1-1.5l0.6-0.4l6.7-5l23,8.9l0.9,0.3l32.3,1.7
	l5.4,20.4l1.3,4.9l0.5,1.9l1.3,5l-4.8,3.1l-2.9,1.9l-7.8,5l0.8,4.3l-3.3,2.5l2.6,9.8l1.2,4.7l0.8,2.9L323.3,187.8 M300.5,180.8
	l0-0.9l0-0.1l-0.1-0.9l-0.2-1l-0.3-1l-0.4-1l-0.8-1.7l-0.3-0.7l-0.5-1l-0.6-0.9l-0.6-0.8l-0.7-0.7l-0.7-0.6l-0.7-0.5l-0.7-0.3
	l-0.2,0l-0.5-0.1l-0.7,0l-0.6,0.2l-1.4,0.6l-0.5,0.3l-0.5,0.5l-0.4,0.6l-0.3,0.7l-0.2,0.8l0,0.9l0,0.7l0,0.3l0.2,1l0.3,1l0.4,1
	l1.1,2.4l0,0l0.5,1l0.6,0.9l0.6,0.8l0.7,0.7l0.7,0.5l0.1,0l0.7,0.4l0.3,0.1l0.4,0.2l0.7,0.1l0.7,0l0.6-0.2l1.4-0.6l0.5-0.3l0.5-0.5
	l0.4-0.6l0.3-0.7L300.5,180.8 M254.8,161.7L254.8,161.7l-0.4,0.5l0,0.1l0,0.1l-0.4,0.6l-0.3,0.7l-0.1,0.7l0,0.6l0,0l0,0.1l0.2,0.6
	l0.6,1.4l0.3,0.5l0.5,0.5l0.1,0.1l0.5,0.3l0.7,0.3l0.8,0.1l0.9,0l0.8-0.1l0.2,0l1-0.2l1-0.3l0.4-0.1l0,0l0.6-0.2l2.4-1.1l1-0.5
	l0.9-0.6l0.8-0.6l0.7-0.7l0.6-0.7l0.4-0.7l0.3-0.6l0-0.1l0.1-0.7l0-0.7l-0.2-0.6l-0.6-1.4l-0.3-0.4l-0.1-0.1l-0.5-0.5l-0.6-0.4
	l-0.7-0.3l-0.8-0.1l-0.9,0l-0.1,0l-1,0.1l-1,0.2l-1,0.3l-1,0.4l-0.3,0.2l-0.6,0.3l-0.9,0.4l-0.6,0.3l-1,0.5l-0.9,0.6l-0.8,0.6
	l-0.7,0.7L254.8,161.7 M281,163.6l1.2,0.3l0.4,0.1l1.6,0.2l1.6-0.1l1.6-0.3l1.5-0.5l1.4-0.7l1.3-0.9l1.2-1.1l1-1.2l0.6-1l0.2-0.3
	l0.6-1.5l0-0.1l0.4-1.4l0.2-1.6v-1.6l-0.2-1.6l-0.4-1.3l-0.1-0.2l-0.6-1.5l-0.8-1.4l-0.9-1.1l-0.1-0.1l-1.2-1.1l-1.3-0.9l-1.4-0.7
	l-1.5-0.5l-1.6-0.3l-1.6-0.1l-1.6,0.2l-0.4,0.1l-1.2,0.3l-1.5,0.6l-1.4,0.8l-1.3,1l-0.6,0.7l-0.5,0.5l-0.9,1.3l-0.7,1.4l-0.5,1.5
	l-0.3,1.6l-0.1,1.6l0.1,1.6l0.3,1.6l0.2,0.6l0.3,0.9l0.6,1l0.2,0.4l0.9,1.3l1.1,1.1l1.3,1l1.4,0.8L281,163.6 M313.5,137l-0.3-0.1
	l-0.4-0.1l-0.8-0.2l-0.7,0l-0.2,0l-0.6,0l-0.4,0l-1,0.2l-1,0.3l-1,0.4l-1.6,0.7l-0.9,0.4l-1,0.5l-0.9,0.6l-0.8,0.6l-0.7,0.7
	l-0.6,0.7l-0.4,0.7l-0.3,0.7l-0.1,0.7l0,0.7l0.1,0.4l0.1,0.3l0.6,1.4l0.3,0.5l0.5,0.5l0.6,0.4l0.7,0.3l0.8,0.2l0.9,0l1-0.1l0,0
	l1-0.2l1-0.3l1-0.4l0.8-0.4l1.6-0.7l1-0.5l0.9-0.6l0.5-0.4l0.3-0.2l0.7-0.7l0.6-0.7l0.5-0.7l0.3-0.7l0.1-0.7l0-0.7l-0.2-0.6
	l-0.3-0.8l-0.3-0.6l0-0.1l-0.3-0.5l-0.5-0.5L313.5,137 M269.8,122.7L269.8,122.7l-0.4,0.2l-0.1,0.1l-0.4,0.4l-0.4,0.6l-0.3,0.7
	l-0.1,0.8l0,0.9l0,0.4l0,0l0,0.6l0.2,1l0.3,1l0.4,1l1.1,2.4l0.2,0.5l0.1,0.2l0.2,0.3l0.6,0.9l0.6,0.8l0.7,0.7l0.5,0.4l0.3,0.2
	l0.7,0.4l0.7,0.3l0.7,0.1l0.7,0l0.2-0.1l0.4-0.1l1.4-0.6l0.5-0.3l0.5-0.5l0.4-0.6l0.3-0.7l0.1-0.8l0-0.6l0-0.3l-0.1-1l-0.2-1l-0.3-1
	l-0.4-1l-0.7-1.5l-0.4-0.9l-0.5-1l-0.6-0.9l-0.6-0.8l-0.7-0.7l-0.7-0.6l-0.7-0.4l-0.7-0.3l-0.3-0.1l-0.4-0.1l-0.7,0l-0.6,0.2
	l-0.8,0.4l-0.6,0.3L269.8,122.7 M50.8,94.8l-0.1-0.6l-0.2-0.6L50.3,93L50,92.4l0,0l-0.3-0.5l-0.4-0.5L48.7,91l-0.5-0.4l-0.6-0.3
	l-0.6-0.2l-0.6-0.2l-0.6-0.1l-0.6,0l-0.6,0l-0.4,0.1l-0.2,0l-0.6,0.2l-0.6,0.2l-0.6,0.3L41.7,91l-0.5,0.4l-0.4,0.5l-0.4,0.5
	l-0.1,0.2L40.1,93l-0.2,0.6l-0.2,0.6l-0.1,0.6l0,0.6l0,0.6l0.1,0.6l0.2,0.6l0.2,0.6l0.3,0.6l0,0l0.4,0.5l0.4,0.5l0.5,0.4l0.5,0.4
	l0.6,0.3l0.6,0.2l0.6,0.2l0.2,0l0.4,0.1l0.6,0l0.6,0l0.6-0.1l0.6-0.2l0.6-0.2l0.6-0.3l0.5-0.4l0.5-0.4l0.4-0.5l0.3-0.5l0,0l0,0
	l0.3-0.6l0.2-0.6l0.2-0.6l0.1-0.6l0-0.6L50.8,94.8 M25.2,31.6l0,0.6l0,0.6l0.1,0.6l0.2,0.6l0.2,0.6l0.3,0.6l0.4,0.5l0.3,0.4l0.1,0.1
	l0.5,0.4l0.5,0.4l0.6,0.3l0.6,0.2l0.6,0.2l0.6,0.1l0.6,0l0.6,0l0.6-0.1l0.5-0.1l0.2,0l0.6-0.2l0.6-0.3l0.5-0.4l0.5-0.4l0.4-0.5
	l0.4-0.5l0.3-0.6l0.1-0.2l0.2-0.4l0.2-0.6l0.1-0.6l0-0.6l0-0.6L36.4,31l-0.2-0.6L36,29.8l-0.3-0.6l-0.3-0.5l0,0l-0.4-0.5l-0.5-0.4
	l-0.5-0.4l-0.6-0.3l-0.6-0.2l-0.2,0l-0.5-0.1l-0.6-0.1l-0.6,0l-0.6,0l-0.6,0.1L29,26.9l-0.6,0.2l-0.6,0.3l-0.5,0.4l-0.5,0.4
	l-0.1,0.1l-0.3,0.4l0,0L26,29.3l-0.3,0.6l-0.2,0.6L25.3,31L25.2,31.6 M44.2,55.3l1,0.1l1-0.1l0.9-0.2l0.9-0.3l0.9-0.4l0.8-0.5
	l0.3-0.2l0.5-0.3l0.7-0.6l0.6-0.7l0.1-0.1l0.5-0.7l0.5-0.8l0.4-0.9l0.3-0.9l0.2-0.9l0.1-1l-0.1-1l-0.2-0.9L53.2,44l-0.4-0.9
	l-0.5-0.8l-0.6-0.8l-0.6-0.7l-0.5-0.4l-0.3-0.2L50,39.8l-0.3-0.2l-0.8-0.5l-0.9-0.4L47,38.5l-0.9-0.2l-1-0.1l-1,0.1l-0.9,0.2
	l-0.9,0.3l-0.9,0.4l-0.8,0.5l-0.8,0.6l-0.3,0.2l-0.5,0.4l-0.6,0.7l-0.6,0.8l-0.5,0.8L37.1,44l-0.3,0.9l-0.2,0.9l-0.1,1l0.1,1
	l0.2,0.9l0.3,0.9l0.4,0.9l0.5,0.8l0.5,0.7l0.1,0.1l0.6,0.7l0.7,0.6l0.8,0.6l0.8,0.5l0.9,0.4l0.9,0.3L44.2,55.3L44.2,55.3 M91.2,90
	l0.6,0l0.6,0l0.6-0.1l0.6-0.2l0.6-0.2l0.6-0.3l0.5-0.4l0.5-0.4l0.4-0.5l0.1-0.2l0.2-0.4l0.3-0.6l0,0l0.2-0.6l0.2-0.6l0.1-0.6l0-0.6
	l0-0.6l-0.1-0.6l-0.2-0.6L97,81.9l-0.3-0.6L96.4,81l-0.1-0.2l-0.4-0.5l-0.5-0.4l-0.5-0.4l-0.6-0.3L93.7,79l-0.6-0.2l-0.6-0.1l-0.6,0
	l-0.6,0l-0.6,0.1l0,0L90,79l-0.6,0.2l-0.6,0.3l-0.5,0.4l-0.5,0.4l-0.4,0.5L87.3,81l-0.2,0.3l-0.3,0.6l-0.2,0.6l-0.2,0.6l-0.1,0.6
	l0,0.6l0,0.6l0.1,0.6l0.2,0.6l0.2,0.6l0,0l0.3,0.6l0.4,0.5l0.4,0.5l0.5,0.4l0.5,0.4l0.6,0.3l0.6,0.2l0.6,0.2l0,0L91.2,90z"/>
</svg>
