<?xml version="1.0" encoding="utf-8"?>
<!-- Generator: Adobe Illustrator 24.1.0, SVG Export Plug-In . SVG Version: 6.00 Build 0)  -->
<svg version="1.1" id="Layer_1" xmlns="http://www.w3.org/2000/svg" xmlns:xlink="http://www.w3.org/1999/xlink" x="0px" y="0px"
	 viewBox="0 0 323 345.3" style="enable-background:new 0 0 323 345.3;" xml:space="preserve">
<style type="text/css">
	.st0{fill:#4D4D4D;stroke:#FF0000;stroke-width:8.035216e-03;stroke-miterlimit:11.3386;}
</style>
<desc>yellowjacket</desc>
<path class="st0" d="M42.1,342.5H34h-7.4H3.5H2.8v-14.1v-0.2v-27.4l16.8-12.2L34,278.2l9.6-7l1.2-0.9l-1.7-1.2l-2.6-2.1l-0.9-0.9
	l-1.3-1.3l-1.8-2.2l-1.3-2.2l-0.8-2.2l-0.4-2.1l0.1-2.1l0.5-1.7l0.1-0.3l1.1-1.9l1.5-1.8l2-1.6l0.3-0.2l2.1-1.3l2.8-1.3l3.2-1.1
	l2.2-0.6l1-0.3l0.3-0.1l3.9-0.7l4.1-0.5l4.4-0.3l4.6-0.1l4.7,0.1l3.3,0.2l1.5,0.1l1.8,0.2l0.1-0.1l0.2-0.3l0.3-0.3l4.5-5.2
	l11.6-13.6l5.8-6.7l17.4-20.7l2.3-2.7l15-18l17-20.7l16.6-20.4l15.6-19.4l0.4-0.5l2.7-3.4l12.5-15.7L216.1,75l8.2-10.6l1.2-1.5
	l-3.3-11.1l10-11.4l4.2-4.8l2.1-2.4l0.6-0.7l12.7-29.7L264,3.9l10.3,0.9l0.2,0l10.5,0.9l2.9,12.6l0.4,1.7l0.8,3.7l4.3,0.7l1.2,4
	l15.3,1.4l2.9,0.3l1.5,6.5l0.1,0.6l4.8,21l1,4.4l-13.1,7.8l-1.3,0.8l-12.4,7.4l-6.8,7.8l-2.1,2.5l-8.6,9.9l-11.6-1.8l-0.6-0.1
	l-0.1,0l-0.1,0.1l-8.6,9.5l-6,6.7l-9.5,10.6l-16.2,18.3l-16.8,19.2L189.2,181l-17.4,20.4l-0.1,0.1l-3.8,4.5L154.3,222L137,242.8
	l-15.1,18.3l-1.9,2.3l-6.3,7.7l-8.3,10.1l-0.9,0.8l-1.9,1.9l-3.1,3l-3.1,3l-9.1,8.8L42.1,342.5 M25.4,315l0,0.6l0,0.6l0.1,0.6
	l0.2,0.6l0.2,0.6l0.3,0.6l0.4,0.5l0.1,0.2l0.3,0.3l0.5,0.4l0.5,0.4l0.6,0.3l0.6,0.2l0.6,0.2l0.6,0.1l0.6,0l0.6,0l0.6-0.1l0.2-0.1
	l0.4-0.1l0.6-0.2l0.5-0.3l0.1-0.1l0.5-0.4l0.5-0.4l0.4-0.5l0.4-0.5l0.3-0.6l0.2-0.6l0.2-0.6l0.1-0.6l0-0.1l0-0.5l0-0.6l-0.1-0.6
	l-0.2-0.6l-0.2-0.6l-0.3-0.6l-0.4-0.5l-0.4-0.5l-0.5-0.4l-0.5-0.4l-0.1,0l-0.5-0.3l-0.4-0.2l-0.1-0.1l-0.6-0.2l-0.6-0.1l-0.6,0
	l-0.6,0l-0.6,0.1l-0.6,0.2l-0.1,0.1l-0.4,0.2l-0.6,0.3l-0.5,0.4l-0.5,0.4l-0.3,0.3l-0.1,0.2l-0.4,0.5l-0.3,0.6l-0.2,0.6l-0.2,0.6
	L25.4,315 M36.9,300.5l-0.1,1l0.1,1l0.2,0.9l0.3,0.9l0.4,0.9l0.5,0.8l0.2,0.3l0.3,0.4l0.6,0.7l0.7,0.6l0.8,0.6l0.8,0.5l0.9,0.4
	l0.9,0.3l0.7,0.1l0.2,0l1,0.1l1-0.1l0.9-0.2l0.9-0.3l0.9-0.4l0.8-0.5l0.1-0.1l0.7-0.5l0.7-0.6l0.6-0.7l0.6-0.8l0.5-0.8l0.4-0.9
	l0.3-0.9l0.2-0.9l0.1-1l-0.1-1l-0.2-0.9l-0.2-0.8l0-0.2l-0.4-0.9l-0.5-0.8l-0.6-0.8l-0.6-0.7l-0.7-0.6l-0.7-0.5l-0.1-0.1l-0.8-0.5
	l-0.9-0.4l-0.9-0.3l-0.9-0.2l-1-0.1l-1,0.1l-0.2,0l-0.7,0.1l-0.9,0.3l-0.9,0.4l-0.8,0.5l-0.8,0.6l-0.7,0.6l-0.6,0.7l-0.3,0.4
	l-0.2,0.3l-0.5,0.8l-0.4,0.9l0,0.2l-0.2,0.8L36.9,300.5 M269.7,30.7l0-0.5l-0.2-2.7l-0.1-1.1l-0.1-0.6l-0.1-0.5l-0.1-0.3l-0.2-0.7
	l-0.4-0.9l-0.3-0.5l-0.2-0.3l-0.5-0.7l-0.6-0.5l-0.4-0.3l-0.2-0.1l-0.6-0.2l-0.6,0l-0.2,0l-1.3,0.1l-0.5,0.1l-0.1,0l-0.6,0.3
	l-0.6,0.5l-0.5,0.6l-0.4,0.7l0,0l-0.3,0.8l0,0.1l0,0l-0.3,0.9l-0.1,0.9l0,0.2l-0.1,1.1l0,1.1l0.2,2.7l0.1,0.8l0,0.2l0.2,1l0.2,0.7
	l0.1,0.2l0.3,0.7l0.1,0.3l0.1,0.2l0.3,0.6l0.4,0.5l0.1,0.1l0.1,0.1l0.4,0.4l0.6,0.4l0.6,0.2l0.1,0l0.5,0l0.2,0l0.1,0l1.3-0.1
	l0.6-0.1l0.2-0.1l0.4-0.2l0.6-0.5l0.5-0.6l0.4-0.7l0.3-0.8l0,0l0-0.1l0.2-0.8l0.2-1l0-0.6l0-0.4L269.7,30.7 M264.9,43.2l-0.6,0.1
	l-1,0.2l-1.5,0.5l-1.4,0.7l-1.3,0.9l-0.2,0.2l-1,0.9l-1,1.3l-0.8,1.4l-0.6,1.5l-0.1,0.3l-0.1,0.3l-0.2,0.9l-0.2,1.6l0.1,1.6l0.1,0.5
	l0.2,1.1l0.5,1.5l0.3,0.6l0.4,0.8l0.2,0.2l0.6,0.9l0.1,0.2l1.1,1.2l0.4,0.4l0.8,0.7l1.4,0.8l1.5,0.6l1.5,0.4l1.6,0.2h1.6l1.6-0.2
	l1.5-0.4l0.2-0.1l1.3-0.6l1.4-0.8l1.2-1l1.1-1.2l0.1-0.2l0.6-0.8l0.2-0.3l0.7-1.4l0.5-1.5l0.3-1.6l0-0.8l0-0.8l-0.2-1.6l-0.4-1.5
	l-0.2-0.6l-0.3-0.9l0-0.1l-0.8-1.4l-1-1.3l-1.1-1.1l-1.3-0.9l-1.4-0.7l-0.5-0.2l-1-0.3l-1-0.2l-0.6-0.1l-1.6-0.1L264.9,43.2
	 M246.6,60.2l0.3-0.1l0.5-0.3l0.3-0.2l0.6-0.5l0,0l0.5-0.6l0.4-0.6l0.2-0.6l0-0.3l0-0.3l-0.1-1.2l0-0.4l-0.1-0.6l-0.2-0.4l-0.1-0.2
	l-0.4-0.5l-0.6-0.5l-0.6-0.3l-0.1-0.1l-0.6-0.2l-0.2-0.1l-0.1,0l-0.9-0.3l-1-0.2l-1.1-0.1l-1.1,0l-0.8,0.1l-1.9,0.1l-1.1,0.1l-0.2,0
	l-0.8,0.2l-1,0.3l-0.9,0.4l0,0l-0.7,0.4l0,0l-0.1,0.1l-0.7,0.5l-0.5,0.6l-0.4,0.6l0,0.1l-0.2,0.5l0,0.6l0.1,1.3l0,0.2l0.1,0.6
	l0.3,0.6l0.4,0.5l0.6,0.5l0.7,0.4l0.4,0.2l0.4,0.2l0.9,0.3l1,0.2l1.1,0.1l1.1,0l1.3-0.1l1.3-0.1L244,61l1-0.2l1-0.3l0,0L246.6,60.2
	 M266.9,71.5L266.9,71.5l-0.2,0l-0.5,0.1l-0.6,0.3l-0.5,0.4l-0.2,0.3l-0.3,0.3l-0.4,0.7l-0.2,0.6l0,0.1l-0.1,0.1l0,0l-0.3,0.9
	l-0.2,1l-0.1,1.1l0,0.6l0,0.5l0.2,2.6l0.1,1.1l0.2,1l0.2,0.6l0.1,0.4l0.1,0.3l0.3,0.6l0.5,0.8l0,0l0.1,0.2l0.4,0.5l0.6,0.5l0.4,0.2
	l0.1,0.1l0.1,0.1l0.6,0.2l0.6,0l1.4-0.1l0.1,0l0.6-0.1l0.1,0l0.4-0.2l0.2-0.1l0.5-0.4l0.5-0.6l0.4-0.7l0.3-0.8l0.1-0.2l0.2-0.7
	l0.2-1l0.1-1.1l0-1.1l-0.2-2.5l0-0.1l-0.1-1.1l0-0.2l-0.1-0.6l-0.1-0.2l-0.3-1l-0.1-0.2l-0.3-0.7l-0.4-0.7l0-0.1l-0.1-0.1l-0.5-0.6
	l-0.2-0.2l-0.4-0.4l-0.6-0.4l-0.1,0l-0.6-0.2l-0.6,0L266.9,71.5 M286.7,49.5l-0.6,0.3l-0.2,0.1l-0.7,0.5l-0.5,0.5l0,0l-0.1,0.1
	l-0.3,0.5l-0.2,0.6l0,0.6l0.1,1.5l0,0.2l0,0.2l0,0.2l0.3,0.6l0.5,0.6l0.1,0.1l0.5,0.4l0.7,0.4l0.9,0.4l0.2,0.1l0.7,0.2l1,0.2
	l1.1,0.1l1.1,0l2.5-0.2l0.2,0l1.1-0.1l0.1,0l0.9-0.2l0.6-0.2l0.4-0.1l0.4-0.2l0,0l0.1,0l0.3-0.1l0.8-0.5l0.7-0.5l0.5-0.6l0.2-0.3
	l0.2-0.3l0.2-0.6l0-0.5l0-0.1l0-0.4l0-0.2l-0.1-0.9l-0.1-0.6l-0.3-0.6l-0.4-0.4l-0.1-0.1l-0.6-0.5l-0.7-0.4l-0.9-0.4l-0.8-0.2l0,0
	l-0.2,0l-1-0.2l-1.1-0.1l-0.6,0l-0.5,0l-2.5,0.2l-0.1,0l0,0l-1,0.1l-1,0.2l-1,0.3L286.7,49.5L286.7,49.5 M97.3,263.8l0-0.6l0-0.6
	l-0.1-0.6l-0.2-0.6l-0.2-0.6l-0.3-0.6l0,0l0-0.1l-0.3-0.4l-0.4-0.5l-0.5-0.4l-0.5-0.4l-0.6-0.3l-0.6-0.2l-0.6-0.2l-0.6-0.1l-0.6,0
	l-0.6,0l-0.4,0.1l-0.2,0l-0.6,0.2l-0.6,0.2l-0.2,0.1l-0.4,0.2l-0.5,0.4l-0.5,0.4l-0.4,0.5l-0.4,0.5l-0.3,0.6l-0.2,0.6l-0.2,0.6
	l-0.1,0.5l0,0.1l0,0.6l0,0.6l0,0.2l0.1,0.5l0.2,0.6l0.2,0.6l0.3,0.6l0.4,0.5l0.4,0.5l0.5,0.4l0.5,0.4l0.6,0.3l0.6,0.2l0.6,0.2l0.2,0
	l0.4,0.1l0.6,0l0.6,0l0.6-0.1l0.6-0.2l0.6-0.2l0.6-0.3l0.5-0.4l0.5-0.4l0.4-0.5l0.3-0.4l0.1-0.1l0.3-0.6L97,265l0.2-0.6l0.1-0.5
	L97.3,263.8 M50.2,253l-0.2-0.3l-0.1-0.2l-0.1-0.1l-0.3-0.4l-0.5-0.4l-0.5-0.4l-0.5-0.3l-0.6-0.3l-0.6-0.2l-0.6-0.1l-0.6-0.1l-0.6,0
	l-0.6,0.1l-0.1,0l-0.6,0.1l-0.6,0.2l-0.6,0.3l-0.5,0.3l-0.5,0.4l-0.4,0.5l-0.2,0.2l-0.2,0.3l-0.3,0.5l-0.3,0.6l-0.2,0.6l-0.1,0.6
	l-0.1,0.6l0,0.6l0.1,0.6l0.2,0.6l0.2,0.6l0,0l0.3,0.5l0.3,0.5l0.4,0.5l0.5,0.4l0.5,0.4l0.5,0.3l0.6,0.3l0.6,0.2l0.4,0.1l0.3,0.1
	l0.6,0.1l0.6,0l0.6-0.1l0.6-0.2l0.6-0.2l0.6-0.3l0.5-0.3l0.5-0.4l0.4-0.5L50,259l0,0l0.3-0.5l0.3-0.6l0.2-0.6l0.1-0.6L51,256l0-0.6
	l-0.1-0.6l-0.2-0.6l-0.2-0.6L50.2,253z"/>
</svg>
