<?xml version="1.0" encoding="utf-8"?>
<!-- Generator: Adobe Illustrator 24.1.0, SVG Export Plug-In . SVG Version: 6.00 Build 0)  -->
<svg version="1.1" id="Layer_1" xmlns="http://www.w3.org/2000/svg" xmlns:xlink="http://www.w3.org/1999/xlink" x="0px" y="0px"
	 viewBox="0 0 427.6 245.9" style="enable-background:new 0 0 427.6 245.9;" xml:space="preserve">
<style type="text/css">
	.st0{fill:#4D4D4D;stroke:#FF0000;stroke-width:8.035216e-03;stroke-miterlimit:11.3386;}
</style>
<desc>yellowjacket</desc>
<path class="st0" d="M150.1,80.4l7.3,3.6l1.2,0.6l4.6,2.2L168,89l9.9,4.6l7.3,3.3l2.1,0.9l1,0.4l10.7,4.7l11,4.7l11.1,4.6l1.9,0.8
	l8.6,3.5l0.7,0.3l11.1,4.4l10.9,4.2l10.7,4l10.3,3.7l1,0.4l1.8,0.6l6.4,2.2l0.6,0.2l3.1,1l6.1,2.1l0.9,0.3l7.2,2.3l0.4,0.1l7.3,2.2
	l0.2,0.1l0.1,0l0.3,0.1l7,1.9l0.1,0l0.3,0.1l1.5,0.4l4.9,1.2l3.8,0.9l2.4,0.5l10.9,2.6l4.2,1l2.7,0.6l0.1,0l2.1,0.5l0.2,0l0,0l0,0
	l0,0l2.1-1.5l0.6-0.4l6.8-5l22.9,9l0.9,0.4l32.2,1.9l5.3,20.4l1.3,4.9l0.5,1.8l1.4,5.2l-4.8,3.1l-2.3,1.5l-8.4,5.4l0.8,4.3l-3.3,2.5
	l2.7,10.3l1.1,4l0.7,2.8l0.1,0.5l-10.4,6.6l-10.5,6.7l-7.2,4.6l-11.8-9.7l-12.3-10.1l-24.5-9.6l-1.8-8.6l-0.1-0.7l-0.4-2.2l-0.1-0.5
	l-0.1-0.4l-0.3-1.5l0,0l-0.1,0l0,0l0,0l-11-4.3l-2.5-1l-1.8-0.7l-7.2-2.9l-1.6-0.6l-3.4-1.4l-0.7-0.3l-0.8-0.3l-1.4-0.6l-13.5-5.3
	l-0.7-0.3l-0.9-0.4l-4.6-2l-0.5-0.2l-3.1-1.3l-5.4-2.3l-9.5-4l-2.3-1l-7.6-3.2l-10.2-4.3l-10.4-4.3l-1-0.4l-9.6-3.9l-10.6-4.3
	l-10.5-4.3l-10.3-4.1l-5.6-2.2l-4.4-1.8l-8.7-3.5l-0.9-0.4l-9.1-3.6l-8.5-3.4l-7.9-3.1l-7-2.7l-0.2-0.1l-6.4-2.4l-5.5-2l-4.6-1.7
	l-1.2-0.4l-0.8-0.3l-1.9-0.7l-2.6-1l-2-0.8l-3.4-1.3l-12-4.7l-4.2-1.7l-1.7,0.2l-0.3,0l-0.2,0l-0.5,0.1l-0.9,0.1l-1,0.1l-7.6,0.6
	l-7.3,0.4l-6.9,0.1l-6.4-0.1l-5.9-0.4l-5.3-0.6l-4.1-0.7l-0.6-0.1l-4-1.1l-1.7-0.7l-1.6-0.6l-2.6-1.5l-1.8-1.7l-1-1.9l-0.2-2
	l0.6-2.2l1.4-2.3l2.2-2.4l1.6-1.3l1.3-1.1l0.4-0.3l3.2-2.2l0.1,0l1.9-1.1l0.9-0.5l1.1-0.6l0.4-0.2l2.5-1.2l-0.1-0.1L49.3,79
	l-0.5-0.4L48,78l-2.2-1.6L17,55.3l0,0l-0.8-0.6L5.9,47.1l-0.1,0l-0.4-0.3l-1.6-1.3l-0.6-0.5l-0.1,0H3H2.8V9.2V2.8h1.8h41.7v6
	l0.3,0.4l2.7,3.7l0.9,1.3l6.1,6.8l3.5,3.3l0.4,0.4l0.2,0.2l0.6,0.5l2.5,2.4l1,0.8l1.2,1.1l3.3,2.7l2,1.7l0.8,0.6l0.5,0.3l2.7,2
	l2.4,1.8l1,0.7l0.5,0.3l0.5,0.4l0.4,0.3l2.4,1.6l2.1,1.5l1.4,1l0.3,0.2l0.6,0.4l0.4,0.3l5.1,3.3l3,2l1.4,0.8l4.4,2.7l0.7,0.4
	l2.8,1.7l9.4,5.4l0.4,0.2l10.3,5.6L129,70l6.3,3.3l2.7,1.3l0.6,0.3l7.6,3.7L150.1,80.4 M50.8,95.7l0-0.6l0-0.6l-0.1-0.6l-0.2-0.6
	l-0.2-0.6l-0.1-0.1L50,92.1l-0.4-0.5l-0.4-0.5l-0.5-0.4l-0.5-0.4L47.6,90L47,89.7l-0.6-0.2l-0.6-0.1l0,0l-0.6,0l-0.6,0l-0.6,0.1
	l-0.6,0.2l-0.6,0.2l-0.6,0.3l-0.5,0.4L41.2,91l-0.4,0.5L40.4,92l-0.3,0.5l0,0.1l-0.2,0.6l-0.2,0.6l-0.1,0.6l0,0.6l0,0.6l0.1,0.6
	l0.2,0.6l0.2,0.6l0.3,0.6l0.2,0.2l0.2,0.3l0.4,0.5l0.5,0.4l0.5,0.4l0.6,0.3l0.6,0.2l0.6,0.2l0.6,0.1l0.6,0l0.6,0l0.1,0l0.5-0.1
	l0.6-0.2l0.6-0.2l0.6-0.3l0.5-0.4l0.5-0.4l0.4-0.5l0.2-0.3l0.1-0.2l0.3-0.6l0.2-0.6l0.2-0.6L50.8,95.7 M28.6,36.9l0.6,0.2l0.6,0.2
	l0.6,0.1l0.6,0l0.6,0l0.6-0.1l0.6-0.2l0.6-0.2l0.6-0.3l0.1-0.1l0.4-0.3l0.5-0.4l0.4-0.5l0.4-0.5l0.3-0.5l0.1-0.1l0.2-0.6l0.2-0.6
	l0.1-0.6l0-0.6l0-0.6l-0.1-0.6L36.5,30l-0.2-0.6l-0.3-0.6l-0.2-0.2l-0.2-0.3l-0.4-0.5l-0.5-0.4l-0.5-0.3l-0.1,0l-0.6-0.3L33,26.5
	l-0.6-0.2l-0.6-0.1l-0.6,0l-0.6,0l-0.6,0.1l-0.6,0.2l-0.6,0.2l-0.3,0.1L28.1,27l-0.5,0.4l-0.5,0.4l-0.4,0.5l-0.2,0.3l-0.1,0.2
	L26,29.4l-0.2,0.6l-0.2,0.6l-0.1,0.6l0,0.6l0,0.6l0.1,0.6l0.2,0.6l0.2,0.6l0.1,0.1l0.2,0.4l0.4,0.5l0.4,0.5l0.5,0.4l0.5,0.4l0.3,0.2
	L28.6,36.9 M39.3,52.4l0.7,0.6l0.8,0.6l0.8,0.5l0.9,0.4l0.9,0.3l0.9,0.2l1,0.1l0.6,0l0.4,0l0.9-0.2l0.9-0.3l0.9-0.4l0.8-0.5l0.8-0.5
	l0.7-0.6l0.6-0.6l0.1-0.1l0.6-0.8l0.5-0.8l0.4-0.9l0.3-0.9l0.2-0.9l0.1-1l0-0.4l0-0.5l-0.2-0.9l-0.3-0.9L53,42.8L52.6,42L52,41.2
	l-0.6-0.7l-0.2-0.2l-0.5-0.4l-0.8-0.6l-0.8-0.5l-0.9-0.4l-0.9-0.3L46.3,38l-1-0.1l-1,0l-0.9,0.2l-0.9,0.3l-0.9,0.4l-0.8,0.5
	l-0.8,0.5l-0.5,0.5l-0.2,0.2l-0.6,0.7l-0.6,0.8l-0.5,0.8l-0.4,0.9L37,44.5l-0.2,0.9l0,0.6l0,0.4l0,1l0.2,0.9l0.3,0.9l0.4,0.9
	l0.5,0.8l0.5,0.8l0.1,0.1L39.3,52.4 M86.7,86.7l0.3,0.6l0.4,0.5l0.4,0.5l0.5,0.4l0.5,0.4l0.6,0.3l0.6,0.2l0.6,0.2l0.6,0.1l0.6,0
	l0.4,0l0.2,0l0.6-0.1l0.6-0.2l0.6-0.2l0.6-0.3l0.5-0.4l0.5-0.4l0.4-0.5l0.4-0.5l0.3-0.6l0-0.1l0.2-0.5l0.2-0.6l0.1-0.6l0-0.6l0-0.6
	L97.4,83l-0.2-0.6L97,81.8l-0.3-0.6l-0.3-0.4l-0.1-0.1l-0.4-0.5l-0.5-0.4l-0.5-0.4l-0.6-0.3l-0.6-0.2l-0.6-0.2l-0.6-0.1l-0.2,0
	l-0.4,0l-0.6,0l-0.6,0.1L90,78.9l-0.6,0.2l-0.6,0.3l-0.5,0.4l-0.5,0.4l-0.4,0.5l-0.1,0.2l-0.2,0.3l-0.3,0.6l-0.2,0.6L86.3,83
	l-0.1,0.6l0,0.6l0,0.6l0.1,0.6l0.2,0.6L86.7,86.7L86.7,86.7 M385.3,221.7l0.2-0.1l1.3-0.6l0.5-0.3l0.5-0.5l0,0l0.4-0.6l0.3-0.7
	l0.2-0.8l0-0.9l-0.1-1l-0.2-1l-0.2-0.7l-0.1-0.3l-0.4-1l-0.7-1.7l-0.3-0.7l-0.5-1l-0.6-0.9l-0.1-0.1l-0.5-0.7l-0.7-0.7l-0.7-0.6
	l-0.7-0.5l-0.2-0.1l-0.5-0.2l-0.7-0.1l-0.7,0l-0.6,0.2l-0.4,0.2l-1,0.4l-0.5,0.3l-0.5,0.5l-0.4,0.6l-0.2,0.6l0,0.1l-0.2,0.8l0,0.9
	l0.1,1l0.2,1l0.3,1l0.4,0.9l0,0.1l1.1,2.4l0.5,1l0.6,0.9l0.6,0.8l0.5,0.6l0.1,0.2l0.7,0.6l0.7,0.4l0,0l0.3,0.1l0.4,0.2l0.7,0.1
	l0.7,0L385.3,221.7 M342.5,199.3l-0.4,0.7l-0.1,0.3l-0.2,0.4l-0.1,0.7l0,0.6l0,0.1l0.2,0.6l0.1,0.2l0.1,0.1l0.5,1.1l0.3,0.5l0.5,0.5
	l0.6,0.4l0.7,0.3l0.3,0.1l0.5,0.1l0.9,0l1-0.1l0.5-0.1l0.5-0.1l1-0.3l0.4-0.2l0.6-0.2l2.4-1.1l1-0.5l0.9-0.6l0,0l0.8-0.6l0.7-0.7
	l0.6-0.7l0.5-0.7l0.1-0.1l0.2-0.6l0.1-0.7l0-0.7l-0.2-0.6l-0.1-0.3l-0.5-1.1l-0.3-0.5l0-0.1l-0.5-0.5l-0.6-0.4l-0.7-0.3l-0.8-0.2
	l-0.2,0l-0.7,0l-1,0.1l-1,0.2l-1,0.3l-1,0.4l-0.3,0.1l-0.5,0.2l-0.3,0.1l-1.3,0.6l-1,0.5l-0.6,0.4l-0.3,0.2l-0.8,0.6l-0.7,0.7
	l-0.2,0.3L342.5,199.3L342.5,199.3 M370.6,201.1l0.3,0l1.3,0.1l1.6,0l1.6-0.3l1.5-0.5l1.4-0.7l1.3-0.9l1.2-1.1l1-1.2l0.8-1.2
	l0.1-0.1l0.7-1.5l0.4-1.5l0.2-1.2l0.1-0.4l0-1.6l-0.2-1.6l-0.4-1.5l-0.6-1.5l-0.8-1.4l-1-1.2l-1.2-1.1l-1.3-0.9l-0.9-0.5l-0.5-0.2
	l-1.5-0.5l-1.6-0.3l-1.6-0.1l-1.4,0.1l-0.2,0l-1.6,0.4l-1.4,0.6l-0.1,0l-1.4,0.8l-1.3,1l-1.1,1.1l-0.9,1.3l-0.8,1.4l-0.6,1.5
	l-0.3,1.6l-0.1,1.6l0.1,1.3l0,0.2l0.3,1.6l0.5,1.5l0.5,0.9l0.3,0.5l0.9,1.3l1.1,1.2l1.3,1l1.4,0.8l1.5,0.6L370.6,201.1 M401.8,174.4
	l-0.3-0.1l-0.4-0.1l-0.8-0.2l-0.2,0l-0.7,0l-0.6,0l-0.4,0l-1,0.2l-1,0.3l-1,0.4l-1,0.5l-1.4,0.6l-1,0.5l-0.9,0.6l-0.8,0.6l-0.7,0.7
	l-0.6,0.7l-0.4,0.6l0,0l-0.1,0.1l-0.3,0.7l-0.1,0.7l0,0.7l0.2,0.6l0.3,0.7l0.3,0.7l0.3,0.5l0.5,0.5l0.6,0.4l0.5,0.2l0.3,0.1l0.8,0.2
	l0.9,0l1-0.1l0.6-0.1l0.4-0.1l1-0.3l1-0.4l0.8-0.4l1.6-0.7l0.9-0.4l0.1,0l0.9-0.6l0.8-0.6l0.7-0.7l0.6-0.7l0.5-0.7l0.1-0.3l0.2-0.4
	l0.1-0.7l0-0.7l-0.2-0.6l-0.2-0.5l-0.4-0.9l0-0.1l-0.3-0.5l-0.5-0.5L401.8,174.4 M357.7,160l-0.4,0.4l-0.4,0.6l-0.3,0.7l-0.1,0.4
	l-0.1,0.5l0,0.9l0,0.4l0,0.6l0.2,1l0.3,1l0.4,1l0.2,0.4l0.9,2l0.5,1l0.3,0.5l0.2,0.4l0.6,0.8l0.7,0.7l0.4,0.3l0.2,0.2l0.2,0.1
	l0.7,0.5l0.7,0.3l0.7,0.1l0.7,0l0.6-0.2l0.1,0l1.3-0.6l0.4-0.2l0.1-0.1l0.5-0.5l0.4-0.6l0.3-0.7l0.2-0.8l0-0.2l0-0.7l-0.1-1l-0.2-1
	l-0.1-0.2l-0.2-0.8l-0.4-1l-1.1-2.4l-0.5-1l-0.4-0.6l-0.2-0.3l0-0.1l-0.6-0.8l-0.7-0.7l-0.7-0.6l-0.7-0.5l-0.2-0.1l-0.5-0.2
	l-0.5-0.1l-0.3-0.1l-0.7,0l-0.6,0.2l-0.4,0.2l-1,0.4l-0.2,0.1L357.7,160L357.7,160 M248.3,138.5l0.6,0l0.1,0l0.5,0l0.6-0.1l0.6-0.2
	l0.5-0.2l0.5-0.3l0.5-0.4l0.4-0.4l0.4-0.5l0.3-0.5l0.2-0.5l0.2-0.6l0.1-0.6l0-0.6l0-0.4l0-0.2l-0.1-0.6l-0.2-0.6l-0.3-0.5l-0.3-0.5
	l-0.4-0.5l-0.4-0.4l-0.5-0.3l-0.5-0.3l-0.6-0.2l-0.6-0.1l-0.6-0.1H249h-0.4l-0.6,0.1l-0.6,0.1l-0.6,0.2l-0.5,0.3l-0.5,0.3l-0.4,0.4
	l-0.4,0.5l-0.3,0.5l-0.3,0.5l-0.2,0.6l-0.1,0.6l0,0.2l0,0.4l0,0.6l0.1,0.6l0.2,0.6l0.2,0.5l0.1,0.2l0.2,0.3l0.4,0.5l0.4,0.4l0.5,0.4
	l0.5,0.3l0.5,0.2l0.6,0.2L248.3,138.5z"/>
</svg>
