<?xml version="1.0" standalone="no"?>
<!DOCTYPE svg PUBLIC "-//W3C//DTD SVG 1.1//EN"
  "http://www.w3.org/Graphics/SVG/1.1/DTD/svg11.dtd">
<svg width="142.22307586669922mm" height="153.9780120849609mm" viewBox="-163.63807678222656 170.05000305175778 142.22307586669922 153.9780120849609" xmlns="http://www.w3.org/2000/svg" version="1.1">
	<title>svgOutput</title>
	<desc>Yellowjacket</desc>
<path d="M -126.73502349853516 301.6405944824218 L -126.73648834228516 301.64199829101557 L -126.76726531982422 301.67126464843744 L -131.07200622558594 305.76489257812494 L -146.58580017089844 320.5180053710937 L -147.2740020751953 321.1724548339843 L -147.2740020751953 322.77981567382807 L -147.2740020751953 322.8958129882812 L -147.2740020751953 323.0280151367187 L -161.97999572753906 323.0280151367187 L -162.6280059814453 323.0280151367187 L -162.6280059814453 320.5180053710937 L -162.6280059814453 307.93899536132807 L -162.6280059814453 307.93701171874994 L -162.63807678222656 307.93701171874994 L -162.6280059814453 307.92980957031244 L -157.8979949951172 304.54846191406244 L -156.7203369140625 303.70657348632807 L -151.56300354003906 300.0197448730468 L -148.21310424804688 297.62499999999994 L -147.76771545410156 297.3066101074218 L -148.37399291992188 296.8829956054687 L -149.29600524902344 296.11999511718744 L -149.5749969482422 295.8410034179687 L -150.0709991455078 295.34500122070307 L -150.69000244140625 294.56399536132807 L -151.1479949951172 293.7850036621093 L -151.44000244140625 293.01599121093744 L -151.56300354003906 292.2640075683593 L -151.51699829101562 291.53601074218744 L -151.30099487304688 290.83898925781244 L -150.91700744628906 290.1799926757812 L -150.3699951171875 289.5650024414062 L -149.6649932861328 288.99999999999994 L -149.5749969482422 288.94665527343744 L -148.80799865722656 288.4920043945312 L -147.80799865722656 288.04299926757807 L -147.45599365234375 287.92410278320307 L -146.6739959716797 287.6600036621093 L -145.5749969482422 287.3843688964843 L -145.41799926757812 287.34500122070307 L -144.05099487304688 287.1010131835937 L -142.58599853515625 286.93200683593744 L -141.03799438476562 286.83801269531244 L -139.42100524902344 286.8200073242187 L -137.7519989013672 286.8789978027343 L -136.57554626464844 286.97277832031244 L -136.04600524902344 287.01501464843744 L -135.3988037109375 287.0936889648437 L -135.37660217285156 287.06835937499994 L -135.28695678710938 286.9661254882812 L -135.1588134765625 286.8200073242187 L -135.1215057373047 286.77746582031244 L -135.0852813720703 286.7361450195312 L -135.0852508544922 286.73608398437494 L -133.58399963378906 285.0239868164062 L -131.17404174804688 282.2441101074218 L -131.1690216064453 282.23831176757807 L -131.1580047607422 282.2260131835937 L -131.07200622558594 282.1288757324218 L -130.07093811035156 280.9982604980468 L -129.5970001220703 280.46301269531244 L -127.8010025024414 278.4190063476562 L -125.79000091552734 276.1170043945312 L -123.58599853515625 273.5809936523437 L -121.21199798583984 270.83999633789057 L -118.69499969482422 267.9240112304687 L -116.06300354003906 264.86499023437494 L -113.72838592529297 262.1440124511718 L -113.34400177001953 261.6960144042968 L -110.56800079345703 258.4509887695312 L -107.76599884033203 255.167007446289 L -104.96700286865234 251.88000488281244 L -102.2040023803711 248.62499999999994 L -102.14605712890625 248.55654907226557 L -99.50599670410156 245.438003540039 L -99.24320220947266 245.12675476074213 L -98.30400085449219 244.01443481445307 L -96.9020004272461 242.35400390624994 L -95.41213989257812 240.58358764648432 L -94.4219970703125 239.406997680664 L -92.86900329589844 237.55540466308588 L -92.09200286865234 236.62899780273432 L -91.66191101074219 236.11404418945307 L -89.93800354003906 234.05000305175776 L -88.49357604980469 232.313735961914 L -87.98300170898438 231.69999694824213 L -86.25 229.60299682617182 L -86.17143249511719 229.50723266601557 L -86.06376647949219 229.37600708007807 L -85.5587158203125 228.76040649414057 L -85.28624725341797 228.43527221679682 L -84.70393371582031 227.74038696289057 L -83.86054229736328 226.73396301269526 L -82.91590118408203 225.606704711914 L -82.39878845214844 224.9896392822265 L -81.6792984008789 224.13107299804682 L -81.2770004272461 223.65100097656244 L -81.08200073242188 223.4155883789062 L -80.97045135498047 223.28092956542963 L -75.36599731445312 216.51499938964838 L -70.7563247680664 210.87979125976557 L -69.6919174194336 209.57856750488276 L -69.6709976196289 209.552993774414 L -69.40941619873047 209.22903442382807 L -69.27535247802734 209.063003540039 L -65.53600311279297 204.43188476562494 L -65.4730453491211 204.35391235351557 L -64.24500274658203 202.83299255371088 L -63.08171081542969 201.37113952636713 L -62.51132583618164 200.6543579101562 L -59.29139709472656 196.60800170898432 L -59.14099884033203 196.4190063476562 L -57.00975036621094 193.69650268554682 L -56.230445861816406 192.70101928710932 L -55.781822204589844 192.17463684082026 L -55.78184509277344 192.17456054687494 L -56.91999816894531 188.25399780273435 L -53.40700149536133 184.28842163085935 L -51.90119934082031 182.58862304687497 L -51.16119384765625 181.75329589843747 L -50.93425369262695 181.49711608886716 L -46.38199996948242 171.05000305175778 L -42.05158233642578 171.47009277343747 L -38.43504333496094 171.82092285156247 L -38.434940338134766 171.82093811035153 L -38.37201690673828 171.82704162597653 L -38.37030029296875 171.82720947265622 L -34.68199920654297 172.18499755859372 L -33.70800018310547 176.59199523925778 L -33.278961181640625 178.5332336425781 L -31.76099967956543 178.78100585937497 L -31.353321075439453 180.1849670410156 L -25.962478637695312 180.70788574218747 L -24.951000213623047 180.80599975585935 L -24.44501304626465 183.09631347656247 L -24.444679260253906 183.09782409667966 L -24.398399353027344 183.30729675292966 L -24.056522369384766 184.85478210449216 L -22.758167266845703 190.7316741943359 L -22.415000915527344 192.28500366210932 L -27.048542022705078 195.00988769531244 L -27.512739181518555 195.28286743164057 L -31.89861488342285 197.86210632324213 L -34.30233383178711 200.57524108886713 L -35.02151870727539 201.38699340820307 L -38.132999420166016 204.89900207519526 L -42.230045318603516 204.2302856445312 L -42.231136322021484 204.23010253906244 L -42.42793273925781 204.19798278808588 L -42.429012298583984 204.1978149414062 L -42.45338439941406 204.19383239746088 L -42.47332000732422 204.21333312988276 L -45.56399917602539 207.54800415039057 L -45.63100051879883 207.62145996093744 L -45.72909927368164 207.72900390624994 L -45.89464569091797 207.91049194335932 L -45.90934753417969 207.92060852050776 L -45.98400115966797 207.97200012207026 L -46.869998931884766 208.84199523925776 L -48.27799987792969 210.33000183105463 L -50.19499969482422 212.4190063476562 L -50.711280822753906 212.9920043945312 L -52.2994270324707 214.75462341308588 L -52.597999572753906 215.0859985351562 L -53.7552604675293 216.38589477539057 L -55.46200180053711 218.302993774414 L -56.50199890136719 219.4810180664062 L -56.61484146118164 219.6088256835937 L -56.91157531738281 219.94494628906244 L -58.106239318847656 221.29814147949213 L -58.28949737548828 221.50572204589838 L -58.755001068115234 222.03300476074213 L -62.083499908447266 225.82925415039057 L -62.441001892089844 226.2369995117187 L -65.17804718017578 229.37600708007807 L -65.53600311279297 229.7865142822265 L -66.47899627685547 230.86799621582026 L -68.98824310302734 233.75822448730463 L -69.07573699951172 233.85899353027338 L -69.58195495605469 234.4420776367187 L -70.16385650634766 235.112319946289 L -70.31576538085938 235.2872924804687 L -70.82599639892578 235.87499999999994 L -75.18376159667969 240.91474914550776 L -75.43299865722656 241.20300292968744 L -76.06005096435547 241.93064880371088 L -80.2509994506836 246.7940063476562 L -85.22599792480469 252.58700561523432 L -85.47227478027344 252.8746948242187 L -89.3280029296875 257.3788452148437 L -90.30400085449219 258.5190124511718 L -90.36851501464844 258.59460449218744 L -93.39777374267578 262.1440124511718 L -95.42900085449219 264.5239868164062 L -98.30400085449219 267.90185546874994 L -100.5459976196289 270.53601074218744 L -105.59700012207031 276.48999023437494 L -110.52899932861328 282.3200073242187 L -113.86302947998047 286.2749938964843 L -115.28600311279297 287.96301269531244 L -118.04490661621094 291.2481079101562 L -119.81600189208984 293.3569946289062 L -120.54399871826172 294.2270202636718 L -121.1171875 294.91198730468744 L -123.3873519897461 297.62499999999994 L -124.07099914550781 298.4419860839843 L -126.68534851074219 301.58093261718744 L -126.73502349853516 301.6405944824218 M -152.54800415039062 315.2690124511718 L -152.32699584960938 315.2330017089843 L -152.11000061035156 315.17300415039057 L -151.90199279785156 315.08898925781244 L -151.7050018310547 314.98098754882807 L -151.56300354003906 314.88220214843744 L -151.552001953125 314.8745727539062 L -151.52099609375 314.8529968261718 L -151.3520050048828 314.70498657226557 L -151.2010040283203 314.53799438476557 L -151.07000732421875 314.35598754882807 L -150.9600067138672 314.1600036621093 L -150.8719940185547 313.95401000976557 L -150.80799865722656 313.7380065917968 L -150.7689971923828 313.51699829101557 L -150.75819396972656 313.34399414062494 L -150.7550048828125 313.29299926757807 L -150.76600646972656 313.06900024414057 L -150.80099487304688 312.8469848632812 L -150.86199951171875 312.63101196289057 L -150.9459991455078 312.42300415039057 L -151.05299377441406 312.22500610351557 L -151.1820068359375 312.0409851074218 L -151.3300018310547 311.8729858398437 L -151.4969940185547 311.7219848632812 L -151.552001953125 311.6820983886718 L -151.56300354003906 311.6741333007812 L -151.6790008544922 311.58999633789057 L -151.87399291992188 311.48001098632807 L -152.08099365234375 311.3930053710937 L -152.2969970703125 311.32901000976557 L -152.48399353027344 311.2959899902343 L -152.51800537109375 311.2900085449218 L -152.74200439453125 311.2749938964843 L -152.96600341796875 311.28601074218744 L -153.0276641845703 311.2959899902343 L -153.18800354003906 311.3219909667968 L -153.4040069580078 311.3829956054687 L -153.60000610351562 311.46215820312494 L -153.61199951171875 311.4670104980468 L -153.8090057373047 311.57400512695307 L -153.99400329589844 311.70300292968744 L -154.16200256347656 311.8510131835937 L -154.31300354003906 312.01699829101557 L -154.44400024414062 312.19900512695307 L -154.55499267578125 312.3949890136718 L -154.64199829101562 312.6019897460937 L -154.70599365234375 312.8169860839843 L -154.7449951171875 313.03799438476557 L -154.75999450683594 313.26199340820307 L -154.75599670410156 313.34399414062494 L -154.74899291992188 313.4869995117187 L -154.71299743652344 313.70800781249994 L -154.65199279785156 313.9249877929687 L -154.5679931640625 314.1329956054687 L -154.46099853515625 314.32998657226557 L -154.33200073242188 314.5140075683593 L -154.1840057373047 314.68301391601557 L -154.01800537109375 314.83401489257807 L -153.8350067138672 314.96499633789057 L -153.63999938964844 315.0750122070312 L -153.60000610351562 315.0920104980468 L -153.43299865722656 315.16299438476557 L -153.21800231933594 315.2269897460937 L -152.9969940185547 315.26599121093744 L -152.77200317382812 315.2799987792968 L -152.54800415039062 315.2690124511718 M -150.52099609375 309.2590026855468 L -150.39500427246094 309.5710144042968 L -150.23399353027344 309.8670043945312 L -150.04100036621094 310.1430053710937 L -149.81900024414062 310.39599609374994 L -149.57000732421875 310.6220092773437 L -149.2969970703125 310.81900024414057 L -149.0030059814453 310.98400878906244 L -148.6929931640625 311.11499023437494 L -148.3699951171875 311.2109985351562 L -148.03900146484375 311.2699890136718 L -147.7030029296875 311.2909851074218 L -147.45599365234375 311.2792663574218 L -147.36599731445312 311.2749938964843 L -147.03399658203125 311.2210083007812 L -146.7100067138672 311.13000488281244 L -146.3979949951172 311.0039978027343 L -146.1020050048828 310.8429870605468 L -145.8260040283203 310.65100097656244 L -145.572998046875 310.42800903320307 L -145.3470001220703 310.17898559570307 L -145.14999389648438 309.90600585937494 L -144.98500061035156 309.6119995117187 L -144.85299682617188 309.30200195312494 L -144.83706665039062 309.2479858398437 L -144.75799560546875 308.98001098632807 L -144.69900512695312 308.6480102539062 L -144.677001953125 308.31201171874994 L -144.69400024414062 307.9760131835937 L -144.7469940185547 307.6430053710937 L -144.83799743652344 307.31900024414057 L -144.88644409179688 307.2000122070312 L -144.96499633789062 307.00698852539057 L -145.125 306.7109985351562 L -145.3179931640625 306.4349975585937 L -145.5399932861328 306.18200683593744 L -145.7899932861328 305.9559936523437 L -146.06300354003906 305.7590026855468 L -146.3560028076172 305.59399414062494 L -146.66600036621094 305.46301269531244 L -146.98899841308594 305.3670043945312 L -147.3209991455078 305.30801391601557 L -147.45599365234375 305.29956054687494 L -147.65699768066406 305.28698730468744 L -147.9929962158203 305.30300903320307 L -148.3249969482422 305.3569946289062 L -148.6490020751953 305.4469909667968 L -148.96200561523438 305.57400512695307 L -149.2570037841797 305.73400878906244 L -149.53399658203125 305.92700195312494 L -149.78599548339844 306.1499938964843 L -150.01300048828125 306.3989868164062 L -150.2100067138672 306.67199707031244 L -150.375 306.9660034179687 L -150.473876953125 307.2000122070312 L -150.50599670410156 307.27600097656244 L -150.6020050048828 307.5979919433593 L -150.66099548339844 307.9299926757812 L -150.6820068359375 308.26599121093744 L -150.66600036621094 308.6019897460937 L -150.61199951171875 308.9349975585937 L -150.5240936279297 309.2479858398437 L -150.52099609375 309.2590026855468 M -129.42799377441406 295.79199218749994 L -129.33999633789062 295.58499145507807 L -129.2760009765625 295.36999511718744 L -129.23699951171875 295.1489868164062 L -129.22300720214844 294.9249877929687 L -129.2236328125 294.91198730468744 L -129.23399353027344 294.7009887695312 L -129.27000427246094 294.47900390624994 L -129.3300018310547 294.2630004882812 L -129.41400146484375 294.0549926757812 L -129.52200317382812 293.8569946289062 L -129.5330352783203 293.8411254882812 L -129.64999389648438 293.67300415039057 L -129.79800415039062 293.50500488281244 L -129.96499633789062 293.35400390624994 L -130.14700317382812 293.2219848632812 L -130.34300231933594 293.1119995117187 L -130.5489959716797 293.0249938964843 L -130.76499938964844 292.9609985351562 L -130.98599243164062 292.9209899902343 L -131.07200622558594 292.9156188964843 L -131.2100067138672 292.90701293945307 L -131.4340057373047 292.91799926757807 L -131.656005859375 292.95401000976557 L -131.8719940185547 293.0140075683593 L -132.0800018310547 293.09899902343744 L -132.2779998779297 293.2059936523437 L -132.46200561523438 293.33401489257807 L -132.6300048828125 293.4830017089843 L -132.781005859375 293.6489868164062 L -132.91299438476562 293.8309936523437 L -133.0229949951172 294.02700805664057 L -133.11000061035156 294.23400878906244 L -133.1199951171875 294.26760864257807 L -133.1739959716797 294.44900512695307 L -133.20462036132812 294.62255859374994 L -133.21299743652344 294.6700134277343 L -133.22799682617188 294.8940124511718 L -133.2271270751953 294.91198730468744 L -133.2169952392578 295.1189880371093 L -133.18099975585938 295.33999633789057 L -133.1199951171875 295.5559997558593 L -133.03599548339844 295.76501464843744 L -132.9290008544922 295.9620056152343 L -132.8000030517578 296.14599609374994 L -132.65199279785156 296.3150024414062 L -132.48599243164062 296.4660034179687 L -132.3040008544922 296.5969848632812 L -132.10800170898438 296.7070007324218 L -131.9010009765625 296.7950134277343 L -131.68600463867188 296.8580017089843 L -131.46499633789062 296.8980102539062 L -131.24099731445312 296.91198730468744 L -131.07200622558594 296.9037475585937 L -131.01600646972656 296.90100097656244 L -130.7949981689453 296.86499023437494 L -130.5780029296875 296.8049926757812 L -130.3699951171875 296.72000122070307 L -130.17300415039062 296.6130065917968 L -129.98899841308594 296.48498535156244 L -129.82000732421875 296.3359985351562 L -129.66900634765625 296.1700134277343 L -129.53799438476562 295.9880065917968 L -129.50881958007812 295.9360046386718 L -129.42799377441406 295.79199218749994 M -145.7169952392578 292.9450073242187 L -145.6898651123047 292.86401367187494 L -145.64599609375 292.7330017089843 L -145.59800720214844 292.5130004882812 L -145.5749969482422 292.2900085449218 L -145.5780029296875 292.0650024414062 L -145.60499572753906 291.8429870605468 L -145.6580047607422 291.6239929199218 L -145.73399353027344 291.41299438476557 L -145.83399963378906 291.2120056152343 L -145.9550018310547 291.0230102539062 L -146.0970001220703 290.84899902343744 L -146.13084411621094 290.8160095214843 L -146.25799560546875 290.6919860839843 L -146.43499755859375 290.55398559570307 L -146.62600708007812 290.43701171874994 L -146.8300018310547 290.3420104980468 L -147.04200744628906 290.2699890136718 L -147.26199340820312 290.2229919433593 L -147.45599365234375 290.20300292968744 L -147.48500061035156 290.2000122070312 L -147.70899963378906 290.2019958496093 L -147.9320068359375 290.23001098632807 L -148.1510009765625 290.28201293945307 L -148.36199951171875 290.35900878906244 L -148.56300354003906 290.45800781249994 L -148.7519989013672 290.57998657226557 L -148.9250030517578 290.7219848632812 L -149.01724243164062 290.8160095214843 L -149.08200073242188 290.88198852539057 L -149.22000122070312 291.05899047851557 L -149.33799743652344 291.25100708007807 L -149.43299865722656 291.45401000976557 L -149.5050048828125 291.66699218749994 L -149.552001953125 291.88598632812494 L -149.5749969482422 292.10900878906244 L -149.572998046875 292.33401489257807 L -149.5449981689453 292.55700683593744 L -149.4929962158203 292.7749938964843 L -149.4605255126953 292.86401367187494 L -149.41600036621094 292.98599243164057 L -149.3159942626953 293.18701171874994 L -149.19500732421875 293.37600708007807 L -149.05299377441406 293.5499877929687 L -148.89300537109375 293.7070007324218 L -148.71600341796875 293.84500122070307 L -148.5240020751953 293.9620056152343 L -148.3209991455078 294.05700683593744 L -148.10800170898438 294.1289978027343 L -147.88900756835938 294.17700195312494 L -147.6649932861328 294.19900512695307 L -147.45599365234375 294.19714355468744 L -147.4409942626953 294.1969909667968 L -147.21800231933594 294.1690063476562 L -147 294.1170043945312 L -146.78900146484375 294.0409851074218 L -146.58799743652344 293.9410095214843 L -146.3990020751953 293.81900024414057 L -146.22500610351562 293.67800903320307 L -146.0679931640625 293.51699829101557 L -145.92999267578125 293.33999633789057 L -145.81300354003906 293.1489868164062 L -145.7169952392578 292.9450073242187 M -29.291000366210938 189.2250061035156 L -29.277244567871094 189.03155517578122 L -29.274999618530273 188.99999999999997 L -29.288593292236328 188.78129577636716 L -29.2886962890625 188.7796478271484 L -29.30900001525879 188.45300292968747 L -29.31636619567871 188.4160003662109 L -29.35300064086914 188.23199462890622 L -29.45599937438965 188.0200042724609 L -29.57877540588379 187.86711120605466 L -29.614999771118164 187.8220062255859 L -29.82699966430664 187.64399719238278 L -30.086999893188477 187.4889984130859 L -30.09601593017578 187.48518371582028 L -30.171842575073242 187.45307922363278 L -30.386999130249023 187.36199951171872 L -30.719999313354492 187.26628112792966 L -30.72100067138672 187.26600646972653 L -31.079999923706055 187.20199584960935 L -31.45599937438965 187.1730041503906 L -31.839000701904297 187.17900085449216 L -32.72550582885742 187.23481750488278 L -32.768001556396484 187.23750305175778 L -32.7760009765625 187.23800659179685 L -32.785465240478516 187.23901367187497 L -33.15700149536133 187.27900695800778 L -33.5260009765625 187.35400390624997 L -33.875 187.46200561523435 L -34.110660552978516 187.56320190429685 L -34.194000244140625 187.59899902343747 L -34.42488098144531 187.73280334472653 L -34.47700119018555 187.76300048828122 L -34.71500015258789 187.94799804687497 L -34.90299987792969 188.15100097656247 L -35.0369987487793 188.36700439453122 L -35.0536994934082 188.4160003662109 L -35.112998962402344 188.5899963378906 L -35.11695861816406 188.6456604003906 L -35.12900161743164 188.81500244140622 L -35.095001220703125 189.36199951171872 L -35.080322265625 189.43571472167966 L -35.05099868774414 189.5829925537109 L -34.9726448059082 189.74427795410153 L -34.948001861572266 189.79499816894528 L -34.78900146484375 189.99299621582028 L -34.57699966430664 190.1710052490234 L -34.31700134277344 190.32499694824216 L -34.08283233642578 190.4249114990234 L -34.02801513671875 190.44830322265622 L -34.016998291015625 190.45300292968747 L -33.68299865722656 190.54899597167966 L -33.32400131225586 190.61300659179685 L -32.948001861572266 190.6419982910156 L -32.768001556396484 190.63917541503903 L -32.564998626708984 190.63600158691403 L -31.628000259399414 190.57699584960935 L -31.432247161865234 190.5559387207031 L -31.43177032470703 190.55587768554685 L -31.246999740600586 190.5359954833984 L -30.878000259399414 190.46000671386716 L -30.719999313354492 190.41156005859372 L -30.665197372436523 190.3947601318359 L -30.663188934326172 190.39413452148435 L -30.52899932861328 190.35299682617185 L -30.331077575683594 190.26800537109372 L -30.209999084472656 190.21600341796872 L -29.927000045776367 190.05200195312497 L -29.68899917602539 189.86700439453122 L -29.500999450683594 189.6629943847656 L -29.367000579833984 189.44799804687497 L -29.291000366210938 189.2250061035156 M -40.18000030517578 179.81500244140622 L -40.20838928222656 179.5511779785156 L -40.22100067138672 179.43400573730466 L -40.297000885009766 179.06500244140622 L -40.329002380371094 178.96061706542966 L -40.40399932861328 178.71600341796872 L -40.54100036621094 178.3970031738281 L -40.70500183105469 178.1139984130859 L -40.88999938964844 177.8760070800781 L -40.959999084472656 177.81149291992185 L -41.09400177001953 177.68800354003903 L -41.308998107910156 177.55400085449216 L -41.53200149536133 177.47799682617185 L -41.54650115966797 177.47697448730466 L -41.75699996948242 177.46200561523435 L -42.30400085449219 177.4960021972656 L -42.525001525878906 177.53999328613278 L -42.73699951171875 177.64300537109372 L -42.84855270385742 177.7325744628906 L -42.935001373291016 177.80200195312497 L -43.112998962402344 178.01400756835935 L -43.20957565307617 178.17599487304685 L -43.258705139160156 178.2584075927734 L -43.268001556396484 178.27400207519528 L -43.39500045776367 178.5740051269531 L -43.474544525146484 178.85075378417966 L -43.48484802246094 178.88659667968747 L -43.49100112915039 178.90800476074216 L -43.55500030517578 179.2669982910156 L -43.58399963378906 179.64300537109372 L -43.577999114990234 180.02600097656247 L -43.56553268432617 180.22399902343747 L -43.51900100708008 180.9629974365234 L -43.47800064086914 181.34399414062497 L -43.40299987792969 181.7129974365234 L -43.29499816894531 182.0619964599609 L -43.24114227294922 182.1874084472656 L -43.204811096191406 182.2720031738281 L -43.15800094604492 182.38099670410153 L -43.113494873046875 182.4577941894531 L -42.99399948120117 182.66400146484372 L -42.84632110595703 182.8539886474609 L -42.808998107910156 182.90199279785153 L -42.60860824584961 183.08758544921872 L -42.60599899291992 183.0899963378906 L -42.38999938964844 183.22399902343747 L -42.16699981689453 183.30000305175778 L -42.12034225463867 183.30331420898435 L -41.94200134277344 183.31599426269528 L -41.39500045776367 183.28199768066403 L -41.17399978637695 183.23800659179685 L -40.96200180053711 183.1349945068359 L -40.959999084472656 183.13339233398435 L -40.763999938964844 182.97599792480466 L -40.58599853515625 182.76400756835935 L -40.43199920654297 182.50399780273435 L -40.40999984741211 182.45243835449216 L -40.39841079711914 182.4252777099609 L -40.30400085449219 182.20399475097653 L -40.20800018310547 181.86999511718747 L -40.14400100708008 181.51100158691403 L -40.1150016784668 181.1349945068359 L -40.11725997924805 180.99079895019528 L -40.11813735961914 180.93481445312497 L -40.12099838256836 180.75199890136716 L -40.15424728393555 180.22399902343747 L -40.16173553466797 180.10505676269528 L -40.18000030517578 179.81500244140622 M -37.6671028137207 187.63232421874997 L -37.68899917602539 187.57699584960935 L -37.965999603271484 187.0879974365234 L -38.308998107910156 186.6419982910156 L -38.709999084472656 186.24899291992185 L -39.16299819946289 185.91499328613278 L -39.65700149536133 185.6470031738281 L -40.183998107910156 185.45100402832028 L -40.312076568603516 185.42253112792966 L -40.35734939575195 185.41247558593747 L -40.733001708984375 185.32899475097653 L -40.959999084472656 185.31159973144528 L -41.29399871826172 185.2859954833984 L -41.85499954223633 185.32099914550778 L -42.40599822998047 185.43299865722653 L -42.93600082397461 185.62199401855466 L -42.98564910888672 185.64791870117185 L -43.433998107910156 185.88200378417966 L -43.58399963378906 185.98933410644528 L -43.89099884033203 186.20899963378903 L -44.29899978637695 186.59599304199216 L -44.64799880981445 187.03700256347653 L -44.93299865722656 187.5220031738281 L -45.14799880981445 188.0410003662109 L -45.24433135986328 188.4160003662109 L -45.26605987548828 188.50057983398435 L -45.28799819946289 188.58599853515622 L -45.35100173950195 189.14399719238278 L -45.34286117553711 189.44897460937497 L -45.33599853515625 189.70599365234372 L -45.242000579833984 190.26100158691403 L -45.073001861572266 190.79699707031247 L -44.926876068115234 191.10188293457028 L -44.83000183105469 191.30400085449216 L -44.59658432006836 191.65600585937497 L -44.51900100708008 191.77299499511716 L -44.145999908447266 192.19400024414057 L -43.71799850463867 192.5579986572265 L -43.24399948120117 192.8600006103515 L -42.731998443603516 193.09199523925776 L -42.52399826049805 193.1537475585937 L -42.19300079345703 193.25199890136713 L -41.637001037597656 193.333999633789 L -41.07400131225586 193.33799743652338 L -40.959999084472656 193.32286071777338 L -40.516998291015625 193.26400756835932 L -39.974998474121094 193.11399841308588 L -39.459999084472656 192.88900756835932 L -39.06800079345703 192.64839172363276 L -38.98099899291992 192.59500122070307 L -38.547000885009766 192.2369995117187 L -38.167999267578125 191.8220062255859 L -37.849998474121094 191.35800170898435 L -37.599998474121094 190.85400390624997 L -37.5508918762207 190.70695495605466 L -37.511085510253906 190.58776855468747 L -37.422000885009766 190.32099914550778 L -37.31999969482422 189.76800537109372 L -37.29600143432617 189.20599365234372 L -37.349998474121094 188.6470031738281 L -37.35163497924805 188.64022827148435 L -37.40574264526367 188.4160003662109 L -37.481998443603516 188.1000061035156 L -37.6671028137207 187.63232421874997 M -49.152000427246094 188.22174072265622 L -49.4630012512207 188.19999694824216 L -49.84199905395508 188.20899963378903 L -50.77000045776367 188.27499389648435 L -51.14699935913086 188.32000732421872 L -51.20000076293945 188.33126831054685 L -51.513999938964844 188.39799499511716 L -51.571136474609375 188.4160003662109 L -51.86000061035156 188.50700378417966 L -52.176998138427734 188.64599609374997 L -52.45800018310547 188.81100463867185 L -52.53362274169922 188.8701019287109 L -52.69599914550781 188.99699401855466 L -52.88399887084961 189.20100402832028 L -53.018001556396484 189.4160003662109 L -53.031585693359375 189.45516967773435 L -53.095001220703125 189.63800048828122 L -53.112998962402344 189.8609924316406 L -53.08399963378906 190.40400695800778 L -53.07249450683594 190.46400451660153 L -53.06052017211914 190.52642822265622 L -53.04199981689453 190.62300109863278 L -52.94200134277344 190.8329925537109 L -52.7859992980957 191.02699279785153 L -52.577999114990234 191.20300292968747 L -52.321998596191406 191.35400390624997 L -52.0260009765625 191.47700500488278 L -51.872806549072266 191.5201721191406 L -51.8726806640625 191.52020263671872 L -51.69599914550781 191.57000732421872 L -51.340999603271484 191.63099670410153 L -51.20000076293945 191.64047241210935 L -50.96900177001953 191.65600585937497 L -50.59000015258789 191.6470031738281 L -49.6619987487793 191.58099365234372 L -49.284000396728516 191.5359954833984 L -49.152000427246094 191.50787353515622 L -48.917999267578125 191.4579925537109 L -48.571998596191406 191.34899902343747 L -48.49901580810547 191.3170013427734 L -48.29133605957031 191.2259368896484 L -48.255001068115234 191.21000671386716 L -47.9739990234375 191.04499816894528 L -47.736000061035156 190.8589935302734 L -47.58289337158203 190.69287109374997 L -47.54800033569336 190.65499877929685 L -47.428958892822266 190.46400451660153 L -47.41400146484375 190.44000244140622 L -47.33700180053711 190.2180023193359 L -47.319000244140625 189.99499511718747 L -47.325035095214844 189.88195800781247 L -47.32977294921875 189.79328918457028 L -47.347999572753906 189.45199584960935 L -47.388999938964844 189.23300170898435 L -47.48899841308594 189.02299499511716 L -47.60783386230469 188.87615966796872 L -47.645999908447266 188.82899475097653 L -47.854000091552734 188.65299987792966 L -48.11000061035156 188.50199890136716 L -48.18548583984375 188.47062683105466 L -48.316959381103516 188.4160003662109 L -48.40599822998047 188.37899780273435 L -48.736000061035156 188.2859954833984 L -49.090999603271484 188.22599792480466 L -49.152000427246094 188.22174072265622 M -42.22200012207031 196.09399414062494 L -42.34475326538086 196.38940429687494 L -42.345001220703125 196.38999938964838 L -42.406436920166016 196.60800170898432 L -42.4379997253418 196.72000122070307 L -42.499000549316406 197.07499694824213 L -42.52399826049805 197.44700622558588 L -42.51499938964844 197.82600402832026 L -42.455970764160156 198.65600585937494 L -42.44900131225586 198.75399780273432 L -42.404998779296875 199.1309967041015 L -42.32600021362305 199.49800109863276 L -42.21699905395508 199.84399414062494 L -42.101314544677734 200.10783386230463 L -42.077999114990234 200.16099548339838 L -41.91299819946289 200.44200134277338 L -41.872127532958984 200.49429321289057 L -41.84891128540039 200.52400207519526 L -41.72700119018555 200.6799926757812 L -41.700958251953125 200.7039947509765 L -41.52299880981445 200.86799621582026 L -41.38473129272461 200.95417785644526 L -41.30799865722656 201.00199890136713 L -41.08599853515625 201.0789947509765 L -41.010711669921875 201.08508300781244 L -40.959999084472656 201.0891723632812 L -40.862998962402344 201.09700012207026 L -40.361202239990234 201.0702056884765 L -40.31999969482422 201.06799316406244 L -40.113006591796875 201.02925109863276 L -40.10100173950195 201.0269927978515 L -39.89099884033203 200.92599487304682 L -39.696998596191406 200.77000427246088 L -39.64115524291992 200.7039947509765 L -39.520999908447266 200.56199645996088 L -39.369998931884766 200.30599975585932 L -39.24700164794922 200.00999450683588 L -39.209083557128906 199.87545776367182 L -39.15399932861328 199.6799926757812 L -39.105926513671875 199.39555358886713 L -39.09400177001953 199.32499694824213 L -39.08839797973633 199.24484252929682 L -39.06800079345703 198.95300292968744 L -39.07505416870117 198.65600585937494 L -39.07699966430664 198.57400512695307 L -39.143001556396484 197.64599609374994 L -39.1879997253418 197.26899719238276 L -39.26599884033203 196.9019927978515 L -39.358619689941406 196.60800170898432 L -39.375 196.55599975585932 L -39.513999938964844 196.23899841308588 L -39.59666442871094 196.09822082519526 L -39.60249710083008 196.08828735351557 L -39.67900085449219 195.95799255371088 L -39.8650016784668 195.72000122070307 L -40.069000244140625 195.531997680664 L -40.284000396728516 195.39799499511713 L -40.50600051879883 195.32099914550776 L -40.729000091552734 195.302993774414 L -40.959999084472656 195.31533813476557 L -41.03950119018555 195.31958007812494 L -41.23820877075195 195.33020019531244 L -41.27199935913086 195.33200073242182 L -41.45805358886719 195.3668365478515 L -41.49100112915039 195.37300109863276 L -41.70100021362305 195.47399902343744 L -41.89500045776367 195.63000488281244 L -42.07099914550781 195.83799743652338 L -42.22200012207031 196.09399414062494 M -86.56289672851562 244.69230651855463 L -86.58499908447266 244.79299926757807 L -86.60399627685547 245.00199890136713 L -86.5979995727539 245.21200561523432 L -86.56600189208984 245.4190063476562 L -86.50800323486328 245.62100219726557 L -86.44966125488281 245.75999450683588 L -86.427001953125 245.81399536132807 L -86.3219985961914 245.99600219726557 L -86.19499969482422 246.16299438476557 L -86.04900360107422 246.31399536132807 L -86.01599884033203 246.34072875976557 L -85.88600158691406 246.44599914550776 L -85.70700073242188 246.55599975585932 L -85.51699829101562 246.64399719238276 L -85.31700134277344 246.70700073242182 L -85.11000061035156 246.74600219726557 L -84.9010009765625 246.75900268554682 L -84.69200134277344 246.74600219726557 L -84.48500061035156 246.70700073242182 L -84.28500366210938 246.64399719238276 L -84.09500122070312 246.55599975585932 L -83.96800231933594 246.47795104980463 L -83.91600036621094 246.44599914550776 L -83.75299835205078 246.31399536132807 L -83.60700225830078 246.16299438476557 L -83.48100280761719 245.99600219726557 L -83.3759994506836 245.81399536132807 L -83.35305786132812 245.75999450683588 L -83.29399871826172 245.62100219726557 L -83.23600006103516 245.4190063476562 L -83.2040023803711 245.21200561523432 L -83.197998046875 245.00199890136713 L -83.21700286865234 244.79299926757807 L -83.26200103759766 244.58799743652338 L -83.33200073242188 244.38999938964838 L -83.42500305175781 244.20300292968744 L -83.54100036621094 244.02799987792963 L -83.6780014038086 243.86799621582026 L -83.83300018310547 243.72700500488276 L -83.96800231933594 243.63146972656244 L -84.00399780273438 243.60600280761713 L -84.18900299072266 243.50700378417963 L -84.38400268554688 243.43099975585932 L -84.58799743652344 243.38000488281244 L -84.7959976196289 243.35400390624994 L -85.00599670410156 243.35400390624994 L -85.18876647949219 243.3768463134765 L -85.21399688720703 243.38000488281244 L -85.41799926757812 243.43099975585932 L -85.61299896240234 243.50700378417963 L -85.7979965209961 243.60600280761713 L -85.96900177001953 243.72700500488276 L -86.01599884033203 243.76976013183588 L -86.1240005493164 243.86799621582026 L -86.26100158691406 244.02799987792963 L -86.37699890136719 244.20300292968744 L -86.47000122070312 244.38999938964838 L -86.54000091552734 244.58799743652338 L -86.56289672851562 244.69230651855463 z" fill="#A9A9A9" stroke="rgb(255,0,0)" stroke-width="0.001mm" />
</svg>