<?xml version="1.0" standalone="no"?>
<!DOCTYPE svg PUBLIC "-//W3C//DTD SVG 1.1//EN"
  "http://www.w3.org/Graphics/SVG/1.1/DTD/svg11.dtd">
<svg width="37.10273313522339mm" height="136.92800903320312mm" viewBox="-31.57900047302246 233.14999389648432 37.10273313522339 136.92800903320312" xmlns="http://www.w3.org/2000/svg" version="1.1">
	<title>svgOutput</title>
	<desc>made with tinkercad</desc>
<path d="M -19.448978424072266 240.92440795898432 L -18.125 238.8450317382812 L -17.995145797729492 238.64108276367182 L -16.939350128173828 236.98291015624994 L -16.20199966430664 236.11593627929682 L -14.529999732971191 234.14999389648432 L -13.611000061035156 234.21517944335932 L -10.204000473022461 234.45678710937494 L -8.79699993133545 234.5565795898437 L -8.649999618530273 234.56700134277338 L -6.627756118774414 238.67968749999994 L -6.459224224090576 239.02244567871088 L -6.711172580718994 239.32270812988276 L -7.726088523864746 240.53227233886713 L -8.79699993133545 241.80857849121088 L -8.824613571166992 241.84147644042963 L -9.312999725341797 242.38200378417963 L -10.085230827331543 243.42832946777338 L -11.133000373840332 244.84800720214838 L -11.234448432922363 245.0186157226562 L -11.675270080566406 245.75999450683588 L -11.89284896850586 246.12593078613276 L -13.357000350952148 248.42100524902338 L -15.529999732971191 252.59899902343744 L -17.486000061035156 257.2019958496093 L -18.125 259.05395507812494 L -19.191198348999023 262.1440124511718 L -19.204999923706055 262.18399047851557 L -20.67099952697754 267.4979858398437 L -21.868999481201172 273.0920104980468 L -22.788999557495117 278.91299438476557 L -23.42099952697754 284.9049987792968 L -23.759000778198242 291.01000976562494 L -23.784975051879883 294.91198730468744 L -23.799999237060547 297.1690063476562 L -23.54400062561035 303.3219909667968 L -22.993000030517578 309.41198730468744 L -22.152000427246094 315.3779907226562 L -21.030000686645508 321.16299438476557 L -19.636999130249023 326.7120056152343 L -19.333349227905273 327.6799926757812 L -18.125 331.5320739746093 L -17.98699951171875 331.9719848632812 L -16.094999313354492 336.89099121093744 L -13.979999542236328 341.42300415039057 L -13.149740219116211 342.8915405273437 L -12.245781898498535 344.4904174804687 L -12.00100040435791 345.0079956054687 L -11.16093635559082 346.4092712402343 L -10.067000389099121 348.23400878906244 L -8.79699993133545 349.9462280273437 L -7.827000141143799 351.2539978027343 L -7.3701019287109375 351.7581176757812 L -7.23715877532959 351.90478515624994 L -7.183000087738037 351.9830017089843 L -6.594208240509033 352.67922973632807 L -5.09499979019165 354.4519958496093 L -2.7899999618530273 356.6900024414062 L -2.683927059173584 356.77432250976557 L -2.0147809982299805 357.30627441406244 L -0.2930000126361847 358.6749877929687 L -6.96315970378017e-14 358.8630065917968 L 2.375 360.38699340820307 L 4.037155628204346 361.22961425781244 L 4.523732662200928 361.63406372070307 L 4.49893045425415 361.74987792968744 L 3.932246446609497 364.39599609374994 L 3.3929998874664307 366.9140014648437 L -3.3540000915527344 369.07800292968744 L -7.675116539001465 365.96121215820307 L -8.755022048950195 364.9561462402343 L -8.79699993133545 364.9170532226562 L -10.386690139770508 363.43753051757807 L -12.729999542236328 360.6809997558593 L -12.89040470123291 360.44799804687494 L -15.777000427246094 356.25500488281244 L -18.125 352.10070800781244 L -18.60300064086914 351.25500488281244 L -21.18199920654297 345.72900390624994 L -23.48900032043457 339.73001098632807 L -25.50200080871582 333.3160095214843 L -26.917037963867188 327.6799926757812 L -27.201000213623047 326.5490112304687 L -28.56999969482422 319.4930114746093 L -29.594999313354492 312.2170104980468 L -30.267000198364258 304.7909851074218 L -30.57900047302246 297.28698730468744 L -30.563190460205078 294.91198730468744 L -30.52899932861328 289.77600097656244 L -30.117000579833984 282.3320007324218 L -29.34600067138672 275.0239868164062 L -28.224000930786133 267.9249877929687 L -26.98594093322754 262.1440124511718 L -26.76300048828125 261.1029968261718 L -24.975000381469727 254.62300109863276 L -22.878999710083008 248.54699707031244 L -21.694786071777344 245.75999450683588 L -20.493999481201172 242.93400573730463 L -19.727048873901367 241.45913696289057 L -19.448978424072266 240.92440795898432 M -12.322999954223633 239.99899291992182 L -12.288000106811523 240.00546264648432 L -12.116999626159668 240.0370025634765 L -11.906999588012695 240.05000305175776 L -11.697999954223633 240.0370025634765 L -11.491999626159668 239.99899291992182 L -11.291999816894531 239.9349975585937 L -11.10099983215332 239.84700012207026 L -10.92300033569336 239.7369995117187 L -10.772666931152344 239.61599731445307 L -10.758999824523926 239.604995727539 L -10.61299991607666 239.45500183105463 L -10.487000465393066 239.2870025634765 L -10.381999969482422 239.10600280761713 L -10.300000190734863 238.9120025634765 L -10.243000030517578 238.7109985351562 L -10.211000442504883 238.50300598144526 L -10.204000473022461 238.2940063476562 L -10.222999572753906 238.08500671386713 L -10.267999649047852 237.88000488281244 L -10.338000297546387 237.68200683593744 L -10.395000457763672 237.56799316406244 L -10.432000160217285 237.49400329589838 L -10.54699993133545 237.31900024414057 L -10.684000015258789 237.16000366210932 L -10.83899974822998 237.0180053710937 L -11.010000228881836 236.89700317382807 L -11.194999694824219 236.79800415039057 L -11.390999794006348 236.72200012207026 L -11.593999862670898 236.67100524902338 L -11.803000450134277 236.64500427246088 L -12.01200008392334 236.64500427246088 L -12.220999717712402 236.67100524902338 L -12.288000106811523 236.68783569335932 L -12.423999786376953 236.72200012207026 L -12.619999885559082 236.79800415039057 L -12.805000305175781 236.89700317382807 L -12.97599983215332 237.0180053710937 L -13.130999565124512 237.16000366210932 L -13.267000198364258 237.31900024414057 L -13.383000373840332 237.49400329589838 L -13.420000076293945 237.56799316406244 L -13.47700023651123 237.68200683593744 L -13.545999526977539 237.88000488281244 L -13.590999603271484 238.08500671386713 L -13.611000061035156 238.2940063476562 L -13.604000091552734 238.50300598144526 L -13.571999549865723 238.7109985351562 L -13.515000343322754 238.9120025634765 L -13.432999610900879 239.10600280761713 L -13.32800006866455 239.2870025634765 L -13.20199966430664 239.45500183105463 L -13.055000305175781 239.604995727539 L -13.041417121887207 239.61599731445307 L -12.892000198364258 239.7369995117187 L -12.71399974822998 239.84700012207026 L -12.52299976348877 239.9349975585937 L -12.322999954223633 239.99899291992182 M -1.1169999837875366 362.6489868164062 L -1.111899971961975 362.49600219726557 L -1.1100000143051147 362.43899536132807 L -1.1299999952316284 362.23098754882807 L -1.1749999523162842 362.02600097656244 L -1.24399995803833 361.82800292968744 L -1.3380000591278076 361.64001464843744 L -1.4539999961853027 361.46499633789057 L -1.590000033378601 361.3059997558593 L -1.7450000047683716 361.1640014648437 L -1.9170000553131104 361.04299926757807 L -2.0480000972747803 360.9725036621093 L -2.1010000705718994 360.94400024414057 L -2.296999931335449 360.8680114746093 L -2.500999927520752 360.8169860839843 L -2.607856035232544 360.8036499023437 L -2.7090001106262207 360.7909851074218 L -2.9189999103546143 360.7909851074218 L -3.127000093460083 360.8169860839843 L -3.3299999237060547 360.8680114746093 L -3.5260000228881836 360.94400024414057 L -3.7109999656677246 361.04299926757807 L -3.881999969482422 361.1640014648437 L -4.0370001792907715 361.3059997558593 L -4.061223983764648 361.33410644531244 L -4.0960001945495605 361.3744812011718 L -4.173999786376953 361.46499633789057 L -4.289000034332275 361.64001464843744 L -4.382999897003174 361.82800292968744 L -4.453000068664551 362.02600097656244 L -4.498000144958496 362.23098754882807 L -4.517000198364258 362.43899536132807 L -4.511000156402588 362.6489868164062 L -4.478000164031982 362.85598754882807 L -4.421000003814697 363.05801391601557 L -4.339000225067139 363.2520141601562 L -4.234000205993652 363.43301391601557 L -4.107999801635742 363.6010131835937 L -4.0960001945495605 363.6133422851562 L -3.9619998931884766 363.75100708007807 L -3.7980000972747803 363.8829956054687 L -3.619999885559082 363.9930114746093 L -3.428999900817871 364.0809936523437 L -3.2290000915527344 364.1449890136718 L -3.0230000019073486 364.18301391601557 L -2.813999891281128 364.1960144042968 L -2.797948122024536 364.1950073242187 L -2.6040000915527344 364.18301391601557 L -2.3980000019073486 364.1449890136718 L -2.197999954223633 364.0809936523437 L -2.0480000972747803 364.0119018554687 L -2.006999969482422 363.9930114746093 L -1.8289999961853027 363.8829956054687 L -1.6660000085830688 363.75100708007807 L -1.5199999809265137 363.6010131835937 L -1.3930000066757202 363.43301391601557 L -1.2879999876022339 363.2520141601562 L -1.2668622732162476 363.2019958496093 L -1.2059999704360962 363.05801391601557 L -1.1490000486373901 362.85598754882807 L -1.1169999837875366 362.6489868164062 z" fill="none" stroke="rgb(255,0,0)" stroke-width="0.001mm" />
</svg>