<?xml version="1.0" encoding="utf-8"?>
<!-- Generator: Adobe Illustrator 24.1.0, SVG Export Plug-In . SVG Version: 6.00 Build 0)  -->
<svg version="1.1" id="Layer_1" xmlns="http://www.w3.org/2000/svg" xmlns:xlink="http://www.w3.org/1999/xlink" x="0px" y="0px"
	 viewBox="0 0 105.2 388.1" style="enable-background:new 0 0 105.2 388.1;" xml:space="preserve">
<style type="text/css">
	.st0{fill:#4D4D4D;stroke:#FF0000;stroke-width:8.035216e-03;stroke-miterlimit:11.3386;}
</style>
<desc>yellowjacket</desc>
<path class="st0" d="M34.4,22l3.8-5.9l0.4-0.6l3-4.7l2.1-2.5l4.7-5.6L50.9,3l9.7,0.7l4,0.3L65,4l5.7,11.7l0.5,1l-0.7,0.9l-2.9,3.4
	l-3,3.6l-0.1,0.1l-1.4,1.5l-2.2,3l-3,4l-0.3,0.5l-1.2,2.1l-0.6,1l-4.2,6.5l-6.2,11.8l-5.5,13l-1.8,5.2l-3,8.8l0,0.1l-4.2,15.1
	l-3.4,15.9l-2.6,16.5l-1.8,17l-1,17.3l-0.1,11.1l0,6.4l0.7,17.4l1.6,17.3l2.4,16.9l3.2,16.4l3.9,15.7l0.9,2.7l3.4,10.9l0.4,1.2
	l5.4,13.9l6,12.8l2.4,4.2l2.6,4.5l0.7,1.5l2.4,4l3.1,5.2l3.6,4.9l2.7,3.7l1.3,1.4l0.4,0.4l0.2,0.2l1.7,2l4.2,5l6.5,6.3l0.3,0.2
	l1.9,1.5l4.9,3.9l0.8,0.5l6.7,4.3l4.7,2.4l1.4,1.1l-0.1,0.3l-1.6,7.5l-1.5,7.1L80,385.3l-12.2-8.8l-3.1-2.8l-0.1-0.1l-4.5-4.2
	l-6.6-7.8l-0.5-0.7L44.8,349l-6.7-11.8l-1.4-2.4l-7.3-15.7l-6.5-17l-5.7-18.2l-4-16l-0.8-3.2l-3.9-20l-2.9-20.6l-1.9-21.1l-0.9-21.3
	l0-6.7L3,160.5l1.2-21.1l2.2-20.7l3.2-20.1L13,82.2l0.6-3l5.1-18.4l5.9-17.2l3.4-7.9l3.4-8l2.2-4.2L34.4,22 M54.6,19.4L54.6,19.4
	l0.6,0.1l0.6,0l0.6,0l0.6-0.1l0.6-0.2L58,19l0.5-0.3l0.4-0.3l0,0l0.4-0.4l0.4-0.5l0.3-0.5l0.2-0.5l0.2-0.6l0.1-0.6l0-0.6L60.5,14
	l-0.1-0.6l-0.2-0.6L60,12.5l-0.1-0.2l-0.3-0.5l-0.4-0.5L58.8,11l-0.5-0.3l-0.5-0.3l-0.6-0.2L56.7,10l-0.6-0.1h-0.6L54.9,10l-0.2,0
	l-0.4,0.1l-0.6,0.2l-0.5,0.3L52.7,11l-0.4,0.4l-0.4,0.5l-0.3,0.5l-0.1,0.2l-0.2,0.3l-0.2,0.6L51,14l-0.1,0.6l0,0.6l0.1,0.6l0.2,0.6
	l0.2,0.5l0.3,0.5l0.4,0.5l0.4,0.4l0,0l0.4,0.3l0.5,0.3l0.5,0.2L54.6,19.4 M86.3,367.1l0-0.4l0-0.2l-0.1-0.6l-0.1-0.6l-0.2-0.6
	l-0.3-0.5l-0.3-0.5l-0.4-0.5l-0.4-0.4l-0.5-0.3l-0.4-0.2l-0.2-0.1L83,362l-0.6-0.1l-0.3,0l-0.3,0h-0.6l-0.6,0.1l-0.6,0.1l-0.6,0.2
	l-0.5,0.3l-0.5,0.3l-0.4,0.4l-0.1,0.1l-0.1,0.1l-0.2,0.3l-0.3,0.5l-0.3,0.5l-0.2,0.6l-0.1,0.6l-0.1,0.6l0,0.6l0.1,0.6l0.2,0.6
	l0.2,0.5l0.3,0.5l0.4,0.5l0,0l0.4,0.4l0.5,0.4l0.5,0.3l0.5,0.2l0.6,0.2l0.6,0.1l0.6,0l0,0l0.5,0l0.6-0.1l0.6-0.2l0.4-0.2l0.1-0.1
	l0.5-0.3l0.5-0.4l0.4-0.4l0.4-0.5l0.3-0.5l0.1-0.1l0.2-0.4l0.2-0.6L86.3,367.1z"/>
</svg>
