<?xml version="1.0" standalone="no"?>
<!DOCTYPE svg PUBLIC "-//W3C//DTD SVG 1.1//EN"
  "http://www.w3.org/Graphics/SVG/1.1/DTD/svg11.dtd">
<svg width="142.22307586669922mm" height="153.97900390624997mm" viewBox="-163.63807678222656 163.34100341796872 142.22307586669922 153.97900390624997" xmlns="http://www.w3.org/2000/svg" version="1.1">
	<title>svgOutput</title>
	<desc>made with tinkercad</desc>
<path d="M -131.1796112060547 275.54214477539057 L -131.1580047607422 275.5180053710937 L -131.07200622558594 275.42080688476557 L -130.0712890625 274.2899780273437 L -129.5970001220703 273.7539978027343 L -127.8010025024414 271.70999145507807 L -125.79000091552734 269.40798950195307 L -123.58599853515625 266.8720092773437 L -121.21199798583984 264.13198852539057 L -119.49601745605469 262.1440124511718 L -118.69499969482422 261.2160034179687 L -116.06300354003906 258.15600585937494 L -113.34400177001953 254.9869995117187 L -110.56800079345703 251.74299621582026 L -107.76599884033203 248.458999633789 L -105.46839904785156 245.75999450683588 L -104.96700286865234 245.17100524902338 L -102.2040023803711 241.91600036621088 L -102.14654541015625 241.84812927246088 L -99.50599670410156 238.72900390624994 L -99.2605209350586 238.43827819824213 L -98.30400085449219 237.305435180664 L -96.9020004272461 235.64500427246088 L -95.37623596191406 233.8319244384765 L -94.4219970703125 232.69799804687494 L -92.86900329589844 230.84640502929682 L -92.09200286865234 229.91999816894526 L -91.71062469482422 229.4635620117187 L -91.6374740600586 229.37600708007807 L -90.11199951171875 227.55024719238276 L -89.93800354003906 227.34199523925776 L -87.98300170898438 224.99099731445307 L -86.25 222.89399719238276 L -86.20188903808594 222.83535766601557 L -85.58649444580078 222.0852661132812 L -85.30339050292969 221.74739074707026 L -84.7137451171875 221.04367065429682 L -83.88553619384766 220.05522155761713 L -82.39869689941406 218.28071594238276 L -81.67972564697266 217.42263793945307 L -81.2770004272461 216.94200134277338 L -81.08200073242188 216.70658874511713 L -80.97045135498047 216.57192993164057 L -78.00507354736328 212.9920043945312 L -75.36599731445312 209.80599975585932 L -70.75640106201172 204.1716918945312 L -69.69141387939453 202.86994934082026 L -69.6709976196289 202.84500122070307 L -69.40941619873047 202.52104187011713 L -69.27535247802734 202.354995727539 L -65.53600311279297 197.72387695312494 L -65.47284698486328 197.64566040039057 L -64.63499450683594 196.60800170898432 L -64.24500274658203 196.12499999999994 L -63.08171081542969 194.66313171386713 L -62.5114860534668 193.94656372070307 L -59.14099884033203 189.71099853515622 L -57.01406478881836 186.99357604980466 L -56.23625946044922 185.99983215332028 L -55.78160858154297 185.46636962890622 L -55.78191375732422 185.4653167724609 L -56.91999816894531 181.54499816894528 L -51.16142272949219 175.04508972167966 L -50.93391036987305 174.78829956054685 L -46.38199996948242 164.34100341796872 L -42.0504264831543 164.76119995117185 L -38.435455322265625 165.11187744140622 L -38.43399429321289 165.11203002929685 L -38.37201690673828 165.11804199218747 L -38.369510650634766 165.11828613281247 L -34.68199920654297 165.47599792480466 L -33.70800018310547 169.88299560546872 L -33.27893829345703 171.82434082031247 L -31.76099967956543 172.0720062255859 L -31.353351593017578 173.47596740722653 L -25.962478637695312 173.9988861083984 L -24.951000213623047 174.09700012207028 L -24.444801330566406 176.38825988769528 L -24.44477081298828 176.38839721679685 L -24.398399353027344 176.5982971191406 L -24.05554962158203 178.1501770019531 L -22.758167266845703 184.02267456054685 L -22.415000915527344 185.57600402832028 L -27.048824310302734 188.3010559082031 L -27.512739181518555 188.57386779785153 L -31.897518157958984 191.15246582031247 L -34.30320358276367 193.86758422851557 L -35.02214050292969 194.67900085449213 L -38.132999420166016 198.1900024414062 L -42.230045318603516 197.52128601074213 L -42.231136322021484 197.52110290527338 L -42.42816925048828 197.4889526367187 L -42.42826843261719 197.48892211914057 L -42.452510833740234 197.48497009277338 L -42.483272552490234 197.5150756835937 L -45.56399917602539 200.8390045166015 L -45.63100051879883 200.91244506835932 L -45.72909927368164 201.02000427246088 L -45.89464569091797 201.20149230957026 L -45.90934753417969 201.2116088867187 L -45.98400115966797 201.2630004882812 L -46.869998931884766 202.1329956054687 L -48.27799987792969 203.62100219726557 L -50.19499969482422 205.71000671386713 L -52.2994270324707 208.04649353027338 L -52.597999572753906 208.37800598144526 L -53.741703033447266 209.66227722167963 L -55.46200180053711 211.59399414062494 L -56.50199890136719 212.77232360839838 L -56.6148567199707 212.90019226074213 L -56.69588088989258 212.9920043945312 L -56.911563873291016 213.23637390136713 L -58.0843620300293 214.56515502929682 L -58.289093017578125 214.79711914062494 L -58.755001068115234 215.32499694824213 L -62.1474609375 219.19328308105463 L -62.441001892089844 219.52799987792963 L -65.53600311279297 223.07751464843744 L -66.47899627685547 224.1589965820312 L -68.98854064941406 227.04956054687494 L -69.07573699951172 227.14999389648432 L -69.58198547363281 227.73310852050776 L -70.14654541015625 228.38337707519526 L -70.31576538085938 228.57829284667963 L -70.82599639892578 229.16600036621088 L -71.00758361816406 229.37600708007807 L -75.18376159667969 234.2057495117187 L -75.43299865722656 234.49400329589838 L -76.04141998291016 235.20016479492182 L -80.2509994506836 240.0859985351562 L -85.22599792480469 245.87899780273432 L -85.47271728515625 246.16716003417963 L -89.29131317138672 250.62719726562494 L -90.30400085449219 251.8099975585937 L -90.36901092529297 251.8861694335937 L -95.42900085449219 257.8150024414062 L -98.30400085449219 261.19287109374994 L -99.1135482788086 262.1440124511718 L -100.5459976196289 263.8269958496093 L -105.59700012207031 269.78100585937494 L -110.52899932861328 275.6119995117187 L -113.86219024658203 279.5660095214843 L -115.28600311279297 281.25500488281244 L -118.04471588134766 284.5392761230468 L -119.81600189208984 286.6480102539062 L -120.54399871826172 287.51818847656244 L -123.38665008544922 290.9159851074218 L -124.07099914550781 291.73400878906244 L -126.54621124267578 294.7059020996093 L -126.7178726196289 294.91198730468744 L -126.73406219482422 294.93142700195307 L -126.7396240234375 294.9367370605468 L -127.43022155761719 295.5934448242187 L -128.5318603515625 296.64102172851557 L -130.20635986328125 298.2333679199218 L -131.07200622558594 299.05654907226557 L -146.58665466308594 313.8099975585937 L -147.2740020751953 314.46362304687494 L -147.2740020751953 316.07083129882807 L -147.2740020751953 316.1875915527343 L -147.2740020751953 316.3200073242187 L -161.97999572753906 316.3200073242187 L -162.6280059814453 316.3200073242187 L -162.6280059814453 313.8099975585937 L -162.6280059814453 301.23098754882807 L -162.6280059814453 301.2279968261718 L -162.63807678222656 301.2279968261718 L -162.6280059814453 301.2207946777343 L -157.8979949951172 297.8394470214843 L -156.7199249267578 296.9972839355468 L -151.56300354003906 293.3107299804687 L -148.21310424804688 290.9159851074218 L -147.76771545410156 290.5975952148437 L -148.37399291992188 290.1740112304687 L -149.29600524902344 289.41198730468744 L -149.5749969482422 289.1326293945312 L -150.0709991455078 288.63598632812494 L -150.69000244140625 287.85598754882807 L -151.1479949951172 287.0769958496093 L -151.44000244140625 286.30700683593744 L -151.56300354003906 285.5549926757812 L -151.51699829101562 284.8269958496093 L -151.30099487304688 284.13000488281244 L -150.91700744628906 283.4710083007812 L -150.3699951171875 282.85598754882807 L -149.6649932861328 282.29199218749994 L -149.5749969482422 282.23855590820307 L -148.80799865722656 281.78298950195307 L -147.80799865722656 281.33499145507807 L -147.45599365234375 281.2157897949218 L -146.6739959716797 280.9509887695312 L -145.5749969482422 280.6753845214843 L -145.41799926757812 280.63598632812494 L -144.05099487304688 280.3930053710937 L -142.58599853515625 280.2229919433593 L -141.03799438476562 280.1289978027343 L -139.42100524902344 280.1119995117187 L -137.7519989013672 280.1709899902343 L -136.57530212402344 280.2641296386718 L -136.04600524902344 280.3059997558593 L -135.39825439453125 280.38476562499994 L -135.37570190429688 280.35903930664057 L -135.28720092773438 280.2581176757812 L -135.15904235839844 280.1119995117187 L -133.58399963378906 278.3160095214843 L -131.1909637451172 275.5552673339843 L -131.1796112060547 275.54214477539057 M -152.54800415039062 308.5610046386718 L -152.32699584960938 308.5249938964843 L -152.11000061035156 308.46398925781244 L -151.90199279785156 308.38000488281244 L -151.7050018310547 308.2730102539062 L -151.56300354003906 308.1734313964843 L -151.552001953125 308.1657409667968 L -151.52099609375 308.1440124511718 L -151.3520050048828 307.99600219726557 L -151.2010040283203 307.82998657226557 L -151.07000732421875 307.6480102539062 L -150.9600067138672 307.4519958496093 L -150.8719940185547 307.24499511718744 L -150.85861206054688 307.2000122070312 L -150.80799865722656 307.0299987792968 L -150.7689971923828 306.80899047851557 L -150.7550048828125 306.58499145507807 L -150.76600646972656 306.35998535156244 L -150.80099487304688 306.1390075683593 L -150.86199951171875 305.92199707031244 L -150.9459991455078 305.71398925781244 L -151.05299377441406 305.51699829101557 L -151.1820068359375 305.33300781249994 L -151.3300018310547 305.1640014648437 L -151.4969940185547 305.0130004882812 L -151.552001953125 304.97341918945307 L -151.56300354003906 304.96548461914057 L -151.6790008544922 304.88198852539057 L -151.87399291992188 304.77200317382807 L -152.08099365234375 304.68399047851557 L -152.2969970703125 304.61999511718744 L -152.51800537109375 304.5809936523437 L -152.74200439453125 304.5669860839843 L -152.96600341796875 304.57800292968744 L -153.18800354003906 304.61401367187494 L -153.4040069580078 304.6740112304687 L -153.60000610351562 304.7531433105468 L -153.61199951171875 304.7579956054687 L -153.8090057373047 304.86499023437494 L -153.99400329589844 304.9939880371093 L -154.16200256347656 305.14199829101557 L -154.31300354003906 305.30899047851557 L -154.44400024414062 305.49099731445307 L -154.55499267578125 305.6860046386718 L -154.64199829101562 305.8930053710937 L -154.70599365234375 306.10900878906244 L -154.7449951171875 306.32998657226557 L -154.75999450683594 306.55398559570307 L -154.74899291992188 306.7780151367187 L -154.71299743652344 306.99999999999994 L -154.65652465820312 307.2000122070312 L -154.65199279785156 307.2160034179687 L -154.5679931640625 307.4240112304687 L -154.46099853515625 307.6220092773437 L -154.33200073242188 307.8059997558593 L -154.1840057373047 307.97399902343744 L -154.01800537109375 308.12499999999994 L -153.8350067138672 308.25601196289057 L -153.63999938964844 308.3670043945312 L -153.60000610351562 308.38381958007807 L -153.43299865722656 308.45401000976557 L -153.21800231933594 308.5180053710937 L -152.9969940185547 308.55700683593744 L -152.77200317382812 308.5719909667968 L -152.54800415039062 308.5610046386718 M -150.23399353027344 303.15798950195307 L -150.04100036621094 303.43399047851557 L -149.81900024414062 303.68701171874994 L -149.57000732421875 303.91299438476557 L -149.2969970703125 304.10998535156244 L -149.0030059814453 304.2749938964843 L -148.6929931640625 304.40701293945307 L -148.3699951171875 304.5020141601562 L -148.03900146484375 304.5610046386718 L -147.7030029296875 304.58300781249994 L -147.45599365234375 304.5705261230468 L -147.36599731445312 304.5660095214843 L -147.03399658203125 304.5130004882812 L -146.7100067138672 304.42199707031244 L -146.3979949951172 304.2950134277343 L -146.1020050048828 304.13500976562494 L -145.8260040283203 303.9419860839843 L -145.572998046875 303.72000122070307 L -145.3470001220703 303.47000122070307 L -145.14999389648438 303.1969909667968 L -145.09762573242188 303.10400390624994 L -144.98500061035156 302.9039916992187 L -144.85299682617188 302.59399414062494 L -144.75799560546875 302.27099609374994 L -144.69900512695312 301.93899536132807 L -144.677001953125 301.6029968261718 L -144.69400024414062 301.26699829101557 L -144.72767639160156 301.0559997558593 L -144.7469940185547 300.9349975585937 L -144.83799743652344 300.60998535156244 L -144.96499633789062 300.29800415039057 L -145.125 300.0020141601562 L -145.3179931640625 299.7260131835937 L -145.5399932861328 299.47399902343744 L -145.7899932861328 299.2470092773437 L -146.06300354003906 299.0499877929687 L -146.13758850097656 299.0079956054687 L -146.3560028076172 298.88500976562494 L -146.66600036621094 298.7539978027343 L -146.98899841308594 298.65798950195307 L -147.3209991455078 298.59899902343744 L -147.45599365234375 298.59057617187494 L -147.65699768066406 298.57800292968744 L -147.9929962158203 298.59399414062494 L -148.3249969482422 298.6480102539062 L -148.6490020751953 298.73901367187494 L -148.96200561523438 298.86499023437494 L -149.22401428222656 299.0079956054687 L -149.2570037841797 299.02600097656244 L -149.53399658203125 299.21899414062494 L -149.78599548339844 299.4410095214843 L -150.01300048828125 299.6900024414062 L -150.2100067138672 299.96301269531244 L -150.375 300.25698852539057 L -150.50599670410156 300.5669860839843 L -150.6020050048828 300.89001464843744 L -150.631591796875 301.0559997558593 L -150.66099548339844 301.2210083007812 L -150.6820068359375 301.55700683593744 L -150.66600036621094 301.8940124511718 L -150.61199951171875 302.2260131835937 L -150.52099609375 302.5499877929687 L -150.39500427246094 302.8619995117187 L -150.26336669921875 303.10400390624994 L -150.23399353027344 303.15798950195307 M -129.2760009765625 288.66198730468744 L -129.23699951171875 288.4400024414062 L -129.22300720214844 288.2160034179687 L -129.23399353027344 287.9920043945312 L -129.27000427246094 287.7699890136718 L -129.3300018310547 287.55398559570307 L -129.41400146484375 287.3460083007812 L -129.52200317382812 287.1489868164062 L -129.5336456298828 287.1322631835937 L -129.64999389648438 286.96499633789057 L -129.79800415039062 286.7959899902343 L -129.88204956054688 286.72000122070307 L -129.96499633789062 286.6449890136718 L -130.14700317382812 286.5140075683593 L -130.34300231933594 286.4039916992187 L -130.5489959716797 286.3160095214843 L -130.76499938964844 286.2520141601562 L -130.98599243164062 286.21301269531244 L -131.07200622558594 286.2076110839843 L -131.2100067138672 286.19900512695307 L -131.4340057373047 286.20901489257807 L -131.656005859375 286.24499511718744 L -131.8719940185547 286.3059997558593 L -132.0800018310547 286.39001464843744 L -132.2779998779297 286.4970092773437 L -132.46200561523438 286.62600708007807 L -132.56871032714844 286.72000122070307 L -132.6300048828125 286.7739868164062 L -132.781005859375 286.9400024414062 L -132.91299438476562 287.1229858398437 L -133.0229949951172 287.31799316406244 L -133.11000061035156 287.5249938964843 L -133.1739959716797 287.73999023437494 L -133.20448303222656 287.9135131835937 L -133.21299743652344 287.9620056152343 L -133.22799682617188 288.1860046386718 L -133.2169952392578 288.4100036621093 L -133.18099975585938 288.63198852539057 L -133.14259338378906 288.7680053710937 L -133.1199951171875 288.8479919433593 L -133.03599548339844 289.0559997558593 L -132.9290008544922 289.2529907226562 L -132.8000030517578 289.43701171874994 L -132.65199279785156 289.60598754882807 L -132.48599243164062 289.75698852539057 L -132.3040008544922 289.8880004882812 L -132.10800170898438 289.9979858398437 L -131.9010009765625 290.0859985351562 L -131.68600463867188 290.1499938964843 L -131.46499633789062 290.18899536132807 L -131.24099731445312 290.20300292968744 L -131.07200622558594 290.1954956054687 L -131.01600646972656 290.19299316406244 L -130.7949981689453 290.15701293945307 L -130.5780029296875 290.0960083007812 L -130.3699951171875 290.01199340820307 L -130.17300415039062 289.9049987792968 L -129.98899841308594 289.77600097656244 L -129.82000732421875 289.6279907226562 L -129.66900634765625 289.4620056152343 L -129.53799438476562 289.2789916992187 L -129.42799377441406 289.08401489257807 L -129.33999633789062 288.8770141601562 L -129.30755615234375 288.7680053710937 L -129.2760009765625 288.66198730468744 M -146.0679931640625 286.80801391601557 L -145.9993896484375 286.72000122070307 L -145.92999267578125 286.63101196289057 L -145.81300354003906 286.4400024414062 L -145.7169952392578 286.2369995117187 L -145.64599609375 286.0239868164062 L -145.59800720214844 285.8049926757812 L -145.5749969482422 285.5809936523437 L -145.5780029296875 285.3569946289062 L -145.60499572753906 285.1340026855468 L -145.6580047607422 284.9159851074218 L -145.73399353027344 284.70498657226557 L -145.75033569335938 284.67199707031244 L -145.83399963378906 284.5029907226562 L -145.9550018310547 284.3150024414062 L -146.0970001220703 284.14099121093744 L -146.25799560546875 283.98400878906244 L -146.43499755859375 283.8460083007812 L -146.62600708007812 283.7279968261718 L -146.8300018310547 283.6329956054687 L -147.04200744628906 283.5610046386718 L -147.26199340820312 283.5140075683593 L -147.45599365234375 283.4939880371093 L -147.48500061035156 283.49099731445307 L -147.70899963378906 283.4939880371093 L -147.9320068359375 283.52099609374994 L -148.1510009765625 283.57400512695307 L -148.36199951171875 283.6499938964843 L -148.56300354003906 283.74999999999994 L -148.7519989013672 283.87100219726557 L -148.9250030517578 284.0130004882812 L -149.08200073242188 284.1740112304687 L -149.22000122070312 284.3510131835937 L -149.33799743652344 284.54199218749994 L -149.39883422851562 284.67199707031244 L -149.43299865722656 284.74499511718744 L -149.5050048828125 284.95800781249994 L -149.552001953125 285.17700195312494 L -149.5749969482422 285.40100097656244 L -149.572998046875 285.62499999999994 L -149.5449981689453 285.8479919433593 L -149.4929962158203 286.0660095214843 L -149.41600036621094 286.27700805664057 L -149.3159942626953 286.47900390624994 L -149.19500732421875 286.66699218749994 L -149.15174865722656 286.72000122070307 L -149.05299377441406 286.8410034179687 L -148.89300537109375 286.9979858398437 L -148.71600341796875 287.13598632812494 L -148.5240020751953 287.2539978027343 L -148.3209991455078 287.34899902343744 L -148.10800170898438 287.4209899902343 L -147.88900756835938 287.4679870605468 L -147.6649932861328 287.49099731445307 L -147.45599365234375 287.48818969726557 L -147.4409942626953 287.4880065917968 L -147.21800231933594 287.4609985351562 L -147 287.40798950195307 L -146.78900146484375 287.3320007324218 L -146.58799743652344 287.2319946289062 L -146.3990020751953 287.11099243164057 L -146.22500610351562 286.96899414062494 L -146.0679931640625 286.80801391601557 M -29.291000366210938 182.51600646972653 L -29.277244567871094 182.32255554199216 L -29.274999618530273 182.2910003662109 L -29.276180267333984 182.2720031738281 L -29.283349990844727 182.1566467285156 L -29.28862190246582 182.07185363769528 L -29.28862953186035 182.07171630859372 L -29.30900001525879 181.7440032958984 L -29.35300064086914 181.52299499511716 L -29.45599937438965 181.31100463867185 L -29.57833480834961 181.15942382812497 L -29.614999771118164 181.1139984130859 L -29.82699966430664 180.93499755859372 L -30.086999893188477 180.78100585937497 L -30.386999130249023 180.65400695800778 L -30.608789443969727 180.5895843505859 L -30.650358200073242 180.57751464843747 L -30.719999313354492 180.55729675292966 L -30.72100067138672 180.55700683593747 L -31.079999923706055 180.49299621582028 L -31.45599937438965 180.46400451660153 L -31.839000701904297 180.47099304199216 L -32.72544479370117 180.5258636474609 L -32.768001556396484 180.52850341796872 L -32.7760009765625 180.52900695800778 L -32.785465240478516 180.5300140380859 L -33.15700149536133 180.57000732421872 L -33.5260009765625 180.64599609374997 L -33.875 180.75300598144528 L -34.045589447021484 180.82679748535153 L -34.194000244140625 180.89100646972653 L -34.41204071044922 181.0165863037109 L -34.47700119018555 181.05400085449216 L -34.68444061279297 181.21611022949216 L -34.71500015258789 181.24000549316403 L -34.90299987792969 181.44299316406247 L -34.93576431274414 181.49581909179685 L -35.0369987487793 181.65899658203122 L -35.112998962402344 181.88200378417966 L -35.12900161743164 182.10699462890622 L -35.11872482299805 182.2720031738281 L -35.10163879394531 182.54635620117185 L -35.09791564941406 182.60620117187497 L -35.095001220703125 182.65299987792966 L -35.080322265625 182.7267150878906 L -35.05099868774414 182.87399291992185 L -34.948001861572266 183.08599853515622 L -34.78900146484375 183.28399658203122 L -34.57699966430664 183.46200561523435 L -34.458194732666016 183.5328216552734 L -34.31700134277344 183.61700439453122 L -34.016998291015625 183.7440032958984 L -33.68299865722656 183.84100341796872 L -33.32400131225586 183.90400695800778 L -32.948001861572266 183.93299865722653 L -32.768001556396484 183.93017578124997 L -32.564998626708984 183.92700195312497 L -31.759504318237305 183.87713623046872 L -31.628000259399414 183.8690032958984 L -31.32613754272461 183.8357238769531 L -31.246999740600586 183.82699584960935 L -30.878000259399414 183.75199890136716 L -30.791322708129883 183.72517395019528 L -30.719999313354492 183.7031097412109 L -30.66434097290039 183.68588256835935 L -30.664159774780273 183.6858215332031 L -30.52899932861328 183.64399719238278 L -30.331077575683594 183.55900573730466 L -30.209999084472656 183.50700378417966 L -29.927000045776367 183.34399414062497 L -29.68899917602539 183.15800476074216 L -29.500999450683594 182.95500183105466 L -29.367000579833984 182.7389984130859 L -29.291000366210938 182.51600646972653 M -40.12099838256836 174.0429992675781 L -40.175933837890625 173.17057800292966 L -40.18000030517578 173.10600280761716 L -40.22100067138672 172.7250061035156 L -40.297000885009766 172.35600280761716 L -40.360389709472656 172.14924621582028 L -40.39633560180664 172.03199768066403 L -40.40399932861328 172.00700378417966 L -40.54100036621094 171.68800354003903 L -40.70500183105469 171.40600585937497 L -40.88999938964844 171.16700744628903 L -40.959999084472656 171.10249328613278 L -41.09400177001953 170.97900390624997 L -41.308998107910156 170.8450012207031 L -41.40092086791992 170.81367492675778 L -41.53200149536133 170.76899719238278 L -41.75699996948242 170.75300598144528 L -42.30400085449219 170.78700256347653 L -42.525001525878906 170.83099365234372 L -42.65850830078125 170.8958587646484 L -42.73699951171875 170.93400573730466 L -42.935001373291016 171.0930023193359 L -43.112998962402344 171.30499267578122 L -43.258705139160156 171.54940795898435 L -43.268001556396484 171.56500244140622 L -43.39500045776367 171.86500549316403 L -43.44300079345703 172.03199768066403 L -43.474605560302734 172.14196777343747 L -43.49100112915039 172.1990051269531 L -43.55500030517578 172.55900573730466 L -43.58399963378906 172.93499755859372 L -43.577999114990234 173.31799316406247 L -43.52996826171875 174.08000183105466 L -43.51900100708008 174.25399780273435 L -43.47800064086914 174.6349945068359 L -43.40299987792969 175.00500488281247 L -43.29499816894531 175.35299682617185 L -43.27708435058594 175.39485168457028 L -43.22456741333008 175.51751708984372 L -43.21746826171875 175.53410339355466 L -43.15800094604492 175.6730041503906 L -42.99399948120117 175.95500183105466 L -42.85952377319336 176.12800598144528 L -42.83149719238281 176.16406249999997 L -42.808998107910156 176.19299316406247 L -42.79552459716797 176.2055511474609 L -42.60599899291992 176.38200378417966 L -42.38999938964844 176.5149993896484 L -42.16699981689453 176.59100341796872 L -42.11967086791992 176.59457397460935 L -41.94200134277344 176.60800170898435 L -41.39500045776367 176.5740051269531 L -41.17399978637695 176.52999877929685 L -40.96200180053711 176.42700195312497 L -40.959999084472656 176.42538452148435 L -40.763999938964844 176.2669982910156 L -40.64729309082031 176.12800598144528 L -40.58599853515625 176.05499267578122 L -40.43199920654297 175.7960052490234 L -40.39842224121094 175.71704101562497 L -40.30400085449219 175.49499511718747 L -40.20800018310547 175.1609954833984 L -40.14400100708008 174.80200195312497 L -40.1150016784668 174.42599487304685 L -40.11725997924805 174.28179931640622 L -40.11813735961914 174.22579956054685 L -40.120418548583984 174.08000183105466 L -40.12099838256836 174.0429992675781 M -37.60196304321289 181.08790588378903 L -37.68899917602539 180.86799621582028 L -37.965999603271484 180.37899780273435 L -38.085472106933594 180.22399902343747 L -38.308998107910156 179.93400573730466 L -38.709999084472656 179.53999328613278 L -39.16299819946289 179.20599365234372 L -39.65700149536133 178.93800354003903 L -40.183998107910156 178.74200439453122 L -40.312137603759766 178.71376037597653 L -40.733001708984375 178.6210021972656 L -40.959999084472656 178.60319519042966 L -41.29399871826172 178.57699584960935 L -41.85499954223633 178.61199951171872 L -42.40599822998047 178.7250061035156 L -42.93600082397461 178.9129943847656 L -43.059539794921875 178.97749328613278 L -43.433998107910156 179.1730041503906 L -43.58399963378906 179.28033447265622 L -43.89099884033203 179.49999999999997 L -44.29899978637695 179.88800048828122 L -44.56550979614258 180.22399902343747 L -44.64799880981445 180.32800292968747 L -44.93299865722656 180.81300354003903 L -45.14799880981445 181.3329925537109 L -45.22433853149414 181.6296234130859 L -45.28799819946289 181.87699890136716 L -45.35100173950195 182.43600463867185 L -45.33599853515625 182.99800109863278 L -45.242000579833984 183.55200195312497 L -45.073001861572266 184.0879974365234 L -45.07096481323242 184.09225463867185 L -44.9620246887207 184.32000732421872 L -44.83000183105469 184.59599304199216 L -44.59674835205078 184.9470062255859 L -44.51900100708008 185.0639953613281 L -44.145999908447266 185.48500061035153 L -43.71799850463867 185.8500061035156 L -43.24399948120117 186.15100097656247 L -42.731998443603516 186.38400268554685 L -42.19300079345703 186.5429992675781 L -41.637001037597656 186.62499999999997 L -41.07400131225586 186.63000488281247 L -40.959999084472656 186.6148529052734 L -40.516998291015625 186.55599975585935 L -39.974998474121094 186.40499877929685 L -39.459999084472656 186.17999267578122 L -38.98099899291992 185.88600158691403 L -38.547000885009766 185.52799987792966 L -38.167999267578125 185.11300659179685 L -37.849998474121094 184.64900207519528 L -37.68648147583008 184.32000732421872 L -37.599998474121094 184.14599609374997 L -37.422000885009766 183.61199951171872 L -37.40650177001953 183.52796936035153 L -37.31999969482422 183.05900573730466 L -37.29600143432617 182.49800109863278 L -37.349998474121094 181.93800354003903 L -37.481998443603516 181.39100646972653 L -37.60196304321289 181.08790588378903 M -48.358680725097656 184.54646301269528 L -48.255001068115234 184.5010070800781 L -47.9739990234375 184.33599853515622 L -47.95352554321289 184.32000732421872 L -47.830589294433594 184.22392272949216 L -47.736000061035156 184.14999389648435 L -47.54800033569336 183.9470062255859 L -47.41400146484375 183.73100280761716 L -47.3845100402832 183.6459808349609 L -47.33700180053711 183.50900268554685 L -47.319000244140625 183.2859954833984 L -47.347999572753906 182.74299621582028 L -47.35346984863281 182.71379089355466 L -47.388999938964844 182.52400207519528 L -47.48899841308594 182.31500244140622 L -47.52362060546875 182.2720031738281 L -47.645999908447266 182.11999511718747 L -47.854000091552734 181.94500732421872 L -48.11000061035156 181.79400634765622 L -48.20882034301758 181.75260925292966 L -48.40599822998047 181.66999816894528 L -48.736000061035156 181.57699584960935 L -49.090999603271484 181.5169982910156 L -49.152000427246094 181.51274108886716 L -49.4630012512207 181.4909973144531 L -49.84199905395508 181.5010070800781 L -50.77000045776367 181.5670013427734 L -51.14699935913086 181.6109924316406 L -51.20000076293945 181.62226867675778 L -51.22853469848633 181.6283264160156 L -51.513999938964844 181.6889953613281 L -51.86000061035156 181.79899597167966 L -52.176998138427734 181.93800354003903 L -52.34321975708008 182.03500366210935 L -52.45800018310547 182.10200500488278 L -52.69599914550781 182.28900146484372 L -52.83987808227539 182.44435119628903 L -52.88399887084961 182.49200439453122 L -53.018001556396484 182.70700073242185 L -53.095001220703125 182.92900085449216 L -53.112998962402344 183.15299987792966 L -53.11121368408203 183.18640136718747 L -53.097198486328125 183.44831848144528 L -53.08399963378906 183.69500732421872 L -53.04199981689453 183.91400146484372 L -52.988895416259766 184.02552795410153 L -52.94200134277344 184.12399291992185 L -52.7859992980957 184.3190002441406 L -52.784812927246094 184.32000732421872 L -52.577999114990234 184.4940032958984 L -52.321998596191406 184.6450042724609 L -52.2359733581543 184.68104553222653 L -52.05198287963867 184.75811767578122 L -52.0260009765625 184.76899719238278 L -51.69599914550781 184.86199951171872 L -51.340999603271484 184.92199707031247 L -51.20000076293945 184.93147277832028 L -50.96900177001953 184.9470062255859 L -50.59000015258789 184.93800354003903 L -49.6619987487793 184.87199401855466 L -49.284000396728516 184.82800292968747 L -49.152000427246094 184.79986572265622 L -48.99018096923828 184.76538085937497 L -48.917999267578125 184.74999999999997 L -48.571998596191406 184.6399993896484 L -48.358680725097656 184.54646301269528 M -42.22200012207031 189.3849945068359 L -42.34475326538086 189.6804046630859 L -42.345001220703125 189.68099975585935 L -42.38763427734375 189.83227539062497 L -42.4379997253418 190.01100158691403 L -42.45933151245117 190.13513183593747 L -42.499000549316406 190.3659973144531 L -42.505584716796875 190.46400451660153 L -42.52399826049805 190.73800659179685 L -42.51499938964844 191.11799621582028 L -42.44900131225586 192.04499816894526 L -42.404998779296875 192.42300415039057 L -42.38578796386719 192.51199340820307 L -42.32600021362305 192.7890014648437 L -42.21699905395508 193.13499450683588 L -42.077999114990234 193.45300292968744 L -41.98630142211914 193.60916137695307 L -41.91299819946289 193.73399353027338 L -41.72700119018555 193.97099304199213 L -41.606319427490234 194.0822143554687 L -41.606163024902344 194.08236694335932 L -41.52299880981445 194.1589965820312 L -41.30799865722656 194.2940063476562 L -41.08599853515625 194.37100219726557 L -41.0071907043457 194.37736511230463 L -40.959999084472656 194.3811645507812 L -40.862998962402344 194.38900756835932 L -40.419715881347656 194.36532592773432 L -40.31999969482422 194.3600006103515 L -40.30982208251953 194.3580474853515 L -40.10100173950195 194.31799316406244 L -39.89099884033203 194.21800231933588 L -39.696998596191406 194.06199645996088 L -39.520999908447266 193.85299682617182 L -39.46556091308594 193.75936889648432 L -39.3883056640625 193.62890624999994 L -39.369998931884766 193.59800720214838 L -39.24700164794922 193.30099487304682 L -39.15399932861328 192.97099304199213 L -39.09400177001953 192.61599731445307 L -39.08875274658203 192.5409088134765 L -39.08673095703125 192.51199340820307 L -39.06800079345703 192.24400329589838 L -39.07699966430664 191.86500549316403 L -39.1287841796875 191.13685607910153 L -39.137699127197266 191.01153564453122 L -39.143001556396484 190.9369964599609 L -39.1879997253418 190.55999755859372 L -39.208457946777344 190.46400451660153 L -39.26599884033203 190.1940002441406 L -39.34945297241211 189.9283294677734 L -39.375 189.84700012207028 L -39.40385818481445 189.78118896484372 L -39.513999938964844 189.52999877929685 L -39.67900085449219 189.24899291992185 L -39.68311309814453 189.2437591552734 L -39.725318908691406 189.18998718261716 L -39.8650016784668 189.0119934082031 L -40.069000244140625 188.82299804687497 L -40.284000396728516 188.6889953613281 L -40.50600051879883 188.61199951171872 L -40.729000091552734 188.59399414062497 L -40.959999084472656 188.60633850097653 L -41.23820877075195 188.6212005615234 L -41.27199935913086 188.62300109863278 L -41.49100112915039 188.66499328613278 L -41.70100021362305 188.7649993896484 L -41.89500045776367 188.9210052490234 L -42.07099914550781 189.13000488281247 L -42.22200012207031 189.3849945068359 M -86.56340789794922 237.9866333007812 L -86.58499908447266 238.08500671386713 L -86.60399627685547 238.2940063476562 L -86.5979995727539 238.50300598144526 L -86.56600189208984 238.7109985351562 L -86.50800323486328 238.9120025634765 L -86.427001953125 239.10600280761713 L -86.3219985961914 239.2870025634765 L -86.19499969482422 239.45500183105463 L -86.04900360107422 239.604995727539 L -86.01599884033203 239.6317291259765 L -85.88600158691406 239.7369995117187 L -85.70700073242188 239.84700012207026 L -85.51699829101562 239.9349975585937 L -85.31700134277344 239.99899291992182 L -85.11000061035156 240.0370025634765 L -84.9010009765625 240.05000305175776 L -84.69200134277344 240.0370025634765 L -84.48500061035156 239.99899291992182 L -84.28500366210938 239.9349975585937 L -84.09500122070312 239.84700012207026 L -83.96800231933594 239.76895141601557 L -83.91600036621094 239.7369995117187 L -83.75299835205078 239.604995727539 L -83.60700225830078 239.45500183105463 L -83.48100280761719 239.2870025634765 L -83.3759994506836 239.10600280761713 L -83.29399871826172 238.9120025634765 L -83.23600006103516 238.7109985351562 L -83.2040023803711 238.50300598144526 L -83.197998046875 238.2940063476562 L -83.21700286865234 238.08500671386713 L -83.26200103759766 237.88000488281244 L -83.33200073242188 237.68200683593744 L -83.38839721679688 237.56799316406244 L -83.42500305175781 237.49400329589838 L -83.54100036621094 237.31900024414057 L -83.6780014038086 237.16000366210932 L -83.83300018310547 237.0180053710937 L -83.96800231933594 236.92247009277338 L -84.00399780273438 236.89700317382807 L -84.18900299072266 236.79800415039057 L -84.38400268554688 236.72200012207026 L -84.58799743652344 236.67100524902338 L -84.7959976196289 236.64500427246088 L -85.00599670410156 236.64500427246088 L -85.1852798461914 236.66740417480463 L -85.21399688720703 236.67100524902338 L -85.41799926757812 236.72200012207026 L -85.61299896240234 236.79800415039057 L -85.7979965209961 236.89700317382807 L -85.96900177001953 237.0180053710937 L -86.01599884033203 237.06106567382807 L -86.1240005493164 237.16000366210932 L -86.26100158691406 237.31900024414057 L -86.37699890136719 237.49400329589838 L -86.41360473632812 237.56799316406244 L -86.47000122070312 237.68200683593744 L -86.54000091552734 237.88000488281244 L -86.56340789794922 237.9866333007812 z" fill="none" stroke="rgb(255,0,0)" stroke-width="0.001mm" />
</svg>