<?xml version="1.0" encoding="utf-8"?>
<!-- Generator: Adobe Illustrator 24.1.0, SVG Export Plug-In . SVG Version: 6.00 Build 0)  -->
<svg version="1.1" id="Layer_1" xmlns="http://www.w3.org/2000/svg" xmlns:xlink="http://www.w3.org/1999/xlink" x="0px" y="0px"
	 viewBox="0 0 403.2 436.5" style="enable-background:new 0 0 403.2 436.5;" xml:space="preserve">
<style type="text/css">
	.st0{fill:#4D4D4D;stroke:#FF0000;stroke-width:8.035216e-03;stroke-miterlimit:11.3386;}
</style>
<desc>yellowjacket</desc>
<path class="st0" d="M92,318.1L92,318.1l0.3-0.3l2.8-3.2l1.3-1.5l5.1-5.8l5.7-6.5l6.2-7.2l6.7-7.8l4.9-5.6l2.3-2.6l7.5-8.7l7.7-9
	l7.9-9.2l7.9-9.3l6.5-7.7l1.4-1.7l7.8-9.2l0.2-0.2l7.5-8.8l0.7-0.8l2.7-3.2l4-4.7l4.3-5.1l2.7-3.2l4.4-5.2l2.2-2.6l1.1-1.3l0.2-0.2
	l4.3-5.2l0.5-0.6l5.5-6.7l4.9-5.9l0.1-0.2l1.7-2.1l0.8-1l1.7-2l2.3-2.8l4.2-5l2-2.4l1.1-1.4l0.6-0.7l0.3-0.4l8.4-10.1l7.5-9l13.1-16
	l3-3.7l0.1-0.1l0.7-0.9l0.4-0.5l10.6-13.1l0.2-0.2l2.4-2.9l1.1-1.4l3.3-4.1l1.6-2l9.6-12l6-7.7l2.2-2.8l1.3-1.5l0,0l-3.2-11.1
	l16.3-18.4l0.6-0.7l12.9-29.6L344.7,4l10.2,1l0,0l0.2,0l0,0l10.5,1l2.8,12.5l1.2,5.5l4.3,0.7l1.2,4l15.3,1.5l2.9,0.3l1.4,6.5l0,0
	l0.1,0.6l1,4.4l3.7,16.6l1,4.4l-13.1,7.7l-1.3,0.8l-12.4,7.3l-6.8,7.7l-2,2.3l-8.8,10l-11.6-1.9l0,0l-0.6-0.1l0,0l-0.1,0l-0.1,0.1
	l-8.7,9.4l-0.2,0.2l-0.3,0.3l-0.5,0.5l0,0l-0.2,0.1L331,110l-4,4.2l-5.4,5.9l-6,6.6l-0.8,0.9l-3.2,3.6l-4.9,5.5l-2.9,3.3l-0.3,0.4
	l-0.2,0.3l-0.6,0.7l-3.3,3.8l-0.6,0.7l-1.3,1.5l-9.6,11l-0.8,0.9l-8.8,10.1l-2.7,3.1l-7.1,8.2l-0.2,0.3l-1.4,1.7l-1.6,1.8l-0.5,0.6
	l-1.4,1.7l-0.5,0.6l-11.8,13.7l-0.7,0.8l-1.7,2l-11.9,13.8L222.3,234l-0.7,0.8l-10.8,12.6l-2.9,3.4l-0.2,0.2l-14.3,16.8l-8.1,9.6
	l-2.3,2.7l-4.1,4.8l-14.3,16.9l-14,16.5l-9.4,11.2l-4,4.8l-7.8,9.3l-5,6l-2.1,2.5l-8.1,9.6l-1.9,2.3l-7,8.4l-0.5,0.6l0,0.1l0,0
	l-2,1.9l-3.1,3l-4.7,4.5l-2.5,2.3l-44,41.8l-1.9,1.9v4.6v0.3v0.4H4.7H2.9v-7.1v-35.7v0h0l0,0l13.4-9.6l3.3-2.4l14.6-10.5l9.5-6.8
	l1.3-0.9l-1.7-1.2l-2.6-2.2l-0.8-0.8l-1.4-1.4l-1.8-2.2l-1.3-2.2l-0.8-2.2l-0.3-2.1l0.1-2.1l0.6-2l1.1-1.9l1.6-1.7l2-1.6l0.3-0.2
	l2.2-1.3l2.8-1.3l1-0.3l2.2-0.8l3.1-0.8l0.4-0.1l3.9-0.7l4.2-0.5l4.4-0.3l4.6,0l4.7,0.2l3.3,0.3l1.5,0.1l1.8,0.2l0.1-0.1l0.3-0.3
	l0.4-0.4l4.5-5.1L92,318.1L92,318.1 M31.4,411.6l0.6-0.1l0.6-0.2l0.6-0.2l0.6-0.3l0.4-0.3l0,0l0.1-0.1l0.5-0.4l0.4-0.5l0.4-0.5
	l0.3-0.6l0.2-0.6l0-0.1l0.1-0.5l0.1-0.6l0-0.6l0-0.6l-0.1-0.6l-0.2-0.6l-0.2-0.6l-0.3-0.6l-0.4-0.5l-0.4-0.5l-0.5-0.4l-0.2-0.1l0,0
	l-0.3-0.2l-0.6-0.3l-0.6-0.2l-0.6-0.2l-0.6-0.1l-0.6,0l-0.6,0l-0.6,0.1l-0.6,0.2l-0.6,0.2l0,0l-0.6,0.3l-0.5,0.4l-0.5,0.4l-0.4,0.5
	l-0.4,0.5l-0.3,0.6l-0.2,0.6l-0.2,0.6l-0.1,0.6l0,0.6l0,0.6l0.1,0.6l0.2,0.6l0,0l0.2,0.6L26,409l0.4,0.5l0.4,0.5l0.5,0.4l0.5,0.4
	l0.6,0.3l0.1,0l0.5,0.2l0.6,0.2l0.6,0.1l0.6,0L31.4,411.6 M38,396.3l0.5,0.8l0.6,0.7l0.7,0.6l0.8,0.6l0.8,0.5l0.9,0.4l0.9,0.3
	l0.9,0.2l1,0.1l0.7,0l0.3,0l0.9-0.2l0.9-0.3l0.9-0.4l0.8-0.5l0.8-0.5l0.7-0.6l0.6-0.7l0.6-0.8l0.1-0.3l0.3-0.6l0.4-0.9l0.3-0.9
	l0.2-0.9l0.1-1l0-1l-0.1-0.6l-0.1-0.3l-0.3-0.9l-0.4-0.9l-0.5-0.8l-0.5-0.8l-0.6-0.7l-0.7-0.6l-0.8-0.6l-0.2-0.1l-0.6-0.3l-0.9-0.4
	l-0.9-0.3l-0.9-0.2l-0.4,0l-0.6,0l-1,0l-0.9,0.2l-0.9,0.3l-0.9,0.4l-0.7,0.4l-0.1,0.1l-0.8,0.5l-0.7,0.6l-0.6,0.7l-0.6,0.8l-0.5,0.8
	l-0.4,0.9l-0.3,0.9l-0.1,0.5l-0.1,0.5l-0.1,1l0,1l0.2,0.9l0.3,0.9l0.4,0.9l0.4,0.7L38,396.3 M97.4,355.2l0.1-0.6l0-0.6l0-0.6
	l-0.1-0.6l-0.2-0.6l-0.2-0.6l-0.3-0.6l0,0l-0.3-0.5l-0.4-0.5l-0.2-0.2l-0.2-0.2l-0.5-0.4l-0.6-0.3l-0.6-0.2l-0.6-0.2l-0.6-0.1
	l-0.2,0l-0.4,0l-0.6,0l-0.6,0.1l-0.6,0.2l-0.6,0.2l-0.6,0.3l-0.5,0.4l-0.3,0.3l-0.2,0.2l-0.4,0.5l-0.4,0.5l-0.3,0.6l-0.2,0.6
	l-0.2,0.6l-0.1,0.5l0,0.1l0,0.6l0,0.6l0.1,0.6l0.1,0.4l0.1,0.2l0.2,0.6l0.3,0.6l0.4,0.5l0.4,0.5l0.5,0.4l0.5,0.4l0.6,0.3l0.6,0.2
	l0.6,0.2l0.6,0.1l0.6,0l0.5,0l0.2,0l0.6-0.1l0.6-0.2l0.6-0.2l0.6-0.3l0.5-0.4l0.5-0.4l0.4-0.5l0.4-0.5l0.3-0.6l0.2-0.6l0.1-0.3
	L97.4,355.2 M49.8,350l0.2-0.2l0.2-0.3l0.3-0.5l0.3-0.6l0.2-0.6l0.1-0.6l0.1-0.6l0-0.6l-0.1-0.6l-0.2-0.6l-0.2-0.6l0-0.1l-0.2-0.5
	l-0.3-0.5l-0.4-0.5l-0.5-0.4l-0.5-0.4l-0.5-0.3l-0.6-0.3l-0.6-0.2l-0.6-0.1l-0.5-0.1l-0.1,0l-0.6,0l-0.6,0.1l-0.6,0.2l-0.6,0.2
	l-0.6,0.3l-0.5,0.3l-0.5,0.4l-0.4,0.5l-0.4,0.5l-0.3,0.5l-0.2,0.4l-0.1,0.2l-0.2,0.6l-0.1,0.6l-0.1,0.6l0,0.6l0.1,0.6l0.1,0.6
	l0.2,0.6l0.3,0.6l0.3,0.5l0.1,0.2l0.3,0.3l0.5,0.4l0.5,0.4l0.5,0.3l0.6,0.3l0.6,0.2l0.6,0.1l0.6,0.1l0.6,0l0,0l0.6-0.1l0.6-0.2
	l0.6-0.2l0.6-0.3l0.5-0.3l0.5-0.4L49.8,350 M380.8,54.4l0-0.5l0-0.1l0-0.1l0-0.3l0-0.2l0,0l-0.1-0.9l-0.1-0.6l-0.3-0.6l-0.3-0.4
	l-0.1-0.1l-0.6-0.5l-0.7-0.4l-0.9-0.4l-0.6-0.2l-0.1,0l-0.2-0.1l0,0l-1-0.2l-1.1-0.1l-1.1,0l-2.5,0.2l-0.1,0l0,0l0,0l-1.1,0.1
	l-1,0.2l-1,0.3l-0.5,0.2l-0.4,0.2l-0.6,0.4l-0.2,0.1l-0.6,0.5l-0.1,0.1l-0.5,0.6l-0.1,0.1l-0.3,0.5l-0.2,0.6l0,0.6l0,0.5l0,0.8
	l0,0.2l0,0.1l0,0.2l0.1,0.4l0.3,0.6l0.5,0.6l0.6,0.5l0.3,0.2l0.4,0.2l0.9,0.4l0.9,0.3l1,0.2l1.1,0.1l0.5,0l0.6,0l2.3-0.1l0.4,0
	l0.9-0.1l0.2,0l1-0.2l0.2-0.1l0.2-0.1l0.2,0l0,0l0.4-0.1l0.6-0.2l0.3-0.1l0.8-0.5l0.7-0.5l0.5-0.6l0.4-0.6L380.8,54.4 M350.1,30.3
	l-0.2-2.5l0-0.2l-0.1-1.1l-0.2-1l-0.2-0.6l-0.1-0.3l0-0.1l-0.4-0.9l-0.5-0.8l-0.5-0.7l-0.2-0.2l-0.4-0.4l-0.6-0.4l-0.3-0.1l-0.4-0.1
	l-0.6,0l-1.6,0.1l-0.6,0.1l-0.4,0.2l-0.2,0.1l-0.6,0.5l-0.5,0.6l-0.4,0.7l0,0l-0.4,0.9l-0.1,0.5l-0.1,0.3l0,0.2l-0.2,1l-0.1,1.1
	l0,1.1l0.1,2.2l0,0.5l0.1,1.1l0.2,1l0.3,1l0.1,0.1l0.1,0.3l0,0l0.2,0.4l0.5,0.8l0.4,0.5l0.1,0.1l0.1,0.1l0,0l0.5,0.5l0.6,0.4
	l0.6,0.2l0.1,0l0.5,0l1.6-0.1l0.6-0.1l0.6-0.3l0,0l0.6-0.4l0.3-0.4l0.2-0.2l0.4-0.7l0.1-0.2l0.3-0.6l0.3-0.9l0.2-1l0.1-1.1l0-0.4
	l0-0.2l0-0.4L350.1,30.3 M357.3,50.3l-0.2-0.6l-0.8-1.4l-0.3-0.4l-0.6-0.8l-1.1-1.1l-1.3-0.9l-1.4-0.8l-1.5-0.6l-0.4-0.1l-1.2-0.3
	l-0.6-0.1l-0.9-0.1l-1.6,0.1l-1.6,0.3l-1.5,0.5l-0.4,0.2l-1.1,0.6l-0.4,0.3l-0.9,0.6l-1.2,1.1l-0.8,1l-0.2,0.3l-0.8,1.4l-0.6,1.5
	l-0.2,0.8l-0.2,0.7l-0.2,1.6l0,1.6l0.3,1.6l0.5,1.5l0,0l0.3,0.6l0.4,0.8l0.7,1l0.2,0.3l1.1,1.2l1.2,1l1.3,0.9l1.5,0.7l1.5,0.5
	l1.6,0.2l1.6,0l0.3,0l1.3-0.2l1.5-0.4l1.5-0.6l1.4-0.8l1.2-1l1.1-1.2l0.9-1.3l0.5-0.9l0.2-0.5l0.5-1.5l0-0.2l0.2-1.3l0.1-1.6
	l-0.2-1.6l-0.4-1.6L357.3,50.3 M326.8,60.1l0.3-0.1l0.8-0.5l0.1,0l0.3-0.3l0.3-0.2l0.5-0.6l0.4-0.6l0.1-0.2l0.1-0.4l0.1-0.6
	l-0.1-1.5l0-0.1l-0.1-0.5l-0.3-0.6l-0.1-0.1l-0.3-0.4l-0.6-0.5l-0.7-0.4l-0.3-0.1l-0.6-0.2l-0.9-0.3l-1-0.2l-0.2,0l-0.9-0.1l-1.1,0
	l-2.6,0.2l-1.1,0.1l-0.2,0l-0.1,0l-0.8,0.2l-1,0.3l-0.9,0.4l-0.5,0.3l-0.3,0.2l-0.7,0.5l-0.4,0.4l-0.1,0.1l-0.4,0.6l-0.2,0.6
	l-0.1,0.6l0,0.1l0,0.7l0,0.7l0.1,0.6l0.2,0.3l0.1,0.3l0.4,0.6l0,0l0.6,0.5l0.7,0.4l0.2,0.1l0.5,0.2l0.1,0l0.9,0.3l1,0.2l0.4,0l0.7,0
	l1.1,0l2.6-0.2l1.1-0.1l0.4-0.1l0.5-0.1l0.2,0l1-0.3L326.8,60.1 M344.2,73.8l-0.3,0.8l0,0l-0.1,0.4l-0.1,0.5l-0.1,0.4l-0.1,0.7
	l0,0.3l-0.1,0.8l0,1.1l0.2,2.6l0.1,1.1l0.1,0.3l0.2,0.8l0.3,1l0.4,0.9l0.3,0.4l0.2,0.4l0.5,0.7l0.3,0.3l0,0l0.2,0.2l0.6,0.4l0.6,0.2
	l0.2,0l0.1,0l0.3,0l1.3-0.1l0.3,0l0,0l0.6-0.1l0.6-0.3l0.5-0.4l0.5-0.6l0.2-0.3l0.2-0.4l0.1-0.1l0.3-0.8l0.3-0.9l0.2-1l0-0.2l0-0.1
	l0.1-0.8l0-1.1l-0.1-2.1l0-0.4l0-0.2l-0.1-1.1l-0.1-0.3l-0.2-0.8l-0.2-0.8l-0.1-0.2l-0.1-0.2l-0.3-0.7l-0.5-0.8l0,0l-0.1-0.2
	l-0.4-0.5l-0.6-0.5l-0.6-0.4l-0.6-0.2l-0.6-0.1l-0.7,0l-0.8,0l-0.1,0l-0.6,0.1l-0.6,0.3l-0.5,0.4l-0.5,0.6L344.2,73.8 M218.5,211.6
	l-0.1,0.3l-0.1,0.6l0,0.6l0.1,0.6l0.2,0.6l0.2,0.5l0.3,0.5l0.4,0.5l0.4,0.4l0.1,0.1l0.4,0.3l0.5,0.3l0.5,0.2l0.6,0.2l0.6,0.1l0.6,0
	l0.6,0l0.6-0.1l0.6-0.2l0.5-0.2l0.4-0.2l0.1-0.1l0.5-0.4l0.4-0.4l0.4-0.5l0.3-0.5l0.2-0.5l0.2-0.6l0.1-0.6l0-0.6l-0.1-0.6l-0.1-0.6
	l-0.2-0.6l-0.2-0.3l-0.1-0.2l-0.3-0.5l-0.4-0.5l-0.4-0.4l-0.4-0.3l-0.1-0.1l-0.5-0.3l-0.6-0.2l-0.6-0.1l-0.6-0.1h-0.6l-0.5,0.1
	l-0.1,0l-0.6,0.1l-0.6,0.2l-0.5,0.3l-0.5,0.3L220,209l-0.3,0.3l-0.4,0.5l-0.3,0.5l-0.1,0.2l-0.2,0.3l-0.2,0.6L218.5,211.6z"/>
</svg>
