<?xml version="1.0" standalone="no"?>
<!DOCTYPE svg PUBLIC "-//W3C//DTD SVG 1.1//EN"
  "http://www.w3.org/Graphics/SVG/1.1/DTD/svg11.dtd">
<svg width="77.53200149536133mm" height="72.2420043945312mm" viewBox="49.86800003051758 366.2019958496093 77.53200149536133 72.2420043945312" xmlns="http://www.w3.org/2000/svg" version="1.1">
	<title>svgOutput</title>
	<desc>Yellowjacket</desc>
<path d="M 122.93399810791016 367.23999023437494 L 124.0739974975586 367.4769897460937 L 124.9990005493164 367.91299438476557 L 125.6989974975586 368.54299926757807 L 126.16799926757812 369.35998535156244 L 126.4000015258789 370.3580017089843 L 126.3949966430664 371.52600097656244 L 126.1520004272461 372.8529968261718 L 125.6729965209961 374.3269958496093 L 125.16250610351562 375.48098754882807 L 125.02272033691406 375.79699707031244 L 124.96299743652344 375.93200683593744 L 124.71066284179688 376.39700317382807 L 124.474609375 376.8320007324218 L 124.02799987792969 377.6549987792968 L 122.87799835205078 379.4769897460937 L 121.5250015258789 381.38198852539057 L 119.9800033569336 383.3519897460937 L 118.25800323486328 385.365997314453 L 116.37699890136719 387.407012939453 L 114.68800354003906 389.11605834960926 L 114.58428192138672 389.22100830078114 L 114.39314270019531 389.41439819335926 L 114.3550033569336 389.4530029296874 L 114.35022735595703 389.4575195312499 L 114.26173400878906 389.54144287109364 L 114.131591796875 389.66485595703114 L 114.04357147216797 389.748321533203 L 113.89099884033203 389.87298583984364 L 113.53299713134766 390.21673583984364 L 113.11821746826172 390.615020751953 L 113.0609130859375 390.6700439453124 L 112.86100006103516 390.86199951171864 L 112.61100006103516 391.14401245117176 L 112.5954818725586 391.167999267578 L 112.58409118652344 391.18560791015614 L 112.3304443359375 391.4598693847655 L 112.325439453125 391.46527099609364 L 112.3219985961914 391.4689941406249 L 112.18895721435547 391.64474487304676 L 111.61799621582031 392.39898681640614 L 111.1099624633789 393.21600341796864 L 110.9800033569336 393.42498779296864 L 110.41400146484375 394.5369873046874 L 109.9260025024414 395.7239990234374 L 109.74076080322266 396.2938232421874 L 109.51899719238281 396.97601318359364 L 109.1989974975586 398.27899169921864 L 108.96800231933594 399.62200927734364 L 108.8290023803711 400.99200439453114 L 108.78199768066406 402.3749999999999 L 108.8290023803711 403.75799560546864 L 108.96800231933594 405.12701416015614 L 109.1989974975586 406.470001220703 L 109.51899719238281 407.77398681640614 L 109.9260025024414 409.02499389648426 L 109.99871063232422 409.20199584960926 L 110.16219329833984 409.6000061035155 L 110.32220458984375 409.989532470703 L 110.41400146484375 410.2130126953124 L 110.9800033569336 411.32501220703114 L 111.07381439208984 411.4757080078124 L 111.61799621582031 412.3500061035155 L 111.81938934326172 412.61602783203114 L 112.25810241699219 413.195587158203 L 113.53299713134766 414.4039306640624 L 114.3550033569336 415.1830139160155 L 116.37699890136719 417.230010986328 L 118.25800323486328 419.2709960937499 L 119.9800033569336 421.28500366210926 L 121.27560424804688 422.9370117187499 L 121.5250015258789 423.2550048828124 L 122.87799835205078 425.16000366210926 L 123.39808654785156 425.9840087890624 L 124.02799987792969 426.98199462890614 L 124.96299743652344 428.7049865722655 L 125.6729965209961 430.30999755859364 L 126.1520004272461 431.78399658203114 L 126.29574584960938 432.5690002441405 L 126.34134674072266 432.8179931640624 L 126.3949966430664 433.1109924316405 L 126.4000015258789 434.27899169921864 L 126.16799926757812 435.2770080566405 L 125.6989974975586 436.0939941406249 L 124.9990005493164 436.7239990234374 L 124.0739974975586 437.16000366210926 L 122.93399810791016 437.397003173828 L 121.58899688720703 437.4339904785155 L 120.052001953125 437.2709960937499 L 118.33899688720703 436.907989501953 L 118.33399963378906 436.906524658203 L 118.10700225830078 436.83892822265614 L 116.46499633789062 436.3500061035155 L 114.68800354003906 435.69012451171864 L 114.447998046875 435.60101318359364 L 113.7738037109375 435.3073730468749 L 113.3904800415039 435.01632690429676 L 102.57008361816406 425.9840087890624 L 101.79499816894531 425.33700561523426 L 100.72599792480469 424.511993408203 L 99.58300018310547 423.75900268554676 L 98.37200164794922 423.084014892578 L 98.30400085449219 423.05218505859364 L 98.05770874023438 422.9370117187499 L 97.71097564697266 422.77484130859364 L 97.10199737548828 422.4899902343749 L 96.95502471923828 422.43341064453114 L 95.92208099365234 422.03570556640614 L 95.77999877929688 421.980987548828 L 95.71600341796875 421.9613342285155 L 95.71499633789062 421.96102905273426 L 94.51512908935547 421.59210205078114 L 94.41400146484375 421.56100463867176 L 93.70450592041016 421.39401245117176 L 93.01200103759766 421.230987548828 L 92.26044464111328 421.10617065429676 L 91.58499908447266 420.99398803710926 L 90.87799835205078 420.9240722656249 L 90.32572174072266 420.86947631835926 L 90.13899993896484 420.85101318359364 L 88.9568099975586 420.8120117187499 L 88.68399810791016 420.803009033203 L 88.63700103759766 420.8045654296874 L 88.63700103759766 420.8120117187499 L 88.63700103759766 420.8137207031249 L 88.58499908447266 420.8120117187499 L 87.12999725341797 420.8599853515624 L 85.87799835205078 420.98382568359364 L 85.68399810791016 421.00299072265614 L 84.25599670410156 421.2399902343749 L 83.5639877319336 421.40301513671864 L 82.8550033569336 421.57000732421864 L 82.75414276123047 421.6010742187499 L 81.91999816894531 421.8581542968749 L 81.5530014038086 421.97128295898426 L 81.48899841308594 421.990997314453 L 80.31390380859375 422.4425354003905 L 80.16699981689453 422.49899291992176 L 79.55695343017578 422.7843322753905 L 79.21129608154297 422.94601440429676 L 78.89700317382812 423.09298706054676 L 77.68599700927734 423.76800537109364 L 76.54299926757812 424.5209960937499 L 75.4739990234375 425.34600830078114 L 74.70970153808594 425.9840087890624 L 68.56400299072266 431.11410522460926 L 65.53600311279297 433.6417541503905 L 63.87713623046875 435.0264892578124 L 63.49593734741211 435.3159179687499 L 62.82099914550781 435.6099853515624 L 61.56550598144531 436.07623291015614 L 60.80400085449219 436.3590087890624 L 58.93000030517578 436.9169921874999 L 58.670772552490234 436.97189331054676 L 57.34400177001953 437.25289916992176 L 57.215999603271484 437.27999877929676 L 55.67900085449219 437.4440002441405 L 55.53900146484375 437.44015502929676 L 55.33000183105469 437.43438720703114 L 54.33399963378906 437.407012939453 L 53.194000244140625 437.16900634765614 L 52.27000045776367 436.73300170898426 L 51.56999969482422 436.10299682617176 L 51.10100173950195 435.2860107421874 L 50.86800003051758 434.2879943847655 L 50.87300109863281 433.1199951171874 L 51.117000579833984 431.792999267578 L 51.59600067138672 430.32000732421864 L 52.305999755859375 428.7139892578124 L 53.2400016784668 426.990997314453 L 53.87559127807617 425.9840087890624 L 54.38999938964844 425.16900634765614 L 55.74399948120117 423.26400756835926 L 57.28900146484375 421.29400634765614 L 59.0099983215332 419.27999877929676 L 60.89099884033203 417.2390136718749 L 62.91400146484375 415.1929931640624 L 63.73500061035156 414.41412353515614 L 65.01002502441406 413.20452880859364 L 65.43621826171875 412.6420898437499 L 65.53600311279297 412.51043701171864 L 65.6500015258789 412.3599853515624 L 66.28800201416016 411.334014892578 L 66.85399627685547 410.22198486328114 L 67.11002349853516 409.6000061035155 L 67.26972961425781 409.21200561523426 L 67.34300231933594 409.03399658203114 L 67.7490005493164 407.782989501953 L 68.06900024414062 406.4790039062499 L 68.30000305175781 405.1359863281249 L 68.44000244140625 403.7669982910155 L 68.48600006103516 402.38400268554676 L 68.44000244140625 401.001007080078 L 68.30000305175781 399.6319885253905 L 68.06900024414062 398.28900146484364 L 67.7490005493164 396.9849853515624 L 67.52778625488281 396.3033752441405 L 67.34300231933594 395.7340087890624 L 66.85399627685547 394.54598999023426 L 66.28800201416016 393.4339904785155 L 66.1524429321289 393.21600341796864 L 65.6500015258789 392.407989501953 L 65.53600311279297 392.25741577148426 L 65.07896423339844 391.65365600585926 L 64.94599914550781 391.47799682617176 L 64.9361572265625 391.46737670898426 L 64.68765258789062 391.199005126953 L 64.66767120361328 391.167999267578 L 64.65799713134766 391.15301513671864 L 64.40799713134766 390.87200927734364 L 64.1976318359375 390.6697998046874 L 64.16314697265625 390.63665771484364 L 63.73500061035156 390.225128173828 L 63.487998962402344 389.98773193359364 L 63.37799835205078 389.8819885253905 L 63.21784973144531 389.7511291503905 L 63.13467788696289 389.6722412109374 L 63.005008697509766 389.54928588867176 L 62.91400146484375 389.4630126953124 L 62.910980224609375 389.45993041992176 L 62.90856170654297 389.45748901367176 L 62.874114990234375 389.422637939453 L 62.77690505981445 389.32427978515614 L 62.68373107910156 389.230010986328 L 60.89099884033203 387.41598510742176 L 59.0099983215332 385.3749999999999 L 58.45800018310547 384.729034423828 L 57.28900146484375 383.36099243164057 L 55.74399948120117 381.39199829101557 L 54.38999938964844 379.48599243164057 L 53.2400016784668 377.6640014648437 L 52.78899002075195 376.8320007324218 L 52.558067321777344 376.40600585937494 L 52.305999755859375 375.9410095214843 L 51.59600067138672 374.3359985351562 L 51.117000579833984 372.8619995117187 L 50.87300109863281 371.5350036621093 L 50.86800003051758 370.3670043945312 L 51.10100173950195 369.3689880371093 L 51.56999969482422 368.55200195312494 L 52.27000045776367 367.92199707031244 L 53.194000244140625 367.48599243164057 L 54.33399963378906 367.2489929199218 L 55.25199890136719 367.22375488281244 L 55.507999420166016 367.21670532226557 L 55.67900085449219 367.2120056152343 L 57.215999603271484 367.37499999999994 L 57.34400177001953 367.40209960937494 L 58.90299987792969 367.7322692871093 L 58.93000030517578 367.7380065917968 L 60.80400085449219 368.29699707031244 L 61.72890853881836 368.64001464843744 L 62.43566131591797 368.90209960937494 L 65.53600311279297 371.2837524414062 L 72.20392608642578 376.40600585937494 L 72.75846862792969 376.8320007324218 L 74.4990005493164 378.16906738281244 L 75.96939849853516 379.29861450195307 L 77.29337310791016 380.31567382812494 L 81.28498077392578 383.38198852539057 L 81.5530014038086 383.58789062499994 L 81.91999816894531 383.8698120117187 L 83.42247009277344 385.02398681640614 L 85.2969970703125 386.4639892578124 L 85.85800170898438 386.83200073242176 L 85.87799835205078 386.8414306640624 L 86.01599884033203 386.9066162109374 L 86.48699951171875 387.12899780273426 L 87.16899871826172 387.345001220703 L 87.88700103759766 387.47799682617176 L 88.5679702758789 387.51876831054676 L 88.62200164794922 387.522003173828 L 88.63200378417969 387.5213928222655 L 88.63200378417969 387.51300048828114 L 88.63200378417969 387.51217651367176 L 88.64600372314453 387.51300048828114 L 88.70003509521484 387.5097656249999 L 89.0567855834961 387.4884338378905 L 89.38200378417969 387.4689941406249 L 90.0989990234375 387.33599853515614 L 90.11199951171875 387.33187866210926 L 90.78099822998047 387.11898803710926 L 90.87799835205078 387.0733642578124 L 91.41000366210938 386.8229980468749 L 91.97200012207031 386.4549865722655 L 93.8348159790039 385.02398681640614 L 95.71499633789062 383.5796508789062 L 95.71600341796875 383.57888793945307 L 95.98401641845703 383.3729858398437 L 96.32205200195312 383.11331176757807 L 96.96404266357422 382.62014770507807 L 97.61967468261719 382.11648559570307 L 98.3027114868164 381.59179687499994 L 98.30400085449219 381.59082031249994 L 102.7699966430664 378.16006469726557 L 104.49880981445312 376.8320007324218 L 105.06507873535156 376.39700317382807 L 114.68800354003906 369.00476074218744 L 114.83381652832031 368.89273071289057 L 115.51439666748047 368.64001464843744 L 116.46499633789062 368.28698730468744 L 118.33899688720703 367.72900390624994 L 118.36599731445312 367.72326660156244 L 120.052001953125 367.36599731445307 L 121.58899688720703 367.2019958496093 L 121.76100158691406 367.2068481445312 L 121.94400024414062 367.21203613281244 L 122.93399810791016 367.23999023437494 M 88.63700103759766 392.47637939453114 L 88.09500122070312 392.4899902343749 L 87.10800170898438 392.6140136718749 L 86.13899993896484 392.834991455078 L 85.87799835205078 392.9230041503905 L 85.19599914550781 393.15301513671864 L 85.0567855834961 393.21600341796864 L 84.29000091552734 393.5629882812499 L 83.64813232421875 393.93499755859364 L 83.42900085449219 394.0620117187499 L 83.13333892822266 394.27523803710926 L 85.87799835205078 397.027862548828 L 88.62971496582031 399.78756713867176 L 88.63200378417969 399.78985595703114 L 88.63200378417969 399.7852783203124 L 90.87799835205078 397.5325927734374 L 94.1351089477539 394.26583862304676 L 93.83999633789062 394.053009033203 L 93.63639831542969 393.93499755859364 L 92.97899627685547 393.553985595703 L 92.23127746582031 393.21600341796864 L 92.0719985961914 393.14401245117176 L 91.12999725341797 392.82598876953114 L 90.87799835205078 392.7683105468749 L 90.16000366210938 392.6040039062499 L 89.17400360107422 392.480010986328 L 88.82634735107422 392.47161865234364 L 88.63700103759766 392.4670410156249 L 88.63700103759766 392.47637939453114 M 90.35832214355469 416.63900756835926 L 90.87799835205078 416.1188049316405 L 91.03064727783203 415.96600341796864 L 91.67900085449219 415.31698608398426 L 91.1673583984375 415.31698608398426 L 90.87799835205078 415.31698608398426 L 85.87799835205078 415.31698608398426 L 85.67400360107422 415.31698608398426 L 85.87799835205078 415.5211486816405 L 86.9951171875 416.63900756835926 L 86.9010009765625 416.63900756835926 L 88.65399932861328 418.39498901367176 L 90.40699768066406 416.63900756835926 L 90.35832214355469 416.63900756835926 M 94.13858795166016 410.64166259765614 L 93.10000610351562 409.6000061035155 L 90.87799835205078 407.37139892578114 L 88.63868713378906 405.12542724609364 L 88.63700103759766 405.12374877929676 L 88.63700103759766 405.12713623046864 L 85.87799835205078 407.89413452148426 L 84.17707824707031 409.6000061035155 L 83.1298599243164 410.6502685546874 L 83.42900085449219 410.865997314453 L 84.29000091552734 411.3649902343749 L 85.19599914550781 411.77499389648426 L 85.87799835205078 412.00497436523426 L 86.13899993896484 412.09298706054676 L 87.10800170898438 412.31500244140614 L 88.09500122070312 412.438995361328 L 88.4426498413086 412.4473876953124 L 88.63200378417969 412.45196533203114 L 88.63200378417969 412.4426269531249 L 89.17400360107422 412.428985595703 L 90.16000366210938 412.30499267578114 L 90.87799835205078 412.14141845703114 L 91.12999725341797 412.084014892578 L 92.0719985961914 411.7659912109374 L 92.97899627685547 411.355987548828 L 93.83999633789062 410.85699462890614 L 94.13858795166016 410.64166259765614 M 118.5859603881836 375.17297363281244 L 118.78399658203125 375.37100219726557 L 118.83599853515625 375.42300415039057 L 118.94991302490234 375.48098754882807 L 119.38200378417969 375.7009887695312 L 119.98600006103516 375.79699707031244 L 120.59100341796875 375.7009887695312 L 121.02308654785156 375.48098754882807 L 121.13700103759766 375.42300415039057 L 121.26979064941406 375.2902221679687 L 121.56999969482422 374.98999023437494 L 121.63516998291016 374.8622436523437 L 121.76100158691406 374.6155700683593 L 121.8479995727539 374.4450073242187 L 121.94400024414062 373.83999633789057 L 121.8479995727539 373.23498535156244 L 121.76100158691406 373.06411743164057 L 121.59754180908203 372.74307250976557 L 121.59393310546875 372.73599243164057 L 121.56999969482422 372.68899536132807 L 121.13700103759766 372.25601196289057 L 120.78543853759766 372.0769958496093 L 120.59100341796875 371.9779968261718 L 119.98600006103516 371.88198852539057 L 119.38200378417969 371.9779968261718 L 119.18756103515625 372.0769958496093 L 118.83599853515625 372.25601196289057 L 118.81775665283203 372.2742309570312 L 118.40299987792969 372.68899536132807 L 118.37906646728516 372.73599243164057 L 118.36599731445312 372.7616577148437 L 118.125 373.23498535156244 L 118.02899932861328 373.83999633789057 L 118.125 374.4450073242187 L 118.36599731445312 374.9174499511718 L 118.40299987792969 374.98999023437494 L 118.5859603881836 375.17297363281244 M 102.7699966430664 390.21160888671864 L 103.66600036621094 390.3540039062499 L 104.59100341796875 390.20700073242176 L 105.42500305175781 389.7810058593749 L 106.08799743652344 389.11700439453114 L 106.49600219726562 388.3134765624999 L 106.51300048828125 388.27999877929676 L 106.66000366210938 387.35198974609364 L 106.51300048828125 386.42401123046864 L 106.49600219726562 386.3905334472655 L 106.08799743652344 385.58700561523426 L 105.52584838867188 385.02398681640614 L 105.42500305175781 384.9230041503905 L 104.59100341796875 384.4960021972655 L 103.66600036621094 384.3489990234374 L 102.7699966430664 384.49139404296864 L 102.74099731445312 384.4960021972655 L 101.90599822998047 384.9230041503905 L 101.80530548095703 385.02398681640614 L 101.24400329589844 385.58700561523426 L 100.81800079345703 386.42401123046864 L 100.6719970703125 387.35198974609364 L 100.81800079345703 388.27999877929676 L 101.24400329589844 389.11700439453114 L 101.90599822998047 389.7810058593749 L 102.74099731445312 390.20700073242176 L 102.7699966430664 390.21160888671864 M 99.86799621582031 393.92599487304676 L 100.08799743652344 393.70599365234364 L 100.2229995727539 393.57101440429676 L 100.40374755859375 393.21600341796864 L 100.5009994506836 393.02499389648426 L 100.59700012207031 392.42001342773426 L 100.5009994506836 391.81500244140614 L 100.2229995727539 391.26998901367176 L 100.08799743652344 391.1350097656249 L 99.8740005493164 390.92098999023426 L 99.79000091552734 390.83700561523426 L 99.24500274658203 390.5580139160155 L 98.63999938964844 390.4630126953124 L 98.03500366210938 390.5580139160155 L 97.48899841308594 390.83700561523426 L 97.40499877929688 390.92098999023426 L 97.18318939208984 391.1428222656249 L 97.09200286865234 391.2340087890624 L 97.05599975585938 391.26998901367176 L 96.77799987792969 391.81500244140614 L 96.68199920654297 392.42001342773426 L 96.77799987792969 393.02499389648426 L 96.87525177001953 393.21600341796864 L 97.05599975585938 393.57101440429676 L 97.09200286865234 393.60699462890614 L 97.41100311279297 393.92599487304676 L 97.48899841308594 394.00399780273426 L 98.03500366210938 394.282012939453 L 98.63999938964844 394.37799072265614 L 99.24500274658203 394.282012939453 L 99.79000091552734 394.00399780273426 L 99.86799621582031 393.92599487304676 M 103.70500183105469 401.00299072265614 L 105.0448989868164 401.00299072265614 L 106.66000366210938 401.00299072265614 L 107.947998046875 401.00299072265614 L 108.00299835205078 401.00299072265614 L 108.00299835205078 399.49798583984364 L 107.947998046875 399.49798583984364 L 106.66000366210938 399.49798583984364 L 106.54564666748047 399.49798583984364 L 103.70500183105469 399.49798583984364 L 103.24800109863281 399.49798583984364 L 103.24800109863281 401.00299072265614 L 103.70500183105469 401.00299072265614 M 98.2040023803711 404.4370117187499 L 98.30400085449219 403.7752685546874 L 98.35299682617188 403.45098876953114 L 98.4020004272461 402.4549865722655 L 98.35299682617188 401.459014892578 L 98.30400085449219 401.13473510742176 L 98.2040023803711 400.47299194335926 L 97.95899963378906 399.5069885253905 L 97.61900329589844 398.57000732421864 L 97.18800354003906 397.67098999023426 L 97.09200286865234 397.5135803222655 L 97.08200073242188 397.4971923828124 L 96.66899871826172 396.82000732421864 L 96.60658264160156 396.7373046874999 L 95.71600341796875 397.63046264648426 L 95.71499633789062 397.6314697265624 L 90.90841674804688 402.45199584960926 L 91.10640716552734 402.65057373046864 L 95.71499633789062 407.27252197265614 L 95.71600341796875 407.27352905273426 L 96.60911560058594 408.16925048828114 L 96.66899871826172 408.0899963378905 L 97.08200073242188 407.41281127929676 L 97.09200286865234 407.39642333984364 L 97.18800354003906 407.2390136718749 L 97.61900329589844 406.3399963378905 L 97.95899963378906 405.40301513671864 L 98.2040023803711 404.4370117187499 M 100.81800079345703 416.3819885253905 L 100.6719970703125 417.30999755859364 L 100.74043273925781 417.7449951171874 L 100.74783325195312 417.7919921874999 L 100.81800079345703 418.23800659179676 L 101.24400329589844 419.07501220703114 L 101.90599822998047 419.7390136718749 L 102.74099731445312 420.16500854492176 L 102.7699966430664 420.16961669921864 L 103.66600036621094 420.3120117187499 L 104.59100341796875 420.16500854492176 L 105.42500305175781 419.7390136718749 L 106.08799743652344 419.07501220703114 L 106.51300048828125 418.23800659179676 L 106.58364868164062 417.7919921874999 L 106.66000366210938 417.30999755859364 L 106.51300048828125 416.3819885253905 L 106.08799743652344 415.54501342773426 L 105.42500305175781 414.8810119628905 L 104.59100341796875 414.4540100097655 L 103.66600036621094 414.3070068359374 L 103.49420166015625 414.33428955078114 L 102.7699966430664 414.44940185546864 L 102.74099731445312 414.4540100097655 L 101.90599822998047 414.8810119628905 L 101.24400329589844 415.54501342773426 L 100.81800079345703 416.3819885253905 M 99.9057388305664 413.7659912109374 L 99.97557067871094 413.69601440429676 L 100.0770034790039 413.59432983398426 L 100.2239990234375 413.44699096679676 L 100.50199890136719 412.9020080566405 L 100.5979995727539 412.2969970703124 L 100.50199890136719 411.69198608398426 L 100.2239990234375 411.1459960937499 L 100.0770034790039 410.99899291992176 L 99.84100341796875 410.76300048828114 L 99.79100036621094 410.7130126953124 L 99.24500274658203 410.43499755859364 L 98.63999938964844 410.3389892578124 L 98.30400085449219 410.39230346679676 L 98.03500366210938 410.43499755859364 L 97.48999786376953 410.7130126953124 L 97.43988800048828 410.76300048828114 L 97.22553253173828 410.97686767578114 L 97.09200286865234 411.11007690429676 L 97.08200073242188 411.12005615234364 L 97.05599975585938 411.1459960937499 L 96.77799987792969 411.69198608398426 L 96.68299865722656 412.2969970703124 L 96.77799987792969 412.9020080566405 L 97.05599975585938 413.44699096679676 L 97.08200073242188 413.47299194335926 L 97.09200286865234 413.48300170898426 L 97.30500030517578 413.69601440429676 L 97.375 413.7659912109374 L 97.48999786376953 413.8810119628905 L 98.03500366210938 414.15899658203114 L 98.30400085449219 414.20123291015614 L 98.63999938964844 414.25399780273426 L 99.24500274658203 414.15899658203114 L 99.79100036621094 413.8810119628905 L 99.9057388305664 413.7659912109374 M 121.70477294921875 431.89950561523426 L 121.72899627685547 431.8519287109374 L 121.9260025024414 431.4649963378905 L 122.02200317382812 430.8599853515624 L 121.9260025024414 430.2550048828124 L 121.83689880371094 430.0799865722655 L 121.72899627685547 429.8680725097655 L 121.64800262451172 429.709014892578 L 121.21499633789062 429.2760009765624 L 121.06756591796875 429.2009277343749 L 120.99502563476562 429.16400146484364 L 120.66899871826172 428.99798583984364 L 120.06400299072266 428.90301513671864 L 119.45899963378906 428.99798583984364 L 119.1335678100586 429.16400146484364 L 118.91400146484375 429.2760009765624 L 118.83708953857422 429.3529052734374 L 118.48100280761719 429.709014892578 L 118.43766784667969 429.7940979003905 L 118.33399963378906 429.9977111816405 L 118.29209899902344 430.0799865722655 L 118.2030029296875 430.2550048828124 L 118.10700225830078 430.8599853515624 L 118.2030029296875 431.4649963378905 L 118.33399963378906 431.7222900390624 L 118.48100280761719 432.0109863281249 L 118.52079772949219 432.050811767578 L 118.91400146484375 432.4440002441405 L 118.96289825439453 432.46893310546864 L 119.1590576171875 432.5690002441405 L 119.45899963378906 432.72198486328114 L 120.06400299072266 432.8179931640624 L 120.66899871826172 432.72198486328114 L 120.96949768066406 432.5690002441405 L 121.21499633789062 432.4440002441405 L 121.28912353515625 432.3698730468749 L 121.64800262451172 432.0109863281249 L 121.70477294921875 431.89950561523426 M 70.60900115966797 399.49798583984364 L 69.32099914550781 399.49798583984364 L 69.24800109863281 399.49798583984364 L 69.24800109863281 401.00299072265614 L 69.32099914550781 401.00299072265614 L 70.60900115966797 401.00299072265614 L 72.21412658691406 401.00299072265614 L 73.56300354003906 401.00299072265614 L 74.00299835205078 401.00299072265614 L 74.00299835205078 399.49798583984364 L 73.56300354003906 399.49798583984364 L 70.71337890625 399.49798583984364 L 70.60900115966797 399.49798583984364 M 58.70889663696289 375.01809692382807 L 58.79399871826172 374.93301391601557 L 58.90299987792969 374.7189331054687 L 59.071998596191406 374.38699340820307 L 59.16699981689453 373.78298950195307 L 59.071998596191406 373.17800903320307 L 58.90299987792969 372.84606933593744 L 58.84695053100586 372.73599243164057 L 58.79399871826172 372.63198852539057 L 58.4438591003418 372.28186035156244 L 58.361000061035156 372.19900512695307 L 58.13906478881836 372.0859985351562 L 57.814998626708984 371.9209899902343 L 57.34400177001953 371.8462524414062 L 57.209999084472656 371.8250122070312 L 56.60499954223633 371.9209899902343 L 56.28093338012695 372.0859985351562 L 56.058998107910156 372.19900512695307 L 55.625999450683594 372.63198852539057 L 55.57304763793945 372.73599243164057 L 55.507999420166016 372.86376953124994 L 55.347999572753906 373.17800903320307 L 55.25199890136719 373.78298950195307 L 55.347999572753906 374.38699340820307 L 55.507999420166016 374.7012329101562 L 55.58153533935547 374.8456726074218 L 55.625999450683594 374.93301391601557 L 55.99065017700195 375.29763793945307 L 56.058998107910156 375.36599731445307 L 56.30253982543945 375.48999023437494 L 56.60499954223633 375.6440124511718 L 57.209999084472656 375.73999023437494 L 57.34400177001953 375.71874999999994 L 57.814998626708984 375.6440124511718 L 58.117462158203125 375.48999023437494 L 58.26021194458008 375.4173278808593 L 58.361000061035156 375.36599731445307 L 58.70889663696289 375.01809692382807 M 76.44999694824219 386.4330139160155 L 76.0250015258789 385.59600830078114 L 75.45471954345703 385.02398681640614 L 75.36299896240234 384.9320068359374 L 74.52799987792969 384.5050048828124 L 74.4990005493164 384.50042724609364 L 73.60299682617188 384.3590087890624 L 72.6780014038086 384.5050048828124 L 71.84300231933594 384.9320068359374 L 71.75127410888672 385.02398681640614 L 71.18099975585938 385.59600830078114 L 70.75599670410156 386.4330139160155 L 70.60900115966797 387.3609924316405 L 70.75599670410156 388.28900146484364 L 71.18099975585938 389.126007080078 L 71.84300231933594 389.79000854492176 L 72.6780014038086 390.21701049804676 L 73.60299682617188 390.3640136718749 L 73.72799682617188 390.3441467285155 L 74.4990005493164 390.22161865234364 L 74.52799987792969 390.21701049804676 L 75.36299896240234 389.79000854492176 L 76.0250015258789 389.126007080078 L 76.44999694824219 388.28900146484364 L 76.59700012207031 387.3609924316405 L 76.44999694824219 386.4330139160155 M 77.23895263671875 393.70794677734364 L 77.46600341796875 393.93499755859364 L 77.55999755859375 394.02899169921864 L 78.10600280761719 394.3070068359374 L 78.71099853515625 394.40301513671864 L 79.31600189208984 394.3070068359374 L 79.86100006103516 394.02899169921864 L 79.95500183105469 393.93499755859364 L 80.177001953125 393.7130126953124 L 80.29399871826172 393.59600830078114 L 80.48783111572266 393.21600341796864 L 80.5719985961914 393.05099487304676 L 80.66799926757812 392.44601440429676 L 80.5719985961914 391.84100341796864 L 80.29399871826172 391.29501342773426 L 80.177001953125 391.178009033203 L 80.16678619384766 391.16778564453114 L 79.92900085449219 390.92999267578114 L 79.86100006103516 390.86199951171864 L 79.31600189208984 390.584014892578 L 78.71099853515625 390.48800659179676 L 78.10600280761719 390.584014892578 L 77.55999755859375 390.86199951171864 L 77.49199676513672 390.92999267578114 L 77.40540313720703 391.0166015624999 L 77.18000030517578 391.24200439453114 L 77.12699890136719 391.29501342773426 L 76.8489990234375 391.84100341796864 L 76.75299835205078 392.44601440429676 L 76.8489990234375 393.05099487304676 L 76.93316650390625 393.21600341796864 L 77.12699890136719 393.59600830078114 L 77.18000030517578 393.64898681640614 L 77.23895263671875 393.70794677734364 M 78.91600036621094 401.46798706054676 L 78.86599731445312 402.4639892578124 L 78.91600036621094 403.459991455078 L 79.06400299072266 404.44601440429676 L 79.30999755859375 405.4119873046874 L 79.6500015258789 406.3489990234374 L 80.08100128173828 407.24798583984364 L 80.18699645996094 407.42181396484364 L 80.5999984741211 408.0989990234374 L 80.65940856933594 408.17770385742176 L 81.5530014038086 407.281524658203 L 85.87799835205078 402.9439697265624 L 86.35958099365234 402.46099853515614 L 85.87799835205078 401.9780273437499 L 81.5530014038086 397.64047241210926 L 80.66203308105469 396.74691772460926 L 80.5999984741211 396.8290100097655 L 80.18699645996094 397.50619506835926 L 80.08100128173828 397.67999267578114 L 79.6500015258789 398.5790100097655 L 79.30999755859375 399.5159912109374 L 79.06400299072266 400.48199462890614 L 78.92500305175781 401.407989501953 L 78.91600036621094 401.46798706054676 M 79.99199676513672 413.77499389648426 L 80.07099914550781 413.69601440429676 L 80.18699645996094 413.5799865722655 L 80.29399871826172 413.47299194335926 L 80.5719985961914 412.9270019531249 L 80.66799926757812 412.32199096679676 L 80.5719985961914 411.71701049804676 L 80.29399871826172 411.1719970703124 L 80.18699645996094 411.06500244140614 L 80.11955261230469 410.9975585937499 L 79.89399719238281 410.772003173828 L 79.86100006103516 410.7390136718749 L 79.31600189208984 410.46099853515614 L 78.71099853515625 410.3649902343749 L 78.10600280761719 410.46099853515614 L 77.8239974975586 410.60458374023426 L 77.55999755859375 410.7390136718749 L 77.5270004272461 410.772003173828 L 77.4096908569336 410.8893127441405 L 77.19200134277344 411.10699462890614 L 77.18000030517578 411.11898803710926 L 77.12699890136719 411.1719970703124 L 76.8489990234375 411.71701049804676 L 76.75299835205078 412.32199096679676 L 76.8489990234375 412.9270019531249 L 77.12699890136719 413.47299194335926 L 77.18000030517578 413.5260009765624 L 77.19200134277344 413.5379943847655 L 77.3499984741211 413.69601440429676 L 77.42900085449219 413.77499389648426 L 77.55999755859375 413.9060058593749 L 78.10600280761719 414.1839904785155 L 78.71099853515625 414.27999877929676 L 79.31600189208984 414.1839904785155 L 79.86100006103516 413.9060058593749 L 79.99199676513672 413.77499389648426 M 76.52804565429688 417.7542724609374 L 76.59700012207031 417.3190002441405 L 76.46599578857422 416.49200439453114 L 76.44999694824219 416.3909912109374 L 76.0250015258789 415.553985595703 L 75.36299896240234 414.8900146484374 L 74.52799987792969 414.4639892578124 L 74.4990005493164 414.4593811035155 L 73.77436828613281 414.3442382812499 L 73.60299682617188 414.31698608398426 L 72.6780014038086 414.4639892578124 L 71.84300231933594 414.8900146484374 L 71.18099975585938 415.553985595703 L 70.75599670410156 416.3909912109374 L 70.73999786376953 416.49200439453114 L 70.60900115966797 417.3190002441405 L 70.68392944335938 417.7919921874999 L 70.75599670410156 418.24700927734364 L 71.18099975585938 419.084014892578 L 71.84300231933594 419.74798583984364 L 72.6780014038086 420.17498779296864 L 73.60299682617188 420.32199096679676 L 74.4990005493164 420.1795959472655 L 74.52799987792969 420.17498779296864 L 75.36299896240234 419.74798583984364 L 76.0250015258789 419.084014892578 L 76.44999694824219 418.24700927734364 L 76.5220718383789 417.7919921874999 L 76.52804565429688 417.7542724609374 M 58.4379997253418 432.386993408203 L 58.74515151977539 432.079132080078 L 58.87099838256836 431.9530029296874 L 58.935001373291016 431.8275451660155 L 59.14899826049805 431.407989501953 L 59.244998931884766 430.803009033203 L 59.14899826049805 430.1979980468749 L 59.08892059326172 430.0799865722655 L 58.935001373291016 429.7777099609374 L 58.87099838256836 429.6520080566405 L 58.61199951171875 429.39300537109364 L 58.4379997253418 429.2189941406249 L 58.34782028198242 429.1730041503905 L 57.893001556396484 428.94100952148426 L 57.34400177001953 428.8538818359374 L 57.28799819946289 428.845001220703 L 56.68299865722656 428.94100952148426 L 56.22734451293945 429.1730041503905 L 56.21632766723633 429.1786193847655 L 56.137001037597656 429.2189941406249 L 55.70399856567383 429.6520080566405 L 55.53900146484375 429.9760742187499 L 55.486080169677734 430.0799865722655 L 55.42599868774414 430.1979980468749 L 55.33000183105469 430.803009033203 L 55.42599868774414 431.407989501953 L 55.53900146484375 431.6295166015624 L 55.70399856567383 431.9530029296874 L 55.7575569152832 432.00668334960926 L 56.137001037597656 432.386993408203 L 56.182823181152344 432.41033935546864 L 56.514095306396484 432.5790100097655 L 56.68299865722656 432.66500854492176 L 57.28799819946289 432.7600097656249 L 57.34400177001953 432.7512207031249 L 57.893001556396484 432.66500854492176 L 58.02561950683594 432.59735107421864 L 58.06159591674805 432.5790100097655 L 58.31932830810547 432.447540283203 L 58.4379997253418 432.386993408203 M 106.66000366210938 403.49798583984364 L 103.70500183105469 403.49798583984364 L 103.24800109863281 403.49798583984364 L 103.24800109863281 405.00299072265614 L 103.70500183105469 405.00299072265614 L 106.66000366210938 405.00299072265614 L 107.947998046875 405.00299072265614 L 108.00299835205078 405.00299072265614 L 108.00299835205078 403.49798583984364 L 107.947998046875 403.49798583984364 L 106.66000366210938 403.49798583984364 M 73.56300354003906 405.00299072265614 L 74.00299835205078 405.00299072265614 L 74.00299835205078 403.49798583984364 L 73.56300354003906 403.49798583984364 L 70.60900115966797 403.49798583984364 L 69.32099914550781 403.49798583984364 L 69.24800109863281 403.49798583984364 L 69.24800109863281 405.00299072265614 L 69.32099914550781 405.00299072265614 L 70.60900115966797 405.00299072265614 L 73.56300354003906 405.00299072265614 z" fill="#A9A9A9" stroke="rgb(255,0,0)" stroke-width="0.001mm" />
</svg>