<?xml version="1.0" encoding="utf-8"?>
<!-- Generator: Adobe Illustrator 24.1.0, SVG Export Plug-In . SVG Version: 6.00 Build 0)  -->
<svg version="1.1" id="Layer_1" xmlns="http://www.w3.org/2000/svg" xmlns:xlink="http://www.w3.org/1999/xlink" x="0px" y="0px"
	 viewBox="0 0 219.8 204.8" style="enable-background:new 0 0 219.8 204.8;" xml:space="preserve">
<style type="text/css">
	.st0{fill:#4D4D4D;stroke:#FF0000;stroke-width:8.035216e-03;stroke-miterlimit:11.3386;}
</style>
<desc>yellowjacket</desc>
<path class="st0" d="M207.1,2.9l3.2,0.7l2.6,1.2l2,1.8l1.3,2.3l0.7,2.8l0,3.3l-0.7,3.8l-1.4,4.2l-1.4,3.3l-0.4,0.9l-0.2,0.4
	l-0.7,1.3l-0.7,1.2l-1.3,2.3l-3.3,5.2l-3.8,5.4l-4.4,5.6l-4.9,5.7l-5.3,5.8l-4.8,4.8l-0.3,0.3l-0.5,0.5l-0.1,0.1l0,0l-0.3,0.2
	l-0.4,0.3l-0.2,0.2l-0.4,0.4l-1,1l-1.2,1.1l-0.2,0.2l-0.6,0.5l-0.7,0.8l0,0.1l0,0l-0.7,0.8l0,0l0,0l-0.4,0.5l-1.6,2.1l-1.4,2.3
	l-0.4,0.6l-1.6,3.2l-1.4,3.4l-0.5,1.6l-0.6,1.9l-0.9,3.7l-0.7,3.8l-0.4,3.9l-0.1,3.9l0.1,3.9l0.4,3.9l0.7,3.8l0.9,3.7l1.2,3.5
	l0.2,0.5l0.5,1.1l0.5,1.1l0.3,0.6l1.6,3.2l0.3,0.4l1.5,2.5l0.6,0.8l1.2,1.6l3.6,3.4l2.3,2.2l5.7,5.8l5.3,5.8l4.9,5.7l3.7,4.7
	l0.7,0.9l3.8,5.4l1.5,2.3l1.8,2.8l2.7,4.9l2,4.5l1.4,4.2l0.4,2.2l0.1,0.7l0.2,0.8l0,3.3l-0.7,2.8l-1.3,2.3l-2,1.8l-2.6,1.2l-3.2,0.7
	l-3.8,0.1l-4.4-0.5l-4.9-1l0,0l-0.6-0.2l-4.7-1.4l-5-1.9l-0.7-0.3l-1.9-0.8l-1.1-0.8l-30.7-25.6l-2.2-1.8l-3-2.3l-3.2-2.1l-3.4-1.9
	l-0.2-0.1l-0.7-0.3l-1-0.5l-1.7-0.8l-0.4-0.2l-2.9-1.1l-0.4-0.2l-0.2-0.1l0,0l-3.4-1l-0.3-0.1l-2-0.5l-2-0.5l-2.1-0.4l-1.9-0.3
	l-2-0.2l-1.6-0.2l-0.5-0.1l-3.4-0.1l-0.8,0l-0.1,0v0v0l-0.1,0l-4.1,0.1l-3.5,0.4l-0.5,0.1l-4,0.7l-2,0.5l-2,0.5l-0.3,0.1l-2.4,0.7
	l-1,0.3l-0.2,0.1l-3.3,1.3l-0.4,0.2l-1.7,0.8l-1,0.5l-0.9,0.4l-3.4,1.9l-3.2,2.1l-3,2.3l-2.2,1.8L53,184l-8.6,7.2l-4.7,3.9l-1.1,0.8
	l-1.9,0.8l-3.6,1.3l-2.2,0.8l-5.3,1.6l-0.7,0.2l-3.8,0.8l-0.4,0.1l-4.4,0.5l-0.4,0l-0.6,0l-2.8-0.1l-3.2-0.7l-2.6-1.2l-2-1.8
	l-1.3-2.3L2.8,193l0-3.3l0.7-3.8l1.4-4.2l2-4.6l2.6-4.9l1.8-2.9l1.5-2.3l3.8-5.4l4.4-5.6l4.9-5.7l5.3-5.8l5.7-5.8l2.3-2.2l3.6-3.4
	l1.2-1.6l0.3-0.4l0.3-0.4l1.8-2.9l1.6-3.2l0.7-1.8l0.5-1.1l0.2-0.5l1.2-3.5l0.9-3.7l0.7-3.8l0.4-3.9l0.1-3.9l-0.1-3.9l-0.4-3.9
	L51.6,91l-0.9-3.7l-0.6-1.9l-0.5-1.6l-1.4-3.4l-1.6-3.2l-0.4-0.6l-1.4-2.3l-0.3-0.4l-1.3-1.7l-0.4-0.5l0,0L42,70.9L42,70.8l0,0
	l-0.7-0.8l-0.6-0.6l-0.1-0.1l-1.2-1.2l-0.7-0.7l-0.3-0.3l-0.5-0.4l-0.2-0.2l-0.4-0.3L37,65.9l0,0l0,0l-0.1-0.1l-0.3-0.3l-0.3-0.3
	l-5.1-5.1l-5.3-5.8l-1.6-1.8L21,48.6l-4.4-5.6l-3.8-5.4l-3.3-5.2l-1.3-2.4l-0.7-1.2l-0.7-1.3l-2-4.5l-1.4-4.2l-0.7-3.8l0-3.3L3.5,9
	l1.3-2.3l2-1.8l2.6-1.2L12.7,3l2.6-0.1l0.7,0l0.5,0l4.4,0.5l0.4,0.1l4.4,0.9l0.1,0L31,5.9l2.6,1l2,0.7l8.8,6.8l18.9,14.5l1.6,1.2
	l4.9,3.8l4.2,3.2l3.8,2.9l11.3,8.7l0.8,0.6l1,0.8l4.3,3.3l5.3,4.1l1.6,1l0.1,0l0.4,0.2l1.3,0.6l1.9,0.6l2,0.4l1.9,0.1l0.2,0l0,0v0v0
	l0,0l0.2,0l1-0.1l0.9-0.1l2-0.4l0,0l1.9-0.6l0.3-0.1l1.5-0.7l1.6-1l5.3-4.1l5.3-4.1l0,0l0.8-0.6l1-0.7l1.8-1.4l1.9-1.4l1.9-1.5l0,0
	l12.7-9.7l4.9-3.8l1.6-1.2l27.3-21l0.4-0.3l1.9-0.7l2.7-1l5.3-1.6l0.1,0l4.8-1l4.4-0.5l0.5,0l0.5,0L207.1,2.9 M109.9,74.5l-1.5,0
	l-2.8,0.4l-2.7,0.6l-0.7,0.2l-1.9,0.7l-0.4,0.2l-2.2,1l-1.8,1.1L95.1,79l-0.8,0.6l7.8,7.8l7.8,7.8l0,0v0l6.4-6.4l9.2-9.3l-0.8-0.6
	l-0.6-0.3l-1.9-1.1l-2.1-1l-0.5-0.2l-2.7-0.9l-0.7-0.2l-2-0.5l-2.8-0.4l-1,0L109.9,74.5L109.9,74.5 M114.8,143l1.5-1.5l0.4-0.4
	l1.8-1.8h-1.5h-0.8h-14.2h-0.6l0.6,0.6l3.2,3.2H105l5,5l5-5H114.8 M125.5,126l-2.9-3l-6.3-6.3l-6.3-6.4l0,0v0l-7.8,7.8l-4.8,4.8
	l-3,3l0.8,0.6l2.4,1.4l2.6,1.2l1.9,0.7l0.7,0.2l2.7,0.6l2.8,0.4l1,0l0.5,0v0l1.5,0l2.8-0.4l2-0.5l0.7-0.2l2.7-0.9l2.6-1.2l2.4-1.4
	L125.5,126 M194.8,25.4l0.6,0.6l0.1,0.1l0.3,0.2l1.2,0.6l1.7,0.3l1.7-0.3l1.2-0.6l0.3-0.2l0.4-0.4l0.9-0.9l0.2-0.4l0.4-0.7l0.2-0.5
	l0.3-1.7l-0.3-1.7l-0.2-0.5l-0.5-0.9l0,0l-0.1-0.1l-1.2-1.2l-1-0.5l-0.6-0.3l-1.7-0.3l-1.7,0.3l-0.6,0.3l-1,0.5l-0.1,0.1l-1.2,1.2
	l-0.1,0.1l0,0.1l-0.7,1.3l-0.3,1.7l0.3,1.7l0.7,1.3l0.1,0.2L194.8,25.4 M150,68.1l2.5,0.4l2.6-0.4l2.4-1.2l1.9-1.9l1.2-2.3l0-0.1
	L161,60l-0.4-2.6l0-0.1l-1.2-2.3l-1.6-1.6l-0.3-0.3l-2.4-1.2l-2.6-0.4l-2.5,0.4l-0.1,0l-2.4,1.2l-0.3,0.3l-1.6,1.6l-1.2,2.4L144,60
	l0.4,2.6l1.2,2.4l1.9,1.9L150,68.1L150,68.1 M141.7,78.6l0.6-0.6l0.4-0.4l0.5-1l0.3-0.5l0.3-1.7l-0.3-1.7l-0.8-1.5l-0.4-0.4
	l-0.6-0.6l-0.2-0.2L140,69l-1.7-0.3l-1.7,0.3l-1.5,0.8l-0.2,0.2l-0.6,0.6l-0.3,0.3l-0.1,0.1l-0.8,1.5l-0.3,1.7L133,76l0.3,0.5l0.5,1
	l0.1,0.1l0.9,0.9l0.2,0.2l1.5,0.8l1.7,0.3l1.7-0.3l1.5-0.8L141.7,78.6 M152.6,98.6h3.8h4.6h3.7h0.2v-4.3h-0.2H161h-0.3h-8.1h-1.3
	v4.3H152.6 M137,108.4l0.3-1.9l0.1-0.9l0.1-2.8l-0.1-2.8l-0.1-0.9l-0.3-1.9l-0.7-2.7l-1-2.7l-1.2-2.5l-0.3-0.4l0,0l-1.2-1.9
	l-0.2-0.2l-2.5,2.5l0,0l-13.6,13.7l0.6,0.6l13.1,13.1l0,0l2.5,2.5l0.2-0.2l1.2-1.9l0,0l0.3-0.4l1.2-2.5l1-2.7L137,108.4
	 M144.4,142.2l-0.4,2.6l0.2,1.2l0,0.1l0.2,1.3l1.2,2.4l1.9,1.9l2.4,1.2l0.1,0l2.5,0.4l2.6-0.4l2.4-1.2l1.9-1.9l1.2-2.4l0.2-1.3
	l0.2-1.4l-0.4-2.6l-1.2-2.4l-1.9-1.9l-2.4-1.2l-2.6-0.4l-0.5,0.1l-2.1,0.3l-0.1,0l-2.4,1.2l-1.9,1.9L144.4,142.2 M141.8,134.8
	l0.2-0.2l0.3-0.3l0.4-0.4l0.8-1.5l0.3-1.7l-0.3-1.7l-0.8-1.5l-0.4-0.4l-0.7-0.7l-0.1-0.1l-1.5-0.8l-1.7-0.3l-1,0.2l-0.8,0.1
	l-1.5,0.8l-0.1,0.1l-0.6,0.6l-0.4,0.4l0,0l-0.1,0.1l-0.8,1.5l-0.3,1.7l0.3,1.7l0.8,1.5l0.1,0.1l0,0l0.6,0.6l0.2,0.2l0.3,0.3l1.5,0.8
	l0.8,0.1l1,0.1l1.7-0.3l1.5-0.8L141.8,134.8 M203.6,186.2l0.1-0.1l0.6-1.1l0.3-1.7l-0.3-1.7l-0.3-0.5l-0.3-0.6l-0.2-0.5l-1.2-1.2
	l-0.4-0.2l-0.2-0.1l-0.9-0.5l-1.7-0.3l-1.7,0.3l-0.9,0.5l-0.6,0.3l-0.2,0.2l-1,1l-0.1,0.2l-0.3,0.6l-0.1,0.2l-0.3,0.5l-0.3,1.7
	l0.3,1.7l0.4,0.7l0.4,0.8l0.1,0.1l1.1,1.1l0.1,0.1l0.6,0.3l0.9,0.4l1.7,0.3l1.7-0.3l0.9-0.4l0.7-0.4l0.2-0.2l1-1L203.6,186.2
	 M58.8,94.4h-3.7h-0.2v4.3h0.2h3.7h4.5h3.8h1.2v-4.3h-1.2h-8.1H58.8 M25.1,25l0.2-0.2l0.3-0.6l0.5-0.9l0.3-1.7l-0.3-1.7l-0.5-0.9
	l-0.2-0.3l-0.2-0.3l-1-1L24.1,17l-0.6-0.3l-0.9-0.5L21.2,16l-0.4-0.1l-1.7,0.3l-0.9,0.5L17.5,17l-1.2,1.2l-0.2,0.3L16,18.9l-0.5,0.9
	l-0.3,1.7l0.3,1.7l0.5,0.9l0.2,0.4l0.1,0.2l1,1l0.2,0.2l0.7,0.4l0.9,0.4l1.7,0.3l0.4-0.1l1.3-0.2l0.9-0.4l0.4-0.2l0.3-0.1L25.1,25
	 M75.4,57.3L74.1,55l-1.6-1.6l-0.3-0.3l-2.4-1.2l-0.1,0l-2.5-0.4l-2.6,0.4l-2.4,1.2L62,53.4L60.4,55l-1.2,2.4L58.8,60l0.4,2.6
	l1.2,2.4l1.9,1.9l2.4,1.2l2.6,0.4l0.4-0.1l2.2-0.3l0.1,0l2.4-1.2l1.9-1.9l1.2-2.4l0.4-2.6L75.4,57.3 M77.6,78l0.6,0.6l0.3,0.3
	l1.5,0.8l1.7,0.3l1.7-0.3l1.5-0.8l0.3-0.3l0.6-0.6l0.3-0.3l0.5-1.1l0.2-0.5l0.3-1.7L87,72.7l-0.8-1.5l-0.3-0.3l0,0l-0.7-0.7L85,69.9
	l-1.5-0.8l-1.7-0.3L80,69.1l-1.5,0.8l-0.2,0.2l-0.2,0.2L77.4,71l-0.2,0.2l-0.8,1.5l-0.3,1.7l0.3,1.7l0.2,0.5l0.5,1.1l0.2,0.2
	L77.6,78 M82.3,100l-0.1,2.8l0.1,2.8l0.4,2.8l0.7,2.7l1,2.7l1.2,2.5l0.3,0.5l1.2,1.9l0.2,0.2l2.5-2.5l12.3-12.3l1.4-1.4l-1.4-1.4
	L89.8,89.1l-2.5-2.5l-0.2,0.2l-1.2,1.9l-0.3,0.5l-1.2,2.5l-1,2.7l-0.7,2.7l-0.4,2.6L82.3,100 M85.4,134.9l0.2-0.2l0.3-0.3l0.3-0.3
	l0.8-1.5l0.3-1.7L87,129l-0.8-1.5l-0.3-0.3l-0.2-0.2l-0.6-0.6l-0.1-0.1l-1.5-0.8l-1.7-0.3l-1.7,0.3l-0.8,0.4l-0.7,0.4l-0.1,0.1
	l-0.3,0.3l-0.6,0.6l0,0l-0.2,0.2l-0.8,1.5l-0.3,1.7l0.3,1.7l0.8,1.5l0.2,0.2l0,0l0.4,0.4l0.2,0.2l0.4,0.4L80,136l1.7,0.3l1.7-0.3
	l1.5-0.8L85.4,134.9 M75.6,146.1l0.2-1.2l-0.4-2.3l0-0.3l-1.2-2.4l-1.9-1.9l-2.4-1.2l-0.1,0l-2.1-0.3l-0.5-0.1l-2.6,0.4l-2.4,1.2
	l-1.9,1.9l-1.2,2.4l0,0.3l-0.4,2.3l0.2,1.3l0.2,1.3l1.2,2.4l1.9,1.9l2.4,1.2l2.6,0.4l2.5-0.4l0.1,0l2.4-1.2l1.9-1.9l1.2-2.4l0.2-1.3
	L75.6,146.1 M24.3,187.6l0.9-0.9l0.4-0.4l0.2-0.4l0.6-1.2l0.3-1.7l-0.3-1.7l-0.2-0.3l-0.4-0.9l-0.2-0.4l-0.7-0.7l-0.5-0.5l-0.3-0.1
	l-1.3-0.7l-1.6-0.2l-0.2,0l-1.7,0.3l-1.3,0.7l0,0l-0.2,0.1l-1.2,1.2l-0.5,0.9l-0.2,0.3l-0.2,0.3l-0.3,1.7l0.3,1.7l0.3,0.6l0.5,0.9
	l0.2,0.2l1.1,1.1l0.1,0.1l0.9,0.5l0.5,0.2l1.7,0.3l0.2,0l1.6-0.2l0.4-0.2l0.1-0.1l0.7-0.4L24.3,187.6 M161,105.7h-8.4h-1.3v4.3h1.3
	h8.4h3.7h0.2v-4.3h-0.2H161 M67.2,110h1.2v-4.3h-1.2h-8.4h-3.7h-0.2v4.3h0.2h3.7H67.2z"/>
</svg>
