<?xml version="1.0" encoding="utf-8"?>
<!-- Generator: Adobe Illustrator 24.1.0, SVG Export Plug-In . SVG Version: 6.00 Build 0)  -->
<svg version="1.1" id="Layer_1" xmlns="http://www.w3.org/2000/svg" xmlns:xlink="http://www.w3.org/1999/xlink" x="0px" y="0px"
	 viewBox="0 0 90 103" style="enable-background:new 0 0 90 103;" xml:space="preserve">
<style type="text/css">
	.st0{fill:#4D4D4D;stroke:#FF0000;stroke-width:8.035216e-03;stroke-miterlimit:11.3386;}
</style>
<desc>yellowjacket</desc>
<path class="st0" d="M76.8,7.6L76.8,7.6l0,0.1l0,0.2l0,0.2l0,0.2l0,0.2l0,0.3l0,0.3l0,0l0.4,0L87.1,9L76.9,27.7L58.6,61.3L42.3,91.1
	L40.7,94L34,94.1l-1.5,0l-0.3,0l-0.3,0l0,0.8l0,0.5l0,0.1l0.2,0.2l0.2,0.5l0.1,0.5l0,0.5l0,0.5l-0.1,0.5l-0.2,0.5L32,98.7l0,0l0,0.1
	l0,0.1l0,0.7l0,0.4l-12.4,0.1l-6.2,0.1h0l0-0.5l0-0.2l0-0.5l0-0.1l-0.2-0.2l-0.2-0.5l-0.1-0.5l0-0.5l0-0.5l0.1-0.5l0.2-0.5l0.1-0.2
	l0-0.1l0-0.1l0-0.2l0-0.2l0-0.2l0-0.5l-0.5,0l-9.9,0.1l2.4-4.3l2.5-4.5l7.5-13.8L15,71.7l-9.6-7.9L5.2,40.3L15,32l0.4-0.3l1.5-1.2
	l0-4L16.7,9.6l1.5,0l0.5,0l0-0.9l0-0.7l0-0.1l-0.2-0.3l-0.2-0.5l-0.1-0.4l0,0l0-0.5l0-0.5l0.1-0.5l0.2-0.5l0.2-0.3l0,0l0-0.1l0-0.2
	l0-0.2l0-0.2l0-0.2l0-0.2l0-0.1l14.5-0.1l0,0.5l0,0.6l0,0.1l0.2,0.3l0.2,0.5l0.1,0.5l0,0.5l0,0.5l0,0l-0.1,0.4l-0.2,0.5l-0.2,0.3
	l0,0l0,0.1l0,0.1l0,0.2l0,0.2l0,0.2l0,0.3l0,0.3l0,0.1l0.5,0l1.6,0l0.2,25.1l6.7-12.3l0.4-0.7l6.1-11.1l0.4-0.8l0.2-0.3l8.3-0.1
	l0.3,0l0.3,0l0-0.9l0-0.5l0-0.1L58,7.6l-0.2-0.5l-0.1-0.5l0-0.5l0-0.5l0.1-0.5L58,4.6l0.1-0.2l0-0.1l0-1.4l18.6-0.2l0,1.3l0,0.4l0,0
	l0,0L77,5.1l0.1,0.5l0,0.5l0,0.5l0,0.1L77,7.1L76.8,7.6 M35,53.8l0.1-0.3l0.1-0.3l0,0l0.1-0.3l0.1-0.3l0-0.3l0-0.3l0-0.3l-0.1-0.3
	l-0.1-0.3L35,50.6l0-0.1l-0.1-0.2l0,0L34.6,50l0-0.1l-0.2-0.2l-0.2-0.2l-0.3-0.2l-0.1-0.1l-0.1-0.1l0,0l0,0L33.3,49L33,48.9
	l-0.3-0.1l-0.2,0l-0.2,0l-0.3,0l-0.3,0l-0.3,0L31,48.8l-0.3,0.1l-0.3,0.1l-0.1,0.1l-0.2,0.1l-0.3,0.2l-0.1,0.1l-0.1,0.1l-0.1,0.1
	l-0.2,0.2l-0.2,0.3L29,50.3l-0.1,0.2l0,0.1l-0.1,0.2l-0.1,0.3l-0.1,0.3l-0.1,0.3l0,0.3l0,0.3l0,0.3l0.1,0.3l0,0.1l0.1,0.3l0.1,0.3
	L29,54l0.2,0.3l0.2,0.3l0.1,0.1l0.1,0.1L30,55l0,0l0.3,0.2l0.1,0.1l0.2,0.1l0.3,0.1l0.3,0.1l0.3,0.1l0.3,0l0.3,0l0.3,0l0.1,0
	l0.3-0.1l0.3-0.1l0.3-0.1l0,0l0.1-0.1l0.2-0.1l0.2-0.2l0.1,0l0.3-0.2l0.2-0.2l0.2-0.3l0,0L35,53.8L35,53.8 M48.7,53.7l0.1-0.3
	l0.1-0.3l0,0l0.1-0.3l0.1-0.3l0-0.3l0-0.3l0-0.3L49,51.1l-0.1-0.3l-0.1-0.3l0-0.1l-0.1-0.2l0,0L48.4,50l0,0l-0.2-0.2l-0.2-0.2
	l-0.3-0.2l-0.1,0l-0.2-0.1L47.2,49l-0.2-0.1l-0.1,0l-0.3-0.1l-0.3-0.1l-0.3-0.1l-0.3,0l-0.3,0l-0.3,0l-0.3,0.1l-0.3,0.1L44.2,49l0,0
	l0,0l-0.3,0.2l-0.2,0.2l-0.1,0l-0.3,0.2l-0.2,0.2l-0.2,0.3l0,0l-0.1,0.1l-0.1,0.2l0,0.1l-0.1,0.2L42.4,51l-0.1,0.3l-0.1,0.3l0,0.3
	l0,0.3l0,0.3l0.1,0.3l0,0.1l0.1,0.2l0.1,0.3l0,0l0.2,0.3l0.2,0.3l0.2,0.3l0.2,0.2l0.3,0.2l0.1,0l0.2,0.1l0,0l0.1,0l0.1,0.1l0.1,0
	l0.3,0.1l0.3,0.1l0.3,0.1l0.3,0l0.3,0l0.3,0l0.3-0.1l0.3-0.1l0,0l0.1-0.1l0.1-0.1l0.1-0.1l0.2-0.1l0.3-0.2l0.1-0.1l0.2-0.2l0.2-0.2
	l0.2-0.3l0.1-0.1L48.7,53.7L48.7,53.7 M16.8,55.3l0.1,0.1l0.2,0.1l0,0l0.3,0.1l0.3,0.1l0.2,0l0.1,0l0.3,0l0.3,0l0.3,0l0,0l0.3-0.1
	l0.3-0.1l0.3-0.1l0,0l0.3-0.2l0.3-0.2l0,0l0.3-0.2l0,0l0.2-0.2l0.2-0.3l0-0.1l0.1-0.2l0,0l0.2-0.3l0,0l0.1-0.3l0-0.2l0-0.2l0.1-0.3
	l0-0.3l0-0.3l0-0.3l-0.1-0.3L21.7,51l0-0.1l-0.1-0.2l-0.1-0.1l-0.1-0.2l-0.1-0.2l-0.1-0.1l-0.1-0.1L21,49.9l-0.2-0.2l-0.3-0.2
	l-0.2-0.1l-0.1-0.1l0,0l-0.3-0.1L19.5,49l-0.3-0.1l-0.1,0l-0.2,0l-0.3,0l-0.3,0l-0.2,0l-0.1,0L17.5,49l-0.3,0.1L17,49.2l-0.1,0.1
	l-0.1,0l-0.2,0.1l-0.3,0.2l0,0l-0.2,0.2l-0.2,0.2l-0.2,0.2l0,0.1l0,0.1l-0.1,0.2l-0.1,0.1l-0.1,0.2l-0.1,0.3l-0.1,0.3l-0.1,0.3
	l0,0.3l0,0.3l0,0.3l0.1,0.3l0,0.1l0.1,0.3l0.1,0.3l0,0l0.2,0.3l0.2,0.2l0,0.1l0.2,0.3l0.2,0.2l0.3,0.2l0,0L16.8,55.3 M21.5,39.2
	L21.5,39.2l0.2,0.4l0.2,0.3l0.2,0.2l0,0l0.2,0.3l0.2,0.2l0.3,0.2l0,0l0.3,0.2l0.2,0.1l0.1,0.1l0.3,0.1l0.1,0l0.2,0.1l0.3,0.1l0.3,0
	l0.3,0l0.3,0l0.3-0.1l0.3-0.1l0.2-0.1l0.1,0l0.3-0.2l0.1-0.1l0.1-0.1l0.1-0.1l0.3-0.2l0.2-0.2l0.2-0.3l0,0l0.2-0.3l0,0l0.1-0.3
	l0.1-0.3l0.1-0.3l0-0.1l0-0.2l0-0.3l0-0.3l0-0.3L28,37.1l-0.1-0.3l-0.1-0.3l0-0.1l-0.1-0.2l-0.2-0.3l0-0.1l-0.1-0.1l-0.1-0.1
	L27,35.4l-0.3-0.2L26.4,35l0,0l-0.3-0.2l-0.3-0.1l-0.3-0.1l-0.3-0.1l-0.3,0l-0.3,0l-0.3,0l-0.3,0.1l0,0l-0.3,0.1L23.2,35L23,35
	l-0.2,0.1l-0.3,0.2l-0.1,0.1l-0.2,0.1l-0.2,0.2l0,0l-0.2,0.3l-0.2,0.3l0,0.1l-0.1,0.2l-0.1,0.2l0,0.1l-0.1,0.3l-0.1,0.3l0,0.3l0,0.3
	l0,0.3l0,0l0.1,0.3L21.5,39.2z"/>
</svg>
