<?xml version="1.0" standalone="no"?>
<!DOCTYPE svg PUBLIC "-//W3C//DTD SVG 1.1//EN"
  "http://www.w3.org/Graphics/SVG/1.1/DTD/svg11.dtd">
<svg width="32.26000213623047mm" height="36.170013427734375mm" viewBox="20.014999389648438 388.8190002441405 32.26000213623047 36.170013427734375" xmlns="http://www.w3.org/2000/svg" version="1.1">
	<title>svgOutput</title>
	<desc>Yellowjacket</desc>
<path d="M 47.625 391.6719970703124 L 47.62436294555664 391.67291259765614 L 47.62400817871094 391.713165283203 L 47.62346267700195 391.77593994140614 L 47.622867584228516 391.84408569335926 L 47.622154235839844 391.92575073242176 L 47.621360778808594 392.01657104492176 L 47.620567321777344 392.10736083984364 L 47.61964416503906 392.2128906249999 L 47.61958694458008 392.21954345703114 L 47.78300094604492 392.22055053710926 L 51.275001525878906 392.24200439453114 L 47.562442779541016 398.76141357421864 L 40.88673400878906 410.4842529296874 L 35.31999969482422 420.25970458984364 L 34.36199951171875 421.94198608398426 L 32.00891876220703 421.9273681640624 L 31.472000122070312 421.92404174804676 L 31.37967300415039 421.9234619140624 L 31.278236389160156 421.92282104492176 L 31.2755069732666 422.2250976562499 L 31.273880004882812 422.405059814453 L 31.273563385009766 422.4400939941405 L 31.329999923706055 422.51800537109364 L 31.40999984741211 422.678985595703 L 31.45800018310547 422.84100341796864 L 31.472000122070312 423.0050048828124 L 31.45199966430664 423.16900634765614 L 31.39900016784668 423.3299865722655 L 31.312999725341797 423.48699951171864 L 31.263832092285156 423.550323486328 L 31.263641357421875 423.57220458984364 L 31.263248443603516 423.61703491210926 L 31.26272201538086 423.67730712890614 L 31.260000228881836 423.9890136718749 L 31.259571075439453 423.98898315429676 L 26.873859405517578 423.95098876953114 L 24.68198013305664 423.9320068359374 L 24.680999755859375 423.9320068359374 L 24.684959411621094 423.47857666015614 L 24.685237884521484 423.44674682617176 L 24.6299991607666 423.3699951171874 L 24.576000213623047 423.2633361816405 L 24.548999786376953 423.209991455078 L 24.50200080871582 423.0469970703124 L 24.488000869750977 422.88299560546864 L 24.507999420166016 422.720001220703 L 24.56100082397461 422.5589904785155 L 24.576000213623047 422.5316162109374 L 24.64699935913086 422.4020080566405 L 24.69489860534668 422.34030151367176 L 24.69508934020996 422.3185119628905 L 24.69550132751465 422.2712402343749 L 24.69600486755371 422.21368408203114 L 24.698848724365234 421.88800048828114 L 24.698902130126953 421.88189697265614 L 24.576000213623047 421.881134033203 L 24.488000869750977 421.88058471679676 L 21.014999389648438 421.8590087890624 L 22.108999252319336 419.93804931640614 L 22.766876220703125 418.78289794921864 L 25.515592575073242 413.95648193359364 L 22.108999252319336 411.0790100097655 L 22.18199920654297 402.77899169921864 L 25.584999084472656 400.004425048828 L 25.711000442504883 399.90170288085926 L 26.357919692993164 399.37423706054676 L 26.370281219482422 397.956817626953 L 26.422000885009766 392.0260009765624 L 26.98200035095215 392.03085327148426 L 27.152666091918945 392.03231811523426 L 27.157411575317383 391.4891357421874 L 27.1578426361084 391.439727783203 L 27.091999053955078 391.3229980468749 L 27.030969619750977 391.167999267578 L 27.02899932861328 391.1629943847655 L 26.993000030517578 391.001007080078 L 26.98200035095215 390.83700561523426 L 26.99799919128418 390.6730041503905 L 27.041000366210938 390.511993408203 L 27.108999252319336 390.355010986328 L 27.168169021606445 390.25765991210926 L 27.168291091918945 390.24371337890614 L 27.16862678527832 390.2052001953124 L 27.169124603271484 390.1481933593749 L 27.169694900512695 390.0829162597655 L 27.17037010192871 390.00567626953114 L 27.17107391357422 389.92501831054676 L 27.171871185302734 389.83380126953114 L 27.172000885009766 389.8190002441405 L 32.28900146484375 389.86300659179676 L 32.28734588623047 390.05242919921864 L 32.28538513183594 390.27667236328114 L 32.28493118286133 390.328887939453 L 32.35100173950195 390.44601440429676 L 32.41299819946289 390.605987548828 L 32.45000076293945 390.76901245117176 L 32.459999084472656 390.9320068359374 L 32.444000244140625 391.09600830078114 L 32.42521667480469 391.167999267578 L 32.402000427246094 391.2569885253905 L 32.33399963378906 391.41500854492176 L 32.27459716796875 391.5120849609374 L 32.274478912353516 391.52557373046864 L 32.27414321899414 391.56402587890614 L 32.273643493652344 391.6209716796874 L 32.273075103759766 391.68624877929676 L 32.27241134643555 391.7619628906249 L 32.271671295166016 391.84686279296864 L 32.270938873291016 391.93072509765614 L 32.2700080871582 392.03720092773426 L 32.2696647644043 392.0766601562499 L 32.459999084472656 392.07830810546864 L 33.000999450683594 392.0830078124999 L 32.92327880859375 400.9494628906249 L 35.18299865722656 396.98165893554676 L 35.31999969482422 396.7410888671874 L 37.46500015258789 392.9747314453124 L 37.61199951171875 392.71661376953114 L 37.92900085449219 392.16000366210926 L 40.86000061035156 392.178009033203 L 40.94428253173828 392.17852783203114 L 40.959999084472656 392.1786193847655 L 41.041114807128906 392.1791076660155 L 41.0455322265625 391.65545654296864 L 41.045780181884766 391.62628173828114 L 41 391.5570068359374 L 40.959999084472656 391.470489501953 L 40.91999816894531 391.38400268554676 L 40.87300109863281 391.2080078124999 L 40.86000061035156 391.0310058593749 L 40.880001068115234 390.8540039062499 L 40.93199920654297 390.67999267578114 L 40.959999084472656 390.6246643066405 L 41.018001556396484 390.5100097656249 L 41.055641174316406 390.4569091796874 L 41.055877685546875 390.42892456054676 L 41.05630874633789 390.37774658203114 L 41.056854248046875 390.313018798828 L 41.05750274658203 390.2359924316405 L 41.0582389831543 390.14901733398426 L 41.05897903442383 390.0611572265624 L 41.059844970703125 389.9584045410155 L 41.060001373291016 389.94000244140614 L 47.638999938964844 389.99700927734364 L 47.6348762512207 390.4689941406249 L 47.63368225097656 390.6058349609374 L 47.633628845214844 390.6117248535155 L 47.643001556396484 390.626007080078 L 47.722999572753906 390.79901123046864 L 47.77000045776367 390.9750061035155 L 47.78300094604492 391.1520080566405 L 47.78118133544922 391.167999267578 L 47.76300048828125 391.3280029296874 L 47.709999084472656 391.50201416015614 L 47.625 391.6719970703124 M 32.60599899291992 407.6959533691405 L 32.64799880981445 407.6149902343749 L 32.67240524291992 407.5520019531249 L 32.691001892089844 407.50399780273426 L 32.7239990234375 407.38900756835926 L 32.74599838256836 407.272003173828 L 32.755001068115234 407.15301513671864 L 32.75299835205078 407.03399658203114 L 32.7400016784668 406.91500854492176 L 32.71500015258789 406.79901123046864 L 32.678001403808594 406.68499755859364 L 32.63100051879883 406.57598876953114 L 32.60599899291992 406.53073120117176 L 32.60448455810547 406.52801513671864 L 32.573001861572266 406.47100830078114 L 32.505001068115234 406.37298583984364 L 32.49075698852539 406.35617065429676 L 32.428001403808594 406.282012939453 L 32.34199905395508 406.20001220703114 L 32.249000549316406 406.1249999999999 L 32.2021598815918 406.09530639648426 L 32.14799880981445 406.06100463867176 L 32.14751434326172 406.06076049804676 L 32.136436462402344 406.05499267578114 L 32.04199981689453 406.0060119628905 L 31.930999755859375 405.96200561523426 L 31.816999435424805 405.92999267578114 L 31.743999481201172 405.9163818359374 L 31.698999404907227 405.907989501953 L 31.58099937438965 405.89898681640614 L 31.461000442504883 405.9010009765624 L 31.343000411987305 405.91400146484364 L 31.22599983215332 405.938995361328 L 31.113000869750977 405.97601318359364 L 31.003000259399414 406.02301025390614 L 30.945621490478516 406.05499267578114 L 30.89900016784668 406.08099365234364 L 30.801000595092773 406.14898681640614 L 30.775484085083008 406.17059326171864 L 30.719999313354492 406.2175292968749 L 30.709999084472656 406.22601318359364 L 30.62700080871582 406.3120117187499 L 30.55299949645996 406.40499877929676 L 30.52870750427246 406.4427490234374 L 30.488000869750977 406.5060119628905 L 30.461000442504883 406.5589904785155 L 30.43400001525879 406.61199951171864 L 30.389999389648438 406.72299194335926 L 30.35700035095215 406.83700561523426 L 30.336000442504883 406.9549865722655 L 30.326000213623047 407.0729980468749 L 30.327999114990234 407.1929931640624 L 30.341999053955078 407.31100463867176 L 30.367000579833984 407.428009033203 L 30.402999877929688 407.54098510742176 L 30.407800674438477 407.5520019531249 L 30.451000213623047 407.6510009765624 L 30.461000442504883 407.6689453124999 L 30.509000778198242 407.7550048828124 L 30.57699966430664 407.85299682617176 L 30.65399932861328 407.9440002441405 L 30.719999313354492 408.0076904296874 L 30.739999771118164 408.0270080566405 L 30.83300018310547 408.10101318359364 L 30.835098266601562 408.10235595703114 L 30.933000564575195 408.16598510742176 L 31.0017032623291 408.20098876953114 L 31.038999557495117 408.220001220703 L 31.149999618530273 408.26400756835926 L 31.264999389648438 408.2969970703124 L 31.381999969482422 408.3179931640624 L 31.500999450683594 408.3280029296874 L 31.6200008392334 408.32598876953114 L 31.73900032043457 408.3120117187499 L 31.743999481201172 408.3109130859374 L 31.854999542236328 408.2869873046874 L 31.9689998626709 408.2499999999999 L 32.077999114990234 408.2030029296874 L 32.08158493041992 408.20098876953114 L 32.129051208496094 408.17453002929676 L 32.18199920654297 408.14498901367176 L 32.26236343383789 408.08981323242176 L 32.28099822998047 408.07699584960926 L 32.37099838256836 407.9999999999999 L 32.45399856567383 407.91400146484364 L 32.52899932861328 407.82101440429676 L 32.535118103027344 407.8114318847655 L 32.59299850463867 407.72100830078114 L 32.60599899291992 407.6959533691405 M 37.46500015258789 407.76055908203114 L 37.50400161743164 407.6839904785155 L 37.54800033569336 407.5729980468749 L 37.5540771484375 407.5520019531249 L 37.58100128173828 407.459014892578 L 37.60200119018555 407.34100341796864 L 37.61199951171875 407.22299194335926 L 37.61000061035156 407.10299682617176 L 37.59600067138672 406.9849853515624 L 37.57099914550781 406.86801147460926 L 37.53499984741211 406.7550048828124 L 37.48699951171875 406.64498901367176 L 37.46500015258789 406.60556030273426 L 37.42900085449219 406.54098510742176 L 37.42011260986328 406.52801513671864 L 37.36199951171875 406.4429931640624 L 37.354801177978516 406.434600830078 L 37.284000396728516 406.35198974609364 L 37.19900131225586 406.26901245117176 L 37.10499954223633 406.19500732421864 L 37.08367919921875 406.1811523437499 L 37.005001068115234 406.1300048828124 L 36.940223693847656 406.09698486328114 L 36.89899826049805 406.07598876953114 L 36.86399841308594 406.0621337890624 L 36.78799819946289 406.032012939453 L 36.67300033569336 405.99899291992176 L 36.555999755859375 405.97799682617176 L 36.4370002746582 405.96798706054676 L 36.31800079345703 405.970001220703 L 36.20000076293945 405.9840087890624 L 36.08300018310547 406.00900268554676 L 35.96900177001953 406.04598999023426 L 35.86000061035156 406.09298706054676 L 35.85282897949219 406.09698486328114 L 35.84000015258789 406.1041564941405 L 35.75600051879883 406.1510009765624 L 35.67631912231445 406.2062988281249 L 35.65800094604492 406.2189941406249 L 35.56700134277344 406.29598999023426 L 35.48400115966797 406.3819885253905 L 35.40999984741211 406.4750061035155 L 35.40807342529297 406.47796630859364 L 35.37554931640625 406.52801513671864 L 35.345001220703125 406.57501220703114 L 35.31999969482422 406.62408447265614 L 35.29100036621094 406.68099975585926 L 35.24700164794922 406.7919921874999 L 35.2140007019043 406.907012939453 L 35.19300079345703 407.02398681640614 L 35.18299865722656 407.14300537109364 L 35.185001373291016 407.261993408203 L 35.19900131225586 407.3810119628905 L 35.2239990234375 407.49700927734364 L 35.24136734008789 407.5520019531249 L 35.2599983215332 407.6109924316405 L 35.30799865722656 407.720001220703 L 35.31999969482422 407.741729736328 L 35.36600112915039 407.82501220703114 L 35.43299865722656 407.9230041503905 L 35.51100158691406 408.01400756835926 L 35.59600067138672 408.09600830078114 L 35.689998626708984 408.17098999023426 L 35.716468811035156 408.18792724609364 L 35.736873626708984 408.20098876953114 L 35.790000915527344 408.2349853515624 L 35.805419921875 408.24301147460926 L 35.84000015258789 408.26095581054676 L 35.895999908447266 408.29000854492176 L 36.00699996948242 408.334014892578 L 36.12200164794922 408.365997314453 L 36.23899841308594 408.38800048828114 L 36.358001708984375 408.397003173828 L 36.47700119018555 408.39498901367176 L 36.595001220703125 408.3819885253905 L 36.71200180053711 408.35699462890614 L 36.82600021362305 408.32000732421864 L 36.86399841308594 408.3036193847655 L 36.935001373291016 408.27301025390614 L 36.988792419433594 408.24301147460926 L 37.03900146484375 408.2149963378905 L 37.05917739868164 408.20098876953114 L 37.137001037597656 408.147003173828 L 37.16223907470703 408.1256408691405 L 37.22800064086914 408.07000732421864 L 37.31100082397461 407.9840087890624 L 37.3849983215332 407.8909912109374 L 37.41301345825195 407.84747314453114 L 37.45000076293945 407.79000854492176 L 37.46500015258789 407.76055908203114 M 26.19099998474121 408.1300048828124 L 26.247417449951172 408.15899658203114 L 26.28116226196289 408.17633056640614 L 26.29800033569336 408.18499755859364 L 26.408000946044922 408.2290039062499 L 26.523000717163086 408.2609863281249 L 26.624000549316406 408.27999877929676 L 26.639999389648438 408.282989501953 L 26.759000778198242 408.2919921874999 L 26.878999710083008 408.29000854492176 L 26.996999740600586 408.2770080566405 L 27.01079559326172 408.2740478515624 L 27.11400032043457 408.25201416015614 L 27.226999282836914 408.2149963378905 L 27.336999893188477 408.167999267578 L 27.353137969970703 408.15899658203114 L 27.44099998474121 408.1099853515624 L 27.535707473754883 408.04428100585926 L 27.538999557495117 408.0419921874999 L 27.6299991607666 407.9649963378905 L 27.648000717163086 407.94635009765614 L 27.71299934387207 407.87899780273426 L 27.78700065612793 407.7860107421874 L 27.800024032592773 407.76544189453114 L 27.85099983215332 407.68499755859364 L 27.856000900268555 407.67535400390614 L 27.871000289916992 407.64645385742176 L 27.9060001373291 407.5790100097655 L 27.916702270507812 407.5520019531249 L 27.950000762939453 407.46798706054676 L 27.982999801635742 407.3540039062499 L 28.003999710083008 407.2359924316405 L 28.013999938964844 407.11801147460926 L 28.011999130249023 406.99798583984364 L 28.003999710083008 406.9305725097655 L 27.99799919128418 406.8800048828124 L 27.972999572753906 406.76300048828114 L 27.93600082397461 406.64999389648426 L 27.888999938964844 406.54000854492176 L 27.882307052612305 406.52801513671864 L 27.871000289916992 406.5077209472655 L 27.856000900268555 406.4808349609374 L 27.83099937438965 406.43600463867176 L 27.76300048828125 406.3380126953124 L 27.74013900756836 406.31097412109364 L 27.68600082397461 406.24700927734364 L 27.600000381469727 406.16400146484364 L 27.506999969482422 406.0899963378905 L 27.453927993774414 406.05551147460926 L 27.406999588012695 406.02499389648426 L 27.385406494140625 406.01400756835926 L 27.301000595092773 405.97100830078114 L 27.190000534057617 405.9270019531249 L 27.075000762939453 405.89401245117176 L 27.031654357910156 405.8862304687499 L 26.95800018310547 405.87298583984364 L 26.839000701904297 405.86300659179676 L 26.719999313354492 405.8649902343749 L 26.624000549316406 405.87628173828114 L 26.60099983215332 405.87899780273426 L 26.485000610351562 405.90399169921864 L 26.371000289916992 405.94100952148426 L 26.300390243530273 405.9714355468749 L 26.261999130249023 405.98800659179676 L 26.21493148803711 406.01400756835926 L 26.156999588012695 406.04598999023426 L 26.05900001525879 406.1140136718749 L 26.047073364257812 406.12408447265614 L 25.968000411987305 406.19100952148426 L 25.885000228881836 406.2770080566405 L 25.81100082397461 406.3699951171874 L 25.79405975341797 406.3964843749999 L 25.746999740600586 406.470001220703 L 25.71690559387207 406.52801513671864 L 25.711000442504883 406.53936767578114 L 25.691999435424805 406.57598876953114 L 25.648000717163086 406.6870117187499 L 25.615999221801758 406.8020019531249 L 25.5939998626709 406.91900634765614 L 25.584999084472656 407.0379943847655 L 25.586000442504883 407.157012939453 L 25.600000381469727 407.2760009765624 L 25.625 407.3919982910155 L 25.66200065612793 407.5060119628905 L 25.681835174560547 407.5520019531249 L 25.708999633789062 407.6149902343749 L 25.711000442504883 407.61862182617176 L 25.767000198364258 407.720001220703 L 25.834999084472656 407.8179931640624 L 25.91200065612793 407.90899658203114 L 25.99799919128418 407.990997314453 L 26.086811065673828 408.0626220703124 L 26.090999603271484 408.06600952148426 L 26.19099998474121 408.1300048828124 M 28.47800064086914 403.13800048828114 L 28.557018280029297 403.178985595703 L 28.583999633789062 403.1929931640624 L 28.672000885009766 403.22787475585926 L 28.69499969482422 403.23699951171864 L 28.80900001525879 403.26901245117176 L 28.927000045776367 403.29098510742176 L 29.04599952697754 403.29998779296864 L 29.165000915527344 403.2980041503905 L 29.283000946044922 403.28500366210926 L 29.399999618530273 403.2600097656249 L 29.51300048828125 403.22299194335926 L 29.615978240966797 403.178985595703 L 29.62299919128418 403.17599487304676 L 29.695999145507812 403.135284423828 L 29.726999282836914 403.11801147460926 L 29.797401428222656 403.06915283203114 L 29.825000762939453 403.04998779296864 L 29.916000366210938 402.97299194335926 L 29.999000549316406 402.886993408203 L 30.072021484375 402.79522705078114 L 30.072999954223633 402.79400634765614 L 30.13800048828125 402.6929931640624 L 30.149999618530273 402.6694335937499 L 30.191999435424805 402.58700561523426 L 30.236000061035156 402.47601318359364 L 30.248737335205078 402.4320068359374 L 30.268999099731445 402.36199951171864 L 30.290000915527344 402.24398803710926 L 30.299999237060547 402.126007080078 L 30.29800033569336 402.0060119628905 L 30.284000396728516 401.88800048828114 L 30.259000778198242 401.7709960937499 L 30.222999572753906 401.657989501953 L 30.174999237060547 401.5480041503905 L 30.149999618530273 401.5031738281249 L 30.117000579833984 401.4440002441405 L 30.09202003479004 401.407989501953 L 30.048999786376953 401.34600830078114 L 29.972000122070312 401.2550048828124 L 29.886999130249023 401.1719970703124 L 29.792999267578125 401.09799194335926 L 29.69300079345703 401.032989501953 L 29.586999893188477 400.9790039062499 L 29.47599983215332 400.93499755859364 L 29.361000061035156 400.9020080566405 L 29.243999481201172 400.8810119628905 L 29.125 400.8710021972655 L 29.006000518798828 400.87298583984364 L 28.886999130249023 400.886993408203 L 28.770999908447266 400.9119873046874 L 28.672000885009766 400.944122314453 L 28.656999588012695 400.949005126953 L 28.54800033569336 400.9960021972655 L 28.48165512084961 401.032989501953 L 28.444000244140625 401.053985595703 L 28.34600067138672 401.12200927734364 L 28.31322479248047 401.14971923828114 L 28.2549991607666 401.199005126953 L 28.172000885009766 401.28500366210926 L 28.097999572753906 401.37799072265614 L 28.078500747680664 401.407989501953 L 28.033000946044922 401.47799682617176 L 28.003999710083008 401.53390502929676 L 27.97800064086914 401.584014892578 L 27.934999465942383 401.69500732421864 L 27.902000427246094 401.80999755859364 L 27.881000518798828 401.9270019531249 L 27.871000289916992 402.04598999023426 L 27.87299919128418 402.16500854492176 L 27.88599967956543 402.28399658203114 L 27.91200065612793 402.39999389648426 L 27.92210578918457 402.4320068359374 L 27.947999954223633 402.51400756835926 L 27.9950008392334 402.62298583984364 L 28.003999710083008 402.6392822265624 L 28.05299949645996 402.72799682617176 L 28.11178970336914 402.81271362304676 L 28.121000289916992 402.82598876953114 L 28.197999954223633 402.9169921874999 L 28.284000396728516 402.99899291992176 L 28.376161575317383 403.07333374023426 L 28.37700080871582 403.074005126953 L 28.47800064086914 403.13800048828114 z" fill="#A9A9A9" stroke="rgb(255,0,0)" stroke-width="0.001mm" />
</svg>