<?xml version="1.0" encoding="utf-8"?>
<!-- Generator: Adobe Illustrator 24.1.0, SVG Export Plug-In . SVG Version: 6.00 Build 0)  -->
<svg version="1.1" id="Layer_1" xmlns="http://www.w3.org/2000/svg" xmlns:xlink="http://www.w3.org/1999/xlink" x="0px" y="0px"
	 viewBox="0 0 220.4 456.9" style="enable-background:new 0 0 220.4 456.9;" xml:space="preserve">
<style type="text/css">
	.st0{fill:#4D4D4D;stroke:#FF0000;stroke-width:8.035216e-03;stroke-miterlimit:11.3386;}
</style>
<desc>yellowjacket</desc>
<path class="st0" d="M12.7,125.6l2.5-0.1l1.3,0l4.4,0.5l4.4,0.9l0.5,0.1l1.3,0.4l4,1.2l5.7,2.1l6.1,2.6l0.1,0.1l5.4-2.8l7.2-3.7
	l2.6-15.9l1-5.9V87.9V61.4v-9.9l12.4-6.3l2.4-1.2v-2.6v-10v-3V8L78.4,6l6.4-3.1H88h6.9h11.5h7.5h4.2h11.1h4h2.4l5.8,2.8l1.5,0.7
	l3.8,1.9v9.6v0.3v10.4v1.2v11.6v2.8l2.1,1.1l1.9,1l2.1,1.1l8.3,4.2v10.3v2.8v23.2v17.3l1,5.9l1.9,11.6l0.6,3.3l0.2,0.9l4.4,2.2
	l4.4,2.3l3.8,2l0.1-0.1l6.1-2.6l5.7-2.1l3.9-1.2l1.4-0.4l4.9-1l4.4-0.5l1.3,0l2.6,0.1l3.2,0.7l2.6,1.2l2,1.8l1.3,2.3l0.6,2.7l0,0.1
	l0,3.3l-0.7,3.8l-1.4,4.2l-2,4.4l0,0.1l-2.4,4.5l-0.2,0.4l-1.5,2.4l-1.7,2.7l-2.2,3.1l-1.6,2.3l-4.4,5.6l-4.9,5.7l-1,1.1l-0.2,0.2
	l-2.3,2.5l-1.8,2l-5.8,5.8l-4.5,4.3l-1.3,1.4l-0.6,0.8l-1.4,1.8l-1.8,2.9l-1.6,3.2l-1.4,3.4l-1.2,3.5l-0.9,3.7l-0.7,3.8l-0.4,3.9
	l-0.1,3.9l0.1,2l0.1,1.9l0.4,3.9l0.7,3.8l0.9,3.7l1.2,3.5l1.1,2.6l0.3,0.8l1.6,3.2l0.2,0.4l1.6,2.5l0.5,0.7l1.2,1.6l3.4,3.3l0,0
	l2.6,2.5l5.8,5.8l4.2,4.5l0.2,0.2l1,1.1l0.5,0.6l4.4,5.1l4.4,5.6l1.6,2.3l2.2,3.1l3.3,5.2l0.2,0.4l2.4,4.5l2,4.6l1.4,4.2l0.6,3.3
	l0.1,0.4l0,3.3l-0.7,2.8l-0.9,1.6l-0.4,0.7l-2,1.8l-2.6,1.2l-3.2,0.7l-3.8,0.1l-4.4-0.5l-4.9-1l-1.2-0.4l-0.2-0.1l-3.9-1.2l-3.8-1.4
	l-1.9-0.7l-5.8-2.5l-6.4,3.2l-1.7,0.9l-4.9,2.5l-0.2,1.3l-0.7,4.1l-2.4,14.5l-0.4,2.2v0.5v20.5v23V413v11.6v5.8v0.8v5v5.5l-19.8,9.7
	l-5.8,2.8h-17.5H84.8l-13.1-6.4l-12.4-6.1v-5.5v-11.6V413v-46.4v-21l-3.7-22.1l-6.6-3.4l-0.5-0.3l-5.8-3l-5.8,2.5l-1.9,0.7l-3.8,1.4
	l-5.3,1.6l-0.5,0.1l-4.4,0.9l-4.4,0.5l-1,0l-0.4,0l-2.5-0.1l-3.2-0.7l-2.6-1.2l-2-1.8l-0.4-0.7l-0.9-1.6l-0.7-2.8l0-3.3l0.7-3.8
	l0-0.1l1.3-4.1l2-4.6l1.6-3l1-1.9l3.3-5.2l2.3-3.3l0.4-0.5l1.2-1.6l4.4-5.6l4.2-4.9l0.2-0.3l0.5-0.6l1.5-1.6l3.9-4.2l5.8-5.8
	l6.1-5.7l1.8-2.3l1.8-2.9l0.1-0.1l1.6-3l1.4-3.4l1.2-3.5l0.9-3.7l0.7-3.8l0.4-3.9l0.1-1.9l0.1-2l-0.1-3.9l-0.4-3.9l-0.7-3.8
	l-0.9-3.7l-1.2-3.5l-1-2.3l-0.3-0.7l-0.1-0.3l-1.6-3.2l-1.8-2.9l-1.4-1.8l-0.6-0.8l-1.3-1.4l-4.5-4.3l-5.8-5.8l-1.8-2l-2-2.2L26,177
	l-0.7-0.8l-4.2-4.9l-4.4-5.6l-1.2-1.6l-0.4-0.5l-2.3-3.3l-1.7-2.7l-1.5-2.4l-2.7-4.9L5,145.9l-0.1-0.2l-1.4-4.2l-0.7-3.8l0-3.3
	l0-0.1l0.6-2.7l1.3-2.3l2-1.8l2.6-1.2L12.7,125.6 M75.9,197.3l0-0.6l0-0.6l0.1-0.6l0.1-0.3l0.1-0.3l0.2-0.5l0.3-0.5l0.3-0.5l0.3-0.5
	l0.4-0.4l0.2-0.2l0.2-0.2l0.5-0.3l0.5-0.3l0.5-0.2l0.5-0.2l0.6-0.1l0.6-0.1l0.6,0l0.6,0l0.6,0.1l0.6,0.1l0.5,0.2l0.5,0.2l0.5,0.3
	l0.5,0.3l0.2,0.2l0.2,0.2l0.4,0.4l0.3,0.5l0.3,0.5l0.2,0.5l0.2,0.5l0.1,0.6l0.1,0.6l0,0.6l0,0.6l-0.1,0.6l-0.1,0.2l-0.1,0.3
	l-0.2,0.6l-0.2,0.5l-0.3,0.5l-0.3,0.5l-0.4,0.4l-0.4,0.4l-0.5,0.3l-0.5,0.3l-0.5,0.2l-0.5,0.2l-0.3,0.1l-0.3,0.1l-0.6,0.1l-0.6,0
	l-0.6,0l-0.6-0.1l-0.6-0.1l-0.5-0.2L79,202l-0.5-0.3l-0.5-0.3l-0.4-0.4l-0.1-0.1l-0.3-0.3l-0.3-0.5l-0.3-0.5l-0.3-0.5l-0.2-0.6
	l-0.1-0.3l0,0l-0.1-0.2L75.9,197.3 M138.5,259l-0.2,0l-0.4,0l-0.6-0.1l-0.6-0.1l-0.5-0.2l-0.5-0.2l-0.1-0.1l-0.4-0.2l-0.5-0.3
	l-0.4-0.4l-0.4-0.4l-0.3-0.5l-0.3-0.5l-0.2-0.5l-0.2-0.5l-0.1-0.6l-0.1-0.6l0-0.6l0-0.6l0.1-0.6l0.1-0.6l0.2-0.5l0.2-0.4l0.1-0.2
	l0.3-0.5l0.3-0.5l0.4-0.4l0.4-0.4l0.5-0.3l0.4-0.2l0.1-0.1l0.5-0.2l0.5-0.2l0.6-0.1l0.6-0.1l0.6,0l0.6,0l0.6,0.1l0.6,0.1l0.5,0.2
	l0.5,0.2l0.1,0.1l0.4,0.2l0.5,0.3l0.4,0.4l0.4,0.4l0.3,0.5l0.3,0.5l0.1,0.2l0.2,0.4l0.2,0.5l0.1,0.6l0.1,0.6l0,0.6l0,0.6l-0.1,0.6
	l-0.1,0.6l-0.2,0.5l-0.2,0.5l-0.3,0.5l-0.3,0.5l-0.4,0.4l-0.4,0.4l-0.5,0.3l-0.4,0.2l-0.1,0.1l-0.5,0.2l-0.5,0.2l-0.6,0.1L139,259
	l-0.4,0L138.5,259 M132.3,197.4l0-0.6l0-0.6l0.1-0.6l0.1-0.3l0.1-0.3l0.2-0.5l0.2-0.5l0.3-0.5l0.3-0.5l0.4-0.4l0.2-0.2l0.2-0.2
	l0.5-0.3l0.5-0.3l0.5-0.2l0.5-0.2l0.6-0.1l0.6-0.1l0.6,0l0.6,0l0.6,0.1l0.6,0.1l0.5,0.2l0.5,0.2l0.5,0.3l0.5,0.3l0.2,0.2l0.2,0.2
	l0.4,0.4l0.3,0.5l0.3,0.5l0.2,0.5l0.2,0.5l0.1,0.6l0.1,0.6l0,0.6l0,0.6l-0.1,0.6l-0.1,0.2l-0.1,0.3l-0.2,0.5l-0.2,0.5l-0.3,0.5
	l-0.3,0.5l-0.4,0.4l-0.4,0.4l-0.5,0.3l-0.2,0.1l-0.3,0.2l-0.5,0.3l-0.5,0.2l-0.6,0.1l-0.6,0.1l-0.6,0l-0.6,0l-0.6-0.1l-0.6-0.1
	l-0.5-0.2l-0.4-0.2l-0.1,0l-0.5-0.3l-0.5-0.3l-0.4-0.4l-0.4-0.4l-0.3-0.5l-0.3-0.5l-0.2-0.5l-0.2-0.5l-0.1-0.3l0-0.1l-0.1-0.2
	L132.3,197.4 M83.8,247.3l0.5,0.2l0.5,0.2l0.5,0.3l0.5,0.3l0.4,0.4l0.4,0.4l0.3,0.5l0.3,0.5l0.1,0.2l0.2,0.3l0.2,0.5l0.1,0.6
	l0.1,0.6l0,0.6l0,0.6l-0.1,0.6l-0.1,0.6l-0.2,0.5l-0.2,0.5l-0.2,0.4l-0.1,0.1l-0.3,0.5l-0.4,0.4l-0.4,0.4l-0.5,0.3l-0.5,0.3
	l-0.5,0.2l-0.5,0.2l-0.5,0.1l-0.1,0l-0.6,0.1l-0.6,0l-0.6,0l-0.6-0.1l-0.6-0.1l-0.5-0.2l-0.5-0.2l-0.5-0.3l-0.5-0.3l-0.4-0.4
	l-0.4-0.4l-0.3-0.5l-0.1-0.1l-0.2-0.4l-0.2-0.5l-0.2-0.5l-0.1-0.6l-0.1-0.6l0-0.6l0-0.6l0.1-0.6l0.1-0.6l0.2-0.5l0.2-0.3l0.1-0.2
	l0.3-0.5l0.3-0.5l0.4-0.4l0.4-0.4l0.5-0.3l0.5-0.3l0.5-0.2l0.5-0.2l0.6-0.1l0.6-0.1l0.6,0l0.6,0l0.6,0.1l0.1,0L83.8,247.3
	 M26.7,302.9l0.2,0.5l0.2,0.5l0.1,0.6l0.1,0.6l0,0.6l0,0.6l-0.1,0.6l-0.1,0.6L27,308l-0.2,0.5l0,0l-0.3,0.5l-0.3,0.5l-0.4,0.4
	l-0.4,0.4l0,0l-0.5,0.3l-0.5,0.3l-0.5,0.2l-0.5,0.2l-0.6,0.1l-0.6,0.1l-0.6,0l-0.6,0l-0.6-0.1l-0.6-0.1l-0.3-0.1l-0.2-0.1l-0.5-0.2
	l-0.5-0.3l-0.5-0.3l-0.4-0.4l-0.4-0.4l-0.3-0.5l-0.3-0.5l0,0L16,308l-0.2-0.5l-0.1-0.6l-0.1-0.6l0-0.6l0-0.6l0.1-0.6l0.1-0.6
	l0.2-0.5l0.2-0.5l0.1-0.2l0.2-0.3l0.3-0.5l0.4-0.4l0.4-0.4l0.5-0.3l0.5-0.3l0.5-0.2l0.2-0.1l0.3-0.1l0.6-0.1l0.6-0.1l0.6,0l0.6,0
	l0.6,0.1l0.6,0.1l0.5,0.2l0.5,0.2l0.5,0.3l0.5,0.3l0,0l0.4,0.4l0.4,0.4l0.3,0.5l0.2,0.3L26.7,302.9 M27.1,143.6l0,0.6l0,0.6
	l-0.1,0.6l-0.1,0.6l0,0l-0.2,0.5l-0.2,0.5l-0.3,0.5l-0.3,0.5l-0.4,0.4l-0.1,0.1l-0.3,0.3l-0.5,0.3l-0.5,0.3l-0.5,0.2l-0.5,0.2
	l-0.6,0.1l-0.6,0.1l-0.6,0l-0.6,0L20,150l-0.5-0.1l0,0l-0.5-0.2l-0.5-0.2l-0.5-0.3l-0.5-0.3l-0.4-0.4l-0.4-0.4l-0.3-0.5l-0.3-0.5
	l-0.2-0.5l-0.2-0.5l0,0l-0.1-0.6l-0.1-0.6l0-0.6l0-0.6l0.1-0.6l0.1-0.6l0.2-0.5l0.2-0.5l0.3-0.5l0.3-0.5l0.3-0.3l0.1-0.1l0.4-0.4
	l0.5-0.3l0.5-0.3l0.5-0.2l0.5-0.2l0,0l0.5-0.1l0.6-0.1l0.6,0l0.6,0l0.6,0.1l0.6,0.1l0.5,0.2l0.5,0.2l0.5,0.3l0.5,0.3l0.3,0.3
	l0.1,0.1l0.4,0.4l0.3,0.5l0.3,0.5l0.2,0.5l0.2,0.5L27,143L27.1,143.6 M200.5,300.1l0.6,0.1l0.5,0.2l0.5,0.2l0.5,0.3l0.5,0.3l0.4,0.4
	l0.4,0.4l0.3,0.5l0,0.1l0.3,0.4l0.2,0.5l0.2,0.5l0.1,0.6l0.1,0.6l0,0.6l0,0.6l-0.1,0.6l-0.1,0.6l-0.2,0.5l-0.1,0.3l-0.1,0.3
	l-0.3,0.5l-0.3,0.5l-0.4,0.4l-0.4,0.4l-0.5,0.3l-0.5,0.3l-0.5,0.2l-0.5,0.2l-0.6,0.1l-0.6,0.1l-0.5,0l0,0l-0.6,0l-0.6-0.1l-0.6-0.1
	l-0.5-0.2l-0.5-0.2l-0.5-0.3l-0.5-0.3l-0.4-0.4l-0.4-0.4l-0.3-0.5l-0.3-0.5l-0.1-0.3l-0.1-0.3l-0.2-0.5l-0.1-0.6l-0.1-0.6l0-0.6
	l0-0.6l0.1-0.6l0.1-0.6l0.2-0.5l0.2-0.5l0.3-0.4l0-0.1l0.3-0.5l0.4-0.4l0.4-0.4l0.5-0.3l0.5-0.3l0.5-0.2l0.5-0.2l0.6-0.1l0.6-0.1
	l0.6,0l0,0l0.5,0L200.5,300.1 M203.4,139.9l0.1,0.2l0.3,0.3l0.3,0.5l0.3,0.5l0.2,0.5l0.2,0.5l0.1,0.6l0.1,0.6l0,0.6l0,0.6l-0.1,0.6
	l-0.1,0.6l0,0l-0.2,0.5l-0.2,0.5l-0.3,0.5l-0.3,0.5l-0.4,0.4l-0.4,0.4l-0.5,0.3l-0.5,0.3l-0.5,0.2l-0.5,0.2l-0.6,0.1l-0.6,0.1
	l-0.4,0l-0.2,0l-0.6,0L198,150l-0.6-0.1l-0.5-0.2l-0.5-0.2l-0.5-0.3l-0.5-0.3l-0.4-0.4l-0.4-0.4l-0.3-0.5l-0.3-0.5l-0.2-0.5
	l-0.1-0.2l-0.1-0.3l0,0l-0.1-0.6l-0.1-0.6l0-0.6l0-0.6l0.1-0.6l0.1-0.6l0.2-0.5l0.2-0.5l0.3-0.5l0.3-0.5l0.3-0.3l0.1-0.2l0.4-0.4
	l0.5-0.3l0.5-0.3l0.5-0.2l0.5-0.2l0.6-0.1l0.6-0.1l0.6,0l0.2,0l0.4,0l0.6,0.1l0.6,0.1l0.5,0.2l0.5,0.2l0.5,0.3l0.5,0.3L203.4,139.9
	 M14.2,143.2l-0.1,0.8l0,0.8l0.1,0.8l0.1,0.3l0.1,0.5l0.3,0.8l0.4,0.7l0.1,0.1l0.4,0.6l0.3,0.3l0.3,0.3l0.2,0.1l0.4,0.4l0.1,0.1
	l0.6,0.4l0,0l0.7,0.4l0.7,0.3l0.6,0.2l0.2,0l0.8,0.1l0.8,0l0.8,0l0.8-0.1l0.8-0.2l0.7-0.3l0.7-0.4l0,0l0.2-0.1l0.5-0.3l0.6-0.5
	l0.5-0.6l0.2-0.3l0.2-0.3l0.4-0.7l0.3-0.8l0.1-0.5l0.1-0.3l0.1-0.8l0-0.8l-0.1-0.8l0-0.2l-0.1-0.6l-0.3-0.8l-0.3-0.7l-0.4-0.7l0,0
	l0-0.1l-0.2-0.2l-0.3-0.4l-0.2-0.2L26,139l-0.1-0.1l-0.5-0.4l0,0l-0.1-0.1l-0.2-0.1l-0.4-0.2l-0.7-0.4l-0.8-0.3l-0.8-0.2l-0.8-0.1
	h-0.8l-0.8,0.1l-0.6,0.1l-0.2,0.1l-0.8,0.3l-0.7,0.4l-0.4,0.2l-0.3,0.2l-0.6,0.5l-0.4,0.4l-0.2,0.2l-0.3,0.3l-0.2,0.2l-0.1,0.1
	l-0.2,0.3l-0.2,0.4l-0.3,0.7l-0.3,0.8l-0.1,0.6L14.2,143.2 M14.9,303.2l-0.3,0.8l-0.2,0.8l-0.1,0.8l0,0l0,0.8l0.1,0.8l0.2,0.8
	l0.2,0.5l0.1,0.3l0.2,0.3l0.2,0.4l0.1,0.2l0.3,0.5l0.5,0.6l0.6,0.5l0.5,0.4l0.1,0.1l0.7,0.4l0.7,0.3l0.4,0.1l0.4,0.1l0.8,0.1l0.8,0
	l0.8,0l0.8-0.1l0.8-0.2l0.7-0.3l0.6-0.4l0.1,0l0.1-0.1l0.5-0.4l0.6-0.5l0.5-0.6l0.3-0.5l0.1-0.2l0.4-0.7l0.1-0.3l0.2-0.5l0.2-0.8
	l0.1-0.8l0-0.8l0,0l-0.1-0.8l-0.2-0.8l-0.2-0.8l-0.3-0.6l-0.1-0.2l-0.3-0.6l-0.1-0.1l-0.1-0.1l-0.4-0.5l0,0l-0.5-0.5l-0.1-0.1
	l-0.5-0.4l-0.1-0.1l-0.4-0.3l0,0l-0.1,0l0,0l-0.2-0.1l-0.7-0.4l-0.8-0.3l-0.8-0.2l-0.8-0.1h-0.8l-0.8,0.1l-0.8,0.2l0,0l-0.7,0.3
	l-0.7,0.4l-0.2,0.1l-0.5,0.3l-0.6,0.5l-0.6,0.6l-0.2,0.2l-0.3,0.4l-0.1,0.1l-0.3,0.6l0,0l-0.1,0.2L14.9,303.2 M157.1,314.7l-0.3-0.7
	l-0.4-0.6l-0.5-0.6l-0.6-0.5l-0.6-0.4l-0.6-0.2l-0.1-0.1l-0.7-0.2l-0.3,0l-0.4,0l-0.8,0.1l-0.7,0.2l-0.1,0.1l-0.6,0.2l-0.6,0.4
	l-0.6,0.5l-0.5,0.6l-0.4,0.6l-0.1,0.3l-0.2,0.4l-0.2,0.7l-0.1,0.8l0.1,0.8l0.2,0.7l0.3,0.7l0.4,0.6l0.5,0.6l0.5,0.5l0,0l0.6,0.4
	l0.7,0.3l0.7,0.2l0.8,0.1l0.8-0.1l0.7-0.2l0.7-0.3l0.6-0.4l0,0l0.5-0.5l0.5-0.6l0.4-0.6l0.3-0.7l0.2-0.7l0.1-0.8l-0.1-0.8
	L157.1,314.7 M118.2,313.3L118.2,313.3l-2.8-1.6l-5.2-3l-5.2,3l-2.8,1.6v6.8v2.7l8,4.6l7.9-4.6l0,0v-2.7v-5V313.3 M72.4,315.4
	l-0.2-0.7l-0.3-0.7l-0.2-0.4l-0.1-0.2l-0.5-0.6l-0.6-0.5l-0.6-0.4l-0.6-0.2l-0.1-0.1l-0.7-0.2l-0.8-0.1l-0.8,0.1l-0.7,0.2l-0.1,0.1
	l-0.6,0.2l-0.6,0.4l-0.6,0.5l-0.5,0.6l-0.4,0.6l-0.1,0.3l-0.2,0.4l-0.2,0.7l-0.1,0.8l0.1,0.8l0.2,0.7l0.3,0.7l0.4,0.6l0.5,0.6
	l0.5,0.5l0,0l0.6,0.4l0.7,0.3l0.7,0.2l0.8,0.1l0.8-0.1l0.7-0.2l0.7-0.3l0.6-0.4l0,0l0.5-0.5l0.5-0.6l0.1-0.2l0.2-0.4l0.3-0.7
	l0.2-0.7l0.1-0.8L72.4,315.4 M143.9,350.4V346h-4.3v6.9v13.7v0.8h0.2h4v-0.8V350.4 M96,346v15.7l8.4,4.9l1.4,0.8l4.4,2.5l4.4-2.5
	l1.4-0.8l2.1-1.2l6.3-3.6V346v-1.1l-2.7-1.6l-3.5-2l0,0l-7.9-4.6L96,344.9V346 M76.3,350.3v16.2v0.8h0.2h4v-0.8v-13.8V346h-4.2
	V350.3 M131.3,367.7l-6.9,4l-5.4,3.1V389l5.4,3.1l6.9,4l0,0L131.3,367.7L131.3,367.7 M89,367.7v22v6.3l0,0l11-6.3l1.3-0.8v-14.2
	L89,367.7L89,367.7 M76.5,403.3v3.2h4.2v-5.6v-11.1v-0.3h-4.2v0.3V403.3 M157.3,428.7l-0.2-0.7l-0.3-0.7l-0.4-0.6l-0.5-0.6l-0.6-0.5
	l-0.6-0.4l-0.7-0.3l-0.7-0.2l-0.3,0l-0.4,0l-0.8,0.1l-0.7,0.2l-0.7,0.3l-0.6,0.4l-0.6,0.5l-0.5,0.6l-0.4,0.6L148,428l-0.2,0.7
	l-0.1,0.8l0.1,0.8l0,0.1l0.1,0.6l0.3,0.7l0.4,0.6l0.5,0.6l0.6,0.5l0.6,0.4l0.7,0.3l0.7,0.2l0.8,0.1l0.4,0l0.3,0l0.7-0.2l0.7-0.3
	l0.6-0.4l0.6-0.5l0.5-0.6l0.4-0.6l0.3-0.7l0.1-0.6l0-0.1l0.1-0.8L157.3,428.7 M71.9,427.3l-0.2-0.4l-0.2-0.3l-0.5-0.6l-0.6-0.5
	l-0.6-0.4l-0.7-0.3l-0.7-0.2l-0.8-0.1l-0.8,0.1l-0.7,0.2l-0.3,0.1l-0.4,0.2l-0.6,0.4l-0.6,0.5l-0.5,0.6l-0.4,0.6l-0.3,0.7l-0.2,0.7
	l-0.1,0.8l0.1,0.8l0,0.1l0.1,0.6l0.3,0.7l0.4,0.6l0.5,0.6l0.6,0.5l0.6,0.4l0.7,0.3l0.7,0.2l0.8,0.1l0.8-0.1l0.7-0.2l0.7-0.3l0.6-0.4
	l0.6-0.5l0.5-0.6l0.2-0.3l0.2-0.4l0.3-0.7l0.2-0.7l0.1-0.8l-0.1-0.8l-0.2-0.7L71.9,427.3 M71.9,180.1l-0.2-0.3l-0.1-0.2l-0.3-0.4
	l-0.3-0.4l-0.4-0.3l-0.4-0.3l-0.4-0.2l-0.5-0.2l-0.5-0.2l-0.5-0.1l-0.5-0.1h-0.5l-0.5,0.1l-0.5,0.1l-0.5,0.2l0,0l-0.4,0.2l-0.4,0.2
	l-0.4,0.3l-0.4,0.3l-0.3,0.4l-0.3,0.4l-0.3,0.4l-0.2,0.4l-0.1,0.2L63,181l-0.1,0.5l-0.1,0.5l0,0.5l0,0.5l0.1,0.5l0.1,0.5l0.2,0.5
	l0.2,0.4l0.3,0.4l0.3,0.4l0.4,0.3l0.4,0.3l0.4,0.3l0.1,0l0.4,0.2l0.5,0.2l0.5,0.1l0.5,0.1l0.5,0l0.5,0l0.5-0.1l0.5-0.1l0.5-0.2
	l0.4-0.2l0.1,0l0.4-0.3l0.4-0.3l0.4-0.3l0.3-0.4l0.2-0.4l0-0.1l0.2-0.4l0.2-0.5l0.1-0.5l0.1-0.5l0-0.5l0-0.5l-0.1-0.5l-0.1-0.5
	l-0.1-0.3l-0.1-0.2L71.9,180.1 M74.9,198.2l0.2,0.8l0.3,0.8l0.4,0.7l0.1,0.2l0.2,0.3l0.2,0.3l0.5,0.6L77,202l0.4,0.3l0.1,0.1
	l0.4,0.3l0.1,0.1l0.7,0.4l0.7,0.3l0.8,0.2l0.8,0.1l0.8,0l0.8,0l0.6-0.1l0.2,0l0.8-0.2l0.7-0.3l0.7-0.4l0.1-0.1l0.6-0.4l0.6-0.5
	l0.2-0.2l0.3-0.4l0.1-0.1l0,0l0.2-0.3l0.2-0.3l0,0l0.4-0.7l0.3-0.8l0.2-0.8l0-0.1l0.1-0.7l0-0.8l-0.1-0.8l-0.1-0.6l0-0.2l-0.3-0.8
	l-0.3-0.7l-0.2-0.3l-0.2-0.3l0-0.1l-0.2-0.2l-0.2-0.2l-0.1-0.2l-0.6-0.6l-0.6-0.5l-0.4-0.3l-0.3-0.2l-0.7-0.4l-0.8-0.3l-0.6-0.1
	l-0.2,0l-0.8-0.1h-0.8l-0.8,0.1l-0.8,0.2l-0.8,0.3l-0.7,0.4l-0.3,0.2l-0.3,0.2l-0.1,0.1l-0.2,0.2l-0.2,0.2l-0.2,0.2l-0.3,0.3
	l-0.3,0.3l-0.1,0.2l-0.3,0.4l-0.1,0.1l-0.1,0.2l-0.3,0.5l-0.3,0.7L75,195l-0.2,0.8l-0.1,0.8l0,0.8L74.9,198.2L74.9,198.2
	 M72.6,267.3l-0.1-0.5l-0.1-0.5l-0.2-0.5l-0.2-0.4l-0.3-0.4l-0.1-0.1l-0.2-0.3l-0.3-0.4l-0.4-0.3l-0.4-0.3l-0.4-0.2l-0.5-0.2
	l-0.5-0.2l-0.5-0.1l-0.5-0.1h-0.5l-0.5,0.1l-0.5,0.1l-0.5,0.2l-0.2,0.1l-0.2,0.1l-0.4,0.2l-0.4,0.3l-0.4,0.3l-0.3,0.4l-0.3,0.4
	l-0.3,0.4l-0.2,0.4l-0.2,0.5l-0.1,0.5l-0.1,0.5l0,0.5l0,0l0,0.5l0.1,0.5l0.1,0.5l0.2,0.5l0.2,0.4l0.3,0.4l0.3,0.4l0.4,0.3l0.4,0.3
	l0.4,0.3l0.4,0.2l0,0l0.5,0.2l0.5,0.1l0.5,0.1l0.5,0l0.5,0l0.5-0.1l0.5-0.1l0.5-0.2l0.4-0.2l0.4-0.3l0.4-0.3l0.4-0.3l0.3-0.4l0-0.1
	l0.2-0.3l0.2-0.4l0.2-0.5l0.1-0.5l0.1-0.5l0-0.5L72.6,267.3 M76.1,249l-0.2,0.3l-0.3,0.4l-0.3,0.7l0,0.1l-0.3,0.8l-0.2,0.8l-0.1,0.8
	l0,0.8l0.1,0.8l0.2,0.8l0.3,0.8l0.1,0.2l0,0l0.3,0.5l0.1,0.1l0.2,0.3l0.2,0.3l0.5,0.6l0.6,0.5l0.1,0.1L78,259l0,0l0.2,0.1l0.5,0.3
	l0.7,0.3l0.8,0.2l0.8,0.1l0.8,0l0.8,0l0.6-0.1l0.2,0l0.8-0.2l0.7-0.3l0.7-0.4l0,0l0.6-0.4L87,258l0.1-0.1l0.4-0.5l0,0l0.4-0.6l0,0
	l0-0.1l0.2-0.4l0.1-0.1l0.1-0.2l0.3-0.8l0.2-0.8l0.1-0.8l0-0.3l0-0.5L89,252l-0.2-0.8l-0.2-0.8l0-0.1l-0.3-0.7l-0.2-0.4l-0.2-0.3
	l-0.5-0.6l-0.6-0.6l-0.6-0.5l-0.3-0.2l-0.1,0l-0.3-0.2l-0.7-0.4l-0.8-0.3l-0.6-0.1l-0.2,0l-0.8-0.1h-0.8l-0.8,0.1l-0.8,0.2l-0.8,0.3
	l-0.7,0.4l-0.3,0.2l-0.3,0.2l0,0l-0.2,0.2l0,0l-0.3,0.2l-0.1,0.1l-0.4,0.4l-0.2,0.2l-0.3,0.4L76.1,249L76.1,249 M118.2,280
	L118.2,280l-8-4.6l-8,4.6v9.1v0.4l8,4.6l7.9-4.6l0,0v-0.4V280 M104.3,297.3l-0.8-0.5l-1.3-0.7l-6.1-3.5l-7.4,4.3l-0.8,0.5v9.5l7,4.1
	l1.2,0.7l8.2-4.7v-2.7V297.3 M193.1,302.7l-0.3,0.7l-0.3,0.8l-0.2,0.8l-0.1,0.8l0,0.8l0.1,0.8l0.2,0.8l0.1,0.2l0.2,0.5l0.3,0.6
	l0.1,0.2l0.1,0.1l0.2,0.3l0.2,0.3l0.4,0.4l0.2,0.2l0.4,0.4l0.2,0.2l0.5,0.3l0.2,0.1l0.7,0.4l0.7,0.3l0.8,0.2l0.8,0.1l0.8,0l0,0
	l0.8,0l0.8-0.1l0.8-0.2l0.7-0.3l0.7-0.4l0.2-0.1l0.3-0.2l0.2-0.1l0.2-0.2l0.2-0.2l0.2-0.2l0.3-0.3l0.3-0.3l0.2-0.2l0,0l0.1-0.1
	l0.2-0.3l0.4-0.7l0.2-0.5l0.1-0.2l0.2-0.8l0.1-0.8l0-0.8l-0.1-0.8l-0.2-0.8l-0.2-0.8l-0.3-0.7l0-0.1l-0.4-0.6l0,0l-0.5-0.6l-0.6-0.6
	l-0.6-0.5l-0.5-0.3l-0.2-0.1l-0.7-0.4l-0.8-0.3l-0.8-0.2l-0.8-0.1h-0.4H199l-0.8,0.1l-0.8,0.2l-0.8,0.3l-0.7,0.4l-0.2,0.1l-0.3,0.2
	l-0.2,0.2l-0.3,0.3l-0.3,0.2l-0.2,0.2l-0.4,0.4l-0.1,0.1l0,0l-0.3,0.4l-0.1,0.1l0,0.1l-0.1,0.1l-0.2,0.3L193.1,302.7L193.1,302.7
	 M141.5,259.4l0.7-0.4l0,0l0,0l0.6-0.5l0.6-0.5l0.5-0.6l0.4-0.6l0.1-0.1l0.3-0.5l0.1-0.2l0.3-0.8l0.2-0.8l0.1-0.8l0-0.3l0-0.5
	l-0.1-0.8l-0.2-0.8l-0.2-0.8l0-0.1l-0.3-0.7l-0.3-0.4l-0.2-0.3l-0.5-0.6l-0.6-0.6l-0.6-0.5l-0.3-0.2l-0.4-0.2l-0.5-0.3l-0.2-0.1
	l-0.8-0.3l-0.8-0.2l-0.8-0.1H138l-0.8,0.1l-0.8,0.2l-0.8,0.3l0,0l-0.7,0.3l-0.4,0.2l-0.3,0.2l-0.6,0.5l-0.6,0.6l-0.5,0.6l-0.2,0.3
	l-0.2,0.4l-0.3,0.7l0,0.1l-0.3,0.8l-0.2,0.8l-0.1,0.8l0,0.5l0,0.3l0.1,0.8l0.2,0.8l0.3,0.8l0.1,0.2l0.3,0.5l0,0.1l0.2,0.3l0.2,0.3
	l0,0l0.4,0.5l0.1,0.1l0.4,0.3l0.2,0.2l0.3,0.2l0.3,0.2l0,0l0,0l0.7,0.4l0.3,0.1l0.4,0.2l0.8,0.2l0.8,0.1l0.8,0l0.8,0l0.8-0.1
	l0.8-0.2l0.6-0.3L141.5,259.4 M157.2,266.4l-0.2-0.5l-0.2-0.4l-0.3-0.4l-0.3-0.4l-0.3-0.4l-0.4-0.3l-0.4-0.3l-0.4-0.2l-0.5-0.2
	l-0.5-0.2l-0.5-0.1l-0.3,0l-0.2,0h-0.5l-0.5,0.1l-0.5,0.1l-0.5,0.2l-0.5,0.2l-0.4,0.2l-0.4,0.3l-0.4,0.3l-0.3,0.4l-0.2,0.3l-0.1,0.1
	l-0.3,0.4l-0.2,0.4l-0.2,0.5l-0.1,0.5l-0.1,0.5l0,0.5l0,0l0,0.5l0.1,0.5l0.1,0.5l0.2,0.5l0.2,0.4l0.3,0.4l0.1,0.2l0.2,0.2l0.4,0.3
	l0.4,0.3l0.4,0.3l0.4,0.2l0.5,0.2l0.5,0.1l0.5,0.1l0.5,0l0.4,0l0.1,0l0.5-0.1l0.5-0.1l0.5-0.2l0.4-0.2l0.4-0.3l0.4-0.3l0.4-0.3
	l0.3-0.4l0.3-0.4l0.2-0.4l0.2-0.5l0.1-0.5l0.1-0.5l0-0.5l0,0l0-0.5l-0.1-0.5L157.2,266.4 M132.5,297.3L132.5,297.3l-0.8-0.5
	l-7.4-4.3l-6.2,3.6l-1.2,0.7l-0.8,0.5v9.5l2.1,1.2l6.2,3.6l8.2-4.7l0,0V297.3 M131.3,195.8l-0.1,0.8l0,0.8l0.1,0.7l0,0.1l0.2,0.8
	l0.3,0.8l0.4,0.7l0.1,0.1l0.2,0.3l0.2,0.3l0.5,0.6l0.2,0.2l0.4,0.4l0.2,0.1l0.4,0.3l0.1,0l0.7,0.4l0.4,0.2l0.4,0.2l0.8,0.2l0.8,0.1
	l0.8,0l0.8,0l0.8-0.1l0.8-0.2l0.6-0.3l0.1,0l0.7-0.4l0.1,0l0.6-0.4l0.6-0.5l0.5-0.6l0.3-0.4l0.2-0.3l0,0l0.4-0.7l0.3-0.8l0.2-0.8
	l0-0.1l0.1-0.7l0-0.8l-0.1-0.8l-0.1-0.5l-0.1-0.3l-0.2-0.8l-0.3-0.7l-0.2-0.4l-0.2-0.3l0,0l-0.2-0.2l-0.2-0.2l-0.1-0.2l-0.6-0.6
	l-0.6-0.5l-0.4-0.2l-0.3-0.2l-0.5-0.2l-0.3-0.1l-0.8-0.3l-0.8-0.2l-0.8-0.1h-0.8l-0.8,0.1l-0.8,0.2l-0.8,0.3l0,0l-0.7,0.4l-0.3,0.2
	l-0.3,0.2l0,0l-0.5,0.4l-0.2,0.1l-0.3,0.3l-0.2,0.2l-0.1,0.2l-0.3,0.4l0,0.1l-0.1,0.2l-0.3,0.5l-0.3,0.7l-0.3,0.8l-0.1,0.3
	L131.3,195.8 M157,180.1l-0.3-0.4l-0.3-0.4l-0.3-0.4l-0.4-0.3l-0.4-0.3l-0.4-0.2l-0.5-0.2l-0.5-0.2l-0.5-0.1l-0.5-0.1h0h-0.5
	l-0.5,0.1l-0.5,0.1l-0.5,0.2l-0.5,0.2l-0.4,0.2l-0.4,0.3l-0.4,0.3l-0.3,0.4l-0.3,0.4l-0.3,0.4l-0.2,0.4l-0.1,0.2l-0.1,0.3l-0.1,0.5
	L148,182l0,0.5l0,0.5l0.1,0.5l0.1,0.5l0.2,0.5l0.2,0.4l0.3,0.4l0.3,0.4l0.4,0.3l0.4,0.3l0.4,0.3l0.1,0l0.4,0.2l0.5,0.2l0.5,0.1
	l0.5,0.1l0.5,0l0.2,0l0.3,0l0.5-0.1l0.5-0.1l0.5-0.2l0.4-0.2l0.1,0l0.4-0.3l0.4-0.3l0.4-0.3l0.3-0.4l0.3-0.4l0.2-0.4l0.2-0.5
	l0.1-0.5l0.1-0.5l0-0.5l0-0.5l-0.1-0.5l-0.1-0.5l-0.1-0.3l-0.1-0.2L157,180.1 M132.5,150.1v-8.8l-8.2-4.7l-6.2,3.6l-2.1,1.2v0.1v6.6
	v2v0.7l2.1,1.2l6.2,3.6l8-4.6l0.2-0.1l0,0V150.1 M142.9,12.6l0-0.2l0-0.3l-0.1-0.5l-0.2-0.4l-0.2-0.4l-0.2-0.4l-0.3-0.4l-0.3-0.4
	l-0.1-0.1l-0.2-0.2L140.7,9l-0.4-0.2l-0.4-0.2l-0.4-0.2L139,8.3l-0.5-0.1l-0.5,0l-0.5,0l-0.5,0.1l-0.5,0.1l-0.4,0.2l-0.4,0.2
	l-0.2,0.1L135.4,9L135,9.3l-0.4,0.3l-0.3,0.4l-0.3,0.4l-0.2,0.4l-0.2,0.4l-0.2,0.4l-0.1,0.5l0,0.3l0,0.2l0,0.5l0,0.5l0.1,0.5
	l0.1,0.5l0.2,0.4l0.2,0.4l0.2,0.4l0.3,0.4l0.3,0.4l0.4,0.3l0.4,0.3l0.2,0.1l0.2,0.1l0.4,0.2l0.4,0.2l0.5,0.1l0.5,0.1l0.5,0l0.5,0
	l0.5-0.1l0.5-0.1l0.4-0.2l0.4-0.2l0.4-0.2l0.4-0.3l0.2-0.2l0.1-0.1l0.3-0.4l0.3-0.4l0.2-0.4l0.2-0.4l0.2-0.4l0.1-0.5l0.1-0.5l0-0.5
	L142.9,12.6 M121.6,27.9l-3.5,2l-4.2,2.4v8.8l0.3,0.2l3.4,1.9l0.5,0.3l3.5,2l7.3-4.2l0.3-0.2v-8.8L121.6,27.9 M98.8,27.9l-3.9,2.2
	l-3.8,2.2v8.8l0.3,0.2l3.5,2l3.9,2.2l4.9-2.9l2.4-1.4l0.3-0.2v-4.3v-4.5L98.8,27.9 M83.7,18.2l0.1,0l0.3-0.1l0.5-0.1l0.4-0.2
	l0.4-0.2l0.4-0.2l0.4-0.3l0.4-0.3l0.3-0.3l0.3-0.4l0.2-0.4l0.2-0.4l0,0l0.2-0.4l0.1-0.5l0.1-0.5l0-0.5l0-0.5L88,12.5l0-0.1L87.8,12
	l-0.2-0.4l-0.2-0.4l-0.2-0.4l-0.3-0.4L86.6,10l-0.4-0.3l-0.4-0.3l-0.4-0.2l-0.4-0.2l-0.4-0.2l-0.5-0.1l-0.5-0.1l-0.4,0l-0.1,0
	l-0.5,0l-0.5,0.1l-0.5,0.1l-0.4,0.2l-0.4,0.2l-0.4,0.2l-0.1,0.1l-0.2,0.2L79.8,10l-0.3,0.4l-0.3,0.4L79,11.1l-0.2,0.4L78.6,12
	l-0.1,0.4l0,0.1l-0.1,0.5l0,0.5l0,0.5l0.1,0.5l0.1,0.5l0.2,0.4l0,0l0.2,0.4l0.2,0.4l0.3,0.4l0.3,0.3l0.4,0.3l0.4,0.3l0.4,0.2
	l0.4,0.2l0.4,0.2l0.5,0.1l0.3,0.1l0.1,0l0.5,0L83.7,18.2 M142.8,53l-0.2-0.7l-0.3-0.7l-0.4-0.6l-0.5-0.6l-0.1-0.1l-0.5-0.4l-0.6-0.4
	l-0.7-0.3l-0.7-0.2l-0.8-0.1l-0.8,0.1l-0.7,0.2l-0.7,0.3l-0.6,0.4l-0.6,0.5l-0.5,0.6l-0.4,0.6l-0.3,0.7l-0.2,0.7l0,0l-0.1,0.7
	l0.1,0.8l0.2,0.7l0.3,0.7l0.4,0.6l0.5,0.6l0.6,0.5l0.6,0.4l0.7,0.3l0.7,0.2l0.8,0.1l0.8-0.1l0.7-0.2l0.7-0.3l0.6-0.4l0.5-0.4
	l0.1-0.1l0.5-0.6l0.4-0.6l0.3-0.7l0.2-0.7l0.1-0.8L142.8,53 M131,67l-4.1-2.4l-3.5-2l-3.5,2l-1.7,1l-2.5,1.4v8.9l2.5,1.4l5.2,3
	l7.7-4.4V67 M102.8,59.7l7.4,4.3l7.4-4.3v-8.9l-7.4-4.3l-7.4,4.3V59.7 M83.7,49.2l-0.4-0.1L83,49l-0.8-0.1L81.5,49l-0.7,0.2
	l-0.7,0.3l-0.6,0.4l-0.6,0.5l-0.5,0.6L78,51.6l-0.3,0.7L77.5,53l0,0l-0.1,0.7l0.1,0.8l0.2,0.7L78,56l0.4,0.6l0.5,0.6l0.6,0.5
	l0.6,0.4l0.7,0.3l0.7,0.2l0.8,0.1l0.8-0.1l0.3-0.1l0.4-0.1l0.7-0.3l0.6-0.4l0.6-0.5l0.5-0.6l0.4-0.6l0.3-0.7l0.2-0.7l0.1-0.8L87,53
	l0,0l-0.2-0.7l-0.3-0.7l-0.4-0.6l-0.5-0.6l-0.6-0.5l-0.6-0.4L83.7,49.2 M104.7,67l-4.1-2.4l-3.5-2l-2.1,1.2l-1.4,0.8L89.4,67v8.9
	l5.5,3.2l2.2,1.3l7.7-4.4v-2.5V67 M142.8,110l-0.2-0.7l-0.3-0.7l-0.4-0.6l-0.5-0.6l-0.1-0.1l-0.5-0.4l-0.6-0.4l-0.7-0.3l-0.7-0.2
	l-0.8-0.1l-0.8,0.1l-0.7,0.2l-0.7,0.3l-0.6,0.4l-0.6,0.5l-0.5,0.6l-0.4,0.6l-0.3,0.7l-0.2,0.7l-0.1,0.8l0,0.3l0,0.4l0.2,0.7l0.3,0.7
	l0.4,0.6l0.5,0.6l0.6,0.5l0.6,0.4l0.7,0.3l0.7,0.2l0.8,0.1l0.8-0.1l0.7-0.2l0.7-0.3l0.6-0.4l0.5-0.4l0.1-0.1l0.5-0.6l0.4-0.6
	l0.3-0.7l0.2-0.7l0-0.4l0-0.3L142.8,110 M151.1,132.2l-0.7,0.3l-0.6,0.4l-0.6,0.5l-0.5,0.6l-0.2,0.3l-0.2,0.3l-0.3,0.7l-0.2,0.7
	l-0.1,0.8l0.1,0.8l0.2,0.7l0.3,0.7l0.4,0.6l0.5,0.6l0.6,0.5l0.6,0.4l0.7,0.3l0.7,0.2l0.8,0.1l0.4,0l0.3,0l0.7-0.2l0.7-0.3l0.6-0.4
	l0.6-0.5l0.5-0.6l0.4-0.6l0.3-0.7l0.2-0.7l0.1-0.8l-0.1-0.8l-0.2-0.7l-0.3-0.7l-0.2-0.3l-0.2-0.3l-0.5-0.6l-0.6-0.5l-0.6-0.4
	l-0.7-0.3l-0.7-0.2l-0.8-0.1l-0.8,0.1L151.1,132.2 M118.2,124L118.2,124l-8-4.6l-8,4.6v9.5l1.4,0.8l6.6,3.8l5.9-3.4l0.7-0.4l1.4-0.8
	l0,0V124 M117.6,90.7v-2.9v-6l-7.4-4.3l-5.5,3.2l-2,1.1v6v2.9l7.4,4.3L117.6,90.7 M83.8,106.2l-0.5-0.1L83,106l-0.8-0.1l-0.8,0.1
	l-0.7,0.2l-0.7,0.3l-0.6,0.4l-0.6,0.5l-0.5,0.6l-0.4,0.6l-0.3,0.7l-0.2,0.7l-0.1,0.8l0,0.3l0,0.5l0.2,0.7L78,113l0.4,0.6l0.5,0.6
	l0.6,0.5l0.6,0.4l0.7,0.3l0.7,0.2l0.8,0.1l0.8-0.1l0.3-0.1l0.5-0.1l0.7-0.3l0.6-0.4l0.6-0.5l0.5-0.6l0.4-0.6l0.3-0.7l0.2-0.7l0-0.5
	l0-0.3l-0.1-0.8l-0.2-0.7l-0.3-0.7l-0.4-0.6l-0.5-0.6l-0.6-0.5l-0.6-0.4L83.8,106.2 M192.4,146.4l0.3,0.8l0.4,0.7l0.1,0.2l0.3,0.5
	l0,0l0.2,0.3l0.3,0.3l0.6,0.5l0.2,0.1l0.4,0.3l0.1,0l0.7,0.4l0.7,0.3l0.8,0.2l0.8,0.1l0.8,0l0.2,0l0.6,0l0.8-0.1l0.8-0.2l0.7-0.3
	l0.7-0.4l0.1,0l0.3-0.2l0.3-0.2l0.2-0.2l0.4-0.3l0.1-0.2l0.1-0.2l0.3-0.3l0-0.1l0.3-0.4l0.1-0.1l0.1-0.1l0.4-0.7l0.3-0.8l0.1-0.5
	l0.1-0.3l0.1-0.8l0-0.8l-0.1-0.8l-0.2-0.8l-0.3-0.8l-0.3-0.7l-0.3-0.5l-0.1-0.1l-0.1-0.1l-0.1-0.1l-0.4-0.6l-0.6-0.6l-0.6-0.5
	l-0.4-0.2l-0.3-0.2l-0.7-0.4l-0.8-0.3l-0.8-0.2l-0.8-0.1h-0.2h-0.6l-0.8,0.1l-0.8,0.2l-0.8,0.3l-0.7,0.4l-0.3,0.2l-0.3,0.2l-0.1,0
	l-0.5,0.4l-0.1,0.1l-0.4,0.4l-0.2,0.2l-0.3,0.3l0,0l-0.2,0.2l-0.1,0.1l-0.1,0.1l-0.3,0.6l-0.3,0.7l-0.2,0.8l-0.2,0.8l-0.1,0.8l0,0.8
	l0.1,0.8l0.1,0.3L192.4,146.4 M94.9,137.3l-7,4.1v8.8v0.7l0.1,0.1l6.9,4l1.2,0.7l6.1-3.5l2.1-1.2v-0.7V144v-2.7l-8.2-4.7L94.9,137.3
	 M71.9,134.6l-0.2-0.3l-0.1-0.1l-0.1-0.2l-0.5-0.6l-0.6-0.5l-0.6-0.4l-0.7-0.3l-0.7-0.2l-0.8-0.1l-0.8,0.1l-0.7,0.2l-0.7,0.3
	l-0.6,0.4l-0.6,0.5l-0.5,0.6l-0.2,0.3l-0.2,0.3l-0.3,0.7l-0.2,0.7l-0.1,0.8l0.1,0.8l0.2,0.7l0.3,0.7l0.4,0.6l0.4,0.5l0.1,0.1
	l0.6,0.5l0.6,0.4l0.7,0.3l0.7,0.2l0.8,0.1l0.8-0.1l0.7-0.2l0.7-0.3l0.6-0.4l0.6-0.5l0.1-0.1l0.4-0.5l0.1-0.2l0.2-0.4l0.3-0.7
	l0.2-0.7l0.1-0.8l-0.1-0.8l-0.2-0.7L71.9,134.6 M124.4,401.3l-6.3-3.6l-7.9-4.6L96,401.3V413v5.1l14.2,8.2l7.9-4.6l6.3-3.6V413
	V401.3 M143.9,406.5h0.2v-17h-0.2h-4v17H143.9 M118.2,157.3L118.2,157.3l-8-4.6l-5.9,3.4l-2.1,1.2v0.2v9.2l8,4.6l7.9-4.6l0,0v-9.2
	V157.3 M205.8,302.6h0.3l-0.7-0.7 M205.3,299.9l3.1,2.7l-3.1-5.8V299.9z"/>
</svg>
