<?xml version="1.0" encoding="utf-8"?>
<!-- Generator: Adobe Illustrator 24.1.0, SVG Export Plug-In . SVG Version: 6.00 Build 0)  -->
<svg version="1.1" id="Layer_1" xmlns="http://www.w3.org/2000/svg" xmlns:xlink="http://www.w3.org/1999/xlink" x="0px" y="0px"
	 viewBox="0 0 220.4 483.4" style="enable-background:new 0 0 220.4 483.4;" xml:space="preserve">
<style type="text/css">
	.st0{fill:#4D4D4D;stroke:#FF0000;stroke-width:8.035216e-03;stroke-miterlimit:11.3386;}
</style>
<desc>made with tinkercad</desc>
<path class="st0" d="M161,51.5v10.4v2.7v13.3v9.9v41.3h0.1v2.4l0.4,2.7l3.2,19.1l8.1,4.2l0.3,0.1l4.2,2.2l0.1-0.1l5.1-2.2l1-0.4
	l5.7-2.1l5.3-1.6l1.7-0.4l3.1-0.7l4.4-0.5l3.8,0.1l3.2,0.7l2.6,1.2l2,1.8l1,1.8l0.3,0.5l0.7,2.8v3.3l-0.7,3.8l-0.4,1.2l-1,3l-2,4.6
	l-2.2,4.1l-0.4,0.8l-3.3,5.2l-3.8,5.4l-4.4,5.6l-2.9,3.4l-2,2.3l-0.5,0.6l-4.8,5.2l-5.8,5.8l-4.5,4.3l-1.3,1.4l-0.6,0.8l-1.4,1.8
	l-1.8,2.9l-0.5,1l-1.1,2.2l-1.4,3.4l-1.2,3.5l-0.9,3.7l-0.7,3.8l-0.4,3.9l-0.1,3.9l0.1,3.9l0.4,3.9l0.7,3.8l0.9,3.7l1.2,3.5l1.3,3.2
	l0.1,0.2l1.1,2.1l0.5,1l0.2,0.3l1.6,2.6l0.5,0.7l1.2,1.6l6.1,5.7l5.8,5.8l2.9,3.1l2.4,2.6l2,2.3l2.9,3.4l4.4,5.6l3.8,5.4l2.5,3.9
	l0.8,1.3l2.7,4.9l2,4.6l0.3,0.9l1.1,3.3l0.7,3.8v3.3l-0.3,1.3l-0.4,1.6l-1.3,2.3l-2,1.8l-2.6,1.2l-3.2,0.7l-3.8,0.1l-4.4-0.5
	l-3.1-0.7l-1.7-0.4l-5.3-1.6l-5.7-2.1l-5.7-2.5h-0.1h-0.1l-4.5,2.3l-8.3,4.3l-0.9,5.4l-1.9,11.3l-0.9,5.4v0.5V413v23.2v11.6v5.8v1.3
	v4.5v5.3v2.1v1.3l-11.2,5.5l-5.9,2.9l-0.7,0.3l-7.7,3.8h-3.3h-28.9H88.8h-2.2h-1.8l-7.6-3.7l-16.9-8.2l-1-0.5v-8.7v-4.3v-1.5v-5.8
	v-11.6V413v-19.2V372l-0.9-5.4l-1.3-8l-1.1-6.4l-0.4-2.2l-12.9-6.6h-0.1h-0.1l-5.7,2.5l-5.7,2.1l-5.3,1.6l-4.9,1l-4.4,0.5l-3.8-0.1
	l-2.1-0.4l-1.1-0.2L6.8,349l-2-1.8l-1.3-2.3L2.8,342v-3.3l0.7-3.8l1.4-4.2l2-4.6l2.7-4.9l0.8-1.3l0.2-0.3l2.3-3.6l3.8-5.4l4.4-5.6
	l4.9-5.7l5.3-5.8l5.8-5.8l6.1-5.7l1.8-2.3l1.8-2.9l1.6-3.2l0.1-0.2l1.3-3.2l1.2-3.5l0.9-3.7l0.7-3.8l0.4-3.9l0.1-3.9l-0.1-3.9
	l-0.4-3.9l-0.7-3.8l-0.9-3.7l-1.2-3.5l-1.4-3.4l-1.1-2.2l-0.5-1l-1.8-2.9l-1.4-1.8l-0.6-0.8l-1.3-1.4l-4.5-4.3l-5.8-5.8l-5.3-5.8
	l-4.9-5.7l-4.4-5.6l-3.8-5.4l-2.3-3.6l-1-1.6L7,176.4l-2-4.6l-1.4-4.2l-0.7-3.8v-3.3l0.7-2.8l1.3-2.3l2-1.8l2.6-1.2l1.1-0.2l2.1-0.4
	l3.8-0.1l4.4,0.5l4.9,1l5.3,1.6l5.7,2.1l1,0.4l5.1,2.2l0.1,0.1l4.5-2.3l8.1-4.2l1.4-8.3l1.8-10.8l0.4-2.7v-2.7h0.1v-17.8V87.9V76.2
	V64.6V53v-1.6l9.3-4.7l4-2l1.5-0.8v-2.5v-2.6v-4.4v-3.1v-1v-0.6v-0.5v-0.9v-3.1v-6.3V18V8l3.1-1.5L80.3,5l4.5-2.2h1.8h2.2h14.7h19.9
	h3.3h5.7h3.2l7.7,3.8l0.7,0.3l2.7,1.3v9.9v10.4v0.6v0.5V31v3.5l0,0v6.7V44l3.2,1.6L161,51.5 M204.9,168.9l0.1,0.3l0.1,0.3l0.1,0.6
	v0.6v0.6l-0.1,0.6L205,172l-0.1,0.3l-0.2,0.5l-0.2,0.5l-0.3,0.5l-0.3,0.5l-0.4,0.4l-0.2,0.1l-0.3,0.3l-0.5,0.3l-0.3,0.2l-0.2,0.1
	l-0.5,0.2l-0.5,0.2l-0.6,0.1l-0.6,0.1h-0.6h-0.6l-0.6-0.1l-0.6-0.1l-0.5-0.2l-0.5-0.2l0,0l-0.5-0.3l-0.5-0.3l-0.3-0.3l-0.2-0.1
	l-0.4-0.4l-0.3-0.5l-0.3-0.5l-0.2-0.5l-0.2-0.5l-0.1-0.3l-0.1-0.3l-0.1-0.6v-0.6v-0.6l0.1-0.6l0.1-0.3l0.1-0.2l0,0l0.2-0.5l0.2-0.5
	l0.3-0.5l0.3-0.5l0.4-0.4l0.4-0.4l0.5-0.3l0.5-0.3l0,0l0.5-0.2l0.5-0.2l0.6-0.1l0.6-0.1h0.6h0.6l0.6,0.1l0.6,0.1l0.5,0.2l0.5,0.2
	l0.2,0.1l0.3,0.2l0.5,0.3l0.4,0.4l0.4,0.4l0.3,0.5l0.3,0.5l0.2,0.5L204.9,168.9 M203.5,164.9L203.5,164.9l-0.5-0.3l-0.3-0.2
	l-0.5-0.3L202,164l-0.8-0.3l-0.8-0.2l-0.8-0.1h-0.8l-0.8,0.1l-0.8,0.2l-0.8,0.3h-0.1l-0.7,0.3l-0.3,0.2l-0.4,0.2l-0.6,0.5l-0.6,0.6
	l-0.5,0.6l-0.1,0.1l-0.3,0.6l-0.3,0.7l-0.2,0.8l-0.1,0.3l-0.1,0.5l-0.1,0.8v0.8l0.1,0.8l0,0l0.2,0.8l0.3,0.8l0.4,0.7l0.1,0.2
	l0.2,0.3l0.1,0.2l0,0l0.3,0.4l0.2,0.2l0.3,0.2l0.3,0.3l0.2,0.1l0.4,0.3h0.1l0.7,0.4l0.3,0.1l0.5,0.2l0.8,0.2l0.8,0.1h0.8h0.8
	l0.8-0.1l0.8-0.2l0.6-0.2l0.2-0.1l0.7-0.4h0.1l0.6-0.4l0.6-0.5l0.5-0.6l0,0l0.3-0.4l0.2-0.2l0.4-0.7l0.3-0.8l0.2-0.8l0,0l0.1-0.8
	v-0.8l-0.1-0.8l-0.1-0.5l-0.1-0.3l-0.3-0.8l-0.3-0.7l-0.4-0.6l-0.1-0.1l-0.5-0.6l-0.6-0.6l0,0L203.5,164.9 M144.2,223.2v0.6
	l-0.1,0.5v0.1l-0.1,0.5l0,0l-0.2,0.6l-0.2,0.5l-0.2,0.4l-0.1,0.1L143,227l-0.2,0.2l-0.2,0.2l-0.3,0.3l-0.1,0.1l-0.5,0.3h-0.1
	l-0.4,0.3l-0.5,0.2l-0.5,0.2l-0.6,0.1L139,229h-0.5l0,0h-0.6l-0.6-0.1l-0.6-0.1l-0.5-0.2l-0.5-0.2l-0.5-0.3l-0.5-0.3l-0.4-0.4
	l-0.2-0.2l-0.2-0.2l-0.3-0.5L133,226l-0.2-0.5l-0.2-0.6l-0.1-0.3l-0.1-0.3l-0.1-0.5v-0.1v-0.6v-0.6v-0.1l0.1-0.5l0.1-0.3l0.1-0.3
	v-0.1l0.2-0.5l0.2-0.5l0.3-0.5l0.3-0.5l0.2-0.2l0.2-0.3l0.4-0.4l0.2-0.1l0.3-0.2l0.5-0.3l0.5-0.2l0.5-0.2l0.6-0.1l0.6-0.1h0.6l0,0
	h0.5l0.6,0.1l0.6,0.1l0.5,0.2l0.5,0.2l0.5,0.3l0.3,0.2l0.2,0.1l0.4,0.4l0.4,0.4l0.3,0.5l0.1,0.1l0.2,0.4l0.2,0.5l0.2,0.5v0.1l0,0
	l0.1,0.5v0.1l0.1,0.5L144.2,223.2 M144.4,278.9v0.5l0,0v0.6l-0.1,0.6l-0.1,0.6v0.1l-0.1,0.4v0.1l-0.2,0.5l-0.3,0.5l-0.1,0.2
	l-0.2,0.3l-0.4,0.4l-0.4,0.4l-0.3,0.2l-0.2,0.1l-0.5,0.3l-0.5,0.2l-0.5,0.2l-0.3,0.1l-0.3,0.1l-0.6,0.1h-0.6h-0.1h-0.4l-0.6-0.1
	l-0.3-0.1l-0.3-0.1l-0.5-0.2l-0.5-0.2l-0.5-0.3l-0.5-0.3l-0.4-0.4l-0.4-0.4l-0.3-0.5l-0.3-0.5l-0.2-0.5l-0.2-0.5l-0.1-0.6l-0.1-0.6
	v-0.5v-0.1l0,0l0,0V279l0.1-0.6l0.1-0.6l0.2-0.5l0.2-0.5l0.3-0.5l0.3-0.5l0.4-0.4l0.4-0.4l0.5-0.3l0.5-0.3l0.5-0.2l0.5-0.2l0.6-0.1
	h0.1l0.5-0.1h0.6h0.6l0.5,0.1h0.1l0.6,0.1l0.5,0.2l0.5,0.2l0.5,0.3l0.5,0.3l0.4,0.4l0.4,0.4l0.2,0.3l0.1,0.2l0.2,0.4l0.1,0.1
	l0.2,0.5v0.1l0.1,0.4v0.1l0.1,0.6V278.9 M144.4,275.7l-0.2-0.3v-0.1l-0.1-0.1L144,275l-0.2-0.2l0,0l-0.5-0.5l0,0l-0.1-0.1l-0.4-0.4
	l-0.2-0.2l-0.1-0.1l-0.2-0.1l-0.4-0.2l-0.7-0.4l-0.8-0.3l-0.8-0.2l-0.8-0.1H138l-0.8,0.1l-0.8,0.2l-0.8,0.3l-0.7,0.4l-0.4,0.2
	l-0.2,0.1l-0.1,0.1l-0.6,0.5l-0.1,0.1l-0.4,0.4l-0.1,0.1l-0.3,0.4l-0.2,0.2l0,0l-0.1,0.2l-0.3,0.5l-0.3,0.7l-0.3,0.8l-0.2,0.8
	l-0.1,0.8v0.2v0.6l0.1,0.8l0.2,0.8l0.3,0.8l0.4,0.7l0.1,0.1l0.1,0.2l0,0l0.2,0.3l0,0l0.4,0.5l0.1,0.1l0.4,0.4l0.2,0.2l0.3,0.2
	l0.1,0.1l0.3,0.2l0.7,0.4l0.7,0.3l0.8,0.2l0.8,0.1h0.7h0.1h0.8l0.8-0.1l0.8-0.2l0.7-0.3l0.7-0.4l0.3-0.2l0.4-0.3l0.4-0.4l0.2-0.2
	l0.1-0.1l0.4-0.5l0,0l0,0l0.1-0.1l0.3-0.4l0,0l0.1-0.1l0.4-0.7l0.3-0.8l0.2-0.8l0.1-0.8v-0.6v-0.2l-0.1-0.8l-0.2-0.8l-0.2-0.8
	l-0.3-0.7L144.4,275.7 M203.1,326.4l-0.2-0.1l-0.7-0.4l0,0h-0.1l-0.6-0.2l-0.8-0.2l-0.8-0.1H199l-0.8,0.1l-0.8,0.2l-0.6,0.2
	l-0.2,0.1l-0.3,0.1l-0.4,0.2l-0.2,0.1l-0.5,0.3l-0.6,0.5l-0.6,0.6l-0.5,0.6l-0.1,0.2l-0.1,0.1l-0.2,0.4l-0.3,0.7l-0.3,0.8l-0.2,0.8
	v0.2v0.6v0.8l0.1,0.8l0.2,0.7v0.1l0.3,0.8l0.4,0.7l0.1,0.1l0.2,0.3l0.2,0.2l0.3,0.3l0.3,0.3l0.1,0.1l0.5,0.5l0.7,0.5l0.7,0.4h0.1
	l0.7,0.3l0.8,0.2l0.8,0.1h0.8h0.8l0.8-0.1l0.8-0.2l0.7-0.3l0.7-0.4l0.2-0.1l0.5-0.3l0.5-0.5l0.1-0.1l0.5-0.6l0.3-0.4l0.2-0.3
	l0.4-0.7l0.3-0.8v-0.1l0.2-0.7l0.1-0.8v-0.8l-0.1-0.6v-0.2l-0.2-0.8l-0.2-0.8l-0.3-0.7l-0.2-0.4l-0.2-0.3l0,0l-0.5-0.6l-0.1-0.1
	l-0.5-0.5l0,0l-0.5-0.4l-0.1-0.1L203.1,326.4L203.1,326.4 M205.2,331.2l0.1,0.5v0.1v0.6v0.6l-0.1,0.6l-0.1,0.6l-0.2,0.5l0,0
	l-0.2,0.5l-0.3,0.5l-0.3,0.5l-0.4,0.4l-0.4,0.4l-0.5,0.3l-0.3,0.2l-0.2,0.1l0,0l-0.5,0.2l-0.5,0.2l-0.6,0.1l-0.6,0.1h-0.6h-0.6
	l-0.6-0.1l-0.6-0.1l-0.5-0.2l-0.5-0.2l-0.2-0.1l0,0l-0.3-0.2l-0.5-0.3l-0.4-0.4l-0.4-0.4l-0.3-0.5l-0.3-0.5l-0.2-0.5l0,0l-0.2-0.5
	l-0.1-0.6l-0.1-0.6v-0.6v-0.6v-0.1v-0.2v-0.3l0.1-0.6l0.2-0.5l0.2-0.5l0.3-0.5l0.2-0.3l0.2-0.2l0.4-0.4l0.4-0.4l0.5-0.3l0.3-0.2
	l0.2-0.1l0.5-0.2l0.5-0.2l0.6-0.1l0.6-0.1h0.6h0.6l0.6,0.1l0.6,0.1l0.5,0.2l0.5,0.2l0,0l0.5,0.3l0.5,0.3l0.4,0.4l0.4,0.4l0.2,0.2
	l0.2,0.3l0.3,0.5l0.2,0.5l0.2,0.5L205.2,331.2 M132.3,227L132.3,227l0.1,0.2l0.3,0.4l0.5,0.6l0.6,0.5l0.6,0.4h0.1l0.7,0.4l0.7,0.3
	l0.8,0.2l0.8,0.1h0.8l0,0h0.8l0.8-0.1l0.8-0.2l0.7-0.3l0.7-0.4h0.1l0.3-0.2l0.3-0.2l0.2-0.2l0.2-0.2l0,0l0.2-0.1l0.5-0.6l0,0l0,0
	l0.3-0.4l0.2-0.3l0.4-0.7l0.3-0.8l0.2-0.8l0.1-0.8V223l-0.1-0.8l-0.2-0.8v-0.1l-0.2-0.7l-0.3-0.7l-0.4-0.7l-0.1-0.1l-0.1-0.2
	l-0.3-0.3l-0.1-0.1l-0.3-0.3l-0.1-0.1l-0.6-0.5l0,0l-0.4-0.2l-0.3-0.2l-0.7-0.4l-0.8-0.3l-0.8-0.2l-0.8-0.1h-0.4H138l-0.8,0.1
	l-0.8,0.2l-0.8,0.3l-0.7,0.4l-0.3,0.2l-0.3,0.2h-0.1l-0.5,0.4l-0.2,0.1l-0.3,0.3l-0.1,0.1l-0.1,0.1l-0.2,0.3l-0.2,0.3l-0.1,0.1
	l-0.1,0.2l-0.3,0.5l-0.3,0.7l-0.2,0.7v0.1l-0.2,0.8l-0.1,0.8v0.8l0.1,0.8l0.2,0.8l0.3,0.8L132.3,227L132.3,227 M137.5,132.4h-0.2
	h-0.2l0,0H137l-0.3,0.1h-0.1l-0.2,0.1l-0.1,0.1l-0.2,0.1l-0.2,0.1h-0.1l0,0l-0.4,0.2l-0.1,0.1l0,0h-0.1l-0.2,0.1l-0.4,0.3l0,0
	l-0.3,0.3l-0.1,0.1l-0.1,0.1l-0.1,0.2l-0.2,0.4l-0.1,0.1l-0.1,0.3l-0.1,0.3l-0.1,0.2l-0.1,0.5v0.3v0.2v0.3v0.2v0.5l0.1,0.5l0,0
	l0.1,0.4l0.1,0.3l0.1,0.2l0.2,0.4l0.1,0.1l0.2,0.3l0,0l0.2,0.2l0.1,0.2l0.3,0.4l0.2,0.1l0.2,0.2l0.4,0.3l0,0l0.4,0.2l0.3,0.1
	l0.2,0.1l0.4,0.2h0.1l0.4,0.1h0.3h0.1h0.4h0.1h0.3h0.2l0.4-0.1h0.1l0.5-0.1l0,0l0.4-0.1l0.4-0.2l0,0l0.4-0.2l0.1-0.1l0,0l0,0
	l0.2-0.1l0.4-0.3l0,0l0,0l0.1-0.1l0.2-0.2l0.1-0.1l0.1-0.1l0.1-0.1l0.1-0.1l0,0l0.1-0.2l0.1-0.2l0.1-0.1l0.1-0.3l0,0l0,0l0.1-0.3
	v-0.1l0.2-0.7l0.1-0.8l-0.1-0.8l-0.2-0.7l-0.3-0.7l-0.4-0.6l-0.1-0.1l-0.4-0.5l-0.6-0.5l-0.6-0.4l-0.7-0.3l-0.7-0.2l-0.8-0.1h-0.2
	L137.5,132.4L137.5,132.4L137.5,132.4 M25.9,165.3l-0.5-0.4l0,0l-0.3-0.2l-0.4-0.2l-0.7-0.4l-0.8-0.3l-0.8-0.2h-0.2l-0.6-0.1h-0.8
	l-0.8,0.1l-0.8,0.2l-0.8,0.3l-0.7,0.4l-0.4,0.2l-0.3,0.2l0,0l-0.5,0.4l-0.1,0.1l0,0l-0.3,0.3l-0.2,0.2l-0.2,0.3l-0.3,0.3l-0.1,0.2
	v0.1l-0.2,0.4l-0.3,0.7l-0.3,0.8l-0.1,0.3l-0.1,0.5l-0.1,0.8v0.8l0.1,0.8l0.2,0.8l0.3,0.8l0.4,0.7l0.1,0.1l0.2,0.3l0.2,0.3l0,0
	l0.5,0.6l0.3,0.2l0.3,0.3l0.6,0.5l0,0l0.7,0.4l0.7,0.3l0.8,0.2l0.8,0.1h0.8H22h0.2l0.6-0.1l0.8-0.2l0.7-0.3l0.7-0.4l0,0l0.6-0.5
	l0.2-0.2l0.4-0.4l0.1-0.1l0.4-0.5l0,0l0.2-0.3l0.2-0.3l0.4-0.7l0.3-0.8l0,0l0.2-0.8l0.1-0.8v-0.8l-0.1-0.8l-0.1-0.5l-0.1-0.3
	l-0.1-0.3l-0.1-0.4l-0.3-0.7l-0.4-0.7l0,0l-0.3-0.4l-0.2-0.3L25.9,165.3L25.9,165.3 M26.8,168.9l0.1,0.2l0.1,0.3l0.1,0.6v0.6v0.6
	l-0.1,0.6l-0.1,0.6l-0.2,0.5l-0.2,0.5l-0.3,0.5l-0.3,0.5l-0.4,0.4l-0.1,0.1l-0.3,0.3l-0.5,0.3l-0.5,0.3l-0.5,0.3l-0.5,0.2l-0.6,0.1
	h-0.1l-0.5,0.1h-0.6h-0.6l-0.6-0.1l-0.6-0.1l-0.5-0.2l-0.5-0.3l-0.5-0.3l-0.5-0.3l-0.3-0.3l-0.1-0.1l-0.4-0.4l-0.1-0.2l-0.2-0.3
	l-0.3-0.5l-0.2-0.5l-0.2-0.5l-0.1-0.6l-0.1-0.6v-0.6V170l0.1-0.6l0.1-0.3l0.1-0.2l0.2-0.5l0.2-0.5l0.3-0.5l0.2-0.3l0.1-0.2l0.4-0.4
	l0.2-0.2l0.2-0.2l0.5-0.3l0.5-0.3l0.5-0.2l0.5-0.2l0.6-0.1l0.6-0.1h0.6H22l0.5,0.1h0.1l0.6,0.1l0.5,0.2l0.5,0.2l0.5,0.3l0.5,0.3
	l0.2,0.2l0.2,0.2l0.4,0.4l0.3,0.5l0.3,0.5l0.2,0.5L26.8,168.9 M76.9,219.9l0.3-0.4l0.1-0.1l0.4-0.4l0.4-0.4l0.2-0.1l0.3-0.2l0.5-0.3
	l0.5-0.2l0.5-0.2h0.1l0.4-0.1l0.6-0.1h0.6h0.6l0.6,0.1l0.6,0.1l0.5,0.2l0.5,0.2l0.5,0.3l0.3,0.2l0.2,0.1L86,219l0.4,0.4l0.1,0.2
	l0.2,0.3l0.3,0.5l0.2,0.5l0.2,0.5v0.1l0.1,0.6l0.1,0.6v0.6v0.6l-0.1,0.5v0.1l-0.1,0.6l-0.2,0.5l-0.2,0.5l-0.3,0.5l-0.2,0.3l-0.1,0.2
	l-0.2,0.2l-0.2,0.2l-0.4,0.4l-0.5,0.3l-0.5,0.3l-0.5,0.3l-0.5,0.2l-0.6,0l-0.6,0.1h-0.6h-0.6l-0.6-0.1l-0.4-0.1h-0.1l-0.5-0.2
	l-0.5-0.3l-0.5-0.3l-0.5-0.3l-0.4-0.4l-0.2-0.2l-0.2-0.2l-0.1-0.1l-0.3-0.4l-0.3-0.5l-0.2-0.5l-0.2-0.5l-0.1-0.6v-0.1l-0.1-0.5v-0.6
	v-0.6l0-0.6l0.1-0.6v-0.1l0.2-0.5l0.2-0.5L76.9,219.9 M76.3,218.9l-0.3,0.4l-0.1,0.2l0,0l-0.3,0.5l-0.3,0.7l-0.2,0.7v0.1l-0.2,0.8
	l-0.1,0.8v0.8l0.1,0.4l0.1,0.4l0.2,0.8l0.3,0.8l0.4,0.7l0.1,0.1l0.1,0.1l0.3,0.4l0.5,0.6l0.4,0.4l0.2,0.2l0.6,0.4l0.1,0.1l0.7,0.4
	l0.7,0.3l0.8,0.2l0,0l0.8,0.1H82h0.8l0.8-0.1l0.3-0.1l0.5-0.2l0.7-0.3l0.7-0.4l0.1-0.1l0.2-0.2h0.1l0.3-0.2l0.2-0.2l0.4-0.4l0.5-0.6
	l0.3-0.4l0,0l0.2-0.3l0.4-0.7l0.3-0.8l0.1-0.5l0.1-0.3l0.1-0.4l0.1-0.4v-0.8l-0.1-0.8l-0.1-0.7v-0.1v-0.1l-0.2-0.7l-0.3-0.7
	l-0.4-0.6v-0.1l-0.5-0.6l-0.6-0.6l-0.1-0.1l-0.4-0.3l-0.1-0.1l0,0l-0.4-0.3l-0.3-0.2l-0.7-0.4l-0.8-0.3l-0.8-0.2l-0.8-0.1h-0.8
	L81,216l-0.4,0.1l-0.4,0.1l-0.8,0.3l-0.7,0.4l-0.3,0.2l-0.4,0.3l-0.5,0.4l-0.1,0.1l-0.4,0.5l-0.1,0.1L76.3,218.9 M77.1,276.2
	l0.1-0.1l0.3-0.3l0.4-0.4l0.4-0.4l0.5-0.3l0.5-0.3l0.5-0.2l0.5-0.2h0.1l0.5-0.1l0,0l0.6-0.1h0.6h0.6l0.6,0.1l0,0l0.5,0.1l0.5,0.2
	l0.5,0.2l0.5,0.3l0,0l0.5,0.3l0.2,0.2l0.2,0.2l0.1,0.1l0.2,0.3v0.1l0.3,0.4l0.1,0.1l0.3,0.5l0.2,0.5l0.2,0.5l0.1,0.6l0.1,0.6v0.6
	l0,0v0.6l-0.1,0.6l-0.1,0.6l-0.2,0.5l-0.2,0.5l-0.3,0.5l-0.3,0.5v0.1l-0.3,0.4l-0.2,0.2l-0.2,0.2l-0.5,0.3l-0.5,0.3l-0.5,0.2
	l-0.5,0.2l-0.3,0.1l-0.2,0.1l-0.6,0.1h-0.6h-0.6l-0.6-0.1l-0.2-0.1l-0.3-0.1h-0.1l-0.5-0.2l-0.5-0.2l-0.5-0.3l-0.5-0.3L78,284
	l-0.4-0.4l-0.3-0.3l-0.1-0.1l-0.3-0.4v-0.1l-0.2-0.5l-0.2-0.5l-0.1-0.6l-0.1-0.6v-0.6l0,0v-0.2v-0.4l0.1-0.6l0.1-0.6l0.2-0.5
	l0.2-0.5L77,277l0.2-0.3L77.1,276.2 M76.1,275.5L76.1,275.5l-0.4,0.7l-0.2,0.4l-0.2,0.4l-0.3,0.8l-0.2,0.8l-0.1,0.8v0.2v0.7l0.1,0.8
	l0.2,0.8l0.3,0.7v0.1l0.4,0.7l0.2,0.4l0.2,0.3l0,0l0.4,0.5l0.1,0.1l0.3,0.3l0.1,0.1l0.2,0.2l0.4,0.3l0,0l0.3,0.2l0.7,0.4l0.7,0.3
	l0.7,0.2h0.1l0.8,0.1h0.8h0.8l0.8-0.1l0.8-0.2l0.7-0.3l0.7-0.4l0,0l0.2-0.2l0.4-0.3l0.1-0.1l0.5-0.4l0.5-0.6l0.4-0.6v-0.1l0.4-0.7
	l0.3-0.8l0.1-0.3l0.1-0.4l0.1-0.8v-0.7v-0.2l-0.1-0.8l-0.2-0.8v-0.1l-0.2-0.7l-0.3-0.7l-0.2-0.4l-0.2-0.3l0,0l-0.4-0.5l-0.1-0.1
	l-0.4-0.4l-0.1-0.1l-0.1-0.1l-0.2-0.1l-0.2-0.2l-0.2-0.1h-0.1h-0.1l-0.1-0.1l-0.2-0.1l-0.3-0.2l-0.7-0.4l-0.8-0.3l-0.8-0.2l-0.8-0.1
	H81l-0.8,0.1l-0.8,0.2l-0.8,0.3l-0.7,0.4l-0.3,0.2l-0.2,0.1l-0.2,0.1l-0.6,0.5h-0.1l-0.6,0.6l-0.3,0.4L76.1,275.5 M23.2,326.4
	l0.5,0.2l0.5,0.2l0.5,0.3l0.5,0.3l0.4,0.4l0.4,0.4l0.3,0.4l0,0l0.3,0.5l0.2,0.5l0.2,0.5l0.1,0.6l0.1,0.6v0.1v0.5v0.6l-0.1,0.6
	l-0.1,0.6l-0.2,0.5l-0.2,0.5l-0.3,0.5l-0.3,0.5l-0.4,0.4l-0.4,0.4l-0.5,0.3l0,0l-0.5,0.3l-0.2,0.1l-0.3,0.1l-0.5,0.2l-0.6,0.1
	l-0.5,0.1H22h-0.6h-0.6l-0.6-0.1l-0.6-0.1l-0.5-0.2l-0.3-0.1l-0.2-0.1l-0.5-0.3l-0.5-0.3l-0.4-0.4l-0.4-0.4l-0.3-0.5l-0.1-0.2
	l-0.2-0.3l-0.2-0.5l-0.2-0.5l-0.1-0.6l-0.1-0.6v-0.6v-0.5v-0.1l0.1-0.6l0.1-0.6l0.2-0.5l0.2-0.5l0.2-0.3l0.1-0.2l0,0l0.3-0.4
	l0.4-0.4l0.4-0.4l0.5-0.3l0.5-0.3l0.5-0.2l0.5-0.2l0.6-0.1l0.6-0.1h0.6H22h0.1l0,0l0.4,0.1L23.2,326.4 M27.4,328.4l-0.1-0.1
	l-0.1-0.1l-0.4-0.5l0,0l-0.5-0.5l-0.1-0.1l-0.5-0.4l-0.1-0.1l-0.4-0.2l-0.1-0.1L25,326l-0.3-0.2l-0.4-0.2l-0.8-0.3l-0.8-0.2
	l-0.5-0.1h-0.3h-0.8l-0.8,0.1l-0.8,0.2l-0.8,0.3l-0.4,0.2L18,326l-0.2,0.1l-0.3,0.2l-0.2,0.1l-0.4,0.3l-0.2,0.2l-0.3,0.3l0,0
	l-0.3,0.3l-0.5,0.6l-0.1,0.1l-0.3,0.6l-0.3,0.7l-0.3,0.8l-0.2,0.8v0.5v0.3v0.8l0.1,0.8l0.2,0.8l0.3,0.8l0.4,0.7l0.1,0.2l0.2,0.3
	l0.1,0.1l0.4,0.4l0.2,0.2l0,0l0.3,0.3l0.2,0.2l0.5,0.4l0.1,0.1l0.7,0.4l0.7,0.3l0.8,0.2l0.8,0.1h0.8H22h0.1l0.8-0.1l0.8-0.2l0.7-0.3
	l0.7-0.4l0.1-0.1l0.5-0.4l0.2-0.2l0.1-0.1l0.3-0.3l0.2-0.2l0.3-0.4l0.1-0.2l0.2-0.3l0.1-0.2l0.4-0.7v-0.1l0.2-0.6l0.2-0.8l0.1-0.8
	v-0.8v-0.3V331l-0.2-0.8l-0.2-0.8l-0.1-0.2l-0.2-0.5l-0.1-0.1L27.4,328.4 M86.1,134.3L86.1,134.3l-0.1-0.2l-0.3-0.3l0,0l-0.4-0.3
	l-0.2-0.2l-0.2-0.1l-0.4-0.2l0,0l-0.4-0.2l-0.4-0.2l0,0l-0.4-0.1H83h-0.2h-0.5h-0.2h-0.3l-0.5,0.1l0,0l-0.3,0.1h-0.1l-0.4,0.2
	l-0.2,0.1l-0.3,0l-0.1,0.1l-0.2,0.1h-0.1l-0.4,0.3l-0.2,0.2l-0.2,0.2l-0.3,0.4l-0.1,0.1l-0.2,0.2v0.1l-0.1,0.2L78,135l-0.2,0.4
	l-0.2,0.4v0.2l-0.1,0.3l-0.1,0.4l0,0v0.3v0.2v0.5l0.1,0.5l0,0l0.1,0.4l0,0l0.2,0.4l0.2,0.4l0,0l0.2,0.4l0.1,0.2l0,0l0,0l0,0l0.1,0.2
	l0.3,0.4l0,0l0,0l0,0l0.3,0.3l0.1,0.1l0.1,0.1l0.1,0.1l0,0l0.3,0.2l0.1,0.1l0.1,0.1l0.2,0.1h0.1h0.1h0.1l0.2,0.1h0.1l0.7,0.2
	l0.8,0.1L83,142l0.7-0.2l0.7-0.3l0.6-0.4l0.6-0.5l0.5-0.5l0,0l0.4-0.6l0,0l0.3-0.7l0.2-0.7l0.1-0.8l-0.1-0.8l-0.2-0.7l-0.1-0.3v-0.1
	v-0.1l-0.1-0.2l0,0l0,0l0,0V135l0,0l-0.2-0.4l0,0L86.1,134.3L86.1,134.3 M157.1,161.7l-0.3-0.7l-0.4-0.6l-0.5-0.6l-0.6-0.5l-0.6-0.4
	l-0.7-0.3l-0.7-0.2l-0.8-0.1l-0.8,0.1l-0.7,0.2l-0.7,0.3l-0.4,0.3l-0.2,0.1l-0.6,0.5l-0.5,0.6l-0.4,0.6l-0.3,0.7l-0.2,0.7l-0.1,0.8
	l0.1,0.8l0.2,0.7l0.3,0.7l0.4,0.6l0.5,0.6l0.6,0.5l0.2,0.1l0.4,0.3l0.7,0.3l0.7,0.2l0.8,0.1l0.8-0.1l0.7-0.2l0.7-0.3l0.6-0.4
	l0.6-0.5l0.5-0.6l0.4-0.6l0.3-0.7l0.2-0.7v-0.7v-0.1l-0.1-0.8L157.1,161.7 M157,206.5l-0.3-0.4l-0.3-0.4l-0.3-0.4l-0.4-0.3l0,0
	l-0.4-0.3l-0.4-0.2l-0.5-0.2l-0.5-0.2l-0.5-0.1l-0.4,0h-0.5l-0.5,0.1l-0.5,0.1l-0.5,0.2l-0.5,0.2l-0.4,0.2l-0.3,0.2l-0.1,0.1
	l-0.4,0.3l-0.3,0.4l-0.3,0.4l-0.3,0.4l-0.2,0.4l-0.2,0.5l-0.1,0.5l-0.1,0.5v0.5v0.5l0.1,0.4v0.1l0.1,0.5l0.2,0.5l0.2,0.4l0.3,0.4
	l0.3,0.4l0.4,0.3l0.3,0.2l0.1,0.1l0.4,0.3l0.4,0.2l0.5,0.2l0.5,0.1l0.5,0.1h0.5h0.5l0.5-0.1l0.5-0.1l0.5-0.2l0.4-0.2l0.4-0.3
	l0.2-0.1l0.2-0.2l0.4-0.3l0.3-0.4l0.3-0.4l0.2-0.4l0.2-0.5l0.1-0.5v-0.1l0.1-0.4V209v-0.5l-0.1-0.5l-0.1-0.5L157,207L157,206.5
	 M151.3,289.5l-0.5,0.2l-0.5,0.2l-0.4,0.2l-0.1,0.1l-0.3,0.2l-0.4,0.3l-0.3,0.3l0,0l-0.3,0.4l-0.3,0.4l-0.2,0.4l-0.2,0.5l-0.1,0.5
	l-0.1,0.5v0.5v0.5l0.1,0.5l0.1,0.5l0.2,0.5l0.2,0.4l0.2,0.3l0.1,0.2l0.3,0.4l0.4,0.3l0.4,0.3l0.1,0.1l0.3,0.2l0.4,0.2l0.5,0.2
	l0.5,0.1l0.5,0.1h0.5h0.5l0.5-0.1l0.5-0.1l0.5-0.2l0.4-0.2l0.4-0.3l0.4-0.3l0.4-0.3l0.3-0.4l0.1-0.2l0.2-0.3l0.2-0.4l0.2-0.5
	l0.1-0.5l0.1-0.5v-0.5v-0.5l-0.1-0.5l-0.1-0.5l-0.2-0.5l-0.2-0.4l-0.3-0.4L156,291l0,0l-0.3-0.3l-0.4-0.3l-0.4-0.3l-0.4-0.2
	l-0.5-0.2l-0.5-0.2l-0.5-0.1l-0.5-0.1H152l-0.5,0.1L151.3,289.5 M157.1,341.1l-0.3-0.7l-0.4-0.6l-0.5-0.6l-0.6-0.5l-0.6-0.4L154,338
	l-0.7-0.2l-0.8-0.1l-0.8,0.1L151,338l-0.7,0.3l-0.4,0.3l-0.2,0.1l-0.6,0.5l-0.5,0.6l-0.4,0.6l-0.3,0.7l-0.2,0.7l-0.1,0.8l0.1,0.7
	v0.1l0.2,0.7l0.3,0.7l0.4,0.6l0.5,0.6l0.6,0.5l0.2,0.1l0.4,0.3l0.7,0.3l0.7,0.2l0.8,0.1l0.8-0.1l0.7-0.2l0.7-0.3l0.6-0.4l0.6-0.5
	l0.5-0.6l0.4-0.6l0.3-0.7l0.2-0.7v-0.1l0.1-0.7l-0.1-0.8L157.1,341.1 M151.8,451.2l-0.7,0.2l-0.7,0.3L150,452l-0.2,0.1l-0.6,0.5
	l-0.5,0.6l-0.4,0.6l-0.3,0.7l-0.2,0.7l-0.1,0.8l0.1,0.8l0.2,0.7l0.3,0.7l0.4,0.6l0.5,0.6l0.1,0.1l0.5,0.4l0.2,0.1l0.4,0.3l0.7,0.3
	l0.7,0.2l0.8,0.1l0.8-0.1l0.7-0.2l0.7-0.3l0.6-0.4l0.5-0.4l0.1-0.1l0.5-0.6l0.4-0.6l0.3-0.7l0.2-0.7l0.1-0.8l-0.1-0.8l-0.2-0.7
	l-0.3-0.7l-0.1-0.1l-0.3-0.5l-0.5-0.6l-0.6-0.5l-0.6-0.4l-0.7-0.3l-0.7-0.2l-0.8-0.1L151.8,451.2 M103.5,132l2.1,2.3l4.6,4.9
	l4.6-4.9l9.2-9.8l0.6-0.6V93.4l-7.5-8l-1.2-1.3l-5.6-6l-6.8,7.3l-7.5,8v30.5l0.6,0.6L103.5,132 M126.7,180.6l5.7-3.3l0.2-0.1v-8.1
	v-1.3l-0.2-0.1l-5.7-3.3l-2.4-1.4l-8.2,4.7v0.1v6.6v2.7l6,3.5l2.2,1.3l2.2-1.3L126.7,180.6L126.7,180.6 M118.2,159.5v-2v-7.1l-8-4.6
	l-6.7,3.9l-1.3,0.7v7.1v2.4l1.3,0.7l6.7,3.9l5.9-3.4l2.1-1.2V159.5 M118.2,183.7l-5.1-3l-2.8-1.6l-2.8,1.6l-3.9,2.2l-1.3,0.7v9.5
	l1.3,0.7l0.1,0.1l6.6,3.8l8-4.6v-7.7L118.2,183.7 M88.8,167.3l-0.9,0.5v9.5l0.9,0.5l5.1,2.9l2.2,1.3l2.2-1.3l5.2-3l0.8-0.5v-6.8
	v-2.7l-0.8-0.5l-7.4-4.3L88.8,167.3 M103.5,316.6l6,3.4l0.8,0.4l0.8-0.4l7.2-4.2v-0.4v-9.1l-8-4.6l-6.7,3.9l-1.3,0.7v9.1v0.4
	L103.5,316.6 M126.7,336.6l5.7-3.3l0.2-0.1v-9.5l-0.2-0.1l-5.7-3.3l-0.6-0.3l-1.8-1l-1.8,1l-6.4,3.7v9.5l2.1,1.2l6.1,3.5
	L126.7,336.6 M118.2,339.7l-8-4.6l-6.7,3.9l-1.3,0.7v3.6v5.9l1.3,0.7l6.7,3.9l8-4.6v-5.9v-1.8V339.7 M104.3,323.8l-0.8-0.5l-5.6-3.2
	l-1.8-1l-1.8,1l-5.5,3.2l-0.9,0.5v9.5l0.9,0.5l7.3,4.2l7.4-4.3l0.8-0.5v-2.7V323.8L104.3,323.8 M124.4,388.1v-15.7v-1.1l-8.3-4.8
	l-5.9-3.4l-5.9,3.4l-0.8,0.5l-7.5,4.3v1.1v15.7l7.5,4.3l6.7,3.9L124.4,388.1 M119,401.4V413v1.4v1l5.4,3.1l6.9,4l0,0V413v-4.4v-14.3
	l0,0L119,401.4L119,401.4 M125.9,61.5l-2.7-1.6l-1.8,1l-4.4,2.6l-1.1,0.6v2.3v5.7v0.5l7.3,4.2l7.3-4.2v-8.5L125.9,61.5 M110.2,57.1
	l5.6-5.3l5.5-5.2v-21l-2.5-2.3l-8.7-8.1l-6.7,6.3l-2,1.8L99,25.7v21l6.1,5.7L110.2,57.1 M105.1,64.1L99,60.6l-1.2-0.7l-2,1.1
	l-5.4,3.1v8.5l5.4,3.1l2,1.1l1.2-0.7l6.1-3.5V64.1 M137.5,85.3h0.5h0.3h0.2l0.5-0.1l0.5-0.1l0.4-0.2l0.4-0.2l0.4-0.2l0.4-0.3
	l0.4-0.3l0.3-0.4l0.3-0.4l0.2-0.4l0.2-0.4l0.1-0.3v-0.1l0.1-0.5l0.1-0.5v-0.5v-0.5l-0.1-0.5l-0.1-0.4l0,0l-0.2-0.4l-0.2-0.4
	l-0.2-0.4l-0.3-0.4l-0.3-0.4l-0.4-0.3l-0.4-0.3l-0.4-0.2h-0.1l-0.4-0.2l-0.4-0.2l-0.5-0.1l-0.5-0.1h-0.5h-0.5l-0.5,0.1l-0.5,0.1
	l-0.4,0.2l-0.4,0.2h-0.1l-0.4,0.2l-0.4,0.3l-0.4,0.3l-0.3,0.4l-0.3,0.4l-0.2,0.4l-0.2,0.4L133,79l0,0l-0.1,0.4l-0.1,0.5v0.5v0.5
	l0.1,0.5l0.1,0.5V82l0.1,0.3l0.2,0.4l0.2,0.4l0.3,0.4l0.3,0.4l0.4,0.3l0.4,0.3l0.4,0.2l0.4,0.2l0.4,0.2l0.5,0.1L137.5,85.3
	 M135.3,17.2l0.1,0.1l0.3,0.2l0.4,0.2l0.5,0.1l0.5,0.1h0.5h0.5h0.3h0.2l0.5-0.1l0.4-0.2l0.4-0.2l0.4-0.2l0.4-0.3l0.3-0.3l0.3-0.3
	l0.3-0.4l0.2-0.4l0,0l0.2-0.4l0.2-0.4l0.1-0.5l0.1-0.5v-0.5v-0.5v-0.1l-0.1-0.3l-0.1-0.5l-0.2-0.4l-0.2-0.4l-0.2-0.4l-0.3-0.4
	L141,9.9l-0.3-0.3L140.2,9l-0.4-0.2l-0.4-0.2L139,8.4l-0.5-0.1h-0.2H138h-0.5H137l-0.5,0.1L136,8.5l-0.4,0.2l-0.3,0.2L135.2,9h-0.3
	l-0.4,0.3l-0.3,0.3l-0.3,0.3l-0.3,0.4l-0.2,0.4l-0.2,0.4l-0.2,0.4l-0.1,0.5l-0.1,0.3v0.1v0.5v0.5l0.1,0.5l0.1,0.5l0.2,0.4l0.2,0.4
	l0.2,0.4l0.3,0.4l0.3,0.3l0.3,0.3l0.4,0.3L135.3,17.2 M72.2,161.7l-0.3-0.7l-0.4-0.6l-0.5-0.6l-0.6-0.5l-0.6-0.4l-0.7-0.3l-0.5-0.1
	l-0.2-0.1l-0.8-0.1l-0.8,0.1l-0.7,0.2l-0.7,0.3l-0.6,0.4l-0.6,0.5l-0.5,0.6l-0.4,0.6l-0.3,0.7l-0.2,0.7l-0.1,0.8v0.1l0.1,0.7
	l0.2,0.7l0.3,0.7l0.4,0.6l0.5,0.6l0.6,0.5l0.6,0.4l0.7,0.3l0.7,0.2l0.8,0.1l0.8-0.1l0.2-0.1l0.5-0.1l0.7-0.3l0.6-0.4l0.6-0.5
	l0.5-0.6l0.4-0.6l0.3-0.7l0.2-0.7l0.1-0.7v-0.1l-0.1-0.8L72.2,161.7 M71.9,206.5l-0.3-0.4l-0.3-0.4l-0.3-0.4l-0.4-0.3l-0.4-0.3
	l-0.4-0.2l-0.5-0.2l-0.5-0.2h-0.2l-0.3-0.1l-0.5-0.1h-0.5l-0.5,0.1l-0.5,0.1l-0.5,0.2l-0.5,0.2l-0.4,0.2l-0.4,0.3l-0.4,0.3l-0.3,0.4
	l-0.3,0.4l-0.3,0.4l-0.2,0.3l-0.1,0.1l-0.2,0.5l-0.1,0.5l-0.1,0.5v0.5v0.5l0.1,0.4v0.1l0.1,0.5l0.2,0.5l0.2,0.4l0.3,0.4l0.3,0.4
	l0.4,0.3l0.4,0.3l0,0l0.4,0.3l0.4,0.2l0.5,0.2l0.5,0.1l0.5,0.1h0.5h0.5l0.5-0.1l0,0l0.4-0.1l0.5-0.2l0.4-0.2l0.4-0.3l0.4-0.3
	l0.4-0.3l0.3-0.4l0.3-0.4l0.2-0.4l0.2-0.5l0.1-0.5v-0.1l0.1-0.4v-0.5v-0.5l-0.1-0.5l-0.1-0.5l-0.2-0.5L71.9,206.5 M69.1,289.5
	l-0.4-0.1h-0.1l-0.5-0.1h-0.5l-0.5,0.1l-0.5,0.1l-0.5,0.2l-0.5,0.2l-0.4,0.2l-0.4,0.3l-0.4,0.3l-0.3,0.3l0,0l-0.3,0.4l-0.3,0.4
	l-0.2,0.4l-0.2,0.5l-0.1,0.5l-0.1,0.5v0.5v0.5l0.1,0.5l0.1,0.5l0.2,0.5l0.2,0.4l0.2,0.3L64,297l0.3,0.4l0.4,0.3l0.4,0.3l0.4,0.3
	l0.4,0.2l0.5,0.2l0.5,0.1l0.5,0.1h0.5h0.5h0.3h0.2l0.5-0.1l0.5-0.2l0.4-0.2l0.4-0.3l0.4-0.3l0.4-0.3l0.3-0.4l0.1-0.2l0.2-0.3
	l0.2-0.4l0.2-0.5l0.1-0.5l0.1-0.5v-0.5v-0.5l-0.1-0.5l-0.1-0.5l-0.2-0.5l-0.2-0.4l-0.3-0.4l-0.3-0.4l0,0l-0.3-0.3l-0.4-0.3l-0.4-0.3
	l-0.4-0.2l-0.5-0.2L69.1,289.5 M72.4,341.9l-0.2-0.7l-0.3-0.7l-0.4-0.6l-0.5-0.6l-0.6-0.5l-0.6-0.4l-0.7-0.3l-0.5-0.1l-0.2-0.1
	l-0.8-0.1l-0.8,0.1l-0.7,0.2l-0.7,0.3l-0.6,0.4l-0.6,0.5l-0.5,0.6l-0.4,0.6l-0.3,0.7l-0.2,0.7l-0.1,0.8l0.1,0.7v0.1l0.2,0.7l0.3,0.7
	l0.4,0.6l0.5,0.6l0.6,0.5l0.6,0.4l0.7,0.3l0.7,0.2l0.8,0.1l0.8-0.1l0.2-0.1l0.5-0.1l0.7-0.3l0.6-0.4l0.6-0.5l0.5-0.6l0.4-0.6
	l0.3-0.7l0.2-0.7v-0.1l0.1-0.7L72.4,341.9 M76.5,432.9h0.7h3.6v-5.6v-11.4h-3.6h-0.7v13.8V432.9 M71.9,453.7l-0.4-0.6l-0.5-0.6
	l-0.6-0.5l-0.6-0.4l-0.7-0.3l-0.5-0.1l-0.2-0.1l-0.8-0.1l-0.8,0.1l-0.7,0.2l-0.7,0.3l-0.6,0.4l-0.6,0.5l-0.5,0.6l-0.3,0.5l-0.1,0.1
	l-0.3,0.7l-0.2,0.7l-0.1,0.8l0.1,0.8l0.2,0.7l0.3,0.7l0.4,0.6l0.5,0.6l0.1,0.1l0.5,0.4l0.6,0.4l0.7,0.3l0.7,0.2l0.8,0.1l0.8-0.1
	l0.7-0.2l0.7-0.3l0.6-0.4l0.5-0.4l0.1-0.1l0.5-0.6l0.4-0.6l0.3-0.7l0.2-0.7l0.1-0.8l-0.1-0.8l-0.2-0.7L71.9,453.7 M81.8,85.3h0.5
	h0.5l0.4-0.1h0.1l0.5-0.1l0.4-0.2l0.4-0.2l0.4-0.2l0.4-0.3l0.4-0.3l0.3-0.4l0.1-0.1l0.2-0.3l0.2-0.4l0.1-0.1l0.1-0.3l0.1-0.3v-0.1
	l0.1-0.5l0.1-0.5v-0.5v-0.5L87,79.6l-0.1-0.5l-0.2-0.4l-0.1-0.3l-0.1-0.1l-0.2-0.4l-0.2-0.3L86,77.5l-0.3-0.4l-0.4-0.3L85,76.5
	l-0.4-0.2h-0.1l-0.4-0.2l-0.4-0.2l-0.5-0.1l-0.5-0.1h-0.5h-0.5l-0.5,0.1l-0.5,0.1l-0.4,0.2l-0.2,0.1l-0.1,0h-0.1l-0.4,0.2l-0.4,0.3
	L78.7,77l-0.3,0.4l-0.3,0.4L78,78.3l-0.2,0.4l-0.2,0.4l0,0l-0.1,0.4L77.4,80v0.5V81l0.1,0.5l0.1,0.5v0.1l0.1,0.3l0.2,0.4l0.2,0.4
	l0.3,0.4l0.3,0.4l0.4,0.3l0.4,0.3l0.4,0.2l0.3,0.1l0.2,0.1l0.4,0.2l0.5,0.1L81.8,85.3 M82.7,18.2h0.5h0.5h0.1l0.4-0.1l0.5-0.1
	l0.4-0.2l0.4-0.2l0.4-0.2l0.2-0.1l0.2-0.1l0.3-0.3l0.3-0.4l0.3-0.4l0.2-0.4l0.2-0.4l0.2-0.4l0.1-0.5l0.1-0.5v-0.5v-0.5l-0.1-0.5
	v-0.1L87.8,12l-0.2-0.4l-0.2-0.4l-0.2-0.4l-0.3-0.4L86.6,10l-0.3-0.3l-0.2-0.1l-0.2-0.1l-0.4-0.2L85,8.9l-0.4-0.2l-0.5-0.1l-0.5-0.1
	h-0.5h-0.5l-0.5,0.1l-0.5,0.1l-0.4,0.2l-0.4,0.2l-0.4,0.2l-0.3,0.2L80,9.6L79.8,10l-0.3,0.4l-0.3,0.4L79,11.1l-0.2,0.4L78.6,12
	l-0.1,0.4v0.1L78.4,13v0.5V14l0.1,0.5l0.1,0.5l0.2,0.4l0.2,0.4l0.2,0.4l0.3,0.4l0.3,0.4l0.3,0.3l0.1,0.1l0.3,0.2l0.4,0.2l0.4,0.2
	l0.4,0.2l0.5,0.1l0.4,0.1L82.7,18.2 M144.1,432.9v-17H144h-0.7h-3.4v17h3.4h0.7H144.1 M124.4,427.7l-14.2-8.2l-6.7,3.9l-7.5,4.3v8.5
	v8.3l7.5,4.3l6.7,3.9l14.2-8.2v-8.3V427.7 M89,394.2V413v9.5l0,0l12.3-7.1V413v-11.7L89,394.2L89,394.2 M143.9,393.8v-21.3h-0.6
	h-3.6v21.3h3.6H143.9 M76.3,372.4v21.3h0.9h3.4v-14.6v-6.8h-3.4h-0.9 M77.6,138.4L77.6,138.4 M78.3,140.1L78.3,140.1L78.3,140.1
	 M86.6,285.2h-0.3H86.6z"/>
</svg>
