<?xml version="1.0" standalone="no"?>
<!DOCTYPE svg PUBLIC "-//W3C//DTD SVG 1.1//EN"
  "http://www.w3.org/Graphics/SVG/1.1/DTD/svg11.dtd">
<svg width="38.001007080078125mm" height="160.17678833007807mm" viewBox="189.7949981689453 312.3999938964843 38.001007080078125 160.17678833007807" xmlns="http://www.w3.org/2000/svg" version="1.1">
	<title>svgOutput</title>
	<desc>Yellowjacket</desc>
<path d="M 194.7969970703125 416.52899169921864 L 195.3260040283203 416.52899169921864 L 195.88600158691406 416.52899169921864 L 195.88600158691406 411.5392150878905 L 195.88600158691406 405.7558593749999 L 195.88600158691406 402.498565673828 L 195.88600158691406 400.77398681640614 L 195.3260040283203 400.77398681640614 L 192.88099670410156 400.77398681640614 L 192.88099670410156 400.7810058593749 L 192.79200744628906 400.7810058593749 L 192.79200744628906 416.5360107421874 L 194.7969970703125 416.5360107421874 L 194.7969970703125 416.52899169921864 M 194.7969970703125 397.02899169921864 L 195.3260040283203 397.02899169921864 L 195.88600158691406 397.02899169921864 L 195.88600158691406 375.0239868164062 L 195.3260040283203 375.0239868164062 L 192.88099670410156 375.0239868164062 L 192.88099670410156 375.03100585937494 L 192.79200744628906 375.03100585937494 L 192.79200744628906 397.0360107421874 L 192.88099670410156 397.0360107421874 L 194.7969970703125 397.0360107421874 L 194.7969970703125 397.02899169921864 M 190.7949981689453 357.43569946289057 L 192.11700439453125 356.76855468749994 L 192.12100219726562 356.7665405273437 L 192.28900146484375 356.68176269531244 L 192.29200744628906 356.6802368164062 L 195.3260040283203 355.1491394042968 L 195.3300018310547 355.14709472656244 L 195.88600158691406 354.8665161132812 L 195.9980010986328 354.8099975585937 L 195.9980010986328 347.54165649414057 L 195.9980010986328 347.5374450683593 L 195.9980010986328 346.0249938964843 L 195.9980010986328 345.8182067871093 L 195.9980010986328 339.5722045898437 L 195.9980010986328 337.2415161132812 L 195.9980010986328 332.79455566406244 L 195.9980010986328 324.0180053710937 L 195.9980010986328 320.3436889648437 L 195.9980010986328 315.2563171386718 L 196.12399291992188 315.19470214843744 L 196.968994140625 314.7815856933593 L 197.6020050048828 314.4721374511718 L 198.26499938964844 314.1480102539062 L 198.35699462890625 314.10302734374994 L 199.7949981689453 313.3999938964843 L 201.0070037841797 313.3999938964843 L 202.7030029296875 313.3999938964843 L 203.01126098632812 313.3999938964843 L 204.29299926757812 314.14013671874994 L 204.29299926757812 319.4318542480468 L 204.29299926757812 320.2780151367187 L 204.43899536132812 320.38952636718744 L 206.22610473632812 321.75466918945307 L 206.80909729003906 322.2000122070312 L 208.7830047607422 323.7078247070312 L 208.7830047607422 323.70706176757807 L 208.79550170898438 323.7166137695312 L 208.80799865722656 323.70706176757807 L 208.80799865722656 323.7078247070312 L 210.7819061279297 322.2000122070312 L 211.3642120361328 321.7551879882812 L 213.1020050048828 320.42773437499994 L 213.15199279785156 320.38952636718744 L 213.29800415039062 320.2780151367187 L 213.29800415039062 319.4318542480468 L 213.29800415039062 314.23196411132807 L 213.29800415039062 314.14013671874994 L 213.84913635253906 313.82189941406244 L 214.57974243164062 313.3999938964843 L 214.73873901367188 313.3999938964843 L 215.0469970703125 313.3999938964843 L 216.94900512695312 313.3999938964843 L 217.7949981689453 313.3999938964843 L 217.79600524902344 313.3999938964843 L 219.3520050048828 314.1607055664062 L 219.44500732421875 314.20617675781244 L 220.6479949951172 314.79431152343744 L 220.74099731445312 314.8397827148437 L 221.59300231933594 315.2563171386718 L 221.59300231933594 315.2568054199218 L 221.59300231933594 320.3432006835937 L 221.59300231933594 320.3436889648437 L 221.59300231933594 322.2000122070312 L 221.59300231933594 332.85681152343744 L 221.59300231933594 339.5722045898437 L 221.59300231933594 345.8182067871093 L 221.59300231933594 347.5380249023437 L 221.59300231933594 347.5410766601562 L 221.59300231933594 354.9100036621093 L 221.70399475097656 354.9660034179687 L 222.26100158691406 355.24707031249994 L 222.26400756835938 355.2485961914062 L 222.28900146484375 355.2611999511718 L 222.29200744628906 355.26272583007807 L 225.29800415039062 356.7795104980468 L 225.302001953125 356.7815551757812 L 225.47500610351562 356.8688354492187 L 226.7949981689453 357.53491210937494 L 226.79600524902344 357.53540039062494 L 226.79600524902344 361.07058715820307 L 226.79600524902344 450.6000061035155 L 226.79600524902344 463.79998779296864 L 226.79600524902344 468.20001220703114 L 226.79600524902344 468.20050048828114 L 226.79600524902344 468.28399658203114 L 226.62417602539062 468.28399658203114 L 220.74099731445312 471.16021728515614 L 220.6479949951172 471.2056884765624 L 220.0050048828125 471.520050048828 L 219.888916015625 471.5767822265624 L 219.8885040283203 471.57650756835926 L 219.3520050048828 471.2011718749999 L 217.98899841308594 470.24761962890614 L 217.98899841308594 463.89483642578114 L 217.98899841308594 463.89434814453114 L 217.98899841308594 463.79998779296864 L 217.98899841308594 460.970001220703 L 212.88623046875 457.40032958984364 L 208.79550170898438 454.53863525390614 L 204.7045135498047 457.40020751953114 L 199.6009979248047 460.970001220703 L 199.6009979248047 463.79998779296864 L 199.6009979248047 463.89483642578114 L 199.6009979248047 470.24761962890614 L 198.35699462890625 471.1179199218749 L 198.26499938964844 471.1822814941405 L 197.7014923095703 471.57650756835926 L 197.5850067138672 471.519561767578 L 196.968994140625 471.2184143066405 L 196.12399291992188 470.8052978515624 L 190.96681213378906 468.28399658203114 L 190.7949981689453 468.28399658203114 L 190.7949981689453 468.20001220703114 L 190.7949981689453 463.79998779296864 L 190.7949981689453 450.6000061035155 L 190.7949981689453 360.97009277343744 L 190.7949981689453 357.43569946289057 M 208.7830047607422 361.5816345214843 L 208.7949981689453 361.5885620117187 L 208.80799865722656 361.58105468749994 L 208.80799865722656 361.59606933593744 L 208.82000732421875 361.6029968261718 L 210.9759979248047 360.35867309570307 L 211.66700744628906 359.95986938476557 L 211.7169952392578 359.9309997558593 L 211.7169952392578 359.86901855468744 L 211.7169952392578 356.58499145507807 L 211.66700744628906 356.55615234374994 L 211.4709930419922 356.44302368164057 L 210.9759979248047 356.1573181152343 L 208.82000732421875 354.91299438476557 L 208.80799865722656 354.91992187499994 L 208.80799865722656 354.93493652343744 L 208.7949981689453 354.9274291992187 L 208.7830047607422 354.93435668945307 L 208.7830047607422 354.9205017089843 L 208.77000427246094 354.91299438476557 L 206.61500549316406 356.15676879882807 L 205.8730010986328 356.58499145507807 L 205.8730010986328 359.9309997558593 L 206.61500549316406 360.35925292968744 L 208.77000427246094 361.6029968261718 L 208.7830047607422 361.59548950195307 L 208.7830047607422 361.5816345214843 M 208.7830047607422 346.3878784179687 L 208.7949981689453 346.3948364257812 L 208.80799865722656 346.38732910156244 L 208.80799865722656 346.40234374999994 L 208.822998046875 346.41101074218744 L 210.9759979248047 345.1672973632812 L 211.4709930419922 344.88134765624994 L 211.52699279785156 344.84899902343744 L 211.52699279785156 341.7269897460937 L 211.4709930419922 341.6946716308593 L 210.9759979248047 341.4089050292968 L 210.6959991455078 341.2472839355468 L 208.822998046875 340.1659851074218 L 208.80799865722656 340.1746520996093 L 208.80799865722656 340.1896667480468 L 208.7949981689453 340.18215942382807 L 208.7830047607422 340.18908691406244 L 208.7830047607422 340.1752319335937 L 208.76699829101562 340.1659851074218 L 206.8939971923828 341.2472839355468 L 206.61500549316406 341.40832519531244 L 206.06300354003906 341.7269897460937 L 206.06300354003906 344.84899902343744 L 206.61500549316406 345.16787719726557 L 208.76699829101562 346.41101074218744 L 208.7830047607422 346.40176391601557 L 208.7830047607422 346.3878784179687 M 208.7830047607422 335.43090820312494 L 208.7949981689453 335.4378356933593 L 208.80799865722656 335.43032836914057 L 208.80799865722656 335.44534301757807 L 208.822998046875 335.45401000976557 L 210.8350067138672 334.29174804687494 L 210.9759979248047 334.2102966308593 L 211.4709930419922 333.92434692382807 L 211.52699279785156 333.89199829101557 L 211.52699279785156 330.7699890136718 L 211.4709930419922 330.73767089843744 L 210.9759979248047 330.45190429687494 L 210.8350067138672 330.37051391601557 L 210.1739959716797 329.98892211914057 L 208.822998046875 329.20901489257807 L 208.80799865722656 329.21765136718744 L 208.80799865722656 329.23266601562494 L 208.7949981689453 329.2251586914062 L 208.7830047607422 329.23208618164057 L 208.7830047607422 329.2182312011718 L 208.76699829101562 329.20901489257807 L 207.41700744628906 329.9883422851562 L 206.75599670410156 330.3699340820312 L 206.61500549316406 330.45132446289057 L 206.06300354003906 330.7699890136718 L 206.06300354003906 333.89199829101557 L 206.61500549316406 334.2108764648437 L 206.75599670410156 334.2923278808593 L 208.76699829101562 335.45401000976557 L 208.7830047607422 335.4447631835937 L 208.7830047607422 335.43090820312494 M 208.7830047607422 421.7003479003905 L 208.7830047607422 421.68649291992176 L 208.77000427246094 421.678985595703 L 206.75399780273438 422.8425292968749 L 205.8730010986328 423.35101318359364 L 205.8730010986328 423.9164123535155 L 205.8730010986328 425.77999877929676 L 205.8730010986328 425.8129882812499 L 205.8730010986328 426.69601440429676 L 205.92300415039062 426.724884033203 L 208.77000427246094 428.36898803710926 L 208.7830047607422 428.3614807128905 L 208.7830047607422 428.34762573242176 L 208.7949981689453 428.35455322265614 L 208.80799865722656 428.3470458984374 L 208.80799865722656 428.3620605468749 L 208.82000732421875 428.36898803710926 L 211.66700744628906 426.724884033203 L 211.7169952392578 426.69601440429676 L 211.7169952392578 425.8129882812499 L 211.7169952392578 425.77999877929676 L 211.7169952392578 423.9169921874999 L 211.7169952392578 423.35101318359364 L 210.83700561523438 422.84310913085926 L 208.82000732421875 421.678985595703 L 208.80799865722656 421.6859130859374 L 208.80799865722656 421.7009277343749 L 208.7949981689453 421.69342041015614 L 208.7830047607422 421.7003479003905 M 208.7830047607422 416.60763549804676 L 208.7949981689453 416.61456298828114 L 208.80799865722656 416.6070556640624 L 208.80799865722656 416.6220703124999 L 208.82000732421875 416.62899780273426 L 210.9759979248047 415.3846740722655 L 211.66700744628906 414.985870361328 L 211.7169952392578 414.95700073242176 L 211.7169952392578 414.8950195312499 L 211.7169952392578 411.61199951171864 L 211.66700744628906 411.5831298828124 L 211.6389617919922 411.566925048828 L 208.82000732421875 409.938995361328 L 208.80799865722656 409.9459228515624 L 208.80799865722656 409.9609374999999 L 208.7949981689453 409.95343017578114 L 208.7830047607422 409.9603576660155 L 208.7830047607422 409.94650268554676 L 208.77000427246094 409.938995361328 L 207.66696166992188 410.57598876953114 L 205.9515380859375 411.5666503906249 L 205.8730010986328 411.61199951171864 L 205.8730010986328 414.95700073242176 L 206.61500549316406 415.3852539062499 L 208.77000427246094 416.62899780273426 L 208.7830047607422 416.6214904785155 L 208.7830047607422 416.60763549804676 M 208.7830047607422 373.3216247558593 L 208.7949981689453 373.3285522460937 L 208.80799865722656 373.32104492187494 L 208.80799865722656 373.33605957031244 L 208.82000732421875 373.3429870605468 L 211.66700744628906 371.69888305664057 L 211.7169952392578 371.6700134277343 L 211.7169952392578 368.3250122070312 L 211.66700744628906 368.29614257812494 L 210.83700561523438 367.8171081542968 L 208.82000732421875 366.6530151367187 L 208.80799865722656 366.65991210937494 L 208.80799865722656 366.67492675781244 L 208.7949981689453 366.6674194335937 L 208.7830047607422 366.67434692382807 L 208.7830047607422 366.6604919433593 L 208.77000427246094 366.6530151367187 L 206.75399780273438 367.81652832031244 L 205.92300415039062 368.29614257812494 L 205.8730010986328 368.3250122070312 L 205.8730010986328 371.6700134277343 L 205.92300415039062 371.69888305664057 L 208.77000427246094 373.3429870605468 L 208.7830047607422 373.33547973632807 L 208.7830047607422 373.3216247558593 M 211.64100646972656 392.26400756835926 L 211.66700744628906 392.33966064453114 L 211.7169952392578 392.48516845703114 L 211.80799865722656 392.7499999999999 L 211.8658905029297 393.09600830078114 L 211.88597106933594 393.21600341796864 L 211.89300537109375 393.25799560546864 L 211.89300537109375 393.77301025390614 L 211.80799865722656 394.2810058593749 L 211.7169952392578 394.54635620117176 L 211.66700744628906 394.692169189453 L 211.64100646972656 394.76800537109364 L 211.39599609375 395.220001220703 L 211.0800018310547 395.62701416015614 L 210.7010040283203 395.9750061035155 L 210.41671752929688 396.1610107421874 L 210.27000427246094 396.2569885253905 L 209.7989959716797 396.4639892578124 L 209.75144958496094 396.47601318359364 L 209.66400146484375 396.498077392578 L 209.61500549316406 396.51046752929676 L 209.61500549316406 396.5642089843749 L 209.61500549316406 397.3120117187499 L 209.61500549316406 398.13510131835926 L 209.66400146484375 398.1227111816405 L 210.2964324951172 397.962921142578 L 210.31199645996094 397.959014892578 L 211.0229949951172 397.647003173828 L 211.5357666015625 397.3120117187499 L 211.66700744628906 397.22625732421864 L 211.6719970703125 397.22299194335926 L 211.7169952392578 397.1815490722655 L 212.2429962158203 396.69699096679676 L 212.5320281982422 396.32537841796864 L 212.65988159179688 396.1610107421874 L 212.718994140625 396.084991455078 L 212.94424438476562 395.6697998046874 L 212.99200439453125 395.5817871093749 L 213.08900451660156 395.40301513671864 L 213.34100341796875 394.66900634765614 L 213.46800231933594 393.90301513671864 L 213.46800231933594 393.21600341796864 L 213.46800231933594 393.12799072265614 L 213.4626922607422 393.09600830078114 L 213.34100341796875 392.36199951171864 L 213.08900451660156 391.62899780273426 L 212.99200439453125 391.4499511718749 L 212.718994140625 390.94601440429676 L 212.2429962158203 390.334014892578 L 211.7169952392578 389.850372314453 L 211.6719970703125 389.8089904785155 L 211.66700744628906 389.80572509765614 L 211.27207946777344 389.5471191406249 L 211.0229949951172 389.38400268554676 L 210.58563232421875 389.19268798828114 L 210.41944885253906 389.1199951171874 L 210.31199645996094 389.0729980468749 L 209.61500549316406 388.89596557617176 L 209.61500549316406 389.1199951171874 L 209.61500549316406 389.52276611328114 L 209.61500549316406 390.05596923828114 L 209.61500549316406 390.34542846679676 L 209.61500549316406 390.48751831054676 L 209.61500549316406 390.52117919921864 L 209.7989959716797 390.5679931640624 L 210.27000427246094 390.77398681640614 L 210.7010040283203 391.05599975585926 L 211.0800018310547 391.40499877929676 L 211.39599609375 391.81100463867176 L 211.64100646972656 392.26400756835926 M 211.44900512695312 405.99398803710926 L 211.66700744628906 406.607940673828 L 211.7169952392578 406.74874877929676 L 212.16407775878906 408.0078124999999 L 212.7294464111328 409.6000061035155 L 212.99200439453125 410.339385986328 L 213.0050048828125 410.376007080078 L 213.70191955566406 410.376007080078 L 214.8459930419922 410.376007080078 L 214.64620971679688 409.83087158203114 L 213.66114807128906 407.14324951171864 L 212.99200439453125 405.3175354003905 L 211.7169952392578 401.83880615234364 L 211.66700744628906 401.7023925781249 L 211.55909729003906 401.407989501953 L 211.4374237060547 401.07598876953114 L 210.96205139160156 399.77899169921864 L 209.66400146484375 399.77899169921864 L 209.66400146484375 400.899444580078 L 209.66400146484375 400.9113769531249 L 209.83702087402344 401.407989501953 L 210.8780059814453 404.3959960937499 L 209.66400146484375 404.3959960937499 L 209.66400146484375 405.99398803710926 L 211.43472290039062 405.99398803710926 L 211.44900512695312 405.99398803710926 M 207.86199951171875 385.2969970703124 L 207.02569580078125 385.02398681640614 L 206.99200439453125 385.01300048828114 L 206.31700134277344 384.53900146484364 L 205.8730010986328 383.92944335937494 L 205.84500122070312 383.89099121093744 L 205.56100463867188 383.0859985351562 L 205.4669952392578 382.1229858398437 L 205.4669952392578 380.92800903320307 L 205.4669952392578 380.32998657226557 L 204.8000030517578 380.32998657226557 L 203.76600646972656 380.32998657226557 L 203.61900329589844 380.32998657226557 L 203.61900329589844 382.0440063476562 L 203.65699768066406 382.7479858398437 L 203.76600646972656 383.3864135742187 L 203.7689971923828 383.4039916992187 L 203.95700073242188 384.01400756835926 L 204.2169952392578 384.5790100097655 L 204.50869750976562 385.02398681640614 L 204.5500030517578 385.08700561523426 L 204.8000030517578 385.36483764648426 L 204.95399475097656 385.5360107421874 L 205.42799377441406 385.92401123046864 L 205.8730010986328 386.19000244140614 L 205.97000122070312 386.24798583984364 L 206.58099365234375 386.50799560546864 L 207.2689971923828 386.69699096679676 L 207.98300170898438 386.80523681640614 L 207.98300170898438 385.30780029296864 L 207.86199951171875 385.2969970703124 M 206.7530059814453 404.3959960937499 L 207.7837677001953 401.407989501953 L 207.99099731445312 400.8072814941405 L 207.99099731445312 399.77899169921864 L 206.6727752685547 399.77899169921864 L 206.0774383544922 401.407989501953 L 205.8730010986328 401.9674072265624 L 204.8000030517578 404.9034423828124 L 204.5805206298828 405.50399780273426 L 203.97227478027344 407.1683349609374 L 203.76600646972656 407.73275756835926 L 203.08360290527344 409.6000061035155 L 202.98974609375 409.8568115234374 L 202.85906982421875 410.214385986328 L 202.8000030517578 410.376007080078 L 203.76600646972656 410.376007080078 L 203.88906860351562 410.376007080078 L 204.61199951171875 410.376007080078 L 204.703857421875 410.11959838867176 L 204.8000030517578 409.85128784179676 L 204.89002990722656 409.6000061035155 L 205.45455932617188 408.02435302734364 L 205.8730010986328 406.8564453124999 L 206.1820068359375 405.99398803710926 L 207.99099731445312 405.99398803710926 L 207.99099731445312 404.3959960937499 L 206.75453186035156 404.3959960937499 L 206.7530059814453 404.3959960937499 M 207.30299377441406 396.2569885253905 L 207.15628051757812 396.1610107421874 L 206.8719940185547 395.9750061035155 L 206.49400329589844 395.62701416015614 L 206.177001953125 395.220001220703 L 205.9320068359375 394.76800537109364 L 205.8730010986328 394.5959472656249 L 205.76499938964844 394.2810058593749 L 205.67999267578125 393.77301025390614 L 205.67999267578125 393.25799560546864 L 205.68702697753906 393.21600341796864 L 205.7071075439453 393.09600830078114 L 205.76499938964844 392.7499999999999 L 205.8730010986328 392.4356994628905 L 205.9320068359375 392.26400756835926 L 206.177001953125 391.81100463867176 L 206.49400329589844 391.40499877929676 L 206.8719940185547 391.05599975585926 L 207.30299377441406 390.77398681640614 L 207.77499389648438 390.5679931640624 L 208.052001953125 390.49749755859364 L 208.052001953125 390.45916748046864 L 208.052001953125 390.33883666992176 L 208.052001953125 389.1199951171874 L 208.052001953125 388.87884521484364 L 208.01400756835938 388.8819885253905 L 207.26100158691406 389.0729980468749 L 207.15370178222656 389.1199951171874 L 206.55099487304688 389.38400268554676 L 205.9010009765625 389.8089904785155 L 205.8730010986328 389.83477783203114 L 205.54830932617188 390.13385009765614 L 205.33099365234375 390.334014892578 L 205.04132080078125 390.70565795898426 L 204.85400390625 390.94601440429676 L 204.8000030517578 391.04595947265614 L 204.48500061035156 391.62899780273426 L 204.23300170898438 392.36199951171864 L 204.1103515625 393.09600830078114 L 204.10499572753906 393.12799072265614 L 204.10499572753906 393.21600341796864 L 204.10499572753906 393.90301513671864 L 204.23300170898438 394.66900634765614 L 204.48500061035156 395.40301513671864 L 204.8000030517578 395.98519897460926 L 204.85400390625 396.084991455078 L 204.91323852539062 396.1610107421874 L 205.14459228515625 396.45782470703114 L 205.33099365234375 396.69699096679676 L 205.5479278564453 396.89718627929676 L 205.8730010986328 397.1971740722655 L 205.9010009765625 397.22299194335926 L 206.03744506835938 397.3120117187499 L 206.55099487304688 397.647003173828 L 207.26100158691406 397.959014892578 L 208.01400756835938 398.14898681640614 L 208.052001953125 398.15216064453114 L 208.052001953125 397.3120117187499 L 208.052001953125 396.692169189453 L 208.052001953125 396.585479736328 L 208.052001953125 396.5339355468749 L 207.77499389648438 396.4639892578124 L 207.30299377441406 396.2569885253905 M 211.75 384.16500854492176 L 211.7169952392578 384.20700073242176 L 211.66700744628906 384.2706298828124 L 211.50799560546875 384.47299194335926 L 211.20799255371094 384.74700927734364 L 210.8560028076172 384.9750061035155 L 210.7466278076172 385.02398681640614 L 210.45199584960938 385.1560058593749 L 210.0019989013672 385.2869873046874 L 209.6280059814453 385.34515380859364 L 209.6280059814453 385.3958740234374 L 209.6280059814453 385.525177001953 L 209.6280059814453 386.8132324218749 L 209.69900512695312 386.80999755859364 L 210.4810028076172 386.69100952148426 L 211.18499755859375 386.49398803710926 L 211.66700744628906 386.28326416015614 L 211.7169952392578 386.26141357421864 L 211.81399536132812 386.2189941406249 L 212.37100219726562 385.8819885253905 L 212.85699462890625 385.4840087890624 L 212.99200439453125 385.3315429687499 L 213.25900268554688 385.02999877929676 L 213.58700561523438 384.5270080566405 L 213.83900451660156 383.97399902343744 L 214.0260009765625 383.3729858398437 L 214.13900756835938 382.7430114746093 L 214.17599487304688 382.08401489257807 L 214.17599487304688 380.32998657226557 L 212.99200439453125 380.32998657226557 L 212.31399536132812 380.32998657226557 L 212.31399536132812 380.92800903320307 L 212.31399536132812 382.10998535156244 L 212.29100036621094 382.57800292968744 L 212.22300720214844 383.0199890136718 L 212.10899353027344 383.4360046386718 L 211.9510040283203 383.8200073242187 L 211.75 384.16500854492176 M 195.25279235839844 425.24203491210926 L 195.3260040283203 425.1228027343749 L 195.33999633789062 425.1000061035155 L 195.44200134277344 424.85299682617176 L 195.5050048828125 424.59298706054676 L 195.5260009765625 424.32699584960926 L 195.5050048828125 424.06100463867176 L 195.47471618652344 423.93600463867176 L 195.44200134277344 423.80099487304676 L 195.33999633789062 423.553985595703 L 195.3260040283203 423.53118896484364 L 195.1999969482422 423.32598876953114 L 195.1671905517578 423.2875061035155 L 195.02699279785156 423.12298583984364 L 194.82400512695312 422.95001220703114 L 194.79815673828125 422.93414306640614 L 194.5959930419922 422.80999755859364 L 194.55999755859375 422.79513549804676 L 194.51124572753906 422.77499389648426 L 194.3489990234375 422.7080078124999 L 194.08900451660156 422.6459960937499 L 193.822998046875 422.6249999999999 L 193.5570068359375 422.6459960937499 L 193.2969970703125 422.7080078124999 L 193.13475036621094 422.77499389648426 L 193.0500030517578 422.80999755859364 L 192.86085510253906 422.9261474609374 L 192.82200622558594 422.95001220703114 L 192.61900329589844 423.12298583984364 L 192.51199340820312 423.248565673828 L 192.47694396972656 423.2896728515624 L 192.4459991455078 423.32598876953114 L 192.30599975585938 423.553985595703 L 192.28900146484375 423.59515380859364 L 192.20399475097656 423.80099487304676 L 192.14199829101562 424.06100463867176 L 192.12100219726562 424.32699584960926 L 192.14199829101562 424.59298706054676 L 192.20399475097656 424.85299682617176 L 192.28900146484375 425.0588378906249 L 192.30599975585938 425.1000061035155 L 192.4459991455078 425.3280029296874 L 192.4535369873047 425.33685302734364 L 192.51199340820312 425.40545654296864 L 192.61900329589844 425.5310058593749 L 192.82200622558594 425.7040100097655 L 192.85165405273438 425.722198486328 L 192.99951171875 425.8129882812499 L 193.0500030517578 425.8439941406249 L 193.2969970703125 425.94601440429676 L 193.45382690429688 425.9840087890624 L 193.5570068359375 426.00900268554676 L 193.822998046875 426.02999877929676 L 194.08900451660156 426.00900268554676 L 194.19216918945312 425.9840087890624 L 194.3489990234375 425.94601440429676 L 194.55999755859375 425.85885620117176 L 194.5959930419922 425.8439941406249 L 194.646484375 425.8129882812499 L 194.82400512695312 425.7040100097655 L 194.9012451171875 425.6381835937499 L 195.02699279785156 425.5310058593749 L 195.1999969482422 425.3280029296874 L 195.25279235839844 425.24203491210926 M 192.45802307128906 362.05618286132807 L 192.51199340820312 362.1198120117187 L 192.61900329589844 362.24600219726557 L 192.82200622558594 362.4190063476562 L 192.8491973876953 362.43569946289057 L 193.01254272460938 362.53601074218744 L 193.0500030517578 362.55899047851557 L 193.2969970703125 362.66101074218744 L 193.5570068359375 362.7229919433593 L 193.822998046875 362.7439880371093 L 194.08900451660156 362.7229919433593 L 194.3489990234375 362.66101074218744 L 194.55999755859375 362.57385253906244 L 194.5959930419922 362.55899047851557 L 194.63345336914062 362.53601074218744 L 194.82400512695312 362.4190063476562 L 194.88568115234375 362.3664245605468 L 195.02699279785156 362.24600219726557 L 195.1999969482422 362.04199218749994 L 195.2448272705078 361.9693298339843 L 195.3260040283203 361.8377075195312 L 195.3300018310547 361.83120727539057 L 195.33999633789062 361.8150024414062 L 195.44200134277344 361.56799316406244 L 195.5050048828125 361.30801391601557 L 195.5260009765625 361.04199218749994 L 195.5050048828125 360.7749938964843 L 195.44200134277344 360.51599121093744 L 195.41392517089844 360.44799804687494 L 195.33999633789062 360.2690124511718 L 195.3300018310547 360.25271606445307 L 195.3260040283203 360.2461853027343 L 195.1999969482422 360.0409851074218 L 195.02699279785156 359.83801269531244 L 194.82400512695312 359.6640014648437 L 194.79437255859375 359.6459350585937 L 194.5959930419922 359.5249938964843 L 194.5330352783203 359.4989929199218 L 194.3489990234375 359.42300415039057 L 194.08900451660156 359.35998535156244 L 193.822998046875 359.33898925781244 L 193.5570068359375 359.35998535156244 L 193.2969970703125 359.42300415039057 L 193.1129608154297 359.4989929199218 L 193.0500030517578 359.5249938964843 L 192.84181213378906 359.6519165039062 L 192.82200622558594 359.6640014648437 L 192.61900329589844 359.83801269531244 L 192.51199340820312 359.9635620117187 L 192.4459991455078 360.0409851074218 L 192.30599975585938 360.2690124511718 L 192.29200744628906 360.30288696289057 L 192.28900146484375 360.31018066406244 L 192.23208618164062 360.44799804687494 L 192.20399475097656 360.51599121093744 L 192.14199829101562 360.7749938964843 L 192.12100219726562 361.04199218749994 L 192.14199829101562 361.30801391601557 L 192.20399475097656 361.56799316406244 L 192.28900146484375 361.77383422851557 L 192.29200744628906 361.7810974121093 L 192.30599975585938 361.8150024414062 L 192.4459991455078 362.04199218749994 L 192.45802307128906 362.05618286132807 M 192.30599975585938 463.5209960937499 L 192.29200744628906 463.55490112304676 L 192.20399475097656 463.76800537109364 L 192.1963653564453 463.79998779296864 L 192.14199829101562 464.02801513671864 L 192.12100219726562 464.29400634765614 L 192.14199829101562 464.55999755859364 L 192.20399475097656 464.82000732421864 L 192.29200744628906 465.0331115722655 L 192.30599975585938 465.06698608398426 L 192.4459991455078 465.29501342773426 L 192.45230102539062 465.3023986816405 L 192.51199340820312 465.3724365234374 L 192.61900329589844 465.49798583984364 L 192.82200622558594 465.67098999023426 L 192.82545471191406 465.673126220703 L 193.0500030517578 465.81100463867176 L 193.06936645507812 465.8190002441405 L 193.2969970703125 465.9129943847655 L 193.5570068359375 465.97601318359364 L 193.822998046875 465.99700927734364 L 194.08900451660156 465.97601318359364 L 194.3489990234375 465.9129943847655 L 194.57662963867188 465.8190002441405 L 194.5959930419922 465.81100463867176 L 194.82400512695312 465.67098999023426 L 194.84420776367188 465.65377807617176 L 195.02699279785156 465.49798583984364 L 195.1999969482422 465.29501342773426 L 195.21661376953125 465.2679443359374 L 195.3300018310547 465.083282470703 L 195.33999633789062 465.06698608398426 L 195.41061401367188 464.8959960937499 L 195.44200134277344 464.82000732421864 L 195.5050048828125 464.55999755859364 L 195.5260009765625 464.29400634765614 L 195.5050048828125 464.02801513671864 L 195.4497528076172 463.79998779296864 L 195.44200134277344 463.76800537109364 L 195.33999633789062 463.5209960937499 L 195.3300018310547 463.50469970703114 L 195.1999969482422 463.292999267578 L 195.16180419921875 463.2481689453124 L 195.02699279785156 463.0899963378905 L 194.82400512695312 462.9169921874999 L 194.77362060546875 462.88607788085926 L 194.7116241455078 462.84799194335926 L 194.60250854492188 462.7810058593749 L 194.5959930419922 462.7770080566405 L 194.3489990234375 462.67498779296864 L 194.08900451660156 462.61300659179676 L 193.822998046875 462.59201049804676 L 193.5570068359375 462.61300659179676 L 193.2969970703125 462.67498779296864 L 193.0500030517578 462.7770080566405 L 193.04348754882812 462.7810058593749 L 192.9343719482422 462.84799194335926 L 192.82200622558594 462.9169921874999 L 192.7899932861328 462.94427490234364 L 192.61900329589844 463.0899963378905 L 192.51199340820312 463.21554565429676 L 192.4459991455078 463.292999267578 L 192.30599975585938 463.5209960937499 M 196.88999938964844 458.1669921874999 L 196.968994140625 458.1669921874999 L 198.19500732421875 458.1669921874999 L 198.20199584960938 458.1669921874999 L 198.26499938964844 458.1669921874999 L 198.35699462890625 458.1669921874999 L 198.38499450683594 458.1669921874999 L 198.38499450683594 454.3106689453124 L 198.38499450683594 454.0196838378905 L 198.38499450683594 453.04107666015614 L 198.38499450683594 450.90899658203114 L 198.35699462890625 450.90899658203114 L 198.26499938964844 450.90899658203114 L 198.20199584960938 450.90899658203114 L 198.19500732421875 450.90899658203114 L 196.968994140625 450.90899658203114 L 196.88999938964844 450.90899658203114 L 196.86000061035156 450.90899658203114 L 196.86000061035156 450.91400146484364 L 196.86000061035156 451.2049865722655 L 196.86000061035156 453.56512451171864 L 196.86000061035156 458.11300659179676 L 196.86000061035156 458.1669921874999 L 196.88999938964844 458.1669921874999 M 203.7169952392578 361.0339965820312 L 201.11520385742188 362.53601074218744 L 200.81900024414062 362.7070007324218 L 200.81900024414062 366.05300903320307 L 203.7169952392578 367.7260131835937 L 206.61500549316406 366.05300903320307 L 206.61500549316406 365.1443481445312 L 206.61500549316406 362.7070007324218 L 206.31878662109375 362.53601074218744 L 205.8730010986328 362.2786560058593 L 203.7169952392578 361.0339965820312 M 204.66299438476562 328.9410095214843 L 206.48287963867188 327.89038085937494 L 206.61500549316406 327.81411743164057 L 206.75599670410156 327.7327270507812 L 207.36700439453125 327.38000488281244 L 207.36700439453125 325.9254760742187 L 207.36700439453125 325.90185546874994 L 207.36700439453125 324.25698852539057 L 204.66299438476562 322.6960144042968 L 202.89602661132812 323.71606445312494 L 201.95899963378906 324.25698852539057 L 201.95899963378906 325.2787780761718 L 201.95899963378906 327.38000488281244 L 204.66299438476562 328.9410095214843 M 211.4709930419922 336.11672973632807 L 210.9759979248047 336.40258789062494 L 210.8350067138672 336.48400878906244 L 210.8350067138672 337.2505798339843 L 210.8350067138672 339.0044860839843 L 210.8350067138672 339.60598754882807 L 210.9759979248047 339.68740844726557 L 211.4709930419922 339.97326660156244 L 211.66700744628906 340.08642578124994 L 213.5399932861328 341.16799926757807 L 216.2449951171875 339.60598754882807 L 216.2449951171875 336.48400878906244 L 215.7230987548828 336.18261718749994 L 213.5399932861328 334.92199707031244 L 211.66700744628906 336.00357055664057 L 211.52699279785156 336.0844116210937 L 211.4709930419922 336.11672973632807 M 211.1076202392578 327.8901062011718 L 211.4709930419922 328.09988403320307 L 211.66700744628906 328.21304321289057 L 212.92799377441406 328.9410095214843 L 213.22853088378906 328.7675170898437 L 214.20436096191406 328.2041625976562 L 215.58200073242188 327.4088745117187 L 215.6320037841797 327.38000488281244 L 215.6320037841797 325.27819824218744 L 215.6320037841797 324.25698852539057 L 215.58200073242188 324.22814941406244 L 214.69497680664062 323.71606445312494 L 212.92799377441406 322.6960144042968 L 212.86141967773438 322.7344360351562 L 210.9827117919922 323.81900024414057 L 210.2239990234375 324.25698852539057 L 210.2239990234375 324.27612304687494 L 210.2239990234375 325.90185546874994 L 210.2239990234375 325.9063110351562 L 210.2239990234375 327.29861450195307 L 210.2239990234375 327.38000488281244 L 210.8350067138672 327.7327270507812 L 210.9759979248047 327.81411743164057 L 211.1076202392578 327.8901062011718 M 210.9759979248047 420.43466186523426 L 210.9759979248047 421.0790100097655 L 213.80450439453125 422.71188354492176 L 213.87399291992188 422.75201416015614 L 214.66085815429688 422.29757690429676 L 216.77099609375 421.0790100097655 L 216.77099609375 420.99932861328114 L 216.77099609375 417.73300170898426 L 216.63299560546875 417.6533203124999 L 213.87399291992188 416.05999755859364 L 213.80450439453125 416.100128173828 L 210.9759979248047 417.73300170898426 L 210.9759979248047 420.17034912109364 L 210.9759979248047 420.43466186523426 M 202.92999267578125 422.29766845703114 L 203.7169952392578 422.75201416015614 L 206.61500549316406 421.0790100097655 L 206.61500549316406 420.43524169921864 L 206.61500549316406 420.17034912109364 L 206.61500549316406 417.73300170898426 L 205.8730010986328 417.30465698242176 L 203.7169952392578 416.05999755859364 L 200.81900024414062 417.73300170898426 L 200.81900024414062 421.0790100097655 L 202.92999267578125 422.29766845703114 M 203.61900329589844 376.8320007324218 L 203.61900329589844 378.6809997558593 L 203.76600646972656 378.6809997558593 L 204.8000030517578 378.6809997558593 L 205.4669952392578 378.6809997558593 L 205.4669952392578 376.8320007324218 L 205.4669952392578 373.65600585937494 L 203.76600646972656 373.65600585937494 L 203.61900329589844 373.65600585937494 L 203.61900329589844 376.8320007324218 M 213.87399291992188 367.7260131835937 L 216.63299560546875 366.13269042968744 L 216.77099609375 366.05300903320307 L 216.77099609375 362.7070007324218 L 216.63299560546875 362.62731933593744 L 216.4748992919922 362.53601074218744 L 214.59136962890625 361.44827270507807 L 213.87399291992188 361.0339965820312 L 213.80450439453125 361.07412719726557 L 211.272216796875 362.53601074218744 L 210.9759979248047 362.7070007324218 L 210.9759979248047 363.53543090820307 L 210.9759979248047 366.05300903320307 L 211.66700744628906 366.45190429687494 L 213.87399291992188 367.7260131835937 M 214.17599487304688 373.63000488281244 L 212.99200439453125 373.63000488281244 L 212.31399536132812 373.63000488281244 L 212.31399536132812 376.8320007324218 L 212.31399536132812 378.6809997558593 L 212.99200439453125 378.6809997558593 L 214.17599487304688 378.6809997558593 L 214.17599487304688 373.63000488281244 M 202.48727416992188 450.673614501953 L 203.3350067138672 451.1629943847655 L 206.45399475097656 449.36300659179676 L 206.45399475097656 448.38436889648426 L 206.45399475097656 445.761993408203 L 203.6750030517578 444.1582031249999 L 203.3350067138672 443.96200561523426 L 200.2169952392578 445.761993408203 L 200.2169952392578 449.36300659179676 L 202.48727416992188 450.673614501953 M 206.63906860351562 442.1354064941405 L 208.79550170898438 443.3805236816405 L 210.9524383544922 442.1351318359374 L 211.13699340820312 442.0285644531249 L 213.91600036621094 440.42401123046864 L 213.91600036621094 437.93585205078114 L 213.91600036621094 434.501007080078 L 208.79550170898438 431.54449462890614 L 203.6750030517578 434.501007080078 L 203.6750030517578 437.93389892578114 L 203.6750030517578 440.42401123046864 L 206.45399475097656 442.0285644531249 L 206.63906860351562 442.1354064941405 M 217.37399291992188 449.36300659179676 L 217.37399291992188 449.282745361328 L 217.37399291992188 445.761993408203 L 217.23500061035156 445.6817626953124 L 214.25599670410156 443.96200561523426 L 214.18649291992188 444.0021057128905 L 211.13699340820312 445.761993408203 L 211.13699340820312 448.38580322265614 L 211.13699340820312 449.36300659179676 L 214.18649291992188 451.12289428710926 L 214.25599670410156 451.1629943847655 L 215.10186767578125 450.6746826171874 L 217.37399291992188 449.36300659179676 M 219.2209930419922 458.1669921874999 L 219.3520050048828 458.1669921874999 L 219.4290008544922 458.1669921874999 L 219.44000244140625 458.1669921874999 L 220.6479949951172 458.1669921874999 L 220.74099731445312 458.1669921874999 L 220.7449951171875 458.1669921874999 L 220.74600219726562 458.1669921874999 L 220.74600219726562 458.11300659179676 L 220.74600219726562 453.5577697753905 L 220.74600219726562 450.91400146484364 L 220.74600219726562 450.90899658203114 L 220.7449951171875 450.90899658203114 L 220.74099731445312 450.90899658203114 L 220.6479949951172 450.90899658203114 L 219.44500732421875 450.90899658203114 L 219.44000244140625 450.90899658203114 L 219.4290008544922 450.90899658203114 L 219.3520050048828 450.90899658203114 L 219.2209930419922 450.90899658203114 L 219.2209930419922 458.1669921874999 M 217.07899475097656 318.0289916992187 L 217.08799743652344 318.04812622070307 L 217.14999389648438 318.1799926757812 L 217.23599243164062 318.32299804687494 L 217.33599853515625 318.4570007324218 L 217.447998046875 318.5809936523437 L 217.57200622558594 318.69299316406244 L 217.70599365234375 318.79299926757807 L 217.8489990234375 318.8779907226562 L 218 318.9500122070312 L 218.11199951171875 318.9896850585937 L 218.1580047607422 319.00601196289057 L 218.32000732421875 319.04699707031244 L 218.48500061035156 319.0710144042968 L 218.65199279785156 319.07901000976557 L 218.81900024414062 319.0710144042968 L 218.98399353027344 319.04699707031244 L 219.13600158691406 319.00854492187494 L 219.14599609375 319.00601196289057 L 219.30299377441406 318.9500122070312 L 219.3520050048828 318.92663574218744 L 219.4290008544922 318.88992309570307 L 219.44000244140625 318.88467407226557 L 219.44500732421875 318.8822937011718 L 219.45399475097656 318.8779907226562 L 219.59800720214844 318.79299926757807 L 219.73199462890625 318.69299316406244 L 219.8560028076172 318.5809936523437 L 219.96800231933594 318.4570007324218 L 220.06700134277344 318.32299804687494 L 220.1529998779297 318.1799926757812 L 220.22500610351562 318.0289916992187 L 220.281005859375 317.87100219726557 L 220.32200622558594 317.70901489257807 L 220.3459930419922 317.5440063476562 L 220.35098266601562 317.4400024414062 L 220.35400390625 317.3770141601562 L 220.3459930419922 317.20999145507807 L 220.32200622558594 317.0450134277343 L 220.281005859375 316.8829956054687 L 220.22500610351562 316.72500610351557 L 220.1529998779297 316.57400512695307 L 220.06700134277344 316.4309997558593 L 220.05592346191406 316.4159851074218 L 219.96800231933594 316.29699707031244 L 219.8560028076172 316.17300415039057 L 219.73199462890625 316.0610046386718 L 219.59800720214844 315.9609985351562 L 219.45399475097656 315.87600708007807 L 219.44500732421875 315.87170410156244 L 219.44000244140625 315.8693237304687 L 219.4290008544922 315.8640747070312 L 219.3520050048828 315.8273620605468 L 219.30299377441406 315.80398559570307 L 219.14599609375 315.7479858398437 L 219.13600158691406 315.74548339843744 L 218.98399353027344 315.7070007324218 L 218.81900024414062 315.68301391601557 L 218.65199279785156 315.6740112304687 L 218.48500061035156 315.68301391601557 L 218.32000732421875 315.7070007324218 L 218.1580047607422 315.7479858398437 L 218.11199951171875 315.76431274414057 L 218 315.80398559570307 L 217.8489990234375 315.87600708007807 L 217.70599365234375 315.9609985351562 L 217.57200622558594 316.0610046386718 L 217.447998046875 316.17300415039057 L 217.33599853515625 316.29699707031244 L 217.23599243164062 316.4309997558593 L 217.14999389648438 316.57400512695307 L 217.08799743652344 316.7058715820312 L 217.07899475097656 316.72500610351557 L 217.0229949951172 316.8829956054687 L 216.98199462890625 317.0450134277343 L 216.95700073242188 317.20999145507807 L 216.94900512695312 317.3770141601562 L 216.95201110839844 317.4400024414062 L 216.95700073242188 317.5440063476562 L 216.98199462890625 317.70901489257807 L 217.0229949951172 317.87100219726557 L 217.07899475097656 318.0289916992187 M 198.6529998779297 319.08401489257807 L 198.656005859375 319.0850524902343 L 198.81100463867188 319.14001464843744 L 198.97300720214844 319.1809997558593 L 199.13800048828125 319.20498657226557 L 199.30499267578125 319.21301269531244 L 199.4720001220703 319.20498657226557 L 199.63699340820312 319.1809997558593 L 199.7989959716797 319.14001464843744 L 199.95599365234375 319.08401489257807 L 200.10699462890625 319.01199340820307 L 200.25100708007812 318.9259948730468 L 200.38499450683594 318.8269958496093 L 200.50900268554688 318.71499633789057 L 200.62100219726562 318.5910034179687 L 200.70399475097656 318.47866821289057 L 200.72000122070312 318.4570007324218 L 200.80599975585938 318.31298828124994 L 200.8780059814453 318.16198730468744 L 200.9340057373047 318.00500488281244 L 200.97500610351562 317.8429870605468 L 200.99899291992188 317.67800903320307 L 201.0070037841797 317.51098632812494 L 201.00360107421875 317.4400024414062 L 200.99899291992188 317.34399414062494 L 200.97500610351562 317.17898559570307 L 200.9340057373047 317.01699829101557 L 200.8780059814453 316.85900878906244 L 200.80599975585938 316.70800781249994 L 200.72000122070312 316.5650024414062 L 200.70399475097656 316.54333496093744 L 200.62100219726562 316.4309997558593 L 200.50900268554688 316.30700683593744 L 200.38499450683594 316.1950073242187 L 200.25100708007812 316.09500122070307 L 200.10699462890625 316.0090026855468 L 199.95599365234375 315.93798828124994 L 199.7989959716797 315.88198852539057 L 199.63699340820312 315.8410034179687 L 199.4720001220703 315.8160095214843 L 199.30499267578125 315.80801391601557 L 199.13800048828125 315.8160095214843 L 198.97300720214844 315.8410034179687 L 198.81100463867188 315.88198852539057 L 198.656005859375 315.9369506835937 L 198.6529998779297 315.93798828124994 L 198.5019989013672 316.0090026855468 L 198.35899353027344 316.09500122070307 L 198.35699462890625 316.0964965820312 L 198.26499938964844 316.16516113281244 L 198.22500610351562 316.1950073242187 L 198.1009979248047 316.30700683593744 L 197.98899841308594 316.4309997558593 L 197.88900756835938 316.5650024414062 L 197.80299377441406 316.70800781249994 L 197.73199462890625 316.85900878906244 L 197.67599487304688 317.01699829101557 L 197.63499450683594 317.17898559570307 L 197.61099243164062 317.34399414062494 L 197.60581970214844 317.4400024414062 L 197.6020050048828 317.51098632812494 L 197.61099243164062 317.67800903320307 L 197.63499450683594 317.8429870605468 L 197.67599487304688 318.00500488281244 L 197.73199462890625 318.16198730468744 L 197.80299377441406 318.31298828124994 L 197.88900756835938 318.4570007324218 L 197.98899841308594 318.5910034179687 L 198.1009979248047 318.71499633789057 L 198.22500610351562 318.8269958496093 L 198.26499938964844 318.85656738281244 L 198.35699462890625 318.9245300292968 L 198.35899353027344 318.9259948730468 L 198.5019989013672 319.01199340820307 L 198.6529998779297 319.08401489257807 M 222.69590759277344 425.6391601562499 L 222.77200317382812 425.7040100097655 L 222.89576721191406 425.77999877929676 L 222.9495086669922 425.8129882812499 L 223 425.8439941406249 L 223.23199462890625 425.9398193359374 L 223.2469940185547 425.94601440429676 L 223.40322875976562 425.9840087890624 L 223.50599670410156 426.00900268554676 L 223.7729949951172 426.02999877929676 L 224.03900146484375 426.00900268554676 L 224.14218139648438 425.9840087890624 L 224.2989959716797 425.94601440429676 L 224.54600524902344 425.8439941406249 L 224.5962677001953 425.8129882812499 L 224.64976501464844 425.77999877929676 L 224.7393035888672 425.72479248046864 L 224.7729949951172 425.7040100097655 L 224.9759979248047 425.5310058593749 L 225.1335906982422 425.34713745117176 L 225.14999389648438 425.3280029296874 L 225.27999877929688 425.11627197265614 L 225.2899932861328 425.1000061035155 L 225.302001953125 425.0709533691405 L 225.39199829101562 424.85299682617176 L 225.45399475097656 424.59298706054676 L 225.47500610351562 424.32699584960926 L 225.45399475097656 424.06100463867176 L 225.39199829101562 423.80099487304676 L 225.302001953125 423.58306884765614 L 225.2899932861328 423.553985595703 L 225.27999877929688 423.5377197265624 L 225.14999389648438 423.32598876953114 L 225.12181091308594 423.2931213378905 L 224.9759979248047 423.12298583984364 L 224.7729949951172 422.95001220703114 L 224.73648071289062 422.9274902343749 L 224.54600524902344 422.80999755859364 L 224.46124267578125 422.77499389648426 L 224.2989959716797 422.7080078124999 L 224.03900146484375 422.6459960937499 L 223.7729949951172 422.6249999999999 L 223.50599670410156 422.6459960937499 L 223.2469940185547 422.7080078124999 L 223.23199462890625 422.71420288085926 L 223.08474731445312 422.77499389648426 L 223 422.80999755859364 L 222.7875213623047 422.940460205078 L 222.77200317382812 422.95001220703114 L 222.56900024414062 423.12298583984364 L 222.42425537109375 423.2918701171874 L 222.39500427246094 423.32598876953114 L 222.29200744628906 423.49496459960926 L 222.28900146484375 423.4998779296874 L 222.26400756835938 423.54086303710926 L 222.25599670410156 423.553985595703 L 222.1529998779297 423.80099487304676 L 222.1208038330078 423.93600463867176 L 222.09100341796875 424.06100463867176 L 222.07000732421875 424.32699584960926 L 222.09100341796875 424.59298706054676 L 222.1529998779297 424.85299682617176 L 222.25599670410156 425.1000061035155 L 222.26400756835938 425.11312866210926 L 222.28900146484375 425.15414428710926 L 222.29200744628906 425.1590576171874 L 222.3455810546875 425.2469482421874 L 222.39500427246094 425.3280029296874 L 222.56900024414062 425.5310058593749 L 222.69590759277344 425.6391601562499 M 222.71145629882812 362.3674011230468 L 222.77200317382812 362.4190063476562 L 222.96253967285156 362.53601074218744 L 223 362.55899047851557 L 223.23199462890625 362.65481567382807 L 223.2469940185547 362.66101074218744 L 223.50599670410156 362.7229919433593 L 223.7729949951172 362.7439880371093 L 224.03900146484375 362.7229919433593 L 224.2989959716797 362.66101074218744 L 224.54600524902344 362.55899047851557 L 224.5832977294922 362.53601074218744 L 224.73663330078125 362.44143676757807 L 224.7729949951172 362.4190063476562 L 224.9759979248047 362.24600219726557 L 225.1333465576172 362.06152343749994 L 225.14999389648438 362.04199218749994 L 225.27999877929688 361.83120727539057 L 225.2899932861328 361.8150024414062 L 225.29800415039062 361.7956237792968 L 225.302001953125 361.7859497070312 L 225.39199829101562 361.56799316406244 L 225.45399475097656 361.30801391601557 L 225.47500610351562 361.04199218749994 L 225.45399475097656 360.7749938964843 L 225.39199829101562 360.51599121093744 L 225.36392211914062 360.44799804687494 L 225.302001953125 360.2980651855468 L 225.29800415039062 360.28836059570307 L 225.2899932861328 360.2690124511718 L 225.27999877929688 360.25271606445307 L 225.14999389648438 360.0409851074218 L 225.137939453125 360.0269165039062 L 224.9759979248047 359.83801269531244 L 224.7729949951172 359.6640014648437 L 224.7546844482422 359.6528015136718 L 224.54600524902344 359.5249938964843 L 224.4830322265625 359.4989929199218 L 224.2989959716797 359.42300415039057 L 224.03900146484375 359.35998535156244 L 223.7729949951172 359.33898925781244 L 223.50599670410156 359.35998535156244 L 223.2469940185547 359.42300415039057 L 223.23199462890625 359.42919921874994 L 223.06295776367188 359.4989929199218 L 223 359.5249938964843 L 222.79129028320312 359.65225219726557 L 222.77200317382812 359.6640014648437 L 222.56900024414062 359.83801269531244 L 222.39500427246094 360.0409851074218 L 222.29200744628906 360.20996093749994 L 222.28900146484375 360.21487426757807 L 222.26400756835938 360.25588989257807 L 222.26100158691406 360.2608032226562 L 222.25599670410156 360.2690124511718 L 222.1813507080078 360.44799804687494 L 222.1529998779297 360.51599121093744 L 222.09100341796875 360.7749938964843 L 222.07000732421875 361.04199218749994 L 222.09100341796875 361.30801391601557 L 222.1529998779297 361.56799316406244 L 222.25599670410156 361.8150024414062 L 222.26100158691406 361.82315063476557 L 222.26400756835938 361.8280639648437 L 222.28900146484375 361.86889648437494 L 222.29200744628906 361.87377929687494 L 222.35348510742188 361.9742126464843 L 222.39500427246094 362.04199218749994 L 222.56900024414062 362.24600219726557 L 222.71145629882812 362.3674011230468 M 222.79299926757812 416.52899169921864 L 222.79299926757812 416.5360107421874 L 224.79800415039062 416.5360107421874 L 224.79800415039062 400.7810058593749 L 224.70899963378906 400.7810058593749 L 224.70899963378906 400.77398681640614 L 222.29200744628906 400.77398681640614 L 222.28900146484375 400.77398681640614 L 222.26400756835938 400.77398681640614 L 222.26100158691406 400.77398681640614 L 221.70399475097656 400.77398681640614 L 221.70399475097656 402.498565673828 L 221.70399475097656 405.75643920898426 L 221.70399475097656 411.5397949218749 L 221.70399475097656 416.52899169921864 L 222.26100158691406 416.52899169921864 L 222.26400756835938 416.52899169921864 L 222.28900146484375 416.52899169921864 L 222.29200744628906 416.52899169921864 L 222.79299926757812 416.52899169921864 M 224.79800415039062 397.0360107421874 L 224.79800415039062 375.03100585937494 L 224.70899963378906 375.03100585937494 L 224.70899963378906 375.0239868164062 L 222.29200744628906 375.0239868164062 L 222.28900146484375 375.0239868164062 L 222.26400756835938 375.0239868164062 L 222.26100158691406 375.0239868164062 L 221.70399475097656 375.0239868164062 L 221.70399475097656 397.02899169921864 L 222.26100158691406 397.02899169921864 L 222.26400756835938 397.02899169921864 L 222.28900146484375 397.02899169921864 L 222.29200744628906 397.02899169921864 L 222.79299926757812 397.02899169921864 L 222.79299926757812 397.0360107421874 L 224.70899963378906 397.0360107421874 L 224.79800415039062 397.0360107421874 M 222.56900024414062 463.0899963378905 L 222.42823791503906 463.25421142578114 L 222.39500427246094 463.292999267578 L 222.29200744628906 463.461944580078 L 222.28900146484375 463.46685791015614 L 222.25599670410156 463.5209960937499 L 222.1529998779297 463.76800537109364 L 222.14537048339844 463.79998779296864 L 222.09100341796875 464.02801513671864 L 222.07000732421875 464.29400634765614 L 222.09100341796875 464.55999755859364 L 222.1529998779297 464.82000732421864 L 222.1846923828125 464.8959960937499 L 222.25599670410156 465.06698608398426 L 222.26100158691406 465.0751953124999 L 222.28900146484375 465.121124267578 L 222.29200744628906 465.12603759765614 L 222.38133239746094 465.2725830078124 L 222.39500427246094 465.29501342773426 L 222.56900024414062 465.49798583984364 L 222.77200317382812 465.67098999023426 L 223 465.81100463867176 L 223.01937866210938 465.8190002441405 L 223.23199462890625 465.90679931640614 L 223.2469940185547 465.9129943847655 L 223.50599670410156 465.97601318359364 L 223.7729949951172 465.99700927734364 L 224.03900146484375 465.97601318359364 L 224.2989959716797 465.9129943847655 L 224.52662658691406 465.8190002441405 L 224.54600524902344 465.81100463867176 L 224.76058959960938 465.67864990234364 L 224.7729949951172 465.67098999023426 L 224.9759979248047 465.49798583984364 L 225.13897705078125 465.3078613281249 L 225.14999389648438 465.29501342773426 L 225.27999877929688 465.083282470703 L 225.2899932861328 465.06698608398426 L 225.29800415039062 465.047637939453 L 225.39199829101562 464.82000732421864 L 225.45399475097656 464.55999755859364 L 225.47500610351562 464.29400634765614 L 225.45399475097656 464.02801513671864 L 225.39962768554688 463.79998779296864 L 225.39199829101562 463.76800537109364 L 225.29800415039062 463.54037475585926 L 225.2899932861328 463.5209960937499 L 225.27999877929688 463.50469970703114 L 225.168701171875 463.32345581054676 L 225.14999389648438 463.292999267578 L 224.9759979248047 463.0899963378905 L 224.80592346191406 462.9450683593749 L 224.7729949951172 462.9169921874999 L 224.66111755371094 462.84799194335926 L 224.552490234375 462.7810058593749 L 224.54600524902344 462.7770080566405 L 224.2989959716797 462.67498779296864 L 224.03900146484375 462.61300659179676 L 223.7729949951172 462.59201049804676 L 223.50599670410156 462.61300659179676 L 223.2469940185547 462.67498779296864 L 223 462.7770080566405 L 222.9934844970703 462.7810058593749 L 222.88436889648438 462.84799194335926 L 222.8118896484375 462.89251708984364 L 222.77200317382812 462.9169921874999 L 222.56900024414062 463.0899963378905 M 204.05099487304688 341.16799926757807 L 206.61500549316406 339.68740844726557 L 206.75599670410156 339.60598754882807 L 206.75599670410156 339.0050659179687 L 206.75599670410156 338.75915527343744 L 206.75599670410156 336.48400878906244 L 206.61500549316406 336.40258789062494 L 206.06300354003906 336.0838317871093 L 204.05099487304688 334.92199707031244 L 201.86740112304688 336.1829223632812 L 201.3459930419922 336.48400878906244 L 201.3459930419922 339.60598754882807 L 204.05099487304688 341.16799926757807 z" fill="#A9A9A9" stroke="rgb(255,0,0)" stroke-width="0.001mm" />
</svg>