<?xml version="1.0" encoding="utf-8"?>
<!-- Generator: Adobe Illustrator 24.1.0, SVG Export Plug-In . SVG Version: 6.00 Build 0)  -->
<svg version="1.1" id="Layer_1" xmlns="http://www.w3.org/2000/svg" xmlns:xlink="http://www.w3.org/1999/xlink" x="0px" y="0px"
	 viewBox="0 0 107.7 454" style="enable-background:new 0 0 107.7 454;" xml:space="preserve">
<style type="text/css">
	.st0{fill:#4D4D4D;stroke:#FF0000;stroke-width:8.035216e-03;stroke-miterlimit:11.3386;}
</style>
<desc>yellowjacket</desc>
<path class="st0" d="M14.2,295.2h1.5h1.6V281v-16.4v-9.2v-4.9h-1.6h-7l0,0H8.5v44.7H14.2L14.2,295.2 M14.2,239.9h1.5h1.6v-62.4h-1.6
	h-7l0,0H8.5v62.4h0.3H14.2L14.2,239.9 M2.8,127.7l3.7-1.9l0,0l0.5-0.2l0,0l8.6-4.3l0,0l1.6-0.8l0.3-0.2V99.6l0,0v-4.3v-0.6V77v-6.6
	V57.8V32.9V22.5V8.1l0.4-0.2l2.4-1.2l1.8-0.9L24,5l0.3-0.1l4.1-2h3.4h4.8h0.9L41.1,5v15v2.4l0.4,0.3l5.1,3.9l1.7,1.3l5.6,4.3l0,0
	l0,0l0,0l0,0l5.6-4.3l1.7-1.3l4.9-3.8l0.1-0.1l0.4-0.3V20V5.2V4.9L68.2,4l2.1-1.2h0.5h0.9H77h2.4l0,0L83.8,5L84,5.1l3.4,1.7l0.3,0.1
	l2.4,1.2l0,0v14.4l0,0v5.3V58v19v17.7v4.9l0,0v20.9l0.3,0.2l1.6,0.8l0,0h0.1l0,0l8.5,4.3l0,0l0.5,0.2l3.7,1.9l0,0v10v253.8v37.4
	v12.5l0,0v0.2h-0.5L87.7,450l-0.3,0.1l-1.8,0.9l-0.3,0.2l0,0l-1.5-1.1l-3.9-2.7v-18l0,0v-0.3v-8L65.5,411l-11.6-8.1L42.3,411
	l-14.5,10.1v8v0.3v18l-3.5,2.5l-0.3,0.2l-1.6,1.1l-0.3-0.2l-1.7-0.9l-2.4-1.2l-14.6-7.1H2.8v-0.2v-12.5v-37.4v-254V127.7
	 M53.8,139.4L53.8,139.4L53.8,139.4L53.8,139.4l0.1,0.1L60,136l2-1.1l0.1-0.1v-0.2v-9.3l-0.1-0.1l-0.6-0.3L60,124l-6.1-3.5l0,0l0,0
	l0,0l0,0l0,0l0,0l-6.1,3.5l-2.1,1.2v9.5l2.1,1.2L53.8,139.4L53.8,139.4L53.8,139.4 M53.8,96.3L53.8,96.3L53.8,96.3L53.8,96.3
	L53.8,96.3l6.2-3.4l1.4-0.8l0.2-0.1v-8.8L61.4,83L60,82.2l-0.8-0.5l-5.3-3.1l0,0l0,0l0,0l0,0l0,0l0,0l-5.3,3.1l-0.8,0.5l-1.6,0.9V92
	l1.6,0.9L53.8,96.3L53.8,96.3L53.8,96.3 M53.8,65.3L53.8,65.3L53.8,65.3L53.8,65.3L53.8,65.3l5.8-3.2l0.4-0.2l1.4-0.8l0.2-0.1v-8.8
	L61.4,52L60,51.2L59.6,51l-1.9-1.1l-3.8-2.2l0,0l0,0l0,0l0,0l0,0l0,0L50,49.9L48.1,51l-0.4,0.2l-1.6,0.9v8.8l1.6,0.9l0.4,0.2
	L53.8,65.3L53.8,65.3L53.8,65.3 M53.8,309.8L53.8,309.8L53.8,309.8L48,313l-2.5,1.4v1.6v5.3v0.1v2.5l0.1,0.1l8.1,4.7l0,0l0,0l0,0
	l0,0l0,0l0,0l8.1-4.7l0.1-0.1v-2.5v-0.1V316v-1.6l-2.5-1.4l-5.7-3.3L53.8,309.8L53.8,309.8L53.8,309.8L53.8,309.8 M53.8,295.4
	L53.8,295.4L53.8,295.4L53.8,295.4l0.1,0.1L60,292l2-1.1l0.1-0.1v-0.2v-9.3l-0.1-0.1h-0.1l-8-4.6l0,0l0,0l0,0l0,0l0,0l0,0l-3.1,1.8
	l-4.9,2.8l-0.2,0.1v9.5l2.1,1.2L53.8,295.4L53.8,295.4L53.8,295.4 M53.8,172.7L53.8,172.7L53.8,172.7L53.8,172.7l0.1,0.1l8.1-4.7
	l0.1-0.1v-9.5l-0.1-0.1l-2.4-1.4l-5.7-3.3l0,0l0,0l0,0l0,0l0,0l0,0l-5.7,3.3l-2.4,1.4l-0.1,0.1v9.5l0.1,0.1L53.8,172.7L53.8,172.7
	L53.8,172.7 M61.9,226.4l0.1,0.2l0.1,0.4l0.3,0.8l0.2,1l0.1,0.3v0.1v1.5l-0.2,1.4l-0.3,0.8l-0.1,0.4l-0.1,0.2l-0.7,1.3l-0.9,1.2
	l-1.1,1l-0.8,0.5l-0.4,0.3l-1.3,0.6h-0.1l-0.2,0.1h-0.1v0.2v2.1v2.3h0.1l1.8-0.5l0,0l2-0.9l1.5-0.9l0.4-0.2l0,0l0.1-0.1l1.5-1.4
	l0.8-1.1l0.4-0.5l0.2-0.2l0.6-1.2l0.1-0.2l0.3-0.5l0.7-2.1l0.4-2.2v-1.9V229v-0.1l-0.3-2.1l-0.7-2.1l-0.3-0.5l-0.8-1.4l-1.3-1.7
	l-1.5-1.4l-0.1-0.1l0,0l-1.1-0.7l-0.7-0.5l-1.2-0.5l-0.5-0.2l-0.3-0.1l-2-0.5v0.6v1.1v1.5v0.8v0.4v0.1l0.5,0.1l1.3,0.6l1.2,0.8
	l1.1,1l0.9,1.2L61.9,226.4 M61.4,265.3L62,267l0.1,0.4l1.3,3.6l1.6,4.5l0.7,2.1v0.1h2H71l-0.6-1.5l-2.8-7.6l-1.9-5.2l-3.6-9.9
	l-0.1-0.4l-0.3-0.8l-0.3-0.9l-1.3-3.7h-3.7v3.2l0,0l0.5,1.4l3,8.5h-3.4v4.5H61.4L61.4,265.3 M51.2,206.6l-2.4-0.8h-0.1l-1.9-1.3
	l-1.3-1.7l-0.1-0.1l-0.8-2.3l-0.3-2.7v-3.4v-1.7h-1.9h-2.9h-0.4v4.9l0.1,2l0.3,1.8l0,0L40,203l0.7,1.6l0.8,1.3l0.1,0.2l0.7,0.8
	l0.4,0.5l1.3,1.1l1.3,0.8l0.3,0.2l1.7,0.7l2,0.5l2,0.3v-4.2L51.2,206.6 M48.1,260.8l2.9-8.5l0.6-1.7v-2.9h-3.7l-1.7,4.6l-0.6,1.6
	l-3,8.3l-0.6,1.7l-1.7,4.7l-0.6,1.6l-1.9,5.3l-0.3,0.7l-0.4,1l-0.2,0.5h2.7H40h2l0.3-0.7l0.3-0.8l0.3-0.7l1.6-4.5l1.2-3.3l0.9-2.4
	h5.1v-4.5L48.1,260.8L48.1,260.8 M49.6,237.7l-0.4-0.3l-0.8-0.5l-1.1-1l-0.9-1.2l-0.7-1.3l-0.2-0.5l-0.3-0.9l-0.2-1.4v-1.5V229
	l0.1-0.3l0.2-1l0.3-0.9l0.2-0.5l0.7-1.3l0.9-1.2l1.1-1l1.2-0.8l1.3-0.6l0.8-0.2v-0.1v-0.3v-3.5v-0.7h-0.1l-2.1,0.5l-0.3,0.1
	l-1.7,0.7l-1.8,1.2l-0.1,0.1l-0.9,0.8l-0.6,0.6l-0.8,1.1l-0.5,0.7l-0.2,0.3l-0.9,1.7l-0.7,2.1l-0.3,2.1v0.1v0.2v1.9l0.4,2.2l0.7,2.1
	l0.9,1.7l0.2,0.3l0.2,0.2l0.7,0.8L44,239l0.6,0.6l0.9,0.9l0.1,0.1l0.4,0.3l1.5,0.9l2,0.9l2.1,0.5h0.1v-2.4V239v-0.3v-0.1l-0.8-0.2
	L49.6,237.7 M62.2,203.4l-0.1,0.1l-0.1,0.2l-0.5,0.6l-0.9,0.8l-1,0.6l-0.3,0.1l-0.8,0.4l-1.3,0.4l-1.1,0.2v0.1v0.4v3.7h0.2l2.2-0.3
	l2-0.6l1.4-0.6l0.1-0.1l0.3-0.1l1.6-1l1.4-1.1l0.4-0.4l0.8-0.9l0.9-1.4l0.7-1.6l0.5-1.7l0.3-1.8l0.1-1.9v-5h-3.4h-1.9v1.7v3.4
	l-0.1,1.3l-0.2,1.3l-0.3,1.2l-0.4,1.1L62.2,203.4 M15.5,319.9l0.2-0.3v-0.1l0.3-0.7l0.2-0.7l0.1-0.8l-0.1-0.8l-0.1-0.4l-0.1-0.4
	l-0.3-0.7v-0.1l-0.4-0.6l-0.1-0.1l-0.4-0.5l-0.6-0.5h-0.1l-0.6-0.4h-0.1l-0.1-0.1l-0.5-0.2l-0.7-0.2l-0.8-0.1l-0.8,0.1l-0.7,0.2
	l-0.5,0.2L9.2,313l-0.5,0.3l-0.1,0.1L8,313.9l-0.3,0.4l-0.1,0.1l-0.1,0.1l-0.4,0.6v0.1l-0.2,0.6l-0.2,0.7l-0.1,0.8l0.1,0.8l0.2,0.7
	l0.2,0.6v0.1l0.4,0.6l0,0l0.2,0.2l0.3,0.4l0.6,0.5l0.1,0.1l0.4,0.3l0.1,0.1l0.7,0.3l0.4,0.1l0.3,0.1l0.8,0.1l0.8-0.1l0.3-0.1
	l0.4-0.1l0.6-0.2h0.1l0.1-0.1l0.5-0.3l0.2-0.2l0.4-0.3l0.5-0.6L15.5,319.9 M7.5,140.8l0.2,0.2l0.3,0.4l0.6,0.5h0.1l0.5,0.3l0.1,0.1
	l0.7,0.3l0.7,0.2l0.8,0.1l0.8-0.1l0.7-0.2l0.6-0.2h0.1l0.1-0.1l0.5-0.3l0.2-0.1l0.4-0.3l0.5-0.6l0.1-0.2l0.2-0.4l0,0l0,0l0.3-0.7
	l0.2-0.7l0.1-0.8l-0.1-0.8l-0.2-0.7l-0.1-0.2l-0.2-0.5l0,0l0,0l-0.4-0.6l-0.5-0.6l-0.6-0.5l-0.1-0.1l-0.6-0.3l-0.2-0.1l-0.5-0.2
	l-0.7-0.2l-0.8-0.1l-0.8,0.1l-0.7,0.2l-0.5,0.2l-0.2,0.1l-0.6,0.4H8.4L8,134.5l-0.3,0.4L7.5,135l-0.4,0.6v0.1l0,0l-0.2,0.4l-0.1,0.2
	L6.6,137l-0.1,0.8l0.1,0.8l0.2,0.7l0.2,0.6l0,0v0.1L7.5,140.8L7.5,140.8 M7.1,428.4L7.1,428.4l-0.3,0.7v0.1l-0.2,0.6l-0.1,0.8
	l0.1,0.8l0.2,0.7l0.2,0.6v0.1l0.4,0.6l0,0l0.2,0.2L8,434l0.6,0.5l0,0l0.6,0.4h0.1l0.6,0.3l0.7,0.2l0.8,0.1l0.8-0.1l0.7-0.2l0.6-0.3
	h0.1l0.6-0.4h0.1l0.5-0.4l0.5-0.6v-0.1l0.3-0.5l0,0l0.2-0.5l0.1-0.2l0.2-0.7l0.1-0.8l-0.1-0.8l-0.2-0.6v-0.1l-0.3-0.7l0,0l-0.4-0.6
	l-0.1-0.1l-0.4-0.4l-0.6-0.5l-0.1-0.1l-0.2-0.1l-0.3-0.2l0,0l-0.7-0.3l-0.7-0.2l-0.8-0.1l-0.8,0.1l-0.6,0l-0.7,0.3l0,0l-0.3,0.2
	l-0.3,0.2l-0.1,0.1L8,427.2l-0.3,0.4l-0.2,0.2L7.1,428.4 M20.1,413h0.2h3.5l0,0v-0.9V412v-10v-0.3V399v-5.5v-0.8l0,0h-3.5h-0.2h-0.6
	v0.8v6.5v13H20.1 M39.5,137.9l-7.4,4.3l-0.8,0.5v9.5l8.2,4.7l8.2-4.7v-2.6v-6.9l-0.8-0.5l-1.3-0.7L39.5,137.9 M42.1,46.9l5.2-3
	l0.4-0.2l0.4-0.2l1.7-1v-4.1v-0.1v-4.7l-7.7-4.4l-5,2.9l-2.7,1.5v2.9v6L42.1,46.9 M61.4,67.2L60,68l-0.4,0.2v2.2v5v1.7l0.4,0.2
	l1.4,0.8l0.6,0.3l5.3,3.1l7.7-4.4v-8.8l-1.5-0.9l-6.2-3.6L62,66.9l-0.4,0.2L61.4,67.2 M60.4,43.9l1,0.6l0.6,0.3l3.6,2.1l0.9-0.5
	l2.8-1.6l3.9-2.3l0.1-0.1v-6v-2.9l-0.1-0.1l-2.5-1.5l-5-2.9l-0.2,0.1l-5.3,3.1L58,33.4v0.1v4.6l0,0V42v0.2l1.7,1l0.4,0.2L60.4,43.9
	 M60,306.2v1.8l8,4.6l0.2,0.1l2.2-1.3l6-3.5v-0.2v-9.3l-0.4-0.2l-7.8-4.5l-0.2,0.1l-8,4.6v6.9L60,306.2 M37.2,311.5l2.2,1.3l8.2-4.7
	v-1.8v-0.8v-6.9l-2.1-1.2l-6.1-3.5l-8.2,4.7v9.5L37.2,311.5 M39.2,182.6v5.2h0.4h2.9h1.9v-5.2v-9h-4.8h-0.4L39.2,182.6 M68.3,156.8
	l7.8-4.5l0.4-0.2v-9.5l-0.4-0.2l-0.4-0.3l-5.3-3.1l-2-1.2l-0.2,0.1L61,142l-0.8,0.5v2.3v7.1l2,1.1L68.3,156.8 M69.1,173.6h-3.4h-1.9
	v9.1v5.2h1.9h3.4V173.6 M36,392l2.4,1.4l8.8-5.1v-2.8V378l-7.9-4.5l-1-0.6l-8.8,5.1v10.2L36,392 M47.7,367.8l6.1,3.5l6.1-3.5
	l0.5-0.3l7.9-4.5v-7.1v-9.7l-14.5-8.4l-14.5,8.4v9.7v7.1l7.9,4.5L47.7,367.8 M78.2,388.2V388v-10l-0.4-0.2l-8.4-4.9l-0.2,0.1l-8.6,5
	v7.4v2.8l8.6,5l0.2,0.1l2.4-1.4L78.2,388.2 M77.3,16L77.3,16l0.2,0.4l0.2,0.4l0.3,0.4l0.3,0.4l0.4,0.3l0.4,0.3l0.4,0.2l0.4,0.2
	l0.3,0.1h0.1l0.5,0.1l0.5,0.1h0.5h0.5l0.5-0.1l0.4-0.1l0,0l0.4-0.2l0.1-0.1l0.2-0.1l0,0l0,0l0,0l0.4-0.2l0.4-0.3l0.4-0.3l0.3-0.4
	l0.3-0.4l0.2-0.4l0.2-0.4l0.2-0.4l0.1-0.5l0.1-0.5v-0.3V14v-0.5L86.4,13l-0.1-0.5l-0.2-0.4l-0.2-0.4l-0.2-0.4l0,0L85.5,11l-0.3-0.4
	l-0.4-0.3L84.4,10L84,9.8l0,0l0,0l0,0l-0.2-0.1l-0.1-0.1l-0.4-0.2l0,0l-0.4-0.1l-0.5-0.1h-0.5h-0.5l-0.5,0.1l-0.5,0.1h-0.1L80,9.6
	l-0.4,0.2L79.2,10l-0.4,0.3l-0.4,0.3L78.1,11l-0.3,0.4l-0.2,0.4l-0.2,0.4v0.1l-0.2,0.4l-0.1,0.5L77,13.6v0.5v0.2v0.3l0.1,0.5
	l0.1,0.5L77.3,16 M25.1,18.9L25.1,18.9l0.4,0.2l0.5,0.1l0.5,0.1H27h0.5l0.5-0.1l0.5-0.1l0.4-0.2l0.4-0.2l0.4-0.2l0.4-0.3l0.4-0.3
	l0.3-0.4l0.2-0.3v-0.1l0.2-0.4l0.2-0.4l0.2-0.4l0.1-0.5l0.1-0.5v-0.5v-0.2v-0.3l-0.1-0.5l-0.1-0.5l-0.2-0.4l-0.2-0.4L31,11.8v-0.1
	l-0.2-0.3L30.5,11L30,10.8l-0.4-0.3l-0.4-0.2L28.8,10l-0.4-0.2l-0.5-0.1l-0.5-0.1h-0.5h-0.5L26,9.8l-0.5,0.1L25.1,10l0,0l-0.4,0.2
	l-0.4,0.2l0,0L24,10.7l-0.1,0.1l-0.4,0.3l-0.3,0.4l-0.3,0.4l-0.2,0.4l-0.2,0.4l-0.2,0.4l-0.1,0.5l0,0.4v0.3v0.2V15l0.1,0.5l0.1,0.5
	l0.2,0.4l0.2,0.4l0.2,0.4l0.3,0.4l0.3,0.4l0.4,0.3l0.1,0.1l0.3,0.2l0,0l0.4,0.2L25.1,18.9 M93.3,321l0.2,0.2l0.4,0.2l0.2,0.1
	l0.1,0.1l0.7,0.3l0,0l0.4,0.1l0.3,0.1l0.8,0.1l0.8-0.1l0.3-0.1l0.4-0.1l0.7-0.3l0.1-0.1l0.2-0.1l0.3-0.2l0.1-0.1l0.6-0.5l0.4-0.5
	V320l0.4-0.6l0,0v-0.1l0.3-0.6l0.2-0.7l0.1-0.8l-0.1-0.8l-0.2-0.7l-0.3-0.6V315l0,0l-0.4-0.6l-0.1-0.1l-0.4-0.5l-0.6-0.5l-0.1-0.1
	l-0.5-0.3l-0.2-0.1l-0.5-0.2l-0.7-0.2l-0.8-0.1l-0.8,0.1l-0.7,0.2l0,0l-0.4,0.2l-0.2,0.1l-0.6,0.4l0,0l-0.6,0.5l-0.4,0.5l-0.1,0.1
	l-0.3,0.5l0,0L92,315l0,0l-0.3,0.7l-0.1,0.4l-0.1,0.4l-0.1,0.8l0.1,0.8l0.2,0.7l0.3,0.7l0,0l0.1,0.1l0,0l0.2,0.2l0.1,0.2l0.5,0.6
	L93.3,321 M93.3,141.6l0.2,0.1L94,142l0.1,0.1l0.7,0.3l0,0l0.7,0.2l0.8,0.1l0.8-0.1l0.7-0.2l0.7-0.3l0.1-0.1l0.4-0.3l0.1-0.1
	l0.6-0.5l0.4-0.5v-0.1l0.4-0.6l0,0v-0.1l0,0l0.3-0.6l0.2-0.7l0.1-0.8l-0.1-0.8l-0.2-0.7l-0.1-0.2l-0.2-0.4l0,0v-0.1l0,0l-0.4-0.6
	l0,0l-0.5-0.5l-0.6-0.5h-0.1l-0.6-0.4l-0.2-0.1l-0.5-0.2l-0.7-0.2l-0.8-0.1l-0.8,0.1l-0.7,0.2l0,0l-0.5,0.2l-0.2,0.1l-0.6,0.4h-0.1
	l-0.6,0.5l-0.5,0.6l-0.3,0.5l0,0l-0.1,0.1l0,0l0,0l-0.2,0.5l-0.1,0.2l-0.2,0.7l-0.1,0.8l0.1,0.8l0.2,0.7l0.3,0.7l0,0l0,0l0.1,0.1
	l0,0l0.2,0.3l0.1,0.2l0.5,0.6L93.3,141.6 M93.5,295.2L93.5,295.2h5.7v-44.7H99l0,0h-6.9l0,0H92l0,0h-1.6v4.9v9.2V281v14.1H92l0,0
	h0.1l0,0h1.4 M99.2,239.9v-62.4H99l0,0h-6.9l0,0H92l0,0h-1.6v62.4H92l0,0h0.1l0,0h1.4l0,0H99H99.2 M92.9,427.2l-0.4,0.5l-0.1,0.1
	l-0.3,0.5l0,0l-0.1,0.2l-0.3,0.7v0.1l-0.2,0.6l-0.1,0.8l0.1,0.8l0.2,0.7l0.1,0.2l0.2,0.5l0,0l0.1,0.1l0,0l0.3,0.4v0.1l0.5,0.6
	l0.6,0.5l0.6,0.4h0.1l0.6,0.2l0,0l0.7,0.2l0.8,0.1l0.8-0.1l0.7-0.2l0.6-0.3h0.1l0.6-0.4l0,0l0.6-0.5l0.5-0.5l0,0l0.4-0.6l0,0v-0.1
	l0.3-0.6l0.2-0.7l0.1-0.8l-0.1-0.8l-0.2-0.6v-0.1l-0.3-0.6v-0.1l0,0l-0.3-0.5l-0.1-0.1l-0.5-0.6l-0.5-0.4l-0.1-0.1l-0.3-0.2
	l-0.3-0.2l0,0l-0.7-0.3l-0.7-0.2l-0.8-0.1l-0.8,0.1l-0.7,0.2l-0.7,0.3l0,0l-0.3,0.2l-0.2,0.1l-0.1,0.1L92.9,427.2 M87.7,392.6
	L87.7,392.6h-0.3H84l0,0l0,0V412v0.1v0.9l0,0h3.4h0.3l0,0h0.6v-13.2v-7.2L87.7,392.6 M40.4,81.5l7.3-4.2l0.4-0.2v-1.7v-0.7v-6.4
	L47.7,68l-1.6-0.9l-5.7-3.3l-6.2,3.6l-1.5,0.9v8.8L40.4,81.5z"/>
</svg>
