<?xml version="1.0" encoding="utf-8"?>
<!-- Generator: Adobe Illustrator 24.1.0, SVG Export Plug-In . SVG Version: 6.00 Build 0)  -->
<svg version="1.1" id="Layer_1" xmlns="http://www.w3.org/2000/svg" xmlns:xlink="http://www.w3.org/1999/xlink" x="0px" y="0px"
	 viewBox="0 0 107.7 480.5" style="enable-background:new 0 0 107.7 480.5;" xml:space="preserve">
<style type="text/css">
	.st0{fill:#4D4D4D;stroke:#FF0000;stroke-width:8.035216e-03;stroke-miterlimit:11.3386;}
</style>
<desc>yellowjacket</desc>
<path class="st0" d="M89.9,8L89.9,8v14.6v0v5.2v1.5v2.3v0v1.5v1.3v0v14.6v0v5.2v14.9v3.9v11.2v5.6v56.7v0.4h0.2h0l4.3,2.2l0.1,0.1
	l6.5,3.3l0.8,0.4l2.9,1.5l0,0v10v167.1v25.8l0,0l-2,1.4l-0.1,0.1l-3.6,2.6v1.9v32.1l5.7,4.1l0,0v18.7v37.4v12.5v0v0.2h-0.5
	l-16.5,8.1l-0.2,0.1l-0.3,0.1l-1.9,0.9l-0.2,0.1l0,0l-1.5-1.1l-3.9-2.7v-18v0v-0.3v-5.4v-2.6l-7.1-5l-7.3-5.1l-11.6-8.1l-11.6,8.1
	l-7.5,5.2l-5.9,4.2l-1,0.7v8v0.3v18l-3.5,2.5l-0.3,0.2l-1.6,1.1l-0.3-0.2l-1.7-0.9l-0.7-0.3l-1.7-0.8l-14.6-7.1H2.8v-0.2v-11.2v-1.2
	v-4v-8.8v-24.5v-18.7l5.7-4.1v-32.3v-1.7l-1.9-1.4l-3.5-2.5l-0.3-0.2V344v-5.8v-8.8v-7.7V277v-13.1V204v-25.7v-14.2v-5.3v-4.7
	l2.7-1.4l1-0.5l6.5-3.3l4.5-2.3v-0.1h0v0v-24.8V96.9v-6.9V75.7V68v-8.6V49V34.5v-1.4v-0.2v-1.5v-2.2v-6.7V8.1l0.3-0.1l0,0l1.7-0.8
	l0.7-0.3l0,0L24,5l0,0l0.2-0.1l0,0l2.5-1.2l1.5-0.7h0.5h5.9h1.8h0.9l3.6,2.1v5.6v9.4v2.4l0.4,0.3l5.1,3.9l1,0.7l0.7,0.5l2,1.5
	l3.6,2.8v0l0,0l0,0v0l3.6-2.8l2-1.5l0.7-0.5l1-0.7l4.9-3.8l0,0l0.1-0.1l0.4-0.3v-2.4v-9.3V5.2V4.9L68.1,4l2.1-1.2h0.5h0.9h1.3h6.5h0
	l1.6,0.8L83.7,5l0,0L84,5.1l0,0l1.5,0.7l1.9,0.9l0,0l0.2,0.1l0,0L87.9,7L89.9,8 M53.8,336.3L53.8,336.3L53.8,336.3l-5.8,3.2
	l-1.1,0.6l-1.4,0.8v8v1.5l1.5,0.8l6.8,3.9l0,0v0l0,0l0,0v0l0,0l6.8-3.9l1.3-0.8l0.1-0.1V349v-6.4V341l-1.4-0.8l-1.1-0.6l-5.7-3.3
	L53.8,336.3L53.8,336.3L53.8,336.3L53.8,336.3 M53.8,321.9L53.8,321.9L53.8,321.9L53.8,321.9l0.1,0.1l3.6-2.1l2.5-1.5l2.1-1.2V317
	v-9.3l-0.1-0.1l-0.1,0l-7-4l-1-0.6l0,0v0l0,0l0,0v0l0,0l-1,0.6l-2.1,1.2l-4.9,2.8l-0.2,0.1v9.5l2.1,1.2l2.5,1.5L53.8,321.9
	L53.8,321.9L53.8,321.9 M46.4,251.6l0.2-0.3l0.2-0.3l0.3-0.3l0.2-0.3l1.1-1l1.2-0.8L51,248l0.8-0.2v-0.1v-4.5l-0.1,0l-2.1,0.5
	l-2,0.9l-0.4,0.2l-1.3,0.9l-0.1,0.1l-1.6,1.5l-1.3,1.7l-1,1.9l0,0.1l-0.7,2.1l-0.3,2.1l0,0.1v2.2l0.2,1.3l0.1,0.8l0.4,1.3l0.3,0.8
	l0.5,0.9l0.6,1.1l0.2,0.2l1.2,1.5l1.6,1.5l1.5,1l0.4,0.2l2,0.9l0.1,0l0.2,0.1l1.9,0.5l0.1,0l0.1,0v-3.1v-0.9v-0.5V265l-0.2,0
	l-0.3-0.1l-0.3-0.1l-1.3-0.6l-0.4-0.3l-0.6-0.4l-0.2-0.1l-0.8-0.8l-0.2-0.2l-0.2-0.3l-0.7-0.9l-0.7-1.3l-0.5-1.4l-0.2-1.4v-1.5
	l0.1-0.5l0.2-1l0.5-1.4L46.4,251.6 M46.5,291.8h0.7h4.4v-4.5h-3.5l2.9-8.5l0.6-1.7v-2.9v-0.1h-1.3h-2.4l0,0.1l-0.7,1.9l-3.6,9.7
	l-3.4,9.3l-0.6,1.6l-0.3,0.7l-1.9,5.3l-0.5,1.5h0.8h2H40h2l2.4-6.7l0-0.1L46.5,291.8 M53.8,165.9L53.8,165.9L53.8,165.9L53.8,165.9
	l0.1,0.1l0.4-0.2l5.7-3.3l2-1.1l0.1-0.1v-9.5l-0.1-0.1l-0.6-0.3l-1.4-0.8l-3.9-2.3l-2.2-1.3l0,0v0l0,0l0,0v0l0,0l-2.2,1.3l-3.9,2.3
	l-2.1,1.2v9.5l2.1,1.2l5.7,3.3L53.8,165.9L53.8,165.9L53.8,165.9 M53.8,199.2L53.8,199.2L53.8,199.2L53.8,199.2l0.1,0.1l5.3-3
	l2.8-1.6l0.1-0.1V185l-0.1-0.1l-5.1-2.9l-3-1.7l0,0v0l0,0l0,0v0l0,0l-3,1.7l-5.2,3v9.5l3,1.7L53.8,199.2L53.8,199.2L53.8,199.2
	 M59.8,287.2L59.8,287.2h-0.2h-0.1h-3.2v4.5H61h0.1h0.3h0h0l0.6,1.7l1.4,3.9l2.4,6.8h2h0.7h1.6H71l-0.7-1.8l-1.8-5l-0.1-0.3l-2-5.4
	L62,279.6l-2-5.4l0-0.1h-1.3h-1.3h-1.1v0.1v3.1v0l0.4,1.2l1.3,3.9L59.8,287.2 M59.3,263.4l-0.1,0.1l-0.4,0.2l-0.3,0.2l-0.4,0.3
	l-1.3,0.6l-0.5,0.1v0.2v3.4v1.1l2-0.5l0.1,0l0.5-0.2l1.4-0.6l1.8-1.2l0,0l1.6-1.5l1.2-1.5l0.2-0.2l0.6-1.1l0.5-0.9l0.7-2.1l0.4-2.2
	v-0.7v-1.5l0-0.1l-0.3-2.1L66,251l0-0.1l-1-1.9l-1.3-1.7l-1.6-1.5l0,0l-0.1,0l-1.8-1.1l-1.4-0.6l-0.6-0.3l-2-0.5v4.1v0.4v0.1
	l0.5,0.1l1.3,0.6l0.7,0.5l0.5,0.3l1.1,1l0.5,0.6l0.3,0.3l0.2,0.2l0.7,1.3l0.1,0.2l0.4,1.2l0.2,1l0.1,0.5v1.1v0.3l-0.2,1.4l-0.4,1.2
	l-0.1,0.2l-0.7,1.3l-0.9,1.2l-0.2,0.2L59.3,263.4 M46.8,230.9l-1.3-1.7l-0.1-0.1l-0.5-1.3l-0.3-0.9l-0.3-2.7V219h-0.5h-2h-0.4h-1.9
	h-0.4v4.9l0.1,2l0.3,1.8l0,0l0,0l0.5,1.7l0.7,1.6l0.9,1.4l1.1,1.3l1.1,0.9l0.3,0.2l1.3,0.8l0.3,0.2l1.3,0.5l0.4,0.2l1.5,0.4l0.5,0.1
	l2,0.3v-1.5v-1.1V234v-0.5v-0.4l-0.3,0l-2.5-0.8l-1.6-1.1L46.8,230.9 M62.2,229.9l-0.2,0.3l-0.5,0.6l-0.9,0.8l-1,0.6l-1,0.4
	l-0.2,0.1l-1.3,0.4l-1.1,0.2v0.1v0.4v3.7l0.2,0l2.2-0.3l0.1,0l0.8-0.2l1.1-0.3l0.3-0.1l1.1-0.5l0.4-0.2l1.2-0.7l0.4-0.2l0.6-0.5
	l0.6-0.5l0.2-0.2l1.1-1.3l0.9-1.4l0.7-1.6l0.5-1.6l0-0.1l0.3-1.8l0.1-1.9v-5h-2.9h-2.3v5l-0.1,1.1l0,0.3l-0.2,1.3l-0.3,1.1l0,0.1
	l-0.4,1.1L62.2,229.9 M92.8,453.8l-0.3,0.4l-0.4,0.6l-0.3,0.7l0,0.1l-0.2,0.6l-0.1,0.8l0.1,0.8l0.2,0.7l0.2,0.5l0.1,0.2l0.3,0.5
	l0.1,0.1l0.1,0.1l0.4,0.5l0.6,0.5l0.6,0.4l0.7,0.3l0.7,0.2l0,0l0.7,0.1l0.8-0.1l0.7-0.2l0.5-0.2l0.2-0.1l0.6-0.4l0.6-0.5l0.4-0.5
	l0.1-0.1l0.4-0.6l0.2-0.5l0.1-0.2l0.2-0.7l0.1-0.8l-0.1-0.8l-0.2-0.7l-0.3-0.7l-0.4-0.6l0,0L100,454l-0.3-0.4l-0.6-0.5l-0.6-0.4
	l-0.2-0.1l-0.5-0.2l-0.2-0.1l-0.5-0.1l-0.8-0.1l-0.8,0.1l-0.2,0.1l-0.5,0.1l-0.3,0.1l-0.4,0.2l-0.5,0.3l-0.1,0.1l-0.6,0.5
	L92.8,453.8 M92.2,346.3l0.2,0.3l0.5,0.6l0.6,0.5l0.1,0.1l0.5,0.3l0.7,0.3l0.7,0.2l0.1,0l0.6,0l0.8-0.1l0.7-0.2l0.7-0.3l0.2-0.1
	l0.4-0.3l0.6-0.5l0.5-0.6l0.4-0.6l0.1-0.3l0.1-0.1l0.1-0.2l0.2-0.7l0-0.6l0-0.1l-0.1-0.8l-0.2-0.7l-0.3-0.7l-0.4-0.6l-0.2-0.2
	l-0.3-0.4l-0.3-0.3l-0.2-0.2l-0.6-0.4l-0.7-0.3l-0.1,0l-0.6-0.2l-0.7-0.1l-0.1,0l-0.8,0.1l-0.7,0.2l-0.7,0.3l-0.5,0.3l-0.1,0.1
	l-0.6,0.5l-0.2,0.2l-0.3,0.4l-0.4,0.6l-0.3,0.7l-0.2,0.7l-0.1,0.8l0,0.1l0,0.6l0.2,0.7l0.2,0.5l0.1,0.2L92.2,346.3 M93.5,321.6
	L93.5,321.6l2.2,0H97h2.2v-22V277H99v0h-8.5v0v3.1v27.4v14.1H93.5 M92.3,166.9l0.2,0.2l0.5,0.6l0.6,0.5l0.1,0.1l0.5,0.3l0.7,0.3
	l0.6,0.1l0.1,0l0.8,0.1l0.8-0.1l0.7-0.2l0.5-0.2l0.2-0.1l0.5-0.3l0.2-0.1l0.2-0.2l0.3-0.3l0.5-0.6l0.4-0.6l0.2-0.6l0-0.1l0.2-0.7
	l0.1-0.8l0-0.4l0-0.3l-0.2-0.7l-0.3-0.7l-0.2-0.3l-0.2-0.3l-0.5-0.6l-0.6-0.5l-0.6-0.4l-0.4-0.2l-0.3-0.1l-0.7-0.2l-0.8-0.1
	l-0.8,0.1l-0.3,0.1l-0.4,0.1l-0.7,0.3l-0.5,0.3l-0.1,0.1l-0.6,0.5l-0.2,0.2l-0.3,0.4l-0.4,0.6l-0.3,0.7l-0.2,0.7l0,0.3l0,0.4
	l0.1,0.8l0.2,0.7l0.2,0.5l0.1,0.2L92.3,166.9 M99.2,266.4V204H99v0h-7.5h-1v0v62.4h3.1v0H99H99.2 M34.8,401.5l-5.2,3v7.8v2.4l5.2,3
	l3.6,2.1l1-0.6l7.8-4.5v-10.2l-8.8-5.1L34.8,401.5 M37.1,321.7l-2.4,1.4l-3.5,2v9.5l3.5,2l4.7,2.7l3.4-2l4.8-2.8v-1.8V332V325
	l-2.1-1.2l-5.3-3.1l-0.7-0.4l-0.1-0.1L37.1,321.7 M68.3,419.2l0.8,0.5l0.2,0.1l3.4-2l0.2-0.1l5.2-3v-0.2v-2.1v-7.8l-0.4-0.2l-5-2.9
	l-2.6-1.5l-0.9-0.5l-0.2,0.1l-8.6,5v10.2L68.3,419.2 M60,367.7l-6.1-3.5l-6.1,3.5l-8.4,4.8v16.8l13,7.5l1.5,0.9l1.5-0.9l4.6-2.7
	l8.4-4.9v-1v-15.8l-2.7-1.6L60,367.7 M40.3,214.3h0.5h2.7h1v-14.2h-2.3h-2.9v4v7.1v3.1h0.4H40.3 M34.8,167l-1.3,0.8l-2.2,1.3v9.5
	l3.5,2l0.8,0.4l3.9,2.3l8.2-4.7v-9.5l-2.1-1.2l-6.1-3.5L34.8,167 M68.4,339.2l4.4-2.5l3.7-2.1V325l-3.7-2.1l-2.2-1.3l-2.2-1.2
	l-0.2-0.1l-0.2,0.1l-0.6,0.4l-5.3,3.1L60,325v6.9v0.7v1.8l4.8,2.8l3.2,1.9l0.2,0.1L68.4,339.2 M72.2,181l0.6-0.3l1.8-1l1.9-1.1v-9.5
	l-2.2-1.3l-1.5-0.9l-0.3-0.2l-4.2-2.4l-6.1,3.5l-0.1,0.1l-2,1.1v9.5l2,1.1l6.3,3.6L72.2,181 M53.9,39.2L43.7,45v11.7l10.2,5.9
	L64,56.8V45L53.9,39.2 M72.3,74.9l0.4-0.3l6.8-3.9v-8.3l-6.8-3.9l-0.4-0.3l-7.2,4.2v8.3L72.3,74.9 M72.3,107.2l0.4-0.3l6.8-3.9v-8.3
	l-6.8-3.9l-0.4-0.3l-7.2,4.2v8.3L72.3,107.2 M42.5,94.6l-3.1-1.8l-4.1-2.4l-0.5,0.3l-5.9,3.4l-0.8,0.4v2.8v5.5l0.8,0.4l5.9,3.4
	l0.5,0.3l4.1-2.4l3.1-1.8V94.6 M53.9,102.3l-10.2,5.9v11.7l10.2,5.9l10.2-5.9v-11.7L53.9,102.3 M34.8,58.6L28.8,62l-0.8,0.4v8.3
	l0.8,0.4l5.9,3.4l0.5,0.3l4.1-2.4l3.1-1.8v-8.3l-3.1-1.8l-4.1-2.4L34.8,58.6 M87.4,419.6h-1.9H84h0h0h-0.2h-0.6v8.2v1v9.1v1.8h0.6
	H84h0h1.5h1.9v-0.3v0v-0.8v-0.1V420v0V419.6 M81.8,18.8l0.1,0l0.3-0.1l0.4-0.2l0.4-0.2l0.4-0.2l0.4-0.3l0.3-0.3l0.3-0.4l0.3-0.4
	l0.2-0.4l0.2-0.4l0,0l0.2-0.4l0.1-0.5l0.1-0.5l0-0.5l0-0.5l-0.1-0.5l0-0.1l-0.1-0.3l-0.2-0.4l-0.2-0.4l-0.2-0.4L84.6,11l-0.3-0.4
	l-0.3-0.3L83.5,10l-0.4-0.2l-0.4-0.2l-0.4-0.2L82,9.4l-0.2,0l-0.5-0.1l-0.5,0l-0.5,0l-0.5,0.1l-0.5,0.1l-0.4,0.1l0,0l-0.4,0.2
	L78.2,10l-0.4,0.3l-0.3,0.3L77.2,11l-0.3,0.4l-0.2,0.4l-0.2,0.4l-0.2,0.4L76.2,13l0,0.1l0,0.1l-0.1,0.4l0,0.5l0,0.5l0.1,0.4l0,0.1
	l0.1,0.5l0.2,0.4l0,0l0.2,0.4l0.2,0.4l0.3,0.4l0.3,0.4l0.3,0.3l0.4,0.3l0.4,0.2l0.4,0.2l0.4,0.2l0.4,0.1l0,0l0.5,0.1l0.5,0l0.5,0
	L81.8,18.8L81.8,18.8 M15.8,345.7l0.2-0.5l0.2-0.7l0-0.6l0-0.1l-0.1-0.8l-0.2-0.7l-0.3-0.7l-0.4-0.6l-0.4-0.4l-0.1-0.2l-0.6-0.5
	l-0.6-0.4l-0.7-0.3l-0.4-0.1l-0.2,0l-0.1,0l-0.8-0.1l-0.8,0.1l-0.7,0.2l-0.3,0.1l-0.4,0.2l-0.6,0.4L8,340.3l-0.5,0.6l-0.3,0.5
	l-0.1,0.1l-0.3,0.7L6.7,343l-0.1,0.8l0,0.1l0,0.6l0.2,0.7l0,0.1l0.3,0.6l0.4,0.6l0.5,0.6l0.6,0.5l0.4,0.3l0.2,0.1l0.7,0.3l0.7,0.2
	l0.8,0.1l0.6,0l0.1,0l0.1,0l0.6-0.1l0.7-0.3l0.6-0.4l0.6-0.5l0.5-0.6l0.2-0.3l0.2-0.4L15.8,345.7 M15.8,166.3l0.2-0.5l0.2-0.7
	l0.1-0.8l0-0.4l0-0.3l-0.2-0.7l-0.3-0.7l-0.4-0.6l-0.3-0.4l-0.1-0.2l-0.6-0.5l-0.6-0.4l-0.7-0.3l-0.4-0.1l-0.2,0l-0.1,0l-0.8-0.1
	l-0.8,0.1l-0.7,0.2l-0.3,0.1L9.2,160l-0.6,0.4L8,160.9l-0.5,0.6l-0.2,0.3l-0.2,0.4l-0.3,0.7l-0.2,0.7l0,0.3l0,0.4l0.1,0.8l0.2,0.7
	l0,0.1l0.3,0.6l0.4,0.6l0.5,0.6l0.6,0.5l0.2,0.1l0.3,0.2l0.2,0.1l0.7,0.3l0.7,0.2l0.8,0.1l0.6,0l0.2,0l0.1,0l0.6-0.1l0.7-0.3
	l0.6-0.4l0.6-0.5l0.5-0.6l0.1-0.2l0.3-0.4L15.8,166.3 M8.5,277v22.6v22H12h2.2v0h3.1v-14.1V277v0H8.7v0H8.5 M8.5,204v62.4h0.3h5.4v0
	h3.1V204v0H8.7v0H8.5 M6.8,455.6l-0.2,0.6L6.6,457l0.1,0.8l0.2,0.7l0.1,0.1l0.2,0.6l0.4,0.6l0.1,0.1l0.4,0.5l0.6,0.5l0.4,0.2
	l0.3,0.2l0.7,0.3l0.7,0.2l0.8,0.1l0.4,0l0.3,0l0.7-0.2l0.7-0.3l0.6-0.4l0.4-0.3l0.2-0.2l0.3-0.4l0.1-0.1l0.1-0.1l0.4-0.6l0.1-0.2
	l0.2-0.5l0.2-0.7l0.1-0.8l-0.1-0.8l-0.2-0.6l0-0.1l-0.3-0.7l-0.4-0.6l-0.4-0.4l-0.1-0.1l-0.6-0.5l-0.6-0.4l-0.7-0.3l-0.5-0.1l-0.1,0
	l-0.1,0l-0.8-0.1l-0.8,0.1l-0.7,0.2l-0.5,0.2l-0.2,0.1l-0.6,0.4L8,453.6l-0.5,0.6l0,0l-0.3,0.4l-0.1,0.2L6.8,455.6L6.8,455.6
	 M24.1,419.6H24h-0.2h0h-3.5h-0.2h-0.2v0.4v6.6v12.9v0.3h0.2h0.2h3.5h0H24h0.1v-11.1v-8.7V419.6 M28.4,18.9l0.3-0.2l0.1-0.1l0.4-0.2
	l0.4-0.3l0.2-0.1l0.2-0.2l0.3-0.4l0.3-0.4l0.2-0.4l0.2-0.4l0.2-0.4l0.1-0.5l0.1-0.5l0-0.5l0-0.5l-0.1-0.5l-0.1-0.5l0-0.1L31,12.6
	l-0.2-0.4l-0.2-0.4l-0.3-0.4l-0.3-0.4l-0.2-0.2l-0.2-0.1l-0.4-0.3l-0.4-0.2L28.4,10l-0.4-0.2l-0.5-0.1L27,9.7l-0.5,0l-0.5,0
	l-0.5,0.1l-0.5,0.1L24.7,10l-0.4,0.2l-0.4,0.2l-0.1,0l-0.4,0.3l-0.3,0.3l-0.3,0.4l-0.3,0.4l-0.2,0.4l-0.2,0.4L22,13l0,0.1l-0.1,0.5
	L21.8,14l0,0.5l0,0.5l0.1,0.5l0.1,0.5l0,0l0.2,0.4l0.2,0.4l0.2,0.4l0.3,0.4l0.3,0.4l0.3,0.3l0.4,0.3l0.1,0l0.4,0.2l0.1,0.1l0.3,0.2
	l0.4,0.2l0.5,0.1l0.5,0.1l0.5,0l0.5,0l0.5-0.1l0.5-0.1L28.4,18.9 M69.1,214.3v-13.9V200h-5.3v14.3h3.1H69.1 M53.9,94.2L64,88.4V76.6
	l-10.2-5.9l-10.2,5.9v11.7L53.9,94.2z"/>
</svg>
