0
SECTION
2
HEADER
9
$INSUNITS
70
4
9
$ACADVER
1
AC1014
9
$HANDSEED
5
FFFF
0
ENDSEC
0
SECTION
2
TABLES
0
TABLE
2
VPORT
5
8
100
AcDbSymbolTable
0
ENDTAB
0
TABLE
2
LTYPE
5
5
100
AcDbSymbolTable
0
LTYPE
5
14
100
AcDbSymbolTableRecord
100
AcDbLinetypeTableRecord
2
BYBLOCK
70
0
0
LTYPE
5
15
100
AcDbSymbolTableRecord
100
AcDbLinetypeTableRecord
2
BYLAYER
70
0
0
LTYPE
5
16
100
AcDbSymbolTableRecord
100
AcDbLinetypeTableRecord
2
DASHED
70
0
3
Dashed __ __ __ __ __ __ __ __ __ __ __ __ __ _
72
65
73
2
40
0.75
49
0.5
74
0
49
-0.25
74
0
0
ENDTAB
0
TABLE
2
LAYER
5
2
100
AcDbSymbolTable
70
3
0
LAYER
5
50
100
AcDbSymbolTableRecord
100
AcDbLayerTableRecord
2
1
70
0
62
7
6
DASHED
0
LAYER
5
51
100
AcDbSymbolTableRecord
100
AcDbLayerTableRecord
2
0
70
0
62
7
6
CONTINUOUS
0
ENDTAB
0
TABLE
2
STYLE
5
3
100
AcDbSymbolTable
70
1
0
STYLE
5
11
100
AcDbSymbolTableRecord
100
AcDbTextStyleTableRecord
2
STANDARD
70
0
0
ENDTAB
0
TABLE
2
VIEW
5
6
100
AcDbSymbolTable
70
0
0
ENDTAB
0
TABLE
2
UCS
5
7
100
AcDbSymbolTable
70
0
0
ENDTAB
0
TABLE
2
APPID
5
9
100
AcDbSymbolTable
70
2
0
APPID
5
12
100
AcDbSymbolTableRecord
100
AcDbRegAppTableRecord
2
ACAD
70
0
0
ENDTAB
0
TABLE
2
DIMSTYLE
5
A
100
AcDbSymbolTable
70
1
0
ENDTAB
0
TABLE
2
BLOCK_RECORD
5
1
100
AcDbSymbolTable
70
1
0
BLOCK_RECORD
5
1F
100
AcDbSymbolTableRecord
100
AcDbBlockTableRecord
2
*MODEL_SPACE
0
BLOCK_RECORD
5
1B
100
AcDbSymbolTableRecord
100
AcDbBlockTableRecord
2
*PAPER_SPACE
0
ENDTAB
0
ENDSEC
0
SECTION
2
BLOCKS
0
BLOCK
5
20
100
AcDbEntity
100
AcDbBlockBegin
2
*MODEL_SPACE
0
ENDBLK
5
21
100
AcDbEntity
100
AcDbBlockEnd
0
BLOCK
5
1C
100
AcDbEntity
100
AcDbBlockBegin
2
*PAPER_SPACE
0
ENDBLK
5
1D
100
AcDbEntity
100
AcDbBlockEnd
0
ENDSEC
0
SECTION
2
ENTITIES
0
LWPOLYLINE
5
100
100
AcDbEntity
8
0
100
AcDbPolyline
90
36
70
1
43
0.0
10
-34.173944720230608
20
89.01286584909414
10
-34.173944720230608
20
87.012865849094126
10
-40.491491681045829
20
87.012865849094126
10
-42.336428773265055
20
87.059356125408726
42
0.29913177873015717
10
-51.663980443673225
20
81.261660386469586
10
-53.00818024042853
20
78.35642161795127
42
0.14636191718083946
10
-53.986276122508173
20
71.548290133093303
10
-53.406567086482625
20
67.659193784317154
10
-56.948391307103023
20
64.494074325240319
42
0.41421356237309498
10
-57.126830404676276
20
61.317101003278481
10
-53.874566354668815
20
57.677760456072363
10
-48.226613782292219
20
57.360535393719907
10
-45.989672169268829
20
59.359558209978957
10
-35.161159334770943
20
56.999311604244753
10
-32.000000402331352
20
56.999311604244753
10
-32.000000402331352
20
54.499311604244753
42
0.41421356237309243
10
-31.500000402331349
20
53.999311604244738
10
-26.272374062641617
20
53.999311604244738
42
0.41421356237309243
10
-25.772374062641617
20
54.499311604244753
10
-25.772374062641621
20
56.999311604244753
10
-25.133511751655959
20
56.999311604244753
10
-25.133511751655956
20
63.749111098204629
42
-0.79420174732229987
10
-24.184779910979643
20
63.969655277822298
10
-20.758972807954667
20
56.999311604244753
10
-17.965748838739266
20
57
10
-17.965748838739266
20
54.500000000000014
42
0.41421356237310025
10
-17.465748838739255
20
54.000000000000014
10
-10.914657266801449
20
54
42
0.41421356237310025
10
-10.41465726680145
20
54.500000000000014
10
-10.41465726680145
20
57
10
-7.401636607958304
20
57
10
-24.100000578910095
20
86.999999038875131
10
-27.03467247129565
20
86.999999038875131
10
-27.034672471295647
20
89.01286584909414
42
0.41421356237309764
10
-27.534672471295643
20
89.512865849094126
10
-33.673944720230615
20
89.512865849094126
42
0.41421356237309243
0
LWPOLYLINE
5
101
100
AcDbEntity
8
0
100
AcDbPolyline
90
8
70
1
43
0.0
10
-50.982555980693505
20
72.007631870075656
10
-49.361132037190387
20
79.776138588322382
10
-42.721448391395569
20
84.122782502858627
10
-34.952941673148842
20
82.501358559355509
10
-30.606297758612616
20
75.861674913560677
10
-32.22772170211573
20
68.09316819531395
10
-38.867405347910541
20
63.746524280777727
10
-46.635912066157275
20
65.367948224280838
0
ENDSEC
0
SECTION
2
OBJECTS
0
DICTIONARY
5
C
100
AcDbDictionary
3
ACAD_GROUP
350
D
3
ACAD_MLINESTYLE
350
17
0
DICTIONARY
5
D
100
AcDbDictionary
0
DICTIONARY
5
1A
330
C
100
AcDbDictionary
0
DICTIONARY
5
17
100
AcDbDictionary
0
ENDSEC
0
EOF
