  0
SECTION
  2
HEADER
  9
$ACADVER
  1
AC1009
  9
$EXTMAX
 10
25.3396034240723
 20
34.944164276123
 30
0.0
  9
$EXTMIN
 10
-4.6794571876526
 20
0.8083655238152
 30
0.0
  9
$INSUNITS
 70
     4
  9
$LUNITS
 70
     2
  9
$LUPREC
 70
     4
  9
$MEASUREMENT
 70
     1
  0
ENDSEC
  0
SECTION
  2
TABLES
  0
TABLE
  2
LAYER
 70
     1
  0
LAYER
  2
0
 70
     0
 62
     7
  6
Continuous
  0
ENDTAB
  0
TABLE
  2
APPID
 70
     1
  0
APPID
  2
ACAD
 70
     0
  0
ENDTAB
  0
ENDSEC
  0
SECTION
  2
ENTITIES
  0
POLYLINE
  8
0
 66
     1
 10
0.0
 20
0.0
 30
0.0
 70
     1
  0
VERTEX
  8
0
 10
-1.0257540057397
 20
2.4954098088079
 42
0.0
  0
VERTEX
  8
0
 10
-1.0244942965957
 20
2.4966900169443
 42
0.0
  0
VERTEX
  8
0
 10
-1.0253286055837
 20
2.6000646502569
 42
0.0
  0
VERTEX
  8
0
 10
-1.0243499284115
 20
2.6676387493111
 42
0.0
  0
VERTEX
  8
0
 10
-1.0250058961661
 20
2.7489161022842
 42
0.0
  0
VERTEX
  8
0
 10
-1.0244698014515
 20
2.8398553904189
 42
0.0
  0
VERTEX
  8
0
 10
-1.025203665377
 20
2.9307844290575
 42
0.0
  0
VERTEX
  8
0
 10
-1.0247905646163
 20
3.0369632208747
 42
0.0
  0
VERTEX
  8
0
 10
-1.0248459118956
 20
3.0438209975318
 42
0.0
  0
VERTEX
  8
0
 10
-1.1874006178417
 20
3.0425090620225
 42
0.0
  0
VERTEX
  8
0
 10
-4.6794572361795
 20
3.0364243277021
 42
0.0
  0
VERTEX
  8
0
 10
-1.0197289027577
 20
9.5855913385189
 42
0.0
  0
VERTEX
  8
0
 10
5.5607154659548
 20
21.3621473379583
 42
0.0
  0
VERTEX
  8
0
 10
11.0489378652631
 20
31.1825592881003
 42
0.0
  0
VERTEX
  8
0
 10
11.9930709969781
 20
32.8714344868785
 42
0.0
  0
VERTEX
  8
0
 10
14.3454250990648
 20
32.8766270578357
 42
0.0
  0
VERTEX
  8
0
 10
14.882854005621
 20
32.8768495686394
 42
0.0
  0
VERTEX
  8
0
 10
14.9752053979366
 20
32.8775949120006
 42
0.0
  0
VERTEX
  8
0
 10
15.0771689520179
 20
32.8770207870487
 42
0.0
  0
VERTEX
  8
0
 10
15.0774653029559
 20
33.1802074525498
 42
0.0
  0
VERTEX
  8
0
 10
15.0774164635308
 20
33.3593590927828
 42
0.0
  0
VERTEX
  8
0
 10
15.077127222749
 20
33.3951973256093
 42
0.0
  0
VERTEX
  8
0
 10
15.0200167030456
 20
33.4719041149986
 42
0.0
  0
VERTEX
  8
0
 10
14.9387843326929
 20
33.6324802610837
 42
0.0
  0
VERTEX
  8
0
 10
14.8892389580487
 20
33.794696489511
 42
0.0
  0
VERTEX
  8
0
 10
14.8741237717721
 20
33.9585647795231
 42
0.0
  0
VERTEX
  8
0
 10
14.8934752629906
 20
34.1227112408611
 42
0.0
  0
VERTEX
  8
0
 10
14.9445471632752
 20
34.2843577193741
 42
0.0
  0
VERTEX
  8
0
 10
15.0287221179123
 20
34.4421411892694
 42
0.0
  0
VERTEX
  8
0
 10
15.0778262399999
 20
34.5045510750736
 42
0.0
  0
VERTEX
  8
0
 10
15.0772812947877
 20
34.5720722360559
 42
0.0
  0
VERTEX
  8
0
 10
15.0781634981741
 20
34.6327162108297
 42
0.0
  0
VERTEX
  8
0
 10
15.0784185855618
 20
34.9441628923167
 42
0.0
  0
VERTEX
  8
0
 10
19.4648877176184
 20
34.9409810536979
 42
0.0
  0
VERTEX
  8
0
 10
21.6560268723894
 20
34.9393706828025
 42
0.0
  0
VERTEX
  8
0
 10
21.6573984277209
 20
34.9393817522583
 42
0.0
  0
VERTEX
  8
0
 10
21.6569427088642
 20
34.4859885488417
 42
0.0
  0
VERTEX
  8
0
 10
21.6571984952905
 20
34.4542954610168
 42
0.0
  0
VERTEX
  8
0
 10
21.7129517688804
 20
34.3789519024102
 42
0.0
  0
VERTEX
  8
0
 10
21.7675384957186
 20
34.2719012366258
 42
0.0
  0
VERTEX
  8
0
 10
21.7955303568888
 20
34.2183790010392
 42
0.0
  0
VERTEX
  8
0
 10
21.8436787360307
 20
34.0561565780007
 42
0.0
  0
VERTEX
  8
0
 10
21.8587939428063
 20
33.8922857480714
 42
0.0
  0
VERTEX
  8
0
 10
21.8408028759664
 20
33.7295295312725
 42
0.0
  0
VERTEX
  8
0
 10
21.7883849425171
 20
33.5678569487898
 42
0.0
  0
VERTEX
  8
0
 10
21.7734440504199
 20
33.5401764673132
 42
0.0
  0
VERTEX
  8
0
 10
21.7042097828901
 20
33.4100988780673
 42
0.0
  0
VERTEX
  8
0
 10
21.6565027383007
 20
33.3476850272053
 42
0.0
  0
VERTEX
  8
0
 10
21.6570588759627
 20
33.2787770713878
 42
0.0
  0
VERTEX
  8
0
 10
21.6561288885039
 20
33.2209064812943
 42
0.0
  0
VERTEX
  8
0
 10
21.6560104688194
 20
32.8956733337992
 42
0.0
  0
VERTEX
  8
0
 10
21.6560549516328
 20
32.8901617133007
 42
0.0
  0
VERTEX
  8
0
 10
21.7786932273867
 20
32.8897798493192
 42
0.0
  0
VERTEX
  8
0
 10
21.8668791553624
 20
32.890491574333
 42
0.0
  0
VERTEX
  8
0
 10
25.3396040532991
 20
32.8964710891683
 42
0.0
  0
VERTEX
  8
0
 10
24.2609821944851
 20
30.9667012580706
 42
0.0
  0
VERTEX
  8
0
 10
23.6130042831147
 20
29.8066483929771
 42
0.0
  0
VERTEX
  8
0
 10
20.9028323512495
 20
24.9573481072305
 42
0.0
  0
VERTEX
  8
0
 10
24.3324816547943
 20
22.1075967798728
 42
0.0
  0
VERTEX
  8
0
 10
24.3264332255713
 20
13.807345053832
 42
0.0
  0
VERTEX
  8
0
 10
20.9465431748649
 20
11.005966322673
 42
0.0
  0
VERTEX
  8
0
 10
20.8220067569121
 20
10.9016306574445
 42
0.0
  0
VERTEX
  8
0
 10
20.1785754466095
 20
10.3701071547262
 42
0.0
  0
VERTEX
  8
0
 10
20.1776252377008
 20
8.951971301992
 42
0.0
  0
VERTEX
  8
0
 10
20.1744908957079
 20
3.0205988407461
 42
0.0
  0
VERTEX
  8
0
 10
19.613606663238
 20
3.0216602762659
 42
0.0
  0
VERTEX
  8
0
 10
19.4427361782888
 20
3.0215512676918
 42
0.0
  0
VERTEX
  8
0
 10
19.4429767477834
 20
2.4787375315112
 42
0.0
  0
VERTEX
  8
0
 10
19.4433785280331
 20
2.4289551528152
 42
0.0
  0
VERTEX
  8
0
 10
19.5090914222301
 20
2.3123876904929
 42
0.0
  0
VERTEX
  8
0
 10
19.5723604910523
 20
2.158715296965
 42
0.0
  0
VERTEX
  8
0
 10
19.5737771441668
 20
2.1531385484039
 42
0.0
  0
VERTEX
  8
0
 10
19.6109019133299
 20
1.9908728782497
 42
0.0
  0
VERTEX
  8
0
 10
19.6232493892316
 20
1.8268831875621
 42
0.0
  0
VERTEX
  8
0
 10
19.6094082680731
 20
1.6629361439916
 42
0.0
  0
VERTEX
  8
0
 10
19.5666067406022
 20
1.502565492819
 42
0.0
  0
VERTEX
  8
0
 10
19.5003625770152
 20
1.3450537416736
 42
0.0
  0
VERTEX
  8
0
 10
19.4419229671401
 20
1.2465348981487
 42
0.0
  0
VERTEX
  8
0
 10
19.4423452463822
 20
1.1942126021723
 42
0.0
  0
VERTEX
  8
0
 10
19.441377970335
 20
1.1378149591115
 42
0.0
  0
VERTEX
  8
0
 10
19.4425341135026
 20
0.9945636244965
 42
0.0
  0
VERTEX
  8
0
 10
19.4418082764296
 20
0.9145451607078
 42
0.0
  0
VERTEX
  8
0
 10
19.4411828844192
 20
0.8220811022451
 42
0.0
  0
VERTEX
  8
0
 10
19.4412935789778
 20
0.8083655489309
 42
0.0
  0
VERTEX
  8
0
 10
14.3244513293396
 20
0.8112663244839
 42
0.0
  0
VERTEX
  8
0
 10
14.3242998095407
 20
0.999993247874
 42
0.0
  0
VERTEX
  8
0
 10
14.3252308092812
 20
1.2245440743738
 42
0.0
  0
VERTEX
  8
0
 10
14.3248064801399
 20
1.2771203620782
 42
0.0
  0
VERTEX
  8
0
 10
14.2577220306115
 20
1.3936767549447
 42
0.0
  0
VERTEX
  8
0
 10
14.1944586623518
 20
1.5529373764694
 42
0.0
  0
VERTEX
  8
0
 10
14.1559369386845
 20
1.7151917721778
 42
0.0
  0
VERTEX
  8
0
 10
14.1449712676104
 20
1.877922573681
 42
0.0
  0
VERTEX
  8
0
 10
14.1601839441004
 20
2.0418806867074
 42
0.0
  0
VERTEX
  8
0
 10
14.177499989948
 20
2.1151748222791
 42
0.0
  0
VERTEX
  8
0
 10
14.2002067122394
 20
2.2034989526186
 42
0.0
  0
VERTEX
  8
0
 10
14.2664639756039
 20
2.3625348591222
 42
0.0
  0
VERTEX
  8
0
 10
14.3263128393785
 20
2.4595410267246
 42
0.0
  0
VERTEX
  8
0
 10
14.3254354825067
 20
2.5682494863261
 42
0.0
  0
VERTEX
  8
0
 10
14.3262720141382
 20
2.6345523968006
 42
0.0
  0
VERTEX
  8
0
 10
14.3256611441666
 20
2.7102419317567
 42
0.0
  0
VERTEX
  8
0
 10
14.3263541828518
 20
2.7943242631941
 42
0.0
  0
VERTEX
  8
0
 10
14.3256756662056
 20
2.8783955251756
 42
0.0
  0
VERTEX
  8
0
 10
14.3262157628303
 20
2.9845753419424
 42
0.0
  0
VERTEX
  8
0
 10
14.3258939286506
 20
3.0244520432448
 42
0.0
  0
VERTEX
  8
0
 10
14.1357200723704
 20
3.024187242329
 42
0.0
  0
VERTEX
  8
0
 10
12.98189561172
 20
3.0233714239624
 42
0.0
  0
VERTEX
  8
0
 10
12.9543299093627
 20
11.8274954653838
 42
0.0
  0
VERTEX
  8
0
 10
12.9543299093627
 20
11.8274954653838
 42
0.0
  0
VERTEX
  8
0
 10
9.1181745487314
 20
3.8935216695303
 42
0.0
  0
VERTEX
  8
0
 10
9.1181745487314
 20
3.8935216695303
 42
0.0
  0
VERTEX
  8
0
 10
8.9782469254981
 20
3.6206314372595
 42
0.0
  0
VERTEX
  8
0
 10
8.6657840271955
 20
3.0613235001408
 42
0.0
  0
VERTEX
  8
0
 10
5.7346652899546
 20
3.0569718542789
 42
0.0
  0
VERTEX
  8
0
 10
5.5541279696632
 20
3.0555147859039
 42
0.0
  0
VERTEX
  8
0
 10
5.5542127468161
 20
2.5320044210543
 42
0.0
  0
VERTEX
  8
0
 10
5.5544464353287
 20
2.5030493640577
 42
0.0
  0
VERTEX
  8
0
 10
5.600491876513
 20
2.4345847427113
 42
0.0
  0
VERTEX
  8
0
 10
5.681825204403
 20
2.2614995040202
 42
0.0
  0
VERTEX
  8
0
 10
5.7300736596255
 20
2.0868772048187
 42
0.0
  0
VERTEX
  8
0
 10
5.74392878459
 20
1.9091832352627
 42
0.0
  0
VERTEX
  8
0
 10
5.7260734424997
 20
1.7327573886506
 42
0.0
  0
VERTEX
  8
0
 10
5.6750873295766
 20
1.5573341938187
 42
0.0
  0
VERTEX
  8
0
 10
5.6479740552179
 20
1.501995574767
 42
0.0
  0
VERTEX
  8
0
 10
5.5910138449516
 20
1.3869781333854
 42
0.0
  0
VERTEX
  8
0
 10
5.5528801798771
 20
1.3343446627053
 42
0.0
  0
VERTEX
  8
0
 10
5.5540465725408
 20
1.1898233694501
 42
0.0
  0
VERTEX
  8
0
 10
5.5532981865764
 20
1.1125988146699
 42
0.0
  0
VERTEX
  8
0
 10
5.5539992521142
 20
1.0257336436799
 42
0.0
  0
VERTEX
  8
0
 10
5.5533390118167
 20
0.9375874445939
 42
0.0
  0
VERTEX
  8
0
 10
5.5527407176315
 20
0.8354712904858
 42
0.0
  0
VERTEX
  8
0
 10
5.5528965099732
 20
0.8161679191548
 42
0.0
  0
VERTEX
  8
0
 10
-1.0262106150358
 20
0.8209835931054
 42
0.0
  0
VERTEX
  8
0
 10
-1.0256973686362
 20
1.292427088636
 42
0.0
  0
VERTEX
  8
0
 10
-1.0255384553805
 20
1.4301008547303
 42
0.0
  0
VERTEX
  8
0
 10
-1.0255835531636
 20
1.4356886727471
 42
0.0
  0
VERTEX
  8
0
 10
-1.0353459333877
 20
1.4493263298905
 42
0.0
  0
VERTEX
  8
0
 10
-1.1165014670681
 20
1.6224130035111
 42
0.0
  0
VERTEX
  8
0
 10
-1.1649125668236
 20
1.7983040314132
 42
0.0
  0
VERTEX
  8
0
 10
-1.1787828414648
 20
1.9747278373391
 42
0.0
  0
VERTEX
  8
0
 10
-1.1773921345467
 20
1.9912495990572
 42
0.0
  0
VERTEX
  8
0
 10
-1.1609021002016
 20
2.1511538889411
 42
0.0
  0
VERTEX
  8
0
 10
-1.1084579849326
 20
2.3253188095585
 42
0.0
  0
SEQEND
  0
POLYLINE
  8
0
 66
     1
 10
0.0
 20
0.0
 30
0.0
 70
     1
  0
VERTEX
  8
0
 10
14.7007783583859
 20
18.6466495010624
 42
0.0
  0
VERTEX
  8
0
 10
14.6600736083496
 20
18.5663845806527
 42
0.0
  0
VERTEX
  8
0
 10
14.6357952605616
 20
18.5028389735142
 42
0.0
  0
VERTEX
  8
0
 10
14.6168813700849
 20
18.4544247528447
 42
0.0
  0
VERTEX
  8
0
 10
14.5847601158915
 20
18.3397855858177
 42
0.0
  0
VERTEX
  8
0
 10
14.5650303977655
 20
18.2225031382205
 42
0.0
  0
VERTEX
  8
0
 10
14.5563210703552
 20
18.1025155422517
 42
0.0
  0
VERTEX
  8
0
 10
14.5586743028518
 20
17.9840396755665
 42
0.0
  0
VERTEX
  8
0
 10
14.5734225366667
 20
17.865638444791
 42
0.0
  0
VERTEX
  8
0
 10
14.599146473394
 20
17.7500690853152
 42
0.0
  0
VERTEX
  8
0
 10
14.6372793311767
 20
17.6359969204161
 42
0.0
  0
VERTEX
  8
0
 10
14.6850193918117
 20
17.5275142721864
 42
0.0
  0
VERTEX
  8
0
 10
14.7101759164312
 20
17.4822498230323
 42
0.0
  0
VERTEX
  8
0
 10
14.7115696106744
 20
17.4795177818253
 42
0.0
  0
VERTEX
  8
0
 10
14.7437236759233
 20
17.4232858489334
 42
0.0
  0
VERTEX
  8
0
 10
14.812035572867
 20
17.3245961440041
 42
0.0
  0
VERTEX
  8
0
 10
14.8273323274712
 20
17.3081836614928
 42
0.0
  0
VERTEX
  8
0
 10
14.8899577279341
 20
17.2342646705697
 42
0.0
  0
VERTEX
  8
0
 10
14.977428273323
 20
17.1536625739818
 42
0.0
  0
VERTEX
  8
0
 10
15.0703657514071
 20
17.0786419798785
 42
0.0
  0
VERTEX
  8
0
 10
15.1174353095805
 20
17.0500903234733
 42
0.0
  0
VERTEX
  8
0
 10
15.1714835297327
 20
17.0160576096459
 42
0.0
  0
VERTEX
  8
0
 10
15.1728550850641
 20
17.0160686791017
 42
0.0
  0
VERTEX
  8
0
 10
15.1838974097017
 20
17.0106458192401
 42
0.0
  0
VERTEX
  8
0
 10
15.2779955084861
 20
16.9617720434081
 42
0.0
  0
VERTEX
  8
0
 10
15.3900061346397
 20
16.9185802151232
 42
0.0
  0
VERTEX
  8
0
 10
15.5046342322109
 20
16.8878305162613
 42
0.0
  0
VERTEX
  8
0
 10
15.577768163551
 20
16.8746281114582
 42
0.0
  0
VERTEX
  8
0
 10
15.6219277492639
 20
16.8667292428038
 42
0.0
  0
VERTEX
  8
0
 10
15.7404925815759
 20
16.8580592343034
 42
0.0
  0
VERTEX
  8
0
 10
15.8603799374722
 20
16.8617701023943
 42
0.0
  0
VERTEX
  8
0
 10
15.9787672485106
 20
16.8750957775423
 42
0.0
  0
VERTEX
  8
0
 10
16.0957333575007
 20
16.9008563878882
 42
0.0
  0
VERTEX
  8
0
 10
16.2084085678955
 20
16.9389779712251
 42
0.0
  0
VERTEX
  8
0
 10
16.3168914211152
 20
16.9866926326873
 42
0.0
  0
VERTEX
  8
0
 10
16.3744836348927
 20
17.0202547218963
 42
0.0
  0
VERTEX
  8
0
 10
16.4211448335612
 20
17.0454479201345
 42
0.0
  0
VERTEX
  8
0
 10
16.5184265145304
 20
17.1151200979638
 42
0.0
  0
VERTEX
  8
0
 10
16.5430635751065
 20
17.1373668551128
 42
0.0
  0
VERTEX
  8
0
 10
16.5991477298414
 20
17.1846840215359
 42
0.0
  0
VERTEX
  8
0
 10
16.6087581929547
 20
17.193016853858
 42
0.0
  0
VERTEX
  8
0
 10
16.6907431193198
 20
17.2791015141986
 42
0.0
  0
VERTEX
  8
0
 10
16.7644060778287
 20
17.3734504814938
 42
0.0
  0
VERTEX
  8
0
 10
16.7888955652377
 20
17.4108349406442
 42
0.0
  0
VERTEX
  8
0
 10
16.8283624133726
 20
17.4745285309297
 42
0.0
  0
VERTEX
  8
0
 10
16.8554722224804
 20
17.5271492335014
 42
0.0
  0
VERTEX
  8
0
 10
16.8812252159536
 20
17.5810798285929
 42
0.0
  0
VERTEX
  8
0
 10
16.9244283186843
 20
17.6916935002423
 42
0.0
  0
VERTEX
  8
0
 10
16.9566005762131
 20
17.8063076780764
 42
0.0
  0
VERTEX
  8
0
 10
16.9763188149034
 20
17.9250124793506
 42
0.0
  0
VERTEX
  8
0
 10
16.9863714481911
 20
18.042216825787
 42
0.0
  0
VERTEX
  8
0
 10
16.9826607850901
 20
18.1620787825105
 42
0.0
  0
VERTEX
  8
0
 10
16.9679379504481
 20
18.2804802182759
 42
0.0
  0
VERTEX
  8
0
 10
16.9421523509092
 20
18.3973953239305
 42
0.0
  0
VERTEX
  8
0
 10
16.9054529162593
 20
18.5101074129338
 42
0.0
  0
VERTEX
  8
0
 10
16.8998521251442
 20
18.5211115702902
 42
0.0
  0
VERTEX
  8
0
 10
16.8563302308371
 20
18.6199505470391
 42
0.0
  0
VERTEX
  8
0
 10
16.8465084231129
 20
18.637804261878
 42
0.0
  0
VERTEX
  8
0
 10
16.7976112070287
 20
18.7228580083164
 42
0.0
  0
VERTEX
  8
0
 10
16.7279138350164
 20
18.8201140851229
 42
0.0
  0
VERTEX
  8
0
 10
16.6513886344536
 20
18.9104568330031
 42
0.0
  0
VERTEX
  8
0
 10
16.5847010649945
 20
18.9746907249032
 42
0.0
  0
VERTEX
  8
0
 10
16.5639213493258
 20
18.9938022452438
 42
0.0
  0
VERTEX
  8
0
 10
16.4709806109806
 20
19.0660795236942
 42
0.0
  0
VERTEX
  8
0
 10
16.4682006217092
 20
19.0674795334696
 42
0.0
  0
VERTEX
  8
0
 10
16.3698658879261
 20
19.1314326087524
 42
0.0
  0
VERTEX
  8
0
 10
16.3006799657726
 20
19.1653177494128
 42
0.0
  0
VERTEX
  8
0
 10
16.2633143852729
 20
19.1843208105062
 42
0.0
  0
VERTEX
  8
0
 10
16.1527261127963
 20
19.2275241182268
 42
0.0
  0
VERTEX
  8
0
 10
16.036715185448
 20
19.2596597021371
 42
0.0
  0
VERTEX
  8
0
 10
15.919407338678
 20
19.2793892152732
 42
0.0
  0
VERTEX
  8
0
 10
15.8008169022033
 20
19.2880844179564
 42
0.0
  0
VERTEX
  8
0
 10
15.6823408305281
 20
19.2857565846327
 42
0.0
  0
VERTEX
  8
0
 10
15.5625537147043
 20
19.2696255210406
 42
0.0
  0
VERTEX
  8
0
 10
15.5584390487101
 20
19.269592312673
 42
0.0
  0
VERTEX
  8
0
 10
15.4470099593912
 20
19.2438763901304
 42
0.0
  0
VERTEX
  8
0
 10
15.3329377944922
 20
19.2057435323476
 42
0.0
  0
VERTEX
  8
0
 10
15.2244549412725
 20
19.1580288708855
 42
0.0
  0
VERTEX
  8
0
 10
15.2217231050555
 20
19.1566097774696
 42
0.0
  0
VERTEX
  8
0
 10
15.1737012155216
 20
19.1300593536169
 42
0.0
  0
VERTEX
  8
0
 10
15.1215730841579
 20
19.0992846528942
 42
0.0
  0
VERTEX
  8
0
 10
15.040689555983
 20
19.0435374693476
 42
0.0
  0
VERTEX
  8
0
 10
15.0229087784014
 20
19.0309729609404
 42
0.0
  0
VERTEX
  8
0
 10
14.9339738494914
 20
18.9531128786647
 42
0.0
  0
VERTEX
  8
0
 10
14.850592173612
 20
18.8669915447056
 42
0.0
  0
VERTEX
  8
0
 10
14.7769288051233
 20
18.772693375756
 42
0.0
  0
VERTEX
  8
0
 10
14.7714952857856
 20
18.7629718081043
 42
0.0
  0
VERTEX
  8
0
 10
14.7143587646076
 20
18.6729473577517
 42
0.0
  0
SEQEND
  0
POLYLINE
  8
0
 66
     1
 10
0.0
 20
0.0
 30
0.0
 70
     1
  0
VERTEX
  8
0
 10
9.84147007418
 20
18.6722034343488
 42
0.0
  0
VERTEX
  8
0
 10
9.8034748164591
 20
18.5961261171908
 42
0.0
  0
VERTEX
  8
0
 10
9.7602825781944
 20
18.4841662893827
 42
0.0
  0
VERTEX
  8
0
 10
9.7535408649893
 20
18.4634356054611
 42
0.0
  0
VERTEX
  8
0
 10
9.7281363348081
 20
18.3694761190202
 42
0.0
  0
VERTEX
  8
0
 10
9.7084066166821
 20
18.252193671423
 42
0.0
  0
VERTEX
  8
0
 10
9.6983396536774
 20
18.1336175646653
 42
0.0
  0
VERTEX
  8
0
 10
9.7020759209412
 20
18.0137304137589
 42
0.0
  0
VERTEX
  8
0
 10
9.7168239497661
 20
17.8953545821562
 42
0.0
  0
VERTEX
  8
0
 10
9.7425476815035
 20
17.7798106218532
 42
0.0
  0
VERTEX
  8
0
 10
9.7792727203161
 20
17.667073338667
 42
0.0
  0
VERTEX
  8
0
 10
9.8284208049111
 20
17.5572304095516
 42
0.0
  0
VERTEX
  8
0
 10
9.8507897360545
 20
17.5174554419843
 42
0.0
  0
VERTEX
  8
0
 10
9.8871252940127
 20
17.4529765871258
 42
0.0
  0
VERTEX
  8
0
 10
9.8968770147608
 20
17.4406596869682
 42
0.0
  0
VERTEX
  8
0
 10
9.9554259165106
 20
17.3556838367007
 42
0.0
  0
VERTEX
  8
0
 10
9.9624011132384
 20
17.3474848627985
 42
0.0
  0
VERTEX
  8
0
 10
10.0333480715777
 20
17.2653523632663
 42
0.0
  0
VERTEX
  8
0
 10
10.119458131091
 20
17.1833676418911
 42
0.0
  0
VERTEX
  8
0
 10
10.2137563000406
 20
17.1097042734024
 42
0.0
  0
VERTEX
  8
0
 10
10.235914091563
 20
17.0960904538232
 42
0.0
  0
VERTEX
  8
0
 10
10.3148343494765
 20
17.0457479378584
 42
0.0
  0
VERTEX
  8
0
 10
10.3798689320171
 20
17.0132263383448
 42
0.0
  0
VERTEX
  8
0
 10
10.4213856471398
 20
16.9928851352775
 42
0.0
  0
VERTEX
  8
0
 10
10.5319739196164
 20
16.9496818275569
 42
0.0
  0
VERTEX
  8
0
 10
10.6479850519546
 20
16.9175208444738
 42
0.0
  0
VERTEX
  8
0
 10
10.7653182978974
 20
16.8977915363276
 42
0.0
  0
VERTEX
  8
0
 10
10.8838941996653
 20
16.8877499724958
 42
0.0
  0
VERTEX
  8
0
 10
11.0024100002302
 20
16.8914497711309
 42
0.0
  0
VERTEX
  8
0
 10
11.1207860368227
 20
16.906172400783
 42
0.0
  0
VERTEX
  8
0
 10
11.2377011424773
 20
16.9319580003219
 42
0.0
  0
VERTEX
  8
0
 10
11.3517735123663
 20
16.9700654589318
 42
0.0
  0
VERTEX
  8
0
 10
11.4602563655859
 20
17.017780120394
 42
0.0
  0
VERTEX
  8
0
 10
11.4671313222412
 20
17.022001341993
 42
0.0
  0
VERTEX
  8
0
 10
11.4794705663004
 20
17.0289845529055
 42
0.0
  0
VERTEX
  8
0
 10
11.5631384276905
 20
17.0764989392125
 42
0.0
  0
VERTEX
  8
0
 10
11.6426499905541
 20
17.1322858516488
 42
0.0
  0
VERTEX
  8
0
 10
11.6604199036698
 20
17.1461965162146
 42
0.0
  0
VERTEX
  8
0
 10
11.7507767762769
 20
17.2241188762716
 42
0.0
  0
VERTEX
  8
0
 10
11.8341076538107
 20
17.3102398002509
 42
0.0
  0
VERTEX
  8
0
 10
11.9064361405867
 20
17.4031301502304
 42
0.0
  0
VERTEX
  8
0
 10
11.909145837892
 20
17.4072923543091
 42
0.0
  0
VERTEX
  8
0
 10
11.9404182610584
 20
17.4571525612299
 42
0.0
  0
VERTEX
  8
0
 10
11.9703922711407
 20
17.504233598839
 42
0.0
  0
VERTEX
  8
0
 10
11.9961528688187
 20
17.5540747221192
 42
0.0
  0
VERTEX
  8
0
 10
12.024626629053
 20
17.6107959659581
 42
0.0
  0
VERTEX
  8
0
 10
12.0678299367736
 20
17.7213842384347
 42
0.0
  0
VERTEX
  8
0
 10
12.0999909198567
 20
17.837395370773
 42
0.0
  0
VERTEX
  8
0
 10
12.1197204329928
 20
17.954703217543
 42
0.0
  0
VERTEX
  8
0
 10
12.1283902365033
 20
18.0732934490278
 42
0.0
  0
VERTEX
  8
0
 10
12.1260513337236
 20
18.1931410760344
 42
0.0
  0
VERTEX
  8
0
 10
12.1099313395874
 20
18.3115566365267
 42
0.0
  0
VERTEX
  8
0
 10
12.0841822086772
 20
18.4271003918398
 42
0.0
  0
VERTEX
  8
0
 10
12.0672023140582
 20
18.4821085475574
 42
0.0
  0
VERTEX
  8
0
 10
12.0474463053987
 20
18.5411838311847
 42
0.0
  0
VERTEX
  8
0
 10
11.9983092902595
 20
18.6496552049686
 42
0.0
  0
VERTEX
  8
0
 10
11.9871335171819
 20
18.6716129263258
 42
0.0
  0
VERTEX
  8
0
 10
11.9396302003307
 20
18.7539092323844
 42
0.0
  0
VERTEX
  8
0
 10
11.8727011331642
 20
18.8512130522653
 42
0.0
  0
VERTEX
  8
0
 10
11.793381818603
 20
18.9415586504267
 42
0.0
  0
VERTEX
  8
0
 10
11.7072973632524
 20
19.023518177619
 42
0.0
  0
VERTEX
  8
0
 10
11.6129991943028
 20
19.0971815461078
 42
0.0
  0
VERTEX
  8
0
 10
11.5866794036916
 20
19.1134796638195
 42
0.0
  0
VERTEX
  8
0
 10
11.5658931675007
 20
19.1271045528545
 42
0.0
  0
VERTEX
  8
0
 10
11.5132673010256
 20
19.1611487461177
 42
0.0
  0
VERTEX
  8
0
 10
11.4966768872609
 20
19.1678984735075
 42
0.0
  0
VERTEX
  8
0
 10
11.4620654868799
 20
19.1855521181812
 42
0.0
  0
VERTEX
  8
0
 10
11.4067047289165
 20
19.2154085032028
 42
0.0
  0
VERTEX
  8
0
 10
11.2947559705644
 20
19.2572291861361
 42
0.0
  0
VERTEX
  8
0
 10
11.1800909943847
 20
19.2894010336852
 42
0.0
  0
VERTEX
  8
0
 10
11.0627974773316
 20
19.3105023071426
 42
0.0
  0
VERTEX
  8
0
 10
10.9428467599713
 20
19.3177894858658
 42
0.0
  0
VERTEX
  8
0
 10
10.8243200949405
 20
19.3154358433894
 42
0.0
  0
VERTEX
  8
0
 10
10.7059442633378
 20
19.3006878145644
 42
0.0
  0
VERTEX
  8
0
 10
10.5890287477034
 20
19.2749530133711
 42
0.0
  0
VERTEX
  8
0
 10
10.4763281381358
 20
19.2368312250442
 42
0.0
  0
VERTEX
  8
0
 10
10.4378800380965
 20
19.2200103830281
 42
0.0
  0
VERTEX
  8
0
 10
10.367845489906
 20
19.1890911644093
 42
0.0
  0
VERTEX
  8
0
 10
10.3143453932311
 20
19.1583561925763
 42
0.0
  0
VERTEX
  8
0
 10
10.2635916674802
 20
19.1303866753077
 42
0.0
  0
VERTEX
  8
0
 10
10.2443996056775
 20
19.1164391321334
 42
0.0
  0
VERTEX
  8
0
 10
10.1662735178823
 20
19.0620858478199
 42
0.0
  0
VERTEX
  8
0
 10
10.141661856479
 20
19.0398392956608
 42
0.0
  0
VERTEX
  8
0
 10
10.0759420444479
 20
18.9841636927528
 42
0.0
  0
VERTEX
  8
0
 10
9.9939937917014
 20
18.896682282898
 42
0.0
  0
VERTEX
  8
0
 10
9.9203193537568
 20
18.8037556692798
 42
0.0
  0
VERTEX
  8
0
 10
9.8931171137713
 20
18.7594402912251
 42
0.0
  0
VERTEX
  8
0
 10
9.8563634281927
 20
18.7026268214983
 42
0.0
  0
SEQEND
  0
POLYLINE
  8
0
 66
     1
 10
0.0
 20
0.0
 30
0.0
 70
     1
  0
VERTEX
  8
0
 10
21.1118359672757
 20
19.1325169685948
 42
0.0
  0
VERTEX
  8
0
 10
21.0550893242639
 20
19.1609905238392
 42
0.0
  0
VERTEX
  8
0
 10
21.0219004825499
 20
19.1786302487758
 42
0.0
  0
VERTEX
  8
0
 10
21.0052736001566
 20
19.1867513265071
 42
0.0
  0
VERTEX
  8
0
 10
20.89468532768
 20
19.2299546342277
 42
0.0
  0
VERTEX
  8
0
 10
20.7786852647975
 20
19.2607440619794
 42
0.0
  0
VERTEX
  8
0
 10
20.6779233489789
 20
19.2792354682242
 42
0.0
  0
VERTEX
  8
0
 10
20.6613663485717
 20
19.2818451304469
 42
0.0
  0
VERTEX
  8
0
 10
20.5427761170869
 20
19.2905149339574
 42
0.0
  0
VERTEX
  8
0
 10
20.4229284900803
 20
19.2881760311777
 42
0.0
  0
VERTEX
  8
0
 10
20.3045018601321
 20
19.2734275923729
 42
0.0
  0
VERTEX
  8
0
 10
20.2907832515467
 20
19.2705481829888
 42
0.0
  0
VERTEX
  8
0
 10
20.1875865494876
 20
19.2476673920069
 42
0.0
  0
VERTEX
  8
0
 10
20.0749111341028
 20
19.2095712078427
 42
0.0
  0
VERTEX
  8
0
 10
19.9664028817104
 20
19.1618563413906
 42
0.0
  0
VERTEX
  8
0
 10
19.9499459163858
 20
19.152071207285
 42
0.0
  0
VERTEX
  8
0
 10
19.8621492642744
 20
19.1031264531163
 42
0.0
  0
VERTEX
  8
0
 10
19.7676139542291
 20
19.0362197298514
 42
0.0
  0
VERTEX
  8
0
 10
19.7648565138494
 20
19.0348258306183
 42
0.0
  0
VERTEX
  8
0
 10
19.6745504395878
 20
18.9569038805412
 42
0.0
  0
VERTEX
  8
0
 10
19.6567744159298
 20
18.9374557863242
 42
0.0
  0
VERTEX
  8
0
 10
19.5925513884957
 20
18.8694220607065
 42
0.0
  0
VERTEX
  8
0
 10
19.518876950551
 20
18.7764954470883
 42
0.0
  0
VERTEX
  8
0
 10
19.5066490160202
 20
18.7557204853432
 42
0.0
  0
VERTEX
  8
0
 10
19.4563288439571
 20
18.674031717594
 42
0.0
  0
VERTEX
  8
0
 10
19.4508699254466
 20
18.6643099449524
 42
0.0
  0
VERTEX
  8
0
 10
19.4359542275323
 20
18.6366550676385
 42
0.0
  0
VERTEX
  8
0
 10
19.4020326182433
 20
18.5688404958265
 42
0.0
  0
VERTEX
  8
0
 10
19.391256985496
 20
18.5412190318701
 42
0.0
  0
VERTEX
  8
0
 10
19.3588403799786
 20
18.4568806680185
 42
0.0
  0
VERTEX
  8
0
 10
19.3267191257852
 20
18.3422415009914
 42
0.0
  0
VERTEX
  8
0
 10
19.3069896126491
 20
18.2249336542215
 42
0.0
  0
VERTEX
  8
0
 10
19.2968974554616
 20
18.106331943301
 42
0.0
  0
VERTEX
  8
0
 10
19.3006335177354
 20
17.9864701915674
 42
0.0
  0
VERTEX
  8
0
 10
19.3094587162757
 20
17.9190006177964
 42
0.0
  0
VERTEX
  8
0
 10
19.3153817515503
 20
17.8680689607919
 42
0.0
  0
VERTEX
  8
0
 10
19.3411165527436
 20
17.7511534451575
 42
0.0
  0
VERTEX
  8
0
 10
19.3792381360805
 20
17.6384782347627
 42
0.0
  0
VERTEX
  8
0
 10
19.4269784017054
 20
17.5299701873601
 42
0.0
  0
VERTEX
  8
0
 10
19.4339616126179
 20
17.517630943301
 42
0.0
  0
VERTEX
  8
0
 10
19.4451517154124
 20
17.4970449822652
 42
0.0
  0
VERTEX
  8
0
 10
19.4605009670146
 20
17.4709806090985
 42
0.0
  0
VERTEX
  8
0
 10
19.485682890807
 20
17.4257163649343
 42
0.0
  0
VERTEX
  8
0
 10
19.5554058669819
 20
17.3284350939449
 42
0.0
  0
VERTEX
  8
0
 10
19.5776749680326
 20
17.3010295235331
 42
0.0
  0
VERTEX
  8
0
 10
19.6319056683719
 20
17.2380921410748
 42
0.0
  0
VERTEX
  8
0
 10
19.7193872832167
 20
17.1561184891555
 42
0.0
  0
VERTEX
  8
0
 10
19.8123138968349
 20
17.0824440512109
 42
0.0
  0
VERTEX
  8
0
 10
19.8663365128244
 20
17.0484365315663
 42
0.0
  0
VERTEX
  8
0
 10
19.9134427446163
 20
17.0184881256468
 42
0.0
  0
VERTEX
  8
0
 10
19.935578192237
 20
17.0076428159033
 42
0.0
  0
VERTEX
  8
0
 10
20.0199686431068
 20
16.965625118076
 42
0.0
  0
VERTEX
  8
0
 10
20.1305825197461
 20
16.9223966161725
 42
0.0
  0
VERTEX
  8
0
 10
20.2465934470945
 20
16.8902610322622
 42
0.0
  0
VERTEX
  8
0
 10
20.289381477476
 20
16.8823510941519
 42
0.0
  0
VERTEX
  8
0
 10
20.3638758946917
 20
16.8705313141362
 42
0.0
  0
VERTEX
  8
0
 10
20.4824520014494
 20
16.8604643511315
 42
0.0
  0
VERTEX
  8
0
 10
20.6009675970244
 20
16.8641895489394
 42
0.0
  0
VERTEX
  8
0
 10
20.6973192905348
 20
16.8759911366753
 42
0.0
  0
VERTEX
  8
0
 10
20.7207149839585
 20
16.8789486472202
 42
0.0
  0
VERTEX
  8
0
 10
20.8363097426071
 20
16.9046727889375
 42
0.0
  0
VERTEX
  8
0
 10
20.9503565083334
 20
16.9428054417303
 42
0.0
  0
VERTEX
  8
0
 10
21.0203912615138
 20
16.9736992611762
 42
0.0
  0
VERTEX
  8
0
 10
21.0588391565631
 20
16.9905455023652
 42
0.0
  0
VERTEX
  8
0
 10
21.1054894907656
 20
17.017084856762
 42
0.0
  0
VERTEX
  8
0
 10
21.1630929789889
 20
17.0492499914668
 42
0.0
  0
VERTEX
  8
0
 10
21.260385729414
 20
17.1175506139647
 42
0.0
  0
VERTEX
  8
0
 10
21.2726913551258
 20
17.1286992892171
 42
0.0
  0
VERTEX
  8
0
 10
21.3507172028484
 20
17.1954727690318
 42
0.0
  0
VERTEX
  8
0
 10
21.4327162539405
 20
17.2829545888665
 42
0.0
  0
VERTEX
  8
0
 10
21.5063652927123
 20
17.3758809974947
 42
0.0
  0
VERTEX
  8
0
 10
21.5226890145868
 20
17.402175593923
 42
0.0
  0
VERTEX
  8
0
 10
21.568949662945
 20
17.4769987758203
 42
0.0
  0
VERTEX
  8
0
 10
21.5987839090549
 20
17.5351026444466
 42
0.0
  0
VERTEX
  8
0
 10
21.6056035184309
 20
17.5461816427027
 42
0.0
  0
VERTEX
  8
0
 10
21.6231844308372
 20
17.5835103445939
 42
0.0
  0
VERTEX
  8
0
 10
21.6663877385578
 20
17.6940986170705
 42
0.0
  0
VERTEX
  8
0
 10
21.698548311661
 20
17.8101605477544
 42
0.0
  0
VERTEX
  8
0
 10
21.7182780297871
 20
17.9274429953515
 42
0.0
  0
VERTEX
  8
0
 10
21.7269480382875
 20
18.0460078276635
 42
0.0
  0
VERTEX
  8
0
 10
21.7246197949838
 20
18.1645346976843
 42
0.0
  0
VERTEX
  8
0
 10
21.7098860958758
 20
18.2842822896083
 42
0.0
  0
VERTEX
  8
0
 10
21.6841623641384
 20
18.3998262499113
 42
0.0
  0
VERTEX
  8
0
 10
21.6460039021929
 20
18.5139236089932
 42
0.0
  0
VERTEX
  8
0
 10
21.6263587930819
 20
18.5592579401335
 42
0.0
  0
VERTEX
  8
0
 10
21.5982894457207
 20
18.62238106304
 42
0.0
  0
VERTEX
  8
0
 10
21.5968953414977
 20
18.6251639025926
 42
0.0
  0
VERTEX
  8
0
 10
21.5395593524564
 20
18.7266600796488
 42
0.0
  0
VERTEX
  8
0
 10
21.4712587299585
 20
18.8239528300739
 42
0.0
  0
VERTEX
  8
0
 10
21.3933619740643
 20
18.9142845084982
 42
0.0
  0
VERTEX
  8
0
 10
21.3058801542295
 20
18.9962835595903
 42
0.0
  0
VERTEX
  8
0
 10
21.21711615467
 20
19.067197501884
 42
0.0
  0
VERTEX
  8
0
 10
21.2129283464285
 20
19.0699323933722
 42
0.0
  0
SEQEND
  0
POLYLINE
  8
0
 66
     1
 10
0.0
 20
0.0
 30
0.0
 70
     1
  0
VERTEX
  8
0
 10
14.7007783583859
 20
18.6466495010624
 42
0.0
  0
VERTEX
  8
0
 10
14.6600736083496
 20
18.5663845806527
 42
0.0
  0
VERTEX
  8
0
 10
14.6357952605616
 20
18.5028389735142
 42
0.0
  0
VERTEX
  8
0
 10
14.6168813700849
 20
18.4544247528447
 42
0.0
  0
VERTEX
  8
0
 10
14.5847601158915
 20
18.3397855858177
 42
0.0
  0
VERTEX
  8
0
 10
14.5650303977655
 20
18.2225031382205
 42
0.0
  0
VERTEX
  8
0
 10
14.5563210703552
 20
18.1025155422517
 42
0.0
  0
VERTEX
  8
0
 10
14.5586743028518
 20
17.9840396755665
 42
0.0
  0
VERTEX
  8
0
 10
14.5734225366667
 20
17.865638444791
 42
0.0
  0
VERTEX
  8
0
 10
14.599146473394
 20
17.7500690853152
 42
0.0
  0
VERTEX
  8
0
 10
14.6372793311767
 20
17.6359969204161
 42
0.0
  0
VERTEX
  8
0
 10
14.6850193918117
 20
17.5275142721864
 42
0.0
  0
VERTEX
  8
0
 10
14.7101759164312
 20
17.4822498230323
 42
0.0
  0
VERTEX
  8
0
 10
14.7115696106744
 20
17.4795177818253
 42
0.0
  0
VERTEX
  8
0
 10
14.7437236759233
 20
17.4232858489334
 42
0.0
  0
VERTEX
  8
0
 10
14.812035572867
 20
17.3245961440041
 42
0.0
  0
VERTEX
  8
0
 10
14.8273323274712
 20
17.3081836614928
 42
0.0
  0
VERTEX
  8
0
 10
14.8899577279341
 20
17.2342646705697
 42
0.0
  0
VERTEX
  8
0
 10
14.977428273323
 20
17.1536625739818
 42
0.0
  0
VERTEX
  8
0
 10
15.0703657514071
 20
17.0786419798785
 42
0.0
  0
VERTEX
  8
0
 10
15.1174353095805
 20
17.0500903234733
 42
0.0
  0
VERTEX
  8
0
 10
15.1714835297327
 20
17.0160576096459
 42
0.0
  0
VERTEX
  8
0
 10
15.1728550850641
 20
17.0160686791017
 42
0.0
  0
VERTEX
  8
0
 10
15.1838974097017
 20
17.0106458192401
 42
0.0
  0
VERTEX
  8
0
 10
15.2779955084861
 20
16.9617720434081
 42
0.0
  0
VERTEX
  8
0
 10
15.3900061346397
 20
16.9185802151232
 42
0.0
  0
VERTEX
  8
0
 10
15.5046342322109
 20
16.8878305162613
 42
0.0
  0
VERTEX
  8
0
 10
15.577768163551
 20
16.8746281114582
 42
0.0
  0
VERTEX
  8
0
 10
15.6219277492639
 20
16.8667292428038
 42
0.0
  0
VERTEX
  8
0
 10
15.7404925815759
 20
16.8580592343034
 42
0.0
  0
VERTEX
  8
0
 10
15.8603799374722
 20
16.8617701023943
 42
0.0
  0
VERTEX
  8
0
 10
15.9787672485106
 20
16.8750957775423
 42
0.0
  0
VERTEX
  8
0
 10
16.0957333575007
 20
16.9008563878882
 42
0.0
  0
VERTEX
  8
0
 10
16.2084085678955
 20
16.9389779712251
 42
0.0
  0
VERTEX
  8
0
 10
16.3168914211152
 20
16.9866926326873
 42
0.0
  0
VERTEX
  8
0
 10
16.3744836348927
 20
17.0202547218963
 42
0.0
  0
VERTEX
  8
0
 10
16.4211448335612
 20
17.0454479201345
 42
0.0
  0
VERTEX
  8
0
 10
16.5184265145304
 20
17.1151200979638
 42
0.0
  0
VERTEX
  8
0
 10
16.5430635751065
 20
17.1373668551128
 42
0.0
  0
VERTEX
  8
0
 10
16.5991477298414
 20
17.1846840215359
 42
0.0
  0
VERTEX
  8
0
 10
16.6087581929547
 20
17.193016853858
 42
0.0
  0
VERTEX
  8
0
 10
16.6907431193198
 20
17.2791015141986
 42
0.0
  0
VERTEX
  8
0
 10
16.7644060778287
 20
17.3734504814938
 42
0.0
  0
VERTEX
  8
0
 10
16.7888955652377
 20
17.4108349406442
 42
0.0
  0
VERTEX
  8
0
 10
16.8283624133726
 20
17.4745285309297
 42
0.0
  0
VERTEX
  8
0
 10
16.8554722224804
 20
17.5271492335014
 42
0.0
  0
VERTEX
  8
0
 10
16.8812252159536
 20
17.5810798285929
 42
0.0
  0
VERTEX
  8
0
 10
16.9244283186843
 20
17.6916935002423
 42
0.0
  0
VERTEX
  8
0
 10
16.9566005762131
 20
17.8063076780764
 42
0.0
  0
VERTEX
  8
0
 10
16.9763188149034
 20
17.9250124793506
 42
0.0
  0
VERTEX
  8
0
 10
16.9863714481911
 20
18.042216825787
 42
0.0
  0
VERTEX
  8
0
 10
16.9826607850901
 20
18.1620787825105
 42
0.0
  0
VERTEX
  8
0
 10
16.9679379504481
 20
18.2804802182759
 42
0.0
  0
VERTEX
  8
0
 10
16.9421523509092
 20
18.3973953239305
 42
0.0
  0
VERTEX
  8
0
 10
16.9054529162593
 20
18.5101074129338
 42
0.0
  0
VERTEX
  8
0
 10
16.8998521251442
 20
18.5211115702902
 42
0.0
  0
VERTEX
  8
0
 10
16.8563302308371
 20
18.6199505470391
 42
0.0
  0
VERTEX
  8
0
 10
16.8465084231129
 20
18.637804261878
 42
0.0
  0
VERTEX
  8
0
 10
16.7976112070287
 20
18.7228580083164
 42
0.0
  0
VERTEX
  8
0
 10
16.7279138350164
 20
18.8201140851229
 42
0.0
  0
VERTEX
  8
0
 10
16.6513886344536
 20
18.9104568330031
 42
0.0
  0
VERTEX
  8
0
 10
16.5847010649945
 20
18.9746907249032
 42
0.0
  0
VERTEX
  8
0
 10
16.5639213493258
 20
18.9938022452438
 42
0.0
  0
VERTEX
  8
0
 10
16.4709806109806
 20
19.0660795236942
 42
0.0
  0
VERTEX
  8
0
 10
16.4682006217092
 20
19.0674795334696
 42
0.0
  0
VERTEX
  8
0
 10
16.3698658879261
 20
19.1314326087524
 42
0.0
  0
VERTEX
  8
0
 10
16.3006799657726
 20
19.1653177494128
 42
0.0
  0
VERTEX
  8
0
 10
16.2633143852729
 20
19.1843208105062
 42
0.0
  0
VERTEX
  8
0
 10
16.1527261127963
 20
19.2275241182268
 42
0.0
  0
VERTEX
  8
0
 10
16.036715185448
 20
19.2596597021371
 42
0.0
  0
VERTEX
  8
0
 10
15.919407338678
 20
19.2793892152732
 42
0.0
  0
VERTEX
  8
0
 10
15.8008169022033
 20
19.2880844179564
 42
0.0
  0
VERTEX
  8
0
 10
15.6823408305281
 20
19.2857565846327
 42
0.0
  0
VERTEX
  8
0
 10
15.5625537147043
 20
19.2696255210406
 42
0.0
  0
VERTEX
  8
0
 10
15.5584390487101
 20
19.269592312673
 42
0.0
  0
VERTEX
  8
0
 10
15.4470099593912
 20
19.2438763901304
 42
0.0
  0
VERTEX
  8
0
 10
15.3329377944922
 20
19.2057435323476
 42
0.0
  0
VERTEX
  8
0
 10
15.2244549412725
 20
19.1580288708855
 42
0.0
  0
VERTEX
  8
0
 10
15.2217231050555
 20
19.1566097774696
 42
0.0
  0
VERTEX
  8
0
 10
15.1737012155216
 20
19.1300593536169
 42
0.0
  0
VERTEX
  8
0
 10
15.1215730841579
 20
19.0992846528942
 42
0.0
  0
VERTEX
  8
0
 10
15.040689555983
 20
19.0435374693476
 42
0.0
  0
VERTEX
  8
0
 10
15.0229087784014
 20
19.0309729609404
 42
0.0
  0
VERTEX
  8
0
 10
14.9339738494914
 20
18.9531128786647
 42
0.0
  0
VERTEX
  8
0
 10
14.850592173612
 20
18.8669915447056
 42
0.0
  0
VERTEX
  8
0
 10
14.7769288051233
 20
18.772693375756
 42
0.0
  0
VERTEX
  8
0
 10
14.7714952857856
 20
18.7629718081043
 42
0.0
  0
VERTEX
  8
0
 10
14.7143587646076
 20
18.6729473577517
 42
0.0
  0
SEQEND
  0
POLYLINE
  8
0
 66
     1
 10
0.0
 20
0.0
 30
0.0
 70
     1
  0
VERTEX
  8
0
 10
9.84147007418
 20
18.6722034343488
 42
0.0
  0
VERTEX
  8
0
 10
9.8034748164591
 20
18.5961261171908
 42
0.0
  0
VERTEX
  8
0
 10
9.7602825781944
 20
18.4841662893827
 42
0.0
  0
VERTEX
  8
0
 10
9.7535408649893
 20
18.4634356054611
 42
0.0
  0
VERTEX
  8
0
 10
9.7281363348081
 20
18.3694761190202
 42
0.0
  0
VERTEX
  8
0
 10
9.7084066166821
 20
18.252193671423
 42
0.0
  0
VERTEX
  8
0
 10
9.6983396536774
 20
18.1336175646653
 42
0.0
  0
VERTEX
  8
0
 10
9.7020759209412
 20
18.0137304137589
 42
0.0
  0
VERTEX
  8
0
 10
9.7168239497661
 20
17.8953545821562
 42
0.0
  0
VERTEX
  8
0
 10
9.7425476815035
 20
17.7798106218532
 42
0.0
  0
VERTEX
  8
0
 10
9.7792727203161
 20
17.667073338667
 42
0.0
  0
VERTEX
  8
0
 10
9.8284208049111
 20
17.5572304095516
 42
0.0
  0
VERTEX
  8
0
 10
9.8507897360545
 20
17.5174554419843
 42
0.0
  0
VERTEX
  8
0
 10
9.8871252940127
 20
17.4529765871258
 42
0.0
  0
VERTEX
  8
0
 10
9.8968770147608
 20
17.4406596869682
 42
0.0
  0
VERTEX
  8
0
 10
9.9554259165106
 20
17.3556838367007
 42
0.0
  0
VERTEX
  8
0
 10
9.9624011132384
 20
17.3474848627985
 42
0.0
  0
VERTEX
  8
0
 10
10.0333480715777
 20
17.2653523632663
 42
0.0
  0
VERTEX
  8
0
 10
10.119458131091
 20
17.1833676418911
 42
0.0
  0
VERTEX
  8
0
 10
10.2137563000406
 20
17.1097042734024
 42
0.0
  0
VERTEX
  8
0
 10
10.235914091563
 20
17.0960904538232
 42
0.0
  0
VERTEX
  8
0
 10
10.3148343494765
 20
17.0457479378584
 42
0.0
  0
VERTEX
  8
0
 10
10.3798689320171
 20
17.0132263383448
 42
0.0
  0
VERTEX
  8
0
 10
10.4213856471398
 20
16.9928851352775
 42
0.0
  0
VERTEX
  8
0
 10
10.5319739196164
 20
16.9496818275569
 42
0.0
  0
VERTEX
  8
0
 10
10.6479850519546
 20
16.9175208444738
 42
0.0
  0
VERTEX
  8
0
 10
10.7653182978974
 20
16.8977915363276
 42
0.0
  0
VERTEX
  8
0
 10
10.8838941996653
 20
16.8877499724958
 42
0.0
  0
VERTEX
  8
0
 10
11.0024100002302
 20
16.8914497711309
 42
0.0
  0
VERTEX
  8
0
 10
11.1207860368227
 20
16.906172400783
 42
0.0
  0
VERTEX
  8
0
 10
11.2377011424773
 20
16.9319580003219
 42
0.0
  0
VERTEX
  8
0
 10
11.3517735123663
 20
16.9700654589318
 42
0.0
  0
VERTEX
  8
0
 10
11.4602563655859
 20
17.017780120394
 42
0.0
  0
VERTEX
  8
0
 10
11.4671313222412
 20
17.022001341993
 42
0.0
  0
VERTEX
  8
0
 10
11.4794705663004
 20
17.0289845529055
 42
0.0
  0
VERTEX
  8
0
 10
11.5631384276905
 20
17.0764989392125
 42
0.0
  0
VERTEX
  8
0
 10
11.6426499905541
 20
17.1322858516488
 42
0.0
  0
VERTEX
  8
0
 10
11.6604199036698
 20
17.1461965162146
 42
0.0
  0
VERTEX
  8
0
 10
11.7507767762769
 20
17.2241188762716
 42
0.0
  0
VERTEX
  8
0
 10
11.8341076538107
 20
17.3102398002509
 42
0.0
  0
VERTEX
  8
0
 10
11.9064361405867
 20
17.4031301502304
 42
0.0
  0
VERTEX
  8
0
 10
11.909145837892
 20
17.4072923543091
 42
0.0
  0
VERTEX
  8
0
 10
11.9404182610584
 20
17.4571525612299
 42
0.0
  0
VERTEX
  8
0
 10
11.9703922711407
 20
17.504233598839
 42
0.0
  0
VERTEX
  8
0
 10
11.9961528688187
 20
17.5540747221192
 42
0.0
  0
VERTEX
  8
0
 10
12.024626629053
 20
17.6107959659581
 42
0.0
  0
VERTEX
  8
0
 10
12.0678299367736
 20
17.7213842384347
 42
0.0
  0
VERTEX
  8
0
 10
12.0999909198567
 20
17.837395370773
 42
0.0
  0
VERTEX
  8
0
 10
12.1197204329928
 20
17.954703217543
 42
0.0
  0
VERTEX
  8
0
 10
12.1283902365033
 20
18.0732934490278
 42
0.0
  0
VERTEX
  8
0
 10
12.1260513337236
 20
18.1931410760344
 42
0.0
  0
VERTEX
  8
0
 10
12.1099313395874
 20
18.3115566365267
 42
0.0
  0
VERTEX
  8
0
 10
12.0841822086772
 20
18.4271003918398
 42
0.0
  0
VERTEX
  8
0
 10
12.0672023140582
 20
18.4821085475574
 42
0.0
  0
VERTEX
  8
0
 10
12.0474463053987
 20
18.5411838311847
 42
0.0
  0
VERTEX
  8
0
 10
11.9983092902595
 20
18.6496552049686
 42
0.0
  0
VERTEX
  8
0
 10
11.9871335171819
 20
18.6716129263258
 42
0.0
  0
VERTEX
  8
0
 10
11.9396302003307
 20
18.7539092323844
 42
0.0
  0
VERTEX
  8
0
 10
11.8727011331642
 20
18.8512130522653
 42
0.0
  0
VERTEX
  8
0
 10
11.793381818603
 20
18.9415586504267
 42
0.0
  0
VERTEX
  8
0
 10
11.7072973632524
 20
19.023518177619
 42
0.0
  0
VERTEX
  8
0
 10
11.6129991943028
 20
19.0971815461078
 42
0.0
  0
VERTEX
  8
0
 10
11.5866794036916
 20
19.1134796638195
 42
0.0
  0
VERTEX
  8
0
 10
11.5658931675007
 20
19.1271045528545
 42
0.0
  0
VERTEX
  8
0
 10
11.5132673010256
 20
19.1611487461177
 42
0.0
  0
VERTEX
  8
0
 10
11.4966768872609
 20
19.1678984735075
 42
0.0
  0
VERTEX
  8
0
 10
11.4620654868799
 20
19.1855521181812
 42
0.0
  0
VERTEX
  8
0
 10
11.4067047289165
 20
19.2154085032028
 42
0.0
  0
VERTEX
  8
0
 10
11.2947559705644
 20
19.2572291861361
 42
0.0
  0
VERTEX
  8
0
 10
11.1800909943847
 20
19.2894010336852
 42
0.0
  0
VERTEX
  8
0
 10
11.0627974773316
 20
19.3105023071426
 42
0.0
  0
VERTEX
  8
0
 10
10.9428467599713
 20
19.3177894858658
 42
0.0
  0
VERTEX
  8
0
 10
10.8243200949405
 20
19.3154358433894
 42
0.0
  0
VERTEX
  8
0
 10
10.7059442633378
 20
19.3006878145644
 42
0.0
  0
VERTEX
  8
0
 10
10.5890287477034
 20
19.2749530133711
 42
0.0
  0
VERTEX
  8
0
 10
10.4763281381358
 20
19.2368312250442
 42
0.0
  0
VERTEX
  8
0
 10
10.4378800380965
 20
19.2200103830281
 42
0.0
  0
VERTEX
  8
0
 10
10.367845489906
 20
19.1890911644093
 42
0.0
  0
VERTEX
  8
0
 10
10.3143453932311
 20
19.1583561925763
 42
0.0
  0
VERTEX
  8
0
 10
10.2635916674802
 20
19.1303866753077
 42
0.0
  0
VERTEX
  8
0
 10
10.2443996056775
 20
19.1164391321334
 42
0.0
  0
VERTEX
  8
0
 10
10.1662735178823
 20
19.0620858478199
 42
0.0
  0
VERTEX
  8
0
 10
10.141661856479
 20
19.0398392956608
 42
0.0
  0
VERTEX
  8
0
 10
10.0759420444479
 20
18.9841636927528
 42
0.0
  0
VERTEX
  8
0
 10
9.9939937917014
 20
18.896682282898
 42
0.0
  0
VERTEX
  8
0
 10
9.9203193537568
 20
18.8037556692798
 42
0.0
  0
VERTEX
  8
0
 10
9.8931171137713
 20
18.7594402912251
 42
0.0
  0
VERTEX
  8
0
 10
9.8563634281927
 20
18.7026268214983
 42
0.0
  0
SEQEND
  0
POLYLINE
  8
0
 66
     1
 10
0.0
 20
0.0
 30
0.0
 70
     1
  0
VERTEX
  8
0
 10
21.1118359672757
 20
19.1325169685948
 42
0.0
  0
VERTEX
  8
0
 10
21.0550893242639
 20
19.1609905238392
 42
0.0
  0
VERTEX
  8
0
 10
21.0219004825499
 20
19.1786302487758
 42
0.0
  0
VERTEX
  8
0
 10
21.0052736001566
 20
19.1867513265071
 42
0.0
  0
VERTEX
  8
0
 10
20.89468532768
 20
19.2299546342277
 42
0.0
  0
VERTEX
  8
0
 10
20.7786852647975
 20
19.2607440619794
 42
0.0
  0
VERTEX
  8
0
 10
20.6779233489789
 20
19.2792354682242
 42
0.0
  0
VERTEX
  8
0
 10
20.6613663485717
 20
19.2818451304469
 42
0.0
  0
VERTEX
  8
0
 10
20.5427761170869
 20
19.2905149339574
 42
0.0
  0
VERTEX
  8
0
 10
20.4229284900803
 20
19.2881760311777
 42
0.0
  0
VERTEX
  8
0
 10
20.3045018601321
 20
19.2734275923729
 42
0.0
  0
VERTEX
  8
0
 10
20.2907832515467
 20
19.2705481829888
 42
0.0
  0
VERTEX
  8
0
 10
20.1875865494876
 20
19.2476673920069
 42
0.0
  0
VERTEX
  8
0
 10
20.0749111341028
 20
19.2095712078427
 42
0.0
  0
VERTEX
  8
0
 10
19.9664028817104
 20
19.1618563413906
 42
0.0
  0
VERTEX
  8
0
 10
19.9499459163858
 20
19.152071207285
 42
0.0
  0
VERTEX
  8
0
 10
19.8621492642744
 20
19.1031264531163
 42
0.0
  0
VERTEX
  8
0
 10
19.7676139542291
 20
19.0362197298514
 42
0.0
  0
VERTEX
  8
0
 10
19.7648565138494
 20
19.0348258306183
 42
0.0
  0
VERTEX
  8
0
 10
19.6745504395878
 20
18.9569038805412
 42
0.0
  0
VERTEX
  8
0
 10
19.6567744159298
 20
18.9374557863242
 42
0.0
  0
VERTEX
  8
0
 10
19.5925513884957
 20
18.8694220607065
 42
0.0
  0
VERTEX
  8
0
 10
19.518876950551
 20
18.7764954470883
 42
0.0
  0
VERTEX
  8
0
 10
19.5066490160202
 20
18.7557204853432
 42
0.0
  0
VERTEX
  8
0
 10
19.4563288439571
 20
18.674031717594
 42
0.0
  0
VERTEX
  8
0
 10
19.4508699254466
 20
18.6643099449524
 42
0.0
  0
VERTEX
  8
0
 10
19.4359542275323
 20
18.6366550676385
 42
0.0
  0
VERTEX
  8
0
 10
19.4020326182433
 20
18.5688404958265
 42
0.0
  0
VERTEX
  8
0
 10
19.391256985496
 20
18.5412190318701
 42
0.0
  0
VERTEX
  8
0
 10
19.3588403799786
 20
18.4568806680185
 42
0.0
  0
VERTEX
  8
0
 10
19.3267191257852
 20
18.3422415009914
 42
0.0
  0
VERTEX
  8
0
 10
19.3069896126491
 20
18.2249336542215
 42
0.0
  0
VERTEX
  8
0
 10
19.2968974554616
 20
18.106331943301
 42
0.0
  0
VERTEX
  8
0
 10
19.3006335177354
 20
17.9864701915674
 42
0.0
  0
VERTEX
  8
0
 10
19.3094587162757
 20
17.9190006177964
 42
0.0
  0
VERTEX
  8
0
 10
19.3153817515503
 20
17.8680689607919
 42
0.0
  0
VERTEX
  8
0
 10
19.3411165527436
 20
17.7511534451575
 42
0.0
  0
VERTEX
  8
0
 10
19.3792381360805
 20
17.6384782347627
 42
0.0
  0
VERTEX
  8
0
 10
19.4269784017054
 20
17.5299701873601
 42
0.0
  0
VERTEX
  8
0
 10
19.4339616126179
 20
17.517630943301
 42
0.0
  0
VERTEX
  8
0
 10
19.4451517154124
 20
17.4970449822652
 42
0.0
  0
VERTEX
  8
0
 10
19.4605009670146
 20
17.4709806090985
 42
0.0
  0
VERTEX
  8
0
 10
19.485682890807
 20
17.4257163649343
 42
0.0
  0
VERTEX
  8
0
 10
19.5554058669819
 20
17.3284350939449
 42
0.0
  0
VERTEX
  8
0
 10
19.5776749680326
 20
17.3010295235331
 42
0.0
  0
VERTEX
  8
0
 10
19.6319056683719
 20
17.2380921410748
 42
0.0
  0
VERTEX
  8
0
 10
19.7193872832167
 20
17.1561184891555
 42
0.0
  0
VERTEX
  8
0
 10
19.8123138968349
 20
17.0824440512109
 42
0.0
  0
VERTEX
  8
0
 10
19.8663365128244
 20
17.0484365315663
 42
0.0
  0
VERTEX
  8
0
 10
19.9134427446163
 20
17.0184881256468
 42
0.0
  0
VERTEX
  8
0
 10
19.935578192237
 20
17.0076428159033
 42
0.0
  0
VERTEX
  8
0
 10
20.0199686431068
 20
16.965625118076
 42
0.0
  0
VERTEX
  8
0
 10
20.1305825197461
 20
16.9223966161725
 42
0.0
  0
VERTEX
  8
0
 10
20.2465934470945
 20
16.8902610322622
 42
0.0
  0
VERTEX
  8
0
 10
20.289381477476
 20
16.8823510941519
 42
0.0
  0
VERTEX
  8
0
 10
20.3638758946917
 20
16.8705313141362
 42
0.0
  0
VERTEX
  8
0
 10
20.4824520014494
 20
16.8604643511315
 42
0.0
  0
VERTEX
  8
0
 10
20.6009675970244
 20
16.8641895489394
 42
0.0
  0
VERTEX
  8
0
 10
20.6973192905348
 20
16.8759911366753
 42
0.0
  0
VERTEX
  8
0
 10
20.7207149839585
 20
16.8789486472202
 42
0.0
  0
VERTEX
  8
0
 10
20.8363097426071
 20
16.9046727889375
 42
0.0
  0
VERTEX
  8
0
 10
20.9503565083334
 20
16.9428054417303
 42
0.0
  0
VERTEX
  8
0
 10
21.0203912615138
 20
16.9736992611762
 42
0.0
  0
VERTEX
  8
0
 10
21.0588391565631
 20
16.9905455023652
 42
0.0
  0
VERTEX
  8
0
 10
21.1054894907656
 20
17.017084856762
 42
0.0
  0
VERTEX
  8
0
 10
21.1630929789889
 20
17.0492499914668
 42
0.0
  0
VERTEX
  8
0
 10
21.260385729414
 20
17.1175506139647
 42
0.0
  0
VERTEX
  8
0
 10
21.2726913551258
 20
17.1286992892171
 42
0.0
  0
VERTEX
  8
0
 10
21.3507172028484
 20
17.1954727690318
 42
0.0
  0
VERTEX
  8
0
 10
21.4327162539405
 20
17.2829545888665
 42
0.0
  0
VERTEX
  8
0
 10
21.5063652927123
 20
17.3758809974947
 42
0.0
  0
VERTEX
  8
0
 10
21.5226890145868
 20
17.402175593923
 42
0.0
  0
VERTEX
  8
0
 10
21.568949662945
 20
17.4769987758203
 42
0.0
  0
VERTEX
  8
0
 10
21.5987839090549
 20
17.5351026444466
 42
0.0
  0
VERTEX
  8
0
 10
21.6056035184309
 20
17.5461816427027
 42
0.0
  0
VERTEX
  8
0
 10
21.6231844308372
 20
17.5835103445939
 42
0.0
  0
VERTEX
  8
0
 10
21.6663877385578
 20
17.6940986170705
 42
0.0
  0
VERTEX
  8
0
 10
21.698548311661
 20
17.8101605477544
 42
0.0
  0
VERTEX
  8
0
 10
21.7182780297871
 20
17.9274429953515
 42
0.0
  0
VERTEX
  8
0
 10
21.7269480382875
 20
18.0460078276635
 42
0.0
  0
VERTEX
  8
0
 10
21.7246197949838
 20
18.1645346976843
 42
0.0
  0
VERTEX
  8
0
 10
21.7098860958758
 20
18.2842822896083
 42
0.0
  0
VERTEX
  8
0
 10
21.6841623641384
 20
18.3998262499113
 42
0.0
  0
VERTEX
  8
0
 10
21.6460039021929
 20
18.5139236089932
 42
0.0
  0
VERTEX
  8
0
 10
21.6263587930819
 20
18.5592579401335
 42
0.0
  0
VERTEX
  8
0
 10
21.5982894457207
 20
18.62238106304
 42
0.0
  0
VERTEX
  8
0
 10
21.5968953414977
 20
18.6251639025926
 42
0.0
  0
VERTEX
  8
0
 10
21.5395593524564
 20
18.7266600796488
 42
0.0
  0
VERTEX
  8
0
 10
21.4712587299585
 20
18.8239528300739
 42
0.0
  0
VERTEX
  8
0
 10
21.3933619740643
 20
18.9142845084982
 42
0.0
  0
VERTEX
  8
0
 10
21.3058801542295
 20
18.9962835595903
 42
0.0
  0
VERTEX
  8
0
 10
21.21711615467
 20
19.067197501884
 42
0.0
  0
VERTEX
  8
0
 10
21.2129283464285
 20
19.0699323933722
 42
0.0
  0
SEQEND
  0
POLYLINE
  8
0
 66
     1
 10
0.0
 20
0.0
 30
0.0
 70
     0
  0
VERTEX
  8
0
 10
20.0075814254719
 20
12.7402620526055
 42
0.0
  0
VERTEX
  8
0
 10
19.7249239780629
 20
12.504385833352
 42
0.0
  0
VERTEX
  8
0
 10
19.2432104253382
 20
12.1989481861716
 42
0.0
  0
VERTEX
  8
0
 10
18.7400566959205
 20
11.918820588339
 42
0.0
  0
VERTEX
  8
0
 10
18.1897757085338
 20
11.6892788135723
 42
0.0
  0
VERTEX
  8
0
 10
17.5755854986258
 20
11.4847043318552
 42
0.0
  0
VERTEX
  8
0
 10
16.9990004686264
 20
11.3568826132974
 42
0.0
  0
VERTEX
  8
0
 10
16.4093662442101
 20
11.2671802090955
 42
0.0
  0
VERTEX
  8
0
 10
15.7257859845244
 20
11.2404273097799
 42
0.0
  0
VERTEX
  8
0
 10
15.457716861359
 20
11.3019715138434
 42
0.0
  0
VERTEX
  8
0
 10
15.1763243387382
 20
11.4356102689255
 42
0.0
  0
VERTEX
  8
0
 10
14.996891801735
 20
11.5658247345405
 42
0.0
  0
VERTEX
  8
0
 10
14.8555100278282
 20
11.7175822037381
 42
0.0
  0
VERTEX
  8
0
 10
14.7265604870014
 20
11.9076646410706
 42
0.0
  0
VERTEX
  8
0
 10
14.6356617092709
 20
12.1192900819855
 42
0.0
  0
VERTEX
  8
0
 10
14.590999023134
 20
12.3907492189881
 42
0.0
  0
VERTEX
  8
0
 10
14.6016146478335
 20
12.6541601300128
 42
0.0
  0
VERTEX
  8
0
 10
14.676002392535
 20
12.9095913663191
 42
0.0
  0
VERTEX
  8
0
 10
14.7719674164488
 20
13.1227249349463
 42
0.0
  0
VERTEX
  8
0
 10
14.9360885674668
 20
13.3109254861537
 42
0.0
  0
VERTEX
  8
0
 10
15.200533072762
 20
13.491410322675
 42
0.0
  0
VERTEX
  8
0
 10
15.5454414883271
 20
13.6216527741851
 42
0.0
  0
VERTEX
  8
0
 10
16.0074706202375
 20
13.7018186329532
 42
0.0
  0
VERTEX
  8
0
 10
16.461478103042
 20
13.7564489803381
 42
0.0
  0
VERTEX
  8
0
 10
17.0508038467898
 20
13.8843735257854
 42
0.0
  0
VERTEX
  8
0
 10
17.4784044600921
 20
14.0534646431277
 42
0.0
  0
VERTEX
  8
0
 10
17.9226156597976
 20
14.2694088134004
 42
0.0
  0
VERTEX
  8
0
 10
18.3156240751005
 20
14.514670008195
 42
0.0
  0
VERTEX
  8
0
 10
18.5985214519183
 20
14.7208178953687
 42
0.0
  0
VERTEX
  8
0
 10
18.9158739242162
 20
14.8677833234215
 42
0.0
  0
VERTEX
  8
0
 10
19.3189185520268
 20
14.9220023632486
 42
0.0
  0
VERTEX
  8
0
 10
19.6762754983209
 20
14.8484372336628
 42
0.0
  0
VERTEX
  8
0
 10
19.9494484168146
 20
14.6807546906585
 42
0.0
  0
VERTEX
  8
0
 10
20.2276908550069
 20
14.4111807132961
 42
0.0
  0
VERTEX
  8
0
 10
20.4003433643356
 20
14.0685524672802
 42
0.0
  0
VERTEX
  8
0
 10
20.4541853722346
 20
13.7122237898808
 42
0.0
  0
VERTEX
  8
0
 10
20.4064101508143
 20
13.3168503561201
 42
0.0
  0
VERTEX
  8
0
 10
20.2727028444725
 20
13.043951642665
 42
0.0
  0
VERTEX
  8
0
 10
20.0117940544249
 20
12.7445432328182
 42
0.0
  0
SEQEND
  0
ENDSEC
  0
EOF
