  0
SECTION
  2
HEADER
  9
$ACADVER
  1
AC1009
  9
$EXTMAX
 10
133.247406005859
 20
34.9423828125
 30
0.0
  9
$EXTMIN
 10
2.2138562202454
 20
2.9259693622589
 30
0.0
  9
$INSUNITS
 70
     4
  9
$LUNITS
 70
     2
  9
$LUPREC
 70
     4
  9
$MEASUREMENT
 70
     1
  0
ENDSEC
  0
SECTION
  2
TABLES
  0
TABLE
  2
LAYER
 70
     1
  0
LAYER
  2
0
 70
     0
 62
     7
  6
Continuous
  0
ENDTAB
  0
TABLE
  2
APPID
 70
     1
  0
APPID
  2
ACAD
 70
     0
  0
ENDTAB
  0
ENDSEC
  0
SECTION
  2
ENTITIES
  0
POLYLINE
  8
0
 66
     1
 10
0.0
 20
0.0
 30
0.0
 70
     1
  0
VERTEX
  8
0
 10
8.9608222724326
 20
34.942383889994
 42
0.0
  0
VERTEX
  8
0
 10
17.1683912246041
 20
32.4302409373262
 42
0.0
  0
VERTEX
  8
0
 10
19.1460610406843
 20
31.8247578310342
 42
0.0
  0
VERTEX
  8
0
 10
19.48201552942
 20
31.7206293656305
 42
0.0
  0
VERTEX
  8
0
 10
28.8804349307296
 20
31.8807910551581
 42
0.0
  0
VERTEX
  8
0
 10
29.1729402550845
 20
31.4359572587639
 42
0.0
  0
VERTEX
  8
0
 10
30.416480001578
 20
29.5377963025904
 42
0.0
  0
VERTEX
  8
0
 10
30.5665271978547
 20
29.3085857449067
 42
0.0
  0
VERTEX
  8
0
 10
30.7106055613735
 20
29.0902231907494
 42
0.0
  0
VERTEX
  8
0
 10
31.1562383306403
 20
28.4080006016232
 42
0.0
  0
VERTEX
  8
0
 10
31.2814919674691
 20
28.2193544179381
 42
0.0
  0
VERTEX
  8
0
 10
32.3466391574681
 20
28.1612351518532
 42
0.0
  0
VERTEX
  8
0
 10
32.7486117043521
 20
28.1421562009187
 42
0.0
  0
VERTEX
  8
0
 10
37.1055698852261
 20
27.9449031403007
 42
0.0
  0
VERTEX
  8
0
 10
42.0125518853326
 20
27.7612473498764
 42
0.0
  0
VERTEX
  8
0
 10
47.0672809663456
 20
27.611705872513
 42
0.0
  0
VERTEX
  8
0
 10
47.6510075254064
 20
27.5989509672499
 42
0.0
  0
VERTEX
  8
0
 10
49.1621278398652
 20
27.5646599532438
 42
0.0
  0
VERTEX
  8
0
 10
52.2698048235816
 20
27.4949079377276
 42
0.0
  0
VERTEX
  8
0
 10
57.6212981815828
 20
27.4136138641775
 42
0.0
  0
VERTEX
  8
0
 10
63.1190641207392
 20
27.3649849537706
 42
0.0
  0
VERTEX
  8
0
 10
68.5714162943177
 20
27.3505861500242
 42
0.0
  0
VERTEX
  8
0
 10
73.8834748029448
 20
27.3727329482367
 42
0.0
  0
VERTEX
  8
0
 10
77.5985371335561
 20
27.4137546337462
 42
0.0
  0
VERTEX
  8
0
 10
79.0563053772199
 20
27.4300137538735
 42
0.0
  0
VERTEX
  8
0
 10
80.8301754362268
 20
27.4627612085952
 42
0.0
  0
VERTEX
  8
0
 10
80.8563216139561
 20
27.4636709525955
 42
0.0
  0
VERTEX
  8
0
 10
81.9530538796036
 20
27.4838879860442
 42
0.0
  0
VERTEX
  8
0
 10
84.0904157099143
 20
27.5224462318668
 42
0.0
  0
VERTEX
  8
0
 10
87.9764316673221
 20
27.6245421077999
 42
0.0
  0
VERTEX
  8
0
 10
88.9837750299424
 20
27.6499597224883
 42
0.0
  0
VERTEX
  8
0
 10
93.7376039906695
 20
27.8139945431896
 42
0.0
  0
VERTEX
  8
0
 10
94.7016793548806
 20
27.8557990891411
 42
0.0
  0
VERTEX
  8
0
 10
98.328089610401
 20
28.0123242870432
 42
0.0
  0
VERTEX
  8
0
 10
98.3968819809316
 20
28.014717885335
 42
0.0
  0
VERTEX
  8
0
 10
102.451425460745
 20
28.2330057217385
 42
0.0
  0
VERTEX
  8
0
 10
102.907046514355
 20
28.257118838249
 42
0.0
  0
VERTEX
  8
0
 10
107.270889017936
 20
28.5413199436965
 42
0.0
  0
VERTEX
  8
0
 10
107.587209704412
 20
28.566126720036
 42
0.0
  0
VERTEX
  8
0
 10
108.424671901881
 20
28.6311269127963
 42
0.0
  0
VERTEX
  8
0
 10
111.485918723134
 20
28.8658621065343
 42
0.0
  0
VERTEX
  8
0
 10
114.683073000151
 20
29.1535899255045
 42
0.0
  0
VERTEX
  8
0
 10
115.494306349321
 20
29.2273607540265
 42
0.0
  0
VERTEX
  8
0
 10
115.551834088247
 20
29.2321072647792
 42
0.0
  0
VERTEX
  8
0
 10
119.470159958082
 20
29.6400576439503
 42
0.0
  0
VERTEX
  8
0
 10
123.294551544166
 20
30.0888861226895
 42
0.0
  0
VERTEX
  8
0
 10
125.579939781264
 20
30.3945765193813
 42
0.0
  0
VERTEX
  8
0
 10
125.619722997533
 20
30.3614720996741
 42
0.0
  0
VERTEX
  8
0
 10
125.710697147624
 20
30.2887980363502
 42
0.0
  0
VERTEX
  8
0
 10
125.870748241116
 20
30.1592079976285
 42
0.0
  0
VERTEX
  8
0
 10
126.2170467703
 20
29.8775826839395
 42
0.0
  0
VERTEX
  8
0
 10
126.219886775859
 20
29.8763090705829
 42
0.0
  0
VERTEX
  8
0
 10
127.360660954517
 20
28.9521492541575
 42
0.0
  0
VERTEX
  8
0
 10
133.074000915341
 20
24.322689551535
 42
0.0
  0
VERTEX
  8
0
 10
132.482931562305
 20
22.0352746774875
 42
0.0
  0
VERTEX
  8
0
 10
132.482931562305
 20
22.0352746774875
 42
0.0
  0
VERTEX
  8
0
 10
133.24740225142
 20
19.7092510142262
 42
0.0
  0
VERTEX
  8
0
 10
132.866209976021
 20
19.2400818452117
 42
0.0
  0
VERTEX
  8
0
 10
132.783210826444
 20
19.1371310957434
 42
0.0
  0
VERTEX
  8
0
 10
129.252232454093
 20
14.7769963357012
 42
0.0
  0
VERTEX
  8
0
 10
129.018015921984
 20
14.4888711573435
 42
0.0
  0
VERTEX
  8
0
 10
128.491656406888
 20
13.8389847622187
 42
0.0
  0
VERTEX
  8
0
 10
127.776418005151
 20
12.9565837690205
 42
0.0
  0
VERTEX
  8
0
 10
127.112848747944
 20
12.1377399303494
 42
0.0
  0
VERTEX
  8
0
 10
126.532378781588
 20
11.4214157457944
 42
0.0
  0
VERTEX
  8
0
 10
126.5309528604
 20
11.4185704407553
 42
0.0
  0
VERTEX
  8
0
 10
126.469019628641
 20
11.343219235298
 42
0.0
  0
VERTEX
  8
0
 10
126.447844737083
 20
11.3163046330248
 42
0.0
  0
VERTEX
  8
0
 10
126.258355921019
 20
11.3277563716911
 42
0.0
  0
VERTEX
  8
0
 10
126.007049946233
 20
11.3408695169
 42
0.0
  0
VERTEX
  8
0
 10
123.609422842216
 20
11.5802204136986
 42
0.0
  0
VERTEX
  8
0
 10
119.771798701738
 20
11.8988315254782
 42
0.0
  0
VERTEX
  8
0
 10
115.841936104424
 20
12.1730603428089
 42
0.0
  0
VERTEX
  8
0
 10
115.272769944335
 20
12.2056121367096
 42
0.0
  0
VERTEX
  8
0
 10
114.687094936709
 20
12.2378436667046
 42
0.0
  0
VERTEX
  8
0
 10
111.94327964372
 20
12.3904279177876
 42
0.0
  0
VERTEX
  8
0
 10
111.763743831495
 20
12.4007010443144
 42
0.0
  0
VERTEX
  8
0
 10
111.165824665221
 20
12.4269151629885
 42
0.0
  0
VERTEX
  8
0
 10
109.113759482405
 20
12.5153771985423
 42
0.0
  0
VERTEX
  8
0
 10
108.591934699714
 20
12.5386476040709
 42
0.0
  0
VERTEX
  8
0
 10
108.530009952371
 20
12.4922702164499
 42
0.0
  0
VERTEX
  8
0
 10
108.484488062974
 20
12.4492592493633
 42
0.0
  0
VERTEX
  8
0
 10
108.335384817677
 20
12.3007285809412
 42
0.0
  0
VERTEX
  8
0
 10
108.180657727872
 20
12.1093044106693
 42
0.0
  0
VERTEX
  8
0
 10
108.10771034537
 20
11.9852807686238
 42
0.0
  0
VERTEX
  8
0
 10
108.067404756065
 20
11.9165276221159
 42
0.0
  0
VERTEX
  8
0
 10
108.04822335865
 20
11.8688417785437
 42
0.0
  0
VERTEX
  8
0
 10
108.007454586952
 20
11.769574070953
 42
0.0
  0
VERTEX
  8
0
 10
108.217142246467
 20
11.2213522632166
 42
0.0
  0
VERTEX
  8
0
 10
108.354569541171
 20
10.625833986165
 42
0.0
  0
VERTEX
  8
0
 10
108.400378639406
 20
10.2746308996988
 42
0.0
  0
VERTEX
  8
0
 10
108.461457437052
 20
9.724921720882
 42
0.0
  0
VERTEX
  8
0
 10
108.507266535287
 20
9.1141337444189
 42
0.0
  0
VERTEX
  8
0
 10
108.53780593411
 20
8.5033457679558
 42
0.0
  0
VERTEX
  8
0
 10
108.53780593411
 20
8.5033457679558
 42
0.0
  0
VERTEX
  8
0
 10
108.531739405548
 20
7.8983531081096
 42
0.0
  0
VERTEX
  8
0
 10
108.531739405548
 20
7.8983531081096
 42
0.0
  0
VERTEX
  8
0
 10
108.493814154507
 20
7.1588107128137
 42
0.0
  0
VERTEX
  8
0
 10
108.351594463104
 20
6.6088945727219
 42
0.0
  0
VERTEX
  8
0
 10
108.247300022742
 20
6.2011981240331
 42
0.0
  0
VERTEX
  8
0
 10
108.114561644099
 20
5.8503895519055
 42
0.0
  0
VERTEX
  8
0
 10
107.934416701655
 20
5.546987543579
 42
0.0
  0
VERTEX
  8
0
 10
107.782715697492
 20
5.2625481607729
 42
0.0
  0
VERTEX
  8
0
 10
107.577591391827
 20
4.9028835347178
 42
0.0
  0
VERTEX
  8
0
 10
107.577591391827
 20
4.9028835347178
 42
0.0
  0
VERTEX
  8
0
 10
107.356056623283
 20
4.5798936420382
 42
0.0
  0
VERTEX
  8
0
 10
107.035648708189
 20
4.1561345299138
 42
0.0
  0
VERTEX
  8
0
 10
106.323989815933
 20
3.5287742524296
 42
0.0
  0
VERTEX
  8
0
 10
105.461615992969
 20
3.1498153193897
 42
0.0
  0
VERTEX
  8
0
 10
104.458076244829
 20
3.0223856747458
 42
0.0
  0
VERTEX
  8
0
 10
103.321387666262
 20
3.1498141140393
 42
0.0
  0
VERTEX
  8
0
 10
102.472760348496
 20
3.4057011374698
 42
0.0
  0
VERTEX
  8
0
 10
102.192755613301
 20
3.491266144152
 42
0.0
  0
VERTEX
  8
0
 10
102.064602412534
 20
3.5295049364086
 42
0.0
  0
VERTEX
  8
0
 10
101.844536163976
 20
3.6308797748329
 42
0.0
  0
VERTEX
  8
0
 10
100.698225342585
 20
4.1590279627176
 42
0.0
  0
VERTEX
  8
0
 10
100.316479461264
 20
4.3856663933213
 42
0.0
  0
VERTEX
  8
0
 10
100.102826667336
 20
4.5465152003717
 42
0.0
  0
VERTEX
  8
0
 10
100.102826667336
 20
4.5465152003717
 42
0.0
  0
VERTEX
  8
0
 10
99.8936735436986
 20
4.6894096547438
 42
0.0
  0
VERTEX
  8
0
 10
99.6703507169547
 20
4.8615380965883
 42
0.0
  0
VERTEX
  8
0
 10
99.4288329152233
 20
5.0447331009455
 42
0.0
  0
VERTEX
  8
0
 10
99.195710945497
 20
5.2369292572096
 42
0.0
  0
VERTEX
  8
0
 10
99.0691866185825
 20
5.3440034020378
 42
0.0
  0
VERTEX
  8
0
 10
98.8721601172695
 20
5.5000066329702
 42
0.0
  0
VERTEX
  8
0
 10
98.6754600946031
 20
5.6716965617684
 42
0.0
  0
VERTEX
  8
0
 10
98.4435487646804
 20
5.8290987502086
 42
0.0
  0
VERTEX
  8
0
 10
98.1927271510912
 20
6.0293880785269
 42
0.0
  0
VERTEX
  8
0
 10
97.8978077578203
 20
6.2455610910027
 42
0.0
  0
VERTEX
  8
0
 10
97.6559872961381
 20
6.4374545873159
 42
0.0
  0
VERTEX
  8
0
 10
97.4867813696127
 20
6.5447844436765
 42
0.0
  0
VERTEX
  8
0
 10
97.25487003969
 20
6.7021866321167
 42
0.0
  0
VERTEX
  8
0
 10
97.165463840523
 20
6.7687479682556
 42
0.0
  0
VERTEX
  8
0
 10
97.0052590659044
 20
6.8676819926111
 42
0.0
  0
VERTEX
  8
0
 10
96.746646940212
 20
7.0415731851106
 42
0.0
  0
VERTEX
  8
0
 10
96.746646940212
 20
7.0415731851106
 42
0.0
  0
VERTEX
  8
0
 10
96.444858844879
 20
7.2548948660585
 42
0.0
  0
VERTEX
  8
0
 10
96.2098919169988
 20
7.3999980555296
 42
0.0
  0
VERTEX
  8
0
 10
96.2098919169988
 20
7.3999980555296
 42
0.0
  0
VERTEX
  8
0
 10
96.0729388510153
 20
7.4814521366872
 42
0.0
  0
VERTEX
  8
0
 10
95.9260845210902
 20
7.5721416301067
 42
0.0
  0
VERTEX
  8
0
 10
95.9260845210902
 20
7.5721416301067
 42
0.0
  0
VERTEX
  8
0
 10
95.7300567972967
 20
7.6994398467338
 42
0.0
  0
VERTEX
  8
0
 10
95.5056569850379
 20
7.8161709477395
 42
0.0
  0
VERTEX
  8
0
 10
95.2597900156964
 20
7.9992145637778
 42
0.0
  0
VERTEX
  8
0
 10
94.9390386709899
 20
8.161972661037
 42
0.0
  0
VERTEX
  8
0
 10
94.6810277774555
 20
8.3213065890408
 42
0.0
  0
VERTEX
  8
0
 10
94.2514970575016
 20
8.5728541544751
 42
0.0
  0
VERTEX
  8
0
 10
93.7659304125932
 20
8.8224519761629
 42
0.0
  0
VERTEX
  8
0
 10
93.3378620004491
 20
9.0319725978814
 42
0.0
  0
VERTEX
  8
0
 10
92.9387864226555
 20
9.2144501289961
 42
0.0
  0
VERTEX
  8
0
 10
92.652757566644
 20
9.3728091851266
 42
0.0
  0
VERTEX
  8
0
 10
92.652757566644
 20
9.3728091851266
 42
0.0
  0
VERTEX
  8
0
 10
92.4097305262214
 20
9.5046125865898
 42
0.0
  0
VERTEX
  8
0
 10
92.0396477827783
 20
9.6600470271005
 42
0.0
  0
VERTEX
  8
0
 10
91.7826117611172
 20
9.791362992627
 42
0.0
  0
VERTEX
  8
0
 10
91.5120541941542
 20
9.9081825409784
 42
0.0
  0
VERTEX
  8
0
 10
91.5120541941542
 20
9.9081825409784
 42
0.0
  0
VERTEX
  8
0
 10
91.1854607022367
 20
10.0230523455831
 42
0.0
  0
VERTEX
  8
0
 10
90.9149031352736
 20
10.1398718939345
 42
0.0
  0
VERTEX
  8
0
 10
90.5448203918305
 20
10.2953063344452
 42
0.0
  0
VERTEX
  8
0
 10
90.2172520280398
 20
10.4381941015271
 42
0.0
  0
VERTEX
  8
0
 10
89.833160303358
 20
10.5931411061012
 42
0.0
  0
VERTEX
  8
0
 10
89.4640524317882
 20
10.7205575841347
 42
0.0
  0
VERTEX
  8
0
 10
89.1089535414569
 20
10.8484614981048
 42
0.0
  0
VERTEX
  8
0
 10
89.1089535414569
 20
10.8484614981048
 42
0.0
  0
VERTEX
  8
0
 10
88.7543420870622
 20
10.9623564308364
 42
0.0
  0
VERTEX
  8
0
 10
88.4277485951448
 20
11.0772262354412
 42
0.0
  0
VERTEX
  8
0
 10
88.1161389563392
 20
11.1645655135054
 42
0.0
  0
VERTEX
  8
0
 10
87.7760239191198
 20
11.264938900935
 42
0.0
  0
VERTEX
  8
0
 10
87.3938819381846
 20
11.3638499805546
 42
0.0
  0
VERTEX
  8
0
 10
86.9115874618378
 20
11.5157344272545
 42
0.0
  0
VERTEX
  8
0
 10
86.4152944276302
 20
11.6342371198794
 42
0.0
  0
VERTEX
  8
0
 10
85.8675590455921
 20
11.7679212721401
 42
0.0
  0
VERTEX
  8
0
 10
84.127281404767
 20
12.0670250693869
 42
0.0
  0
VERTEX
  8
0
 10
82.3314512573438
 20
12.3331049706121
 42
0.0
  0
VERTEX
  8
0
 10
80.0858178683237
 20
12.5424635576598
 42
0.0
  0
VERTEX
  8
0
 10
78.194571849117
 20
12.599870402372
 42
0.0
  0
VERTEX
  8
0
 10
76.4263887062647
 20
12.6615591621912
 42
0.0
  0
VERTEX
  8
0
 10
74.1350847941128
 20
12.61787665413
 42
0.0
  0
VERTEX
  8
0
 10
68.8247240463571
 20
12.459282972554
 42
0.0
  0
VERTEX
  8
0
 10
63.3744700858492
 20
12.2599860994835
 42
0.0
  0
VERTEX
  8
0
 10
58.3722906740538
 20
12.0460354791759
 42
0.0
  0
VERTEX
  8
0
 10
57.8825084690672
 20
12.0249272775829
 42
0.0
  0
VERTEX
  8
0
 10
57.049265566862
 20
11.9847522181966
 42
0.0
  0
VERTEX
  8
0
 10
52.5374117307383
 20
11.761684414649
 42
0.0
  0
VERTEX
  8
0
 10
50.4411620482218
 20
11.6445236443319
 42
0.0
  0
VERTEX
  8
0
 10
49.7175124200491
 20
11.6028246037007
 42
0.0
  0
VERTEX
  8
0
 10
47.3420163434355
 20
11.4690854358796
 42
0.0
  0
VERTEX
  8
0
 10
42.2939758624252
 20
11.1488277737804
 42
0.0
  0
VERTEX
  8
0
 10
37.3977204983229
 20
10.7977615772595
 42
0.0
  0
VERTEX
  8
0
 10
33.3632736137459
 20
10.4766816028815
 42
0.0
  0
VERTEX
  8
0
 10
32.6482770178776
 20
10.4200344180197
 42
0.0
  0
VERTEX
  8
0
 10
31.6900494750785
 20
10.3343376760678
 42
0.0
  0
VERTEX
  8
0
 10
31.4521205097209
 20
10.3136055175732
 42
0.0
  0
VERTEX
  8
0
 10
30.9749713087103
 20
9.5276800629409
 42
0.0
  0
VERTEX
  8
0
 10
30.8432385984627
 20
9.3108781394836
 42
0.0
  0
VERTEX
  8
0
 10
29.5181682076828
 20
7.1316608714108
 42
0.0
  0
VERTEX
  8
0
 10
29.3068727391022
 20
6.7837429769108
 42
0.0
  0
VERTEX
  8
0
 10
20.6236435876184
 20
6.6374103106743
 42
0.0
  0
VERTEX
  8
0
 10
20.2805370233605
 20
6.630809306426
 42
0.0
  0
VERTEX
  8
0
 10
9.5053361987236
 20
2.925969371501
 42
0.0
  0
VERTEX
  8
0
 10
6.8872026496844
 20
6.4034448450188
 42
0.0
  0
VERTEX
  8
0
 10
5.0280136806992
 20
8.8731760047574
 42
0.0
  0
VERTEX
  8
0
 10
4.6637304806391
 20
9.3568631317739
 42
0.0
  0
VERTEX
  8
0
 10
4.0738348688494
 20
10.1414969349552
 42
0.0
  0
VERTEX
  8
0
 10
2.4344603626901
 20
12.3182634309873
 42
0.0
  0
VERTEX
  8
0
 10
3.7520617405967
 20
14.1980564894684
 42
0.0
  0
VERTEX
  8
0
 10
4.0738532570925
 20
14.6587493210916
 42
0.0
  0
VERTEX
  8
0
 10
5.6056508797294
 20
16.8423892909015
 42
0.0
  0
VERTEX
  8
0
 10
6.1665886802336
 20
17.642362062961
 42
0.0
  0
VERTEX
  8
0
 10
5.3234922190172
 20
18.9284502592743
 42
0.0
  0
VERTEX
  8
0
 10
6.0825077056983
 20
20.1779237327457
 42
0.0
  0
VERTEX
  8
0
 10
2.213856238169
 20
25.316141120619
 42
0.0
  0
VERTEX
  8
0
 10
3.683835541598
 20
27.4135306892594
 42
0.0
  0
VERTEX
  8
0
 10
4.7045682772333
 20
28.8692829378245
 42
0.0
  0
VERTEX
  8
0
 10
6.4661548428602
 20
31.3835664375489
 42
0.0
  0
VERTEX
  8
0
 10
6.9508965068349
 20
32.0747279972356
 42
0.0
  0
SEQEND
  0
POLYLINE
  8
0
 66
     1
 10
0.0
 20
0.0
 30
0.0
 70
     1
  0
VERTEX
  8
0
 10
105.368989780584
 20
6.009125638356
 42
0.0
  0
VERTEX
  8
0
 10
105.465231498438
 20
6.1283684143235
 42
0.0
  0
VERTEX
  8
0
 10
105.533989790085
 20
6.2120900131726
 42
0.0
  0
VERTEX
  8
0
 10
105.628044047594
 20
6.328460986703
 42
0.0
  0
VERTEX
  8
0
 10
105.698272422759
 20
6.4137586586625
 42
0.0
  0
VERTEX
  8
0
 10
105.802564270099
 20
6.5426852222805
 42
0.0
  0
VERTEX
  8
0
 10
105.823783323987
 20
6.5683305926251
 42
0.0
  0
VERTEX
  8
0
 10
105.864371552205
 20
6.6289606547898
 42
0.0
  0
VERTEX
  8
0
 10
105.906527021068
 20
6.6883744798221
 42
0.0
  0
VERTEX
  8
0
 10
105.921878815557
 20
6.7219486202573
 42
0.0
  0
VERTEX
  8
0
 10
106.007833842942
 20
6.873873457592
 42
0.0
  0
VERTEX
  8
0
 10
106.050648755528
 20
6.9800745097912
 42
0.0
  0
VERTEX
  8
0
 10
106.086563706291
 20
7.0654490307664
 42
0.0
  0
VERTEX
  8
0
 10
106.144186694631
 20
7.2646772724559
 42
0.0
  0
VERTEX
  8
0
 10
106.180038425933
 20
7.4687393750195
 42
0.0
  0
VERTEX
  8
0
 10
106.191887277521
 20
7.6760327679486
 42
0.0
  0
VERTEX
  8
0
 10
106.180591945678
 20
7.8837916383983
 42
0.0
  0
VERTEX
  8
0
 10
106.147256140607
 20
8.0895128523756
 42
0.0
  0
VERTEX
  8
0
 10
106.089491550374
 20
8.2887926966629
 42
0.0
  0
VERTEX
  8
0
 10
106.011150033094
 20
8.480494426322
 42
0.0
  0
VERTEX
  8
0
 10
105.997645126934
 20
8.5034066705073
 42
0.0
  0
VERTEX
  8
0
 10
105.977166956043
 20
8.5441211964283
 42
0.0
  0
VERTEX
  8
0
 10
105.921078935324
 20
8.6440852766363
 42
0.0
  0
VERTEX
  8
0
 10
105.910805667579
 20
8.6617727363137
 42
0.0
  0
VERTEX
  8
0
 10
105.899272000371
 20
8.6791621872753
 42
0.0
  0
VERTEX
  8
0
 10
105.79201230323
 20
8.8327512811625
 42
0.0
  0
VERTEX
  8
0
 10
105.652933483213
 20
8.9877747806541
 42
0.0
  0
VERTEX
  8
0
 10
105.498944143958
 20
9.1257594846465
 42
0.0
  0
VERTEX
  8
0
 10
105.330805824623
 20
9.2467318905378
 42
0.0
  0
VERTEX
  8
0
 10
105.14784531071
 20
9.3481270370727
 42
0.0
  0
VERTEX
  8
0
 10
105.125634725499
 20
9.3582828395809
 42
0.0
  0
VERTEX
  8
0
 10
105.097786525006
 20
9.3697674061509
 42
0.0
  0
VERTEX
  8
0
 10
104.956269737535
 20
9.4268569004212
 42
0.0
  0
VERTEX
  8
0
 10
104.75698850105
 20
9.4860029670762
 42
0.0
  0
VERTEX
  8
0
 10
104.552926398486
 20
9.521854698378
 42
0.0
  0
VERTEX
  8
0
 10
104.345886851943
 20
9.5337123824317
 42
0.0
  0
VERTEX
  8
0
 10
104.137874135107
 20
9.5224082181225
 42
0.0
  0
VERTEX
  8
0
 10
103.932704776232
 20
9.4878208460552
 42
0.0
  0
VERTEX
  8
0
 10
103.733135755695
 20
9.4310628088987
 42
0.0
  0
VERTEX
  8
0
 10
103.54118017965
 20
9.3527124591527
 42
0.0
  0
VERTEX
  8
0
 10
103.469615806987
 20
9.3131159690892
 42
0.0
  0
VERTEX
  8
0
 10
103.442476498904
 20
9.2969224471495
 42
0.0
  0
VERTEX
  8
0
 10
103.360191045908
 20
9.2513615405611
 42
0.0
  0
VERTEX
  8
0
 10
103.306351757915
 20
9.2136525550478
 42
0.0
  0
VERTEX
  8
0
 10
103.189221333525
 20
9.1323143298262
 42
0.0
  0
VERTEX
  8
0
 10
103.177162656664
 20
9.1209661444051
 42
0.0
  0
VERTEX
  8
0
 10
103.087701488317
 20
9.0405906579799
 42
0.0
  0
VERTEX
  8
0
 10
103.034153671703
 20
8.9945047417377
 42
0.0
  0
VERTEX
  8
0
 10
103.004796163669
 20
8.9617140475999
 42
0.0
  0
VERTEX
  8
0
 10
102.972988516439
 20
8.9262965649447
 42
0.0
  0
VERTEX
  8
0
 10
102.938315604108
 20
8.9001830739009
 42
0.0
  0
VERTEX
  8
0
 10
102.83859493879
 20
8.7932727812414
 42
0.0
  0
VERTEX
  8
0
 10
102.757665443352
 20
8.6941326223338
 42
0.0
  0
VERTEX
  8
0
 10
102.707484047273
 20
8.6316438481459
 42
0.0
  0
VERTEX
  8
0
 10
102.654607498076
 20
8.5662656065888
 42
0.0
  0
VERTEX
  8
0
 10
102.625645155885
 20
8.5294222027455
 42
0.0
  0
VERTEX
  8
0
 10
102.487918888536
 20
8.3607009406528
 42
0.0
  0
VERTEX
  8
0
 10
102.308158511719
 20
8.1363823817798
 42
0.0
  0
VERTEX
  8
0
 10
102.280315249534
 20
8.1038985288238
 42
0.0
  0
VERTEX
  8
0
 10
102.255482814113
 20
8.072536051003
 42
0.0
  0
VERTEX
  8
0
 10
102.162644793736
 20
7.957732318117
 42
0.0
  0
VERTEX
  8
0
 10
102.084926976653
 20
7.8612454451248
 42
0.0
  0
VERTEX
  8
0
 10
102.042868664916
 20
7.7990393098496
 42
0.0
  0
VERTEX
  8
0
 10
102.035125376612
 20
7.7878412763509
 42
0.0
  0
VERTEX
  8
0
 10
102.003452511501
 20
7.7412457202579
 42
0.0
  0
VERTEX
  8
0
 10
101.959818474703
 20
7.6512820042788
 42
0.0
  0
VERTEX
  8
0
 10
101.940486925366
 20
7.6079115492638
 42
0.0
  0
VERTEX
  8
0
 10
101.929337992504
 20
7.5704171861133
 42
0.0
  0
VERTEX
  8
0
 10
101.921647698996
 20
7.5576960743003
 42
0.0
  0
VERTEX
  8
0
 10
101.841648603719
 20
7.3660763387957
 42
0.0
  0
VERTEX
  8
0
 10
101.783517922607
 20
7.1668304321742
 42
0.0
  0
VERTEX
  8
0
 10
101.747964200021
 20
6.961507930148
 42
0.0
  0
VERTEX
  8
0
 10
101.735861502048
 20
6.7542057047529
 42
0.0
  0
VERTEX
  8
0
 10
101.747112671561
 20
6.5477160662318
 42
0.0
  0
VERTEX
  8
0
 10
101.757898570385
 20
6.4860778519604
 42
0.0
  0
VERTEX
  8
0
 10
101.780439644166
 20
6.3422486986402
 42
0.0
  0
VERTEX
  8
0
 10
101.838466913251
 20
6.1427238404332
 42
0.0
  0
VERTEX
  8
0
 10
101.916808430531
 20
5.9510221107742
 42
0.0
  0
VERTEX
  8
0
 10
102.017196958375
 20
5.7684745688538
 42
0.0
  0
VERTEX
  8
0
 10
102.118483406526
 20
5.625860401686
 42
0.0
  0
VERTEX
  8
0
 10
102.137469238709
 20
5.5988182507298
 42
0.0
  0
VERTEX
  8
0
 10
102.275278826797
 20
5.4437505889081
 42
0.0
  0
VERTEX
  8
0
 10
102.405907413179
 20
5.3270644309975
 42
0.0
  0
VERTEX
  8
0
 10
102.429014319666
 20
5.3057570524496
 42
0.0
  0
VERTEX
  8
0
 10
102.498103099883
 20
5.2558053004866
 42
0.0
  0
VERTEX
  8
0
 10
102.597459480184
 20
5.18327040071
 42
0.0
  0
VERTEX
  8
0
 10
102.779859306529
 20
5.0833806675574
 42
0.0
  0
VERTEX
  8
0
 10
102.971479042033
 20
5.0033815722803
 42
0.0
  0
VERTEX
  8
0
 10
103.170716116189
 20
4.9455047375539
 42
0.0
  0
VERTEX
  8
0
 10
103.230548961283
 20
4.9351330617026
 42
0.0
  0
VERTEX
  8
0
 10
103.376047450681
 20
4.9096971685822
 42
0.0
  0
VERTEX
  8
0
 10
103.581817765296
 20
4.8977953221984
 42
0.0
  0
VERTEX
  8
0
 10
103.789830482131
 20
4.9090994865076
 42
0.0
  0
VERTEX
  8
0
 10
103.995507533778
 20
4.943704523507
 42
0.0
  0
VERTEX
  8
0
 10
104.194568861544
 20
5.0004448957314
 42
0.0
  0
VERTEX
  8
0
 10
104.386524437589
 20
5.0787952454774
 42
0.0
  0
VERTEX
  8
0
 10
104.567811580046
 20
5.1788857646063
 42
0.0
  0
VERTEX
  8
0
 10
104.738781292429
 20
5.2979329753413
 42
0.0
  0
VERTEX
  8
0
 10
104.778912875593
 20
5.3351650076896
 42
0.0
  0
VERTEX
  8
0
 10
104.798646476159
 20
5.3523716200432
 42
0.0
  0
VERTEX
  8
0
 10
104.893804791921
 20
5.4370117953585
 42
0.0
  0
VERTEX
  8
0
 10
104.901592242555
 20
5.4469405969286
 42
0.0
  0
VERTEX
  8
0
 10
104.985298678432
 20
5.5393152280819
 42
0.0
  0
VERTEX
  8
0
 10
105.031798328379
 20
5.5907472882275
 42
0.0
  0
VERTEX
  8
0
 10
105.056752123196
 20
5.6259262943002
 42
0.0
  0
VERTEX
  8
0
 10
105.064793420216
 20
5.6358639283363
 42
0.0
  0
VERTEX
  8
0
 10
105.07262503318
 20
5.6445234979778
 42
0.0
  0
VERTEX
  8
0
 10
105.089932696819
 20
5.6657121603087
 42
0.0
  0
VERTEX
  8
0
 10
105.100362305773
 20
5.6800535075624
 42
0.0
  0
VERTEX
  8
0
 10
105.129675651477
 20
5.7141134336288
 42
0.0
  0
VERTEX
  8
0
 10
105.183733107942
 20
5.7820743013732
 42
0.0
  0
VERTEX
  8
0
 10
105.19324448848
 20
5.7935880085198
 42
0.0
  0
VERTEX
  8
0
 10
105.247399102071
 20
5.8587565660213
 42
0.0
  0
VERTEX
  8
0
 10
105.350212033427
 20
5.9863609029145
 42
0.0
  0
VERTEX
  8
0
 10
105.36124649228
 20
5.9979276048573
 42
0.0
  0
SEQEND
  0
POLYLINE
  8
0
 66
     1
 10
0.0
 20
0.0
 30
0.0
 70
     1
  0
VERTEX
  8
0
 10
11.2002507312565
 20
27.6860656886027
 42
0.0
  0
VERTEX
  8
0
 10
11.1761203235425
 20
27.6659358159961
 42
0.0
  0
VERTEX
  8
0
 10
10.7954780060772
 20
27.2721217837375
 42
0.0
  0
VERTEX
  8
0
 10
10.662525761785
 20
27.0896390083831
 42
0.0
  0
VERTEX
  8
0
 10
10.5763576293328
 20
26.8715251307929
 42
0.0
  0
VERTEX
  8
0
 10
10.5382695327554
 20
26.6192485027969
 42
0.0
  0
VERTEX
  8
0
 10
10.5506428779176
 20
26.3425244098004
 42
0.0
  0
VERTEX
  8
0
 10
10.6119174205379
 20
26.0482115446717
 42
0.0
  0
VERTEX
  8
0
 10
10.6792196939996
 20
25.8574981397168
 42
0.0
  0
VERTEX
  8
0
 10
10.7205294181535
 20
25.7403473724112
 42
0.0
  0
VERTEX
  8
0
 10
10.8747715833259
 20
25.4285557449984
 42
0.0
  0
VERTEX
  8
0
 10
11.071638938089
 20
25.1210429318599
 42
0.0
  0
VERTEX
  8
0
 10
11.3039384981381
 20
24.8243953912028
 42
0.0
  0
VERTEX
  8
0
 10
11.5672953982708
 20
24.5467463124984
 42
0.0
  0
VERTEX
  8
0
 10
12.0367035636072
 20
24.0942672212445
 42
0.0
  0
VERTEX
  8
0
 10
12.2064815780519
 20
23.9305523834773
 42
0.0
  0
VERTEX
  8
0
 10
12.2435914928562
 20
23.8946609182018
 42
0.0
  0
VERTEX
  8
0
 10
12.408560543796
 20
23.7500944365533
 42
0.0
  0
VERTEX
  8
0
 10
12.5309125208287
 20
23.6426510619208
 42
0.0
  0
VERTEX
  8
0
 10
12.836420508396
 20
23.4216199650195
 42
0.0
  0
VERTEX
  8
0
 10
13.1502807023486
 20
23.2381129973351
 42
0.0
  0
VERTEX
  8
0
 10
13.4682845173581
 20
23.0947539985227
 42
0.0
  0
VERTEX
  8
0
 10
13.7791725864944
 20
22.9966663396337
 42
0.0
  0
VERTEX
  8
0
 10
14.0760228178419
 20
22.9463031990209
 42
0.0
  0
VERTEX
  8
0
 10
14.3532488244213
 20
22.9435210317089
 42
0.0
  0
VERTEX
  8
0
 10
14.4847584440096
 20
22.9687849590572
 42
0.0
  0
VERTEX
  8
0
 10
14.6039280552912
 20
22.9922470915808
 42
0.0
  0
VERTEX
  8
0
 10
14.8185062402457
 20
23.0865829760941
 42
0.0
  0
VERTEX
  8
0
 10
14.9956371101939
 20
23.2265072578174
 42
0.0
  0
VERTEX
  8
0
 10
15.3748618451064
 20
23.6216189806039
 42
0.0
  0
VERTEX
  8
0
 10
15.5092062873128
 20
23.8028031821839
 42
0.0
  0
VERTEX
  8
0
 10
15.5953267244485
 20
24.022287830257
 42
0.0
  0
VERTEX
  8
0
 10
15.6321403244227
 20
24.2717498373321
 42
0.0
  0
VERTEX
  8
0
 10
15.6211368664968
 20
24.5485470102837
 42
0.0
  0
VERTEX
  8
0
 10
15.5597914346353
 20
24.8456276842633
 42
0.0
  0
VERTEX
  8
0
 10
15.4512026309443
 20
25.1520948181557
 42
0.0
  0
VERTEX
  8
0
 10
15.2955905785357
 20
25.4638133656135
 42
0.0
  0
VERTEX
  8
0
 10
15.1001447635326
 20
25.7713756405617
 42
0.0
  0
VERTEX
  8
0
 10
14.9168804879609
 20
26.0049455609861
 42
0.0
  0
VERTEX
  8
0
 10
14.8677935509597
 20
26.0680467993642
 42
0.0
  0
VERTEX
  8
0
 10
14.6030658803442
 20
26.345648182752
 42
0.0
  0
VERTEX
  8
0
 10
13.9281873683116
 20
26.9964358865208
 42
0.0
  0
VERTEX
  8
0
 10
13.6394986438168
 20
27.2497705844614
 42
0.0
  0
VERTEX
  8
0
 10
13.3353124239484
 20
27.4707968409089
 42
0.0
  0
VERTEX
  8
0
 10
13.0200074963113
 20
27.6556513851516
 42
0.0
  0
VERTEX
  8
0
 10
12.8224613238858
 20
27.7452800213037
 42
0.0
  0
VERTEX
  8
0
 10
12.7033998364232
 20
27.7990589625272
 42
0.0
  0
VERTEX
  8
0
 10
12.3911878088739
 20
27.8957535402554
 42
0.0
  0
VERTEX
  8
0
 10
12.2635579491214
 20
27.9174905509468
 42
0.0
  0
VERTEX
  8
0
 10
12.0943638454116
 20
27.9460921794762
 42
0.0
  0
VERTEX
  8
0
 10
11.9702189907511
 20
27.9472877528881
 42
0.0
  0
VERTEX
  8
0
 10
11.8171356481182
 20
27.9474764251735
 42
0.0
  0
VERTEX
  8
0
 10
11.5678079510139
 20
27.9015422513237
 42
0.0
  0
VERTEX
  8
0
 10
11.3518813062544
 20
27.8057870177644
 42
0.0
  0
SEQEND
  0
POLYLINE
  8
0
 66
     1
 10
0.0
 20
0.0
 30
0.0
 70
     1
  0
VERTEX
  8
0
 10
24.8574413530729
 20
26.9092492430058
 42
0.0
  0
VERTEX
  8
0
 10
24.6033885756448
 20
26.6411982296702
 42
0.0
  0
VERTEX
  8
0
 10
24.3107959918945
 20
26.3318024483167
 42
0.0
  0
VERTEX
  8
0
 10
24.2176688159513
 20
26.2348048292756
 42
0.0
  0
VERTEX
  8
0
 10
23.9698443510741
 20
25.9462570000163
 42
0.0
  0
VERTEX
  8
0
 10
23.752928639582
 20
25.6422646353747
 42
0.0
  0
VERTEX
  8
0
 10
23.5708410209437
 20
25.3270559816172
 42
0.0
  0
VERTEX
  8
0
 10
23.4315457550168
 20
25.0105914076787
 42
0.0
  0
VERTEX
  8
0
 10
23.3348520605353
 20
24.6983539954908
 42
0.0
  0
VERTEX
  8
0
 10
23.2859327703605
 20
24.4001815722236
 42
0.0
  0
VERTEX
  8
0
 10
23.2857432148284
 20
24.2471236142293
 42
0.0
  0
VERTEX
  8
0
 10
23.2844990628534
 20
24.1243749146902
 42
0.0
  0
VERTEX
  8
0
 10
23.3318057736793
 20
23.8750441436253
 42
0.0
  0
VERTEX
  8
0
 10
23.4248185830262
 20
23.6590474928713
 42
0.0
  0
VERTEX
  8
0
 10
23.5632990143116
 20
23.4832388148429
 42
0.0
  0
VERTEX
  8
0
 10
23.77747358681
 20
23.2714325154824
 42
0.0
  0
VERTEX
  8
0
 10
23.9501839234866
 20
23.1023299864167
 42
0.0
  0
VERTEX
  8
0
 10
24.1285526208991
 20
22.969285425452
 42
0.0
  0
VERTEX
  8
0
 10
24.3439249575235
 20
22.8830219023668
 42
0.0
  0
VERTEX
  8
0
 10
24.5907416975125
 20
22.8433459861552
 42
0.0
  0
VERTEX
  8
0
 10
24.7352617095785
 20
22.851144767652
 42
0.0
  0
VERTEX
  8
0
 10
24.8618833607371
 20
22.8569229386796
 42
0.0
  0
VERTEX
  8
0
 10
25.1534809527852
 20
22.918077589275
 42
0.0
  0
VERTEX
  8
0
 10
25.4544667712393
 20
23.0264248424228
 42
0.0
  0
VERTEX
  8
0
 10
25.7620944346796
 20
23.180547539791
 42
0.0
  0
VERTEX
  8
0
 10
26.0223387143015
 20
23.3495415454968
 42
0.0
  0
VERTEX
  8
0
 10
26.0627542786502
 20
23.377151033333
 42
0.0
  0
VERTEX
  8
0
 10
26.3552632399735
 20
23.6093320088245
 42
0.0
  0
VERTEX
  8
0
 10
26.6274537381382
 20
23.8725243955762
 42
0.0
  0
VERTEX
  8
0
 10
26.7444181187284
 20
23.9951568208077
 42
0.0
  0
VERTEX
  8
0
 10
27.2670722009353
 20
24.547014279104
 42
0.0
  0
VERTEX
  8
0
 10
27.5162692027886
 20
24.8355590344026
 42
0.0
  0
VERTEX
  8
0
 10
27.7318408359037
 20
25.1409278932276
 42
0.0
  0
VERTEX
  8
0
 10
27.9140785716595
 20
25.45474392485
 42
0.0
  0
VERTEX
  8
0
 10
28.0532246037155
 20
25.772575736285
 42
0.0
  0
VERTEX
  8
0
 10
28.1499152242364
 20
26.0834406114968
 42
0.0
  0
VERTEX
  8
0
 10
28.1988069390587
 20
26.3802142299027
 42
0.0
  0
VERTEX
  8
0
 10
28.1985803124155
 20
26.4670760816687
 42
0.0
  0
VERTEX
  8
0
 10
28.200344375834
 20
26.6574223420372
 42
0.0
  0
VERTEX
  8
0
 10
28.1543077801833
 20
26.9067718907937
 42
0.0
  0
VERTEX
  8
0
 10
28.0613965093907
 20
27.122772074534
 42
0.0
  0
VERTEX
  8
0
 10
27.9228176135117
 20
27.2999497565521
 42
0.0
  0
VERTEX
  8
0
 10
27.5344827059774
 20
27.6794357029459
 42
0.0
  0
VERTEX
  8
0
 10
27.3562186210798
 20
27.8138563338731
 42
0.0
  0
VERTEX
  8
0
 10
27.1407438626545
 20
27.9001417086104
 42
0.0
  0
VERTEX
  8
0
 10
26.8942002057686
 20
27.9370822665825
 42
0.0
  0
VERTEX
  8
0
 10
26.6228861147486
 20
27.9262695899226
 42
0.0
  0
VERTEX
  8
0
 10
26.6077516054849
 20
27.922972716357
 42
0.0
  0
VERTEX
  8
0
 10
26.331214135278
 20
27.8650615203103
 42
0.0
  0
VERTEX
  8
0
 10
26.0303521660562
 20
27.7553461464194
 42
0.0
  0
VERTEX
  8
0
 10
25.7240952730987
 20
27.6012711443677
 42
0.0
  0
VERTEX
  8
0
 10
25.4220169633287
 20
27.4059907259922
 42
0.0
  0
VERTEX
  8
0
 10
25.1309010831663
 20
27.1724857920877
 42
0.0
  0
SEQEND
  0
POLYLINE
  8
0
 66
     1
 10
0.0
 20
0.0
 30
0.0
 70
     1
  0
VERTEX
  8
0
 10
23.4618829560246
 20
19.9773703434105
 42
0.0
  0
VERTEX
  8
0
 10
23.4249511710337
 20
20.0877604582206
 42
0.0
  0
VERTEX
  8
0
 10
23.2860940777212
 20
20.5117879563291
 42
0.0
  0
VERTEX
  8
0
 10
23.0396066444992
 20
21.0175169835767
 42
0.0
  0
VERTEX
  8
0
 10
22.7241729893735
 20
21.4836389566064
 42
0.0
  0
VERTEX
  8
0
 10
22.3483573261575
 20
21.9021410369975
 42
0.0
  0
VERTEX
  8
0
 10
21.9166544120788
 20
22.2621747621978
 42
0.0
  0
VERTEX
  8
0
 10
21.4388543789909
 20
22.5599380698289
 42
0.0
  0
VERTEX
  8
0
 10
20.9248913279434
 20
22.787491201425
 42
0.0
  0
VERTEX
  8
0
 10
20.6365858507405
 20
22.8698446200461
 42
0.0
  0
VERTEX
  8
0
 10
20.3845068122269
 20
22.9424282497291
 42
0.0
  0
VERTEX
  8
0
 10
19.8274878897343
 20
23.0195746153868
 42
0.0
  0
VERTEX
  8
0
 10
19.2649285307682
 20
23.0192908925245
 42
0.0
  0
VERTEX
  8
0
 10
18.7092855616998
 20
22.9392910659104
 42
0.0
  0
VERTEX
  8
0
 10
18.167269748994
 20
22.7839259235756
 42
0.0
  0
VERTEX
  8
0
 10
17.6540134112003
 20
22.5550944174711
 42
0.0
  0
VERTEX
  8
0
 10
17.1776693987285
 20
22.2558759129857
 42
0.0
  0
VERTEX
  8
0
 10
16.7476716655387
 20
21.8934353948505
 42
0.0
  0
VERTEX
  8
0
 10
16.5777256642115
 20
21.7055227336299
 42
0.0
  0
VERTEX
  8
0
 10
16.3720054746991
 20
21.4749382720179
 42
0.0
  0
VERTEX
  8
0
 10
16.0586556302519
 20
21.0090240289703
 42
0.0
  0
VERTEX
  8
0
 10
15.8115485028339
 20
20.5026406012877
 42
0.0
  0
VERTEX
  8
0
 10
15.6384759245071
 20
19.9685126337698
 42
0.0
  0
VERTEX
  8
0
 10
15.541965461047
 20
19.4136156373491
 42
0.0
  0
VERTEX
  8
0
 10
15.5229091632779
 20
18.8517557814483
 42
0.0
  0
VERTEX
  8
0
 10
15.5823430512205
 20
18.2926015394028
 42
0.0
  0
VERTEX
  8
0
 10
15.6974989946677
 20
17.8361072343416
 42
0.0
  0
VERTEX
  8
0
 10
15.7199065307484
 20
17.7472468815152
 42
0.0
  0
VERTEX
  8
0
 10
15.9310812264886
 20
17.2264886178139
 42
0.0
  0
VERTEX
  8
0
 10
16.2127391944895
 20
16.7398757538302
 42
0.0
  0
VERTEX
  8
0
 10
16.2718770506047
 20
16.6647469469297
 42
0.0
  0
VERTEX
  8
0
 10
16.5590862205026
 20
16.2968899388406
 42
0.0
  0
VERTEX
  8
0
 10
16.7730927466338
 20
16.0906437585741
 42
0.0
  0
VERTEX
  8
0
 10
16.9642274349718
 20
15.9069839044967
 42
0.0
  0
VERTEX
  8
0
 10
17.4197505076942
 20
15.576727097807
 42
0.0
  0
VERTEX
  8
0
 10
17.9156657278893
 20
15.312735743045
 42
0.0
  0
VERTEX
  8
0
 10
18.0901952100788
 20
15.2498565138079
 42
0.0
  0
VERTEX
  8
0
 10
18.3527124539391
 20
15.1555755347996
 42
0.0
  0
VERTEX
  8
0
 10
18.4448842995462
 20
15.1215236774885
 42
0.0
  0
VERTEX
  8
0
 10
18.551851063501
 20
15.099067704063
 42
0.0
  0
VERTEX
  8
0
 10
18.9949685982064
 20
15.005555492086
 42
0.0
  0
VERTEX
  8
0
 10
19.5561289510419
 20
14.9671591736855
 42
0.0
  0
VERTEX
  8
0
 10
20.1173252309879
 20
15.0073484316298
 42
0.0
  0
VERTEX
  8
0
 10
20.6675356644503
 20
15.1244181691947
 42
0.0
  0
VERTEX
  8
0
 10
20.8132415907029
 20
15.1777517276153
 42
0.0
  0
VERTEX
  8
0
 10
20.9030648835949
 20
15.2111976242676
 42
0.0
  0
VERTEX
  8
0
 10
21.0038587217782
 20
15.2478209266813
 42
0.0
  0
VERTEX
  8
0
 10
21.1944259668228
 20
15.3178629746156
 42
0.0
  0
VERTEX
  8
0
 10
21.277058890345
 20
15.3607419419813
 42
0.0
  0
VERTEX
  8
0
 10
21.6912814144333
 20
15.5819849075239
 42
0.0
  0
VERTEX
  8
0
 10
22.1458600393478
 20
15.9121644782133
 42
0.0
  0
VERTEX
  8
0
 10
22.5500286520948
 20
16.3040268214813
 42
0.0
  0
VERTEX
  8
0
 10
22.7467085578753
 20
16.5563064417046
 42
0.0
  0
VERTEX
  8
0
 10
22.8958243002841
 20
16.7490348746464
 42
0.0
  0
VERTEX
  8
0
 10
23.1767003066107
 20
17.2359305782457
 42
0.0
  0
VERTEX
  8
0
 10
23.3860448282291
 20
17.757520064728
 42
0.0
  0
VERTEX
  8
0
 10
23.4731945589025
 20
18.1066589172784
 42
0.0
  0
VERTEX
  8
0
 10
23.4912229300861
 20
18.1831002568734
 42
0.0
  0
VERTEX
  8
0
 10
23.5215241545909
 20
18.3027172782051
 42
0.0
  0
VERTEX
  8
0
 10
23.5806780761756
 20
18.8618804374475
 42
0.0
  0
VERTEX
  8
0
 10
23.5597566421542
 20
19.423721716926
 42
0.0
  0
SEQEND
  0
POLYLINE
  8
0
 66
     1
 10
0.0
 20
0.0
 30
0.0
 70
     1
  0
VERTEX
  8
0
 10
111.461999729931
 20
21.861748207336
 42
0.0
  0
VERTEX
  8
0
 10
111.350378997845
 20
21.6220606067012
 42
0.0
  0
VERTEX
  8
0
 10
111.328702415656
 20
21.5730425911787
 42
0.0
  0
VERTEX
  8
0
 10
111.282341422303
 20
21.4445813668607
 42
0.0
  0
VERTEX
  8
0
 10
111.221981420206
 20
21.272884400037
 42
0.0
  0
VERTEX
  8
0
 10
111.194179302877
 20
21.1588694694153
 42
0.0
  0
VERTEX
  8
0
 10
111.147326856679
 20
20.9641841044906
 42
0.0
  0
VERTEX
  8
0
 10
111.103119372883
 20
20.6496556353476
 42
0.0
  0
VERTEX
  8
0
 10
111.089264461431
 20
20.3320151489353
 42
0.0
  0
VERTEX
  8
0
 10
111.107187160263
 20
20.0141333349315
 42
0.0
  0
VERTEX
  8
0
 10
111.156794728488
 20
19.698675580386
 42
0.0
  0
VERTEX
  8
0
 10
111.235098775116
 20
19.3911801179358
 42
0.0
  0
VERTEX
  8
0
 10
111.335449129648
 20
19.1147722837102
 42
0.0
  0
VERTEX
  8
0
 10
111.344846564813
 20
19.0930387212742
 42
0.0
  0
VERTEX
  8
0
 10
111.365719901546
 20
19.0482714856477
 42
0.0
  0
VERTEX
  8
0
 10
111.382196945645
 20
19.0129837085836
 42
0.0
  0
VERTEX
  8
0
 10
111.445690138683
 20
18.8828042583782
 42
0.0
  0
VERTEX
  8
0
 10
111.46357950066
 20
18.8434483321956
 42
0.0
  0
VERTEX
  8
0
 10
111.482945128881
 20
18.8054907866534
 42
0.0
  0
VERTEX
  8
0
 10
111.64691465235
 20
18.5340668270035
 42
0.0
  0
VERTEX
  8
0
 10
111.743660838671
 20
18.4050698144854
 42
0.0
  0
VERTEX
  8
0
 10
111.837725475185
 20
18.2800967887558
 42
0.0
  0
VERTEX
  8
0
 10
112.049600429142
 20
18.0489202088666
 42
0.0
  0
VERTEX
  8
0
 10
112.052536708581
 20
18.0448796699056
 42
0.0
  0
VERTEX
  8
0
 10
112.29039426562
 20
17.8339228242635
 42
0.0
  0
VERTEX
  8
0
 10
112.547793758714
 20
17.6456810575452
 42
0.0
  0
VERTEX
  8
0
 10
112.715166303245
 20
17.546717133296
 42
0.0
  0
VERTEX
  8
0
 10
112.736460426532
 20
17.5336829214037
 42
0.0
  0
VERTEX
  8
0
 10
112.820781756386
 20
17.4842103481248
 42
0.0
  0
VERTEX
  8
0
 10
113.109612988268
 20
17.3494941438297
 42
0.0
  0
VERTEX
  8
0
 10
113.409876675172
 20
17.2441238337034
 42
0.0
  0
VERTEX
  8
0
 10
113.71847896515
 20
17.1693641986365
 42
0.0
  0
VERTEX
  8
0
 10
113.836268807019
 20
17.1514020991917
 42
0.0
  0
VERTEX
  8
0
 10
114.033182936049
 20
17.1237649759519
 42
0.0
  0
VERTEX
  8
0
 10
114.352066810726
 20
17.1114274191132
 42
0.0
  0
VERTEX
  8
0
 10
114.669944667522
 20
17.1280029656083
 42
0.0
  0
VERTEX
  8
0
 10
114.982610995071
 20
17.177487992068
 42
0.0
  0
VERTEX
  8
0
 10
115.049400684383
 20
17.1936124543084
 42
0.0
  0
VERTEX
  8
0
 10
115.098772130205
 20
17.2063351661503
 42
0.0
  0
VERTEX
  8
0
 10
115.291685145567
 20
17.2571685676841
 42
0.0
  0
VERTEX
  8
0
 10
115.591120734575
 20
17.3655127120663
 42
0.0
  0
VERTEX
  8
0
 10
115.877064137486
 20
17.50370793943
 42
0.0
  0
VERTEX
  8
0
 10
116.120486594589
 20
17.651428525936
 42
0.0
  0
VERTEX
  8
0
 10
116.148849205776
 20
17.6689862114115
 42
0.0
  0
VERTEX
  8
0
 10
116.403986054152
 20
17.8598630482289
 42
0.0
  0
VERTEX
  8
0
 10
116.6376992966
 20
18.0747998625451
 42
0.0
  0
VERTEX
  8
0
 10
116.850082557261
 20
18.3111058826712
 42
0.0
  0
VERTEX
  8
0
 10
116.956839384966
 20
18.456841528062
 42
0.0
  0
VERTEX
  8
0
 10
117.038346175631
 20
18.5686077975655
 42
0.0
  0
VERTEX
  8
0
 10
117.050065685798
 20
18.5897036841984
 42
0.0
  0
VERTEX
  8
0
 10
117.199840927418
 20
18.843096138653
 42
0.0
  0
VERTEX
  8
0
 10
117.333440666642
 20
19.1304144321548
 42
0.0
  0
VERTEX
  8
0
 10
117.401108516468
 20
19.3258240592934
 42
0.0
  0
VERTEX
  8
0
 10
117.438638583778
 20
19.4305196285004
 42
0.0
  0
VERTEX
  8
0
 10
117.514767647055
 20
19.7406690739645
 42
0.0
  0
VERTEX
  8
0
 10
117.558974247605
 20
20.055222927746
 42
0.0
  0
VERTEX
  8
0
 10
117.572576195918
 20
20.3728291970536
 42
0.0
  0
VERTEX
  8
0
 10
117.554907343471
 20
20.6907198435235
 42
0.0
  0
VERTEX
  8
0
 10
117.505094507424
 20
21.0047726104815
 42
0.0
  0
VERTEX
  8
0
 10
117.426995728619
 20
21.3136730605192
 42
0.0
  0
VERTEX
  8
0
 10
117.404023436787
 20
21.3749380856987
 42
0.0
  0
VERTEX
  8
0
 10
117.337187677434
 20
21.5573568965667
 42
0.0
  0
VERTEX
  8
0
 10
117.317247938921
 20
21.6118144571808
 42
0.0
  0
VERTEX
  8
0
 10
117.179197953416
 20
21.8979662366802
 42
0.0
  0
VERTEX
  8
0
 10
117.168626676956
 20
21.9169140958202
 42
0.0
  0
VERTEX
  8
0
 10
117.015179851385
 20
22.1707863514515
 42
0.0
  0
VERTEX
  8
0
 10
116.824115182164
 20
22.4247475572332
 42
0.0
  0
VERTEX
  8
0
 10
116.608083295403
 20
22.6585243586318
 42
0.0
  0
VERTEX
  8
0
 10
116.41867205726
 20
22.828443633048
 42
0.0
  0
VERTEX
  8
0
 10
116.401644743966
 20
22.8430241519843
 42
0.0
  0
VERTEX
  8
0
 10
116.371700238114
 20
22.8709303541915
 42
0.0
  0
VERTEX
  8
0
 10
116.186328454416
 20
23.0051036760701
 42
0.0
  0
VERTEX
  8
0
 10
116.114047781882
 20
23.0591379038052
 42
0.0
  0
VERTEX
  8
0
 10
115.973396408618
 20
23.1424861723441
 42
0.0
  0
VERTEX
  8
0
 10
115.840805054577
 20
23.2206251653981
 42
0.0
  0
VERTEX
  8
0
 10
115.742919989091
 20
23.2654830894246
 42
0.0
  0
VERTEX
  8
0
 10
115.552529210783
 20
23.3539882641424
 42
0.0
  0
VERTEX
  8
0
 10
115.495154808716
 20
23.3740524905002
 42
0.0
  0
VERTEX
  8
0
 10
115.478414550568
 20
23.3803830019005
 42
0.0
  0
VERTEX
  8
0
 10
115.252265523879
 20
23.4593585742687
 42
0.0
  0
VERTEX
  8
0
 10
115.24663232483
 20
23.4605604151377
 42
0.0
  0
VERTEX
  8
0
 10
115.071276416383
 20
23.5040952075105
 42
0.0
  0
VERTEX
  8
0
 10
114.989389675337
 20
23.5274238285789
 42
0.0
  0
VERTEX
  8
0
 10
114.878151260934
 20
23.5470117272617
 42
0.0
  0
VERTEX
  8
0
 10
114.657754665025
 20
23.5848366445954
 42
0.0
  0
VERTEX
  8
0
 10
114.322081953637
 20
23.6049008679557
 42
0.0
  0
VERTEX
  8
0
 10
113.984912654772
 20
23.5876286694044
 42
0.0
  0
VERTEX
  8
0
 10
113.796961571042
 20
23.5548857523166
 42
0.0
  0
VERTEX
  8
0
 10
113.744908575413
 20
23.5461870272631
 42
0.0
  0
VERTEX
  8
0
 10
113.652892703282
 20
23.5319296918524
 42
0.0
  0
VERTEX
  8
0
 10
113.329526486756
 20
23.4393491295838
 42
0.0
  0
VERTEX
  8
0
 10
113.316011329687
 20
23.4333383252099
 42
0.0
  0
VERTEX
  8
0
 10
113.197729151727
 20
23.3851016686865
 42
0.0
  0
VERTEX
  8
0
 10
113.07072080602
 20
23.3393062492841
 42
0.0
  0
VERTEX
  8
0
 10
112.985246110446
 20
23.2977516645522
 42
0.0
  0
VERTEX
  8
0
 10
112.93671887435
 20
23.2753750703463
 42
0.0
  0
VERTEX
  8
0
 10
112.838744407248
 20
23.2278450111046
 42
0.0
  0
VERTEX
  8
0
 10
112.784775636616
 20
23.2011617911975
 42
0.0
  0
VERTEX
  8
0
 10
112.513244414711
 20
23.0358923516821
 42
0.0
  0
VERTEX
  8
0
 10
112.499872343591
 20
23.0257692358595
 42
0.0
  0
VERTEX
  8
0
 10
112.258108449583
 20
22.8449901302261
 42
0.0
  0
VERTEX
  8
0
 10
112.153688183435
 20
22.7489720034231
 42
0.0
  0
VERTEX
  8
0
 10
112.024189939312
 20
22.6286483283225
 42
0.0
  0
VERTEX
  8
0
 10
111.811804912158
 20
22.3923930774734
 42
0.0
  0
VERTEX
  8
0
 10
111.804066040087
 20
22.3810681207818
 42
0.0
  0
VERTEX
  8
0
 10
111.623748328103
 20
22.1362453808895
 42
0.0
  0
VERTEX
  8
0
 10
111.568986562924
 20
22.0446999583925
 42
0.0
  0
VERTEX
  8
0
 10
111.556093211462
 20
22.0208183684638
 42
0.0
  0
SEQEND
  0
POLYLINE
  8
0
 66
     1
 10
0.0
 20
0.0
 30
0.0
 70
     1
  0
VERTEX
  8
0
 10
13.7679928814191
 20
14.9960523659858
 42
0.0
  0
VERTEX
  8
0
 10
13.6195454142008
 20
14.9426234169321
 42
0.0
  0
VERTEX
  8
0
 10
13.3091762097946
 20
14.7884053289309
 42
0.0
  0
VERTEX
  8
0
 10
13.000217779725
 20
14.5929109353646
 42
0.0
  0
VERTEX
  8
0
 10
12.7344591085632
 20
14.3837212654705
 42
0.0
  0
VERTEX
  8
0
 10
12.7049895881138
 20
14.3592629155106
 42
0.0
  0
VERTEX
  8
0
 10
12.5581425919822
 20
14.2203923469836
 42
0.0
  0
VERTEX
  8
0
 10
12.4259229268567
 20
14.0972037059057
 42
0.0
  0
VERTEX
  8
0
 10
12.3846638902466
 20
14.0543918935254
 42
0.0
  0
VERTEX
  8
0
 10
12.2103894115661
 20
13.8718183450402
 42
0.0
  0
VERTEX
  8
0
 10
11.9534988192925
 20
13.6064388666759
 42
0.0
  0
VERTEX
  8
0
 10
11.8164156871293
 20
13.4637907371625
 42
0.0
  0
VERTEX
  8
0
 10
11.7737858800363
 20
13.4209312294657
 42
0.0
  0
VERTEX
  8
0
 10
11.5218491037104
 20
13.1322403142569
 42
0.0
  0
VERTEX
  8
0
 10
11.3007956961311
 20
12.828103980419
 42
0.0
  0
VERTEX
  8
0
 10
11.1901683304724
 20
12.6394850079169
 42
0.0
  0
VERTEX
  8
0
 10
11.1159656532804
 20
12.5128253206671
 42
0.0
  0
VERTEX
  8
0
 10
10.9739306128809
 20
12.1962145868184
 42
0.0
  0
VERTEX
  8
0
 10
10.9106875142873
 20
11.9926989213401
 42
0.0
  0
VERTEX
  8
0
 10
10.8758661479165
 20
11.883929479314
 42
0.0
  0
VERTEX
  8
0
 10
10.8255012408105
 20
11.5871300172437
 42
0.0
  0
VERTEX
  8
0
 10
10.8251559478763
 20
11.5181661021644
 42
0.0
  0
VERTEX
  8
0
 10
10.8241423797517
 20
11.3099027031969
 42
0.0
  0
VERTEX
  8
0
 10
10.8427460869607
 20
11.211302987794
 42
0.0
  0
VERTEX
  8
0
 10
10.8714228226925
 20
11.0605964335239
 42
0.0
  0
VERTEX
  8
0
 10
10.9658064025223
 20
10.8446474780865
 42
0.0
  0
VERTEX
  8
0
 10
10.9773506338841
 20
10.8298761778843
 42
0.0
  0
VERTEX
  8
0
 10
11.1056829889291
 20
10.6688873786212
 42
0.0
  0
VERTEX
  8
0
 10
11.3895607821565
 20
10.3960441894611
 42
0.0
  0
VERTEX
  8
0
 10
11.4994698700559
 20
10.2882949471865
 42
0.0
  0
VERTEX
  8
0
 10
11.5786551990872
 20
10.2315781961049
 42
0.0
  0
VERTEX
  8
0
 10
11.6819771468023
 20
10.1553689707794
 42
0.0
  0
VERTEX
  8
0
 10
11.901462678122
 20
10.0692231490052
 42
0.0
  0
VERTEX
  8
0
 10
12.1509776799932
 20
10.0308864707166
 42
0.0
  0
VERTEX
  8
0
 10
12.2749562547797
 20
10.0352002471215
 42
0.0
  0
VERTEX
  8
0
 10
12.4277695534652
 20
10.042042236474
 42
0.0
  0
VERTEX
  8
0
 10
12.7069790176693
 20
10.1013171718357
 42
0.0
  0
VERTEX
  8
0
 10
12.7247780307364
 20
10.1047321709331
 42
0.0
  0
VERTEX
  8
0
 10
12.881430459914
 20
10.1597427916997
 42
0.0
  0
VERTEX
  8
0
 10
13.0312478143686
 20
10.2132448207084
 42
0.0
  0
VERTEX
  8
0
 10
13.3429882134785
 20
10.368959294918
 42
0.0
  0
VERTEX
  8
0
 10
13.5008011722041
 20
10.4695038093618
 42
0.0
  0
VERTEX
  8
0
 10
13.6505749898187
 20
10.5644313778063
 42
0.0
  0
VERTEX
  8
0
 10
13.9472234137225
 20
10.7967055532168
 42
0.0
  0
VERTEX
  8
0
 10
14.2248716091802
 20
11.060087837988
 42
0.0
  0
VERTEX
  8
0
 10
14.8770064652865
 20
11.7349623928134
 42
0.0
  0
VERTEX
  8
0
 10
15.1289432416124
 20
12.0236533080222
 42
0.0
  0
VERTEX
  8
0
 10
15.3499979566591
 20
12.3292129481133
 42
0.0
  0
VERTEX
  8
0
 10
15.5348271162633
 20
12.6445169925038
 42
0.0
  0
VERTEX
  8
0
 10
15.6782346936388
 20
12.9611246523919
 42
0.0
  0
VERTEX
  8
0
 10
15.7749515820449
 20
13.2719650262117
 42
0.0
  0
VERTEX
  8
0
 10
15.8252425259492
 20
13.5701597601568
 42
0.0
  0
VERTEX
  8
0
 10
15.826179279863
 20
13.7411869682996
 42
0.0
  0
VERTEX
  8
0
 10
15.8266521562851
 20
13.8473888406969
 42
0.0
  0
VERTEX
  8
0
 10
15.7993965360926
 20
13.9966961658849
 42
0.0
  0
VERTEX
  8
0
 10
15.7807433670739
 20
14.0967174210478
 42
0.0
  0
VERTEX
  8
0
 10
15.6863589039975
 20
14.3126917611238
 42
0.0
  0
VERTEX
  8
0
 10
15.5451115471078
 20
14.4884041652726
 42
0.0
  0
VERTEX
  8
0
 10
15.1513452101657
 20
14.8676757122549
 42
0.0
  0
VERTEX
  8
0
 10
14.9688156227413
 20
15.0019733423915
 42
0.0
  0
VERTEX
  8
0
 10
14.8849169785947
 20
15.0349152164803
 42
0.0
  0
VERTEX
  8
0
 10
14.7507008619045
 20
15.0881668594822
 42
0.0
  0
VERTEX
  8
0
 10
14.499842699708
 20
15.1249318808933
 42
0.0
  0
VERTEX
  8
0
 10
14.2230709113949
 20
15.113929306214
 42
0.0
  0
VERTEX
  8
0
 10
13.9273365065062
 20
15.0526053017839
 42
0.0
  0
SEQEND
  0
POLYLINE
  8
0
 66
     1
 10
0.0
 20
0.0
 30
0.0
 70
     1
  0
VERTEX
  8
0
 10
24.4919204737257
 20
11.9716342268762
 42
0.0
  0
VERTEX
  8
0
 10
25.1349564112018
 20
11.3638596592257
 42
0.0
  0
VERTEX
  8
0
 10
25.1677133472608
 20
11.3332810388005
 42
0.0
  0
VERTEX
  8
0
 10
25.454888639544
 20
11.0854596478839
 42
0.0
  0
VERTEX
  8
0
 10
25.7221338742219
 20
10.8947393529794
 42
0.0
  0
VERTEX
  8
0
 10
25.760303886218
 20
10.8670939380326
 42
0.0
  0
VERTEX
  8
0
 10
26.0754630781658
 20
10.6864278591543
 42
0.0
  0
VERTEX
  8
0
 10
26.391977113914
 20
10.5457110534674
 42
0.0
  0
VERTEX
  8
0
 10
26.4504999726376
 20
10.5284316471588
 42
0.0
  0
VERTEX
  8
0
 10
26.7027889943297
 20
10.4505435112608
 42
0.0
  0
VERTEX
  8
0
 10
27.0008660617688
 20
10.4014429956296
 42
0.0
  0
VERTEX
  8
0
 10
27.2174258213164
 20
10.4008451723368
 42
0.0
  0
VERTEX
  8
0
 10
27.2781922646301
 20
10.400163821473
 42
0.0
  0
VERTEX
  8
0
 10
27.5274491072983
 20
10.4459430377516
 42
0.0
  0
VERTEX
  8
0
 10
27.7422727651983
 20
10.5390675255862
 42
0.0
  0
VERTEX
  8
0
 10
27.7877881172582
 20
10.5749619614066
 42
0.0
  0
VERTEX
  8
0
 10
27.9194250625779
 20
10.6776455382186
 42
0.0
  0
VERTEX
  8
0
 10
28.217646922975
 20
10.9815695599433
 42
0.0
  0
VERTEX
  8
0
 10
28.2988878498521
 20
11.0644547176987
 42
0.0
  0
VERTEX
  8
0
 10
28.433180215314
 20
11.2442138465323
 42
0.0
  0
VERTEX
  8
0
 10
28.5195185848475
 20
11.4581655266432
 42
0.0
  0
VERTEX
  8
0
 10
28.5579506537691
 20
11.7049389875487
 42
0.0
  0
VERTEX
  8
0
 10
28.5456696252793
 20
11.9775490026033
 42
0.0
  0
VERTEX
  8
0
 10
28.5125374890013
 20
12.1335902533759
 42
0.0
  0
VERTEX
  8
0
 10
28.4844873993313
 20
12.2677477897901
 42
0.0
  0
VERTEX
  8
0
 10
28.3745956404378
 20
12.5700268825389
 42
0.0
  0
VERTEX
  8
0
 10
28.2205967923019
 20
12.8762864252362
 42
0.0
  0
VERTEX
  8
0
 10
28.0240471419977
 20
13.1783205726761
 42
0.0
  0
VERTEX
  8
0
 10
27.7917860553832
 20
13.4694797319221
 42
0.0
  0
VERTEX
  8
0
 10
27.5298940088991
 20
13.7430116587239
 42
0.0
  0
VERTEX
  8
0
 10
27.4673225641414
 20
13.8028734345654
 42
0.0
  0
VERTEX
  8
0
 10
27.1152357456793
 20
14.1339843972067
 42
0.0
  0
VERTEX
  8
0
 10
26.854254326442
 20
14.3813447616406
 42
0.0
  0
VERTEX
  8
0
 10
26.5656334172276
 20
14.6305391137541
 42
0.0
  0
VERTEX
  8
0
 10
26.2616147847008
 20
14.8474793266381
 42
0.0
  0
VERTEX
  8
0
 10
25.9464547095064
 20
15.028170790155
 42
0.0
  0
VERTEX
  8
0
 10
25.6299424402514
 20
15.1688368265647
 42
0.0
  0
VERTEX
  8
0
 10
25.3191234938629
 20
15.2642074458799
 42
0.0
  0
VERTEX
  8
0
 10
25.0209764552343
 20
15.3131276193013
 42
0.0
  0
VERTEX
  8
0
 10
24.9975232399076
 20
15.3137094210556
 42
0.0
  0
VERTEX
  8
0
 10
24.7437736425794
 20
15.3145127482452
 42
0.0
  0
VERTEX
  8
0
 10
24.4944196775899
 20
15.2686030757874
 42
0.0
  0
VERTEX
  8
0
 10
24.278423026836
 20
15.1755902664405
 42
0.0
  0
VERTEX
  8
0
 10
24.1011949997615
 20
15.0384582949601
 42
0.0
  0
VERTEX
  8
0
 10
23.721706403628
 20
14.6501995413416
 42
0.0
  0
VERTEX
  8
0
 10
23.5886841533413
 20
14.4704591901995
 42
0.0
  0
VERTEX
  8
0
 10
23.5023729349395
 20
14.256457624058
 42
0.0
  0
VERTEX
  8
0
 10
23.4640677892108
 20
14.0096885793856
 42
0.0
  0
VERTEX
  8
0
 10
23.4641631798438
 20
14.0069470384198
 42
0.0
  0
VERTEX
  8
0
 10
23.4703255631434
 20
13.8692830694823
 42
0.0
  0
VERTEX
  8
0
 10
23.4749255114474
 20
13.7370798717984
 42
0.0
  0
VERTEX
  8
0
 10
23.5360324667262
 20
13.4468530502332
 42
0.0
  0
VERTEX
  8
0
 10
23.6458003763875
 20
13.1459420782275
 42
0.0
  0
VERTEX
  8
0
 10
23.8012724168072
 20
12.8397083791946
 42
0.0
  0
VERTEX
  8
0
 10
23.9965265672976
 20
12.5376545708165
 42
0.0
  0
VERTEX
  8
0
 10
24.2287075427892
 20
12.2451456094932
 42
0.0
  0
SEQEND
  0
POLYLINE
  8
0
 66
     1
 10
0.0
 20
0.0
 30
0.0
 70
     1
  0
VERTEX
  8
0
 10
91.6501448497799
 20
20.8976028370395
 42
0.0
  0
VERTEX
  8
0
 10
91.633419824946
 20
20.867469490819
 42
0.0
  0
VERTEX
  8
0
 10
91.621308759479
 20
20.8477579194368
 42
0.0
  0
VERTEX
  8
0
 10
91.5477099118685
 20
20.6677464531039
 42
0.0
  0
VERTEX
  8
0
 10
91.4936978170491
 20
20.4832977305128
 42
0.0
  0
VERTEX
  8
0
 10
91.4862792740384
 20
20.4445066567164
 42
0.0
  0
VERTEX
  8
0
 10
91.460545710729
 20
20.2918729712314
 42
0.0
  0
VERTEX
  8
0
 10
91.4492583468268
 20
20.0986496013439
 42
0.0
  0
VERTEX
  8
0
 10
91.4600295934779
 20
19.9048666624358
 42
0.0
  0
VERTEX
  8
0
 10
91.4908300150489
 20
19.7143637113536
 42
0.0
  0
VERTEX
  8
0
 10
91.5451655408673
 20
19.5285424273007
 42
0.0
  0
VERTEX
  8
0
 10
91.6182578294609
 20
19.3485162421606
 42
0.0
  0
VERTEX
  8
0
 10
91.6880530555116
 20
19.2223830807731
 42
0.0
  0
VERTEX
  8
0
 10
91.6908345732519
 20
19.2173610942373
 42
0.0
  0
VERTEX
  8
0
 10
91.7097939265969
 20
19.1832795070873
 42
0.0
  0
VERTEX
  8
0
 10
91.7113475046364
 20
19.1794944870005
 42
0.0
  0
VERTEX
  8
0
 10
91.7629348042684
 20
19.1067118348446
 42
0.0
  0
VERTEX
  8
0
 10
91.8225426659098
 20
19.0213639380285
 42
0.0
  0
VERTEX
  8
0
 10
91.9508059474605
 20
18.8766952806591
 42
0.0
  0
VERTEX
  8
0
 10
92.0437447604362
 20
18.7937394147077
 42
0.0
  0
VERTEX
  8
0
 10
92.0953844436184
 20
18.7466946139269
 42
0.0
  0
VERTEX
  8
0
 10
92.2523543475746
 20
18.6351592789221
 42
0.0
  0
VERTEX
  8
0
 10
92.3703174425973
 20
18.5685726135664
 42
0.0
  0
VERTEX
  8
0
 10
92.3753777735283
 20
18.5661656033378
 42
0.0
  0
VERTEX
  8
0
 10
92.4227530251495
 20
18.5395185902296
 42
0.0
  0
VERTEX
  8
0
 10
92.5532878884366
 20
18.4862136700152
 42
0.0
  0
VERTEX
  8
0
 10
92.6013859045177
 20
18.4660376613364
 42
0.0
  0
VERTEX
  8
0
 10
92.7873968038884
 20
18.4120799217259
 42
0.0
  0
VERTEX
  8
0
 10
92.9774711913776
 20
18.3775537418153
 42
0.0
  0
VERTEX
  8
0
 10
93.170720273293
 20
18.3675706625873
 42
0.0
  0
VERTEX
  8
0
 10
93.3644387926758
 20
18.3781500837861
 42
0.0
  0
VERTEX
  8
0
 10
93.554838007176
 20
18.4092075738984
 42
0.0
  0
VERTEX
  8
0
 10
93.7406916242201
 20
18.4619327606833
 42
0.0
  0
VERTEX
  8
0
 10
93.8549144232435
 20
18.5096535986566
 42
0.0
  0
VERTEX
  8
0
 10
93.9208128822962
 20
18.5363791433327
 42
0.0
  0
VERTEX
  8
0
 10
94.0896142012761
 20
18.6296744305406
 42
0.0
  0
VERTEX
  8
0
 10
94.2478048379504
 20
18.7418669985649
 42
0.0
  0
VERTEX
  8
0
 10
94.3940964018139
 20
18.869120338357
 42
0.0
  0
VERTEX
  8
0
 10
94.4480926621842
 20
18.9314290146071
 42
0.0
  0
VERTEX
  8
0
 10
94.5227209522727
 20
19.0137457451967
 42
0.0
  0
VERTEX
  8
0
 10
94.6340947196805
 20
19.1705915374808
 42
0.0
  0
VERTEX
  8
0
 10
94.7284519267972
 20
19.3397369588823
 42
0.0
  0
VERTEX
  8
0
 10
94.7844425524441
 20
19.4741332521357
 42
0.0
  0
VERTEX
  8
0
 10
94.8032350652286
 20
19.5197659340586
 42
0.0
  0
VERTEX
  8
0
 10
94.8387993898345
 20
19.6418631814188
 42
0.0
  0
VERTEX
  8
0
 10
94.8574393810558
 20
19.7055010369252
 42
0.0
  0
VERTEX
  8
0
 10
94.8906359598196
 20
19.8956476515689
 42
0.0
  0
VERTEX
  8
0
 10
94.9016849831429
 20
20.0889101245089
 42
0.0
  0
VERTEX
  8
0
 10
94.8925714142153
 20
20.2827270435359
 42
0.0
  0
VERTEX
  8
0
 10
94.8598329725893
 20
20.4744422541541
 42
0.0
  0
VERTEX
  8
0
 10
94.8352549181945
 20
20.5610326946967
 42
0.0
  0
VERTEX
  8
0
 10
94.8074362903898
 20
20.6590276093258
 42
0.0
  0
VERTEX
  8
0
 10
94.8031431963625
 20
20.6666274793462
 42
0.0
  0
VERTEX
  8
0
 10
94.7484653864286
 20
20.8009884943561
 42
0.0
  0
VERTEX
  8
0
 10
94.7329238410876
 20
20.8390043806397
 42
0.0
  0
VERTEX
  8
0
 10
94.6395958253332
 20
21.0080652388523
 42
0.0
  0
VERTEX
  8
0
 10
94.566580608849
 20
21.1109571135401
 42
0.0
  0
VERTEX
  8
0
 10
94.5274538902542
 20
21.1661628452736
 42
0.0
  0
VERTEX
  8
0
 10
94.5020021847278
 20
21.1961320619643
 42
0.0
  0
VERTEX
  8
0
 10
94.400328779953
 20
21.3121744948142
 42
0.0
  0
VERTEX
  8
0
 10
94.3641822202328
 20
21.3430275831005
 42
0.0
  0
VERTEX
  8
0
 10
94.2555605334788
 20
21.4408177732356
 42
0.0
  0
VERTEX
  8
0
 10
94.1342773100093
 20
21.52790617685
 42
0.0
  0
VERTEX
  8
0
 10
94.0985898059588
 20
21.5523767775857
 42
0.0
  0
VERTEX
  8
0
 10
94.0488039709435
 20
21.5801959096093
 42
0.0
  0
VERTEX
  8
0
 10
93.9293745956409
 20
21.6480586444667
 42
0.0
  0
VERTEX
  8
0
 10
93.7507408927089
 20
21.721563242705
 42
0.0
  0
VERTEX
  8
0
 10
93.6559388294799
 20
21.7490957482011
 42
0.0
  0
VERTEX
  8
0
 10
93.5795392282212
 20
21.7721734885955
 42
0.0
  0
VERTEX
  8
0
 10
93.5702184151647
 20
21.7744322573453
 42
0.0
  0
VERTEX
  8
0
 10
93.5652033802412
 20
21.7755374535909
 42
0.0
  0
VERTEX
  8
0
 10
93.373472138592
 20
21.8100059840376
 42
0.0
  0
VERTEX
  8
0
 10
93.180459750128
 20
21.8199972989033
 42
0.0
  0
VERTEX
  8
0
 10
92.9867420543089
 20
21.8093942083594
 42
0.0
  0
VERTEX
  8
0
 10
92.7963428398087
 20
21.7783367182469
 42
0.0
  0
VERTEX
  8
0
 10
92.6726768473762
 20
21.7432027191432
 42
0.0
  0
VERTEX
  8
0
 10
92.6623521039646
 20
21.7402603924634
 42
0.0
  0
VERTEX
  8
0
 10
92.610253352877
 20
21.7255796264793
 42
0.0
  0
VERTEX
  8
0
 10
92.5114274887379
 20
21.6848640718188
 42
0.0
  0
VERTEX
  8
0
 10
92.4429698741633
 20
21.65676979049
 42
0.0
  0
VERTEX
  8
0
 10
92.4303671411249
 20
21.6511888181578
 42
0.0
  0
VERTEX
  8
0
 10
92.2610932588059
 20
21.5578533903295
 42
0.0
  0
VERTEX
  8
0
 10
92.1030956667032
 20
21.4469235332352
 42
0.0
  0
VERTEX
  8
0
 10
91.9585046058796
 20
21.3184733676146
 42
0.0
  0
VERTEX
  8
0
 10
91.8284137751409
 20
21.1751240302767
 42
0.0
  0
VERTEX
  8
0
 10
91.7154300967081
 20
21.0168714358555
 42
0.0
  0
VERTEX
  8
0
 10
91.662122497916
 20
20.9211488423346
 42
0.0
  0
SEQEND
  0
POLYLINE
  8
0
 66
     1
 10
0.0
 20
0.0
 30
0.0
 70
     1
  0
VERTEX
  8
0
 10
119.944894141645
 20
21.7555881873482
 42
0.0
  0
VERTEX
  8
0
 10
119.928169116811
 20
21.7254548411275
 42
0.0
  0
VERTEX
  8
0
 10
119.916058051344
 20
21.7057432697455
 42
0.0
  0
VERTEX
  8
0
 10
119.842459203733
 20
21.5257318034126
 42
0.0
  0
VERTEX
  8
0
 10
119.788447108914
 20
21.3412830808215
 42
0.0
  0
VERTEX
  8
0
 10
119.781028565904
 20
21.302492007025
 42
0.0
  0
VERTEX
  8
0
 10
119.755295002594
 20
21.14985832154
 42
0.0
  0
VERTEX
  8
0
 10
119.744007638692
 20
20.9566349516526
 42
0.0
  0
VERTEX
  8
0
 10
119.754778885342
 20
20.7628520127444
 42
0.0
  0
VERTEX
  8
0
 10
119.785579306914
 20
20.5723490616623
 42
0.0
  0
VERTEX
  8
0
 10
119.839914832732
 20
20.3865277776094
 42
0.0
  0
VERTEX
  8
0
 10
119.913007121326
 20
20.2065015924693
 42
0.0
  0
VERTEX
  8
0
 10
119.982802347377
 20
20.0803684310818
 42
0.0
  0
VERTEX
  8
0
 10
119.985583865117
 20
20.0753464445459
 42
0.0
  0
VERTEX
  8
0
 10
120.004543218462
 20
20.0412648573959
 42
0.0
  0
VERTEX
  8
0
 10
120.006096796502
 20
20.0374798373092
 42
0.0
  0
VERTEX
  8
0
 10
120.057684096133
 20
19.9646971851533
 42
0.0
  0
VERTEX
  8
0
 10
120.117291957775
 20
19.8793492883371
 42
0.0
  0
VERTEX
  8
0
 10
120.245555239325
 20
19.7346806309678
 42
0.0
  0
VERTEX
  8
0
 10
120.338494052301
 20
19.6517247650164
 42
0.0
  0
VERTEX
  8
0
 10
120.390133735483
 20
19.6046799642356
 42
0.0
  0
VERTEX
  8
0
 10
120.547103639439
 20
19.4931446292307
 42
0.0
  0
VERTEX
  8
0
 10
120.665066734462
 20
19.426557963875
 42
0.0
  0
VERTEX
  8
0
 10
120.670127065394
 20
19.4241509536465
 42
0.0
  0
VERTEX
  8
0
 10
120.717502317015
 20
19.3975039405383
 42
0.0
  0
VERTEX
  8
0
 10
120.848037180302
 20
19.3441990203237
 42
0.0
  0
VERTEX
  8
0
 10
120.896135196383
 20
19.324023011645
 42
0.0
  0
VERTEX
  8
0
 10
121.082146095753
 20
19.2700652720345
 42
0.0
  0
VERTEX
  8
0
 10
121.272220483243
 20
19.2355390921239
 42
0.0
  0
VERTEX
  8
0
 10
121.465469565158
 20
19.225556012896
 42
0.0
  0
VERTEX
  8
0
 10
121.65918808454
 20
19.2361354340946
 42
0.0
  0
VERTEX
  8
0
 10
121.849587299041
 20
19.2671929242071
 42
0.0
  0
VERTEX
  8
0
 10
122.035440916085
 20
19.319918110992
 42
0.0
  0
VERTEX
  8
0
 10
122.149663715109
 20
19.3676389489652
 42
0.0
  0
VERTEX
  8
0
 10
122.215562174161
 20
19.3943644936414
 42
0.0
  0
VERTEX
  8
0
 10
122.384363493142
 20
19.4876597808492
 42
0.0
  0
VERTEX
  8
0
 10
122.542554129816
 20
19.5998523488736
 42
0.0
  0
VERTEX
  8
0
 10
122.688845693679
 20
19.7271056886657
 42
0.0
  0
VERTEX
  8
0
 10
122.742841954049
 20
19.7894143649157
 42
0.0
  0
VERTEX
  8
0
 10
122.817470244138
 20
19.8717310955054
 42
0.0
  0
VERTEX
  8
0
 10
122.928844011546
 20
20.0285768877895
 42
0.0
  0
VERTEX
  8
0
 10
123.023201218663
 20
20.197722309191
 42
0.0
  0
VERTEX
  8
0
 10
123.07919184431
 20
20.3321186024444
 42
0.0
  0
VERTEX
  8
0
 10
123.097984357093
 20
20.3777512843672
 42
0.0
  0
VERTEX
  8
0
 10
123.133548681699
 20
20.4998485317275
 42
0.0
  0
VERTEX
  8
0
 10
123.152188672921
 20
20.5634863872338
 42
0.0
  0
VERTEX
  8
0
 10
123.185385251685
 20
20.7536330018776
 42
0.0
  0
VERTEX
  8
0
 10
123.196434275008
 20
20.9468954748176
 42
0.0
  0
VERTEX
  8
0
 10
123.187320706081
 20
21.1407123938445
 42
0.0
  0
VERTEX
  8
0
 10
123.154582264454
 20
21.3324276044627
 42
0.0
  0
VERTEX
  8
0
 10
123.130004210059
 20
21.4190180450053
 42
0.0
  0
VERTEX
  8
0
 10
123.102185582255
 20
21.5170129596345
 42
0.0
  0
VERTEX
  8
0
 10
123.097892488227
 20
21.5246128296549
 42
0.0
  0
VERTEX
  8
0
 10
123.043214678294
 20
21.6589738446648
 42
0.0
  0
VERTEX
  8
0
 10
123.027673132952
 20
21.6969897309483
 42
0.0
  0
VERTEX
  8
0
 10
122.934345117198
 20
21.866050589161
 42
0.0
  0
VERTEX
  8
0
 10
122.861329900714
 20
21.9689424638487
 42
0.0
  0
VERTEX
  8
0
 10
122.822203182119
 20
22.0241481955822
 42
0.0
  0
VERTEX
  8
0
 10
122.796751476592
 20
22.0541174122729
 42
0.0
  0
VERTEX
  8
0
 10
122.695078071818
 20
22.1701598451228
 42
0.0
  0
VERTEX
  8
0
 10
122.658931512098
 20
22.2010129334091
 42
0.0
  0
VERTEX
  8
0
 10
122.550309825343
 20
22.2988031235443
 42
0.0
  0
VERTEX
  8
0
 10
122.429026601874
 20
22.3858915271587
 42
0.0
  0
VERTEX
  8
0
 10
122.393339097823
 20
22.4103621278943
 42
0.0
  0
VERTEX
  8
0
 10
122.343553262809
 20
22.438181259918
 42
0.0
  0
VERTEX
  8
0
 10
122.224123887506
 20
22.5060439947753
 42
0.0
  0
VERTEX
  8
0
 10
122.045490184574
 20
22.5795485930137
 42
0.0
  0
VERTEX
  8
0
 10
121.950688121345
 20
22.6070810985098
 42
0.0
  0
VERTEX
  8
0
 10
121.874288520087
 20
22.6301588389042
 42
0.0
  0
VERTEX
  8
0
 10
121.86496770703
 20
22.6324176076538
 42
0.0
  0
VERTEX
  8
0
 10
121.859952672106
 20
22.6335228038996
 42
0.0
  0
VERTEX
  8
0
 10
121.668221430457
 20
22.6679913343463
 42
0.0
  0
VERTEX
  8
0
 10
121.475209041993
 20
22.677982649212
 42
0.0
  0
VERTEX
  8
0
 10
121.281491346174
 20
22.667379558668
 42
0.0
  0
VERTEX
  8
0
 10
121.091092131674
 20
22.6363220685556
 42
0.0
  0
VERTEX
  8
0
 10
120.967426139242
 20
22.6011880694518
 42
0.0
  0
VERTEX
  8
0
 10
120.957101395829
 20
22.598245742772
 42
0.0
  0
VERTEX
  8
0
 10
120.905002644742
 20
22.5835649767879
 42
0.0
  0
VERTEX
  8
0
 10
120.806176780603
 20
22.5428494221273
 42
0.0
  0
VERTEX
  8
0
 10
120.737719166028
 20
22.5147551407987
 42
0.0
  0
VERTEX
  8
0
 10
120.725116432989
 20
22.5091741684664
 42
0.0
  0
VERTEX
  8
0
 10
120.55584255067
 20
22.4158387406381
 42
0.0
  0
VERTEX
  8
0
 10
120.397844958568
 20
22.3049088835439
 42
0.0
  0
VERTEX
  8
0
 10
120.253253897744
 20
22.1764587179233
 42
0.0
  0
VERTEX
  8
0
 10
120.123163067005
 20
22.0331093805853
 42
0.0
  0
VERTEX
  8
0
 10
120.010179388573
 20
21.8748567861642
 42
0.0
  0
VERTEX
  8
0
 10
119.956871789781
 20
21.7791341926433
 42
0.0
  0
SEQEND
  0
ENDSEC
  0
EOF
