<?xml version="1.0" standalone="no"?>
<!DOCTYPE svg PUBLIC "-//W3C//DTD SVG 1.1//EN"
  "http://www.w3.org/Graphics/SVG/1.1/DTD/svg11.dtd">
<svg width="113.94199752807617mm" height="121.81599807739255mm" viewBox="31.519001007080078 -39.855998992919915 113.94199752807617 121.81599807739255" xmlns="http://www.w3.org/2000/svg" version="1.1">
	<title>svgOutput</title>
	<desc>yellowjacket</desc>
<path d="M 46.35588836669922 80.95999908447264 L 43.50899887084961 80.95999908447264 L 40.90470886230469 80.95999908447264 L 32.768001556396484 80.95999908447264 L 32.51900100708008 80.95999908447264 L 32.51900100708008 75.98190307617186 L 32.51900100708008 75.92295074462889 L 32.51900100708008 66.26209259033202 L 38.44015121459961 61.95999908447264 L 43.50899887084961 58.27715682983397 L 46.908782958984375 55.806999206542955 L 47.342491149902344 55.491882324218736 L 46.733001708984375 55.07300186157225 L 45.80500030517578 54.31700134277342 L 45.494998931884766 54.01176452636717 L 45.02399826049805 53.548000335693345 L 44.39899826049805 52.771999359130845 L 43.935001373291016 51.997001647949205 L 43.63800048828125 51.229999542236314 L 43.50899887084961 50.478000640869126 L 43.54999923706055 49.749999999999986 L 43.72965621948242 49.15200042724608 L 43.7599983215332 49.050998687744126 L 44.13800048828125 48.38899993896483 L 44.680999755859375 47.77099990844726 L 45.38100051879883 47.20100021362304 L 45.494998931884766 47.13203811645507 L 46.23400115966797 46.68500137329101 L 47.23099899291992 46.22900009155273 L 48.36199951171875 45.8370018005371 L 49.152000427246094 45.63225555419921 L 49.49599838256836 45.54310226440429 L 49.61600112915039 45.51200103759765 L 50.98099899291992 45.25799942016601 L 52.44499969482422 45.07799911499023 L 53.992000579833984 44.972000122070305 L 55.608001708984375 44.94200134277343 L 57.27799987792969 44.98799896240234 L 58.455230712890625 45.07213592529296 L 58.98500061035156 45.110000610351555 L 59.633628845214844 45.18390274047851 L 59.656028747558594 45.15795898437499 L 59.74412155151367 45.05592727661132 L 59.84248733520508 44.94200134277343 L 61.43199920654297 43.101001739501946 L 65.53600311279297 38.29169845581054 L 67.56500244140625 35.91400146484374 L 73.71700286865234 28.622999191284173 L 74.5250015258789 27.65477561950683 L 79.8290023803711 21.29899978637695 L 85.84200286865234 14.010999679565426 L 91.6969985961914 6.829999923706053 L 97.19805145263672 1.1102230246251565e-16 L 97.33899688720703 -0.17499999701976762 L 98.30400085449219 -1.3892407417297359 L 102.71299743652344 -6.936999797821043 L 107.76699829101562 -13.39000034332275 L 110.65411376953125 -17.136411666870114 L 111.09347534179688 -17.660024642944332 L 109.92500305175781 -21.572000503540036 L 113.43599700927734 -25.596509933471673 L 114.90166473388672 -27.27654075622558 L 115.63458251953125 -28.11664962768554 L 115.86121368408203 -28.376430511474602 L 120.33100128173828 -38.855998992919915 L 124.66610717773438 -38.46910095214843 L 128.28338623046875 -38.14627075195312 L 128.34771728515625 -38.14052963256835 L 132.0399932861328 -37.8110008239746 L 133.05763244628906 -33.36700057983398 L 133.19479370117188 -32.76800155639648 L 133.49105834960938 -31.474224090576165 L 135.01199340820312 -31.23800086975097 L 135.43016052246094 -29.83770561218261 L 140.82298278808594 -29.35640907287597 L 141.83599853515625 -29.266000747680657 L 142.36016845703125 -26.977809906005852 L 142.408203125 -26.76817321777343 L 144.10552978515625 -19.358722686767575 L 144.46099853515625 -17.806999206542965 L 139.84735107421875 -15.0457649230957 L 139.3824005126953 -14.767495155334469 L 135.0201416015625 -12.15671062469482 L 132.6317596435547 -9.41874027252197 L 131.87393188476562 -8.550000190734862 L 128.83999633789062 -5.07200002670288 L 124.73712921142578 -5.709235191345214 L 124.53956604003906 -5.739920139312743 L 124.51546478271484 -5.743663787841796 L 124.47653198242188 -5.704979896545409 L 121.42900085449219 -2.3659999370574947 L 119.30429077148438 1.1102230246251565e-16 L 115.9520034790039 3.7330000400543204 L 110.22599792480469 10.199000358581541 L 104.30699920654297 16.97200012207031 L 98.25199890136719 23.98500061035156 L 92.11900329589844 31.17200088500976 L 92.10033416748047 31.194122314453118 L 90.77232360839844 32.76800155639648 L 85.96700286865234 38.463001251220696 L 79.8550033569336 45.78699874877929 L 74.5250015258789 52.24717712402342 L 73.84200286865234 53.07500076293944 L 71.61447143554688 55.806999206542955 L 68.69731903076172 59.38481521606444 L 68.3958969116211 59.675895690917955 L 67.7188720703125 60.32970046997069 L 66.6249008178711 61.38615036010741 L 65.53600311279297 62.437709808349595 L 62.32767105102539 65.53600311279295 L 46.35588836669922 80.95999908447264 M 40.486000061035156 71.27700042724608 L 40.472999572753906 71.50099945068358 L 40.486000061035156 71.72499847412108 L 40.52399826049805 71.94699859619139 L 40.58599853515625 72.16200256347655 L 40.672000885009766 72.37000274658202 L 40.779998779296875 72.56600189208983 L 40.90999984741211 72.74900054931639 L 40.959999084472656 72.80500030517577 L 41.060001373291016 72.91699981689452 L 41.22700119018555 73.06700134277342 L 41.4109992980957 73.1959991455078 L 41.606998443603516 73.30500030517577 L 41.814998626708984 73.39099884033202 L 42.029998779296875 73.45300292968749 L 42.25199890136719 73.49099731445311 L 42.47600173950195 73.50299835205077 L 42.70000076293945 73.49099731445311 L 42.922000885009766 73.45300292968749 L 43.007999420166016 73.42819976806639 L 43.137001037597656 73.39099884033202 L 43.345001220703125 73.30500030517577 L 43.50899887084961 73.2137985229492 L 43.54100036621094 73.1959991455078 L 43.724998474121094 73.06700134277342 L 43.891998291015625 72.91699981689452 L 44.04199981689453 72.74900054931639 L 44.172000885009766 72.56600189208983 L 44.279998779296875 72.37000274658202 L 44.36600112915039 72.16200256347655 L 44.428001403808594 71.94699859619139 L 44.465999603271484 71.72499847412108 L 44.46841049194336 71.68000030517577 L 44.47800064086914 71.50099945068358 L 44.465999603271484 71.27700042724608 L 44.428001403808594 71.05500030517577 L 44.36600112915039 70.83999633789061 L 44.279998779296875 70.63200378417967 L 44.172000885009766 70.43599700927733 L 44.04199981689453 70.25199890136717 L 43.891998291015625 70.08499908447264 L 43.724998474121094 69.93499755859374 L 43.54100036621094 69.80500030517577 L 43.50899887084961 69.78736877441405 L 43.345001220703125 69.69699859619139 L 43.18778991699219 69.63200378417967 L 43.137001037597656 69.61100006103514 L 42.922000885009766 69.5490036010742 L 42.70000076293945 69.51100158691405 L 42.47600173950195 69.4980010986328 L 42.25199890136719 69.51100158691405 L 42.029998779296875 69.5490036010742 L 41.814998626708984 69.61100006103514 L 41.76420974731445 69.63200378417967 L 41.606998443603516 69.69699859619139 L 41.4109992980957 69.80500030517577 L 41.22700119018555 69.93499755859374 L 41.060001373291016 70.08499908447264 L 40.959999084472656 70.19633483886717 L 40.90999984741211 70.25199890136717 L 40.779998779296875 70.43599700927733 L 40.672000885009766 70.63200378417967 L 40.58599853515625 70.83999633789061 L 40.52399826049805 71.05500030517577 L 40.486000061035156 71.27700042724608 M 44.53099822998047 66.13700103759764 L 44.51300048828125 66.47299957275389 L 44.53099822998047 66.80899810791014 L 44.5880012512207 67.14099884033202 L 44.680999755859375 67.46499633789061 L 44.810001373291016 67.77600097656249 L 44.972999572753906 68.0709991455078 L 45.055999755859375 68.18762207031249 L 45.167999267578125 68.34500122070311 L 45.391998291015625 68.5960006713867 L 45.643001556396484 68.8209991455078 L 45.917999267578125 69.01599884033202 L 46.21200180053711 69.17800140380858 L 46.52299880981445 69.30699920654295 L 46.84700012207031 69.40000152587889 L 47.104000091552734 69.44412231445311 L 47.17900085449219 69.45700073242186 L 47.51499938964844 69.47599792480467 L 47.85100173950195 69.45700073242186 L 48.18299865722656 69.40000152587889 L 48.50699996948242 69.30699920654295 L 48.81800079345703 69.17800140380858 L 49.11199951171875 69.01599884033202 L 49.152000427246094 68.98763275146483 L 49.387001037597656 68.8209991455078 L 49.63800048828125 68.5960006713867 L 49.86199951171875 68.34500122070311 L 50.05699920654297 68.0709991455078 L 50.220001220703125 67.77600097656249 L 50.3489990234375 67.46499633789061 L 50.44200134277344 67.14099884033202 L 50.499000549316406 66.80899810791014 L 50.518001556396484 66.47299957275389 L 50.499000549316406 66.13700103759764 L 50.44200134277344 65.80500030517577 L 50.36454772949219 65.53600311279295 L 50.3489990234375 65.48200225830077 L 50.220001220703125 65.17099761962889 L 50.05699920654297 64.87599945068358 L 49.86199951171875 64.60099792480467 L 49.63800048828125 64.34999847412108 L 49.387001037597656 64.12599945068358 L 49.152000427246094 63.95936203002928 L 49.11199951171875 63.93099975585936 L 48.81800079345703 63.76800155639647 L 48.50699996948242 63.63899993896483 L 48.18299865722656 63.54600143432616 L 47.85100173950195 63.49000167846678 L 47.51499938964844 63.471000671386705 L 47.17900085449219 63.49000167846678 L 47.104000091552734 63.502651214599595 L 46.84700012207031 63.54600143432616 L 46.52299880981445 63.63899993896483 L 46.21200180053711 63.76800155639647 L 45.917999267578125 63.93099975585936 L 45.643001556396484 64.12599945068358 L 45.391998291015625 64.34999847412108 L 45.167999267578125 64.60099792480467 L 45.055999755859375 64.75894927978514 L 44.972999572753906 64.87599945068358 L 44.810001373291016 65.17099761962889 L 44.680999755859375 65.48200225830077 L 44.66545104980469 65.53600311279295 L 44.5880012512207 65.80500030517577 L 44.53099822998047 66.13700103759764 M 126.67028045654297 -29.020977020263665 L 126.66600036621094 -29.202999114990227 L 126.60099792480469 -30.138999938964837 L 126.55599975585938 -30.520000457763665 L 126.51372528076172 -30.719999313354485 L 126.47799682617188 -30.888999938964837 L 126.44738006591797 -30.98585891723632 L 126.36799621582031 -31.236999511718743 L 126.22799682617188 -31.555000305175774 L 126.1214599609375 -31.736446380615227 L 126.06300354003906 -31.836000442504876 L 125.875 -32.07300186157226 L 125.6709976196289 -32.259998321533196 L 125.52116394042969 -32.35114669799804 L 125.4540023803711 -32.39199829101562 L 125.2300033569336 -32.46599960327148 L 125.00499725341797 -32.47999954223632 L 124.9280014038086 -32.47463989257812 L 124.45899963378906 -32.44200134277343 L 124.27178192138672 -32.40388107299804 L 124.23799896240234 -32.39699935913085 L 124.0270004272461 -32.291999816894524 L 123.83000183105469 -32.13100051879882 L 123.65399932861328 -31.917999267578118 L 123.5101318359375 -31.672573089599602 L 123.5009994506836 -31.656999588012688 L 123.38887786865234 -31.387018203735344 L 123.37773132324219 -31.36017227172851 L 123.3759994506836 -31.356000900268548 L 123.28199768066406 -31.02099990844726 L 123.23099517822266 -30.719999313354485 L 123.22100067138672 -30.660999298095696 L 123.19499969482422 -30.284999847412102 L 123.2040023803711 -29.902000427246087 L 123.2699966430664 -28.965999603271477 L 123.303955078125 -28.67200088500976 L 123.31400299072266 -28.58499908447265 L 123.39199829101562 -28.215999603271477 L 123.47567749023438 -27.954406738281243 L 123.50299835205078 -27.868999481201165 L 123.60324096679688 -27.638957977294915 L 123.64199829101562 -27.54999923706054 L 123.6850814819336 -27.477073669433587 L 123.80799865722656 -27.268999099731438 L 123.96070098876953 -27.075469970703118 L 123.99500274658203 -27.031999588012688 L 124.04374694824219 -26.987771987915032 L 124.19999694824219 -26.84600067138671 L 124.41699981689453 -26.712999343872063 L 124.64099884033203 -26.638999938964837 L 124.6855697631836 -26.636226654052727 L 124.86599731445312 -26.624999999999993 L 124.9280014038086 -26.629314422607415 L 124.96363830566406 -26.631795883178704 L 125.41200256347656 -26.663000106811516 L 125.63300323486328 -26.708999633789055 L 125.70958709716797 -26.74674987792968 L 125.84400177001953 -26.81299972534179 L 126.04000091552734 -26.974000930786126 L 126.21700286865234 -27.18799972534179 L 126.37000274658203 -27.447999954223626 L 126.49137115478516 -27.74359512329101 L 126.49400329589844 -27.749999999999993 L 126.50643920898438 -27.794210433959954 L 126.58799743652344 -28.083999633789055 L 126.64900207519531 -28.444000244140618 L 126.66476440429688 -28.67200088500976 L 126.67500305175781 -28.81999969482421 L 126.67028045654297 -29.020977020263665 M 124.96800231933594 -24.621000289916985 L 124.75646209716797 -24.57600021362304 L 124.41799926757812 -24.503999710083 L 123.88999938964844 -24.312000274658196 L 123.39299774169922 -24.048000335693352 L 122.93800354003906 -23.716999053955075 L 122.87999725341797 -23.661010742187496 L 122.53399658203125 -23.326999664306637 L 122.18800354003906 -22.882999420166012 L 121.90699768066406 -22.396999359130856 L 121.69599914550781 -21.874999999999996 L 121.66802978515625 -21.762905120849606 L 121.63932800292969 -21.64789772033691 L 121.55999755859375 -21.32999992370605 L 121.5009994506836 -20.77000045776367 L 121.52100372314453 -20.20899963378906 L 121.552978515625 -20.026351928710934 L 121.61799621582031 -19.655000686645504 L 121.79199981689453 -19.120000839233395 L 121.89743041992188 -18.904443740844723 L 122.03900146484375 -18.61499977111816 L 122.09681701660156 -18.529195785522457 L 122.30785369873047 -18.21599960327148 L 122.35299682617188 -18.149000167846676 L 122.72899627685547 -17.73100090026855 L 122.87999725341797 -17.604173660278317 L 123.16000366210938 -17.36899948120117 L 123.63700103759766 -17.07099914550781 L 124.1500015258789 -16.8430004119873 L 124.69100189208984 -16.687999725341793 L 125.24800109863281 -16.608999252319332 L 125.80999755859375 -16.608999252319332 L 126.36699676513672 -16.687999725341793 L 126.90699768066406 -16.8430004119873 L 126.97599792480469 -16.873607635498043 L 127.4209976196289 -17.07099914550781 L 127.89800262451172 -17.36899948120117 L 128.3280029296875 -17.73100090026855 L 128.7050018310547 -18.149000167846676 L 128.75015258789062 -18.21599960327148 L 128.94786071777344 -18.50942230224609 L 129.0189971923828 -18.61499977111816 L 129.26600646972656 -19.120000839233395 L 129.43899536132812 -19.655000686645504 L 129.53700256347656 -20.20899963378906 L 129.54666137695312 -20.479999542236325 L 129.5570068359375 -20.77000045776367 L 129.4980010986328 -21.32999992370605 L 129.36199951171875 -21.874999999999996 L 129.28292846679688 -22.070629119873043 L 129.1611328125 -22.37195014953613 L 129.1510009765625 -22.396999359130856 L 128.8699951171875 -22.882999420166012 L 128.5240020751953 -23.326999664306637 L 128.11900329589844 -23.716999053955075 L 127.66500091552734 -24.048000335693352 L 127.16799926757812 -24.312000274658196 L 126.97599792480469 -24.381818771362298 L 126.63999938964844 -24.503999710083 L 126.3015365600586 -24.57600021362304 L 126.08999633789062 -24.621000289916985 L 125.52899932861328 -24.659999847412102 L 124.96800231933594 -24.621000289916985 M 118.49969482421875 -18.63215827941894 L 118.61399841308594 -18.68300056457519 L 118.78399658203125 -18.784755706787106 L 118.89299774169922 -18.850000381469723 L 119.1166763305664 -19.0281810760498 L 119.12899780273438 -19.03800010681152 L 119.31600189208984 -19.243000030517575 L 119.4489974975586 -19.45899963378906 L 119.52400207519531 -19.681999206542965 L 119.53154754638672 -19.7872142791748 L 119.54000091552734 -19.905000686645504 L 119.51477813720703 -20.320020675659176 L 119.50700378417969 -20.44799995422363 L 119.46399688720703 -20.666000366210934 L 119.3929672241211 -20.811550140380856 L 119.36199951171875 -20.874999999999996 L 119.2040023803711 -21.06900024414062 L 118.99500274658203 -21.24200057983398 L 118.78399658203125 -21.364330291748043 L 118.73799896240234 -21.39100074768066 L 118.53108215332031 -21.47599601745605 L 118.46617889404297 -21.502656936645504 L 118.44100189208984 -21.513000488281246 L 118.11000061035156 -21.603000640869137 L 117.75399780273438 -21.6609992980957 L 117.38200378417969 -21.68300056457519 L 117.00299835205078 -21.670999526977536 L 116.73600006103516 -21.649974822998043 L 116.07599639892578 -21.597999572753903 L 115.6989974975586 -21.55100059509277 L 115.62059020996094 -21.53364753723144 L 115.33300018310547 -21.46999931335449 L 114.98799896240234 -21.357000350952145 L 114.68800354003906 -21.223138809204098 L 114.6719970703125 -21.21599960327148 L 114.44088745117188 -21.078159332275387 L 114.423828125 -21.067983627319332 L 114.39199829101562 -21.04899978637695 L 114.15599822998047 -20.861000061035153 L 113.96900177001953 -20.656000137329098 L 113.83699798583984 -20.440000534057614 L 113.82342529296875 -20.40016174316406 L 113.76100158691406 -20.216999053955075 L 113.74500274658203 -19.99399948120117 L 113.77336883544922 -19.52807807922363 L 113.77799987792969 -19.451999664306637 L 113.82099914550781 -19.23299980163574 L 113.9229965209961 -19.024000167846676 L 114.08100128173828 -18.82999992370605 L 114.29100036621094 -18.65699958801269 L 114.5469970703125 -18.507999420166012 L 114.68800354003906 -18.450275421142575 L 114.84500122070312 -18.385999679565426 L 115.17500305175781 -18.295999526977536 L 115.53099822998047 -18.238000869750973 L 115.90299987792969 -18.21599960327148 L 116.28199768066406 -18.228000640869137 L 116.73600006103516 -18.263751983642575 L 117.20899963378906 -18.30100059509277 L 117.58599853515625 -18.347999572753903 L 117.9520034790039 -18.429000854492184 L 118.29144287109375 -18.540180206298825 L 118.2969970703125 -18.541999816894528 L 118.49969482421875 -18.63215827941894 M 125.66006469726562 -14.616951942443844 L 125.62799835205078 -14.61499977111816 L 125.595947265625 -14.608560562133786 L 125.40899658203125 -14.571000099182125 L 125.19999694824219 -14.470000267028805 L 125.00700378417969 -14.3120002746582 L 124.9280014038086 -14.216654777526852 L 124.83300018310547 -14.102000236511227 L 124.68399810791016 -13.845000267028805 L 124.59590911865234 -13.630540847778317 L 124.58385467529297 -13.601204872131344 L 124.56306457519531 -13.550585746765133 L 124.56199645996094 -13.548000335693356 L 124.47200012207031 -13.218000411987301 L 124.41500091552734 -12.862000465393063 L 124.39199829101562 -12.48999977111816 L 124.39839935302734 -12.28800010681152 L 124.40399932861328 -12.111000061035153 L 124.47699737548828 -11.184000015258787 L 124.52400207519531 -10.805999755859373 L 124.6050033569336 -10.44099998474121 L 124.67064666748047 -10.239999771118162 L 124.71800231933594 -10.095000267028807 L 124.75927734375 -10.0024938583374 L 124.85900115966797 -9.779000282287596 L 125.0260009765625 -9.498999595642088 L 125.03912353515625 -9.482521057128904 L 125.08721923828125 -9.422148704528807 L 125.21399688720703 -9.262999534606932 L 125.41899871826172 -9.076999664306639 L 125.55940246582031 -8.990548133850096 L 125.60234832763672 -8.964103698730467 L 125.63500213623047 -8.944000244140623 L 125.85800170898438 -8.869000434875487 L 126.08100128173828 -8.852999687194822 L 126.58255767822266 -8.883481979370115 L 126.6240005493164 -8.885999679565428 L 126.81901550292969 -8.924466133117674 L 126.84200286865234 -8.92899990081787 L 126.97599792480469 -8.994397163391112 L 127.0510025024414 -9.0310001373291 L 127.24500274658203 -9.187999725341795 L 127.41799926757812 -9.397999763488768 L 127.56800079345703 -9.65499973297119 L 127.68900299072266 -9.951999664306639 L 127.71149444580078 -10.034717559814451 L 127.77899932861328 -10.282999992370604 L 127.83699798583984 -10.637999534606932 L 127.85900115966797 -11.010000228881834 L 127.84700012207031 -11.390000343322752 L 127.77628326416016 -12.28800010681152 L 127.77400207519531 -12.317000389099118 L 127.72699737548828 -12.694000244140621 L 127.71204376220703 -12.761580467224118 L 127.66515350341797 -12.973455429077145 L 127.64600372314453 -13.060000419616696 L 127.53399658203125 -13.404999732971188 L 127.50418853759766 -13.471335411071774 L 127.39199829101562 -13.720999717712399 L 127.23936462402344 -13.976912498474118 L 127.2249984741211 -14.001000404357907 L 127.20541381835938 -14.02558612823486 L 127.03700256347656 -14.237000465393063 L 126.97599792480469 -14.292916297912594 L 126.83300018310547 -14.42399978637695 L 126.61599731445312 -14.555999755859371 L 126.58721160888672 -14.565811157226559 L 126.39299774169922 -14.631999969482418 L 126.16999816894531 -14.647999763488766 L 125.66006469726562 -14.616951942443844 M 132.64599609375 -22.400999069213864 L 132.44100952148438 -22.28063583374023 L 132.36500549316406 -22.236000061035153 L 132.1280059814453 -22.048000335693356 L 131.95492553710938 -21.859197616577145 L 131.9409942626953 -21.843999862670895 L 131.9218292236328 -21.812492370605465 L 131.8090057373047 -21.627000808715817 L 131.73500061035156 -21.402999877929684 L 131.72000122070312 -21.177999496459957 L 131.75799560546875 -20.63199996948242 L 131.77313232421875 -20.559299468994137 L 131.78964233398438 -20.479999542236325 L 131.8040008544922 -20.4109992980957 L 131.90899658203125 -20.20000076293945 L 132.07000732421875 -20.00300025939941 L 132.1149444580078 -19.965858459472653 L 132.2830047607422 -19.826999664306637 L 132.54400634765625 -19.67399978637695 L 132.84500122070312 -19.54899978637695 L 132.92689514160156 -19.52601814270019 L 133.17999267578125 -19.45499992370605 L 133.5399932861328 -19.39500045776367 L 133.91600036621094 -19.368000030517575 L 134.2989959716797 -19.37800025939941 L 135.16799926757812 -19.438346862792965 L 135.23500061035156 -19.443000793457028 L 135.61500549316406 -19.486999511718746 L 135.66744995117188 -19.498229980468746 L 135.98399353027344 -19.565999984741207 L 136.19761657714844 -19.633523941040036 L 136.33200073242188 -19.67600059509277 L 136.4886016845703 -19.74494361877441 L 136.49801635742188 -19.749092102050778 L 136.5301971435547 -19.76325988769531 L 136.64999389648438 -19.815999984741207 L 136.9320068359375 -19.98100090026855 L 137.16799926757812 -20.169000625610348 L 137.35499572753906 -20.372999191284176 L 137.4200897216797 -20.479999542236325 L 137.48699951171875 -20.590000152587887 L 137.56199645996094 -20.813999176025387 L 137.5740203857422 -21.007196426391598 L 137.5760040283203 -21.038999557495114 L 137.56666564941406 -21.173217773437496 L 137.56076049804688 -21.25805282592773 L 137.53799438476562 -21.584999084472653 L 137.49200439453125 -21.80599975585937 L 137.38800048828125 -22.017000198364254 L 137.26449584960938 -22.167348861694332 L 137.2270050048828 -22.212999343872067 L 137.01300048828125 -22.389999389648434 L 136.7519989013672 -22.54299926757812 L 136.4510040283203 -22.66799926757812 L 136.1800994873047 -22.744012832641598 L 136.17172241210938 -22.746362686157223 L 136.11599731445312 -22.76199913024902 L 135.7570037841797 -22.822000503540036 L 135.38099670410156 -22.847999572753903 L 135.16799926757812 -22.843008041381832 L 134.9969940185547 -22.839000701904293 L 134.11122131347656 -22.777486801147457 L 134.06100463867188 -22.774000167846676 L 134.0501708984375 -22.772745132446286 L 133.68099975585938 -22.729999542236325 L 133.31199645996094 -22.650999069213864 L 132.96400451660156 -22.541000366210934 L 132.6461181640625 -22.40105056762695 L 132.64599609375 -22.400999069213864 M 65.85600280761719 53.19200134277342 L 65.86900329589844 52.96799850463866 L 65.85600280761719 52.74399948120116 L 65.81800079345703 52.521999359130845 L 65.75599670410156 52.306999206542955 L 65.66999816894531 52.098999023437486 L 65.56199645996094 51.90299987792967 L 65.55027770996094 51.886405944824205 L 65.53600311279297 51.86619949340819 L 65.43199920654297 51.71900177001952 L 65.28199768066406 51.55199813842772 L 65.11499786376953 51.40200042724608 L 64.93199920654297 51.271999359130845 L 64.73500061035156 51.164001464843736 L 64.52799987792969 51.07799911499022 L 64.31199645996094 51.01599884033202 L 64.08999633789062 50.978000640869126 L 63.86600112915039 50.965000152587876 L 63.641998291015625 50.978000640869126 L 63.487998962402344 51.00447845458983 L 63.42100143432617 51.01599884033202 L 63.20500183105469 51.07799911499022 L 62.99700164794922 51.164001464843736 L 62.93166732788086 51.20000076293944 L 62.80099868774414 51.271999359130845 L 62.61800003051758 51.40200042724608 L 62.45000076293945 51.55199813842772 L 62.30099868774414 51.71900177001952 L 62.17100143432617 51.90299987792967 L 62.0620002746582 52.098999023437486 L 61.97600173950195 52.306999206542955 L 61.91400146484375 52.521999359130845 L 61.88418197631836 52.696201324462876 L 61.875999450683594 52.74399948120116 L 61.86399841308594 52.96799850463866 L 61.875999450683594 53.19200134277342 L 61.88558578491211 53.2480010986328 L 61.91400146484375 53.414001464843736 L 61.97600173950195 53.629001617431626 L 62.0620002746582 53.837001800537095 L 62.17100143432617 54.03300094604491 L 62.30099868774414 54.21599960327147 L 62.45000076293945 54.383998870849595 L 62.61800003051758 54.5340003967285 L 62.80099868774414 54.664001464843736 L 62.99700164794922 54.771999359130845 L 63.20500183105469 54.85800170898436 L 63.42100143432617 54.9199981689453 L 63.487998962402344 54.931518554687486 L 63.641998291015625 54.958000183105455 L 63.86600112915039 54.97000122070311 L 64.08999633789062 54.958000183105455 L 64.31199645996094 54.9199981689453 L 64.52799987792969 54.85800170898436 L 64.73500061035156 54.771999359130845 L 64.93199920654297 54.664001464843736 L 65.11499786376953 54.5340003967285 L 65.28199768066406 54.383998870849595 L 65.43199920654297 54.21599960327147 L 65.53600311279297 54.069599151611314 L 65.56199645996094 54.03300094604491 L 65.66999816894531 53.837001800537095 L 65.75599670410156 53.629001617431626 L 65.81800079345703 53.414001464843736 L 65.8464126586914 53.2480010986328 L 65.85600280761719 53.19200134277342 M 49.22999954223633 49.382999420166 L 49.152000427246094 49.26377868652342 L 49.106998443603516 49.194999694824205 L 49.07120895385742 49.15200042724608 L 48.9630012512207 49.021999359130845 L 48.801998138427734 48.866001129150376 L 48.624000549316406 48.729999542236314 L 48.430999755859375 48.61399841308592 L 48.22700119018555 48.52000045776366 L 48.013999938964844 48.45000076293944 L 47.79399871826172 48.40399932861327 L 47.57099914550781 48.382999420166 L 47.34600067138672 48.38700103759764 L 47.124000549316406 48.41699981689452 L 47.104000091552734 48.421955108642564 L 46.90599822998047 48.471000671386705 L 46.69499969482422 48.54899978637694 L 46.494998931884766 48.65000152587889 L 46.30699920654297 48.77299880981444 L 46.13399887084961 48.91600036621092 L 45.979000091552734 49.07799911499022 L 45.92204666137695 49.15200042724608 L 45.84199905395508 49.256000518798814 L 45.72600173950195 49.44800186157225 L 45.63199996948242 49.65200042724608 L 45.5620002746582 49.86500167846678 L 45.51599884033203 50.08499908447264 L 45.494998931884766 50.30899810791014 L 45.5 50.53300094604491 L 45.52899932861328 50.756000518798814 L 45.58300018310547 50.973999023437486 L 45.6609992980957 51.18399810791014 L 45.66904067993164 51.20000076293944 L 45.762001037597656 51.38499832153319 L 45.8849983215332 51.57199859619139 L 46.02799987792969 51.74499893188475 L 46.189998626708984 51.901000976562486 L 46.36800003051758 52.037998199462876 L 46.560001373291016 52.15299987792967 L 46.76499938964844 52.247001647949205 L 46.97800064086914 52.31700134277342 L 47.104000091552734 52.34334564208983 L 47.198001861572266 52.36299896240233 L 47.42100143432617 52.383998870849595 L 47.64500045776367 52.38000106811522 L 47.86800003051758 52.35100173950194 L 48.08599853515625 52.29600143432616 L 48.29600143432617 52.21799850463866 L 48.49700164794922 52.11700057983397 L 48.685001373291016 51.99399948120116 L 48.856998443603516 51.85100173950194 L 49.01300048828125 51.688999176025376 L 49.150001525878906 51.51100158691405 L 49.152000427246094 51.507690429687486 L 49.26599884033203 51.31900024414061 L 49.35900115966797 51.11500167846678 L 49.42900085449219 50.90200042724608 L 49.474998474121094 50.681999206542955 L 49.49599838256836 50.458000183105455 L 49.492000579833984 50.234001159667955 L 49.4630012512207 50.01100158691405 L 49.409000396728516 49.793998718261705 L 49.33100128173828 49.583000183105455 L 49.22999954223633 49.382999420166 z" fill="none" stroke="rgb(255,0,0)" stroke-width="0.001mm" />
</svg>