<?xml version="1.0" standalone="no"?>
<!DOCTYPE svg PUBLIC "-//W3C//DTD SVG 1.1//EN"
  "http://www.w3.org/Graphics/SVG/1.1/DTD/svg11.dtd">
<svg width="34.01500129699707mm" height="135.32200622558594mm" viewBox="29.4689998626709 207.05400085449213 34.01500129699707 135.32200622558594" xmlns="http://www.w3.org/2000/svg" version="1.1">
	<title>svgOutput</title>
	<desc>made with tinkercad</desc>
<path d="M 48.02407455444336 252.008316040039 L 48.03083038330078 252.00999450683588 L 48.10697555541992 252.02900695800776 L 48.11899948120117 252.031997680664 L 48.160919189453125 252.02900695800776 L 48.426422119140625 252.00999450683588 L 48.650001525878906 251.99400329589838 L 48.65663146972656 251.99133300781244 L 48.76012420654297 251.94963073730463 L 49.14400100708008 251.79499816894526 L 49.152000427246094 251.78829956054682 L 49.153724670410156 251.78684997558588 L 49.46979904174805 251.5219116210937 L 49.54175567626953 251.46159362792963 L 49.551998138427734 251.45300292968744 L 49.70600128173828 251.20616149902338 L 49.83399963378906 251.00100708007807 L 49.836795806884766 250.98973083496088 L 49.959999084472656 250.4930572509765 L 49.96200180053711 250.4850006103515 L 49.959999084472656 250.4562377929687 L 49.92499923706055 249.95300292968744 L 49.92152786254883 249.9443969726562 L 49.88584518432617 249.85600280761713 L 49.72600173950195 249.46000671386713 L 49.72254943847656 249.45588684082026 L 49.70600128173828 249.43614196777338 L 49.38399887084961 249.05200195312494 L 49.38298416137695 249.05136108398432 L 49.38100051879883 249.04899597167963 L 49.152000427246094 248.90612792968744 L 49.10371017456055 248.87600708007807 L 48.92900085449219 248.76699829101557 L 48.41299819946289 248.6380004882812 L 47.88100051879883 248.67599487304682 L 47.38800048828125 248.87499999999994 L 47.38680648803711 248.87600708007807 L 47.17536163330078 249.053237915039 L 46.97999954223633 249.21699523925776 L 46.7524528503418 249.58171081542963 L 46.698001861572266 249.6690063476562 L 46.651248931884766 249.85600280761713 L 46.57099914550781 250.17700195312494 L 46.569000244140625 250.1849975585937 L 46.57099914550781 250.21369934082026 L 46.57587432861328 250.2836303710937 L 46.57099914550781 250.302993774414 L 46.60499954223633 250.7940063476562 L 46.78799819946289 251.25100708007807 L 47.104000091552734 251.62899780273432 L 47.520999908447266 251.88999938964838 L 47.999000549316406 252.00999450683588 L 48.02407455444336 252.008316040039 M 59.345001220703125 314.7210083007812 L 59.178428649902344 323.4041442871093 L 59.178409576416016 323.4050903320312 L 59.17184829711914 323.7471313476562 L 60.313743591308594 327.50601196289057 L 62.48400115966797 334.6499938964843 L 59.02665710449219 337.06201171874994 L 52.84299850463867 341.37600708007807 L 51.237579345703125 340.1618347167968 L 47.657737731933594 337.4544372558593 L 46.340999603271484 338.25100708007807 L 45.12040710449219 337.44702148437494 L 42.525001525878906 339.2575073242187 L 39.845001220703125 341.1270141601562 L 34.691001892089844 337.2290649414062 L 30.4689998626709 334.03601074218744 L 33.94499969482422 323.9983520507812 L 34.069061279296875 323.6400756835937 L 34.25 314.23901367187494 L 37.10417938232422 312.51257324218744 L 37.99531555175781 311.97354125976557 L 38.056907653808594 311.2959899902343 L 38.09199905395508 310.9100036621093 L 38.48099899291992 306.16198730468744 L 38.84199905395508 301.26501464843744 L 39.17399978637695 296.21899414062494 L 39.250484466552734 294.91198730468744 L 39.47800064086914 291.0239868164062 L 39.66869354248047 287.33242797851557 L 39.75400161743164 285.6809997558593 L 40.000999450683594 280.18798828124994 L 40.21200180053711 274.73901367187494 L 40.38199996948242 269.42898559570307 L 40.512001037597656 264.25698852539057 L 40.54978561401367 262.1440124511718 L 40.60200119018555 259.22399902343744 L 40.6510009765625 254.3289947509765 L 40.659000396728516 249.57200622558588 L 40.644989013671875 247.53030395507807 L 40.635009765625 246.07638549804682 L 40.63283920288086 245.75999450683588 L 40.62699890136719 244.9089965820312 L 40.54800033569336 240.39199829101557 L 40.422000885009766 236.02200317382807 L 40.25 231.79800415039057 L 40.11989974975586 229.37600708007807 L 40.03099822998047 227.72099304199213 L 40.02827072143555 227.68049621582026 L 39.76599884033203 223.78999328613276 L 39.45500183105469 219.95199584960932 L 39.19953155517578 217.3270416259765 L 39.2386589050293 217.28218078613276 L 39.32093048095703 217.1878814697265 L 39.37675857543945 217.12388610839838 L 42.612056732177734 213.4152221679687 L 44.313499450683594 211.46484374999994 L 47.28900146484375 208.05400085449213 L 52.1602783203125 212.3035278320312 L 52.64996337890625 212.73071289062494 L 58.128238677978516 217.50976562499994 L 58.201255798339844 217.57347106933588 L 58.28214645385742 217.64402770996088 L 58.321434020996094 217.67829895019526 L 57.9630012512207 220.3079986572265 L 57.505001068115234 224.1309967041015 L 57.1896858215332 227.10069274902338 L 57.0890007019043 228.04899597167963 L 56.966583251953125 229.37600708007807 L 56.7140007019043 232.11399841308588 L 56.380001068115234 236.32800292968744 L 56.08599853515625 240.69099426269526 L 55.83399963378906 245.20100402832026 L 55.808563232421875 245.75999450683588 L 55.7953987121582 246.04930114746088 L 55.62200164794922 249.8600006103515 L 55.448001861572266 254.61300659179682 L 55.308998107910156 259.50601196289057 L 55.25448989868164 262.1440124511718 L 55.24748229980469 262.48306274414057 L 55.20500183105469 264.5390014648437 L 55.137001037597656 269.7120056152343 L 55.10300064086914 275.0249938964843 L 55.104000091552734 280.4779968261718 L 55.13999938964844 285.9760131835937 L 55.188262939453125 289.6134948730468 L 55.21099853515625 291.3269958496093 L 55.28267288208008 294.91198730468744 L 55.314998626708984 296.5289916992187 L 55.40449523925781 299.8071899414062 L 55.44842529296875 301.4164428710937 L 55.452999114990234 301.58401489257807 L 55.625999450683594 306.4920043945312 L 55.832000732421875 311.25100708007807 L 55.834354400634766 311.2959899902343 L 55.894630432128906 312.44839477539057 L 56.66282272338867 312.95437622070307 L 57.878990173339844 313.75540161132807 L 58.99100112915039 314.48782348632807 L 59.345001220703125 314.7210083007812 M 42.86844253540039 323.09146118164057 L 42.782203674316406 323.58401489257807 L 42.77799987792969 323.6080017089843 L 42.757999420166016 324.1700134277343 L 42.81700134277344 324.72900390624994 L 42.9030647277832 325.0745239257812 L 42.91883087158203 325.13781738281244 L 42.95271301269531 325.2738647460937 L 42.952999114990234 325.2749938964843 L 43.043216705322266 325.49880981445307 L 43.129032135009766 325.7117309570312 L 43.16299819946289 325.7959899902343 L 43.25074005126953 325.94750976562494 L 43.3930778503418 326.1933288574218 L 43.44499969482422 326.28298950195307 L 43.5654411315918 326.4371948242187 L 43.75929260253906 326.6853942871093 L 43.79100036621094 326.7260131835937 L 44.19499969482422 327.1170043945312 L 44.650001525878906 327.4469909667968 L 44.76065444946289 327.50601196289057 L 45.08698654174805 327.6799926757812 L 45.14699935913086 327.7120056152343 L 45.67499923706055 327.9039916992187 L 46.224998474121094 328.02099609374994 L 46.7859992980957 328.0599975585937 L 47.34700012207031 328.02099609374994 L 47.536048889160156 327.9807739257812 L 47.89699935913086 327.9039916992187 L 48.42599868774414 327.7120056152343 L 48.48589324951172 327.6799926757812 L 48.81156921386719 327.50601196289057 L 48.922000885009766 327.4469909667968 L 49.152000427246094 327.28018188476557 L 49.37699890136719 327.1170043945312 L 49.49907302856445 326.99914550781244 L 49.78200149536133 326.7260131835937 L 49.87872314453125 326.60217285156244 L 50.12799835205078 326.28298950195307 L 50.2308464050293 326.10476684570307 L 50.409000396728516 325.7959899902343 L 50.51427459716797 325.5360717773437 L 50.619998931884766 325.2749938964843 L 50.733768463134766 324.81823730468744 L 50.75600051879883 324.72900390624994 L 50.814998626708984 324.1700134277343 L 50.80250930786133 323.8190307617187 L 50.79499816894531 323.6080017089843 L 50.79079818725586 323.58401489257807 L 50.73102951049805 323.2426452636718 L 50.73099136352539 323.24243164062494 L 50.698001861572266 323.05398559570307 L 50.52399826049805 322.5190124511718 L 50.277000427246094 322.0140075683593 L 49.9630012512207 321.54699707031244 L 49.58700180053711 321.1289978027343 L 49.15599822998047 320.7680053710937 L 49.152000427246094 320.76550292968744 L 48.67900085449219 320.47000122070307 L 48.307559967041016 320.3045043945312 L 48.165000915527344 320.24099731445307 L 47.624000549316406 320.0859985351562 L 47.06800079345703 320.0079956054687 L 46.505001068115234 320.0079956054687 L 45.948001861572266 320.0859985351562 L 45.40800094604492 320.24099731445307 L 45.055999755859375 320.39782714843744 L 44.89400100708008 320.47000122070307 L 44.41699981689453 320.7680053710937 L 43.986000061035156 321.1289978027343 L 43.61000061035156 321.54699707031244 L 43.29600143432617 322.0140075683593 L 43.04899978637695 322.5190124511718 L 42.875 323.05398559570307 L 42.86844253540039 323.09146118164057 M 42.525001525878906 319.78698730468744 L 42.78167724609375 319.5440063476562 L 42.8408317565918 319.4880065917968 L 42.84400177001953 319.48498535156244 L 42.98400115966797 319.3110046386718 L 43.007999420166016 319.25686645507807 L 43.03188705444336 319.20300292968744 L 43.077999114990234 319.09899902343744 L 43.118465423583984 318.88806152343744 L 43.125 318.85400390624994 L 43.12300109863281 318.5820007324218 L 43.071998596191406 318.2890014648437 L 43.014217376708984 318.1085815429687 L 43.007999420166016 318.0891723632812 L 42.9739990234375 317.9830017089843 L 42.85951232910156 317.73400878906244 L 42.83100128173828 317.67199707031244 L 42.692100524902344 317.4400024414062 L 42.645999908447266 317.3630065917968 L 42.525001525878906 317.19949340820307 L 42.42399978637695 317.06298828124994 L 42.17100143432617 316.78100585937494 L 41.51900100708008 316.1170043945312 L 41.24100112915039 315.85900878906244 L 40.959999084472656 315.6432800292968 L 40.944000244140625 315.63101196289057 L 40.673954010009766 315.46179199218744 L 40.63600158691406 315.43798828124994 L 40.54095458984375 315.39199829101557 L 40.383079528808594 315.31558227539057 L 40.32400131225586 315.28698730468744 L 40.11161804199219 315.2129821777343 L 40.016998291015625 315.1799926757812 L 39.858665466308594 315.1479187011718 L 39.72100067138672 315.11999511718744 L 39.593040466308594 315.1149291992187 L 39.444000244140625 315.10900878906244 L 39.194000244140625 315.14599609374994 L 38.974998474121094 315.23098754882807 L 38.792999267578125 315.3619995117187 L 38.76139450073242 315.39199829101557 L 38.62641906738281 315.5201110839843 L 38.39899826049805 315.73599243164057 L 38.38115310668945 315.75817871093744 L 38.25899887084961 315.9100036621093 L 38.18363952636719 316.07995605468744 L 38.165000915527344 316.1220092773437 L 38.11800003051758 316.3670043945312 L 38.11835861206055 316.4159851074218 L 38.11953353881836 316.5757751464843 L 38.119998931884766 316.6390075683593 L 38.17100143432617 316.93200683593744 L 38.26900100708008 317.2380065917968 L 38.316162109375 317.34057617187494 L 38.361881256103516 317.4400024414062 L 38.4119987487793 317.5490112304687 L 38.59700012207031 317.8580017089843 L 38.80751037597656 318.14248657226557 L 38.819000244140625 318.15798950195307 L 39.071998596191406 318.4400024414062 L 39.7239990234375 319.10400390624994 L 39.745323181152344 319.12377929687494 L 40.00199890136719 319.3619995117187 L 40.16613006591797 319.4880065917968 L 40.29899978637695 319.58999633789057 L 40.606998443603516 319.78201293945307 L 40.91899871826172 319.93399047851557 L 40.959999084472656 319.9483032226562 L 41.025821685791016 319.97122192382807 L 41.22600173950195 320.0409851074218 L 41.52199935913086 320.1010131835937 L 41.79899978637695 320.1119995117187 L 42.04999923706055 320.0750122070312 L 42.268001556396484 319.98999023437494 L 42.45000076293945 319.8580017089843 L 42.525001525878906 319.78698730468744 M 50.777000427246094 319.44299316406244 L 50.8095703125 319.4880065917968 L 50.82899856567383 319.5148620605468 L 50.90800094604492 319.6239929199218 L 51.02895736694336 319.7514343261718 L 51.20000076293945 319.9316101074218 L 51.28200149536133 320.0180053710937 L 51.352840423583984 320.0750122070312 L 51.45600128173828 320.15798950195307 L 51.667999267578125 320.2520141601562 L 51.826324462890625 320.28237915039057 L 51.91299819946289 320.2990112304687 L 52.185001373291016 320.29699707031244 L 52.2239990234375 320.2903442382812 L 52.47800064086914 320.2470092773437 L 52.4987678527832 320.2403259277343 L 52.78300094604492 320.1489868164062 L 53.095001220703125 320.00500488281244 L 53.24800109863281 319.9138793945312 L 53.40399932861328 319.8210144042968 L 53.70399856567383 319.59899902343744 L 53.82772445678711 319.4880065917968 L 53.830711364746094 319.4853210449218 L 53.986000061035156 319.3460083007812 L 54.64899826049805 318.69400024414057 L 54.90800094604492 318.4150085449218 L 54.92700958251953 318.3902282714843 L 55.13600158691406 318.1180114746093 L 55.28083038330078 317.8856811523437 L 55.327999114990234 317.8099975585937 L 55.47999954223633 317.4989929199218 L 55.50049591064453 317.4400024414062 L 55.53120422363281 317.3516235351562 L 55.58700180053711 317.1910095214843 L 55.64699935913086 316.89599609374994 L 55.65800094604492 316.6189880371093 L 55.62099838256836 316.3680114746093 L 55.55342483520508 316.1939086914062 L 55.5359992980957 316.1489868164062 L 55.40399932861328 315.9670104980468 L 55.31693649291992 315.87527465820307 L 55.29600143432617 315.8532104492187 L 55.0385856628418 315.5820007324218 L 55.03099822998047 315.57400512695307 L 54.856998443603516 315.43399047851557 L 54.763275146484375 315.39199829101557 L 54.64500045776367 315.33898925781244 L 54.400001525878906 315.29299926757807 L 54.12799835205078 315.2950134277343 L 53.834999084472656 315.34500122070307 L 53.6882438659668 315.39199829101557 L 53.52899932861328 315.44299316406244 L 53.24800109863281 315.57312011718744 L 53.21799850463867 315.5870056152343 L 52.909000396728516 315.77099609374994 L 52.60900115966797 315.9930114746093 L 52.32699966430664 316.24600219726557 L 51.66299819946289 316.8980102539062 L 51.404998779296875 317.17700195312494 L 51.20241928100586 317.4400024414062 L 51.20000076293945 317.44314575195307 L 51.176998138427734 317.4729919433593 L 51.0296745300293 317.70886230468744 L 50.98621368408203 317.77847290039057 L 50.98400115966797 317.78201293945307 L 50.85499954223633 318.0476989746093 L 50.83300018310547 318.0929870605468 L 50.82899856567383 318.10452270507807 L 50.72600173950195 318.40100097656244 L 50.71318817138672 318.46398925781244 L 50.66600036621094 318.6960144042968 L 50.65399932861328 318.9729919433593 L 50.688819885253906 319.20300292968744 L 50.69200134277344 319.22399902343744 L 50.777000427246094 319.44299316406244 M 55.17927932739258 330.53454589843744 L 55.000999450683594 330.23098754882807 L 54.779998779296875 329.9259948730468 L 54.60537338256836 329.7279968261718 L 54.5260009765625 329.6380004882812 L 53.874000549316406 328.96301269531244 L 53.59600067138672 328.7000122070312 L 53.29899978637695 328.4679870605468 L 53.24800109863281 328.43569946289057 L 53.087318420410156 328.33398437499994 L 52.99100112915039 328.2730102539062 L 52.80088806152344 328.1785583496093 L 52.67900085449219 328.1180114746093 L 52.534427642822266 328.06668090820307 L 52.37200164794922 328.0090026855468 L 52.257904052734375 327.98547363281244 L 52.07600021362305 327.94799804687494 L 51.952762603759766 327.94311523437494 L 51.79899978637695 327.93701171874994 L 51.54899978637695 327.97500610351557 L 51.33000183105469 328.06201171874994 L 51.23231506347656 328.1333923339843 L 51.20000076293945 328.15701293945307 L 51.14799880981445 328.1950073242187 L 50.8901252746582 328.44436645507807 L 50.75400161743164 328.5759887695312 L 50.62095260620117 328.7432556152343 L 50.61399841308594 328.7520141601562 L 50.52000045776367 328.9679870605468 L 50.472999572753906 329.2179870605468 L 50.47317886352539 329.2427368164062 L 50.474998474121094 329.49499511718744 L 50.515010833740234 329.7279968261718 L 50.5260009765625 329.79199218749994 L 50.549007415771484 329.86502075195307 L 50.624000549316406 330.1029968261718 L 50.64731216430664 330.15466308593744 L 50.766998291015625 330.4200134277343 L 50.95199966430664 330.73498535156244 L 51.17399978637695 331.0400085449218 L 51.426998138427734 331.3269958496093 L 51.86070251464844 331.77600097656244 L 52.07899856567383 332.0020141601562 L 52.13108825683594 332.05126953124994 L 52.356998443603516 332.26501464843744 L 52.56634521484375 332.4285278320312 L 52.65399932861328 332.4970092773437 L 52.90364456176758 332.6558532714843 L 52.96200180053711 332.69299316406244 L 53.21446228027344 332.81762695312494 L 53.24800109863281 332.8341674804687 L 53.27399826049805 332.8469848632812 L 53.527671813964844 332.9370727539062 L 53.58100128173828 332.9559936523437 L 53.86440658569336 333.01440429687494 L 53.87699890136719 333.01699829101557 L 54.15399932861328 333.0289916992187 L 54.245849609375 333.0151062011718 L 54.27199935913086 333.01113891601557 L 54.404998779296875 332.99099731445307 L 54.62300109863281 332.9039916992187 L 54.80500030517578 332.7699890136718 L 55.19900131225586 332.39001464843744 L 55.24360656738281 332.33361816406244 L 55.29600143432617 332.26736450195307 L 55.3390007019043 332.21301269531244 L 55.43299865722656 331.9970092773437 L 55.47471618652344 331.77600097656244 L 55.47999954223633 331.7479858398437 L 55.47800064086914 331.4710083007812 L 55.426998138427734 331.17300415039057 L 55.32899856567383 330.8619995117187 L 55.29600143432617 330.78906249999994 L 55.2741813659668 330.74087524414057 L 55.18600082397461 330.5459899902343 L 55.17927932739258 330.53454589843744 M 42.61600112915039 328.82901000976557 L 42.566341400146484 328.70401000976557 L 42.52899932861328 328.60998535156244 L 42.525001525878906 328.6045532226562 L 42.395999908447266 328.42898559570307 L 42.32686233520508 328.35729980468744 L 42.04337692260742 328.06338500976557 L 42.01599884033203 328.0350036621093 L 41.8390007019043 327.8949890136718 L 41.62300109863281 327.8009948730468 L 41.374000549316406 327.7539978027343 L 41.09700012207031 327.75601196289057 L 40.959999084472656 327.77944946289057 L 40.79899978637695 327.80700683593744 L 40.637306213378906 327.85794067382807 L 40.487998962402344 327.9049987792968 L 40.388851165771484 327.94973754882807 L 40.17100143432617 328.04800415039057 L 39.85599899291992 328.2330017089843 L 39.5856819152832 328.4295043945312 L 39.551998138427734 328.45401000976557 L 39.263999938964844 328.70800781249994 L 38.9119987487793 329.04800415039057 L 38.590484619140625 329.3585815429687 L 38.5890007019043 329.35998535156244 L 38.32600021362305 329.6380004882812 L 38.25569534301758 329.7279968261718 L 38.22998046875 329.7609252929687 L 38.09400177001953 329.9349975585937 L 38.00338363647461 330.07739257812494 L 37.89799880981445 330.2430114746093 L 37.834022521972656 330.3726196289062 L 37.768402099609375 330.5055541992187 L 37.74399948120117 330.5549926757812 L 37.6349983215332 330.8619995117187 L 37.57400131225586 331.15798950195307 L 37.5620002746582 331.43399047851557 L 37.599998474121094 331.6849975585937 L 37.63615036010742 331.77600097656244 L 37.6870002746582 331.9039916992187 L 37.7401008605957 331.9761352539062 L 37.82099914550781 332.0859985351562 L 37.963680267333984 332.2339477539062 L 38.20100021362305 332.48001098632807 L 38.3116569519043 332.56753540039057 L 38.37799835205078 332.61999511718744 L 38.59400177001953 332.71398925781244 L 38.84299850463867 332.76098632812494 L 38.873355865478516 332.76077270507807 L 38.9119987487793 332.76049804687494 L 39.119998931884766 332.7590026855468 L 39.417999267578125 332.70800781249994 L 39.729000091552734 332.60998535156244 L 39.999263763427734 332.4880981445312 L 40.04600143432617 332.4670104980468 L 40.36000061035156 332.28201293945307 L 40.665000915527344 332.0599975585937 L 40.952999114990234 331.80700683593744 L 40.959999084472656 331.8002319335937 L 40.98509216308594 331.77600097656244 L 41.62799835205078 331.1549987792968 L 41.89099884033203 330.8770141601562 L 42.12300109863281 330.57998657226557 L 42.319000244140625 330.27200317382807 L 42.3332633972168 330.2431030273437 L 42.472999572753906 329.95999145507807 L 42.47859573364258 329.94424438476557 L 42.525001525878906 329.8135375976562 L 42.55537033081055 329.7279968261718 L 42.582000732421875 329.6530151367187 L 42.643001556396484 329.3569946289062 L 42.65399932861328 329.07998657226557 L 42.61600112915039 328.82901000976557 M 45.67184829711914 229.37600708007807 L 45.70600128173828 229.87600708007807 L 46.055999755859375 230.74800109863276 L 46.65800094604492 231.46800231933588 L 47.361202239990234 231.9088287353515 L 47.45399856567383 231.96699523925776 L 48.3650016784668 232.19599914550776 L 49.301998138427734 232.13200378417963 L 49.33293533325195 232.1195678710937 L 50.17300033569336 231.781997680664 L 50.89400100708008 231.1799926757812 L 51.393001556396484 230.38400268554682 L 51.62200164794922 229.47300720214838 L 51.61537551879883 229.37600708007807 L 51.55799865722656 228.53599548339838 L 51.207000732421875 227.66499328613276 L 50.60499954223633 226.94400024414057 L 49.808998107910156 226.4450073242187 L 48.89899826049805 226.2160034179687 L 47.96200180053711 226.27999877929682 L 47.09000015258789 226.6309967041015 L 46.369998931884766 227.23300170898432 L 45.87099838256836 228.02900695800776 L 45.641998291015625 228.93899536132807 L 45.67184829711914 229.37600708007807 M 47.39912033081055 223.41604614257807 L 47.6090202331543 223.54699707031244 L 47.709999084472656 223.6100006103515 L 47.71034240722656 223.61009216308588 L 48.21799850463867 223.7369995117187 L 48.22600173950195 223.73899841308588 L 48.254703521728516 223.7369995117187 L 48.75699996948242 223.70199584960932 L 48.76664352416992 223.69808959960932 L 49.13985061645508 223.54699707031244 L 49.152000427246094 223.54208374023432 L 49.250999450683594 223.50199890136713 L 49.25836944580078 223.49581909179682 L 49.3842658996582 223.39028930664057 L 49.65009689331055 223.16746520996088 L 49.659000396728516 223.16000366210932 L 49.68600082397461 223.11682128906244 L 49.941001892089844 222.708999633789 L 49.94424819946289 222.6959838867187 L 50.06700134277344 222.20402526855463 L 50.06999969482422 222.19200134277338 L 50.06700134277344 222.148941040039 L 50.03300094604492 221.66099548339838 L 50.02962875366211 221.65267944335932 L 49.839881896972656 221.18400573730463 L 49.83300018310547 221.167007446289 L 49.828758239746094 221.16194152832026 L 49.68600082397461 220.9916381835937 L 49.49100112915039 220.75900268554682 L 49.488224029541016 220.7572631835937 L 49.487998962402344 220.75700378417963 L 49.169742584228516 220.5579986572265 L 49.0369987487793 220.47500610351557 L 48.52000045776367 220.34599304199213 L 47.98899841308594 220.3829956054687 L 47.5567512512207 220.5579986572265 L 47.494998931884766 220.58299255371088 L 47.21571350097656 220.81710815429682 L 47.08700180053711 220.92500305175776 L 46.925052642822266 221.18400573730463 L 46.85240173339844 221.3001861572265 L 46.80500030517578 221.37600708007807 L 46.69599914550781 221.81285095214838 L 46.67599868774414 221.8930053710937 L 46.69599914550781 222.18002319335932 L 46.706825256347656 222.33535766601557 L 46.7130012512207 222.42399597167963 L 46.84784698486328 222.75706481933588 L 46.91299819946289 222.91799926757807 L 47.255001068115234 223.32600402832026 L 47.257774353027344 223.32772827148432 L 47.257999420166016 223.32800292968744 L 47.39912033081055 223.41604614257807 z" fill="none" stroke="rgb(255,0,0)" stroke-width="0.001mm" />
</svg>