<?xml version="1.0" standalone="no"?>
<!DOCTYPE svg PUBLIC "-//W3C//DTD SVG 1.1//EN"
  "http://www.w3.org/Graphics/SVG/1.1/DTD/svg11.dtd">
<svg width="150.84600639343262mm" height="86.76501464843744mm" viewBox="-163.6280059814453 329.86999511718744 150.84600639343262 86.76501464843744" xmlns="http://www.w3.org/2000/svg" version="1.1">
	<title>svgOutput</title>
	<desc>yellowjacket</desc>
<path d="M -110.68352508544922 358.21789550781244 L -108.10831451416016 359.47705078124994 L -107.68099975585938 359.6860046386718 L -106.07335662841797 360.44799804687494 L -104.375 361.2529907226562 L -100.8740005493164 362.8630065917968 L -98.30400085449219 364.01394653320307 L -97.56285858154297 364.34585571289057 L -97.21199798583984 364.5029907226562 L -93.42400360107422 366.15600585937494 L -89.5469970703125 367.8059997558593 L -85.61799621582031 369.43701171874994 L -84.93655395507812 369.71301269531244 L -81.91999816894531 370.9347839355468 L -81.67500305175781 371.0339965820312 L -77.75599670410156 372.5820007324218 L -73.89900207519531 374.0650024414062 L -70.13999938964844 375.46899414062494 L -66.51699829101562 376.7799987792968 L -66.15617370605469 376.9060974121093 L -65.53600311279297 377.12280273437494 L -63.275245666503906 377.91284179687494 L -63.0629997253418 377.9869995117187 L -61.98041534423828 378.3500671386718 L -59.8129997253418 379.0769958496093 L -59.510536193847656 379.1735534667968 L -56.953006744384766 379.98989868164057 L -56.79600143432617 380.0400085449218 L -54.23688507080078 380.80810546874994 L -54.17900085449219 380.8259887695312 L -54.15742492675781 380.8319702148437 L -54.04399871826172 380.86599731445307 L -51.58100128173828 381.54800415039057 L -51.53269577026367 381.55993652343744 L -51.41549301147461 381.58889770507807 L -50.87900161743164 381.7369995117187 L -49.152000427246094 382.15005493164057 L -47.805999755859375 382.4719848632812 L -46.97412872314453 382.6342468261718 L -43.116390228271484 383.5459899902343 L -41.63337707519531 383.89651489257807 L -40.66699981689453 384.1249084472655 L -40.64556884765625 384.12997436523426 L -39.91563415527344 384.3024902343749 L -39.849998474121094 384.3179931640624 L -39.84956359863281 384.3161621093749 L -39.84589385986328 384.30062866210926 L -39.84376525878906 384.2916259765624 L -39.11273193359375 383.7540893554687 L -38.90874481201172 383.6040954589843 L -36.5260009765625 381.8519897460937 L -28.44013023376465 385.02069091796864 L -28.11914825439453 385.1464843749999 L -16.746000289916992 385.82199096679676 L -14.869650840759277 393.02352905273426 L -14.421076774597168 394.74517822265614 L -14.258803367614746 395.36801147460926 L -13.781999588012695 397.1979980468749 L -15.478520393371582 398.282989501953 L -16.29787254333496 398.8070068359374 L -19.259252548217773 400.7009277343749 L -18.9689998626709 402.21200561523426 L -20.147043228149414 403.0782470703124 L -19.20199966430664 406.70660400390614 L -18.83099937438965 408.1310119628905 L -18.571060180664062 409.12899780273426 L -18.525999069213867 409.3020019531249 L -22.181947708129883 411.63998413085926 L -25.89262580871582 414.012969970703 L -28.429000854492188 415.6350097656249 L -32.583309173583984 412.222930908203 L -36.93165588378906 408.6514892578124 L -45.570186614990234 405.26559448242176 L -46.19918441772461 402.22750854492176 L -46.25117874145508 401.97637939453114 L -46.408538818359375 401.2163085937499 L -46.44829559326172 401.02426147460926 L -46.476776123046875 400.8867187499999 L -46.587547302246094 400.35165405273426 L -46.590999603271484 400.334991455078 L -46.61638641357422 400.3402404785155 L -46.61732864379883 400.3404541015624 L -46.61744689941406 400.3398437499999 L -50.48965072631836 398.8070068359374 L -51.38042449951172 398.454376220703 L -52.01643371582031 398.20260620117176 L -54.55782699584961 397.19659423828114 L -55.12593460083008 396.971710205078 L -56.33473205566406 396.493194580078 L -56.569820404052734 396.40011596679676 L -56.85322189331055 396.28793334960926 L -57.34400177001953 396.0936584472655 L -62.09154510498047 394.21432495117176 L -62.327239990234375 394.12103271484364 L -62.63673782348633 393.988555908203 L -64.25 393.2980041503905 L -64.44315338134766 393.21600341796864 L -65.53600311279297 392.75204467773426 L -67.43000030517578 391.9479980468749 L -70.78600311279297 390.532989501953 L -71.60468292236328 390.19036865234364 L -74.28399658203125 389.0690002441405 L -77.89099884033203 387.5679931640624 L -81.5719985961914 386.04501342773426 L -81.91999816894531 385.90182495117176 L -85.29299926757812 384.51400756835926 L -89.01599884033203 382.99099731445307 L -92.70700073242188 381.49099731445307 L -96.3290023803711 380.02700805664057 L -98.30400085449219 379.23339843749994 L -99.8479995727539 378.6130065917968 L -102.9127197265625 377.3905639648437 L -103.2300033569336 377.2640075683593 L -106.44200134277344 375.9920043945312 L -109.4540023803711 374.80899047851557 L -112.23600006103516 373.7279968261718 L -114.68800354003906 372.78640747070307 L -114.76200103759766 372.7579956054687 L -117.00599670410156 371.90798950195307 L -118.9489974975586 371.18798828124994 L -120.56999969482422 370.6029968261718 L -121.00287628173828 370.45376586914057 L -121.29292297363281 370.3389587402343 L -121.94763946533203 370.0797729492187 L -122.87420654296875 369.71301269531244 L -123.58200073242188 369.4328308105468 L -124.76541900634766 368.96435546874994 L -128.985107421875 367.2940063476562 L -130.4813995361328 366.70169067382807 L -131.07200622558594 366.76696777343744 L -131.1681671142578 366.77758789062494 L -131.2286376953125 366.7842712402343 L -131.42169189453125 366.8056030273437 L -131.75494384765625 366.84243774414057 L -132.11300659179688 366.88198852539057 L -134.79299926757812 367.10501098632807 L -137.36000061035156 367.2430114746093 L -139.78799438476562 367.2940063476562 L -142.05499267578125 367.25698852539057 L -144.13800048828125 367.1329956054687 L -146.01699829101562 366.92300415039057 L -147.45599365234375 366.6685485839843 L -147.6739959716797 366.63000488281244 L -149.093994140625 366.25601196289057 L -149.7050018310547 366.01956176757807 L -150.26199340820312 365.80398559570307 L -151.16700744628906 365.2789916992187 L -151.80099487304688 364.6860046386718 L -152.1580047607422 364.03100585937494 L -152.23399353027344 363.31900024414057 L -152.0279998779297 362.55899047851557 L -151.54200744628906 361.75698852539057 L -150.781005859375 360.9209899902343 L -150.21636962890625 360.44799804687494 L -149.7519989013672 360.05899047851557 L -149.6099090576172 359.9617614746093 L -148.46600341796875 359.17898559570307 L -148.44500732421875 359.1668090820312 L -147.75782775878906 358.7677917480468 L -147.45599365234375 358.59252929687494 L -147.0835418701172 358.37625122070307 L -146.93499755859375 358.2900085449218 L -146.0677947998047 357.85220336914057 L -146.1121368408203 357.8196411132812 L -146.23374938964844 357.7302856445312 L -146.42640686035156 357.58877563476557 L -146.68096923828125 357.40176391601557 L -147.45599365234375 356.83242797851557 L -157.61480712890625 349.3698120117187 L -157.61700439453125 349.3682250976562 L -157.8979949951172 349.1618041992187 L -161.55059814453125 346.4786071777343 L -161.56875610351562 346.4652709960937 L -161.7057342529297 346.3571166992187 L -162.28318786621094 345.9010620117187 L -162.5101776123047 345.72180175781244 L -162.5301971435547 345.7059936523437 L -162.5567626953125 345.7059936523437 L -162.6280059814453 345.7059936523437 L -162.6280059814453 333.1270141601562 L -162.6280059814453 330.86999511718744 L -161.97999572753906 330.86999511718744 L -147.2740020751953 330.86999511718744 L -147.2740020751953 332.98648071289057 L -147.16943359375 333.1270141601562 L -146.2046661376953 334.42337036132807 L -145.87600708007812 334.86499023437494 L -143.71800231933594 337.26199340820307 L -142.4814910888672 338.43399047851557 L -142.3280029296875 338.57946777343744 L -142.26300048828125 338.6480102539062 L -142.06411743164062 338.82958984374994 L -141.18800354003906 339.6600036621093 L -140.84156799316406 339.9458618164062 L -140.4340057373047 340.31799316406244 L -139.26400756835938 341.2753295898437 L -138.54580688476562 341.86294555664057 L -138.27200317382812 342.0870056152343 L -138.1075439453125 342.2098083496093 L -137.15777587890625 342.91906738281244 L -136.29808044433594 343.56106567382807 L -135.9574432373047 343.81542968749994 L -135.79600524902344 343.9360046386718 L -135.6109619140625 344.06399536132807 L -135.45303344726562 344.17324829101557 L -134.61557006835938 344.75256347656244 L -133.86492919921875 345.2718200683593 L -133.3743896484375 345.6111450195312 L -133.25799560546875 345.69165039062494 L -133.03199768066406 345.8479919433593 L -132.87606811523438 345.9487915039062 L -131.07200622558594 347.11474609374994 L -130.00399780273438 347.8049926757812 L -129.512451171875 348.10400390624994 L -127.95843505859375 349.0492858886718 L -127.71598052978516 349.19677734374994 L -126.74400329589844 349.78799438476557 L -123.41243743896484 351.7015075683593 L -123.28099822998047 351.77700805664057 L -119.64900207519531 353.7539978027343 L -118.11399841308594 354.54739379882807 L -115.88400268554688 355.7000122070312 L -114.91570281982422 356.1749877929687 L -114.68800354003906 356.2867126464843 L -112.02100372314453 357.59500122070307 L -110.68352508544922 358.21789550781244 M -145.71400451660156 363.6390075683593 L -145.6999969482422 363.4150085449218 L -145.71200561523438 363.1910095214843 L -145.7480010986328 362.96899414062494 L -145.8090057373047 362.7529907226562 L -145.8939971923828 362.5450134277343 L -145.92086791992188 362.49600219726557 L -146.0019989013672 362.3479919433593 L -146.13099670410156 362.1640014648437 L -146.2790069580078 361.99600219726557 L -146.4459991455078 361.84500122070307 L -146.6280059814453 361.71398925781244 L -146.82400512695312 361.60501098632807 L -147.031005859375 361.5180053710937 L -147.2469940185547 361.45401000976557 L -147.45599365234375 361.4180603027343 L -147.46800231933594 361.4159851074218 L -147.69200134277344 361.40200805664057 L -147.91600036621094 361.41299438476557 L -148.13800048828125 361.4500122070312 L -148.35400390625 361.51098632812494 L -148.56199645996094 361.5960083007812 L -148.75900268554688 361.70300292968744 L -148.9429931640625 361.8320007324218 L -149.11099243164062 361.98098754882807 L -149.26199340820312 362.1480102539062 L -149.39300537109375 362.32998657226557 L -149.48532104492188 362.49600219726557 L -149.5019989013672 362.52600097656244 L -149.58900451660156 362.7330017089843 L -149.6529998779297 362.94900512695307 L -149.6909942626953 363.1700134277343 L -149.7050018310547 363.3940124511718 L -149.69400024414062 363.6180114746093 L -149.65699768066406 363.83999633789057 L -149.5959930419922 364.0559997558593 L -149.51100158691406 364.2640075683593 L -149.4040069580078 364.4609985351562 L -149.34580993652344 364.5440063476562 L -149.27499389648438 364.6449890136718 L -149.12600708007812 364.81298828124994 L -148.95899963378906 364.96301269531244 L -148.77699279785156 365.09399414062494 L -148.58099365234375 365.20401000976557 L -148.37399291992188 365.2909851074218 L -148.1580047607422 365.35400390624994 L -147.93699645996094 365.3930053710937 L -147.71299743652344 365.40701293945307 L -147.48899841308594 365.3949890136718 L -147.45599365234375 365.38964843749994 L -147.26699829101562 365.35900878906244 L -147.05099487304688 365.29800415039057 L -146.84300231933594 365.21301269531244 L -146.64599609375 365.10501098632807 L -146.46200561523438 364.9760131835937 L -146.29400634765625 364.82800292968744 L -146.1439971923828 364.66101074218744 L -146.05978393554688 364.5440063476562 L -146.01300048828125 364.47900390624994 L -145.9029998779297 364.28298950195307 L -145.8159942626953 364.0759887695312 L -145.7530059814453 363.85998535156244 L -145.71400451660156 363.6390075683593 M -153.5260009765625 342.9039916992187 L -153.31900024414062 342.99099731445307 L -153.10400390625 343.05398559570307 L -152.88299560546875 343.0929870605468 L -152.6580047607422 343.1069946289062 L -152.4340057373047 343.09500122070307 L -152.21299743652344 343.05899047851557 L -151.9969940185547 342.9979858398437 L -151.78900146484375 342.91299438476557 L -151.59100341796875 342.8049926757812 L -151.552001953125 342.77749633789057 L -151.4080047607422 342.6759948730468 L -151.23899841308594 342.5280151367187 L -151.08900451660156 342.36099243164057 L -150.95799255371094 342.17898559570307 L -150.86651611328125 342.01599121093744 L -150.84800720214844 341.9830017089843 L -150.76100158691406 341.77600097656244 L -150.697998046875 341.5599975585937 L -150.65899658203125 341.33898925781244 L -150.64599609375 341.11499023437494 L -150.65699768066406 340.89099121093744 L -150.6929931640625 340.6690063476562 L -150.75399780273438 340.45300292968744 L -150.83900451660156 340.24499511718744 L -150.94700622558594 340.04800415039057 L -151.00308227539062 339.9679870605468 L -151.0760040283203 339.86401367187494 L -151.22500610351562 339.6960144042968 L -151.39100646972656 339.5450134277343 L -151.552001953125 339.4297485351562 L -151.57400512695312 339.4140014648437 L -151.77000427246094 339.3049926757812 L -151.9770050048828 339.2179870605468 L -152.19200134277344 339.1539916992187 L -152.41299438476562 339.11599731445307 L -152.63800048828125 339.1019897460937 L -152.86199951171875 339.1130065917968 L -153.08299255371094 339.1499938964843 L -153.2989959716797 339.2109985351562 L -153.5070037841797 339.2959899902343 L -153.60000610351562 339.3465270996093 L -153.70399475097656 339.4030151367187 L -153.88800048828125 339.53201293945307 L -154.0570068359375 339.6809997558593 L -154.20700073242188 339.8479919433593 L -154.2933807373047 339.9679870605468 L -154.33799743652344 340.0299987792968 L -154.447998046875 340.2260131835937 L -154.53500366210938 340.43301391601557 L -154.59800720214844 340.6489868164062 L -154.63699340820312 340.86999511718744 L -154.64999389648438 341.09399414062494 L -154.63900756835938 341.31799316406244 L -154.60299682617188 341.5400085449218 L -154.54200744628906 341.75601196289057 L -154.45700073242188 341.96398925781244 L -154.42849731445312 342.01599121093744 L -154.3489990234375 342.16101074218744 L -154.22000122070312 342.34500122070307 L -154.0709991455078 342.5130004882812 L -153.90499877929688 342.66299438476557 L -153.7220001220703 342.7940063476562 L -153.60000610351562 342.86245727539057 L -153.5260009765625 342.9039916992187 M -149.77000427246094 348.3670043945312 L -149.52000427246094 348.5920104980468 L -149.2469940185547 348.78799438476557 L -148.9530029296875 348.95300292968744 L -148.64199829101562 349.08300781249994 L -148.31900024414062 349.17800903320307 L -147.98800659179688 349.23599243164057 L -147.65199279785156 349.25698852539057 L -147.45599365234375 349.24710083007807 L -147.31500244140625 349.23999023437494 L -146.98300170898438 349.1849975585937 L -146.65899658203125 349.09399414062494 L -146.3470001220703 348.9670104980468 L -146.052001953125 348.8049926757812 L -145.7760009765625 348.6119995117187 L -145.5240020751953 348.3890075683593 L -145.31698608398438 348.1600036621093 L -145.29800415039062 348.1390075683593 L -145.1020050048828 347.86499023437494 L -144.93800354003906 347.5710144042968 L -144.8070068359375 347.26098632812494 L -144.71200561523438 346.93798828124994 L -144.6540069580078 346.60598754882807 L -144.63299560546875 346.2699890136718 L -144.64146423339844 346.1119995117187 L -144.6510009765625 345.93399047851557 L -144.7050018310547 345.6019897460937 L -144.7969970703125 345.2780151367187 L -144.9239959716797 344.9660034179687 L -145.0850067138672 344.6700134277343 L -145.2790069580078 344.3949890136718 L -145.5019989013672 344.1430053710937 L -145.58938598632812 344.06399536132807 L -145.7519989013672 343.91699218749994 L -146.02499389648438 343.7210083007812 L -146.31900024414062 343.5559997558593 L -146.62899780273438 343.4259948730468 L -146.95199584960938 343.3309936523437 L -147.28399658203125 343.2730102539062 L -147.6199951171875 343.2520141601562 L -147.95599365234375 343.2690124511718 L -148.28900146484375 343.32400512695307 L -148.61300659179688 343.4150085449218 L -148.9239959716797 343.54299926757807 L -149.22000122070312 343.70401000976557 L -149.49600219726562 343.89700317382807 L -149.68472290039062 344.06399536132807 L -149.7480010986328 344.11999511718744 L -149.97300720214844 344.36999511718744 L -150.1699981689453 344.6440124511718 L -150.33399963378906 344.93798828124994 L -150.46499633789062 345.2479858398437 L -150.55999755859375 345.5710144042968 L -150.6179962158203 345.9030151367187 L -150.6304473876953 346.1119995117187 L -150.63800048828125 346.23901367187494 L -150.62100219726562 346.5750122070312 L -150.56700134277344 346.90701293945307 L -150.47500610351562 347.23098754882807 L -150.34800720214844 347.54299926757807 L -150.18699645996094 347.83898925781244 L -149.9929962158203 348.11401367187494 L -149.95245361328125 348.1600036621093 L -149.77000427246094 348.3670043945312 M -133.02699279785156 360.44900512695307 L -132.91900634765625 360.64599609374994 L -132.7899932861328 360.82998657226557 L -132.64199829101562 360.9979858398437 L -132.47500610351562 361.1489868164062 L -132.29200744628906 361.2789916992187 L -132.0959930419922 361.3890075683593 L -131.88900756835938 361.4760131835937 L -131.6739959716797 361.5390014648437 L -131.4530029296875 361.57800292968744 L -131.22900390625 361.5920104980468 L -131.07200622558594 361.5843200683593 L -131.00399780273438 361.5809936523437 L -130.7830047607422 361.5440063476562 L -130.56700134277344 361.4830017089843 L -130.35899353027344 361.3980102539062 L -130.16200256347656 361.2909851074218 L -129.97799682617188 361.16198730468744 L -129.80999755859375 361.0130004882812 L -129.65899658203125 360.8460083007812 L -129.5279998779297 360.6640014648437 L -129.41900634765625 360.4679870605468 L -129.4105987548828 360.44799804687494 L -129.33200073242188 360.26098632812494 L -129.26800537109375 360.0450134277343 L -129.22900390625 359.82400512695307 L -129.21600341796875 359.60000610351557 L -129.2270050048828 359.37600708007807 L -129.26400756835938 359.1539916992187 L -129.3249969482422 358.93798828124994 L -129.40899658203125 358.73001098632807 L -129.51699829101562 358.53298950195307 L -129.61024475097656 358.3999938964843 L -129.64599609375 358.34899902343744 L -129.7949981689453 358.1809997558593 L -129.96099853515625 358.0299987792968 L -130.1439971923828 357.8999938964843 L -130.33999633789062 357.7900085449218 L -130.5469970703125 357.70300292968744 L -130.76199340820312 357.64001464843744 L -130.98399353027344 357.6010131835937 L -131.07200622558594 357.59548950195307 L -131.20799255371094 357.5870056152343 L -131.4320068359375 357.5979919433593 L -131.6540069580078 357.63500976562494 L -131.8699951171875 357.6960144042968 L -132.0780029296875 357.78100585937494 L -132.27499389648438 357.8880004882812 L -132.45899963378906 358.01699829101557 L -132.6269989013672 358.1659851074218 L -132.77699279785156 358.33300781249994 L -132.82522583007812 358.3999938964843 L -132.9080047607422 358.51501464843744 L -133.01800537109375 358.7109985351562 L -133.10499572753906 358.91799926757807 L -133.16799926757812 359.1340026855468 L -133.20700073242188 359.35501098632807 L -133.2209930419922 359.57901000976557 L -133.20899963378906 359.80300903320307 L -133.17300415039062 360.0249938964843 L -133.11199951171875 360.24099731445307 L -133.02740478515625 360.44799804687494 L -133.02699279785156 360.44900512695307 M -27.707000732421875 408.063995361328 L -27.648000717163086 408.0380859374999 L -27.20599937438965 407.8439941406249 L -27.01300048828125 407.72601318359364 L -26.850000381469727 407.5570068359374 L -26.846996307373047 407.5520019531249 L -26.7189998626709 407.3389892578124 L -26.625 407.0790100097655 L -26.569000244140625 406.782012939453 L -26.554000854492188 406.45599365234364 L -26.577999114990234 406.1090087890624 L -26.642000198364258 405.7499999999999 L -26.711124420166016 405.50399780273426 L -26.743999481201172 405.386993408203 L -26.881999969482422 405.02999877929676 L -27.1436824798584 404.4337463378905 L -27.259000778198242 404.17098999023426 L -27.429000854492188 403.82699584960926 L -27.62700080871582 403.5060119628905 L -27.665103912353516 403.45599365234364 L -27.847999572753906 403.21600341796864 L -28.086999893188477 402.9630126953124 L -28.33799934387207 402.7550048828124 L -28.5939998626709 402.595001220703 L -28.672000885009766 402.5622558593749 L -28.849000930786133 402.48800659179676 L -29.097999572753906 402.43600463867176 L -29.33300018310547 402.44198608398426 L -29.549999237060547 402.50399780273426 L -29.695999145507812 402.5679931640624 L -30.052000045776367 402.7239990234374 L -30.243999481201172 402.84201049804676 L -30.406999588012695 403.0109863281249 L -30.538000106811523 403.2290039062499 L -30.62006950378418 403.45599365234364 L -30.631999969482422 403.4890136718749 L -30.687999725341797 403.7860107421874 L -30.70400047302246 404.11199951171864 L -30.679000854492188 404.459014892578 L -30.614999771118164 404.8179931640624 L -30.51300048828125 405.18099975585926 L -30.38814353942871 405.50399780273426 L -30.375 405.5379943847655 L -29.99799919128418 406.397003173828 L -29.827999114990234 406.740997314453 L -29.6299991607666 407.0620117187499 L -29.409000396728516 407.35198974609364 L -29.220067977905273 407.5520019531249 L -29.170000076293945 407.605010986328 L -28.920000076293945 407.8129882812499 L -28.672000885009766 407.96798706054676 L -28.663999557495117 407.97299194335926 L -28.549314498901367 408.02093505859364 L -28.408000946044922 408.0799865722655 L -28.159000396728516 408.1310119628905 L -27.923999786376953 408.126007080078 L -27.707000732421875 408.063995361328 M -42.815216064453125 400.161895751953 L -42.959999084472656 400.39498901367176 L -43.007999420166016 400.50982666015614 L -43.06700134277344 400.6510009765624 L -43.11899948120117 400.89898681640614 L -43.115333557128906 401.1144104003905 L -43.1150016784668 401.13400268554676 L -43.05500030517578 401.3500061035155 L -43.03012466430664 401.407989501953 L -43.007999420166016 401.4595947265624 L -42.840999603271484 401.8489990234374 L -42.72600173950195 402.04098510742176 L -42.560001373291016 402.2030029296874 L -42.34700012207031 402.33200073242176 L -42.090999603271484 402.42401123046864 L -41.98400115966797 402.44378662109364 L -41.79899978637695 402.47799682617176 L -41.47800064086914 402.49200439453114 L -41.13600158691406 402.46600341796864 L -40.959999084472656 402.43319702148426 L -40.78200149536133 402.39999389648426 L -40.42399978637695 402.29598999023426 L -40.27820587158203 402.2384338378905 L -40.071998596191406 402.157012939453 L -39.222999572753906 401.77499389648426 L -38.88399887084961 401.6040039062499 L -38.573341369628906 401.407989501953 L -38.56700134277344 401.40399169921864 L -38.279998779296875 401.1820068359374 L -38.029998779296875 400.94198608398426 L -37.823001861572266 400.69100952148426 L -37.66400146484375 400.43499755859364 L -37.64268493652344 400.38400268554676 L -37.55699920654297 400.178985595703 L -37.505001068115234 399.93099975585926 L -37.50899887084961 399.69601440429676 L -37.569000244140625 399.480010986328 L -37.62046432495117 399.3599853515624 L -37.78300094604492 398.980987548828 L -37.8872184753418 398.8070068359374 L -37.89799880981445 398.78900146484364 L -38.06399917602539 398.62701416015614 L -38.27799987792969 398.49798583984364 L -38.53300094604492 398.4060058593749 L -38.82500076293945 398.35198974609364 L -38.9119987487793 398.34820556640614 L -39.145999908447266 398.3380126953124 L -39.487998962402344 398.3640136718749 L -39.84199905395508 398.42999267578114 L -40.20000076293945 398.53399658203114 L -40.553001403808594 398.6730041503905 L -40.66699981689453 398.7243652343749 L -40.850467681884766 398.8070068359374 L -40.959999084472656 398.8563537597655 L -41.4010009765625 399.05499267578114 L -41.7400016784668 399.22601318359364 L -41.952388763427734 399.3599853515624 L -42.05699920654297 399.42599487304676 L -42.34400177001953 399.64801025390614 L -42.59400177001953 399.886993408203 L -42.671146392822266 399.98092651367176 L -42.80099868774414 400.13900756835926 L -42.815216064453125 400.161895751953 M -32.874000549316406 400.82501220703114 L -32.768001556396484 400.83676147460926 L -32.314998626708984 400.886993408203 L -31.753000259399414 400.8699951171874 L -31.198999404907227 400.7760009765624 L -30.663000106811523 400.605010986328 L -30.1560001373291 400.3609924316405 L -29.68899917602539 400.04901123046864 L -29.268999099731445 399.67498779296864 L -28.905000686645508 399.2460021972655 L -28.627737045288086 398.8070068359374 L -28.604999542236328 398.7709960937499 L -28.37299919128418 398.25799560546864 L -28.21500015258789 397.71798706054676 L -28.155853271484375 397.3120117187499 L -28.134000778198242 397.1619873046874 L -28.131000518798828 396.6000061035155 L -28.207000732421875 396.042999267578 L -28.358999252319336 395.501007080078 L -28.584999084472656 394.9859924316405 L -28.8799991607666 394.50799560546864 L -29.23900032043457 394.07501220703114 L -29.655000686645508 393.69699096679676 L -30.1200008392334 393.3800048828124 L -30.45195198059082 393.21600341796864 L -30.624000549316406 393.1310119628905 L -31.158000946044922 392.9540100097655 L -31.711000442504883 392.8540039062499 L -32.27299880981445 392.83099365234364 L -32.768001556396484 392.88058471679676 L -32.832000732421875 392.886993408203 L -33.37900161743164 393.01998901367176 L -33.87088394165039 393.21600341796864 L -33.9010009765625 393.22799682617176 L -34.38999938964844 393.5069885253905 L -34.83399963378906 393.85101318359364 L -35.22700119018555 394.25299072265614 L -35.560001373291016 394.70599365234364 L -35.82699966430664 395.20098876953114 L -36.02199935913086 395.7290039062499 L -36.14099884033203 396.27801513671864 L -36.183998107910156 396.8389892578124 L -36.15280532836914 397.3120117187499 L -36.14699935913086 397.39999389648426 L -36.03300094604492 397.95001220703114 L -35.84400177001953 398.480010986328 L -35.67196273803711 398.8070068359374 L -35.582000732421875 398.97799682617176 L -35.25400161743164 399.4339904785155 L -34.86600112915039 399.84100341796864 L -34.42499923706055 400.188995361328 L -33.93899917602539 400.47299194335926 L -33.41899871826172 400.68600463867176 L -32.874000549316406 400.82501220703114 M -21.898000717163086 391.38400268554676 L -22.01375961303711 391.3421630859374 L -22.158000946044922 391.29000854492176 L -22.454999923706055 391.2340087890624 L -22.527999877929688 391.23040771484364 L -22.7810001373291 391.21798706054676 L -22.985322952270508 391.23272705078114 L -23.128000259399414 391.24301147460926 L -23.48699951171875 391.3070068359374 L -23.850000381469727 391.40899658203114 L -24.207000732421875 391.5469970703124 L -24.576000213623047 391.70895385742176 L -25.06599998474121 391.92401123046864 L -25.40999984741211 392.0939941406249 L -25.729999542236328 392.2919921874999 L -26.020999908447266 392.51300048828114 L -26.273000717163086 392.75201416015614 L -26.48200035095215 393.00201416015614 L -26.61574935913086 393.21600341796864 L -26.624000549316406 393.22918701171864 L -26.642000198364258 393.25799560546864 L -26.749000549316406 393.51400756835926 L -26.799999237060547 393.761993408203 L -26.795000076293945 393.99798583984364 L -26.732999801635742 394.2149963378905 L -26.624000549316406 394.46322631835926 L -26.51300048828125 394.71600341796864 L -26.395000457763672 394.907989501953 L -26.22599983215332 395.07199096679676 L -26.007999420166016 395.20199584960926 L -25.838315963745117 395.26400756835926 L -25.74799919128418 395.2969970703124 L -25.451000213623047 395.35198974609364 L -25.125 395.36801147460926 L -24.777999877929688 395.3439941406249 L -24.576000213623047 395.3079833984374 L -24.41900062561035 395.27999877929676 L -24.055999755859375 395.178009033203 L -23.698999404907227 395.04000854492176 L -23.413759231567383 394.9149475097655 L -22.839000701904297 394.6629943847655 L -22.527999877929688 394.50885009765614 L -22.496000289916992 394.49301147460926 L -22.174999237060547 394.29501342773426 L -21.885000228881836 394.074005126953 L -21.631999969482422 393.834991455078 L -21.42300033569336 393.584014892578 L -21.263999938964844 393.3280029296874 L -21.217187881469727 393.21600341796864 L -21.156999588012695 393.07199096679676 L -21.104999542236328 392.824005126953 L -21.111000061035156 392.5880126953124 L -21.17300033569336 392.37200927734364 L -21.25188446044922 392.19198608398426 L -21.384567260742188 391.88925170898426 L -21.39299964904785 391.8699951171874 L -21.510000228881836 391.678009033203 L -21.68000030517578 391.51400756835926 L -21.898000717163086 391.38400268554676 M -37.4343147277832 386.32879638671864 L -37.57699966430664 386.4750061035155 L -37.70600128173828 386.6879882812499 L -37.79899978637695 386.9440002441405 L -37.822669982910156 387.07199096679676 L -37.85300064086914 387.2359924316405 L -37.867000579833984 387.5570068359374 L -37.856201171875 387.69378662109364 L -37.84000015258789 387.89898681640614 L -37.77399826049805 388.25299072265614 L -37.66999816894531 388.6109924316405 L -37.53099822998047 388.9630126953124 L -37.46054458618164 389.1199951171874 L -37.150001525878906 389.8120117187499 L -36.97800064086914 390.1510009765624 L -36.86399841308594 390.33261108398426 L -36.77899932861328 390.46798706054676 L -36.555999755859375 390.7550048828124 L -36.31700134277344 391.0050048828124 L -36.183998107910156 391.11468505859364 L -36.119354248046875 391.167999267578 L -36.066001892089844 391.21200561523426 L -35.808998107910156 391.3710021972655 L -35.553001403808594 391.47799682617176 L -35.30500030517578 391.52999877929676 L -35.06999969482422 391.5260009765624 L -34.854000091552734 391.46600341796864 L -34.816001892089844 391.4497070312499 L -34.35499954223633 391.25201416015614 L -34.21548843383789 391.167999267578 L -34.16400146484375 391.136993408203 L -34.00199890136719 390.97100830078114 L -33.87300109863281 390.75799560546864 L -33.779998779296875 390.50201416015614 L -33.72600173950195 390.209991455078 L -33.723121643066406 390.14401245117176 L -33.71200180053711 389.88900756835926 L -33.737998962402344 389.5469970703124 L -33.80400085449219 389.1929931640624 L -33.8252067565918 389.1199951171874 L -33.90800094604492 388.834991455078 L -34.04800033569336 388.48199462890614 L -34.42900085449219 387.63400268554676 L -34.60100173950195 387.29501342773426 L -34.740989685058594 387.07199096679676 L -34.79999923706055 386.97799682617176 L -34.816001892089844 386.957305908203 L -35.02199935913086 386.69100952148426 L -35.262001037597656 386.44100952148426 L -35.51300048828125 386.2340087890624 L -35.77000045776367 386.07501220703114 L -35.84000015258789 386.04562377929676 L -36.025001525878906 385.96798706054676 L -36.183998107910156 385.93478393554676 L -36.27399826049805 385.91598510742176 L -36.50899887084961 385.92001342773426 L -36.7239990234375 385.980010986328 L -36.86399841308594 386.0399169921874 L -37.2239990234375 386.1940002441405 L -37.28221130371094 386.229034423828 L -37.415000915527344 386.3089904785155 L -37.4343147277832 386.32879638671864 M -76.0270004272461 378.7160034179687 L -75.81700134277344 378.72900390624994 L -75.7760009765625 378.72644042968744 L -75.60800170898438 378.7160034179687 L -75.4020004272461 378.67700195312494 L -75.2020034790039 378.6130065917968 L -75.01100158691406 378.52600097656244 L -74.83300018310547 378.4150085449218 L -74.66899871826172 378.2839965820312 L -74.52300262451172 378.1329956054687 L -74.39700317382812 377.9660034179687 L -74.29199981689453 377.7839965820312 L -74.20999908447266 377.5910034179687 L -74.15299987792969 377.3890075683593 L -74.12100219726562 377.18200683593744 L -74.11399841308594 376.9719848632812 L -74.12672424316406 376.8320007324218 L -74.13300323486328 376.7630004882812 L -74.1780014038086 376.55801391601557 L -74.24800109863281 376.35998535156244 L -74.34200286865234 376.17199707031244 L -74.45700073242188 375.9970092773437 L -74.59400177001953 375.83801269531244 L -74.7490005493164 375.6969909667968 L -74.91999816894531 375.5759887695312 L -75.1050033569336 375.4760131835937 L -75.3010025024414 375.3999938964843 L -75.50399780273438 375.34899902343744 L -75.71199798583984 375.32400512695307 L -75.7760009765625 375.32400512695307 L -75.9219970703125 375.32400512695307 L -76.12999725341797 375.34899902343744 L -76.33399963378906 375.3999938964843 L -76.52999877929688 375.4760131835937 L -76.71399688720703 375.5759887695312 L -76.88600158691406 375.6969909667968 L -77.04100036621094 375.83801269531244 L -77.177001953125 375.9970092773437 L -77.29299926757812 376.17199707031244 L -77.38700103759766 376.35998535156244 L -77.45600128173828 376.55801391601557 L -77.5009994506836 376.7630004882812 L -77.50760650634766 376.8320007324218 L -77.52100372314453 376.9719848632812 L -77.51399993896484 377.18200683593744 L -77.48200225830078 377.3890075683593 L -77.42500305175781 377.5910034179687 L -77.34300231933594 377.7839965820312 L -77.30146026611328 377.85598754882807 L -77.23799896240234 377.9660034179687 L -77.11100006103516 378.1329956054687 L -76.96499633789062 378.2839965820312 L -76.802001953125 378.4150085449218 L -76.6240005493164 378.52600097656244 L -76.43299865722656 378.6130065917968 L -76.23300170898438 378.67700195312494 L -76.0270004272461 378.7160034179687 z" fill="none" stroke="rgb(255,0,0)" stroke-width="0.001mm" />
</svg>