<?xml version="1.0" standalone="no"?>
<!DOCTYPE svg PUBLIC "-//W3C//DTD SVG 1.1//EN"
  "http://www.w3.org/Graphics/SVG/1.1/DTD/svg11.dtd">
<svg width="37.10346984863281mm" height="136.92800903320312mm" viewBox="-73.9000015258789 229.49999999999994 37.10346984863281 136.92800903320312" xmlns="http://www.w3.org/2000/svg" version="1.1">
	<title>svgOutput</title>
	<desc>made with tinkercad</desc>
<path d="M -61.768978118896484 237.27439880371088 L -60.44599914550781 235.19660949707026 L -60.315677642822266 234.99192810058588 L -59.25735855102539 233.32978820800776 L -58.52299880981445 232.466567993164 L -56.849998474121094 230.49999999999994 L -55.930999755859375 230.56518554687494 L -52.52399826049805 230.80683898925776 L -51.117000579833984 230.90664672851557 L -50.97100067138672 230.917007446289 L -49.7540168762207 233.3909301757812 L -49.28691101074219 234.3404693603515 L -48.948429107666016 235.02854919433588 L -48.77925109863281 235.37246704101557 L -49.032344818115234 235.67410278320307 L -50.04608917236328 236.88227844238276 L -51.117000579833984 238.15856933593744 L -51.144615173339844 238.19148254394526 L -51.632999420166016 238.7319946289062 L -52.40523147583008 239.778335571289 L -53.452999114990234 241.19799804687494 L -53.554447174072266 241.36862182617182 L -54.21284866333008 242.47592163085932 L -55.676998138427734 244.77099609374994 L -56.191383361816406 245.75999450683588 L -57.849998474121094 248.94900512695307 L -59.805999755859375 253.55200195312494 L -60.44599914550781 255.40684509277338 L -61.525001525878906 258.5339965820312 L -62.52090835571289 262.1440124511718 L -62.99100112915039 263.8479919433593 L -64.18900299072266 269.4419860839843 L -65.10900115966797 275.2630004882812 L -65.53600311279297 279.31140136718744 L -65.74099731445312 281.25500488281244 L -66.0790023803711 287.35998535156244 L -66.12100219726562 293.5190124511718 L -65.86399841308594 299.67199707031244 L -65.53600311279297 303.29727172851557 L -65.31300354003906 305.76199340820307 L -64.47200012207031 311.7279968261718 L -63.349998474121094 317.5130004882812 L -61.957000732421875 323.06201171874994 L -60.50838851928711 327.6799926757812 L -60.44599914550781 327.8788757324218 L -60.30699920654297 328.3219909667968 L -58.415000915527344 333.24099731445307 L -56.29999923706055 337.7730102539062 L -55.4697380065918 339.2415466308593 L -54.56578063964844 340.8404235839843 L -54.32099914550781 341.3580017089843 L -53.48093795776367 342.75927734374994 L -52.6987419128418 344.06399536132807 L -52.387001037597656 344.58401489257807 L -51.117000579833984 346.2962341308593 L -50.14699935913086 347.60400390624994 L -49.690101623535156 348.1080932617187 L -49.557159423828125 348.25479125976557 L -49.50299835205078 348.33300781249994 L -48.914207458496094 349.0292358398437 L -47.415000915527344 350.80200195312494 L -45.111000061035156 353.0400085449218 L -45.00193405151367 353.1266784667968 L -44.33527374267578 353.6564331054687 L -42.612998962402344 355.0249938964843 L -39.94499969482422 356.7369995117187 L -38.28540802001953 357.5783081054687 L -37.796531677246094 357.9846801757812 L -37.82120132446289 358.0997924804687 L -37.95542907714844 358.72607421874994 L -38.17974090576172 359.77270507812494 L -38.38833999633789 360.74600219726557 L -38.928001403808594 363.2640075683593 L -45.67499923706055 365.42800903320307 L -49.994407653808594 362.3118591308593 L -51.07502365112305 361.3061218261718 L -51.117000579833984 361.2670593261718 L -51.99705123901367 360.44799804687494 L -52.706687927246094 359.7875366210937 L -54.113155364990234 358.13305664062494 L -55.04999923706055 357.03100585937494 L -58.09700012207031 352.60501098632807 L -58.84600067138672 351.27981567382807 L -60.44599914550781 348.4489440917968 L -60.92300033569336 347.60501098632807 L -62.576236724853516 344.06399536132807 L -63.50299835205078 342.07901000976557 L -65.53600311279297 336.79248046874994 L -65.80999755859375 336.07998657226557 L -67.8219985961914 329.6659851074218 L -68.32062530517578 327.6799926757812 L -69.52100372314453 322.8989868164062 L -69.9177017211914 320.8543395996093 L -70.88999938964844 315.8429870605468 L -71.91500091552734 308.5669860839843 L -72.58699798583984 301.14099121093744 L -72.9000015258789 293.63699340820307 L -72.8489990234375 286.12600708007807 L -72.43699645996094 278.68200683593744 L -71.66600036621094 271.3739929199218 L -70.54399871826172 264.2749938964843 L -70.0876235961914 262.1440124511718 L -69.08300018310547 257.45300292968744 L -67.29499816894531 250.97300720214838 L -65.53600311279297 245.8739166259765 L -65.4967041015625 245.75999450683588 L -65.1989974975586 244.89700317382807 L -64.50700378417969 243.26841735839838 L -62.81399917602539 239.2839965820312 L -62.04704666137695 237.8091430664062 L -61.768978118896484 237.27439880371088 M -54.4370002746582 236.38699340820307 L -54.22800064086914 236.39999389648432 L -54.018001556396484 236.38699340820307 L -53.8120002746582 236.34899902343744 L -53.61199951171875 236.28500366210932 L -53.42100143432617 236.19700622558588 L -53.24800109863281 236.09008789062494 L -53.24300003051758 236.08700561523432 L -53.08000183105469 235.95500183105463 L -52.933998107910156 235.8049926757812 L -52.80699920654297 235.63699340820307 L -52.73912811279297 235.52000427246088 L -52.70199966430664 235.4559936523437 L -52.619998931884766 235.26199340820307 L -52.5629997253418 235.06100463867182 L -52.53099822998047 234.85299682617182 L -52.52399826049805 234.64399719238276 L -52.54399871826172 234.4349975585937 L -52.548377990722656 234.415054321289 L -52.5890007019043 234.229995727539 L -52.65800094604492 234.031997680664 L -52.75199890136719 233.84399414062494 L -52.86800003051758 233.6690063476562 L -53.00400161743164 233.50999450683588 L -53.04547882080078 233.47200012207026 L -53.159000396728516 233.36799621582026 L -53.24800109863281 233.30538940429682 L -53.33100128173828 233.24699401855463 L -53.51499938964844 233.14799499511713 L -53.71099853515625 233.07200622558588 L -53.91400146484375 233.02099609374994 L -54.12300109863281 232.99499511718744 L -54.33300018310547 232.99499511718744 L -54.54100036621094 233.02099609374994 L -54.74399948120117 233.07200622558588 L -54.939998626708984 233.14799499511713 L -55.125 233.24699401855463 L -55.29600143432617 233.36799621582026 L -55.409523010253906 233.47200012207026 L -55.45100021362305 233.50999450683588 L -55.5880012512207 233.6690063476562 L -55.702999114990234 233.84399414062494 L -55.797000885009766 234.031997680664 L -55.867000579833984 234.229995727539 L -55.9119987487793 234.4349975585937 L -55.930999755859375 234.64399719238276 L -55.92399978637695 234.85299682617182 L -55.891998291015625 235.06100463867182 L -55.834999084472656 235.26199340820307 L -55.75299835205078 235.4559936523437 L -55.71587371826172 235.52000427246088 L -55.68912124633789 235.56611633300776 L -55.64799880981445 235.63699340820307 L -55.52199935913086 235.8049926757812 L -55.375999450683594 235.95500183105463 L -55.21200180053711 236.08700561523432 L -55.034000396728516 236.19700622558588 L -54.84299850463867 236.28500366210932 L -54.643001556396484 236.34899902343744 L -54.4370002746582 236.38699340820307 M -43.45000076293945 358.5809936523437 L -43.48973083496094 358.3999938964843 L -43.494998931884766 358.37600708007807 L -43.564998626708984 358.17800903320307 L -43.65800094604492 357.98999023437494 L -43.77399826049805 357.8150024414062 L -43.90999984741211 357.65600585937494 L -44.066001892089844 357.5140075683593 L -44.23699951171875 357.3930053710937 L -44.422000885009766 357.2940063476562 L -44.617000579833984 357.2179870605468 L -44.82099914550781 357.16699218749994 L -44.92353057861328 357.15417480468744 L -45.02899932861328 357.14099121093744 L -45.055999755859375 357.14099121093744 L -45.23899841308594 357.14099121093744 L -45.446998596191406 357.16699218749994 L -45.6510009765625 357.2179870605468 L -45.84600067138672 357.2940063476562 L -46.03099822998047 357.3930053710937 L -46.20199966430664 357.5140075683593 L -46.356998443603516 357.65600585937494 L -46.385154724121094 357.6886596679687 L -46.49399948120117 357.8150024414062 L -46.61000061035156 357.98999023437494 L -46.702999114990234 358.17800903320307 L -46.77299880981445 358.37600708007807 L -46.77826690673828 358.3999938964843 L -46.81800079345703 358.5809936523437 L -46.83700180053711 358.7890014648437 L -46.83100128173828 358.9989929199218 L -46.79899978637695 359.2059936523437 L -46.74100112915039 359.40798950195307 L -46.659000396728516 359.6019897460937 L -46.55400085449219 359.78298950195307 L -46.428001403808594 359.9509887695312 L -46.28200149536133 360.1010131835937 L -46.11800003051758 360.2330017089843 L -45.939998626708984 360.3429870605468 L -45.749000549316406 360.4309997558593 L -45.69614028930664 360.44799804687494 L -45.54999923706055 360.49499511718744 L -45.34299850463867 360.53298950195307 L -45.13399887084961 360.5459899902343 L -45.124656677246094 360.54541015624994 L -45.055999755859375 360.54116821289057 L -44.92399978637695 360.53298950195307 L -44.71799850463867 360.49499511718744 L -44.57112503051758 360.44799804687494 L -44.518001556396484 360.4309997558593 L -44.327999114990234 360.3429870605468 L -44.14899826049805 360.2330017089843 L -43.986000061035156 360.1010131835937 L -43.84000015258789 359.9509887695312 L -43.7130012512207 359.78298950195307 L -43.608001708984375 359.6019897460937 L -43.584930419921875 359.54675292968744 L -43.527000427246094 359.40798950195307 L -43.46900177001953 359.2059936523437 L -43.4370002746582 358.9989929199218 L -43.430999755859375 358.7890014648437 L -43.45000076293945 358.5809936523437 z" fill="none" stroke="rgb(255,0,0)" stroke-width="0.001mm" />
</svg>