<svg id="Layer_1" data-name="Layer 1" xmlns="http://www.w3.org/2000/svg" viewBox="0 0 85.0503 96.7656"><defs><style>.cls-1{fill:none;stroke:red;stroke-miterlimit:11.3386;stroke-width:0.008px;}</style></defs><path class="cls-1" d="M74.3107,5.0311l-.0011.0014V6.585l.41-.001L84.67,6.5589,74.31,25.1258,55.6631,58.5444,39.0855,88.2551l-1.6214,2.906-6.6673.0167-1.4715.0037-.3191.0009-.2819.0006v1.4684l.1611.2179.2314.4527.1376.46.0442.4625-.0522.4644-.1457.4579-.2393.4487-.1362.1777-.0009.0012V97.04L16.2914,97.04l-6.2169,0h0v-1.372l-.159-.2169-.2314-.4527-.1406-.46-.0412-.4652.0493-.4617L9.7,93.1525l.2392-.4486.1351-.1777V91.23l-.5473.0013-9.8936.025,2.3989-4.2993,2.4952-4.472,7.6664-13.74-.148-.1229-9.58-7.9511.0012-23.5284,9.9255-8.2382.3626-.3009L14.22,27.3875V6.559h2.0705V4.88l-.19-.3286L15.92,4.0989l-.1032-.446-.0028-.014-.036-.4652.0441-.4616.114-.4583.1882-.449.1663-.2761,0-.0376V.8193l0-.2424V.2839L30.7961.2828v1.32l.19.3317.18.4523.1094.46.0328.4623-.0409.4646-.004.0138-.1139.4441-.1881.4491-.1657.2778,0,.0385v1.56l.4838,0h1.5875l0,25.1368,6.8184-12.22.3946-.7065L46.26,7.6912l.4233-.7588.1556-.2786,8.252-.0208.3121-.0008.2594-.0006V5.69l0-.5378.0008-.0873L55.53,4.8672,55.3013,4.38l-.1379-.4973L55.12,3.3809l.0526-.5012.146-.4948.2368-.4855.1076-.1525V.2845L74.31.2829V2.0061l0,.0171.027.04.231.49.1374.4972.041.5021-.05.5014-.0334.1131-.1126.3817-.24.4827M32.1089,50.8778l.1442-.2849.1189-.3165.01-.0339.0813-.2912.0567-.334.0256-.3371-.0083-.3375-.0425-.3348-.0736-.33-.1049-.3209-.1391-.31-.0394-.07-.1257-.2238L32,47.3367l-.1839-.26-.0484-.0561-.1733-.2015-.2446-.2322-.2646-.2063-.1312-.0825-.1382-.087L30.797,46.2l-.0013-.0008-.3006-.152-.3136-.1219-.328-.0907-.1558-.0267-.1754-.03-.3371-.0256-.34.0084-.3349.0423-.3294.0738-.321.1078-.3073.1362-.1086.0614-.1877.1061-.2739.196-.07.06-.1237.1054-.0629.0535-.2321.2446-.2093.2675L26.21,47.33l-.1077.1691-.049.0987-.101.2033-.1219.3164-.0906.3252-.0568.334-.0257.3371.0085.3375.0424.3347.0737.33.0222.0682.0827.253.139.31.1646.2934.1961.2767.2217.2572.135.1277.11.1039.2675.2064.0087.0056.276.1755.1425.0722.1593.0807.3164.1218.3253.0907.334.0568.3371.0256.3374-.0083.2809-.0357.0539-.0068.3295-.0736.321-.1078.2634-.1167.044-.02.1451-.0821.1507-.0855.2214-.1545.0551-.0387.2543-.2216.2346-.2446.2065-.2675.013-.0205.1679-.2643.0088-.017m13.7734.0662.1385-.2735.1185-.308.0033-.0083.0879-.3254.06-.3339.0229-.3372-.0085-.3374-.04-.3348-.0764-.3324-.1051-.3184-.1362-.31L45.91,47.66l-.1166-.2041-.0146-.0256-.1961-.2767-.0249-.0295-.1922-.2265-.2474-.2322-.2647-.2093-.0687-.0426-.2188-.1356-.131-.0665-.171-.0865-.0537-.02-.26-.1009-.3281-.0908-.3311-.0567-.3372-.0256-.3374.0083-.3376.0425-.33.0736-.3209.1078-.276.1222-.0314.0139-.0142.0082-.2792.1594-.2207.1542-.056.039-.2571.2217-.2321.2446-.2092.2675-.002.0028-.07.11-.1093.1718-.0433.0873-.1068.2148-.1218.3165-.0908.3251-.0567.334-.0256.3372.0083.3373.0425.335.0736.3294.0373.1109.07.2106.1362.31.0056.01.162.2838.1931.2766.2217.2541.2446.2346.2675.2065.0731.0465.2026.1289.009.0057.0791.04.1494.0754.074.0374.3165.1219.3252.0878.3339.06.3372.023.3374-.0085.3349-.0395.3294-.0738.321-.1072.0426-.0188.1283-.0563.1393-.0612.0978-.0557.1956-.1117.2767-.1961.0705-.06.184-.1584.2345-.2446.2065-.2675.0846-.133.0965-.1517.0144-.0285m-31.92,1.2688.1046.052.1518.0755.0456.0226.3165.1219.3252.0907.218.0371.116.02.3371.0255.3374-.0083.3349-.0424.04-.009.2891-.0647.3209-.1049.3039-.1363.0063-.0027.2934-.1648.2593-.1837.0174-.0123.2542-.2192.0029-.0024.2321-.2447.2065-.2674.0418-.0659.1249-.1963.0144-.0227.1526-.3019.0087-.0226.1131-.2939.0465-.1668.0442-.1583.0568-.3312.026-.3378-.0113-.34-.04-.3349-.0737-.3294-.1072-.321-.0306-.0689-.1059-.239-.0642-.1135-.1033-.1828-.1087-.1509-.0878-.1228-.0641-.0751-.1548-.1814-.2446-.2345-.2675-.2065L17.49,46.3l-.1317-.0838-.0052-.0035-.2961-.1472L16.74,45.944l-.3252-.0907-.1235-.0211-.21-.0357-.3371-.0256-.3374.0084-.2213.028-.1136.0144-.3294.0737L14.4211,46l-.2008.09-.11.0491-.08.0446-.2138.12L13.54,46.5l-.0346.03-.2225.1918-.2321.2446-.1581.2028-.0483.0619-.0443.07-.1368.2172-.075.1482-.0779.1538-.1218.3135-.0907.328-.0568.3313-.0256.337.0084.34.0424.3348.0584.2613.0153.0682.1077.3209.114.2571.0222.05.1675.2963L12.9,51.27l.0445.0631.2216.257.2446.2322.2516.1968.0159.0124.2847.181m4.8091-16.0615.0331.0988.1362.3074.1675.2933.1632.2342.0306.0438.2216.2571.2446.2321.26.2038.0071.0056.2847.1811.1743.0865.1277.0635.3165.1218.1159.0324.2095.0583.334.0567.3371.0257.3374-.0084.3349-.0425.3294-.0736.321-.1078.2279-.1.0823-.0361.2935-.1674.1-.07.0905-.063.0866-.06.2542-.2217.2346-.2447.2023-.2624.0039-.0051.181-.2846.0058-.0115.1471-.2906.1218-.3164.0879-.3252.0166-.0933.043-.2407.023-.3371-.0084-.3374-.04-.3348-.0765-.33-.1049-.3209-.1362-.31-.0447-.0783-.1228-.2153-.196-.2766-.0472-.0547-.0635-.0739-.1082-.1255-.248-.2347L24,32.1921l-.242-.1522-.0456-.0288-.302-.1526-.3135-.1218-.3281-.0879-.3312-.06-.3371-.0229-.3375.0084-.3377.0425-.3124.07-.017.0039-.3209.1049-.3074.139-.1343.0754-.1591.0894-.2767.196-.0928.08-.1643.1417-.1864.1967-.0453.0478-.2092.2647-.1812.2875-.049.0988-.101.2032-.0754.1943-.0465.12-.0906.328-.0568.3311-.0257.3372.0085.3374.0424.3377.0019.0086.0718.3206Z" transform="translate(0.3734 -0.2788)"/></svg>