<?xml version="1.0" standalone="no"?>
<!DOCTYPE svg PUBLIC "-//W3C//DTD SVG 1.1//EN"
  "http://www.w3.org/Graphics/SVG/1.1/DTD/svg11.dtd">
<svg width="31.73699951171875mm" height="36.329986572265625mm" viewBox="20.277999877929688 388.79901123046864 31.73699951171875 36.329986572265625" xmlns="http://www.w3.org/2000/svg" version="1.1">
	<title>svgOutput</title>
	<desc>yellowjacket</desc>
<path d="M 47.35599899291992 391.4739990234374 L 47.35563659667969 391.47454833984364 L 47.35599136352539 391.51522827148426 L 47.35651779174805 391.5755920410155 L 47.35714340209961 391.6470947265624 L 47.35786819458008 391.7301025390624 L 47.35860824584961 391.81466674804676 L 47.35944366455078 391.91033935546864 L 47.36037063598633 392.0167541503905 L 47.36042022705078 392.02206420898426 L 47.505001068115234 392.02044677734364 L 51.01499938964844 391.980987548828 L 47.41754913330078 398.56271362304676 L 40.94252014160156 410.40911865234364 L 35.18600082397461 420.940948486328 L 34.62300109863281 421.97100830078114 L 32.271080017089844 421.9974365234374 L 31.75200080871582 422.00326538085926 L 31.63941764831543 422.0045471191405 L 31.53995704650879 422.005645751953 L 31.542503356933594 422.29730224609364 L 31.544179916381836 422.48922729492176 L 31.544479370117188 422.52365112304676 L 31.601999282836914 422.6000061035155 L 31.684999465942383 422.75900268554676 L 31.735000610351562 422.92098999023426 L 31.75200080871582 423.084014892578 L 31.735000610351562 423.24798583984364 L 31.684999465942383 423.41000366210926 L 31.601999282836914 423.5690002441405 L 31.554466247558594 423.632110595703 L 31.554162979125977 423.63250732421864 L 31.55434799194336 423.6537170410155 L 31.55474281311035 423.6989746093749 L 31.556812286376953 423.93600463867176 L 31.558000564575195 424.07199096679676 L 27.17214012145996 424.1099853515624 L 24.9790096282959 424.12899780273426 L 24.979000091552734 424.12899780273426 L 24.977313995361328 423.93600463867176 L 24.97665023803711 423.85995483398426 L 24.97506332397461 423.67831420898426 L 24.97477149963379 423.6450195312499 L 24.917999267578125 423.5690002441405 L 24.834999084472656 423.41000366210926 L 24.784000396728516 423.24798583984364 L 24.76799964904785 423.084014892578 L 24.784000396728516 422.92098999023426 L 24.834999084472656 422.75900268554676 L 24.917999267578125 422.6000061035155 L 24.9650936126709 422.53692626953114 L 24.96489715576172 422.5145568847655 L 24.964513778686523 422.47064208984364 L 24.963973999023438 422.40875244140614 L 24.963394165039062 422.34246826171864 L 24.962665557861328 422.2590332031249 L 24.961097717285156 422.0795898437499 L 24.76799964904785 422.08175659179676 L 21.277999877929688 422.1210021972655 L 22.111000061035156 420.59698486328114 L 22.977460861206055 419.011749267578 L 25.639585494995117 414.1412658691405 L 25.586999893188477 414.0983886718749 L 22.183000564575195 411.3229980468749 L 22.111000061035156 403.02301025390614 L 25.586999893188477 400.0863037109374 L 25.714000701904297 399.9790039062499 L 26.227073669433594 399.5455322265624 L 26.214723587036133 398.1293945312499 L 26.163000106811523 392.1979980468749 L 26.70199966430664 392.1932373046874 L 26.893335342407227 392.1915588378905 L 26.890689849853516 391.88864135742176 L 26.888620376586914 391.6518554687499 L 26.88816261291504 391.5993652343749 L 26.81999969482422 391.4840087890624 L 26.7549991607666 391.32501220703114 L 26.71720314025879 391.167999267578 L 26.715999603271484 391.1629943847655 L 26.70199966430664 390.99899291992176 L 26.715999603271484 390.83599853515614 L 26.7549991607666 390.67401123046864 L 26.81999969482422 390.5150146484374 L 26.877836227416992 390.4171142578124 L 26.87771987915039 390.403839111328 L 26.877378463745117 390.36483764648426 L 26.876874923706055 390.30709838867176 L 26.876312255859375 390.24276733398426 L 26.87565040588379 390.1668701171874 L 26.874902725219727 390.081329345703 L 26.87417984008789 389.99850463867176 L 26.874000549316406 389.97799682617176 L 31.990999221801758 389.9330139160155 L 31.992685317993164 390.1259765624999 L 31.9946231842041 390.34774780273426 L 31.995067596435547 390.39877319335926 L 32.0629997253418 390.5150146484374 L 32.12799835205078 390.67401123046864 L 32.167999267578125 390.83599853515614 L 32.180999755859375 390.99899291992176 L 32.167999267578125 391.1629943847655 L 32.16676712036133 391.167999267578 L 32.12799835205078 391.32501220703114 L 32.0629997253418 391.4840087890624 L 32.005409240722656 391.582550048828 L 32.00552749633789 391.59613037109364 L 32.00588607788086 391.63705444335926 L 32.0063362121582 391.68893432617176 L 32.00693130493164 391.75689697265614 L 32.00758361816406 391.8315429687499 L 32.008296966552734 391.9132080078124 L 32.009117126464844 392.0069580078124 L 32.00995635986328 392.1031494140624 L 32.01033401489258 392.14645385742176 L 32.180999755859375 392.1449279785155 L 32.74100112915039 392.1400146484374 L 32.81832504272461 401.00738525390614 L 35.18600082397461 396.67559814453114 L 35.323001861572266 396.4249572753905 L 37.46900177001953 392.49874877929676 L 37.61600112915039 392.22979736328114 L 37.66999816894531 392.1310119628905 L 40.58100128173828 392.0982666015624 L 40.691070556640625 392.0970458984374 L 40.78255844116211 392.09600830078114 L 40.77965545654297 391.7637939453124 L 40.77799987792969 391.5740966796874 L 40.77772903442383 391.54330444335926 L 40.72999954223633 391.4739990234374 L 40.64799880981445 391.303009033203 L 40.597999572753906 391.12799072265614 L 40.58100128173828 390.95098876953114 L 40.597999572753906 390.77398681640614 L 40.64799880981445 390.5989990234374 L 40.72999954223633 390.4270019531249 L 40.76750564575195 390.37286376953114 L 40.767276763916016 390.34677124023426 L 40.76300048828125 389.85699462890614 L 47.340999603271484 389.79901123046864 L 47.34511947631836 390.2704162597655 L 47.346309661865234 390.40692138671864 L 47.34636306762695 390.4129638671874 L 47.35599899291992 390.4270019531249 L 47.43899917602539 390.5989990234374 L 47.48899841308594 390.77398681640614 L 47.505001068115234 390.95098876953114 L 47.48899841308594 391.12799072265614 L 47.477569580078125 391.167999267578 L 47.43899917602539 391.303009033203 L 47.35599899291992 391.4739990234374 M 32.61000061035156 407.77694702148426 L 32.65999984741211 407.67599487304676 L 32.70100021362305 407.563995361328 L 32.7042350769043 407.5520019531249 L 32.731998443603516 407.449005126953 L 32.750999450683594 407.33099365234364 L 32.75899887084961 407.21200561523426 L 32.755001068115234 407.09298706054676 L 32.73899841308594 406.9750061035155 L 32.71200180053711 406.8590087890624 L 32.67399978637695 406.7460021972655 L 32.624000549316406 406.636993408203 L 32.61000061035156 406.6125488281249 L 32.564998626708984 406.53399658203114 L 32.5606689453125 406.52801513671864 L 32.494998931884766 406.4370117187499 L 32.47775650024414 406.4173583984374 L 32.41600036621094 406.34698486328114 L 32.32899856567383 406.2659912109374 L 32.23500061035156 406.1940002441405 L 32.1884880065918 406.1652832031249 L 32.13947677612305 406.1350097656249 L 32.132999420166016 406.1310119628905 L 32.132484436035156 406.1307373046874 L 32.0260009765625 406.0780029296874 L 31.915000915527344 406.0360107421874 L 31.798999786376953 406.0050048828124 L 31.743999481201172 405.99606323242176 L 31.68199920654297 405.9859924316405 L 31.562999725341797 405.97799682617176 L 31.44300079345703 405.98199462890614 L 31.325000762939453 405.99798583984364 L 31.208999633789062 406.02499389648426 L 31.09600067138672 406.063995361328 L 30.988000869750977 406.11300659179676 L 30.949867248535156 406.1350097656249 L 30.884000778198242 406.1730041503905 L 30.788000106811523 406.24301147460926 L 30.76334571838379 406.26437377929676 L 30.719999313354492 406.30194091796864 L 30.697999954223633 406.32101440429676 L 30.617000579833984 406.407989501953 L 30.54400062561035 406.50299072265614 L 30.51847267150879 406.54391479492176 L 30.481000900268555 406.6040039062499 L 30.464000701904297 406.63897705078114 L 30.429000854492188 406.71099853515614 L 30.386999130249023 406.8229980468749 L 30.356000900268555 406.9379882812499 L 30.336999893188477 407.05599975585926 L 30.32900047302246 407.17498779296864 L 30.33300018310547 407.29400634765614 L 30.349000930786133 407.4119873046874 L 30.375999450683594 407.52801513671864 L 30.384071350097656 407.5520019531249 L 30.413999557495117 407.6409912109374 L 30.464000701904297 407.7499999999999 L 30.523000717163086 407.85299682617176 L 30.593000411987305 407.95001220703114 L 30.672000885009766 408.04000854492176 L 30.719999313354492 408.08468627929676 L 30.759000778198242 408.1210021972655 L 30.854000091552734 408.1929931640624 L 30.857105255126953 408.1949462890624 L 30.954999923706055 408.2560119628905 L 31.00547218322754 408.2810058593749 L 31.062000274658203 408.3089904785155 L 31.173999786376953 408.35101318359364 L 31.288999557495117 408.3819885253905 L 31.406999588012695 408.4010009765624 L 31.525999069213867 408.40899658203114 L 31.645000457763672 408.40499877929676 L 31.743999481201172 408.39157104492176 L 31.76300048828125 408.38900756835926 L 31.878999710083008 408.36199951171864 L 31.992000579833984 408.3229980468749 L 32.084571838378906 408.2810058593749 L 32.099998474121094 408.27398681640614 L 32.15095138549805 408.24459838867176 L 32.20399856567383 408.2139892578124 L 32.281654357910156 408.15875244140614 L 32.30099868774414 408.14498901367176 L 32.38999938964844 408.06600952148426 L 32.47200012207031 407.9790039062499 L 32.54399871826172 407.88400268554676 L 32.548553466796875 407.8767089843749 L 32.606998443603516 407.782989501953 L 32.61000061035156 407.77694702148426 M 37.46900177001953 407.75790405273426 L 37.516998291015625 407.6610107421874 L 37.55787658691406 407.5520019531249 L 37.558998107910156 407.54901123046864 L 37.5890007019043 407.4339904785155 L 37.60900115966797 407.31600952148426 L 37.61600112915039 407.19699096679676 L 37.61199951171875 407.0780029296874 L 37.59700012207031 406.959991455078 L 37.569000244140625 406.84298706054676 L 37.53099822998047 406.730987548828 L 37.481998443603516 406.62200927734364 L 37.46900177001953 406.59967041015614 L 37.427242279052734 406.52801513671864 L 37.422000885009766 406.51901245117176 L 37.35200119018555 406.4219970703124 L 37.34307861328125 406.41171264648426 L 37.27399826049805 406.33200073242176 L 37.18600082397461 406.251007080078 L 37.09199905395508 406.178009033203 L 37.06760025024414 406.16317749023426 L 36.9900016784668 406.115997314453 L 36.943565368652344 406.09298706054676 L 36.882999420166016 406.0629882812499 L 36.86399841308594 406.0558166503905 L 36.77199935913086 406.0209960937499 L 36.65599822998047 405.9899902343749 L 36.53900146484375 405.97100830078114 L 36.41999816894531 405.9630126953124 L 36.30099868774414 405.96701049804676 L 36.18199920654297 405.98300170898426 L 36.066001892089844 406.0100097656249 L 35.952999114990234 406.04901123046864 L 35.856021881103516 406.09298706054676 L 35.845001220703125 406.09799194335926 L 35.84000015258789 406.10092163085926 L 35.742000579833984 406.157989501953 L 35.66463851928711 406.2130432128905 L 35.64500045776367 406.22698974609364 L 35.55500030517578 406.30599975585926 L 35.4739990234375 406.39300537109364 L 35.4010009765625 406.48800659179676 L 35.40036392211914 406.4890136718749 L 35.37604904174805 406.52801513671864 L 35.3380012512207 406.5889892578124 L 35.323001861572266 406.6198730468749 L 35.2859992980957 406.69601440429676 L 35.24399948120117 406.8080139160155 L 35.2130012512207 406.9230041503905 L 35.194000244140625 407.04098510742176 L 35.18600082397461 407.16000366210926 L 35.189998626708984 407.27899169921864 L 35.20600128173828 407.397003173828 L 35.233001708984375 407.51300048828114 L 35.2464599609375 407.5520019531249 L 35.27199935913086 407.626007080078 L 35.32099914550781 407.7349853515624 L 35.323001861572266 407.7384338378905 L 35.38100051879883 407.8380126953124 L 35.45000076293945 407.93499755859364 L 35.52899932861328 408.02398681640614 L 35.61600112915039 408.105987548828 L 35.71099853515625 408.178009033203 L 35.7369499206543 408.19418334960926 L 35.80879211425781 408.2390136718749 L 35.8120002746582 408.240997314453 L 35.84000015258789 408.2548828124999 L 35.89275360107422 408.2810058593749 L 35.91899871826172 408.29400634765614 L 36.03099822998047 408.33599853515614 L 36.145999908447266 408.365997314453 L 36.263999938964844 408.3859863281249 L 36.382999420166016 408.39300537109364 L 36.50199890136719 408.38900756835926 L 36.619998931884766 408.37399291992176 L 36.736000061035156 408.34698486328114 L 36.8489990234375 408.3080139160155 L 36.86399841308594 408.3012695312499 L 36.909061431884766 408.2810058593749 L 36.95800018310547 408.25900268554676 L 36.992332458496094 408.2390136718749 L 37.06100082397461 408.199005126953 L 37.15800094604492 408.12899780273426 L 37.18259811401367 408.107452392578 L 37.24700164794922 408.05099487304676 L 37.32899856567383 407.9639892578124 L 37.4010009765625 407.86898803710926 L 37.430442810058594 407.821807861328 L 37.4640007019043 407.76800537109364 L 37.46900177001953 407.75790405273426 M 26.21299934387207 408.303985595703 L 26.250038146972656 408.32199096679676 L 26.303834915161133 408.3481445312499 L 26.31999969482422 408.355987548828 L 26.43199920654297 408.39801025390614 L 26.547000885009766 408.428985595703 L 26.624000549316406 408.4414062499999 L 26.665000915527344 408.4479980468749 L 26.784000396728516 408.45599365234364 L 26.902999877929688 408.45199584960926 L 27.020999908447266 408.43600463867176 L 27.035200119018555 408.43270874023426 L 27.136999130249023 408.40899658203114 L 27.25 408.3710021972655 L 27.35681915283203 408.32199096679676 L 27.358999252319336 408.32101440429676 L 27.461999893188477 408.261993408203 L 27.552907943725586 408.19638061523426 L 27.55900001525879 408.19198608398426 L 27.648000717163086 408.1138916015624 L 27.64900016784668 408.11300659179676 L 27.729999542236328 408.0260009765624 L 27.802000045776367 407.93099975585926 L 27.816566467285156 407.90765380859364 L 27.860000610351562 407.8380126953124 L 27.864999771118164 407.8299865722655 L 27.917999267578125 407.72299194335926 L 27.92099952697754 407.7149963378905 L 27.959999084472656 407.6109924316405 L 27.97590446472168 407.5520019531249 L 27.990999221801758 407.4960021972655 L 28.010000228881836 407.37899780273426 L 28.01799964904785 407.2600097656249 L 28.01300048828125 407.1400146484374 L 27.99799919128418 407.022003173828 L 27.97100067138672 406.9060058593749 L 27.93199920654297 406.792999267578 L 27.92099952697754 406.76876831054676 L 27.882999420166016 406.68499755859364 L 27.860000610351562 406.6451416015624 L 27.822999954223633 406.58099365234364 L 27.784353256225586 406.52801513671864 L 27.753000259399414 406.4849853515624 L 27.73016929626465 406.4586486816405 L 27.674999237060547 406.39498901367176 L 27.58799934387207 406.3129882812499 L 27.493000030517578 406.240997314453 L 27.438705444335938 406.20712280273426 L 27.392000198364258 406.178009033203 L 27.389942169189453 406.1770019531249 L 27.28499984741211 406.126007080078 L 27.17300033569336 406.084014892578 L 27.058000564575195 406.053009033203 L 27.014352798461914 406.04595947265614 L 26.940000534057617 406.03399658203114 L 26.820999145507812 406.0260009765624 L 26.70199966430664 406.02999877929676 L 26.624000549316406 406.04058837890614 L 26.583999633789062 406.04598999023426 L 26.468000411987305 406.0729980468749 L 26.354999542236328 406.1109924316405 L 26.284608840942383 406.14328002929676 L 26.246000289916992 406.1610107421874 L 26.218067169189453 406.1770019531249 L 26.14299964904785 406.220001220703 L 26.04599952697754 406.29000854492176 L 26.033870697021484 406.3006591796874 L 25.95599937438965 406.36898803710926 L 25.875 406.45599365234364 L 25.81985092163086 406.52801513671864 L 25.80299949645996 406.54998779296864 L 25.787561416625977 406.574981689453 L 25.739999771118164 406.6520080566405 L 25.714000701904297 406.7044982910155 L 25.687000274658203 406.75900268554676 L 25.645000457763672 406.8699951171874 L 25.61400032043457 406.9859924316405 L 25.594999313354492 407.10299682617176 L 25.586999893188477 407.22198486328114 L 25.590999603271484 407.34201049804676 L 25.60700035095215 407.459991455078 L 25.628414154052734 407.5520019531249 L 25.634000778198242 407.57598876953114 L 25.67300033569336 407.688995361328 L 25.714000701904297 407.77935791015614 L 25.722000122070312 407.7969970703124 L 25.781999588012695 407.9010009765624 L 25.835119247436523 407.97491455078114 L 25.85099983215332 407.99700927734364 L 25.93000030517578 408.08700561523426 L 26.017000198364258 408.167999267578 L 26.106348037719727 408.23666381835926 L 26.11199951171875 408.240997314453 L 26.21299934387207 408.303985595703 M 27.860000610351562 402.62322998046864 L 27.871999740600586 402.657989501953 L 27.92099952697754 402.7659912109374 L 27.981000900268555 402.86898803710926 L 28.039085388183594 402.95065307617176 L 28.049999237060547 402.96600341796864 L 28.128999710083008 403.05599975585926 L 28.215999603271484 403.136993408203 L 28.308469772338867 403.20806884765614 L 28.31100082397461 403.209991455078 L 28.41200065612793 403.27301025390614 L 28.473730087280273 403.303009033203 L 28.518999099731445 403.32501220703114 L 28.631000518798828 403.36700439453114 L 28.672000885009766 403.3780517578124 L 28.746000289916992 403.39801025390614 L 28.86400032043457 403.4169921874999 L 28.982999801635742 403.42498779296864 L 29.101999282836914 403.42098999023426 L 29.219999313354492 403.40499877929676 L 29.336000442504883 403.37799072265614 L 29.448999404907227 403.3389892578124 L 29.529081344604492 403.303009033203 L 29.558000564575195 403.29000854492176 L 29.660999298095703 403.230010986328 L 29.695999145507812 403.205108642578 L 29.72764778137207 403.18258666992176 L 29.757999420166016 403.1610107421874 L 29.847000122070312 403.08200073242176 L 29.929000854492188 402.9949951171874 L 29.99966049194336 402.9017639160155 L 30.000999450683594 402.89999389648426 L 30.06399917602539 402.79901123046864 L 30.06599998474121 402.794952392578 L 30.117000579833984 402.69198608398426 L 30.159000396728516 402.5799865722655 L 30.18899917602539 402.4649963378905 L 30.19459342956543 402.4320068359374 L 30.208999633789062 402.34698486328114 L 30.215999603271484 402.22799682617176 L 30.211999893188477 402.1090087890624 L 30.19700050354004 401.990997314453 L 30.16900062561035 401.8749999999999 L 30.131000518798828 401.761993408203 L 30.082000732421875 401.65301513671864 L 30.06599998474121 401.625518798828 L 30.02199935913086 401.54998779296864 L 29.95199966430664 401.4530029296874 L 29.93520164489746 401.4338378906249 L 29.912561416625977 401.407989501953 L 29.874000549316406 401.3640136718749 L 29.785999298095703 401.282012939453 L 29.691999435424805 401.209991455078 L 29.606189727783203 401.157012939453 L 29.59000015258789 401.147003173828 L 29.482999801635742 401.0939941406249 L 29.371999740600586 401.0520019531249 L 29.256000518798828 401.022003173828 L 29.138999938964844 401.00201416015614 L 29.020000457763672 400.9949951171874 L 28.900999069213867 400.99899291992176 L 28.781999588012695 401.0150146484374 L 28.672000885009766 401.04058837890614 L 28.666000366210938 401.0419921874999 L 28.55299949645996 401.0799865722655 L 28.44499969482422 401.1300048828124 L 28.397865295410156 401.157012939453 L 28.341999053955078 401.188995361328 L 28.2450008392334 401.25900268554676 L 28.21250343322754 401.28753662109364 L 28.155000686645508 401.3380126953124 L 28.089828491210938 401.407989501953 L 28.073999404907227 401.42498779296864 L 28.000999450683594 401.51901245117176 L 27.937999725341797 401.6210021972655 L 27.92099952697754 401.65597534179676 L 27.88599967956543 401.72799682617176 L 27.860000610351562 401.79672241210926 L 27.8439998626709 401.8389892578124 L 27.812999725341797 401.9549865722655 L 27.79400062561035 402.07199096679676 L 27.785999298095703 402.19100952148426 L 27.790000915527344 402.30999755859364 L 27.805999755859375 402.428985595703 L 27.806697845458984 402.4320068359374 L 27.83300018310547 402.54501342773426 L 27.860000610351562 402.62322998046864 z" fill="none" stroke="rgb(255,0,0)" stroke-width="0.001mm" />
</svg>