<?xml version="1.0" standalone="no"?>
<!DOCTYPE svg PUBLIC "-//W3C//DTD SVG 1.1//EN"
  "http://www.w3.org/Graphics/SVG/1.1/DTD/svg11.dtd">
<svg width="38.001007080078125mm" height="169.51278686523432mm" viewBox="343.8190002441406 280.09500122070307 38.001007080078125 169.51278686523432" xmlns="http://www.w3.org/2000/svg" version="1.1">
	<title>svgOutput</title>
	<desc>yellowjacket</desc>
<path d="M 375.5409851074219 282.9219665527343 L 375.5409851074219 282.9229431152343 L 375.5409851074219 288.06704711914057 L 375.5409851074219 288.06802368164057 L 375.5409851074219 289.8949890136718 L 375.5409851074219 290.4309997558593 L 375.5409851074219 291.2589721679687 L 375.5409851074219 291.2609252929687 L 375.5409851074219 291.79483032226557 L 375.5409851074219 292.25015258789057 L 375.5409851074219 292.25064086914057 L 375.5409851074219 297.4113464355468 L 375.5409851074219 297.4118347167968 L 375.5409851074219 299.23098754882807 L 375.5409851074219 304.4933776855468 L 375.5409851074219 305.8833923339843 L 375.5409851074219 309.8506469726562 L 375.5409851074219 311.81201171874994 L 375.5409851074219 331.8169860839843 L 375.5409851074219 331.94900512695307 L 375.61700439453125 331.94900512695307 L 375.6328430175781 331.94900512695307 L 377.15655517578125 332.71768188476557 L 377.200439453125 332.7398071289062 L 379.4989929199219 333.8993835449218 L 379.7892150878906 334.04580688476557 L 380.8190002441406 334.56530761718744 L 380.82000732421875 334.56579589843744 L 380.82000732421875 338.1001892089843 L 380.82000732421875 397.0458984374999 L 380.82000732421875 406.16354370117176 L 380.8190002441406 406.16427612304676 L 380.1268615722656 406.6627197265624 L 380.099853515625 406.682159423828 L 378.8169860839844 407.605987548828 L 378.8169860839844 408.26800537109364 L 378.8169860839844 419.6090087890624 L 380.8190002441406 421.05075073242176 L 380.82000732421875 421.05145263671864 L 380.82000732421875 427.6310119628905 L 380.82000732421875 440.83099365234364 L 380.82000732421875 445.230987548828 L 380.82000732421875 445.231475830078 L 380.82000732421875 445.31500244140614 L 380.648193359375 445.31500244140614 L 374.8370056152344 448.156036376953 L 374.7640075683594 448.19171142578114 L 374.6719970703125 448.2366943359374 L 373.9880065917969 448.571075439453 L 373.9129333496094 448.6077880859374 L 373.9125061035156 448.60751342773426 L 373.3760070800781 448.2321777343749 L 372.01300048828125 447.27862548828114 L 372.01300048828125 440.92584228515614 L 372.01300048828125 440.92535400390614 L 372.01300048828125 440.83099365234364 L 372.01300048828125 438.93258666992176 L 372.01300048828125 438.001007080078 L 369.4960021972656 436.2402343749999 L 366.91021728515625 434.43133544921864 L 362.8190002441406 431.56930541992176 L 358.7281799316406 434.4310302734374 L 356.0849914550781 436.28009033203114 L 353.9880065917969 437.7470703124999 L 353.625 438.001007080078 L 353.625 440.83099365234364 L 353.625 440.92584228515614 L 353.625 447.27862548828114 L 352.3810119628906 448.1489257812499 L 352.28900146484375 448.2132873535155 L 351.7254943847656 448.60751342773426 L 351.6090087890625 448.550567626953 L 350.9930114746094 448.2493896484374 L 350.7439880371094 448.12765502929676 L 350.1470031738281 447.83578491210926 L 344.9908142089844 445.31500244140614 L 344.8190002441406 445.31500244140614 L 344.8190002441406 445.230987548828 L 344.8190002441406 441.26644897460926 L 344.8190002441406 440.83099365234364 L 344.8190002441406 439.40878295898426 L 344.8190002441406 436.29135131835926 L 344.8190002441406 427.6310119628905 L 344.8190002441406 421.05145263671864 L 346.8219909667969 419.6090087890624 L 346.8219909667969 408.2196044921874 L 346.8219909667969 407.605987548828 L 346.1440124511719 407.11773681640614 L 344.9087829589844 406.22821044921864 L 344.8190002441406 406.16354370117176 L 344.8190002441406 401.4598388671874 L 344.8190002441406 399.40277099609364 L 344.8190002441406 396.29501342773426 L 344.8190002441406 393.56698608398426 L 344.8190002441406 377.81201171874994 L 344.8190002441406 373.20031738281244 L 344.8190002441406 352.06201171874994 L 344.8190002441406 343.00158691406244 L 344.8190002441406 337.9844360351562 L 344.8190002441406 336.1267700195312 L 344.8190002441406 334.46582031249994 L 345.7861022949219 333.97793579101557 L 346.1440124511719 333.79736328124994 L 348.4229736328125 332.6476745605468 L 350.0220031738281 331.8410034179687 L 350.0220031738281 331.8210144042968 L 350.03399658203125 331.8210144042968 L 350.03399658203125 331.8169860839843 L 350.03399658203125 323.06204223632807 L 350.03399658203125 314.26342773437494 L 350.03399658203125 311.81201171874994 L 350.03399658203125 306.78710937499994 L 350.03399658203125 304.09582519531244 L 350.03399658203125 301.04800415039057 L 350.03399658203125 297.3805541992187 L 350.03399658203125 292.2814331054687 L 350.03399658203125 291.78958129882807 L 350.03399658203125 291.7120056152343 L 350.03399658203125 291.20010375976557 L 350.03399658203125 290.4309997558593 L 350.03399658203125 288.05285644531244 L 350.03399658203125 282.93713378906244 L 350.1310119628906 282.8897094726562 L 350.1470031738281 282.8818969726562 L 350.7439880371094 282.5900268554687 L 350.97601318359375 282.47659301757807 L 350.9930114746094 282.46829223632807 L 352.2720031738281 281.8429870605468 L 352.28900146484375 281.8346862792968 L 352.364990234375 281.7975463867187 L 352.3810119628906 281.78970336914057 L 353.2623291015625 281.3588562011718 L 353.802001953125 281.09500122070307 L 353.9880065917969 281.09500122070307 L 356.0849914550781 281.09500122070307 L 356.7099914550781 281.09500122070307 L 357.0183410644531 281.09500122070307 L 358.3009948730469 281.83544921874994 L 358.3009948730469 283.8222045898437 L 358.3009948730469 287.1241149902343 L 358.3009948730469 287.9729919433593 L 358.4460144042969 288.08374023437494 L 360.2334289550781 289.4490661621093 L 360.5789794921875 289.71301269531244 L 360.8172607421875 289.8949890136718 L 361.51898193359375 290.4309997558593 L 362.7909851074219 291.40258789062494 L 362.7909851074219 291.4010620117187 L 362.8030090332031 291.4102478027343 L 362.81500244140625 291.4010620117187 L 362.81500244140625 291.40258789062494 L 364.0870056152344 290.4309997558593 L 364.7887268066406 289.8949890136718 L 365.0270080566406 289.71301269531244 L 365.37255859375 289.4490661621093 L 367.1045227050781 288.12612915039057 L 367.1099853515625 288.12194824218744 L 367.1600036621094 288.08374023437494 L 367.30499267578125 287.9729919433593 L 367.30499267578125 287.12512207031244 L 367.30499267578125 283.8383483886718 L 367.30499267578125 281.9270935058593 L 367.30499267578125 281.83486938476557 L 367.8558654785156 281.51687622070307 L 368.586669921875 281.09500122070307 L 368.7466125488281 281.09500122070307 L 369.05499267578125 281.09500122070307 L 369.4960021972656 281.09500122070307 L 371.802001953125 281.09500122070307 L 371.8039855957031 281.09500122070307 L 372.36016845703125 281.3669128417968 L 373.3599853515625 281.85571289062494 L 373.3760070800781 281.86352539062494 L 373.4519958496094 281.9006958007812 L 373.4679870605469 281.9085083007812 L 373.9880065917969 282.16271972656244 L 374.656005859375 282.4893188476562 L 374.6719970703125 282.4971313476562 L 374.74798583984375 282.53430175781244 L 374.7640075683594 282.54211425781244 L 374.8370056152344 282.57778930664057 L 375.5409851074219 282.9219665527343 M 362.8070068359375 398.7303771972655 L 362.8070068359375 398.71652221679676 L 362.79400634765625 398.709014892578 L 360.7770080566406 399.873809814453 L 360.3907165527344 400.09689331054676 L 359.8970031738281 400.3819885253905 L 359.8970031738281 403.2124023437499 L 359.8970031738281 403.72698974609364 L 360.4089050292969 404.0226135253905 L 362.79400634765625 405.39999389648426 L 362.8070068359375 405.3924865722655 L 362.8070068359375 405.37863159179676 L 362.8190002441406 405.38555908203114 L 362.83099365234375 405.37863159179676 L 362.83099365234375 405.3924865722655 L 362.843994140625 405.39999389648426 L 365.2295837402344 404.0223388671874 L 365.6910095214844 403.755889892578 L 365.7409973144531 403.72698974609364 L 365.7409973144531 403.2124023437499 L 365.7409973144531 400.9462890624999 L 365.7409973144531 400.3819885253905 L 365.2472839355469 400.09689331054676 L 364.8609924316406 399.873809814453 L 362.843994140625 398.709014892578 L 362.83099365234375 398.71652221679676 L 362.83099365234375 398.7303771972655 L 362.8190002441406 398.72344970703114 L 362.8070068359375 398.7303771972655 M 362.8070068359375 393.63864135742176 L 362.8190002441406 393.64556884765614 L 362.83099365234375 393.63864135742176 L 362.83099365234375 393.6524963378905 L 362.843994140625 393.66000366210926 L 364.11126708984375 392.92816162109364 L 365 392.4149169921874 L 365.7409973144531 391.98699951171864 L 365.7409973144531 391.9260253906249 L 365.7409973144531 388.6419982910155 L 365.6910095214844 388.61312866210926 L 365.663818359375 388.597442626953 L 363.1995849609375 387.17523193359364 L 362.843994140625 386.970001220703 L 362.83099365234375 386.97750854492176 L 362.83099365234375 386.9913635253905 L 362.8190002441406 386.98443603515614 L 362.8070068359375 386.9913635253905 L 362.8070068359375 386.97750854492176 L 362.79400634765625 386.970001220703 L 362.43841552734375 387.17523193359364 L 361.6903076171875 387.60699462890614 L 359.9747009277344 388.5971679687499 L 359.8970031738281 388.6419982910155 L 359.8970031738281 391.98699951171864 L 360.6390075683594 392.41549682617176 L 361.5267333984375 392.92816162109364 L 362.79400634765625 393.66000366210926 L 362.8070068359375 393.6524963378905 L 362.8070068359375 393.63864135742176 M 360.20098876953125 368.8420104980468 L 360.27850341796875 368.74218749999994 L 360.35784912109375 368.64001464843744 L 360.447998046875 368.5238647460937 L 360.5169982910156 368.4349975585937 L 360.89599609375 368.0870056152343 L 361.3269958496094 367.8049926757812 L 361.7980041503906 367.5979919433593 L 362.07501220703125 367.5280456542968 L 362.07501220703125 367.4905700683593 L 362.07501220703125 365.9098510742187 L 362.0369873046875 365.91299438476557 L 361.2850036621094 366.1029968261718 L 360.57501220703125 366.4150085449218 L 360.447998046875 366.49783325195307 L 359.9720458984375 366.8083190917968 L 359.92498779296875 366.83898925781244 L 359.35400390625 367.36499023437494 L 358.87799072265625 367.9769897460937 L 358.518310546875 368.64001464843744 L 358.50799560546875 368.6589965820312 L 358.2569885253906 369.3930053710937 L 358.1341857910156 370.1270141601562 L 358.1289978027344 370.15798950195307 L 358.1289978027344 370.93399047851557 L 358.2083740234375 371.40844726562494 L 358.2569885253906 371.69900512695307 L 358.4099426269531 372.1463012695312 L 358.50799560546875 372.43301391601557 L 358.6721496582031 372.73599243164057 L 358.87799072265625 373.11599731445307 L 358.93634033203125 373.1910095214843 L 359.35400390625 373.7279968261718 L 359.92498779296875 374.2529907226562 L 360.447998046875 374.59497070312494 L 360.57501220703125 374.67800903320307 L 361.2672119140625 374.98120117187494 L 361.2850036621094 374.98901367187494 L 361.35528564453125 375.00686645507807 L 362.0140075683594 375.1741638183593 L 362.0369873046875 375.1799926757812 L 362.07501220703125 375.18313598632807 L 362.07501220703125 374.09167480468744 L 362.07501220703125 373.77468872070307 L 362.07501220703125 373.61575317382807 L 362.07501220703125 373.5645141601562 L 362.0140075683594 373.54898071289057 L 361.89886474609375 373.51968383789057 L 361.7980041503906 373.4939880371093 L 361.3269958496094 373.28698730468744 L 361.17974853515625 373.1910095214843 L 360.9609069824219 373.0483093261718 L 360.89599609375 373.00601196289057 L 360.602783203125 372.73599243164057 L 360.5169982910156 372.65701293945307 L 360.447998046875 372.56835937499994 L 360.20098876953125 372.25100708007807 L 359.95599365234375 371.79800415039057 L 359.78900146484375 371.3110046386718 L 359.7040100097656 370.80398559570307 L 359.7040100097656 370.2890014648437 L 359.7311096191406 370.1270141601562 L 359.78900146484375 369.78100585937494 L 359.95599365234375 369.2940063476562 L 360.20098876953125 368.8420104980468 M 360.20599365234375 383.0249938964843 L 360.447998046875 383.0249938964843 L 362.0140075683594 383.0249938964843 L 362.0140075683594 381.42700195312494 L 360.7770080566406 381.42700195312494 L 361.812744140625 378.42382812499994 L 362.0140075683594 377.8403015136718 L 362.0140075683594 376.8320007324218 L 362.0140075683594 376.8099975585937 L 361.5570068359375 376.8099975585937 L 360.69622802734375 376.8099975585937 L 360.6882019042969 376.8320007324218 L 360.447998046875 377.48916625976557 L 359.19110107421875 380.92800903320307 L 357.99505615234375 384.20028686523426 L 357.7900085449219 384.76132202148426 L 357.6940002441406 385.02398681640614 L 357.0166931152344 386.87704467773426 L 356.822998046875 387.407012939453 L 357.1006774902344 387.407012939453 L 357.7900085449219 387.407012939453 L 357.9130859375 387.407012939453 L 358.635986328125 387.407012939453 L 359.47821044921875 385.0563049316405 L 359.4897766113281 385.02398681640614 L 360.20599365234375 383.0249938964843 M 362.8070068359375 338.6126403808593 L 362.8190002441406 338.6195678710937 L 362.83099365234375 338.6126403808593 L 362.83099365234375 338.62649536132807 L 362.843994140625 338.6340026855468 L 362.9957275390625 338.54638671874994 L 365 337.38891601562494 L 365.6910095214844 336.98986816406244 L 365.7409973144531 336.9609985351562 L 365.7409973144531 333.61599731445307 L 365.6910095214844 333.5871276855468 L 365.4949951171875 333.47402954101557 L 365 333.1883239746093 L 363.6177978515625 332.3905944824218 L 362.843994140625 331.94400024414057 L 362.83099365234375 331.9515075683593 L 362.83099365234375 331.96536254882807 L 362.8190002441406 331.9584350585937 L 362.8070068359375 331.96536254882807 L 362.8070068359375 331.9515075683593 L 362.79400634765625 331.94400024414057 L 362.02020263671875 332.3905944824218 L 360.6390075683594 333.18774414062494 L 359.8970031738281 333.61599731445307 L 359.8970031738281 336.9609985351562 L 360.6390075683594 337.3894958496093 L 362.64227294921875 338.54638671874994 L 362.79400634765625 338.6340026855468 L 362.8070068359375 338.62649536132807 L 362.8070068359375 338.6126403808593 M 362.8070068359375 350.3526306152343 L 362.8190002441406 350.3595581054687 L 362.83099365234375 350.3526306152343 L 362.83099365234375 350.36648559570307 L 362.843994140625 350.3739929199218 L 364.7001647949219 349.3020629882812 L 365.6910095214844 348.72988891601557 L 365.7409973144531 348.7009887695312 L 365.7409973144531 345.35598754882807 L 365.6910095214844 345.3271179199218 L 363.906982421875 344.29687499999994 L 362.843994140625 343.68301391601557 L 362.83099365234375 343.6905212402343 L 362.83099365234375 343.70437622070307 L 362.8190002441406 343.6974487304687 L 362.8070068359375 343.70437622070307 L 362.8070068359375 343.6905212402343 L 362.79400634765625 343.68301391601557 L 361.73101806640625 344.29687499999994 L 359.8970031738281 345.35598754882807 L 359.8970031738281 348.7009887695312 L 360.9378356933594 349.3020629882812 L 362.79400634765625 350.3739929199218 L 362.8070068359375 350.36648559570307 L 362.8070068359375 350.3526306152343 M 364.9020080566406 381.42700195312494 L 364.8983459472656 381.42700195312494 L 364.83209228515625 381.42700195312494 L 364.8143310546875 381.42700195312494 L 363.68798828125 381.42700195312494 L 363.68798828125 383.0249938964843 L 365.3377990722656 383.0249938964843 L 365.3609924316406 383.0249938964843 L 365.4515075683594 383.0249938964843 L 365.4585876464844 383.0249938964843 L 365.4729919433594 383.0249938964843 L 365.6910095214844 383.63891601562494 L 366.1828308105469 385.02398681640614 L 367.02899169921875 387.407012939453 L 367.7259216308594 387.407012939453 L 367.9580078125 387.407012939453 L 368.5373229980469 387.407012939453 L 368.8699951171875 387.407012939453 L 368.63775634765625 386.77328491210926 L 367.99664306640625 385.02398681640614 L 367.9580078125 384.91851806640614 L 367.2640380859375 383.0249938964843 L 365.6910095214844 378.73278808593744 L 364.994384765625 376.8320007324218 L 364.986328125 376.8099975585937 L 364.54400634765625 376.8099975585937 L 364.08099365234375 376.8099975585937 L 363.68798828125 376.8099975585937 L 363.68798828125 376.8320007324218 L 363.68798828125 377.93045043945307 L 363.68798828125 377.94152832031244 L 363.8348693847656 378.36315917968744 L 364.3100280761719 379.7273559570312 L 364.9020080566406 381.42700195312494 M 364.7250061035156 373.00601196289057 L 364.6790771484375 373.0359497070312 L 364.54400634765625 373.1239929199218 L 364.4412536621094 373.1910095214843 L 364.29400634765625 373.28698730468744 L 363.822998046875 373.4939880371093 L 363.6390075683594 373.5408325195312 L 363.6390075683594 373.59521484374994 L 363.6390075683594 374.7839965820312 L 363.6390075683594 375.16601562499994 L 364.33599853515625 374.98901367187494 L 364.3720703125 374.9732055664062 L 364.54400634765625 374.8978881835937 L 365.0459899902344 374.67800903320307 L 365.6910095214844 374.25625610351557 L 365.6960144042969 374.2529907226562 L 366.2669982910156 373.7279968261718 L 366.6846618652344 373.1910095214843 L 366.7430114746094 373.11599731445307 L 366.9488525390625 372.73599243164057 L 367.1130065917969 372.43301391601557 L 367.364013671875 371.69900512695307 L 367.49200439453125 370.93399047851557 L 367.49200439453125 370.68798828124994 L 367.49200439453125 370.15798950195307 L 367.48681640625 370.1270141601562 L 367.364013671875 369.3930053710937 L 367.1130065917969 368.6589965820312 L 367.1026916503906 368.64001464843744 L 366.7430114746094 367.9769897460937 L 366.2669982910156 367.36499023437494 L 365.6960144042969 366.83898925781244 L 365.6910095214844 366.83572387695307 L 365.66436767578125 366.81835937499994 L 365.0459899902344 366.4150085449218 L 364.54400634765625 366.1943969726562 L 364.33599853515625 366.1029968261718 L 363.6390075683594 365.92691040039057 L 363.6390075683594 367.3764343261718 L 363.6390075683594 367.51712036132807 L 363.6390075683594 367.55154418945307 L 363.822998046875 367.5979919433593 L 364.29400634765625 367.8049926757812 L 364.54400634765625 367.9685668945312 L 364.7250061035156 368.0870056152343 L 365.10400390625 368.4349975585937 L 365.2631530761719 368.64001464843744 L 365.35662841796875 368.76037597656244 L 365.4200134277344 368.8420104980468 L 365.6650085449219 369.2940063476562 L 365.6910095214844 369.3698120117187 L 365.8320007324219 369.78100585937494 L 365.889892578125 370.1270141601562 L 365.9169921875 370.2890014648437 L 365.9169921875 370.68798828124994 L 365.9169921875 370.80398559570307 L 365.8320007324219 371.3110046386718 L 365.6910095214844 371.72216796874994 L 365.6650085449219 371.79800415039057 L 365.4200134277344 372.25100708007807 L 365.10400390625 372.65701293945307 L 365.0182189941406 372.73599243164057 L 364.7250061035156 373.00601196289057 M 360.34100341796875 361.56900024414057 L 359.8970031738281 360.9603881835937 L 359.8689880371094 360.92199707031244 L 359.7017822265625 360.44799804687494 L 359.5849914550781 360.1170043945312 L 359.4909973144531 359.1539916992187 L 359.4909973144531 357.36099243164057 L 359.31597900390625 357.36099243164057 L 358.6127014160156 357.36099243164057 L 358.47491455078125 357.36099243164057 L 357.7900085449219 357.36099243164057 L 357.64300537109375 357.36099243164057 L 357.64300537109375 359.0750122070312 L 357.6809997558594 359.7780151367187 L 357.7900085449219 360.41738891601557 L 357.7929992675781 360.4349975585937 L 357.7969970703125 360.44799804687494 L 357.9800109863281 361.0440063476562 L 358.2409973144531 361.60998535156244 L 358.572998046875 362.1180114746093 L 358.97698974609375 362.5669860839843 L 359.3480529785156 362.87072753906244 L 359.45098876953125 362.95498657226557 L 359.8970031738281 363.2211303710937 L 359.9939880371094 363.2789916992187 L 360.447998046875 363.47143554687494 L 360.6050109863281 363.53799438476557 L 361.1325988769531 363.6838989257812 L 361.2919921875 363.7279968261718 L 362.0069885253906 363.8362426757812 L 362.0069885253906 363.2921752929687 L 362.0069885253906 362.9102478027343 L 362.0069885253906 362.6279907226562 L 362.0069885253906 362.4679565429687 L 362.0069885253906 362.33886718749994 L 361.885009765625 362.32800292968744 L 361.0150146484375 362.04299926757807 L 360.447998046875 361.6442565917968 L 360.34100341796875 361.56900024414057 M 365.77398681640625 361.1960144042968 L 365.6910095214844 361.30163574218744 L 365.5320129394531 361.5039978027343 L 365.23199462890625 361.7780151367187 L 364.8800048828125 362.00500488281244 L 364.54400634765625 362.15554809570307 L 364.47601318359375 362.1860046386718 L 364.0260009765625 362.31799316406244 L 363.6520080566406 362.3754272460937 L 363.6520080566406 362.4277038574218 L 363.6520080566406 362.55517578124994 L 363.6520080566406 363.84329223632807 L 363.7229919433594 363.83999633789057 L 364.5050048828125 363.7219848632812 L 364.54400634765625 363.71109008789057 L 364.8274230957031 363.6317749023437 L 365.2090148925781 363.5249938964843 L 365.30670166015625 363.48229980468744 L 365.6910095214844 363.3142700195312 L 365.8380126953125 363.24999999999994 L 366.2713928222656 362.98779296874994 L 366.3949890136719 362.91299438476557 L 366.5920104980469 362.7509460449218 L 366.8038024902344 362.57669067382807 L 366.8800048828125 362.5140075683593 L 367.2829895019531 362.0610046386718 L 367.6099853515625 361.55801391601557 L 367.8630065917969 361.00500488281244 L 368.03631591796875 360.44799804687494 L 368.04998779296875 360.4039916992187 L 368.1629943847656 359.7739868164062 L 368.20001220703125 359.11499023437494 L 368.20001220703125 357.36099243164057 L 367.1630859375 357.36099243164057 L 366.3380126953125 357.36099243164057 L 366.3380126953125 359.14099121093744 L 366.3193664550781 359.5198669433593 L 366.31500244140625 359.60900878906244 L 366.24700927734375 360.0509948730468 L 366.1382141113281 360.44799804687494 L 366.13299560546875 360.4670104980468 L 365.9750061035156 360.85000610351557 L 365.77398681640625 361.1960144042968 M 376.541259765625 440.18136596679676 L 376.41900634765625 440.324005126953 L 376.27899169921875 440.5520019531249 L 376.177001953125 440.79901123046864 L 376.1693420410156 440.83099365234364 L 376.114990234375 441.0580139160155 L 376.093994140625 441.32501220703114 L 376.114990234375 441.59100341796864 L 376.177001953125 441.85101318359364 L 376.2490234375 442.02545166015614 L 376.27899169921875 442.09799194335926 L 376.3880615234375 442.27560424804676 L 376.41900634765625 442.32598876953114 L 376.4549865722656 442.36801147460926 L 376.5929870605469 442.52899169921864 L 376.7959899902344 442.70199584960926 L 377.02301025390625 442.84201049804676 L 377.2699890136719 442.9440002441405 L 377.5299987792969 443.0060119628905 L 377.5328674316406 443.0062255859374 L 377.7959899902344 443.0270080566405 L 378.06298828125 443.0060119628905 L 378.3219909667969 442.9440002441405 L 378.51513671875 442.8642578124999 L 378.5690002441406 442.84201049804676 L 378.7969970703125 442.70199584960926 L 379 442.52899169921864 L 379.13800048828125 442.36801147460926 L 379.17401123046875 442.32598876953114 L 379.31298828125 442.09799194335926 L 379.38006591796875 441.93719482421864 L 379.4159851074219 441.85101318359364 L 379.4779968261719 441.59100341796864 L 379.4989929199219 441.32501220703114 L 379.4779968261719 441.0580139160155 L 379.4159851074219 440.79901123046864 L 379.31298828125 440.5520019531249 L 379.17401123046875 440.324005126953 L 379.1705627441406 440.32000732421864 L 379.1131591796875 440.25302124023426 L 379 440.1210021972655 L 378.7969970703125 439.94699096679676 L 378.5690002441406 439.8080139160155 L 378.4934997558594 439.77682495117176 L 378.3219909667969 439.70599365234364 L 378.2406311035156 439.68621826171864 L 378.06298828125 439.64300537109364 L 377.7959899902344 439.62200927734364 L 377.5299987792969 439.64300537109364 L 377.4560852050781 439.660919189453 L 377.2699890136719 439.70599365234364 L 377.1671447753906 439.74847412109364 L 377.02301025390625 439.8080139160155 L 376.8320007324219 439.9249572753905 L 376.7959899902344 439.94699096679676 L 376.5929870605469 440.1210021972655 L 376.541259765625 440.18136596679676 M 376.3573913574219 402.2586669921874 L 376.41900634765625 402.3590087890624 L 376.5929870605469 402.5620117187499 L 376.7959899902344 402.7349853515624 L 376.8320007324219 402.7572021484374 L 377.02301025390625 402.8749999999999 L 377.2699890136719 402.97698974609364 L 377.5299987792969 403.03900146484364 L 377.5766296386719 403.04269409179676 L 377.7959899902344 403.05999755859364 L 378.06298828125 403.03900146484364 L 378.3219909667969 402.97698974609364 L 378.5690002441406 402.8749999999999 L 378.63922119140625 402.83187866210926 L 378.7969970703125 402.7349853515624 L 379 402.5620117187499 L 379.17401123046875 402.3590087890624 L 379.31298828125 402.1310119628905 L 379.3605651855469 402.01693725585926 L 379.3823547363281 401.96466064453114 L 379.4159851074219 401.88400268554676 L 379.4779968261719 401.62399291992176 L 379.49505615234375 401.407989501953 L 379.4989929199219 401.35800170898426 L 379.4779968261719 401.09201049804676 L 379.4159851074219 400.83200073242176 L 379.31298828125 400.584991455078 L 379.17401123046875 400.35699462890614 L 379.1170654296875 400.29058837890614 L 379 400.15399169921864 L 378.8800048828125 400.0511474609374 L 378.7969970703125 399.980010986328 L 378.5690002441406 399.84100341796864 L 378.3219909667969 399.7390136718749 L 378.28631591796875 399.73031616210926 L 378.06298828125 399.67599487304676 L 377.8272705078125 399.6574707031249 L 377.7959899902344 399.65499877929676 L 377.5299987792969 399.67599487304676 L 377.2699890136719 399.7390136718749 L 377.02301025390625 399.84100341796864 L 376.8320007324219 399.95794677734364 L 376.7959899902344 399.980010986328 L 376.5929870605469 400.15399169921864 L 376.537353515625 400.2189025878905 L 376.41900634765625 400.35699462890614 L 376.27899169921875 400.584991455078 L 376.177001953125 400.83200073242176 L 376.114990234375 401.09201049804676 L 376.093994140625 401.35800170898426 L 376.09796142578125 401.407989501953 L 376.114990234375 401.62399291992176 L 376.177001953125 401.88400268554676 L 376.2467346191406 402.0528564453124 L 376.27899169921875 402.1310119628905 L 376.3573913574219 402.2586669921874 M 376.8169860839844 393.55999755859364 L 376.8169860839844 393.56698608398426 L 377.59149169921875 393.56698608398426 L 378.05157470703125 393.56698608398426 L 378.8219909667969 393.56698608398426 L 378.8219909667969 385.80206298828114 L 378.8219909667969 377.81201171874994 L 378.7330017089844 377.81201171874994 L 378.7330017089844 377.8049926757812 L 375.7279968261719 377.8049926757812 L 375.7279968261719 377.81201171874994 L 375.7279968261719 378.90441894531244 L 375.7279968261719 388.568634033203 L 375.7279968261719 393.55999755859364 L 376.8169860839844 393.55999755859364 M 376.3658142089844 338.9863891601562 L 376.41900634765625 339.07299804687494 L 376.5929870605469 339.27600097656244 L 376.7959899902344 339.4500122070312 L 376.8320007324219 339.47204589843744 L 377.02301025390625 339.58898925781244 L 377.2699890136719 339.6919860839843 L 377.4839782714844 339.7430114746093 L 377.5299987792969 339.7539978027343 L 377.7959899902344 339.7749938964843 L 378.06298828125 339.7539978027343 L 378.3219909667969 339.6919860839843 L 378.49212646484375 339.6210632324218 L 378.5690002441406 339.58898925781244 L 378.7330017089844 339.48901367187494 L 378.7969970703125 339.4500122070312 L 378.8800048828125 339.3788452148437 L 379 339.27600097656244 L 379.17401123046875 339.07299804687494 L 379.31298828125 338.84500122070307 L 379.40008544921875 338.63699340820307 L 379.4159851074219 338.59899902343744 L 379.4779968261719 338.33898925781244 L 379.4989929199219 338.0719909667968 L 379.48699951171875 337.9200134277343 L 379.4779968261719 337.8059997558593 L 379.4159851074219 337.5459899902343 L 379.31298828125 337.2999877929687 L 379.23944091796875 337.17935180664057 L 379.17401123046875 337.0719909667968 L 379 336.8689880371093 L 378.7969970703125 336.6950073242187 L 378.5690002441406 336.5559997558593 L 378.44189453125 336.5029907226562 L 378.3219909667969 336.45300292968744 L 378.06298828125 336.39099121093744 L 377.7959899902344 336.36999511718744 L 377.5299987792969 336.39099121093744 L 377.4170837402344 336.4179382324218 L 377.2699890136719 336.45300292968744 L 377.02301025390625 336.5559997558593 L 376.8320007324219 336.6729431152343 L 376.7959899902344 336.6950073242187 L 376.5929870605469 336.8689880371093 L 376.5354309082031 336.93615722656244 L 376.41900634765625 337.0719909667968 L 376.27899169921875 337.2999877929687 L 376.177001953125 337.5459899902343 L 376.114990234375 337.8059997558593 L 376.1059875488281 337.9200134277343 L 376.093994140625 338.0719909667968 L 376.114990234375 338.33898925781244 L 376.177001953125 338.59899902343744 L 376.24566650390625 338.7646179199218 L 376.27899169921875 338.84500122070307 L 376.3658142089844 338.9863891601562 M 378.8219909667969 374.0669860839843 L 378.8219909667969 352.06201171874994 L 378.7330017089844 352.06201171874994 L 378.7330017089844 352.0549926757812 L 376.093994140625 352.0549926757812 L 375.7279968261719 352.0549926757812 L 375.7279968261719 352.06201171874994 L 375.7279968261719 374.0599975585937 L 376.8169860839844 374.0599975585937 L 376.8169860839844 374.0669860839843 L 378.7330017089844 374.0669860839843 L 378.8219909667969 374.0669860839843 M 356.0849914550781 421.72824096679676 L 354.239990234375 422.792999267578 L 354.239990234375 425.55523681640614 L 354.239990234375 426.39300537109364 L 356.0849914550781 427.45834350585926 L 357.3590087890625 428.1940002441405 L 357.7167053222656 427.98736572265614 L 360.47698974609375 426.39300537109364 L 360.47698974609375 422.792999267578 L 357.3590087890625 420.99301147460926 L 356.0849914550781 421.72824096679676 M 356.9164733886719 393.56698608398426 L 356.0849914550781 394.0469970703124 L 354.8429870605469 394.76400756835926 L 354.8429870605469 398.1099853515624 L 356.0849914550781 398.8265686035155 L 357.7409973144531 399.782012939453 L 358.95111083984375 399.08383178710926 L 360.6390075683594 398.1099853515624 L 360.6390075683594 397.4645080566405 L 360.6390075683594 397.2013244628905 L 360.6390075683594 394.76400756835926 L 359.8970031738281 394.33563232421864 L 358.02764892578125 393.2564697265624 L 357.7900085449219 393.1192932128905 L 357.7409973144531 393.09100341796864 L 356.9164733886719 393.56698608398426 M 367.9212951660156 427.98736572265614 L 368.2099914550781 428.15414428710926 L 368.27899169921875 428.1940002441405 L 369.4960021972656 427.49127197265614 L 369.5807189941406 427.44235229492176 L 371.39801025390625 426.39300537109364 L 371.39801025390625 426.31271362304676 L 371.39801025390625 425.55523681640614 L 371.39801025390625 422.792999267578 L 371.2590026855469 422.7127685546874 L 369.4960021972656 421.695343017578 L 368.58685302734375 421.1706542968749 L 368.27899169921875 420.99301147460926 L 368.2099914550781 421.0328369140624 L 365.1610107421875 422.792999267578 L 365.1610107421875 426.39300537109364 L 367.9212951660156 427.98736572265614 M 364.9847106933594 409.825225830078 L 362.8190002441406 408.5751953124999 L 360.6532897949219 409.825225830078 L 357.697998046875 411.5310058593749 L 357.697998046875 417.4549865722655 L 362.28179931640625 420.10162353515614 L 362.8190002441406 420.41180419921864 L 363.356201171875 420.10162353515614 L 364.9764404296875 419.1661376953124 L 367.94000244140625 417.4549865722655 L 367.94000244140625 417.0888671874999 L 367.94000244140625 411.5310058593749 L 366.9705810546875 410.971466064453 L 364.9847106933594 409.825225830078 M 358.03094482421875 355.7120056152343 L 358.213623046875 355.7120056152343 L 359.155029296875 355.7120056152343 L 359.4909973144531 355.7120056152343 L 359.4909973144531 350.68701171874994 L 358.6645202636719 350.68701171874994 L 357.64300537109375 350.68701171874994 L 357.64300537109375 352.11123657226557 L 357.64300537109375 354.6123962402343 L 357.64300537109375 355.7120056152343 L 357.7900085449219 355.7120056152343 L 358.03094482421875 355.7120056152343 M 356.0849914550781 339.02099609374994 L 355.61187744140625 339.2941284179687 L 354.8429870605469 339.7380065917968 L 354.8429870605469 343.08300781249994 L 356.0849914550781 343.7999877929687 L 356.3501892089844 343.9530944824218 L 357.7409973144531 344.75601196289057 L 360.6390075683594 343.08300781249994 L 360.6390075683594 339.7380065917968 L 359.8970031738281 339.3096618652343 L 357.7409973144531 338.0650024414062 L 356.0849914550781 339.02099609374994 M 367.9580078125 399.74679565429676 L 369.4960021972656 398.85946655273426 L 370.7950134277344 398.1099853515624 L 370.7950134277344 394.76400756835926 L 369.4960021972656 394.01409912109364 L 368.7215270996094 393.56698608398426 L 367.9580078125 393.1262207031249 L 367.8970031738281 393.09100341796864 L 367.8280029296875 393.13082885742176 L 367.6103515625 393.25653076171864 L 365.7409973144531 394.3360900878905 L 365 394.76400756835926 L 365 397.2027587890624 L 365 397.46392822265614 L 365 398.1099853515624 L 366.6869201660156 399.0836181640624 L 367.8280029296875 399.7421874999999 L 367.8970031738281 399.782012939453 L 367.9580078125 399.74679565429676 M 369.2878112792969 343.9530944824218 L 369.4960021972656 343.83291625976557 L 370.11370849609375 343.47631835937494 L 370.7950134277344 343.08300781249994 L 370.7950134277344 339.7380065917968 L 370.026123046875 339.2941284179687 L 369.4960021972656 338.9880981445312 L 369.3930358886719 338.9286499023437 L 367.8970031738281 338.0650024414062 L 365.7409973144531 339.31008911132807 L 365.6910095214844 339.3389587402343 L 365 339.7380065917968 L 365 343.08300781249994 L 365.6910095214844 343.48205566406244 L 367.8970031738281 344.75601196289057 L 369.2878112792969 343.9530944824218 M 362.8179931640625 293.90798950195307 L 359.2300109863281 295.97900390624994 L 359.2300109863281 300.1220092773437 L 362.8179931640625 302.19400024414057 L 366.406005859375 300.1220092773437 L 366.406005859375 295.97900390624994 L 362.8179931640625 293.90798950195307 M 369.3420104980469 306.5350036621093 L 369.4960021972656 306.44607543945307 L 371.885986328125 305.0660095214843 L 371.885986328125 302.1289978027343 L 369.4960021972656 300.74987792968744 L 369.3420104980469 300.66101074218744 L 366.79901123046875 302.1289978027343 L 366.79901123046875 305.0660095214843 L 369.3420104980469 306.5350036621093 M 369.3420104980469 317.8980102539062 L 369.4960021972656 317.8091430664062 L 371.885986328125 316.4299926757812 L 371.885986328125 313.4930114746093 L 369.4960021972656 312.11291503906244 L 369.3420104980469 312.0239868164062 L 366.79901123046875 313.4930114746093 L 366.79901123046875 316.4299926757812 L 369.3420104980469 317.8980102539062 M 358.80999755859375 313.48098754882807 L 357.7090148925781 312.84524536132807 L 356.2659912109375 312.01199340820307 L 356.0849914550781 312.1165466308593 L 353.9880065917969 313.32791137695307 L 353.7229919433594 313.48098754882807 L 353.7229919433594 314.4644470214843 L 353.7229919433594 316.41699218749994 L 353.9880065917969 316.57006835937494 L 356.0849914550781 317.7814331054687 L 356.2659912109375 317.88598632812494 L 357.7090148925781 317.05276489257807 L 358.80999755859375 316.41699218749994 L 358.80999755859375 313.48098754882807 M 362.8179931640625 316.18899536132807 L 359.2300109863281 318.26000976562494 L 359.2300109863281 322.4030151367187 L 362.8179931640625 324.47500610351557 L 366.406005859375 322.4030151367187 L 366.406005859375 318.26000976562494 L 362.8179931640625 316.18899536132807 M 356.0849914550781 300.7534790039062 L 353.9880065917969 301.96401977539057 L 353.7229919433594 302.1170043945312 L 353.7229919433594 305.05398559570307 L 353.9880065917969 305.2069702148437 L 356.0849914550781 306.41751098632807 L 356.2659912109375 306.52200317382807 L 357.7090148925781 305.68933105468744 L 358.80999755859375 305.05398559570307 L 358.80999755859375 302.1170043945312 L 357.7090148925781 301.48168945312494 L 356.2659912109375 300.6489868164062 L 356.0849914550781 300.7534790039062 M 374.6449890136719 428.105010986328 L 373.9880065917969 428.105010986328 L 373.4679870605469 428.105010986328 L 373.4639892578125 428.105010986328 L 373.4519958496094 428.105010986328 L 373.3760070800781 428.105010986328 L 373.1610107421875 428.105010986328 L 373.1610107421875 431.0139160156249 L 373.1610107421875 431.3753967285155 L 373.1610107421875 434.59881591796864 L 373.1610107421875 435.2359924316405 L 373.3760070800781 435.2359924316405 L 373.4519958496094 435.2359924316405 L 373.4639892578125 435.2359924316405 L 373.9880065917969 435.2359924316405 L 374.6449890136719 435.2359924316405 L 374.6449890136719 435.14401245117176 L 374.6449890136719 435.13299560546864 L 374.6449890136719 434.84201049804676 L 374.6449890136719 434.8020019531249 L 374.6449890136719 428.25900268554676 L 374.6449890136719 428.25799560546864 L 374.6449890136719 428.105010986328 M 372.6849365234375 286.72000122070307 L 372.7359924316406 286.7070007324218 L 372.8420104980469 286.6799926757812 L 372.99798583984375 286.6239929199218 L 373.14801025390625 286.55300903320307 L 373.2909851074219 286.4670104980468 L 373.42401123046875 286.3670043945312 L 373.5469970703125 286.25500488281244 L 373.6579895019531 286.13101196289057 L 373.7569885253906 285.9970092773437 L 373.8429870605469 285.85400390624994 L 373.91400146484375 285.70300292968744 L 373.9164733886719 285.6960144042968 L 373.9700012207031 285.5450134277343 L 374.010009765625 285.3829956054687 L 374.03399658203125 285.2179870605468 L 374.0419921875 285.0509948730468 L 374.03399658203125 284.8840026855468 L 374.010009765625 284.71899414062494 L 373.9983825683594 284.67199707031244 L 373.9700012207031 284.55700683593744 L 373.91400146484375 284.3999938964843 L 373.8429870605469 284.2489929199218 L 373.7569885253906 284.10501098632807 L 373.6579895019531 283.9710083007812 L 373.5469970703125 283.8469848632812 L 373.42401123046875 283.73498535156244 L 373.2909851074219 283.63598632812494 L 373.14801025390625 283.5499877929687 L 372.99798583984375 283.4779968261718 L 372.8420104980469 283.42199707031244 L 372.7359924316406 283.39501953124994 L 372.6809997558594 283.38101196289057 L 372.5169982910156 283.3569946289062 L 372.35101318359375 283.34899902343744 L 372.18499755859375 283.3569946289062 L 372.02099609375 283.38101196289057 L 371.8599853515625 283.42199707031244 L 371.7120056152344 283.4747924804687 L 371.7030029296875 283.4779968261718 L 371.5530090332031 283.5499877929687 L 371.4110107421875 283.63598632812494 L 371.27801513671875 283.73498535156244 L 371.1549987792969 283.8469848632812 L 371.0429992675781 283.9710083007812 L 370.9440002441406 284.10501098632807 L 370.8590087890625 284.2489929199218 L 370.7879943847656 284.3999938964843 L 370.73199462890625 284.55700683593744 L 370.70361328125 284.67199707031244 L 370.6919860839844 284.71899414062494 L 370.68798828125 284.74539184570307 L 370.6669921875 284.8840026855468 L 370.65899658203125 285.0509948730468 L 370.6669921875 285.2179870605468 L 370.68798828125 285.35659790039057 L 370.6919860839844 285.3829956054687 L 370.73199462890625 285.5450134277343 L 370.7855224609375 285.6960144042968 L 370.7879943847656 285.70300292968744 L 370.8590087890625 285.85400390624994 L 370.9440002441406 285.9970092773437 L 371.0429992675781 286.13101196289057 L 371.1549987792969 286.25500488281244 L 371.27801513671875 286.3670043945312 L 371.4110107421875 286.4670104980468 L 371.5530090332031 286.55300903320307 L 371.7030029296875 286.6239929199218 L 371.8599853515625 286.6799926757812 L 372.0170593261719 286.72000122070307 L 372.02099609375 286.7210083007812 L 372.18499755859375 286.74499511718744 L 372.35101318359375 286.7539978027343 L 372.5169982910156 286.74499511718744 L 372.6809997558594 286.7210083007812 L 372.6849365234375 286.72000122070307 M 349.39263916015625 402.06161499023426 L 349.46600341796875 401.88400268554676 L 349.52801513671875 401.62399291992176 L 349.5450439453125 401.407989501953 L 349.54901123046875 401.35800170898426 L 349.52801513671875 401.09201049804676 L 349.46600341796875 400.83200073242176 L 349.364013671875 400.584991455078 L 349.2239990234375 400.35699462890614 L 349.0993347167969 400.210723876953 L 349.0509948730469 400.15399169921864 L 348.8479919433594 399.980010986328 L 348.6199951171875 399.84100341796864 L 348.37298583984375 399.7390136718749 L 348.2278137207031 399.70382690429676 L 348.1600036621094 399.6873779296874 L 348.1130065917969 399.67599487304676 L 347.84698486328125 399.65499877929676 L 347.58099365234375 399.67599487304676 L 347.3210144042969 399.7390136718749 L 347.2155456542969 399.78256225585926 L 347.0740051269531 399.84100341796864 L 346.84600830078125 399.980010986328 L 346.64300537109375 400.15399169921864 L 346.4700012207031 400.35699462890614 L 346.3591613769531 400.5375061035155 L 346.3299865722656 400.584991455078 L 346.2279968261719 400.83200073242176 L 346.1650085449219 401.09201049804676 L 346.1440124511719 401.35800170898426 L 346.14794921875 401.407989501953 L 346.1650085449219 401.62399291992176 L 346.2279968261719 401.88400268554676 L 346.24041748046875 401.9140624999999 L 346.3299865722656 402.1310119628905 L 346.4700012207031 402.3590087890624 L 346.64300537109375 402.5620117187499 L 346.84600830078125 402.7349853515624 L 346.9964904785156 402.8273925781249 L 347.0740051269531 402.8749999999999 L 347.3210144042969 402.97698974609364 L 347.58099365234375 403.03900146484364 L 347.84698486328125 403.05999755859364 L 348.0620422363281 403.04302978515614 L 348.1130065917969 403.03900146484364 L 348.1600036621094 403.02780151367176 L 348.37298583984375 402.97698974609364 L 348.6199951171875 402.8749999999999 L 348.8479919433594 402.7349853515624 L 349.0509948730469 402.5620117187499 L 349.2239990234375 402.3590087890624 L 349.286865234375 402.256622314453 L 349.364013671875 402.1310119628905 L 349.39263916015625 402.06161499023426 M 349.3937072753906 338.77334594726557 L 349.46600341796875 338.59899902343744 L 349.52801513671875 338.33898925781244 L 349.54901123046875 338.0719909667968 L 349.5369873046875 337.9200134277343 L 349.52801513671875 337.8059997558593 L 349.46600341796875 337.5459899902343 L 349.364013671875 337.2999877929687 L 349.2239990234375 337.0719909667968 L 349.10125732421875 336.92797851562494 L 349.0509948730469 336.8689880371093 L 348.8479919433594 336.6950073242187 L 348.6199951171875 336.5559997558593 L 348.37298583984375 336.45300292968744 L 348.22125244140625 336.4168090820312 L 348.1600036621094 336.40222167968744 L 348.1130065917969 336.39099121093744 L 347.84698486328125 336.36999511718744 L 347.58099365234375 336.39099121093744 L 347.3210144042969 336.45300292968744 L 347.1996154785156 336.5036315917968 L 347.0740051269531 336.5559997558593 L 346.84600830078125 336.6950073242187 L 346.64300537109375 336.8689880371093 L 346.4700012207031 337.0719909667968 L 346.4065856933594 337.1752624511718 L 346.3299865722656 337.2999877929687 L 346.2279968261719 337.5459899902343 L 346.1650085449219 337.8059997558593 L 346.156005859375 337.9200134277343 L 346.1440124511719 338.0719909667968 L 346.1650085449219 338.33898925781244 L 346.2279968261719 338.59899902343744 L 346.240478515625 338.6291198730468 L 346.3299865722656 338.84500122070307 L 346.4700012207031 339.07299804687494 L 346.64300537109375 339.27600097656244 L 346.84600830078125 339.4500122070312 L 346.9049987792969 339.48596191406244 L 346.9936828613281 339.54003906249994 L 347.0740051269531 339.58898925781244 L 347.3210144042969 339.6919860839843 L 347.58099365234375 339.7539978027343 L 347.84698486328125 339.7749938964843 L 348.0493469238281 339.75903320312494 L 348.1130065917969 339.7539978027343 L 348.1600036621094 339.74279785156244 L 348.37298583984375 339.6919860839843 L 348.6199951171875 339.58898925781244 L 348.8479919433594 339.4500122070312 L 349.0509948730469 339.27600097656244 L 349.2239990234375 339.07299804687494 L 349.2689208984375 338.9998474121093 L 349.364013671875 338.84500122070307 L 349.3937072753906 338.77334594726557 M 346.8160095214844 377.81201171874994 L 346.8160095214844 385.80206298828114 L 346.8160095214844 393.56698608398426 L 348.0465087890625 393.56698608398426 L 348.8210144042969 393.56698608398426 L 348.8210144042969 393.55999755859364 L 349.9100036621094 393.55999755859364 L 349.9100036621094 388.5701904296874 L 349.9100036621094 377.81201171874994 L 349.9100036621094 377.8049926757812 L 346.9049987792969 377.8049926757812 L 346.9049987792969 377.81201171874994 L 346.8160095214844 377.81201171874994 M 346.8160095214844 352.06201171874994 L 346.8160095214844 374.0669860839843 L 346.9049987792969 374.0669860839843 L 348.8210144042969 374.0669860839843 L 348.8210144042969 374.0599975585937 L 349.9100036621094 374.0599975585937 L 349.9100036621094 352.06201171874994 L 349.9100036621094 352.0549926757812 L 346.9049987792969 352.0549926757812 L 346.9049987792969 352.06201171874994 L 346.8160095214844 352.06201171874994 M 346.22021484375 440.83099365234364 L 346.1650085449219 441.0580139160155 L 346.1440124511719 441.32501220703114 L 346.1650085449219 441.59100341796864 L 346.2279968261719 441.85101318359364 L 346.24591064453125 441.89437866210926 L 346.3299865722656 442.09799194335926 L 346.4700012207031 442.32598876953114 L 346.50579833984375 442.36801147460926 L 346.64300537109375 442.52899169921864 L 346.84600830078125 442.70199584960926 L 346.971923828125 442.779327392578 L 347.0740051269531 442.84201049804676 L 347.3210144042969 442.9440002441405 L 347.58099365234375 443.0060119628905 L 347.84698486328125 443.0270080566405 L 347.9983825683594 443.0150451660155 L 348.1130065917969 443.0060119628905 L 348.37298583984375 442.9440002441405 L 348.6199951171875 442.84201049804676 L 348.8479919433594 442.70199584960926 L 348.97418212890625 442.5944824218749 L 349.0509948730469 442.52899169921864 L 349.1590576171875 442.4022216796874 L 349.1882019042969 442.36801147460926 L 349.2239990234375 442.32598876953114 L 349.364013671875 442.09799194335926 L 349.3903503417969 442.0341796874999 L 349.46600341796875 441.85101318359364 L 349.52801513671875 441.59100341796864 L 349.54901123046875 441.32501220703114 L 349.52801513671875 441.0580139160155 L 349.4736633300781 440.83099365234364 L 349.46600341796875 440.79901123046864 L 349.364013671875 440.5520019531249 L 349.2239990234375 440.324005126953 L 349.0954284667969 440.173126220703 L 349.0509948730469 440.1210021972655 L 348.8479919433594 439.94699096679676 L 348.6199951171875 439.8080139160155 L 348.37298583984375 439.70599365234364 L 348.18231201171875 439.6597900390624 L 348.1600036621094 439.65438842773426 L 348.1130065917969 439.64300537109364 L 347.84698486328125 439.62200927734364 L 347.58099365234375 439.64300537109364 L 347.3210144042969 439.70599365234364 L 347.1479797363281 439.77743530273426 L 347.0740051269531 439.8080139160155 L 346.84600830078125 439.94699096679676 L 346.64300537109375 440.1210021972655 L 346.4734191894531 440.32000732421864 L 346.4700012207031 440.324005126953 L 346.3797912597656 440.47091674804676 L 346.3299865722656 440.5520019531249 L 346.2279968261719 440.79901123046864 L 346.22021484375 440.83099365234364 M 352.3340148925781 428.105010986328 L 352.28900146484375 428.105010986328 L 352.22601318359375 428.105010986328 L 352.218994140625 428.105010986328 L 350.9930114746094 428.105010986328 L 350.91400146484375 428.105010986328 L 350.8500061035156 428.105010986328 L 350.8500061035156 428.2359924316405 L 350.8500061035156 430.5794982910155 L 350.8500061035156 435.14401245117176 L 350.8500061035156 435.2359924316405 L 350.91400146484375 435.2359924316405 L 350.9930114746094 435.2359924316405 L 352.218994140625 435.2359924316405 L 352.22601318359375 435.2359924316405 L 352.28900146484375 435.2359924316405 L 352.3340148925781 435.2359924316405 L 352.3340148925781 431.30499267578114 L 352.3340148925781 428.2359924316405 L 352.3340148925781 428.105010986328 M 353.82501220703125 286.7739868164062 L 353.9375 286.72000122070307 L 353.9750061035156 286.7019958496093 L 354.11700439453125 286.6170043945312 L 354.2510070800781 286.51699829101557 L 354.3039855957031 286.46874999999994 L 354.3739929199219 286.4049987792968 L 354.4849853515625 286.28100585937494 L 354.5840148925781 286.14700317382807 L 354.66900634765625 286.0039978027343 L 354.739990234375 285.8519897460937 L 354.7959899902344 285.6950073242187 L 354.8370056152344 285.53298950195307 L 354.8609924316406 285.3680114746093 L 354.8689880371094 285.2009887695312 L 354.8609924316406 285.0339965820312 L 354.8370056152344 284.8689880371093 L 354.7959899902344 284.7070007324218 L 354.7835998535156 284.67199707031244 L 354.739990234375 284.5490112304687 L 354.66900634765625 284.3980102539062 L 354.5840148925781 284.25500488281244 L 354.4849853515625 284.12100219726557 L 354.3739929199219 283.9970092773437 L 354.3039855957031 283.93325805664057 L 354.2510070800781 283.88500976562494 L 354.11700439453125 283.7850036621093 L 353.9750061035156 283.7000122070312 L 353.82501220703125 283.6279907226562 L 353.66900634765625 283.5719909667968 L 353.50799560546875 283.53100585937494 L 353.3429870605469 283.50698852539057 L 353.1780090332031 283.4979858398437 L 353.0119934082031 283.50698852539057 L 352.8479919433594 283.53100585937494 L 352.68701171875 283.5719909667968 L 352.5299987792969 283.6279907226562 L 352.3800048828125 283.7000122070312 L 352.2560119628906 283.7742309570312 L 352.2380065917969 283.7850036621093 L 352.10400390625 283.88500976562494 L 351.9809875488281 283.9970092773437 L 351.8699951171875 284.12100219726557 L 351.77099609375 284.25500488281244 L 351.6860046386719 284.3980102539062 L 351.614990234375 284.5490112304687 L 351.5714111328125 284.67199707031244 L 351.5589904785156 284.7070007324218 L 351.51800537109375 284.8689880371093 L 351.4939880371094 285.0339965820312 L 351.4859924316406 285.2009887695312 L 351.4939880371094 285.3680114746093 L 351.51800537109375 285.53298950195307 L 351.5589904785156 285.6950073242187 L 351.5593566894531 285.6960144042968 L 351.614990234375 285.8519897460937 L 351.6860046386719 286.0039978027343 L 351.77099609375 286.14700317382807 L 351.8699951171875 286.28100585937494 L 351.9809875488281 286.4049987792968 L 352.10400390625 286.51699829101557 L 352.2380065917969 286.6170043945312 L 352.2560119628906 286.6277770996093 L 352.3800048828125 286.7019958496093 L 352.4175109863281 286.72000122070307 L 352.5299987792969 286.7739868164062 L 352.68701171875 286.82998657226557 L 352.8479919433594 286.87100219726557 L 353.0119934082031 286.8949890136718 L 353.1780090332031 286.9030151367187 L 353.3429870605469 286.8949890136718 L 353.50799560546875 286.87100219726557 L 353.66900634765625 286.82998657226557 L 353.82501220703125 286.7739868164062 M 368.20001220703125 355.7120056152343 L 368.20001220703125 350.81762695312494 L 368.20001220703125 350.66101074218744 L 366.3380126953125 350.66101074218744 L 366.3380126953125 355.7120056152343 L 367.42437744140625 355.7120056152343 L 368.20001220703125 355.7120056152343 M 362.8179931640625 313.33401489257807 L 366.406005859375 311.2630004882812 L 366.406005859375 307.11999511718744 L 362.8179931640625 305.04800415039057 L 359.2300109863281 307.11999511718744 L 359.2300109863281 311.2630004882812 L 362.8179931640625 313.33401489257807 z" fill="none" stroke="rgb(255,0,0)" stroke-width="0.001mm" />
</svg>