  0
SECTION
  2
HEADER
  9
$ACADVER
  1
AC1009
  9
$FILLMODE
 70
 0
  9
$SPLFRAME
 70
 1
  9
$EXTMIN
 10
0
 20
0
 30
0.0
  9
$EXTMAX
 10
41.6667
 20
41.6667
 30
0.0
  0
ENDSEC
  0
SECTION
  2
TABLES
  0
TABLE
  2
LAYER
 70
1
  0
LAYER
  2
0
 70
     0
 62
     7
  6
CONTINUOUS
  0
ENDTAB
  0
ENDSEC
  0
SECTION
  2
ENTITIES
  0
POLYLINE
  8
0
 62
     254
 66
     1
 10
0
 20
0
 30
0.0
 70
     1
 40
0
 41
0
  0
VERTEX
  8
0
 10
0.584147
 20
0.0490451
 30
0.0
 40
0
 41
0
  0
VERTEX
  8
0
 10
0.0393881
 20
0.0490451
 30
0.0
 40
0
 41
0
  0
VERTEX
  8
0
 10
0.0393881
 20
0.627658
 30
0.0
 40
0
 41
0
  0
VERTEX
  8
0
 10
0.272461
 20
0.797038
 30
0.0
 40
0
 41
0
  0
VERTEX
  8
0
 10
0.47206
 20
0.942057
 30
0.0
 40
0
 41
0
  0
VERTEX
  8
0
 10
0.605903
 20
1.03928
 30
0.0
 40
0
 41
0
  0
VERTEX
  8
0
 10
0.622993
 20
1.0517
 30
0.0
 40
0
 41
0
  0
VERTEX
  8
0
 10
0.598958
 20
1.0682
 30
0.0
 40
0
 41
0
  0
VERTEX
  8
0
 10
0.562446
 20
1.09798
 30
0.0
 40
0
 41
0
  0
VERTEX
  8
0
 10
0.550239
 20
1.10997
 30
0.0
 40
0
 41
0
  0
VERTEX
  8
0
 10
0.531685
 20
1.12826
 30
0.0
 40
0
 41
0
  0
VERTEX
  8
0
 10
0.507107
 20
1.1588
 30
0.0
 40
0
 41
0
  0
VERTEX
  8
0
 10
0.488824
 20
1.18929
 30
0.0
 40
0
 41
0
  0
VERTEX
  8
0
 10
0.477106
 20
1.21951
 30
0.0
 40
0
 41
0
  0
VERTEX
  8
0
 10
0.47206
 20
1.24908
 30
0.0
 40
0
 41
0
  0
VERTEX
  8
0
 10
0.473687
 20
1.27778
 30
0.0
 40
0
 41
0
  0
VERTEX
  8
0
 10
0.48074
 20
1.30132
 30
0.0
 40
0
 41
0
  0
VERTEX
  8
0
 10
0.481933
 20
1.30528
 30
0.0
 40
0
 41
0
  0
VERTEX
  8
0
 10
0.496799
 20
1.33133
 30
0.0
 40
0
 41
0
  0
VERTEX
  8
0
 10
0.518175
 20
1.35569
 30
0.0
 40
0
 41
0
  0
VERTEX
  8
0
 10
0.545736
 20
1.37809
 30
0.0
 40
0
 41
0
  0
VERTEX
  8
0
 10
0.550239
 20
1.38081
 30
0.0
 40
0
 41
0
  0
VERTEX
  8
0
 10
0.579318
 20
1.39844
 30
0.0
 40
0
 41
0
  0
VERTEX
  8
0
 10
0.618599
 20
1.41639
 30
0.0
 40
0
 41
0
  0
VERTEX
  8
0
 10
0.663086
 20
1.43181
 30
0.0
 40
0
 41
0
  0
VERTEX
  8
0
 10
0.694228
 20
1.43989
 30
0.0
 40
0
 41
0
  0
VERTEX
  8
0
 10
0.707736
 20
1.44336
 30
0.0
 40
0
 41
0
  0
VERTEX
  8
0
 10
0.712457
 20
1.44461
 30
0.0
 40
0
 41
0
  0
VERTEX
  8
0
 10
0.766222
 20
1.45458
 30
0.0
 40
0
 41
0
  0
VERTEX
  8
0
 10
0.823839
 20
1.46169
 30
0.0
 40
0
 41
0
  0
VERTEX
  8
0
 10
0.884765
 20
1.46588
 30
0.0
 40
0
 41
0
  0
VERTEX
  8
0
 10
0.948406
 20
1.46707
 30
0.0
 40
0
 41
0
  0
VERTEX
  8
0
 10
1.01416
 20
1.46522
 30
0.0
 40
0
 41
0
  0
VERTEX
  8
0
 10
1.06049
 20
1.46192
 30
0.0
 40
0
 41
0
  0
VERTEX
  8
0
 10
1.08133
 20
1.46044
 30
0.0
 40
0
 41
0
  0
VERTEX
  8
0
 10
1.10688
 20
1.45751
 30
0.0
 40
0
 41
0
  0
VERTEX
  8
0
 10
1.10775
 20
1.45856
 30
0.0
 40
0
 41
0
  0
VERTEX
  8
0
 10
1.11122
 20
1.46257
 30
0.0
 40
0
 41
0
  0
VERTEX
  8
0
 10
1.11507
 20
1.46707
 30
0.0
 40
0
 41
0
  0
VERTEX
  8
0
 10
1.17768
 20
1.53956
 30
0.0
 40
0
 41
0
  0
VERTEX
  8
0
 10
1.33925
 20
1.72889
 30
0.0
 40
0
 41
0
  0
VERTEX
  8
0
 10
1.41911
 20
1.82249
 30
0.0
 40
0
 41
0
  0
VERTEX
  8
0
 10
1.66135
 20
2.10954
 30
0.0
 40
0
 41
0
  0
VERTEX
  8
0
 10
1.69314
 20
2.14768
 30
0.0
 40
0
 41
0
  0
VERTEX
  8
0
 10
1.90196
 20
2.39789
 30
0.0
 40
0
 41
0
  0
VERTEX
  8
0
 10
2.13872
 20
2.68479
 30
0.0
 40
0
 41
0
  0
VERTEX
  8
0
 10
2.36919
 20
2.9675
 30
0.0
 40
0
 41
0
  0
VERTEX
  8
0
 10
2.58578
 20
3.23643
 30
0.0
 40
0
 41
0
  0
VERTEX
  8
0
 10
2.59136
 20
3.24333
 30
0.0
 40
0
 41
0
  0
VERTEX
  8
0
 10
2.62935
 20
3.29113
 30
0.0
 40
0
 41
0
  0
VERTEX
  8
0
 10
2.8029
 20
3.50956
 30
0.0
 40
0
 41
0
  0
VERTEX
  8
0
 10
3.0019
 20
3.76357
 30
0.0
 40
0
 41
0
  0
VERTEX
  8
0
 10
3.11556
 20
3.91108
 30
0.0
 40
0
 41
0
  0
VERTEX
  8
0
 10
3.13286
 20
3.93169
 30
0.0
 40
0
 41
0
  0
VERTEX
  8
0
 10
3.08686
 20
4.08572
 30
0.0
 40
0
 41
0
  0
VERTEX
  8
0
 10
3.2251
 20
4.24414
 30
0.0
 40
0
 41
0
  0
VERTEX
  8
0
 10
3.28276
 20
4.31028
 30
0.0
 40
0
 41
0
  0
VERTEX
  8
0
 10
3.31164
 20
4.34337
 30
0.0
 40
0
 41
0
  0
VERTEX
  8
0
 10
3.32058
 20
4.35363
 30
0.0
 40
0
 41
0
  0
VERTEX
  8
0
 10
3.49653
 20
4.76617
 30
0.0
 40
0
 41
0
  0
VERTEX
  8
0
 10
3.66721
 20
4.75097
 30
0.0
 40
0
 41
0
  0
VERTEX
  8
0
 10
3.80963
 20
4.73822
 30
0.0
 40
0
 41
0
  0
VERTEX
  8
0
 10
3.81218
 20
4.73801
 30
0.0
 40
0
 41
0
  0
VERTEX
  8
0
 10
3.95751
 20
4.72504
 30
0.0
 40
0
 41
0
  0
VERTEX
  8
0
 10
3.99756
 20
4.55007
 30
0.0
 40
0
 41
0
  0
VERTEX
  8
0
 10
4.00299
 20
4.52647
 30
0.0
 40
0
 41
0
  0
VERTEX
  8
0
 10
4.01465
 20
4.47558
 30
0.0
 40
0
 41
0
  0
VERTEX
  8
0
 10
4.07454
 20
4.46625
 30
0.0
 40
0
 41
0
  0
VERTEX
  8
0
 10
4.09099
 20
4.41114
 30
0.0
 40
0
 41
0
  0
VERTEX
  8
0
 10
4.30333
 20
4.39219
 30
0.0
 40
0
 41
0
  0
VERTEX
  8
0
 10
4.34321
 20
4.38861
 30
0.0
 40
0
 41
0
  0
VERTEX
  8
0
 10
4.36382
 20
4.29856
 30
0.0
 40
0
 41
0
  0
VERTEX
  8
0
 10
4.36572
 20
4.29031
 30
0.0
 40
0
 41
0
  0
VERTEX
  8
0
 10
4.43257
 20
3.99858
 30
0.0
 40
0
 41
0
  0
VERTEX
  8
0
 10
4.44656
 20
3.9375
 30
0.0
 40
0
 41
0
  0
VERTEX
  8
0
 10
4.26492
 20
3.82878
 30
0.0
 40
0
 41
0
  0
VERTEX
  8
0
 10
4.24658
 20
3.81782
 30
0.0
 40
0
 41
0
  0
VERTEX
  8
0
 10
4.07487
 20
3.715
 30
0.0
 40
0
 41
0
  0
VERTEX
  8
0
 10
3.98079
 20
3.60726
 30
0.0
 40
0
 41
0
  0
VERTEX
  8
0
 10
3.95096
 20
3.57303
 30
0.0
 40
0
 41
0
  0
VERTEX
  8
0
 10
3.83154
 20
3.43608
 30
0.0
 40
0
 41
0
  0
VERTEX
  8
0
 10
3.67003
 20
3.46121
 30
0.0
 40
0
 41
0
  0
VERTEX
  8
0
 10
3.66222
 20
3.4624
 30
0.0
 40
0
 41
0
  0
VERTEX
  8
0
 10
3.66129
 20
3.46257
 30
0.0
 40
0
 41
0
  0
VERTEX
  8
0
 10
3.65972
 20
3.46104
 30
0.0
 40
0
 41
0
  0
VERTEX
  8
0
 10
3.53976
 20
3.32958
 30
0.0
 40
0
 41
0
  0
VERTEX
  8
0
 10
3.45611
 20
3.23643
 30
0.0
 40
0
 41
0
  0
VERTEX
  8
0
 10
3.32411
 20
3.08946
 30
0.0
 40
0
 41
0
  0
VERTEX
  8
0
 10
3.09868
 20
2.8349
 30
0.0
 40
0
 41
0
  0
VERTEX
  8
0
 10
2.86567
 20
2.56825
 30
0.0
 40
0
 41
0
  0
VERTEX
  8
0
 10
2.62728
 20
2.29215
 30
0.0
 40
0
 41
0
  0
VERTEX
  8
0
 10
2.38585
 20
2.00917
 30
0.0
 40
0
 41
0
  0
VERTEX
  8
0
 10
2.3851
 20
2.00831
 30
0.0
 40
0
 41
0
  0
VERTEX
  8
0
 10
2.33279
 20
1.94635
 30
0.0
 40
0
 41
0
  0
VERTEX
  8
0
 10
2.14361
 20
1.72211
 30
0.0
 40
0
 41
0
  0
VERTEX
  8
0
 10
1.903
 20
1.43381
 30
0.0
 40
0
 41
0
  0
VERTEX
  8
0
 10
1.69314
 20
1.17947
 30
0.0
 40
0
 41
0
  0
VERTEX
  8
0
 10
1.66629
 20
1.14686
 30
0.0
 40
0
 41
0
  0
VERTEX
  8
0
 10
1.57856
 20
1.03928
 30
0.0
 40
0
 41
0
  0
VERTEX
  8
0
 10
1.46371
 20
0.898438
 30
0.0
 40
0
 41
0
  0
VERTEX
  8
0
 10
1.45182
 20
0.88699
 30
0.0
 40
0
 41
0
  0
VERTEX
  8
0
 10
1.42518
 20
0.861219
 30
0.0
 40
0
 41
0
  0
VERTEX
  8
0
 10
1.38211
 20
0.819661
 30
0.0
 40
0
 41
0
  0
VERTEX
  8
0
 10
1.33925
 20
0.778267
 30
0.0
 40
0
 41
0
  0
VERTEX
  8
0
 10
1.21294
 20
0.65625
 30
0.0
 40
0
 41
0
  0
VERTEX
  8
0
 10
0.584147
 20
0.0490451
 30
0.0
 40
0
 41
0
  0
SEQEND
 8
0
  0
POLYLINE
  8
0
 62
     254
 66
     1
 10
0
 20
0
 30
0.0
 70
     1
 40
0
 41
0
  0
VERTEX
  8
0
 10
0.353028
 20
0.430231
 30
0.0
 40
0
 41
0
  0
VERTEX
  8
0
 10
0.352539
 20
0.421442
 30
0.0
 40
0
 41
0
  0
VERTEX
  8
0
 10
0.353028
 20
0.412597
 30
0.0
 40
0
 41
0
  0
VERTEX
  8
0
 10
0.354546
 20
0.403863
 30
0.0
 40
0
 41
0
  0
VERTEX
  8
0
 10
0.356988
 20
0.3954
 30
0.0
 40
0
 41
0
  0
VERTEX
  8
0
 10
0.360351
 20
0.387207
 30
0.0
 40
0
 41
0
  0
VERTEX
  8
0
 10
0.364583
 20
0.379503
 30
0.0
 40
0
 41
0
  0
VERTEX
  8
0
 10
0.369737
 20
0.372288
 30
0.0
 40
0
 41
0
  0
VERTEX
  8
0
 10
0.37169
 20
0.370063
 30
0.0
 40
0
 41
0
  0
VERTEX
  8
0
 10
0.375651
 20
0.365668
 30
0.0
 40
0
 41
0
  0
VERTEX
  8
0
 10
0.382215
 20
0.359754
 30
0.0
 40
0
 41
0
  0
VERTEX
  8
0
 10
0.389432
 20
0.35471
 30
0.0
 40
0
 41
0
  0
VERTEX
  8
0
 10
0.39719
 20
0.350424
 30
0.0
 40
0
 41
0
  0
VERTEX
  8
0
 10
0.405328
 20
0.347006
 30
0.0
 40
0
 41
0
  0
VERTEX
  8
0
 10
0.413846
 20
0.344564
 30
0.0
 40
0
 41
0
  0
VERTEX
  8
0
 10
0.422581
 20
0.343099
 30
0.0
 40
0
 41
0
  0
VERTEX
  8
0
 10
0.431369
 20
0.342611
 30
0.0
 40
0
 41
0
  0
VERTEX
  8
0
 10
0.440212
 20
0.343099
 30
0.0
 40
0
 41
0
  0
VERTEX
  8
0
 10
0.448947
 20
0.344564
 30
0.0
 40
0
 41
0
  0
VERTEX
  8
0
 10
0.452311
 20
0.34554
 30
0.0
 40
0
 41
0
  0
VERTEX
  8
0
 10
0.457411
 20
0.347006
 30
0.0
 40
0
 41
0
  0
VERTEX
  8
0
 10
0.465603
 20
0.350424
 30
0.0
 40
0
 41
0
  0
VERTEX
  8
0
 10
0.47206
 20
0.354004
 30
0.0
 40
0
 41
0
  0
VERTEX
  8
0
 10
0.473307
 20
0.35471
 30
0.0
 40
0
 41
0
  0
VERTEX
  8
0
 10
0.480578
 20
0.359754
 30
0.0
 40
0
 41
0
  0
VERTEX
  8
0
 10
0.487142
 20
0.365668
 30
0.0
 40
0
 41
0
  0
VERTEX
  8
0
 10
0.493056
 20
0.372288
 30
0.0
 40
0
 41
0
  0
VERTEX
  8
0
 10
0.498156
 20
0.379503
 30
0.0
 40
0
 41
0
  0
VERTEX
  8
0
 10
0.502388
 20
0.387207
 30
0.0
 40
0
 41
0
  0
VERTEX
  8
0
 10
0.505806
 20
0.3954
 30
0.0
 40
0
 41
0
  0
VERTEX
  8
0
 10
0.508247
 20
0.403863
 30
0.0
 40
0
 41
0
  0
VERTEX
  8
0
 10
0.509711
 20
0.412597
 30
0.0
 40
0
 41
0
  0
VERTEX
  8
0
 10
0.509819
 20
0.414387
 30
0.0
 40
0
 41
0
  0
VERTEX
  8
0
 10
0.5102
 20
0.421442
 30
0.0
 40
0
 41
0
  0
VERTEX
  8
0
 10
0.509711
 20
0.430231
 30
0.0
 40
0
 41
0
  0
VERTEX
  8
0
 10
0.508247
 20
0.438965
 30
0.0
 40
0
 41
0
  0
VERTEX
  8
0
 10
0.505806
 20
0.447428
 30
0.0
 40
0
 41
0
  0
VERTEX
  8
0
 10
0.502388
 20
0.455621
 30
0.0
 40
0
 41
0
  0
VERTEX
  8
0
 10
0.498156
 20
0.463325
 30
0.0
 40
0
 41
0
  0
VERTEX
  8
0
 10
0.493056
 20
0.470594
 30
0.0
 40
0
 41
0
  0
VERTEX
  8
0
 10
0.487142
 20
0.47716
 30
0.0
 40
0
 41
0
  0
VERTEX
  8
0
 10
0.480578
 20
0.483074
 30
0.0
 40
0
 41
0
  0
VERTEX
  8
0
 10
0.473307
 20
0.488172
 30
0.0
 40
0
 41
0
  0
VERTEX
  8
0
 10
0.47206
 20
0.488878
 30
0.0
 40
0
 41
0
  0
VERTEX
  8
0
 10
0.465603
 20
0.492458
 30
0.0
 40
0
 41
0
  0
VERTEX
  8
0
 10
0.459418
 20
0.495008
 30
0.0
 40
0
 41
0
  0
VERTEX
  8
0
 10
0.457411
 20
0.495822
 30
0.0
 40
0
 41
0
  0
VERTEX
  8
0
 10
0.448947
 20
0.498264
 30
0.0
 40
0
 41
0
  0
VERTEX
  8
0
 10
0.440212
 20
0.499783
 30
0.0
 40
0
 41
0
  0
VERTEX
  8
0
 10
0.431369
 20
0.500271
 30
0.0
 40
0
 41
0
  0
VERTEX
  8
0
 10
0.422581
 20
0.499783
 30
0.0
 40
0
 41
0
  0
VERTEX
  8
0
 10
0.413846
 20
0.498264
 30
0.0
 40
0
 41
0
  0
VERTEX
  8
0
 10
0.405328
 20
0.495822
 30
0.0
 40
0
 41
0
  0
VERTEX
  8
0
 10
0.403375
 20
0.495008
 30
0.0
 40
0
 41
0
  0
VERTEX
  8
0
 10
0.39719
 20
0.492458
 30
0.0
 40
0
 41
0
  0
VERTEX
  8
0
 10
0.389432
 20
0.488172
 30
0.0
 40
0
 41
0
  0
VERTEX
  8
0
 10
0.382215
 20
0.483074
 30
0.0
 40
0
 41
0
  0
VERTEX
  8
0
 10
0.375651
 20
0.47716
 30
0.0
 40
0
 41
0
  0
VERTEX
  8
0
 10
0.37169
 20
0.472765
 30
0.0
 40
0
 41
0
  0
VERTEX
  8
0
 10
0.369737
 20
0.470594
 30
0.0
 40
0
 41
0
  0
VERTEX
  8
0
 10
0.364583
 20
0.463325
 30
0.0
 40
0
 41
0
  0
VERTEX
  8
0
 10
0.360351
 20
0.455621
 30
0.0
 40
0
 41
0
  0
VERTEX
  8
0
 10
0.356988
 20
0.447428
 30
0.0
 40
0
 41
0
  0
VERTEX
  8
0
 10
0.354546
 20
0.438965
 30
0.0
 40
0
 41
0
  0
VERTEX
  8
0
 10
0.353028
 20
0.430231
 30
0.0
 40
0
 41
0
  0
SEQEND
 8
0
  0
POLYLINE
  8
0
 62
     254
 66
     1
 10
0
 20
0
 30
0.0
 70
     1
 40
0
 41
0
  0
VERTEX
  8
0
 10
0.512261
 20
0.632596
 30
0.0
 40
0
 41
0
  0
VERTEX
  8
0
 10
0.511556
 20
0.619358
 30
0.0
 40
0
 41
0
  0
VERTEX
  8
0
 10
0.512261
 20
0.606119
 30
0.0
 40
0
 41
0
  0
VERTEX
  8
0
 10
0.51454
 20
0.593099
 30
0.0
 40
0
 41
0
  0
VERTEX
  8
0
 10
0.518175
 20
0.580296
 30
0.0
 40
0
 41
0
  0
VERTEX
  8
0
 10
0.523275
 20
0.568088
 30
0.0
 40
0
 41
0
  0
VERTEX
  8
0
 10
0.529676
 20
0.556478
 30
0.0
 40
0
 41
0
  0
VERTEX
  8
0
 10
0.532932
 20
0.551867
 30
0.0
 40
0
 41
0
  0
VERTEX
  8
0
 10
0.537381
 20
0.545682
 30
0.0
 40
0
 41
0
  0
VERTEX
  8
0
 10
0.546169
 20
0.535807
 30
0.0
 40
0
 41
0
  0
VERTEX
  8
0
 10
0.556044
 20
0.52691
 30
0.0
 40
0
 41
0
  0
VERTEX
  8
0
 10
0.566894
 20
0.51926
 30
0.0
 40
0
 41
0
  0
VERTEX
  8
0
 10
0.57845
 20
0.512858
 30
0.0
 40
0
 41
0
  0
VERTEX
  8
0
 10
0.590712
 20
0.507813
 30
0.0
 40
0
 41
0
  0
VERTEX
  8
0
 10
0.603461
 20
0.504124
 30
0.0
 40
0
 41
0
  0
VERTEX
  8
0
 10
0.613607
 20
0.502388
 30
0.0
 40
0
 41
0
  0
VERTEX
  8
0
 10
0.616536
 20
0.501899
 30
0.0
 40
0
 41
0
  0
VERTEX
  8
0
 10
0.629775
 20
0.501139
 30
0.0
 40
0
 41
0
  0
VERTEX
  8
0
 10
0.643013
 20
0.501899
 30
0.0
 40
0
 41
0
  0
VERTEX
  8
0
 10
0.656088
 20
0.504124
 30
0.0
 40
0
 41
0
  0
VERTEX
  8
0
 10
0.668837
 20
0.507813
 30
0.0
 40
0
 41
0
  0
VERTEX
  8
0
 10
0.681044
 20
0.512858
 30
0.0
 40
0
 41
0
  0
VERTEX
  8
0
 10
0.692654
 20
0.51926
 30
0.0
 40
0
 41
0
  0
VERTEX
  8
0
 10
0.694228
 20
0.5204
 30
0.0
 40
0
 41
0
  0
VERTEX
  8
0
 10
0.70345
 20
0.52691
 30
0.0
 40
0
 41
0
  0
VERTEX
  8
0
 10
0.713325
 20
0.535807
 30
0.0
 40
0
 41
0
  0
VERTEX
  8
0
 10
0.722168
 20
0.545682
 30
0.0
 40
0
 41
0
  0
VERTEX
  8
0
 10
0.729818
 20
0.556478
 30
0.0
 40
0
 41
0
  0
VERTEX
  8
0
 10
0.736274
 20
0.568088
 30
0.0
 40
0
 41
0
  0
VERTEX
  8
0
 10
0.741319
 20
0.580296
 30
0.0
 40
0
 41
0
  0
VERTEX
  8
0
 10
0.745008
 20
0.593099
 30
0.0
 40
0
 41
0
  0
VERTEX
  8
0
 10
0.747233
 20
0.606119
 30
0.0
 40
0
 41
0
  0
VERTEX
  8
0
 10
0.747993
 20
0.619358
 30
0.0
 40
0
 41
0
  0
VERTEX
  8
0
 10
0.747233
 20
0.632596
 30
0.0
 40
0
 41
0
  0
VERTEX
  8
0
 10
0.745008
 20
0.645671
 30
0.0
 40
0
 41
0
  0
VERTEX
  8
0
 10
0.741971
 20
0.65625
 30
0.0
 40
0
 41
0
  0
VERTEX
  8
0
 10
0.741319
 20
0.658365
 30
0.0
 40
0
 41
0
  0
VERTEX
  8
0
 10
0.736274
 20
0.670628
 30
0.0
 40
0
 41
0
  0
VERTEX
  8
0
 10
0.729818
 20
0.682238
 30
0.0
 40
0
 41
0
  0
VERTEX
  8
0
 10
0.722168
 20
0.693088
 30
0.0
 40
0
 41
0
  0
VERTEX
  8
0
 10
0.713325
 20
0.702963
 30
0.0
 40
0
 41
0
  0
VERTEX
  8
0
 10
0.70345
 20
0.711751
 30
0.0
 40
0
 41
0
  0
VERTEX
  8
0
 10
0.694228
 20
0.718317
 30
0.0
 40
0
 41
0
  0
VERTEX
  8
0
 10
0.692654
 20
0.719456
 30
0.0
 40
0
 41
0
  0
VERTEX
  8
0
 10
0.681044
 20
0.725857
 30
0.0
 40
0
 41
0
  0
VERTEX
  8
0
 10
0.668837
 20
0.730957
 30
0.0
 40
0
 41
0
  0
VERTEX
  8
0
 10
0.656088
 20
0.734592
 30
0.0
 40
0
 41
0
  0
VERTEX
  8
0
 10
0.643013
 20
0.736817
 30
0.0
 40
0
 41
0
  0
VERTEX
  8
0
 10
0.629775
 20
0.737576
 30
0.0
 40
0
 41
0
  0
VERTEX
  8
0
 10
0.616536
 20
0.736817
 30
0.0
 40
0
 41
0
  0
VERTEX
  8
0
 10
0.613607
 20
0.736328
 30
0.0
 40
0
 41
0
  0
VERTEX
  8
0
 10
0.603461
 20
0.734592
 30
0.0
 40
0
 41
0
  0
VERTEX
  8
0
 10
0.590712
 20
0.730957
 30
0.0
 40
0
 41
0
  0
VERTEX
  8
0
 10
0.57845
 20
0.725857
 30
0.0
 40
0
 41
0
  0
VERTEX
  8
0
 10
0.566894
 20
0.719456
 30
0.0
 40
0
 41
0
  0
VERTEX
  8
0
 10
0.556044
 20
0.711751
 30
0.0
 40
0
 41
0
  0
VERTEX
  8
0
 10
0.546169
 20
0.702963
 30
0.0
 40
0
 41
0
  0
VERTEX
  8
0
 10
0.537381
 20
0.693088
 30
0.0
 40
0
 41
0
  0
VERTEX
  8
0
 10
0.532932
 20
0.686849
 30
0.0
 40
0
 41
0
  0
VERTEX
  8
0
 10
0.529676
 20
0.682238
 30
0.0
 40
0
 41
0
  0
VERTEX
  8
0
 10
0.523275
 20
0.670628
 30
0.0
 40
0
 41
0
  0
VERTEX
  8
0
 10
0.518175
 20
0.658365
 30
0.0
 40
0
 41
0
  0
VERTEX
  8
0
 10
0.517578
 20
0.65625
 30
0.0
 40
0
 41
0
  0
VERTEX
  8
0
 10
0.51454
 20
0.645671
 30
0.0
 40
0
 41
0
  0
VERTEX
  8
0
 10
0.512261
 20
0.632596
 30
0.0
 40
0
 41
0
  0
SEQEND
 8
0
  0
POLYLINE
  8
0
 62
     254
 66
     1
 10
0
 20
0
 30
0.0
 70
     1
 40
0
 41
0
  0
VERTEX
  8
0
 10
3.7461
 20
4.37896
 30
0.0
 40
0
 41
0
  0
VERTEX
  8
0
 10
3.74593
 20
4.38612
 30
0.0
 40
0
 41
0
  0
VERTEX
  8
0
 10
3.74338
 20
4.42301
 30
0.0
 40
0
 41
0
  0
VERTEX
  8
0
 10
3.7416
 20
4.43799
 30
0.0
 40
0
 41
0
  0
VERTEX
  8
0
 10
3.73996
 20
4.44586
 30
0.0
 40
0
 41
0
  0
VERTEX
  8
0
 10
3.73856
 20
4.45253
 30
0.0
 40
0
 41
0
  0
VERTEX
  8
0
 10
3.73736
 20
4.45632
 30
0.0
 40
0
 41
0
  0
VERTEX
  8
0
 10
3.73421
 20
4.46619
 30
0.0
 40
0
 41
0
  0
VERTEX
  8
0
 10
3.72868
 20
4.47874
 30
0.0
 40
0
 41
0
  0
VERTEX
  8
0
 10
3.72222
 20
4.48981
 30
0.0
 40
0
 41
0
  0
VERTEX
  8
0
 10
3.71479
 20
4.49914
 30
0.0
 40
0
 41
0
  0
VERTEX
  8
0
 10
3.70676
 20
4.50651
 30
0.0
 40
0
 41
0
  0
VERTEX
  8
0
 10
3.70085
 20
4.5101
 30
0.0
 40
0
 41
0
  0
VERTEX
  8
0
 10
3.69824
 20
4.51172
 30
0.0
 40
0
 41
0
  0
VERTEX
  8
0
 10
3.6894
 20
4.5146
 30
0.0
 40
0
 41
0
  0
VERTEX
  8
0
 10
3.68056
 20
4.51514
 30
0.0
 40
0
 41
0
  0
VERTEX
  8
0
 10
3.67751
 20
4.51497
 30
0.0
 40
0
 41
0
  0
VERTEX
  8
0
 10
3.65907
 20
4.51367
 30
0.0
 40
0
 41
0
  0
VERTEX
  8
0
 10
3.65169
 20
4.51215
 30
0.0
 40
0
 41
0
  0
VERTEX
  8
0
 10
3.65033
 20
4.51188
 30
0.0
 40
0
 41
0
  0
VERTEX
  8
0
 10
3.64204
 20
4.50776
 30
0.0
 40
0
 41
0
  0
VERTEX
  8
0
 10
3.63428
 20
4.50142
 30
0.0
 40
0
 41
0
  0
VERTEX
  8
0
 10
3.62739
 20
4.49306
 30
0.0
 40
0
 41
0
  0
VERTEX
  8
0
 10
3.62169
 20
4.4834
 30
0.0
 40
0
 41
0
  0
VERTEX
  8
0
 10
3.62136
 20
4.48275
 30
0.0
 40
0
 41
0
  0
VERTEX
  8
0
 10
3.61692
 20
4.47211
 30
0.0
 40
0
 41
0
  0
VERTEX
  8
0
 10
3.61649
 20
4.47108
 30
0.0
 40
0
 41
0
  0
VERTEX
  8
0
 10
3.61643
 20
4.47092
 30
0.0
 40
0
 41
0
  0
VERTEX
  8
0
 10
3.61274
 20
4.45774
 30
0.0
 40
0
 41
0
  0
VERTEX
  8
0
 10
3.61074
 20
4.44586
 30
0.0
 40
0
 41
0
  0
VERTEX
  8
0
 10
3.61029
 20
4.44353
 30
0.0
 40
0
 41
0
  0
VERTEX
  8
0
 10
3.60926
 20
4.42876
 30
0.0
 40
0
 41
0
  0
VERTEX
  8
0
 10
3.60965
 20
4.41368
 30
0.0
 40
0
 41
0
  0
VERTEX
  8
0
 10
3.61225
 20
4.37679
 30
0.0
 40
0
 41
0
  0
VERTEX
  8
0
 10
3.61361
 20
4.36524
 30
0.0
 40
0
 41
0
  0
VERTEX
  8
0
 10
3.61399
 20
4.36182
 30
0.0
 40
0
 41
0
  0
VERTEX
  8
0
 10
3.61703
 20
4.34728
 30
0.0
 40
0
 41
0
  0
VERTEX
  8
0
 10
3.62033
 20
4.33697
 30
0.0
 40
0
 41
0
  0
VERTEX
  8
0
 10
3.62142
 20
4.33361
 30
0.0
 40
0
 41
0
  0
VERTEX
  8
0
 10
3.62538
 20
4.32454
 30
0.0
 40
0
 41
0
  0
VERTEX
  8
0
 10
3.6269
 20
4.32107
 30
0.0
 40
0
 41
0
  0
VERTEX
  8
0
 10
3.62858
 20
4.31819
 30
0.0
 40
0
 41
0
  0
VERTEX
  8
0
 10
3.6334
 20
4.31
 30
0.0
 40
0
 41
0
  0
VERTEX
  8
0
 10
3.63943
 20
4.3024
 30
0.0
 40
0
 41
0
  0
VERTEX
  8
0
 10
3.64079
 20
4.30067
 30
0.0
 40
0
 41
0
  0
VERTEX
  8
0
 10
3.64268
 20
4.29893
 30
0.0
 40
0
 41
0
  0
VERTEX
  8
0
 10
3.64887
 20
4.29335
 30
0.0
 40
0
 41
0
  0
VERTEX
  8
0
 10
3.65739
 20
4.28814
 30
0.0
 40
0
 41
0
  0
VERTEX
  8
0
 10
3.66624
 20
4.28521
 30
0.0
 40
0
 41
0
  0
VERTEX
  8
0
 10
3.66797
 20
4.2851
 30
0.0
 40
0
 41
0
  0
VERTEX
  8
0
 10
3.67507
 20
4.28467
 30
0.0
 40
0
 41
0
  0
VERTEX
  8
0
 10
3.67751
 20
4.28483
 30
0.0
 40
0
 41
0
  0
VERTEX
  8
0
 10
3.67893
 20
4.28494
 30
0.0
 40
0
 41
0
  0
VERTEX
  8
0
 10
3.69656
 20
4.28614
 30
0.0
 40
0
 41
0
  0
VERTEX
  8
0
 10
3.70529
 20
4.28797
 30
0.0
 40
0
 41
0
  0
VERTEX
  8
0
 10
3.70828
 20
4.28944
 30
0.0
 40
0
 41
0
  0
VERTEX
  8
0
 10
3.7136
 20
4.29204
 30
0.0
 40
0
 41
0
  0
VERTEX
  8
0
 10
3.72131
 20
4.29839
 30
0.0
 40
0
 41
0
  0
VERTEX
  8
0
 10
3.72825
 20
4.30681
 30
0.0
 40
0
 41
0
  0
VERTEX
  8
0
 10
3.73426
 20
4.31706
 30
0.0
 40
0
 41
0
  0
VERTEX
  8
0
 10
3.7391
 20
4.32867
 30
0.0
 40
0
 41
0
  0
VERTEX
  8
0
 10
3.73915
 20
4.32894
 30
0.0
 40
0
 41
0
  0
VERTEX
  8
0
 10
3.73964
 20
4.33068
 30
0.0
 40
0
 41
0
  0
VERTEX
  8
0
 10
3.74289
 20
4.34207
 30
0.0
 40
0
 41
0
  0
VERTEX
  8
0
 10
3.74528
 20
4.35628
 30
0.0
 40
0
 41
0
  0
VERTEX
  8
0
 10
3.74588
 20
4.36524
 30
0.0
 40
0
 41
0
  0
VERTEX
  8
0
 10
3.74631
 20
4.3711
 30
0.0
 40
0
 41
0
  0
VERTEX
  8
0
 10
3.7461
 20
4.37896
 30
0.0
 40
0
 41
0
  0
SEQEND
 8
0
  0
POLYLINE
  8
0
 62
     254
 66
     1
 10
0
 20
0
 30
0.0
 70
     1
 40
0
 41
0
  0
VERTEX
  8
0
 10
3.6791
 20
4.20574
 30
0.0
 40
0
 41
0
  0
VERTEX
  8
0
 10
3.67079
 20
4.204
 30
0.0
 40
0
 41
0
  0
VERTEX
  8
0
 10
3.65744
 20
4.20117
 30
0.0
 40
0
 41
0
  0
VERTEX
  8
0
 10
3.63667
 20
4.19358
 30
0.0
 40
0
 41
0
  0
VERTEX
  8
0
 10
3.61708
 20
4.18321
 30
0.0
 40
0
 41
0
  0
VERTEX
  8
0
 10
3.59918
 20
4.17014
 30
0.0
 40
0
 41
0
  0
VERTEX
  8
0
 10
3.5969
 20
4.16797
 30
0.0
 40
0
 41
0
  0
VERTEX
  8
0
 10
3.58328
 20
4.15479
 30
0.0
 40
0
 41
0
  0
VERTEX
  8
0
 10
3.56967
 20
4.13732
 30
0.0
 40
0
 41
0
  0
VERTEX
  8
0
 10
3.5586
 20
4.11822
 30
0.0
 40
0
 41
0
  0
VERTEX
  8
0
 10
3.55029
 20
4.09765
 30
0.0
 40
0
 41
0
  0
VERTEX
  8
0
 10
3.54915
 20
4.09321
 30
0.0
 40
0
 41
0
  0
VERTEX
  8
0
 10
3.54807
 20
4.08871
 30
0.0
 40
0
 41
0
  0
VERTEX
  8
0
 10
3.54492
 20
4.07617
 30
0.0
 40
0
 41
0
  0
VERTEX
  8
0
 10
3.54258
 20
4.05414
 30
0.0
 40
0
 41
0
  0
VERTEX
  8
0
 10
3.5434
 20
4.03207
 30
0.0
 40
0
 41
0
  0
VERTEX
  8
0
 10
3.54465
 20
4.02485
 30
0.0
 40
0
 41
0
  0
VERTEX
  8
0
 10
3.54719
 20
4.01025
 30
0.0
 40
0
 41
0
  0
VERTEX
  8
0
 10
3.55404
 20
3.98921
 30
0.0
 40
0
 41
0
  0
VERTEX
  8
0
 10
3.55821
 20
3.98068
 30
0.0
 40
0
 41
0
  0
VERTEX
  8
0
 10
3.56381
 20
3.96929
 30
0.0
 40
0
 41
0
  0
VERTEX
  8
0
 10
3.56608
 20
3.96593
 30
0.0
 40
0
 41
0
  0
VERTEX
  8
0
 10
3.57438
 20
3.95361
 30
0.0
 40
0
 41
0
  0
VERTEX
  8
0
 10
3.57611
 20
3.95096
 30
0.0
 40
0
 41
0
  0
VERTEX
  8
0
 10
3.59093
 20
3.93451
 30
0.0
 40
0
 41
0
  0
VERTEX
  8
0
 10
3.5969
 20
3.92953
 30
0.0
 40
0
 41
0
  0
VERTEX
  8
0
 10
3.60792
 20
3.92025
 30
0.0
 40
0
 41
0
  0
VERTEX
  8
0
 10
3.62668
 20
3.90853
 30
0.0
 40
0
 41
0
  0
VERTEX
  8
0
 10
3.64686
 20
3.89953
 30
0.0
 40
0
 41
0
  0
VERTEX
  8
0
 10
3.66818
 20
3.89344
 30
0.0
 40
0
 41
0
  0
VERTEX
  8
0
 10
3.69011
 20
3.89031
 30
0.0
 40
0
 41
0
  0
VERTEX
  8
0
 10
3.71224
 20
3.89031
 30
0.0
 40
0
 41
0
  0
VERTEX
  8
0
 10
3.73415
 20
3.89344
 30
0.0
 40
0
 41
0
  0
VERTEX
  8
0
 10
3.75543
 20
3.89953
 30
0.0
 40
0
 41
0
  0
VERTEX
  8
0
 10
3.75814
 20
3.90072
 30
0.0
 40
0
 41
0
  0
VERTEX
  8
0
 10
3.77567
 20
3.90853
 30
0.0
 40
0
 41
0
  0
VERTEX
  8
0
 10
3.79443
 20
3.92025
 30
0.0
 40
0
 41
0
  0
VERTEX
  8
0
 10
3.81136
 20
3.93451
 30
0.0
 40
0
 41
0
  0
VERTEX
  8
0
 10
3.82622
 20
3.95096
 30
0.0
 40
0
 41
0
  0
VERTEX
  8
0
 10
3.82801
 20
3.95361
 30
0.0
 40
0
 41
0
  0
VERTEX
  8
0
 10
3.83578
 20
3.96511
 30
0.0
 40
0
 41
0
  0
VERTEX
  8
0
 10
3.8386
 20
3.96929
 30
0.0
 40
0
 41
0
  0
VERTEX
  8
0
 10
3.84831
 20
3.98921
 30
0.0
 40
0
 41
0
  0
VERTEX
  8
0
 10
3.85514
 20
4.01025
 30
0.0
 40
0
 41
0
  0
VERTEX
  8
0
 10
3.859
 20
4.03207
 30
0.0
 40
0
 41
0
  0
VERTEX
  8
0
 10
3.85938
 20
4.04269
 30
0.0
 40
0
 41
0
  0
VERTEX
  8
0
 10
3.85975
 20
4.05414
 30
0.0
 40
0
 41
0
  0
VERTEX
  8
0
 10
3.85742
 20
4.07617
 30
0.0
 40
0
 41
0
  0
VERTEX
  8
0
 10
3.85211
 20
4.09765
 30
0.0
 40
0
 41
0
  0
VERTEX
  8
0
 10
3.84896
 20
4.10536
 30
0.0
 40
0
 41
0
  0
VERTEX
  8
0
 10
3.84418
 20
4.11719
 30
0.0
 40
0
 41
0
  0
VERTEX
  8
0
 10
3.84381
 20
4.11822
 30
0.0
 40
0
 41
0
  0
VERTEX
  8
0
 10
3.83274
 20
4.13732
 30
0.0
 40
0
 41
0
  0
VERTEX
  8
0
 10
3.81912
 20
4.15479
 30
0.0
 40
0
 41
0
  0
VERTEX
  8
0
 10
3.80317
 20
4.17014
 30
0.0
 40
0
 41
0
  0
VERTEX
  8
0
 10
3.78526
 20
4.18321
 30
0.0
 40
0
 41
0
  0
VERTEX
  8
0
 10
3.76574
 20
4.19358
 30
0.0
 40
0
 41
0
  0
VERTEX
  8
0
 10
3.75814
 20
4.19635
 30
0.0
 40
0
 41
0
  0
VERTEX
  8
0
 10
3.7449
 20
4.20117
 30
0.0
 40
0
 41
0
  0
VERTEX
  8
0
 10
3.73161
 20
4.204
 30
0.0
 40
0
 41
0
  0
VERTEX
  8
0
 10
3.72325
 20
4.20574
 30
0.0
 40
0
 41
0
  0
VERTEX
  8
0
 10
3.70117
 20
4.20731
 30
0.0
 40
0
 41
0
  0
VERTEX
  8
0
 10
3.6791
 20
4.20574
 30
0.0
 40
0
 41
0
  0
SEQEND
 8
0
  0
POLYLINE
  8
0
 62
     254
 66
     1
 10
0
 20
0
 30
0.0
 70
     1
 40
0
 41
0
  0
VERTEX
  8
0
 10
3.42443
 20
3.97
 30
0.0
 40
0
 41
0
  0
VERTEX
  8
0
 10
3.42893
 20
3.97194
 30
0.0
 40
0
 41
0
  0
VERTEX
  8
0
 10
3.43565
 20
3.97597
 30
0.0
 40
0
 41
0
  0
VERTEX
  8
0
 10
3.43994
 20
3.97857
 30
0.0
 40
0
 41
0
  0
VERTEX
  8
0
 10
3.44874
 20
3.98557
 30
0.0
 40
0
 41
0
  0
VERTEX
  8
0
 10
3.44922
 20
3.98594
 30
0.0
 40
0
 41
0
  0
VERTEX
  8
0
 10
3.4566
 20
3.99403
 30
0.0
 40
0
 41
0
  0
VERTEX
  8
0
 10
3.46181
 20
4.00256
 30
0.0
 40
0
 41
0
  0
VERTEX
  8
0
 10
3.46479
 20
4.01129
 30
0.0
 40
0
 41
0
  0
VERTEX
  8
0
 10
3.46506
 20
4.01546
 30
0.0
 40
0
 41
0
  0
VERTEX
  8
0
 10
3.46539
 20
4.02007
 30
0.0
 40
0
 41
0
  0
VERTEX
  8
0
 10
3.46442
 20
4.0364
 30
0.0
 40
0
 41
0
  0
VERTEX
  8
0
 10
3.46408
 20
4.04144
 30
0.0
 40
0
 41
0
  0
VERTEX
  8
0
 10
3.4624
 20
4.05003
 30
0.0
 40
0
 41
0
  0
VERTEX
  8
0
 10
3.45958
 20
4.05578
 30
0.0
 40
0
 41
0
  0
VERTEX
  8
0
 10
3.45839
 20
4.05826
 30
0.0
 40
0
 41
0
  0
VERTEX
  8
0
 10
3.45215
 20
4.06592
 30
0.0
 40
0
 41
0
  0
VERTEX
  8
0
 10
3.44396
 20
4.07269
 30
0.0
 40
0
 41
0
  0
VERTEX
  8
0
 10
3.43565
 20
4.07753
 30
0.0
 40
0
 41
0
  0
VERTEX
  8
0
 10
3.43381
 20
4.07861
 30
0.0
 40
0
 41
0
  0
VERTEX
  8
0
 10
3.42567
 20
4.08192
 30
0.0
 40
0
 41
0
  0
VERTEX
  8
0
 10
3.42312
 20
4.08301
 30
0.0
 40
0
 41
0
  0
VERTEX
  8
0
 10
3.42215
 20
4.08339
 30
0.0
 40
0
 41
0
  0
VERTEX
  8
0
 10
3.40907
 20
4.08692
 30
0.0
 40
0
 41
0
  0
VERTEX
  8
0
 10
3.39507
 20
4.08919
 30
0.0
 40
0
 41
0
  0
VERTEX
  8
0
 10
3.38043
 20
4.09006
 30
0.0
 40
0
 41
0
  0
VERTEX
  8
0
 10
3.3655
 20
4.08963
 30
0.0
 40
0
 41
0
  0
VERTEX
  8
0
 10
3.35499
 20
4.08876
 30
0.0
 40
0
 41
0
  0
VERTEX
  8
0
 10
3.329
 20
4.08675
 30
0.0
 40
0
 41
0
  0
VERTEX
  8
0
 10
3.31418
 20
4.0849
 30
0.0
 40
0
 41
0
  0
VERTEX
  8
0
 10
3.31108
 20
4.08421
 30
0.0
 40
0
 41
0
  0
VERTEX
  8
0
 10
3.29975
 20
4.08171
 30
0.0
 40
0
 41
0
  0
VERTEX
  8
0
 10
3.28618
 20
4.07726
 30
0.0
 40
0
 41
0
  0
VERTEX
  8
0
 10
3.27436
 20
4.072
 30
0.0
 40
0
 41
0
  0
VERTEX
  8
0
 10
3.27376
 20
4.07172
 30
0.0
 40
0
 41
0
  0
VERTEX
  8
0
 10
3.26465
 20
4.06625
 30
0.0
 40
0
 41
0
  0
VERTEX
  8
0
 10
3.26394
 20
4.06586
 30
0.0
 40
0
 41
0
  0
VERTEX
  8
0
 10
3.26269
 20
4.06511
 30
0.0
 40
0
 41
0
  0
VERTEX
  8
0
 10
3.25342
 20
4.05772
 30
0.0
 40
0
 41
0
  0
VERTEX
  8
0
 10
3.24604
 20
4.04964
 30
0.0
 40
0
 41
0
  0
VERTEX
  8
0
 10
3.24089
 20
4.04113
 30
0.0
 40
0
 41
0
  0
VERTEX
  8
0
 10
3.24035
 20
4.03956
 30
0.0
 40
0
 41
0
  0
VERTEX
  8
0
 10
3.23785
 20
4.03239
 30
0.0
 40
0
 41
0
  0
VERTEX
  8
0
 10
3.23725
 20
4.0236
 30
0.0
 40
0
 41
0
  0
VERTEX
  8
0
 10
3.23833
 20
4.00526
 30
0.0
 40
0
 41
0
  0
VERTEX
  8
0
 10
3.23856
 20
4.00222
 30
0.0
 40
0
 41
0
  0
VERTEX
  8
0
 10
3.24024
 20
3.99365
 30
0.0
 40
0
 41
0
  0
VERTEX
  8
0
 10
3.24425
 20
3.9854
 30
0.0
 40
0
 41
0
  0
VERTEX
  8
0
 10
3.25049
 20
3.97775
 30
0.0
 40
0
 41
0
  0
VERTEX
  8
0
 10
3.25874
 20
3.97097
 30
0.0
 40
0
 41
0
  0
VERTEX
  8
0
 10
3.26882
 20
3.96506
 30
0.0
 40
0
 41
0
  0
VERTEX
  8
0
 10
3.27436
 20
3.96283
 30
0.0
 40
0
 41
0
  0
VERTEX
  8
0
 10
3.28054
 20
3.96029
 30
0.0
 40
0
 41
0
  0
VERTEX
  8
0
 10
3.29357
 20
3.95676
 30
0.0
 40
0
 41
0
  0
VERTEX
  8
0
 10
3.30757
 20
3.95443
 30
0.0
 40
0
 41
0
  0
VERTEX
  8
0
 10
3.32221
 20
3.95361
 30
0.0
 40
0
 41
0
  0
VERTEX
  8
0
 10
3.33712
 20
3.95404
 30
0.0
 40
0
 41
0
  0
VERTEX
  8
0
 10
3.35499
 20
3.95546
 30
0.0
 40
0
 41
0
  0
VERTEX
  8
0
 10
3.37364
 20
3.95692
 30
0.0
 40
0
 41
0
  0
VERTEX
  8
0
 10
3.38846
 20
3.95876
 30
0.0
 40
0
 41
0
  0
VERTEX
  8
0
 10
3.40289
 20
3.96197
 30
0.0
 40
0
 41
0
  0
VERTEX
  8
0
 10
3.41624
 20
3.96636
 30
0.0
 40
0
 41
0
  0
VERTEX
  8
0
 10
3.41644
 20
3.96642
 30
0.0
 40
0
 41
0
  0
VERTEX
  8
0
 10
3.42443
 20
3.97
 30
0.0
 40
0
 41
0
  0
SEQEND
 8
0
  0
POLYLINE
  8
0
 62
     254
 66
     1
 10
0
 20
0
 30
0.0
 70
     1
 40
0
 41
0
  0
VERTEX
  8
0
 10
3.70632
 20
3.8119
 30
0.0
 40
0
 41
0
  0
VERTEX
  8
0
 10
3.70508
 20
3.81179
 30
0.0
 40
0
 41
0
  0
VERTEX
  8
0
 10
3.70383
 20
3.81158
 30
0.0
 40
0
 41
0
  0
VERTEX
  8
0
 10
3.69646
 20
3.81006
 30
0.0
 40
0
 41
0
  0
VERTEX
  8
0
 10
3.68821
 20
3.8061
 30
0.0
 40
0
 41
0
  0
VERTEX
  8
0
 10
3.68061
 20
3.79992
 30
0.0
 40
0
 41
0
  0
VERTEX
  8
0
 10
3.67751
 20
3.79611
 30
0.0
 40
0
 41
0
  0
VERTEX
  8
0
 10
3.67378
 20
3.79161
 30
0.0
 40
0
 41
0
  0
VERTEX
  8
0
 10
3.66792
 20
3.78153
 30
0.0
 40
0
 41
0
  0
VERTEX
  8
0
 10
3.66444
 20
3.77306
 30
0.0
 40
0
 41
0
  0
VERTEX
  8
0
 10
3.66396
 20
3.77192
 30
0.0
 40
0
 41
0
  0
VERTEX
  8
0
 10
3.66314
 20
3.76992
 30
0.0
 40
0
 41
0
  0
VERTEX
  8
0
 10
3.66308
 20
3.76981
 30
0.0
 40
0
 41
0
  0
VERTEX
  8
0
 10
3.65956
 20
3.75683
 30
0.0
 40
0
 41
0
  0
VERTEX
  8
0
 10
3.65733
 20
3.74278
 30
0.0
 40
0
 41
0
  0
VERTEX
  8
0
 10
3.65642
 20
3.72814
 30
0.0
 40
0
 41
0
  0
VERTEX
  8
0
 10
3.65668
 20
3.72021
 30
0.0
 40
0
 41
0
  0
VERTEX
  8
0
 10
3.6569
 20
3.71322
 30
0.0
 40
0
 41
0
  0
VERTEX
  8
0
 10
3.65978
 20
3.67676
 30
0.0
 40
0
 41
0
  0
VERTEX
  8
0
 10
3.66162
 20
3.66183
 30
0.0
 40
0
 41
0
  0
VERTEX
  8
0
 10
3.66482
 20
3.64746
 30
0.0
 40
0
 41
0
  0
VERTEX
  8
0
 10
3.66737
 20
3.6396
 30
0.0
 40
0
 41
0
  0
VERTEX
  8
0
 10
3.66928
 20
3.63385
 30
0.0
 40
0
 41
0
  0
VERTEX
  8
0
 10
3.6709
 20
3.63021
 30
0.0
 40
0
 41
0
  0
VERTEX
  8
0
 10
3.67481
 20
3.62142
 30
0.0
 40
0
 41
0
  0
VERTEX
  8
0
 10
3.68137
 20
3.6104
 30
0.0
 40
0
 41
0
  0
VERTEX
  8
0
 10
3.68192
 20
3.60975
 30
0.0
 40
0
 41
0
  0
VERTEX
  8
0
 10
3.68381
 20
3.60736
 30
0.0
 40
0
 41
0
  0
VERTEX
  8
0
 10
3.68881
 20
3.60113
 30
0.0
 40
0
 41
0
  0
VERTEX
  8
0
 10
3.69683
 20
3.59381
 30
0.0
 40
0
 41
0
  0
VERTEX
  8
0
 10
3.70236
 20
3.59039
 30
0.0
 40
0
 41
0
  0
VERTEX
  8
0
 10
3.70404
 20
3.58936
 30
0.0
 40
0
 41
0
  0
VERTEX
  8
0
 10
3.70535
 20
3.58854
 30
0.0
 40
0
 41
0
  0
VERTEX
  8
0
 10
3.71414
 20
3.58561
 30
0.0
 40
0
 41
0
  0
VERTEX
  8
0
 10
3.72293
 20
3.58496
 30
0.0
 40
0
 41
0
  0
VERTEX
  8
0
 10
3.74268
 20
3.58615
 30
0.0
 40
0
 41
0
  0
VERTEX
  8
0
 10
3.74431
 20
3.58626
 30
0.0
 40
0
 41
0
  0
VERTEX
  8
0
 10
3.75196
 20
3.58778
 30
0.0
 40
0
 41
0
  0
VERTEX
  8
0
 10
3.75288
 20
3.58794
 30
0.0
 40
0
 41
0
  0
VERTEX
  8
0
 10
3.75814
 20
3.59056
 30
0.0
 40
0
 41
0
  0
VERTEX
  8
0
 10
3.76112
 20
3.59196
 30
0.0
 40
0
 41
0
  0
VERTEX
  8
0
 10
3.76872
 20
3.59814
 30
0.0
 40
0
 41
0
  0
VERTEX
  8
0
 10
3.77556
 20
3.60644
 30
0.0
 40
0
 41
0
  0
VERTEX
  8
0
 10
3.78147
 20
3.61654
 30
0.0
 40
0
 41
0
  0
VERTEX
  8
0
 10
3.78624
 20
3.62825
 30
0.0
 40
0
 41
0
  0
VERTEX
  8
0
 10
3.78711
 20
3.63151
 30
0.0
 40
0
 41
0
  0
VERTEX
  8
0
 10
3.78976
 20
3.64128
 30
0.0
 40
0
 41
0
  0
VERTEX
  8
0
 10
3.79204
 20
3.65522
 30
0.0
 40
0
 41
0
  0
VERTEX
  8
0
 10
3.79292
 20
3.66986
 30
0.0
 40
0
 41
0
  0
VERTEX
  8
0
 10
3.79243
 20
3.68485
 30
0.0
 40
0
 41
0
  0
VERTEX
  8
0
 10
3.78965
 20
3.72021
 30
0.0
 40
0
 41
0
  0
VERTEX
  8
0
 10
3.78956
 20
3.72136
 30
0.0
 40
0
 41
0
  0
VERTEX
  8
0
 10
3.78771
 20
3.73617
 30
0.0
 40
0
 41
0
  0
VERTEX
  8
0
 10
3.78711
 20
3.73882
 30
0.0
 40
0
 41
0
  0
VERTEX
  8
0
 10
3.78526
 20
3.74718
 30
0.0
 40
0
 41
0
  0
VERTEX
  8
0
 10
3.7845
 20
3.7506
 30
0.0
 40
0
 41
0
  0
VERTEX
  8
0
 10
3.78011
 20
3.76417
 30
0.0
 40
0
 41
0
  0
VERTEX
  8
0
 10
3.77897
 20
3.76676
 30
0.0
 40
0
 41
0
  0
VERTEX
  8
0
 10
3.77453
 20
3.77664
 30
0.0
 40
0
 41
0
  0
VERTEX
  8
0
 10
3.7685
 20
3.78668
 30
0.0
 40
0
 41
0
  0
VERTEX
  8
0
 10
3.76796
 20
3.78765
 30
0.0
 40
0
 41
0
  0
VERTEX
  8
0
 10
3.76719
 20
3.78863
 30
0.0
 40
0
 41
0
  0
VERTEX
  8
0
 10
3.76053
 20
3.79693
 30
0.0
 40
0
 41
0
  0
VERTEX
  8
0
 10
3.75814
 20
3.79915
 30
0.0
 40
0
 41
0
  0
VERTEX
  8
0
 10
3.7525
 20
3.80431
 30
0.0
 40
0
 41
0
  0
VERTEX
  8
0
 10
3.74397
 20
3.80951
 30
0.0
 40
0
 41
0
  0
VERTEX
  8
0
 10
3.74283
 20
3.8099
 30
0.0
 40
0
 41
0
  0
VERTEX
  8
0
 10
3.73519
 20
3.8125
 30
0.0
 40
0
 41
0
  0
VERTEX
  8
0
 10
3.7264
 20
3.8131
 30
0.0
 40
0
 41
0
  0
VERTEX
  8
0
 10
3.70632
 20
3.8119
 30
0.0
 40
0
 41
0
  0
SEQEND
 8
0
  0
POLYLINE
  8
0
 62
     254
 66
     1
 10
0
 20
0
 30
0.0
 70
     1
 40
0
 41
0
  0
VERTEX
  8
0
 10
3.98139
 20
4.11833
 30
0.0
 40
0
 41
0
  0
VERTEX
  8
0
 10
3.97331
 20
4.11361
 30
0.0
 40
0
 41
0
  0
VERTEX
  8
0
 10
3.97032
 20
4.11187
 30
0.0
 40
0
 41
0
  0
VERTEX
  8
0
 10
3.96099
 20
4.10444
 30
0.0
 40
0
 41
0
  0
VERTEX
  8
0
 10
3.95415
 20
4.097
 30
0.0
 40
0
 41
0
  0
VERTEX
  8
0
 10
3.95361
 20
4.0964
 30
0.0
 40
0
 41
0
  0
VERTEX
  8
0
 10
3.95285
 20
4.09517
 30
0.0
 40
0
 41
0
  0
VERTEX
  8
0
 10
3.9484
 20
4.08789
 30
0.0
 40
0
 41
0
  0
VERTEX
  8
0
 10
3.94553
 20
4.07904
 30
0.0
 40
0
 41
0
  0
VERTEX
  8
0
 10
3.94493
 20
4.07021
 30
0.0
 40
0
 41
0
  0
VERTEX
  8
0
 10
3.9464
 20
4.04872
 30
0.0
 40
0
 41
0
  0
VERTEX
  8
0
 10
3.947
 20
4.04585
 30
0.0
 40
0
 41
0
  0
VERTEX
  8
0
 10
3.94764
 20
4.04269
 30
0.0
 40
0
 41
0
  0
VERTEX
  8
0
 10
3.94824
 20
4.03999
 30
0.0
 40
0
 41
0
  0
VERTEX
  8
0
 10
3.95236
 20
4.03168
 30
0.0
 40
0
 41
0
  0
VERTEX
  8
0
 10
3.95871
 20
4.02393
 30
0.0
 40
0
 41
0
  0
VERTEX
  8
0
 10
3.96044
 20
4.02246
 30
0.0
 40
0
 41
0
  0
VERTEX
  8
0
 10
3.96707
 20
4.01704
 30
0.0
 40
0
 41
0
  0
VERTEX
  8
0
 10
3.97738
 20
4.01101
 30
0.0
 40
0
 41
0
  0
VERTEX
  8
0
 10
3.98921
 20
4.00608
 30
0.0
 40
0
 41
0
  0
VERTEX
  8
0
 10
3.99246
 20
4.00515
 30
0.0
 40
0
 41
0
  0
VERTEX
  8
0
 10
4.00239
 20
4.00239
 30
0.0
 40
0
 41
0
  0
VERTEX
  8
0
 10
4.0166
 20
4
 30
0.0
 40
0
 41
0
  0
VERTEX
  8
0
 10
4.03136
 20
3.99892
 30
0.0
 40
0
 41
0
  0
VERTEX
  8
0
 10
4.04644
 20
3.99935
 30
0.0
 40
0
 41
0
  0
VERTEX
  8
0
 10
4.08068
 20
4.00174
 30
0.0
 40
0
 41
0
  0
VERTEX
  8
0
 10
4.08333
 20
4.0019
 30
0.0
 40
0
 41
0
  0
VERTEX
  8
0
 10
4.09825
 20
4.00364
 30
0.0
 40
0
 41
0
  0
VERTEX
  8
0
 10
4.10032
 20
4.00407
 30
0.0
 40
0
 41
0
  0
VERTEX
  8
0
 10
4.11279
 20
4.00672
 30
0.0
 40
0
 41
0
  0
VERTEX
  8
0
 10
4.12121
 20
4.00939
 30
0.0
 40
0
 41
0
  0
VERTEX
  8
0
 10
4.12651
 20
4.01107
 30
0.0
 40
0
 41
0
  0
VERTEX
  8
0
 10
4.13265
 20
4.01378
 30
0.0
 40
0
 41
0
  0
VERTEX
  8
0
 10
4.13303
 20
4.01394
 30
0.0
 40
0
 41
0
  0
VERTEX
  8
0
 10
4.13428
 20
4.01449
 30
0.0
 40
0
 41
0
  0
VERTEX
  8
0
 10
4.139
 20
4.0166
 30
0.0
 40
0
 41
0
  0
VERTEX
  8
0
 10
4.15012
 20
4.02306
 30
0.0
 40
0
 41
0
  0
VERTEX
  8
0
 10
4.1594
 20
4.03049
 30
0.0
 40
0
 41
0
  0
VERTEX
  8
0
 10
4.16678
 20
4.03851
 30
0.0
 40
0
 41
0
  0
VERTEX
  8
0
 10
4.16932
 20
4.04269
 30
0.0
 40
0
 41
0
  0
VERTEX
  8
0
 10
4.17199
 20
4.04704
 30
0.0
 40
0
 41
0
  0
VERTEX
  8
0
 10
4.17492
 20
4.05588
 30
0.0
 40
0
 41
0
  0
VERTEX
  8
0
 10
4.1754
 20
4.06347
 30
0.0
 40
0
 41
0
  0
VERTEX
  8
0
 10
4.17546
 20
4.06472
 30
0.0
 40
0
 41
0
  0
VERTEX
  8
0
 10
4.17513
 20
4.06999
 30
0.0
 40
0
 41
0
  0
VERTEX
  8
0
 10
4.17486
 20
4.07335
 30
0.0
 40
0
 41
0
  0
VERTEX
  8
0
 10
4.17399
 20
4.08621
 30
0.0
 40
0
 41
0
  0
VERTEX
  8
0
 10
4.17215
 20
4.09494
 30
0.0
 40
0
 41
0
  0
VERTEX
  8
0
 10
4.16808
 20
4.10325
 30
0.0
 40
0
 41
0
  0
VERTEX
  8
0
 10
4.16319
 20
4.10915
 30
0.0
 40
0
 41
0
  0
VERTEX
  8
0
 10
4.16174
 20
4.11094
 30
0.0
 40
0
 41
0
  0
VERTEX
  8
0
 10
4.15332
 20
4.11789
 30
0.0
 40
0
 41
0
  0
VERTEX
  8
0
 10
4.14301
 20
4.12392
 30
0.0
 40
0
 41
0
  0
VERTEX
  8
0
 10
4.13118
 20
4.12885
 30
0.0
 40
0
 41
0
  0
VERTEX
  8
0
 10
4.1205
 20
4.13183
 30
0.0
 40
0
 41
0
  0
VERTEX
  8
0
 10
4.12017
 20
4.13194
 30
0.0
 40
0
 41
0
  0
VERTEX
  8
0
 10
4.118
 20
4.13254
 30
0.0
 40
0
 41
0
  0
VERTEX
  8
0
 10
4.10385
 20
4.13493
 30
0.0
 40
0
 41
0
  0
VERTEX
  8
0
 10
4.08903
 20
4.13596
 30
0.0
 40
0
 41
0
  0
VERTEX
  8
0
 10
4.08068
 20
4.13574
 30
0.0
 40
0
 41
0
  0
VERTEX
  8
0
 10
4.07394
 20
4.13558
 30
0.0
 40
0
 41
0
  0
VERTEX
  8
0
 10
4.03907
 20
4.13319
 30
0.0
 40
0
 41
0
  0
VERTEX
  8
0
 10
4.03711
 20
4.13303
 30
0.0
 40
0
 41
0
  0
VERTEX
  8
0
 10
4.03668
 20
4.13297
 30
0.0
 40
0
 41
0
  0
VERTEX
  8
0
 10
4.02214
 20
4.13129
 30
0.0
 40
0
 41
0
  0
VERTEX
  8
0
 10
4.0076
 20
4.12819
 30
0.0
 40
0
 41
0
  0
VERTEX
  8
0
 10
3.99393
 20
4.12386
 30
0.0
 40
0
 41
0
  0
VERTEX
  8
0
 10
3.98139
 20
4.11833
 30
0.0
 40
0
 41
0
  0
SEQEND
 8
0
  0
POLYLINE
  8
0
 62
     254
 66
     1
 10
0
 20
0
 30
0.0
 70
     1
 40
0
 41
0
  0
VERTEX
  8
0
 10
1.35183
 20
1.14225
 30
0.0
 40
0
 41
0
  0
VERTEX
  8
0
 10
1.35238
 20
1.15104
 30
0.0
 40
0
 41
0
  0
VERTEX
  8
0
 10
1.35183
 20
1.15988
 30
0.0
 40
0
 41
0
  0
VERTEX
  8
0
 10
1.35037
 20
1.16862
 30
0.0
 40
0
 41
0
  0
VERTEX
  8
0
 10
1.34793
 20
1.17708
 30
0.0
 40
0
 41
0
  0
VERTEX
  8
0
 10
1.34451
 20
1.18527
 30
0.0
 40
0
 41
0
  0
VERTEX
  8
0
 10
1.34028
 20
1.19298
 30
0.0
 40
0
 41
0
  0
VERTEX
  8
0
 10
1.33979
 20
1.19363
 30
0.0
 40
0
 41
0
  0
VERTEX
  8
0
 10
1.33925
 20
1.19444
 30
0.0
 40
0
 41
0
  0
VERTEX
  8
0
 10
1.33518
 20
1.20025
 30
0.0
 40
0
 41
0
  0
VERTEX
  8
0
 10
1.32926
 20
1.20681
 30
0.0
 40
0
 41
0
  0
VERTEX
  8
0
 10
1.3227
 20
1.21273
 30
0.0
 40
0
 41
0
  0
VERTEX
  8
0
 10
1.31548
 20
1.21783
 30
0.0
 40
0
 41
0
  0
VERTEX
  8
0
 10
1.30773
 20
1.22211
 30
0.0
 40
0
 41
0
  0
VERTEX
  8
0
 10
1.29959
 20
1.22548
 30
0.0
 40
0
 41
0
  0
VERTEX
  8
0
 10
1.29107
 20
1.22792
 30
0.0
 40
0
 41
0
  0
VERTEX
  8
0
 10
1.28233
 20
1.22944
 30
0.0
 40
0
 41
0
  0
VERTEX
  8
0
 10
1.27349
 20
1.22993
 30
0.0
 40
0
 41
0
  0
VERTEX
  8
0
 10
1.2647
 20
1.22944
 30
0.0
 40
0
 41
0
  0
VERTEX
  8
0
 10
1.25863
 20
1.22835
 30
0.0
 40
0
 41
0
  0
VERTEX
  8
0
 10
1.25597
 20
1.22792
 30
0.0
 40
0
 41
0
  0
VERTEX
  8
0
 10
1.2475
 20
1.22548
 30
0.0
 40
0
 41
0
  0
VERTEX
  8
0
 10
1.23931
 20
1.22211
 30
0.0
 40
0
 41
0
  0
VERTEX
  8
0
 10
1.23671
 20
1.22065
 30
0.0
 40
0
 41
0
  0
VERTEX
  8
0
 10
1.23155
 20
1.21783
 30
0.0
 40
0
 41
0
  0
VERTEX
  8
0
 10
1.22439
 20
1.21273
 30
0.0
 40
0
 41
0
  0
VERTEX
  8
0
 10
1.21777
 20
1.20681
 30
0.0
 40
0
 41
0
  0
VERTEX
  8
0
 10
1.21191
 20
1.20025
 30
0.0
 40
0
 41
0
  0
VERTEX
  8
0
 10
1.20676
 20
1.19298
 30
0.0
 40
0
 41
0
  0
VERTEX
  8
0
 10
1.20247
 20
1.18527
 30
0.0
 40
0
 41
0
  0
VERTEX
  8
0
 10
1.19911
 20
1.17708
 30
0.0
 40
0
 41
0
  0
VERTEX
  8
0
 10
1.19667
 20
1.16862
 30
0.0
 40
0
 41
0
  0
VERTEX
  8
0
 10
1.19548
 20
1.16178
 30
0.0
 40
0
 41
0
  0
VERTEX
  8
0
 10
1.19515
 20
1.15988
 30
0.0
 40
0
 41
0
  0
VERTEX
  8
0
 10
1.19466
 20
1.15104
 30
0.0
 40
0
 41
0
  0
VERTEX
  8
0
 10
1.19515
 20
1.14225
 30
0.0
 40
0
 41
0
  0
VERTEX
  8
0
 10
1.19553
 20
1.14003
 30
0.0
 40
0
 41
0
  0
VERTEX
  8
0
 10
1.19667
 20
1.13352
 30
0.0
 40
0
 41
0
  0
VERTEX
  8
0
 10
1.19911
 20
1.12505
 30
0.0
 40
0
 41
0
  0
VERTEX
  8
0
 10
1.20247
 20
1.11686
 30
0.0
 40
0
 41
0
  0
VERTEX
  8
0
 10
1.20676
 20
1.10916
 30
0.0
 40
0
 41
0
  0
VERTEX
  8
0
 10
1.21191
 20
1.10194
 30
0.0
 40
0
 41
0
  0
VERTEX
  8
0
 10
1.21777
 20
1.09532
 30
0.0
 40
0
 41
0
  0
VERTEX
  8
0
 10
1.22439
 20
1.08941
 30
0.0
 40
0
 41
0
  0
VERTEX
  8
0
 10
1.23155
 20
1.08431
 30
0.0
 40
0
 41
0
  0
VERTEX
  8
0
 10
1.23931
 20
1.08002
 30
0.0
 40
0
 41
0
  0
VERTEX
  8
0
 10
1.2475
 20
1.07666
 30
0.0
 40
0
 41
0
  0
VERTEX
  8
0
 10
1.25597
 20
1.07422
 30
0.0
 40
0
 41
0
  0
VERTEX
  8
0
 10
1.25863
 20
1.07378
 30
0.0
 40
0
 41
0
  0
VERTEX
  8
0
 10
1.2647
 20
1.0727
 30
0.0
 40
0
 41
0
  0
VERTEX
  8
0
 10
1.27349
 20
1.07227
 30
0.0
 40
0
 41
0
  0
VERTEX
  8
0
 10
1.28233
 20
1.0727
 30
0.0
 40
0
 41
0
  0
VERTEX
  8
0
 10
1.29107
 20
1.07422
 30
0.0
 40
0
 41
0
  0
VERTEX
  8
0
 10
1.29959
 20
1.07666
 30
0.0
 40
0
 41
0
  0
VERTEX
  8
0
 10
1.30773
 20
1.08002
 30
0.0
 40
0
 41
0
  0
VERTEX
  8
0
 10
1.31548
 20
1.08431
 30
0.0
 40
0
 41
0
  0
VERTEX
  8
0
 10
1.3227
 20
1.08941
 30
0.0
 40
0
 41
0
  0
VERTEX
  8
0
 10
1.32926
 20
1.09532
 30
0.0
 40
0
 41
0
  0
VERTEX
  8
0
 10
1.33518
 20
1.10194
 30
0.0
 40
0
 41
0
  0
VERTEX
  8
0
 10
1.33925
 20
1.10769
 30
0.0
 40
0
 41
0
  0
VERTEX
  8
0
 10
1.34028
 20
1.10916
 30
0.0
 40
0
 41
0
  0
VERTEX
  8
0
 10
1.34451
 20
1.11686
 30
0.0
 40
0
 41
0
  0
VERTEX
  8
0
 10
1.34793
 20
1.12505
 30
0.0
 40
0
 41
0
  0
VERTEX
  8
0
 10
1.35037
 20
1.13352
 30
0.0
 40
0
 41
0
  0
VERTEX
  8
0
 10
1.35145
 20
1.14003
 30
0.0
 40
0
 41
0
  0
VERTEX
  8
0
 10
1.35183
 20
1.14225
 30
0.0
 40
0
 41
0
  0
SEQEND
 8
0
  0
POLYLINE
  8
0
 62
     254
 66
     1
 10
0
 20
0
 30
0.0
 70
     1
 40
0
 41
0
  0
VERTEX
  8
0
 10
0.697265
 20
1.29221
 30
0.0
 40
0
 41
0
  0
VERTEX
  8
0
 10
0.694228
 20
1.29693
 30
0.0
 40
0
 41
0
  0
VERTEX
  8
0
 10
0.692437
 20
1.29959
 30
0.0
 40
0
 41
0
  0
VERTEX
  8
0
 10
0.691026
 20
1.30132
 30
0.0
 40
0
 41
0
  0
VERTEX
  8
0
 10
0.686794
 20
1.30642
 30
0.0
 40
0
 41
0
  0
VERTEX
  8
0
 10
0.680447
 20
1.31255
 30
0.0
 40
0
 41
0
  0
VERTEX
  8
0
 10
0.673449
 20
1.31793
 30
0.0
 40
0
 41
0
  0
VERTEX
  8
0
 10
0.665853
 20
1.32248
 30
0.0
 40
0
 41
0
  0
VERTEX
  8
0
 10
0.657769
 20
1.32617
 30
0.0
 40
0
 41
0
  0
VERTEX
  8
0
 10
0.649414
 20
1.32894
 30
0.0
 40
0
 41
0
  0
VERTEX
  8
0
 10
0.640733
 20
1.33073
 30
0.0
 40
0
 41
0
  0
VERTEX
  8
0
 10
0.631944
 20
1.3316
 30
0.0
 40
0
 41
0
  0
VERTEX
  8
0
 10
0.623101
 20
1.33143
 30
0.0
 40
0
 41
0
  0
VERTEX
  8
0
 10
0.614367
 20
1.33024
 30
0.0
 40
0
 41
0
  0
VERTEX
  8
0
 10
0.613607
 20
1.33002
 30
0.0
 40
0
 41
0
  0
VERTEX
  8
0
 10
0.605794
 20
1.32813
 30
0.0
 40
0
 41
0
  0
VERTEX
  8
0
 10
0.597493
 20
1.32503
 30
0.0
 40
0
 41
0
  0
VERTEX
  8
0
 10
0.589626
 20
1.32107
 30
0.0
 40
0
 41
0
  0
VERTEX
  8
0
 10
0.582194
 20
1.31624
 30
0.0
 40
0
 41
0
  0
VERTEX
  8
0
 10
0.575412
 20
1.3106
 30
0.0
 40
0
 41
0
  0
VERTEX
  8
0
 10
0.569282
 20
1.3042
 30
0.0
 40
0
 41
0
  0
VERTEX
  8
0
 10
0.567057
 20
1.30132
 30
0.0
 40
0
 41
0
  0
VERTEX
  8
0
 10
0.563911
 20
1.2972
 30
0.0
 40
0
 41
0
  0
VERTEX
  8
0
 10
0.559353
 20
1.28966
 30
0.0
 40
0
 41
0
  0
VERTEX
  8
0
 10
0.55561
 20
1.28163
 30
0.0
 40
0
 41
0
  0
VERTEX
  8
0
 10
0.552897
 20
1.27322
 30
0.0
 40
0
 41
0
  0
VERTEX
  8
0
 10
0.551053
 20
1.26459
 30
0.0
 40
0
 41
0
  0
VERTEX
  8
0
 10
0.550239
 20
1.25575
 30
0.0
 40
0
 41
0
  0
VERTEX
  8
0
 10
0.550456
 20
1.24691
 30
0.0
 40
0
 41
0
  0
VERTEX
  8
0
 10
0.551594
 20
1.23817
 30
0.0
 40
0
 41
0
  0
VERTEX
  8
0
 10
0.553711
 20
1.22955
 30
0.0
 40
0
 41
0
  0
VERTEX
  8
0
 10
0.556749
 20
1.2213
 30
0.0
 40
0
 41
0
  0
VERTEX
  8
0
 10
0.557075
 20
1.22065
 30
0.0
 40
0
 41
0
  0
VERTEX
  8
0
 10
0.560764
 20
1.21338
 30
0.0
 40
0
 41
0
  0
VERTEX
  8
0
 10
0.565593
 20
1.20605
 30
0.0
 40
0
 41
0
  0
VERTEX
  8
0
 10
0.571235
 20
1.19922
 30
0.0
 40
0
 41
0
  0
VERTEX
  8
0
 10
0.577582
 20
1.19309
 30
0.0
 40
0
 41
0
  0
VERTEX
  8
0
 10
0.584581
 20
1.18766
 30
0.0
 40
0
 41
0
  0
VERTEX
  8
0
 10
0.592176
 20
1.18316
 30
0.0
 40
0
 41
0
  0
VERTEX
  8
0
 10
0.600261
 20
1.17947
 30
0.0
 40
0
 41
0
  0
VERTEX
  8
0
 10
0.608615
 20
1.1767
 30
0.0
 40
0
 41
0
  0
VERTEX
  8
0
 10
0.613607
 20
1.17567
 30
0.0
 40
0
 41
0
  0
VERTEX
  8
0
 10
0.617296
 20
1.17491
 30
0.0
 40
0
 41
0
  0
VERTEX
  8
0
 10
0.626085
 20
1.17405
 30
0.0
 40
0
 41
0
  0
VERTEX
  8
0
 10
0.634874
 20
1.17421
 30
0.0
 40
0
 41
0
  0
VERTEX
  8
0
 10
0.643664
 20
1.17535
 30
0.0
 40
0
 41
0
  0
VERTEX
  8
0
 10
0.652235
 20
1.17752
 30
0.0
 40
0
 41
0
  0
VERTEX
  8
0
 10
0.660536
 20
1.18061
 30
0.0
 40
0
 41
0
  0
VERTEX
  8
0
 10
0.668403
 20
1.18457
 30
0.0
 40
0
 41
0
  0
VERTEX
  8
0
 10
0.675836
 20
1.1894
 30
0.0
 40
0
 41
0
  0
VERTEX
  8
0
 10
0.682617
 20
1.19504
 30
0.0
 40
0
 41
0
  0
VERTEX
  8
0
 10
0.688747
 20
1.20144
 30
0.0
 40
0
 41
0
  0
VERTEX
  8
0
 10
0.694119
 20
1.20844
 30
0.0
 40
0
 41
0
  0
VERTEX
  8
0
 10
0.694228
 20
1.20855
 30
0.0
 40
0
 41
0
  0
VERTEX
  8
0
 10
0.698676
 20
1.21598
 30
0.0
 40
0
 41
0
  0
VERTEX
  8
0
 10
0.702365
 20
1.22401
 30
0.0
 40
0
 41
0
  0
VERTEX
  8
0
 10
0.705132
 20
1.23242
 30
0.0
 40
0
 41
0
  0
VERTEX
  8
0
 10
0.706922
 20
1.24105
 30
0.0
 40
0
 41
0
  0
VERTEX
  8
0
 10
0.707736
 20
1.24989
 30
0.0
 40
0
 41
0
  0
VERTEX
  8
0
 10
0.707574
 20
1.25868
 30
0.0
 40
0
 41
0
  0
VERTEX
  8
0
 10
0.706435
 20
1.26747
 30
0.0
 40
0
 41
0
  0
VERTEX
  8
0
 10
0.704318
 20
1.27604
 30
0.0
 40
0
 41
0
  0
VERTEX
  8
0
 10
0.701281
 20
1.28434
 30
0.0
 40
0
 41
0
  0
VERTEX
  8
0
 10
0.697265
 20
1.29221
 30
0.0
 40
0
 41
0
  0
SEQEND
 8
0
  0
POLYLINE
  8
0
 62
     1
 66
     1
 10
0
 20
0
 30
0.0
 70
     1
 40
0.0107136
 41
0.0107136
  0
VERTEX
  8
0
 10
0.584147
 20
0.0490451
 30
0.0
 40
0.0001488
 41
0.0001488
  0
VERTEX
  8
0
 10
0.0393881
 20
0.0490451
 30
0.0
 40
0.0001488
 41
0.0001488
  0
VERTEX
  8
0
 10
0.0393881
 20
0.627658
 30
0.0
 40
0.0001488
 41
0.0001488
  0
VERTEX
  8
0
 10
0.272461
 20
0.797038
 30
0.0
 40
0.0001488
 41
0.0001488
  0
VERTEX
  8
0
 10
0.47206
 20
0.942057
 30
0.0
 40
0.0001488
 41
0.0001488
  0
VERTEX
  8
0
 10
0.605903
 20
1.03928
 30
0.0
 40
0.0001488
 41
0.0001488
  0
VERTEX
  8
0
 10
0.622993
 20
1.0517
 30
0.0
 40
0.0001488
 41
0.0001488
  0
VERTEX
  8
0
 10
0.598958
 20
1.0682
 30
0.0
 40
0.0001488
 41
0.0001488
  0
VERTEX
  8
0
 10
0.562446
 20
1.09798
 30
0.0
 40
0.0001488
 41
0.0001488
  0
VERTEX
  8
0
 10
0.550239
 20
1.10997
 30
0.0
 40
0.0001488
 41
0.0001488
  0
VERTEX
  8
0
 10
0.531685
 20
1.12826
 30
0.0
 40
0.0001488
 41
0.0001488
  0
VERTEX
  8
0
 10
0.507107
 20
1.1588
 30
0.0
 40
0.0001488
 41
0.0001488
  0
VERTEX
  8
0
 10
0.488824
 20
1.18929
 30
0.0
 40
0.0001488
 41
0.0001488
  0
VERTEX
  8
0
 10
0.477106
 20
1.21951
 30
0.0
 40
0.0001488
 41
0.0001488
  0
VERTEX
  8
0
 10
0.47206
 20
1.24908
 30
0.0
 40
0.0001488
 41
0.0001488
  0
VERTEX
  8
0
 10
0.473687
 20
1.27778
 30
0.0
 40
0.0001488
 41
0.0001488
  0
VERTEX
  8
0
 10
0.48074
 20
1.30132
 30
0.0
 40
0.0001488
 41
0.0001488
  0
VERTEX
  8
0
 10
0.481933
 20
1.30528
 30
0.0
 40
0.0001488
 41
0.0001488
  0
VERTEX
  8
0
 10
0.496799
 20
1.33133
 30
0.0
 40
0.0001488
 41
0.0001488
  0
VERTEX
  8
0
 10
0.518175
 20
1.35569
 30
0.0
 40
0.0001488
 41
0.0001488
  0
VERTEX
  8
0
 10
0.545736
 20
1.37809
 30
0.0
 40
0.0001488
 41
0.0001488
  0
VERTEX
  8
0
 10
0.550239
 20
1.38081
 30
0.0
 40
0.0001488
 41
0.0001488
  0
VERTEX
  8
0
 10
0.579318
 20
1.39844
 30
0.0
 40
0.0001488
 41
0.0001488
  0
VERTEX
  8
0
 10
0.618599
 20
1.41639
 30
0.0
 40
0.0001488
 41
0.0001488
  0
VERTEX
  8
0
 10
0.663086
 20
1.43181
 30
0.0
 40
0.0001488
 41
0.0001488
  0
VERTEX
  8
0
 10
0.694228
 20
1.43989
 30
0.0
 40
0.0001488
 41
0.0001488
  0
VERTEX
  8
0
 10
0.707736
 20
1.44336
 30
0.0
 40
0.0001488
 41
0.0001488
  0
VERTEX
  8
0
 10
0.712457
 20
1.44461
 30
0.0
 40
0.0001488
 41
0.0001488
  0
VERTEX
  8
0
 10
0.766222
 20
1.45458
 30
0.0
 40
0.0001488
 41
0.0001488
  0
VERTEX
  8
0
 10
0.823839
 20
1.46169
 30
0.0
 40
0.0001488
 41
0.0001488
  0
VERTEX
  8
0
 10
0.884765
 20
1.46588
 30
0.0
 40
0.0001488
 41
0.0001488
  0
VERTEX
  8
0
 10
0.948406
 20
1.46707
 30
0.0
 40
0.0001488
 41
0.0001488
  0
VERTEX
  8
0
 10
1.01416
 20
1.46522
 30
0.0
 40
0.0001488
 41
0.0001488
  0
VERTEX
  8
0
 10
1.06049
 20
1.46192
 30
0.0
 40
0.0001488
 41
0.0001488
  0
VERTEX
  8
0
 10
1.08133
 20
1.46044
 30
0.0
 40
0.0001488
 41
0.0001488
  0
VERTEX
  8
0
 10
1.10688
 20
1.45751
 30
0.0
 40
0.0001488
 41
0.0001488
  0
VERTEX
  8
0
 10
1.10775
 20
1.45856
 30
0.0
 40
0.0001488
 41
0.0001488
  0
VERTEX
  8
0
 10
1.11122
 20
1.46257
 30
0.0
 40
0.0001488
 41
0.0001488
  0
VERTEX
  8
0
 10
1.11507
 20
1.46707
 30
0.0
 40
0.0001488
 41
0.0001488
  0
VERTEX
  8
0
 10
1.17768
 20
1.53956
 30
0.0
 40
0.0001488
 41
0.0001488
  0
VERTEX
  8
0
 10
1.33925
 20
1.72889
 30
0.0
 40
0.0001488
 41
0.0001488
  0
VERTEX
  8
0
 10
1.41911
 20
1.82249
 30
0.0
 40
0.0001488
 41
0.0001488
  0
VERTEX
  8
0
 10
1.66135
 20
2.10954
 30
0.0
 40
0.0001488
 41
0.0001488
  0
VERTEX
  8
0
 10
1.69314
 20
2.14768
 30
0.0
 40
0.0001488
 41
0.0001488
  0
VERTEX
  8
0
 10
1.90196
 20
2.39789
 30
0.0
 40
0.0001488
 41
0.0001488
  0
VERTEX
  8
0
 10
2.13872
 20
2.68479
 30
0.0
 40
0.0001488
 41
0.0001488
  0
VERTEX
  8
0
 10
2.36919
 20
2.9675
 30
0.0
 40
0.0001488
 41
0.0001488
  0
VERTEX
  8
0
 10
2.58578
 20
3.23643
 30
0.0
 40
0.0001488
 41
0.0001488
  0
VERTEX
  8
0
 10
2.59136
 20
3.24333
 30
0.0
 40
0.0001488
 41
0.0001488
  0
VERTEX
  8
0
 10
2.62935
 20
3.29113
 30
0.0
 40
0.0001488
 41
0.0001488
  0
VERTEX
  8
0
 10
2.8029
 20
3.50956
 30
0.0
 40
0.0001488
 41
0.0001488
  0
VERTEX
  8
0
 10
3.0019
 20
3.76357
 30
0.0
 40
0.0001488
 41
0.0001488
  0
VERTEX
  8
0
 10
3.11556
 20
3.91108
 30
0.0
 40
0.0001488
 41
0.0001488
  0
VERTEX
  8
0
 10
3.13286
 20
3.93169
 30
0.0
 40
0.0001488
 41
0.0001488
  0
VERTEX
  8
0
 10
3.08686
 20
4.08572
 30
0.0
 40
0.0001488
 41
0.0001488
  0
VERTEX
  8
0
 10
3.2251
 20
4.24414
 30
0.0
 40
0.0001488
 41
0.0001488
  0
VERTEX
  8
0
 10
3.28276
 20
4.31028
 30
0.0
 40
0.0001488
 41
0.0001488
  0
VERTEX
  8
0
 10
3.31164
 20
4.34337
 30
0.0
 40
0.0001488
 41
0.0001488
  0
VERTEX
  8
0
 10
3.32058
 20
4.35363
 30
0.0
 40
0.0001488
 41
0.0001488
  0
VERTEX
  8
0
 10
3.49653
 20
4.76617
 30
0.0
 40
0.0001488
 41
0.0001488
  0
VERTEX
  8
0
 10
3.66721
 20
4.75097
 30
0.0
 40
0.0001488
 41
0.0001488
  0
VERTEX
  8
0
 10
3.80963
 20
4.73822
 30
0.0
 40
0.0001488
 41
0.0001488
  0
VERTEX
  8
0
 10
3.81218
 20
4.73801
 30
0.0
 40
0.0001488
 41
0.0001488
  0
VERTEX
  8
0
 10
3.95751
 20
4.72504
 30
0.0
 40
0.0001488
 41
0.0001488
  0
VERTEX
  8
0
 10
3.99756
 20
4.55007
 30
0.0
 40
0.0001488
 41
0.0001488
  0
VERTEX
  8
0
 10
4.00299
 20
4.52647
 30
0.0
 40
0.0001488
 41
0.0001488
  0
VERTEX
  8
0
 10
4.01465
 20
4.47558
 30
0.0
 40
0.0001488
 41
0.0001488
  0
VERTEX
  8
0
 10
4.07454
 20
4.46625
 30
0.0
 40
0.0001488
 41
0.0001488
  0
VERTEX
  8
0
 10
4.09099
 20
4.41114
 30
0.0
 40
0.0001488
 41
0.0001488
  0
VERTEX
  8
0
 10
4.30333
 20
4.39219
 30
0.0
 40
0.0001488
 41
0.0001488
  0
VERTEX
  8
0
 10
4.34321
 20
4.38861
 30
0.0
 40
0.0001488
 41
0.0001488
  0
VERTEX
  8
0
 10
4.36382
 20
4.29856
 30
0.0
 40
0.0001488
 41
0.0001488
  0
VERTEX
  8
0
 10
4.36572
 20
4.29031
 30
0.0
 40
0.0001488
 41
0.0001488
  0
VERTEX
  8
0
 10
4.43257
 20
3.99858
 30
0.0
 40
0.0001488
 41
0.0001488
  0
VERTEX
  8
0
 10
4.44656
 20
3.9375
 30
0.0
 40
0.0001488
 41
0.0001488
  0
VERTEX
  8
0
 10
4.26492
 20
3.82878
 30
0.0
 40
0.0001488
 41
0.0001488
  0
VERTEX
  8
0
 10
4.24658
 20
3.81782
 30
0.0
 40
0.0001488
 41
0.0001488
  0
VERTEX
  8
0
 10
4.07487
 20
3.715
 30
0.0
 40
0.0001488
 41
0.0001488
  0
VERTEX
  8
0
 10
3.98079
 20
3.60726
 30
0.0
 40
0.0001488
 41
0.0001488
  0
VERTEX
  8
0
 10
3.95096
 20
3.57303
 30
0.0
 40
0.0001488
 41
0.0001488
  0
VERTEX
  8
0
 10
3.83154
 20
3.43608
 30
0.0
 40
0.0001488
 41
0.0001488
  0
VERTEX
  8
0
 10
3.67003
 20
3.46121
 30
0.0
 40
0.0001488
 41
0.0001488
  0
VERTEX
  8
0
 10
3.66222
 20
3.4624
 30
0.0
 40
0.0001488
 41
0.0001488
  0
VERTEX
  8
0
 10
3.66129
 20
3.46257
 30
0.0
 40
0.0001488
 41
0.0001488
  0
VERTEX
  8
0
 10
3.65972
 20
3.46104
 30
0.0
 40
0.0001488
 41
0.0001488
  0
VERTEX
  8
0
 10
3.53976
 20
3.32958
 30
0.0
 40
0.0001488
 41
0.0001488
  0
VERTEX
  8
0
 10
3.45611
 20
3.23643
 30
0.0
 40
0.0001488
 41
0.0001488
  0
VERTEX
  8
0
 10
3.32411
 20
3.08946
 30
0.0
 40
0.0001488
 41
0.0001488
  0
VERTEX
  8
0
 10
3.09868
 20
2.8349
 30
0.0
 40
0.0001488
 41
0.0001488
  0
VERTEX
  8
0
 10
2.86567
 20
2.56825
 30
0.0
 40
0.0001488
 41
0.0001488
  0
VERTEX
  8
0
 10
2.62728
 20
2.29215
 30
0.0
 40
0.0001488
 41
0.0001488
  0
VERTEX
  8
0
 10
2.38585
 20
2.00917
 30
0.0
 40
0.0001488
 41
0.0001488
  0
VERTEX
  8
0
 10
2.3851
 20
2.00831
 30
0.0
 40
0.0001488
 41
0.0001488
  0
VERTEX
  8
0
 10
2.33279
 20
1.94635
 30
0.0
 40
0.0001488
 41
0.0001488
  0
VERTEX
  8
0
 10
2.14361
 20
1.72211
 30
0.0
 40
0.0001488
 41
0.0001488
  0
VERTEX
  8
0
 10
1.903
 20
1.43381
 30
0.0
 40
0.0001488
 41
0.0001488
  0
VERTEX
  8
0
 10
1.69314
 20
1.17947
 30
0.0
 40
0.0001488
 41
0.0001488
  0
VERTEX
  8
0
 10
1.66629
 20
1.14686
 30
0.0
 40
0.0001488
 41
0.0001488
  0
VERTEX
  8
0
 10
1.57856
 20
1.03928
 30
0.0
 40
0.0001488
 41
0.0001488
  0
VERTEX
  8
0
 10
1.46371
 20
0.898438
 30
0.0
 40
0.0001488
 41
0.0001488
  0
VERTEX
  8
0
 10
1.45182
 20
0.88699
 30
0.0
 40
0.0001488
 41
0.0001488
  0
VERTEX
  8
0
 10
1.42518
 20
0.861219
 30
0.0
 40
0.0001488
 41
0.0001488
  0
VERTEX
  8
0
 10
1.38211
 20
0.819661
 30
0.0
 40
0.0001488
 41
0.0001488
  0
VERTEX
  8
0
 10
1.33925
 20
0.778267
 30
0.0
 40
0.0001488
 41
0.0001488
  0
VERTEX
  8
0
 10
1.21294
 20
0.65625
 30
0.0
 40
0.0001488
 41
0.0001488
  0
VERTEX
  8
0
 10
0.584147
 20
0.0490451
 30
0.0
 40
0.0001488
 41
0.0001488
  0
SEQEND
 8
0
  0
POLYLINE
  8
0
 62
     1
 66
     1
 10
0
 20
0
 30
0.0
 70
     1
 40
0.0107136
 41
0.0107136
  0
VERTEX
  8
0
 10
0.353028
 20
0.430231
 30
0.0
 40
0.0001488
 41
0.0001488
  0
VERTEX
  8
0
 10
0.352539
 20
0.421442
 30
0.0
 40
0.0001488
 41
0.0001488
  0
VERTEX
  8
0
 10
0.353028
 20
0.412597
 30
0.0
 40
0.0001488
 41
0.0001488
  0
VERTEX
  8
0
 10
0.354546
 20
0.403863
 30
0.0
 40
0.0001488
 41
0.0001488
  0
VERTEX
  8
0
 10
0.356988
 20
0.3954
 30
0.0
 40
0.0001488
 41
0.0001488
  0
VERTEX
  8
0
 10
0.360351
 20
0.387207
 30
0.0
 40
0.0001488
 41
0.0001488
  0
VERTEX
  8
0
 10
0.364583
 20
0.379503
 30
0.0
 40
0.0001488
 41
0.0001488
  0
VERTEX
  8
0
 10
0.369737
 20
0.372288
 30
0.0
 40
0.0001488
 41
0.0001488
  0
VERTEX
  8
0
 10
0.37169
 20
0.370063
 30
0.0
 40
0.0001488
 41
0.0001488
  0
VERTEX
  8
0
 10
0.375651
 20
0.365668
 30
0.0
 40
0.0001488
 41
0.0001488
  0
VERTEX
  8
0
 10
0.382215
 20
0.359754
 30
0.0
 40
0.0001488
 41
0.0001488
  0
VERTEX
  8
0
 10
0.389432
 20
0.35471
 30
0.0
 40
0.0001488
 41
0.0001488
  0
VERTEX
  8
0
 10
0.39719
 20
0.350424
 30
0.0
 40
0.0001488
 41
0.0001488
  0
VERTEX
  8
0
 10
0.405328
 20
0.347006
 30
0.0
 40
0.0001488
 41
0.0001488
  0
VERTEX
  8
0
 10
0.413846
 20
0.344564
 30
0.0
 40
0.0001488
 41
0.0001488
  0
VERTEX
  8
0
 10
0.422581
 20
0.343099
 30
0.0
 40
0.0001488
 41
0.0001488
  0
VERTEX
  8
0
 10
0.431369
 20
0.342611
 30
0.0
 40
0.0001488
 41
0.0001488
  0
VERTEX
  8
0
 10
0.440212
 20
0.343099
 30
0.0
 40
0.0001488
 41
0.0001488
  0
VERTEX
  8
0
 10
0.448947
 20
0.344564
 30
0.0
 40
0.0001488
 41
0.0001488
  0
VERTEX
  8
0
 10
0.452311
 20
0.34554
 30
0.0
 40
0.0001488
 41
0.0001488
  0
VERTEX
  8
0
 10
0.457411
 20
0.347006
 30
0.0
 40
0.0001488
 41
0.0001488
  0
VERTEX
  8
0
 10
0.465603
 20
0.350424
 30
0.0
 40
0.0001488
 41
0.0001488
  0
VERTEX
  8
0
 10
0.47206
 20
0.354004
 30
0.0
 40
0.0001488
 41
0.0001488
  0
VERTEX
  8
0
 10
0.473307
 20
0.35471
 30
0.0
 40
0.0001488
 41
0.0001488
  0
VERTEX
  8
0
 10
0.480578
 20
0.359754
 30
0.0
 40
0.0001488
 41
0.0001488
  0
VERTEX
  8
0
 10
0.487142
 20
0.365668
 30
0.0
 40
0.0001488
 41
0.0001488
  0
VERTEX
  8
0
 10
0.493056
 20
0.372288
 30
0.0
 40
0.0001488
 41
0.0001488
  0
VERTEX
  8
0
 10
0.498156
 20
0.379503
 30
0.0
 40
0.0001488
 41
0.0001488
  0
VERTEX
  8
0
 10
0.502388
 20
0.387207
 30
0.0
 40
0.0001488
 41
0.0001488
  0
VERTEX
  8
0
 10
0.505806
 20
0.3954
 30
0.0
 40
0.0001488
 41
0.0001488
  0
VERTEX
  8
0
 10
0.508247
 20
0.403863
 30
0.0
 40
0.0001488
 41
0.0001488
  0
VERTEX
  8
0
 10
0.509711
 20
0.412597
 30
0.0
 40
0.0001488
 41
0.0001488
  0
VERTEX
  8
0
 10
0.509819
 20
0.414387
 30
0.0
 40
0.0001488
 41
0.0001488
  0
VERTEX
  8
0
 10
0.5102
 20
0.421442
 30
0.0
 40
0.0001488
 41
0.0001488
  0
VERTEX
  8
0
 10
0.509711
 20
0.430231
 30
0.0
 40
0.0001488
 41
0.0001488
  0
VERTEX
  8
0
 10
0.508247
 20
0.438965
 30
0.0
 40
0.0001488
 41
0.0001488
  0
VERTEX
  8
0
 10
0.505806
 20
0.447428
 30
0.0
 40
0.0001488
 41
0.0001488
  0
VERTEX
  8
0
 10
0.502388
 20
0.455621
 30
0.0
 40
0.0001488
 41
0.0001488
  0
VERTEX
  8
0
 10
0.498156
 20
0.463325
 30
0.0
 40
0.0001488
 41
0.0001488
  0
VERTEX
  8
0
 10
0.493056
 20
0.470594
 30
0.0
 40
0.0001488
 41
0.0001488
  0
VERTEX
  8
0
 10
0.487142
 20
0.47716
 30
0.0
 40
0.0001488
 41
0.0001488
  0
VERTEX
  8
0
 10
0.480578
 20
0.483074
 30
0.0
 40
0.0001488
 41
0.0001488
  0
VERTEX
  8
0
 10
0.473307
 20
0.488172
 30
0.0
 40
0.0001488
 41
0.0001488
  0
VERTEX
  8
0
 10
0.47206
 20
0.488878
 30
0.0
 40
0.0001488
 41
0.0001488
  0
VERTEX
  8
0
 10
0.465603
 20
0.492458
 30
0.0
 40
0.0001488
 41
0.0001488
  0
VERTEX
  8
0
 10
0.459418
 20
0.495008
 30
0.0
 40
0.0001488
 41
0.0001488
  0
VERTEX
  8
0
 10
0.457411
 20
0.495822
 30
0.0
 40
0.0001488
 41
0.0001488
  0
VERTEX
  8
0
 10
0.448947
 20
0.498264
 30
0.0
 40
0.0001488
 41
0.0001488
  0
VERTEX
  8
0
 10
0.440212
 20
0.499783
 30
0.0
 40
0.0001488
 41
0.0001488
  0
VERTEX
  8
0
 10
0.431369
 20
0.500271
 30
0.0
 40
0.0001488
 41
0.0001488
  0
VERTEX
  8
0
 10
0.422581
 20
0.499783
 30
0.0
 40
0.0001488
 41
0.0001488
  0
VERTEX
  8
0
 10
0.413846
 20
0.498264
 30
0.0
 40
0.0001488
 41
0.0001488
  0
VERTEX
  8
0
 10
0.405328
 20
0.495822
 30
0.0
 40
0.0001488
 41
0.0001488
  0
VERTEX
  8
0
 10
0.403375
 20
0.495008
 30
0.0
 40
0.0001488
 41
0.0001488
  0
VERTEX
  8
0
 10
0.39719
 20
0.492458
 30
0.0
 40
0.0001488
 41
0.0001488
  0
VERTEX
  8
0
 10
0.389432
 20
0.488172
 30
0.0
 40
0.0001488
 41
0.0001488
  0
VERTEX
  8
0
 10
0.382215
 20
0.483074
 30
0.0
 40
0.0001488
 41
0.0001488
  0
VERTEX
  8
0
 10
0.375651
 20
0.47716
 30
0.0
 40
0.0001488
 41
0.0001488
  0
VERTEX
  8
0
 10
0.37169
 20
0.472765
 30
0.0
 40
0.0001488
 41
0.0001488
  0
VERTEX
  8
0
 10
0.369737
 20
0.470594
 30
0.0
 40
0.0001488
 41
0.0001488
  0
VERTEX
  8
0
 10
0.364583
 20
0.463325
 30
0.0
 40
0.0001488
 41
0.0001488
  0
VERTEX
  8
0
 10
0.360351
 20
0.455621
 30
0.0
 40
0.0001488
 41
0.0001488
  0
VERTEX
  8
0
 10
0.356988
 20
0.447428
 30
0.0
 40
0.0001488
 41
0.0001488
  0
VERTEX
  8
0
 10
0.354546
 20
0.438965
 30
0.0
 40
0.0001488
 41
0.0001488
  0
VERTEX
  8
0
 10
0.353028
 20
0.430231
 30
0.0
 40
0.0001488
 41
0.0001488
  0
SEQEND
 8
0
  0
POLYLINE
  8
0
 62
     1
 66
     1
 10
0
 20
0
 30
0.0
 70
     1
 40
0.0107136
 41
0.0107136
  0
VERTEX
  8
0
 10
0.512261
 20
0.632596
 30
0.0
 40
0.0001488
 41
0.0001488
  0
VERTEX
  8
0
 10
0.511556
 20
0.619358
 30
0.0
 40
0.0001488
 41
0.0001488
  0
VERTEX
  8
0
 10
0.512261
 20
0.606119
 30
0.0
 40
0.0001488
 41
0.0001488
  0
VERTEX
  8
0
 10
0.51454
 20
0.593099
 30
0.0
 40
0.0001488
 41
0.0001488
  0
VERTEX
  8
0
 10
0.518175
 20
0.580296
 30
0.0
 40
0.0001488
 41
0.0001488
  0
VERTEX
  8
0
 10
0.523275
 20
0.568088
 30
0.0
 40
0.0001488
 41
0.0001488
  0
VERTEX
  8
0
 10
0.529676
 20
0.556478
 30
0.0
 40
0.0001488
 41
0.0001488
  0
VERTEX
  8
0
 10
0.532932
 20
0.551867
 30
0.0
 40
0.0001488
 41
0.0001488
  0
VERTEX
  8
0
 10
0.537381
 20
0.545682
 30
0.0
 40
0.0001488
 41
0.0001488
  0
VERTEX
  8
0
 10
0.546169
 20
0.535807
 30
0.0
 40
0.0001488
 41
0.0001488
  0
VERTEX
  8
0
 10
0.556044
 20
0.52691
 30
0.0
 40
0.0001488
 41
0.0001488
  0
VERTEX
  8
0
 10
0.566894
 20
0.51926
 30
0.0
 40
0.0001488
 41
0.0001488
  0
VERTEX
  8
0
 10
0.57845
 20
0.512858
 30
0.0
 40
0.0001488
 41
0.0001488
  0
VERTEX
  8
0
 10
0.590712
 20
0.507813
 30
0.0
 40
0.0001488
 41
0.0001488
  0
VERTEX
  8
0
 10
0.603461
 20
0.504124
 30
0.0
 40
0.0001488
 41
0.0001488
  0
VERTEX
  8
0
 10
0.613607
 20
0.502388
 30
0.0
 40
0.0001488
 41
0.0001488
  0
VERTEX
  8
0
 10
0.616536
 20
0.501899
 30
0.0
 40
0.0001488
 41
0.0001488
  0
VERTEX
  8
0
 10
0.629775
 20
0.501139
 30
0.0
 40
0.0001488
 41
0.0001488
  0
VERTEX
  8
0
 10
0.643013
 20
0.501899
 30
0.0
 40
0.0001488
 41
0.0001488
  0
VERTEX
  8
0
 10
0.656088
 20
0.504124
 30
0.0
 40
0.0001488
 41
0.0001488
  0
VERTEX
  8
0
 10
0.668837
 20
0.507813
 30
0.0
 40
0.0001488
 41
0.0001488
  0
VERTEX
  8
0
 10
0.681044
 20
0.512858
 30
0.0
 40
0.0001488
 41
0.0001488
  0
VERTEX
  8
0
 10
0.692654
 20
0.51926
 30
0.0
 40
0.0001488
 41
0.0001488
  0
VERTEX
  8
0
 10
0.694228
 20
0.5204
 30
0.0
 40
0.0001488
 41
0.0001488
  0
VERTEX
  8
0
 10
0.70345
 20
0.52691
 30
0.0
 40
0.0001488
 41
0.0001488
  0
VERTEX
  8
0
 10
0.713325
 20
0.535807
 30
0.0
 40
0.0001488
 41
0.0001488
  0
VERTEX
  8
0
 10
0.722168
 20
0.545682
 30
0.0
 40
0.0001488
 41
0.0001488
  0
VERTEX
  8
0
 10
0.729818
 20
0.556478
 30
0.0
 40
0.0001488
 41
0.0001488
  0
VERTEX
  8
0
 10
0.736274
 20
0.568088
 30
0.0
 40
0.0001488
 41
0.0001488
  0
VERTEX
  8
0
 10
0.741319
 20
0.580296
 30
0.0
 40
0.0001488
 41
0.0001488
  0
VERTEX
  8
0
 10
0.745008
 20
0.593099
 30
0.0
 40
0.0001488
 41
0.0001488
  0
VERTEX
  8
0
 10
0.747233
 20
0.606119
 30
0.0
 40
0.0001488
 41
0.0001488
  0
VERTEX
  8
0
 10
0.747993
 20
0.619358
 30
0.0
 40
0.0001488
 41
0.0001488
  0
VERTEX
  8
0
 10
0.747233
 20
0.632596
 30
0.0
 40
0.0001488
 41
0.0001488
  0
VERTEX
  8
0
 10
0.745008
 20
0.645671
 30
0.0
 40
0.0001488
 41
0.0001488
  0
VERTEX
  8
0
 10
0.741971
 20
0.65625
 30
0.0
 40
0.0001488
 41
0.0001488
  0
VERTEX
  8
0
 10
0.741319
 20
0.658365
 30
0.0
 40
0.0001488
 41
0.0001488
  0
VERTEX
  8
0
 10
0.736274
 20
0.670628
 30
0.0
 40
0.0001488
 41
0.0001488
  0
VERTEX
  8
0
 10
0.729818
 20
0.682238
 30
0.0
 40
0.0001488
 41
0.0001488
  0
VERTEX
  8
0
 10
0.722168
 20
0.693088
 30
0.0
 40
0.0001488
 41
0.0001488
  0
VERTEX
  8
0
 10
0.713325
 20
0.702963
 30
0.0
 40
0.0001488
 41
0.0001488
  0
VERTEX
  8
0
 10
0.70345
 20
0.711751
 30
0.0
 40
0.0001488
 41
0.0001488
  0
VERTEX
  8
0
 10
0.694228
 20
0.718317
 30
0.0
 40
0.0001488
 41
0.0001488
  0
VERTEX
  8
0
 10
0.692654
 20
0.719456
 30
0.0
 40
0.0001488
 41
0.0001488
  0
VERTEX
  8
0
 10
0.681044
 20
0.725857
 30
0.0
 40
0.0001488
 41
0.0001488
  0
VERTEX
  8
0
 10
0.668837
 20
0.730957
 30
0.0
 40
0.0001488
 41
0.0001488
  0
VERTEX
  8
0
 10
0.656088
 20
0.734592
 30
0.0
 40
0.0001488
 41
0.0001488
  0
VERTEX
  8
0
 10
0.643013
 20
0.736817
 30
0.0
 40
0.0001488
 41
0.0001488
  0
VERTEX
  8
0
 10
0.629775
 20
0.737576
 30
0.0
 40
0.0001488
 41
0.0001488
  0
VERTEX
  8
0
 10
0.616536
 20
0.736817
 30
0.0
 40
0.0001488
 41
0.0001488
  0
VERTEX
  8
0
 10
0.613607
 20
0.736328
 30
0.0
 40
0.0001488
 41
0.0001488
  0
VERTEX
  8
0
 10
0.603461
 20
0.734592
 30
0.0
 40
0.0001488
 41
0.0001488
  0
VERTEX
  8
0
 10
0.590712
 20
0.730957
 30
0.0
 40
0.0001488
 41
0.0001488
  0
VERTEX
  8
0
 10
0.57845
 20
0.725857
 30
0.0
 40
0.0001488
 41
0.0001488
  0
VERTEX
  8
0
 10
0.566894
 20
0.719456
 30
0.0
 40
0.0001488
 41
0.0001488
  0
VERTEX
  8
0
 10
0.556044
 20
0.711751
 30
0.0
 40
0.0001488
 41
0.0001488
  0
VERTEX
  8
0
 10
0.546169
 20
0.702963
 30
0.0
 40
0.0001488
 41
0.0001488
  0
VERTEX
  8
0
 10
0.537381
 20
0.693088
 30
0.0
 40
0.0001488
 41
0.0001488
  0
VERTEX
  8
0
 10
0.532932
 20
0.686849
 30
0.0
 40
0.0001488
 41
0.0001488
  0
VERTEX
  8
0
 10
0.529676
 20
0.682238
 30
0.0
 40
0.0001488
 41
0.0001488
  0
VERTEX
  8
0
 10
0.523275
 20
0.670628
 30
0.0
 40
0.0001488
 41
0.0001488
  0
VERTEX
  8
0
 10
0.518175
 20
0.658365
 30
0.0
 40
0.0001488
 41
0.0001488
  0
VERTEX
  8
0
 10
0.517578
 20
0.65625
 30
0.0
 40
0.0001488
 41
0.0001488
  0
VERTEX
  8
0
 10
0.51454
 20
0.645671
 30
0.0
 40
0.0001488
 41
0.0001488
  0
VERTEX
  8
0
 10
0.512261
 20
0.632596
 30
0.0
 40
0.0001488
 41
0.0001488
  0
SEQEND
 8
0
  0
POLYLINE
  8
0
 62
     1
 66
     1
 10
0
 20
0
 30
0.0
 70
     1
 40
0.0107136
 41
0.0107136
  0
VERTEX
  8
0
 10
3.7461
 20
4.37896
 30
0.0
 40
0.0001488
 41
0.0001488
  0
VERTEX
  8
0
 10
3.74593
 20
4.38612
 30
0.0
 40
0.0001488
 41
0.0001488
  0
VERTEX
  8
0
 10
3.74338
 20
4.42301
 30
0.0
 40
0.0001488
 41
0.0001488
  0
VERTEX
  8
0
 10
3.7416
 20
4.43799
 30
0.0
 40
0.0001488
 41
0.0001488
  0
VERTEX
  8
0
 10
3.73996
 20
4.44586
 30
0.0
 40
0.0001488
 41
0.0001488
  0
VERTEX
  8
0
 10
3.73856
 20
4.45253
 30
0.0
 40
0.0001488
 41
0.0001488
  0
VERTEX
  8
0
 10
3.73736
 20
4.45632
 30
0.0
 40
0.0001488
 41
0.0001488
  0
VERTEX
  8
0
 10
3.73421
 20
4.46619
 30
0.0
 40
0.0001488
 41
0.0001488
  0
VERTEX
  8
0
 10
3.72868
 20
4.47874
 30
0.0
 40
0.0001488
 41
0.0001488
  0
VERTEX
  8
0
 10
3.72222
 20
4.48981
 30
0.0
 40
0.0001488
 41
0.0001488
  0
VERTEX
  8
0
 10
3.71479
 20
4.49914
 30
0.0
 40
0.0001488
 41
0.0001488
  0
VERTEX
  8
0
 10
3.70676
 20
4.50651
 30
0.0
 40
0.0001488
 41
0.0001488
  0
VERTEX
  8
0
 10
3.70085
 20
4.5101
 30
0.0
 40
0.0001488
 41
0.0001488
  0
VERTEX
  8
0
 10
3.69824
 20
4.51172
 30
0.0
 40
0.0001488
 41
0.0001488
  0
VERTEX
  8
0
 10
3.6894
 20
4.5146
 30
0.0
 40
0.0001488
 41
0.0001488
  0
VERTEX
  8
0
 10
3.68056
 20
4.51514
 30
0.0
 40
0.0001488
 41
0.0001488
  0
VERTEX
  8
0
 10
3.67751
 20
4.51497
 30
0.0
 40
0.0001488
 41
0.0001488
  0
VERTEX
  8
0
 10
3.65907
 20
4.51367
 30
0.0
 40
0.0001488
 41
0.0001488
  0
VERTEX
  8
0
 10
3.65169
 20
4.51215
 30
0.0
 40
0.0001488
 41
0.0001488
  0
VERTEX
  8
0
 10
3.65033
 20
4.51188
 30
0.0
 40
0.0001488
 41
0.0001488
  0
VERTEX
  8
0
 10
3.64204
 20
4.50776
 30
0.0
 40
0.0001488
 41
0.0001488
  0
VERTEX
  8
0
 10
3.63428
 20
4.50142
 30
0.0
 40
0.0001488
 41
0.0001488
  0
VERTEX
  8
0
 10
3.62739
 20
4.49306
 30
0.0
 40
0.0001488
 41
0.0001488
  0
VERTEX
  8
0
 10
3.62169
 20
4.4834
 30
0.0
 40
0.0001488
 41
0.0001488
  0
VERTEX
  8
0
 10
3.62136
 20
4.48275
 30
0.0
 40
0.0001488
 41
0.0001488
  0
VERTEX
  8
0
 10
3.61692
 20
4.47211
 30
0.0
 40
0.0001488
 41
0.0001488
  0
VERTEX
  8
0
 10
3.61649
 20
4.47108
 30
0.0
 40
0.0001488
 41
0.0001488
  0
VERTEX
  8
0
 10
3.61643
 20
4.47092
 30
0.0
 40
0.0001488
 41
0.0001488
  0
VERTEX
  8
0
 10
3.61274
 20
4.45774
 30
0.0
 40
0.0001488
 41
0.0001488
  0
VERTEX
  8
0
 10
3.61074
 20
4.44586
 30
0.0
 40
0.0001488
 41
0.0001488
  0
VERTEX
  8
0
 10
3.61029
 20
4.44353
 30
0.0
 40
0.0001488
 41
0.0001488
  0
VERTEX
  8
0
 10
3.60926
 20
4.42876
 30
0.0
 40
0.0001488
 41
0.0001488
  0
VERTEX
  8
0
 10
3.60965
 20
4.41368
 30
0.0
 40
0.0001488
 41
0.0001488
  0
VERTEX
  8
0
 10
3.61225
 20
4.37679
 30
0.0
 40
0.0001488
 41
0.0001488
  0
VERTEX
  8
0
 10
3.61361
 20
4.36524
 30
0.0
 40
0.0001488
 41
0.0001488
  0
VERTEX
  8
0
 10
3.61399
 20
4.36182
 30
0.0
 40
0.0001488
 41
0.0001488
  0
VERTEX
  8
0
 10
3.61703
 20
4.34728
 30
0.0
 40
0.0001488
 41
0.0001488
  0
VERTEX
  8
0
 10
3.62033
 20
4.33697
 30
0.0
 40
0.0001488
 41
0.0001488
  0
VERTEX
  8
0
 10
3.62142
 20
4.33361
 30
0.0
 40
0.0001488
 41
0.0001488
  0
VERTEX
  8
0
 10
3.62538
 20
4.32454
 30
0.0
 40
0.0001488
 41
0.0001488
  0
VERTEX
  8
0
 10
3.6269
 20
4.32107
 30
0.0
 40
0.0001488
 41
0.0001488
  0
VERTEX
  8
0
 10
3.62858
 20
4.31819
 30
0.0
 40
0.0001488
 41
0.0001488
  0
VERTEX
  8
0
 10
3.6334
 20
4.31
 30
0.0
 40
0.0001488
 41
0.0001488
  0
VERTEX
  8
0
 10
3.63943
 20
4.3024
 30
0.0
 40
0.0001488
 41
0.0001488
  0
VERTEX
  8
0
 10
3.64079
 20
4.30067
 30
0.0
 40
0.0001488
 41
0.0001488
  0
VERTEX
  8
0
 10
3.64268
 20
4.29893
 30
0.0
 40
0.0001488
 41
0.0001488
  0
VERTEX
  8
0
 10
3.64887
 20
4.29335
 30
0.0
 40
0.0001488
 41
0.0001488
  0
VERTEX
  8
0
 10
3.65739
 20
4.28814
 30
0.0
 40
0.0001488
 41
0.0001488
  0
VERTEX
  8
0
 10
3.66624
 20
4.28521
 30
0.0
 40
0.0001488
 41
0.0001488
  0
VERTEX
  8
0
 10
3.66797
 20
4.2851
 30
0.0
 40
0.0001488
 41
0.0001488
  0
VERTEX
  8
0
 10
3.67507
 20
4.28467
 30
0.0
 40
0.0001488
 41
0.0001488
  0
VERTEX
  8
0
 10
3.67751
 20
4.28483
 30
0.0
 40
0.0001488
 41
0.0001488
  0
VERTEX
  8
0
 10
3.67893
 20
4.28494
 30
0.0
 40
0.0001488
 41
0.0001488
  0
VERTEX
  8
0
 10
3.69656
 20
4.28614
 30
0.0
 40
0.0001488
 41
0.0001488
  0
VERTEX
  8
0
 10
3.70529
 20
4.28797
 30
0.0
 40
0.0001488
 41
0.0001488
  0
VERTEX
  8
0
 10
3.70828
 20
4.28944
 30
0.0
 40
0.0001488
 41
0.0001488
  0
VERTEX
  8
0
 10
3.7136
 20
4.29204
 30
0.0
 40
0.0001488
 41
0.0001488
  0
VERTEX
  8
0
 10
3.72131
 20
4.29839
 30
0.0
 40
0.0001488
 41
0.0001488
  0
VERTEX
  8
0
 10
3.72825
 20
4.30681
 30
0.0
 40
0.0001488
 41
0.0001488
  0
VERTEX
  8
0
 10
3.73426
 20
4.31706
 30
0.0
 40
0.0001488
 41
0.0001488
  0
VERTEX
  8
0
 10
3.7391
 20
4.32867
 30
0.0
 40
0.0001488
 41
0.0001488
  0
VERTEX
  8
0
 10
3.73915
 20
4.32894
 30
0.0
 40
0.0001488
 41
0.0001488
  0
VERTEX
  8
0
 10
3.73964
 20
4.33068
 30
0.0
 40
0.0001488
 41
0.0001488
  0
VERTEX
  8
0
 10
3.74289
 20
4.34207
 30
0.0
 40
0.0001488
 41
0.0001488
  0
VERTEX
  8
0
 10
3.74528
 20
4.35628
 30
0.0
 40
0.0001488
 41
0.0001488
  0
VERTEX
  8
0
 10
3.74588
 20
4.36524
 30
0.0
 40
0.0001488
 41
0.0001488
  0
VERTEX
  8
0
 10
3.74631
 20
4.3711
 30
0.0
 40
0.0001488
 41
0.0001488
  0
VERTEX
  8
0
 10
3.7461
 20
4.37896
 30
0.0
 40
0.0001488
 41
0.0001488
  0
SEQEND
 8
0
  0
POLYLINE
  8
0
 62
     1
 66
     1
 10
0
 20
0
 30
0.0
 70
     1
 40
0.0107136
 41
0.0107136
  0
VERTEX
  8
0
 10
3.6791
 20
4.20574
 30
0.0
 40
0.0001488
 41
0.0001488
  0
VERTEX
  8
0
 10
3.67079
 20
4.204
 30
0.0
 40
0.0001488
 41
0.0001488
  0
VERTEX
  8
0
 10
3.65744
 20
4.20117
 30
0.0
 40
0.0001488
 41
0.0001488
  0
VERTEX
  8
0
 10
3.63667
 20
4.19358
 30
0.0
 40
0.0001488
 41
0.0001488
  0
VERTEX
  8
0
 10
3.61708
 20
4.18321
 30
0.0
 40
0.0001488
 41
0.0001488
  0
VERTEX
  8
0
 10
3.59918
 20
4.17014
 30
0.0
 40
0.0001488
 41
0.0001488
  0
VERTEX
  8
0
 10
3.5969
 20
4.16797
 30
0.0
 40
0.0001488
 41
0.0001488
  0
VERTEX
  8
0
 10
3.58328
 20
4.15479
 30
0.0
 40
0.0001488
 41
0.0001488
  0
VERTEX
  8
0
 10
3.56967
 20
4.13732
 30
0.0
 40
0.0001488
 41
0.0001488
  0
VERTEX
  8
0
 10
3.5586
 20
4.11822
 30
0.0
 40
0.0001488
 41
0.0001488
  0
VERTEX
  8
0
 10
3.55029
 20
4.09765
 30
0.0
 40
0.0001488
 41
0.0001488
  0
VERTEX
  8
0
 10
3.54915
 20
4.09321
 30
0.0
 40
0.0001488
 41
0.0001488
  0
VERTEX
  8
0
 10
3.54807
 20
4.08871
 30
0.0
 40
0.0001488
 41
0.0001488
  0
VERTEX
  8
0
 10
3.54492
 20
4.07617
 30
0.0
 40
0.0001488
 41
0.0001488
  0
VERTEX
  8
0
 10
3.54258
 20
4.05414
 30
0.0
 40
0.0001488
 41
0.0001488
  0
VERTEX
  8
0
 10
3.5434
 20
4.03207
 30
0.0
 40
0.0001488
 41
0.0001488
  0
VERTEX
  8
0
 10
3.54465
 20
4.02485
 30
0.0
 40
0.0001488
 41
0.0001488
  0
VERTEX
  8
0
 10
3.54719
 20
4.01025
 30
0.0
 40
0.0001488
 41
0.0001488
  0
VERTEX
  8
0
 10
3.55404
 20
3.98921
 30
0.0
 40
0.0001488
 41
0.0001488
  0
VERTEX
  8
0
 10
3.55821
 20
3.98068
 30
0.0
 40
0.0001488
 41
0.0001488
  0
VERTEX
  8
0
 10
3.56381
 20
3.96929
 30
0.0
 40
0.0001488
 41
0.0001488
  0
VERTEX
  8
0
 10
3.56608
 20
3.96593
 30
0.0
 40
0.0001488
 41
0.0001488
  0
VERTEX
  8
0
 10
3.57438
 20
3.95361
 30
0.0
 40
0.0001488
 41
0.0001488
  0
VERTEX
  8
0
 10
3.57611
 20
3.95096
 30
0.0
 40
0.0001488
 41
0.0001488
  0
VERTEX
  8
0
 10
3.59093
 20
3.93451
 30
0.0
 40
0.0001488
 41
0.0001488
  0
VERTEX
  8
0
 10
3.5969
 20
3.92953
 30
0.0
 40
0.0001488
 41
0.0001488
  0
VERTEX
  8
0
 10
3.60792
 20
3.92025
 30
0.0
 40
0.0001488
 41
0.0001488
  0
VERTEX
  8
0
 10
3.62668
 20
3.90853
 30
0.0
 40
0.0001488
 41
0.0001488
  0
VERTEX
  8
0
 10
3.64686
 20
3.89953
 30
0.0
 40
0.0001488
 41
0.0001488
  0
VERTEX
  8
0
 10
3.66818
 20
3.89344
 30
0.0
 40
0.0001488
 41
0.0001488
  0
VERTEX
  8
0
 10
3.69011
 20
3.89031
 30
0.0
 40
0.0001488
 41
0.0001488
  0
VERTEX
  8
0
 10
3.71224
 20
3.89031
 30
0.0
 40
0.0001488
 41
0.0001488
  0
VERTEX
  8
0
 10
3.73415
 20
3.89344
 30
0.0
 40
0.0001488
 41
0.0001488
  0
VERTEX
  8
0
 10
3.75543
 20
3.89953
 30
0.0
 40
0.0001488
 41
0.0001488
  0
VERTEX
  8
0
 10
3.75814
 20
3.90072
 30
0.0
 40
0.0001488
 41
0.0001488
  0
VERTEX
  8
0
 10
3.77567
 20
3.90853
 30
0.0
 40
0.0001488
 41
0.0001488
  0
VERTEX
  8
0
 10
3.79443
 20
3.92025
 30
0.0
 40
0.0001488
 41
0.0001488
  0
VERTEX
  8
0
 10
3.81136
 20
3.93451
 30
0.0
 40
0.0001488
 41
0.0001488
  0
VERTEX
  8
0
 10
3.82622
 20
3.95096
 30
0.0
 40
0.0001488
 41
0.0001488
  0
VERTEX
  8
0
 10
3.82801
 20
3.95361
 30
0.0
 40
0.0001488
 41
0.0001488
  0
VERTEX
  8
0
 10
3.83578
 20
3.96511
 30
0.0
 40
0.0001488
 41
0.0001488
  0
VERTEX
  8
0
 10
3.8386
 20
3.96929
 30
0.0
 40
0.0001488
 41
0.0001488
  0
VERTEX
  8
0
 10
3.84831
 20
3.98921
 30
0.0
 40
0.0001488
 41
0.0001488
  0
VERTEX
  8
0
 10
3.85514
 20
4.01025
 30
0.0
 40
0.0001488
 41
0.0001488
  0
VERTEX
  8
0
 10
3.859
 20
4.03207
 30
0.0
 40
0.0001488
 41
0.0001488
  0
VERTEX
  8
0
 10
3.85938
 20
4.04269
 30
0.0
 40
0.0001488
 41
0.0001488
  0
VERTEX
  8
0
 10
3.85975
 20
4.05414
 30
0.0
 40
0.0001488
 41
0.0001488
  0
VERTEX
  8
0
 10
3.85742
 20
4.07617
 30
0.0
 40
0.0001488
 41
0.0001488
  0
VERTEX
  8
0
 10
3.85211
 20
4.09765
 30
0.0
 40
0.0001488
 41
0.0001488
  0
VERTEX
  8
0
 10
3.84896
 20
4.10536
 30
0.0
 40
0.0001488
 41
0.0001488
  0
VERTEX
  8
0
 10
3.84418
 20
4.11719
 30
0.0
 40
0.0001488
 41
0.0001488
  0
VERTEX
  8
0
 10
3.84381
 20
4.11822
 30
0.0
 40
0.0001488
 41
0.0001488
  0
VERTEX
  8
0
 10
3.83274
 20
4.13732
 30
0.0
 40
0.0001488
 41
0.0001488
  0
VERTEX
  8
0
 10
3.81912
 20
4.15479
 30
0.0
 40
0.0001488
 41
0.0001488
  0
VERTEX
  8
0
 10
3.80317
 20
4.17014
 30
0.0
 40
0.0001488
 41
0.0001488
  0
VERTEX
  8
0
 10
3.78526
 20
4.18321
 30
0.0
 40
0.0001488
 41
0.0001488
  0
VERTEX
  8
0
 10
3.76574
 20
4.19358
 30
0.0
 40
0.0001488
 41
0.0001488
  0
VERTEX
  8
0
 10
3.75814
 20
4.19635
 30
0.0
 40
0.0001488
 41
0.0001488
  0
VERTEX
  8
0
 10
3.7449
 20
4.20117
 30
0.0
 40
0.0001488
 41
0.0001488
  0
VERTEX
  8
0
 10
3.73161
 20
4.204
 30
0.0
 40
0.0001488
 41
0.0001488
  0
VERTEX
  8
0
 10
3.72325
 20
4.20574
 30
0.0
 40
0.0001488
 41
0.0001488
  0
VERTEX
  8
0
 10
3.70117
 20
4.20731
 30
0.0
 40
0.0001488
 41
0.0001488
  0
VERTEX
  8
0
 10
3.6791
 20
4.20574
 30
0.0
 40
0.0001488
 41
0.0001488
  0
SEQEND
 8
0
  0
POLYLINE
  8
0
 62
     1
 66
     1
 10
0
 20
0
 30
0.0
 70
     1
 40
0.0107136
 41
0.0107136
  0
VERTEX
  8
0
 10
3.42443
 20
3.97
 30
0.0
 40
0.0001488
 41
0.0001488
  0
VERTEX
  8
0
 10
3.42893
 20
3.97194
 30
0.0
 40
0.0001488
 41
0.0001488
  0
VERTEX
  8
0
 10
3.43565
 20
3.97597
 30
0.0
 40
0.0001488
 41
0.0001488
  0
VERTEX
  8
0
 10
3.43994
 20
3.97857
 30
0.0
 40
0.0001488
 41
0.0001488
  0
VERTEX
  8
0
 10
3.44874
 20
3.98557
 30
0.0
 40
0.0001488
 41
0.0001488
  0
VERTEX
  8
0
 10
3.44922
 20
3.98594
 30
0.0
 40
0.0001488
 41
0.0001488
  0
VERTEX
  8
0
 10
3.4566
 20
3.99403
 30
0.0
 40
0.0001488
 41
0.0001488
  0
VERTEX
  8
0
 10
3.46181
 20
4.00256
 30
0.0
 40
0.0001488
 41
0.0001488
  0
VERTEX
  8
0
 10
3.46479
 20
4.01129
 30
0.0
 40
0.0001488
 41
0.0001488
  0
VERTEX
  8
0
 10
3.46506
 20
4.01546
 30
0.0
 40
0.0001488
 41
0.0001488
  0
VERTEX
  8
0
 10
3.46539
 20
4.02007
 30
0.0
 40
0.0001488
 41
0.0001488
  0
VERTEX
  8
0
 10
3.46442
 20
4.0364
 30
0.0
 40
0.0001488
 41
0.0001488
  0
VERTEX
  8
0
 10
3.46408
 20
4.04144
 30
0.0
 40
0.0001488
 41
0.0001488
  0
VERTEX
  8
0
 10
3.4624
 20
4.05003
 30
0.0
 40
0.0001488
 41
0.0001488
  0
VERTEX
  8
0
 10
3.45958
 20
4.05578
 30
0.0
 40
0.0001488
 41
0.0001488
  0
VERTEX
  8
0
 10
3.45839
 20
4.05826
 30
0.0
 40
0.0001488
 41
0.0001488
  0
VERTEX
  8
0
 10
3.45215
 20
4.06592
 30
0.0
 40
0.0001488
 41
0.0001488
  0
VERTEX
  8
0
 10
3.44396
 20
4.07269
 30
0.0
 40
0.0001488
 41
0.0001488
  0
VERTEX
  8
0
 10
3.43565
 20
4.07753
 30
0.0
 40
0.0001488
 41
0.0001488
  0
VERTEX
  8
0
 10
3.43381
 20
4.07861
 30
0.0
 40
0.0001488
 41
0.0001488
  0
VERTEX
  8
0
 10
3.42567
 20
4.08192
 30
0.0
 40
0.0001488
 41
0.0001488
  0
VERTEX
  8
0
 10
3.42312
 20
4.08301
 30
0.0
 40
0.0001488
 41
0.0001488
  0
VERTEX
  8
0
 10
3.42215
 20
4.08339
 30
0.0
 40
0.0001488
 41
0.0001488
  0
VERTEX
  8
0
 10
3.40907
 20
4.08692
 30
0.0
 40
0.0001488
 41
0.0001488
  0
VERTEX
  8
0
 10
3.39507
 20
4.08919
 30
0.0
 40
0.0001488
 41
0.0001488
  0
VERTEX
  8
0
 10
3.38043
 20
4.09006
 30
0.0
 40
0.0001488
 41
0.0001488
  0
VERTEX
  8
0
 10
3.3655
 20
4.08963
 30
0.0
 40
0.0001488
 41
0.0001488
  0
VERTEX
  8
0
 10
3.35499
 20
4.08876
 30
0.0
 40
0.0001488
 41
0.0001488
  0
VERTEX
  8
0
 10
3.329
 20
4.08675
 30
0.0
 40
0.0001488
 41
0.0001488
  0
VERTEX
  8
0
 10
3.31418
 20
4.0849
 30
0.0
 40
0.0001488
 41
0.0001488
  0
VERTEX
  8
0
 10
3.31108
 20
4.08421
 30
0.0
 40
0.0001488
 41
0.0001488
  0
VERTEX
  8
0
 10
3.29975
 20
4.08171
 30
0.0
 40
0.0001488
 41
0.0001488
  0
VERTEX
  8
0
 10
3.28618
 20
4.07726
 30
0.0
 40
0.0001488
 41
0.0001488
  0
VERTEX
  8
0
 10
3.27436
 20
4.072
 30
0.0
 40
0.0001488
 41
0.0001488
  0
VERTEX
  8
0
 10
3.27376
 20
4.07172
 30
0.0
 40
0.0001488
 41
0.0001488
  0
VERTEX
  8
0
 10
3.26465
 20
4.06625
 30
0.0
 40
0.0001488
 41
0.0001488
  0
VERTEX
  8
0
 10
3.26394
 20
4.06586
 30
0.0
 40
0.0001488
 41
0.0001488
  0
VERTEX
  8
0
 10
3.26269
 20
4.06511
 30
0.0
 40
0.0001488
 41
0.0001488
  0
VERTEX
  8
0
 10
3.25342
 20
4.05772
 30
0.0
 40
0.0001488
 41
0.0001488
  0
VERTEX
  8
0
 10
3.24604
 20
4.04964
 30
0.0
 40
0.0001488
 41
0.0001488
  0
VERTEX
  8
0
 10
3.24089
 20
4.04113
 30
0.0
 40
0.0001488
 41
0.0001488
  0
VERTEX
  8
0
 10
3.24035
 20
4.03956
 30
0.0
 40
0.0001488
 41
0.0001488
  0
VERTEX
  8
0
 10
3.23785
 20
4.03239
 30
0.0
 40
0.0001488
 41
0.0001488
  0
VERTEX
  8
0
 10
3.23725
 20
4.0236
 30
0.0
 40
0.0001488
 41
0.0001488
  0
VERTEX
  8
0
 10
3.23833
 20
4.00526
 30
0.0
 40
0.0001488
 41
0.0001488
  0
VERTEX
  8
0
 10
3.23856
 20
4.00222
 30
0.0
 40
0.0001488
 41
0.0001488
  0
VERTEX
  8
0
 10
3.24024
 20
3.99365
 30
0.0
 40
0.0001488
 41
0.0001488
  0
VERTEX
  8
0
 10
3.24425
 20
3.9854
 30
0.0
 40
0.0001488
 41
0.0001488
  0
VERTEX
  8
0
 10
3.25049
 20
3.97775
 30
0.0
 40
0.0001488
 41
0.0001488
  0
VERTEX
  8
0
 10
3.25874
 20
3.97097
 30
0.0
 40
0.0001488
 41
0.0001488
  0
VERTEX
  8
0
 10
3.26882
 20
3.96506
 30
0.0
 40
0.0001488
 41
0.0001488
  0
VERTEX
  8
0
 10
3.27436
 20
3.96283
 30
0.0
 40
0.0001488
 41
0.0001488
  0
VERTEX
  8
0
 10
3.28054
 20
3.96029
 30
0.0
 40
0.0001488
 41
0.0001488
  0
VERTEX
  8
0
 10
3.29357
 20
3.95676
 30
0.0
 40
0.0001488
 41
0.0001488
  0
VERTEX
  8
0
 10
3.30757
 20
3.95443
 30
0.0
 40
0.0001488
 41
0.0001488
  0
VERTEX
  8
0
 10
3.32221
 20
3.95361
 30
0.0
 40
0.0001488
 41
0.0001488
  0
VERTEX
  8
0
 10
3.33712
 20
3.95404
 30
0.0
 40
0.0001488
 41
0.0001488
  0
VERTEX
  8
0
 10
3.35499
 20
3.95546
 30
0.0
 40
0.0001488
 41
0.0001488
  0
VERTEX
  8
0
 10
3.37364
 20
3.95692
 30
0.0
 40
0.0001488
 41
0.0001488
  0
VERTEX
  8
0
 10
3.38846
 20
3.95876
 30
0.0
 40
0.0001488
 41
0.0001488
  0
VERTEX
  8
0
 10
3.40289
 20
3.96197
 30
0.0
 40
0.0001488
 41
0.0001488
  0
VERTEX
  8
0
 10
3.41624
 20
3.96636
 30
0.0
 40
0.0001488
 41
0.0001488
  0
VERTEX
  8
0
 10
3.41644
 20
3.96642
 30
0.0
 40
0.0001488
 41
0.0001488
  0
VERTEX
  8
0
 10
3.42443
 20
3.97
 30
0.0
 40
0.0001488
 41
0.0001488
  0
SEQEND
 8
0
  0
POLYLINE
  8
0
 62
     1
 66
     1
 10
0
 20
0
 30
0.0
 70
     1
 40
0.0107136
 41
0.0107136
  0
VERTEX
  8
0
 10
3.70632
 20
3.8119
 30
0.0
 40
0.0001488
 41
0.0001488
  0
VERTEX
  8
0
 10
3.70508
 20
3.81179
 30
0.0
 40
0.0001488
 41
0.0001488
  0
VERTEX
  8
0
 10
3.70383
 20
3.81158
 30
0.0
 40
0.0001488
 41
0.0001488
  0
VERTEX
  8
0
 10
3.69646
 20
3.81006
 30
0.0
 40
0.0001488
 41
0.0001488
  0
VERTEX
  8
0
 10
3.68821
 20
3.8061
 30
0.0
 40
0.0001488
 41
0.0001488
  0
VERTEX
  8
0
 10
3.68061
 20
3.79992
 30
0.0
 40
0.0001488
 41
0.0001488
  0
VERTEX
  8
0
 10
3.67751
 20
3.79611
 30
0.0
 40
0.0001488
 41
0.0001488
  0
VERTEX
  8
0
 10
3.67378
 20
3.79161
 30
0.0
 40
0.0001488
 41
0.0001488
  0
VERTEX
  8
0
 10
3.66792
 20
3.78153
 30
0.0
 40
0.0001488
 41
0.0001488
  0
VERTEX
  8
0
 10
3.66444
 20
3.77306
 30
0.0
 40
0.0001488
 41
0.0001488
  0
VERTEX
  8
0
 10
3.66396
 20
3.77192
 30
0.0
 40
0.0001488
 41
0.0001488
  0
VERTEX
  8
0
 10
3.66314
 20
3.76992
 30
0.0
 40
0.0001488
 41
0.0001488
  0
VERTEX
  8
0
 10
3.66308
 20
3.76981
 30
0.0
 40
0.0001488
 41
0.0001488
  0
VERTEX
  8
0
 10
3.65956
 20
3.75683
 30
0.0
 40
0.0001488
 41
0.0001488
  0
VERTEX
  8
0
 10
3.65733
 20
3.74278
 30
0.0
 40
0.0001488
 41
0.0001488
  0
VERTEX
  8
0
 10
3.65642
 20
3.72814
 30
0.0
 40
0.0001488
 41
0.0001488
  0
VERTEX
  8
0
 10
3.65668
 20
3.72021
 30
0.0
 40
0.0001488
 41
0.0001488
  0
VERTEX
  8
0
 10
3.6569
 20
3.71322
 30
0.0
 40
0.0001488
 41
0.0001488
  0
VERTEX
  8
0
 10
3.65978
 20
3.67676
 30
0.0
 40
0.0001488
 41
0.0001488
  0
VERTEX
  8
0
 10
3.66162
 20
3.66183
 30
0.0
 40
0.0001488
 41
0.0001488
  0
VERTEX
  8
0
 10
3.66482
 20
3.64746
 30
0.0
 40
0.0001488
 41
0.0001488
  0
VERTEX
  8
0
 10
3.66737
 20
3.6396
 30
0.0
 40
0.0001488
 41
0.0001488
  0
VERTEX
  8
0
 10
3.66928
 20
3.63385
 30
0.0
 40
0.0001488
 41
0.0001488
  0
VERTEX
  8
0
 10
3.6709
 20
3.63021
 30
0.0
 40
0.0001488
 41
0.0001488
  0
VERTEX
  8
0
 10
3.67481
 20
3.62142
 30
0.0
 40
0.0001488
 41
0.0001488
  0
VERTEX
  8
0
 10
3.68137
 20
3.6104
 30
0.0
 40
0.0001488
 41
0.0001488
  0
VERTEX
  8
0
 10
3.68192
 20
3.60975
 30
0.0
 40
0.0001488
 41
0.0001488
  0
VERTEX
  8
0
 10
3.68381
 20
3.60736
 30
0.0
 40
0.0001488
 41
0.0001488
  0
VERTEX
  8
0
 10
3.68881
 20
3.60113
 30
0.0
 40
0.0001488
 41
0.0001488
  0
VERTEX
  8
0
 10
3.69683
 20
3.59381
 30
0.0
 40
0.0001488
 41
0.0001488
  0
VERTEX
  8
0
 10
3.70236
 20
3.59039
 30
0.0
 40
0.0001488
 41
0.0001488
  0
VERTEX
  8
0
 10
3.70404
 20
3.58936
 30
0.0
 40
0.0001488
 41
0.0001488
  0
VERTEX
  8
0
 10
3.70535
 20
3.58854
 30
0.0
 40
0.0001488
 41
0.0001488
  0
VERTEX
  8
0
 10
3.71414
 20
3.58561
 30
0.0
 40
0.0001488
 41
0.0001488
  0
VERTEX
  8
0
 10
3.72293
 20
3.58496
 30
0.0
 40
0.0001488
 41
0.0001488
  0
VERTEX
  8
0
 10
3.74268
 20
3.58615
 30
0.0
 40
0.0001488
 41
0.0001488
  0
VERTEX
  8
0
 10
3.74431
 20
3.58626
 30
0.0
 40
0.0001488
 41
0.0001488
  0
VERTEX
  8
0
 10
3.75196
 20
3.58778
 30
0.0
 40
0.0001488
 41
0.0001488
  0
VERTEX
  8
0
 10
3.75288
 20
3.58794
 30
0.0
 40
0.0001488
 41
0.0001488
  0
VERTEX
  8
0
 10
3.75814
 20
3.59056
 30
0.0
 40
0.0001488
 41
0.0001488
  0
VERTEX
  8
0
 10
3.76112
 20
3.59196
 30
0.0
 40
0.0001488
 41
0.0001488
  0
VERTEX
  8
0
 10
3.76872
 20
3.59814
 30
0.0
 40
0.0001488
 41
0.0001488
  0
VERTEX
  8
0
 10
3.77556
 20
3.60644
 30
0.0
 40
0.0001488
 41
0.0001488
  0
VERTEX
  8
0
 10
3.78147
 20
3.61654
 30
0.0
 40
0.0001488
 41
0.0001488
  0
VERTEX
  8
0
 10
3.78624
 20
3.62825
 30
0.0
 40
0.0001488
 41
0.0001488
  0
VERTEX
  8
0
 10
3.78711
 20
3.63151
 30
0.0
 40
0.0001488
 41
0.0001488
  0
VERTEX
  8
0
 10
3.78976
 20
3.64128
 30
0.0
 40
0.0001488
 41
0.0001488
  0
VERTEX
  8
0
 10
3.79204
 20
3.65522
 30
0.0
 40
0.0001488
 41
0.0001488
  0
VERTEX
  8
0
 10
3.79292
 20
3.66986
 30
0.0
 40
0.0001488
 41
0.0001488
  0
VERTEX
  8
0
 10
3.79243
 20
3.68485
 30
0.0
 40
0.0001488
 41
0.0001488
  0
VERTEX
  8
0
 10
3.78965
 20
3.72021
 30
0.0
 40
0.0001488
 41
0.0001488
  0
VERTEX
  8
0
 10
3.78956
 20
3.72136
 30
0.0
 40
0.0001488
 41
0.0001488
  0
VERTEX
  8
0
 10
3.78771
 20
3.73617
 30
0.0
 40
0.0001488
 41
0.0001488
  0
VERTEX
  8
0
 10
3.78711
 20
3.73882
 30
0.0
 40
0.0001488
 41
0.0001488
  0
VERTEX
  8
0
 10
3.78526
 20
3.74718
 30
0.0
 40
0.0001488
 41
0.0001488
  0
VERTEX
  8
0
 10
3.7845
 20
3.7506
 30
0.0
 40
0.0001488
 41
0.0001488
  0
VERTEX
  8
0
 10
3.78011
 20
3.76417
 30
0.0
 40
0.0001488
 41
0.0001488
  0
VERTEX
  8
0
 10
3.77897
 20
3.76676
 30
0.0
 40
0.0001488
 41
0.0001488
  0
VERTEX
  8
0
 10
3.77453
 20
3.77664
 30
0.0
 40
0.0001488
 41
0.0001488
  0
VERTEX
  8
0
 10
3.7685
 20
3.78668
 30
0.0
 40
0.0001488
 41
0.0001488
  0
VERTEX
  8
0
 10
3.76796
 20
3.78765
 30
0.0
 40
0.0001488
 41
0.0001488
  0
VERTEX
  8
0
 10
3.76719
 20
3.78863
 30
0.0
 40
0.0001488
 41
0.0001488
  0
VERTEX
  8
0
 10
3.76053
 20
3.79693
 30
0.0
 40
0.0001488
 41
0.0001488
  0
VERTEX
  8
0
 10
3.75814
 20
3.79915
 30
0.0
 40
0.0001488
 41
0.0001488
  0
VERTEX
  8
0
 10
3.7525
 20
3.80431
 30
0.0
 40
0.0001488
 41
0.0001488
  0
VERTEX
  8
0
 10
3.74397
 20
3.80951
 30
0.0
 40
0.0001488
 41
0.0001488
  0
VERTEX
  8
0
 10
3.74283
 20
3.8099
 30
0.0
 40
0.0001488
 41
0.0001488
  0
VERTEX
  8
0
 10
3.73519
 20
3.8125
 30
0.0
 40
0.0001488
 41
0.0001488
  0
VERTEX
  8
0
 10
3.7264
 20
3.8131
 30
0.0
 40
0.0001488
 41
0.0001488
  0
VERTEX
  8
0
 10
3.70632
 20
3.8119
 30
0.0
 40
0.0001488
 41
0.0001488
  0
SEQEND
 8
0
  0
POLYLINE
  8
0
 62
     1
 66
     1
 10
0
 20
0
 30
0.0
 70
     1
 40
0.0107136
 41
0.0107136
  0
VERTEX
  8
0
 10
3.98139
 20
4.11833
 30
0.0
 40
0.0001488
 41
0.0001488
  0
VERTEX
  8
0
 10
3.97331
 20
4.11361
 30
0.0
 40
0.0001488
 41
0.0001488
  0
VERTEX
  8
0
 10
3.97032
 20
4.11187
 30
0.0
 40
0.0001488
 41
0.0001488
  0
VERTEX
  8
0
 10
3.96099
 20
4.10444
 30
0.0
 40
0.0001488
 41
0.0001488
  0
VERTEX
  8
0
 10
3.95415
 20
4.097
 30
0.0
 40
0.0001488
 41
0.0001488
  0
VERTEX
  8
0
 10
3.95361
 20
4.0964
 30
0.0
 40
0.0001488
 41
0.0001488
  0
VERTEX
  8
0
 10
3.95285
 20
4.09517
 30
0.0
 40
0.0001488
 41
0.0001488
  0
VERTEX
  8
0
 10
3.9484
 20
4.08789
 30
0.0
 40
0.0001488
 41
0.0001488
  0
VERTEX
  8
0
 10
3.94553
 20
4.07904
 30
0.0
 40
0.0001488
 41
0.0001488
  0
VERTEX
  8
0
 10
3.94493
 20
4.07021
 30
0.0
 40
0.0001488
 41
0.0001488
  0
VERTEX
  8
0
 10
3.9464
 20
4.04872
 30
0.0
 40
0.0001488
 41
0.0001488
  0
VERTEX
  8
0
 10
3.947
 20
4.04585
 30
0.0
 40
0.0001488
 41
0.0001488
  0
VERTEX
  8
0
 10
3.94764
 20
4.04269
 30
0.0
 40
0.0001488
 41
0.0001488
  0
VERTEX
  8
0
 10
3.94824
 20
4.03999
 30
0.0
 40
0.0001488
 41
0.0001488
  0
VERTEX
  8
0
 10
3.95236
 20
4.03168
 30
0.0
 40
0.0001488
 41
0.0001488
  0
VERTEX
  8
0
 10
3.95871
 20
4.02393
 30
0.0
 40
0.0001488
 41
0.0001488
  0
VERTEX
  8
0
 10
3.96044
 20
4.02246
 30
0.0
 40
0.0001488
 41
0.0001488
  0
VERTEX
  8
0
 10
3.96707
 20
4.01704
 30
0.0
 40
0.0001488
 41
0.0001488
  0
VERTEX
  8
0
 10
3.97738
 20
4.01101
 30
0.0
 40
0.0001488
 41
0.0001488
  0
VERTEX
  8
0
 10
3.98921
 20
4.00608
 30
0.0
 40
0.0001488
 41
0.0001488
  0
VERTEX
  8
0
 10
3.99246
 20
4.00515
 30
0.0
 40
0.0001488
 41
0.0001488
  0
VERTEX
  8
0
 10
4.00239
 20
4.00239
 30
0.0
 40
0.0001488
 41
0.0001488
  0
VERTEX
  8
0
 10
4.0166
 20
4
 30
0.0
 40
0.0001488
 41
0.0001488
  0
VERTEX
  8
0
 10
4.03136
 20
3.99892
 30
0.0
 40
0.0001488
 41
0.0001488
  0
VERTEX
  8
0
 10
4.04644
 20
3.99935
 30
0.0
 40
0.0001488
 41
0.0001488
  0
VERTEX
  8
0
 10
4.08068
 20
4.00174
 30
0.0
 40
0.0001488
 41
0.0001488
  0
VERTEX
  8
0
 10
4.08333
 20
4.0019
 30
0.0
 40
0.0001488
 41
0.0001488
  0
VERTEX
  8
0
 10
4.09825
 20
4.00364
 30
0.0
 40
0.0001488
 41
0.0001488
  0
VERTEX
  8
0
 10
4.10032
 20
4.00407
 30
0.0
 40
0.0001488
 41
0.0001488
  0
VERTEX
  8
0
 10
4.11279
 20
4.00672
 30
0.0
 40
0.0001488
 41
0.0001488
  0
VERTEX
  8
0
 10
4.12121
 20
4.00939
 30
0.0
 40
0.0001488
 41
0.0001488
  0
VERTEX
  8
0
 10
4.12651
 20
4.01107
 30
0.0
 40
0.0001488
 41
0.0001488
  0
VERTEX
  8
0
 10
4.13265
 20
4.01378
 30
0.0
 40
0.0001488
 41
0.0001488
  0
VERTEX
  8
0
 10
4.13303
 20
4.01394
 30
0.0
 40
0.0001488
 41
0.0001488
  0
VERTEX
  8
0
 10
4.13428
 20
4.01449
 30
0.0
 40
0.0001488
 41
0.0001488
  0
VERTEX
  8
0
 10
4.139
 20
4.0166
 30
0.0
 40
0.0001488
 41
0.0001488
  0
VERTEX
  8
0
 10
4.15012
 20
4.02306
 30
0.0
 40
0.0001488
 41
0.0001488
  0
VERTEX
  8
0
 10
4.1594
 20
4.03049
 30
0.0
 40
0.0001488
 41
0.0001488
  0
VERTEX
  8
0
 10
4.16678
 20
4.03851
 30
0.0
 40
0.0001488
 41
0.0001488
  0
VERTEX
  8
0
 10
4.16932
 20
4.04269
 30
0.0
 40
0.0001488
 41
0.0001488
  0
VERTEX
  8
0
 10
4.17199
 20
4.04704
 30
0.0
 40
0.0001488
 41
0.0001488
  0
VERTEX
  8
0
 10
4.17492
 20
4.05588
 30
0.0
 40
0.0001488
 41
0.0001488
  0
VERTEX
  8
0
 10
4.1754
 20
4.06347
 30
0.0
 40
0.0001488
 41
0.0001488
  0
VERTEX
  8
0
 10
4.17546
 20
4.06472
 30
0.0
 40
0.0001488
 41
0.0001488
  0
VERTEX
  8
0
 10
4.17513
 20
4.06999
 30
0.0
 40
0.0001488
 41
0.0001488
  0
VERTEX
  8
0
 10
4.17486
 20
4.07335
 30
0.0
 40
0.0001488
 41
0.0001488
  0
VERTEX
  8
0
 10
4.17399
 20
4.08621
 30
0.0
 40
0.0001488
 41
0.0001488
  0
VERTEX
  8
0
 10
4.17215
 20
4.09494
 30
0.0
 40
0.0001488
 41
0.0001488
  0
VERTEX
  8
0
 10
4.16808
 20
4.10325
 30
0.0
 40
0.0001488
 41
0.0001488
  0
VERTEX
  8
0
 10
4.16319
 20
4.10915
 30
0.0
 40
0.0001488
 41
0.0001488
  0
VERTEX
  8
0
 10
4.16174
 20
4.11094
 30
0.0
 40
0.0001488
 41
0.0001488
  0
VERTEX
  8
0
 10
4.15332
 20
4.11789
 30
0.0
 40
0.0001488
 41
0.0001488
  0
VERTEX
  8
0
 10
4.14301
 20
4.12392
 30
0.0
 40
0.0001488
 41
0.0001488
  0
VERTEX
  8
0
 10
4.13118
 20
4.12885
 30
0.0
 40
0.0001488
 41
0.0001488
  0
VERTEX
  8
0
 10
4.1205
 20
4.13183
 30
0.0
 40
0.0001488
 41
0.0001488
  0
VERTEX
  8
0
 10
4.12017
 20
4.13194
 30
0.0
 40
0.0001488
 41
0.0001488
  0
VERTEX
  8
0
 10
4.118
 20
4.13254
 30
0.0
 40
0.0001488
 41
0.0001488
  0
VERTEX
  8
0
 10
4.10385
 20
4.13493
 30
0.0
 40
0.0001488
 41
0.0001488
  0
VERTEX
  8
0
 10
4.08903
 20
4.13596
 30
0.0
 40
0.0001488
 41
0.0001488
  0
VERTEX
  8
0
 10
4.08068
 20
4.13574
 30
0.0
 40
0.0001488
 41
0.0001488
  0
VERTEX
  8
0
 10
4.07394
 20
4.13558
 30
0.0
 40
0.0001488
 41
0.0001488
  0
VERTEX
  8
0
 10
4.03907
 20
4.13319
 30
0.0
 40
0.0001488
 41
0.0001488
  0
VERTEX
  8
0
 10
4.03711
 20
4.13303
 30
0.0
 40
0.0001488
 41
0.0001488
  0
VERTEX
  8
0
 10
4.03668
 20
4.13297
 30
0.0
 40
0.0001488
 41
0.0001488
  0
VERTEX
  8
0
 10
4.02214
 20
4.13129
 30
0.0
 40
0.0001488
 41
0.0001488
  0
VERTEX
  8
0
 10
4.0076
 20
4.12819
 30
0.0
 40
0.0001488
 41
0.0001488
  0
VERTEX
  8
0
 10
3.99393
 20
4.12386
 30
0.0
 40
0.0001488
 41
0.0001488
  0
VERTEX
  8
0
 10
3.98139
 20
4.11833
 30
0.0
 40
0.0001488
 41
0.0001488
  0
SEQEND
 8
0
  0
POLYLINE
  8
0
 62
     1
 66
     1
 10
0
 20
0
 30
0.0
 70
     1
 40
0.0107136
 41
0.0107136
  0
VERTEX
  8
0
 10
1.35183
 20
1.14225
 30
0.0
 40
0.0001488
 41
0.0001488
  0
VERTEX
  8
0
 10
1.35238
 20
1.15104
 30
0.0
 40
0.0001488
 41
0.0001488
  0
VERTEX
  8
0
 10
1.35183
 20
1.15988
 30
0.0
 40
0.0001488
 41
0.0001488
  0
VERTEX
  8
0
 10
1.35037
 20
1.16862
 30
0.0
 40
0.0001488
 41
0.0001488
  0
VERTEX
  8
0
 10
1.34793
 20
1.17708
 30
0.0
 40
0.0001488
 41
0.0001488
  0
VERTEX
  8
0
 10
1.34451
 20
1.18527
 30
0.0
 40
0.0001488
 41
0.0001488
  0
VERTEX
  8
0
 10
1.34028
 20
1.19298
 30
0.0
 40
0.0001488
 41
0.0001488
  0
VERTEX
  8
0
 10
1.33979
 20
1.19363
 30
0.0
 40
0.0001488
 41
0.0001488
  0
VERTEX
  8
0
 10
1.33925
 20
1.19444
 30
0.0
 40
0.0001488
 41
0.0001488
  0
VERTEX
  8
0
 10
1.33518
 20
1.20025
 30
0.0
 40
0.0001488
 41
0.0001488
  0
VERTEX
  8
0
 10
1.32926
 20
1.20681
 30
0.0
 40
0.0001488
 41
0.0001488
  0
VERTEX
  8
0
 10
1.3227
 20
1.21273
 30
0.0
 40
0.0001488
 41
0.0001488
  0
VERTEX
  8
0
 10
1.31548
 20
1.21783
 30
0.0
 40
0.0001488
 41
0.0001488
  0
VERTEX
  8
0
 10
1.30773
 20
1.22211
 30
0.0
 40
0.0001488
 41
0.0001488
  0
VERTEX
  8
0
 10
1.29959
 20
1.22548
 30
0.0
 40
0.0001488
 41
0.0001488
  0
VERTEX
  8
0
 10
1.29107
 20
1.22792
 30
0.0
 40
0.0001488
 41
0.0001488
  0
VERTEX
  8
0
 10
1.28233
 20
1.22944
 30
0.0
 40
0.0001488
 41
0.0001488
  0
VERTEX
  8
0
 10
1.27349
 20
1.22993
 30
0.0
 40
0.0001488
 41
0.0001488
  0
VERTEX
  8
0
 10
1.2647
 20
1.22944
 30
0.0
 40
0.0001488
 41
0.0001488
  0
VERTEX
  8
0
 10
1.25863
 20
1.22835
 30
0.0
 40
0.0001488
 41
0.0001488
  0
VERTEX
  8
0
 10
1.25597
 20
1.22792
 30
0.0
 40
0.0001488
 41
0.0001488
  0
VERTEX
  8
0
 10
1.2475
 20
1.22548
 30
0.0
 40
0.0001488
 41
0.0001488
  0
VERTEX
  8
0
 10
1.23931
 20
1.22211
 30
0.0
 40
0.0001488
 41
0.0001488
  0
VERTEX
  8
0
 10
1.23671
 20
1.22065
 30
0.0
 40
0.0001488
 41
0.0001488
  0
VERTEX
  8
0
 10
1.23155
 20
1.21783
 30
0.0
 40
0.0001488
 41
0.0001488
  0
VERTEX
  8
0
 10
1.22439
 20
1.21273
 30
0.0
 40
0.0001488
 41
0.0001488
  0
VERTEX
  8
0
 10
1.21777
 20
1.20681
 30
0.0
 40
0.0001488
 41
0.0001488
  0
VERTEX
  8
0
 10
1.21191
 20
1.20025
 30
0.0
 40
0.0001488
 41
0.0001488
  0
VERTEX
  8
0
 10
1.20676
 20
1.19298
 30
0.0
 40
0.0001488
 41
0.0001488
  0
VERTEX
  8
0
 10
1.20247
 20
1.18527
 30
0.0
 40
0.0001488
 41
0.0001488
  0
VERTEX
  8
0
 10
1.19911
 20
1.17708
 30
0.0
 40
0.0001488
 41
0.0001488
  0
VERTEX
  8
0
 10
1.19667
 20
1.16862
 30
0.0
 40
0.0001488
 41
0.0001488
  0
VERTEX
  8
0
 10
1.19548
 20
1.16178
 30
0.0
 40
0.0001488
 41
0.0001488
  0
VERTEX
  8
0
 10
1.19515
 20
1.15988
 30
0.0
 40
0.0001488
 41
0.0001488
  0
VERTEX
  8
0
 10
1.19466
 20
1.15104
 30
0.0
 40
0.0001488
 41
0.0001488
  0
VERTEX
  8
0
 10
1.19515
 20
1.14225
 30
0.0
 40
0.0001488
 41
0.0001488
  0
VERTEX
  8
0
 10
1.19553
 20
1.14003
 30
0.0
 40
0.0001488
 41
0.0001488
  0
VERTEX
  8
0
 10
1.19667
 20
1.13352
 30
0.0
 40
0.0001488
 41
0.0001488
  0
VERTEX
  8
0
 10
1.19911
 20
1.12505
 30
0.0
 40
0.0001488
 41
0.0001488
  0
VERTEX
  8
0
 10
1.20247
 20
1.11686
 30
0.0
 40
0.0001488
 41
0.0001488
  0
VERTEX
  8
0
 10
1.20676
 20
1.10916
 30
0.0
 40
0.0001488
 41
0.0001488
  0
VERTEX
  8
0
 10
1.21191
 20
1.10194
 30
0.0
 40
0.0001488
 41
0.0001488
  0
VERTEX
  8
0
 10
1.21777
 20
1.09532
 30
0.0
 40
0.0001488
 41
0.0001488
  0
VERTEX
  8
0
 10
1.22439
 20
1.08941
 30
0.0
 40
0.0001488
 41
0.0001488
  0
VERTEX
  8
0
 10
1.23155
 20
1.08431
 30
0.0
 40
0.0001488
 41
0.0001488
  0
VERTEX
  8
0
 10
1.23931
 20
1.08002
 30
0.0
 40
0.0001488
 41
0.0001488
  0
VERTEX
  8
0
 10
1.2475
 20
1.07666
 30
0.0
 40
0.0001488
 41
0.0001488
  0
VERTEX
  8
0
 10
1.25597
 20
1.07422
 30
0.0
 40
0.0001488
 41
0.0001488
  0
VERTEX
  8
0
 10
1.25863
 20
1.07378
 30
0.0
 40
0.0001488
 41
0.0001488
  0
VERTEX
  8
0
 10
1.2647
 20
1.0727
 30
0.0
 40
0.0001488
 41
0.0001488
  0
VERTEX
  8
0
 10
1.27349
 20
1.07227
 30
0.0
 40
0.0001488
 41
0.0001488
  0
VERTEX
  8
0
 10
1.28233
 20
1.0727
 30
0.0
 40
0.0001488
 41
0.0001488
  0
VERTEX
  8
0
 10
1.29107
 20
1.07422
 30
0.0
 40
0.0001488
 41
0.0001488
  0
VERTEX
  8
0
 10
1.29959
 20
1.07666
 30
0.0
 40
0.0001488
 41
0.0001488
  0
VERTEX
  8
0
 10
1.30773
 20
1.08002
 30
0.0
 40
0.0001488
 41
0.0001488
  0
VERTEX
  8
0
 10
1.31548
 20
1.08431
 30
0.0
 40
0.0001488
 41
0.0001488
  0
VERTEX
  8
0
 10
1.3227
 20
1.08941
 30
0.0
 40
0.0001488
 41
0.0001488
  0
VERTEX
  8
0
 10
1.32926
 20
1.09532
 30
0.0
 40
0.0001488
 41
0.0001488
  0
VERTEX
  8
0
 10
1.33518
 20
1.10194
 30
0.0
 40
0.0001488
 41
0.0001488
  0
VERTEX
  8
0
 10
1.33925
 20
1.10769
 30
0.0
 40
0.0001488
 41
0.0001488
  0
VERTEX
  8
0
 10
1.34028
 20
1.10916
 30
0.0
 40
0.0001488
 41
0.0001488
  0
VERTEX
  8
0
 10
1.34451
 20
1.11686
 30
0.0
 40
0.0001488
 41
0.0001488
  0
VERTEX
  8
0
 10
1.34793
 20
1.12505
 30
0.0
 40
0.0001488
 41
0.0001488
  0
VERTEX
  8
0
 10
1.35037
 20
1.13352
 30
0.0
 40
0.0001488
 41
0.0001488
  0
VERTEX
  8
0
 10
1.35145
 20
1.14003
 30
0.0
 40
0.0001488
 41
0.0001488
  0
VERTEX
  8
0
 10
1.35183
 20
1.14225
 30
0.0
 40
0.0001488
 41
0.0001488
  0
SEQEND
 8
0
  0
POLYLINE
  8
0
 62
     1
 66
     1
 10
0
 20
0
 30
0.0
 70
     1
 40
0.0107136
 41
0.0107136
  0
VERTEX
  8
0
 10
0.697265
 20
1.29221
 30
0.0
 40
0.0001488
 41
0.0001488
  0
VERTEX
  8
0
 10
0.694228
 20
1.29693
 30
0.0
 40
0.0001488
 41
0.0001488
  0
VERTEX
  8
0
 10
0.692437
 20
1.29959
 30
0.0
 40
0.0001488
 41
0.0001488
  0
VERTEX
  8
0
 10
0.691026
 20
1.30132
 30
0.0
 40
0.0001488
 41
0.0001488
  0
VERTEX
  8
0
 10
0.686794
 20
1.30642
 30
0.0
 40
0.0001488
 41
0.0001488
  0
VERTEX
  8
0
 10
0.680447
 20
1.31255
 30
0.0
 40
0.0001488
 41
0.0001488
  0
VERTEX
  8
0
 10
0.673449
 20
1.31793
 30
0.0
 40
0.0001488
 41
0.0001488
  0
VERTEX
  8
0
 10
0.665853
 20
1.32248
 30
0.0
 40
0.0001488
 41
0.0001488
  0
VERTEX
  8
0
 10
0.657769
 20
1.32617
 30
0.0
 40
0.0001488
 41
0.0001488
  0
VERTEX
  8
0
 10
0.649414
 20
1.32894
 30
0.0
 40
0.0001488
 41
0.0001488
  0
VERTEX
  8
0
 10
0.640733
 20
1.33073
 30
0.0
 40
0.0001488
 41
0.0001488
  0
VERTEX
  8
0
 10
0.631944
 20
1.3316
 30
0.0
 40
0.0001488
 41
0.0001488
  0
VERTEX
  8
0
 10
0.623101
 20
1.33143
 30
0.0
 40
0.0001488
 41
0.0001488
  0
VERTEX
  8
0
 10
0.614367
 20
1.33024
 30
0.0
 40
0.0001488
 41
0.0001488
  0
VERTEX
  8
0
 10
0.613607
 20
1.33002
 30
0.0
 40
0.0001488
 41
0.0001488
  0
VERTEX
  8
0
 10
0.605794
 20
1.32813
 30
0.0
 40
0.0001488
 41
0.0001488
  0
VERTEX
  8
0
 10
0.597493
 20
1.32503
 30
0.0
 40
0.0001488
 41
0.0001488
  0
VERTEX
  8
0
 10
0.589626
 20
1.32107
 30
0.0
 40
0.0001488
 41
0.0001488
  0
VERTEX
  8
0
 10
0.582194
 20
1.31624
 30
0.0
 40
0.0001488
 41
0.0001488
  0
VERTEX
  8
0
 10
0.575412
 20
1.3106
 30
0.0
 40
0.0001488
 41
0.0001488
  0
VERTEX
  8
0
 10
0.569282
 20
1.3042
 30
0.0
 40
0.0001488
 41
0.0001488
  0
VERTEX
  8
0
 10
0.567057
 20
1.30132
 30
0.0
 40
0.0001488
 41
0.0001488
  0
VERTEX
  8
0
 10
0.563911
 20
1.2972
 30
0.0
 40
0.0001488
 41
0.0001488
  0
VERTEX
  8
0
 10
0.559353
 20
1.28966
 30
0.0
 40
0.0001488
 41
0.0001488
  0
VERTEX
  8
0
 10
0.55561
 20
1.28163
 30
0.0
 40
0.0001488
 41
0.0001488
  0
VERTEX
  8
0
 10
0.552897
 20
1.27322
 30
0.0
 40
0.0001488
 41
0.0001488
  0
VERTEX
  8
0
 10
0.551053
 20
1.26459
 30
0.0
 40
0.0001488
 41
0.0001488
  0
VERTEX
  8
0
 10
0.550239
 20
1.25575
 30
0.0
 40
0.0001488
 41
0.0001488
  0
VERTEX
  8
0
 10
0.550456
 20
1.24691
 30
0.0
 40
0.0001488
 41
0.0001488
  0
VERTEX
  8
0
 10
0.551594
 20
1.23817
 30
0.0
 40
0.0001488
 41
0.0001488
  0
VERTEX
  8
0
 10
0.553711
 20
1.22955
 30
0.0
 40
0.0001488
 41
0.0001488
  0
VERTEX
  8
0
 10
0.556749
 20
1.2213
 30
0.0
 40
0.0001488
 41
0.0001488
  0
VERTEX
  8
0
 10
0.557075
 20
1.22065
 30
0.0
 40
0.0001488
 41
0.0001488
  0
VERTEX
  8
0
 10
0.560764
 20
1.21338
 30
0.0
 40
0.0001488
 41
0.0001488
  0
VERTEX
  8
0
 10
0.565593
 20
1.20605
 30
0.0
 40
0.0001488
 41
0.0001488
  0
VERTEX
  8
0
 10
0.571235
 20
1.19922
 30
0.0
 40
0.0001488
 41
0.0001488
  0
VERTEX
  8
0
 10
0.577582
 20
1.19309
 30
0.0
 40
0.0001488
 41
0.0001488
  0
VERTEX
  8
0
 10
0.584581
 20
1.18766
 30
0.0
 40
0.0001488
 41
0.0001488
  0
VERTEX
  8
0
 10
0.592176
 20
1.18316
 30
0.0
 40
0.0001488
 41
0.0001488
  0
VERTEX
  8
0
 10
0.600261
 20
1.17947
 30
0.0
 40
0.0001488
 41
0.0001488
  0
VERTEX
  8
0
 10
0.608615
 20
1.1767
 30
0.0
 40
0.0001488
 41
0.0001488
  0
VERTEX
  8
0
 10
0.613607
 20
1.17567
 30
0.0
 40
0.0001488
 41
0.0001488
  0
VERTEX
  8
0
 10
0.617296
 20
1.17491
 30
0.0
 40
0.0001488
 41
0.0001488
  0
VERTEX
  8
0
 10
0.626085
 20
1.17405
 30
0.0
 40
0.0001488
 41
0.0001488
  0
VERTEX
  8
0
 10
0.634874
 20
1.17421
 30
0.0
 40
0.0001488
 41
0.0001488
  0
VERTEX
  8
0
 10
0.643664
 20
1.17535
 30
0.0
 40
0.0001488
 41
0.0001488
  0
VERTEX
  8
0
 10
0.652235
 20
1.17752
 30
0.0
 40
0.0001488
 41
0.0001488
  0
VERTEX
  8
0
 10
0.660536
 20
1.18061
 30
0.0
 40
0.0001488
 41
0.0001488
  0
VERTEX
  8
0
 10
0.668403
 20
1.18457
 30
0.0
 40
0.0001488
 41
0.0001488
  0
VERTEX
  8
0
 10
0.675836
 20
1.1894
 30
0.0
 40
0.0001488
 41
0.0001488
  0
VERTEX
  8
0
 10
0.682617
 20
1.19504
 30
0.0
 40
0.0001488
 41
0.0001488
  0
VERTEX
  8
0
 10
0.688747
 20
1.20144
 30
0.0
 40
0.0001488
 41
0.0001488
  0
VERTEX
  8
0
 10
0.694119
 20
1.20844
 30
0.0
 40
0.0001488
 41
0.0001488
  0
VERTEX
  8
0
 10
0.694228
 20
1.20855
 30
0.0
 40
0.0001488
 41
0.0001488
  0
VERTEX
  8
0
 10
0.698676
 20
1.21598
 30
0.0
 40
0.0001488
 41
0.0001488
  0
VERTEX
  8
0
 10
0.702365
 20
1.22401
 30
0.0
 40
0.0001488
 41
0.0001488
  0
VERTEX
  8
0
 10
0.705132
 20
1.23242
 30
0.0
 40
0.0001488
 41
0.0001488
  0
VERTEX
  8
0
 10
0.706922
 20
1.24105
 30
0.0
 40
0.0001488
 41
0.0001488
  0
VERTEX
  8
0
 10
0.707736
 20
1.24989
 30
0.0
 40
0.0001488
 41
0.0001488
  0
VERTEX
  8
0
 10
0.707574
 20
1.25868
 30
0.0
 40
0.0001488
 41
0.0001488
  0
VERTEX
  8
0
 10
0.706435
 20
1.26747
 30
0.0
 40
0.0001488
 41
0.0001488
  0
VERTEX
  8
0
 10
0.704318
 20
1.27604
 30
0.0
 40
0.0001488
 41
0.0001488
  0
VERTEX
  8
0
 10
0.701281
 20
1.28434
 30
0.0
 40
0.0001488
 41
0.0001488
  0
VERTEX
  8
0
 10
0.697265
 20
1.29221
 30
0.0
 40
0.0001488
 41
0.0001488
  0
SEQEND
 8
0
  0
ENDSEC
  0
EOF
