  0
SECTION
  2
HEADER
  9
$ACADVER
  1
AC1009
  9
$EXTMAX
 10
35.8950004577637
 20
156.073364257813
 30
0.0
  9
$EXTMIN
 10
1.9928493499756
 20
1.1209490299225
 30
0.0
  9
$INSUNITS
 70
     4
  9
$LUNITS
 70
     2
  9
$LUPREC
 70
     4
  9
$MEASUREMENT
 70
     1
  0
ENDSEC
  0
SECTION
  2
TABLES
  0
TABLE
  2
LAYER
 70
     1
  0
LAYER
  2
0
 70
     0
 62
     7
  6
Continuous
  0
ENDTAB
  0
TABLE
  2
APPID
 70
     1
  0
APPID
  2
ACAD
 70
     0
  0
ENDTAB
  0
ENDSEC
  0
SECTION
  2
ENTITIES
  0
POLYLINE
  8
0
 66
     1
 10
0.0
 20
0.0
 30
0.0
 70
     1
  0
VERTEX
  8
0
 10
24.7095473957635
 20
10.0518550663841
 42
0.0
  0
VERTEX
  8
0
 10
14.1408172878494
 20
1.1209490089972
 42
0.0
  0
VERTEX
  8
0
 10
4.6549007594691
 20
12.3464720377305
 42
0.0
  0
VERTEX
  8
0
 10
6.3998336234731
 20
19.4536228894215
 42
0.0
  0
VERTEX
  8
0
 10
7.8947277780676
 20
25.5393730986755
 42
0.0
  0
VERTEX
  8
0
 10
8.8974852625551
 20
29.6198257663062
 42
0.0
  0
VERTEX
  8
0
 10
9.0254276317601
 20
30.1409605517334
 42
0.0
  0
VERTEX
  8
0
 10
8.2886257583247
 20
30.0670374266432
 42
0.0
  0
VERTEX
  8
0
 10
7.0920452966028
 20
30.0462053496388
 42
0.0
  0
VERTEX
  8
0
 10
6.6586534749081
 20
30.0786958766432
 42
0.0
  0
VERTEX
  8
0
 10
5.9988414182132
 20
30.1293568987669
 42
0.0
  0
VERTEX
  8
0
 10
5.0213298629456
 20
30.3189182045432
 42
0.0
  0
VERTEX
  8
0
 10
4.1667657277791
 20
30.6107111895556
 42
0.0
  0
VERTEX
  8
0
 10
3.4439939466136
 20
31.0048941330205
 42
0.0
  0
VERTEX
  8
0
 10
2.8613202092199
 20
31.4958489339893
 42
0.0
  0
VERTEX
  8
0
 10
2.4223706483014
 20
32.0793238221508
 42
0.0
  0
VERTEX
  8
0
 10
2.1732838043054
 20
32.6516459763424
 42
0.0
  0
VERTEX
  8
0
 10
2.1315077214024
 20
32.7480312619317
 42
0.0
  0
VERTEX
  8
0
 10
1.9928493883111
 20
33.4971374605827
 42
0.0
  0
VERTEX
  8
0
 10
2.0081961834324
 20
34.32018287262
 42
0.0
  0
VERTEX
  8
0
 10
2.1756693074488
 20
35.2066011693471
 42
0.0
  0
VERTEX
  8
0
 10
2.2184385530726
 20
35.3331944491814
 42
0.0
  0
VERTEX
  8
0
 10
2.4935625189524
 20
36.1519576287187
 42
0.0
  0
VERTEX
  8
0
 10
2.9613667597622
 20
37.1441830449116
 42
0.0
  0
VERTEX
  8
0
 10
3.5716487118439
 20
38.1726729622659
 42
0.0
  0
VERTEX
  8
0
 10
4.0433613760646
 20
38.8399803081598
 42
0.0
  0
VERTEX
  8
0
 10
4.248538679783
 20
39.1287542455799
 42
0.0
  0
VERTEX
  8
0
 10
4.3196368156147
 20
39.230402369423
 42
0.0
  0
VERTEX
  8
0
 10
5.199267494177
 20
40.3052639335963
 42
0.0
  0
VERTEX
  8
0
 10
6.2005173692312
 20
41.3877899563483
 42
0.0
  0
VERTEX
  8
0
 10
7.3138354888146
 20
42.467914322567
 42
0.0
  0
VERTEX
  8
0
 10
8.5290093475427
 20
43.5343467961376
 42
0.0
  0
VERTEX
  8
0
 10
9.835015464601
 20
44.5764420169734
 42
0.0
  0
VERTEX
  8
0
 10
10.7879530960725
 20
45.2719645101031
 42
0.0
  0
VERTEX
  8
0
 10
11.2165281526964
 20
45.5849072847439
 42
0.0
  0
VERTEX
  8
0
 10
11.7602523745592
 20
45.9469358271872
 42
0.0
  0
VERTEX
  8
0
 10
11.7599170772995
 20
45.9815695979861
 42
0.0
  0
VERTEX
  8
0
 10
11.7614967856518
 20
46.116254596711
 42
0.0
  0
VERTEX
  8
0
 10
11.7624156025031
 20
46.2666757716685
 42
0.0
  0
VERTEX
  8
0
 10
11.7886782518266
 20
48.6994791160024
 42
0.0
  0
VERTEX
  8
0
 10
11.8193363644166
 20
55.0214394603371
 42
0.0
  0
VERTEX
  8
0
 10
11.8341795903769
 20
58.1465931674976
 42
0.0
  0
VERTEX
  8
0
 10
11.8278512817768
 20
67.6869176318032
 42
0.0
  0
VERTEX
  8
0
 10
11.8193248916652
 20
68.9480349258578
 42
0.0
  0
VERTEX
  8
0
 10
11.7685872470225
 20
77.2257404634905
 42
0.0
  0
VERTEX
  8
0
 10
11.6584019751259
 20
86.6733144014427
 42
0.0
  0
VERTEX
  8
0
 10
11.4948778481902
 20
95.9364794600666
 42
0.0
  0
VERTEX
  8
0
 10
11.2879839141215
 20
104.704750214139
 42
0.0
  0
VERTEX
  8
0
 10
11.2831198581257
 20
104.930095212715
 42
0.0
  0
VERTEX
  8
0
 10
11.2365097839379
 20
106.480267996085
 42
0.0
  0
VERTEX
  8
0
 10
11.0225165845858
 20
113.563193054732
 42
0.0
  0
VERTEX
  8
0
 10
10.7189654977435
 20
121.753630035443
 42
0.0
  0
VERTEX
  8
0
 10
10.5057407326968
 20
126.478803246383
 42
0.0
  0
VERTEX
  8
0
 10
10.5034884648112
 20
127.162272947047
 42
0.0
  0
VERTEX
  8
0
 10
7.0858498636184
 20
129.396435289107
 42
0.0
  0
VERTEX
  8
0
 10
7.1706343664632
 20
134.736240984927
 42
0.0
  0
VERTEX
  8
0
 10
7.2049667130972
 20
136.964698110835
 42
0.0
  0
VERTEX
  8
0
 10
7.2227750390881
 20
138.080134400555
 42
0.0
  0
VERTEX
  8
0
 10
7.2280128626756
 20
138.425750545716
 42
0.0
  0
VERTEX
  8
0
 10
3.8782962771789
 20
149.313900954119
 42
0.0
  0
VERTEX
  8
0
 10
7.43880832552
 20
151.817177813358
 42
0.0
  0
VERTEX
  8
0
 10
10.4108893584335
 20
153.904685391146
 42
0.0
  0
VERTEX
  8
0
 10
10.4638040552787
 20
153.942416536288
 42
0.0
  0
VERTEX
  8
0
 10
13.495947996658
 20
156.073363176757
 42
0.0
  0
VERTEX
  8
0
 10
17.1414474528082
 20
153.335403467639
 42
0.0
  0
VERTEX
  8
0
 10
17.6336974875305
 20
152.966566518568
 42
0.0
  0
VERTEX
  8
0
 10
18.6942128867626
 20
152.170419249451
 42
0.0
  0
VERTEX
  8
0
 10
20.0090819043746
 20
152.971261074834
 42
0.0
  0
VERTEX
  8
0
 10
21.2317105628467
 20
152.171771040613
 42
0.0
  0
VERTEX
  8
0
 10
25.661936156044
 20
155.285278973537
 42
0.0
  0
VERTEX
  8
0
 10
26.4943293494164
 20
155.869626434005
 42
0.0
  0
VERTEX
  8
0
 10
28.3704797307902
 20
154.460474289129
 42
0.0
  0
VERTEX
  8
0
 10
28.5425936002075
 20
154.331567167316
 42
0.0
  0
VERTEX
  8
0
 10
34.6222241153502
 20
149.767741657635
 42
0.0
  0
VERTEX
  8
0
 10
35.8950005237667
 20
148.812099337246
 42
0.0
  0
VERTEX
  8
0
 10
34.1534300230508
 20
143.725000964744
 42
0.0
  0
VERTEX
  8
0
 10
33.9773011341237
 20
143.211698476111
 42
0.0
  0
VERTEX
  8
0
 10
32.3316540671196
 20
138.401859281543
 42
0.0
  0
VERTEX
  8
0
 10
32.2727467047439
 20
134.769252960277
 42
0.0
  0
VERTEX
  8
0
 10
32.2551970974319
 20
133.61612529355
 42
0.0
  0
VERTEX
  8
0
 10
32.1835504204745
 20
129.001393180588
 42
0.0
  0
VERTEX
  8
0
 10
28.6381484656807
 20
126.841100894007
 42
0.0
  0
VERTEX
  8
0
 10
28.4671194832242
 20
126.73614879964
 42
0.0
  0
VERTEX
  8
0
 10
28.446289767491
 20
126.72420028716
 42
0.0
  0
VERTEX
  8
0
 10
28.4409137745488
 20
126.668778192037
 42
0.0
  0
VERTEX
  8
0
 10
28.2687863371792
 20
122.151703297748
 42
0.0
  0
VERTEX
  8
0
 10
28.1730368702473
 20
118.973145772111
 42
0.0
  0
VERTEX
  8
0
 10
28.0215990305158
 20
113.957778673868
 42
0.0
  0
VERTEX
  8
0
 10
27.8214051791466
 20
105.323371620055
 42
0.0
  0
VERTEX
  8
0
 10
27.6723599735652
 20
96.3301412135263
 42
0.0
  0
VERTEX
  8
0
 10
27.5738642757784
 20
87.0653727484025
 42
0.0
  0
VERTEX
  8
0
 10
27.5291826490361
 20
77.6172886595102
 42
0.0
  0
VERTEX
  8
0
 10
27.5287311311783
 20
77.5883083391596
 42
0.0
  0
VERTEX
  8
0
 10
27.5296648788797
 20
75.5286555031099
 42
0.0
  0
VERTEX
  8
0
 10
27.5356748999978
 20
68.0767701877252
 42
0.0
  0
VERTEX
  8
0
 10
27.5941192229441
 20
58.5389173934349
 42
0.0
  0
VERTEX
  8
0
 10
27.6923882850722
 20
50.1640367611954
 42
0.0
  0
VERTEX
  8
0
 10
27.7060942440458
 20
49.0911931298937
 42
0.0
  0
VERTEX
  8
0
 10
27.7677585533144
 20
45.565794327921
 42
0.0
  0
VERTEX
  8
0
 10
27.8485796615892
 20
40.9504761632252
 42
0.0
  0
VERTEX
  8
0
 10
27.8055859841327
 20
40.5334489328344
 42
0.0
  0
VERTEX
  8
0
 10
27.7112459190692
 20
39.5967298063
 42
0.0
  0
VERTEX
  8
0
 10
27.5569673715963
 20
38.0843737718849
 42
0.0
  0
VERTEX
  8
0
 10
27.4040743264607
 20
36.578642249726
 42
0.0
  0
VERTEX
  8
0
 10
26.9539413675931
 20
32.1406652186285
 42
0.0
  0
SEQEND
  0
POLYLINE
  8
0
 66
     1
 10
0.0
 20
0.0
 30
0.0
 70
     1
  0
VERTEX
  8
0
 10
13.9764142663891
 20
13.6581271639398
 42
0.0
  0
VERTEX
  8
0
 10
14.1110162422644
 20
13.4795972087972
 42
0.0
  0
VERTEX
  8
0
 10
14.2655102268516
 20
13.3160143747353
 42
0.0
  0
VERTEX
  8
0
 10
14.438147820857
 20
13.1714546927046
 42
0.0
  0
VERTEX
  8
0
 10
14.6242688679609
 20
13.0473008875788
 42
0.0
  0
VERTEX
  8
0
 10
14.8238315601558
 20
12.9434843759015
 42
0.0
  0
VERTEX
  8
0
 10
15.0322367208292
 20
12.8634014211916
 42
0.0
  0
VERTEX
  8
0
 10
15.2505125896223
 20
12.8079209179657
 42
0.0
  0
VERTEX
  8
0
 10
15.3248794258106
 20
12.7967721970177
 42
0.0
  0
VERTEX
  8
0
 10
15.4737784563352
 20
12.7764434792474
 42
0.0
  0
VERTEX
  8
0
 10
15.6980804784807
 20
12.7693192220805
 42
0.0
  0
VERTEX
  8
0
 10
15.9207882035721
 20
12.7897790518361
 42
0.0
  0
VERTEX
  8
0
 10
16.1415649022899
 20
12.8338139302946
 42
0.0
  0
VERTEX
  8
0
 10
16.3554836882379
 20
12.9009184677077
 42
0.0
  0
VERTEX
  8
0
 10
16.5607739839106
 20
12.9931879448531
 42
0.0
  0
VERTEX
  8
0
 10
16.7542570731574
 20
13.1079695019845
 42
0.0
  0
VERTEX
  8
0
 10
16.9327512333159
 20
13.2425744843715
 42
0.0
  0
VERTEX
  8
0
 10
17.0963116601181
 20
13.3970162797384
 42
0.0
  0
VERTEX
  8
0
 10
17.2417596374133
 20
13.5686420283391
 42
0.0
  0
VERTEX
  8
0
 10
17.2910229789961
 20
13.6427273687757
 42
0.0
  0
VERTEX
  8
0
 10
17.365932843287
 20
13.7547794696792
 42
0.0
  0
VERTEX
  8
0
 10
17.4688282712275
 20
13.9553928087747
 42
0.0
  0
VERTEX
  8
0
 10
17.535407535231
 20
14.1307050692974
 42
0.0
  0
VERTEX
  8
0
 10
17.5480259371847
 20
14.164845609837
 42
0.0
  0
VERTEX
  8
0
 10
17.6063962482731
 20
14.3819054735814
 42
0.0
  0
VERTEX
  8
0
 10
17.6367872451066
 20
14.6042532630694
 42
0.0
  0
VERTEX
  8
0
 10
17.6429934250485
 20
14.8296417270996
 42
0.0
  0
VERTEX
  8
0
 10
17.6236528256499
 20
15.0532287279201
 42
0.0
  0
VERTEX
  8
0
 10
17.5794555955553
 20
15.2720724974964
 42
0.0
  0
VERTEX
  8
0
 10
17.5114493751533
 20
15.4870583245811
 42
0.0
  0
VERTEX
  8
0
 10
17.4200621802488
 20
15.6912651848809
 42
0.0
  0
VERTEX
  8
0
 10
17.3052776166057
 20
15.8847124791436
 42
0.0
  0
VERTEX
  8
0
 10
17.2780272146552
 20
15.9212103954647
 42
0.0
  0
VERTEX
  8
0
 10
17.1697575635054
 20
16.0643288761709
 42
0.0
  0
VERTEX
  8
0
 10
17.0161816561432
 20
16.2268252683481
 42
0.0
  0
VERTEX
  8
0
 10
16.8445917025267
 20
16.3722702391315
 42
0.0
  0
VERTEX
  8
0
 10
16.6584900561707
 20
16.4964404384935
 42
0.0
  0
VERTEX
  8
0
 10
16.4578603228391
 20
16.5993552671819
 42
0.0
  0
VERTEX
  8
0
 10
16.2494551621656
 20
16.6794382218918
 42
0.0
  0
VERTEX
  8
0
 10
16.0313416450087
 20
16.7368516542593
 42
0.0
  0
VERTEX
  8
0
 10
15.8089610670484
 20
16.7672814525887
 42
0.0
  0
VERTEX
  8
0
 10
15.584659044903
 20
16.7744057097556
 42
0.0
  0
VERTEX
  8
0
 10
15.3600183906701
 20
16.7541082316361
 42
0.0
  0
VERTEX
  8
0
 10
15.3242513272571
 20
16.7473615471903
 42
0.0
  0
VERTEX
  8
0
 10
15.1402893323411
 20
16.7109586419303
 42
0.0
  0
VERTEX
  8
0
 10
14.978490404111
 20
16.6590321985262
 42
0.0
  0
VERTEX
  8
0
 10
14.926208194757
 20
16.6419211753757
 42
0.0
  0
VERTEX
  8
0
 10
14.7219655394731
 20
16.550536986983
 42
0.0
  0
VERTEX
  8
0
 10
14.5275971614736
 20
16.4368030702405
 42
0.0
  0
VERTEX
  8
0
 10
14.3480359601783
 20
16.3012964048646
 42
0.0
  0
VERTEX
  8
0
 10
14.1855425745129
 20
16.1477562924865
 42
0.0
  0
VERTEX
  8
0
 10
14.0409798859704
 20
15.975082903497
 42
0.0
  0
VERTEX
  8
0
 10
13.9157590397078
 20
15.7880601734042
 42
0.0
  0
VERTEX
  8
0
 10
13.8912142872127
 20
15.7402500213573
 42
0.0
  0
VERTEX
  8
0
 10
13.8130259634035
 20
15.5893797634503
 42
0.0
  0
VERTEX
  8
0
 10
13.7327806570575
 20
15.3790416736353
 42
0.0
  0
VERTEX
  8
0
 10
13.6763432751106
 20
15.1618194582547
 42
0.0
  0
VERTEX
  8
0
 10
13.645952278277
 20
14.9394716687667
 42
0.0
  0
VERTEX
  8
0
 10
13.6411585836073
 20
14.7892678121292
 42
0.0
  0
VERTEX
  8
0
 10
13.6388608095825
 20
14.7151308451254
 42
0.0
  0
VERTEX
  8
0
 10
13.6580390573449
 20
14.4896109151633
 42
0.0
  0
VERTEX
  8
0
 10
13.7022362874396
 20
14.270767145587
 42
0.0
  0
VERTEX
  8
0
 10
13.7713095489783
 20
14.0566830014911
 42
0.0
  0
VERTEX
  8
0
 10
13.8626773431348
 20
13.8524597469552
 42
0.0
  0
SEQEND
  0
POLYLINE
  8
0
 66
     1
 10
0.0
 20
0.0
 30
0.0
 70
     1
  0
VERTEX
  8
0
 10
13.7480339626811
 20
20.1946629277867
 42
0.0
  0
VERTEX
  8
0
 10
13.9513833336811
 20
19.9262778900406
 42
0.0
  0
VERTEX
  8
0
 10
14.182104153515
 20
19.6809893245336
 42
0.0
  0
VERTEX
  8
0
 10
14.4397714128899
 20
19.4657540505431
 42
0.0
  0
VERTEX
  8
0
 10
14.720188537227
 20
19.2769593230902
 42
0.0
  0
VERTEX
  8
0
 10
15.0192731867828
 20
19.1237255966385
 42
0.0
  0
VERTEX
  8
0
 10
15.3337944561866
 20
19.0034224187013
 42
0.0
  0
VERTEX
  8
0
 10
15.4725571144231
 20
18.9673452028821
 42
0.0
  0
VERTEX
  8
0
 10
15.6602693926714
 20
18.9202895335426
 42
0.0
  0
VERTEX
  8
0
 10
15.9926562476729
 20
18.8727796950006
 42
0.0
  0
VERTEX
  8
0
 10
16.3300981527216
 20
18.8620643226526
 42
0.0
  0
VERTEX
  8
0
 10
16.6660121745207
 20
18.8915260632448
 42
0.0
  0
VERTEX
  8
0
 10
16.9951631176378
 20
18.9567742679979
 42
0.0
  0
VERTEX
  8
0
 10
17.3157640103314
 20
19.0599236184376
 42
0.0
  0
VERTEX
  8
0
 10
17.6235824830383
 20
19.1973643760967
 42
0.0
  0
VERTEX
  8
0
 10
17.8488828656305
 20
19.330020597759
 42
0.0
  0
VERTEX
  8
0
 10
17.9137244378346
 20
19.368552349731
 42
0.0
  0
VERTEX
  8
0
 10
18.1830305593175
 20
19.5708510738303
 42
0.0
  0
VERTEX
  8
0
 10
18.4273980410877
 20
19.8026225405648
 42
0.0
  0
VERTEX
  8
0
 10
18.6445856449677
 20
20.0601438425398
 42
0.0
  0
VERTEX
  8
0
 10
18.831447443279
 20
20.340723318513
 42
0.0
  0
VERTEX
  8
0
 10
18.9855634519717
 20
20.6387245326959
 42
0.0
  0
VERTEX
  8
0
 10
19.1058502356727
 20
20.9532652028476
 42
0.0
  0
VERTEX
  8
0
 10
19.1176975837094
 20
21.0011865832186
 42
0.0
  0
VERTEX
  8
0
 10
19.1898848038202
 20
21.2786730981956
 42
0.0
  0
VERTEX
  8
0
 10
19.2356076706207
 20
21.6131746347227
 42
0.0
  0
VERTEX
  8
0
 10
19.2452754025799
 20
21.9497312510187
 42
0.0
  0
VERTEX
  8
0
 10
19.2166989507404
 20
22.284597632429
 42
0.0
  0
VERTEX
  8
0
 10
19.1516130976234
 20
22.6156815046877
 42
0.0
  0
VERTEX
  8
0
 10
19.0493490359363
 20
22.9352347569924
 42
0.0
  0
VERTEX
  8
0
 10
18.9110229895246
 20
23.2441008700881
 42
0.0
  0
VERTEX
  8
0
 10
18.7407366988792
 20
23.5331757837476
 42
0.0
  0
VERTEX
  8
0
 10
18.5384379747799
 20
23.8024819052305
 42
0.0
  0
VERTEX
  8
0
 10
18.3066665080453
 20
24.0468493870008
 42
0.0
  0
VERTEX
  8
0
 10
18.0491452060704
 20
24.2640369908808
 42
0.0
  0
VERTEX
  8
0
 10
17.8167905102245
 20
24.4194882081355
 42
0.0
  0
VERTEX
  8
0
 10
17.769467413086
 20
24.4498317480553
 42
0.0
  0
VERTEX
  8
0
 10
17.4705481216781
 20
24.6050341986327
 42
0.0
  0
VERTEX
  8
0
 10
17.1549598111375
 20
24.724435693581
 42
0.0
  0
VERTEX
  8
0
 10
16.8286666270368
 20
24.8095179021174
 42
0.0
  0
VERTEX
  8
0
 10
16.4952127308986
 20
24.8561260576705
 42
0.0
  0
VERTEX
  8
0
 10
16.1595577975914
 20
24.8647267484929
 42
0.0
  0
VERTEX
  8
0
 10
15.8729995454399
 20
24.8409244136019
 42
0.0
  0
VERTEX
  8
0
 10
15.8237897331923
 20
24.8372173377902
 42
0.0
  0
VERTEX
  8
0
 10
15.4936075439225
 20
24.7710644435364
 42
0.0
  0
VERTEX
  8
0
 10
15.1731720093769
 20
24.6698838172223
 42
0.0
  0
VERTEX
  8
0
 10
14.8662388254227
 20
24.5313954191744
 42
0.0
  0
VERTEX
  8
0
 10
14.5760968706264
 20
24.3602074455402
 42
0.0
  0
VERTEX
  8
0
 10
14.3068265441276
 20
24.1579057149291
 42
0.0
  0
VERTEX
  8
0
 10
14.0624232673732
 20
23.9261372547063
 42
0.0
  0
VERTEX
  8
0
 10
14.0136152581346
 20
23.8686315712473
 42
0.0
  0
VERTEX
  8
0
 10
13.8452356634932
 20
23.6686159527314
 42
0.0
  0
VERTEX
  8
0
 10
13.6574885764292
 20
23.389084117147
 42
0.0
  0
VERTEX
  8
0
 10
13.5032072095886
 20
23.0891141788385
 42
0.0
  0
VERTEX
  8
0
 10
13.3839516720403
 20
22.7754781981874
 42
0.0
  0
VERTEX
  8
0
 10
13.2997711464928
 20
22.4481179729499
 42
0.0
  0
VERTEX
  8
0
 10
13.2522613079508
 20
22.1157311179484
 42
0.0
  0
VERTEX
  8
0
 10
13.2436606171284
 20
21.7800761846413
 42
0.0
  0
VERTEX
  8
0
 10
13.2596303289439
 20
21.5860969615527
 42
0.0
  0
VERTEX
  8
0
 10
13.2720553165838
 20
21.4432604798533
 42
0.0
  0
VERTEX
  8
0
 10
13.3382082108376
 20
21.1130782905835
 42
0.0
  0
VERTEX
  8
0
 10
13.4403069143767
 20
20.7915563141531
 42
0.0
  0
VERTEX
  8
0
 10
13.4633984773359
 20
20.7407363732683
 42
0.0
  0
VERTEX
  8
0
 10
13.5778936294357
 20
20.4856901713357
 42
0.0
  0
SEQEND
  0
POLYLINE
  8
0
 66
     1
 10
0.0
 20
0.0
 30
0.0
 70
     1
  0
VERTEX
  8
0
 10
15.0681531248833
 20
145.893246862294
 42
0.0
  0
VERTEX
  8
0
 10
14.9474722668207
 20
146.029369197409
 42
0.0
  0
VERTEX
  8
0
 10
14.2932169875914
 20
146.703257486769
 42
0.0
  0
VERTEX
  8
0
 10
14.0130979985638
 20
146.96469895057
 42
0.0
  0
VERTEX
  8
0
 10
13.8522581333526
 20
147.090496289567
 42
0.0
  0
VERTEX
  8
0
 10
13.7157475310405
 20
147.196947347713
 42
0.0
  0
VERTEX
  8
0
 10
13.6303324784604
 20
147.250803099019
 42
0.0
  0
VERTEX
  8
0
 10
13.4074090115353
 20
147.390646637297
 42
0.0
  0
VERTEX
  8
0
 10
13.0943752115974
 20
147.543465897996
 42
0.0
  0
VERTEX
  8
0
 10
12.787562185592
 20
147.652325412111
 42
0.0
  0
VERTEX
  8
0
 10
12.4904564050031
 20
147.711525215731
 42
0.0
  0
VERTEX
  8
0
 10
12.2138428785247
 20
147.722863011689
 42
0.0
  0
VERTEX
  8
0
 10
12.0403291503712
 20
147.695621761089
 42
0.0
  0
VERTEX
  8
0
 10
11.9631345356625
 20
147.684262016374
 42
0.0
  0
VERTEX
  8
0
 10
11.7444165237141
 20
147.595211122783
 42
0.0
  0
VERTEX
  8
0
 10
11.5640610243823
 20
147.460762479009
 42
0.0
  0
VERTEX
  8
0
 10
11.5076757633073
 20
147.407461931568
 42
0.0
  0
VERTEX
  8
0
 10
11.1712384782711
 20
147.079931244435
 42
0.0
  0
VERTEX
  8
0
 10
11.0529801974258
 20
146.929452644696
 42
0.0
  0
VERTEX
  8
0
 10
11.0310216239885
 20
146.901918281573
 42
0.0
  0
VERTEX
  8
0
 10
10.9377336765347
 20
146.686078982279
 42
0.0
  0
VERTEX
  8
0
 10
10.8911233297674
 20
146.435858967719
 42
0.0
  0
VERTEX
  8
0
 10
10.8945079907546
 20
146.160712427777
 42
0.0
  0
VERTEX
  8
0
 10
10.9422920488016
 20
145.879854056542
 42
0.0
  0
VERTEX
  8
0
 10
10.9465460554855
 20
145.861833472447
 42
0.0
  0
VERTEX
  8
0
 10
11.0348414073768
 20
145.582619105793
 42
0.0
  0
VERTEX
  8
0
 10
11.0433851490077
 20
145.555586813863
 42
0.0
  0
VERTEX
  8
0
 10
11.0448441819169
 20
145.551499040023
 42
0.0
  0
VERTEX
  8
0
 10
11.1893314546135
 20
145.235302450717
 42
0.0
  0
VERTEX
  8
0
 10
11.3452934843223
 20
144.972033092847
 42
0.0
  0
VERTEX
  8
0
 10
11.3747617180035
 20
144.919451943871
 42
0.0
  0
VERTEX
  8
0
 10
11.596921815721
 20
144.616016833526
 42
0.0
  0
VERTEX
  8
0
 10
11.8517131887256
 20
144.329847306667
 42
0.0
  0
VERTEX
  8
0
 10
12.5069385053521
 20
143.656778729115
 42
0.0
  0
VERTEX
  8
0
 10
12.7226769502119
 20
143.454996251567
 42
0.0
  0
VERTEX
  8
0
 10
12.7861175221003
 20
143.394875503347
 42
0.0
  0
VERTEX
  8
0
 10
13.0834679896236
 20
143.162627106204
 42
0.0
  0
VERTEX
  8
0
 10
13.3165150326508
 20
143.016706374256
 42
0.0
  0
VERTEX
  8
0
 10
13.3927464814081
 20
142.969389578587
 42
0.0
  0
VERTEX
  8
0
 10
13.6182691652374
 20
142.858345969953
 42
0.0
  0
VERTEX
  8
0
 10
13.7046463015873
 20
142.81594461356
 42
0.0
  0
VERTEX
  8
0
 10
13.784454958273
 20
142.787612776238
 42
0.0
  0
VERTEX
  8
0
 10
14.0122353575104
 20
142.707740868891
 42
0.0
  0
VERTEX
  8
0
 10
14.2538180624224
 20
142.659152428585
 42
0.0
  0
VERTEX
  8
0
 10
14.3085651081816
 20
142.647885295825
 42
0.0
  0
VERTEX
  8
0
 10
14.3737584927115
 20
142.64511310075
 42
0.0
  0
VERTEX
  8
0
 10
14.585328960249
 20
142.638337249072
 42
0.0
  0
VERTEX
  8
0
 10
14.8360373031112
 20
142.676938244387
 42
0.0
  0
VERTEX
  8
0
 10
15.0557690343472
 20
142.765183042942
 42
0.0
  0
VERTEX
  8
0
 10
15.091135694264
 20
142.791410989227
 42
0.0
  0
VERTEX
  8
0
 10
15.2359305261995
 20
142.899467744355
 42
0.0
  0
VERTEX
  8
0
 10
15.2806452733916
 20
142.942573800258
 42
0.0
  0
VERTEX
  8
0
 10
15.3063909694912
 20
142.96798769788
 42
0.0
  0
VERTEX
  8
0
 10
15.6287530723107
 20
143.280298978928
 42
0.0
  0
VERTEX
  8
0
 10
15.7681201496675
 20
143.458924029347
 42
0.0
  0
VERTEX
  8
0
 10
15.8020288588566
 20
143.536461894942
 42
0.0
  0
VERTEX
  8
0
 10
15.8626158238881
 20
143.674121175967
 42
0.0
  0
VERTEX
  8
0
 10
15.9080921908967
 20
143.923715486198
 42
0.0
  0
VERTEX
  8
0
 10
15.904693913137
 20
144.200845782825
 42
0.0
  0
VERTEX
  8
0
 10
15.8532514876169
 20
144.498232808555
 42
0.0
  0
VERTEX
  8
0
 10
15.7568140258261
 20
144.802823595177
 42
0.0
  0
VERTEX
  8
0
 10
15.7533576194597
 20
144.80888150893
 42
0.0
  0
VERTEX
  8
0
 10
15.7343380150311
 20
144.850671986067
 42
0.0
  0
VERTEX
  8
0
 10
15.6106600959683
 20
145.124927772647
 42
0.0
  0
VERTEX
  8
0
 10
15.4240657877018
 20
145.439794625323
 42
0.0
  0
VERTEX
  8
0
 10
15.2888138804646
 20
145.623461868578
 42
0.0
  0
VERTEX
  8
0
 10
15.2010859781763
 20
145.744199773066
 42
0.0
  0
SEQEND
  0
POLYLINE
  8
0
 66
     1
 10
0.0
 20
0.0
 30
0.0
 70
     1
  0
VERTEX
  8
0
 10
16.6081126005896
 20
141.434235481043
 42
0.0
  0
VERTEX
  8
0
 10
16.4754183561139
 20
141.264242077126
 42
0.0
  0
VERTEX
  8
0
 10
16.2628140594273
 20
140.990474907702
 42
0.0
  0
VERTEX
  8
0
 10
15.9842927771393
 20
140.502714945762
 42
0.0
  0
VERTEX
  8
0
 10
15.77424035395
 20
139.980366103212
 42
0.0
  0
VERTEX
  8
0
 10
15.6412396324169
 20
139.433341500333
 42
0.0
  0
VERTEX
  8
0
 10
15.632581419579
 20
139.353863018852
 42
0.0
  0
VERTEX
  8
0
 10
15.5844192652142
 20
138.874871664468
 42
0.0
  0
VERTEX
  8
0
 10
15.6067823914593
 20
138.312815043775
 42
0.0
  0
VERTEX
  8
0
 10
15.7051460224187
 20
137.760776563786
 42
0.0
  0
VERTEX
  8
0
 10
15.881155244854
 20
137.225467076127
 42
0.0
  0
VERTEX
  8
0
 10
15.9318288007551
 20
137.120638326043
 42
0.0
  0
VERTEX
  8
0
 10
15.9846500557023
 20
137.015629185251
 42
0.0
  0
VERTEX
  8
0
 10
16.1291214211444
 20
136.720701962155
 42
0.0
  0
VERTEX
  8
0
 10
16.4448886935868
 20
136.254940972382
 42
0.0
  0
VERTEX
  8
0
 10
16.8226180989715
 20
135.84020973896
 42
0.0
  0
VERTEX
  8
0
 10
16.9652354189808
 20
135.720629134022
 42
0.0
  0
VERTEX
  8
0
 10
17.2538691667029
 20
135.479019573921
 42
0.0
  0
VERTEX
  8
0
 10
17.7316990189304
 20
135.18312835493
 42
0.0
  0
VERTEX
  8
0
 10
17.9524429723004
 20
135.086003939778
 42
0.0
  0
VERTEX
  8
0
 10
18.2478175106475
 20
134.956837143223
 42
0.0
  0
VERTEX
  8
0
 10
18.3469418419761
 20
134.928865546224
 42
0.0
  0
VERTEX
  8
0
 10
18.7099450393955
 20
134.825920491718
 42
0.0
  0
VERTEX
  8
0
 10
18.7869530591612
 20
134.802870538231
 42
0.0
  0
VERTEX
  8
0
 10
19.3441573285056
 20
134.726690814495
 42
0.0
  0
VERTEX
  8
0
 10
19.5416230897993
 20
134.727948679626
 42
0.0
  0
VERTEX
  8
0
 10
19.9075578436909
 20
134.728574221221
 42
0.0
  0
VERTEX
  8
0
 10
20.4636563228843
 20
134.808753325723
 42
0.0
  0
VERTEX
  8
0
 10
21.002711541797
 20
134.964982279976
 42
0.0
  0
VERTEX
  8
0
 10
21.516176386135
 20
135.196356839963
 42
0.0
  0
VERTEX
  8
0
 10
21.9929487476809
 20
135.495158097915
 42
0.0
  0
VERTEX
  8
0
 10
22.4222872996314
 20
135.857962544157
 42
0.0
  0
VERTEX
  8
0
 10
22.7960437278509
 20
136.277884599501
 42
0.0
  0
VERTEX
  8
0
 10
23.1090507458307
 20
136.744904499972
 42
0.0
  0
VERTEX
  8
0
 10
23.1421176317212
 20
136.812419770019
 42
0.0
  0
VERTEX
  8
0
 10
23.3541737587226
 20
137.251330571345
 42
0.0
  0
VERTEX
  8
0
 10
23.525991342303
 20
137.786263207602
 42
0.0
  0
VERTEX
  8
0
 10
23.6206641973011
 20
138.340472291456
 42
0.0
  0
VERTEX
  8
0
 10
23.6392741268673
 20
138.90323294445
 42
0.0
  0
VERTEX
  8
0
 10
23.6305567398565
 20
138.983990609223
 42
0.0
  0
VERTEX
  8
0
 10
23.5927668355126
 20
139.334482425524
 42
0.0
  0
VERTEX
  8
0
 10
23.5789490375555
 20
139.461809297894
 42
0.0
  0
VERTEX
  8
0
 10
23.4407571157433
 20
140.007460230017
 42
0.0
  0
VERTEX
  8
0
 10
23.2283294953586
 20
140.52762459969
 42
0.0
  0
VERTEX
  8
0
 10
22.9454941493814
 20
141.01423067136
 42
0.0
  0
VERTEX
  8
0
 10
22.7787596455699
 20
141.226496424242
 42
0.0
  0
VERTEX
  8
0
 10
22.5982239182653
 20
141.454700855555
 42
0.0
  0
VERTEX
  8
0
 10
22.191855152935
 20
141.843900762456
 42
0.0
  0
VERTEX
  8
0
 10
21.7366889886269
 20
142.173575434229
 42
0.0
  0
VERTEX
  8
0
 10
21.5491770718094
 20
142.271513356953
 42
0.0
  0
VERTEX
  8
0
 10
21.2624976828638
 20
142.422659756254
 42
0.0
  0
VERTEX
  8
0
 10
21.2384333428795
 20
142.436576659255
 42
0.0
  0
VERTEX
  8
0
 10
20.7105371524902
 20
142.62564675064
 42
0.0
  0
VERTEX
  8
0
 10
20.1598916597918
 20
142.74128832067
 42
0.0
  0
VERTEX
  8
0
 10
19.5987982050504
 20
142.777601734808
 42
0.0
  0
VERTEX
  8
0
 10
19.0370581427902
 20
142.737548740763
 42
0.0
  0
VERTEX
  8
0
 10
18.4883473139784
 20
142.618719007057
 42
0.0
  0
VERTEX
  8
0
 10
18.2954895954554
 20
142.547862884032
 42
0.0
  0
VERTEX
  8
0
 10
17.9596034744111
 20
142.42431480234
 42
0.0
  0
VERTEX
  8
0
 10
17.6553718459299
 20
142.261339520436
 42
0.0
  0
VERTEX
  8
0
 10
17.464655622217
 20
142.158041007549
 42
0.0
  0
VERTEX
  8
0
 10
17.0105481568909
 20
141.826515447384
 42
0.0
  0
SEQEND
  0
POLYLINE
  8
0
 66
     1
 10
0.0
 20
0.0
 30
0.0
 70
     1
  0
VERTEX
  8
0
 10
15.5321013548549
 20
132.685583038147
 42
0.0
  0
VERTEX
  8
0
 10
15.5875999024404
 20
132.796994551878
 42
0.0
  0
VERTEX
  8
0
 10
15.6519041568801
 20
132.985348833085
 42
0.0
  0
VERTEX
  8
0
 10
15.6925083515317
 20
133.106122050864
 42
0.0
  0
VERTEX
  8
0
 10
15.7484752802922
 20
133.386196564672
 42
0.0
  0
VERTEX
  8
0
 10
15.7517217719246
 20
133.401244074768
 42
0.0
  0
VERTEX
  8
0
 10
15.7622699211924
 20
133.679185588485
 42
0.0
  0
VERTEX
  8
0
 10
15.7235049835158
 20
133.930087938826
 42
0.0
  0
VERTEX
  8
0
 10
15.6381975306969
 20
134.148311292117
 42
0.0
  0
VERTEX
  8
0
 10
15.57507176785
 20
134.233638854798
 42
0.0
  0
VERTEX
  8
0
 10
15.5058965859687
 20
134.328486400742
 42
0.0
  0
VERTEX
  8
0
 10
15.2193599839567
 20
134.629398205554
 42
0.0
  0
VERTEX
  8
0
 10
15.1301367794052
 20
134.721603934886
 42
0.0
  0
VERTEX
  8
0
 10
14.9567170342404
 20
134.860714042955
 42
0.0
  0
VERTEX
  8
0
 10
14.8077400671192
 20
134.926036597646
 42
0.0
  0
VERTEX
  8
0
 10
14.7439954713894
 20
134.95464131151
 42
0.0
  0
VERTEX
  8
0
 10
14.49735495524
 20
135.000951007099
 42
0.0
  0
VERTEX
  8
0
 10
14.2274738507875
 20
134.998025276506
 42
0.0
  0
VERTEX
  8
0
 10
13.9869055323726
 20
134.955688794047
 42
0.0
  0
VERTEX
  8
0
 10
13.933502381106
 20
134.946476207288
 42
0.0
  0
VERTEX
  8
0
 10
13.7213153711675
 20
134.877243600625
 42
0.0
  0
VERTEX
  8
0
 10
13.6539737465007
 20
134.856585113671
 42
0.0
  0
VERTEX
  8
0
 10
13.628925211256
 20
134.848054988812
 42
0.0
  0
VERTEX
  8
0
 10
13.31729177453
 20
134.702103020061
 42
0.0
  0
VERTEX
  8
0
 10
13.0084663872604
 20
134.516623411635
 42
0.0
  0
VERTEX
  8
0
 10
12.7101764519334
 20
134.293490444948
 42
0.0
  0
VERTEX
  8
0
 10
12.4275728067126
 20
134.04038217745
 42
0.0
  0
VERTEX
  8
0
 10
12.2379339313051
 20
133.851200104689
 42
0.0
  0
VERTEX
  8
0
 10
11.7666609069831
 20
133.386118403503
 42
0.0
  0
VERTEX
  8
0
 10
11.5094711593844
 20
133.107264439905
 42
0.0
  0
VERTEX
  8
0
 10
11.4606408637161
 20
133.043055791726
 42
0.0
  0
VERTEX
  8
0
 10
11.2818159799387
 20
132.808807226168
 42
0.0
  0
VERTEX
  8
0
 10
11.0915021812857
 20
132.500004113123
 42
0.0
  0
VERTEX
  8
0
 10
10.9484190228212
 20
132.204176307527
 42
0.0
  0
VERTEX
  8
0
 10
10.9413689601812
 20
132.188907556407
 42
0.0
  0
VERTEX
  8
0
 10
10.8543046182325
 20
131.933433973739
 42
0.0
  0
VERTEX
  8
0
 10
10.8469238392966
 20
131.914227774368
 42
0.0
  0
VERTEX
  8
0
 10
10.8349685814902
 20
131.87918441821
 42
0.0
  0
VERTEX
  8
0
 10
10.7762770532999
 20
131.583838321709
 42
0.0
  0
VERTEX
  8
0
 10
10.7655649616705
 20
131.306090815472
 42
0.0
  0
VERTEX
  8
0
 10
10.8051660595004
 20
131.056560134258
 42
0.0
  0
VERTEX
  8
0
 10
10.8204286063846
 20
131.017248072463
 42
0.0
  0
VERTEX
  8
0
 10
10.8894734098044
 20
130.837159119318
 42
0.0
  0
VERTEX
  8
0
 10
11.0219382968942
 20
130.656790003214
 42
0.0
  0
VERTEX
  8
0
 10
11.3435613958634
 20
130.318686061017
 42
0.0
  0
VERTEX
  8
0
 10
11.3978620458193
 20
130.263478461591
 42
0.0
  0
VERTEX
  8
0
 10
11.5709539062609
 20
130.12475636848
 42
0.0
  0
VERTEX
  8
0
 10
11.7840033538352
 20
130.030441084967
 42
0.0
  0
VERTEX
  8
0
 10
12.0304799276229
 20
129.984325396857
 42
0.0
  0
VERTEX
  8
0
 10
12.3016890193135
 20
129.98804077414
 42
0.0
  0
VERTEX
  8
0
 10
12.5941384942775
 20
130.038636254307
 42
0.0
  0
VERTEX
  8
0
 10
12.7381777845136
 20
130.086196654728
 42
0.0
  0
VERTEX
  8
0
 10
12.8997157666423
 20
130.138235134431
 42
0.0
  0
VERTEX
  8
0
 10
13.2103791659713
 20
130.283367391374
 42
0.0
  0
VERTEX
  8
0
 10
13.5201882074105
 20
130.467682954924
 42
0.0
  0
VERTEX
  8
0
 10
13.8176584309295
 20
130.691785959008
 42
0.0
  0
VERTEX
  8
0
 10
14.0998740611914
 20
130.944566341783
 42
0.0
  0
VERTEX
  8
0
 10
14.4232856115616
 20
131.265080404056
 42
0.0
  0
VERTEX
  8
0
 10
14.7611739758798
 20
131.599158000453
 42
0.0
  0
VERTEX
  8
0
 10
15.0185276658401
 20
131.877817956572
 42
0.0
  0
VERTEX
  8
0
 10
15.2458549605626
 20
132.176663185267
 42
0.0
  0
VERTEX
  8
0
 10
15.4328842488381
 20
132.48069552148
 42
0.0
  0
VERTEX
  8
0
 10
15.4357807442567
 20
132.485138413589
 42
0.0
  0
SEQEND
  0
POLYLINE
  8
0
 66
     1
 10
0.0
 20
0.0
 30
0.0
 70
     1
  0
VERTEX
  8
0
 10
23.5929069291976
 20
134.239696019973
 42
0.0
  0
VERTEX
  8
0
 10
23.5706533677275
 20
134.21723308486
 42
0.0
  0
VERTEX
  8
0
 10
23.5498452223942
 20
134.192666132591
 42
0.0
  0
VERTEX
  8
0
 10
23.4317809490283
 20
134.042351475213
 42
0.0
  0
VERTEX
  8
0
 10
23.3366459537064
 20
133.830272065036
 42
0.0
  0
VERTEX
  8
0
 10
23.290516648824
 20
133.585779247933
 42
0.0
  0
VERTEX
  8
0
 10
23.2928363699779
 20
133.461040266176
 42
0.0
  0
VERTEX
  8
0
 10
23.2942456428796
 20
133.312586399558
 42
0.0
  0
VERTEX
  8
0
 10
23.3458111604436
 20
133.020956636402
 42
0.0
  0
VERTEX
  8
0
 10
23.4171557378898
 20
132.799580359495
 42
0.0
  0
VERTEX
  8
0
 10
23.4265328081012
 20
132.769594273484
 42
0.0
  0
VERTEX
  8
0
 10
23.4434126671109
 20
132.717349503949
 42
0.0
  0
VERTEX
  8
0
 10
23.4440519882121
 20
132.714231767506
 42
0.0
  0
VERTEX
  8
0
 10
23.5885585408266
 20
132.404702347935
 42
0.0
  0
VERTEX
  8
0
 10
23.7756338909781
 20
132.095562692715
 42
0.0
  0
VERTEX
  8
0
 10
23.9979908277476
 20
131.796616987942
 42
0.0
  0
VERTEX
  8
0
 10
24.1330413149689
 20
131.647031558166
 42
0.0
  0
VERTEX
  8
0
 10
24.2519051902812
 20
131.515027062008
 42
0.0
  0
VERTEX
  8
0
 10
24.9055131947821
 20
130.854891192197
 42
0.0
  0
VERTEX
  8
0
 10
25.1859765168781
 20
130.595403419963
 42
0.0
  0
VERTEX
  8
0
 10
25.4836440839247
 20
130.369076227755
 42
0.0
  0
VERTEX
  8
0
 10
25.6619746874013
 20
130.258391651144
 42
0.0
  0
VERTEX
  8
0
 10
25.7932969738956
 20
130.178150341546
 42
0.0
  0
VERTEX
  8
0
 10
25.8844012051871
 20
130.134090281619
 42
0.0
  0
VERTEX
  8
0
 10
26.1043634654941
 20
130.0276591706
 42
0.0
  0
VERTEX
  8
0
 10
26.4122968544857
 20
129.921409117499
 42
0.0
  0
VERTEX
  8
0
 10
26.4336235193583
 20
129.917815461225
 42
0.0
  0
VERTEX
  8
0
 10
26.5094731573928
 20
129.902432779988
 42
0.0
  0
VERTEX
  8
0
 10
26.7086129883843
 20
129.863537301116
 42
0.0
  0
VERTEX
  8
0
 10
26.9842127955752
 20
129.853005600194
 42
0.0
  0
VERTEX
  8
0
 10
27.1475672193635
 20
129.877315168203
 42
0.0
  0
VERTEX
  8
0
 10
27.1970465391514
 20
129.884874714574
 42
0.0
  0
VERTEX
  8
0
 10
27.235904792607
 20
129.890442550632
 42
0.0
  0
VERTEX
  8
0
 10
27.4544724789665
 20
129.977703695018
 42
0.0
  0
VERTEX
  8
0
 10
27.6356613068789
 20
130.109198544711
 42
0.0
  0
VERTEX
  8
0
 10
27.9993169376965
 20
130.45607159894
 42
0.0
  0
VERTEX
  8
0
 10
28.0291367908638
 20
130.484928286156
 42
0.0
  0
VERTEX
  8
0
 10
28.1526332736534
 20
130.639833329659
 42
0.0
  0
VERTEX
  8
0
 10
28.167858883974
 20
130.658020146598
 42
0.0
  0
VERTEX
  8
0
 10
28.2269539194058
 20
130.795083788412
 42
0.0
  0
VERTEX
  8
0
 10
28.2618162176468
 20
130.87109965929
 42
0.0
  0
VERTEX
  8
0
 10
28.3079455225292
 20
131.115592476393
 42
0.0
  0
VERTEX
  8
0
 10
28.3045744783146
 20
131.388755259651
 42
0.0
  0
VERTEX
  8
0
 10
28.2536511134245
 20
131.681592749573
 42
0.0
  0
VERTEX
  8
0
 10
28.1542161756617
 20
131.986976014459
 42
0.0
  0
VERTEX
  8
0
 10
28.1176496164862
 20
132.064485438209
 42
0.0
  0
VERTEX
  8
0
 10
28.0088899112392
 20
132.297475471426
 42
0.0
  0
VERTEX
  8
0
 10
27.8245879644625
 20
132.605300756181
 42
0.0
  0
VERTEX
  8
0
 10
27.6016490052547
 20
132.903754633869
 42
0.0
  0
VERTEX
  8
0
 10
27.3463930387104
 20
133.186538669797
 42
0.0
  0
VERTEX
  8
0
 10
26.7127587687807
 20
133.826973140489
 42
0.0
  0
VERTEX
  8
0
 10
26.6921593298809
 20
133.847808519368
 42
0.0
  0
VERTEX
  8
0
 10
26.4134693086448
 20
134.104804259487
 42
0.0
  0
VERTEX
  8
0
 10
26.3583841340532
 20
134.146379699836
 42
0.0
  0
VERTEX
  8
0
 10
26.1854369360553
 20
134.278240615731
 42
0.0
  0
VERTEX
  8
0
 10
26.1146240799491
 20
134.332131554209
 42
0.0
  0
VERTEX
  8
0
 10
25.8069850117806
 20
134.523429007032
 42
0.0
  0
VERTEX
  8
0
 10
25.7424070874702
 20
134.554987514978
 42
0.0
  0
VERTEX
  8
0
 10
25.4942927133386
 20
134.673876496087
 42
0.0
  0
VERTEX
  8
0
 10
25.2127080721939
 20
134.769802761371
 42
0.0
  0
VERTEX
  8
0
 10
25.1863292592292
 20
134.779768599348
 42
0.0
  0
VERTEX
  8
0
 10
25.1553243318763
 20
134.786157770487
 42
0.0
  0
VERTEX
  8
0
 10
24.8900431904484
 20
134.837998365571
 42
0.0
  0
VERTEX
  8
0
 10
24.8072801985903
 20
134.841885801577
 42
0.0
  0
VERTEX
  8
0
 10
24.6132657216084
 20
134.849530169009
 42
0.0
  0
VERTEX
  8
0
 10
24.3625273136284
 20
134.810571223853
 42
0.0
  0
VERTEX
  8
0
 10
24.3340167088721
 20
134.799448086326
 42
0.0
  0
VERTEX
  8
0
 10
24.1431699805787
 20
134.724638066705
 42
0.0
  0
VERTEX
  8
0
 10
23.9628008644744
 20
134.592173179615
 42
0.0
  0
SEQEND
  0
POLYLINE
  8
0
 66
     1
 10
0.0
 20
0.0
 30
0.0
 70
     1
  0
VERTEX
  8
0
 10
23.905784878725
 20
144.694229752554
 42
0.0
  0
VERTEX
  8
0
 10
23.8264076300356
 20
144.470192794088
 42
0.0
  0
VERTEX
  8
0
 10
23.7969253646099
 20
144.387416726548
 42
0.0
  0
VERTEX
  8
0
 10
23.7377255609895
 20
144.09031094596
 42
0.0
  0
VERTEX
  8
0
 10
23.7269975621057
 20
143.833832805932
 42
0.0
  0
VERTEX
  8
0
 10
23.7263576999137
 20
143.81333946964
 42
0.0
  0
VERTEX
  8
0
 10
23.731778041956
 20
143.777016930189
 42
0.0
  0
VERTEX
  8
0
 10
23.7647947528671
 20
143.562825134257
 42
0.0
  0
VERTEX
  8
0
 10
23.8542035962989
 20
143.344077057191
 42
0.0
  0
VERTEX
  8
0
 10
23.9873242528351
 20
143.162931911169
 42
0.0
  0
VERTEX
  8
0
 10
24.3681554874086
 20
142.770109365058
 42
0.0
  0
VERTEX
  8
0
 10
24.4268473939556
 20
142.724265760162
 42
0.0
  0
VERTEX
  8
0
 10
24.491069658907
 20
142.673451707809
 42
0.0
  0
VERTEX
  8
0
 10
24.5469745453066
 20
142.630906230063
 42
0.0
  0
VERTEX
  8
0
 10
24.7631417293241
 20
142.53723026765
 42
0.0
  0
VERTEX
  8
0
 10
25.0133918090016
 20
142.490977870724
 42
0.0
  0
VERTEX
  8
0
 10
25.0710546300974
 20
142.490820799808
 42
0.0
  0
VERTEX
  8
0
 10
25.2885383489435
 20
142.494362531711
 42
0.0
  0
VERTEX
  8
0
 10
25.5874173042733
 20
142.546400596442
 42
0.0
  0
VERTEX
  8
0
 10
25.8977517366976
 20
142.644698722873
 42
0.0
  0
VERTEX
  8
0
 10
25.9760508071379
 20
142.679937294811
 42
0.0
  0
VERTEX
  8
0
 10
26.2139483260035
 20
142.78918599557
 42
0.0
  0
VERTEX
  8
0
 10
26.5288151786802
 20
142.975780303837
 42
0.0
  0
VERTEX
  8
0
 10
26.832875993354
 20
143.196806421795
 42
0.0
  0
VERTEX
  8
0
 10
27.118389750766
 20
143.452373824718
 42
0.0
  0
VERTEX
  8
0
 10
27.7434891358662
 20
144.06008025845
 42
0.0
  0
VERTEX
  8
0
 10
27.792278040126
 20
144.106629103947
 42
0.0
  0
VERTEX
  8
0
 10
28.0532112284966
 20
144.384988408887
 42
0.0
  0
VERTEX
  8
0
 10
28.0863212551867
 20
144.427266799355
 42
0.0
  0
VERTEX
  8
0
 10
28.2848038561935
 20
144.683114906328
 42
0.0
  0
VERTEX
  8
0
 10
28.4043855433131
 20
144.872954371808
 42
0.0
  0
VERTEX
  8
0
 10
28.4796671906539
 20
144.992437080003
 42
0.0
  0
VERTEX
  8
0
 10
28.5543594030199
 20
145.145673716953
 42
0.0
  0
VERTEX
  8
0
 10
28.559108609452
 20
145.155007646365
 42
0.0
  0
VERTEX
  8
0
 10
28.5743427144906
 20
145.186170852934
 42
0.0
  0
VERTEX
  8
0
 10
28.631322406476
 20
145.304487225771
 42
0.0
  0
VERTEX
  8
0
 10
28.7411519579882
 20
145.612119963585
 42
0.0
  0
VERTEX
  8
0
 10
28.7993817242114
 20
145.908406032366
 42
0.0
  0
VERTEX
  8
0
 10
28.8110774700105
 20
146.184989493726
 42
0.0
  0
VERTEX
  8
0
 10
28.7918274626296
 20
146.307725979971
 42
0.0
  0
VERTEX
  8
0
 10
28.7723125323339
 20
146.435891844068
 42
0.0
  0
VERTEX
  8
0
 10
28.6842316761402
 20
146.655429567824
 42
0.0
  0
VERTEX
  8
0
 10
28.5691117826905
 20
146.810550478059
 42
0.0
  0
VERTEX
  8
0
 10
28.5497830323658
 20
146.835785067156
 42
0.0
  0
VERTEX
  8
0
 10
28.4569831609768
 20
146.932616910876
 42
0.0
  0
VERTEX
  8
0
 10
28.3966603255317
 20
146.993376980197
 42
0.0
  0
VERTEX
  8
0
 10
28.1689517977924
 20
147.228607613267
 42
0.0
  0
VERTEX
  8
0
 10
27.9901327398944
 20
147.367810748262
 42
0.0
  0
VERTEX
  8
0
 10
27.7749355932739
 20
147.462306422483
 42
0.0
  0
VERTEX
  8
0
 10
27.5833399424892
 20
147.496603020512
 42
0.0
  0
VERTEX
  8
0
 10
27.5258631752455
 20
147.507558716894
 42
0.0
  0
VERTEX
  8
0
 10
27.2485689362575
 20
147.504354446614
 42
0.0
  0
VERTEX
  8
0
 10
26.9496899809276
 20
147.452316381883
 42
0.0
  0
VERTEX
  8
0
 10
26.6393555485034
 20
147.354018255452
 42
0.0
  0
VERTEX
  8
0
 10
26.3833007367261
 20
147.236742042119
 42
0.0
  0
VERTEX
  8
0
 10
26.3750951239276
 20
147.233466026459
 42
0.0
  0
VERTEX
  8
0
 10
26.3231589591975
 20
147.209530982755
 42
0.0
  0
VERTEX
  8
0
 10
26.0094561513973
 20
147.023920328658
 42
0.0
  0
VERTEX
  8
0
 10
25.705051003655
 20
146.800940519133
 42
0.0
  0
VERTEX
  8
0
 10
25.546661490297
 20
146.659780482642
 42
0.0
  0
VERTEX
  8
0
 10
25.4185235269555
 20
146.546179211246
 42
0.0
  0
VERTEX
  8
0
 10
24.7812016706521
 20
145.928144408732
 42
0.0
  0
VERTEX
  8
0
 10
24.745799282472
 20
145.892907586186
 42
0.0
  0
VERTEX
  8
0
 10
24.7384406150267
 20
145.884694019761
 42
0.0
  0
VERTEX
  8
0
 10
24.4838960567044
 20
145.613728569438
 42
0.0
  0
VERTEX
  8
0
 10
24.2526313137307
 20
145.315214057038
 42
0.0
  0
VERTEX
  8
0
 10
24.0584101319442
 20
145.00709961013
 42
0.0
  0
SEQEND
  0
POLYLINE
  8
0
 66
     1
 10
0.0
 20
0.0
 30
0.0
 70
     1
  0
VERTEX
  8
0
 10
21.6809124749915
 20
43.8464241787056
 42
0.0
  0
VERTEX
  8
0
 10
21.5474775505045
 20
44.0259735830019
 42
0.0
  0
VERTEX
  8
0
 10
21.3918820914737
 20
44.1884593649183
 42
0.0
  0
VERTEX
  8
0
 10
21.2202713754319
 20
44.334086317134
 42
0.0
  0
VERTEX
  8
0
 10
21.0342383125323
 20
44.4582147084883
 42
0.0
  0
VERTEX
  8
0
 10
20.8336189604133
 20
44.5610385464606
 42
0.0
  0
VERTEX
  8
0
 10
20.6251542358188
 20
44.6412706941304
 42
0.0
  0
VERTEX
  8
0
 10
20.6049916158227
 20
44.6458480045737
 42
0.0
  0
VERTEX
  8
0
 10
20.5812358806438
 20
44.6527097228796
 42
0.0
  0
VERTEX
  8
0
 10
20.4070243244257
 20
44.6987035272459
 42
0.0
  0
VERTEX
  8
0
 10
20.1846257073948
 20
44.7289185556707
 42
0.0
  0
VERTEX
  8
0
 10
19.9603029228241
 20
44.7362247942698
 42
0.0
  0
VERTEX
  8
0
 10
19.7366189182639
 20
44.7168022236905
 42
0.0
  0
VERTEX
  8
0
 10
19.5160957909466
 20
44.6727820946336
 42
0.0
  0
VERTEX
  8
0
 10
19.3029251268384
 20
44.604713532847
 42
0.0
  0
VERTEX
  8
0
 10
19.0976288181422
 20
44.5123724657334
 42
0.0
  0
VERTEX
  8
0
 10
18.9031470421668
 20
44.398575978558
 42
0.0
  0
VERTEX
  8
0
 10
18.723611254643
 20
44.2631572973866
 42
0.0
  0
VERTEX
  8
0
 10
18.5611118559541
 20
44.1095455950402
 42
0.0
  0
VERTEX
  8
0
 10
18.4612190333632
 20
43.9888857662867
 42
0.0
  0
VERTEX
  8
0
 10
18.4166625653874
 20
43.9369347764836
 42
0.0
  0
VERTEX
  8
0
 10
18.2923401665537
 20
43.7507377712224
 42
0.0
  0
VERTEX
  8
0
 10
18.1886966167734
 20
43.5510884565005
 42
0.0
  0
VERTEX
  8
0
 10
18.1621902569199
 20
43.4801383504871
 42
0.0
  0
VERTEX
  8
0
 10
18.1083141435145
 20
43.3408339827008
 42
0.0
  0
VERTEX
  8
0
 10
18.0530153926726
 20
43.1245074372855
 42
0.0
  0
VERTEX
  8
0
 10
18.0216363193713
 20
42.9011251660848
 42
0.0
  0
VERTEX
  8
0
 10
18.0154941256487
 20
42.6777860356839
 42
0.0
  0
VERTEX
  8
0
 10
18.034766370639
 20
42.4523122819185
 42
0.0
  0
VERTEX
  8
0
 10
18.07793672277
 20
42.2324012421572
 42
0.0
  0
VERTEX
  8
0
 10
18.1470190038441
 20
42.0184244830136
 42
0.0
  0
VERTEX
  8
0
 10
18.238376416788
 20
41.8142922191938
 42
0.0
  0
VERTEX
  8
0
 10
18.3274261020784
 20
41.6620819622409
 42
0.0
  0
VERTEX
  8
0
 10
18.3521729039634
 20
41.6198104432185
 42
0.0
  0
VERTEX
  8
0
 10
18.4875915851349
 20
41.4402746556947
 42
0.0
  0
VERTEX
  8
0
 10
18.6412032874812
 20
41.2777752570058
 42
0.0
  0
VERTEX
  8
0
 10
18.6849707759764
 20
41.2409354063163
 42
0.0
  0
VERTEX
  8
0
 10
18.8138141060379
 20
41.1333259664391
 42
0.0
  0
VERTEX
  8
0
 10
19.000011111299
 20
41.0090035676054
 42
0.0
  0
VERTEX
  8
0
 10
19.1994664185415
 20
40.9051960754635
 42
0.0
  0
VERTEX
  8
0
 10
19.408931245651
 20
40.8261415894427
 42
0.0
  0
VERTEX
  8
0
 10
19.6272114826331
 20
40.7704985055324
 42
0.0
  0
VERTEX
  8
0
 10
19.8494297089572
 20
40.7381357780614
 42
0.0
  0
VERTEX
  8
0
 10
20.0747525960427
 20
40.7320072011113
 42
0.0
  0
VERTEX
  8
0
 10
20.2972725557264
 20
40.750446117521
 42
0.0
  0
VERTEX
  8
0
 10
20.5181536328848
 20
40.7944361814601
 42
0.0
  0
VERTEX
  8
0
 10
20.7321303920284
 20
40.8635184625341
 42
0.0
  0
VERTEX
  8
0
 10
20.9364566633276
 20
40.9550398178397
 42
0.0
  0
VERTEX
  8
0
 10
20.9952761167634
 20
40.9901121569335
 42
0.0
  0
VERTEX
  8
0
 10
21.1307444318236
 20
41.0686723626535
 42
0.0
  0
VERTEX
  8
0
 10
21.3083265277806
 20
41.2044353768934
 42
0.0
  0
VERTEX
  8
0
 10
21.4727796180363
 20
41.3577027461713
 42
0.0
  0
VERTEX
  8
0
 10
21.6174229160823
 20
41.5304775070895
 42
0.0
  0
VERTEX
  8
0
 10
21.7427153523131
 20
41.7174942241588
 42
0.0
  0
VERTEX
  8
0
 10
21.845552807058
 20
41.9161298195932
 42
0.0
  0
VERTEX
  8
0
 10
21.9255773304758
 20
42.1264143585107
 42
0.0
  0
VERTEX
  8
0
 10
21.9820401261942
 20
42.3437245580957
 42
0.0
  0
VERTEX
  8
0
 10
22.0124190969807
 20
42.5659291676473
 42
0.0
  0
VERTEX
  8
0
 10
22.0187416814101
 20
42.7914159970944
 42
0.0
  0
VERTEX
  8
0
 10
22.0034358676074
 20
42.9696948389345
 42
0.0
  0
VERTEX
  8
0
 10
21.9993191108308
 20
43.0151000016546
 42
0.0
  0
VERTEX
  8
0
 10
21.9551486561849
 20
43.2338333797668
 42
0.0
  0
VERTEX
  8
0
 10
21.8872304199873
 20
43.4487937930801
 42
0.0
  0
VERTEX
  8
0
 10
21.7957090646817
 20
43.6531200643793
 42
0.0
  0
VERTEX
  8
0
 10
21.7099353950509
 20
43.7971247085338
 42
0.0
  0
SEQEND
  0
POLYLINE
  8
0
 66
     1
 10
0.0
 20
0.0
 30
0.0
 70
     1
  0
VERTEX
  8
0
 10
6.5233822438148
 20
36.024667147346
 42
0.0
  0
VERTEX
  8
0
 10
6.387081377636
 20
36.0664493824101
 42
0.0
  0
VERTEX
  8
0
 10
6.3087259698842
 20
36.0886932949708
 42
0.0
  0
VERTEX
  8
0
 10
6.25298948598
 20
36.0991243216869
 42
0.0
  0
VERTEX
  8
0
 10
6.0872749162697
 20
36.1286877287565
 42
0.0
  0
VERTEX
  8
0
 10
5.8636417014168
 20
36.1435600967257
 42
0.0
  0
VERTEX
  8
0
 10
5.6396742767746
 20
36.1332092559978
 42
0.0
  0
VERTEX
  8
0
 10
5.4177124208768
 20
36.096952041254
 42
0.0
  0
VERTEX
  8
0
 10
5.2003820430819
 20
36.0360097960337
 42
0.0
  0
VERTEX
  8
0
 10
4.9928767598629
 20
35.9527760247074
 42
0.0
  0
VERTEX
  8
0
 10
4.7951131842526
 20
35.8451849994098
 42
0.0
  0
VERTEX
  8
0
 10
4.6103370251327
 20
35.7179747085004
 42
0.0
  0
VERTEX
  8
0
 10
4.4415632312314
 20
35.5697023509789
 42
0.0
  0
VERTEX
  8
0
 10
4.2916262397398
 20
35.4034282022984
 42
0.0
  0
VERTEX
  8
0
 10
4.2804884032595
 20
35.3867004182689
 42
0.0
  0
VERTEX
  8
0
 10
4.159895465935
 20
35.2219448375334
 42
0.0
  0
VERTEX
  8
0
 10
4.0496719893697
 20
35.0257139645419
 42
0.0
  0
VERTEX
  8
0
 10
3.9619674805095
 20
34.8199135468143
 42
0.0
  0
VERTEX
  8
0
 10
3.8969652824641
 20
34.6043659711075
 42
0.0
  0
VERTEX
  8
0
 10
3.8578529018711
 20
34.3837600430725
 42
0.0
  0
VERTEX
  8
0
 10
3.8438494284184
 20
34.1590985885787
 42
0.0
  0
VERTEX
  8
0
 10
3.8478981643917
 20
34.0667472590484
 42
0.0
  0
VERTEX
  8
0
 10
3.8544076643502
 20
33.935239910566
 42
0.0
  0
VERTEX
  8
0
 10
3.8895915958854
 20
33.7142333426637
 42
0.0
  0
VERTEX
  8
0
 10
3.9486203127121
 20
33.4970817107411
 42
0.0
  0
VERTEX
  8
0
 10
4.0338616096599
 20
33.2894438578465
 42
0.0
  0
VERTEX
  8
0
 10
4.1395688885244
 20
33.0917844316285
 42
0.0
  0
VERTEX
  8
0
 10
4.2687017273628
 20
32.9069369115886
 42
0.0
  0
VERTEX
  8
0
 10
4.4178367373291
 20
32.7389918490307
 42
0.0
  0
VERTEX
  8
0
 10
4.5832004125336
 20
32.5880859527711
 42
0.0
  0
VERTEX
  8
0
 10
4.7655901116337
 20
32.4555581034662
 42
0.0
  0
VERTEX
  8
0
 10
4.9597820322087
 20
32.3453076224039
 42
0.0
  0
VERTEX
  8
0
 10
4.9767629295423
 20
32.3380416572302
 42
0.0
  0
VERTEX
  8
0
 10
5.1675183855896
 20
32.2574765568917
 42
0.0
  0
VERTEX
  8
0
 10
5.38137434846
 20
32.1944368409001
 42
0.0
  0
VERTEX
  8
0
 10
5.6028060013267
 20
32.1544260128782
 42
0.0
  0
VERTEX
  8
0
 10
5.8264392161795
 20
32.1395536449091
 42
0.0
  0
VERTEX
  8
0
 10
6.0512457533777
 20
32.1489508424761
 42
0.0
  0
VERTEX
  8
0
 10
6.2723684967195
 20
32.1861617003808
 42
0.0
  0
VERTEX
  8
0
 10
6.4897182752623
 20
32.2471203398372
 42
0.0
  0
VERTEX
  8
0
 10
6.6972041577334
 20
32.3303377169273
 42
0.0
  0
VERTEX
  8
0
 10
6.8109387547043
 20
32.3921949734629
 42
0.0
  0
VERTEX
  8
0
 10
6.8949677333437
 20
32.4379287422249
 42
0.0
  0
VERTEX
  8
0
 10
7.079579950102
 20
32.5653330406138
 42
0.0
  0
VERTEX
  8
0
 10
7.2474700459761
 20
32.7125261019032
 42
0.0
  0
VERTEX
  8
0
 10
7.3993131911604
 20
32.8787482904116
 42
0.0
  0
VERTEX
  8
0
 10
7.5300215092997
 20
33.0613629115808
 42
0.0
  0
VERTEX
  8
0
 10
7.6404089282266
 20
33.2573997770929
 42
0.0
  0
VERTEX
  8
0
 10
7.7281134370868
 20
33.4632001948204
 42
0.0
  0
VERTEX
  8
0
 10
7.7931350358802
 20
33.6787641647634
 42
0.0
  0
VERTEX
  8
0
 10
7.8322280157252
 20
33.8993536985623
 42
0.0
  0
VERTEX
  8
0
 10
7.8462314891779
 20
34.1240151530561
 42
0.0
  0
VERTEX
  8
0
 10
7.8356926539941
 20
34.3478902253049
 42
0.0
  0
VERTEX
  8
0
 10
7.836003969542
 20
34.35181127932
 42
0.0
  0
VERTEX
  8
0
 10
7.8004893217109
 20
34.568880398971
 42
0.0
  0
VERTEX
  8
0
 10
7.7404129644954
 20
34.7851467421409
 42
0.0
  0
VERTEX
  8
0
 10
7.6562193079365
 20
34.9936698837883
 42
0.0
  0
VERTEX
  8
0
 10
7.549464388683
 20
35.1904440212535
 42
0.0
  0
VERTEX
  8
0
 10
7.4203315498447
 20
35.3752915412934
 42
0.0
  0
VERTEX
  8
0
 10
7.2730832928232
 20
35.5431682494432
 42
0.0
  0
VERTEX
  8
0
 10
7.1068805050627
 20
35.6950277888636
 42
0.0
  0
VERTEX
  8
0
 10
6.9253105177706
 20
35.8265856007715
 42
0.0
  0
VERTEX
  8
0
 10
6.7303182861356
 20
35.937822513467
 42
0.0
  0
SEQEND
  0
POLYLINE
  8
0
 66
     1
 10
0.0
 20
0.0
 30
0.0
 70
     1
  0
VERTEX
  8
0
 10
24.7095473957635
 20
10.0518550663841
 42
0.0
  0
VERTEX
  8
0
 10
14.1408172878494
 20
1.1209490089972
 42
0.0
  0
VERTEX
  8
0
 10
4.6549007594691
 20
12.3464720377305
 42
0.0
  0
VERTEX
  8
0
 10
6.3998336234731
 20
19.4536228894215
 42
0.0
  0
VERTEX
  8
0
 10
7.8947277780676
 20
25.5393730986755
 42
0.0
  0
VERTEX
  8
0
 10
8.8974852625551
 20
29.6198257663062
 42
0.0
  0
VERTEX
  8
0
 10
9.0254276317601
 20
30.1409605517334
 42
0.0
  0
VERTEX
  8
0
 10
8.2886257583247
 20
30.0670374266432
 42
0.0
  0
VERTEX
  8
0
 10
7.0920452966028
 20
30.0462053496388
 42
0.0
  0
VERTEX
  8
0
 10
6.6586534749081
 20
30.0786958766432
 42
0.0
  0
VERTEX
  8
0
 10
5.9988414182132
 20
30.1293568987669
 42
0.0
  0
VERTEX
  8
0
 10
5.0213298629456
 20
30.3189182045432
 42
0.0
  0
VERTEX
  8
0
 10
4.1667657277791
 20
30.6107111895556
 42
0.0
  0
VERTEX
  8
0
 10
3.4439939466136
 20
31.0048941330205
 42
0.0
  0
VERTEX
  8
0
 10
2.8613202092199
 20
31.4958489339893
 42
0.0
  0
VERTEX
  8
0
 10
2.4223706483014
 20
32.0793238221508
 42
0.0
  0
VERTEX
  8
0
 10
2.1732838043054
 20
32.6516459763424
 42
0.0
  0
VERTEX
  8
0
 10
2.1315077214024
 20
32.7480312619317
 42
0.0
  0
VERTEX
  8
0
 10
1.9928493883111
 20
33.4971374605827
 42
0.0
  0
VERTEX
  8
0
 10
2.0081961834324
 20
34.32018287262
 42
0.0
  0
VERTEX
  8
0
 10
2.1756693074488
 20
35.2066011693471
 42
0.0
  0
VERTEX
  8
0
 10
2.2184385530726
 20
35.3331944491814
 42
0.0
  0
VERTEX
  8
0
 10
2.4935625189524
 20
36.1519576287187
 42
0.0
  0
VERTEX
  8
0
 10
2.9613667597622
 20
37.1441830449116
 42
0.0
  0
VERTEX
  8
0
 10
3.5716487118439
 20
38.1726729622659
 42
0.0
  0
VERTEX
  8
0
 10
4.0433613760646
 20
38.8399803081598
 42
0.0
  0
VERTEX
  8
0
 10
4.248538679783
 20
39.1287542455799
 42
0.0
  0
VERTEX
  8
0
 10
4.3196368156147
 20
39.230402369423
 42
0.0
  0
VERTEX
  8
0
 10
5.199267494177
 20
40.3052639335963
 42
0.0
  0
VERTEX
  8
0
 10
6.2005173692312
 20
41.3877899563483
 42
0.0
  0
VERTEX
  8
0
 10
7.3138354888146
 20
42.467914322567
 42
0.0
  0
VERTEX
  8
0
 10
8.5290093475427
 20
43.5343467961376
 42
0.0
  0
VERTEX
  8
0
 10
9.835015464601
 20
44.5764420169734
 42
0.0
  0
VERTEX
  8
0
 10
10.7879530960725
 20
45.2719645101031
 42
0.0
  0
VERTEX
  8
0
 10
11.2165281526964
 20
45.5849072847439
 42
0.0
  0
VERTEX
  8
0
 10
11.7602523745592
 20
45.9469358271872
 42
0.0
  0
VERTEX
  8
0
 10
11.7599170772995
 20
45.9815695979861
 42
0.0
  0
VERTEX
  8
0
 10
11.7614967856518
 20
46.116254596711
 42
0.0
  0
VERTEX
  8
0
 10
11.7624156025031
 20
46.2666757716685
 42
0.0
  0
VERTEX
  8
0
 10
11.7886782518266
 20
48.6994791160024
 42
0.0
  0
VERTEX
  8
0
 10
11.8193363644166
 20
55.0214394603371
 42
0.0
  0
VERTEX
  8
0
 10
11.8341795903769
 20
58.1465931674976
 42
0.0
  0
VERTEX
  8
0
 10
11.8278512817768
 20
67.6869176318032
 42
0.0
  0
VERTEX
  8
0
 10
11.8193248916652
 20
68.9480349258578
 42
0.0
  0
VERTEX
  8
0
 10
11.7685872470225
 20
77.2257404634905
 42
0.0
  0
VERTEX
  8
0
 10
11.6584019751259
 20
86.6733144014427
 42
0.0
  0
VERTEX
  8
0
 10
11.4948778481902
 20
95.9364794600666
 42
0.0
  0
VERTEX
  8
0
 10
11.2879839141215
 20
104.704750214139
 42
0.0
  0
VERTEX
  8
0
 10
11.2831198581257
 20
104.930095212715
 42
0.0
  0
VERTEX
  8
0
 10
11.2365097839379
 20
106.480267996085
 42
0.0
  0
VERTEX
  8
0
 10
11.0225165845858
 20
113.563193054732
 42
0.0
  0
VERTEX
  8
0
 10
10.7189654977435
 20
121.753630035443
 42
0.0
  0
VERTEX
  8
0
 10
10.5057407326968
 20
126.478803246383
 42
0.0
  0
VERTEX
  8
0
 10
10.5034884648112
 20
127.162272947047
 42
0.0
  0
VERTEX
  8
0
 10
7.0858498636184
 20
129.396435289107
 42
0.0
  0
VERTEX
  8
0
 10
7.1706343664632
 20
134.736240984927
 42
0.0
  0
VERTEX
  8
0
 10
7.2049667130972
 20
136.964698110835
 42
0.0
  0
VERTEX
  8
0
 10
7.2227750390881
 20
138.080134400555
 42
0.0
  0
VERTEX
  8
0
 10
7.2280128626756
 20
138.425750545716
 42
0.0
  0
VERTEX
  8
0
 10
3.8782962771789
 20
149.313900954119
 42
0.0
  0
VERTEX
  8
0
 10
7.43880832552
 20
151.817177813358
 42
0.0
  0
VERTEX
  8
0
 10
10.4108893584335
 20
153.904685391146
 42
0.0
  0
VERTEX
  8
0
 10
10.4638040552787
 20
153.942416536288
 42
0.0
  0
VERTEX
  8
0
 10
13.495947996658
 20
156.073363176757
 42
0.0
  0
VERTEX
  8
0
 10
17.1414474528082
 20
153.335403467639
 42
0.0
  0
VERTEX
  8
0
 10
17.6336974875305
 20
152.966566518568
 42
0.0
  0
VERTEX
  8
0
 10
18.6942128867626
 20
152.170419249451
 42
0.0
  0
VERTEX
  8
0
 10
20.0090819043746
 20
152.971261074834
 42
0.0
  0
VERTEX
  8
0
 10
21.2317105628467
 20
152.171771040613
 42
0.0
  0
VERTEX
  8
0
 10
25.661936156044
 20
155.285278973537
 42
0.0
  0
VERTEX
  8
0
 10
26.4943293494164
 20
155.869626434005
 42
0.0
  0
VERTEX
  8
0
 10
28.3704797307902
 20
154.460474289129
 42
0.0
  0
VERTEX
  8
0
 10
28.5425936002075
 20
154.331567167316
 42
0.0
  0
VERTEX
  8
0
 10
34.6222241153502
 20
149.767741657635
 42
0.0
  0
VERTEX
  8
0
 10
35.8950005237667
 20
148.812099337246
 42
0.0
  0
VERTEX
  8
0
 10
34.1534300230508
 20
143.725000964744
 42
0.0
  0
VERTEX
  8
0
 10
33.9773011341237
 20
143.211698476111
 42
0.0
  0
VERTEX
  8
0
 10
32.3316540671196
 20
138.401859281543
 42
0.0
  0
VERTEX
  8
0
 10
32.2727467047439
 20
134.769252960277
 42
0.0
  0
VERTEX
  8
0
 10
32.2551970974319
 20
133.61612529355
 42
0.0
  0
VERTEX
  8
0
 10
32.1835504204745
 20
129.001393180588
 42
0.0
  0
VERTEX
  8
0
 10
28.6381484656807
 20
126.841100894007
 42
0.0
  0
VERTEX
  8
0
 10
28.4671194832242
 20
126.73614879964
 42
0.0
  0
VERTEX
  8
0
 10
28.446289767491
 20
126.72420028716
 42
0.0
  0
VERTEX
  8
0
 10
28.4409137745488
 20
126.668778192037
 42
0.0
  0
VERTEX
  8
0
 10
28.2687863371792
 20
122.151703297748
 42
0.0
  0
VERTEX
  8
0
 10
28.1730368702473
 20
118.973145772111
 42
0.0
  0
VERTEX
  8
0
 10
28.0215990305158
 20
113.957778673868
 42
0.0
  0
VERTEX
  8
0
 10
27.8214051791466
 20
105.323371620055
 42
0.0
  0
VERTEX
  8
0
 10
27.6723599735652
 20
96.3301412135263
 42
0.0
  0
VERTEX
  8
0
 10
27.5738642757784
 20
87.0653727484025
 42
0.0
  0
VERTEX
  8
0
 10
27.5291826490361
 20
77.6172886595102
 42
0.0
  0
VERTEX
  8
0
 10
27.5287311311783
 20
77.5883083391596
 42
0.0
  0
VERTEX
  8
0
 10
27.5296648788797
 20
75.5286555031099
 42
0.0
  0
VERTEX
  8
0
 10
27.5356748999978
 20
68.0767701877252
 42
0.0
  0
VERTEX
  8
0
 10
27.5941192229441
 20
58.5389173934349
 42
0.0
  0
VERTEX
  8
0
 10
27.6923882850722
 20
50.1640367611954
 42
0.0
  0
VERTEX
  8
0
 10
27.7060942440458
 20
49.0911931298937
 42
0.0
  0
VERTEX
  8
0
 10
27.7677585533144
 20
45.565794327921
 42
0.0
  0
VERTEX
  8
0
 10
27.8485796615892
 20
40.9504761632252
 42
0.0
  0
VERTEX
  8
0
 10
27.8055859841327
 20
40.5334489328344
 42
0.0
  0
VERTEX
  8
0
 10
27.7112459190692
 20
39.5967298063
 42
0.0
  0
VERTEX
  8
0
 10
27.5569673715963
 20
38.0843737718849
 42
0.0
  0
VERTEX
  8
0
 10
27.4040743264607
 20
36.578642249726
 42
0.0
  0
VERTEX
  8
0
 10
26.9539413675931
 20
32.1406652186285
 42
0.0
  0
SEQEND
  0
POLYLINE
  8
0
 66
     1
 10
0.0
 20
0.0
 30
0.0
 70
     1
  0
VERTEX
  8
0
 10
13.9764142663891
 20
13.6581271639398
 42
0.0
  0
VERTEX
  8
0
 10
14.1110162422644
 20
13.4795972087972
 42
0.0
  0
VERTEX
  8
0
 10
14.2655102268516
 20
13.3160143747353
 42
0.0
  0
VERTEX
  8
0
 10
14.438147820857
 20
13.1714546927046
 42
0.0
  0
VERTEX
  8
0
 10
14.6242688679609
 20
13.0473008875788
 42
0.0
  0
VERTEX
  8
0
 10
14.8238315601558
 20
12.9434843759015
 42
0.0
  0
VERTEX
  8
0
 10
15.0322367208292
 20
12.8634014211916
 42
0.0
  0
VERTEX
  8
0
 10
15.2505125896223
 20
12.8079209179657
 42
0.0
  0
VERTEX
  8
0
 10
15.3248794258106
 20
12.7967721970177
 42
0.0
  0
VERTEX
  8
0
 10
15.4737784563352
 20
12.7764434792474
 42
0.0
  0
VERTEX
  8
0
 10
15.6980804784807
 20
12.7693192220805
 42
0.0
  0
VERTEX
  8
0
 10
15.9207882035721
 20
12.7897790518361
 42
0.0
  0
VERTEX
  8
0
 10
16.1415649022899
 20
12.8338139302946
 42
0.0
  0
VERTEX
  8
0
 10
16.3554836882379
 20
12.9009184677077
 42
0.0
  0
VERTEX
  8
0
 10
16.5607739839106
 20
12.9931879448531
 42
0.0
  0
VERTEX
  8
0
 10
16.7542570731574
 20
13.1079695019845
 42
0.0
  0
VERTEX
  8
0
 10
16.9327512333159
 20
13.2425744843715
 42
0.0
  0
VERTEX
  8
0
 10
17.0963116601181
 20
13.3970162797384
 42
0.0
  0
VERTEX
  8
0
 10
17.2417596374133
 20
13.5686420283391
 42
0.0
  0
VERTEX
  8
0
 10
17.2910229789961
 20
13.6427273687757
 42
0.0
  0
VERTEX
  8
0
 10
17.365932843287
 20
13.7547794696792
 42
0.0
  0
VERTEX
  8
0
 10
17.4688282712275
 20
13.9553928087747
 42
0.0
  0
VERTEX
  8
0
 10
17.535407535231
 20
14.1307050692974
 42
0.0
  0
VERTEX
  8
0
 10
17.5480259371847
 20
14.164845609837
 42
0.0
  0
VERTEX
  8
0
 10
17.6063962482731
 20
14.3819054735814
 42
0.0
  0
VERTEX
  8
0
 10
17.6367872451066
 20
14.6042532630694
 42
0.0
  0
VERTEX
  8
0
 10
17.6429934250485
 20
14.8296417270996
 42
0.0
  0
VERTEX
  8
0
 10
17.6236528256499
 20
15.0532287279201
 42
0.0
  0
VERTEX
  8
0
 10
17.5794555955553
 20
15.2720724974964
 42
0.0
  0
VERTEX
  8
0
 10
17.5114493751533
 20
15.4870583245811
 42
0.0
  0
VERTEX
  8
0
 10
17.4200621802488
 20
15.6912651848809
 42
0.0
  0
VERTEX
  8
0
 10
17.3052776166057
 20
15.8847124791436
 42
0.0
  0
VERTEX
  8
0
 10
17.2780272146552
 20
15.9212103954647
 42
0.0
  0
VERTEX
  8
0
 10
17.1697575635054
 20
16.0643288761709
 42
0.0
  0
VERTEX
  8
0
 10
17.0161816561432
 20
16.2268252683481
 42
0.0
  0
VERTEX
  8
0
 10
16.8445917025267
 20
16.3722702391315
 42
0.0
  0
VERTEX
  8
0
 10
16.6584900561707
 20
16.4964404384935
 42
0.0
  0
VERTEX
  8
0
 10
16.4578603228391
 20
16.5993552671819
 42
0.0
  0
VERTEX
  8
0
 10
16.2494551621656
 20
16.6794382218918
 42
0.0
  0
VERTEX
  8
0
 10
16.0313416450087
 20
16.7368516542593
 42
0.0
  0
VERTEX
  8
0
 10
15.8089610670484
 20
16.7672814525887
 42
0.0
  0
VERTEX
  8
0
 10
15.584659044903
 20
16.7744057097556
 42
0.0
  0
VERTEX
  8
0
 10
15.3600183906701
 20
16.7541082316361
 42
0.0
  0
VERTEX
  8
0
 10
15.3242513272571
 20
16.7473615471903
 42
0.0
  0
VERTEX
  8
0
 10
15.1402893323411
 20
16.7109586419303
 42
0.0
  0
VERTEX
  8
0
 10
14.978490404111
 20
16.6590321985262
 42
0.0
  0
VERTEX
  8
0
 10
14.926208194757
 20
16.6419211753757
 42
0.0
  0
VERTEX
  8
0
 10
14.7219655394731
 20
16.550536986983
 42
0.0
  0
VERTEX
  8
0
 10
14.5275971614736
 20
16.4368030702405
 42
0.0
  0
VERTEX
  8
0
 10
14.3480359601783
 20
16.3012964048646
 42
0.0
  0
VERTEX
  8
0
 10
14.1855425745129
 20
16.1477562924865
 42
0.0
  0
VERTEX
  8
0
 10
14.0409798859704
 20
15.975082903497
 42
0.0
  0
VERTEX
  8
0
 10
13.9157590397078
 20
15.7880601734042
 42
0.0
  0
VERTEX
  8
0
 10
13.8912142872127
 20
15.7402500213573
 42
0.0
  0
VERTEX
  8
0
 10
13.8130259634035
 20
15.5893797634503
 42
0.0
  0
VERTEX
  8
0
 10
13.7327806570575
 20
15.3790416736353
 42
0.0
  0
VERTEX
  8
0
 10
13.6763432751106
 20
15.1618194582547
 42
0.0
  0
VERTEX
  8
0
 10
13.645952278277
 20
14.9394716687667
 42
0.0
  0
VERTEX
  8
0
 10
13.6411585836073
 20
14.7892678121292
 42
0.0
  0
VERTEX
  8
0
 10
13.6388608095825
 20
14.7151308451254
 42
0.0
  0
VERTEX
  8
0
 10
13.6580390573449
 20
14.4896109151633
 42
0.0
  0
VERTEX
  8
0
 10
13.7022362874396
 20
14.270767145587
 42
0.0
  0
VERTEX
  8
0
 10
13.7713095489783
 20
14.0566830014911
 42
0.0
  0
VERTEX
  8
0
 10
13.8626773431348
 20
13.8524597469552
 42
0.0
  0
SEQEND
  0
POLYLINE
  8
0
 66
     1
 10
0.0
 20
0.0
 30
0.0
 70
     1
  0
VERTEX
  8
0
 10
13.7480339626811
 20
20.1946629277867
 42
0.0
  0
VERTEX
  8
0
 10
13.9513833336811
 20
19.9262778900406
 42
0.0
  0
VERTEX
  8
0
 10
14.182104153515
 20
19.6809893245336
 42
0.0
  0
VERTEX
  8
0
 10
14.4397714128899
 20
19.4657540505431
 42
0.0
  0
VERTEX
  8
0
 10
14.720188537227
 20
19.2769593230902
 42
0.0
  0
VERTEX
  8
0
 10
15.0192731867828
 20
19.1237255966385
 42
0.0
  0
VERTEX
  8
0
 10
15.3337944561866
 20
19.0034224187013
 42
0.0
  0
VERTEX
  8
0
 10
15.4725571144231
 20
18.9673452028821
 42
0.0
  0
VERTEX
  8
0
 10
15.6602693926714
 20
18.9202895335426
 42
0.0
  0
VERTEX
  8
0
 10
15.9926562476729
 20
18.8727796950006
 42
0.0
  0
VERTEX
  8
0
 10
16.3300981527216
 20
18.8620643226526
 42
0.0
  0
VERTEX
  8
0
 10
16.6660121745207
 20
18.8915260632448
 42
0.0
  0
VERTEX
  8
0
 10
16.9951631176378
 20
18.9567742679979
 42
0.0
  0
VERTEX
  8
0
 10
17.3157640103314
 20
19.0599236184376
 42
0.0
  0
VERTEX
  8
0
 10
17.6235824830383
 20
19.1973643760967
 42
0.0
  0
VERTEX
  8
0
 10
17.8488828656305
 20
19.330020597759
 42
0.0
  0
VERTEX
  8
0
 10
17.9137244378346
 20
19.368552349731
 42
0.0
  0
VERTEX
  8
0
 10
18.1830305593175
 20
19.5708510738303
 42
0.0
  0
VERTEX
  8
0
 10
18.4273980410877
 20
19.8026225405648
 42
0.0
  0
VERTEX
  8
0
 10
18.6445856449677
 20
20.0601438425398
 42
0.0
  0
VERTEX
  8
0
 10
18.831447443279
 20
20.340723318513
 42
0.0
  0
VERTEX
  8
0
 10
18.9855634519717
 20
20.6387245326959
 42
0.0
  0
VERTEX
  8
0
 10
19.1058502356727
 20
20.9532652028476
 42
0.0
  0
VERTEX
  8
0
 10
19.1176975837094
 20
21.0011865832186
 42
0.0
  0
VERTEX
  8
0
 10
19.1898848038202
 20
21.2786730981956
 42
0.0
  0
VERTEX
  8
0
 10
19.2356076706207
 20
21.6131746347227
 42
0.0
  0
VERTEX
  8
0
 10
19.2452754025799
 20
21.9497312510187
 42
0.0
  0
VERTEX
  8
0
 10
19.2166989507404
 20
22.284597632429
 42
0.0
  0
VERTEX
  8
0
 10
19.1516130976234
 20
22.6156815046877
 42
0.0
  0
VERTEX
  8
0
 10
19.0493490359363
 20
22.9352347569924
 42
0.0
  0
VERTEX
  8
0
 10
18.9110229895246
 20
23.2441008700881
 42
0.0
  0
VERTEX
  8
0
 10
18.7407366988792
 20
23.5331757837476
 42
0.0
  0
VERTEX
  8
0
 10
18.5384379747799
 20
23.8024819052305
 42
0.0
  0
VERTEX
  8
0
 10
18.3066665080453
 20
24.0468493870008
 42
0.0
  0
VERTEX
  8
0
 10
18.0491452060704
 20
24.2640369908808
 42
0.0
  0
VERTEX
  8
0
 10
17.8167905102245
 20
24.4194882081355
 42
0.0
  0
VERTEX
  8
0
 10
17.769467413086
 20
24.4498317480553
 42
0.0
  0
VERTEX
  8
0
 10
17.4705481216781
 20
24.6050341986327
 42
0.0
  0
VERTEX
  8
0
 10
17.1549598111375
 20
24.724435693581
 42
0.0
  0
VERTEX
  8
0
 10
16.8286666270368
 20
24.8095179021174
 42
0.0
  0
VERTEX
  8
0
 10
16.4952127308986
 20
24.8561260576705
 42
0.0
  0
VERTEX
  8
0
 10
16.1595577975914
 20
24.8647267484929
 42
0.0
  0
VERTEX
  8
0
 10
15.8729995454399
 20
24.8409244136019
 42
0.0
  0
VERTEX
  8
0
 10
15.8237897331923
 20
24.8372173377902
 42
0.0
  0
VERTEX
  8
0
 10
15.4936075439225
 20
24.7710644435364
 42
0.0
  0
VERTEX
  8
0
 10
15.1731720093769
 20
24.6698838172223
 42
0.0
  0
VERTEX
  8
0
 10
14.8662388254227
 20
24.5313954191744
 42
0.0
  0
VERTEX
  8
0
 10
14.5760968706264
 20
24.3602074455402
 42
0.0
  0
VERTEX
  8
0
 10
14.3068265441276
 20
24.1579057149291
 42
0.0
  0
VERTEX
  8
0
 10
14.0624232673732
 20
23.9261372547063
 42
0.0
  0
VERTEX
  8
0
 10
14.0136152581346
 20
23.8686315712473
 42
0.0
  0
VERTEX
  8
0
 10
13.8452356634932
 20
23.6686159527314
 42
0.0
  0
VERTEX
  8
0
 10
13.6574885764292
 20
23.389084117147
 42
0.0
  0
VERTEX
  8
0
 10
13.5032072095886
 20
23.0891141788385
 42
0.0
  0
VERTEX
  8
0
 10
13.3839516720403
 20
22.7754781981874
 42
0.0
  0
VERTEX
  8
0
 10
13.2997711464928
 20
22.4481179729499
 42
0.0
  0
VERTEX
  8
0
 10
13.2522613079508
 20
22.1157311179484
 42
0.0
  0
VERTEX
  8
0
 10
13.2436606171284
 20
21.7800761846413
 42
0.0
  0
VERTEX
  8
0
 10
13.2596303289439
 20
21.5860969615527
 42
0.0
  0
VERTEX
  8
0
 10
13.2720553165838
 20
21.4432604798533
 42
0.0
  0
VERTEX
  8
0
 10
13.3382082108376
 20
21.1130782905835
 42
0.0
  0
VERTEX
  8
0
 10
13.4403069143767
 20
20.7915563141531
 42
0.0
  0
VERTEX
  8
0
 10
13.4633984773359
 20
20.7407363732683
 42
0.0
  0
VERTEX
  8
0
 10
13.5778936294357
 20
20.4856901713357
 42
0.0
  0
SEQEND
  0
POLYLINE
  8
0
 66
     1
 10
0.0
 20
0.0
 30
0.0
 70
     1
  0
VERTEX
  8
0
 10
15.0681531248833
 20
145.893246862294
 42
0.0
  0
VERTEX
  8
0
 10
14.9474722668207
 20
146.029369197409
 42
0.0
  0
VERTEX
  8
0
 10
14.2932169875914
 20
146.703257486769
 42
0.0
  0
VERTEX
  8
0
 10
14.0130979985638
 20
146.96469895057
 42
0.0
  0
VERTEX
  8
0
 10
13.8522581333526
 20
147.090496289567
 42
0.0
  0
VERTEX
  8
0
 10
13.7157475310405
 20
147.196947347713
 42
0.0
  0
VERTEX
  8
0
 10
13.6303324784604
 20
147.250803099019
 42
0.0
  0
VERTEX
  8
0
 10
13.4074090115353
 20
147.390646637297
 42
0.0
  0
VERTEX
  8
0
 10
13.0943752115974
 20
147.543465897996
 42
0.0
  0
VERTEX
  8
0
 10
12.787562185592
 20
147.652325412111
 42
0.0
  0
VERTEX
  8
0
 10
12.4904564050031
 20
147.711525215731
 42
0.0
  0
VERTEX
  8
0
 10
12.2138428785247
 20
147.722863011689
 42
0.0
  0
VERTEX
  8
0
 10
12.0403291503712
 20
147.695621761089
 42
0.0
  0
VERTEX
  8
0
 10
11.9631345356625
 20
147.684262016374
 42
0.0
  0
VERTEX
  8
0
 10
11.7444165237141
 20
147.595211122783
 42
0.0
  0
VERTEX
  8
0
 10
11.5640610243823
 20
147.460762479009
 42
0.0
  0
VERTEX
  8
0
 10
11.5076757633073
 20
147.407461931568
 42
0.0
  0
VERTEX
  8
0
 10
11.1712384782711
 20
147.079931244435
 42
0.0
  0
VERTEX
  8
0
 10
11.0529801974258
 20
146.929452644696
 42
0.0
  0
VERTEX
  8
0
 10
11.0310216239885
 20
146.901918281573
 42
0.0
  0
VERTEX
  8
0
 10
10.9377336765347
 20
146.686078982279
 42
0.0
  0
VERTEX
  8
0
 10
10.8911233297674
 20
146.435858967719
 42
0.0
  0
VERTEX
  8
0
 10
10.8945079907546
 20
146.160712427777
 42
0.0
  0
VERTEX
  8
0
 10
10.9422920488016
 20
145.879854056542
 42
0.0
  0
VERTEX
  8
0
 10
10.9465460554855
 20
145.861833472447
 42
0.0
  0
VERTEX
  8
0
 10
11.0348414073768
 20
145.582619105793
 42
0.0
  0
VERTEX
  8
0
 10
11.0433851490077
 20
145.555586813863
 42
0.0
  0
VERTEX
  8
0
 10
11.0448441819169
 20
145.551499040023
 42
0.0
  0
VERTEX
  8
0
 10
11.1893314546135
 20
145.235302450717
 42
0.0
  0
VERTEX
  8
0
 10
11.3452934843223
 20
144.972033092847
 42
0.0
  0
VERTEX
  8
0
 10
11.3747617180035
 20
144.919451943871
 42
0.0
  0
VERTEX
  8
0
 10
11.596921815721
 20
144.616016833526
 42
0.0
  0
VERTEX
  8
0
 10
11.8517131887256
 20
144.329847306667
 42
0.0
  0
VERTEX
  8
0
 10
12.5069385053521
 20
143.656778729115
 42
0.0
  0
VERTEX
  8
0
 10
12.7226769502119
 20
143.454996251567
 42
0.0
  0
VERTEX
  8
0
 10
12.7861175221003
 20
143.394875503347
 42
0.0
  0
VERTEX
  8
0
 10
13.0834679896236
 20
143.162627106204
 42
0.0
  0
VERTEX
  8
0
 10
13.3165150326508
 20
143.016706374256
 42
0.0
  0
VERTEX
  8
0
 10
13.3927464814081
 20
142.969389578587
 42
0.0
  0
VERTEX
  8
0
 10
13.6182691652374
 20
142.858345969953
 42
0.0
  0
VERTEX
  8
0
 10
13.7046463015873
 20
142.81594461356
 42
0.0
  0
VERTEX
  8
0
 10
13.784454958273
 20
142.787612776238
 42
0.0
  0
VERTEX
  8
0
 10
14.0122353575104
 20
142.707740868891
 42
0.0
  0
VERTEX
  8
0
 10
14.2538180624224
 20
142.659152428585
 42
0.0
  0
VERTEX
  8
0
 10
14.3085651081816
 20
142.647885295825
 42
0.0
  0
VERTEX
  8
0
 10
14.3737584927115
 20
142.64511310075
 42
0.0
  0
VERTEX
  8
0
 10
14.585328960249
 20
142.638337249072
 42
0.0
  0
VERTEX
  8
0
 10
14.8360373031112
 20
142.676938244387
 42
0.0
  0
VERTEX
  8
0
 10
15.0557690343472
 20
142.765183042942
 42
0.0
  0
VERTEX
  8
0
 10
15.091135694264
 20
142.791410989227
 42
0.0
  0
VERTEX
  8
0
 10
15.2359305261995
 20
142.899467744355
 42
0.0
  0
VERTEX
  8
0
 10
15.2806452733916
 20
142.942573800258
 42
0.0
  0
VERTEX
  8
0
 10
15.3063909694912
 20
142.96798769788
 42
0.0
  0
VERTEX
  8
0
 10
15.6287530723107
 20
143.280298978928
 42
0.0
  0
VERTEX
  8
0
 10
15.7681201496675
 20
143.458924029347
 42
0.0
  0
VERTEX
  8
0
 10
15.8020288588566
 20
143.536461894942
 42
0.0
  0
VERTEX
  8
0
 10
15.8626158238881
 20
143.674121175967
 42
0.0
  0
VERTEX
  8
0
 10
15.9080921908967
 20
143.923715486198
 42
0.0
  0
VERTEX
  8
0
 10
15.904693913137
 20
144.200845782825
 42
0.0
  0
VERTEX
  8
0
 10
15.8532514876169
 20
144.498232808555
 42
0.0
  0
VERTEX
  8
0
 10
15.7568140258261
 20
144.802823595177
 42
0.0
  0
VERTEX
  8
0
 10
15.7533576194597
 20
144.80888150893
 42
0.0
  0
VERTEX
  8
0
 10
15.7343380150311
 20
144.850671986067
 42
0.0
  0
VERTEX
  8
0
 10
15.6106600959683
 20
145.124927772647
 42
0.0
  0
VERTEX
  8
0
 10
15.4240657877018
 20
145.439794625323
 42
0.0
  0
VERTEX
  8
0
 10
15.2888138804646
 20
145.623461868578
 42
0.0
  0
VERTEX
  8
0
 10
15.2010859781763
 20
145.744199773066
 42
0.0
  0
SEQEND
  0
POLYLINE
  8
0
 66
     1
 10
0.0
 20
0.0
 30
0.0
 70
     1
  0
VERTEX
  8
0
 10
16.6081126005896
 20
141.434235481043
 42
0.0
  0
VERTEX
  8
0
 10
16.4754183561139
 20
141.264242077126
 42
0.0
  0
VERTEX
  8
0
 10
16.2628140594273
 20
140.990474907702
 42
0.0
  0
VERTEX
  8
0
 10
15.9842927771393
 20
140.502714945762
 42
0.0
  0
VERTEX
  8
0
 10
15.77424035395
 20
139.980366103212
 42
0.0
  0
VERTEX
  8
0
 10
15.6412396324169
 20
139.433341500333
 42
0.0
  0
VERTEX
  8
0
 10
15.632581419579
 20
139.353863018852
 42
0.0
  0
VERTEX
  8
0
 10
15.5844192652142
 20
138.874871664468
 42
0.0
  0
VERTEX
  8
0
 10
15.6067823914593
 20
138.312815043775
 42
0.0
  0
VERTEX
  8
0
 10
15.7051460224187
 20
137.760776563786
 42
0.0
  0
VERTEX
  8
0
 10
15.881155244854
 20
137.225467076127
 42
0.0
  0
VERTEX
  8
0
 10
15.9318288007551
 20
137.120638326043
 42
0.0
  0
VERTEX
  8
0
 10
15.9846500557023
 20
137.015629185251
 42
0.0
  0
VERTEX
  8
0
 10
16.1291214211444
 20
136.720701962155
 42
0.0
  0
VERTEX
  8
0
 10
16.4448886935868
 20
136.254940972382
 42
0.0
  0
VERTEX
  8
0
 10
16.8226180989715
 20
135.84020973896
 42
0.0
  0
VERTEX
  8
0
 10
16.9652354189808
 20
135.720629134022
 42
0.0
  0
VERTEX
  8
0
 10
17.2538691667029
 20
135.479019573921
 42
0.0
  0
VERTEX
  8
0
 10
17.7316990189304
 20
135.18312835493
 42
0.0
  0
VERTEX
  8
0
 10
17.9524429723004
 20
135.086003939778
 42
0.0
  0
VERTEX
  8
0
 10
18.2478175106475
 20
134.956837143223
 42
0.0
  0
VERTEX
  8
0
 10
18.3469418419761
 20
134.928865546224
 42
0.0
  0
VERTEX
  8
0
 10
18.7099450393955
 20
134.825920491718
 42
0.0
  0
VERTEX
  8
0
 10
18.7869530591612
 20
134.802870538231
 42
0.0
  0
VERTEX
  8
0
 10
19.3441573285056
 20
134.726690814495
 42
0.0
  0
VERTEX
  8
0
 10
19.5416230897993
 20
134.727948679626
 42
0.0
  0
VERTEX
  8
0
 10
19.9075578436909
 20
134.728574221221
 42
0.0
  0
VERTEX
  8
0
 10
20.4636563228843
 20
134.808753325723
 42
0.0
  0
VERTEX
  8
0
 10
21.002711541797
 20
134.964982279976
 42
0.0
  0
VERTEX
  8
0
 10
21.516176386135
 20
135.196356839963
 42
0.0
  0
VERTEX
  8
0
 10
21.9929487476809
 20
135.495158097915
 42
0.0
  0
VERTEX
  8
0
 10
22.4222872996314
 20
135.857962544157
 42
0.0
  0
VERTEX
  8
0
 10
22.7960437278509
 20
136.277884599501
 42
0.0
  0
VERTEX
  8
0
 10
23.1090507458307
 20
136.744904499972
 42
0.0
  0
VERTEX
  8
0
 10
23.1421176317212
 20
136.812419770019
 42
0.0
  0
VERTEX
  8
0
 10
23.3541737587226
 20
137.251330571345
 42
0.0
  0
VERTEX
  8
0
 10
23.525991342303
 20
137.786263207602
 42
0.0
  0
VERTEX
  8
0
 10
23.6206641973011
 20
138.340472291456
 42
0.0
  0
VERTEX
  8
0
 10
23.6392741268673
 20
138.90323294445
 42
0.0
  0
VERTEX
  8
0
 10
23.6305567398565
 20
138.983990609223
 42
0.0
  0
VERTEX
  8
0
 10
23.5927668355126
 20
139.334482425524
 42
0.0
  0
VERTEX
  8
0
 10
23.5789490375555
 20
139.461809297894
 42
0.0
  0
VERTEX
  8
0
 10
23.4407571157433
 20
140.007460230017
 42
0.0
  0
VERTEX
  8
0
 10
23.2283294953586
 20
140.52762459969
 42
0.0
  0
VERTEX
  8
0
 10
22.9454941493814
 20
141.01423067136
 42
0.0
  0
VERTEX
  8
0
 10
22.7787596455699
 20
141.226496424242
 42
0.0
  0
VERTEX
  8
0
 10
22.5982239182653
 20
141.454700855555
 42
0.0
  0
VERTEX
  8
0
 10
22.191855152935
 20
141.843900762456
 42
0.0
  0
VERTEX
  8
0
 10
21.7366889886269
 20
142.173575434229
 42
0.0
  0
VERTEX
  8
0
 10
21.5491770718094
 20
142.271513356953
 42
0.0
  0
VERTEX
  8
0
 10
21.2624976828638
 20
142.422659756254
 42
0.0
  0
VERTEX
  8
0
 10
21.2384333428795
 20
142.436576659255
 42
0.0
  0
VERTEX
  8
0
 10
20.7105371524902
 20
142.62564675064
 42
0.0
  0
VERTEX
  8
0
 10
20.1598916597918
 20
142.74128832067
 42
0.0
  0
VERTEX
  8
0
 10
19.5987982050504
 20
142.777601734808
 42
0.0
  0
VERTEX
  8
0
 10
19.0370581427902
 20
142.737548740763
 42
0.0
  0
VERTEX
  8
0
 10
18.4883473139784
 20
142.618719007057
 42
0.0
  0
VERTEX
  8
0
 10
18.2954895954554
 20
142.547862884032
 42
0.0
  0
VERTEX
  8
0
 10
17.9596034744111
 20
142.42431480234
 42
0.0
  0
VERTEX
  8
0
 10
17.6553718459299
 20
142.261339520436
 42
0.0
  0
VERTEX
  8
0
 10
17.464655622217
 20
142.158041007549
 42
0.0
  0
VERTEX
  8
0
 10
17.0105481568909
 20
141.826515447384
 42
0.0
  0
SEQEND
  0
POLYLINE
  8
0
 66
     1
 10
0.0
 20
0.0
 30
0.0
 70
     1
  0
VERTEX
  8
0
 10
15.5321013548549
 20
132.685583038147
 42
0.0
  0
VERTEX
  8
0
 10
15.5875999024404
 20
132.796994551878
 42
0.0
  0
VERTEX
  8
0
 10
15.6519041568801
 20
132.985348833085
 42
0.0
  0
VERTEX
  8
0
 10
15.6925083515317
 20
133.106122050864
 42
0.0
  0
VERTEX
  8
0
 10
15.7484752802922
 20
133.386196564672
 42
0.0
  0
VERTEX
  8
0
 10
15.7517217719246
 20
133.401244074768
 42
0.0
  0
VERTEX
  8
0
 10
15.7622699211924
 20
133.679185588485
 42
0.0
  0
VERTEX
  8
0
 10
15.7235049835158
 20
133.930087938826
 42
0.0
  0
VERTEX
  8
0
 10
15.6381975306969
 20
134.148311292117
 42
0.0
  0
VERTEX
  8
0
 10
15.57507176785
 20
134.233638854798
 42
0.0
  0
VERTEX
  8
0
 10
15.5058965859687
 20
134.328486400742
 42
0.0
  0
VERTEX
  8
0
 10
15.2193599839567
 20
134.629398205554
 42
0.0
  0
VERTEX
  8
0
 10
15.1301367794052
 20
134.721603934886
 42
0.0
  0
VERTEX
  8
0
 10
14.9567170342404
 20
134.860714042955
 42
0.0
  0
VERTEX
  8
0
 10
14.8077400671192
 20
134.926036597646
 42
0.0
  0
VERTEX
  8
0
 10
14.7439954713894
 20
134.95464131151
 42
0.0
  0
VERTEX
  8
0
 10
14.49735495524
 20
135.000951007099
 42
0.0
  0
VERTEX
  8
0
 10
14.2274738507875
 20
134.998025276506
 42
0.0
  0
VERTEX
  8
0
 10
13.9869055323726
 20
134.955688794047
 42
0.0
  0
VERTEX
  8
0
 10
13.933502381106
 20
134.946476207288
 42
0.0
  0
VERTEX
  8
0
 10
13.7213153711675
 20
134.877243600625
 42
0.0
  0
VERTEX
  8
0
 10
13.6539737465007
 20
134.856585113671
 42
0.0
  0
VERTEX
  8
0
 10
13.628925211256
 20
134.848054988812
 42
0.0
  0
VERTEX
  8
0
 10
13.31729177453
 20
134.702103020061
 42
0.0
  0
VERTEX
  8
0
 10
13.0084663872604
 20
134.516623411635
 42
0.0
  0
VERTEX
  8
0
 10
12.7101764519334
 20
134.293490444948
 42
0.0
  0
VERTEX
  8
0
 10
12.4275728067126
 20
134.04038217745
 42
0.0
  0
VERTEX
  8
0
 10
12.2379339313051
 20
133.851200104689
 42
0.0
  0
VERTEX
  8
0
 10
11.7666609069831
 20
133.386118403503
 42
0.0
  0
VERTEX
  8
0
 10
11.5094711593844
 20
133.107264439905
 42
0.0
  0
VERTEX
  8
0
 10
11.4606408637161
 20
133.043055791726
 42
0.0
  0
VERTEX
  8
0
 10
11.2818159799387
 20
132.808807226168
 42
0.0
  0
VERTEX
  8
0
 10
11.0915021812857
 20
132.500004113123
 42
0.0
  0
VERTEX
  8
0
 10
10.9484190228212
 20
132.204176307527
 42
0.0
  0
VERTEX
  8
0
 10
10.9413689601812
 20
132.188907556407
 42
0.0
  0
VERTEX
  8
0
 10
10.8543046182325
 20
131.933433973739
 42
0.0
  0
VERTEX
  8
0
 10
10.8469238392966
 20
131.914227774368
 42
0.0
  0
VERTEX
  8
0
 10
10.8349685814902
 20
131.87918441821
 42
0.0
  0
VERTEX
  8
0
 10
10.7762770532999
 20
131.583838321709
 42
0.0
  0
VERTEX
  8
0
 10
10.7655649616705
 20
131.306090815472
 42
0.0
  0
VERTEX
  8
0
 10
10.8051660595004
 20
131.056560134258
 42
0.0
  0
VERTEX
  8
0
 10
10.8204286063846
 20
131.017248072463
 42
0.0
  0
VERTEX
  8
0
 10
10.8894734098044
 20
130.837159119318
 42
0.0
  0
VERTEX
  8
0
 10
11.0219382968942
 20
130.656790003214
 42
0.0
  0
VERTEX
  8
0
 10
11.3435613958634
 20
130.318686061017
 42
0.0
  0
VERTEX
  8
0
 10
11.3978620458193
 20
130.263478461591
 42
0.0
  0
VERTEX
  8
0
 10
11.5709539062609
 20
130.12475636848
 42
0.0
  0
VERTEX
  8
0
 10
11.7840033538352
 20
130.030441084967
 42
0.0
  0
VERTEX
  8
0
 10
12.0304799276229
 20
129.984325396857
 42
0.0
  0
VERTEX
  8
0
 10
12.3016890193135
 20
129.98804077414
 42
0.0
  0
VERTEX
  8
0
 10
12.5941384942775
 20
130.038636254307
 42
0.0
  0
VERTEX
  8
0
 10
12.7381777845136
 20
130.086196654728
 42
0.0
  0
VERTEX
  8
0
 10
12.8997157666423
 20
130.138235134431
 42
0.0
  0
VERTEX
  8
0
 10
13.2103791659713
 20
130.283367391374
 42
0.0
  0
VERTEX
  8
0
 10
13.5201882074105
 20
130.467682954924
 42
0.0
  0
VERTEX
  8
0
 10
13.8176584309295
 20
130.691785959008
 42
0.0
  0
VERTEX
  8
0
 10
14.0998740611914
 20
130.944566341783
 42
0.0
  0
VERTEX
  8
0
 10
14.4232856115616
 20
131.265080404056
 42
0.0
  0
VERTEX
  8
0
 10
14.7611739758798
 20
131.599158000453
 42
0.0
  0
VERTEX
  8
0
 10
15.0185276658401
 20
131.877817956572
 42
0.0
  0
VERTEX
  8
0
 10
15.2458549605626
 20
132.176663185267
 42
0.0
  0
VERTEX
  8
0
 10
15.4328842488381
 20
132.48069552148
 42
0.0
  0
VERTEX
  8
0
 10
15.4357807442567
 20
132.485138413589
 42
0.0
  0
SEQEND
  0
POLYLINE
  8
0
 66
     1
 10
0.0
 20
0.0
 30
0.0
 70
     1
  0
VERTEX
  8
0
 10
23.5929069291976
 20
134.239696019973
 42
0.0
  0
VERTEX
  8
0
 10
23.5706533677275
 20
134.21723308486
 42
0.0
  0
VERTEX
  8
0
 10
23.5498452223942
 20
134.192666132591
 42
0.0
  0
VERTEX
  8
0
 10
23.4317809490283
 20
134.042351475213
 42
0.0
  0
VERTEX
  8
0
 10
23.3366459537064
 20
133.830272065036
 42
0.0
  0
VERTEX
  8
0
 10
23.290516648824
 20
133.585779247933
 42
0.0
  0
VERTEX
  8
0
 10
23.2928363699779
 20
133.461040266176
 42
0.0
  0
VERTEX
  8
0
 10
23.2942456428796
 20
133.312586399558
 42
0.0
  0
VERTEX
  8
0
 10
23.3458111604436
 20
133.020956636402
 42
0.0
  0
VERTEX
  8
0
 10
23.4171557378898
 20
132.799580359495
 42
0.0
  0
VERTEX
  8
0
 10
23.4265328081012
 20
132.769594273484
 42
0.0
  0
VERTEX
  8
0
 10
23.4434126671109
 20
132.717349503949
 42
0.0
  0
VERTEX
  8
0
 10
23.4440519882121
 20
132.714231767506
 42
0.0
  0
VERTEX
  8
0
 10
23.5885585408266
 20
132.404702347935
 42
0.0
  0
VERTEX
  8
0
 10
23.7756338909781
 20
132.095562692715
 42
0.0
  0
VERTEX
  8
0
 10
23.9979908277476
 20
131.796616987942
 42
0.0
  0
VERTEX
  8
0
 10
24.1330413149689
 20
131.647031558166
 42
0.0
  0
VERTEX
  8
0
 10
24.2519051902812
 20
131.515027062008
 42
0.0
  0
VERTEX
  8
0
 10
24.9055131947821
 20
130.854891192197
 42
0.0
  0
VERTEX
  8
0
 10
25.1859765168781
 20
130.595403419963
 42
0.0
  0
VERTEX
  8
0
 10
25.4836440839247
 20
130.369076227755
 42
0.0
  0
VERTEX
  8
0
 10
25.6619746874013
 20
130.258391651144
 42
0.0
  0
VERTEX
  8
0
 10
25.7932969738956
 20
130.178150341546
 42
0.0
  0
VERTEX
  8
0
 10
25.8844012051871
 20
130.134090281619
 42
0.0
  0
VERTEX
  8
0
 10
26.1043634654941
 20
130.0276591706
 42
0.0
  0
VERTEX
  8
0
 10
26.4122968544857
 20
129.921409117499
 42
0.0
  0
VERTEX
  8
0
 10
26.4336235193583
 20
129.917815461225
 42
0.0
  0
VERTEX
  8
0
 10
26.5094731573928
 20
129.902432779988
 42
0.0
  0
VERTEX
  8
0
 10
26.7086129883843
 20
129.863537301116
 42
0.0
  0
VERTEX
  8
0
 10
26.9842127955752
 20
129.853005600194
 42
0.0
  0
VERTEX
  8
0
 10
27.1475672193635
 20
129.877315168203
 42
0.0
  0
VERTEX
  8
0
 10
27.1970465391514
 20
129.884874714574
 42
0.0
  0
VERTEX
  8
0
 10
27.235904792607
 20
129.890442550632
 42
0.0
  0
VERTEX
  8
0
 10
27.4544724789665
 20
129.977703695018
 42
0.0
  0
VERTEX
  8
0
 10
27.6356613068789
 20
130.109198544711
 42
0.0
  0
VERTEX
  8
0
 10
27.9993169376965
 20
130.45607159894
 42
0.0
  0
VERTEX
  8
0
 10
28.0291367908638
 20
130.484928286156
 42
0.0
  0
VERTEX
  8
0
 10
28.1526332736534
 20
130.639833329659
 42
0.0
  0
VERTEX
  8
0
 10
28.167858883974
 20
130.658020146598
 42
0.0
  0
VERTEX
  8
0
 10
28.2269539194058
 20
130.795083788412
 42
0.0
  0
VERTEX
  8
0
 10
28.2618162176468
 20
130.87109965929
 42
0.0
  0
VERTEX
  8
0
 10
28.3079455225292
 20
131.115592476393
 42
0.0
  0
VERTEX
  8
0
 10
28.3045744783146
 20
131.388755259651
 42
0.0
  0
VERTEX
  8
0
 10
28.2536511134245
 20
131.681592749573
 42
0.0
  0
VERTEX
  8
0
 10
28.1542161756617
 20
131.986976014459
 42
0.0
  0
VERTEX
  8
0
 10
28.1176496164862
 20
132.064485438209
 42
0.0
  0
VERTEX
  8
0
 10
28.0088899112392
 20
132.297475471426
 42
0.0
  0
VERTEX
  8
0
 10
27.8245879644625
 20
132.605300756181
 42
0.0
  0
VERTEX
  8
0
 10
27.6016490052547
 20
132.903754633869
 42
0.0
  0
VERTEX
  8
0
 10
27.3463930387104
 20
133.186538669797
 42
0.0
  0
VERTEX
  8
0
 10
26.7127587687807
 20
133.826973140489
 42
0.0
  0
VERTEX
  8
0
 10
26.6921593298809
 20
133.847808519368
 42
0.0
  0
VERTEX
  8
0
 10
26.4134693086448
 20
134.104804259487
 42
0.0
  0
VERTEX
  8
0
 10
26.3583841340532
 20
134.146379699836
 42
0.0
  0
VERTEX
  8
0
 10
26.1854369360553
 20
134.278240615731
 42
0.0
  0
VERTEX
  8
0
 10
26.1146240799491
 20
134.332131554209
 42
0.0
  0
VERTEX
  8
0
 10
25.8069850117806
 20
134.523429007032
 42
0.0
  0
VERTEX
  8
0
 10
25.7424070874702
 20
134.554987514978
 42
0.0
  0
VERTEX
  8
0
 10
25.4942927133386
 20
134.673876496087
 42
0.0
  0
VERTEX
  8
0
 10
25.2127080721939
 20
134.769802761371
 42
0.0
  0
VERTEX
  8
0
 10
25.1863292592292
 20
134.779768599348
 42
0.0
  0
VERTEX
  8
0
 10
25.1553243318763
 20
134.786157770487
 42
0.0
  0
VERTEX
  8
0
 10
24.8900431904484
 20
134.837998365571
 42
0.0
  0
VERTEX
  8
0
 10
24.8072801985903
 20
134.841885801577
 42
0.0
  0
VERTEX
  8
0
 10
24.6132657216084
 20
134.849530169009
 42
0.0
  0
VERTEX
  8
0
 10
24.3625273136284
 20
134.810571223853
 42
0.0
  0
VERTEX
  8
0
 10
24.3340167088721
 20
134.799448086326
 42
0.0
  0
VERTEX
  8
0
 10
24.1431699805787
 20
134.724638066705
 42
0.0
  0
VERTEX
  8
0
 10
23.9628008644744
 20
134.592173179615
 42
0.0
  0
SEQEND
  0
POLYLINE
  8
0
 66
     1
 10
0.0
 20
0.0
 30
0.0
 70
     1
  0
VERTEX
  8
0
 10
23.905784878725
 20
144.694229752554
 42
0.0
  0
VERTEX
  8
0
 10
23.8264076300356
 20
144.470192794088
 42
0.0
  0
VERTEX
  8
0
 10
23.7969253646099
 20
144.387416726548
 42
0.0
  0
VERTEX
  8
0
 10
23.7377255609895
 20
144.09031094596
 42
0.0
  0
VERTEX
  8
0
 10
23.7269975621057
 20
143.833832805932
 42
0.0
  0
VERTEX
  8
0
 10
23.7263576999137
 20
143.81333946964
 42
0.0
  0
VERTEX
  8
0
 10
23.731778041956
 20
143.777016930189
 42
0.0
  0
VERTEX
  8
0
 10
23.7647947528671
 20
143.562825134257
 42
0.0
  0
VERTEX
  8
0
 10
23.8542035962989
 20
143.344077057191
 42
0.0
  0
VERTEX
  8
0
 10
23.9873242528351
 20
143.162931911169
 42
0.0
  0
VERTEX
  8
0
 10
24.3681554874086
 20
142.770109365058
 42
0.0
  0
VERTEX
  8
0
 10
24.4268473939556
 20
142.724265760162
 42
0.0
  0
VERTEX
  8
0
 10
24.491069658907
 20
142.673451707809
 42
0.0
  0
VERTEX
  8
0
 10
24.5469745453066
 20
142.630906230063
 42
0.0
  0
VERTEX
  8
0
 10
24.7631417293241
 20
142.53723026765
 42
0.0
  0
VERTEX
  8
0
 10
25.0133918090016
 20
142.490977870724
 42
0.0
  0
VERTEX
  8
0
 10
25.0710546300974
 20
142.490820799808
 42
0.0
  0
VERTEX
  8
0
 10
25.2885383489435
 20
142.494362531711
 42
0.0
  0
VERTEX
  8
0
 10
25.5874173042733
 20
142.546400596442
 42
0.0
  0
VERTEX
  8
0
 10
25.8977517366976
 20
142.644698722873
 42
0.0
  0
VERTEX
  8
0
 10
25.9760508071379
 20
142.679937294811
 42
0.0
  0
VERTEX
  8
0
 10
26.2139483260035
 20
142.78918599557
 42
0.0
  0
VERTEX
  8
0
 10
26.5288151786802
 20
142.975780303837
 42
0.0
  0
VERTEX
  8
0
 10
26.832875993354
 20
143.196806421795
 42
0.0
  0
VERTEX
  8
0
 10
27.118389750766
 20
143.452373824718
 42
0.0
  0
VERTEX
  8
0
 10
27.7434891358662
 20
144.06008025845
 42
0.0
  0
VERTEX
  8
0
 10
27.792278040126
 20
144.106629103947
 42
0.0
  0
VERTEX
  8
0
 10
28.0532112284966
 20
144.384988408887
 42
0.0
  0
VERTEX
  8
0
 10
28.0863212551867
 20
144.427266799355
 42
0.0
  0
VERTEX
  8
0
 10
28.2848038561935
 20
144.683114906328
 42
0.0
  0
VERTEX
  8
0
 10
28.4043855433131
 20
144.872954371808
 42
0.0
  0
VERTEX
  8
0
 10
28.4796671906539
 20
144.992437080003
 42
0.0
  0
VERTEX
  8
0
 10
28.5543594030199
 20
145.145673716953
 42
0.0
  0
VERTEX
  8
0
 10
28.559108609452
 20
145.155007646365
 42
0.0
  0
VERTEX
  8
0
 10
28.5743427144906
 20
145.186170852934
 42
0.0
  0
VERTEX
  8
0
 10
28.631322406476
 20
145.304487225771
 42
0.0
  0
VERTEX
  8
0
 10
28.7411519579882
 20
145.612119963585
 42
0.0
  0
VERTEX
  8
0
 10
28.7993817242114
 20
145.908406032366
 42
0.0
  0
VERTEX
  8
0
 10
28.8110774700105
 20
146.184989493726
 42
0.0
  0
VERTEX
  8
0
 10
28.7918274626296
 20
146.307725979971
 42
0.0
  0
VERTEX
  8
0
 10
28.7723125323339
 20
146.435891844068
 42
0.0
  0
VERTEX
  8
0
 10
28.6842316761402
 20
146.655429567824
 42
0.0
  0
VERTEX
  8
0
 10
28.5691117826905
 20
146.810550478059
 42
0.0
  0
VERTEX
  8
0
 10
28.5497830323658
 20
146.835785067156
 42
0.0
  0
VERTEX
  8
0
 10
28.4569831609768
 20
146.932616910876
 42
0.0
  0
VERTEX
  8
0
 10
28.3966603255317
 20
146.993376980197
 42
0.0
  0
VERTEX
  8
0
 10
28.1689517977924
 20
147.228607613267
 42
0.0
  0
VERTEX
  8
0
 10
27.9901327398944
 20
147.367810748262
 42
0.0
  0
VERTEX
  8
0
 10
27.7749355932739
 20
147.462306422483
 42
0.0
  0
VERTEX
  8
0
 10
27.5833399424892
 20
147.496603020512
 42
0.0
  0
VERTEX
  8
0
 10
27.5258631752455
 20
147.507558716894
 42
0.0
  0
VERTEX
  8
0
 10
27.2485689362575
 20
147.504354446614
 42
0.0
  0
VERTEX
  8
0
 10
26.9496899809276
 20
147.452316381883
 42
0.0
  0
VERTEX
  8
0
 10
26.6393555485034
 20
147.354018255452
 42
0.0
  0
VERTEX
  8
0
 10
26.3833007367261
 20
147.236742042119
 42
0.0
  0
VERTEX
  8
0
 10
26.3750951239276
 20
147.233466026459
 42
0.0
  0
VERTEX
  8
0
 10
26.3231589591975
 20
147.209530982755
 42
0.0
  0
VERTEX
  8
0
 10
26.0094561513973
 20
147.023920328658
 42
0.0
  0
VERTEX
  8
0
 10
25.705051003655
 20
146.800940519133
 42
0.0
  0
VERTEX
  8
0
 10
25.546661490297
 20
146.659780482642
 42
0.0
  0
VERTEX
  8
0
 10
25.4185235269555
 20
146.546179211246
 42
0.0
  0
VERTEX
  8
0
 10
24.7812016706521
 20
145.928144408732
 42
0.0
  0
VERTEX
  8
0
 10
24.745799282472
 20
145.892907586186
 42
0.0
  0
VERTEX
  8
0
 10
24.7384406150267
 20
145.884694019761
 42
0.0
  0
VERTEX
  8
0
 10
24.4838960567044
 20
145.613728569438
 42
0.0
  0
VERTEX
  8
0
 10
24.2526313137307
 20
145.315214057038
 42
0.0
  0
VERTEX
  8
0
 10
24.0584101319442
 20
145.00709961013
 42
0.0
  0
SEQEND
  0
POLYLINE
  8
0
 66
     1
 10
0.0
 20
0.0
 30
0.0
 70
     1
  0
VERTEX
  8
0
 10
21.6809124749915
 20
43.8464241787056
 42
0.0
  0
VERTEX
  8
0
 10
21.5474775505045
 20
44.0259735830019
 42
0.0
  0
VERTEX
  8
0
 10
21.3918820914737
 20
44.1884593649183
 42
0.0
  0
VERTEX
  8
0
 10
21.2202713754319
 20
44.334086317134
 42
0.0
  0
VERTEX
  8
0
 10
21.0342383125323
 20
44.4582147084883
 42
0.0
  0
VERTEX
  8
0
 10
20.8336189604133
 20
44.5610385464606
 42
0.0
  0
VERTEX
  8
0
 10
20.6251542358188
 20
44.6412706941304
 42
0.0
  0
VERTEX
  8
0
 10
20.6049916158227
 20
44.6458480045737
 42
0.0
  0
VERTEX
  8
0
 10
20.5812358806438
 20
44.6527097228796
 42
0.0
  0
VERTEX
  8
0
 10
20.4070243244257
 20
44.6987035272459
 42
0.0
  0
VERTEX
  8
0
 10
20.1846257073948
 20
44.7289185556707
 42
0.0
  0
VERTEX
  8
0
 10
19.9603029228241
 20
44.7362247942698
 42
0.0
  0
VERTEX
  8
0
 10
19.7366189182639
 20
44.7168022236905
 42
0.0
  0
VERTEX
  8
0
 10
19.5160957909466
 20
44.6727820946336
 42
0.0
  0
VERTEX
  8
0
 10
19.3029251268384
 20
44.604713532847
 42
0.0
  0
VERTEX
  8
0
 10
19.0976288181422
 20
44.5123724657334
 42
0.0
  0
VERTEX
  8
0
 10
18.9031470421668
 20
44.398575978558
 42
0.0
  0
VERTEX
  8
0
 10
18.723611254643
 20
44.2631572973866
 42
0.0
  0
VERTEX
  8
0
 10
18.5611118559541
 20
44.1095455950402
 42
0.0
  0
VERTEX
  8
0
 10
18.4612190333632
 20
43.9888857662867
 42
0.0
  0
VERTEX
  8
0
 10
18.4166625653874
 20
43.9369347764836
 42
0.0
  0
VERTEX
  8
0
 10
18.2923401665537
 20
43.7507377712224
 42
0.0
  0
VERTEX
  8
0
 10
18.1886966167734
 20
43.5510884565005
 42
0.0
  0
VERTEX
  8
0
 10
18.1621902569199
 20
43.4801383504871
 42
0.0
  0
VERTEX
  8
0
 10
18.1083141435145
 20
43.3408339827008
 42
0.0
  0
VERTEX
  8
0
 10
18.0530153926726
 20
43.1245074372855
 42
0.0
  0
VERTEX
  8
0
 10
18.0216363193713
 20
42.9011251660848
 42
0.0
  0
VERTEX
  8
0
 10
18.0154941256487
 20
42.6777860356839
 42
0.0
  0
VERTEX
  8
0
 10
18.034766370639
 20
42.4523122819185
 42
0.0
  0
VERTEX
  8
0
 10
18.07793672277
 20
42.2324012421572
 42
0.0
  0
VERTEX
  8
0
 10
18.1470190038441
 20
42.0184244830136
 42
0.0
  0
VERTEX
  8
0
 10
18.238376416788
 20
41.8142922191938
 42
0.0
  0
VERTEX
  8
0
 10
18.3274261020784
 20
41.6620819622409
 42
0.0
  0
VERTEX
  8
0
 10
18.3521729039634
 20
41.6198104432185
 42
0.0
  0
VERTEX
  8
0
 10
18.4875915851349
 20
41.4402746556947
 42
0.0
  0
VERTEX
  8
0
 10
18.6412032874812
 20
41.2777752570058
 42
0.0
  0
VERTEX
  8
0
 10
18.6849707759764
 20
41.2409354063163
 42
0.0
  0
VERTEX
  8
0
 10
18.8138141060379
 20
41.1333259664391
 42
0.0
  0
VERTEX
  8
0
 10
19.000011111299
 20
41.0090035676054
 42
0.0
  0
VERTEX
  8
0
 10
19.1994664185415
 20
40.9051960754635
 42
0.0
  0
VERTEX
  8
0
 10
19.408931245651
 20
40.8261415894427
 42
0.0
  0
VERTEX
  8
0
 10
19.6272114826331
 20
40.7704985055324
 42
0.0
  0
VERTEX
  8
0
 10
19.8494297089572
 20
40.7381357780614
 42
0.0
  0
VERTEX
  8
0
 10
20.0747525960427
 20
40.7320072011113
 42
0.0
  0
VERTEX
  8
0
 10
20.2972725557264
 20
40.750446117521
 42
0.0
  0
VERTEX
  8
0
 10
20.5181536328848
 20
40.7944361814601
 42
0.0
  0
VERTEX
  8
0
 10
20.7321303920284
 20
40.8635184625341
 42
0.0
  0
VERTEX
  8
0
 10
20.9364566633276
 20
40.9550398178397
 42
0.0
  0
VERTEX
  8
0
 10
20.9952761167634
 20
40.9901121569335
 42
0.0
  0
VERTEX
  8
0
 10
21.1307444318236
 20
41.0686723626535
 42
0.0
  0
VERTEX
  8
0
 10
21.3083265277806
 20
41.2044353768934
 42
0.0
  0
VERTEX
  8
0
 10
21.4727796180363
 20
41.3577027461713
 42
0.0
  0
VERTEX
  8
0
 10
21.6174229160823
 20
41.5304775070895
 42
0.0
  0
VERTEX
  8
0
 10
21.7427153523131
 20
41.7174942241588
 42
0.0
  0
VERTEX
  8
0
 10
21.845552807058
 20
41.9161298195932
 42
0.0
  0
VERTEX
  8
0
 10
21.9255773304758
 20
42.1264143585107
 42
0.0
  0
VERTEX
  8
0
 10
21.9820401261942
 20
42.3437245580957
 42
0.0
  0
VERTEX
  8
0
 10
22.0124190969807
 20
42.5659291676473
 42
0.0
  0
VERTEX
  8
0
 10
22.0187416814101
 20
42.7914159970944
 42
0.0
  0
VERTEX
  8
0
 10
22.0034358676074
 20
42.9696948389345
 42
0.0
  0
VERTEX
  8
0
 10
21.9993191108308
 20
43.0151000016546
 42
0.0
  0
VERTEX
  8
0
 10
21.9551486561849
 20
43.2338333797668
 42
0.0
  0
VERTEX
  8
0
 10
21.8872304199873
 20
43.4487937930801
 42
0.0
  0
VERTEX
  8
0
 10
21.7957090646817
 20
43.6531200643793
 42
0.0
  0
VERTEX
  8
0
 10
21.7099353950509
 20
43.7971247085338
 42
0.0
  0
SEQEND
  0
POLYLINE
  8
0
 66
     1
 10
0.0
 20
0.0
 30
0.0
 70
     1
  0
VERTEX
  8
0
 10
6.5233822438148
 20
36.024667147346
 42
0.0
  0
VERTEX
  8
0
 10
6.387081377636
 20
36.0664493824101
 42
0.0
  0
VERTEX
  8
0
 10
6.3087259698842
 20
36.0886932949708
 42
0.0
  0
VERTEX
  8
0
 10
6.25298948598
 20
36.0991243216869
 42
0.0
  0
VERTEX
  8
0
 10
6.0872749162697
 20
36.1286877287565
 42
0.0
  0
VERTEX
  8
0
 10
5.8636417014168
 20
36.1435600967257
 42
0.0
  0
VERTEX
  8
0
 10
5.6396742767746
 20
36.1332092559978
 42
0.0
  0
VERTEX
  8
0
 10
5.4177124208768
 20
36.096952041254
 42
0.0
  0
VERTEX
  8
0
 10
5.2003820430819
 20
36.0360097960337
 42
0.0
  0
VERTEX
  8
0
 10
4.9928767598629
 20
35.9527760247074
 42
0.0
  0
VERTEX
  8
0
 10
4.7951131842526
 20
35.8451849994098
 42
0.0
  0
VERTEX
  8
0
 10
4.6103370251327
 20
35.7179747085004
 42
0.0
  0
VERTEX
  8
0
 10
4.4415632312314
 20
35.5697023509789
 42
0.0
  0
VERTEX
  8
0
 10
4.2916262397398
 20
35.4034282022984
 42
0.0
  0
VERTEX
  8
0
 10
4.2804884032595
 20
35.3867004182689
 42
0.0
  0
VERTEX
  8
0
 10
4.159895465935
 20
35.2219448375334
 42
0.0
  0
VERTEX
  8
0
 10
4.0496719893697
 20
35.0257139645419
 42
0.0
  0
VERTEX
  8
0
 10
3.9619674805095
 20
34.8199135468143
 42
0.0
  0
VERTEX
  8
0
 10
3.8969652824641
 20
34.6043659711075
 42
0.0
  0
VERTEX
  8
0
 10
3.8578529018711
 20
34.3837600430725
 42
0.0
  0
VERTEX
  8
0
 10
3.8438494284184
 20
34.1590985885787
 42
0.0
  0
VERTEX
  8
0
 10
3.8478981643917
 20
34.0667472590484
 42
0.0
  0
VERTEX
  8
0
 10
3.8544076643502
 20
33.935239910566
 42
0.0
  0
VERTEX
  8
0
 10
3.8895915958854
 20
33.7142333426637
 42
0.0
  0
VERTEX
  8
0
 10
3.9486203127121
 20
33.4970817107411
 42
0.0
  0
VERTEX
  8
0
 10
4.0338616096599
 20
33.2894438578465
 42
0.0
  0
VERTEX
  8
0
 10
4.1395688885244
 20
33.0917844316285
 42
0.0
  0
VERTEX
  8
0
 10
4.2687017273628
 20
32.9069369115886
 42
0.0
  0
VERTEX
  8
0
 10
4.4178367373291
 20
32.7389918490307
 42
0.0
  0
VERTEX
  8
0
 10
4.5832004125336
 20
32.5880859527711
 42
0.0
  0
VERTEX
  8
0
 10
4.7655901116337
 20
32.4555581034662
 42
0.0
  0
VERTEX
  8
0
 10
4.9597820322087
 20
32.3453076224039
 42
0.0
  0
VERTEX
  8
0
 10
4.9767629295423
 20
32.3380416572302
 42
0.0
  0
VERTEX
  8
0
 10
5.1675183855896
 20
32.2574765568917
 42
0.0
  0
VERTEX
  8
0
 10
5.38137434846
 20
32.1944368409001
 42
0.0
  0
VERTEX
  8
0
 10
5.6028060013267
 20
32.1544260128782
 42
0.0
  0
VERTEX
  8
0
 10
5.8264392161795
 20
32.1395536449091
 42
0.0
  0
VERTEX
  8
0
 10
6.0512457533777
 20
32.1489508424761
 42
0.0
  0
VERTEX
  8
0
 10
6.2723684967195
 20
32.1861617003808
 42
0.0
  0
VERTEX
  8
0
 10
6.4897182752623
 20
32.2471203398372
 42
0.0
  0
VERTEX
  8
0
 10
6.6972041577334
 20
32.3303377169273
 42
0.0
  0
VERTEX
  8
0
 10
6.8109387547043
 20
32.3921949734629
 42
0.0
  0
VERTEX
  8
0
 10
6.8949677333437
 20
32.4379287422249
 42
0.0
  0
VERTEX
  8
0
 10
7.079579950102
 20
32.5653330406138
 42
0.0
  0
VERTEX
  8
0
 10
7.2474700459761
 20
32.7125261019032
 42
0.0
  0
VERTEX
  8
0
 10
7.3993131911604
 20
32.8787482904116
 42
0.0
  0
VERTEX
  8
0
 10
7.5300215092997
 20
33.0613629115808
 42
0.0
  0
VERTEX
  8
0
 10
7.6404089282266
 20
33.2573997770929
 42
0.0
  0
VERTEX
  8
0
 10
7.7281134370868
 20
33.4632001948204
 42
0.0
  0
VERTEX
  8
0
 10
7.7931350358802
 20
33.6787641647634
 42
0.0
  0
VERTEX
  8
0
 10
7.8322280157252
 20
33.8993536985623
 42
0.0
  0
VERTEX
  8
0
 10
7.8462314891779
 20
34.1240151530561
 42
0.0
  0
VERTEX
  8
0
 10
7.8356926539941
 20
34.3478902253049
 42
0.0
  0
VERTEX
  8
0
 10
7.836003969542
 20
34.35181127932
 42
0.0
  0
VERTEX
  8
0
 10
7.8004893217109
 20
34.568880398971
 42
0.0
  0
VERTEX
  8
0
 10
7.7404129644954
 20
34.7851467421409
 42
0.0
  0
VERTEX
  8
0
 10
7.6562193079365
 20
34.9936698837883
 42
0.0
  0
VERTEX
  8
0
 10
7.549464388683
 20
35.1904440212535
 42
0.0
  0
VERTEX
  8
0
 10
7.4203315498447
 20
35.3752915412934
 42
0.0
  0
VERTEX
  8
0
 10
7.2730832928232
 20
35.5431682494432
 42
0.0
  0
VERTEX
  8
0
 10
7.1068805050627
 20
35.6950277888636
 42
0.0
  0
VERTEX
  8
0
 10
6.9253105177706
 20
35.8265856007715
 42
0.0
  0
VERTEX
  8
0
 10
6.7303182861356
 20
35.937822513467
 42
0.0
  0
SEQEND
  0
ENDSEC
  0
EOF
