  0
SECTION
  2
HEADER
  9
$ACADVER
  1
AC1009
  9
$EXTMAX
 10
33.0149192810059
 20
134.466079711914
 30
0.0
  9
$EXTMIN
 10
1.0004577636719
 20
1.1451488733292
 30
0.0
  9
$INSUNITS
 70
     4
  9
$LUNITS
 70
     2
  9
$LUPREC
 70
     4
  9
$MEASUREMENT
 70
     1
  0
ENDSEC
  0
SECTION
  2
TABLES
  0
TABLE
  2
LAYER
 70
     1
  0
LAYER
  2
0
 70
     0
 62
     7
  6
Continuous
  0
ENDTAB
  0
TABLE
  2
APPID
 70
     1
  0
APPID
  2
ACAD
 70
     0
  0
ENDTAB
  0
ENDSEC
  0
SECTION
  2
ENTITIES
  0
POLYLINE
  8
0
 66
     1
 10
0.0
 20
0.0
 30
0.0
 70
     1
  0
VERTEX
  8
0
 10
18.5553096
 20
90.512138
 42
0.0
  0
VERTEX
  8
0
 10
18.5621676
 20
90.510868
 42
0.0
  0
VERTEX
  8
0
 10
18.6379612
 20
90.491818
 42
0.0
  0
VERTEX
  8
0
 10
18.6503818
 20
90.489024
 42
0.0
  0
VERTEX
  8
0
 10
18.6917076
 20
90.491818
 42
0.0
  0
VERTEX
  8
0
 10
18.957671
 20
90.510868
 42
0.0
  0
VERTEX
  8
0
 10
19.1809116
 20
90.525854
 42
0.0
  0
VERTEX
  8
0
 10
19.187795
 20
90.528902
 42
0.0
  0
VERTEX
  8
0
 10
19.2911476
 20
90.571574
 42
0.0
  0
VERTEX
  8
0
 10
19.6756274
 20
90.726006
 42
0.0
  0
VERTEX
  8
0
 10
19.6825362
 20
90.73261
 42
0.0
  0
VERTEX
  8
0
 10
19.6852794
 20
90.734134
 42
0.0
  0
VERTEX
  8
0
 10
20.000849
 20
90.998802
 42
0.0
  0
VERTEX
  8
0
 10
20.0725024
 20
91.059254
 42
0.0
  0
VERTEX
  8
0
 10
20.083526
 20
91.06789
 42
0.0
  0
VERTEX
  8
0
 10
20.2365102
 20
91.314524
 42
0.0
  0
VERTEX
  8
0
 10
20.3646532
 20
91.519756
 42
0.0
  0
VERTEX
  8
0
 10
20.3674218
 20
91.530678
 42
0.0
  0
VERTEX
  8
0
 10
20.4914246
 20
92.02801
 42
0.0
  0
VERTEX
  8
0
 10
20.4927962
 20
92.035122
 42
0.0
  0
VERTEX
  8
0
 10
20.4914246
 20
92.064078
 42
0.0
  0
VERTEX
  8
0
 10
20.4556106
 20
92.568268
 42
0.0
  0
VERTEX
  8
0
 10
20.4528674
 20
92.57665
 42
0.0
  0
VERTEX
  8
0
 10
20.4170026
 20
92.664788
 42
0.0
  0
VERTEX
  8
0
 10
20.2571604
 20
93.060266
 42
0.0
  0
VERTEX
  8
0
 10
20.2530456
 20
93.064584
 42
0.0
  0
VERTEX
  8
0
 10
20.2365102
 20
93.084904
 42
0.0
  0
VERTEX
  8
0
 10
19.9154034
 20
93.46819
 42
0.0
  0
VERTEX
  8
0
 10
19.9140318
 20
93.46946
 42
0.0
  0
VERTEX
  8
0
 10
19.9126602
 20
93.472254
 42
0.0
  0
VERTEX
  8
0
 10
19.6825362
 20
93.61424
 42
0.0
  0
VERTEX
  8
0
 10
19.6343016
 20
93.644466
 42
0.0
  0
VERTEX
  8
0
 10
19.4606672
 20
93.753432
 42
0.0
  0
VERTEX
  8
0
 10
18.9438788
 20
93.882972
 42
0.0
  0
VERTEX
  8
0
 10
18.4119774
 20
93.844618
 42
0.0
  0
VERTEX
  8
0
 10
17.9186332
 20
93.64599
 42
0.0
  0
VERTEX
  8
0
 10
17.9172616
 20
93.644466
 42
0.0
  0
VERTEX
  8
0
 10
17.7064162
 20
93.466666
 42
0.0
  0
VERTEX
  8
0
 10
17.5107346
 20
93.304106
 42
0.0
  0
VERTEX
  8
0
 10
17.2833538
 20
92.938854
 42
0.0
  0
VERTEX
  8
0
 10
17.2296074
 20
92.85224
 42
0.0
  0
VERTEX
  8
0
 10
17.1827444
 20
92.664788
 42
0.0
  0
VERTEX
  8
0
 10
17.1014644
 20
92.343732
 42
0.0
  0
VERTEX
  8
0
 10
17.1000928
 20
92.33535
 42
0.0
  0
VERTEX
  8
0
 10
17.1014644
 20
92.306394
 42
0.0
  0
VERTEX
  8
0
 10
17.1069762
 20
92.23756
 42
0.0
  0
VERTEX
  8
0
 10
17.1014644
 20
92.218256
 42
0.0
  0
VERTEX
  8
0
 10
17.1359068
 20
91.726512
 42
0.0
  0
VERTEX
  8
0
 10
17.3191932
 20
91.270328
 42
0.0
  0
VERTEX
  8
0
 10
17.6347628
 20
90.89136
 42
0.0
  0
VERTEX
  8
0
 10
18.0523134
 20
90.630756
 42
0.0
  0
VERTEX
  8
0
 10
18.5304684
 20
90.510868
 42
0.0
  0
SEQEND
  0
POLYLINE
  8
0
 66
     1
 10
0.0
 20
0.0
 30
0.0
 70
     1
  0
VERTEX
  8
0
 10
29.875988
 20
27.799284
 42
0.0
  0
VERTEX
  8
0
 10
29.70911
 20
19.1161416
 42
0.0
  0
VERTEX
  8
0
 10
29.702252
 20
18.7729876
 42
0.0
  0
VERTEX
  8
0
 10
30.844744
 20
15.0151084
 42
0.0
  0
VERTEX
  8
0
 10
33.01492
 20
7.8713584
 42
0.0
  0
VERTEX
  8
0
 10
29.557472
 20
5.4584346
 42
0.0
  0
VERTEX
  8
0
 10
23.3742738
 20
1.14514884
 42
0.0
  0
VERTEX
  8
0
 10
21.7688668
 20
2.35920026
 42
0.0
  0
VERTEX
  8
0
 10
18.1887368
 20
5.0656744
 42
0.0
  0
VERTEX
  8
0
 10
16.871315
 20
4.2691812
 42
0.0
  0
VERTEX
  8
0
 10
15.6517594
 20
5.0739294
 42
0.0
  0
VERTEX
  8
0
 10
13.0555238
 20
3.2631888
 42
0.0
  0
VERTEX
  8
0
 10
10.3766366
 20
1.39319762
 42
0.0
  0
VERTEX
  8
0
 10
5.2214018
 20
5.2916582
 42
0.0
  0
VERTEX
  8
0
 10
1.00045774
 20
8.4845906
 42
0.0
  0
VERTEX
  8
0
 10
4.475861
 20
18.5222134
 42
0.0
  0
VERTEX
  8
0
 10
4.5999146
 20
18.8804804
 42
0.0
  0
VERTEX
  8
0
 10
4.7804324
 20
28.281376
 42
0.0
  0
VERTEX
  8
0
 10
7.6356972
 20
30.008068
 42
0.0
  0
VERTEX
  8
0
 10
8.5259418
 20
30.547056
 42
0.0
  0
VERTEX
  8
0
 10
8.5879432
 20
31.224982
 42
0.0
  0
VERTEX
  8
0
 10
8.6223856
 20
31.610808
 42
0.0
  0
VERTEX
  8
0
 10
9.0123772
 20
36.358322
 42
0.0
  0
VERTEX
  8
0
 10
9.3734128
 20
41.255696
 42
0.0
  0
VERTEX
  8
0
 10
9.7055178
 20
46.302168
 42
0.0
  0
VERTEX
  8
0
 10
9.7813368
 20
47.60849
 42
0.0
  0
VERTEX
  8
0
 10
10.0086922
 20
51.497484
 42
0.0
  0
VERTEX
  8
0
 10
10.200259
 20
55.18785
 42
0.0
  0
VERTEX
  8
0
 10
10.2857046
 20
56.839866
 42
0.0
  0
VERTEX
  8
0
 10
10.532364
 20
62.332616
 42
0.0
  0
VERTEX
  8
0
 10
10.743184
 20
67.781678
 42
0.0
  0
VERTEX
  8
0
 10
10.9126782
 20
73.091294
 42
0.0
  0
VERTEX
  8
0
 10
11.0436152
 20
78.264512
 42
0.0
  0
VERTEX
  8
0
 10
11.0808262
 20
80.376776
 42
0.0
  0
VERTEX
  8
0
 10
11.1331756
 20
83.29676
 42
0.0
  0
VERTEX
  8
0
 10
11.1813848
 20
88.191594
 42
0.0
  0
VERTEX
  8
0
 10
11.1896906
 20
92.94876
 42
0.0
  0
VERTEX
  8
0
 10
11.1758984
 20
94.991174
 42
0.0
  0
VERTEX
  8
0
 10
11.166221
 20
96.444816
 42
0.0
  0
VERTEX
  8
0
 10
11.1634778
 20
96.760284
 42
0.0
  0
VERTEX
  8
0
 10
11.157966
 20
97.611946
 42
0.0
  0
VERTEX
  8
0
 10
11.0794546
 20
102.129082
 42
0.0
  0
VERTEX
  8
0
 10
10.9526578
 20
106.498898
 42
0.0
  0
VERTEX
  8
0
 10
10.780395
 20
110.72241
 42
0.0
  0
VERTEX
  8
0
 10
10.650855
 20
113.145316
 42
0.0
  0
VERTEX
  8
0
 10
10.5626662
 20
114.800126
 42
0.0
  0
VERTEX
  8
0
 10
10.5598976
 20
114.840004
 42
0.0
  0
VERTEX
  8
0
 10
10.2967028
 20
118.730522
 42
0.0
  0
VERTEX
  8
0
 10
9.986645
 20
122.568462
 42
0.0
  0
VERTEX
  8
0
 10
9.7303082
 20
125.193552
 42
0.0
  0
VERTEX
  8
0
 10
9.7702878
 20
125.239018
 42
0.0
  0
VERTEX
  8
0
 10
9.8515932
 20
125.33249
 42
0.0
  0
VERTEX
  8
0
 10
9.9080828
 20
125.39726
 42
0.0
  0
VERTEX
  8
0
 10
13.1437126
 20
129.10566
 42
0.0
  0
VERTEX
  8
0
 10
14.8442172
 20
131.055618
 42
0.0
  0
VERTEX
  8
0
 10
17.8193954
 20
134.466076
 42
0.0
  0
VERTEX
  8
0
 10
22.6907598
 20
130.217672
 42
0.0
  0
VERTEX
  8
0
 10
23.1813354
 20
129.790444
 42
0.0
  0
VERTEX
  8
0
 10
28.659074
 20
125.011434
 42
0.0
  0
VERTEX
  8
0
 10
28.731972
 20
124.946918
 42
0.0
  0
VERTEX
  8
0
 10
28.813506
 20
124.876306
 42
0.0
  0
VERTEX
  8
0
 10
28.852114
 20
124.842016
 42
0.0
  0
VERTEX
  8
0
 10
28.49372
 20
122.212862
 42
0.0
  0
VERTEX
  8
0
 10
28.036266
 20
118.390162
 42
0.0
  0
VERTEX
  8
0
 10
27.720544
 20
115.420394
 42
0.0
  0
VERTEX
  8
0
 10
27.61996
 20
114.472212
 42
0.0
  0
VERTEX
  8
0
 10
27.497278
 20
113.145316
 42
0.0
  0
VERTEX
  8
0
 10
27.24531
 20
110.407196
 42
0.0
  0
VERTEX
  8
0
 10
26.910284
 20
106.193082
 42
0.0
  0
VERTEX
  8
0
 10
26.616914
 20
101.830124
 42
0.0
  0
VERTEX
  8
0
 10
26.364692
 20
97.319846
 42
0.0
  0
VERTEX
  8
0
 10
26.3398
 20
96.760284
 42
0.0
  0
VERTEX
  8
0
 10
26.326084
 20
96.470978
 42
0.0
  0
VERTEX
  8
0
 10
26.152348
 20
92.660724
 42
0.0
  0
VERTEX
  8
0
 10
25.978866
 20
87.907876
 42
0.0
  0
VERTEX
  8
0
 10
25.839674
 20
83.014312
 42
0.0
  0
VERTEX
  8
0
 10
25.785826
 20
80.376776
 42
0.0
  0
VERTEX
  8
0
 10
25.778968
 20
80.03794
 42
0.0
  0
VERTEX
  8
0
 10
25.736296
 20
77.98181
 42
0.0
  0
VERTEX
  8
0
 10
25.667208
 20
72.808846
 42
0.0
  0
VERTEX
  8
0
 10
25.634188
 20
67.496182
 42
0.0
  0
VERTEX
  8
0
 10
25.635712
 20
62.04204
 42
0.0
  0
VERTEX
  8
0
 10
25.671526
 20
56.544972
 42
0.0
  0
VERTEX
  8
0
 10
25.719786
 20
52.907184
 42
0.0
  0
VERTEX
  8
0
 10
25.741884
 20
51.193954
 42
0.0
  0
VERTEX
  8
0
 10
25.813512
 20
47.60849
 42
0.0
  0
VERTEX
  8
0
 10
25.846532
 20
45.992034
 42
0.0
  0
VERTEX
  8
0
 10
25.93594
 20
42.713656
 42
0.0
  0
VERTEX
  8
0
 10
25.978866
 20
41.104312
 42
0.0
  0
VERTEX
  8
0
 10
25.9842
 20
40.93591
 42
0.0
  0
VERTEX
  8
0
 10
26.156412
 20
36.028884
 42
0.0
  0
VERTEX
  8
0
 10
26.363168
 20
31.269178
 42
0.0
  0
VERTEX
  8
0
 10
26.365962
 20
31.224982
 42
0.0
  0
VERTEX
  8
0
 10
26.425398
 20
30.072838
 42
0.0
  0
VERTEX
  8
0
 10
27.194256
 20
29.565854
 42
0.0
  0
VERTEX
  8
0
 10
28.409646
 20
28.765246
 42
0.0
  0
VERTEX
  8
0
 10
29.521658
 20
28.033472
 42
0.0
  0
SEQEND
  0
POLYLINE
  8
0
 66
     1
 10
0.0
 20
0.0
 30
0.0
 70
     1
  0
VERTEX
  8
0
 10
13.4000494
 20
19.4289426
 42
0.0
  0
VERTEX
  8
0
 10
13.3132322
 20
18.9369954
 42
0.0
  0
VERTEX
  8
0
 10
13.3091174
 20
18.912205
 42
0.0
  0
VERTEX
  8
0
 10
13.2884418
 20
18.3513222
 42
0.0
  0
VERTEX
  8
0
 10
13.3476746
 20
17.7918618
 42
0.0
  0
VERTEX
  8
0
 10
13.4344918
 20
17.4459646
 42
0.0
  0
VERTEX
  8
0
 10
13.4496556
 20
17.3825662
 42
0.0
  0
VERTEX
  8
0
 10
13.4841234
 20
17.2461428
 42
0.0
  0
VERTEX
  8
0
 10
13.5736838
 20
17.0215306
 42
0.0
  0
VERTEX
  8
0
 10
13.660501
 20
16.8092882
 42
0.0
  0
VERTEX
  8
0
 10
13.6935718
 20
16.725265
 42
0.0
  0
VERTEX
  8
0
 10
13.7817606
 20
16.5736778
 42
0.0
  0
VERTEX
  8
0
 10
13.9237212
 20
16.3270184
 42
0.0
  0
VERTEX
  8
0
 10
13.9760706
 20
16.2374072
 42
0.0
  0
VERTEX
  8
0
 10
14.0959332
 20
16.0830768
 42
0.0
  0
VERTEX
  8
0
 10
14.2902432
 20
15.8350204
 42
0.0
  0
VERTEX
  8
0
 10
14.3219678
 20
15.7950662
 42
0.0
  0
VERTEX
  8
0
 10
14.7257262
 20
15.4037284
 42
0.0
  0
VERTEX
  8
0
 10
15.1804878
 20
15.0743666
 42
0.0
  0
VERTEX
  8
0
 10
15.2920954
 20
15.0151084
 42
0.0
  0
VERTEX
  8
0
 10
15.6172916
 20
14.8401024
 42
0.0
  0
VERTEX
  8
0
 10
15.6779468
 20
14.8084032
 42
0.0
  0
VERTEX
  8
0
 10
16.2057334
 20
14.6168618
 42
0.0
  0
VERTEX
  8
0
 10
16.7555672
 20
14.4997424
 42
0.0
  0
VERTEX
  8
0
 10
17.3164246
 20
14.4611344
 42
0.0
  0
VERTEX
  8
0
 10
17.878679
 20
14.4997424
 42
0.0
  0
VERTEX
  8
0
 10
18.0674518
 20
14.5396712
 42
0.0
  0
VERTEX
  8
0
 10
18.4285128
 20
14.6168618
 42
0.0
  0
VERTEX
  8
0
 10
18.957671
 20
14.8084032
 42
0.0
  0
VERTEX
  8
0
 10
19.0169546
 20
14.8401024
 42
0.0
  0
VERTEX
  8
0
 10
19.3421254
 20
15.0151084
 42
0.0
  0
VERTEX
  8
0
 10
19.4523868
 20
15.0743666
 42
0.0
  0
VERTEX
  8
0
 10
19.6825362
 20
15.2410922
 42
0.0
  0
VERTEX
  8
0
 10
19.90852
 20
15.4037284
 42
0.0
  0
VERTEX
  8
0
 10
20.0297796
 20
15.5208478
 42
0.0
  0
VERTEX
  8
0
 10
20.31365
 20
15.7950662
 42
0.0
  0
VERTEX
  8
0
 10
20.4101446
 20
15.9190944
 42
0.0
  0
VERTEX
  8
0
 10
20.6595472
 20
16.2374072
 42
0.0
  0
VERTEX
  8
0
 10
20.7615282
 20
16.4165788
 42
0.0
  0
VERTEX
  8
0
 10
20.9406744
 20
16.725265
 42
0.0
  0
VERTEX
  8
0
 10
21.045424
 20
16.9843196
 42
0.0
  0
VERTEX
  8
0
 10
21.1514944
 20
17.2461428
 42
0.0
  0
VERTEX
  8
0
 10
21.264499
 20
17.702276
 42
0.0
  0
VERTEX
  8
0
 10
21.2865462
 20
17.7918618
 42
0.0
  0
VERTEX
  8
0
 10
21.3458044
 20
18.3513222
 42
0.0
  0
VERTEX
  8
0
 10
21.3334346
 20
18.7013596
 42
0.0
  0
VERTEX
  8
0
 10
21.3265004
 20
18.912205
 42
0.0
  0
VERTEX
  8
0
 10
21.3223856
 20
18.9369954
 42
0.0
  0
VERTEX
  8
0
 10
21.2617304
 20
19.2773554
 42
0.0
  0
VERTEX
  8
0
 10
21.2617304
 20
19.2787524
 42
0.0
  0
VERTEX
  8
0
 10
21.228685
 20
19.466179
 42
0.0
  0
VERTEX
  8
0
 10
21.0550506
 20
20.0022206
 42
0.0
  0
VERTEX
  8
0
 10
20.8083912
 20
20.5065884
 42
0.0
  0
VERTEX
  8
0
 10
20.4941932
 20
20.9737198
 42
0.0
  0
VERTEX
  8
0
 10
20.1179684
 20
21.3912704
 42
0.0
  0
VERTEX
  8
0
 10
19.686651
 20
21.7523568
 42
0.0
  0
VERTEX
  8
0
 10
19.6825362
 20
21.7551
 42
0.0
  0
VERTEX
  8
0
 10
19.2098422
 20
22.049994
 42
0.0
  0
VERTEX
  8
0
 10
18.8391546
 20
22.216745
 42
0.0
  0
VERTEX
  8
0
 10
18.6958478
 20
22.2801434
 42
0.0
  0
VERTEX
  8
0
 10
18.1556406
 20
22.4344738
 42
0.0
  0
VERTEX
  8
0
 10
17.5989234
 20
22.5130106
 42
0.0
  0
VERTEX
  8
0
 10
17.0366944
 20
22.5130106
 42
0.0
  0
VERTEX
  8
0
 10
16.4785548
 20
22.4344738
 42
0.0
  0
VERTEX
  8
0
 10
15.9383984
 20
22.2801434
 42
0.0
  0
VERTEX
  8
0
 10
15.5869894
 20
22.123019
 42
0.0
  0
VERTEX
  8
0
 10
15.424404
 20
22.049994
 42
0.0
  0
VERTEX
  8
0
 10
14.9475952
 20
21.7523568
 42
0.0
  0
VERTEX
  8
0
 10
14.517624
 20
21.3912704
 42
0.0
  0
VERTEX
  8
0
 10
14.1414246
 20
20.9737198
 42
0.0
  0
VERTEX
  8
0
 10
13.8272266
 20
20.5065884
 42
0.0
  0
VERTEX
  8
0
 10
13.5805672
 20
20.0022206
 42
0.0
  0
VERTEX
  8
0
 10
13.4055612
 20
19.466179
 42
0.0
  0
SEQEND
  0
POLYLINE
  8
0
 66
     1
 10
0.0
 20
0.0
 30
0.0
 70
     1
  0
VERTEX
  8
0
 10
13.0555238
 20
22.7334826
 42
0.0
  0
VERTEX
  8
0
 10
13.3132322
 20
22.9760272
 42
0.0
  0
VERTEX
  8
0
 10
13.3724904
 20
23.0325422
 42
0.0
  0
VERTEX
  8
0
 10
13.375259
 20
23.0352854
 42
0.0
  0
VERTEX
  8
0
 10
13.5144256
 20
23.2103168
 42
0.0
  0
VERTEX
  8
0
 10
13.539216
 20
23.2640378
 42
0.0
  0
VERTEX
  8
0
 10
13.5626602
 20
23.3178096
 42
0.0
  0
VERTEX
  8
0
 10
13.6094978
 20
23.4211368
 42
0.0
  0
VERTEX
  8
0
 10
13.6494774
 20
23.6319822
 42
0.0
  0
VERTEX
  8
0
 10
13.6563354
 20
23.6664246
 42
0.0
  0
VERTEX
  8
0
 10
13.6535922
 20
23.9392968
 42
0.0
  0
VERTEX
  8
0
 10
13.6026144
 20
24.2314222
 42
0.0
  0
VERTEX
  8
0
 10
13.5447278
 20
24.41194
 42
0.0
  0
VERTEX
  8
0
 10
13.539216
 20
24.431244
 42
0.0
  0
VERTEX
  8
0
 10
13.504799
 20
24.5373652
 42
0.0
  0
VERTEX
  8
0
 10
13.3903974
 20
24.7867678
 42
0.0
  0
VERTEX
  8
0
 10
13.3614668
 20
24.8487946
 42
0.0
  0
VERTEX
  8
0
 10
13.2236718
 20
25.0803156
 42
0.0
  0
VERTEX
  8
0
 10
13.1768088
 20
25.1574554
 42
0.0
  0
VERTEX
  8
0
 10
13.0555238
 20
25.3214378
 42
0.0
  0
VERTEX
  8
0
 10
12.9549398
 20
25.457912
 42
0.0
  0
VERTEX
  8
0
 10
12.7013716
 20
25.73909
 42
0.0
  0
VERTEX
  8
0
 10
12.0495822
 20
26.4033
 42
0.0
  0
VERTEX
  8
0
 10
11.7725952
 20
26.66238
 42
0.0
  0
VERTEX
  8
0
 10
11.4914426
 20
26.877264
 42
0.0
  0
VERTEX
  8
0
 10
11.4749072
 20
26.88971
 42
0.0
  0
VERTEX
  8
0
 10
11.204829
 20
27.059128
 42
0.0
  0
VERTEX
  8
0
 10
11.1676434
 20
27.082496
 42
0.0
  0
VERTEX
  8
0
 10
11.0725204
 20
27.127962
 42
0.0
  0
VERTEX
  8
0
 10
10.9140752
 20
27.205178
 42
0.0
  0
VERTEX
  8
0
 10
10.8547916
 20
27.234134
 42
0.0
  0
VERTEX
  8
0
 10
10.6426
 20
27.307286
 42
0.0
  0
VERTEX
  8
0
 10
10.5475024
 20
27.340306
 42
0.0
  0
VERTEX
  8
0
 10
10.3890318
 20
27.373326
 42
0.0
  0
VERTEX
  8
0
 10
10.2526084
 20
27.401012
 42
0.0
  0
VERTEX
  8
0
 10
10.12444
 20
27.406346
 42
0.0
  0
VERTEX
  8
0
 10
9.975596
 20
27.411934
 42
0.0
  0
VERTEX
  8
0
 10
9.7248218
 20
27.37485
 42
0.0
  0
VERTEX
  8
0
 10
9.505696
 20
27.289252
 42
0.0
  0
VERTEX
  8
0
 10
9.3238066
 20
27.158442
 42
0.0
  0
VERTEX
  8
0
 10
9.2921074
 20
27.127962
 42
0.0
  0
VERTEX
  8
0
 10
9.1570556
 20
26.999946
 42
0.0
  0
VERTEX
  8
0
 10
8.9297002
 20
26.784808
 42
0.0
  0
VERTEX
  8
0
 10
8.9117678
 20
26.762964
 42
0.0
  0
VERTEX
  8
0
 10
8.7905082
 20
26.611326
 42
0.0
  0
VERTEX
  8
0
 10
8.7147146
 20
26.440384
 42
0.0
  0
VERTEX
  8
0
 10
8.6954106
 20
26.398982
 42
0.0
  0
VERTEX
  8
0
 10
8.6485476
 20
26.153872
 42
0.0
  0
VERTEX
  8
0
 10
8.6499446
 20
26.104088
 42
0.0
  0
VERTEX
  8
0
 10
8.6499446
 20
25.944322
 42
0.0
  0
VERTEX
  8
0
 10
8.6513162
 20
25.882346
 42
0.0
  0
VERTEX
  8
0
 10
8.7023194
 20
25.588722
 42
0.0
  0
VERTEX
  8
0
 10
8.8001348
 20
25.2828806
 42
0.0
  0
VERTEX
  8
0
 10
8.8469978
 20
25.1795026
 42
0.0
  0
VERTEX
  8
0
 10
8.8924638
 20
25.0803156
 42
0.0
  0
VERTEX
  8
0
 10
8.9434924
 20
24.9714512
 42
0.0
  0
VERTEX
  8
0
 10
9.128125
 20
24.662765
 42
0.0
  0
VERTEX
  8
0
 10
9.3389704
 20
24.3788946
 42
0.0
  0
VERTEX
  8
0
 10
9.349994
 20
24.3623338
 42
0.0
  0
VERTEX
  8
0
 10
9.6035622
 20
24.0812066
 42
0.0
  0
VERTEX
  8
0
 10
10.2553516
 20
23.4169966
 42
0.0
  0
VERTEX
  8
0
 10
10.2760272
 20
23.396321
 42
0.0
  0
VERTEX
  8
0
 10
10.532364
 20
23.1592882
 42
0.0
  0
VERTEX
  8
0
 10
10.6976926
 20
23.0325422
 42
0.0
  0
VERTEX
  8
0
 10
10.8300012
 20
22.9305612
 42
0.0
  0
VERTEX
  8
0
 10
11.1386874
 20
22.7389944
 42
0.0
  0
VERTEX
  8
0
 10
11.4501168
 20
22.5860356
 42
0.0
  0
VERTEX
  8
0
 10
11.4914426
 20
22.5722688
 42
0.0
  0
VERTEX
  8
0
 10
11.5562126
 20
22.54885
 42
0.0
  0
VERTEX
  8
0
 10
11.757406
 20
22.4799398
 42
0.0
  0
VERTEX
  8
0
 10
12.0523254
 20
22.41931
 42
0.0
  0
VERTEX
  8
0
 10
12.330684
 20
22.408261
 42
0.0
  0
VERTEX
  8
0
 10
12.581509
 20
22.4454974
 42
0.0
  0
VERTEX
  8
0
 10
12.7992378
 20
22.5309176
 42
0.0
  0
VERTEX
  8
0
 10
12.9811272
 20
22.6632262
 42
0.0
  0
SEQEND
  0
POLYLINE
  8
0
 66
     1
 10
0.0
 20
0.0
 30
0.0
 70
     1
  0
VERTEX
  8
0
 10
21.3085934
 20
23.0780082
 42
0.0
  0
VERTEX
  8
0
 10
21.3402926
 20
23.0325422
 42
0.0
  0
VERTEX
  8
0
 10
21.3595966
 20
23.0063294
 42
0.0
  0
VERTEX
  8
0
 10
21.439505
 20
22.8960934
 42
0.0
  0
VERTEX
  8
0
 10
21.5594184
 20
22.7693474
 42
0.0
  0
VERTEX
  8
0
 10
21.7316812
 20
22.5888296
 42
0.0
  0
VERTEX
  8
0
 10
21.8129612
 20
22.5020124
 42
0.0
  0
VERTEX
  8
0
 10
21.8832684
 20
22.4454974
 42
0.0
  0
VERTEX
  8
0
 10
21.9865956
 20
22.362795
 42
0.0
  0
VERTEX
  8
0
 10
22.1988126
 20
22.2690944
 42
0.0
  0
VERTEX
  8
0
 10
22.3572832
 20
22.2387922
 42
0.0
  0
VERTEX
  8
0
 10
22.4441004
 20
22.2222568
 42
0.0
  0
VERTEX
  8
0
 10
22.7155756
 20
22.2236284
 42
0.0
  0
VERTEX
  8
0
 10
22.7555298
 20
22.2305118
 42
0.0
  0
VERTEX
  8
0
 10
23.0091234
 20
22.2732346
 42
0.0
  0
VERTEX
  8
0
 10
23.029799
 20
22.2801434
 42
0.0
  0
VERTEX
  8
0
 10
23.313644
 20
22.3710754
 42
0.0
  0
VERTEX
  8
0
 10
23.6264704
 20
22.5157538
 42
0.0
  0
VERTEX
  8
0
 10
23.7794546
 20
22.6067112
 42
0.0
  0
VERTEX
  8
0
 10
23.9351566
 20
22.6990656
 42
0.0
  0
VERTEX
  8
0
 10
24.2355624
 20
22.9223062
 42
0.0
  0
VERTEX
  8
0
 10
24.358219
 20
23.0325422
 42
0.0
  0
VERTEX
  8
0
 10
24.3623338
 20
23.0352854
 42
0.0
  0
VERTEX
  8
0
 10
24.5166896
 20
23.1744774
 42
0.0
  0
VERTEX
  8
0
 10
25.1795026
 20
23.8262922
 42
0.0
  0
VERTEX
  8
0
 10
25.438608
 20
24.1060224
 42
0.0
  0
VERTEX
  8
0
 10
25.457912
 20
24.1308128
 42
0.0
  0
VERTEX
  8
0
 10
25.667208
 20
24.4023134
 42
0.0
  0
VERTEX
  8
0
 10
25.811988
 20
24.6351806
 42
0.0
  0
VERTEX
  8
0
 10
25.858978
 20
24.7109996
 42
0.0
  0
VERTEX
  8
0
 10
26.010362
 20
25.0210574
 42
0.0
  0
VERTEX
  8
0
 10
26.03119
 20
25.0803156
 42
0.0
  0
VERTEX
  8
0
 10
26.06294
 20
25.1685044
 42
0.0
  0
VERTEX
  8
0
 10
26.118058
 20
25.3297182
 42
0.0
  0
VERTEX
  8
0
 10
26.17851
 20
25.624536
 42
0.0
  0
VERTEX
  8
0
 10
26.189686
 20
25.90165
 42
0.0
  0
VERTEX
  8
0
 10
26.152348
 20
26.152348
 42
0.0
  0
VERTEX
  8
0
 10
26.084784
 20
26.327354
 42
0.0
  0
VERTEX
  8
0
 10
26.067004
 20
26.37155
 42
0.0
  0
VERTEX
  8
0
 10
25.93467
 20
26.553414
 42
0.0
  0
VERTEX
  8
0
 10
25.847802
 20
26.64587
 42
0.0
  0
VERTEX
  8
0
 10
25.827228
 20
26.667714
 42
0.0
  0
VERTEX
  8
0
 10
25.569418
 20
26.93924
 42
0.0
  0
VERTEX
  8
0
 10
25.56256
 20
26.946098
 42
0.0
  0
VERTEX
  8
0
 10
25.3875794
 20
27.086814
 42
0.0
  0
VERTEX
  8
0
 10
25.2938788
 20
27.127962
 42
0.0
  0
VERTEX
  8
0
 10
25.1753878
 20
27.18181
 42
0.0
  0
VERTEX
  8
0
 10
24.9314716
 20
27.227276
 42
0.0
  0
VERTEX
  8
0
 10
24.6585994
 20
27.226006
 42
0.0
  0
VERTEX
  8
0
 10
24.366474
 20
27.176222
 42
0.0
  0
VERTEX
  8
0
 10
24.2190016
 20
27.127962
 42
0.0
  0
VERTEX
  8
0
 10
24.060531
 20
27.077162
 42
0.0
  0
VERTEX
  8
0
 10
23.7794546
 20
26.947622
 42
0.0
  0
VERTEX
  8
0
 10
23.7491016
 20
26.933652
 42
0.0
  0
VERTEX
  8
0
 10
23.4404154
 20
26.748994
 42
0.0
  0
VERTEX
  8
0
 10
23.140035
 20
26.527252
 42
0.0
  0
VERTEX
  8
0
 10
22.8575362
 20
26.27503
 42
0.0
  0
VERTEX
  8
0
 10
22.1946978
 20
25.623266
 42
0.0
  0
VERTEX
  8
0
 10
21.9356178
 20
25.343485
 42
0.0
  0
VERTEX
  8
0
 10
21.7330528
 20
25.0803156
 42
0.0
  0
VERTEX
  8
0
 10
21.7316812
 20
25.0775216
 42
0.0
  0
VERTEX
  8
0
 10
21.7082624
 20
25.0472194
 42
0.0
  0
VERTEX
  8
0
 10
21.56079
 20
24.8115582
 42
0.0
  0
VERTEX
  8
0
 10
21.5166956
 20
24.7426734
 42
0.0
  0
VERTEX
  8
0
 10
21.515324
 20
24.7385332
 42
0.0
  0
VERTEX
  8
0
 10
21.385784
 20
24.4725952
 42
0.0
  0
VERTEX
  8
0
 10
21.3637368
 20
24.4271038
 42
0.0
  0
VERTEX
  8
0
 10
21.3595966
 20
24.4160548
 42
0.0
  0
VERTEX
  8
0
 10
21.2576156
 20
24.1198146
 42
0.0
  0
VERTEX
  8
0
 10
21.2438488
 20
24.0564162
 42
0.0
  0
VERTEX
  8
0
 10
21.1969604
 20
23.8249206
 42
0.0
  0
VERTEX
  8
0
 10
21.1845906
 20
23.5479082
 42
0.0
  0
VERTEX
  8
0
 10
21.2204046
 20
23.3178096
 42
0.0
  0
VERTEX
  8
0
 10
21.2231732
 20
23.297134
 42
0.0
  0
SEQEND
  0
POLYLINE
  8
0
 66
     1
 10
0.0
 20
0.0
 30
0.0
 70
     1
  0
VERTEX
  8
0
 10
25.710134
 20
11.9861838
 42
0.0
  0
VERTEX
  8
0
 10
25.532334
 20
12.2893328
 42
0.0
  0
VERTEX
  8
0
 10
25.3104396
 20
12.5952504
 42
0.0
  0
VERTEX
  8
0
 10
25.1367798
 20
12.792329
 42
0.0
  0
VERTEX
  8
0
 10
25.056846
 20
12.883261
 42
0.0
  0
VERTEX
  8
0
 10
24.4050566
 20
13.5571484
 42
0.0
  0
VERTEX
  8
0
 10
24.1266726
 20
13.8203432
 42
0.0
  0
VERTEX
  8
0
 10
23.8304324
 20
14.0532104
 42
0.0
  0
VERTEX
  8
0
 10
23.7794546
 20
14.084935
 42
0.0
  0
VERTEX
  8
0
 10
23.61819
 20
14.1868906
 42
0.0
  0
VERTEX
  8
0
 10
23.5217462
 20
14.2475204
 42
0.0
  0
VERTEX
  8
0
 10
23.2103168
 20
14.4032478
 42
0.0
  0
VERTEX
  8
0
 10
23.0655876
 20
14.454251
 42
0.0
  0
VERTEX
  8
0
 10
22.9030022
 20
14.5121122
 42
0.0
  0
VERTEX
  8
0
 10
22.788626
 20
14.535531
 42
0.0
  0
VERTEX
  8
0
 10
22.6067112
 20
14.5727674
 42
0.0
  0
VERTEX
  8
0
 10
22.48408
 20
14.5768822
 42
0.0
  0
VERTEX
  8
0
 10
22.3297496
 20
14.5837656
 42
0.0
  0
VERTEX
  8
0
 10
22.0802962
 20
14.5452084
 42
0.0
  0
VERTEX
  8
0
 10
21.8612212
 20
14.4583912
 42
0.0
  0
VERTEX
  8
0
 10
21.763355
 20
14.3867378
 42
0.0
  0
VERTEX
  8
0
 10
21.7316812
 20
14.3632682
 42
0.0
  0
VERTEX
  8
0
 10
21.679281
 20
14.3260826
 42
0.0
  0
VERTEX
  8
0
 10
21.4216234
 20
14.0766546
 42
0.0
  0
VERTEX
  8
0
 10
21.2851746
 20
13.944346
 42
0.0
  0
VERTEX
  8
0
 10
21.1514944
 20
13.7776204
 42
0.0
  0
VERTEX
  8
0
 10
21.144611
 20
13.7679684
 42
0.0
  0
VERTEX
  8
0
 10
21.0509104
 20
13.5530082
 42
0.0
  0
VERTEX
  8
0
 10
21.0040728
 20
13.3021832
 42
0.0
  0
VERTEX
  8
0
 10
21.0040728
 20
13.2773928
 42
0.0
  0
VERTEX
  8
0
 10
21.0054444
 20
13.0252216
 42
0.0
  0
VERTEX
  8
0
 10
21.045424
 20
12.792329
 42
0.0
  0
VERTEX
  8
0
 10
21.0564222
 20
12.7289306
 42
0.0
  0
VERTEX
  8
0
 10
21.079841
 20
12.6559056
 42
0.0
  0
VERTEX
  8
0
 10
21.15566
 20
12.4175012
 42
0.0
  0
VERTEX
  8
0
 10
21.1777072
 20
12.3665234
 42
0.0
  0
VERTEX
  8
0
 10
21.2975952
 20
12.10056
 42
0.0
  0
VERTEX
  8
0
 10
21.4835994
 20
11.7863874
 42
0.0
  0
VERTEX
  8
0
 10
21.7054684
 20
11.4804444
 42
0.0
  0
VERTEX
  8
0
 10
21.957665
 20
11.1938054
 42
0.0
  0
VERTEX
  8
0
 10
22.391751
 20
10.7445556
 42
0.0
  0
VERTEX
  8
0
 10
22.6094544
 20
10.5185718
 42
0.0
  0
VERTEX
  8
0
 10
22.6618546
 20
10.4689656
 42
0.0
  0
VERTEX
  8
0
 10
22.8878384
 20
10.2553516
 42
0.0
  0
VERTEX
  8
0
 10
23.0973122
 20
10.0927662
 42
0.0
  0
VERTEX
  8
0
 10
23.185501
 20
10.023856
 42
0.0
  0
VERTEX
  8
0
 10
23.434929
 20
9.86536
 42
0.0
  0
VERTEX
  8
0
 10
23.4928156
 20
9.8281744
 42
0.0
  0
VERTEX
  8
0
 10
23.7449868
 20
9.7027746
 42
0.0
  0
VERTEX
  8
0
 10
23.7794546
 20
9.6862138
 42
0.0
  0
VERTEX
  8
0
 10
23.8056166
 20
9.673844
 42
0.0
  0
VERTEX
  8
0
 10
24.0591594
 20
9.5842582
 42
0.0
  0
VERTEX
  8
0
 10
24.1115596
 20
9.5649796
 42
0.0
  0
VERTEX
  8
0
 10
24.3954046
 20
9.505696
 42
0.0
  0
VERTEX
  8
0
 10
24.4078252
 20
9.5043244
 42
0.0
  0
VERTEX
  8
0
 10
24.6848122
 20
9.4919546
 42
0.0
  0
VERTEX
  8
0
 10
24.7771412
 20
9.505696
 42
0.0
  0
VERTEX
  8
0
 10
24.8033032
 20
9.5098362
 42
0.0
  0
VERTEX
  8
0
 10
24.9356118
 20
9.5291148
 42
0.0
  0
VERTEX
  8
0
 10
25.1533406
 20
9.617329
 42
0.0
  0
VERTEX
  8
0
 10
25.3366016
 20
9.7509838
 42
0.0
  0
VERTEX
  8
0
 10
25.729438
 20
10.1313488
 42
0.0
  0
VERTEX
  8
0
 10
25.774904
 20
10.1864668
 42
0.0
  0
VERTEX
  8
0
 10
25.827228
 20
10.25398
 42
0.0
  0
VERTEX
  8
0
 10
25.8699
 20
10.3077518
 42
0.0
  0
VERTEX
  8
0
 10
25.963626
 20
10.5240582
 42
0.0
  0
VERTEX
  8
0
 10
26.006298
 20
10.7445556
 42
0.0
  0
VERTEX
  8
0
 10
26.010362
 20
10.77214
 42
0.0
  0
VERTEX
  8
0
 10
26.009092
 20
11.0491016
 42
0.0
  0
VERTEX
  8
0
 10
25.958038
 20
11.3481612
 42
0.0
  0
VERTEX
  8
0
 10
25.860248
 20
11.658219
 42
0.0
  0
VERTEX
  8
0
 10
25.827228
 20
11.731244
 42
0.0
  0
VERTEX
  8
0
 10
25.80513
 20
11.7794532
 42
0.0
  0
VERTEX
  8
0
 10
25.716992
 20
11.9751602
 42
0.0
  0
SEQEND
  0
POLYLINE
  8
0
 66
     1
 10
0.0
 20
0.0
 30
0.0
 70
     1
  0
VERTEX
  8
0
 10
13.1464812
 20
13.6922002
 42
0.0
  0
VERTEX
  8
0
 10
13.096875
 20
13.8162284
 42
0.0
  0
VERTEX
  8
0
 10
13.059664
 20
13.9113006
 42
0.0
  0
VERTEX
  8
0
 10
13.0555238
 20
13.9168124
 42
0.0
  0
VERTEX
  8
0
 10
12.9273554
 20
14.0918184
 42
0.0
  0
VERTEX
  8
0
 10
12.8584706
 20
14.1634718
 42
0.0
  0
VERTEX
  8
0
 10
12.5746002
 20
14.4570196
 42
0.0
  0
VERTEX
  8
0
 10
12.5470412
 20
14.4859502
 42
0.0
  0
VERTEX
  8
0
 10
12.3706382
 20
14.6251168
 42
0.0
  0
VERTEX
  8
0
 10
12.154281
 20
14.7202144
 42
0.0
  0
VERTEX
  8
0
 10
11.9048784
 20
14.7670774
 42
0.0
  0
VERTEX
  8
0
 10
11.627866
 20
14.7643088
 42
0.0
  0
VERTEX
  8
0
 10
11.4914426
 20
14.74089
 42
0.0
  0
VERTEX
  8
0
 10
11.3302288
 20
14.7133056
 42
0.0
  0
VERTEX
  8
0
 10
11.1676434
 20
14.6623278
 42
0.0
  0
VERTEX
  8
0
 10
11.0187994
 20
14.6154648
 42
0.0
  0
VERTEX
  8
0
 10
10.9195616
 20
14.5713704
 42
0.0
  0
VERTEX
  8
0
 10
10.7018328
 20
14.4721326
 42
0.0
  0
VERTEX
  8
0
 10
10.3876348
 20
14.2875
 42
0.0
  0
VERTEX
  8
0
 10
10.116185
 20
14.0918184
 42
0.0
  0
VERTEX
  8
0
 10
10.0830888
 20
14.0670026
 42
0.0
  0
VERTEX
  8
0
 10
9.7950782
 20
13.8120628
 42
0.0
  0
VERTEX
  8
0
 10
9.4422976
 20
13.4730744
 42
0.0
  0
VERTEX
  8
0
 10
9.1212416
 20
13.161645
 42
0.0
  0
VERTEX
  8
0
 10
9.11987
 20
13.1602734
 42
0.0
  0
VERTEX
  8
0
 10
8.8566498
 20
12.883261
 42
0.0
  0
VERTEX
  8
0
 10
8.7863934
 20
12.792329
 42
0.0
  0
VERTEX
  8
0
 10
8.7615522
 20
12.7592582
 42
0.0
  0
VERTEX
  8
0
 10
8.6251288
 20
12.5856238
 42
0.0
  0
VERTEX
  8
0
 10
8.5341968
 20
12.4436632
 42
0.0
  0
VERTEX
  8
0
 10
8.4294472
 20
12.2783346
 42
0.0
  0
VERTEX
  8
0
 10
8.3646772
 20
12.1473976
 42
0.0
  0
VERTEX
  8
0
 10
8.2999072
 20
12.0151144
 42
0.0
  0
VERTEX
  8
0
 10
8.2751168
 20
11.9655082
 42
0.0
  0
VERTEX
  8
0
 10
8.1662524
 20
11.658219
 42
0.0
  0
VERTEX
  8
0
 10
8.1056226
 20
11.3632996
 42
0.0
  0
VERTEX
  8
0
 10
8.0932274
 20
11.0863126
 42
0.0
  0
VERTEX
  8
0
 10
8.1304384
 20
10.8354876
 42
0.0
  0
VERTEX
  8
0
 10
8.167624
 20
10.7445556
 42
0.0
  0
VERTEX
  8
0
 10
8.2186272
 20
10.6164126
 42
0.0
  0
VERTEX
  8
0
 10
8.2709766
 20
10.5447338
 42
0.0
  0
VERTEX
  8
0
 10
8.3523074
 20
10.4344978
 42
0.0
  0
VERTEX
  8
0
 10
8.4942172
 20
10.2870762
 42
0.0
  0
VERTEX
  8
0
 10
8.7326216
 20
10.040366
 42
0.0
  0
VERTEX
  8
0
 10
8.8428576
 20
9.9535488
 42
0.0
  0
VERTEX
  8
0
 10
8.9090246
 20
9.9011994
 42
0.0
  0
VERTEX
  8
0
 10
9.1253818
 20
9.8061272
 42
0.0
  0
VERTEX
  8
0
 10
9.3734128
 20
9.7592896
 42
0.0
  0
VERTEX
  8
0
 10
9.4037404
 20
9.7592896
 42
0.0
  0
VERTEX
  8
0
 10
9.4422976
 20
9.7606612
 42
0.0
  0
VERTEX
  8
0
 10
9.6503998
 20
9.7620328
 42
0.0
  0
VERTEX
  8
0
 10
9.949434
 20
9.8130106
 42
0.0
  0
VERTEX
  8
0
 10
10.2594918
 20
9.9108768
 42
0.0
  0
VERTEX
  8
0
 10
10.5295954
 20
10.032111
 42
0.0
  0
VERTEX
  8
0
 10
10.5764584
 20
10.0541582
 42
0.0
  0
VERTEX
  8
0
 10
10.890631
 20
10.2388162
 42
0.0
  0
VERTEX
  8
0
 10
11.196574
 20
10.4606852
 42
0.0
  0
VERTEX
  8
0
 10
11.4845846
 20
10.7142534
 42
0.0
  0
VERTEX
  8
0
 10
11.4914426
 20
10.7197398
 42
0.0
  0
VERTEX
  8
0
 10
11.5162584
 20
10.7445556
 42
0.0
  0
VERTEX
  8
0
 10
12.1584212
 20
11.3660682
 42
0.0
  0
VERTEX
  8
0
 10
12.421616
 20
11.6430298
 42
0.0
  0
VERTEX
  8
0
 10
12.654534
 20
11.9407178
 42
0.0
  0
VERTEX
  8
0
 10
12.8502156
 20
12.2480324
 42
0.0
  0
VERTEX
  8
0
 10
12.8639824
 20
12.2769376
 42
0.0
  0
VERTEX
  8
0
 10
13.004546
 20
12.5608334
 42
0.0
  0
VERTEX
  8
0
 10
13.0100578
 20
12.5759718
 42
0.0
  0
VERTEX
  8
0
 10
13.0555238
 20
12.7068834
 42
0.0
  0
VERTEX
  8
0
 10
13.0858768
 20
12.792329
 42
0.0
  0
VERTEX
  8
0
 10
13.1134104
 20
12.8681226
 42
0.0
  0
VERTEX
  8
0
 10
13.1740656
 20
13.1630166
 42
0.0
  0
VERTEX
  8
0
 10
13.1850638
 20
13.440029
 42
0.0
  0
SEQEND
  0
POLYLINE
  8
0
 66
     1
 10
0.0
 20
0.0
 30
0.0
 70
     1
  0
VERTEX
  8
0
 10
16.2029648
 20
113.145316
 42
0.0
  0
VERTEX
  8
0
 10
16.2374072
 20
112.64519
 42
0.0
  0
VERTEX
  8
0
 10
16.5874446
 20
111.7727
 42
0.0
  0
VERTEX
  8
0
 10
17.1896532
 20
111.053372
 42
0.0
  0
VERTEX
  8
0
 10
17.8924712
 20
110.612428
 42
0.0
  0
VERTEX
  8
0
 10
17.9847748
 20
110.553246
 42
0.0
  0
VERTEX
  8
0
 10
18.8956696
 20
110.324138
 42
0.0
  0
VERTEX
  8
0
 10
19.8327518
 20
110.389162
 42
0.0
  0
VERTEX
  8
0
 10
19.8644256
 20
110.401354
 42
0.0
  0
VERTEX
  8
0
 10
20.7036416
 20
110.739174
 42
0.0
  0
VERTEX
  8
0
 10
21.4243666
 20
111.341154
 42
0.0
  0
VERTEX
  8
0
 10
21.9245688
 20
112.136428
 42
0.0
  0
VERTEX
  8
0
 10
22.1533466
 20
113.047272
 42
0.0
  0
VERTEX
  8
0
 10
22.1464378
 20
113.145316
 42
0.0
  0
VERTEX
  8
0
 10
22.0885766
 20
113.984278
 42
0.0
  0
VERTEX
  8
0
 10
21.7385646
 20
114.855244
 42
0.0
  0
VERTEX
  8
0
 10
21.136356
 20
115.576096
 42
0.0
  0
VERTEX
  8
0
 10
20.3398628
 20
116.076222
 42
0.0
  0
VERTEX
  8
0
 10
19.4303396
 20
116.305076
 42
0.0
  0
VERTEX
  8
0
 10
18.4932828
 20
116.240306
 42
0.0
  0
VERTEX
  8
0
 10
17.6209706
 20
115.890294
 42
0.0
  0
VERTEX
  8
0
 10
16.9016426
 20
115.28806
 42
0.0
  0
VERTEX
  8
0
 10
16.401415
 20
114.491516
 42
0.0
  0
VERTEX
  8
0
 10
16.1726626
 20
113.582196
 42
0.0
  0
SEQEND
  0
POLYLINE
  8
0
 66
     1
 10
0.0
 20
0.0
 30
0.0
 70
     1
  0
VERTEX
  8
0
 10
17.9296568
 20
119.105172
 42
0.0
  0
VERTEX
  8
0
 10
18.1405022
 20
118.974362
 42
0.0
  0
VERTEX
  8
0
 10
18.2410862
 20
118.910862
 42
0.0
  0
VERTEX
  8
0
 10
18.7495688
 20
118.784116
 42
0.0
  0
VERTEX
  8
0
 10
18.7564776
 20
118.781322
 42
0.0
  0
VERTEX
  8
0
 10
18.7854082
 20
118.784116
 42
0.0
  0
VERTEX
  8
0
 10
19.2884044
 20
118.81866
 42
0.0
  0
VERTEX
  8
0
 10
19.298031
 20
118.822724
 42
0.0
  0
VERTEX
  8
0
 10
19.6714872
 20
118.974362
 42
0.0
  0
VERTEX
  8
0
 10
19.6825362
 20
118.978426
 42
0.0
  0
VERTEX
  8
0
 10
19.7817232
 20
119.018304
 42
0.0
  0
VERTEX
  8
0
 10
19.790029
 20
119.025416
 42
0.0
  0
VERTEX
  8
0
 10
19.9154034
 20
119.12981
 42
0.0
  0
VERTEX
  8
0
 10
20.1813668
 20
119.353076
 42
0.0
  0
VERTEX
  8
0
 10
20.1896472
 20
119.360188
 42
0.0
  0
VERTEX
  8
0
 10
20.472146
 20
119.812054
 42
0.0
  0
VERTEX
  8
0
 10
20.4749146
 20
119.8245
 42
0.0
  0
VERTEX
  8
0
 10
20.5975204
 20
120.316498
 42
0.0
  0
VERTEX
  8
0
 10
20.6016606
 20
120.328944
 42
0.0
  0
VERTEX
  8
0
 10
20.5975204
 20
120.371616
 42
0.0
  0
VERTEX
  8
0
 10
20.564475
 20
120.85955
 42
0.0
  0
VERTEX
  8
0
 10
20.5603602
 20
120.867678
 42
0.0
  0
VERTEX
  8
0
 10
20.3715366
 20
121.336054
 42
0.0
  0
VERTEX
  8
0
 10
20.3646532
 20
121.354088
 42
0.0
  0
VERTEX
  8
0
 10
20.359116
 20
121.358406
 42
0.0
  0
VERTEX
  8
0
 10
20.2172062
 20
121.529094
 42
0.0
  0
VERTEX
  8
0
 10
20.0215246
 20
121.762012
 42
0.0
  0
VERTEX
  8
0
 10
20.018756
 20
121.763282
 42
0.0
  0
VERTEX
  8
0
 10
19.7004432
 20
121.963434
 42
0.0
  0
VERTEX
  8
0
 10
19.56816
 20
122.045984
 42
0.0
  0
VERTEX
  8
0
 10
19.0513716
 20
122.174
 42
0.0
  0
VERTEX
  8
0
 10
18.5194702
 20
122.13844
 42
0.0
  0
VERTEX
  8
0
 10
18.0881274
 20
121.963434
 42
0.0
  0
VERTEX
  8
0
 10
18.026126
 20
121.937018
 42
0.0
  0
VERTEX
  8
0
 10
17.7463704
 20
121.7041
 42
0.0
  0
VERTEX
  8
0
 10
17.6182274
 20
121.595388
 42
0.0
  0
VERTEX
  8
0
 10
17.4556166
 20
121.336054
 42
0.0
  0
VERTEX
  8
0
 10
17.3839378
 20
121.220484
 42
0.0
  0
VERTEX
  8
0
 10
17.3357032
 20
121.144538
 42
0.0
  0
VERTEX
  8
0
 10
17.2268388
 20
120.707912
 42
0.0
  0
VERTEX
  8
0
 10
17.2075602
 20
120.628156
 42
0.0
  0
VERTEX
  8
0
 10
17.2268388
 20
120.34139
 42
0.0
  0
VERTEX
  8
0
 10
17.2378878
 20
120.185688
 42
0.0
  0
VERTEX
  8
0
 10
17.2433996
 20
120.096026
 42
0.0
  0
VERTEX
  8
0
 10
17.378426
 20
119.763794
 42
0.0
  0
VERTEX
  8
0
 10
17.4445676
 20
119.602504
 42
0.0
  0
VERTEX
  8
0
 10
17.78635
 20
119.194834
 42
0.0
  0
VERTEX
  8
0
 10
17.7890932
 20
119.19331
 42
0.0
  0
VERTEX
  8
0
 10
17.7890932
 20
119.19204
 42
0.0
  0
SEQEND
  0
POLYLINE
  8
0
 66
     1
 10
0.0
 20
0.0
 30
0.0
 70
     1
  0
VERTEX
  8
0
 10
18.5553096
 20
90.512138
 42
0.0
  0
VERTEX
  8
0
 10
18.5621676
 20
90.510868
 42
0.0
  0
VERTEX
  8
0
 10
18.6379612
 20
90.491818
 42
0.0
  0
VERTEX
  8
0
 10
18.6503818
 20
90.489024
 42
0.0
  0
VERTEX
  8
0
 10
18.6917076
 20
90.491818
 42
0.0
  0
VERTEX
  8
0
 10
18.957671
 20
90.510868
 42
0.0
  0
VERTEX
  8
0
 10
19.1809116
 20
90.525854
 42
0.0
  0
VERTEX
  8
0
 10
19.187795
 20
90.528902
 42
0.0
  0
VERTEX
  8
0
 10
19.2911476
 20
90.571574
 42
0.0
  0
VERTEX
  8
0
 10
19.6756274
 20
90.726006
 42
0.0
  0
VERTEX
  8
0
 10
19.6825362
 20
90.73261
 42
0.0
  0
VERTEX
  8
0
 10
19.6852794
 20
90.734134
 42
0.0
  0
VERTEX
  8
0
 10
20.000849
 20
90.998802
 42
0.0
  0
VERTEX
  8
0
 10
20.0725024
 20
91.059254
 42
0.0
  0
VERTEX
  8
0
 10
20.083526
 20
91.06789
 42
0.0
  0
VERTEX
  8
0
 10
20.2365102
 20
91.314524
 42
0.0
  0
VERTEX
  8
0
 10
20.3646532
 20
91.519756
 42
0.0
  0
VERTEX
  8
0
 10
20.3674218
 20
91.530678
 42
0.0
  0
VERTEX
  8
0
 10
20.4914246
 20
92.02801
 42
0.0
  0
VERTEX
  8
0
 10
20.4927962
 20
92.035122
 42
0.0
  0
VERTEX
  8
0
 10
20.4914246
 20
92.064078
 42
0.0
  0
VERTEX
  8
0
 10
20.4556106
 20
92.568268
 42
0.0
  0
VERTEX
  8
0
 10
20.4528674
 20
92.57665
 42
0.0
  0
VERTEX
  8
0
 10
20.4170026
 20
92.664788
 42
0.0
  0
VERTEX
  8
0
 10
20.2571604
 20
93.060266
 42
0.0
  0
VERTEX
  8
0
 10
20.2530456
 20
93.064584
 42
0.0
  0
VERTEX
  8
0
 10
20.2365102
 20
93.084904
 42
0.0
  0
VERTEX
  8
0
 10
19.9154034
 20
93.46819
 42
0.0
  0
VERTEX
  8
0
 10
19.9140318
 20
93.46946
 42
0.0
  0
VERTEX
  8
0
 10
19.9126602
 20
93.472254
 42
0.0
  0
VERTEX
  8
0
 10
19.6825362
 20
93.61424
 42
0.0
  0
VERTEX
  8
0
 10
19.6343016
 20
93.644466
 42
0.0
  0
VERTEX
  8
0
 10
19.4606672
 20
93.753432
 42
0.0
  0
VERTEX
  8
0
 10
18.9438788
 20
93.882972
 42
0.0
  0
VERTEX
  8
0
 10
18.4119774
 20
93.844618
 42
0.0
  0
VERTEX
  8
0
 10
17.9186332
 20
93.64599
 42
0.0
  0
VERTEX
  8
0
 10
17.9172616
 20
93.644466
 42
0.0
  0
VERTEX
  8
0
 10
17.7064162
 20
93.466666
 42
0.0
  0
VERTEX
  8
0
 10
17.5107346
 20
93.304106
 42
0.0
  0
VERTEX
  8
0
 10
17.2833538
 20
92.938854
 42
0.0
  0
VERTEX
  8
0
 10
17.2296074
 20
92.85224
 42
0.0
  0
VERTEX
  8
0
 10
17.1827444
 20
92.664788
 42
0.0
  0
VERTEX
  8
0
 10
17.1014644
 20
92.343732
 42
0.0
  0
VERTEX
  8
0
 10
17.1000928
 20
92.33535
 42
0.0
  0
VERTEX
  8
0
 10
17.1014644
 20
92.306394
 42
0.0
  0
VERTEX
  8
0
 10
17.1069762
 20
92.23756
 42
0.0
  0
VERTEX
  8
0
 10
17.1014644
 20
92.218256
 42
0.0
  0
VERTEX
  8
0
 10
17.1359068
 20
91.726512
 42
0.0
  0
VERTEX
  8
0
 10
17.3191932
 20
91.270328
 42
0.0
  0
VERTEX
  8
0
 10
17.6347628
 20
90.89136
 42
0.0
  0
VERTEX
  8
0
 10
18.0523134
 20
90.630756
 42
0.0
  0
VERTEX
  8
0
 10
18.5304684
 20
90.510868
 42
0.0
  0
SEQEND
  0
POLYLINE
  8
0
 66
     1
 10
0.0
 20
0.0
 30
0.0
 70
     1
  0
VERTEX
  8
0
 10
29.875988
 20
27.799284
 42
0.0
  0
VERTEX
  8
0
 10
29.70911
 20
19.1161416
 42
0.0
  0
VERTEX
  8
0
 10
29.702252
 20
18.7729876
 42
0.0
  0
VERTEX
  8
0
 10
30.844744
 20
15.0151084
 42
0.0
  0
VERTEX
  8
0
 10
33.01492
 20
7.8713584
 42
0.0
  0
VERTEX
  8
0
 10
29.557472
 20
5.4584346
 42
0.0
  0
VERTEX
  8
0
 10
23.3742738
 20
1.14514884
 42
0.0
  0
VERTEX
  8
0
 10
21.7688668
 20
2.35920026
 42
0.0
  0
VERTEX
  8
0
 10
18.1887368
 20
5.0656744
 42
0.0
  0
VERTEX
  8
0
 10
16.871315
 20
4.2691812
 42
0.0
  0
VERTEX
  8
0
 10
15.6517594
 20
5.0739294
 42
0.0
  0
VERTEX
  8
0
 10
13.0555238
 20
3.2631888
 42
0.0
  0
VERTEX
  8
0
 10
10.3766366
 20
1.39319762
 42
0.0
  0
VERTEX
  8
0
 10
5.2214018
 20
5.2916582
 42
0.0
  0
VERTEX
  8
0
 10
1.00045774
 20
8.4845906
 42
0.0
  0
VERTEX
  8
0
 10
4.475861
 20
18.5222134
 42
0.0
  0
VERTEX
  8
0
 10
4.5999146
 20
18.8804804
 42
0.0
  0
VERTEX
  8
0
 10
4.7804324
 20
28.281376
 42
0.0
  0
VERTEX
  8
0
 10
7.6356972
 20
30.008068
 42
0.0
  0
VERTEX
  8
0
 10
8.5259418
 20
30.547056
 42
0.0
  0
VERTEX
  8
0
 10
8.5879432
 20
31.224982
 42
0.0
  0
VERTEX
  8
0
 10
8.6223856
 20
31.610808
 42
0.0
  0
VERTEX
  8
0
 10
9.0123772
 20
36.358322
 42
0.0
  0
VERTEX
  8
0
 10
9.3734128
 20
41.255696
 42
0.0
  0
VERTEX
  8
0
 10
9.7055178
 20
46.302168
 42
0.0
  0
VERTEX
  8
0
 10
9.7813368
 20
47.60849
 42
0.0
  0
VERTEX
  8
0
 10
10.0086922
 20
51.497484
 42
0.0
  0
VERTEX
  8
0
 10
10.200259
 20
55.18785
 42
0.0
  0
VERTEX
  8
0
 10
10.2857046
 20
56.839866
 42
0.0
  0
VERTEX
  8
0
 10
10.532364
 20
62.332616
 42
0.0
  0
VERTEX
  8
0
 10
10.743184
 20
67.781678
 42
0.0
  0
VERTEX
  8
0
 10
10.9126782
 20
73.091294
 42
0.0
  0
VERTEX
  8
0
 10
11.0436152
 20
78.264512
 42
0.0
  0
VERTEX
  8
0
 10
11.0808262
 20
80.376776
 42
0.0
  0
VERTEX
  8
0
 10
11.1331756
 20
83.29676
 42
0.0
  0
VERTEX
  8
0
 10
11.1813848
 20
88.191594
 42
0.0
  0
VERTEX
  8
0
 10
11.1896906
 20
92.94876
 42
0.0
  0
VERTEX
  8
0
 10
11.1758984
 20
94.991174
 42
0.0
  0
VERTEX
  8
0
 10
11.166221
 20
96.444816
 42
0.0
  0
VERTEX
  8
0
 10
11.1634778
 20
96.760284
 42
0.0
  0
VERTEX
  8
0
 10
11.157966
 20
97.611946
 42
0.0
  0
VERTEX
  8
0
 10
11.0794546
 20
102.129082
 42
0.0
  0
VERTEX
  8
0
 10
10.9526578
 20
106.498898
 42
0.0
  0
VERTEX
  8
0
 10
10.780395
 20
110.72241
 42
0.0
  0
VERTEX
  8
0
 10
10.650855
 20
113.145316
 42
0.0
  0
VERTEX
  8
0
 10
10.5626662
 20
114.800126
 42
0.0
  0
VERTEX
  8
0
 10
10.5598976
 20
114.840004
 42
0.0
  0
VERTEX
  8
0
 10
10.2967028
 20
118.730522
 42
0.0
  0
VERTEX
  8
0
 10
9.986645
 20
122.568462
 42
0.0
  0
VERTEX
  8
0
 10
9.7303082
 20
125.193552
 42
0.0
  0
VERTEX
  8
0
 10
9.7702878
 20
125.239018
 42
0.0
  0
VERTEX
  8
0
 10
9.8515932
 20
125.33249
 42
0.0
  0
VERTEX
  8
0
 10
9.9080828
 20
125.39726
 42
0.0
  0
VERTEX
  8
0
 10
13.1437126
 20
129.10566
 42
0.0
  0
VERTEX
  8
0
 10
14.8442172
 20
131.055618
 42
0.0
  0
VERTEX
  8
0
 10
17.8193954
 20
134.466076
 42
0.0
  0
VERTEX
  8
0
 10
22.6907598
 20
130.217672
 42
0.0
  0
VERTEX
  8
0
 10
23.1813354
 20
129.790444
 42
0.0
  0
VERTEX
  8
0
 10
28.659074
 20
125.011434
 42
0.0
  0
VERTEX
  8
0
 10
28.731972
 20
124.946918
 42
0.0
  0
VERTEX
  8
0
 10
28.813506
 20
124.876306
 42
0.0
  0
VERTEX
  8
0
 10
28.852114
 20
124.842016
 42
0.0
  0
VERTEX
  8
0
 10
28.49372
 20
122.212862
 42
0.0
  0
VERTEX
  8
0
 10
28.036266
 20
118.390162
 42
0.0
  0
VERTEX
  8
0
 10
27.720544
 20
115.420394
 42
0.0
  0
VERTEX
  8
0
 10
27.61996
 20
114.472212
 42
0.0
  0
VERTEX
  8
0
 10
27.497278
 20
113.145316
 42
0.0
  0
VERTEX
  8
0
 10
27.24531
 20
110.407196
 42
0.0
  0
VERTEX
  8
0
 10
26.910284
 20
106.193082
 42
0.0
  0
VERTEX
  8
0
 10
26.616914
 20
101.830124
 42
0.0
  0
VERTEX
  8
0
 10
26.364692
 20
97.319846
 42
0.0
  0
VERTEX
  8
0
 10
26.3398
 20
96.760284
 42
0.0
  0
VERTEX
  8
0
 10
26.326084
 20
96.470978
 42
0.0
  0
VERTEX
  8
0
 10
26.152348
 20
92.660724
 42
0.0
  0
VERTEX
  8
0
 10
25.978866
 20
87.907876
 42
0.0
  0
VERTEX
  8
0
 10
25.839674
 20
83.014312
 42
0.0
  0
VERTEX
  8
0
 10
25.785826
 20
80.376776
 42
0.0
  0
VERTEX
  8
0
 10
25.778968
 20
80.03794
 42
0.0
  0
VERTEX
  8
0
 10
25.736296
 20
77.98181
 42
0.0
  0
VERTEX
  8
0
 10
25.667208
 20
72.808846
 42
0.0
  0
VERTEX
  8
0
 10
25.634188
 20
67.496182
 42
0.0
  0
VERTEX
  8
0
 10
25.635712
 20
62.04204
 42
0.0
  0
VERTEX
  8
0
 10
25.671526
 20
56.544972
 42
0.0
  0
VERTEX
  8
0
 10
25.719786
 20
52.907184
 42
0.0
  0
VERTEX
  8
0
 10
25.741884
 20
51.193954
 42
0.0
  0
VERTEX
  8
0
 10
25.813512
 20
47.60849
 42
0.0
  0
VERTEX
  8
0
 10
25.846532
 20
45.992034
 42
0.0
  0
VERTEX
  8
0
 10
25.93594
 20
42.713656
 42
0.0
  0
VERTEX
  8
0
 10
25.978866
 20
41.104312
 42
0.0
  0
VERTEX
  8
0
 10
25.9842
 20
40.93591
 42
0.0
  0
VERTEX
  8
0
 10
26.156412
 20
36.028884
 42
0.0
  0
VERTEX
  8
0
 10
26.363168
 20
31.269178
 42
0.0
  0
VERTEX
  8
0
 10
26.365962
 20
31.224982
 42
0.0
  0
VERTEX
  8
0
 10
26.425398
 20
30.072838
 42
0.0
  0
VERTEX
  8
0
 10
27.194256
 20
29.565854
 42
0.0
  0
VERTEX
  8
0
 10
28.409646
 20
28.765246
 42
0.0
  0
VERTEX
  8
0
 10
29.521658
 20
28.033472
 42
0.0
  0
SEQEND
  0
POLYLINE
  8
0
 66
     1
 10
0.0
 20
0.0
 30
0.0
 70
     1
  0
VERTEX
  8
0
 10
13.4000494
 20
19.4289426
 42
0.0
  0
VERTEX
  8
0
 10
13.3132322
 20
18.9369954
 42
0.0
  0
VERTEX
  8
0
 10
13.3091174
 20
18.912205
 42
0.0
  0
VERTEX
  8
0
 10
13.2884418
 20
18.3513222
 42
0.0
  0
VERTEX
  8
0
 10
13.3476746
 20
17.7918618
 42
0.0
  0
VERTEX
  8
0
 10
13.4344918
 20
17.4459646
 42
0.0
  0
VERTEX
  8
0
 10
13.4496556
 20
17.3825662
 42
0.0
  0
VERTEX
  8
0
 10
13.4841234
 20
17.2461428
 42
0.0
  0
VERTEX
  8
0
 10
13.5736838
 20
17.0215306
 42
0.0
  0
VERTEX
  8
0
 10
13.660501
 20
16.8092882
 42
0.0
  0
VERTEX
  8
0
 10
13.6935718
 20
16.725265
 42
0.0
  0
VERTEX
  8
0
 10
13.7817606
 20
16.5736778
 42
0.0
  0
VERTEX
  8
0
 10
13.9237212
 20
16.3270184
 42
0.0
  0
VERTEX
  8
0
 10
13.9760706
 20
16.2374072
 42
0.0
  0
VERTEX
  8
0
 10
14.0959332
 20
16.0830768
 42
0.0
  0
VERTEX
  8
0
 10
14.2902432
 20
15.8350204
 42
0.0
  0
VERTEX
  8
0
 10
14.3219678
 20
15.7950662
 42
0.0
  0
VERTEX
  8
0
 10
14.7257262
 20
15.4037284
 42
0.0
  0
VERTEX
  8
0
 10
15.1804878
 20
15.0743666
 42
0.0
  0
VERTEX
  8
0
 10
15.2920954
 20
15.0151084
 42
0.0
  0
VERTEX
  8
0
 10
15.6172916
 20
14.8401024
 42
0.0
  0
VERTEX
  8
0
 10
15.6779468
 20
14.8084032
 42
0.0
  0
VERTEX
  8
0
 10
16.2057334
 20
14.6168618
 42
0.0
  0
VERTEX
  8
0
 10
16.7555672
 20
14.4997424
 42
0.0
  0
VERTEX
  8
0
 10
17.3164246
 20
14.4611344
 42
0.0
  0
VERTEX
  8
0
 10
17.878679
 20
14.4997424
 42
0.0
  0
VERTEX
  8
0
 10
18.0674518
 20
14.5396712
 42
0.0
  0
VERTEX
  8
0
 10
18.4285128
 20
14.6168618
 42
0.0
  0
VERTEX
  8
0
 10
18.957671
 20
14.8084032
 42
0.0
  0
VERTEX
  8
0
 10
19.0169546
 20
14.8401024
 42
0.0
  0
VERTEX
  8
0
 10
19.3421254
 20
15.0151084
 42
0.0
  0
VERTEX
  8
0
 10
19.4523868
 20
15.0743666
 42
0.0
  0
VERTEX
  8
0
 10
19.6825362
 20
15.2410922
 42
0.0
  0
VERTEX
  8
0
 10
19.90852
 20
15.4037284
 42
0.0
  0
VERTEX
  8
0
 10
20.0297796
 20
15.5208478
 42
0.0
  0
VERTEX
  8
0
 10
20.31365
 20
15.7950662
 42
0.0
  0
VERTEX
  8
0
 10
20.4101446
 20
15.9190944
 42
0.0
  0
VERTEX
  8
0
 10
20.6595472
 20
16.2374072
 42
0.0
  0
VERTEX
  8
0
 10
20.7615282
 20
16.4165788
 42
0.0
  0
VERTEX
  8
0
 10
20.9406744
 20
16.725265
 42
0.0
  0
VERTEX
  8
0
 10
21.045424
 20
16.9843196
 42
0.0
  0
VERTEX
  8
0
 10
21.1514944
 20
17.2461428
 42
0.0
  0
VERTEX
  8
0
 10
21.264499
 20
17.702276
 42
0.0
  0
VERTEX
  8
0
 10
21.2865462
 20
17.7918618
 42
0.0
  0
VERTEX
  8
0
 10
21.3458044
 20
18.3513222
 42
0.0
  0
VERTEX
  8
0
 10
21.3334346
 20
18.7013596
 42
0.0
  0
VERTEX
  8
0
 10
21.3265004
 20
18.912205
 42
0.0
  0
VERTEX
  8
0
 10
21.3223856
 20
18.9369954
 42
0.0
  0
VERTEX
  8
0
 10
21.2617304
 20
19.2773554
 42
0.0
  0
VERTEX
  8
0
 10
21.2617304
 20
19.2787524
 42
0.0
  0
VERTEX
  8
0
 10
21.228685
 20
19.466179
 42
0.0
  0
VERTEX
  8
0
 10
21.0550506
 20
20.0022206
 42
0.0
  0
VERTEX
  8
0
 10
20.8083912
 20
20.5065884
 42
0.0
  0
VERTEX
  8
0
 10
20.4941932
 20
20.9737198
 42
0.0
  0
VERTEX
  8
0
 10
20.1179684
 20
21.3912704
 42
0.0
  0
VERTEX
  8
0
 10
19.686651
 20
21.7523568
 42
0.0
  0
VERTEX
  8
0
 10
19.6825362
 20
21.7551
 42
0.0
  0
VERTEX
  8
0
 10
19.2098422
 20
22.049994
 42
0.0
  0
VERTEX
  8
0
 10
18.8391546
 20
22.216745
 42
0.0
  0
VERTEX
  8
0
 10
18.6958478
 20
22.2801434
 42
0.0
  0
VERTEX
  8
0
 10
18.1556406
 20
22.4344738
 42
0.0
  0
VERTEX
  8
0
 10
17.5989234
 20
22.5130106
 42
0.0
  0
VERTEX
  8
0
 10
17.0366944
 20
22.5130106
 42
0.0
  0
VERTEX
  8
0
 10
16.4785548
 20
22.4344738
 42
0.0
  0
VERTEX
  8
0
 10
15.9383984
 20
22.2801434
 42
0.0
  0
VERTEX
  8
0
 10
15.5869894
 20
22.123019
 42
0.0
  0
VERTEX
  8
0
 10
15.424404
 20
22.049994
 42
0.0
  0
VERTEX
  8
0
 10
14.9475952
 20
21.7523568
 42
0.0
  0
VERTEX
  8
0
 10
14.517624
 20
21.3912704
 42
0.0
  0
VERTEX
  8
0
 10
14.1414246
 20
20.9737198
 42
0.0
  0
VERTEX
  8
0
 10
13.8272266
 20
20.5065884
 42
0.0
  0
VERTEX
  8
0
 10
13.5805672
 20
20.0022206
 42
0.0
  0
VERTEX
  8
0
 10
13.4055612
 20
19.466179
 42
0.0
  0
SEQEND
  0
POLYLINE
  8
0
 66
     1
 10
0.0
 20
0.0
 30
0.0
 70
     1
  0
VERTEX
  8
0
 10
13.0555238
 20
22.7334826
 42
0.0
  0
VERTEX
  8
0
 10
13.3132322
 20
22.9760272
 42
0.0
  0
VERTEX
  8
0
 10
13.3724904
 20
23.0325422
 42
0.0
  0
VERTEX
  8
0
 10
13.375259
 20
23.0352854
 42
0.0
  0
VERTEX
  8
0
 10
13.5144256
 20
23.2103168
 42
0.0
  0
VERTEX
  8
0
 10
13.539216
 20
23.2640378
 42
0.0
  0
VERTEX
  8
0
 10
13.5626602
 20
23.3178096
 42
0.0
  0
VERTEX
  8
0
 10
13.6094978
 20
23.4211368
 42
0.0
  0
VERTEX
  8
0
 10
13.6494774
 20
23.6319822
 42
0.0
  0
VERTEX
  8
0
 10
13.6563354
 20
23.6664246
 42
0.0
  0
VERTEX
  8
0
 10
13.6535922
 20
23.9392968
 42
0.0
  0
VERTEX
  8
0
 10
13.6026144
 20
24.2314222
 42
0.0
  0
VERTEX
  8
0
 10
13.5447278
 20
24.41194
 42
0.0
  0
VERTEX
  8
0
 10
13.539216
 20
24.431244
 42
0.0
  0
VERTEX
  8
0
 10
13.504799
 20
24.5373652
 42
0.0
  0
VERTEX
  8
0
 10
13.3903974
 20
24.7867678
 42
0.0
  0
VERTEX
  8
0
 10
13.3614668
 20
24.8487946
 42
0.0
  0
VERTEX
  8
0
 10
13.2236718
 20
25.0803156
 42
0.0
  0
VERTEX
  8
0
 10
13.1768088
 20
25.1574554
 42
0.0
  0
VERTEX
  8
0
 10
13.0555238
 20
25.3214378
 42
0.0
  0
VERTEX
  8
0
 10
12.9549398
 20
25.457912
 42
0.0
  0
VERTEX
  8
0
 10
12.7013716
 20
25.73909
 42
0.0
  0
VERTEX
  8
0
 10
12.0495822
 20
26.4033
 42
0.0
  0
VERTEX
  8
0
 10
11.7725952
 20
26.66238
 42
0.0
  0
VERTEX
  8
0
 10
11.4914426
 20
26.877264
 42
0.0
  0
VERTEX
  8
0
 10
11.4749072
 20
26.88971
 42
0.0
  0
VERTEX
  8
0
 10
11.204829
 20
27.059128
 42
0.0
  0
VERTEX
  8
0
 10
11.1676434
 20
27.082496
 42
0.0
  0
VERTEX
  8
0
 10
11.0725204
 20
27.127962
 42
0.0
  0
VERTEX
  8
0
 10
10.9140752
 20
27.205178
 42
0.0
  0
VERTEX
  8
0
 10
10.8547916
 20
27.234134
 42
0.0
  0
VERTEX
  8
0
 10
10.6426
 20
27.307286
 42
0.0
  0
VERTEX
  8
0
 10
10.5475024
 20
27.340306
 42
0.0
  0
VERTEX
  8
0
 10
10.3890318
 20
27.373326
 42
0.0
  0
VERTEX
  8
0
 10
10.2526084
 20
27.401012
 42
0.0
  0
VERTEX
  8
0
 10
10.12444
 20
27.406346
 42
0.0
  0
VERTEX
  8
0
 10
9.975596
 20
27.411934
 42
0.0
  0
VERTEX
  8
0
 10
9.7248218
 20
27.37485
 42
0.0
  0
VERTEX
  8
0
 10
9.505696
 20
27.289252
 42
0.0
  0
VERTEX
  8
0
 10
9.3238066
 20
27.158442
 42
0.0
  0
VERTEX
  8
0
 10
9.2921074
 20
27.127962
 42
0.0
  0
VERTEX
  8
0
 10
9.1570556
 20
26.999946
 42
0.0
  0
VERTEX
  8
0
 10
8.9297002
 20
26.784808
 42
0.0
  0
VERTEX
  8
0
 10
8.9117678
 20
26.762964
 42
0.0
  0
VERTEX
  8
0
 10
8.7905082
 20
26.611326
 42
0.0
  0
VERTEX
  8
0
 10
8.7147146
 20
26.440384
 42
0.0
  0
VERTEX
  8
0
 10
8.6954106
 20
26.398982
 42
0.0
  0
VERTEX
  8
0
 10
8.6485476
 20
26.153872
 42
0.0
  0
VERTEX
  8
0
 10
8.6499446
 20
26.104088
 42
0.0
  0
VERTEX
  8
0
 10
8.6499446
 20
25.944322
 42
0.0
  0
VERTEX
  8
0
 10
8.6513162
 20
25.882346
 42
0.0
  0
VERTEX
  8
0
 10
8.7023194
 20
25.588722
 42
0.0
  0
VERTEX
  8
0
 10
8.8001348
 20
25.2828806
 42
0.0
  0
VERTEX
  8
0
 10
8.8469978
 20
25.1795026
 42
0.0
  0
VERTEX
  8
0
 10
8.8924638
 20
25.0803156
 42
0.0
  0
VERTEX
  8
0
 10
8.9434924
 20
24.9714512
 42
0.0
  0
VERTEX
  8
0
 10
9.128125
 20
24.662765
 42
0.0
  0
VERTEX
  8
0
 10
9.3389704
 20
24.3788946
 42
0.0
  0
VERTEX
  8
0
 10
9.349994
 20
24.3623338
 42
0.0
  0
VERTEX
  8
0
 10
9.6035622
 20
24.0812066
 42
0.0
  0
VERTEX
  8
0
 10
10.2553516
 20
23.4169966
 42
0.0
  0
VERTEX
  8
0
 10
10.2760272
 20
23.396321
 42
0.0
  0
VERTEX
  8
0
 10
10.532364
 20
23.1592882
 42
0.0
  0
VERTEX
  8
0
 10
10.6976926
 20
23.0325422
 42
0.0
  0
VERTEX
  8
0
 10
10.8300012
 20
22.9305612
 42
0.0
  0
VERTEX
  8
0
 10
11.1386874
 20
22.7389944
 42
0.0
  0
VERTEX
  8
0
 10
11.4501168
 20
22.5860356
 42
0.0
  0
VERTEX
  8
0
 10
11.4914426
 20
22.5722688
 42
0.0
  0
VERTEX
  8
0
 10
11.5562126
 20
22.54885
 42
0.0
  0
VERTEX
  8
0
 10
11.757406
 20
22.4799398
 42
0.0
  0
VERTEX
  8
0
 10
12.0523254
 20
22.41931
 42
0.0
  0
VERTEX
  8
0
 10
12.330684
 20
22.408261
 42
0.0
  0
VERTEX
  8
0
 10
12.581509
 20
22.4454974
 42
0.0
  0
VERTEX
  8
0
 10
12.7992378
 20
22.5309176
 42
0.0
  0
VERTEX
  8
0
 10
12.9811272
 20
22.6632262
 42
0.0
  0
SEQEND
  0
POLYLINE
  8
0
 66
     1
 10
0.0
 20
0.0
 30
0.0
 70
     1
  0
VERTEX
  8
0
 10
21.3085934
 20
23.0780082
 42
0.0
  0
VERTEX
  8
0
 10
21.3402926
 20
23.0325422
 42
0.0
  0
VERTEX
  8
0
 10
21.3595966
 20
23.0063294
 42
0.0
  0
VERTEX
  8
0
 10
21.439505
 20
22.8960934
 42
0.0
  0
VERTEX
  8
0
 10
21.5594184
 20
22.7693474
 42
0.0
  0
VERTEX
  8
0
 10
21.7316812
 20
22.5888296
 42
0.0
  0
VERTEX
  8
0
 10
21.8129612
 20
22.5020124
 42
0.0
  0
VERTEX
  8
0
 10
21.8832684
 20
22.4454974
 42
0.0
  0
VERTEX
  8
0
 10
21.9865956
 20
22.362795
 42
0.0
  0
VERTEX
  8
0
 10
22.1988126
 20
22.2690944
 42
0.0
  0
VERTEX
  8
0
 10
22.3572832
 20
22.2387922
 42
0.0
  0
VERTEX
  8
0
 10
22.4441004
 20
22.2222568
 42
0.0
  0
VERTEX
  8
0
 10
22.7155756
 20
22.2236284
 42
0.0
  0
VERTEX
  8
0
 10
22.7555298
 20
22.2305118
 42
0.0
  0
VERTEX
  8
0
 10
23.0091234
 20
22.2732346
 42
0.0
  0
VERTEX
  8
0
 10
23.029799
 20
22.2801434
 42
0.0
  0
VERTEX
  8
0
 10
23.313644
 20
22.3710754
 42
0.0
  0
VERTEX
  8
0
 10
23.6264704
 20
22.5157538
 42
0.0
  0
VERTEX
  8
0
 10
23.7794546
 20
22.6067112
 42
0.0
  0
VERTEX
  8
0
 10
23.9351566
 20
22.6990656
 42
0.0
  0
VERTEX
  8
0
 10
24.2355624
 20
22.9223062
 42
0.0
  0
VERTEX
  8
0
 10
24.358219
 20
23.0325422
 42
0.0
  0
VERTEX
  8
0
 10
24.3623338
 20
23.0352854
 42
0.0
  0
VERTEX
  8
0
 10
24.5166896
 20
23.1744774
 42
0.0
  0
VERTEX
  8
0
 10
25.1795026
 20
23.8262922
 42
0.0
  0
VERTEX
  8
0
 10
25.438608
 20
24.1060224
 42
0.0
  0
VERTEX
  8
0
 10
25.457912
 20
24.1308128
 42
0.0
  0
VERTEX
  8
0
 10
25.667208
 20
24.4023134
 42
0.0
  0
VERTEX
  8
0
 10
25.811988
 20
24.6351806
 42
0.0
  0
VERTEX
  8
0
 10
25.858978
 20
24.7109996
 42
0.0
  0
VERTEX
  8
0
 10
26.010362
 20
25.0210574
 42
0.0
  0
VERTEX
  8
0
 10
26.03119
 20
25.0803156
 42
0.0
  0
VERTEX
  8
0
 10
26.06294
 20
25.1685044
 42
0.0
  0
VERTEX
  8
0
 10
26.118058
 20
25.3297182
 42
0.0
  0
VERTEX
  8
0
 10
26.17851
 20
25.624536
 42
0.0
  0
VERTEX
  8
0
 10
26.189686
 20
25.90165
 42
0.0
  0
VERTEX
  8
0
 10
26.152348
 20
26.152348
 42
0.0
  0
VERTEX
  8
0
 10
26.084784
 20
26.327354
 42
0.0
  0
VERTEX
  8
0
 10
26.067004
 20
26.37155
 42
0.0
  0
VERTEX
  8
0
 10
25.93467
 20
26.553414
 42
0.0
  0
VERTEX
  8
0
 10
25.847802
 20
26.64587
 42
0.0
  0
VERTEX
  8
0
 10
25.827228
 20
26.667714
 42
0.0
  0
VERTEX
  8
0
 10
25.569418
 20
26.93924
 42
0.0
  0
VERTEX
  8
0
 10
25.56256
 20
26.946098
 42
0.0
  0
VERTEX
  8
0
 10
25.3875794
 20
27.086814
 42
0.0
  0
VERTEX
  8
0
 10
25.2938788
 20
27.127962
 42
0.0
  0
VERTEX
  8
0
 10
25.1753878
 20
27.18181
 42
0.0
  0
VERTEX
  8
0
 10
24.9314716
 20
27.227276
 42
0.0
  0
VERTEX
  8
0
 10
24.6585994
 20
27.226006
 42
0.0
  0
VERTEX
  8
0
 10
24.366474
 20
27.176222
 42
0.0
  0
VERTEX
  8
0
 10
24.2190016
 20
27.127962
 42
0.0
  0
VERTEX
  8
0
 10
24.060531
 20
27.077162
 42
0.0
  0
VERTEX
  8
0
 10
23.7794546
 20
26.947622
 42
0.0
  0
VERTEX
  8
0
 10
23.7491016
 20
26.933652
 42
0.0
  0
VERTEX
  8
0
 10
23.4404154
 20
26.748994
 42
0.0
  0
VERTEX
  8
0
 10
23.140035
 20
26.527252
 42
0.0
  0
VERTEX
  8
0
 10
22.8575362
 20
26.27503
 42
0.0
  0
VERTEX
  8
0
 10
22.1946978
 20
25.623266
 42
0.0
  0
VERTEX
  8
0
 10
21.9356178
 20
25.343485
 42
0.0
  0
VERTEX
  8
0
 10
21.7330528
 20
25.0803156
 42
0.0
  0
VERTEX
  8
0
 10
21.7316812
 20
25.0775216
 42
0.0
  0
VERTEX
  8
0
 10
21.7082624
 20
25.0472194
 42
0.0
  0
VERTEX
  8
0
 10
21.56079
 20
24.8115582
 42
0.0
  0
VERTEX
  8
0
 10
21.5166956
 20
24.7426734
 42
0.0
  0
VERTEX
  8
0
 10
21.515324
 20
24.7385332
 42
0.0
  0
VERTEX
  8
0
 10
21.385784
 20
24.4725952
 42
0.0
  0
VERTEX
  8
0
 10
21.3637368
 20
24.4271038
 42
0.0
  0
VERTEX
  8
0
 10
21.3595966
 20
24.4160548
 42
0.0
  0
VERTEX
  8
0
 10
21.2576156
 20
24.1198146
 42
0.0
  0
VERTEX
  8
0
 10
21.2438488
 20
24.0564162
 42
0.0
  0
VERTEX
  8
0
 10
21.1969604
 20
23.8249206
 42
0.0
  0
VERTEX
  8
0
 10
21.1845906
 20
23.5479082
 42
0.0
  0
VERTEX
  8
0
 10
21.2204046
 20
23.3178096
 42
0.0
  0
VERTEX
  8
0
 10
21.2231732
 20
23.297134
 42
0.0
  0
SEQEND
  0
POLYLINE
  8
0
 66
     1
 10
0.0
 20
0.0
 30
0.0
 70
     1
  0
VERTEX
  8
0
 10
25.710134
 20
11.9861838
 42
0.0
  0
VERTEX
  8
0
 10
25.532334
 20
12.2893328
 42
0.0
  0
VERTEX
  8
0
 10
25.3104396
 20
12.5952504
 42
0.0
  0
VERTEX
  8
0
 10
25.1367798
 20
12.792329
 42
0.0
  0
VERTEX
  8
0
 10
25.056846
 20
12.883261
 42
0.0
  0
VERTEX
  8
0
 10
24.4050566
 20
13.5571484
 42
0.0
  0
VERTEX
  8
0
 10
24.1266726
 20
13.8203432
 42
0.0
  0
VERTEX
  8
0
 10
23.8304324
 20
14.0532104
 42
0.0
  0
VERTEX
  8
0
 10
23.7794546
 20
14.084935
 42
0.0
  0
VERTEX
  8
0
 10
23.61819
 20
14.1868906
 42
0.0
  0
VERTEX
  8
0
 10
23.5217462
 20
14.2475204
 42
0.0
  0
VERTEX
  8
0
 10
23.2103168
 20
14.4032478
 42
0.0
  0
VERTEX
  8
0
 10
23.0655876
 20
14.454251
 42
0.0
  0
VERTEX
  8
0
 10
22.9030022
 20
14.5121122
 42
0.0
  0
VERTEX
  8
0
 10
22.788626
 20
14.535531
 42
0.0
  0
VERTEX
  8
0
 10
22.6067112
 20
14.5727674
 42
0.0
  0
VERTEX
  8
0
 10
22.48408
 20
14.5768822
 42
0.0
  0
VERTEX
  8
0
 10
22.3297496
 20
14.5837656
 42
0.0
  0
VERTEX
  8
0
 10
22.0802962
 20
14.5452084
 42
0.0
  0
VERTEX
  8
0
 10
21.8612212
 20
14.4583912
 42
0.0
  0
VERTEX
  8
0
 10
21.763355
 20
14.3867378
 42
0.0
  0
VERTEX
  8
0
 10
21.7316812
 20
14.3632682
 42
0.0
  0
VERTEX
  8
0
 10
21.679281
 20
14.3260826
 42
0.0
  0
VERTEX
  8
0
 10
21.4216234
 20
14.0766546
 42
0.0
  0
VERTEX
  8
0
 10
21.2851746
 20
13.944346
 42
0.0
  0
VERTEX
  8
0
 10
21.1514944
 20
13.7776204
 42
0.0
  0
VERTEX
  8
0
 10
21.144611
 20
13.7679684
 42
0.0
  0
VERTEX
  8
0
 10
21.0509104
 20
13.5530082
 42
0.0
  0
VERTEX
  8
0
 10
21.0040728
 20
13.3021832
 42
0.0
  0
VERTEX
  8
0
 10
21.0040728
 20
13.2773928
 42
0.0
  0
VERTEX
  8
0
 10
21.0054444
 20
13.0252216
 42
0.0
  0
VERTEX
  8
0
 10
21.045424
 20
12.792329
 42
0.0
  0
VERTEX
  8
0
 10
21.0564222
 20
12.7289306
 42
0.0
  0
VERTEX
  8
0
 10
21.079841
 20
12.6559056
 42
0.0
  0
VERTEX
  8
0
 10
21.15566
 20
12.4175012
 42
0.0
  0
VERTEX
  8
0
 10
21.1777072
 20
12.3665234
 42
0.0
  0
VERTEX
  8
0
 10
21.2975952
 20
12.10056
 42
0.0
  0
VERTEX
  8
0
 10
21.4835994
 20
11.7863874
 42
0.0
  0
VERTEX
  8
0
 10
21.7054684
 20
11.4804444
 42
0.0
  0
VERTEX
  8
0
 10
21.957665
 20
11.1938054
 42
0.0
  0
VERTEX
  8
0
 10
22.391751
 20
10.7445556
 42
0.0
  0
VERTEX
  8
0
 10
22.6094544
 20
10.5185718
 42
0.0
  0
VERTEX
  8
0
 10
22.6618546
 20
10.4689656
 42
0.0
  0
VERTEX
  8
0
 10
22.8878384
 20
10.2553516
 42
0.0
  0
VERTEX
  8
0
 10
23.0973122
 20
10.0927662
 42
0.0
  0
VERTEX
  8
0
 10
23.185501
 20
10.023856
 42
0.0
  0
VERTEX
  8
0
 10
23.434929
 20
9.86536
 42
0.0
  0
VERTEX
  8
0
 10
23.4928156
 20
9.8281744
 42
0.0
  0
VERTEX
  8
0
 10
23.7449868
 20
9.7027746
 42
0.0
  0
VERTEX
  8
0
 10
23.7794546
 20
9.6862138
 42
0.0
  0
VERTEX
  8
0
 10
23.8056166
 20
9.673844
 42
0.0
  0
VERTEX
  8
0
 10
24.0591594
 20
9.5842582
 42
0.0
  0
VERTEX
  8
0
 10
24.1115596
 20
9.5649796
 42
0.0
  0
VERTEX
  8
0
 10
24.3954046
 20
9.505696
 42
0.0
  0
VERTEX
  8
0
 10
24.4078252
 20
9.5043244
 42
0.0
  0
VERTEX
  8
0
 10
24.6848122
 20
9.4919546
 42
0.0
  0
VERTEX
  8
0
 10
24.7771412
 20
9.505696
 42
0.0
  0
VERTEX
  8
0
 10
24.8033032
 20
9.5098362
 42
0.0
  0
VERTEX
  8
0
 10
24.9356118
 20
9.5291148
 42
0.0
  0
VERTEX
  8
0
 10
25.1533406
 20
9.617329
 42
0.0
  0
VERTEX
  8
0
 10
25.3366016
 20
9.7509838
 42
0.0
  0
VERTEX
  8
0
 10
25.729438
 20
10.1313488
 42
0.0
  0
VERTEX
  8
0
 10
25.774904
 20
10.1864668
 42
0.0
  0
VERTEX
  8
0
 10
25.827228
 20
10.25398
 42
0.0
  0
VERTEX
  8
0
 10
25.8699
 20
10.3077518
 42
0.0
  0
VERTEX
  8
0
 10
25.963626
 20
10.5240582
 42
0.0
  0
VERTEX
  8
0
 10
26.006298
 20
10.7445556
 42
0.0
  0
VERTEX
  8
0
 10
26.010362
 20
10.77214
 42
0.0
  0
VERTEX
  8
0
 10
26.009092
 20
11.0491016
 42
0.0
  0
VERTEX
  8
0
 10
25.958038
 20
11.3481612
 42
0.0
  0
VERTEX
  8
0
 10
25.860248
 20
11.658219
 42
0.0
  0
VERTEX
  8
0
 10
25.827228
 20
11.731244
 42
0.0
  0
VERTEX
  8
0
 10
25.80513
 20
11.7794532
 42
0.0
  0
VERTEX
  8
0
 10
25.716992
 20
11.9751602
 42
0.0
  0
SEQEND
  0
POLYLINE
  8
0
 66
     1
 10
0.0
 20
0.0
 30
0.0
 70
     1
  0
VERTEX
  8
0
 10
13.1464812
 20
13.6922002
 42
0.0
  0
VERTEX
  8
0
 10
13.096875
 20
13.8162284
 42
0.0
  0
VERTEX
  8
0
 10
13.059664
 20
13.9113006
 42
0.0
  0
VERTEX
  8
0
 10
13.0555238
 20
13.9168124
 42
0.0
  0
VERTEX
  8
0
 10
12.9273554
 20
14.0918184
 42
0.0
  0
VERTEX
  8
0
 10
12.8584706
 20
14.1634718
 42
0.0
  0
VERTEX
  8
0
 10
12.5746002
 20
14.4570196
 42
0.0
  0
VERTEX
  8
0
 10
12.5470412
 20
14.4859502
 42
0.0
  0
VERTEX
  8
0
 10
12.3706382
 20
14.6251168
 42
0.0
  0
VERTEX
  8
0
 10
12.154281
 20
14.7202144
 42
0.0
  0
VERTEX
  8
0
 10
11.9048784
 20
14.7670774
 42
0.0
  0
VERTEX
  8
0
 10
11.627866
 20
14.7643088
 42
0.0
  0
VERTEX
  8
0
 10
11.4914426
 20
14.74089
 42
0.0
  0
VERTEX
  8
0
 10
11.3302288
 20
14.7133056
 42
0.0
  0
VERTEX
  8
0
 10
11.1676434
 20
14.6623278
 42
0.0
  0
VERTEX
  8
0
 10
11.0187994
 20
14.6154648
 42
0.0
  0
VERTEX
  8
0
 10
10.9195616
 20
14.5713704
 42
0.0
  0
VERTEX
  8
0
 10
10.7018328
 20
14.4721326
 42
0.0
  0
VERTEX
  8
0
 10
10.3876348
 20
14.2875
 42
0.0
  0
VERTEX
  8
0
 10
10.116185
 20
14.0918184
 42
0.0
  0
VERTEX
  8
0
 10
10.0830888
 20
14.0670026
 42
0.0
  0
VERTEX
  8
0
 10
9.7950782
 20
13.8120628
 42
0.0
  0
VERTEX
  8
0
 10
9.4422976
 20
13.4730744
 42
0.0
  0
VERTEX
  8
0
 10
9.1212416
 20
13.161645
 42
0.0
  0
VERTEX
  8
0
 10
9.11987
 20
13.1602734
 42
0.0
  0
VERTEX
  8
0
 10
8.8566498
 20
12.883261
 42
0.0
  0
VERTEX
  8
0
 10
8.7863934
 20
12.792329
 42
0.0
  0
VERTEX
  8
0
 10
8.7615522
 20
12.7592582
 42
0.0
  0
VERTEX
  8
0
 10
8.6251288
 20
12.5856238
 42
0.0
  0
VERTEX
  8
0
 10
8.5341968
 20
12.4436632
 42
0.0
  0
VERTEX
  8
0
 10
8.4294472
 20
12.2783346
 42
0.0
  0
VERTEX
  8
0
 10
8.3646772
 20
12.1473976
 42
0.0
  0
VERTEX
  8
0
 10
8.2999072
 20
12.0151144
 42
0.0
  0
VERTEX
  8
0
 10
8.2751168
 20
11.9655082
 42
0.0
  0
VERTEX
  8
0
 10
8.1662524
 20
11.658219
 42
0.0
  0
VERTEX
  8
0
 10
8.1056226
 20
11.3632996
 42
0.0
  0
VERTEX
  8
0
 10
8.0932274
 20
11.0863126
 42
0.0
  0
VERTEX
  8
0
 10
8.1304384
 20
10.8354876
 42
0.0
  0
VERTEX
  8
0
 10
8.167624
 20
10.7445556
 42
0.0
  0
VERTEX
  8
0
 10
8.2186272
 20
10.6164126
 42
0.0
  0
VERTEX
  8
0
 10
8.2709766
 20
10.5447338
 42
0.0
  0
VERTEX
  8
0
 10
8.3523074
 20
10.4344978
 42
0.0
  0
VERTEX
  8
0
 10
8.4942172
 20
10.2870762
 42
0.0
  0
VERTEX
  8
0
 10
8.7326216
 20
10.040366
 42
0.0
  0
VERTEX
  8
0
 10
8.8428576
 20
9.9535488
 42
0.0
  0
VERTEX
  8
0
 10
8.9090246
 20
9.9011994
 42
0.0
  0
VERTEX
  8
0
 10
9.1253818
 20
9.8061272
 42
0.0
  0
VERTEX
  8
0
 10
9.3734128
 20
9.7592896
 42
0.0
  0
VERTEX
  8
0
 10
9.4037404
 20
9.7592896
 42
0.0
  0
VERTEX
  8
0
 10
9.4422976
 20
9.7606612
 42
0.0
  0
VERTEX
  8
0
 10
9.6503998
 20
9.7620328
 42
0.0
  0
VERTEX
  8
0
 10
9.949434
 20
9.8130106
 42
0.0
  0
VERTEX
  8
0
 10
10.2594918
 20
9.9108768
 42
0.0
  0
VERTEX
  8
0
 10
10.5295954
 20
10.032111
 42
0.0
  0
VERTEX
  8
0
 10
10.5764584
 20
10.0541582
 42
0.0
  0
VERTEX
  8
0
 10
10.890631
 20
10.2388162
 42
0.0
  0
VERTEX
  8
0
 10
11.196574
 20
10.4606852
 42
0.0
  0
VERTEX
  8
0
 10
11.4845846
 20
10.7142534
 42
0.0
  0
VERTEX
  8
0
 10
11.4914426
 20
10.7197398
 42
0.0
  0
VERTEX
  8
0
 10
11.5162584
 20
10.7445556
 42
0.0
  0
VERTEX
  8
0
 10
12.1584212
 20
11.3660682
 42
0.0
  0
VERTEX
  8
0
 10
12.421616
 20
11.6430298
 42
0.0
  0
VERTEX
  8
0
 10
12.654534
 20
11.9407178
 42
0.0
  0
VERTEX
  8
0
 10
12.8502156
 20
12.2480324
 42
0.0
  0
VERTEX
  8
0
 10
12.8639824
 20
12.2769376
 42
0.0
  0
VERTEX
  8
0
 10
13.004546
 20
12.5608334
 42
0.0
  0
VERTEX
  8
0
 10
13.0100578
 20
12.5759718
 42
0.0
  0
VERTEX
  8
0
 10
13.0555238
 20
12.7068834
 42
0.0
  0
VERTEX
  8
0
 10
13.0858768
 20
12.792329
 42
0.0
  0
VERTEX
  8
0
 10
13.1134104
 20
12.8681226
 42
0.0
  0
VERTEX
  8
0
 10
13.1740656
 20
13.1630166
 42
0.0
  0
VERTEX
  8
0
 10
13.1850638
 20
13.440029
 42
0.0
  0
SEQEND
  0
POLYLINE
  8
0
 66
     1
 10
0.0
 20
0.0
 30
0.0
 70
     1
  0
VERTEX
  8
0
 10
16.2029648
 20
113.145316
 42
0.0
  0
VERTEX
  8
0
 10
16.2374072
 20
112.64519
 42
0.0
  0
VERTEX
  8
0
 10
16.5874446
 20
111.7727
 42
0.0
  0
VERTEX
  8
0
 10
17.1896532
 20
111.053372
 42
0.0
  0
VERTEX
  8
0
 10
17.8924712
 20
110.612428
 42
0.0
  0
VERTEX
  8
0
 10
17.9847748
 20
110.553246
 42
0.0
  0
VERTEX
  8
0
 10
18.8956696
 20
110.324138
 42
0.0
  0
VERTEX
  8
0
 10
19.8327518
 20
110.389162
 42
0.0
  0
VERTEX
  8
0
 10
19.8644256
 20
110.401354
 42
0.0
  0
VERTEX
  8
0
 10
20.7036416
 20
110.739174
 42
0.0
  0
VERTEX
  8
0
 10
21.4243666
 20
111.341154
 42
0.0
  0
VERTEX
  8
0
 10
21.9245688
 20
112.136428
 42
0.0
  0
VERTEX
  8
0
 10
22.1533466
 20
113.047272
 42
0.0
  0
VERTEX
  8
0
 10
22.1464378
 20
113.145316
 42
0.0
  0
VERTEX
  8
0
 10
22.0885766
 20
113.984278
 42
0.0
  0
VERTEX
  8
0
 10
21.7385646
 20
114.855244
 42
0.0
  0
VERTEX
  8
0
 10
21.136356
 20
115.576096
 42
0.0
  0
VERTEX
  8
0
 10
20.3398628
 20
116.076222
 42
0.0
  0
VERTEX
  8
0
 10
19.4303396
 20
116.305076
 42
0.0
  0
VERTEX
  8
0
 10
18.4932828
 20
116.240306
 42
0.0
  0
VERTEX
  8
0
 10
17.6209706
 20
115.890294
 42
0.0
  0
VERTEX
  8
0
 10
16.9016426
 20
115.28806
 42
0.0
  0
VERTEX
  8
0
 10
16.401415
 20
114.491516
 42
0.0
  0
VERTEX
  8
0
 10
16.1726626
 20
113.582196
 42
0.0
  0
SEQEND
  0
POLYLINE
  8
0
 66
     1
 10
0.0
 20
0.0
 30
0.0
 70
     1
  0
VERTEX
  8
0
 10
17.9296568
 20
119.105172
 42
0.0
  0
VERTEX
  8
0
 10
18.1405022
 20
118.974362
 42
0.0
  0
VERTEX
  8
0
 10
18.2410862
 20
118.910862
 42
0.0
  0
VERTEX
  8
0
 10
18.7495688
 20
118.784116
 42
0.0
  0
VERTEX
  8
0
 10
18.7564776
 20
118.781322
 42
0.0
  0
VERTEX
  8
0
 10
18.7854082
 20
118.784116
 42
0.0
  0
VERTEX
  8
0
 10
19.2884044
 20
118.81866
 42
0.0
  0
VERTEX
  8
0
 10
19.298031
 20
118.822724
 42
0.0
  0
VERTEX
  8
0
 10
19.6714872
 20
118.974362
 42
0.0
  0
VERTEX
  8
0
 10
19.6825362
 20
118.978426
 42
0.0
  0
VERTEX
  8
0
 10
19.7817232
 20
119.018304
 42
0.0
  0
VERTEX
  8
0
 10
19.790029
 20
119.025416
 42
0.0
  0
VERTEX
  8
0
 10
19.9154034
 20
119.12981
 42
0.0
  0
VERTEX
  8
0
 10
20.1813668
 20
119.353076
 42
0.0
  0
VERTEX
  8
0
 10
20.1896472
 20
119.360188
 42
0.0
  0
VERTEX
  8
0
 10
20.472146
 20
119.812054
 42
0.0
  0
VERTEX
  8
0
 10
20.4749146
 20
119.8245
 42
0.0
  0
VERTEX
  8
0
 10
20.5975204
 20
120.316498
 42
0.0
  0
VERTEX
  8
0
 10
20.6016606
 20
120.328944
 42
0.0
  0
VERTEX
  8
0
 10
20.5975204
 20
120.371616
 42
0.0
  0
VERTEX
  8
0
 10
20.564475
 20
120.85955
 42
0.0
  0
VERTEX
  8
0
 10
20.5603602
 20
120.867678
 42
0.0
  0
VERTEX
  8
0
 10
20.3715366
 20
121.336054
 42
0.0
  0
VERTEX
  8
0
 10
20.3646532
 20
121.354088
 42
0.0
  0
VERTEX
  8
0
 10
20.359116
 20
121.358406
 42
0.0
  0
VERTEX
  8
0
 10
20.2172062
 20
121.529094
 42
0.0
  0
VERTEX
  8
0
 10
20.0215246
 20
121.762012
 42
0.0
  0
VERTEX
  8
0
 10
20.018756
 20
121.763282
 42
0.0
  0
VERTEX
  8
0
 10
19.7004432
 20
121.963434
 42
0.0
  0
VERTEX
  8
0
 10
19.56816
 20
122.045984
 42
0.0
  0
VERTEX
  8
0
 10
19.0513716
 20
122.174
 42
0.0
  0
VERTEX
  8
0
 10
18.5194702
 20
122.13844
 42
0.0
  0
VERTEX
  8
0
 10
18.0881274
 20
121.963434
 42
0.0
  0
VERTEX
  8
0
 10
18.026126
 20
121.937018
 42
0.0
  0
VERTEX
  8
0
 10
17.7463704
 20
121.7041
 42
0.0
  0
VERTEX
  8
0
 10
17.6182274
 20
121.595388
 42
0.0
  0
VERTEX
  8
0
 10
17.4556166
 20
121.336054
 42
0.0
  0
VERTEX
  8
0
 10
17.3839378
 20
121.220484
 42
0.0
  0
VERTEX
  8
0
 10
17.3357032
 20
121.144538
 42
0.0
  0
VERTEX
  8
0
 10
17.2268388
 20
120.707912
 42
0.0
  0
VERTEX
  8
0
 10
17.2075602
 20
120.628156
 42
0.0
  0
VERTEX
  8
0
 10
17.2268388
 20
120.34139
 42
0.0
  0
VERTEX
  8
0
 10
17.2378878
 20
120.185688
 42
0.0
  0
VERTEX
  8
0
 10
17.2433996
 20
120.096026
 42
0.0
  0
VERTEX
  8
0
 10
17.378426
 20
119.763794
 42
0.0
  0
VERTEX
  8
0
 10
17.4445676
 20
119.602504
 42
0.0
  0
VERTEX
  8
0
 10
17.78635
 20
119.194834
 42
0.0
  0
VERTEX
  8
0
 10
17.7890932
 20
119.19331
 42
0.0
  0
VERTEX
  8
0
 10
17.7890932
 20
119.19204
 42
0.0
  0
SEQEND
  0
ENDSEC
  0
EOF
