  0
SECTION
  2
HEADER
  9
$ACADVER
  1
AC1009
  9
$FILLMODE
 70
 0
  9
$SPLFRAME
 70
 1
  9
$EXTMIN
 10
0
 20
0
 30
0.0
  9
$EXTMAX
 10
41.6667
 20
41.6667
 30
0.0
  0
ENDSEC
  0
SECTION
  2
TABLES
  0
TABLE
  2
LAYER
 70
1
  0
LAYER
  2
0
 70
     0
 62
     7
  6
CONTINUOUS
  0
ENDTAB
  0
ENDSEC
  0
SECTION
  2
ENTITIES
  0
POLYLINE
  8
0
 62
     254
 66
     1
 10
0
 20
0
 30
0.0
 70
     1
 40
0
 41
0
  0
VERTEX
  8
0
 10
0.730524
 20
3.56347
 30
0.0
 40
0
 41
0
  0
VERTEX
  8
0
 10
0.730794
 20
3.56342
 30
0.0
 40
0
 41
0
  0
VERTEX
  8
0
 10
0.733778
 20
3.56267
 30
0.0
 40
0
 41
0
  0
VERTEX
  8
0
 10
0.734267
 20
3.56256
 30
0.0
 40
0
 41
0
  0
VERTEX
  8
0
 10
0.735894
 20
3.56267
 30
0.0
 40
0
 41
0
  0
VERTEX
  8
0
 10
0.746365
 20
3.56342
 30
0.0
 40
0
 41
0
  0
VERTEX
  8
0
 10
0.755154
 20
3.56401
 30
0.0
 40
0
 41
0
  0
VERTEX
  8
0
 10
0.755425
 20
3.56413
 30
0.0
 40
0
 41
0
  0
VERTEX
  8
0
 10
0.759494
 20
3.56581
 30
0.0
 40
0
 41
0
  0
VERTEX
  8
0
 10
0.774631
 20
3.57189
 30
0.0
 40
0
 41
0
  0
VERTEX
  8
0
 10
0.774903
 20
3.57215
 30
0.0
 40
0
 41
0
  0
VERTEX
  8
0
 10
0.775011
 20
3.57221
 30
0.0
 40
0
 41
0
  0
VERTEX
  8
0
 10
0.787435
 20
3.58263
 30
0.0
 40
0
 41
0
  0
VERTEX
  8
0
 10
0.790256
 20
3.58501
 30
0.0
 40
0
 41
0
  0
VERTEX
  8
0
 10
0.79069
 20
3.58535
 30
0.0
 40
0
 41
0
  0
VERTEX
  8
0
 10
0.796713
 20
3.59506
 30
0.0
 40
0
 41
0
  0
VERTEX
  8
0
 10
0.801758
 20
3.60314
 30
0.0
 40
0
 41
0
  0
VERTEX
  8
0
 10
0.801867
 20
3.60357
 30
0.0
 40
0
 41
0
  0
VERTEX
  8
0
 10
0.806749
 20
3.62315
 30
0.0
 40
0
 41
0
  0
VERTEX
  8
0
 10
0.806803
 20
3.62343
 30
0.0
 40
0
 41
0
  0
VERTEX
  8
0
 10
0.806749
 20
3.62457
 30
0.0
 40
0
 41
0
  0
VERTEX
  8
0
 10
0.805339
 20
3.64442
 30
0.0
 40
0
 41
0
  0
VERTEX
  8
0
 10
0.805231
 20
3.64475
 30
0.0
 40
0
 41
0
  0
VERTEX
  8
0
 10
0.803819
 20
3.64822
 30
0.0
 40
0
 41
0
  0
VERTEX
  8
0
 10
0.797526
 20
3.66379
 30
0.0
 40
0
 41
0
  0
VERTEX
  8
0
 10
0.797364
 20
3.66396
 30
0.0
 40
0
 41
0
  0
VERTEX
  8
0
 10
0.796713
 20
3.66476
 30
0.0
 40
0
 41
0
  0
VERTEX
  8
0
 10
0.784071
 20
3.67985
 30
0.0
 40
0
 41
0
  0
VERTEX
  8
0
 10
0.784017
 20
3.6799
 30
0.0
 40
0
 41
0
  0
VERTEX
  8
0
 10
0.783963
 20
3.68001
 30
0.0
 40
0
 41
0
  0
VERTEX
  8
0
 10
0.774903
 20
3.6856
 30
0.0
 40
0
 41
0
  0
VERTEX
  8
0
 10
0.773004
 20
3.68679
 30
0.0
 40
0
 41
0
  0
VERTEX
  8
0
 10
0.766168
 20
3.69108
 30
0.0
 40
0
 41
0
  0
VERTEX
  8
0
 10
0.745822
 20
3.69618
 30
0.0
 40
0
 41
0
  0
VERTEX
  8
0
 10
0.724881
 20
3.69467
 30
0.0
 40
0
 41
0
  0
VERTEX
  8
0
 10
0.705458
 20
3.68685
 30
0.0
 40
0
 41
0
  0
VERTEX
  8
0
 10
0.705404
 20
3.68679
 30
0.0
 40
0
 41
0
  0
VERTEX
  8
0
 10
0.697103
 20
3.67979
 30
0.0
 40
0
 41
0
  0
VERTEX
  8
0
 10
0.689399
 20
3.67339
 30
0.0
 40
0
 41
0
  0
VERTEX
  8
0
 10
0.680447
 20
3.65901
 30
0.0
 40
0
 41
0
  0
VERTEX
  8
0
 10
0.678331
 20
3.6556
 30
0.0
 40
0
 41
0
  0
VERTEX
  8
0
 10
0.676486
 20
3.64822
 30
0.0
 40
0
 41
0
  0
VERTEX
  8
0
 10
0.673286
 20
3.63558
 30
0.0
 40
0
 41
0
  0
VERTEX
  8
0
 10
0.673232
 20
3.63525
 30
0.0
 40
0
 41
0
  0
VERTEX
  8
0
 10
0.673286
 20
3.63411
 30
0.0
 40
0
 41
0
  0
VERTEX
  8
0
 10
0.673503
 20
3.6314
 30
0.0
 40
0
 41
0
  0
VERTEX
  8
0
 10
0.673286
 20
3.63064
 30
0.0
 40
0
 41
0
  0
VERTEX
  8
0
 10
0.674642
 20
3.61128
 30
0.0
 40
0
 41
0
  0
VERTEX
  8
0
 10
0.681858
 20
3.59332
 30
0.0
 40
0
 41
0
  0
VERTEX
  8
0
 10
0.694282
 20
3.5784
 30
0.0
 40
0
 41
0
  0
VERTEX
  8
0
 10
0.710721
 20
3.56814
 30
0.0
 40
0
 41
0
  0
VERTEX
  8
0
 10
0.729546
 20
3.56342
 30
0.0
 40
0
 41
0
  0
VERTEX
  8
0
 10
0.730524
 20
3.56347
 30
0.0
 40
0
 41
0
  0
SEQEND
 8
0
  0
POLYLINE
  8
0
 62
     254
 66
     1
 10
0
 20
0
 30
0.0
 70
     1
 40
0
 41
0
  0
VERTEX
  8
0
 10
1.17622
 20
1.09446
 30
0.0
 40
0
 41
0
  0
VERTEX
  8
0
 10
1.16965
 20
0.752604
 30
0.0
 40
0
 41
0
  0
VERTEX
  8
0
 10
1.16938
 20
0.739094
 30
0.0
 40
0
 41
0
  0
VERTEX
  8
0
 10
1.21436
 20
0.591146
 30
0.0
 40
0
 41
0
  0
VERTEX
  8
0
 10
1.2998
 20
0.309896
 30
0.0
 40
0
 41
0
  0
VERTEX
  8
0
 10
1.16368
 20
0.214899
 30
0.0
 40
0
 41
0
  0
VERTEX
  8
0
 10
0.920247
 20
0.0450846
 30
0.0
 40
0
 41
0
  0
VERTEX
  8
0
 10
0.857042
 20
0.0928819
 30
0.0
 40
0
 41
0
  0
VERTEX
  8
0
 10
0.716092
 20
0.199436
 30
0.0
 40
0
 41
0
  0
VERTEX
  8
0
 10
0.664225
 20
0.168078
 30
0.0
 40
0
 41
0
  0
VERTEX
  8
0
 10
0.616211
 20
0.199761
 30
0.0
 40
0
 41
0
  0
VERTEX
  8
0
 10
0.513997
 20
0.128472
 30
0.0
 40
0
 41
0
  0
VERTEX
  8
0
 10
0.408529
 20
0.0548503
 30
0.0
 40
0
 41
0
  0
VERTEX
  8
0
 10
0.205567
 20
0.208333
 30
0.0
 40
0
 41
0
  0
VERTEX
  8
0
 10
0.0393881
 20
0.334039
 30
0.0
 40
0
 41
0
  0
VERTEX
  8
0
 10
0.176215
 20
0.729221
 30
0.0
 40
0
 41
0
  0
VERTEX
  8
0
 10
0.181099
 20
0.743326
 30
0.0
 40
0
 41
0
  0
VERTEX
  8
0
 10
0.188206
 20
1.11344
 30
0.0
 40
0
 41
0
  0
VERTEX
  8
0
 10
0.300618
 20
1.18142
 30
0.0
 40
0
 41
0
  0
VERTEX
  8
0
 10
0.335667
 20
1.20264
 30
0.0
 40
0
 41
0
  0
VERTEX
  8
0
 10
0.338108
 20
1.22933
 30
0.0
 40
0
 41
0
  0
VERTEX
  8
0
 10
0.339464
 20
1.24452
 30
0.0
 40
0
 41
0
  0
VERTEX
  8
0
 10
0.354818
 20
1.43143
 30
0.0
 40
0
 41
0
  0
VERTEX
  8
0
 10
0.369032
 20
1.62424
 30
0.0
 40
0
 41
0
  0
VERTEX
  8
0
 10
0.382107
 20
1.82292
 30
0.0
 40
0
 41
0
  0
VERTEX
  8
0
 10
0.385092
 20
1.87435
 30
0.0
 40
0
 41
0
  0
VERTEX
  8
0
 10
0.394043
 20
2.02746
 30
0.0
 40
0
 41
0
  0
VERTEX
  8
0
 10
0.401585
 20
2.17275
 30
0.0
 40
0
 41
0
  0
VERTEX
  8
0
 10
0.404949
 20
2.23779
 30
0.0
 40
0
 41
0
  0
VERTEX
  8
0
 10
0.41466
 20
2.45404
 30
0.0
 40
0
 41
0
  0
VERTEX
  8
0
 10
0.42296
 20
2.66857
 30
0.0
 40
0
 41
0
  0
VERTEX
  8
0
 10
0.429633
 20
2.87761
 30
0.0
 40
0
 41
0
  0
VERTEX
  8
0
 10
0.434788
 20
3.08128
 30
0.0
 40
0
 41
0
  0
VERTEX
  8
0
 10
0.436253
 20
3.16444
 30
0.0
 40
0
 41
0
  0
VERTEX
  8
0
 10
0.438314
 20
3.2794
 30
0.0
 40
0
 41
0
  0
VERTEX
  8
0
 10
0.440212
 20
3.47211
 30
0.0
 40
0
 41
0
  0
VERTEX
  8
0
 10
0.440539
 20
3.6594
 30
0.0
 40
0
 41
0
  0
VERTEX
  8
0
 10
0.439996
 20
3.73981
 30
0.0
 40
0
 41
0
  0
VERTEX
  8
0
 10
0.439615
 20
3.79704
 30
0.0
 40
0
 41
0
  0
VERTEX
  8
0
 10
0.439507
 20
3.80946
 30
0.0
 40
0
 41
0
  0
VERTEX
  8
0
 10
0.43929
 20
3.84299
 30
0.0
 40
0
 41
0
  0
VERTEX
  8
0
 10
0.436199
 20
4.02083
 30
0.0
 40
0
 41
0
  0
VERTEX
  8
0
 10
0.431207
 20
4.19287
 30
0.0
 40
0
 41
0
  0
VERTEX
  8
0
 10
0.424425
 20
4.35915
 30
0.0
 40
0
 41
0
  0
VERTEX
  8
0
 10
0.419325
 20
4.45454
 30
0.0
 40
0
 41
0
  0
VERTEX
  8
0
 10
0.415853
 20
4.51969
 30
0.0
 40
0
 41
0
  0
VERTEX
  8
0
 10
0.415744
 20
4.52126
 30
0.0
 40
0
 41
0
  0
VERTEX
  8
0
 10
0.405382
 20
4.67443
 30
0.0
 40
0
 41
0
  0
VERTEX
  8
0
 10
0.393175
 20
4.82553
 30
0.0
 40
0
 41
0
  0
VERTEX
  8
0
 10
0.383083
 20
4.92888
 30
0.0
 40
0
 41
0
  0
VERTEX
  8
0
 10
0.384657
 20
4.93067
 30
0.0
 40
0
 41
0
  0
VERTEX
  8
0
 10
0.387858
 20
4.93435
 30
0.0
 40
0
 41
0
  0
VERTEX
  8
0
 10
0.390082
 20
4.9369
 30
0.0
 40
0
 41
0
  0
VERTEX
  8
0
 10
0.517469
 20
5.0829
 30
0.0
 40
0
 41
0
  0
VERTEX
  8
0
 10
0.584418
 20
5.15967
 30
0.0
 40
0
 41
0
  0
VERTEX
  8
0
 10
0.701551
 20
5.29394
 30
0.0
 40
0
 41
0
  0
VERTEX
  8
0
 10
0.893337
 20
5.12668
 30
0.0
 40
0
 41
0
  0
VERTEX
  8
0
 10
0.912651
 20
5.10986
 30
0.0
 40
0
 41
0
  0
VERTEX
  8
0
 10
1.12831
 20
4.92171
 30
0.0
 40
0
 41
0
  0
VERTEX
  8
0
 10
1.13118
 20
4.91917
 30
0.0
 40
0
 41
0
  0
VERTEX
  8
0
 10
1.13439
 20
4.91639
 30
0.0
 40
0
 41
0
  0
VERTEX
  8
0
 10
1.13591
 20
4.91504
 30
0.0
 40
0
 41
0
  0
VERTEX
  8
0
 10
1.1218
 20
4.81153
 30
0.0
 40
0
 41
0
  0
VERTEX
  8
0
 10
1.10379
 20
4.66103
 30
0.0
 40
0
 41
0
  0
VERTEX
  8
0
 10
1.09136
 20
4.54411
 30
0.0
 40
0
 41
0
  0
VERTEX
  8
0
 10
1.0874
 20
4.50678
 30
0.0
 40
0
 41
0
  0
VERTEX
  8
0
 10
1.08257
 20
4.45454
 30
0.0
 40
0
 41
0
  0
VERTEX
  8
0
 10
1.07265
 20
4.34674
 30
0.0
 40
0
 41
0
  0
VERTEX
  8
0
 10
1.05946
 20
4.18083
 30
0.0
 40
0
 41
0
  0
VERTEX
  8
0
 10
1.04791
 20
4.00906
 30
0.0
 40
0
 41
0
  0
VERTEX
  8
0
 10
1.03798
 20
3.83149
 30
0.0
 40
0
 41
0
  0
VERTEX
  8
0
 10
1.037
 20
3.80946
 30
0.0
 40
0
 41
0
  0
VERTEX
  8
0
 10
1.03646
 20
3.79807
 30
0.0
 40
0
 41
0
  0
VERTEX
  8
0
 10
1.02962
 20
3.64806
 30
0.0
 40
0
 41
0
  0
VERTEX
  8
0
 10
1.02279
 20
3.46094
 30
0.0
 40
0
 41
0
  0
VERTEX
  8
0
 10
1.01731
 20
3.26828
 30
0.0
 40
0
 41
0
  0
VERTEX
  8
0
 10
1.01519
 20
3.16444
 30
0.0
 40
0
 41
0
  0
VERTEX
  8
0
 10
1.01492
 20
3.1511
 30
0.0
 40
0
 41
0
  0
VERTEX
  8
0
 10
1.01324
 20
3.07015
 30
0.0
 40
0
 41
0
  0
VERTEX
  8
0
 10
1.01052
 20
2.86649
 30
0.0
 40
0
 41
0
  0
VERTEX
  8
0
 10
1.00922
 20
2.65733
 30
0.0
 40
0
 41
0
  0
VERTEX
  8
0
 10
1.00928
 20
2.4426
 30
0.0
 40
0
 41
0
  0
VERTEX
  8
0
 10
1.01069
 20
2.22618
 30
0.0
 40
0
 41
0
  0
VERTEX
  8
0
 10
1.01259
 20
2.08296
 30
0.0
 40
0
 41
0
  0
VERTEX
  8
0
 10
1.01346
 20
2.01551
 30
0.0
 40
0
 41
0
  0
VERTEX
  8
0
 10
1.01628
 20
1.87435
 30
0.0
 40
0
 41
0
  0
VERTEX
  8
0
 10
1.01758
 20
1.81071
 30
0.0
 40
0
 41
0
  0
VERTEX
  8
0
 10
1.0211
 20
1.68164
 30
0.0
 40
0
 41
0
  0
VERTEX
  8
0
 10
1.02279
 20
1.61828
 30
0.0
 40
0
 41
0
  0
VERTEX
  8
0
 10
1.023
 20
1.61165
 30
0.0
 40
0
 41
0
  0
VERTEX
  8
0
 10
1.02978
 20
1.41846
 30
0.0
 40
0
 41
0
  0
VERTEX
  8
0
 10
1.03792
 20
1.23107
 30
0.0
 40
0
 41
0
  0
VERTEX
  8
0
 10
1.03803
 20
1.22933
 30
0.0
 40
0
 41
0
  0
VERTEX
  8
0
 10
1.04037
 20
1.18397
 30
0.0
 40
0
 41
0
  0
VERTEX
  8
0
 10
1.07064
 20
1.16401
 30
0.0
 40
0
 41
0
  0
VERTEX
  8
0
 10
1.11849
 20
1.13249
 30
0.0
 40
0
 41
0
  0
VERTEX
  8
0
 10
1.16227
 20
1.10368
 30
0.0
 40
0
 41
0
  0
VERTEX
  8
0
 10
1.17622
 20
1.09446
 30
0.0
 40
0
 41
0
  0
SEQEND
 8
0
  0
POLYLINE
  8
0
 62
     254
 66
     1
 10
0
 20
0
 30
0.0
 70
     1
 40
0
 41
0
  0
VERTEX
  8
0
 10
0.527561
 20
0.764919
 30
0.0
 40
0
 41
0
  0
VERTEX
  8
0
 10
0.524143
 20
0.745551
 30
0.0
 40
0
 41
0
  0
VERTEX
  8
0
 10
0.523981
 20
0.744575
 30
0.0
 40
0
 41
0
  0
VERTEX
  8
0
 10
0.523167
 20
0.722493
 30
0.0
 40
0
 41
0
  0
VERTEX
  8
0
 10
0.525499
 20
0.700467
 30
0.0
 40
0
 41
0
  0
VERTEX
  8
0
 10
0.528917
 20
0.686849
 30
0.0
 40
0
 41
0
  0
VERTEX
  8
0
 10
0.529514
 20
0.684353
 30
0.0
 40
0
 41
0
  0
VERTEX
  8
0
 10
0.530871
 20
0.678982
 30
0.0
 40
0
 41
0
  0
VERTEX
  8
0
 10
0.534397
 20
0.670139
 30
0.0
 40
0
 41
0
  0
VERTEX
  8
0
 10
0.537815
 20
0.661783
 30
0.0
 40
0
 41
0
  0
VERTEX
  8
0
 10
0.539117
 20
0.658475
 30
0.0
 40
0
 41
0
  0
VERTEX
  8
0
 10
0.542589
 20
0.652507
 30
0.0
 40
0
 41
0
  0
VERTEX
  8
0
 10
0.548178
 20
0.642796
 30
0.0
 40
0
 41
0
  0
VERTEX
  8
0
 10
0.550239
 20
0.639268
 30
0.0
 40
0
 41
0
  0
VERTEX
  8
0
 10
0.554958
 20
0.633192
 30
0.0
 40
0
 41
0
  0
VERTEX
  8
0
 10
0.562608
 20
0.623426
 30
0.0
 40
0
 41
0
  0
VERTEX
  8
0
 10
0.563857
 20
0.621853
 30
0.0
 40
0
 41
0
  0
VERTEX
  8
0
 10
0.579753
 20
0.606446
 30
0.0
 40
0
 41
0
  0
VERTEX
  8
0
 10
0.597657
 20
0.593479
 30
0.0
 40
0
 41
0
  0
VERTEX
  8
0
 10
0.602051
 20
0.591146
 30
0.0
 40
0
 41
0
  0
VERTEX
  8
0
 10
0.614854
 20
0.584256
 30
0.0
 40
0
 41
0
  0
VERTEX
  8
0
 10
0.617242
 20
0.583008
 30
0.0
 40
0
 41
0
  0
VERTEX
  8
0
 10
0.638021
 20
0.575467
 30
0.0
 40
0
 41
0
  0
VERTEX
  8
0
 10
0.659668
 20
0.570856
 30
0.0
 40
0
 41
0
  0
VERTEX
  8
0
 10
0.681749
 20
0.569336
 30
0.0
 40
0
 41
0
  0
VERTEX
  8
0
 10
0.703885
 20
0.570856
 30
0.0
 40
0
 41
0
  0
VERTEX
  8
0
 10
0.711317
 20
0.572428
 30
0.0
 40
0
 41
0
  0
VERTEX
  8
0
 10
0.725532
 20
0.575467
 30
0.0
 40
0
 41
0
  0
VERTEX
  8
0
 10
0.746365
 20
0.583008
 30
0.0
 40
0
 41
0
  0
VERTEX
  8
0
 10
0.748699
 20
0.584256
 30
0.0
 40
0
 41
0
  0
VERTEX
  8
0
 10
0.761501
 20
0.591146
 30
0.0
 40
0
 41
0
  0
VERTEX
  8
0
 10
0.765842
 20
0.593479
 30
0.0
 40
0
 41
0
  0
VERTEX
  8
0
 10
0.774903
 20
0.600043
 30
0.0
 40
0
 41
0
  0
VERTEX
  8
0
 10
0.7838
 20
0.606446
 30
0.0
 40
0
 41
0
  0
VERTEX
  8
0
 10
0.788574
 20
0.611057
 30
0.0
 40
0
 41
0
  0
VERTEX
  8
0
 10
0.79975
 20
0.621853
 30
0.0
 40
0
 41
0
  0
VERTEX
  8
0
 10
0.803549
 20
0.626736
 30
0.0
 40
0
 41
0
  0
VERTEX
  8
0
 10
0.813368
 20
0.639268
 30
0.0
 40
0
 41
0
  0
VERTEX
  8
0
 10
0.817383
 20
0.646322
 30
0.0
 40
0
 41
0
  0
VERTEX
  8
0
 10
0.824436
 20
0.658475
 30
0.0
 40
0
 41
0
  0
VERTEX
  8
0
 10
0.82856
 20
0.668674
 30
0.0
 40
0
 41
0
  0
VERTEX
  8
0
 10
0.832736
 20
0.678982
 30
0.0
 40
0
 41
0
  0
VERTEX
  8
0
 10
0.837185
 20
0.69694
 30
0.0
 40
0
 41
0
  0
VERTEX
  8
0
 10
0.838053
 20
0.700467
 30
0.0
 40
0
 41
0
  0
VERTEX
  8
0
 10
0.840386
 20
0.722493
 30
0.0
 40
0
 41
0
  0
VERTEX
  8
0
 10
0.839899
 20
0.736274
 30
0.0
 40
0
 41
0
  0
VERTEX
  8
0
 10
0.839626
 20
0.744575
 30
0.0
 40
0
 41
0
  0
VERTEX
  8
0
 10
0.839464
 20
0.745551
 30
0.0
 40
0
 41
0
  0
VERTEX
  8
0
 10
0.837076
 20
0.758951
 30
0.0
 40
0
 41
0
  0
VERTEX
  8
0
 10
0.837076
 20
0.759006
 30
0.0
 40
0
 41
0
  0
VERTEX
  8
0
 10
0.835775
 20
0.766385
 30
0.0
 40
0
 41
0
  0
VERTEX
  8
0
 10
0.828939
 20
0.787489
 30
0.0
 40
0
 41
0
  0
VERTEX
  8
0
 10
0.819228
 20
0.807346
 30
0.0
 40
0
 41
0
  0
VERTEX
  8
0
 10
0.806858
 20
0.825737
 30
0.0
 40
0
 41
0
  0
VERTEX
  8
0
 10
0.792046
 20
0.842176
 30
0.0
 40
0
 41
0
  0
VERTEX
  8
0
 10
0.775065
 20
0.856392
 30
0.0
 40
0
 41
0
  0
VERTEX
  8
0
 10
0.774903
 20
0.8565
 30
0.0
 40
0
 41
0
  0
VERTEX
  8
0
 10
0.756293
 20
0.86811
 30
0.0
 40
0
 41
0
  0
VERTEX
  8
0
 10
0.741699
 20
0.874675
 30
0.0
 40
0
 41
0
  0
VERTEX
  8
0
 10
0.736057
 20
0.877171
 30
0.0
 40
0
 41
0
  0
VERTEX
  8
0
 10
0.714789
 20
0.883247
 30
0.0
 40
0
 41
0
  0
VERTEX
  8
0
 10
0.692871
 20
0.886339
 30
0.0
 40
0
 41
0
  0
VERTEX
  8
0
 10
0.670736
 20
0.886339
 30
0.0
 40
0
 41
0
  0
VERTEX
  8
0
 10
0.648762
 20
0.883247
 30
0.0
 40
0
 41
0
  0
VERTEX
  8
0
 10
0.627496
 20
0.877171
 30
0.0
 40
0
 41
0
  0
VERTEX
  8
0
 10
0.613661
 20
0.870985
 30
0.0
 40
0
 41
0
  0
VERTEX
  8
0
 10
0.60726
 20
0.86811
 30
0.0
 40
0
 41
0
  0
VERTEX
  8
0
 10
0.588488
 20
0.856392
 30
0.0
 40
0
 41
0
  0
VERTEX
  8
0
 10
0.57156
 20
0.842176
 30
0.0
 40
0
 41
0
  0
VERTEX
  8
0
 10
0.556749
 20
0.825737
 30
0.0
 40
0
 41
0
  0
VERTEX
  8
0
 10
0.544379
 20
0.807346
 30
0.0
 40
0
 41
0
  0
VERTEX
  8
0
 10
0.534668
 20
0.787489
 30
0.0
 40
0
 41
0
  0
VERTEX
  8
0
 10
0.527778
 20
0.766385
 30
0.0
 40
0
 41
0
  0
VERTEX
  8
0
 10
0.527561
 20
0.764919
 30
0.0
 40
0
 41
0
  0
SEQEND
 8
0
  0
POLYLINE
  8
0
 62
     254
 66
     1
 10
0
 20
0
 30
0.0
 70
     1
 40
0
 41
0
  0
VERTEX
  8
0
 10
0.513997
 20
0.895019
 30
0.0
 40
0
 41
0
  0
VERTEX
  8
0
 10
0.524143
 20
0.904568
 30
0.0
 40
0
 41
0
  0
VERTEX
  8
0
 10
0.526476
 20
0.906793
 30
0.0
 40
0
 41
0
  0
VERTEX
  8
0
 10
0.526585
 20
0.906901
 30
0.0
 40
0
 41
0
  0
VERTEX
  8
0
 10
0.532064
 20
0.913792
 30
0.0
 40
0
 41
0
  0
VERTEX
  8
0
 10
0.53304
 20
0.915907
 30
0.0
 40
0
 41
0
  0
VERTEX
  8
0
 10
0.533963
 20
0.918024
 30
0.0
 40
0
 41
0
  0
VERTEX
  8
0
 10
0.535807
 20
0.922092
 30
0.0
 40
0
 41
0
  0
VERTEX
  8
0
 10
0.537381
 20
0.930393
 30
0.0
 40
0
 41
0
  0
VERTEX
  8
0
 10
0.537651
 20
0.931749
 30
0.0
 40
0
 41
0
  0
VERTEX
  8
0
 10
0.537543
 20
0.942492
 30
0.0
 40
0
 41
0
  0
VERTEX
  8
0
 10
0.535536
 20
0.953993
 30
0.0
 40
0
 41
0
  0
VERTEX
  8
0
 10
0.533257
 20
0.9611
 30
0.0
 40
0
 41
0
  0
VERTEX
  8
0
 10
0.53304
 20
0.96186
 30
0.0
 40
0
 41
0
  0
VERTEX
  8
0
 10
0.531685
 20
0.966038
 30
0.0
 40
0
 41
0
  0
VERTEX
  8
0
 10
0.527181
 20
0.975857
 30
0.0
 40
0
 41
0
  0
VERTEX
  8
0
 10
0.526042
 20
0.978299
 30
0.0
 40
0
 41
0
  0
VERTEX
  8
0
 10
0.520617
 20
0.987414
 30
0.0
 40
0
 41
0
  0
VERTEX
  8
0
 10
0.518772
 20
0.990451
 30
0.0
 40
0
 41
0
  0
VERTEX
  8
0
 10
0.513997
 20
0.996907
 30
0.0
 40
0
 41
0
  0
VERTEX
  8
0
 10
0.510037
 20
1.00228
 30
0.0
 40
0
 41
0
  0
VERTEX
  8
0
 10
0.500054
 20
1.01335
 30
0.0
 40
0
 41
0
  0
VERTEX
  8
0
 10
0.474393
 20
1.0395
 30
0.0
 40
0
 41
0
  0
VERTEX
  8
0
 10
0.463488
 20
1.0497
 30
0.0
 40
0
 41
0
  0
VERTEX
  8
0
 10
0.452419
 20
1.05816
 30
0.0
 40
0
 41
0
  0
VERTEX
  8
0
 10
0.451768
 20
1.05865
 30
0.0
 40
0
 41
0
  0
VERTEX
  8
0
 10
0.441135
 20
1.06532
 30
0.0
 40
0
 41
0
  0
VERTEX
  8
0
 10
0.439671
 20
1.06624
 30
0.0
 40
0
 41
0
  0
VERTEX
  8
0
 10
0.435926
 20
1.06803
 30
0.0
 40
0
 41
0
  0
VERTEX
  8
0
 10
0.429688
 20
1.07107
 30
0.0
 40
0
 41
0
  0
VERTEX
  8
0
 10
0.427354
 20
1.07221
 30
0.0
 40
0
 41
0
  0
VERTEX
  8
0
 10
0.419
 20
1.07509
 30
0.0
 40
0
 41
0
  0
VERTEX
  8
0
 10
0.415256
 20
1.07639
 30
0.0
 40
0
 41
0
  0
VERTEX
  8
0
 10
0.409017
 20
1.07769
 30
0.0
 40
0
 41
0
  0
VERTEX
  8
0
 10
0.403646
 20
1.07878
 30
0.0
 40
0
 41
0
  0
VERTEX
  8
0
 10
0.3986
 20
1.07899
 30
0.0
 40
0
 41
0
  0
VERTEX
  8
0
 10
0.39274
 20
1.07921
 30
0.0
 40
0
 41
0
  0
VERTEX
  8
0
 10
0.382867
 20
1.07775
 30
0.0
 40
0
 41
0
  0
VERTEX
  8
0
 10
0.37424
 20
1.07438
 30
0.0
 40
0
 41
0
  0
VERTEX
  8
0
 10
0.367079
 20
1.06923
 30
0.0
 40
0
 41
0
  0
VERTEX
  8
0
 10
0.365831
 20
1.06803
 30
0.0
 40
0
 41
0
  0
VERTEX
  8
0
 10
0.360514
 20
1.06299
 30
0.0
 40
0
 41
0
  0
VERTEX
  8
0
 10
0.351563
 20
1.05452
 30
0.0
 40
0
 41
0
  0
VERTEX
  8
0
 10
0.350857
 20
1.05366
 30
0.0
 40
0
 41
0
  0
VERTEX
  8
0
 10
0.346083
 20
1.04769
 30
0.0
 40
0
 41
0
  0
VERTEX
  8
0
 10
0.343099
 20
1.04096
 30
0.0
 40
0
 41
0
  0
VERTEX
  8
0
 10
0.342339
 20
1.03933
 30
0.0
 40
0
 41
0
  0
VERTEX
  8
0
 10
0.340494
 20
1.02968
 30
0.0
 40
0
 41
0
  0
VERTEX
  8
0
 10
0.340549
 20
1.02772
 30
0.0
 40
0
 41
0
  0
VERTEX
  8
0
 10
0.340549
 20
1.02143
 30
0.0
 40
0
 41
0
  0
VERTEX
  8
0
 10
0.340603
 20
1.01899
 30
0.0
 40
0
 41
0
  0
VERTEX
  8
0
 10
0.342611
 20
1.00743
 30
0.0
 40
0
 41
0
  0
VERTEX
  8
0
 10
0.346462
 20
0.995389
 30
0.0
 40
0
 41
0
  0
VERTEX
  8
0
 10
0.348307
 20
0.991319
 30
0.0
 40
0
 41
0
  0
VERTEX
  8
0
 10
0.350097
 20
0.987414
 30
0.0
 40
0
 41
0
  0
VERTEX
  8
0
 10
0.352106
 20
0.983128
 30
0.0
 40
0
 41
0
  0
VERTEX
  8
0
 10
0.359375
 20
0.970975
 30
0.0
 40
0
 41
0
  0
VERTEX
  8
0
 10
0.367676
 20
0.959799
 30
0.0
 40
0
 41
0
  0
VERTEX
  8
0
 10
0.36811
 20
0.959147
 30
0.0
 40
0
 41
0
  0
VERTEX
  8
0
 10
0.378093
 20
0.948079
 30
0.0
 40
0
 41
0
  0
VERTEX
  8
0
 10
0.403754
 20
0.921929
 30
0.0
 40
0
 41
0
  0
VERTEX
  8
0
 10
0.404568
 20
0.921115
 30
0.0
 40
0
 41
0
  0
VERTEX
  8
0
 10
0.41466
 20
0.911783
 30
0.0
 40
0
 41
0
  0
VERTEX
  8
0
 10
0.421169
 20
0.906793
 30
0.0
 40
0
 41
0
  0
VERTEX
  8
0
 10
0.426378
 20
0.902778
 30
0.0
 40
0
 41
0
  0
VERTEX
  8
0
 10
0.438531
 20
0.895236
 30
0.0
 40
0
 41
0
  0
VERTEX
  8
0
 10
0.450792
 20
0.889214
 30
0.0
 40
0
 41
0
  0
VERTEX
  8
0
 10
0.452419
 20
0.888672
 30
0.0
 40
0
 41
0
  0
VERTEX
  8
0
 10
0.454969
 20
0.88775
 30
0.0
 40
0
 41
0
  0
VERTEX
  8
0
 10
0.46289
 20
0.885037
 30
0.0
 40
0
 41
0
  0
VERTEX
  8
0
 10
0.474501
 20
0.88265
 30
0.0
 40
0
 41
0
  0
VERTEX
  8
0
 10
0.48546
 20
0.882215
 30
0.0
 40
0
 41
0
  0
VERTEX
  8
0
 10
0.495335
 20
0.883681
 30
0.0
 40
0
 41
0
  0
VERTEX
  8
0
 10
0.503907
 20
0.887044
 30
0.0
 40
0
 41
0
  0
VERTEX
  8
0
 10
0.511068
 20
0.892253
 30
0.0
 40
0
 41
0
  0
VERTEX
  8
0
 10
0.513997
 20
0.895019
 30
0.0
 40
0
 41
0
  0
SEQEND
 8
0
  0
POLYLINE
  8
0
 62
     254
 66
     1
 10
0
 20
0
 30
0.0
 70
     1
 40
0
 41
0
  0
VERTEX
  8
0
 10
0.838921
 20
0.908583
 30
0.0
 40
0
 41
0
  0
VERTEX
  8
0
 10
0.840169
 20
0.906793
 30
0.0
 40
0
 41
0
  0
VERTEX
  8
0
 10
0.840929
 20
0.905761
 30
0.0
 40
0
 41
0
  0
VERTEX
  8
0
 10
0.844075
 20
0.901421
 30
0.0
 40
0
 41
0
  0
VERTEX
  8
0
 10
0.848796
 20
0.896431
 30
0.0
 40
0
 41
0
  0
VERTEX
  8
0
 10
0.855578
 20
0.889324
 30
0.0
 40
0
 41
0
  0
VERTEX
  8
0
 10
0.858778
 20
0.885906
 30
0.0
 40
0
 41
0
  0
VERTEX
  8
0
 10
0.861546
 20
0.883681
 30
0.0
 40
0
 41
0
  0
VERTEX
  8
0
 10
0.865614
 20
0.880425
 30
0.0
 40
0
 41
0
  0
VERTEX
  8
0
 10
0.873969
 20
0.876736
 30
0.0
 40
0
 41
0
  0
VERTEX
  8
0
 10
0.880208
 20
0.875543
 30
0.0
 40
0
 41
0
  0
VERTEX
  8
0
 10
0.883626
 20
0.874892
 30
0.0
 40
0
 41
0
  0
VERTEX
  8
0
 10
0.894314
 20
0.874946
 30
0.0
 40
0
 41
0
  0
VERTEX
  8
0
 10
0.895887
 20
0.875217
 30
0.0
 40
0
 41
0
  0
VERTEX
  8
0
 10
0.905871
 20
0.876899
 30
0.0
 40
0
 41
0
  0
VERTEX
  8
0
 10
0.906685
 20
0.877171
 30
0.0
 40
0
 41
0
  0
VERTEX
  8
0
 10
0.91786
 20
0.880751
 30
0.0
 40
0
 41
0
  0
VERTEX
  8
0
 10
0.930176
 20
0.886447
 30
0.0
 40
0
 41
0
  0
VERTEX
  8
0
 10
0.936199
 20
0.890028
 30
0.0
 40
0
 41
0
  0
VERTEX
  8
0
 10
0.942329
 20
0.893664
 30
0.0
 40
0
 41
0
  0
VERTEX
  8
0
 10
0.954156
 20
0.902453
 30
0.0
 40
0
 41
0
  0
VERTEX
  8
0
 10
0.958985
 20
0.906793
 30
0.0
 40
0
 41
0
  0
VERTEX
  8
0
 10
0.959147
 20
0.906901
 30
0.0
 40
0
 41
0
  0
VERTEX
  8
0
 10
0.965224
 20
0.912381
 30
0.0
 40
0
 41
0
  0
VERTEX
  8
0
 10
0.991319
 20
0.938043
 30
0.0
 40
0
 41
0
  0
VERTEX
  8
0
 10
1.00152
 20
0.949056
 30
0.0
 40
0
 41
0
  0
VERTEX
  8
0
 10
1.00228
 20
0.950032
 30
0.0
 40
0
 41
0
  0
VERTEX
  8
0
 10
1.01052
 20
0.960721
 30
0.0
 40
0
 41
0
  0
VERTEX
  8
0
 10
1.01622
 20
0.969889
 30
0.0
 40
0
 41
0
  0
VERTEX
  8
0
 10
1.01807
 20
0.972874
 30
0.0
 40
0
 41
0
  0
VERTEX
  8
0
 10
1.02403
 20
0.985081
 30
0.0
 40
0
 41
0
  0
VERTEX
  8
0
 10
1.02485
 20
0.987414
 30
0.0
 40
0
 41
0
  0
VERTEX
  8
0
 10
1.0261
 20
0.990886
 30
0.0
 40
0
 41
0
  0
VERTEX
  8
0
 10
1.02827
 20
0.997233
 30
0.0
 40
0
 41
0
  0
VERTEX
  8
0
 10
1.03065
 20
1.00884
 30
0.0
 40
0
 41
0
  0
VERTEX
  8
0
 10
1.03109
 20
1.01975
 30
0.0
 40
0
 41
0
  0
VERTEX
  8
0
 10
1.02962
 20
1.02962
 30
0.0
 40
0
 41
0
  0
VERTEX
  8
0
 10
1.02696
 20
1.03651
 30
0.0
 40
0
 41
0
  0
VERTEX
  8
0
 10
1.02626
 20
1.03825
 30
0.0
 40
0
 41
0
  0
VERTEX
  8
0
 10
1.02105
 20
1.04541
 30
0.0
 40
0
 41
0
  0
VERTEX
  8
0
 10
1.01763
 20
1.04905
 30
0.0
 40
0
 41
0
  0
VERTEX
  8
0
 10
1.01682
 20
1.04991
 30
0.0
 40
0
 41
0
  0
VERTEX
  8
0
 10
1.00667
 20
1.0606
 30
0.0
 40
0
 41
0
  0
VERTEX
  8
0
 10
1.0064
 20
1.06087
 30
0.0
 40
0
 41
0
  0
VERTEX
  8
0
 10
0.999511
 20
1.06641
 30
0.0
 40
0
 41
0
  0
VERTEX
  8
0
 10
0.995822
 20
1.06803
 30
0.0
 40
0
 41
0
  0
VERTEX
  8
0
 10
0.991157
 20
1.07015
 30
0.0
 40
0
 41
0
  0
VERTEX
  8
0
 10
0.981554
 20
1.07194
 30
0.0
 40
0
 41
0
  0
VERTEX
  8
0
 10
0.970811
 20
1.07189
 30
0.0
 40
0
 41
0
  0
VERTEX
  8
0
 10
0.95931
 20
1.06993
 30
0.0
 40
0
 41
0
  0
VERTEX
  8
0
 10
0.953504
 20
1.06803
 30
0.0
 40
0
 41
0
  0
VERTEX
  8
0
 10
0.947265
 20
1.06603
 30
0.0
 40
0
 41
0
  0
VERTEX
  8
0
 10
0.936199
 20
1.06093
 30
0.0
 40
0
 41
0
  0
VERTEX
  8
0
 10
0.935004
 20
1.06038
 30
0.0
 40
0
 41
0
  0
VERTEX
  8
0
 10
0.922851
 20
1.05311
 30
0.0
 40
0
 41
0
  0
VERTEX
  8
0
 10
0.911025
 20
1.04438
 30
0.0
 40
0
 41
0
  0
VERTEX
  8
0
 10
0.899903
 20
1.03445
 30
0.0
 40
0
 41
0
  0
VERTEX
  8
0
 10
0.873807
 20
1.00879
 30
0.0
 40
0
 41
0
  0
VERTEX
  8
0
 10
0.863607
 20
0.997775
 30
0.0
 40
0
 41
0
  0
VERTEX
  8
0
 10
0.855632
 20
0.987414
 30
0.0
 40
0
 41
0
  0
VERTEX
  8
0
 10
0.855578
 20
0.987304
 30
0.0
 40
0
 41
0
  0
VERTEX
  8
0
 10
0.854656
 20
0.986111
 30
0.0
 40
0
 41
0
  0
VERTEX
  8
0
 10
0.84885
 20
0.976833
 30
0.0
 40
0
 41
0
  0
VERTEX
  8
0
 10
0.847114
 20
0.974121
 30
0.0
 40
0
 41
0
  0
VERTEX
  8
0
 10
0.84706
 20
0.973958
 30
0.0
 40
0
 41
0
  0
VERTEX
  8
0
 10
0.84196
 20
0.963488
 30
0.0
 40
0
 41
0
  0
VERTEX
  8
0
 10
0.841092
 20
0.961697
 30
0.0
 40
0
 41
0
  0
VERTEX
  8
0
 10
0.840929
 20
0.961262
 30
0.0
 40
0
 41
0
  0
VERTEX
  8
0
 10
0.836914
 20
0.949599
 30
0.0
 40
0
 41
0
  0
VERTEX
  8
0
 10
0.836372
 20
0.947103
 30
0.0
 40
0
 41
0
  0
VERTEX
  8
0
 10
0.834526
 20
0.937989
 30
0.0
 40
0
 41
0
  0
VERTEX
  8
0
 10
0.834039
 20
0.927083
 30
0.0
 40
0
 41
0
  0
VERTEX
  8
0
 10
0.835449
 20
0.918024
 30
0.0
 40
0
 41
0
  0
VERTEX
  8
0
 10
0.835558
 20
0.91721
 30
0.0
 40
0
 41
0
  0
VERTEX
  8
0
 10
0.838921
 20
0.908583
 30
0.0
 40
0
 41
0
  0
SEQEND
 8
0
  0
POLYLINE
  8
0
 62
     254
 66
     1
 10
0
 20
0
 30
0.0
 70
     1
 40
0
 41
0
  0
VERTEX
  8
0
 10
1.01221
 20
0.471897
 30
0.0
 40
0
 41
0
  0
VERTEX
  8
0
 10
1.00521
 20
0.483832
 30
0.0
 40
0
 41
0
  0
VERTEX
  8
0
 10
0.996474
 20
0.495876
 30
0.0
 40
0
 41
0
  0
VERTEX
  8
0
 10
0.989637
 20
0.503635
 30
0.0
 40
0
 41
0
  0
VERTEX
  8
0
 10
0.98649
 20
0.507215
 30
0.0
 40
0
 41
0
  0
VERTEX
  8
0
 10
0.960829
 20
0.533746
 30
0.0
 40
0
 41
0
  0
VERTEX
  8
0
 10
0.949869
 20
0.544108
 30
0.0
 40
0
 41
0
  0
VERTEX
  8
0
 10
0.938206
 20
0.553276
 30
0.0
 40
0
 41
0
  0
VERTEX
  8
0
 10
0.936199
 20
0.554525
 30
0.0
 40
0
 41
0
  0
VERTEX
  8
0
 10
0.92985
 20
0.558539
 30
0.0
 40
0
 41
0
  0
VERTEX
  8
0
 10
0.926053
 20
0.560926
 30
0.0
 40
0
 41
0
  0
VERTEX
  8
0
 10
0.913792
 20
0.567057
 30
0.0
 40
0
 41
0
  0
VERTEX
  8
0
 10
0.908094
 20
0.569065
 30
0.0
 40
0
 41
0
  0
VERTEX
  8
0
 10
0.901693
 20
0.571343
 30
0.0
 40
0
 41
0
  0
VERTEX
  8
0
 10
0.89719
 20
0.572265
 30
0.0
 40
0
 41
0
  0
VERTEX
  8
0
 10
0.890028
 20
0.573731
 30
0.0
 40
0
 41
0
  0
VERTEX
  8
0
 10
0.8852
 20
0.573893
 30
0.0
 40
0
 41
0
  0
VERTEX
  8
0
 10
0.879124
 20
0.574164
 30
0.0
 40
0
 41
0
  0
VERTEX
  8
0
 10
0.869303
 20
0.572646
 30
0.0
 40
0
 41
0
  0
VERTEX
  8
0
 10
0.860678
 20
0.569228
 30
0.0
 40
0
 41
0
  0
VERTEX
  8
0
 10
0.856825
 20
0.566407
 30
0.0
 40
0
 41
0
  0
VERTEX
  8
0
 10
0.855578
 20
0.565483
 30
0.0
 40
0
 41
0
  0
VERTEX
  8
0
 10
0.853515
 20
0.564019
 30
0.0
 40
0
 41
0
  0
VERTEX
  8
0
 10
0.843371
 20
0.554199
 30
0.0
 40
0
 41
0
  0
VERTEX
  8
0
 10
0.837999
 20
0.54899
 30
0.0
 40
0
 41
0
  0
VERTEX
  8
0
 10
0.832736
 20
0.542426
 30
0.0
 40
0
 41
0
  0
VERTEX
  8
0
 10
0.832465
 20
0.542046
 30
0.0
 40
0
 41
0
  0
VERTEX
  8
0
 10
0.828776
 20
0.533583
 30
0.0
 40
0
 41
0
  0
VERTEX
  8
0
 10
0.826932
 20
0.523708
 30
0.0
 40
0
 41
0
  0
VERTEX
  8
0
 10
0.826932
 20
0.522732
 30
0.0
 40
0
 41
0
  0
VERTEX
  8
0
 10
0.826986
 20
0.512804
 30
0.0
 40
0
 41
0
  0
VERTEX
  8
0
 10
0.82856
 20
0.503635
 30
0.0
 40
0
 41
0
  0
VERTEX
  8
0
 10
0.828993
 20
0.501139
 30
0.0
 40
0
 41
0
  0
VERTEX
  8
0
 10
0.829915
 20
0.498264
 30
0.0
 40
0
 41
0
  0
VERTEX
  8
0
 10
0.8329
 20
0.488878
 30
0.0
 40
0
 41
0
  0
VERTEX
  8
0
 10
0.833768
 20
0.486871
 30
0.0
 40
0
 41
0
  0
VERTEX
  8
0
 10
0.838488
 20
0.4764
 30
0.0
 40
0
 41
0
  0
VERTEX
  8
0
 10
0.845811
 20
0.464031
 30
0.0
 40
0
 41
0
  0
VERTEX
  8
0
 10
0.854546
 20
0.451986
 30
0.0
 40
0
 41
0
  0
VERTEX
  8
0
 10
0.864475
 20
0.440701
 30
0.0
 40
0
 41
0
  0
VERTEX
  8
0
 10
0.881565
 20
0.423014
 30
0.0
 40
0
 41
0
  0
VERTEX
  8
0
 10
0.890136
 20
0.414117
 30
0.0
 40
0
 41
0
  0
VERTEX
  8
0
 10
0.892199
 20
0.412164
 30
0.0
 40
0
 41
0
  0
VERTEX
  8
0
 10
0.901096
 20
0.403754
 30
0.0
 40
0
 41
0
  0
VERTEX
  8
0
 10
0.909343
 20
0.397353
 30
0.0
 40
0
 41
0
  0
VERTEX
  8
0
 10
0.912815
 20
0.39464
 30
0.0
 40
0
 41
0
  0
VERTEX
  8
0
 10
0.922635
 20
0.3884
 30
0.0
 40
0
 41
0
  0
VERTEX
  8
0
 10
0.924914
 20
0.386936
 30
0.0
 40
0
 41
0
  0
VERTEX
  8
0
 10
0.934842
 20
0.381999
 30
0.0
 40
0
 41
0
  0
VERTEX
  8
0
 10
0.936199
 20
0.381347
 30
0.0
 40
0
 41
0
  0
VERTEX
  8
0
 10
0.937229
 20
0.38086
 30
0.0
 40
0
 41
0
  0
VERTEX
  8
0
 10
0.947211
 20
0.377333
 30
0.0
 40
0
 41
0
  0
VERTEX
  8
0
 10
0.949274
 20
0.376574
 30
0.0
 40
0
 41
0
  0
VERTEX
  8
0
 10
0.960449
 20
0.37424
 30
0.0
 40
0
 41
0
  0
VERTEX
  8
0
 10
0.960938
 20
0.374186
 30
0.0
 40
0
 41
0
  0
VERTEX
  8
0
 10
0.971843
 20
0.373699
 30
0.0
 40
0
 41
0
  0
VERTEX
  8
0
 10
0.975478
 20
0.37424
 30
0.0
 40
0
 41
0
  0
VERTEX
  8
0
 10
0.976508
 20
0.374403
 30
0.0
 40
0
 41
0
  0
VERTEX
  8
0
 10
0.981717
 20
0.375162
 30
0.0
 40
0
 41
0
  0
VERTEX
  8
0
 10
0.990289
 20
0.378635
 30
0.0
 40
0
 41
0
  0
VERTEX
  8
0
 10
0.997504
 20
0.383897
 30
0.0
 40
0
 41
0
  0
VERTEX
  8
0
 10
1.01297
 20
0.398872
 30
0.0
 40
0
 41
0
  0
VERTEX
  8
0
 10
1.01476
 20
0.401042
 30
0.0
 40
0
 41
0
  0
VERTEX
  8
0
 10
1.01682
 20
0.4037
 30
0.0
 40
0
 41
0
  0
VERTEX
  8
0
 10
1.0185
 20
0.405817
 30
0.0
 40
0
 41
0
  0
VERTEX
  8
0
 10
1.02219
 20
0.414333
 30
0.0
 40
0
 41
0
  0
VERTEX
  8
0
 10
1.02387
 20
0.423014
 30
0.0
 40
0
 41
0
  0
VERTEX
  8
0
 10
1.02403
 20
0.4241
 30
0.0
 40
0
 41
0
  0
VERTEX
  8
0
 10
1.02398
 20
0.435004
 30
0.0
 40
0
 41
0
  0
VERTEX
  8
0
 10
1.02197
 20
0.446778
 30
0.0
 40
0
 41
0
  0
VERTEX
  8
0
 10
1.01812
 20
0.458985
 30
0.0
 40
0
 41
0
  0
VERTEX
  8
0
 10
1.01682
 20
0.46186
 30
0.0
 40
0
 41
0
  0
VERTEX
  8
0
 10
1.01595
 20
0.463758
 30
0.0
 40
0
 41
0
  0
VERTEX
  8
0
 10
1.01248
 20
0.471463
 30
0.0
 40
0
 41
0
  0
VERTEX
  8
0
 10
1.01221
 20
0.471897
 30
0.0
 40
0
 41
0
  0
SEQEND
 8
0
  0
POLYLINE
  8
0
 62
     254
 66
     1
 10
0
 20
0
 30
0.0
 70
     1
 40
0
 41
0
  0
VERTEX
  8
0
 10
0.517578
 20
0.539063
 30
0.0
 40
0
 41
0
  0
VERTEX
  8
0
 10
0.515625
 20
0.543946
 30
0.0
 40
0
 41
0
  0
VERTEX
  8
0
 10
0.51416
 20
0.547689
 30
0.0
 40
0
 41
0
  0
VERTEX
  8
0
 10
0.513997
 20
0.547906
 30
0.0
 40
0
 41
0
  0
VERTEX
  8
0
 10
0.508951
 20
0.554796
 30
0.0
 40
0
 41
0
  0
VERTEX
  8
0
 10
0.506239
 20
0.557617
 30
0.0
 40
0
 41
0
  0
VERTEX
  8
0
 10
0.495063
 20
0.569174
 30
0.0
 40
0
 41
0
  0
VERTEX
  8
0
 10
0.493978
 20
0.570313
 30
0.0
 40
0
 41
0
  0
VERTEX
  8
0
 10
0.487033
 20
0.575792
 30
0.0
 40
0
 41
0
  0
VERTEX
  8
0
 10
0.478515
 20
0.579536
 30
0.0
 40
0
 41
0
  0
VERTEX
  8
0
 10
0.468696
 20
0.581381
 30
0.0
 40
0
 41
0
  0
VERTEX
  8
0
 10
0.45779
 20
0.581272
 30
0.0
 40
0
 41
0
  0
VERTEX
  8
0
 10
0.452419
 20
0.58035
 30
0.0
 40
0
 41
0
  0
VERTEX
  8
0
 10
0.446072
 20
0.579264
 30
0.0
 40
0
 41
0
  0
VERTEX
  8
0
 10
0.439671
 20
0.577257
 30
0.0
 40
0
 41
0
  0
VERTEX
  8
0
 10
0.433811
 20
0.575412
 30
0.0
 40
0
 41
0
  0
VERTEX
  8
0
 10
0.429904
 20
0.573676
 30
0.0
 40
0
 41
0
  0
VERTEX
  8
0
 10
0.421332
 20
0.569769
 30
0.0
 40
0
 41
0
  0
VERTEX
  8
0
 10
0.408962
 20
0.5625
 30
0.0
 40
0
 41
0
  0
VERTEX
  8
0
 10
0.398275
 20
0.554796
 30
0.0
 40
0
 41
0
  0
VERTEX
  8
0
 10
0.396972
 20
0.553819
 30
0.0
 40
0
 41
0
  0
VERTEX
  8
0
 10
0.385633
 20
0.543782
 30
0.0
 40
0
 41
0
  0
VERTEX
  8
0
 10
0.371744
 20
0.530436
 30
0.0
 40
0
 41
0
  0
VERTEX
  8
0
 10
0.359104
 20
0.518175
 30
0.0
 40
0
 41
0
  0
VERTEX
  8
0
 10
0.35905
 20
0.518121
 30
0.0
 40
0
 41
0
  0
VERTEX
  8
0
 10
0.348687
 20
0.507215
 30
0.0
 40
0
 41
0
  0
VERTEX
  8
0
 10
0.345921
 20
0.503635
 30
0.0
 40
0
 41
0
  0
VERTEX
  8
0
 10
0.344943
 20
0.502333
 30
0.0
 40
0
 41
0
  0
VERTEX
  8
0
 10
0.339572
 20
0.495497
 30
0.0
 40
0
 41
0
  0
VERTEX
  8
0
 10
0.335992
 20
0.489908
 30
0.0
 40
0
 41
0
  0
VERTEX
  8
0
 10
0.331868
 20
0.483399
 30
0.0
 40
0
 41
0
  0
VERTEX
  8
0
 10
0.329318
 20
0.478244
 30
0.0
 40
0
 41
0
  0
VERTEX
  8
0
 10
0.326768
 20
0.473036
 30
0.0
 40
0
 41
0
  0
VERTEX
  8
0
 10
0.325792
 20
0.471083
 30
0.0
 40
0
 41
0
  0
VERTEX
  8
0
 10
0.321506
 20
0.458985
 30
0.0
 40
0
 41
0
  0
VERTEX
  8
0
 10
0.319119
 20
0.447374
 30
0.0
 40
0
 41
0
  0
VERTEX
  8
0
 10
0.318631
 20
0.436469
 30
0.0
 40
0
 41
0
  0
VERTEX
  8
0
 10
0.320096
 20
0.426594
 30
0.0
 40
0
 41
0
  0
VERTEX
  8
0
 10
0.32156
 20
0.423014
 30
0.0
 40
0
 41
0
  0
VERTEX
  8
0
 10
0.323568
 20
0.417969
 30
0.0
 40
0
 41
0
  0
VERTEX
  8
0
 10
0.325629
 20
0.415147
 30
0.0
 40
0
 41
0
  0
VERTEX
  8
0
 10
0.328831
 20
0.410807
 30
0.0
 40
0
 41
0
  0
VERTEX
  8
0
 10
0.334418
 20
0.405003
 30
0.0
 40
0
 41
0
  0
VERTEX
  8
0
 10
0.343804
 20
0.39529
 30
0.0
 40
0
 41
0
  0
VERTEX
  8
0
 10
0.348144
 20
0.391872
 30
0.0
 40
0
 41
0
  0
VERTEX
  8
0
 10
0.350749
 20
0.389811
 30
0.0
 40
0
 41
0
  0
VERTEX
  8
0
 10
0.359267
 20
0.386068
 30
0.0
 40
0
 41
0
  0
VERTEX
  8
0
 10
0.369032
 20
0.384224
 30
0.0
 40
0
 41
0
  0
VERTEX
  8
0
 10
0.370226
 20
0.384224
 30
0.0
 40
0
 41
0
  0
VERTEX
  8
0
 10
0.371744
 20
0.384278
 30
0.0
 40
0
 41
0
  0
VERTEX
  8
0
 10
0.379937
 20
0.384332
 30
0.0
 40
0
 41
0
  0
VERTEX
  8
0
 10
0.39171
 20
0.386339
 30
0.0
 40
0
 41
0
  0
VERTEX
  8
0
 10
0.403917
 20
0.390192
 30
0.0
 40
0
 41
0
  0
VERTEX
  8
0
 10
0.414551
 20
0.394965
 30
0.0
 40
0
 41
0
  0
VERTEX
  8
0
 10
0.416396
 20
0.395833
 30
0.0
 40
0
 41
0
  0
VERTEX
  8
0
 10
0.428765
 20
0.403103
 30
0.0
 40
0
 41
0
  0
VERTEX
  8
0
 10
0.44081
 20
0.411838
 30
0.0
 40
0
 41
0
  0
VERTEX
  8
0
 10
0.452149
 20
0.421821
 30
0.0
 40
0
 41
0
  0
VERTEX
  8
0
 10
0.452419
 20
0.422037
 30
0.0
 40
0
 41
0
  0
VERTEX
  8
0
 10
0.453396
 20
0.423014
 30
0.0
 40
0
 41
0
  0
VERTEX
  8
0
 10
0.478678
 20
0.447483
 30
0.0
 40
0
 41
0
  0
VERTEX
  8
0
 10
0.48904
 20
0.458387
 30
0.0
 40
0
 41
0
  0
VERTEX
  8
0
 10
0.49821
 20
0.470107
 30
0.0
 40
0
 41
0
  0
VERTEX
  8
0
 10
0.505914
 20
0.482206
 30
0.0
 40
0
 41
0
  0
VERTEX
  8
0
 10
0.506456
 20
0.483344
 30
0.0
 40
0
 41
0
  0
VERTEX
  8
0
 10
0.51199
 20
0.494521
 30
0.0
 40
0
 41
0
  0
VERTEX
  8
0
 10
0.512207
 20
0.495117
 30
0.0
 40
0
 41
0
  0
VERTEX
  8
0
 10
0.513997
 20
0.500271
 30
0.0
 40
0
 41
0
  0
VERTEX
  8
0
 10
0.515192
 20
0.503635
 30
0.0
 40
0
 41
0
  0
VERTEX
  8
0
 10
0.516276
 20
0.506619
 30
0.0
 40
0
 41
0
  0
VERTEX
  8
0
 10
0.518664
 20
0.518229
 30
0.0
 40
0
 41
0
  0
VERTEX
  8
0
 10
0.519097
 20
0.529135
 30
0.0
 40
0
 41
0
  0
VERTEX
  8
0
 10
0.517578
 20
0.539063
 30
0.0
 40
0
 41
0
  0
SEQEND
 8
0
  0
POLYLINE
  8
0
 62
     254
 66
     1
 10
0
 20
0
 30
0.0
 70
     1
 40
0
 41
0
  0
VERTEX
  8
0
 10
0.637912
 20
4.45454
 30
0.0
 40
0
 41
0
  0
VERTEX
  8
0
 10
0.639268
 20
4.43485
 30
0.0
 40
0
 41
0
  0
VERTEX
  8
0
 10
0.653049
 20
4.4005
 30
0.0
 40
0
 41
0
  0
VERTEX
  8
0
 10
0.676758
 20
4.37218
 30
0.0
 40
0
 41
0
  0
VERTEX
  8
0
 10
0.704428
 20
4.35482
 30
0.0
 40
0
 41
0
  0
VERTEX
  8
0
 10
0.708062
 20
4.35249
 30
0.0
 40
0
 41
0
  0
VERTEX
  8
0
 10
0.743924
 20
4.34347
 30
0.0
 40
0
 41
0
  0
VERTEX
  8
0
 10
0.780817
 20
4.34603
 30
0.0
 40
0
 41
0
  0
VERTEX
  8
0
 10
0.782064
 20
4.34651
 30
0.0
 40
0
 41
0
  0
VERTEX
  8
0
 10
0.815104
 20
4.35981
 30
0.0
 40
0
 41
0
  0
VERTEX
  8
0
 10
0.843479
 20
4.38351
 30
0.0
 40
0
 41
0
  0
VERTEX
  8
0
 10
0.863172
 20
4.41482
 30
0.0
 40
0
 41
0
  0
VERTEX
  8
0
 10
0.872179
 20
4.45068
 30
0.0
 40
0
 41
0
  0
VERTEX
  8
0
 10
0.871907
 20
4.45454
 30
0.0
 40
0
 41
0
  0
VERTEX
  8
0
 10
0.869629
 20
4.48757
 30
0.0
 40
0
 41
0
  0
VERTEX
  8
0
 10
0.855849
 20
4.52186
 30
0.0
 40
0
 41
0
  0
VERTEX
  8
0
 10
0.83214
 20
4.55024
 30
0.0
 40
0
 41
0
  0
VERTEX
  8
0
 10
0.800782
 20
4.56993
 30
0.0
 40
0
 41
0
  0
VERTEX
  8
0
 10
0.764974
 20
4.57894
 30
0.0
 40
0
 41
0
  0
VERTEX
  8
0
 10
0.728082
 20
4.57639
 30
0.0
 40
0
 41
0
  0
VERTEX
  8
0
 10
0.693739
 20
4.56261
 30
0.0
 40
0
 41
0
  0
VERTEX
  8
0
 10
0.665419
 20
4.5389
 30
0.0
 40
0
 41
0
  0
VERTEX
  8
0
 10
0.645725
 20
4.50754
 30
0.0
 40
0
 41
0
  0
VERTEX
  8
0
 10
0.636719
 20
4.47174
 30
0.0
 40
0
 41
0
  0
VERTEX
  8
0
 10
0.637912
 20
4.45454
 30
0.0
 40
0
 41
0
  0
SEQEND
 8
0
  0
POLYLINE
  8
0
 62
     254
 66
     1
 10
0
 20
0
 30
0.0
 70
     1
 40
0
 41
0
  0
VERTEX
  8
0
 10
0.705892
 20
4.68918
 30
0.0
 40
0
 41
0
  0
VERTEX
  8
0
 10
0.714193
 20
4.68403
 30
0.0
 40
0
 41
0
  0
VERTEX
  8
0
 10
0.718153
 20
4.68153
 30
0.0
 40
0
 41
0
  0
VERTEX
  8
0
 10
0.738172
 20
4.67654
 30
0.0
 40
0
 41
0
  0
VERTEX
  8
0
 10
0.738444
 20
4.67643
 30
0.0
 40
0
 41
0
  0
VERTEX
  8
0
 10
0.739583
 20
4.67654
 30
0.0
 40
0
 41
0
  0
VERTEX
  8
0
 10
0.759386
 20
4.6779
 30
0.0
 40
0
 41
0
  0
VERTEX
  8
0
 10
0.759765
 20
4.67806
 30
0.0
 40
0
 41
0
  0
VERTEX
  8
0
 10
0.774468
 20
4.68403
 30
0.0
 40
0
 41
0
  0
VERTEX
  8
0
 10
0.774903
 20
4.68419
 30
0.0
 40
0
 41
0
  0
VERTEX
  8
0
 10
0.778808
 20
4.68576
 30
0.0
 40
0
 41
0
  0
VERTEX
  8
0
 10
0.779135
 20
4.68604
 30
0.0
 40
0
 41
0
  0
VERTEX
  8
0
 10
0.784071
 20
4.69015
 30
0.0
 40
0
 41
0
  0
VERTEX
  8
0
 10
0.794542
 20
4.69894
 30
0.0
 40
0
 41
0
  0
VERTEX
  8
0
 10
0.794868
 20
4.69922
 30
0.0
 40
0
 41
0
  0
VERTEX
  8
0
 10
0.80599
 20
4.71701
 30
0.0
 40
0
 41
0
  0
VERTEX
  8
0
 10
0.806099
 20
4.7175
 30
0.0
 40
0
 41
0
  0
VERTEX
  8
0
 10
0.810926
 20
4.73687
 30
0.0
 40
0
 41
0
  0
VERTEX
  8
0
 10
0.811089
 20
4.73736
 30
0.0
 40
0
 41
0
  0
VERTEX
  8
0
 10
0.810926
 20
4.73904
 30
0.0
 40
0
 41
0
  0
VERTEX
  8
0
 10
0.809625
 20
4.75825
 30
0.0
 40
0
 41
0
  0
VERTEX
  8
0
 10
0.809463
 20
4.75857
 30
0.0
 40
0
 41
0
  0
VERTEX
  8
0
 10
0.802029
 20
4.77701
 30
0.0
 40
0
 41
0
  0
VERTEX
  8
0
 10
0.801758
 20
4.77772
 30
0.0
 40
0
 41
0
  0
VERTEX
  8
0
 10
0.80154
 20
4.77789
 30
0.0
 40
0
 41
0
  0
VERTEX
  8
0
 10
0.795953
 20
4.78461
 30
0.0
 40
0
 41
0
  0
VERTEX
  8
0
 10
0.788249
 20
4.79378
 30
0.0
 40
0
 41
0
  0
VERTEX
  8
0
 10
0.78814
 20
4.79383
 30
0.0
 40
0
 41
0
  0
VERTEX
  8
0
 10
0.775608
 20
4.80171
 30
0.0
 40
0
 41
0
  0
VERTEX
  8
0
 10
0.7704
 20
4.80496
 30
0.0
 40
0
 41
0
  0
VERTEX
  8
0
 10
0.750054
 20
4.81
 30
0.0
 40
0
 41
0
  0
VERTEX
  8
0
 10
0.729113
 20
4.8086
 30
0.0
 40
0
 41
0
  0
VERTEX
  8
0
 10
0.712131
 20
4.80171
 30
0.0
 40
0
 41
0
  0
VERTEX
  8
0
 10
0.70969
 20
4.80067
 30
0.0
 40
0
 41
0
  0
VERTEX
  8
0
 10
0.698676
 20
4.7915
 30
0.0
 40
0
 41
0
  0
VERTEX
  8
0
 10
0.693631
 20
4.78722
 30
0.0
 40
0
 41
0
  0
VERTEX
  8
0
 10
0.687229
 20
4.77701
 30
0.0
 40
0
 41
0
  0
VERTEX
  8
0
 10
0.684407
 20
4.77246
 30
0.0
 40
0
 41
0
  0
VERTEX
  8
0
 10
0.682508
 20
4.76947
 30
0.0
 40
0
 41
0
  0
VERTEX
  8
0
 10
0.678222
 20
4.75228
 30
0.0
 40
0
 41
0
  0
VERTEX
  8
0
 10
0.677463
 20
4.74914
 30
0.0
 40
0
 41
0
  0
VERTEX
  8
0
 10
0.678222
 20
4.73785
 30
0.0
 40
0
 41
0
  0
VERTEX
  8
0
 10
0.678657
 20
4.73172
 30
0.0
 40
0
 41
0
  0
VERTEX
  8
0
 10
0.678874
 20
4.72819
 30
0.0
 40
0
 41
0
  0
VERTEX
  8
0
 10
0.68419
 20
4.71511
 30
0.0
 40
0
 41
0
  0
VERTEX
  8
0
 10
0.686794
 20
4.70876
 30
0.0
 40
0
 41
0
  0
VERTEX
  8
0
 10
0.70025
 20
4.69271
 30
0.0
 40
0
 41
0
  0
VERTEX
  8
0
 10
0.700358
 20
4.69265
 30
0.0
 40
0
 41
0
  0
VERTEX
  8
0
 10
0.700358
 20
4.6926
 30
0.0
 40
0
 41
0
  0
VERTEX
  8
0
 10
0.705892
 20
4.68918
 30
0.0
 40
0
 41
0
  0
SEQEND
 8
0
  0
POLYLINE
  8
0
 62
     1
 66
     1
 10
0
 20
0
 30
0.0
 70
     1
 40
0.0107136
 41
0.0107136
  0
VERTEX
  8
0
 10
0.730524
 20
3.56347
 30
0.0
 40
0.0001488
 41
0.0001488
  0
VERTEX
  8
0
 10
0.730794
 20
3.56342
 30
0.0
 40
0.0001488
 41
0.0001488
  0
VERTEX
  8
0
 10
0.733778
 20
3.56267
 30
0.0
 40
0.0001488
 41
0.0001488
  0
VERTEX
  8
0
 10
0.734267
 20
3.56256
 30
0.0
 40
0.0001488
 41
0.0001488
  0
VERTEX
  8
0
 10
0.735894
 20
3.56267
 30
0.0
 40
0.0001488
 41
0.0001488
  0
VERTEX
  8
0
 10
0.746365
 20
3.56342
 30
0.0
 40
0.0001488
 41
0.0001488
  0
VERTEX
  8
0
 10
0.755154
 20
3.56401
 30
0.0
 40
0.0001488
 41
0.0001488
  0
VERTEX
  8
0
 10
0.755425
 20
3.56413
 30
0.0
 40
0.0001488
 41
0.0001488
  0
VERTEX
  8
0
 10
0.759494
 20
3.56581
 30
0.0
 40
0.0001488
 41
0.0001488
  0
VERTEX
  8
0
 10
0.774631
 20
3.57189
 30
0.0
 40
0.0001488
 41
0.0001488
  0
VERTEX
  8
0
 10
0.774903
 20
3.57215
 30
0.0
 40
0.0001488
 41
0.0001488
  0
VERTEX
  8
0
 10
0.775011
 20
3.57221
 30
0.0
 40
0.0001488
 41
0.0001488
  0
VERTEX
  8
0
 10
0.787435
 20
3.58263
 30
0.0
 40
0.0001488
 41
0.0001488
  0
VERTEX
  8
0
 10
0.790256
 20
3.58501
 30
0.0
 40
0.0001488
 41
0.0001488
  0
VERTEX
  8
0
 10
0.79069
 20
3.58535
 30
0.0
 40
0.0001488
 41
0.0001488
  0
VERTEX
  8
0
 10
0.796713
 20
3.59506
 30
0.0
 40
0.0001488
 41
0.0001488
  0
VERTEX
  8
0
 10
0.801758
 20
3.60314
 30
0.0
 40
0.0001488
 41
0.0001488
  0
VERTEX
  8
0
 10
0.801867
 20
3.60357
 30
0.0
 40
0.0001488
 41
0.0001488
  0
VERTEX
  8
0
 10
0.806749
 20
3.62315
 30
0.0
 40
0.0001488
 41
0.0001488
  0
VERTEX
  8
0
 10
0.806803
 20
3.62343
 30
0.0
 40
0.0001488
 41
0.0001488
  0
VERTEX
  8
0
 10
0.806749
 20
3.62457
 30
0.0
 40
0.0001488
 41
0.0001488
  0
VERTEX
  8
0
 10
0.805339
 20
3.64442
 30
0.0
 40
0.0001488
 41
0.0001488
  0
VERTEX
  8
0
 10
0.805231
 20
3.64475
 30
0.0
 40
0.0001488
 41
0.0001488
  0
VERTEX
  8
0
 10
0.803819
 20
3.64822
 30
0.0
 40
0.0001488
 41
0.0001488
  0
VERTEX
  8
0
 10
0.797526
 20
3.66379
 30
0.0
 40
0.0001488
 41
0.0001488
  0
VERTEX
  8
0
 10
0.797364
 20
3.66396
 30
0.0
 40
0.0001488
 41
0.0001488
  0
VERTEX
  8
0
 10
0.796713
 20
3.66476
 30
0.0
 40
0.0001488
 41
0.0001488
  0
VERTEX
  8
0
 10
0.784071
 20
3.67985
 30
0.0
 40
0.0001488
 41
0.0001488
  0
VERTEX
  8
0
 10
0.784017
 20
3.6799
 30
0.0
 40
0.0001488
 41
0.0001488
  0
VERTEX
  8
0
 10
0.783963
 20
3.68001
 30
0.0
 40
0.0001488
 41
0.0001488
  0
VERTEX
  8
0
 10
0.774903
 20
3.6856
 30
0.0
 40
0.0001488
 41
0.0001488
  0
VERTEX
  8
0
 10
0.773004
 20
3.68679
 30
0.0
 40
0.0001488
 41
0.0001488
  0
VERTEX
  8
0
 10
0.766168
 20
3.69108
 30
0.0
 40
0.0001488
 41
0.0001488
  0
VERTEX
  8
0
 10
0.745822
 20
3.69618
 30
0.0
 40
0.0001488
 41
0.0001488
  0
VERTEX
  8
0
 10
0.724881
 20
3.69467
 30
0.0
 40
0.0001488
 41
0.0001488
  0
VERTEX
  8
0
 10
0.705458
 20
3.68685
 30
0.0
 40
0.0001488
 41
0.0001488
  0
VERTEX
  8
0
 10
0.705404
 20
3.68679
 30
0.0
 40
0.0001488
 41
0.0001488
  0
VERTEX
  8
0
 10
0.697103
 20
3.67979
 30
0.0
 40
0.0001488
 41
0.0001488
  0
VERTEX
  8
0
 10
0.689399
 20
3.67339
 30
0.0
 40
0.0001488
 41
0.0001488
  0
VERTEX
  8
0
 10
0.680447
 20
3.65901
 30
0.0
 40
0.0001488
 41
0.0001488
  0
VERTEX
  8
0
 10
0.678331
 20
3.6556
 30
0.0
 40
0.0001488
 41
0.0001488
  0
VERTEX
  8
0
 10
0.676486
 20
3.64822
 30
0.0
 40
0.0001488
 41
0.0001488
  0
VERTEX
  8
0
 10
0.673286
 20
3.63558
 30
0.0
 40
0.0001488
 41
0.0001488
  0
VERTEX
  8
0
 10
0.673232
 20
3.63525
 30
0.0
 40
0.0001488
 41
0.0001488
  0
VERTEX
  8
0
 10
0.673286
 20
3.63411
 30
0.0
 40
0.0001488
 41
0.0001488
  0
VERTEX
  8
0
 10
0.673503
 20
3.6314
 30
0.0
 40
0.0001488
 41
0.0001488
  0
VERTEX
  8
0
 10
0.673286
 20
3.63064
 30
0.0
 40
0.0001488
 41
0.0001488
  0
VERTEX
  8
0
 10
0.674642
 20
3.61128
 30
0.0
 40
0.0001488
 41
0.0001488
  0
VERTEX
  8
0
 10
0.681858
 20
3.59332
 30
0.0
 40
0.0001488
 41
0.0001488
  0
VERTEX
  8
0
 10
0.694282
 20
3.5784
 30
0.0
 40
0.0001488
 41
0.0001488
  0
VERTEX
  8
0
 10
0.710721
 20
3.56814
 30
0.0
 40
0.0001488
 41
0.0001488
  0
VERTEX
  8
0
 10
0.729546
 20
3.56342
 30
0.0
 40
0.0001488
 41
0.0001488
  0
VERTEX
  8
0
 10
0.730524
 20
3.56347
 30
0.0
 40
0.0001488
 41
0.0001488
  0
SEQEND
 8
0
  0
POLYLINE
  8
0
 62
     1
 66
     1
 10
0
 20
0
 30
0.0
 70
     1
 40
0.0107136
 41
0.0107136
  0
VERTEX
  8
0
 10
1.17622
 20
1.09446
 30
0.0
 40
0.0001488
 41
0.0001488
  0
VERTEX
  8
0
 10
1.16965
 20
0.752604
 30
0.0
 40
0.0001488
 41
0.0001488
  0
VERTEX
  8
0
 10
1.16938
 20
0.739094
 30
0.0
 40
0.0001488
 41
0.0001488
  0
VERTEX
  8
0
 10
1.21436
 20
0.591146
 30
0.0
 40
0.0001488
 41
0.0001488
  0
VERTEX
  8
0
 10
1.2998
 20
0.309896
 30
0.0
 40
0.0001488
 41
0.0001488
  0
VERTEX
  8
0
 10
1.16368
 20
0.214899
 30
0.0
 40
0.0001488
 41
0.0001488
  0
VERTEX
  8
0
 10
0.920247
 20
0.0450846
 30
0.0
 40
0.0001488
 41
0.0001488
  0
VERTEX
  8
0
 10
0.857042
 20
0.0928819
 30
0.0
 40
0.0001488
 41
0.0001488
  0
VERTEX
  8
0
 10
0.716092
 20
0.199436
 30
0.0
 40
0.0001488
 41
0.0001488
  0
VERTEX
  8
0
 10
0.664225
 20
0.168078
 30
0.0
 40
0.0001488
 41
0.0001488
  0
VERTEX
  8
0
 10
0.616211
 20
0.199761
 30
0.0
 40
0.0001488
 41
0.0001488
  0
VERTEX
  8
0
 10
0.513997
 20
0.128472
 30
0.0
 40
0.0001488
 41
0.0001488
  0
VERTEX
  8
0
 10
0.408529
 20
0.0548503
 30
0.0
 40
0.0001488
 41
0.0001488
  0
VERTEX
  8
0
 10
0.205567
 20
0.208333
 30
0.0
 40
0.0001488
 41
0.0001488
  0
VERTEX
  8
0
 10
0.0393881
 20
0.334039
 30
0.0
 40
0.0001488
 41
0.0001488
  0
VERTEX
  8
0
 10
0.176215
 20
0.729221
 30
0.0
 40
0.0001488
 41
0.0001488
  0
VERTEX
  8
0
 10
0.181099
 20
0.743326
 30
0.0
 40
0.0001488
 41
0.0001488
  0
VERTEX
  8
0
 10
0.188206
 20
1.11344
 30
0.0
 40
0.0001488
 41
0.0001488
  0
VERTEX
  8
0
 10
0.300618
 20
1.18142
 30
0.0
 40
0.0001488
 41
0.0001488
  0
VERTEX
  8
0
 10
0.335667
 20
1.20264
 30
0.0
 40
0.0001488
 41
0.0001488
  0
VERTEX
  8
0
 10
0.338108
 20
1.22933
 30
0.0
 40
0.0001488
 41
0.0001488
  0
VERTEX
  8
0
 10
0.339464
 20
1.24452
 30
0.0
 40
0.0001488
 41
0.0001488
  0
VERTEX
  8
0
 10
0.354818
 20
1.43143
 30
0.0
 40
0.0001488
 41
0.0001488
  0
VERTEX
  8
0
 10
0.369032
 20
1.62424
 30
0.0
 40
0.0001488
 41
0.0001488
  0
VERTEX
  8
0
 10
0.382107
 20
1.82292
 30
0.0
 40
0.0001488
 41
0.0001488
  0
VERTEX
  8
0
 10
0.385092
 20
1.87435
 30
0.0
 40
0.0001488
 41
0.0001488
  0
VERTEX
  8
0
 10
0.394043
 20
2.02746
 30
0.0
 40
0.0001488
 41
0.0001488
  0
VERTEX
  8
0
 10
0.401585
 20
2.17275
 30
0.0
 40
0.0001488
 41
0.0001488
  0
VERTEX
  8
0
 10
0.404949
 20
2.23779
 30
0.0
 40
0.0001488
 41
0.0001488
  0
VERTEX
  8
0
 10
0.41466
 20
2.45404
 30
0.0
 40
0.0001488
 41
0.0001488
  0
VERTEX
  8
0
 10
0.42296
 20
2.66857
 30
0.0
 40
0.0001488
 41
0.0001488
  0
VERTEX
  8
0
 10
0.429633
 20
2.87761
 30
0.0
 40
0.0001488
 41
0.0001488
  0
VERTEX
  8
0
 10
0.434788
 20
3.08128
 30
0.0
 40
0.0001488
 41
0.0001488
  0
VERTEX
  8
0
 10
0.436253
 20
3.16444
 30
0.0
 40
0.0001488
 41
0.0001488
  0
VERTEX
  8
0
 10
0.438314
 20
3.2794
 30
0.0
 40
0.0001488
 41
0.0001488
  0
VERTEX
  8
0
 10
0.440212
 20
3.47211
 30
0.0
 40
0.0001488
 41
0.0001488
  0
VERTEX
  8
0
 10
0.440539
 20
3.6594
 30
0.0
 40
0.0001488
 41
0.0001488
  0
VERTEX
  8
0
 10
0.439996
 20
3.73981
 30
0.0
 40
0.0001488
 41
0.0001488
  0
VERTEX
  8
0
 10
0.439615
 20
3.79704
 30
0.0
 40
0.0001488
 41
0.0001488
  0
VERTEX
  8
0
 10
0.439507
 20
3.80946
 30
0.0
 40
0.0001488
 41
0.0001488
  0
VERTEX
  8
0
 10
0.43929
 20
3.84299
 30
0.0
 40
0.0001488
 41
0.0001488
  0
VERTEX
  8
0
 10
0.436199
 20
4.02083
 30
0.0
 40
0.0001488
 41
0.0001488
  0
VERTEX
  8
0
 10
0.431207
 20
4.19287
 30
0.0
 40
0.0001488
 41
0.0001488
  0
VERTEX
  8
0
 10
0.424425
 20
4.35915
 30
0.0
 40
0.0001488
 41
0.0001488
  0
VERTEX
  8
0
 10
0.419325
 20
4.45454
 30
0.0
 40
0.0001488
 41
0.0001488
  0
VERTEX
  8
0
 10
0.415853
 20
4.51969
 30
0.0
 40
0.0001488
 41
0.0001488
  0
VERTEX
  8
0
 10
0.415744
 20
4.52126
 30
0.0
 40
0.0001488
 41
0.0001488
  0
VERTEX
  8
0
 10
0.405382
 20
4.67443
 30
0.0
 40
0.0001488
 41
0.0001488
  0
VERTEX
  8
0
 10
0.393175
 20
4.82553
 30
0.0
 40
0.0001488
 41
0.0001488
  0
VERTEX
  8
0
 10
0.383083
 20
4.92888
 30
0.0
 40
0.0001488
 41
0.0001488
  0
VERTEX
  8
0
 10
0.384657
 20
4.93067
 30
0.0
 40
0.0001488
 41
0.0001488
  0
VERTEX
  8
0
 10
0.387858
 20
4.93435
 30
0.0
 40
0.0001488
 41
0.0001488
  0
VERTEX
  8
0
 10
0.390082
 20
4.9369
 30
0.0
 40
0.0001488
 41
0.0001488
  0
VERTEX
  8
0
 10
0.517469
 20
5.0829
 30
0.0
 40
0.0001488
 41
0.0001488
  0
VERTEX
  8
0
 10
0.584418
 20
5.15967
 30
0.0
 40
0.0001488
 41
0.0001488
  0
VERTEX
  8
0
 10
0.701551
 20
5.29394
 30
0.0
 40
0.0001488
 41
0.0001488
  0
VERTEX
  8
0
 10
0.893337
 20
5.12668
 30
0.0
 40
0.0001488
 41
0.0001488
  0
VERTEX
  8
0
 10
0.912651
 20
5.10986
 30
0.0
 40
0.0001488
 41
0.0001488
  0
VERTEX
  8
0
 10
1.12831
 20
4.92171
 30
0.0
 40
0.0001488
 41
0.0001488
  0
VERTEX
  8
0
 10
1.13118
 20
4.91917
 30
0.0
 40
0.0001488
 41
0.0001488
  0
VERTEX
  8
0
 10
1.13439
 20
4.91639
 30
0.0
 40
0.0001488
 41
0.0001488
  0
VERTEX
  8
0
 10
1.13591
 20
4.91504
 30
0.0
 40
0.0001488
 41
0.0001488
  0
VERTEX
  8
0
 10
1.1218
 20
4.81153
 30
0.0
 40
0.0001488
 41
0.0001488
  0
VERTEX
  8
0
 10
1.10379
 20
4.66103
 30
0.0
 40
0.0001488
 41
0.0001488
  0
VERTEX
  8
0
 10
1.09136
 20
4.54411
 30
0.0
 40
0.0001488
 41
0.0001488
  0
VERTEX
  8
0
 10
1.0874
 20
4.50678
 30
0.0
 40
0.0001488
 41
0.0001488
  0
VERTEX
  8
0
 10
1.08257
 20
4.45454
 30
0.0
 40
0.0001488
 41
0.0001488
  0
VERTEX
  8
0
 10
1.07265
 20
4.34674
 30
0.0
 40
0.0001488
 41
0.0001488
  0
VERTEX
  8
0
 10
1.05946
 20
4.18083
 30
0.0
 40
0.0001488
 41
0.0001488
  0
VERTEX
  8
0
 10
1.04791
 20
4.00906
 30
0.0
 40
0.0001488
 41
0.0001488
  0
VERTEX
  8
0
 10
1.03798
 20
3.83149
 30
0.0
 40
0.0001488
 41
0.0001488
  0
VERTEX
  8
0
 10
1.037
 20
3.80946
 30
0.0
 40
0.0001488
 41
0.0001488
  0
VERTEX
  8
0
 10
1.03646
 20
3.79807
 30
0.0
 40
0.0001488
 41
0.0001488
  0
VERTEX
  8
0
 10
1.02962
 20
3.64806
 30
0.0
 40
0.0001488
 41
0.0001488
  0
VERTEX
  8
0
 10
1.02279
 20
3.46094
 30
0.0
 40
0.0001488
 41
0.0001488
  0
VERTEX
  8
0
 10
1.01731
 20
3.26828
 30
0.0
 40
0.0001488
 41
0.0001488
  0
VERTEX
  8
0
 10
1.01519
 20
3.16444
 30
0.0
 40
0.0001488
 41
0.0001488
  0
VERTEX
  8
0
 10
1.01492
 20
3.1511
 30
0.0
 40
0.0001488
 41
0.0001488
  0
VERTEX
  8
0
 10
1.01324
 20
3.07015
 30
0.0
 40
0.0001488
 41
0.0001488
  0
VERTEX
  8
0
 10
1.01052
 20
2.86649
 30
0.0
 40
0.0001488
 41
0.0001488
  0
VERTEX
  8
0
 10
1.00922
 20
2.65733
 30
0.0
 40
0.0001488
 41
0.0001488
  0
VERTEX
  8
0
 10
1.00928
 20
2.4426
 30
0.0
 40
0.0001488
 41
0.0001488
  0
VERTEX
  8
0
 10
1.01069
 20
2.22618
 30
0.0
 40
0.0001488
 41
0.0001488
  0
VERTEX
  8
0
 10
1.01259
 20
2.08296
 30
0.0
 40
0.0001488
 41
0.0001488
  0
VERTEX
  8
0
 10
1.01346
 20
2.01551
 30
0.0
 40
0.0001488
 41
0.0001488
  0
VERTEX
  8
0
 10
1.01628
 20
1.87435
 30
0.0
 40
0.0001488
 41
0.0001488
  0
VERTEX
  8
0
 10
1.01758
 20
1.81071
 30
0.0
 40
0.0001488
 41
0.0001488
  0
VERTEX
  8
0
 10
1.0211
 20
1.68164
 30
0.0
 40
0.0001488
 41
0.0001488
  0
VERTEX
  8
0
 10
1.02279
 20
1.61828
 30
0.0
 40
0.0001488
 41
0.0001488
  0
VERTEX
  8
0
 10
1.023
 20
1.61165
 30
0.0
 40
0.0001488
 41
0.0001488
  0
VERTEX
  8
0
 10
1.02978
 20
1.41846
 30
0.0
 40
0.0001488
 41
0.0001488
  0
VERTEX
  8
0
 10
1.03792
 20
1.23107
 30
0.0
 40
0.0001488
 41
0.0001488
  0
VERTEX
  8
0
 10
1.03803
 20
1.22933
 30
0.0
 40
0.0001488
 41
0.0001488
  0
VERTEX
  8
0
 10
1.04037
 20
1.18397
 30
0.0
 40
0.0001488
 41
0.0001488
  0
VERTEX
  8
0
 10
1.07064
 20
1.16401
 30
0.0
 40
0.0001488
 41
0.0001488
  0
VERTEX
  8
0
 10
1.11849
 20
1.13249
 30
0.0
 40
0.0001488
 41
0.0001488
  0
VERTEX
  8
0
 10
1.16227
 20
1.10368
 30
0.0
 40
0.0001488
 41
0.0001488
  0
VERTEX
  8
0
 10
1.17622
 20
1.09446
 30
0.0
 40
0.0001488
 41
0.0001488
  0
SEQEND
 8
0
  0
POLYLINE
  8
0
 62
     1
 66
     1
 10
0
 20
0
 30
0.0
 70
     1
 40
0.0107136
 41
0.0107136
  0
VERTEX
  8
0
 10
0.527561
 20
0.764919
 30
0.0
 40
0.0001488
 41
0.0001488
  0
VERTEX
  8
0
 10
0.524143
 20
0.745551
 30
0.0
 40
0.0001488
 41
0.0001488
  0
VERTEX
  8
0
 10
0.523981
 20
0.744575
 30
0.0
 40
0.0001488
 41
0.0001488
  0
VERTEX
  8
0
 10
0.523167
 20
0.722493
 30
0.0
 40
0.0001488
 41
0.0001488
  0
VERTEX
  8
0
 10
0.525499
 20
0.700467
 30
0.0
 40
0.0001488
 41
0.0001488
  0
VERTEX
  8
0
 10
0.528917
 20
0.686849
 30
0.0
 40
0.0001488
 41
0.0001488
  0
VERTEX
  8
0
 10
0.529514
 20
0.684353
 30
0.0
 40
0.0001488
 41
0.0001488
  0
VERTEX
  8
0
 10
0.530871
 20
0.678982
 30
0.0
 40
0.0001488
 41
0.0001488
  0
VERTEX
  8
0
 10
0.534397
 20
0.670139
 30
0.0
 40
0.0001488
 41
0.0001488
  0
VERTEX
  8
0
 10
0.537815
 20
0.661783
 30
0.0
 40
0.0001488
 41
0.0001488
  0
VERTEX
  8
0
 10
0.539117
 20
0.658475
 30
0.0
 40
0.0001488
 41
0.0001488
  0
VERTEX
  8
0
 10
0.542589
 20
0.652507
 30
0.0
 40
0.0001488
 41
0.0001488
  0
VERTEX
  8
0
 10
0.548178
 20
0.642796
 30
0.0
 40
0.0001488
 41
0.0001488
  0
VERTEX
  8
0
 10
0.550239
 20
0.639268
 30
0.0
 40
0.0001488
 41
0.0001488
  0
VERTEX
  8
0
 10
0.554958
 20
0.633192
 30
0.0
 40
0.0001488
 41
0.0001488
  0
VERTEX
  8
0
 10
0.562608
 20
0.623426
 30
0.0
 40
0.0001488
 41
0.0001488
  0
VERTEX
  8
0
 10
0.563857
 20
0.621853
 30
0.0
 40
0.0001488
 41
0.0001488
  0
VERTEX
  8
0
 10
0.579753
 20
0.606446
 30
0.0
 40
0.0001488
 41
0.0001488
  0
VERTEX
  8
0
 10
0.597657
 20
0.593479
 30
0.0
 40
0.0001488
 41
0.0001488
  0
VERTEX
  8
0
 10
0.602051
 20
0.591146
 30
0.0
 40
0.0001488
 41
0.0001488
  0
VERTEX
  8
0
 10
0.614854
 20
0.584256
 30
0.0
 40
0.0001488
 41
0.0001488
  0
VERTEX
  8
0
 10
0.617242
 20
0.583008
 30
0.0
 40
0.0001488
 41
0.0001488
  0
VERTEX
  8
0
 10
0.638021
 20
0.575467
 30
0.0
 40
0.0001488
 41
0.0001488
  0
VERTEX
  8
0
 10
0.659668
 20
0.570856
 30
0.0
 40
0.0001488
 41
0.0001488
  0
VERTEX
  8
0
 10
0.681749
 20
0.569336
 30
0.0
 40
0.0001488
 41
0.0001488
  0
VERTEX
  8
0
 10
0.703885
 20
0.570856
 30
0.0
 40
0.0001488
 41
0.0001488
  0
VERTEX
  8
0
 10
0.711317
 20
0.572428
 30
0.0
 40
0.0001488
 41
0.0001488
  0
VERTEX
  8
0
 10
0.725532
 20
0.575467
 30
0.0
 40
0.0001488
 41
0.0001488
  0
VERTEX
  8
0
 10
0.746365
 20
0.583008
 30
0.0
 40
0.0001488
 41
0.0001488
  0
VERTEX
  8
0
 10
0.748699
 20
0.584256
 30
0.0
 40
0.0001488
 41
0.0001488
  0
VERTEX
  8
0
 10
0.761501
 20
0.591146
 30
0.0
 40
0.0001488
 41
0.0001488
  0
VERTEX
  8
0
 10
0.765842
 20
0.593479
 30
0.0
 40
0.0001488
 41
0.0001488
  0
VERTEX
  8
0
 10
0.774903
 20
0.600043
 30
0.0
 40
0.0001488
 41
0.0001488
  0
VERTEX
  8
0
 10
0.7838
 20
0.606446
 30
0.0
 40
0.0001488
 41
0.0001488
  0
VERTEX
  8
0
 10
0.788574
 20
0.611057
 30
0.0
 40
0.0001488
 41
0.0001488
  0
VERTEX
  8
0
 10
0.79975
 20
0.621853
 30
0.0
 40
0.0001488
 41
0.0001488
  0
VERTEX
  8
0
 10
0.803549
 20
0.626736
 30
0.0
 40
0.0001488
 41
0.0001488
  0
VERTEX
  8
0
 10
0.813368
 20
0.639268
 30
0.0
 40
0.0001488
 41
0.0001488
  0
VERTEX
  8
0
 10
0.817383
 20
0.646322
 30
0.0
 40
0.0001488
 41
0.0001488
  0
VERTEX
  8
0
 10
0.824436
 20
0.658475
 30
0.0
 40
0.0001488
 41
0.0001488
  0
VERTEX
  8
0
 10
0.82856
 20
0.668674
 30
0.0
 40
0.0001488
 41
0.0001488
  0
VERTEX
  8
0
 10
0.832736
 20
0.678982
 30
0.0
 40
0.0001488
 41
0.0001488
  0
VERTEX
  8
0
 10
0.837185
 20
0.69694
 30
0.0
 40
0.0001488
 41
0.0001488
  0
VERTEX
  8
0
 10
0.838053
 20
0.700467
 30
0.0
 40
0.0001488
 41
0.0001488
  0
VERTEX
  8
0
 10
0.840386
 20
0.722493
 30
0.0
 40
0.0001488
 41
0.0001488
  0
VERTEX
  8
0
 10
0.839899
 20
0.736274
 30
0.0
 40
0.0001488
 41
0.0001488
  0
VERTEX
  8
0
 10
0.839626
 20
0.744575
 30
0.0
 40
0.0001488
 41
0.0001488
  0
VERTEX
  8
0
 10
0.839464
 20
0.745551
 30
0.0
 40
0.0001488
 41
0.0001488
  0
VERTEX
  8
0
 10
0.837076
 20
0.758951
 30
0.0
 40
0.0001488
 41
0.0001488
  0
VERTEX
  8
0
 10
0.837076
 20
0.759006
 30
0.0
 40
0.0001488
 41
0.0001488
  0
VERTEX
  8
0
 10
0.835775
 20
0.766385
 30
0.0
 40
0.0001488
 41
0.0001488
  0
VERTEX
  8
0
 10
0.828939
 20
0.787489
 30
0.0
 40
0.0001488
 41
0.0001488
  0
VERTEX
  8
0
 10
0.819228
 20
0.807346
 30
0.0
 40
0.0001488
 41
0.0001488
  0
VERTEX
  8
0
 10
0.806858
 20
0.825737
 30
0.0
 40
0.0001488
 41
0.0001488
  0
VERTEX
  8
0
 10
0.792046
 20
0.842176
 30
0.0
 40
0.0001488
 41
0.0001488
  0
VERTEX
  8
0
 10
0.775065
 20
0.856392
 30
0.0
 40
0.0001488
 41
0.0001488
  0
VERTEX
  8
0
 10
0.774903
 20
0.8565
 30
0.0
 40
0.0001488
 41
0.0001488
  0
VERTEX
  8
0
 10
0.756293
 20
0.86811
 30
0.0
 40
0.0001488
 41
0.0001488
  0
VERTEX
  8
0
 10
0.741699
 20
0.874675
 30
0.0
 40
0.0001488
 41
0.0001488
  0
VERTEX
  8
0
 10
0.736057
 20
0.877171
 30
0.0
 40
0.0001488
 41
0.0001488
  0
VERTEX
  8
0
 10
0.714789
 20
0.883247
 30
0.0
 40
0.0001488
 41
0.0001488
  0
VERTEX
  8
0
 10
0.692871
 20
0.886339
 30
0.0
 40
0.0001488
 41
0.0001488
  0
VERTEX
  8
0
 10
0.670736
 20
0.886339
 30
0.0
 40
0.0001488
 41
0.0001488
  0
VERTEX
  8
0
 10
0.648762
 20
0.883247
 30
0.0
 40
0.0001488
 41
0.0001488
  0
VERTEX
  8
0
 10
0.627496
 20
0.877171
 30
0.0
 40
0.0001488
 41
0.0001488
  0
VERTEX
  8
0
 10
0.613661
 20
0.870985
 30
0.0
 40
0.0001488
 41
0.0001488
  0
VERTEX
  8
0
 10
0.60726
 20
0.86811
 30
0.0
 40
0.0001488
 41
0.0001488
  0
VERTEX
  8
0
 10
0.588488
 20
0.856392
 30
0.0
 40
0.0001488
 41
0.0001488
  0
VERTEX
  8
0
 10
0.57156
 20
0.842176
 30
0.0
 40
0.0001488
 41
0.0001488
  0
VERTEX
  8
0
 10
0.556749
 20
0.825737
 30
0.0
 40
0.0001488
 41
0.0001488
  0
VERTEX
  8
0
 10
0.544379
 20
0.807346
 30
0.0
 40
0.0001488
 41
0.0001488
  0
VERTEX
  8
0
 10
0.534668
 20
0.787489
 30
0.0
 40
0.0001488
 41
0.0001488
  0
VERTEX
  8
0
 10
0.527778
 20
0.766385
 30
0.0
 40
0.0001488
 41
0.0001488
  0
VERTEX
  8
0
 10
0.527561
 20
0.764919
 30
0.0
 40
0.0001488
 41
0.0001488
  0
SEQEND
 8
0
  0
POLYLINE
  8
0
 62
     1
 66
     1
 10
0
 20
0
 30
0.0
 70
     1
 40
0.0107136
 41
0.0107136
  0
VERTEX
  8
0
 10
0.513997
 20
0.895019
 30
0.0
 40
0.0001488
 41
0.0001488
  0
VERTEX
  8
0
 10
0.524143
 20
0.904568
 30
0.0
 40
0.0001488
 41
0.0001488
  0
VERTEX
  8
0
 10
0.526476
 20
0.906793
 30
0.0
 40
0.0001488
 41
0.0001488
  0
VERTEX
  8
0
 10
0.526585
 20
0.906901
 30
0.0
 40
0.0001488
 41
0.0001488
  0
VERTEX
  8
0
 10
0.532064
 20
0.913792
 30
0.0
 40
0.0001488
 41
0.0001488
  0
VERTEX
  8
0
 10
0.53304
 20
0.915907
 30
0.0
 40
0.0001488
 41
0.0001488
  0
VERTEX
  8
0
 10
0.533963
 20
0.918024
 30
0.0
 40
0.0001488
 41
0.0001488
  0
VERTEX
  8
0
 10
0.535807
 20
0.922092
 30
0.0
 40
0.0001488
 41
0.0001488
  0
VERTEX
  8
0
 10
0.537381
 20
0.930393
 30
0.0
 40
0.0001488
 41
0.0001488
  0
VERTEX
  8
0
 10
0.537651
 20
0.931749
 30
0.0
 40
0.0001488
 41
0.0001488
  0
VERTEX
  8
0
 10
0.537543
 20
0.942492
 30
0.0
 40
0.0001488
 41
0.0001488
  0
VERTEX
  8
0
 10
0.535536
 20
0.953993
 30
0.0
 40
0.0001488
 41
0.0001488
  0
VERTEX
  8
0
 10
0.533257
 20
0.9611
 30
0.0
 40
0.0001488
 41
0.0001488
  0
VERTEX
  8
0
 10
0.53304
 20
0.96186
 30
0.0
 40
0.0001488
 41
0.0001488
  0
VERTEX
  8
0
 10
0.531685
 20
0.966038
 30
0.0
 40
0.0001488
 41
0.0001488
  0
VERTEX
  8
0
 10
0.527181
 20
0.975857
 30
0.0
 40
0.0001488
 41
0.0001488
  0
VERTEX
  8
0
 10
0.526042
 20
0.978299
 30
0.0
 40
0.0001488
 41
0.0001488
  0
VERTEX
  8
0
 10
0.520617
 20
0.987414
 30
0.0
 40
0.0001488
 41
0.0001488
  0
VERTEX
  8
0
 10
0.518772
 20
0.990451
 30
0.0
 40
0.0001488
 41
0.0001488
  0
VERTEX
  8
0
 10
0.513997
 20
0.996907
 30
0.0
 40
0.0001488
 41
0.0001488
  0
VERTEX
  8
0
 10
0.510037
 20
1.00228
 30
0.0
 40
0.0001488
 41
0.0001488
  0
VERTEX
  8
0
 10
0.500054
 20
1.01335
 30
0.0
 40
0.0001488
 41
0.0001488
  0
VERTEX
  8
0
 10
0.474393
 20
1.0395
 30
0.0
 40
0.0001488
 41
0.0001488
  0
VERTEX
  8
0
 10
0.463488
 20
1.0497
 30
0.0
 40
0.0001488
 41
0.0001488
  0
VERTEX
  8
0
 10
0.452419
 20
1.05816
 30
0.0
 40
0.0001488
 41
0.0001488
  0
VERTEX
  8
0
 10
0.451768
 20
1.05865
 30
0.0
 40
0.0001488
 41
0.0001488
  0
VERTEX
  8
0
 10
0.441135
 20
1.06532
 30
0.0
 40
0.0001488
 41
0.0001488
  0
VERTEX
  8
0
 10
0.439671
 20
1.06624
 30
0.0
 40
0.0001488
 41
0.0001488
  0
VERTEX
  8
0
 10
0.435926
 20
1.06803
 30
0.0
 40
0.0001488
 41
0.0001488
  0
VERTEX
  8
0
 10
0.429688
 20
1.07107
 30
0.0
 40
0.0001488
 41
0.0001488
  0
VERTEX
  8
0
 10
0.427354
 20
1.07221
 30
0.0
 40
0.0001488
 41
0.0001488
  0
VERTEX
  8
0
 10
0.419
 20
1.07509
 30
0.0
 40
0.0001488
 41
0.0001488
  0
VERTEX
  8
0
 10
0.415256
 20
1.07639
 30
0.0
 40
0.0001488
 41
0.0001488
  0
VERTEX
  8
0
 10
0.409017
 20
1.07769
 30
0.0
 40
0.0001488
 41
0.0001488
  0
VERTEX
  8
0
 10
0.403646
 20
1.07878
 30
0.0
 40
0.0001488
 41
0.0001488
  0
VERTEX
  8
0
 10
0.3986
 20
1.07899
 30
0.0
 40
0.0001488
 41
0.0001488
  0
VERTEX
  8
0
 10
0.39274
 20
1.07921
 30
0.0
 40
0.0001488
 41
0.0001488
  0
VERTEX
  8
0
 10
0.382867
 20
1.07775
 30
0.0
 40
0.0001488
 41
0.0001488
  0
VERTEX
  8
0
 10
0.37424
 20
1.07438
 30
0.0
 40
0.0001488
 41
0.0001488
  0
VERTEX
  8
0
 10
0.367079
 20
1.06923
 30
0.0
 40
0.0001488
 41
0.0001488
  0
VERTEX
  8
0
 10
0.365831
 20
1.06803
 30
0.0
 40
0.0001488
 41
0.0001488
  0
VERTEX
  8
0
 10
0.360514
 20
1.06299
 30
0.0
 40
0.0001488
 41
0.0001488
  0
VERTEX
  8
0
 10
0.351563
 20
1.05452
 30
0.0
 40
0.0001488
 41
0.0001488
  0
VERTEX
  8
0
 10
0.350857
 20
1.05366
 30
0.0
 40
0.0001488
 41
0.0001488
  0
VERTEX
  8
0
 10
0.346083
 20
1.04769
 30
0.0
 40
0.0001488
 41
0.0001488
  0
VERTEX
  8
0
 10
0.343099
 20
1.04096
 30
0.0
 40
0.0001488
 41
0.0001488
  0
VERTEX
  8
0
 10
0.342339
 20
1.03933
 30
0.0
 40
0.0001488
 41
0.0001488
  0
VERTEX
  8
0
 10
0.340494
 20
1.02968
 30
0.0
 40
0.0001488
 41
0.0001488
  0
VERTEX
  8
0
 10
0.340549
 20
1.02772
 30
0.0
 40
0.0001488
 41
0.0001488
  0
VERTEX
  8
0
 10
0.340549
 20
1.02143
 30
0.0
 40
0.0001488
 41
0.0001488
  0
VERTEX
  8
0
 10
0.340603
 20
1.01899
 30
0.0
 40
0.0001488
 41
0.0001488
  0
VERTEX
  8
0
 10
0.342611
 20
1.00743
 30
0.0
 40
0.0001488
 41
0.0001488
  0
VERTEX
  8
0
 10
0.346462
 20
0.995389
 30
0.0
 40
0.0001488
 41
0.0001488
  0
VERTEX
  8
0
 10
0.348307
 20
0.991319
 30
0.0
 40
0.0001488
 41
0.0001488
  0
VERTEX
  8
0
 10
0.350097
 20
0.987414
 30
0.0
 40
0.0001488
 41
0.0001488
  0
VERTEX
  8
0
 10
0.352106
 20
0.983128
 30
0.0
 40
0.0001488
 41
0.0001488
  0
VERTEX
  8
0
 10
0.359375
 20
0.970975
 30
0.0
 40
0.0001488
 41
0.0001488
  0
VERTEX
  8
0
 10
0.367676
 20
0.959799
 30
0.0
 40
0.0001488
 41
0.0001488
  0
VERTEX
  8
0
 10
0.36811
 20
0.959147
 30
0.0
 40
0.0001488
 41
0.0001488
  0
VERTEX
  8
0
 10
0.378093
 20
0.948079
 30
0.0
 40
0.0001488
 41
0.0001488
  0
VERTEX
  8
0
 10
0.403754
 20
0.921929
 30
0.0
 40
0.0001488
 41
0.0001488
  0
VERTEX
  8
0
 10
0.404568
 20
0.921115
 30
0.0
 40
0.0001488
 41
0.0001488
  0
VERTEX
  8
0
 10
0.41466
 20
0.911783
 30
0.0
 40
0.0001488
 41
0.0001488
  0
VERTEX
  8
0
 10
0.421169
 20
0.906793
 30
0.0
 40
0.0001488
 41
0.0001488
  0
VERTEX
  8
0
 10
0.426378
 20
0.902778
 30
0.0
 40
0.0001488
 41
0.0001488
  0
VERTEX
  8
0
 10
0.438531
 20
0.895236
 30
0.0
 40
0.0001488
 41
0.0001488
  0
VERTEX
  8
0
 10
0.450792
 20
0.889214
 30
0.0
 40
0.0001488
 41
0.0001488
  0
VERTEX
  8
0
 10
0.452419
 20
0.888672
 30
0.0
 40
0.0001488
 41
0.0001488
  0
VERTEX
  8
0
 10
0.454969
 20
0.88775
 30
0.0
 40
0.0001488
 41
0.0001488
  0
VERTEX
  8
0
 10
0.46289
 20
0.885037
 30
0.0
 40
0.0001488
 41
0.0001488
  0
VERTEX
  8
0
 10
0.474501
 20
0.88265
 30
0.0
 40
0.0001488
 41
0.0001488
  0
VERTEX
  8
0
 10
0.48546
 20
0.882215
 30
0.0
 40
0.0001488
 41
0.0001488
  0
VERTEX
  8
0
 10
0.495335
 20
0.883681
 30
0.0
 40
0.0001488
 41
0.0001488
  0
VERTEX
  8
0
 10
0.503907
 20
0.887044
 30
0.0
 40
0.0001488
 41
0.0001488
  0
VERTEX
  8
0
 10
0.511068
 20
0.892253
 30
0.0
 40
0.0001488
 41
0.0001488
  0
VERTEX
  8
0
 10
0.513997
 20
0.895019
 30
0.0
 40
0.0001488
 41
0.0001488
  0
SEQEND
 8
0
  0
POLYLINE
  8
0
 62
     1
 66
     1
 10
0
 20
0
 30
0.0
 70
     1
 40
0.0107136
 41
0.0107136
  0
VERTEX
  8
0
 10
0.838921
 20
0.908583
 30
0.0
 40
0.0001488
 41
0.0001488
  0
VERTEX
  8
0
 10
0.840169
 20
0.906793
 30
0.0
 40
0.0001488
 41
0.0001488
  0
VERTEX
  8
0
 10
0.840929
 20
0.905761
 30
0.0
 40
0.0001488
 41
0.0001488
  0
VERTEX
  8
0
 10
0.844075
 20
0.901421
 30
0.0
 40
0.0001488
 41
0.0001488
  0
VERTEX
  8
0
 10
0.848796
 20
0.896431
 30
0.0
 40
0.0001488
 41
0.0001488
  0
VERTEX
  8
0
 10
0.855578
 20
0.889324
 30
0.0
 40
0.0001488
 41
0.0001488
  0
VERTEX
  8
0
 10
0.858778
 20
0.885906
 30
0.0
 40
0.0001488
 41
0.0001488
  0
VERTEX
  8
0
 10
0.861546
 20
0.883681
 30
0.0
 40
0.0001488
 41
0.0001488
  0
VERTEX
  8
0
 10
0.865614
 20
0.880425
 30
0.0
 40
0.0001488
 41
0.0001488
  0
VERTEX
  8
0
 10
0.873969
 20
0.876736
 30
0.0
 40
0.0001488
 41
0.0001488
  0
VERTEX
  8
0
 10
0.880208
 20
0.875543
 30
0.0
 40
0.0001488
 41
0.0001488
  0
VERTEX
  8
0
 10
0.883626
 20
0.874892
 30
0.0
 40
0.0001488
 41
0.0001488
  0
VERTEX
  8
0
 10
0.894314
 20
0.874946
 30
0.0
 40
0.0001488
 41
0.0001488
  0
VERTEX
  8
0
 10
0.895887
 20
0.875217
 30
0.0
 40
0.0001488
 41
0.0001488
  0
VERTEX
  8
0
 10
0.905871
 20
0.876899
 30
0.0
 40
0.0001488
 41
0.0001488
  0
VERTEX
  8
0
 10
0.906685
 20
0.877171
 30
0.0
 40
0.0001488
 41
0.0001488
  0
VERTEX
  8
0
 10
0.91786
 20
0.880751
 30
0.0
 40
0.0001488
 41
0.0001488
  0
VERTEX
  8
0
 10
0.930176
 20
0.886447
 30
0.0
 40
0.0001488
 41
0.0001488
  0
VERTEX
  8
0
 10
0.936199
 20
0.890028
 30
0.0
 40
0.0001488
 41
0.0001488
  0
VERTEX
  8
0
 10
0.942329
 20
0.893664
 30
0.0
 40
0.0001488
 41
0.0001488
  0
VERTEX
  8
0
 10
0.954156
 20
0.902453
 30
0.0
 40
0.0001488
 41
0.0001488
  0
VERTEX
  8
0
 10
0.958985
 20
0.906793
 30
0.0
 40
0.0001488
 41
0.0001488
  0
VERTEX
  8
0
 10
0.959147
 20
0.906901
 30
0.0
 40
0.0001488
 41
0.0001488
  0
VERTEX
  8
0
 10
0.965224
 20
0.912381
 30
0.0
 40
0.0001488
 41
0.0001488
  0
VERTEX
  8
0
 10
0.991319
 20
0.938043
 30
0.0
 40
0.0001488
 41
0.0001488
  0
VERTEX
  8
0
 10
1.00152
 20
0.949056
 30
0.0
 40
0.0001488
 41
0.0001488
  0
VERTEX
  8
0
 10
1.00228
 20
0.950032
 30
0.0
 40
0.0001488
 41
0.0001488
  0
VERTEX
  8
0
 10
1.01052
 20
0.960721
 30
0.0
 40
0.0001488
 41
0.0001488
  0
VERTEX
  8
0
 10
1.01622
 20
0.969889
 30
0.0
 40
0.0001488
 41
0.0001488
  0
VERTEX
  8
0
 10
1.01807
 20
0.972874
 30
0.0
 40
0.0001488
 41
0.0001488
  0
VERTEX
  8
0
 10
1.02403
 20
0.985081
 30
0.0
 40
0.0001488
 41
0.0001488
  0
VERTEX
  8
0
 10
1.02485
 20
0.987414
 30
0.0
 40
0.0001488
 41
0.0001488
  0
VERTEX
  8
0
 10
1.0261
 20
0.990886
 30
0.0
 40
0.0001488
 41
0.0001488
  0
VERTEX
  8
0
 10
1.02827
 20
0.997233
 30
0.0
 40
0.0001488
 41
0.0001488
  0
VERTEX
  8
0
 10
1.03065
 20
1.00884
 30
0.0
 40
0.0001488
 41
0.0001488
  0
VERTEX
  8
0
 10
1.03109
 20
1.01975
 30
0.0
 40
0.0001488
 41
0.0001488
  0
VERTEX
  8
0
 10
1.02962
 20
1.02962
 30
0.0
 40
0.0001488
 41
0.0001488
  0
VERTEX
  8
0
 10
1.02696
 20
1.03651
 30
0.0
 40
0.0001488
 41
0.0001488
  0
VERTEX
  8
0
 10
1.02626
 20
1.03825
 30
0.0
 40
0.0001488
 41
0.0001488
  0
VERTEX
  8
0
 10
1.02105
 20
1.04541
 30
0.0
 40
0.0001488
 41
0.0001488
  0
VERTEX
  8
0
 10
1.01763
 20
1.04905
 30
0.0
 40
0.0001488
 41
0.0001488
  0
VERTEX
  8
0
 10
1.01682
 20
1.04991
 30
0.0
 40
0.0001488
 41
0.0001488
  0
VERTEX
  8
0
 10
1.00667
 20
1.0606
 30
0.0
 40
0.0001488
 41
0.0001488
  0
VERTEX
  8
0
 10
1.0064
 20
1.06087
 30
0.0
 40
0.0001488
 41
0.0001488
  0
VERTEX
  8
0
 10
0.999511
 20
1.06641
 30
0.0
 40
0.0001488
 41
0.0001488
  0
VERTEX
  8
0
 10
0.995822
 20
1.06803
 30
0.0
 40
0.0001488
 41
0.0001488
  0
VERTEX
  8
0
 10
0.991157
 20
1.07015
 30
0.0
 40
0.0001488
 41
0.0001488
  0
VERTEX
  8
0
 10
0.981554
 20
1.07194
 30
0.0
 40
0.0001488
 41
0.0001488
  0
VERTEX
  8
0
 10
0.970811
 20
1.07189
 30
0.0
 40
0.0001488
 41
0.0001488
  0
VERTEX
  8
0
 10
0.95931
 20
1.06993
 30
0.0
 40
0.0001488
 41
0.0001488
  0
VERTEX
  8
0
 10
0.953504
 20
1.06803
 30
0.0
 40
0.0001488
 41
0.0001488
  0
VERTEX
  8
0
 10
0.947265
 20
1.06603
 30
0.0
 40
0.0001488
 41
0.0001488
  0
VERTEX
  8
0
 10
0.936199
 20
1.06093
 30
0.0
 40
0.0001488
 41
0.0001488
  0
VERTEX
  8
0
 10
0.935004
 20
1.06038
 30
0.0
 40
0.0001488
 41
0.0001488
  0
VERTEX
  8
0
 10
0.922851
 20
1.05311
 30
0.0
 40
0.0001488
 41
0.0001488
  0
VERTEX
  8
0
 10
0.911025
 20
1.04438
 30
0.0
 40
0.0001488
 41
0.0001488
  0
VERTEX
  8
0
 10
0.899903
 20
1.03445
 30
0.0
 40
0.0001488
 41
0.0001488
  0
VERTEX
  8
0
 10
0.873807
 20
1.00879
 30
0.0
 40
0.0001488
 41
0.0001488
  0
VERTEX
  8
0
 10
0.863607
 20
0.997775
 30
0.0
 40
0.0001488
 41
0.0001488
  0
VERTEX
  8
0
 10
0.855632
 20
0.987414
 30
0.0
 40
0.0001488
 41
0.0001488
  0
VERTEX
  8
0
 10
0.855578
 20
0.987304
 30
0.0
 40
0.0001488
 41
0.0001488
  0
VERTEX
  8
0
 10
0.854656
 20
0.986111
 30
0.0
 40
0.0001488
 41
0.0001488
  0
VERTEX
  8
0
 10
0.84885
 20
0.976833
 30
0.0
 40
0.0001488
 41
0.0001488
  0
VERTEX
  8
0
 10
0.847114
 20
0.974121
 30
0.0
 40
0.0001488
 41
0.0001488
  0
VERTEX
  8
0
 10
0.84706
 20
0.973958
 30
0.0
 40
0.0001488
 41
0.0001488
  0
VERTEX
  8
0
 10
0.84196
 20
0.963488
 30
0.0
 40
0.0001488
 41
0.0001488
  0
VERTEX
  8
0
 10
0.841092
 20
0.961697
 30
0.0
 40
0.0001488
 41
0.0001488
  0
VERTEX
  8
0
 10
0.840929
 20
0.961262
 30
0.0
 40
0.0001488
 41
0.0001488
  0
VERTEX
  8
0
 10
0.836914
 20
0.949599
 30
0.0
 40
0.0001488
 41
0.0001488
  0
VERTEX
  8
0
 10
0.836372
 20
0.947103
 30
0.0
 40
0.0001488
 41
0.0001488
  0
VERTEX
  8
0
 10
0.834526
 20
0.937989
 30
0.0
 40
0.0001488
 41
0.0001488
  0
VERTEX
  8
0
 10
0.834039
 20
0.927083
 30
0.0
 40
0.0001488
 41
0.0001488
  0
VERTEX
  8
0
 10
0.835449
 20
0.918024
 30
0.0
 40
0.0001488
 41
0.0001488
  0
VERTEX
  8
0
 10
0.835558
 20
0.91721
 30
0.0
 40
0.0001488
 41
0.0001488
  0
VERTEX
  8
0
 10
0.838921
 20
0.908583
 30
0.0
 40
0.0001488
 41
0.0001488
  0
SEQEND
 8
0
  0
POLYLINE
  8
0
 62
     1
 66
     1
 10
0
 20
0
 30
0.0
 70
     1
 40
0.0107136
 41
0.0107136
  0
VERTEX
  8
0
 10
1.01221
 20
0.471897
 30
0.0
 40
0.0001488
 41
0.0001488
  0
VERTEX
  8
0
 10
1.00521
 20
0.483832
 30
0.0
 40
0.0001488
 41
0.0001488
  0
VERTEX
  8
0
 10
0.996474
 20
0.495876
 30
0.0
 40
0.0001488
 41
0.0001488
  0
VERTEX
  8
0
 10
0.989637
 20
0.503635
 30
0.0
 40
0.0001488
 41
0.0001488
  0
VERTEX
  8
0
 10
0.98649
 20
0.507215
 30
0.0
 40
0.0001488
 41
0.0001488
  0
VERTEX
  8
0
 10
0.960829
 20
0.533746
 30
0.0
 40
0.0001488
 41
0.0001488
  0
VERTEX
  8
0
 10
0.949869
 20
0.544108
 30
0.0
 40
0.0001488
 41
0.0001488
  0
VERTEX
  8
0
 10
0.938206
 20
0.553276
 30
0.0
 40
0.0001488
 41
0.0001488
  0
VERTEX
  8
0
 10
0.936199
 20
0.554525
 30
0.0
 40
0.0001488
 41
0.0001488
  0
VERTEX
  8
0
 10
0.92985
 20
0.558539
 30
0.0
 40
0.0001488
 41
0.0001488
  0
VERTEX
  8
0
 10
0.926053
 20
0.560926
 30
0.0
 40
0.0001488
 41
0.0001488
  0
VERTEX
  8
0
 10
0.913792
 20
0.567057
 30
0.0
 40
0.0001488
 41
0.0001488
  0
VERTEX
  8
0
 10
0.908094
 20
0.569065
 30
0.0
 40
0.0001488
 41
0.0001488
  0
VERTEX
  8
0
 10
0.901693
 20
0.571343
 30
0.0
 40
0.0001488
 41
0.0001488
  0
VERTEX
  8
0
 10
0.89719
 20
0.572265
 30
0.0
 40
0.0001488
 41
0.0001488
  0
VERTEX
  8
0
 10
0.890028
 20
0.573731
 30
0.0
 40
0.0001488
 41
0.0001488
  0
VERTEX
  8
0
 10
0.8852
 20
0.573893
 30
0.0
 40
0.0001488
 41
0.0001488
  0
VERTEX
  8
0
 10
0.879124
 20
0.574164
 30
0.0
 40
0.0001488
 41
0.0001488
  0
VERTEX
  8
0
 10
0.869303
 20
0.572646
 30
0.0
 40
0.0001488
 41
0.0001488
  0
VERTEX
  8
0
 10
0.860678
 20
0.569228
 30
0.0
 40
0.0001488
 41
0.0001488
  0
VERTEX
  8
0
 10
0.856825
 20
0.566407
 30
0.0
 40
0.0001488
 41
0.0001488
  0
VERTEX
  8
0
 10
0.855578
 20
0.565483
 30
0.0
 40
0.0001488
 41
0.0001488
  0
VERTEX
  8
0
 10
0.853515
 20
0.564019
 30
0.0
 40
0.0001488
 41
0.0001488
  0
VERTEX
  8
0
 10
0.843371
 20
0.554199
 30
0.0
 40
0.0001488
 41
0.0001488
  0
VERTEX
  8
0
 10
0.837999
 20
0.54899
 30
0.0
 40
0.0001488
 41
0.0001488
  0
VERTEX
  8
0
 10
0.832736
 20
0.542426
 30
0.0
 40
0.0001488
 41
0.0001488
  0
VERTEX
  8
0
 10
0.832465
 20
0.542046
 30
0.0
 40
0.0001488
 41
0.0001488
  0
VERTEX
  8
0
 10
0.828776
 20
0.533583
 30
0.0
 40
0.0001488
 41
0.0001488
  0
VERTEX
  8
0
 10
0.826932
 20
0.523708
 30
0.0
 40
0.0001488
 41
0.0001488
  0
VERTEX
  8
0
 10
0.826932
 20
0.522732
 30
0.0
 40
0.0001488
 41
0.0001488
  0
VERTEX
  8
0
 10
0.826986
 20
0.512804
 30
0.0
 40
0.0001488
 41
0.0001488
  0
VERTEX
  8
0
 10
0.82856
 20
0.503635
 30
0.0
 40
0.0001488
 41
0.0001488
  0
VERTEX
  8
0
 10
0.828993
 20
0.501139
 30
0.0
 40
0.0001488
 41
0.0001488
  0
VERTEX
  8
0
 10
0.829915
 20
0.498264
 30
0.0
 40
0.0001488
 41
0.0001488
  0
VERTEX
  8
0
 10
0.8329
 20
0.488878
 30
0.0
 40
0.0001488
 41
0.0001488
  0
VERTEX
  8
0
 10
0.833768
 20
0.486871
 30
0.0
 40
0.0001488
 41
0.0001488
  0
VERTEX
  8
0
 10
0.838488
 20
0.4764
 30
0.0
 40
0.0001488
 41
0.0001488
  0
VERTEX
  8
0
 10
0.845811
 20
0.464031
 30
0.0
 40
0.0001488
 41
0.0001488
  0
VERTEX
  8
0
 10
0.854546
 20
0.451986
 30
0.0
 40
0.0001488
 41
0.0001488
  0
VERTEX
  8
0
 10
0.864475
 20
0.440701
 30
0.0
 40
0.0001488
 41
0.0001488
  0
VERTEX
  8
0
 10
0.881565
 20
0.423014
 30
0.0
 40
0.0001488
 41
0.0001488
  0
VERTEX
  8
0
 10
0.890136
 20
0.414117
 30
0.0
 40
0.0001488
 41
0.0001488
  0
VERTEX
  8
0
 10
0.892199
 20
0.412164
 30
0.0
 40
0.0001488
 41
0.0001488
  0
VERTEX
  8
0
 10
0.901096
 20
0.403754
 30
0.0
 40
0.0001488
 41
0.0001488
  0
VERTEX
  8
0
 10
0.909343
 20
0.397353
 30
0.0
 40
0.0001488
 41
0.0001488
  0
VERTEX
  8
0
 10
0.912815
 20
0.39464
 30
0.0
 40
0.0001488
 41
0.0001488
  0
VERTEX
  8
0
 10
0.922635
 20
0.3884
 30
0.0
 40
0.0001488
 41
0.0001488
  0
VERTEX
  8
0
 10
0.924914
 20
0.386936
 30
0.0
 40
0.0001488
 41
0.0001488
  0
VERTEX
  8
0
 10
0.934842
 20
0.381999
 30
0.0
 40
0.0001488
 41
0.0001488
  0
VERTEX
  8
0
 10
0.936199
 20
0.381347
 30
0.0
 40
0.0001488
 41
0.0001488
  0
VERTEX
  8
0
 10
0.937229
 20
0.38086
 30
0.0
 40
0.0001488
 41
0.0001488
  0
VERTEX
  8
0
 10
0.947211
 20
0.377333
 30
0.0
 40
0.0001488
 41
0.0001488
  0
VERTEX
  8
0
 10
0.949274
 20
0.376574
 30
0.0
 40
0.0001488
 41
0.0001488
  0
VERTEX
  8
0
 10
0.960449
 20
0.37424
 30
0.0
 40
0.0001488
 41
0.0001488
  0
VERTEX
  8
0
 10
0.960938
 20
0.374186
 30
0.0
 40
0.0001488
 41
0.0001488
  0
VERTEX
  8
0
 10
0.971843
 20
0.373699
 30
0.0
 40
0.0001488
 41
0.0001488
  0
VERTEX
  8
0
 10
0.975478
 20
0.37424
 30
0.0
 40
0.0001488
 41
0.0001488
  0
VERTEX
  8
0
 10
0.976508
 20
0.374403
 30
0.0
 40
0.0001488
 41
0.0001488
  0
VERTEX
  8
0
 10
0.981717
 20
0.375162
 30
0.0
 40
0.0001488
 41
0.0001488
  0
VERTEX
  8
0
 10
0.990289
 20
0.378635
 30
0.0
 40
0.0001488
 41
0.0001488
  0
VERTEX
  8
0
 10
0.997504
 20
0.383897
 30
0.0
 40
0.0001488
 41
0.0001488
  0
VERTEX
  8
0
 10
1.01297
 20
0.398872
 30
0.0
 40
0.0001488
 41
0.0001488
  0
VERTEX
  8
0
 10
1.01476
 20
0.401042
 30
0.0
 40
0.0001488
 41
0.0001488
  0
VERTEX
  8
0
 10
1.01682
 20
0.4037
 30
0.0
 40
0.0001488
 41
0.0001488
  0
VERTEX
  8
0
 10
1.0185
 20
0.405817
 30
0.0
 40
0.0001488
 41
0.0001488
  0
VERTEX
  8
0
 10
1.02219
 20
0.414333
 30
0.0
 40
0.0001488
 41
0.0001488
  0
VERTEX
  8
0
 10
1.02387
 20
0.423014
 30
0.0
 40
0.0001488
 41
0.0001488
  0
VERTEX
  8
0
 10
1.02403
 20
0.4241
 30
0.0
 40
0.0001488
 41
0.0001488
  0
VERTEX
  8
0
 10
1.02398
 20
0.435004
 30
0.0
 40
0.0001488
 41
0.0001488
  0
VERTEX
  8
0
 10
1.02197
 20
0.446778
 30
0.0
 40
0.0001488
 41
0.0001488
  0
VERTEX
  8
0
 10
1.01812
 20
0.458985
 30
0.0
 40
0.0001488
 41
0.0001488
  0
VERTEX
  8
0
 10
1.01682
 20
0.46186
 30
0.0
 40
0.0001488
 41
0.0001488
  0
VERTEX
  8
0
 10
1.01595
 20
0.463758
 30
0.0
 40
0.0001488
 41
0.0001488
  0
VERTEX
  8
0
 10
1.01248
 20
0.471463
 30
0.0
 40
0.0001488
 41
0.0001488
  0
VERTEX
  8
0
 10
1.01221
 20
0.471897
 30
0.0
 40
0.0001488
 41
0.0001488
  0
SEQEND
 8
0
  0
POLYLINE
  8
0
 62
     1
 66
     1
 10
0
 20
0
 30
0.0
 70
     1
 40
0.0107136
 41
0.0107136
  0
VERTEX
  8
0
 10
0.517578
 20
0.539063
 30
0.0
 40
0.0001488
 41
0.0001488
  0
VERTEX
  8
0
 10
0.515625
 20
0.543946
 30
0.0
 40
0.0001488
 41
0.0001488
  0
VERTEX
  8
0
 10
0.51416
 20
0.547689
 30
0.0
 40
0.0001488
 41
0.0001488
  0
VERTEX
  8
0
 10
0.513997
 20
0.547906
 30
0.0
 40
0.0001488
 41
0.0001488
  0
VERTEX
  8
0
 10
0.508951
 20
0.554796
 30
0.0
 40
0.0001488
 41
0.0001488
  0
VERTEX
  8
0
 10
0.506239
 20
0.557617
 30
0.0
 40
0.0001488
 41
0.0001488
  0
VERTEX
  8
0
 10
0.495063
 20
0.569174
 30
0.0
 40
0.0001488
 41
0.0001488
  0
VERTEX
  8
0
 10
0.493978
 20
0.570313
 30
0.0
 40
0.0001488
 41
0.0001488
  0
VERTEX
  8
0
 10
0.487033
 20
0.575792
 30
0.0
 40
0.0001488
 41
0.0001488
  0
VERTEX
  8
0
 10
0.478515
 20
0.579536
 30
0.0
 40
0.0001488
 41
0.0001488
  0
VERTEX
  8
0
 10
0.468696
 20
0.581381
 30
0.0
 40
0.0001488
 41
0.0001488
  0
VERTEX
  8
0
 10
0.45779
 20
0.581272
 30
0.0
 40
0.0001488
 41
0.0001488
  0
VERTEX
  8
0
 10
0.452419
 20
0.58035
 30
0.0
 40
0.0001488
 41
0.0001488
  0
VERTEX
  8
0
 10
0.446072
 20
0.579264
 30
0.0
 40
0.0001488
 41
0.0001488
  0
VERTEX
  8
0
 10
0.439671
 20
0.577257
 30
0.0
 40
0.0001488
 41
0.0001488
  0
VERTEX
  8
0
 10
0.433811
 20
0.575412
 30
0.0
 40
0.0001488
 41
0.0001488
  0
VERTEX
  8
0
 10
0.429904
 20
0.573676
 30
0.0
 40
0.0001488
 41
0.0001488
  0
VERTEX
  8
0
 10
0.421332
 20
0.569769
 30
0.0
 40
0.0001488
 41
0.0001488
  0
VERTEX
  8
0
 10
0.408962
 20
0.5625
 30
0.0
 40
0.0001488
 41
0.0001488
  0
VERTEX
  8
0
 10
0.398275
 20
0.554796
 30
0.0
 40
0.0001488
 41
0.0001488
  0
VERTEX
  8
0
 10
0.396972
 20
0.553819
 30
0.0
 40
0.0001488
 41
0.0001488
  0
VERTEX
  8
0
 10
0.385633
 20
0.543782
 30
0.0
 40
0.0001488
 41
0.0001488
  0
VERTEX
  8
0
 10
0.371744
 20
0.530436
 30
0.0
 40
0.0001488
 41
0.0001488
  0
VERTEX
  8
0
 10
0.359104
 20
0.518175
 30
0.0
 40
0.0001488
 41
0.0001488
  0
VERTEX
  8
0
 10
0.35905
 20
0.518121
 30
0.0
 40
0.0001488
 41
0.0001488
  0
VERTEX
  8
0
 10
0.348687
 20
0.507215
 30
0.0
 40
0.0001488
 41
0.0001488
  0
VERTEX
  8
0
 10
0.345921
 20
0.503635
 30
0.0
 40
0.0001488
 41
0.0001488
  0
VERTEX
  8
0
 10
0.344943
 20
0.502333
 30
0.0
 40
0.0001488
 41
0.0001488
  0
VERTEX
  8
0
 10
0.339572
 20
0.495497
 30
0.0
 40
0.0001488
 41
0.0001488
  0
VERTEX
  8
0
 10
0.335992
 20
0.489908
 30
0.0
 40
0.0001488
 41
0.0001488
  0
VERTEX
  8
0
 10
0.331868
 20
0.483399
 30
0.0
 40
0.0001488
 41
0.0001488
  0
VERTEX
  8
0
 10
0.329318
 20
0.478244
 30
0.0
 40
0.0001488
 41
0.0001488
  0
VERTEX
  8
0
 10
0.326768
 20
0.473036
 30
0.0
 40
0.0001488
 41
0.0001488
  0
VERTEX
  8
0
 10
0.325792
 20
0.471083
 30
0.0
 40
0.0001488
 41
0.0001488
  0
VERTEX
  8
0
 10
0.321506
 20
0.458985
 30
0.0
 40
0.0001488
 41
0.0001488
  0
VERTEX
  8
0
 10
0.319119
 20
0.447374
 30
0.0
 40
0.0001488
 41
0.0001488
  0
VERTEX
  8
0
 10
0.318631
 20
0.436469
 30
0.0
 40
0.0001488
 41
0.0001488
  0
VERTEX
  8
0
 10
0.320096
 20
0.426594
 30
0.0
 40
0.0001488
 41
0.0001488
  0
VERTEX
  8
0
 10
0.32156
 20
0.423014
 30
0.0
 40
0.0001488
 41
0.0001488
  0
VERTEX
  8
0
 10
0.323568
 20
0.417969
 30
0.0
 40
0.0001488
 41
0.0001488
  0
VERTEX
  8
0
 10
0.325629
 20
0.415147
 30
0.0
 40
0.0001488
 41
0.0001488
  0
VERTEX
  8
0
 10
0.328831
 20
0.410807
 30
0.0
 40
0.0001488
 41
0.0001488
  0
VERTEX
  8
0
 10
0.334418
 20
0.405003
 30
0.0
 40
0.0001488
 41
0.0001488
  0
VERTEX
  8
0
 10
0.343804
 20
0.39529
 30
0.0
 40
0.0001488
 41
0.0001488
  0
VERTEX
  8
0
 10
0.348144
 20
0.391872
 30
0.0
 40
0.0001488
 41
0.0001488
  0
VERTEX
  8
0
 10
0.350749
 20
0.389811
 30
0.0
 40
0.0001488
 41
0.0001488
  0
VERTEX
  8
0
 10
0.359267
 20
0.386068
 30
0.0
 40
0.0001488
 41
0.0001488
  0
VERTEX
  8
0
 10
0.369032
 20
0.384224
 30
0.0
 40
0.0001488
 41
0.0001488
  0
VERTEX
  8
0
 10
0.370226
 20
0.384224
 30
0.0
 40
0.0001488
 41
0.0001488
  0
VERTEX
  8
0
 10
0.371744
 20
0.384278
 30
0.0
 40
0.0001488
 41
0.0001488
  0
VERTEX
  8
0
 10
0.379937
 20
0.384332
 30
0.0
 40
0.0001488
 41
0.0001488
  0
VERTEX
  8
0
 10
0.39171
 20
0.386339
 30
0.0
 40
0.0001488
 41
0.0001488
  0
VERTEX
  8
0
 10
0.403917
 20
0.390192
 30
0.0
 40
0.0001488
 41
0.0001488
  0
VERTEX
  8
0
 10
0.414551
 20
0.394965
 30
0.0
 40
0.0001488
 41
0.0001488
  0
VERTEX
  8
0
 10
0.416396
 20
0.395833
 30
0.0
 40
0.0001488
 41
0.0001488
  0
VERTEX
  8
0
 10
0.428765
 20
0.403103
 30
0.0
 40
0.0001488
 41
0.0001488
  0
VERTEX
  8
0
 10
0.44081
 20
0.411838
 30
0.0
 40
0.0001488
 41
0.0001488
  0
VERTEX
  8
0
 10
0.452149
 20
0.421821
 30
0.0
 40
0.0001488
 41
0.0001488
  0
VERTEX
  8
0
 10
0.452419
 20
0.422037
 30
0.0
 40
0.0001488
 41
0.0001488
  0
VERTEX
  8
0
 10
0.453396
 20
0.423014
 30
0.0
 40
0.0001488
 41
0.0001488
  0
VERTEX
  8
0
 10
0.478678
 20
0.447483
 30
0.0
 40
0.0001488
 41
0.0001488
  0
VERTEX
  8
0
 10
0.48904
 20
0.458387
 30
0.0
 40
0.0001488
 41
0.0001488
  0
VERTEX
  8
0
 10
0.49821
 20
0.470107
 30
0.0
 40
0.0001488
 41
0.0001488
  0
VERTEX
  8
0
 10
0.505914
 20
0.482206
 30
0.0
 40
0.0001488
 41
0.0001488
  0
VERTEX
  8
0
 10
0.506456
 20
0.483344
 30
0.0
 40
0.0001488
 41
0.0001488
  0
VERTEX
  8
0
 10
0.51199
 20
0.494521
 30
0.0
 40
0.0001488
 41
0.0001488
  0
VERTEX
  8
0
 10
0.512207
 20
0.495117
 30
0.0
 40
0.0001488
 41
0.0001488
  0
VERTEX
  8
0
 10
0.513997
 20
0.500271
 30
0.0
 40
0.0001488
 41
0.0001488
  0
VERTEX
  8
0
 10
0.515192
 20
0.503635
 30
0.0
 40
0.0001488
 41
0.0001488
  0
VERTEX
  8
0
 10
0.516276
 20
0.506619
 30
0.0
 40
0.0001488
 41
0.0001488
  0
VERTEX
  8
0
 10
0.518664
 20
0.518229
 30
0.0
 40
0.0001488
 41
0.0001488
  0
VERTEX
  8
0
 10
0.519097
 20
0.529135
 30
0.0
 40
0.0001488
 41
0.0001488
  0
VERTEX
  8
0
 10
0.517578
 20
0.539063
 30
0.0
 40
0.0001488
 41
0.0001488
  0
SEQEND
 8
0
  0
POLYLINE
  8
0
 62
     1
 66
     1
 10
0
 20
0
 30
0.0
 70
     1
 40
0.0107136
 41
0.0107136
  0
VERTEX
  8
0
 10
0.637912
 20
4.45454
 30
0.0
 40
0.0001488
 41
0.0001488
  0
VERTEX
  8
0
 10
0.639268
 20
4.43485
 30
0.0
 40
0.0001488
 41
0.0001488
  0
VERTEX
  8
0
 10
0.653049
 20
4.4005
 30
0.0
 40
0.0001488
 41
0.0001488
  0
VERTEX
  8
0
 10
0.676758
 20
4.37218
 30
0.0
 40
0.0001488
 41
0.0001488
  0
VERTEX
  8
0
 10
0.704428
 20
4.35482
 30
0.0
 40
0.0001488
 41
0.0001488
  0
VERTEX
  8
0
 10
0.708062
 20
4.35249
 30
0.0
 40
0.0001488
 41
0.0001488
  0
VERTEX
  8
0
 10
0.743924
 20
4.34347
 30
0.0
 40
0.0001488
 41
0.0001488
  0
VERTEX
  8
0
 10
0.780817
 20
4.34603
 30
0.0
 40
0.0001488
 41
0.0001488
  0
VERTEX
  8
0
 10
0.782064
 20
4.34651
 30
0.0
 40
0.0001488
 41
0.0001488
  0
VERTEX
  8
0
 10
0.815104
 20
4.35981
 30
0.0
 40
0.0001488
 41
0.0001488
  0
VERTEX
  8
0
 10
0.843479
 20
4.38351
 30
0.0
 40
0.0001488
 41
0.0001488
  0
VERTEX
  8
0
 10
0.863172
 20
4.41482
 30
0.0
 40
0.0001488
 41
0.0001488
  0
VERTEX
  8
0
 10
0.872179
 20
4.45068
 30
0.0
 40
0.0001488
 41
0.0001488
  0
VERTEX
  8
0
 10
0.871907
 20
4.45454
 30
0.0
 40
0.0001488
 41
0.0001488
  0
VERTEX
  8
0
 10
0.869629
 20
4.48757
 30
0.0
 40
0.0001488
 41
0.0001488
  0
VERTEX
  8
0
 10
0.855849
 20
4.52186
 30
0.0
 40
0.0001488
 41
0.0001488
  0
VERTEX
  8
0
 10
0.83214
 20
4.55024
 30
0.0
 40
0.0001488
 41
0.0001488
  0
VERTEX
  8
0
 10
0.800782
 20
4.56993
 30
0.0
 40
0.0001488
 41
0.0001488
  0
VERTEX
  8
0
 10
0.764974
 20
4.57894
 30
0.0
 40
0.0001488
 41
0.0001488
  0
VERTEX
  8
0
 10
0.728082
 20
4.57639
 30
0.0
 40
0.0001488
 41
0.0001488
  0
VERTEX
  8
0
 10
0.693739
 20
4.56261
 30
0.0
 40
0.0001488
 41
0.0001488
  0
VERTEX
  8
0
 10
0.665419
 20
4.5389
 30
0.0
 40
0.0001488
 41
0.0001488
  0
VERTEX
  8
0
 10
0.645725
 20
4.50754
 30
0.0
 40
0.0001488
 41
0.0001488
  0
VERTEX
  8
0
 10
0.636719
 20
4.47174
 30
0.0
 40
0.0001488
 41
0.0001488
  0
VERTEX
  8
0
 10
0.637912
 20
4.45454
 30
0.0
 40
0.0001488
 41
0.0001488
  0
SEQEND
 8
0
  0
POLYLINE
  8
0
 62
     1
 66
     1
 10
0
 20
0
 30
0.0
 70
     1
 40
0.0107136
 41
0.0107136
  0
VERTEX
  8
0
 10
0.705892
 20
4.68918
 30
0.0
 40
0.0001488
 41
0.0001488
  0
VERTEX
  8
0
 10
0.714193
 20
4.68403
 30
0.0
 40
0.0001488
 41
0.0001488
  0
VERTEX
  8
0
 10
0.718153
 20
4.68153
 30
0.0
 40
0.0001488
 41
0.0001488
  0
VERTEX
  8
0
 10
0.738172
 20
4.67654
 30
0.0
 40
0.0001488
 41
0.0001488
  0
VERTEX
  8
0
 10
0.738444
 20
4.67643
 30
0.0
 40
0.0001488
 41
0.0001488
  0
VERTEX
  8
0
 10
0.739583
 20
4.67654
 30
0.0
 40
0.0001488
 41
0.0001488
  0
VERTEX
  8
0
 10
0.759386
 20
4.6779
 30
0.0
 40
0.0001488
 41
0.0001488
  0
VERTEX
  8
0
 10
0.759765
 20
4.67806
 30
0.0
 40
0.0001488
 41
0.0001488
  0
VERTEX
  8
0
 10
0.774468
 20
4.68403
 30
0.0
 40
0.0001488
 41
0.0001488
  0
VERTEX
  8
0
 10
0.774903
 20
4.68419
 30
0.0
 40
0.0001488
 41
0.0001488
  0
VERTEX
  8
0
 10
0.778808
 20
4.68576
 30
0.0
 40
0.0001488
 41
0.0001488
  0
VERTEX
  8
0
 10
0.779135
 20
4.68604
 30
0.0
 40
0.0001488
 41
0.0001488
  0
VERTEX
  8
0
 10
0.784071
 20
4.69015
 30
0.0
 40
0.0001488
 41
0.0001488
  0
VERTEX
  8
0
 10
0.794542
 20
4.69894
 30
0.0
 40
0.0001488
 41
0.0001488
  0
VERTEX
  8
0
 10
0.794868
 20
4.69922
 30
0.0
 40
0.0001488
 41
0.0001488
  0
VERTEX
  8
0
 10
0.80599
 20
4.71701
 30
0.0
 40
0.0001488
 41
0.0001488
  0
VERTEX
  8
0
 10
0.806099
 20
4.7175
 30
0.0
 40
0.0001488
 41
0.0001488
  0
VERTEX
  8
0
 10
0.810926
 20
4.73687
 30
0.0
 40
0.0001488
 41
0.0001488
  0
VERTEX
  8
0
 10
0.811089
 20
4.73736
 30
0.0
 40
0.0001488
 41
0.0001488
  0
VERTEX
  8
0
 10
0.810926
 20
4.73904
 30
0.0
 40
0.0001488
 41
0.0001488
  0
VERTEX
  8
0
 10
0.809625
 20
4.75825
 30
0.0
 40
0.0001488
 41
0.0001488
  0
VERTEX
  8
0
 10
0.809463
 20
4.75857
 30
0.0
 40
0.0001488
 41
0.0001488
  0
VERTEX
  8
0
 10
0.802029
 20
4.77701
 30
0.0
 40
0.0001488
 41
0.0001488
  0
VERTEX
  8
0
 10
0.801758
 20
4.77772
 30
0.0
 40
0.0001488
 41
0.0001488
  0
VERTEX
  8
0
 10
0.80154
 20
4.77789
 30
0.0
 40
0.0001488
 41
0.0001488
  0
VERTEX
  8
0
 10
0.795953
 20
4.78461
 30
0.0
 40
0.0001488
 41
0.0001488
  0
VERTEX
  8
0
 10
0.788249
 20
4.79378
 30
0.0
 40
0.0001488
 41
0.0001488
  0
VERTEX
  8
0
 10
0.78814
 20
4.79383
 30
0.0
 40
0.0001488
 41
0.0001488
  0
VERTEX
  8
0
 10
0.775608
 20
4.80171
 30
0.0
 40
0.0001488
 41
0.0001488
  0
VERTEX
  8
0
 10
0.7704
 20
4.80496
 30
0.0
 40
0.0001488
 41
0.0001488
  0
VERTEX
  8
0
 10
0.750054
 20
4.81
 30
0.0
 40
0.0001488
 41
0.0001488
  0
VERTEX
  8
0
 10
0.729113
 20
4.8086
 30
0.0
 40
0.0001488
 41
0.0001488
  0
VERTEX
  8
0
 10
0.712131
 20
4.80171
 30
0.0
 40
0.0001488
 41
0.0001488
  0
VERTEX
  8
0
 10
0.70969
 20
4.80067
 30
0.0
 40
0.0001488
 41
0.0001488
  0
VERTEX
  8
0
 10
0.698676
 20
4.7915
 30
0.0
 40
0.0001488
 41
0.0001488
  0
VERTEX
  8
0
 10
0.693631
 20
4.78722
 30
0.0
 40
0.0001488
 41
0.0001488
  0
VERTEX
  8
0
 10
0.687229
 20
4.77701
 30
0.0
 40
0.0001488
 41
0.0001488
  0
VERTEX
  8
0
 10
0.684407
 20
4.77246
 30
0.0
 40
0.0001488
 41
0.0001488
  0
VERTEX
  8
0
 10
0.682508
 20
4.76947
 30
0.0
 40
0.0001488
 41
0.0001488
  0
VERTEX
  8
0
 10
0.678222
 20
4.75228
 30
0.0
 40
0.0001488
 41
0.0001488
  0
VERTEX
  8
0
 10
0.677463
 20
4.74914
 30
0.0
 40
0.0001488
 41
0.0001488
  0
VERTEX
  8
0
 10
0.678222
 20
4.73785
 30
0.0
 40
0.0001488
 41
0.0001488
  0
VERTEX
  8
0
 10
0.678657
 20
4.73172
 30
0.0
 40
0.0001488
 41
0.0001488
  0
VERTEX
  8
0
 10
0.678874
 20
4.72819
 30
0.0
 40
0.0001488
 41
0.0001488
  0
VERTEX
  8
0
 10
0.68419
 20
4.71511
 30
0.0
 40
0.0001488
 41
0.0001488
  0
VERTEX
  8
0
 10
0.686794
 20
4.70876
 30
0.0
 40
0.0001488
 41
0.0001488
  0
VERTEX
  8
0
 10
0.70025
 20
4.69271
 30
0.0
 40
0.0001488
 41
0.0001488
  0
VERTEX
  8
0
 10
0.700358
 20
4.69265
 30
0.0
 40
0.0001488
 41
0.0001488
  0
VERTEX
  8
0
 10
0.700358
 20
4.6926
 30
0.0
 40
0.0001488
 41
0.0001488
  0
VERTEX
  8
0
 10
0.705892
 20
4.68918
 30
0.0
 40
0.0001488
 41
0.0001488
  0
SEQEND
 8
0
  0
ENDSEC
  0
EOF
