  0
SECTION
  2
HEADER
  9
$ACADVER
  1
AC1009
  9
$FILLMODE
 70
 0
  9
$SPLFRAME
 70
 1
  9
$EXTMIN
 10
0
 20
0
 30
0.0
  9
$EXTMAX
 10
41.6667
 20
41.6667
 30
0.0
  0
ENDSEC
  0
SECTION
  2
TABLES
  0
TABLE
  2
LAYER
 70
1
  0
LAYER
  2
0
 70
     0
 62
     7
  6
CONTINUOUS
  0
ENDTAB
  0
ENDSEC
  0
SECTION
  2
ENTITIES
  0
POLYLINE
  8
0
 62
     254
 66
     1
 10
0
 20
0
 30
0.0
 70
     1
 40
0
 41
0
  0
VERTEX
  8
0
 10
2.08442
 20
2.30063
 30
0.0
 40
0
 41
0
  0
VERTEX
  8
0
 10
2.18582
 20
2.25103
 30
0.0
 40
0
 41
0
  0
VERTEX
  8
0
 10
2.20264
 20
2.24278
 30
0.0
 40
0
 41
0
  0
VERTEX
  8
0
 10
2.26594
 20
2.21278
 30
0.0
 40
0
 41
0
  0
VERTEX
  8
0
 10
2.33279
 20
2.1811
 30
0.0
 40
0
 41
0
  0
VERTEX
  8
0
 10
2.47065
 20
2.11774
 30
0.0
 40
0
 41
0
  0
VERTEX
  8
0
 10
2.57183
 20
2.07243
 30
0.0
 40
0
 41
0
  0
VERTEX
  8
0
 10
2.60097
 20
2.05935
 30
0.0
 40
0
 41
0
  0
VERTEX
  8
0
 10
2.61481
 20
2.05317
 30
0.0
 40
0
 41
0
  0
VERTEX
  8
0
 10
2.76394
 20
1.98807
 30
0.0
 40
0
 41
0
  0
VERTEX
  8
0
 10
2.91656
 20
1.92312
 30
0.0
 40
0
 41
0
  0
VERTEX
  8
0
 10
3.07124
 20
1.85889
 30
0.0
 40
0
 41
0
  0
VERTEX
  8
0
 10
3.0981
 20
1.84804
 30
0.0
 40
0
 41
0
  0
VERTEX
  8
0
 10
3.21685
 20
1.79997
 30
0.0
 40
0
 41
0
  0
VERTEX
  8
0
 10
3.22651
 20
1.79606
 30
0.0
 40
0
 41
0
  0
VERTEX
  8
0
 10
3.38081
 20
1.73508
 30
0.0
 40
0
 41
0
  0
VERTEX
  8
0
 10
3.53267
 20
1.67671
 30
0.0
 40
0
 41
0
  0
VERTEX
  8
0
 10
3.68061
 20
1.62142
 30
0.0
 40
0
 41
0
  0
VERTEX
  8
0
 10
3.82324
 20
1.56982
 30
0.0
 40
0
 41
0
  0
VERTEX
  8
0
 10
3.83746
 20
1.56483
 30
0.0
 40
0
 41
0
  0
VERTEX
  8
0
 10
3.86187
 20
1.55632
 30
0.0
 40
0
 41
0
  0
VERTEX
  8
0
 10
3.9509
 20
1.52522
 30
0.0
 40
0
 41
0
  0
VERTEX
  8
0
 10
3.95925
 20
1.52229
 30
0.0
 40
0
 41
0
  0
VERTEX
  8
0
 10
4.0019
 20
1.50803
 30
0.0
 40
0
 41
0
  0
VERTEX
  8
0
 10
4.08718
 20
1.47939
 30
0.0
 40
0
 41
0
  0
VERTEX
  8
0
 10
4.09912
 20
1.47558
 30
0.0
 40
0
 41
0
  0
VERTEX
  8
0
 10
4.19982
 20
1.44347
 30
0.0
 40
0
 41
0
  0
VERTEX
  8
0
 10
4.206
 20
1.44146
 30
0.0
 40
0
 41
0
  0
VERTEX
  8
0
 10
4.30675
 20
1.41124
 30
0.0
 40
0
 41
0
  0
VERTEX
  8
0
 10
4.30903
 20
1.41054
 30
0.0
 40
0
 41
0
  0
VERTEX
  8
0
 10
4.30985
 20
1.41026
 30
0.0
 40
0
 41
0
  0
VERTEX
  8
0
 10
4.31435
 20
1.40896
 30
0.0
 40
0
 41
0
  0
VERTEX
  8
0
 10
4.41129
 20
1.38211
 30
0.0
 40
0
 41
0
  0
VERTEX
  8
0
 10
4.41319
 20
1.38162
 30
0.0
 40
0
 41
0
  0
VERTEX
  8
0
 10
4.41781
 20
1.38048
 30
0.0
 40
0
 41
0
  0
VERTEX
  8
0
 10
4.43892
 20
1.37468
 30
0.0
 40
0
 41
0
  0
VERTEX
  8
0
 10
4.50694
 20
1.3584
 30
0.0
 40
0
 41
0
  0
VERTEX
  8
0
 10
4.5599
 20
1.3457
 30
0.0
 40
0
 41
0
  0
VERTEX
  8
0
 10
4.59267
 20
1.33936
 30
0.0
 40
0
 41
0
  0
VERTEX
  8
0
 10
4.74457
 20
1.30344
 30
0.0
 40
0
 41
0
  0
VERTEX
  8
0
 10
4.80296
 20
1.28966
 30
0.0
 40
0
 41
0
  0
VERTEX
  8
0
 10
4.84099
 20
1.28065
 30
0.0
 40
0
 41
0
  0
VERTEX
  8
0
 10
4.84185
 20
1.28044
 30
0.0
 40
0
 41
0
  0
VERTEX
  8
0
 10
4.87056
 20
1.27365
 30
0.0
 40
0
 41
0
  0
VERTEX
  8
0
 10
4.87315
 20
1.27306
 30
0.0
 40
0
 41
0
  0
VERTEX
  8
0
 10
4.87315
 20
1.27311
 30
0.0
 40
0
 41
0
  0
VERTEX
  8
0
 10
4.87332
 20
1.27371
 30
0.0
 40
0
 41
0
  0
VERTEX
  8
0
 10
4.87337
 20
1.27409
 30
0.0
 40
0
 41
0
  0
VERTEX
  8
0
 10
4.90218
 20
1.29525
 30
0.0
 40
0
 41
0
  0
VERTEX
  8
0
 10
4.91021
 20
1.30116
 30
0.0
 40
0
 41
0
  0
VERTEX
  8
0
 10
5.00401
 20
1.37012
 30
0.0
 40
0
 41
0
  0
VERTEX
  8
0
 10
5.32238
 20
1.24539
 30
0.0
 40
0
 41
0
  0
VERTEX
  8
0
 10
5.33501
 20
1.24045
 30
0.0
 40
0
 41
0
  0
VERTEX
  8
0
 10
5.78276
 20
1.21381
 30
0.0
 40
0
 41
0
  0
VERTEX
  8
0
 10
5.85661
 20
0.930285
 30
0.0
 40
0
 41
0
  0
VERTEX
  8
0
 10
5.87429
 20
0.862522
 30
0.0
 40
0
 41
0
  0
VERTEX
  8
0
 10
5.88069
 20
0.837999
 30
0.0
 40
0
 41
0
  0
VERTEX
  8
0
 10
5.89947
 20
0.76595
 30
0.0
 40
0
 41
0
  0
VERTEX
  8
0
 10
5.83268
 20
0.723253
 30
0.0
 40
0
 41
0
  0
VERTEX
  8
0
 10
5.8004
 20
0.702636
 30
0.0
 40
0
 41
0
  0
VERTEX
  8
0
 10
5.68381
 20
0.628039
 30
0.0
 40
0
 41
0
  0
VERTEX
  8
0
 10
5.69526
 20
0.568576
 30
0.0
 40
0
 41
0
  0
VERTEX
  8
0
 10
5.64887
 20
0.534451
 30
0.0
 40
0
 41
0
  0
VERTEX
  8
0
 10
5.68608
 20
0.391601
 30
0.0
 40
0
 41
0
  0
VERTEX
  8
0
 10
5.70068
 20
0.335504
 30
0.0
 40
0
 41
0
  0
VERTEX
  8
0
 10
5.71089
 20
0.296224
 30
0.0
 40
0
 41
0
  0
VERTEX
  8
0
 10
5.71268
 20
0.289442
 30
0.0
 40
0
 41
0
  0
VERTEX
  8
0
 10
5.56874
 20
0.197374
 30
0.0
 40
0
 41
0
  0
VERTEX
  8
0
 10
5.42264
 20
0.10395
 30
0.0
 40
0
 41
0
  0
VERTEX
  8
0
 10
5.32281
 20
0.0400933
 30
0.0
 40
0
 41
0
  0
VERTEX
  8
0
 10
5.15924
 20
0.174425
 30
0.0
 40
0
 41
0
  0
VERTEX
  8
0
 10
4.98807
 20
0.31505
 30
0.0
 40
0
 41
0
  0
VERTEX
  8
0
 10
4.64794
 20
0.448351
 30
0.0
 40
0
 41
0
  0
VERTEX
  8
0
 10
4.62315
 20
0.567925
 30
0.0
 40
0
 41
0
  0
VERTEX
  8
0
 10
4.62115
 20
0.577854
 30
0.0
 40
0
 41
0
  0
VERTEX
  8
0
 10
4.61496
 20
0.607747
 30
0.0
 40
0
 41
0
  0
VERTEX
  8
0
 10
4.61339
 20
0.615343
 30
0.0
 40
0
 41
0
  0
VERTEX
  8
0
 10
4.61225
 20
0.620714
 30
0.0
 40
0
 41
0
  0
VERTEX
  8
0
 10
4.60792
 20
0.641818
 30
0.0
 40
0
 41
0
  0
VERTEX
  8
0
 10
4.60775
 20
0.642469
 30
0.0
 40
0
 41
0
  0
VERTEX
  8
0
 10
4.60678
 20
0.642253
 30
0.0
 40
0
 41
0
  0
VERTEX
  8
0
 10
4.60672
 20
0.642253
 30
0.0
 40
0
 41
0
  0
VERTEX
  8
0
 10
4.45426
 20
0.702636
 30
0.0
 40
0
 41
0
  0
VERTEX
  8
0
 10
4.41922
 20
0.716471
 30
0.0
 40
0
 41
0
  0
VERTEX
  8
0
 10
4.39415
 20
0.7264
 30
0.0
 40
0
 41
0
  0
VERTEX
  8
0
 10
4.29411
 20
0.766004
 30
0.0
 40
0
 41
0
  0
VERTEX
  8
0
 10
4.27175
 20
0.774849
 30
0.0
 40
0
 41
0
  0
VERTEX
  8
0
 10
4.22412
 20
0.793728
 30
0.0
 40
0
 41
0
  0
VERTEX
  8
0
 10
4.2149
 20
0.797364
 30
0.0
 40
0
 41
0
  0
VERTEX
  8
0
 10
4.20372
 20
0.801812
 30
0.0
 40
0
 41
0
  0
VERTEX
  8
0
 10
4.1844
 20
0.809463
 30
0.0
 40
0
 41
0
  0
VERTEX
  8
0
 10
3.9975
 20
0.88341
 30
0.0
 40
0
 41
0
  0
VERTEX
  8
0
 10
3.98822
 20
0.887099
 30
0.0
 40
0
 41
0
  0
VERTEX
  8
0
 10
3.97601
 20
0.892307
 30
0.0
 40
0
 41
0
  0
VERTEX
  8
0
 10
3.91254
 20
0.919488
 30
0.0
 40
0
 41
0
  0
VERTEX
  8
0
 10
3.90489
 20
0.922743
 30
0.0
 40
0
 41
0
  0
VERTEX
  8
0
 10
3.86187
 20
0.940972
 30
0.0
 40
0
 41
0
  0
VERTEX
  8
0
 10
3.78733
 20
0.972657
 30
0.0
 40
0
 41
0
  0
VERTEX
  8
0
 10
3.65522
 20
1.02837
 30
0.0
 40
0
 41
0
  0
VERTEX
  8
0
 10
3.62294
 20
1.04183
 30
0.0
 40
0
 41
0
  0
VERTEX
  8
0
 10
3.51747
 20
1.08599
 30
0.0
 40
0
 41
0
  0
VERTEX
  8
0
 10
3.37549
 20
1.14507
 30
0.0
 40
0
 41
0
  0
VERTEX
  8
0
 10
3.23058
 20
1.20508
 30
0.0
 40
0
 41
0
  0
VERTEX
  8
0
 10
3.21685
 20
1.21067
 30
0.0
 40
0
 41
0
  0
VERTEX
  8
0
 10
3.08404
 20
1.26535
 30
0.0
 40
0
 41
0
  0
VERTEX
  8
0
 10
2.9375
 20
1.3253
 30
0.0
 40
0
 41
0
  0
VERTEX
  8
0
 10
2.79215
 20
1.38433
 30
0.0
 40
0
 41
0
  0
VERTEX
  8
0
 10
2.64958
 20
1.442
 30
0.0
 40
0
 41
0
  0
VERTEX
  8
0
 10
2.57183
 20
1.47319
 30
0.0
 40
0
 41
0
  0
VERTEX
  8
0
 10
2.51101
 20
1.49767
 30
0.0
 40
0
 41
0
  0
VERTEX
  8
0
 10
2.39035
 20
1.54579
 30
0.0
 40
0
 41
0
  0
VERTEX
  8
0
 10
2.37788
 20
1.55078
 30
0.0
 40
0
 41
0
  0
VERTEX
  8
0
 10
2.25142
 20
1.60086
 30
0.0
 40
0
 41
0
  0
VERTEX
  8
0
 10
2.13282
 20
1.6474
 30
0.0
 40
0
 41
0
  0
VERTEX
  8
0
 10
2.02333
 20
1.69
 30
0.0
 40
0
 41
0
  0
VERTEX
  8
0
 10
1.92676
 20
1.72706
 30
0.0
 40
0
 41
0
  0
VERTEX
  8
0
 10
1.92389
 20
1.72814
 30
0.0
 40
0
 41
0
  0
VERTEX
  8
0
 10
1.8355
 20
1.76161
 30
0.0
 40
0
 41
0
  0
VERTEX
  8
0
 10
1.759
 20
1.78999
 30
0.0
 40
0
 41
0
  0
VERTEX
  8
0
 10
1.69521
 20
1.81299
 30
0.0
 40
0
 41
0
  0
VERTEX
  8
0
 10
1.67817
 20
1.8189
 30
0.0
 40
0
 41
0
  0
VERTEX
  8
0
 10
1.66672
 20
1.8234
 30
0.0
 40
0
 41
0
  0
VERTEX
  8
0
 10
1.64094
 20
1.83361
 30
0.0
 40
0
 41
0
  0
VERTEX
  8
0
 10
1.60449
 20
1.84804
 30
0.0
 40
0
 41
0
  0
VERTEX
  8
0
 10
1.57661
 20
1.85906
 30
0.0
 40
0
 41
0
  0
VERTEX
  8
0
 10
1.53
 20
1.8775
 30
0.0
 40
0
 41
0
  0
VERTEX
  8
0
 10
1.36388
 20
1.94331
 30
0.0
 40
0
 41
0
  0
VERTEX
  8
0
 10
1.30496
 20
1.96658
 30
0.0
 40
0
 41
0
  0
VERTEX
  8
0
 10
1.28174
 20
1.96403
 30
0.0
 40
0
 41
0
  0
VERTEX
  8
0
 10
1.27794
 20
1.9636
 30
0.0
 40
0
 41
0
  0
VERTEX
  8
0
 10
1.27555
 20
1.96332
 30
0.0
 40
0
 41
0
  0
VERTEX
  8
0
 10
1.26796
 20
1.96251
 30
0.0
 40
0
 41
0
  0
VERTEX
  8
0
 10
1.25483
 20
1.96104
 30
0.0
 40
0
 41
0
  0
VERTEX
  8
0
 10
1.24072
 20
1.95953
 30
0.0
 40
0
 41
0
  0
VERTEX
  8
0
 10
1.13525
 20
1.95074
 30
0.0
 40
0
 41
0
  0
VERTEX
  8
0
 10
1.03418
 20
1.94532
 30
0.0
 40
0
 41
0
  0
VERTEX
  8
0
 10
0.938585
 20
1.94331
 30
0.0
 40
0
 41
0
  0
VERTEX
  8
0
 10
0.849338
 20
1.94472
 30
0.0
 40
0
 41
0
  0
VERTEX
  8
0
 10
0.767307
 20
1.9496
 30
0.0
 40
0
 41
0
  0
VERTEX
  8
0
 10
0.69336
 20
1.9579
 30
0.0
 40
0
 41
0
  0
VERTEX
  8
0
 10
0.636719
 20
1.96789
 30
0.0
 40
0
 41
0
  0
VERTEX
  8
0
 10
0.628093
 20
1.9694
 30
0.0
 40
0
 41
0
  0
VERTEX
  8
0
 10
0.572211
 20
1.98415
 30
0.0
 40
0
 41
0
  0
VERTEX
  8
0
 10
0.548122
 20
1.99343
 30
0.0
 40
0
 41
0
  0
VERTEX
  8
0
 10
0.526204
 20
2.00196
 30
0.0
 40
0
 41
0
  0
VERTEX
  8
0
 10
0.490614
 20
2.02262
 30
0.0
 40
0
 41
0
  0
VERTEX
  8
0
 10
0.465603
 20
2.04596
 30
0.0
 40
0
 41
0
  0
VERTEX
  8
0
 10
0.451551
 20
2.07172
 30
0.0
 40
0
 41
0
  0
VERTEX
  8
0
 10
0.448568
 20
2.09978
 30
0.0
 40
0
 41
0
  0
VERTEX
  8
0
 10
0.456706
 20
2.12972
 30
0.0
 40
0
 41
0
  0
VERTEX
  8
0
 10
0.475803
 20
2.16129
 30
0.0
 40
0
 41
0
  0
VERTEX
  8
0
 10
0.505806
 20
2.19417
 30
0.0
 40
0
 41
0
  0
VERTEX
  8
0
 10
0.527994
 20
2.21278
 30
0.0
 40
0
 41
0
  0
VERTEX
  8
0
 10
0.546278
 20
2.22814
 30
0.0
 40
0
 41
0
  0
VERTEX
  8
0
 10
0.551921
 20
2.23193
 30
0.0
 40
0
 41
0
  0
VERTEX
  8
0
 10
0.596951
 20
2.26275
 30
0.0
 40
0
 41
0
  0
VERTEX
  8
0
 10
0.597765
 20
2.26324
 30
0.0
 40
0
 41
0
  0
VERTEX
  8
0
 10
0.624838
 20
2.27897
 30
0.0
 40
0
 41
0
  0
VERTEX
  8
0
 10
0.636719
 20
2.28586
 30
0.0
 40
0
 41
0
  0
VERTEX
  8
0
 10
0.651367
 20
2.29438
 30
0.0
 40
0
 41
0
  0
VERTEX
  8
0
 10
0.657226
 20
2.29775
 30
0.0
 40
0
 41
0
  0
VERTEX
  8
0
 10
0.691351
 20
2.315
 30
0.0
 40
0
 41
0
  0
VERTEX
  8
0
 10
0.689615
 20
2.31629
 30
0.0
 40
0
 41
0
  0
VERTEX
  8
0
 10
0.684787
 20
2.31982
 30
0.0
 40
0
 41
0
  0
VERTEX
  8
0
 10
0.677246
 20
2.32536
 30
0.0
 40
0
 41
0
  0
VERTEX
  8
0
 10
0.66721
 20
2.33274
 30
0.0
 40
0
 41
0
  0
VERTEX
  8
0
 10
0.636719
 20
2.35514
 30
0.0
 40
0
 41
0
  0
VERTEX
  8
0
 10
0.236762
 20
2.64899
 30
0.0
 40
0
 41
0
  0
VERTEX
  8
0
 10
0.236654
 20
2.64903
 30
0.0
 40
0
 41
0
  0
VERTEX
  8
0
 10
0.225586
 20
2.65717
 30
0.0
 40
0
 41
0
  0
VERTEX
  8
0
 10
0.0818143
 20
2.76281
 30
0.0
 40
0
 41
0
  0
VERTEX
  8
0
 10
0.0810547
 20
2.76329
 30
0.0
 40
0
 41
0
  0
VERTEX
  8
0
 10
0.0756836
 20
2.76758
 30
0.0
 40
0
 41
0
  0
VERTEX
  8
0
 10
0.0529514
 20
2.78554
 30
0.0
 40
0
 41
0
  0
VERTEX
  8
0
 10
0.0439996
 20
2.79258
 30
0.0
 40
0
 41
0
  0
VERTEX
  8
0
 10
0.04324
 20
2.79318
 30
0.0
 40
0
 41
0
  0
VERTEX
  8
0
 10
0.0393881
 20
2.79318
 30
0.0
 40
0
 41
0
  0
VERTEX
  8
0
 10
0.0393881
 20
3.37728
 30
0.0
 40
0
 41
0
  0
VERTEX
  8
0
 10
0.643881
 20
3.37728
 30
0.0
 40
0
 41
0
  0
VERTEX
  8
0
 10
0.643881
 20
3.29394
 30
0.0
 40
0
 41
0
  0
VERTEX
  8
0
 10
0.647949
 20
3.28842
 30
0.0
 40
0
 41
0
  0
VERTEX
  8
0
 10
0.685981
 20
3.23742
 30
0.0
 40
0
 41
0
  0
VERTEX
  8
0
 10
0.698893
 20
3.22
 30
0.0
 40
0
 41
0
  0
VERTEX
  8
0
 10
0.783854
 20
3.12565
 30
0.0
 40
0
 41
0
  0
VERTEX
  8
0
 10
0.832519
 20
3.07949
 30
0.0
 40
0
 41
0
  0
VERTEX
  8
0
 10
0.838596
 20
3.07379
 30
0.0
 40
0
 41
0
  0
VERTEX
  8
0
 10
0.841146
 20
3.07107
 30
0.0
 40
0
 41
0
  0
VERTEX
  8
0
 10
0.848958
 20
3.06392
 30
0.0
 40
0
 41
0
  0
VERTEX
  8
0
 10
0.883464
 20
3.03125
 30
0.0
 40
0
 41
0
  0
VERTEX
  8
0
 10
0.897081
 20
3.01997
 30
0.0
 40
0
 41
0
  0
VERTEX
  8
0
 10
0.91314
 20
3.00532
 30
0.0
 40
0
 41
0
  0
VERTEX
  8
0
 10
0.959201
 20
2.96761
 30
0.0
 40
0
 41
0
  0
VERTEX
  8
0
 10
0.987468
 20
2.9445
 30
0.0
 40
0
 41
0
  0
VERTEX
  8
0
 10
0.998264
 20
2.93565
 30
0.0
 40
0
 41
0
  0
VERTEX
  8
0
 10
1.00472
 20
2.93083
 30
0.0
 40
0
 41
0
  0
VERTEX
  8
0
 10
1.04216
 20
2.90294
 30
0.0
 40
0
 41
0
  0
VERTEX
  8
0
 10
1.07596
 20
2.87765
 30
0.0
 40
0
 41
0
  0
VERTEX
  8
0
 10
1.08941
 20
2.86762
 30
0.0
 40
0
 41
0
  0
VERTEX
  8
0
 10
1.09576
 20
2.8629
 30
0.0
 40
0
 41
0
  0
VERTEX
  8
0
 10
1.10303
 20
2.85786
 30
0.0
 40
0
 41
0
  0
VERTEX
  8
0
 10
1.10927
 20
2.85357
 30
0.0
 40
0
 41
0
  0
VERTEX
  8
0
 10
1.1422
 20
2.83074
 30
0.0
 40
0
 41
0
  0
VERTEX
  8
0
 10
1.17177
 20
2.81028
 30
0.0
 40
0
 41
0
  0
VERTEX
  8
0
 10
1.19108
 20
2.79693
 30
0.0
 40
0
 41
0
  0
VERTEX
  8
0
 10
1.19569
 20
2.79378
 30
0.0
 40
0
 41
0
  0
VERTEX
  8
0
 10
1.20459
 20
2.7876
 30
0.0
 40
0
 41
0
  0
VERTEX
  8
0
 10
1.21072
 20
2.78364
 30
0.0
 40
0
 41
0
  0
VERTEX
  8
0
 10
1.28174
 20
2.73774
 30
0.0
 40
0
 41
0
  0
VERTEX
  8
0
 10
1.32378
 20
2.71056
 30
0.0
 40
0
 41
0
  0
VERTEX
  8
0
 10
1.34315
 20
2.69879
 30
0.0
 40
0
 41
0
  0
VERTEX
  8
0
 10
1.40429
 20
2.66157
 30
0.0
 40
0
 41
0
  0
VERTEX
  8
0
 10
1.41385
 20
2.65576
 30
0.0
 40
0
 41
0
  0
VERTEX
  8
0
 10
1.45215
 20
2.63249
 30
0.0
 40
0
 41
0
  0
VERTEX
  8
0
 10
1.58328
 20
2.55718
 30
0.0
 40
0
 41
0
  0
VERTEX
  8
0
 10
1.58849
 20
2.55419
 30
0.0
 40
0
 41
0
  0
VERTEX
  8
0
 10
1.73144
 20
2.47635
 30
0.0
 40
0
 41
0
  0
VERTEX
  8
0
 10
1.79189
 20
2.4451
 30
0.0
 40
0
 41
0
  0
VERTEX
  8
0
 10
1.87967
 20
2.39974
 30
0.0
 40
0
 41
0
  0
VERTEX
  8
0
 10
1.91781
 20
2.38103
 30
0.0
 40
0
 41
0
  0
VERTEX
  8
0
 10
1.92676
 20
2.37663
 30
0.0
 40
0
 41
0
  0
VERTEX
  8
0
 10
2.03179
 20
2.32514
 30
0.0
 40
0
 41
0
  0
VERTEX
  8
0
 10
2.08442
 20
2.30063
 30
0.0
 40
0
 41
0
  0
SEQEND
 8
0
  0
POLYLINE
  8
0
 62
     254
 66
     1
 10
0
 20
0
 30
0.0
 70
     1
 40
0
 41
0
  0
VERTEX
  8
0
 10
0.705296
 20
2.08718
 30
0.0
 40
0
 41
0
  0
VERTEX
  8
0
 10
0.705838
 20
2.09597
 30
0.0
 40
0
 41
0
  0
VERTEX
  8
0
 10
0.70535
 20
2.10482
 30
0.0
 40
0
 41
0
  0
VERTEX
  8
0
 10
0.703939
 20
2.11356
 30
0.0
 40
0
 41
0
  0
VERTEX
  8
0
 10
0.701551
 20
2.12207
 30
0.0
 40
0
 41
0
  0
VERTEX
  8
0
 10
0.698188
 20
2.13026
 30
0.0
 40
0
 41
0
  0
VERTEX
  8
0
 10
0.697157
 20
2.13217
 30
0.0
 40
0
 41
0
  0
VERTEX
  8
0
 10
0.693956
 20
2.13803
 30
0.0
 40
0
 41
0
  0
VERTEX
  8
0
 10
0.688857
 20
2.14524
 30
0.0
 40
0
 41
0
  0
VERTEX
  8
0
 10
0.683051
 20
2.15186
 30
0.0
 40
0
 41
0
  0
VERTEX
  8
0
 10
0.676432
 20
2.15782
 30
0.0
 40
0
 41
0
  0
VERTEX
  8
0
 10
0.669271
 20
2.16297
 30
0.0
 40
0
 41
0
  0
VERTEX
  8
0
 10
0.661567
 20
2.16726
 30
0.0
 40
0
 41
0
  0
VERTEX
  8
0
 10
0.653429
 20
2.17068
 30
0.0
 40
0
 41
0
  0
VERTEX
  8
0
 10
0.644911
 20
2.17318
 30
0.0
 40
0
 41
0
  0
VERTEX
  8
0
 10
0.636719
 20
2.17464
 30
0.0
 40
0
 41
0
  0
VERTEX
  8
0
 10
0.636231
 20
2.17469
 30
0.0
 40
0
 41
0
  0
VERTEX
  8
0
 10
0.627388
 20
2.17524
 30
0.0
 40
0
 41
0
  0
VERTEX
  8
0
 10
0.618599
 20
2.17481
 30
0.0
 40
0
 41
0
  0
VERTEX
  8
0
 10
0.609864
 20
2.17333
 30
0.0
 40
0
 41
0
  0
VERTEX
  8
0
 10
0.601346
 20
2.17096
 30
0.0
 40
0
 41
0
  0
VERTEX
  8
0
 10
0.593153
 20
2.16758
 30
0.0
 40
0
 41
0
  0
VERTEX
  8
0
 10
0.585394
 20
2.16342
 30
0.0
 40
0
 41
0
  0
VERTEX
  8
0
 10
0.578125
 20
2.15831
 30
0.0
 40
0
 41
0
  0
VERTEX
  8
0
 10
0.57156
 20
2.15246
 30
0.0
 40
0
 41
0
  0
VERTEX
  8
0
 10
0.565593
 20
2.14589
 30
0.0
 40
0
 41
0
  0
VERTEX
  8
0
 10
0.560439
 20
2.13872
 30
0.0
 40
0
 41
0
  0
VERTEX
  8
0
 10
0.556803
 20
2.13217
 30
0.0
 40
0
 41
0
  0
VERTEX
  8
0
 10
0.556153
 20
2.13103
 30
0.0
 40
0
 41
0
  0
VERTEX
  8
0
 10
0.552735
 20
2.12283
 30
0.0
 40
0
 41
0
  0
VERTEX
  8
0
 10
0.550185
 20
2.11436
 30
0.0
 40
0
 41
0
  0
VERTEX
  8
0
 10
0.548719
 20
2.10562
 30
0.0
 40
0
 41
0
  0
VERTEX
  8
0
 10
0.548122
 20
2.09685
 30
0.0
 40
0
 41
0
  0
VERTEX
  8
0
 10
0.548557
 20
2.088
 30
0.0
 40
0
 41
0
  0
VERTEX
  8
0
 10
0.550022
 20
2.07926
 30
0.0
 40
0
 41
0
  0
VERTEX
  8
0
 10
0.552463
 20
2.07075
 30
0.0
 40
0
 41
0
  0
VERTEX
  8
0
 10
0.555772
 20
2.06256
 30
0.0
 40
0
 41
0
  0
VERTEX
  8
0
 10
0.560004
 20
2.05479
 30
0.0
 40
0
 41
0
  0
VERTEX
  8
0
 10
0.562283
 20
2.05154
 30
0.0
 40
0
 41
0
  0
VERTEX
  8
0
 10
0.565104
 20
2.04758
 30
0.0
 40
0
 41
0
  0
VERTEX
  8
0
 10
0.570964
 20
2.04096
 30
0.0
 40
0
 41
0
  0
VERTEX
  8
0
 10
0.577528
 20
2.03504
 30
0.0
 40
0
 41
0
  0
VERTEX
  8
0
 10
0.58469
 20
2.02989
 30
0.0
 40
0
 41
0
  0
VERTEX
  8
0
 10
0.592393
 20
2.02556
 30
0.0
 40
0
 41
0
  0
VERTEX
  8
0
 10
0.600532
 20
2.02214
 30
0.0
 40
0
 41
0
  0
VERTEX
  8
0
 10
0.60905
 20
2.01964
 30
0.0
 40
0
 41
0
  0
VERTEX
  8
0
 10
0.617731
 20
2.01812
 30
0.0
 40
0
 41
0
  0
VERTEX
  8
0
 10
0.626574
 20
2.01758
 30
0.0
 40
0
 41
0
  0
VERTEX
  8
0
 10
0.635417
 20
2.01807
 30
0.0
 40
0
 41
0
  0
VERTEX
  8
0
 10
0.636719
 20
2.01824
 30
0.0
 40
0
 41
0
  0
VERTEX
  8
0
 10
0.644151
 20
2.01947
 30
0.0
 40
0
 41
0
  0
VERTEX
  8
0
 10
0.652615
 20
2.02186
 30
0.0
 40
0
 41
0
  0
VERTEX
  8
0
 10
0.660807
 20
2.02522
 30
0.0
 40
0
 41
0
  0
VERTEX
  8
0
 10
0.668565
 20
2.02946
 30
0.0
 40
0
 41
0
  0
VERTEX
  8
0
 10
0.675836
 20
2.03456
 30
0.0
 40
0
 41
0
  0
VERTEX
  8
0
 10
0.682454
 20
2.04036
 30
0.0
 40
0
 41
0
  0
VERTEX
  8
0
 10
0.688368
 20
2.04693
 30
0.0
 40
0
 41
0
  0
VERTEX
  8
0
 10
0.691678
 20
2.05154
 30
0.0
 40
0
 41
0
  0
VERTEX
  8
0
 10
0.693522
 20
2.0541
 30
0.0
 40
0
 41
0
  0
VERTEX
  8
0
 10
0.697808
 20
2.06185
 30
0.0
 40
0
 41
0
  0
VERTEX
  8
0
 10
0.701281
 20
2.06999
 30
0.0
 40
0
 41
0
  0
VERTEX
  8
0
 10
0.703722
 20
2.0785
 30
0.0
 40
0
 41
0
  0
VERTEX
  8
0
 10
0.705296
 20
2.08718
 30
0.0
 40
0
 41
0
  0
SEQEND
 8
0
  0
POLYLINE
  8
0
 62
     254
 66
     1
 10
0
 20
0
 30
0.0
 70
     1
 40
0
 41
0
  0
VERTEX
  8
0
 10
0.397732
 20
2.90354
 30
0.0
 40
0
 41
0
  0
VERTEX
  8
0
 10
0.405871
 20
2.90007
 30
0.0
 40
0
 41
0
  0
VERTEX
  8
0
 10
0.414333
 20
2.89762
 30
0.0
 40
0
 41
0
  0
VERTEX
  8
0
 10
0.423014
 20
2.89606
 30
0.0
 40
0
 41
0
  0
VERTEX
  8
0
 10
0.431913
 20
2.89551
 30
0.0
 40
0
 41
0
  0
VERTEX
  8
0
 10
0.440701
 20
2.896
 30
0.0
 40
0
 41
0
  0
VERTEX
  8
0
 10
0.449436
 20
2.8974
 30
0.0
 40
0
 41
0
  0
VERTEX
  8
0
 10
0.4579
 20
2.89979
 30
0.0
 40
0
 41
0
  0
VERTEX
  8
0
 10
0.466092
 20
2.90315
 30
0.0
 40
0
 41
0
  0
VERTEX
  8
0
 10
0.473904
 20
2.90739
 30
0.0
 40
0
 41
0
  0
VERTEX
  8
0
 10
0.475424
 20
2.90847
 30
0.0
 40
0
 41
0
  0
VERTEX
  8
0
 10
0.481119
 20
2.91249
 30
0.0
 40
0
 41
0
  0
VERTEX
  8
0
 10
0.487739
 20
2.91829
 30
0.0
 40
0
 41
0
  0
VERTEX
  8
0
 10
0.493653
 20
2.92492
 30
0.0
 40
0
 41
0
  0
VERTEX
  8
0
 10
0.498807
 20
2.93207
 30
0.0
 40
0
 41
0
  0
VERTEX
  8
0
 10
0.502442
 20
2.93847
 30
0.0
 40
0
 41
0
  0
VERTEX
  8
0
 10
0.503147
 20
2.93978
 30
0.0
 40
0
 41
0
  0
VERTEX
  8
0
 10
0.506565
 20
2.94792
 30
0.0
 40
0
 41
0
  0
VERTEX
  8
0
 10
0.50906
 20
2.95643
 30
0.0
 40
0
 41
0
  0
VERTEX
  8
0
 10
0.510579
 20
2.96511
 30
0.0
 40
0
 41
0
  0
VERTEX
  8
0
 10
0.511122
 20
2.97396
 30
0.0
 40
0
 41
0
  0
VERTEX
  8
0
 10
0.510688
 20
2.98275
 30
0.0
 40
0
 41
0
  0
VERTEX
  8
0
 10
0.509278
 20
2.99149
 30
0.0
 40
0
 41
0
  0
VERTEX
  8
0
 10
0.506836
 20
3
 30
0.0
 40
0
 41
0
  0
VERTEX
  8
0
 10
0.503526
 20
3.00819
 30
0.0
 40
0
 41
0
  0
VERTEX
  8
0
 10
0.49924
 20
3.01594
 30
0.0
 40
0
 41
0
  0
VERTEX
  8
0
 10
0.497071
 20
3.0191
 30
0.0
 40
0
 41
0
  0
VERTEX
  8
0
 10
0.494194
 20
3.02322
 30
0.0
 40
0
 41
0
  0
VERTEX
  8
0
 10
0.488282
 20
3.02983
 30
0.0
 40
0
 41
0
  0
VERTEX
  8
0
 10
0.481771
 20
3.03575
 30
0.0
 40
0
 41
0
  0
VERTEX
  8
0
 10
0.475424
 20
3.04031
 30
0.0
 40
0
 41
0
  0
VERTEX
  8
0
 10
0.474556
 20
3.0409
 30
0.0
 40
0
 41
0
  0
VERTEX
  8
0
 10
0.466851
 20
3.04519
 30
0.0
 40
0
 41
0
  0
VERTEX
  8
0
 10
0.458713
 20
3.04861
 30
0.0
 40
0
 41
0
  0
VERTEX
  8
0
 10
0.45025
 20
3.05117
 30
0.0
 40
0
 41
0
  0
VERTEX
  8
0
 10
0.441515
 20
3.05263
 30
0.0
 40
0
 41
0
  0
VERTEX
  8
0
 10
0.432671
 20
3.05322
 30
0.0
 40
0
 41
0
  0
VERTEX
  8
0
 10
0.423882
 20
3.05279
 30
0.0
 40
0
 41
0
  0
VERTEX
  8
0
 10
0.415147
 20
3.05132
 30
0.0
 40
0
 41
0
  0
VERTEX
  8
0
 10
0.406629
 20
3.04893
 30
0.0
 40
0
 41
0
  0
VERTEX
  8
0
 10
0.398492
 20
3.04557
 30
0.0
 40
0
 41
0
  0
VERTEX
  8
0
 10
0.394803
 20
3.04357
 30
0.0
 40
0
 41
0
  0
VERTEX
  8
0
 10
0.390733
 20
3.04135
 30
0.0
 40
0
 41
0
  0
VERTEX
  8
0
 10
0.383464
 20
3.03629
 30
0.0
 40
0
 41
0
  0
VERTEX
  8
0
 10
0.37679
 20
3.03039
 30
0.0
 40
0
 41
0
  0
VERTEX
  8
0
 10
0.370931
 20
3.02382
 30
0.0
 40
0
 41
0
  0
VERTEX
  8
0
 10
0.367512
 20
3.0191
 30
0.0
 40
0
 41
0
  0
VERTEX
  8
0
 10
0.365722
 20
3.01665
 30
0.0
 40
0
 41
0
  0
VERTEX
  8
0
 10
0.361436
 20
3.00896
 30
0.0
 40
0
 41
0
  0
VERTEX
  8
0
 10
0.358018
 20
3.00082
 30
0.0
 40
0
 41
0
  0
VERTEX
  8
0
 10
0.355524
 20
2.99229
 30
0.0
 40
0
 41
0
  0
VERTEX
  8
0
 10
0.354004
 20
2.98361
 30
0.0
 40
0
 41
0
  0
VERTEX
  8
0
 10
0.353461
 20
2.97478
 30
0.0
 40
0
 41
0
  0
VERTEX
  8
0
 10
0.353896
 20
2.96599
 30
0.0
 40
0
 41
0
  0
VERTEX
  8
0
 10
0.355306
 20
2.95719
 30
0.0
 40
0
 41
0
  0
VERTEX
  8
0
 10
0.357693
 20
2.94874
 30
0.0
 40
0
 41
0
  0
VERTEX
  8
0
 10
0.361057
 20
2.94054
 30
0.0
 40
0
 41
0
  0
VERTEX
  8
0
 10
0.362196
 20
2.93847
 30
0.0
 40
0
 41
0
  0
VERTEX
  8
0
 10
0.365289
 20
2.93278
 30
0.0
 40
0
 41
0
  0
VERTEX
  8
0
 10
0.370389
 20
2.92551
 30
0.0
 40
0
 41
0
  0
VERTEX
  8
0
 10
0.376247
 20
2.91889
 30
0.0
 40
0
 41
0
  0
VERTEX
  8
0
 10
0.382813
 20
2.91303
 30
0.0
 40
0
 41
0
  0
VERTEX
  8
0
 10
0.389974
 20
2.90782
 30
0.0
 40
0
 41
0
  0
VERTEX
  8
0
 10
0.394803
 20
2.90517
 30
0.0
 40
0
 41
0
  0
VERTEX
  8
0
 10
0.397732
 20
2.90354
 30
0.0
 40
0
 41
0
  0
SEQEND
 8
0
  0
POLYLINE
  8
0
 62
     254
 66
     1
 10
0
 20
0
 30
0.0
 70
     1
 40
0
 41
0
  0
VERTEX
  8
0
 10
0.545574
 20
2.68842
 30
0.0
 40
0
 41
0
  0
VERTEX
  8
0
 10
0.555447
 20
2.67958
 30
0.0
 40
0
 41
0
  0
VERTEX
  8
0
 10
0.566189
 20
2.67188
 30
0.0
 40
0
 41
0
  0
VERTEX
  8
0
 10
0.577746
 20
2.66536
 30
0.0
 40
0
 41
0
  0
VERTEX
  8
0
 10
0.590007
 20
2.66026
 30
0.0
 40
0
 41
0
  0
VERTEX
  8
0
 10
0.602701
 20
2.65653
 30
0.0
 40
0
 41
0
  0
VERTEX
  8
0
 10
0.615722
 20
2.65424
 30
0.0
 40
0
 41
0
  0
VERTEX
  8
0
 10
0.628961
 20
2.65338
 30
0.0
 40
0
 41
0
  0
VERTEX
  8
0
 10
0.636719
 20
2.65381
 30
0.0
 40
0
 41
0
  0
VERTEX
  8
0
 10
0.642253
 20
2.65408
 30
0.0
 40
0
 41
0
  0
VERTEX
  8
0
 10
0.655328
 20
2.65625
 30
0.0
 40
0
 41
0
  0
VERTEX
  8
0
 10
0.668078
 20
2.65983
 30
0.0
 40
0
 41
0
  0
VERTEX
  8
0
 10
0.680339
 20
2.66482
 30
0.0
 40
0
 41
0
  0
VERTEX
  8
0
 10
0.691949
 20
2.67117
 30
0.0
 40
0
 41
0
  0
VERTEX
  8
0
 10
0.702854
 20
2.67882
 30
0.0
 40
0
 41
0
  0
VERTEX
  8
0
 10
0.712782
 20
2.68756
 30
0.0
 40
0
 41
0
  0
VERTEX
  8
0
 10
0.720921
 20
2.69661
 30
0.0
 40
0
 41
0
  0
VERTEX
  8
0
 10
0.721679
 20
2.69743
 30
0.0
 40
0
 41
0
  0
VERTEX
  8
0
 10
0.729383
 20
2.70822
 30
0.0
 40
0
 41
0
  0
VERTEX
  8
0
 10
0.73584
 20
2.71978
 30
0.0
 40
0
 41
0
  0
VERTEX
  8
0
 10
0.740994
 20
2.73199
 30
0.0
 40
0
 41
0
  0
VERTEX
  8
0
 10
0.744738
 20
2.74468
 30
0.0
 40
0
 41
0
  0
VERTEX
  8
0
 10
0.747017
 20
2.75776
 30
0.0
 40
0
 41
0
  0
VERTEX
  8
0
 10
0.747831
 20
2.771
 30
0.0
 40
0
 41
0
  0
VERTEX
  8
0
 10
0.747504
 20
2.77724
 30
0.0
 40
0
 41
0
  0
VERTEX
  8
0
 10
0.747125
 20
2.78424
 30
0.0
 40
0
 41
0
  0
VERTEX
  8
0
 10
0.745008
 20
2.79731
 30
0.0
 40
0
 41
0
  0
VERTEX
  8
0
 10
0.741374
 20
2.81006
 30
0.0
 40
0
 41
0
  0
VERTEX
  8
0
 10
0.736382
 20
2.82232
 30
0.0
 40
0
 41
0
  0
VERTEX
  8
0
 10
0.730035
 20
2.83399
 30
0.0
 40
0
 41
0
  0
VERTEX
  8
0
 10
0.722385
 20
2.84483
 30
0.0
 40
0
 41
0
  0
VERTEX
  8
0
 10
0.713596
 20
2.85476
 30
0.0
 40
0
 41
0
  0
VERTEX
  8
0
 10
0.710178
 20
2.85786
 30
0.0
 40
0
 41
0
  0
VERTEX
  8
0
 10
0.703776
 20
2.86367
 30
0.0
 40
0
 41
0
  0
VERTEX
  8
0
 10
0.693033
 20
2.87136
 30
0.0
 40
0
 41
0
  0
VERTEX
  8
0
 10
0.681478
 20
2.87782
 30
0.0
 40
0
 41
0
  0
VERTEX
  8
0
 10
0.669271
 20
2.88297
 30
0.0
 40
0
 41
0
  0
VERTEX
  8
0
 10
0.656521
 20
2.88672
 30
0.0
 40
0
 41
0
  0
VERTEX
  8
0
 10
0.643446
 20
2.889
 30
0.0
 40
0
 41
0
  0
VERTEX
  8
0
 10
0.630262
 20
2.88981
 30
0.0
 40
0
 41
0
  0
VERTEX
  8
0
 10
0.617025
 20
2.88917
 30
0.0
 40
0
 41
0
  0
VERTEX
  8
0
 10
0.603896
 20
2.88699
 30
0.0
 40
0
 41
0
  0
VERTEX
  8
0
 10
0.591146
 20
2.8834
 30
0.0
 40
0
 41
0
  0
VERTEX
  8
0
 10
0.578885
 20
2.87836
 30
0.0
 40
0
 41
0
  0
VERTEX
  8
0
 10
0.567219
 20
2.87201
 30
0.0
 40
0
 41
0
  0
VERTEX
  8
0
 10
0.556369
 20
2.86442
 30
0.0
 40
0
 41
0
  0
VERTEX
  8
0
 10
0.548936
 20
2.85786
 30
0.0
 40
0
 41
0
  0
VERTEX
  8
0
 10
0.546442
 20
2.85562
 30
0.0
 40
0
 41
0
  0
VERTEX
  8
0
 10
0.537597
 20
2.84581
 30
0.0
 40
0
 41
0
  0
VERTEX
  8
0
 10
0.529839
 20
2.83501
 30
0.0
 40
0
 41
0
  0
VERTEX
  8
0
 10
0.523383
 20
2.82346
 30
0.0
 40
0
 41
0
  0
VERTEX
  8
0
 10
0.518229
 20
2.81125
 30
0.0
 40
0
 41
0
  0
VERTEX
  8
0
 10
0.514486
 20
2.7985
 30
0.0
 40
0
 41
0
  0
VERTEX
  8
0
 10
0.512207
 20
2.78543
 30
0.0
 40
0
 41
0
  0
VERTEX
  8
0
 10
0.511719
 20
2.77724
 30
0.0
 40
0
 41
0
  0
VERTEX
  8
0
 10
0.511393
 20
2.77225
 30
0.0
 40
0
 41
0
  0
VERTEX
  8
0
 10
0.512099
 20
2.759
 30
0.0
 40
0
 41
0
  0
VERTEX
  8
0
 10
0.514214
 20
2.74593
 30
0.0
 40
0
 41
0
  0
VERTEX
  8
0
 10
0.51785
 20
2.73318
 30
0.0
 40
0
 41
0
  0
VERTEX
  8
0
 10
0.52284
 20
2.72086
 30
0.0
 40
0
 41
0
  0
VERTEX
  8
0
 10
0.529189
 20
2.70921
 30
0.0
 40
0
 41
0
  0
VERTEX
  8
0
 10
0.536838
 20
2.6984
 30
0.0
 40
0
 41
0
  0
VERTEX
  8
0
 10
0.538411
 20
2.69661
 30
0.0
 40
0
 41
0
  0
VERTEX
  8
0
 10
0.545574
 20
2.68842
 30
0.0
 40
0
 41
0
  0
SEQEND
 8
0
  0
POLYLINE
  8
0
 62
     254
 66
     1
 10
0
 20
0
 30
0.0
 70
     1
 40
0
 41
0
  0
VERTEX
  8
0
 10
1.20475
 20
2.21278
 30
0.0
 40
0
 41
0
  0
VERTEX
  8
0
 10
1.20904
 20
2.20503
 30
0.0
 40
0
 41
0
  0
VERTEX
  8
0
 10
1.21408
 20
2.19775
 30
0.0
 40
0
 41
0
  0
VERTEX
  8
0
 10
1.21994
 20
2.19114
 30
0.0
 40
0
 41
0
  0
VERTEX
  8
0
 10
1.22651
 20
2.18522
 30
0.0
 40
0
 41
0
  0
VERTEX
  8
0
 10
1.23372
 20
2.18007
 30
0.0
 40
0
 41
0
  0
VERTEX
  8
0
 10
1.24143
 20
2.17578
 30
0.0
 40
0
 41
0
  0
VERTEX
  8
0
 10
1.24957
 20
2.17231
 30
0.0
 40
0
 41
0
  0
VERTEX
  8
0
 10
1.25803
 20
2.16986
 30
0.0
 40
0
 41
0
  0
VERTEX
  8
0
 10
1.26671
 20
2.16829
 30
0.0
 40
0
 41
0
  0
VERTEX
  8
0
 10
1.27555
 20
2.16775
 30
0.0
 40
0
 41
0
  0
VERTEX
  8
0
 10
1.28174
 20
2.16808
 30
0.0
 40
0
 41
0
  0
VERTEX
  8
0
 10
1.2844
 20
2.16818
 30
0.0
 40
0
 41
0
  0
VERTEX
  8
0
 10
1.29313
 20
2.16965
 30
0.0
 40
0
 41
0
  0
VERTEX
  8
0
 10
1.30159
 20
2.17204
 30
0.0
 40
0
 41
0
  0
VERTEX
  8
0
 10
1.30979
 20
2.1754
 30
0.0
 40
0
 41
0
  0
VERTEX
  8
0
 10
1.31755
 20
2.17964
 30
0.0
 40
0
 41
0
  0
VERTEX
  8
0
 10
1.32482
 20
2.18468
 30
0.0
 40
0
 41
0
  0
VERTEX
  8
0
 10
1.33143
 20
2.19054
 30
0.0
 40
0
 41
0
  0
VERTEX
  8
0
 10
1.33735
 20
2.19715
 30
0.0
 40
0
 41
0
  0
VERTEX
  8
0
 10
1.3425
 20
2.20432
 30
0.0
 40
0
 41
0
  0
VERTEX
  8
0
 10
1.34679
 20
2.21203
 30
0.0
 40
0
 41
0
  0
VERTEX
  8
0
 10
1.34717
 20
2.21278
 30
0.0
 40
0
 41
0
  0
VERTEX
  8
0
 10
1.35026
 20
2.22017
 30
0.0
 40
0
 41
0
  0
VERTEX
  8
0
 10
1.35276
 20
2.22868
 30
0.0
 40
0
 41
0
  0
VERTEX
  8
0
 10
1.35427
 20
2.23736
 30
0.0
 40
0
 41
0
  0
VERTEX
  8
0
 10
1.35482
 20
2.24621
 30
0.0
 40
0
 41
0
  0
VERTEX
  8
0
 10
1.35438
 20
2.25499
 30
0.0
 40
0
 41
0
  0
VERTEX
  8
0
 10
1.35292
 20
2.26378
 30
0.0
 40
0
 41
0
  0
VERTEX
  8
0
 10
1.35053
 20
2.27225
 30
0.0
 40
0
 41
0
  0
VERTEX
  8
0
 10
1.34722
 20
2.28043
 30
0.0
 40
0
 41
0
  0
VERTEX
  8
0
 10
1.34294
 20
2.28819
 30
0.0
 40
0
 41
0
  0
VERTEX
  8
0
 10
1.3393
 20
2.29346
 30
0.0
 40
0
 41
0
  0
VERTEX
  8
0
 10
1.33789
 20
2.29546
 30
0.0
 40
0
 41
0
  0
VERTEX
  8
0
 10
1.33203
 20
2.30208
 30
0.0
 40
0
 41
0
  0
VERTEX
  8
0
 10
1.32547
 20
2.308
 30
0.0
 40
0
 41
0
  0
VERTEX
  8
0
 10
1.31825
 20
2.3131
 30
0.0
 40
0
 41
0
  0
VERTEX
  8
0
 10
1.31055
 20
2.31743
 30
0.0
 40
0
 41
0
  0
VERTEX
  8
0
 10
1.30241
 20
2.32086
 30
0.0
 40
0
 41
0
  0
VERTEX
  8
0
 10
1.29395
 20
2.32335
 30
0.0
 40
0
 41
0
  0
VERTEX
  8
0
 10
1.28521
 20
2.32488
 30
0.0
 40
0
 41
0
  0
VERTEX
  8
0
 10
1.28174
 20
2.32508
 30
0.0
 40
0
 41
0
  0
VERTEX
  8
0
 10
1.27637
 20
2.32547
 30
0.0
 40
0
 41
0
  0
VERTEX
  8
0
 10
1.26758
 20
2.32503
 30
0.0
 40
0
 41
0
  0
VERTEX
  8
0
 10
1.25884
 20
2.32357
 30
0.0
 40
0
 41
0
  0
VERTEX
  8
0
 10
1.25033
 20
2.32118
 30
0.0
 40
0
 41
0
  0
VERTEX
  8
0
 10
1.24213
 20
2.31782
 30
0.0
 40
0
 41
0
  0
VERTEX
  8
0
 10
1.23438
 20
2.31358
 30
0.0
 40
0
 41
0
  0
VERTEX
  8
0
 10
1.22711
 20
2.30854
 30
0.0
 40
0
 41
0
  0
VERTEX
  8
0
 10
1.22049
 20
2.30263
 30
0.0
 40
0
 41
0
  0
VERTEX
  8
0
 10
1.21463
 20
2.29606
 30
0.0
 40
0
 41
0
  0
VERTEX
  8
0
 10
1.21273
 20
2.29346
 30
0.0
 40
0
 41
0
  0
VERTEX
  8
0
 10
1.20947
 20
2.2889
 30
0.0
 40
0
 41
0
  0
VERTEX
  8
0
 10
1.20513
 20
2.28119
 30
0.0
 40
0
 41
0
  0
VERTEX
  8
0
 10
1.20171
 20
2.27306
 30
0.0
 40
0
 41
0
  0
VERTEX
  8
0
 10
1.19922
 20
2.26454
 30
0.0
 40
0
 41
0
  0
VERTEX
  8
0
 10
1.1977
 20
2.25586
 30
0.0
 40
0
 41
0
  0
VERTEX
  8
0
 10
1.1971
 20
2.24701
 30
0.0
 40
0
 41
0
  0
VERTEX
  8
0
 10
1.19759
 20
2.23822
 30
0.0
 40
0
 41
0
  0
VERTEX
  8
0
 10
1.199
 20
2.22944
 30
0.0
 40
0
 41
0
  0
VERTEX
  8
0
 10
1.20144
 20
2.22097
 30
0.0
 40
0
 41
0
  0
VERTEX
  8
0
 10
1.20475
 20
2.21278
 30
0.0
 40
0
 41
0
  0
SEQEND
 8
0
  0
POLYLINE
  8
0
 62
     254
 66
     1
 10
0
 20
0
 30
0.0
 70
     1
 40
0
 41
0
  0
VERTEX
  8
0
 10
5.35124
 20
0.338163
 30
0.0
 40
0
 41
0
  0
VERTEX
  8
0
 10
5.35357
 20
0.339193
 30
0.0
 40
0
 41
0
  0
VERTEX
  8
0
 10
5.37093
 20
0.346843
 30
0.0
 40
0
 41
0
  0
VERTEX
  8
0
 10
5.37853
 20
0.351454
 30
0.0
 40
0
 41
0
  0
VERTEX
  8
0
 10
5.38499
 20
0.358128
 30
0.0
 40
0
 41
0
  0
VERTEX
  8
0
 10
5.3851
 20
0.358344
 30
0.0
 40
0
 41
0
  0
VERTEX
  8
0
 10
5.39014
 20
0.366699
 30
0.0
 40
0
 41
0
  0
VERTEX
  8
0
 10
5.39382
 20
0.376953
 30
0.0
 40
0
 41
0
  0
VERTEX
  8
0
 10
5.39606
 20
0.388618
 30
0.0
 40
0
 41
0
  0
VERTEX
  8
0
 10
5.3966
 20
0.401476
 30
0.0
 40
0
 41
0
  0
VERTEX
  8
0
 10
5.39567
 20
0.415147
 30
0.0
 40
0
 41
0
  0
VERTEX
  8
0
 10
5.39318
 20
0.429254
 30
0.0
 40
0
 41
0
  0
VERTEX
  8
0
 10
5.3904
 20
0.438965
 30
0.0
 40
0
 41
0
  0
VERTEX
  8
0
 10
5.38917
 20
0.443576
 30
0.0
 40
0
 41
0
  0
VERTEX
  8
0
 10
5.38368
 20
0.457628
 30
0.0
 40
0
 41
0
  0
VERTEX
  8
0
 10
5.37337
 20
0.481065
 30
0.0
 40
0
 41
0
  0
VERTEX
  8
0
 10
5.36887
 20
0.491428
 30
0.0
 40
0
 41
0
  0
VERTEX
  8
0
 10
5.36214
 20
0.504992
 30
0.0
 40
0
 41
0
  0
VERTEX
  8
0
 10
5.35439
 20
0.517632
 30
0.0
 40
0
 41
0
  0
VERTEX
  8
0
 10
5.35286
 20
0.519586
 30
0.0
 40
0
 41
0
  0
VERTEX
  8
0
 10
5.34565
 20
0.529025
 30
0.0
 40
0
 41
0
  0
VERTEX
  8
0
 10
5.33626
 20
0.539008
 30
0.0
 40
0
 41
0
  0
VERTEX
  8
0
 10
5.32639
 20
0.5472
 30
0.0
 40
0
 41
0
  0
VERTEX
  8
0
 10
5.31629
 20
0.553494
 30
0.0
 40
0
 41
0
  0
VERTEX
  8
0
 10
5.31321
 20
0.554742
 30
0.0
 40
0
 41
0
  0
VERTEX
  8
0
 10
5.30626
 20
0.557671
 30
0.0
 40
0
 41
0
  0
VERTEX
  8
0
 10
5.29644
 20
0.559733
 30
0.0
 40
0
 41
0
  0
VERTEX
  8
0
 10
5.28722
 20
0.559517
 30
0.0
 40
0
 41
0
  0
VERTEX
  8
0
 10
5.27865
 20
0.557075
 30
0.0
 40
0
 41
0
  0
VERTEX
  8
0
 10
5.27289
 20
0.554525
 30
0.0
 40
0
 41
0
  0
VERTEX
  8
0
 10
5.2589
 20
0.548394
 30
0.0
 40
0
 41
0
  0
VERTEX
  8
0
 10
5.25136
 20
0.543728
 30
0.0
 40
0
 41
0
  0
VERTEX
  8
0
 10
5.2449
 20
0.53711
 30
0.0
 40
0
 41
0
  0
VERTEX
  8
0
 10
5.23975
 20
0.528537
 30
0.0
 40
0
 41
0
  0
VERTEX
  8
0
 10
5.23654
 20
0.519586
 30
0.0
 40
0
 41
0
  0
VERTEX
  8
0
 10
5.23606
 20
0.518283
 30
0.0
 40
0
 41
0
  0
VERTEX
  8
0
 10
5.23383
 20
0.506565
 30
0.0
 40
0
 41
0
  0
VERTEX
  8
0
 10
5.23324
 20
0.493761
 30
0.0
 40
0
 41
0
  0
VERTEX
  8
0
 10
5.23421
 20
0.480089
 30
0.0
 40
0
 41
0
  0
VERTEX
  8
0
 10
5.23671
 20
0.465983
 30
0.0
 40
0
 41
0
  0
VERTEX
  8
0
 10
5.24072
 20
0.45166
 30
0.0
 40
0
 41
0
  0
VERTEX
  8
0
 10
5.24567
 20
0.438965
 30
0.0
 40
0
 41
0
  0
VERTEX
  8
0
 10
5.24621
 20
0.437608
 30
0.0
 40
0
 41
0
  0
VERTEX
  8
0
 10
5.26101
 20
0.403808
 30
0.0
 40
0
 41
0
  0
VERTEX
  8
0
 10
5.26774
 20
0.390246
 30
0.0
 40
0
 41
0
  0
VERTEX
  8
0
 10
5.2755
 20
0.377604
 30
0.0
 40
0
 41
0
  0
VERTEX
  8
0
 10
5.28424
 20
0.366211
 30
0.0
 40
0
 41
0
  0
VERTEX
  8
0
 10
5.29167
 20
0.358344
 30
0.0
 40
0
 41
0
  0
VERTEX
  8
0
 10
5.29362
 20
0.356228
 30
0.0
 40
0
 41
0
  0
VERTEX
  8
0
 10
5.30344
 20
0.348036
 30
0.0
 40
0
 41
0
  0
VERTEX
  8
0
 10
5.31321
 20
0.34196
 30
0.0
 40
0
 41
0
  0
VERTEX
  8
0
 10
5.31353
 20
0.341743
 30
0.0
 40
0
 41
0
  0
VERTEX
  8
0
 10
5.31803
 20
0.339844
 30
0.0
 40
0
 41
0
  0
VERTEX
  8
0
 10
5.32362
 20
0.337511
 30
0.0
 40
0
 41
0
  0
VERTEX
  8
0
 10
5.33344
 20
0.335504
 30
0.0
 40
0
 41
0
  0
VERTEX
  8
0
 10
5.34267
 20
0.335721
 30
0.0
 40
0
 41
0
  0
VERTEX
  8
0
 10
5.35124
 20
0.338163
 30
0.0
 40
0
 41
0
  0
SEQEND
 8
0
  0
POLYLINE
  8
0
 62
     254
 66
     1
 10
0
 20
0
 30
0.0
 70
     1
 40
0
 41
0
  0
VERTEX
  8
0
 10
4.7564
 20
0.649251
 30
0.0
 40
0
 41
0
  0
VERTEX
  8
0
 10
4.75071
 20
0.640082
 30
0.0
 40
0
 41
0
  0
VERTEX
  8
0
 10
4.74881
 20
0.635579
 30
0.0
 40
0
 41
0
  0
VERTEX
  8
0
 10
4.74647
 20
0.629992
 30
0.0
 40
0
 41
0
  0
VERTEX
  8
0
 10
4.74447
 20
0.620226
 30
0.0
 40
0
 41
0
  0
VERTEX
  8
0
 10
4.74457
 20
0.611763
 30
0.0
 40
0
 41
0
  0
VERTEX
  8
0
 10
4.74463
 20
0.611003
 30
0.0
 40
0
 41
0
  0
VERTEX
  8
0
 10
4.74696
 20
0.602485
 30
0.0
 40
0
 41
0
  0
VERTEX
  8
0
 10
4.74794
 20
0.600206
 30
0.0
 40
0
 41
0
  0
VERTEX
  8
0
 10
4.74881
 20
0.598199
 30
0.0
 40
0
 41
0
  0
VERTEX
  8
0
 10
4.75537
 20
0.582844
 30
0.0
 40
0
 41
0
  0
VERTEX
  8
0
 10
4.75993
 20
0.575304
 30
0.0
 40
0
 41
0
  0
VERTEX
  8
0
 10
4.76644
 20
0.568901
 30
0.0
 40
0
 41
0
  0
VERTEX
  8
0
 10
4.77485
 20
0.563857
 30
0.0
 40
0
 41
0
  0
VERTEX
  8
0
 10
4.78494
 20
0.560221
 30
0.0
 40
0
 41
0
  0
VERTEX
  8
0
 10
4.78911
 20
0.559407
 30
0.0
 40
0
 41
0
  0
VERTEX
  8
0
 10
4.79644
 20
0.558106
 30
0.0
 40
0
 41
0
  0
VERTEX
  8
0
 10
4.80908
 20
0.557508
 30
0.0
 40
0
 41
0
  0
VERTEX
  8
0
 10
4.82254
 20
0.558539
 30
0.0
 40
0
 41
0
  0
VERTEX
  8
0
 10
4.82943
 20
0.559842
 30
0.0
 40
0
 41
0
  0
VERTEX
  8
0
 10
4.83649
 20
0.561143
 30
0.0
 40
0
 41
0
  0
VERTEX
  8
0
 10
4.85053
 20
0.565267
 30
0.0
 40
0
 41
0
  0
VERTEX
  8
0
 10
4.85628
 20
0.567492
 30
0.0
 40
0
 41
0
  0
VERTEX
  8
0
 10
4.86442
 20
0.570747
 30
0.0
 40
0
 41
0
  0
VERTEX
  8
0
 10
4.89785
 20
0.585775
 30
0.0
 40
0
 41
0
  0
VERTEX
  8
0
 10
4.91118
 20
0.592503
 30
0.0
 40
0
 41
0
  0
VERTEX
  8
0
 10
4.92339
 20
0.600206
 30
0.0
 40
0
 41
0
  0
VERTEX
  8
0
 10
4.92367
 20
0.600369
 30
0.0
 40
0
 41
0
  0
VERTEX
  8
0
 10
4.93494
 20
0.609104
 30
0.0
 40
0
 41
0
  0
VERTEX
  8
0
 10
4.94482
 20
0.618544
 30
0.0
 40
0
 41
0
  0
VERTEX
  8
0
 10
4.95296
 20
0.628418
 30
0.0
 40
0
 41
0
  0
VERTEX
  8
0
 10
4.95921
 20
0.63851
 30
0.0
 40
0
 41
0
  0
VERTEX
  8
0
 10
4.96007
 20
0.640517
 30
0.0
 40
0
 41
0
  0
VERTEX
  8
0
 10
4.96343
 20
0.6486
 30
0.0
 40
0
 41
0
  0
VERTEX
  8
0
 10
4.9655
 20
0.658365
 30
0.0
 40
0
 41
0
  0
VERTEX
  8
0
 10
4.96533
 20
0.667589
 30
0.0
 40
0
 41
0
  0
VERTEX
  8
0
 10
4.96294
 20
0.676107
 30
0.0
 40
0
 41
0
  0
VERTEX
  8
0
 10
4.96094
 20
0.680826
 30
0.0
 40
0
 41
0
  0
VERTEX
  8
0
 10
4.95454
 20
0.695747
 30
0.0
 40
0
 41
0
  0
VERTEX
  8
0
 10
4.95042
 20
0.702636
 30
0.0
 40
0
 41
0
  0
VERTEX
  8
0
 10
4.94997
 20
0.703342
 30
0.0
 40
0
 41
0
  0
VERTEX
  8
0
 10
4.94347
 20
0.70969
 30
0.0
 40
0
 41
0
  0
VERTEX
  8
0
 10
4.93506
 20
0.714789
 30
0.0
 40
0
 41
0
  0
VERTEX
  8
0
 10
4.92503
 20
0.718425
 30
0.0
 40
0
 41
0
  0
VERTEX
  8
0
 10
4.91351
 20
0.72054
 30
0.0
 40
0
 41
0
  0
VERTEX
  8
0
 10
4.9101
 20
0.720649
 30
0.0
 40
0
 41
0
  0
VERTEX
  8
0
 10
4.90088
 20
0.721083
 30
0.0
 40
0
 41
0
  0
VERTEX
  8
0
 10
4.88743
 20
0.720053
 30
0.0
 40
0
 41
0
  0
VERTEX
  8
0
 10
4.87349
 20
0.717449
 30
0.0
 40
0
 41
0
  0
VERTEX
  8
0
 10
4.85938
 20
0.713379
 30
0.0
 40
0
 41
0
  0
VERTEX
  8
0
 10
4.84549
 20
0.7079
 30
0.0
 40
0
 41
0
  0
VERTEX
  8
0
 10
4.84099
 20
0.705838
 30
0.0
 40
0
 41
0
  0
VERTEX
  8
0
 10
4.83376
 20
0.702636
 30
0.0
 40
0
 41
0
  0
VERTEX
  8
0
 10
4.81207
 20
0.692871
 30
0.0
 40
0
 41
0
  0
VERTEX
  8
0
 10
4.79872
 20
0.686089
 30
0.0
 40
0
 41
0
  0
VERTEX
  8
0
 10
4.79036
 20
0.680826
 30
0.0
 40
0
 41
0
  0
VERTEX
  8
0
 10
4.78624
 20
0.678222
 30
0.0
 40
0
 41
0
  0
VERTEX
  8
0
 10
4.77496
 20
0.669487
 30
0.0
 40
0
 41
0
  0
VERTEX
  8
0
 10
4.76514
 20
0.660101
 30
0.0
 40
0
 41
0
  0
VERTEX
  8
0
 10
4.7621
 20
0.656413
 30
0.0
 40
0
 41
0
  0
VERTEX
  8
0
 10
4.75694
 20
0.650174
 30
0.0
 40
0
 41
0
  0
VERTEX
  8
0
 10
4.7564
 20
0.649251
 30
0.0
 40
0
 41
0
  0
SEQEND
 8
0
  0
POLYLINE
  8
0
 62
     254
 66
     1
 10
0
 20
0
 30
0.0
 70
     1
 40
0
 41
0
  0
VERTEX
  8
0
 10
5.14779
 20
0.623156
 30
0.0
 40
0
 41
0
  0
VERTEX
  8
0
 10
5.15196
 20
0.622721
 30
0.0
 40
0
 41
0
  0
VERTEX
  8
0
 10
5.16982
 20
0.620714
 30
0.0
 40
0
 41
0
  0
VERTEX
  8
0
 10
5.19194
 20
0.621365
 30
0.0
 40
0
 41
0
  0
VERTEX
  8
0
 10
5.21376
 20
0.625108
 30
0.0
 40
0
 41
0
  0
VERTEX
  8
0
 10
5.23486
 20
0.631836
 30
0.0
 40
0
 41
0
  0
VERTEX
  8
0
 10
5.25483
 20
0.641439
 30
0.0
 40
0
 41
0
  0
VERTEX
  8
0
 10
5.27317
 20
0.6537
 30
0.0
 40
0
 41
0
  0
VERTEX
  8
0
 10
5.28971
 20
0.668457
 30
0.0
 40
0
 41
0
  0
VERTEX
  8
0
 10
5.30404
 20
0.685331
 30
0.0
 40
0
 41
0
  0
VERTEX
  8
0
 10
5.315
 20
0.702636
 30
0.0
 40
0
 41
0
  0
VERTEX
  8
0
 10
5.31586
 20
0.704047
 30
0.0
 40
0
 41
0
  0
VERTEX
  8
0
 10
5.32497
 20
0.724229
 30
0.0
 40
0
 41
0
  0
VERTEX
  8
0
 10
5.33122
 20
0.745497
 30
0.0
 40
0
 41
0
  0
VERTEX
  8
0
 10
5.33356
 20
0.761447
 30
0.0
 40
0
 41
0
  0
VERTEX
  8
0
 10
5.33442
 20
0.767361
 30
0.0
 40
0
 41
0
  0
VERTEX
  8
0
 10
5.33453
 20
0.789497
 30
0.0
 40
0
 41
0
  0
VERTEX
  8
0
 10
5.33154
 20
0.811415
 30
0.0
 40
0
 41
0
  0
VERTEX
  8
0
 10
5.32557
 20
0.83279
 30
0.0
 40
0
 41
0
  0
VERTEX
  8
0
 10
5.31668
 20
0.853028
 30
0.0
 40
0
 41
0
  0
VERTEX
  8
0
 10
5.30501
 20
0.871853
 30
0.0
 40
0
 41
0
  0
VERTEX
  8
0
 10
5.2909
 20
0.888889
 30
0.0
 40
0
 41
0
  0
VERTEX
  8
0
 10
5.27453
 20
0.903808
 30
0.0
 40
0
 41
0
  0
VERTEX
  8
0
 10
5.25624
 20
0.916288
 30
0.0
 40
0
 41
0
  0
VERTEX
  8
0
 10
5.24317
 20
0.922743
 30
0.0
 40
0
 41
0
  0
VERTEX
  8
0
 10
5.23639
 20
0.926053
 30
0.0
 40
0
 41
0
  0
VERTEX
  8
0
 10
5.21533
 20
0.933051
 30
0.0
 40
0
 41
0
  0
VERTEX
  8
0
 10
5.19358
 20
0.936957
 30
0.0
 40
0
 41
0
  0
VERTEX
  8
0
 10
5.17144
 20
0.937879
 30
0.0
 40
0
 41
0
  0
VERTEX
  8
0
 10
5.15196
 20
0.935926
 30
0.0
 40
0
 41
0
  0
VERTEX
  8
0
 10
5.14947
 20
0.935656
 30
0.0
 40
0
 41
0
  0
VERTEX
  8
0
 10
5.12793
 20
0.930447
 30
0.0
 40
0
 41
0
  0
VERTEX
  8
0
 10
5.10856
 20
0.922743
 30
0.0
 40
0
 41
0
  0
VERTEX
  8
0
 10
5.10736
 20
0.922254
 30
0.0
 40
0
 41
0
  0
VERTEX
  8
0
 10
5.08811
 20
0.911296
 30
0.0
 40
0
 41
0
  0
VERTEX
  8
0
 10
5.07064
 20
0.897732
 30
0.0
 40
0
 41
0
  0
VERTEX
  8
0
 10
5.05518
 20
0.88189
 30
0.0
 40
0
 41
0
  0
VERTEX
  8
0
 10
5.04204
 20
0.864094
 30
0.0
 40
0
 41
0
  0
VERTEX
  8
0
 10
5.03153
 20
0.844564
 30
0.0
 40
0
 41
0
  0
VERTEX
  8
0
 10
5.02387
 20
0.823785
 30
0.0
 40
0
 41
0
  0
VERTEX
  8
0
 10
5.01915
 20
0.802192
 30
0.0
 40
0
 41
0
  0
VERTEX
  8
0
 10
5.01747
 20
0.780111
 30
0.0
 40
0
 41
0
  0
VERTEX
  8
0
 10
5.01872
 20
0.761447
 30
0.0
 40
0
 41
0
  0
VERTEX
  8
0
 10
5.01893
 20
0.758029
 30
0.0
 40
0
 41
0
  0
VERTEX
  8
0
 10
5.02344
 20
0.736328
 30
0.0
 40
0
 41
0
  0
VERTEX
  8
0
 10
5.03087
 20
0.715494
 30
0.0
 40
0
 41
0
  0
VERTEX
  8
0
 10
5.03765
 20
0.702636
 30
0.0
 40
0
 41
0
  0
VERTEX
  8
0
 10
5.04118
 20
0.695856
 30
0.0
 40
0
 41
0
  0
VERTEX
  8
0
 10
5.0541
 20
0.677951
 30
0.0
 40
0
 41
0
  0
VERTEX
  8
0
 10
5.06939
 20
0.661893
 30
0.0
 40
0
 41
0
  0
VERTEX
  8
0
 10
5.08675
 20
0.648221
 30
0.0
 40
0
 41
0
  0
VERTEX
  8
0
 10
5.10585
 20
0.637044
 30
0.0
 40
0
 41
0
  0
VERTEX
  8
0
 10
5.12636
 20
0.628635
 30
0.0
 40
0
 41
0
  0
VERTEX
  8
0
 10
5.14779
 20
0.623156
 30
0.0
 40
0
 41
0
  0
SEQEND
 8
0
  0
POLYLINE
  8
0
 62
     254
 66
     1
 10
0
 20
0
 30
0.0
 70
     1
 40
0
 41
0
  0
VERTEX
  8
0
 10
5.57992
 20
0.994846
 30
0.0
 40
0
 41
0
  0
VERTEX
  8
0
 10
5.57536
 20
0.996528
 30
0.0
 40
0
 41
0
  0
VERTEX
  8
0
 10
5.56967
 20
0.998535
 30
0.0
 40
0
 41
0
  0
VERTEX
  8
0
 10
5.558
 20
1.00076
 30
0.0
 40
0
 41
0
  0
VERTEX
  8
0
 10
5.55512
 20
1.00092
 30
0.0
 40
0
 41
0
  0
VERTEX
  8
0
 10
5.54514
 20
1.00141
 30
0.0
 40
0
 41
0
  0
VERTEX
  8
0
 10
5.53711
 20
1.00081
 30
0.0
 40
0
 41
0
  0
VERTEX
  8
0
 10
5.53153
 20
1.00038
 30
0.0
 40
0
 41
0
  0
VERTEX
  8
0
 10
5.51736
 20
0.997885
 30
0.0
 40
0
 41
0
  0
VERTEX
  8
0
 10
5.5031
 20
0.993869
 30
0.0
 40
0
 41
0
  0
VERTEX
  8
0
 10
5.48904
 20
0.988444
 30
0.0
 40
0
 41
0
  0
VERTEX
  8
0
 10
5.4745
 20
0.982042
 30
0.0
 40
0
 41
0
  0
VERTEX
  8
0
 10
5.45518
 20
0.973579
 30
0.0
 40
0
 41
0
  0
VERTEX
  8
0
 10
5.44168
 20
0.966906
 30
0.0
 40
0
 41
0
  0
VERTEX
  8
0
 10
5.42904
 20
0.959093
 30
0.0
 40
0
 41
0
  0
VERTEX
  8
0
 10
5.41758
 20
0.950413
 30
0.0
 40
0
 41
0
  0
VERTEX
  8
0
 10
5.40767
 20
0.940972
 30
0.0
 40
0
 41
0
  0
VERTEX
  8
0
 10
5.39947
 20
0.931153
 30
0.0
 40
0
 41
0
  0
VERTEX
  8
0
 10
5.39421
 20
0.922743
 30
0.0
 40
0
 41
0
  0
VERTEX
  8
0
 10
5.39388
 20
0.9222
 30
0.0
 40
0
 41
0
  0
VERTEX
  8
0
 10
5.39318
 20
0.921061
 30
0.0
 40
0
 41
0
  0
VERTEX
  8
0
 10
5.38894
 20
0.910969
 30
0.0
 40
0
 41
0
  0
VERTEX
  8
0
 10
5.38693
 20
0.901258
 30
0.0
 40
0
 41
0
  0
VERTEX
  8
0
 10
5.38715
 20
0.891928
 30
0.0
 40
0
 41
0
  0
VERTEX
  8
0
 10
5.3896
 20
0.88341
 30
0.0
 40
0
 41
0
  0
VERTEX
  8
0
 10
5.39388
 20
0.873643
 30
0.0
 40
0
 41
0
  0
VERTEX
  8
0
 10
5.39822
 20
0.863661
 30
0.0
 40
0
 41
0
  0
VERTEX
  8
0
 10
5.40289
 20
0.856119
 30
0.0
 40
0
 41
0
  0
VERTEX
  8
0
 10
5.4095
 20
0.849664
 30
0.0
 40
0
 41
0
  0
VERTEX
  8
0
 10
5.41813
 20
0.844564
 30
0.0
 40
0
 41
0
  0
VERTEX
  8
0
 10
5.42481
 20
0.842122
 30
0.0
 40
0
 41
0
  0
VERTEX
  8
0
 10
5.42833
 20
0.840821
 30
0.0
 40
0
 41
0
  0
VERTEX
  8
0
 10
5.44006
 20
0.83865
 30
0.0
 40
0
 41
0
  0
VERTEX
  8
0
 10
5.45285
 20
0.837999
 30
0.0
 40
0
 41
0
  0
VERTEX
  8
0
 10
5.46653
 20
0.838976
 30
0.0
 40
0
 41
0
  0
VERTEX
  8
0
 10
5.4745
 20
0.840386
 30
0.0
 40
0
 41
0
  0
VERTEX
  8
0
 10
5.48068
 20
0.841471
 30
0.0
 40
0
 41
0
  0
VERTEX
  8
0
 10
5.49496
 20
0.845486
 30
0.0
 40
0
 41
0
  0
VERTEX
  8
0
 10
5.509
 20
0.850911
 30
0.0
 40
0
 41
0
  0
VERTEX
  8
0
 10
5.52024
 20
0.855849
 30
0.0
 40
0
 41
0
  0
VERTEX
  8
0
 10
5.54286
 20
0.865776
 30
0.0
 40
0
 41
0
  0
VERTEX
  8
0
 10
5.55512
 20
0.871853
 30
0.0
 40
0
 41
0
  0
VERTEX
  8
0
 10
5.55637
 20
0.87245
 30
0.0
 40
0
 41
0
  0
VERTEX
  8
0
 10
5.56901
 20
0.880262
 30
0.0
 40
0
 41
0
  0
VERTEX
  8
0
 10
5.58046
 20
0.888943
 30
0.0
 40
0
 41
0
  0
VERTEX
  8
0
 10
5.59039
 20
0.898383
 30
0.0
 40
0
 41
0
  0
VERTEX
  8
0
 10
5.59864
 20
0.908257
 30
0.0
 40
0
 41
0
  0
VERTEX
  8
0
 10
5.60487
 20
0.918294
 30
0.0
 40
0
 41
0
  0
VERTEX
  8
0
 10
5.60672
 20
0.922743
 30
0.0
 40
0
 41
0
  0
VERTEX
  8
0
 10
5.6091
 20
0.928386
 30
0.0
 40
0
 41
0
  0
VERTEX
  8
0
 10
5.61117
 20
0.938151
 30
0.0
 40
0
 41
0
  0
VERTEX
  8
0
 10
5.61089
 20
0.947428
 30
0.0
 40
0
 41
0
  0
VERTEX
  8
0
 10
5.60846
 20
0.955946
 30
0.0
 40
0
 41
0
  0
VERTEX
  8
0
 10
5.60536
 20
0.963053
 30
0.0
 40
0
 41
0
  0
VERTEX
  8
0
 10
5.60015
 20
0.974989
 30
0.0
 40
0
 41
0
  0
VERTEX
  8
0
 10
5.59983
 20
0.975749
 30
0.0
 40
0
 41
0
  0
VERTEX
  8
0
 10
5.59521
 20
0.98329
 30
0.0
 40
0
 41
0
  0
VERTEX
  8
0
 10
5.58849
 20
0.989746
 30
0.0
 40
0
 41
0
  0
VERTEX
  8
0
 10
5.57992
 20
0.994846
 30
0.0
 40
0
 41
0
  0
SEQEND
 8
0
  0
POLYLINE
  8
0
 62
     254
 66
     1
 10
0
 20
0
 30
0.0
 70
     1
 40
0
 41
0
  0
VERTEX
  8
0
 10
4.96826
 20
1.1939
 30
0.0
 40
0
 41
0
  0
VERTEX
  8
0
 10
4.96262
 20
1.1881
 30
0.0
 40
0
 41
0
  0
VERTEX
  8
0
 10
4.95757
 20
1.17974
 30
0.0
 40
0
 41
0
  0
VERTEX
  8
0
 10
4.95389
 20
1.16965
 30
0.0
 40
0
 41
0
  0
VERTEX
  8
0
 10
4.95296
 20
1.16461
 30
0.0
 40
0
 41
0
  0
VERTEX
  8
0
 10
4.95176
 20
1.15815
 30
0.0
 40
0
 41
0
  0
VERTEX
  8
0
 10
4.95122
 20
1.14551
 30
0.0
 40
0
 41
0
  0
VERTEX
  8
0
 10
4.95167
 20
1.14014
 30
0.0
 40
0
 41
0
  0
VERTEX
  8
0
 10
4.95226
 20
1.13205
 30
0.0
 40
0
 41
0
  0
VERTEX
  8
0
 10
4.95486
 20
1.11811
 30
0.0
 40
0
 41
0
  0
VERTEX
  8
0
 10
4.95899
 20
1.104
 30
0.0
 40
0
 41
0
  0
VERTEX
  8
0
 10
4.96446
 20
1.09017
 30
0.0
 40
0
 41
0
  0
VERTEX
  8
0
 10
4.96724
 20
1.08398
 30
0.0
 40
0
 41
0
  0
VERTEX
  8
0
 10
4.97944
 20
1.05675
 30
0.0
 40
0
 41
0
  0
VERTEX
  8
0
 10
4.98622
 20
1.0434
 30
0.0
 40
0
 41
0
  0
VERTEX
  8
0
 10
4.99072
 20
1.03624
 30
0.0
 40
0
 41
0
  0
VERTEX
  8
0
 10
4.99403
 20
1.03093
 30
0.0
 40
0
 41
0
  0
VERTEX
  8
0
 10
5.00282
 20
1.01964
 30
0.0
 40
0
 41
0
  0
VERTEX
  8
0
 10
5.01226
 20
1.00977
 30
0.0
 40
0
 41
0
  0
VERTEX
  8
0
 10
5.01747
 20
1.00548
 30
0.0
 40
0
 41
0
  0
VERTEX
  8
0
 10
5.02001
 20
1.00336
 30
0.0
 40
0
 41
0
  0
VERTEX
  8
0
 10
5.02214
 20
1.00163
 30
0.0
 40
0
 41
0
  0
VERTEX
  8
0
 10
5.03222
 20
0.995389
 30
0.0
 40
0
 41
0
  0
VERTEX
  8
0
 10
5.04232
 20
0.991157
 30
0.0
 40
0
 41
0
  0
VERTEX
  8
0
 10
5.05208
 20
0.989094
 30
0.0
 40
0
 41
0
  0
VERTEX
  8
0
 10
5.06136
 20
0.989258
 30
0.0
 40
0
 41
0
  0
VERTEX
  8
0
 10
5.06982
 20
0.991644
 30
0.0
 40
0
 41
0
  0
VERTEX
  8
0
 10
5.07135
 20
0.992242
 30
0.0
 40
0
 41
0
  0
VERTEX
  8
0
 10
5.08946
 20
1.00005
 30
0.0
 40
0
 41
0
  0
VERTEX
  8
0
 10
5.095
 20
1.00336
 30
0.0
 40
0
 41
0
  0
VERTEX
  8
0
 10
5.097
 20
1.00456
 30
0.0
 40
0
 41
0
  0
VERTEX
  8
0
 10
5.1034
 20
1.01112
 30
0.0
 40
0
 41
0
  0
VERTEX
  8
0
 10
5.10846
 20
1.01948
 30
0.0
 40
0
 41
0
  0
VERTEX
  8
0
 10
5.11214
 20
1.02957
 30
0.0
 40
0
 41
0
  0
VERTEX
  8
0
 10
5.11426
 20
1.04107
 30
0.0
 40
0
 41
0
  0
VERTEX
  8
0
 10
5.11436
 20
1.04367
 30
0.0
 40
0
 41
0
  0
VERTEX
  8
0
 10
5.11481
 20
1.05371
 30
0.0
 40
0
 41
0
  0
VERTEX
  8
0
 10
5.11376
 20
1.06717
 30
0.0
 40
0
 41
0
  0
VERTEX
  8
0
 10
5.11117
 20
1.08111
 30
0.0
 40
0
 41
0
  0
VERTEX
  8
0
 10
5.11035
 20
1.08398
 30
0.0
 40
0
 41
0
  0
VERTEX
  8
0
 10
5.1071
 20
1.09522
 30
0.0
 40
0
 41
0
  0
VERTEX
  8
0
 10
5.10157
 20
1.1091
 30
0.0
 40
0
 41
0
  0
VERTEX
  8
0
 10
5.08658
 20
1.14247
 30
0.0
 40
0
 41
0
  0
VERTEX
  8
0
 10
5.07981
 20
1.15582
 30
0.0
 40
0
 41
0
  0
VERTEX
  8
0
 10
5.07428
 20
1.16461
 30
0.0
 40
0
 41
0
  0
VERTEX
  8
0
 10
5.072
 20
1.16829
 30
0.0
 40
0
 41
0
  0
VERTEX
  8
0
 10
5.07135
 20
1.16911
 30
0.0
 40
0
 41
0
  0
VERTEX
  8
0
 10
5.06321
 20
1.17963
 30
0.0
 40
0
 41
0
  0
VERTEX
  8
0
 10
5.05376
 20
1.18945
 30
0.0
 40
0
 41
0
  0
VERTEX
  8
0
 10
5.04389
 20
1.19759
 30
0.0
 40
0
 41
0
  0
VERTEX
  8
0
 10
5.03381
 20
1.20388
 30
0.0
 40
0
 41
0
  0
VERTEX
  8
0
 10
5.03103
 20
1.20502
 30
0.0
 40
0
 41
0
  0
VERTEX
  8
0
 10
5.02376
 20
1.20806
 30
0.0
 40
0
 41
0
  0
VERTEX
  8
0
 10
5.01747
 20
1.20942
 30
0.0
 40
0
 41
0
  0
VERTEX
  8
0
 10
5.01394
 20
1.21012
 30
0.0
 40
0
 41
0
  0
VERTEX
  8
0
 10
5.00467
 20
1.20996
 30
0.0
 40
0
 41
0
  0
VERTEX
  8
0
 10
4.99621
 20
1.20763
 30
0.0
 40
0
 41
0
  0
VERTEX
  8
0
 10
4.99072
 20
1.20524
 30
0.0
 40
0
 41
0
  0
VERTEX
  8
0
 10
4.97657
 20
1.19916
 30
0.0
 40
0
 41
0
  0
VERTEX
  8
0
 10
4.97424
 20
1.19781
 30
0.0
 40
0
 41
0
  0
VERTEX
  8
0
 10
4.96903
 20
1.19466
 30
0.0
 40
0
 41
0
  0
VERTEX
  8
0
 10
4.96826
 20
1.1939
 30
0.0
 40
0
 41
0
  0
SEQEND
 8
0
  0
POLYLINE
  8
0
 62
     254
 66
     1
 10
0
 20
0
 30
0.0
 70
     1
 40
0
 41
0
  0
VERTEX
  8
0
 10
3.44883
 20
1.4936
 30
0.0
 40
0
 41
0
  0
VERTEX
  8
0
 10
3.45714
 20
1.49311
 30
0.0
 40
0
 41
0
  0
VERTEX
  8
0
 10
3.45876
 20
1.49317
 30
0.0
 40
0
 41
0
  0
VERTEX
  8
0
 10
3.46533
 20
1.4936
 30
0.0
 40
0
 41
0
  0
VERTEX
  8
0
 10
3.47347
 20
1.49511
 30
0.0
 40
0
 41
0
  0
VERTEX
  8
0
 10
3.48133
 20
1.49767
 30
0.0
 40
0
 41
0
  0
VERTEX
  8
0
 10
3.48888
 20
1.50108
 30
0.0
 40
0
 41
0
  0
VERTEX
  8
0
 10
3.49588
 20
1.50543
 30
0.0
 40
0
 41
0
  0
VERTEX
  8
0
 10
3.50233
 20
1.51058
 30
0.0
 40
0
 41
0
  0
VERTEX
  8
0
 10
3.50808
 20
1.51654
 30
0.0
 40
0
 41
0
  0
VERTEX
  8
0
 10
3.51303
 20
1.52311
 30
0.0
 40
0
 41
0
  0
VERTEX
  8
0
 10
3.51714
 20
1.53028
 30
0.0
 40
0
 41
0
  0
VERTEX
  8
0
 10
3.5204
 20
1.53787
 30
0.0
 40
0
 41
0
  0
VERTEX
  8
0
 10
3.52262
 20
1.54585
 30
0.0
 40
0
 41
0
  0
VERTEX
  8
0
 10
3.52387
 20
1.55399
 30
0.0
 40
0
 41
0
  0
VERTEX
  8
0
 10
3.52419
 20
1.56228
 30
0.0
 40
0
 41
0
  0
VERTEX
  8
0
 10
3.52365
 20
1.56776
 30
0.0
 40
0
 41
0
  0
VERTEX
  8
0
 10
3.52344
 20
1.57047
 30
0.0
 40
0
 41
0
  0
VERTEX
  8
0
 10
3.52165
 20
1.57856
 30
0.0
 40
0
 41
0
  0
VERTEX
  8
0
 10
3.51887
 20
1.58638
 30
0.0
 40
0
 41
0
  0
VERTEX
  8
0
 10
3.51519
 20
1.59375
 30
0.0
 40
0
 41
0
  0
VERTEX
  8
0
 10
3.51069
 20
1.60064
 30
0.0
 40
0
 41
0
  0
VERTEX
  8
0
 10
3.50526
 20
1.60688
 30
0.0
 40
0
 41
0
  0
VERTEX
  8
0
 10
3.49918
 20
1.61247
 30
0.0
 40
0
 41
0
  0
VERTEX
  8
0
 10
3.49246
 20
1.61724
 30
0.0
 40
0
 41
0
  0
VERTEX
  8
0
 10
3.48514
 20
1.62115
 30
0.0
 40
0
 41
0
  0
VERTEX
  8
0
 10
3.47743
 20
1.62414
 30
0.0
 40
0
 41
0
  0
VERTEX
  8
0
 10
3.46946
 20
1.62614
 30
0.0
 40
0
 41
0
  0
VERTEX
  8
0
 10
3.46126
 20
1.62711
 30
0.0
 40
0
 41
0
  0
VERTEX
  8
0
 10
3.45301
 20
1.62711
 30
0.0
 40
0
 41
0
  0
VERTEX
  8
0
 10
3.44482
 20
1.62614
 30
0.0
 40
0
 41
0
  0
VERTEX
  8
0
 10
3.43679
 20
1.62414
 30
0.0
 40
0
 41
0
  0
VERTEX
  8
0
 10
3.42904
 20
1.62115
 30
0.0
 40
0
 41
0
  0
VERTEX
  8
0
 10
3.42182
 20
1.61724
 30
0.0
 40
0
 41
0
  0
VERTEX
  8
0
 10
3.41504
 20
1.61247
 30
0.0
 40
0
 41
0
  0
VERTEX
  8
0
 10
3.40896
 20
1.60688
 30
0.0
 40
0
 41
0
  0
VERTEX
  8
0
 10
3.4036
 20
1.60064
 30
0.0
 40
0
 41
0
  0
VERTEX
  8
0
 10
3.39903
 20
1.59375
 30
0.0
 40
0
 41
0
  0
VERTEX
  8
0
 10
3.39529
 20
1.58638
 30
0.0
 40
0
 41
0
  0
VERTEX
  8
0
 10
3.39258
 20
1.57856
 30
0.0
 40
0
 41
0
  0
VERTEX
  8
0
 10
3.39085
 20
1.57047
 30
0.0
 40
0
 41
0
  0
VERTEX
  8
0
 10
3.39057
 20
1.56776
 30
0.0
 40
0
 41
0
  0
VERTEX
  8
0
 10
3.39003
 20
1.56228
 30
0.0
 40
0
 41
0
  0
VERTEX
  8
0
 10
3.39031
 20
1.55399
 30
0.0
 40
0
 41
0
  0
VERTEX
  8
0
 10
3.3916
 20
1.54585
 30
0.0
 40
0
 41
0
  0
VERTEX
  8
0
 10
3.39382
 20
1.53787
 30
0.0
 40
0
 41
0
  0
VERTEX
  8
0
 10
3.39703
 20
1.53028
 30
0.0
 40
0
 41
0
  0
VERTEX
  8
0
 10
3.39871
 20
1.52746
 30
0.0
 40
0
 41
0
  0
VERTEX
  8
0
 10
3.40121
 20
1.52311
 30
0.0
 40
0
 41
0
  0
VERTEX
  8
0
 10
3.40619
 20
1.51654
 30
0.0
 40
0
 41
0
  0
VERTEX
  8
0
 10
3.41194
 20
1.51058
 30
0.0
 40
0
 41
0
  0
VERTEX
  8
0
 10
3.41835
 20
1.50543
 30
0.0
 40
0
 41
0
  0
VERTEX
  8
0
 10
3.42535
 20
1.50108
 30
0.0
 40
0
 41
0
  0
VERTEX
  8
0
 10
3.43289
 20
1.49767
 30
0.0
 40
0
 41
0
  0
VERTEX
  8
0
 10
3.44075
 20
1.49511
 30
0.0
 40
0
 41
0
  0
VERTEX
  8
0
 10
3.44883
 20
1.4936
 30
0.0
 40
0
 41
0
  0
SEQEND
 8
0
  0
POLYLINE
  8
0
 62
     1
 66
     1
 10
0
 20
0
 30
0.0
 70
     1
 40
0.0107136
 41
0.0107136
  0
VERTEX
  8
0
 10
2.08442
 20
2.30063
 30
0.0
 40
0.0001488
 41
0.0001488
  0
VERTEX
  8
0
 10
2.18582
 20
2.25103
 30
0.0
 40
0.0001488
 41
0.0001488
  0
VERTEX
  8
0
 10
2.20264
 20
2.24278
 30
0.0
 40
0.0001488
 41
0.0001488
  0
VERTEX
  8
0
 10
2.26594
 20
2.21278
 30
0.0
 40
0.0001488
 41
0.0001488
  0
VERTEX
  8
0
 10
2.33279
 20
2.1811
 30
0.0
 40
0.0001488
 41
0.0001488
  0
VERTEX
  8
0
 10
2.47065
 20
2.11774
 30
0.0
 40
0.0001488
 41
0.0001488
  0
VERTEX
  8
0
 10
2.57183
 20
2.07243
 30
0.0
 40
0.0001488
 41
0.0001488
  0
VERTEX
  8
0
 10
2.60097
 20
2.05935
 30
0.0
 40
0.0001488
 41
0.0001488
  0
VERTEX
  8
0
 10
2.61481
 20
2.05317
 30
0.0
 40
0.0001488
 41
0.0001488
  0
VERTEX
  8
0
 10
2.76394
 20
1.98807
 30
0.0
 40
0.0001488
 41
0.0001488
  0
VERTEX
  8
0
 10
2.91656
 20
1.92312
 30
0.0
 40
0.0001488
 41
0.0001488
  0
VERTEX
  8
0
 10
3.07124
 20
1.85889
 30
0.0
 40
0.0001488
 41
0.0001488
  0
VERTEX
  8
0
 10
3.0981
 20
1.84804
 30
0.0
 40
0.0001488
 41
0.0001488
  0
VERTEX
  8
0
 10
3.21685
 20
1.79997
 30
0.0
 40
0.0001488
 41
0.0001488
  0
VERTEX
  8
0
 10
3.22651
 20
1.79606
 30
0.0
 40
0.0001488
 41
0.0001488
  0
VERTEX
  8
0
 10
3.38081
 20
1.73508
 30
0.0
 40
0.0001488
 41
0.0001488
  0
VERTEX
  8
0
 10
3.53267
 20
1.67671
 30
0.0
 40
0.0001488
 41
0.0001488
  0
VERTEX
  8
0
 10
3.68061
 20
1.62142
 30
0.0
 40
0.0001488
 41
0.0001488
  0
VERTEX
  8
0
 10
3.82324
 20
1.56982
 30
0.0
 40
0.0001488
 41
0.0001488
  0
VERTEX
  8
0
 10
3.83746
 20
1.56483
 30
0.0
 40
0.0001488
 41
0.0001488
  0
VERTEX
  8
0
 10
3.86187
 20
1.55632
 30
0.0
 40
0.0001488
 41
0.0001488
  0
VERTEX
  8
0
 10
3.9509
 20
1.52522
 30
0.0
 40
0.0001488
 41
0.0001488
  0
VERTEX
  8
0
 10
3.95925
 20
1.52229
 30
0.0
 40
0.0001488
 41
0.0001488
  0
VERTEX
  8
0
 10
4.0019
 20
1.50803
 30
0.0
 40
0.0001488
 41
0.0001488
  0
VERTEX
  8
0
 10
4.08718
 20
1.47939
 30
0.0
 40
0.0001488
 41
0.0001488
  0
VERTEX
  8
0
 10
4.09912
 20
1.47558
 30
0.0
 40
0.0001488
 41
0.0001488
  0
VERTEX
  8
0
 10
4.19982
 20
1.44347
 30
0.0
 40
0.0001488
 41
0.0001488
  0
VERTEX
  8
0
 10
4.206
 20
1.44146
 30
0.0
 40
0.0001488
 41
0.0001488
  0
VERTEX
  8
0
 10
4.30675
 20
1.41124
 30
0.0
 40
0.0001488
 41
0.0001488
  0
VERTEX
  8
0
 10
4.30903
 20
1.41054
 30
0.0
 40
0.0001488
 41
0.0001488
  0
VERTEX
  8
0
 10
4.30985
 20
1.41026
 30
0.0
 40
0.0001488
 41
0.0001488
  0
VERTEX
  8
0
 10
4.31435
 20
1.40896
 30
0.0
 40
0.0001488
 41
0.0001488
  0
VERTEX
  8
0
 10
4.41129
 20
1.38211
 30
0.0
 40
0.0001488
 41
0.0001488
  0
VERTEX
  8
0
 10
4.41319
 20
1.38162
 30
0.0
 40
0.0001488
 41
0.0001488
  0
VERTEX
  8
0
 10
4.41781
 20
1.38048
 30
0.0
 40
0.0001488
 41
0.0001488
  0
VERTEX
  8
0
 10
4.43892
 20
1.37468
 30
0.0
 40
0.0001488
 41
0.0001488
  0
VERTEX
  8
0
 10
4.50694
 20
1.3584
 30
0.0
 40
0.0001488
 41
0.0001488
  0
VERTEX
  8
0
 10
4.5599
 20
1.3457
 30
0.0
 40
0.0001488
 41
0.0001488
  0
VERTEX
  8
0
 10
4.59267
 20
1.33936
 30
0.0
 40
0.0001488
 41
0.0001488
  0
VERTEX
  8
0
 10
4.74457
 20
1.30344
 30
0.0
 40
0.0001488
 41
0.0001488
  0
VERTEX
  8
0
 10
4.80296
 20
1.28966
 30
0.0
 40
0.0001488
 41
0.0001488
  0
VERTEX
  8
0
 10
4.84099
 20
1.28065
 30
0.0
 40
0.0001488
 41
0.0001488
  0
VERTEX
  8
0
 10
4.84185
 20
1.28044
 30
0.0
 40
0.0001488
 41
0.0001488
  0
VERTEX
  8
0
 10
4.87056
 20
1.27365
 30
0.0
 40
0.0001488
 41
0.0001488
  0
VERTEX
  8
0
 10
4.87315
 20
1.27306
 30
0.0
 40
0.0001488
 41
0.0001488
  0
VERTEX
  8
0
 10
4.87315
 20
1.27311
 30
0.0
 40
0.0001488
 41
0.0001488
  0
VERTEX
  8
0
 10
4.87332
 20
1.27371
 30
0.0
 40
0.0001488
 41
0.0001488
  0
VERTEX
  8
0
 10
4.87337
 20
1.27409
 30
0.0
 40
0.0001488
 41
0.0001488
  0
VERTEX
  8
0
 10
4.90218
 20
1.29525
 30
0.0
 40
0.0001488
 41
0.0001488
  0
VERTEX
  8
0
 10
4.91021
 20
1.30116
 30
0.0
 40
0.0001488
 41
0.0001488
  0
VERTEX
  8
0
 10
5.00401
 20
1.37012
 30
0.0
 40
0.0001488
 41
0.0001488
  0
VERTEX
  8
0
 10
5.32238
 20
1.24539
 30
0.0
 40
0.0001488
 41
0.0001488
  0
VERTEX
  8
0
 10
5.33501
 20
1.24045
 30
0.0
 40
0.0001488
 41
0.0001488
  0
VERTEX
  8
0
 10
5.78276
 20
1.21381
 30
0.0
 40
0.0001488
 41
0.0001488
  0
VERTEX
  8
0
 10
5.85661
 20
0.930285
 30
0.0
 40
0.0001488
 41
0.0001488
  0
VERTEX
  8
0
 10
5.87429
 20
0.862522
 30
0.0
 40
0.0001488
 41
0.0001488
  0
VERTEX
  8
0
 10
5.88069
 20
0.837999
 30
0.0
 40
0.0001488
 41
0.0001488
  0
VERTEX
  8
0
 10
5.89947
 20
0.76595
 30
0.0
 40
0.0001488
 41
0.0001488
  0
VERTEX
  8
0
 10
5.83268
 20
0.723253
 30
0.0
 40
0.0001488
 41
0.0001488
  0
VERTEX
  8
0
 10
5.8004
 20
0.702636
 30
0.0
 40
0.0001488
 41
0.0001488
  0
VERTEX
  8
0
 10
5.68381
 20
0.628039
 30
0.0
 40
0.0001488
 41
0.0001488
  0
VERTEX
  8
0
 10
5.69526
 20
0.568576
 30
0.0
 40
0.0001488
 41
0.0001488
  0
VERTEX
  8
0
 10
5.64887
 20
0.534451
 30
0.0
 40
0.0001488
 41
0.0001488
  0
VERTEX
  8
0
 10
5.68608
 20
0.391601
 30
0.0
 40
0.0001488
 41
0.0001488
  0
VERTEX
  8
0
 10
5.70068
 20
0.335504
 30
0.0
 40
0.0001488
 41
0.0001488
  0
VERTEX
  8
0
 10
5.71089
 20
0.296224
 30
0.0
 40
0.0001488
 41
0.0001488
  0
VERTEX
  8
0
 10
5.71268
 20
0.289442
 30
0.0
 40
0.0001488
 41
0.0001488
  0
VERTEX
  8
0
 10
5.56874
 20
0.197374
 30
0.0
 40
0.0001488
 41
0.0001488
  0
VERTEX
  8
0
 10
5.42264
 20
0.10395
 30
0.0
 40
0.0001488
 41
0.0001488
  0
VERTEX
  8
0
 10
5.32281
 20
0.0400933
 30
0.0
 40
0.0001488
 41
0.0001488
  0
VERTEX
  8
0
 10
5.15924
 20
0.174425
 30
0.0
 40
0.0001488
 41
0.0001488
  0
VERTEX
  8
0
 10
4.98807
 20
0.31505
 30
0.0
 40
0.0001488
 41
0.0001488
  0
VERTEX
  8
0
 10
4.64794
 20
0.448351
 30
0.0
 40
0.0001488
 41
0.0001488
  0
VERTEX
  8
0
 10
4.62315
 20
0.567925
 30
0.0
 40
0.0001488
 41
0.0001488
  0
VERTEX
  8
0
 10
4.62115
 20
0.577854
 30
0.0
 40
0.0001488
 41
0.0001488
  0
VERTEX
  8
0
 10
4.61496
 20
0.607747
 30
0.0
 40
0.0001488
 41
0.0001488
  0
VERTEX
  8
0
 10
4.61339
 20
0.615343
 30
0.0
 40
0.0001488
 41
0.0001488
  0
VERTEX
  8
0
 10
4.61225
 20
0.620714
 30
0.0
 40
0.0001488
 41
0.0001488
  0
VERTEX
  8
0
 10
4.60792
 20
0.641818
 30
0.0
 40
0.0001488
 41
0.0001488
  0
VERTEX
  8
0
 10
4.60775
 20
0.642469
 30
0.0
 40
0.0001488
 41
0.0001488
  0
VERTEX
  8
0
 10
4.60678
 20
0.642253
 30
0.0
 40
0.0001488
 41
0.0001488
  0
VERTEX
  8
0
 10
4.60672
 20
0.642253
 30
0.0
 40
0.0001488
 41
0.0001488
  0
VERTEX
  8
0
 10
4.45426
 20
0.702636
 30
0.0
 40
0.0001488
 41
0.0001488
  0
VERTEX
  8
0
 10
4.41922
 20
0.716471
 30
0.0
 40
0.0001488
 41
0.0001488
  0
VERTEX
  8
0
 10
4.39415
 20
0.7264
 30
0.0
 40
0.0001488
 41
0.0001488
  0
VERTEX
  8
0
 10
4.29411
 20
0.766004
 30
0.0
 40
0.0001488
 41
0.0001488
  0
VERTEX
  8
0
 10
4.27175
 20
0.774849
 30
0.0
 40
0.0001488
 41
0.0001488
  0
VERTEX
  8
0
 10
4.22412
 20
0.793728
 30
0.0
 40
0.0001488
 41
0.0001488
  0
VERTEX
  8
0
 10
4.2149
 20
0.797364
 30
0.0
 40
0.0001488
 41
0.0001488
  0
VERTEX
  8
0
 10
4.20372
 20
0.801812
 30
0.0
 40
0.0001488
 41
0.0001488
  0
VERTEX
  8
0
 10
4.1844
 20
0.809463
 30
0.0
 40
0.0001488
 41
0.0001488
  0
VERTEX
  8
0
 10
3.9975
 20
0.88341
 30
0.0
 40
0.0001488
 41
0.0001488
  0
VERTEX
  8
0
 10
3.98822
 20
0.887099
 30
0.0
 40
0.0001488
 41
0.0001488
  0
VERTEX
  8
0
 10
3.97601
 20
0.892307
 30
0.0
 40
0.0001488
 41
0.0001488
  0
VERTEX
  8
0
 10
3.91254
 20
0.919488
 30
0.0
 40
0.0001488
 41
0.0001488
  0
VERTEX
  8
0
 10
3.90489
 20
0.922743
 30
0.0
 40
0.0001488
 41
0.0001488
  0
VERTEX
  8
0
 10
3.86187
 20
0.940972
 30
0.0
 40
0.0001488
 41
0.0001488
  0
VERTEX
  8
0
 10
3.78733
 20
0.972657
 30
0.0
 40
0.0001488
 41
0.0001488
  0
VERTEX
  8
0
 10
3.65522
 20
1.02837
 30
0.0
 40
0.0001488
 41
0.0001488
  0
VERTEX
  8
0
 10
3.62294
 20
1.04183
 30
0.0
 40
0.0001488
 41
0.0001488
  0
VERTEX
  8
0
 10
3.51747
 20
1.08599
 30
0.0
 40
0.0001488
 41
0.0001488
  0
VERTEX
  8
0
 10
3.37549
 20
1.14507
 30
0.0
 40
0.0001488
 41
0.0001488
  0
VERTEX
  8
0
 10
3.23058
 20
1.20508
 30
0.0
 40
0.0001488
 41
0.0001488
  0
VERTEX
  8
0
 10
3.21685
 20
1.21067
 30
0.0
 40
0.0001488
 41
0.0001488
  0
VERTEX
  8
0
 10
3.08404
 20
1.26535
 30
0.0
 40
0.0001488
 41
0.0001488
  0
VERTEX
  8
0
 10
2.9375
 20
1.3253
 30
0.0
 40
0.0001488
 41
0.0001488
  0
VERTEX
  8
0
 10
2.79215
 20
1.38433
 30
0.0
 40
0.0001488
 41
0.0001488
  0
VERTEX
  8
0
 10
2.64958
 20
1.442
 30
0.0
 40
0.0001488
 41
0.0001488
  0
VERTEX
  8
0
 10
2.57183
 20
1.47319
 30
0.0
 40
0.0001488
 41
0.0001488
  0
VERTEX
  8
0
 10
2.51101
 20
1.49767
 30
0.0
 40
0.0001488
 41
0.0001488
  0
VERTEX
  8
0
 10
2.39035
 20
1.54579
 30
0.0
 40
0.0001488
 41
0.0001488
  0
VERTEX
  8
0
 10
2.37788
 20
1.55078
 30
0.0
 40
0.0001488
 41
0.0001488
  0
VERTEX
  8
0
 10
2.25142
 20
1.60086
 30
0.0
 40
0.0001488
 41
0.0001488
  0
VERTEX
  8
0
 10
2.13282
 20
1.6474
 30
0.0
 40
0.0001488
 41
0.0001488
  0
VERTEX
  8
0
 10
2.02333
 20
1.69
 30
0.0
 40
0.0001488
 41
0.0001488
  0
VERTEX
  8
0
 10
1.92676
 20
1.72706
 30
0.0
 40
0.0001488
 41
0.0001488
  0
VERTEX
  8
0
 10
1.92389
 20
1.72814
 30
0.0
 40
0.0001488
 41
0.0001488
  0
VERTEX
  8
0
 10
1.8355
 20
1.76161
 30
0.0
 40
0.0001488
 41
0.0001488
  0
VERTEX
  8
0
 10
1.759
 20
1.78999
 30
0.0
 40
0.0001488
 41
0.0001488
  0
VERTEX
  8
0
 10
1.69521
 20
1.81299
 30
0.0
 40
0.0001488
 41
0.0001488
  0
VERTEX
  8
0
 10
1.67817
 20
1.8189
 30
0.0
 40
0.0001488
 41
0.0001488
  0
VERTEX
  8
0
 10
1.66672
 20
1.8234
 30
0.0
 40
0.0001488
 41
0.0001488
  0
VERTEX
  8
0
 10
1.64094
 20
1.83361
 30
0.0
 40
0.0001488
 41
0.0001488
  0
VERTEX
  8
0
 10
1.60449
 20
1.84804
 30
0.0
 40
0.0001488
 41
0.0001488
  0
VERTEX
  8
0
 10
1.57661
 20
1.85906
 30
0.0
 40
0.0001488
 41
0.0001488
  0
VERTEX
  8
0
 10
1.53
 20
1.8775
 30
0.0
 40
0.0001488
 41
0.0001488
  0
VERTEX
  8
0
 10
1.36388
 20
1.94331
 30
0.0
 40
0.0001488
 41
0.0001488
  0
VERTEX
  8
0
 10
1.30496
 20
1.96658
 30
0.0
 40
0.0001488
 41
0.0001488
  0
VERTEX
  8
0
 10
1.28174
 20
1.96403
 30
0.0
 40
0.0001488
 41
0.0001488
  0
VERTEX
  8
0
 10
1.27794
 20
1.9636
 30
0.0
 40
0.0001488
 41
0.0001488
  0
VERTEX
  8
0
 10
1.27555
 20
1.96332
 30
0.0
 40
0.0001488
 41
0.0001488
  0
VERTEX
  8
0
 10
1.26796
 20
1.96251
 30
0.0
 40
0.0001488
 41
0.0001488
  0
VERTEX
  8
0
 10
1.25483
 20
1.96104
 30
0.0
 40
0.0001488
 41
0.0001488
  0
VERTEX
  8
0
 10
1.24072
 20
1.95953
 30
0.0
 40
0.0001488
 41
0.0001488
  0
VERTEX
  8
0
 10
1.13525
 20
1.95074
 30
0.0
 40
0.0001488
 41
0.0001488
  0
VERTEX
  8
0
 10
1.03418
 20
1.94532
 30
0.0
 40
0.0001488
 41
0.0001488
  0
VERTEX
  8
0
 10
0.938585
 20
1.94331
 30
0.0
 40
0.0001488
 41
0.0001488
  0
VERTEX
  8
0
 10
0.849338
 20
1.94472
 30
0.0
 40
0.0001488
 41
0.0001488
  0
VERTEX
  8
0
 10
0.767307
 20
1.9496
 30
0.0
 40
0.0001488
 41
0.0001488
  0
VERTEX
  8
0
 10
0.69336
 20
1.9579
 30
0.0
 40
0.0001488
 41
0.0001488
  0
VERTEX
  8
0
 10
0.636719
 20
1.96789
 30
0.0
 40
0.0001488
 41
0.0001488
  0
VERTEX
  8
0
 10
0.628093
 20
1.9694
 30
0.0
 40
0.0001488
 41
0.0001488
  0
VERTEX
  8
0
 10
0.572211
 20
1.98415
 30
0.0
 40
0.0001488
 41
0.0001488
  0
VERTEX
  8
0
 10
0.548122
 20
1.99343
 30
0.0
 40
0.0001488
 41
0.0001488
  0
VERTEX
  8
0
 10
0.526204
 20
2.00196
 30
0.0
 40
0.0001488
 41
0.0001488
  0
VERTEX
  8
0
 10
0.490614
 20
2.02262
 30
0.0
 40
0.0001488
 41
0.0001488
  0
VERTEX
  8
0
 10
0.465603
 20
2.04596
 30
0.0
 40
0.0001488
 41
0.0001488
  0
VERTEX
  8
0
 10
0.451551
 20
2.07172
 30
0.0
 40
0.0001488
 41
0.0001488
  0
VERTEX
  8
0
 10
0.448568
 20
2.09978
 30
0.0
 40
0.0001488
 41
0.0001488
  0
VERTEX
  8
0
 10
0.456706
 20
2.12972
 30
0.0
 40
0.0001488
 41
0.0001488
  0
VERTEX
  8
0
 10
0.475803
 20
2.16129
 30
0.0
 40
0.0001488
 41
0.0001488
  0
VERTEX
  8
0
 10
0.505806
 20
2.19417
 30
0.0
 40
0.0001488
 41
0.0001488
  0
VERTEX
  8
0
 10
0.527994
 20
2.21278
 30
0.0
 40
0.0001488
 41
0.0001488
  0
VERTEX
  8
0
 10
0.546278
 20
2.22814
 30
0.0
 40
0.0001488
 41
0.0001488
  0
VERTEX
  8
0
 10
0.551921
 20
2.23193
 30
0.0
 40
0.0001488
 41
0.0001488
  0
VERTEX
  8
0
 10
0.596951
 20
2.26275
 30
0.0
 40
0.0001488
 41
0.0001488
  0
VERTEX
  8
0
 10
0.597765
 20
2.26324
 30
0.0
 40
0.0001488
 41
0.0001488
  0
VERTEX
  8
0
 10
0.624838
 20
2.27897
 30
0.0
 40
0.0001488
 41
0.0001488
  0
VERTEX
  8
0
 10
0.636719
 20
2.28586
 30
0.0
 40
0.0001488
 41
0.0001488
  0
VERTEX
  8
0
 10
0.651367
 20
2.29438
 30
0.0
 40
0.0001488
 41
0.0001488
  0
VERTEX
  8
0
 10
0.657226
 20
2.29775
 30
0.0
 40
0.0001488
 41
0.0001488
  0
VERTEX
  8
0
 10
0.691351
 20
2.315
 30
0.0
 40
0.0001488
 41
0.0001488
  0
VERTEX
  8
0
 10
0.689615
 20
2.31629
 30
0.0
 40
0.0001488
 41
0.0001488
  0
VERTEX
  8
0
 10
0.684787
 20
2.31982
 30
0.0
 40
0.0001488
 41
0.0001488
  0
VERTEX
  8
0
 10
0.677246
 20
2.32536
 30
0.0
 40
0.0001488
 41
0.0001488
  0
VERTEX
  8
0
 10
0.66721
 20
2.33274
 30
0.0
 40
0.0001488
 41
0.0001488
  0
VERTEX
  8
0
 10
0.636719
 20
2.35514
 30
0.0
 40
0.0001488
 41
0.0001488
  0
VERTEX
  8
0
 10
0.236762
 20
2.64899
 30
0.0
 40
0.0001488
 41
0.0001488
  0
VERTEX
  8
0
 10
0.236654
 20
2.64903
 30
0.0
 40
0.0001488
 41
0.0001488
  0
VERTEX
  8
0
 10
0.225586
 20
2.65717
 30
0.0
 40
0.0001488
 41
0.0001488
  0
VERTEX
  8
0
 10
0.0818143
 20
2.76281
 30
0.0
 40
0.0001488
 41
0.0001488
  0
VERTEX
  8
0
 10
0.0810547
 20
2.76329
 30
0.0
 40
0.0001488
 41
0.0001488
  0
VERTEX
  8
0
 10
0.0756836
 20
2.76758
 30
0.0
 40
0.0001488
 41
0.0001488
  0
VERTEX
  8
0
 10
0.0529514
 20
2.78554
 30
0.0
 40
0.0001488
 41
0.0001488
  0
VERTEX
  8
0
 10
0.0439996
 20
2.79258
 30
0.0
 40
0.0001488
 41
0.0001488
  0
VERTEX
  8
0
 10
0.04324
 20
2.79318
 30
0.0
 40
0.0001488
 41
0.0001488
  0
VERTEX
  8
0
 10
0.0393881
 20
2.79318
 30
0.0
 40
0.0001488
 41
0.0001488
  0
VERTEX
  8
0
 10
0.0393881
 20
3.37728
 30
0.0
 40
0.0001488
 41
0.0001488
  0
VERTEX
  8
0
 10
0.643881
 20
3.37728
 30
0.0
 40
0.0001488
 41
0.0001488
  0
VERTEX
  8
0
 10
0.643881
 20
3.29394
 30
0.0
 40
0.0001488
 41
0.0001488
  0
VERTEX
  8
0
 10
0.647949
 20
3.28842
 30
0.0
 40
0.0001488
 41
0.0001488
  0
VERTEX
  8
0
 10
0.685981
 20
3.23742
 30
0.0
 40
0.0001488
 41
0.0001488
  0
VERTEX
  8
0
 10
0.698893
 20
3.22
 30
0.0
 40
0.0001488
 41
0.0001488
  0
VERTEX
  8
0
 10
0.783854
 20
3.12565
 30
0.0
 40
0.0001488
 41
0.0001488
  0
VERTEX
  8
0
 10
0.832519
 20
3.07949
 30
0.0
 40
0.0001488
 41
0.0001488
  0
VERTEX
  8
0
 10
0.838596
 20
3.07379
 30
0.0
 40
0.0001488
 41
0.0001488
  0
VERTEX
  8
0
 10
0.841146
 20
3.07107
 30
0.0
 40
0.0001488
 41
0.0001488
  0
VERTEX
  8
0
 10
0.848958
 20
3.06392
 30
0.0
 40
0.0001488
 41
0.0001488
  0
VERTEX
  8
0
 10
0.883464
 20
3.03125
 30
0.0
 40
0.0001488
 41
0.0001488
  0
VERTEX
  8
0
 10
0.897081
 20
3.01997
 30
0.0
 40
0.0001488
 41
0.0001488
  0
VERTEX
  8
0
 10
0.91314
 20
3.00532
 30
0.0
 40
0.0001488
 41
0.0001488
  0
VERTEX
  8
0
 10
0.959201
 20
2.96761
 30
0.0
 40
0.0001488
 41
0.0001488
  0
VERTEX
  8
0
 10
0.987468
 20
2.9445
 30
0.0
 40
0.0001488
 41
0.0001488
  0
VERTEX
  8
0
 10
0.998264
 20
2.93565
 30
0.0
 40
0.0001488
 41
0.0001488
  0
VERTEX
  8
0
 10
1.00472
 20
2.93083
 30
0.0
 40
0.0001488
 41
0.0001488
  0
VERTEX
  8
0
 10
1.04216
 20
2.90294
 30
0.0
 40
0.0001488
 41
0.0001488
  0
VERTEX
  8
0
 10
1.07596
 20
2.87765
 30
0.0
 40
0.0001488
 41
0.0001488
  0
VERTEX
  8
0
 10
1.08941
 20
2.86762
 30
0.0
 40
0.0001488
 41
0.0001488
  0
VERTEX
  8
0
 10
1.09576
 20
2.8629
 30
0.0
 40
0.0001488
 41
0.0001488
  0
VERTEX
  8
0
 10
1.10303
 20
2.85786
 30
0.0
 40
0.0001488
 41
0.0001488
  0
VERTEX
  8
0
 10
1.10927
 20
2.85357
 30
0.0
 40
0.0001488
 41
0.0001488
  0
VERTEX
  8
0
 10
1.1422
 20
2.83074
 30
0.0
 40
0.0001488
 41
0.0001488
  0
VERTEX
  8
0
 10
1.17177
 20
2.81028
 30
0.0
 40
0.0001488
 41
0.0001488
  0
VERTEX
  8
0
 10
1.19108
 20
2.79693
 30
0.0
 40
0.0001488
 41
0.0001488
  0
VERTEX
  8
0
 10
1.19569
 20
2.79378
 30
0.0
 40
0.0001488
 41
0.0001488
  0
VERTEX
  8
0
 10
1.20459
 20
2.7876
 30
0.0
 40
0.0001488
 41
0.0001488
  0
VERTEX
  8
0
 10
1.21072
 20
2.78364
 30
0.0
 40
0.0001488
 41
0.0001488
  0
VERTEX
  8
0
 10
1.28174
 20
2.73774
 30
0.0
 40
0.0001488
 41
0.0001488
  0
VERTEX
  8
0
 10
1.32378
 20
2.71056
 30
0.0
 40
0.0001488
 41
0.0001488
  0
VERTEX
  8
0
 10
1.34315
 20
2.69879
 30
0.0
 40
0.0001488
 41
0.0001488
  0
VERTEX
  8
0
 10
1.40429
 20
2.66157
 30
0.0
 40
0.0001488
 41
0.0001488
  0
VERTEX
  8
0
 10
1.41385
 20
2.65576
 30
0.0
 40
0.0001488
 41
0.0001488
  0
VERTEX
  8
0
 10
1.45215
 20
2.63249
 30
0.0
 40
0.0001488
 41
0.0001488
  0
VERTEX
  8
0
 10
1.58328
 20
2.55718
 30
0.0
 40
0.0001488
 41
0.0001488
  0
VERTEX
  8
0
 10
1.58849
 20
2.55419
 30
0.0
 40
0.0001488
 41
0.0001488
  0
VERTEX
  8
0
 10
1.73144
 20
2.47635
 30
0.0
 40
0.0001488
 41
0.0001488
  0
VERTEX
  8
0
 10
1.79189
 20
2.4451
 30
0.0
 40
0.0001488
 41
0.0001488
  0
VERTEX
  8
0
 10
1.87967
 20
2.39974
 30
0.0
 40
0.0001488
 41
0.0001488
  0
VERTEX
  8
0
 10
1.91781
 20
2.38103
 30
0.0
 40
0.0001488
 41
0.0001488
  0
VERTEX
  8
0
 10
1.92676
 20
2.37663
 30
0.0
 40
0.0001488
 41
0.0001488
  0
VERTEX
  8
0
 10
2.03179
 20
2.32514
 30
0.0
 40
0.0001488
 41
0.0001488
  0
VERTEX
  8
0
 10
2.08442
 20
2.30063
 30
0.0
 40
0.0001488
 41
0.0001488
  0
SEQEND
 8
0
  0
POLYLINE
  8
0
 62
     1
 66
     1
 10
0
 20
0
 30
0.0
 70
     1
 40
0.0107136
 41
0.0107136
  0
VERTEX
  8
0
 10
0.705296
 20
2.08718
 30
0.0
 40
0.0001488
 41
0.0001488
  0
VERTEX
  8
0
 10
0.705838
 20
2.09597
 30
0.0
 40
0.0001488
 41
0.0001488
  0
VERTEX
  8
0
 10
0.70535
 20
2.10482
 30
0.0
 40
0.0001488
 41
0.0001488
  0
VERTEX
  8
0
 10
0.703939
 20
2.11356
 30
0.0
 40
0.0001488
 41
0.0001488
  0
VERTEX
  8
0
 10
0.701551
 20
2.12207
 30
0.0
 40
0.0001488
 41
0.0001488
  0
VERTEX
  8
0
 10
0.698188
 20
2.13026
 30
0.0
 40
0.0001488
 41
0.0001488
  0
VERTEX
  8
0
 10
0.697157
 20
2.13217
 30
0.0
 40
0.0001488
 41
0.0001488
  0
VERTEX
  8
0
 10
0.693956
 20
2.13803
 30
0.0
 40
0.0001488
 41
0.0001488
  0
VERTEX
  8
0
 10
0.688857
 20
2.14524
 30
0.0
 40
0.0001488
 41
0.0001488
  0
VERTEX
  8
0
 10
0.683051
 20
2.15186
 30
0.0
 40
0.0001488
 41
0.0001488
  0
VERTEX
  8
0
 10
0.676432
 20
2.15782
 30
0.0
 40
0.0001488
 41
0.0001488
  0
VERTEX
  8
0
 10
0.669271
 20
2.16297
 30
0.0
 40
0.0001488
 41
0.0001488
  0
VERTEX
  8
0
 10
0.661567
 20
2.16726
 30
0.0
 40
0.0001488
 41
0.0001488
  0
VERTEX
  8
0
 10
0.653429
 20
2.17068
 30
0.0
 40
0.0001488
 41
0.0001488
  0
VERTEX
  8
0
 10
0.644911
 20
2.17318
 30
0.0
 40
0.0001488
 41
0.0001488
  0
VERTEX
  8
0
 10
0.636719
 20
2.17464
 30
0.0
 40
0.0001488
 41
0.0001488
  0
VERTEX
  8
0
 10
0.636231
 20
2.17469
 30
0.0
 40
0.0001488
 41
0.0001488
  0
VERTEX
  8
0
 10
0.627388
 20
2.17524
 30
0.0
 40
0.0001488
 41
0.0001488
  0
VERTEX
  8
0
 10
0.618599
 20
2.17481
 30
0.0
 40
0.0001488
 41
0.0001488
  0
VERTEX
  8
0
 10
0.609864
 20
2.17333
 30
0.0
 40
0.0001488
 41
0.0001488
  0
VERTEX
  8
0
 10
0.601346
 20
2.17096
 30
0.0
 40
0.0001488
 41
0.0001488
  0
VERTEX
  8
0
 10
0.593153
 20
2.16758
 30
0.0
 40
0.0001488
 41
0.0001488
  0
VERTEX
  8
0
 10
0.585394
 20
2.16342
 30
0.0
 40
0.0001488
 41
0.0001488
  0
VERTEX
  8
0
 10
0.578125
 20
2.15831
 30
0.0
 40
0.0001488
 41
0.0001488
  0
VERTEX
  8
0
 10
0.57156
 20
2.15246
 30
0.0
 40
0.0001488
 41
0.0001488
  0
VERTEX
  8
0
 10
0.565593
 20
2.14589
 30
0.0
 40
0.0001488
 41
0.0001488
  0
VERTEX
  8
0
 10
0.560439
 20
2.13872
 30
0.0
 40
0.0001488
 41
0.0001488
  0
VERTEX
  8
0
 10
0.556803
 20
2.13217
 30
0.0
 40
0.0001488
 41
0.0001488
  0
VERTEX
  8
0
 10
0.556153
 20
2.13103
 30
0.0
 40
0.0001488
 41
0.0001488
  0
VERTEX
  8
0
 10
0.552735
 20
2.12283
 30
0.0
 40
0.0001488
 41
0.0001488
  0
VERTEX
  8
0
 10
0.550185
 20
2.11436
 30
0.0
 40
0.0001488
 41
0.0001488
  0
VERTEX
  8
0
 10
0.548719
 20
2.10562
 30
0.0
 40
0.0001488
 41
0.0001488
  0
VERTEX
  8
0
 10
0.548122
 20
2.09685
 30
0.0
 40
0.0001488
 41
0.0001488
  0
VERTEX
  8
0
 10
0.548557
 20
2.088
 30
0.0
 40
0.0001488
 41
0.0001488
  0
VERTEX
  8
0
 10
0.550022
 20
2.07926
 30
0.0
 40
0.0001488
 41
0.0001488
  0
VERTEX
  8
0
 10
0.552463
 20
2.07075
 30
0.0
 40
0.0001488
 41
0.0001488
  0
VERTEX
  8
0
 10
0.555772
 20
2.06256
 30
0.0
 40
0.0001488
 41
0.0001488
  0
VERTEX
  8
0
 10
0.560004
 20
2.05479
 30
0.0
 40
0.0001488
 41
0.0001488
  0
VERTEX
  8
0
 10
0.562283
 20
2.05154
 30
0.0
 40
0.0001488
 41
0.0001488
  0
VERTEX
  8
0
 10
0.565104
 20
2.04758
 30
0.0
 40
0.0001488
 41
0.0001488
  0
VERTEX
  8
0
 10
0.570964
 20
2.04096
 30
0.0
 40
0.0001488
 41
0.0001488
  0
VERTEX
  8
0
 10
0.577528
 20
2.03504
 30
0.0
 40
0.0001488
 41
0.0001488
  0
VERTEX
  8
0
 10
0.58469
 20
2.02989
 30
0.0
 40
0.0001488
 41
0.0001488
  0
VERTEX
  8
0
 10
0.592393
 20
2.02556
 30
0.0
 40
0.0001488
 41
0.0001488
  0
VERTEX
  8
0
 10
0.600532
 20
2.02214
 30
0.0
 40
0.0001488
 41
0.0001488
  0
VERTEX
  8
0
 10
0.60905
 20
2.01964
 30
0.0
 40
0.0001488
 41
0.0001488
  0
VERTEX
  8
0
 10
0.617731
 20
2.01812
 30
0.0
 40
0.0001488
 41
0.0001488
  0
VERTEX
  8
0
 10
0.626574
 20
2.01758
 30
0.0
 40
0.0001488
 41
0.0001488
  0
VERTEX
  8
0
 10
0.635417
 20
2.01807
 30
0.0
 40
0.0001488
 41
0.0001488
  0
VERTEX
  8
0
 10
0.636719
 20
2.01824
 30
0.0
 40
0.0001488
 41
0.0001488
  0
VERTEX
  8
0
 10
0.644151
 20
2.01947
 30
0.0
 40
0.0001488
 41
0.0001488
  0
VERTEX
  8
0
 10
0.652615
 20
2.02186
 30
0.0
 40
0.0001488
 41
0.0001488
  0
VERTEX
  8
0
 10
0.660807
 20
2.02522
 30
0.0
 40
0.0001488
 41
0.0001488
  0
VERTEX
  8
0
 10
0.668565
 20
2.02946
 30
0.0
 40
0.0001488
 41
0.0001488
  0
VERTEX
  8
0
 10
0.675836
 20
2.03456
 30
0.0
 40
0.0001488
 41
0.0001488
  0
VERTEX
  8
0
 10
0.682454
 20
2.04036
 30
0.0
 40
0.0001488
 41
0.0001488
  0
VERTEX
  8
0
 10
0.688368
 20
2.04693
 30
0.0
 40
0.0001488
 41
0.0001488
  0
VERTEX
  8
0
 10
0.691678
 20
2.05154
 30
0.0
 40
0.0001488
 41
0.0001488
  0
VERTEX
  8
0
 10
0.693522
 20
2.0541
 30
0.0
 40
0.0001488
 41
0.0001488
  0
VERTEX
  8
0
 10
0.697808
 20
2.06185
 30
0.0
 40
0.0001488
 41
0.0001488
  0
VERTEX
  8
0
 10
0.701281
 20
2.06999
 30
0.0
 40
0.0001488
 41
0.0001488
  0
VERTEX
  8
0
 10
0.703722
 20
2.0785
 30
0.0
 40
0.0001488
 41
0.0001488
  0
VERTEX
  8
0
 10
0.705296
 20
2.08718
 30
0.0
 40
0.0001488
 41
0.0001488
  0
SEQEND
 8
0
  0
POLYLINE
  8
0
 62
     1
 66
     1
 10
0
 20
0
 30
0.0
 70
     1
 40
0.0107136
 41
0.0107136
  0
VERTEX
  8
0
 10
0.397732
 20
2.90354
 30
0.0
 40
0.0001488
 41
0.0001488
  0
VERTEX
  8
0
 10
0.405871
 20
2.90007
 30
0.0
 40
0.0001488
 41
0.0001488
  0
VERTEX
  8
0
 10
0.414333
 20
2.89762
 30
0.0
 40
0.0001488
 41
0.0001488
  0
VERTEX
  8
0
 10
0.423014
 20
2.89606
 30
0.0
 40
0.0001488
 41
0.0001488
  0
VERTEX
  8
0
 10
0.431913
 20
2.89551
 30
0.0
 40
0.0001488
 41
0.0001488
  0
VERTEX
  8
0
 10
0.440701
 20
2.896
 30
0.0
 40
0.0001488
 41
0.0001488
  0
VERTEX
  8
0
 10
0.449436
 20
2.8974
 30
0.0
 40
0.0001488
 41
0.0001488
  0
VERTEX
  8
0
 10
0.4579
 20
2.89979
 30
0.0
 40
0.0001488
 41
0.0001488
  0
VERTEX
  8
0
 10
0.466092
 20
2.90315
 30
0.0
 40
0.0001488
 41
0.0001488
  0
VERTEX
  8
0
 10
0.473904
 20
2.90739
 30
0.0
 40
0.0001488
 41
0.0001488
  0
VERTEX
  8
0
 10
0.475424
 20
2.90847
 30
0.0
 40
0.0001488
 41
0.0001488
  0
VERTEX
  8
0
 10
0.481119
 20
2.91249
 30
0.0
 40
0.0001488
 41
0.0001488
  0
VERTEX
  8
0
 10
0.487739
 20
2.91829
 30
0.0
 40
0.0001488
 41
0.0001488
  0
VERTEX
  8
0
 10
0.493653
 20
2.92492
 30
0.0
 40
0.0001488
 41
0.0001488
  0
VERTEX
  8
0
 10
0.498807
 20
2.93207
 30
0.0
 40
0.0001488
 41
0.0001488
  0
VERTEX
  8
0
 10
0.502442
 20
2.93847
 30
0.0
 40
0.0001488
 41
0.0001488
  0
VERTEX
  8
0
 10
0.503147
 20
2.93978
 30
0.0
 40
0.0001488
 41
0.0001488
  0
VERTEX
  8
0
 10
0.506565
 20
2.94792
 30
0.0
 40
0.0001488
 41
0.0001488
  0
VERTEX
  8
0
 10
0.50906
 20
2.95643
 30
0.0
 40
0.0001488
 41
0.0001488
  0
VERTEX
  8
0
 10
0.510579
 20
2.96511
 30
0.0
 40
0.0001488
 41
0.0001488
  0
VERTEX
  8
0
 10
0.511122
 20
2.97396
 30
0.0
 40
0.0001488
 41
0.0001488
  0
VERTEX
  8
0
 10
0.510688
 20
2.98275
 30
0.0
 40
0.0001488
 41
0.0001488
  0
VERTEX
  8
0
 10
0.509278
 20
2.99149
 30
0.0
 40
0.0001488
 41
0.0001488
  0
VERTEX
  8
0
 10
0.506836
 20
3
 30
0.0
 40
0.0001488
 41
0.0001488
  0
VERTEX
  8
0
 10
0.503526
 20
3.00819
 30
0.0
 40
0.0001488
 41
0.0001488
  0
VERTEX
  8
0
 10
0.49924
 20
3.01594
 30
0.0
 40
0.0001488
 41
0.0001488
  0
VERTEX
  8
0
 10
0.497071
 20
3.0191
 30
0.0
 40
0.0001488
 41
0.0001488
  0
VERTEX
  8
0
 10
0.494194
 20
3.02322
 30
0.0
 40
0.0001488
 41
0.0001488
  0
VERTEX
  8
0
 10
0.488282
 20
3.02983
 30
0.0
 40
0.0001488
 41
0.0001488
  0
VERTEX
  8
0
 10
0.481771
 20
3.03575
 30
0.0
 40
0.0001488
 41
0.0001488
  0
VERTEX
  8
0
 10
0.475424
 20
3.04031
 30
0.0
 40
0.0001488
 41
0.0001488
  0
VERTEX
  8
0
 10
0.474556
 20
3.0409
 30
0.0
 40
0.0001488
 41
0.0001488
  0
VERTEX
  8
0
 10
0.466851
 20
3.04519
 30
0.0
 40
0.0001488
 41
0.0001488
  0
VERTEX
  8
0
 10
0.458713
 20
3.04861
 30
0.0
 40
0.0001488
 41
0.0001488
  0
VERTEX
  8
0
 10
0.45025
 20
3.05117
 30
0.0
 40
0.0001488
 41
0.0001488
  0
VERTEX
  8
0
 10
0.441515
 20
3.05263
 30
0.0
 40
0.0001488
 41
0.0001488
  0
VERTEX
  8
0
 10
0.432671
 20
3.05322
 30
0.0
 40
0.0001488
 41
0.0001488
  0
VERTEX
  8
0
 10
0.423882
 20
3.05279
 30
0.0
 40
0.0001488
 41
0.0001488
  0
VERTEX
  8
0
 10
0.415147
 20
3.05132
 30
0.0
 40
0.0001488
 41
0.0001488
  0
VERTEX
  8
0
 10
0.406629
 20
3.04893
 30
0.0
 40
0.0001488
 41
0.0001488
  0
VERTEX
  8
0
 10
0.398492
 20
3.04557
 30
0.0
 40
0.0001488
 41
0.0001488
  0
VERTEX
  8
0
 10
0.394803
 20
3.04357
 30
0.0
 40
0.0001488
 41
0.0001488
  0
VERTEX
  8
0
 10
0.390733
 20
3.04135
 30
0.0
 40
0.0001488
 41
0.0001488
  0
VERTEX
  8
0
 10
0.383464
 20
3.03629
 30
0.0
 40
0.0001488
 41
0.0001488
  0
VERTEX
  8
0
 10
0.37679
 20
3.03039
 30
0.0
 40
0.0001488
 41
0.0001488
  0
VERTEX
  8
0
 10
0.370931
 20
3.02382
 30
0.0
 40
0.0001488
 41
0.0001488
  0
VERTEX
  8
0
 10
0.367512
 20
3.0191
 30
0.0
 40
0.0001488
 41
0.0001488
  0
VERTEX
  8
0
 10
0.365722
 20
3.01665
 30
0.0
 40
0.0001488
 41
0.0001488
  0
VERTEX
  8
0
 10
0.361436
 20
3.00896
 30
0.0
 40
0.0001488
 41
0.0001488
  0
VERTEX
  8
0
 10
0.358018
 20
3.00082
 30
0.0
 40
0.0001488
 41
0.0001488
  0
VERTEX
  8
0
 10
0.355524
 20
2.99229
 30
0.0
 40
0.0001488
 41
0.0001488
  0
VERTEX
  8
0
 10
0.354004
 20
2.98361
 30
0.0
 40
0.0001488
 41
0.0001488
  0
VERTEX
  8
0
 10
0.353461
 20
2.97478
 30
0.0
 40
0.0001488
 41
0.0001488
  0
VERTEX
  8
0
 10
0.353896
 20
2.96599
 30
0.0
 40
0.0001488
 41
0.0001488
  0
VERTEX
  8
0
 10
0.355306
 20
2.95719
 30
0.0
 40
0.0001488
 41
0.0001488
  0
VERTEX
  8
0
 10
0.357693
 20
2.94874
 30
0.0
 40
0.0001488
 41
0.0001488
  0
VERTEX
  8
0
 10
0.361057
 20
2.94054
 30
0.0
 40
0.0001488
 41
0.0001488
  0
VERTEX
  8
0
 10
0.362196
 20
2.93847
 30
0.0
 40
0.0001488
 41
0.0001488
  0
VERTEX
  8
0
 10
0.365289
 20
2.93278
 30
0.0
 40
0.0001488
 41
0.0001488
  0
VERTEX
  8
0
 10
0.370389
 20
2.92551
 30
0.0
 40
0.0001488
 41
0.0001488
  0
VERTEX
  8
0
 10
0.376247
 20
2.91889
 30
0.0
 40
0.0001488
 41
0.0001488
  0
VERTEX
  8
0
 10
0.382813
 20
2.91303
 30
0.0
 40
0.0001488
 41
0.0001488
  0
VERTEX
  8
0
 10
0.389974
 20
2.90782
 30
0.0
 40
0.0001488
 41
0.0001488
  0
VERTEX
  8
0
 10
0.394803
 20
2.90517
 30
0.0
 40
0.0001488
 41
0.0001488
  0
VERTEX
  8
0
 10
0.397732
 20
2.90354
 30
0.0
 40
0.0001488
 41
0.0001488
  0
SEQEND
 8
0
  0
POLYLINE
  8
0
 62
     1
 66
     1
 10
0
 20
0
 30
0.0
 70
     1
 40
0.0107136
 41
0.0107136
  0
VERTEX
  8
0
 10
0.545574
 20
2.68842
 30
0.0
 40
0.0001488
 41
0.0001488
  0
VERTEX
  8
0
 10
0.555447
 20
2.67958
 30
0.0
 40
0.0001488
 41
0.0001488
  0
VERTEX
  8
0
 10
0.566189
 20
2.67188
 30
0.0
 40
0.0001488
 41
0.0001488
  0
VERTEX
  8
0
 10
0.577746
 20
2.66536
 30
0.0
 40
0.0001488
 41
0.0001488
  0
VERTEX
  8
0
 10
0.590007
 20
2.66026
 30
0.0
 40
0.0001488
 41
0.0001488
  0
VERTEX
  8
0
 10
0.602701
 20
2.65653
 30
0.0
 40
0.0001488
 41
0.0001488
  0
VERTEX
  8
0
 10
0.615722
 20
2.65424
 30
0.0
 40
0.0001488
 41
0.0001488
  0
VERTEX
  8
0
 10
0.628961
 20
2.65338
 30
0.0
 40
0.0001488
 41
0.0001488
  0
VERTEX
  8
0
 10
0.636719
 20
2.65381
 30
0.0
 40
0.0001488
 41
0.0001488
  0
VERTEX
  8
0
 10
0.642253
 20
2.65408
 30
0.0
 40
0.0001488
 41
0.0001488
  0
VERTEX
  8
0
 10
0.655328
 20
2.65625
 30
0.0
 40
0.0001488
 41
0.0001488
  0
VERTEX
  8
0
 10
0.668078
 20
2.65983
 30
0.0
 40
0.0001488
 41
0.0001488
  0
VERTEX
  8
0
 10
0.680339
 20
2.66482
 30
0.0
 40
0.0001488
 41
0.0001488
  0
VERTEX
  8
0
 10
0.691949
 20
2.67117
 30
0.0
 40
0.0001488
 41
0.0001488
  0
VERTEX
  8
0
 10
0.702854
 20
2.67882
 30
0.0
 40
0.0001488
 41
0.0001488
  0
VERTEX
  8
0
 10
0.712782
 20
2.68756
 30
0.0
 40
0.0001488
 41
0.0001488
  0
VERTEX
  8
0
 10
0.720921
 20
2.69661
 30
0.0
 40
0.0001488
 41
0.0001488
  0
VERTEX
  8
0
 10
0.721679
 20
2.69743
 30
0.0
 40
0.0001488
 41
0.0001488
  0
VERTEX
  8
0
 10
0.729383
 20
2.70822
 30
0.0
 40
0.0001488
 41
0.0001488
  0
VERTEX
  8
0
 10
0.73584
 20
2.71978
 30
0.0
 40
0.0001488
 41
0.0001488
  0
VERTEX
  8
0
 10
0.740994
 20
2.73199
 30
0.0
 40
0.0001488
 41
0.0001488
  0
VERTEX
  8
0
 10
0.744738
 20
2.74468
 30
0.0
 40
0.0001488
 41
0.0001488
  0
VERTEX
  8
0
 10
0.747017
 20
2.75776
 30
0.0
 40
0.0001488
 41
0.0001488
  0
VERTEX
  8
0
 10
0.747831
 20
2.771
 30
0.0
 40
0.0001488
 41
0.0001488
  0
VERTEX
  8
0
 10
0.747504
 20
2.77724
 30
0.0
 40
0.0001488
 41
0.0001488
  0
VERTEX
  8
0
 10
0.747125
 20
2.78424
 30
0.0
 40
0.0001488
 41
0.0001488
  0
VERTEX
  8
0
 10
0.745008
 20
2.79731
 30
0.0
 40
0.0001488
 41
0.0001488
  0
VERTEX
  8
0
 10
0.741374
 20
2.81006
 30
0.0
 40
0.0001488
 41
0.0001488
  0
VERTEX
  8
0
 10
0.736382
 20
2.82232
 30
0.0
 40
0.0001488
 41
0.0001488
  0
VERTEX
  8
0
 10
0.730035
 20
2.83399
 30
0.0
 40
0.0001488
 41
0.0001488
  0
VERTEX
  8
0
 10
0.722385
 20
2.84483
 30
0.0
 40
0.0001488
 41
0.0001488
  0
VERTEX
  8
0
 10
0.713596
 20
2.85476
 30
0.0
 40
0.0001488
 41
0.0001488
  0
VERTEX
  8
0
 10
0.710178
 20
2.85786
 30
0.0
 40
0.0001488
 41
0.0001488
  0
VERTEX
  8
0
 10
0.703776
 20
2.86367
 30
0.0
 40
0.0001488
 41
0.0001488
  0
VERTEX
  8
0
 10
0.693033
 20
2.87136
 30
0.0
 40
0.0001488
 41
0.0001488
  0
VERTEX
  8
0
 10
0.681478
 20
2.87782
 30
0.0
 40
0.0001488
 41
0.0001488
  0
VERTEX
  8
0
 10
0.669271
 20
2.88297
 30
0.0
 40
0.0001488
 41
0.0001488
  0
VERTEX
  8
0
 10
0.656521
 20
2.88672
 30
0.0
 40
0.0001488
 41
0.0001488
  0
VERTEX
  8
0
 10
0.643446
 20
2.889
 30
0.0
 40
0.0001488
 41
0.0001488
  0
VERTEX
  8
0
 10
0.630262
 20
2.88981
 30
0.0
 40
0.0001488
 41
0.0001488
  0
VERTEX
  8
0
 10
0.617025
 20
2.88917
 30
0.0
 40
0.0001488
 41
0.0001488
  0
VERTEX
  8
0
 10
0.603896
 20
2.88699
 30
0.0
 40
0.0001488
 41
0.0001488
  0
VERTEX
  8
0
 10
0.591146
 20
2.8834
 30
0.0
 40
0.0001488
 41
0.0001488
  0
VERTEX
  8
0
 10
0.578885
 20
2.87836
 30
0.0
 40
0.0001488
 41
0.0001488
  0
VERTEX
  8
0
 10
0.567219
 20
2.87201
 30
0.0
 40
0.0001488
 41
0.0001488
  0
VERTEX
  8
0
 10
0.556369
 20
2.86442
 30
0.0
 40
0.0001488
 41
0.0001488
  0
VERTEX
  8
0
 10
0.548936
 20
2.85786
 30
0.0
 40
0.0001488
 41
0.0001488
  0
VERTEX
  8
0
 10
0.546442
 20
2.85562
 30
0.0
 40
0.0001488
 41
0.0001488
  0
VERTEX
  8
0
 10
0.537597
 20
2.84581
 30
0.0
 40
0.0001488
 41
0.0001488
  0
VERTEX
  8
0
 10
0.529839
 20
2.83501
 30
0.0
 40
0.0001488
 41
0.0001488
  0
VERTEX
  8
0
 10
0.523383
 20
2.82346
 30
0.0
 40
0.0001488
 41
0.0001488
  0
VERTEX
  8
0
 10
0.518229
 20
2.81125
 30
0.0
 40
0.0001488
 41
0.0001488
  0
VERTEX
  8
0
 10
0.514486
 20
2.7985
 30
0.0
 40
0.0001488
 41
0.0001488
  0
VERTEX
  8
0
 10
0.512207
 20
2.78543
 30
0.0
 40
0.0001488
 41
0.0001488
  0
VERTEX
  8
0
 10
0.511719
 20
2.77724
 30
0.0
 40
0.0001488
 41
0.0001488
  0
VERTEX
  8
0
 10
0.511393
 20
2.77225
 30
0.0
 40
0.0001488
 41
0.0001488
  0
VERTEX
  8
0
 10
0.512099
 20
2.759
 30
0.0
 40
0.0001488
 41
0.0001488
  0
VERTEX
  8
0
 10
0.514214
 20
2.74593
 30
0.0
 40
0.0001488
 41
0.0001488
  0
VERTEX
  8
0
 10
0.51785
 20
2.73318
 30
0.0
 40
0.0001488
 41
0.0001488
  0
VERTEX
  8
0
 10
0.52284
 20
2.72086
 30
0.0
 40
0.0001488
 41
0.0001488
  0
VERTEX
  8
0
 10
0.529189
 20
2.70921
 30
0.0
 40
0.0001488
 41
0.0001488
  0
VERTEX
  8
0
 10
0.536838
 20
2.6984
 30
0.0
 40
0.0001488
 41
0.0001488
  0
VERTEX
  8
0
 10
0.538411
 20
2.69661
 30
0.0
 40
0.0001488
 41
0.0001488
  0
VERTEX
  8
0
 10
0.545574
 20
2.68842
 30
0.0
 40
0.0001488
 41
0.0001488
  0
SEQEND
 8
0
  0
POLYLINE
  8
0
 62
     1
 66
     1
 10
0
 20
0
 30
0.0
 70
     1
 40
0.0107136
 41
0.0107136
  0
VERTEX
  8
0
 10
1.20475
 20
2.21278
 30
0.0
 40
0.0001488
 41
0.0001488
  0
VERTEX
  8
0
 10
1.20904
 20
2.20503
 30
0.0
 40
0.0001488
 41
0.0001488
  0
VERTEX
  8
0
 10
1.21408
 20
2.19775
 30
0.0
 40
0.0001488
 41
0.0001488
  0
VERTEX
  8
0
 10
1.21994
 20
2.19114
 30
0.0
 40
0.0001488
 41
0.0001488
  0
VERTEX
  8
0
 10
1.22651
 20
2.18522
 30
0.0
 40
0.0001488
 41
0.0001488
  0
VERTEX
  8
0
 10
1.23372
 20
2.18007
 30
0.0
 40
0.0001488
 41
0.0001488
  0
VERTEX
  8
0
 10
1.24143
 20
2.17578
 30
0.0
 40
0.0001488
 41
0.0001488
  0
VERTEX
  8
0
 10
1.24957
 20
2.17231
 30
0.0
 40
0.0001488
 41
0.0001488
  0
VERTEX
  8
0
 10
1.25803
 20
2.16986
 30
0.0
 40
0.0001488
 41
0.0001488
  0
VERTEX
  8
0
 10
1.26671
 20
2.16829
 30
0.0
 40
0.0001488
 41
0.0001488
  0
VERTEX
  8
0
 10
1.27555
 20
2.16775
 30
0.0
 40
0.0001488
 41
0.0001488
  0
VERTEX
  8
0
 10
1.28174
 20
2.16808
 30
0.0
 40
0.0001488
 41
0.0001488
  0
VERTEX
  8
0
 10
1.2844
 20
2.16818
 30
0.0
 40
0.0001488
 41
0.0001488
  0
VERTEX
  8
0
 10
1.29313
 20
2.16965
 30
0.0
 40
0.0001488
 41
0.0001488
  0
VERTEX
  8
0
 10
1.30159
 20
2.17204
 30
0.0
 40
0.0001488
 41
0.0001488
  0
VERTEX
  8
0
 10
1.30979
 20
2.1754
 30
0.0
 40
0.0001488
 41
0.0001488
  0
VERTEX
  8
0
 10
1.31755
 20
2.17964
 30
0.0
 40
0.0001488
 41
0.0001488
  0
VERTEX
  8
0
 10
1.32482
 20
2.18468
 30
0.0
 40
0.0001488
 41
0.0001488
  0
VERTEX
  8
0
 10
1.33143
 20
2.19054
 30
0.0
 40
0.0001488
 41
0.0001488
  0
VERTEX
  8
0
 10
1.33735
 20
2.19715
 30
0.0
 40
0.0001488
 41
0.0001488
  0
VERTEX
  8
0
 10
1.3425
 20
2.20432
 30
0.0
 40
0.0001488
 41
0.0001488
  0
VERTEX
  8
0
 10
1.34679
 20
2.21203
 30
0.0
 40
0.0001488
 41
0.0001488
  0
VERTEX
  8
0
 10
1.34717
 20
2.21278
 30
0.0
 40
0.0001488
 41
0.0001488
  0
VERTEX
  8
0
 10
1.35026
 20
2.22017
 30
0.0
 40
0.0001488
 41
0.0001488
  0
VERTEX
  8
0
 10
1.35276
 20
2.22868
 30
0.0
 40
0.0001488
 41
0.0001488
  0
VERTEX
  8
0
 10
1.35427
 20
2.23736
 30
0.0
 40
0.0001488
 41
0.0001488
  0
VERTEX
  8
0
 10
1.35482
 20
2.24621
 30
0.0
 40
0.0001488
 41
0.0001488
  0
VERTEX
  8
0
 10
1.35438
 20
2.25499
 30
0.0
 40
0.0001488
 41
0.0001488
  0
VERTEX
  8
0
 10
1.35292
 20
2.26378
 30
0.0
 40
0.0001488
 41
0.0001488
  0
VERTEX
  8
0
 10
1.35053
 20
2.27225
 30
0.0
 40
0.0001488
 41
0.0001488
  0
VERTEX
  8
0
 10
1.34722
 20
2.28043
 30
0.0
 40
0.0001488
 41
0.0001488
  0
VERTEX
  8
0
 10
1.34294
 20
2.28819
 30
0.0
 40
0.0001488
 41
0.0001488
  0
VERTEX
  8
0
 10
1.3393
 20
2.29346
 30
0.0
 40
0.0001488
 41
0.0001488
  0
VERTEX
  8
0
 10
1.33789
 20
2.29546
 30
0.0
 40
0.0001488
 41
0.0001488
  0
VERTEX
  8
0
 10
1.33203
 20
2.30208
 30
0.0
 40
0.0001488
 41
0.0001488
  0
VERTEX
  8
0
 10
1.32547
 20
2.308
 30
0.0
 40
0.0001488
 41
0.0001488
  0
VERTEX
  8
0
 10
1.31825
 20
2.3131
 30
0.0
 40
0.0001488
 41
0.0001488
  0
VERTEX
  8
0
 10
1.31055
 20
2.31743
 30
0.0
 40
0.0001488
 41
0.0001488
  0
VERTEX
  8
0
 10
1.30241
 20
2.32086
 30
0.0
 40
0.0001488
 41
0.0001488
  0
VERTEX
  8
0
 10
1.29395
 20
2.32335
 30
0.0
 40
0.0001488
 41
0.0001488
  0
VERTEX
  8
0
 10
1.28521
 20
2.32488
 30
0.0
 40
0.0001488
 41
0.0001488
  0
VERTEX
  8
0
 10
1.28174
 20
2.32508
 30
0.0
 40
0.0001488
 41
0.0001488
  0
VERTEX
  8
0
 10
1.27637
 20
2.32547
 30
0.0
 40
0.0001488
 41
0.0001488
  0
VERTEX
  8
0
 10
1.26758
 20
2.32503
 30
0.0
 40
0.0001488
 41
0.0001488
  0
VERTEX
  8
0
 10
1.25884
 20
2.32357
 30
0.0
 40
0.0001488
 41
0.0001488
  0
VERTEX
  8
0
 10
1.25033
 20
2.32118
 30
0.0
 40
0.0001488
 41
0.0001488
  0
VERTEX
  8
0
 10
1.24213
 20
2.31782
 30
0.0
 40
0.0001488
 41
0.0001488
  0
VERTEX
  8
0
 10
1.23438
 20
2.31358
 30
0.0
 40
0.0001488
 41
0.0001488
  0
VERTEX
  8
0
 10
1.22711
 20
2.30854
 30
0.0
 40
0.0001488
 41
0.0001488
  0
VERTEX
  8
0
 10
1.22049
 20
2.30263
 30
0.0
 40
0.0001488
 41
0.0001488
  0
VERTEX
  8
0
 10
1.21463
 20
2.29606
 30
0.0
 40
0.0001488
 41
0.0001488
  0
VERTEX
  8
0
 10
1.21273
 20
2.29346
 30
0.0
 40
0.0001488
 41
0.0001488
  0
VERTEX
  8
0
 10
1.20947
 20
2.2889
 30
0.0
 40
0.0001488
 41
0.0001488
  0
VERTEX
  8
0
 10
1.20513
 20
2.28119
 30
0.0
 40
0.0001488
 41
0.0001488
  0
VERTEX
  8
0
 10
1.20171
 20
2.27306
 30
0.0
 40
0.0001488
 41
0.0001488
  0
VERTEX
  8
0
 10
1.19922
 20
2.26454
 30
0.0
 40
0.0001488
 41
0.0001488
  0
VERTEX
  8
0
 10
1.1977
 20
2.25586
 30
0.0
 40
0.0001488
 41
0.0001488
  0
VERTEX
  8
0
 10
1.1971
 20
2.24701
 30
0.0
 40
0.0001488
 41
0.0001488
  0
VERTEX
  8
0
 10
1.19759
 20
2.23822
 30
0.0
 40
0.0001488
 41
0.0001488
  0
VERTEX
  8
0
 10
1.199
 20
2.22944
 30
0.0
 40
0.0001488
 41
0.0001488
  0
VERTEX
  8
0
 10
1.20144
 20
2.22097
 30
0.0
 40
0.0001488
 41
0.0001488
  0
VERTEX
  8
0
 10
1.20475
 20
2.21278
 30
0.0
 40
0.0001488
 41
0.0001488
  0
SEQEND
 8
0
  0
POLYLINE
  8
0
 62
     1
 66
     1
 10
0
 20
0
 30
0.0
 70
     1
 40
0.0107136
 41
0.0107136
  0
VERTEX
  8
0
 10
5.35124
 20
0.338163
 30
0.0
 40
0.0001488
 41
0.0001488
  0
VERTEX
  8
0
 10
5.35357
 20
0.339193
 30
0.0
 40
0.0001488
 41
0.0001488
  0
VERTEX
  8
0
 10
5.37093
 20
0.346843
 30
0.0
 40
0.0001488
 41
0.0001488
  0
VERTEX
  8
0
 10
5.37853
 20
0.351454
 30
0.0
 40
0.0001488
 41
0.0001488
  0
VERTEX
  8
0
 10
5.38499
 20
0.358128
 30
0.0
 40
0.0001488
 41
0.0001488
  0
VERTEX
  8
0
 10
5.3851
 20
0.358344
 30
0.0
 40
0.0001488
 41
0.0001488
  0
VERTEX
  8
0
 10
5.39014
 20
0.366699
 30
0.0
 40
0.0001488
 41
0.0001488
  0
VERTEX
  8
0
 10
5.39382
 20
0.376953
 30
0.0
 40
0.0001488
 41
0.0001488
  0
VERTEX
  8
0
 10
5.39606
 20
0.388618
 30
0.0
 40
0.0001488
 41
0.0001488
  0
VERTEX
  8
0
 10
5.3966
 20
0.401476
 30
0.0
 40
0.0001488
 41
0.0001488
  0
VERTEX
  8
0
 10
5.39567
 20
0.415147
 30
0.0
 40
0.0001488
 41
0.0001488
  0
VERTEX
  8
0
 10
5.39318
 20
0.429254
 30
0.0
 40
0.0001488
 41
0.0001488
  0
VERTEX
  8
0
 10
5.3904
 20
0.438965
 30
0.0
 40
0.0001488
 41
0.0001488
  0
VERTEX
  8
0
 10
5.38917
 20
0.443576
 30
0.0
 40
0.0001488
 41
0.0001488
  0
VERTEX
  8
0
 10
5.38368
 20
0.457628
 30
0.0
 40
0.0001488
 41
0.0001488
  0
VERTEX
  8
0
 10
5.37337
 20
0.481065
 30
0.0
 40
0.0001488
 41
0.0001488
  0
VERTEX
  8
0
 10
5.36887
 20
0.491428
 30
0.0
 40
0.0001488
 41
0.0001488
  0
VERTEX
  8
0
 10
5.36214
 20
0.504992
 30
0.0
 40
0.0001488
 41
0.0001488
  0
VERTEX
  8
0
 10
5.35439
 20
0.517632
 30
0.0
 40
0.0001488
 41
0.0001488
  0
VERTEX
  8
0
 10
5.35286
 20
0.519586
 30
0.0
 40
0.0001488
 41
0.0001488
  0
VERTEX
  8
0
 10
5.34565
 20
0.529025
 30
0.0
 40
0.0001488
 41
0.0001488
  0
VERTEX
  8
0
 10
5.33626
 20
0.539008
 30
0.0
 40
0.0001488
 41
0.0001488
  0
VERTEX
  8
0
 10
5.32639
 20
0.5472
 30
0.0
 40
0.0001488
 41
0.0001488
  0
VERTEX
  8
0
 10
5.31629
 20
0.553494
 30
0.0
 40
0.0001488
 41
0.0001488
  0
VERTEX
  8
0
 10
5.31321
 20
0.554742
 30
0.0
 40
0.0001488
 41
0.0001488
  0
VERTEX
  8
0
 10
5.30626
 20
0.557671
 30
0.0
 40
0.0001488
 41
0.0001488
  0
VERTEX
  8
0
 10
5.29644
 20
0.559733
 30
0.0
 40
0.0001488
 41
0.0001488
  0
VERTEX
  8
0
 10
5.28722
 20
0.559517
 30
0.0
 40
0.0001488
 41
0.0001488
  0
VERTEX
  8
0
 10
5.27865
 20
0.557075
 30
0.0
 40
0.0001488
 41
0.0001488
  0
VERTEX
  8
0
 10
5.27289
 20
0.554525
 30
0.0
 40
0.0001488
 41
0.0001488
  0
VERTEX
  8
0
 10
5.2589
 20
0.548394
 30
0.0
 40
0.0001488
 41
0.0001488
  0
VERTEX
  8
0
 10
5.25136
 20
0.543728
 30
0.0
 40
0.0001488
 41
0.0001488
  0
VERTEX
  8
0
 10
5.2449
 20
0.53711
 30
0.0
 40
0.0001488
 41
0.0001488
  0
VERTEX
  8
0
 10
5.23975
 20
0.528537
 30
0.0
 40
0.0001488
 41
0.0001488
  0
VERTEX
  8
0
 10
5.23654
 20
0.519586
 30
0.0
 40
0.0001488
 41
0.0001488
  0
VERTEX
  8
0
 10
5.23606
 20
0.518283
 30
0.0
 40
0.0001488
 41
0.0001488
  0
VERTEX
  8
0
 10
5.23383
 20
0.506565
 30
0.0
 40
0.0001488
 41
0.0001488
  0
VERTEX
  8
0
 10
5.23324
 20
0.493761
 30
0.0
 40
0.0001488
 41
0.0001488
  0
VERTEX
  8
0
 10
5.23421
 20
0.480089
 30
0.0
 40
0.0001488
 41
0.0001488
  0
VERTEX
  8
0
 10
5.23671
 20
0.465983
 30
0.0
 40
0.0001488
 41
0.0001488
  0
VERTEX
  8
0
 10
5.24072
 20
0.45166
 30
0.0
 40
0.0001488
 41
0.0001488
  0
VERTEX
  8
0
 10
5.24567
 20
0.438965
 30
0.0
 40
0.0001488
 41
0.0001488
  0
VERTEX
  8
0
 10
5.24621
 20
0.437608
 30
0.0
 40
0.0001488
 41
0.0001488
  0
VERTEX
  8
0
 10
5.26101
 20
0.403808
 30
0.0
 40
0.0001488
 41
0.0001488
  0
VERTEX
  8
0
 10
5.26774
 20
0.390246
 30
0.0
 40
0.0001488
 41
0.0001488
  0
VERTEX
  8
0
 10
5.2755
 20
0.377604
 30
0.0
 40
0.0001488
 41
0.0001488
  0
VERTEX
  8
0
 10
5.28424
 20
0.366211
 30
0.0
 40
0.0001488
 41
0.0001488
  0
VERTEX
  8
0
 10
5.29167
 20
0.358344
 30
0.0
 40
0.0001488
 41
0.0001488
  0
VERTEX
  8
0
 10
5.29362
 20
0.356228
 30
0.0
 40
0.0001488
 41
0.0001488
  0
VERTEX
  8
0
 10
5.30344
 20
0.348036
 30
0.0
 40
0.0001488
 41
0.0001488
  0
VERTEX
  8
0
 10
5.31321
 20
0.34196
 30
0.0
 40
0.0001488
 41
0.0001488
  0
VERTEX
  8
0
 10
5.31353
 20
0.341743
 30
0.0
 40
0.0001488
 41
0.0001488
  0
VERTEX
  8
0
 10
5.31803
 20
0.339844
 30
0.0
 40
0.0001488
 41
0.0001488
  0
VERTEX
  8
0
 10
5.32362
 20
0.337511
 30
0.0
 40
0.0001488
 41
0.0001488
  0
VERTEX
  8
0
 10
5.33344
 20
0.335504
 30
0.0
 40
0.0001488
 41
0.0001488
  0
VERTEX
  8
0
 10
5.34267
 20
0.335721
 30
0.0
 40
0.0001488
 41
0.0001488
  0
VERTEX
  8
0
 10
5.35124
 20
0.338163
 30
0.0
 40
0.0001488
 41
0.0001488
  0
SEQEND
 8
0
  0
POLYLINE
  8
0
 62
     1
 66
     1
 10
0
 20
0
 30
0.0
 70
     1
 40
0.0107136
 41
0.0107136
  0
VERTEX
  8
0
 10
4.7564
 20
0.649251
 30
0.0
 40
0.0001488
 41
0.0001488
  0
VERTEX
  8
0
 10
4.75071
 20
0.640082
 30
0.0
 40
0.0001488
 41
0.0001488
  0
VERTEX
  8
0
 10
4.74881
 20
0.635579
 30
0.0
 40
0.0001488
 41
0.0001488
  0
VERTEX
  8
0
 10
4.74647
 20
0.629992
 30
0.0
 40
0.0001488
 41
0.0001488
  0
VERTEX
  8
0
 10
4.74447
 20
0.620226
 30
0.0
 40
0.0001488
 41
0.0001488
  0
VERTEX
  8
0
 10
4.74457
 20
0.611763
 30
0.0
 40
0.0001488
 41
0.0001488
  0
VERTEX
  8
0
 10
4.74463
 20
0.611003
 30
0.0
 40
0.0001488
 41
0.0001488
  0
VERTEX
  8
0
 10
4.74696
 20
0.602485
 30
0.0
 40
0.0001488
 41
0.0001488
  0
VERTEX
  8
0
 10
4.74794
 20
0.600206
 30
0.0
 40
0.0001488
 41
0.0001488
  0
VERTEX
  8
0
 10
4.74881
 20
0.598199
 30
0.0
 40
0.0001488
 41
0.0001488
  0
VERTEX
  8
0
 10
4.75537
 20
0.582844
 30
0.0
 40
0.0001488
 41
0.0001488
  0
VERTEX
  8
0
 10
4.75993
 20
0.575304
 30
0.0
 40
0.0001488
 41
0.0001488
  0
VERTEX
  8
0
 10
4.76644
 20
0.568901
 30
0.0
 40
0.0001488
 41
0.0001488
  0
VERTEX
  8
0
 10
4.77485
 20
0.563857
 30
0.0
 40
0.0001488
 41
0.0001488
  0
VERTEX
  8
0
 10
4.78494
 20
0.560221
 30
0.0
 40
0.0001488
 41
0.0001488
  0
VERTEX
  8
0
 10
4.78911
 20
0.559407
 30
0.0
 40
0.0001488
 41
0.0001488
  0
VERTEX
  8
0
 10
4.79644
 20
0.558106
 30
0.0
 40
0.0001488
 41
0.0001488
  0
VERTEX
  8
0
 10
4.80908
 20
0.557508
 30
0.0
 40
0.0001488
 41
0.0001488
  0
VERTEX
  8
0
 10
4.82254
 20
0.558539
 30
0.0
 40
0.0001488
 41
0.0001488
  0
VERTEX
  8
0
 10
4.82943
 20
0.559842
 30
0.0
 40
0.0001488
 41
0.0001488
  0
VERTEX
  8
0
 10
4.83649
 20
0.561143
 30
0.0
 40
0.0001488
 41
0.0001488
  0
VERTEX
  8
0
 10
4.85053
 20
0.565267
 30
0.0
 40
0.0001488
 41
0.0001488
  0
VERTEX
  8
0
 10
4.85628
 20
0.567492
 30
0.0
 40
0.0001488
 41
0.0001488
  0
VERTEX
  8
0
 10
4.86442
 20
0.570747
 30
0.0
 40
0.0001488
 41
0.0001488
  0
VERTEX
  8
0
 10
4.89785
 20
0.585775
 30
0.0
 40
0.0001488
 41
0.0001488
  0
VERTEX
  8
0
 10
4.91118
 20
0.592503
 30
0.0
 40
0.0001488
 41
0.0001488
  0
VERTEX
  8
0
 10
4.92339
 20
0.600206
 30
0.0
 40
0.0001488
 41
0.0001488
  0
VERTEX
  8
0
 10
4.92367
 20
0.600369
 30
0.0
 40
0.0001488
 41
0.0001488
  0
VERTEX
  8
0
 10
4.93494
 20
0.609104
 30
0.0
 40
0.0001488
 41
0.0001488
  0
VERTEX
  8
0
 10
4.94482
 20
0.618544
 30
0.0
 40
0.0001488
 41
0.0001488
  0
VERTEX
  8
0
 10
4.95296
 20
0.628418
 30
0.0
 40
0.0001488
 41
0.0001488
  0
VERTEX
  8
0
 10
4.95921
 20
0.63851
 30
0.0
 40
0.0001488
 41
0.0001488
  0
VERTEX
  8
0
 10
4.96007
 20
0.640517
 30
0.0
 40
0.0001488
 41
0.0001488
  0
VERTEX
  8
0
 10
4.96343
 20
0.6486
 30
0.0
 40
0.0001488
 41
0.0001488
  0
VERTEX
  8
0
 10
4.9655
 20
0.658365
 30
0.0
 40
0.0001488
 41
0.0001488
  0
VERTEX
  8
0
 10
4.96533
 20
0.667589
 30
0.0
 40
0.0001488
 41
0.0001488
  0
VERTEX
  8
0
 10
4.96294
 20
0.676107
 30
0.0
 40
0.0001488
 41
0.0001488
  0
VERTEX
  8
0
 10
4.96094
 20
0.680826
 30
0.0
 40
0.0001488
 41
0.0001488
  0
VERTEX
  8
0
 10
4.95454
 20
0.695747
 30
0.0
 40
0.0001488
 41
0.0001488
  0
VERTEX
  8
0
 10
4.95042
 20
0.702636
 30
0.0
 40
0.0001488
 41
0.0001488
  0
VERTEX
  8
0
 10
4.94997
 20
0.703342
 30
0.0
 40
0.0001488
 41
0.0001488
  0
VERTEX
  8
0
 10
4.94347
 20
0.70969
 30
0.0
 40
0.0001488
 41
0.0001488
  0
VERTEX
  8
0
 10
4.93506
 20
0.714789
 30
0.0
 40
0.0001488
 41
0.0001488
  0
VERTEX
  8
0
 10
4.92503
 20
0.718425
 30
0.0
 40
0.0001488
 41
0.0001488
  0
VERTEX
  8
0
 10
4.91351
 20
0.72054
 30
0.0
 40
0.0001488
 41
0.0001488
  0
VERTEX
  8
0
 10
4.9101
 20
0.720649
 30
0.0
 40
0.0001488
 41
0.0001488
  0
VERTEX
  8
0
 10
4.90088
 20
0.721083
 30
0.0
 40
0.0001488
 41
0.0001488
  0
VERTEX
  8
0
 10
4.88743
 20
0.720053
 30
0.0
 40
0.0001488
 41
0.0001488
  0
VERTEX
  8
0
 10
4.87349
 20
0.717449
 30
0.0
 40
0.0001488
 41
0.0001488
  0
VERTEX
  8
0
 10
4.85938
 20
0.713379
 30
0.0
 40
0.0001488
 41
0.0001488
  0
VERTEX
  8
0
 10
4.84549
 20
0.7079
 30
0.0
 40
0.0001488
 41
0.0001488
  0
VERTEX
  8
0
 10
4.84099
 20
0.705838
 30
0.0
 40
0.0001488
 41
0.0001488
  0
VERTEX
  8
0
 10
4.83376
 20
0.702636
 30
0.0
 40
0.0001488
 41
0.0001488
  0
VERTEX
  8
0
 10
4.81207
 20
0.692871
 30
0.0
 40
0.0001488
 41
0.0001488
  0
VERTEX
  8
0
 10
4.79872
 20
0.686089
 30
0.0
 40
0.0001488
 41
0.0001488
  0
VERTEX
  8
0
 10
4.79036
 20
0.680826
 30
0.0
 40
0.0001488
 41
0.0001488
  0
VERTEX
  8
0
 10
4.78624
 20
0.678222
 30
0.0
 40
0.0001488
 41
0.0001488
  0
VERTEX
  8
0
 10
4.77496
 20
0.669487
 30
0.0
 40
0.0001488
 41
0.0001488
  0
VERTEX
  8
0
 10
4.76514
 20
0.660101
 30
0.0
 40
0.0001488
 41
0.0001488
  0
VERTEX
  8
0
 10
4.7621
 20
0.656413
 30
0.0
 40
0.0001488
 41
0.0001488
  0
VERTEX
  8
0
 10
4.75694
 20
0.650174
 30
0.0
 40
0.0001488
 41
0.0001488
  0
VERTEX
  8
0
 10
4.7564
 20
0.649251
 30
0.0
 40
0.0001488
 41
0.0001488
  0
SEQEND
 8
0
  0
POLYLINE
  8
0
 62
     1
 66
     1
 10
0
 20
0
 30
0.0
 70
     1
 40
0.0107136
 41
0.0107136
  0
VERTEX
  8
0
 10
5.14779
 20
0.623156
 30
0.0
 40
0.0001488
 41
0.0001488
  0
VERTEX
  8
0
 10
5.15196
 20
0.622721
 30
0.0
 40
0.0001488
 41
0.0001488
  0
VERTEX
  8
0
 10
5.16982
 20
0.620714
 30
0.0
 40
0.0001488
 41
0.0001488
  0
VERTEX
  8
0
 10
5.19194
 20
0.621365
 30
0.0
 40
0.0001488
 41
0.0001488
  0
VERTEX
  8
0
 10
5.21376
 20
0.625108
 30
0.0
 40
0.0001488
 41
0.0001488
  0
VERTEX
  8
0
 10
5.23486
 20
0.631836
 30
0.0
 40
0.0001488
 41
0.0001488
  0
VERTEX
  8
0
 10
5.25483
 20
0.641439
 30
0.0
 40
0.0001488
 41
0.0001488
  0
VERTEX
  8
0
 10
5.27317
 20
0.6537
 30
0.0
 40
0.0001488
 41
0.0001488
  0
VERTEX
  8
0
 10
5.28971
 20
0.668457
 30
0.0
 40
0.0001488
 41
0.0001488
  0
VERTEX
  8
0
 10
5.30404
 20
0.685331
 30
0.0
 40
0.0001488
 41
0.0001488
  0
VERTEX
  8
0
 10
5.315
 20
0.702636
 30
0.0
 40
0.0001488
 41
0.0001488
  0
VERTEX
  8
0
 10
5.31586
 20
0.704047
 30
0.0
 40
0.0001488
 41
0.0001488
  0
VERTEX
  8
0
 10
5.32497
 20
0.724229
 30
0.0
 40
0.0001488
 41
0.0001488
  0
VERTEX
  8
0
 10
5.33122
 20
0.745497
 30
0.0
 40
0.0001488
 41
0.0001488
  0
VERTEX
  8
0
 10
5.33356
 20
0.761447
 30
0.0
 40
0.0001488
 41
0.0001488
  0
VERTEX
  8
0
 10
5.33442
 20
0.767361
 30
0.0
 40
0.0001488
 41
0.0001488
  0
VERTEX
  8
0
 10
5.33453
 20
0.789497
 30
0.0
 40
0.0001488
 41
0.0001488
  0
VERTEX
  8
0
 10
5.33154
 20
0.811415
 30
0.0
 40
0.0001488
 41
0.0001488
  0
VERTEX
  8
0
 10
5.32557
 20
0.83279
 30
0.0
 40
0.0001488
 41
0.0001488
  0
VERTEX
  8
0
 10
5.31668
 20
0.853028
 30
0.0
 40
0.0001488
 41
0.0001488
  0
VERTEX
  8
0
 10
5.30501
 20
0.871853
 30
0.0
 40
0.0001488
 41
0.0001488
  0
VERTEX
  8
0
 10
5.2909
 20
0.888889
 30
0.0
 40
0.0001488
 41
0.0001488
  0
VERTEX
  8
0
 10
5.27453
 20
0.903808
 30
0.0
 40
0.0001488
 41
0.0001488
  0
VERTEX
  8
0
 10
5.25624
 20
0.916288
 30
0.0
 40
0.0001488
 41
0.0001488
  0
VERTEX
  8
0
 10
5.24317
 20
0.922743
 30
0.0
 40
0.0001488
 41
0.0001488
  0
VERTEX
  8
0
 10
5.23639
 20
0.926053
 30
0.0
 40
0.0001488
 41
0.0001488
  0
VERTEX
  8
0
 10
5.21533
 20
0.933051
 30
0.0
 40
0.0001488
 41
0.0001488
  0
VERTEX
  8
0
 10
5.19358
 20
0.936957
 30
0.0
 40
0.0001488
 41
0.0001488
  0
VERTEX
  8
0
 10
5.17144
 20
0.937879
 30
0.0
 40
0.0001488
 41
0.0001488
  0
VERTEX
  8
0
 10
5.15196
 20
0.935926
 30
0.0
 40
0.0001488
 41
0.0001488
  0
VERTEX
  8
0
 10
5.14947
 20
0.935656
 30
0.0
 40
0.0001488
 41
0.0001488
  0
VERTEX
  8
0
 10
5.12793
 20
0.930447
 30
0.0
 40
0.0001488
 41
0.0001488
  0
VERTEX
  8
0
 10
5.10856
 20
0.922743
 30
0.0
 40
0.0001488
 41
0.0001488
  0
VERTEX
  8
0
 10
5.10736
 20
0.922254
 30
0.0
 40
0.0001488
 41
0.0001488
  0
VERTEX
  8
0
 10
5.08811
 20
0.911296
 30
0.0
 40
0.0001488
 41
0.0001488
  0
VERTEX
  8
0
 10
5.07064
 20
0.897732
 30
0.0
 40
0.0001488
 41
0.0001488
  0
VERTEX
  8
0
 10
5.05518
 20
0.88189
 30
0.0
 40
0.0001488
 41
0.0001488
  0
VERTEX
  8
0
 10
5.04204
 20
0.864094
 30
0.0
 40
0.0001488
 41
0.0001488
  0
VERTEX
  8
0
 10
5.03153
 20
0.844564
 30
0.0
 40
0.0001488
 41
0.0001488
  0
VERTEX
  8
0
 10
5.02387
 20
0.823785
 30
0.0
 40
0.0001488
 41
0.0001488
  0
VERTEX
  8
0
 10
5.01915
 20
0.802192
 30
0.0
 40
0.0001488
 41
0.0001488
  0
VERTEX
  8
0
 10
5.01747
 20
0.780111
 30
0.0
 40
0.0001488
 41
0.0001488
  0
VERTEX
  8
0
 10
5.01872
 20
0.761447
 30
0.0
 40
0.0001488
 41
0.0001488
  0
VERTEX
  8
0
 10
5.01893
 20
0.758029
 30
0.0
 40
0.0001488
 41
0.0001488
  0
VERTEX
  8
0
 10
5.02344
 20
0.736328
 30
0.0
 40
0.0001488
 41
0.0001488
  0
VERTEX
  8
0
 10
5.03087
 20
0.715494
 30
0.0
 40
0.0001488
 41
0.0001488
  0
VERTEX
  8
0
 10
5.03765
 20
0.702636
 30
0.0
 40
0.0001488
 41
0.0001488
  0
VERTEX
  8
0
 10
5.04118
 20
0.695856
 30
0.0
 40
0.0001488
 41
0.0001488
  0
VERTEX
  8
0
 10
5.0541
 20
0.677951
 30
0.0
 40
0.0001488
 41
0.0001488
  0
VERTEX
  8
0
 10
5.06939
 20
0.661893
 30
0.0
 40
0.0001488
 41
0.0001488
  0
VERTEX
  8
0
 10
5.08675
 20
0.648221
 30
0.0
 40
0.0001488
 41
0.0001488
  0
VERTEX
  8
0
 10
5.10585
 20
0.637044
 30
0.0
 40
0.0001488
 41
0.0001488
  0
VERTEX
  8
0
 10
5.12636
 20
0.628635
 30
0.0
 40
0.0001488
 41
0.0001488
  0
VERTEX
  8
0
 10
5.14779
 20
0.623156
 30
0.0
 40
0.0001488
 41
0.0001488
  0
SEQEND
 8
0
  0
POLYLINE
  8
0
 62
     1
 66
     1
 10
0
 20
0
 30
0.0
 70
     1
 40
0.0107136
 41
0.0107136
  0
VERTEX
  8
0
 10
5.57992
 20
0.994846
 30
0.0
 40
0.0001488
 41
0.0001488
  0
VERTEX
  8
0
 10
5.57536
 20
0.996528
 30
0.0
 40
0.0001488
 41
0.0001488
  0
VERTEX
  8
0
 10
5.56967
 20
0.998535
 30
0.0
 40
0.0001488
 41
0.0001488
  0
VERTEX
  8
0
 10
5.558
 20
1.00076
 30
0.0
 40
0.0001488
 41
0.0001488
  0
VERTEX
  8
0
 10
5.55512
 20
1.00092
 30
0.0
 40
0.0001488
 41
0.0001488
  0
VERTEX
  8
0
 10
5.54514
 20
1.00141
 30
0.0
 40
0.0001488
 41
0.0001488
  0
VERTEX
  8
0
 10
5.53711
 20
1.00081
 30
0.0
 40
0.0001488
 41
0.0001488
  0
VERTEX
  8
0
 10
5.53153
 20
1.00038
 30
0.0
 40
0.0001488
 41
0.0001488
  0
VERTEX
  8
0
 10
5.51736
 20
0.997885
 30
0.0
 40
0.0001488
 41
0.0001488
  0
VERTEX
  8
0
 10
5.5031
 20
0.993869
 30
0.0
 40
0.0001488
 41
0.0001488
  0
VERTEX
  8
0
 10
5.48904
 20
0.988444
 30
0.0
 40
0.0001488
 41
0.0001488
  0
VERTEX
  8
0
 10
5.4745
 20
0.982042
 30
0.0
 40
0.0001488
 41
0.0001488
  0
VERTEX
  8
0
 10
5.45518
 20
0.973579
 30
0.0
 40
0.0001488
 41
0.0001488
  0
VERTEX
  8
0
 10
5.44168
 20
0.966906
 30
0.0
 40
0.0001488
 41
0.0001488
  0
VERTEX
  8
0
 10
5.42904
 20
0.959093
 30
0.0
 40
0.0001488
 41
0.0001488
  0
VERTEX
  8
0
 10
5.41758
 20
0.950413
 30
0.0
 40
0.0001488
 41
0.0001488
  0
VERTEX
  8
0
 10
5.40767
 20
0.940972
 30
0.0
 40
0.0001488
 41
0.0001488
  0
VERTEX
  8
0
 10
5.39947
 20
0.931153
 30
0.0
 40
0.0001488
 41
0.0001488
  0
VERTEX
  8
0
 10
5.39421
 20
0.922743
 30
0.0
 40
0.0001488
 41
0.0001488
  0
VERTEX
  8
0
 10
5.39388
 20
0.9222
 30
0.0
 40
0.0001488
 41
0.0001488
  0
VERTEX
  8
0
 10
5.39318
 20
0.921061
 30
0.0
 40
0.0001488
 41
0.0001488
  0
VERTEX
  8
0
 10
5.38894
 20
0.910969
 30
0.0
 40
0.0001488
 41
0.0001488
  0
VERTEX
  8
0
 10
5.38693
 20
0.901258
 30
0.0
 40
0.0001488
 41
0.0001488
  0
VERTEX
  8
0
 10
5.38715
 20
0.891928
 30
0.0
 40
0.0001488
 41
0.0001488
  0
VERTEX
  8
0
 10
5.3896
 20
0.88341
 30
0.0
 40
0.0001488
 41
0.0001488
  0
VERTEX
  8
0
 10
5.39388
 20
0.873643
 30
0.0
 40
0.0001488
 41
0.0001488
  0
VERTEX
  8
0
 10
5.39822
 20
0.863661
 30
0.0
 40
0.0001488
 41
0.0001488
  0
VERTEX
  8
0
 10
5.40289
 20
0.856119
 30
0.0
 40
0.0001488
 41
0.0001488
  0
VERTEX
  8
0
 10
5.4095
 20
0.849664
 30
0.0
 40
0.0001488
 41
0.0001488
  0
VERTEX
  8
0
 10
5.41813
 20
0.844564
 30
0.0
 40
0.0001488
 41
0.0001488
  0
VERTEX
  8
0
 10
5.42481
 20
0.842122
 30
0.0
 40
0.0001488
 41
0.0001488
  0
VERTEX
  8
0
 10
5.42833
 20
0.840821
 30
0.0
 40
0.0001488
 41
0.0001488
  0
VERTEX
  8
0
 10
5.44006
 20
0.83865
 30
0.0
 40
0.0001488
 41
0.0001488
  0
VERTEX
  8
0
 10
5.45285
 20
0.837999
 30
0.0
 40
0.0001488
 41
0.0001488
  0
VERTEX
  8
0
 10
5.46653
 20
0.838976
 30
0.0
 40
0.0001488
 41
0.0001488
  0
VERTEX
  8
0
 10
5.4745
 20
0.840386
 30
0.0
 40
0.0001488
 41
0.0001488
  0
VERTEX
  8
0
 10
5.48068
 20
0.841471
 30
0.0
 40
0.0001488
 41
0.0001488
  0
VERTEX
  8
0
 10
5.49496
 20
0.845486
 30
0.0
 40
0.0001488
 41
0.0001488
  0
VERTEX
  8
0
 10
5.509
 20
0.850911
 30
0.0
 40
0.0001488
 41
0.0001488
  0
VERTEX
  8
0
 10
5.52024
 20
0.855849
 30
0.0
 40
0.0001488
 41
0.0001488
  0
VERTEX
  8
0
 10
5.54286
 20
0.865776
 30
0.0
 40
0.0001488
 41
0.0001488
  0
VERTEX
  8
0
 10
5.55512
 20
0.871853
 30
0.0
 40
0.0001488
 41
0.0001488
  0
VERTEX
  8
0
 10
5.55637
 20
0.87245
 30
0.0
 40
0.0001488
 41
0.0001488
  0
VERTEX
  8
0
 10
5.56901
 20
0.880262
 30
0.0
 40
0.0001488
 41
0.0001488
  0
VERTEX
  8
0
 10
5.58046
 20
0.888943
 30
0.0
 40
0.0001488
 41
0.0001488
  0
VERTEX
  8
0
 10
5.59039
 20
0.898383
 30
0.0
 40
0.0001488
 41
0.0001488
  0
VERTEX
  8
0
 10
5.59864
 20
0.908257
 30
0.0
 40
0.0001488
 41
0.0001488
  0
VERTEX
  8
0
 10
5.60487
 20
0.918294
 30
0.0
 40
0.0001488
 41
0.0001488
  0
VERTEX
  8
0
 10
5.60672
 20
0.922743
 30
0.0
 40
0.0001488
 41
0.0001488
  0
VERTEX
  8
0
 10
5.6091
 20
0.928386
 30
0.0
 40
0.0001488
 41
0.0001488
  0
VERTEX
  8
0
 10
5.61117
 20
0.938151
 30
0.0
 40
0.0001488
 41
0.0001488
  0
VERTEX
  8
0
 10
5.61089
 20
0.947428
 30
0.0
 40
0.0001488
 41
0.0001488
  0
VERTEX
  8
0
 10
5.60846
 20
0.955946
 30
0.0
 40
0.0001488
 41
0.0001488
  0
VERTEX
  8
0
 10
5.60536
 20
0.963053
 30
0.0
 40
0.0001488
 41
0.0001488
  0
VERTEX
  8
0
 10
5.60015
 20
0.974989
 30
0.0
 40
0.0001488
 41
0.0001488
  0
VERTEX
  8
0
 10
5.59983
 20
0.975749
 30
0.0
 40
0.0001488
 41
0.0001488
  0
VERTEX
  8
0
 10
5.59521
 20
0.98329
 30
0.0
 40
0.0001488
 41
0.0001488
  0
VERTEX
  8
0
 10
5.58849
 20
0.989746
 30
0.0
 40
0.0001488
 41
0.0001488
  0
VERTEX
  8
0
 10
5.57992
 20
0.994846
 30
0.0
 40
0.0001488
 41
0.0001488
  0
SEQEND
 8
0
  0
POLYLINE
  8
0
 62
     1
 66
     1
 10
0
 20
0
 30
0.0
 70
     1
 40
0.0107136
 41
0.0107136
  0
VERTEX
  8
0
 10
4.96826
 20
1.1939
 30
0.0
 40
0.0001488
 41
0.0001488
  0
VERTEX
  8
0
 10
4.96262
 20
1.1881
 30
0.0
 40
0.0001488
 41
0.0001488
  0
VERTEX
  8
0
 10
4.95757
 20
1.17974
 30
0.0
 40
0.0001488
 41
0.0001488
  0
VERTEX
  8
0
 10
4.95389
 20
1.16965
 30
0.0
 40
0.0001488
 41
0.0001488
  0
VERTEX
  8
0
 10
4.95296
 20
1.16461
 30
0.0
 40
0.0001488
 41
0.0001488
  0
VERTEX
  8
0
 10
4.95176
 20
1.15815
 30
0.0
 40
0.0001488
 41
0.0001488
  0
VERTEX
  8
0
 10
4.95122
 20
1.14551
 30
0.0
 40
0.0001488
 41
0.0001488
  0
VERTEX
  8
0
 10
4.95167
 20
1.14014
 30
0.0
 40
0.0001488
 41
0.0001488
  0
VERTEX
  8
0
 10
4.95226
 20
1.13205
 30
0.0
 40
0.0001488
 41
0.0001488
  0
VERTEX
  8
0
 10
4.95486
 20
1.11811
 30
0.0
 40
0.0001488
 41
0.0001488
  0
VERTEX
  8
0
 10
4.95899
 20
1.104
 30
0.0
 40
0.0001488
 41
0.0001488
  0
VERTEX
  8
0
 10
4.96446
 20
1.09017
 30
0.0
 40
0.0001488
 41
0.0001488
  0
VERTEX
  8
0
 10
4.96724
 20
1.08398
 30
0.0
 40
0.0001488
 41
0.0001488
  0
VERTEX
  8
0
 10
4.97944
 20
1.05675
 30
0.0
 40
0.0001488
 41
0.0001488
  0
VERTEX
  8
0
 10
4.98622
 20
1.0434
 30
0.0
 40
0.0001488
 41
0.0001488
  0
VERTEX
  8
0
 10
4.99072
 20
1.03624
 30
0.0
 40
0.0001488
 41
0.0001488
  0
VERTEX
  8
0
 10
4.99403
 20
1.03093
 30
0.0
 40
0.0001488
 41
0.0001488
  0
VERTEX
  8
0
 10
5.00282
 20
1.01964
 30
0.0
 40
0.0001488
 41
0.0001488
  0
VERTEX
  8
0
 10
5.01226
 20
1.00977
 30
0.0
 40
0.0001488
 41
0.0001488
  0
VERTEX
  8
0
 10
5.01747
 20
1.00548
 30
0.0
 40
0.0001488
 41
0.0001488
  0
VERTEX
  8
0
 10
5.02001
 20
1.00336
 30
0.0
 40
0.0001488
 41
0.0001488
  0
VERTEX
  8
0
 10
5.02214
 20
1.00163
 30
0.0
 40
0.0001488
 41
0.0001488
  0
VERTEX
  8
0
 10
5.03222
 20
0.995389
 30
0.0
 40
0.0001488
 41
0.0001488
  0
VERTEX
  8
0
 10
5.04232
 20
0.991157
 30
0.0
 40
0.0001488
 41
0.0001488
  0
VERTEX
  8
0
 10
5.05208
 20
0.989094
 30
0.0
 40
0.0001488
 41
0.0001488
  0
VERTEX
  8
0
 10
5.06136
 20
0.989258
 30
0.0
 40
0.0001488
 41
0.0001488
  0
VERTEX
  8
0
 10
5.06982
 20
0.991644
 30
0.0
 40
0.0001488
 41
0.0001488
  0
VERTEX
  8
0
 10
5.07135
 20
0.992242
 30
0.0
 40
0.0001488
 41
0.0001488
  0
VERTEX
  8
0
 10
5.08946
 20
1.00005
 30
0.0
 40
0.0001488
 41
0.0001488
  0
VERTEX
  8
0
 10
5.095
 20
1.00336
 30
0.0
 40
0.0001488
 41
0.0001488
  0
VERTEX
  8
0
 10
5.097
 20
1.00456
 30
0.0
 40
0.0001488
 41
0.0001488
  0
VERTEX
  8
0
 10
5.1034
 20
1.01112
 30
0.0
 40
0.0001488
 41
0.0001488
  0
VERTEX
  8
0
 10
5.10846
 20
1.01948
 30
0.0
 40
0.0001488
 41
0.0001488
  0
VERTEX
  8
0
 10
5.11214
 20
1.02957
 30
0.0
 40
0.0001488
 41
0.0001488
  0
VERTEX
  8
0
 10
5.11426
 20
1.04107
 30
0.0
 40
0.0001488
 41
0.0001488
  0
VERTEX
  8
0
 10
5.11436
 20
1.04367
 30
0.0
 40
0.0001488
 41
0.0001488
  0
VERTEX
  8
0
 10
5.11481
 20
1.05371
 30
0.0
 40
0.0001488
 41
0.0001488
  0
VERTEX
  8
0
 10
5.11376
 20
1.06717
 30
0.0
 40
0.0001488
 41
0.0001488
  0
VERTEX
  8
0
 10
5.11117
 20
1.08111
 30
0.0
 40
0.0001488
 41
0.0001488
  0
VERTEX
  8
0
 10
5.11035
 20
1.08398
 30
0.0
 40
0.0001488
 41
0.0001488
  0
VERTEX
  8
0
 10
5.1071
 20
1.09522
 30
0.0
 40
0.0001488
 41
0.0001488
  0
VERTEX
  8
0
 10
5.10157
 20
1.1091
 30
0.0
 40
0.0001488
 41
0.0001488
  0
VERTEX
  8
0
 10
5.08658
 20
1.14247
 30
0.0
 40
0.0001488
 41
0.0001488
  0
VERTEX
  8
0
 10
5.07981
 20
1.15582
 30
0.0
 40
0.0001488
 41
0.0001488
  0
VERTEX
  8
0
 10
5.07428
 20
1.16461
 30
0.0
 40
0.0001488
 41
0.0001488
  0
VERTEX
  8
0
 10
5.072
 20
1.16829
 30
0.0
 40
0.0001488
 41
0.0001488
  0
VERTEX
  8
0
 10
5.07135
 20
1.16911
 30
0.0
 40
0.0001488
 41
0.0001488
  0
VERTEX
  8
0
 10
5.06321
 20
1.17963
 30
0.0
 40
0.0001488
 41
0.0001488
  0
VERTEX
  8
0
 10
5.05376
 20
1.18945
 30
0.0
 40
0.0001488
 41
0.0001488
  0
VERTEX
  8
0
 10
5.04389
 20
1.19759
 30
0.0
 40
0.0001488
 41
0.0001488
  0
VERTEX
  8
0
 10
5.03381
 20
1.20388
 30
0.0
 40
0.0001488
 41
0.0001488
  0
VERTEX
  8
0
 10
5.03103
 20
1.20502
 30
0.0
 40
0.0001488
 41
0.0001488
  0
VERTEX
  8
0
 10
5.02376
 20
1.20806
 30
0.0
 40
0.0001488
 41
0.0001488
  0
VERTEX
  8
0
 10
5.01747
 20
1.20942
 30
0.0
 40
0.0001488
 41
0.0001488
  0
VERTEX
  8
0
 10
5.01394
 20
1.21012
 30
0.0
 40
0.0001488
 41
0.0001488
  0
VERTEX
  8
0
 10
5.00467
 20
1.20996
 30
0.0
 40
0.0001488
 41
0.0001488
  0
VERTEX
  8
0
 10
4.99621
 20
1.20763
 30
0.0
 40
0.0001488
 41
0.0001488
  0
VERTEX
  8
0
 10
4.99072
 20
1.20524
 30
0.0
 40
0.0001488
 41
0.0001488
  0
VERTEX
  8
0
 10
4.97657
 20
1.19916
 30
0.0
 40
0.0001488
 41
0.0001488
  0
VERTEX
  8
0
 10
4.97424
 20
1.19781
 30
0.0
 40
0.0001488
 41
0.0001488
  0
VERTEX
  8
0
 10
4.96903
 20
1.19466
 30
0.0
 40
0.0001488
 41
0.0001488
  0
VERTEX
  8
0
 10
4.96826
 20
1.1939
 30
0.0
 40
0.0001488
 41
0.0001488
  0
SEQEND
 8
0
  0
POLYLINE
  8
0
 62
     1
 66
     1
 10
0
 20
0
 30
0.0
 70
     1
 40
0.0107136
 41
0.0107136
  0
VERTEX
  8
0
 10
3.44883
 20
1.4936
 30
0.0
 40
0.0001488
 41
0.0001488
  0
VERTEX
  8
0
 10
3.45714
 20
1.49311
 30
0.0
 40
0.0001488
 41
0.0001488
  0
VERTEX
  8
0
 10
3.45876
 20
1.49317
 30
0.0
 40
0.0001488
 41
0.0001488
  0
VERTEX
  8
0
 10
3.46533
 20
1.4936
 30
0.0
 40
0.0001488
 41
0.0001488
  0
VERTEX
  8
0
 10
3.47347
 20
1.49511
 30
0.0
 40
0.0001488
 41
0.0001488
  0
VERTEX
  8
0
 10
3.48133
 20
1.49767
 30
0.0
 40
0.0001488
 41
0.0001488
  0
VERTEX
  8
0
 10
3.48888
 20
1.50108
 30
0.0
 40
0.0001488
 41
0.0001488
  0
VERTEX
  8
0
 10
3.49588
 20
1.50543
 30
0.0
 40
0.0001488
 41
0.0001488
  0
VERTEX
  8
0
 10
3.50233
 20
1.51058
 30
0.0
 40
0.0001488
 41
0.0001488
  0
VERTEX
  8
0
 10
3.50808
 20
1.51654
 30
0.0
 40
0.0001488
 41
0.0001488
  0
VERTEX
  8
0
 10
3.51303
 20
1.52311
 30
0.0
 40
0.0001488
 41
0.0001488
  0
VERTEX
  8
0
 10
3.51714
 20
1.53028
 30
0.0
 40
0.0001488
 41
0.0001488
  0
VERTEX
  8
0
 10
3.5204
 20
1.53787
 30
0.0
 40
0.0001488
 41
0.0001488
  0
VERTEX
  8
0
 10
3.52262
 20
1.54585
 30
0.0
 40
0.0001488
 41
0.0001488
  0
VERTEX
  8
0
 10
3.52387
 20
1.55399
 30
0.0
 40
0.0001488
 41
0.0001488
  0
VERTEX
  8
0
 10
3.52419
 20
1.56228
 30
0.0
 40
0.0001488
 41
0.0001488
  0
VERTEX
  8
0
 10
3.52365
 20
1.56776
 30
0.0
 40
0.0001488
 41
0.0001488
  0
VERTEX
  8
0
 10
3.52344
 20
1.57047
 30
0.0
 40
0.0001488
 41
0.0001488
  0
VERTEX
  8
0
 10
3.52165
 20
1.57856
 30
0.0
 40
0.0001488
 41
0.0001488
  0
VERTEX
  8
0
 10
3.51887
 20
1.58638
 30
0.0
 40
0.0001488
 41
0.0001488
  0
VERTEX
  8
0
 10
3.51519
 20
1.59375
 30
0.0
 40
0.0001488
 41
0.0001488
  0
VERTEX
  8
0
 10
3.51069
 20
1.60064
 30
0.0
 40
0.0001488
 41
0.0001488
  0
VERTEX
  8
0
 10
3.50526
 20
1.60688
 30
0.0
 40
0.0001488
 41
0.0001488
  0
VERTEX
  8
0
 10
3.49918
 20
1.61247
 30
0.0
 40
0.0001488
 41
0.0001488
  0
VERTEX
  8
0
 10
3.49246
 20
1.61724
 30
0.0
 40
0.0001488
 41
0.0001488
  0
VERTEX
  8
0
 10
3.48514
 20
1.62115
 30
0.0
 40
0.0001488
 41
0.0001488
  0
VERTEX
  8
0
 10
3.47743
 20
1.62414
 30
0.0
 40
0.0001488
 41
0.0001488
  0
VERTEX
  8
0
 10
3.46946
 20
1.62614
 30
0.0
 40
0.0001488
 41
0.0001488
  0
VERTEX
  8
0
 10
3.46126
 20
1.62711
 30
0.0
 40
0.0001488
 41
0.0001488
  0
VERTEX
  8
0
 10
3.45301
 20
1.62711
 30
0.0
 40
0.0001488
 41
0.0001488
  0
VERTEX
  8
0
 10
3.44482
 20
1.62614
 30
0.0
 40
0.0001488
 41
0.0001488
  0
VERTEX
  8
0
 10
3.43679
 20
1.62414
 30
0.0
 40
0.0001488
 41
0.0001488
  0
VERTEX
  8
0
 10
3.42904
 20
1.62115
 30
0.0
 40
0.0001488
 41
0.0001488
  0
VERTEX
  8
0
 10
3.42182
 20
1.61724
 30
0.0
 40
0.0001488
 41
0.0001488
  0
VERTEX
  8
0
 10
3.41504
 20
1.61247
 30
0.0
 40
0.0001488
 41
0.0001488
  0
VERTEX
  8
0
 10
3.40896
 20
1.60688
 30
0.0
 40
0.0001488
 41
0.0001488
  0
VERTEX
  8
0
 10
3.4036
 20
1.60064
 30
0.0
 40
0.0001488
 41
0.0001488
  0
VERTEX
  8
0
 10
3.39903
 20
1.59375
 30
0.0
 40
0.0001488
 41
0.0001488
  0
VERTEX
  8
0
 10
3.39529
 20
1.58638
 30
0.0
 40
0.0001488
 41
0.0001488
  0
VERTEX
  8
0
 10
3.39258
 20
1.57856
 30
0.0
 40
0.0001488
 41
0.0001488
  0
VERTEX
  8
0
 10
3.39085
 20
1.57047
 30
0.0
 40
0.0001488
 41
0.0001488
  0
VERTEX
  8
0
 10
3.39057
 20
1.56776
 30
0.0
 40
0.0001488
 41
0.0001488
  0
VERTEX
  8
0
 10
3.39003
 20
1.56228
 30
0.0
 40
0.0001488
 41
0.0001488
  0
VERTEX
  8
0
 10
3.39031
 20
1.55399
 30
0.0
 40
0.0001488
 41
0.0001488
  0
VERTEX
  8
0
 10
3.3916
 20
1.54585
 30
0.0
 40
0.0001488
 41
0.0001488
  0
VERTEX
  8
0
 10
3.39382
 20
1.53787
 30
0.0
 40
0.0001488
 41
0.0001488
  0
VERTEX
  8
0
 10
3.39703
 20
1.53028
 30
0.0
 40
0.0001488
 41
0.0001488
  0
VERTEX
  8
0
 10
3.39871
 20
1.52746
 30
0.0
 40
0.0001488
 41
0.0001488
  0
VERTEX
  8
0
 10
3.40121
 20
1.52311
 30
0.0
 40
0.0001488
 41
0.0001488
  0
VERTEX
  8
0
 10
3.40619
 20
1.51654
 30
0.0
 40
0.0001488
 41
0.0001488
  0
VERTEX
  8
0
 10
3.41194
 20
1.51058
 30
0.0
 40
0.0001488
 41
0.0001488
  0
VERTEX
  8
0
 10
3.41835
 20
1.50543
 30
0.0
 40
0.0001488
 41
0.0001488
  0
VERTEX
  8
0
 10
3.42535
 20
1.50108
 30
0.0
 40
0.0001488
 41
0.0001488
  0
VERTEX
  8
0
 10
3.43289
 20
1.49767
 30
0.0
 40
0.0001488
 41
0.0001488
  0
VERTEX
  8
0
 10
3.44075
 20
1.49511
 30
0.0
 40
0.0001488
 41
0.0001488
  0
VERTEX
  8
0
 10
3.44883
 20
1.4936
 30
0.0
 40
0.0001488
 41
0.0001488
  0
SEQEND
 8
0
  0
ENDSEC
  0
EOF
