  0
SECTION
  2
HEADER
  9
$ACADVER
  1
AC1009
  9
$FILLMODE
 70
 0
  9
$SPLFRAME
 70
 1
  9
$EXTMIN
 10
0
 20
0
 30
0.0
  9
$EXTMAX
 10
41.6667
 20
41.6667
 30
0.0
  0
ENDSEC
  0
SECTION
  2
TABLES
  0
TABLE
  2
LAYER
 70
1
  0
LAYER
  2
0
 70
     0
 62
     7
  6
CONTINUOUS
  0
ENDTAB
  0
ENDSEC
  0
SECTION
  2
ENTITIES
  0
POLYLINE
  8
0
 62
     254
 66
     1
 10
0
 20
0
 30
0.0
 70
     1
 40
0
 41
0
  0
VERTEX
  8
0
 10
0.477593
 20
5.09668
 30
0.0
 40
0
 41
0
  0
VERTEX
  8
0
 10
0.529676
 20
5.1785
 30
0.0
 40
0
 41
0
  0
VERTEX
  8
0
 10
0.534831
 20
5.18658
 30
0.0
 40
0
 41
0
  0
VERTEX
  8
0
 10
0.576497
 20
5.25201
 30
0.0
 40
0
 41
0
  0
VERTEX
  8
0
 10
0.605414
 20
5.28597
 30
0.0
 40
0
 41
0
  0
VERTEX
  8
0
 10
0.671278
 20
5.36339
 30
0.0
 40
0
 41
0
  0
VERTEX
  8
0
 10
0.707465
 20
5.36083
 30
0.0
 40
0
 41
0
  0
VERTEX
  8
0
 10
0.841581
 20
5.35135
 30
0.0
 40
0
 41
0
  0
VERTEX
  8
0
 10
0.896972
 20
5.34739
 30
0.0
 40
0
 41
0
  0
VERTEX
  8
0
 10
0.902724
 20
5.347
 30
0.0
 40
0
 41
0
  0
VERTEX
  8
0
 10
0.950629
 20
5.24957
 30
0.0
 40
0
 41
0
  0
VERTEX
  8
0
 10
0.969021
 20
5.21218
 30
0.0
 40
0
 41
0
  0
VERTEX
  8
0
 10
0.982368
 20
5.18511
 30
0.0
 40
0
 41
0
  0
VERTEX
  8
0
 10
0.988986
 20
5.1716
 30
0.0
 40
0
 41
0
  0
VERTEX
  8
0
 10
0.979058
 20
5.15972
 30
0.0
 40
0
 41
0
  0
VERTEX
  8
0
 10
0.939128
 20
5.11214
 30
0.0
 40
0
 41
0
  0
VERTEX
  8
0
 10
0.896972
 20
5.0619
 30
0.0
 40
0
 41
0
  0
VERTEX
  8
0
 10
0.895887
 20
5.0606
 30
0.0
 40
0
 41
0
  0
VERTEX
  8
0
 10
0.876628
 20
5.03933
 30
0.0
 40
0
 41
0
  0
VERTEX
  8
0
 10
0.846246
 20
4.9981
 30
0.0
 40
0
 41
0
  0
VERTEX
  8
0
 10
0.805012
 20
4.94222
 30
0.0
 40
0
 41
0
  0
VERTEX
  8
0
 10
0.800999
 20
4.93549
 30
0.0
 40
0
 41
0
  0
VERTEX
  8
0
 10
0.775065
 20
4.89193
 30
0.0
 40
0
 41
0
  0
VERTEX
  8
0
 10
0.717449
 20
4.80154
 30
0.0
 40
0
 41
0
  0
VERTEX
  8
0
 10
0.697211
 20
4.76264
 30
0.0
 40
0
 41
0
  0
VERTEX
  8
0
 10
0.63189
 20
4.63704
 30
0.0
 40
0
 41
0
  0
VERTEX
  8
0
 10
0.554904
 20
4.45583
 30
0.0
 40
0
 41
0
  0
VERTEX
  8
0
 10
0.529676
 20
4.38282
 30
0.0
 40
0
 41
0
  0
VERTEX
  8
0
 10
0.487196
 20
4.25971
 30
0.0
 40
0
 41
0
  0
VERTEX
  8
0
 10
0.447971
 20
4.11757
 30
0.0
 40
0
 41
0
  0
VERTEX
  8
0
 10
0.429471
 20
4.05051
 30
0.0
 40
0
 41
0
  0
VERTEX
  8
0
 10
0.382324
 20
3.83024
 30
0.0
 40
0
 41
0
  0
VERTEX
  8
0
 10
0.346083
 20
3.60107
 30
0.0
 40
0
 41
0
  0
VERTEX
  8
0
 10
0.329264
 20
3.44168
 30
0.0
 40
0
 41
0
  0
VERTEX
  8
0
 10
0.321235
 20
3.36518
 30
0.0
 40
0
 41
0
  0
VERTEX
  8
0
 10
0.307889
 20
3.12483
 30
0.0
 40
0
 41
0
  0
VERTEX
  8
0
 10
0.306261
 20
2.88232
 30
0.0
 40
0
 41
0
  0
VERTEX
  8
0
 10
0.316351
 20
2.64008
 30
0.0
 40
0
 41
0
  0
VERTEX
  8
0
 10
0.329264
 20
2.4974
 30
0.0
 40
0
 41
0
  0
VERTEX
  8
0
 10
0.338053
 20
2.40033
 30
0.0
 40
0
 41
0
  0
VERTEX
  8
0
 10
0.371203
 20
2.16547
 30
0.0
 40
0
 41
0
  0
VERTEX
  8
0
 10
0.415365
 20
1.93772
 30
0.0
 40
0
 41
0
  0
VERTEX
  8
0
 10
0.470215
 20
1.71924
 30
0.0
 40
0
 41
0
  0
VERTEX
  8
0
 10
0.527235
 20
1.53743
 30
0.0
 40
0
 41
0
  0
VERTEX
  8
0
 10
0.529676
 20
1.52957
 30
0.0
 40
0
 41
0
  0
VERTEX
  8
0
 10
0.535157
 20
1.51215
 30
0.0
 40
0
 41
0
  0
VERTEX
  8
0
 10
0.609646
 20
1.31847
 30
0.0
 40
0
 41
0
  0
VERTEX
  8
0
 10
0.692925
 20
1.14008
 30
0.0
 40
0
 41
0
  0
VERTEX
  8
0
 10
0.725586
 20
1.08225
 30
0.0
 40
0
 41
0
  0
VERTEX
  8
0
 10
0.761176
 20
1.01931
 30
0.0
 40
0
 41
0
  0
VERTEX
  8
0
 10
0.770833
 20
0.998915
 30
0.0
 40
0
 41
0
  0
VERTEX
  8
0
 10
0.803874
 20
0.943739
 30
0.0
 40
0
 41
0
  0
VERTEX
  8
0
 10
0.83469
 20
0.892361
 30
0.0
 40
0
 41
0
  0
VERTEX
  8
0
 10
0.846951
 20
0.871907
 30
0.0
 40
0
 41
0
  0
VERTEX
  8
0
 10
0.896972
 20
0.804525
 30
0.0
 40
0
 41
0
  0
VERTEX
  8
0
 10
0.935167
 20
0.753039
 30
0.0
 40
0
 41
0
  0
VERTEX
  8
0
 10
0.953125
 20
0.733182
 30
0.0
 40
0
 41
0
  0
VERTEX
  8
0
 10
0.958387
 20
0.727376
 30
0.0
 40
0
 41
0
  0
VERTEX
  8
0
 10
0.960504
 20
0.724338
 30
0.0
 40
0
 41
0
  0
VERTEX
  8
0
 10
0.98367
 20
0.696886
 30
0.0
 40
0
 41
0
  0
VERTEX
  8
0
 10
1.0427
 20
0.627115
 30
0.0
 40
0
 41
0
  0
VERTEX
  8
0
 10
1.13341
 20
0.539008
 30
0.0
 40
0
 41
0
  0
VERTEX
  8
0
 10
1.1377
 20
0.53559
 30
0.0
 40
0
 41
0
  0
VERTEX
  8
0
 10
1.16395
 20
0.514703
 30
0.0
 40
0
 41
0
  0
VERTEX
  8
0
 10
1.23177
 20
0.460829
 30
0.0
 40
0
 41
0
  0
VERTEX
  8
0
 10
1.33681
 20
0.393446
 30
0.0
 40
0
 41
0
  0
VERTEX
  8
0
 10
1.40213
 20
0.360351
 30
0.0
 40
0
 41
0
  0
VERTEX
  8
0
 10
1.42139
 20
0.344347
 30
0.0
 40
0
 41
0
  0
VERTEX
  8
0
 10
1.42042
 20
0.339789
 30
0.0
 40
0
 41
0
  0
VERTEX
  8
0
 10
1.41515
 20
0.315158
 30
0.0
 40
0
 41
0
  0
VERTEX
  8
0
 10
1.40631
 20
0.273926
 30
0.0
 40
0
 41
0
  0
VERTEX
  8
0
 10
1.39811
 20
0.235622
 30
0.0
 40
0
 41
0
  0
VERTEX
  8
0
 10
1.37684
 20
0.136502
 30
0.0
 40
0
 41
0
  0
VERTEX
  8
0
 10
1.11122
 20
0.0512696
 30
0.0
 40
0
 41
0
  0
VERTEX
  8
0
 10
0.941189
 20
0.17399
 30
0.0
 40
0
 41
0
  0
VERTEX
  8
0
 10
0.8986
 20
0.213542
 30
0.0
 40
0
 41
0
  0
VERTEX
  8
0
 10
0.896972
 20
0.215115
 30
0.0
 40
0
 41
0
  0
VERTEX
  8
0
 10
0.862304
 20
0.247342
 30
0.0
 40
0
 41
0
  0
VERTEX
  8
0
 10
0.834364
 20
0.273329
 30
0.0
 40
0
 41
0
  0
VERTEX
  8
0
 10
0.779025
 20
0.338487
 30
0.0
 40
0
 41
0
  0
VERTEX
  8
0
 10
0.742133
 20
0.38189
 30
0.0
 40
0
 41
0
  0
VERTEX
  8
0
 10
0.622179
 20
0.556099
 30
0.0
 40
0
 41
0
  0
VERTEX
  8
0
 10
0.592665
 20
0.60829
 30
0.0
 40
0
 41
0
  0
VERTEX
  8
0
 10
0.529676
 20
0.719726
 30
0.0
 40
0
 41
0
  0
VERTEX
  8
0
 10
0.510906
 20
0.752983
 30
0.0
 40
0
 41
0
  0
VERTEX
  8
0
 10
0.445801
 20
0.892361
 30
0.0
 40
0
 41
0
  0
VERTEX
  8
0
 10
0.409343
 20
0.97054
 30
0.0
 40
0
 41
0
  0
VERTEX
  8
0
 10
0.329264
 20
1.17866
 30
0.0
 40
0
 41
0
  0
VERTEX
  8
0
 10
0.318522
 20
1.20671
 30
0.0
 40
0
 41
0
  0
VERTEX
  8
0
 10
0.239312
 20
1.45925
 30
0.0
 40
0
 41
0
  0
VERTEX
  8
0
 10
0.219672
 20
1.53743
 30
0.0
 40
0
 41
0
  0
VERTEX
  8
0
 10
0.172418
 20
1.72564
 30
0.0
 40
0
 41
0
  0
VERTEX
  8
0
 10
0.156793
 20
1.80615
 30
0.0
 40
0
 41
0
  0
VERTEX
  8
0
 10
0.11849
 20
2.00347
 30
0.0
 40
0
 41
0
  0
VERTEX
  8
0
 10
0.078125
 20
2.28993
 30
0.0
 40
0
 41
0
  0
VERTEX
  8
0
 10
0.0517036
 20
2.58225
 30
0.0
 40
0
 41
0
  0
VERTEX
  8
0
 10
0.0393881
 20
2.87771
 30
0.0
 40
0
 41
0
  0
VERTEX
  8
0
 10
0.0413954
 20
3.17339
 30
0.0
 40
0
 41
0
  0
VERTEX
  8
0
 10
0.0576172
 20
3.46647
 30
0.0
 40
0
 41
0
  0
VERTEX
  8
0
 10
0.0879449
 20
3.75418
 30
0.0
 40
0
 41
0
  0
VERTEX
  8
0
 10
0.132107
 20
4.03369
 30
0.0
 40
0
 41
0
  0
VERTEX
  8
0
 10
0.150119
 20
4.11757
 30
0.0
 40
0
 41
0
  0
VERTEX
  8
0
 10
0.189671
 20
4.30225
 30
0.0
 40
0
 41
0
  0
VERTEX
  8
0
 10
0.260038
 20
4.5574
 30
0.0
 40
0
 41
0
  0
VERTEX
  8
0
 10
0.329264
 20
4.75814
 30
0.0
 40
0
 41
0
  0
VERTEX
  8
0
 10
0.330837
 20
4.76264
 30
0.0
 40
0
 41
0
  0
VERTEX
  8
0
 10
0.342557
 20
4.7966
 30
0.0
 40
0
 41
0
  0
VERTEX
  8
0
 10
0.369792
 20
4.86074
 30
0.0
 40
0
 41
0
  0
VERTEX
  8
0
 10
0.436469
 20
5.01758
 30
0.0
 40
0
 41
0
  0
VERTEX
  8
0
 10
0.466635
 20
5.07563
 30
0.0
 40
0
 41
0
  0
VERTEX
  8
0
 10
0.477593
 20
5.09668
 30
0.0
 40
0
 41
0
  0
SEQEND
 8
0
  0
POLYLINE
  8
0
 62
     254
 66
     1
 10
0
 20
0
 30
0.0
 70
     1
 40
0
 41
0
  0
VERTEX
  8
0
 10
0.766276
 20
5.13162
 30
0.0
 40
0
 41
0
  0
VERTEX
  8
0
 10
0.774468
 20
5.13113
 30
0.0
 40
0
 41
0
  0
VERTEX
  8
0
 10
0.782769
 20
5.13162
 30
0.0
 40
0
 41
0
  0
VERTEX
  8
0
 10
0.790853
 20
5.13314
 30
0.0
 40
0
 41
0
  0
VERTEX
  8
0
 10
0.798719
 20
5.13564
 30
0.0
 40
0
 41
0
  0
VERTEX
  8
0
 10
0.806261
 20
5.13911
 30
0.0
 40
0
 41
0
  0
VERTEX
  8
0
 10
0.813097
 20
5.14333
 30
0.0
 40
0
 41
0
  0
VERTEX
  8
0
 10
0.81326
 20
5.14344
 30
0.0
 40
0
 41
0
  0
VERTEX
  8
0
 10
0.819661
 20
5.14865
 30
0.0
 40
0
 41
0
  0
VERTEX
  8
0
 10
0.825412
 20
5.15457
 30
0.0
 40
0
 41
0
  0
VERTEX
  8
0
 10
0.830458
 20
5.16118
 30
0.0
 40
0
 41
0
  0
VERTEX
  8
0
 10
0.833117
 20
5.16575
 30
0.0
 40
0
 41
0
  0
VERTEX
  8
0
 10
0.834581
 20
5.16829
 30
0.0
 40
0
 41
0
  0
VERTEX
  8
0
 10
0.837782
 20
5.17594
 30
0.0
 40
0
 41
0
  0
VERTEX
  8
0
 10
0.840061
 20
5.18386
 30
0.0
 40
0
 41
0
  0
VERTEX
  8
0
 10
0.841308
 20
5.192
 30
0.0
 40
0
 41
0
  0
VERTEX
  8
0
 10
0.841581
 20
5.20025
 30
0.0
 40
0
 41
0
  0
VERTEX
  8
0
 10
0.840767
 20
5.2085
 30
0.0
 40
0
 41
0
  0
VERTEX
  8
0
 10
0.840603
 20
5.20925
 30
0.0
 40
0
 41
0
  0
VERTEX
  8
0
 10
0.839031
 20
5.21658
 30
0.0
 40
0
 41
0
  0
VERTEX
  8
0
 10
0.836317
 20
5.22433
 30
0.0
 40
0
 41
0
  0
VERTEX
  8
0
 10
0.832574
 20
5.23178
 30
0.0
 40
0
 41
0
  0
VERTEX
  8
0
 10
0.828017
 20
5.23867
 30
0.0
 40
0
 41
0
  0
VERTEX
  8
0
 10
0.8227
 20
5.2449
 30
0.0
 40
0
 41
0
  0
VERTEX
  8
0
 10
0.821018
 20
5.24642
 30
0.0
 40
0
 41
0
  0
VERTEX
  8
0
 10
0.816569
 20
5.25049
 30
0.0
 40
0
 41
0
  0
VERTEX
  8
0
 10
0.813097
 20
5.25299
 30
0.0
 40
0
 41
0
  0
VERTEX
  8
0
 10
0.809787
 20
5.25526
 30
0.0
 40
0
 41
0
  0
VERTEX
  8
0
 10
0.802572
 20
5.25917
 30
0.0
 40
0
 41
0
  0
VERTEX
  8
0
 10
0.794868
 20
5.26215
 30
0.0
 40
0
 41
0
  0
VERTEX
  8
0
 10
0.786838
 20
5.26417
 30
0.0
 40
0
 41
0
  0
VERTEX
  8
0
 10
0.778646
 20
5.26519
 30
0.0
 40
0
 41
0
  0
VERTEX
  8
0
 10
0.770344
 20
5.26519
 30
0.0
 40
0
 41
0
  0
VERTEX
  8
0
 10
0.762153
 20
5.26417
 30
0.0
 40
0
 41
0
  0
VERTEX
  8
0
 10
0.754178
 20
5.26215
 30
0.0
 40
0
 41
0
  0
VERTEX
  8
0
 10
0.746474
 20
5.25917
 30
0.0
 40
0
 41
0
  0
VERTEX
  8
0
 10
0.73915
 20
5.25526
 30
0.0
 40
0
 41
0
  0
VERTEX
  8
0
 10
0.732422
 20
5.25049
 30
0.0
 40
0
 41
0
  0
VERTEX
  8
0
 10
0.727974
 20
5.24642
 30
0.0
 40
0
 41
0
  0
VERTEX
  8
0
 10
0.726346
 20
5.2449
 30
0.0
 40
0
 41
0
  0
VERTEX
  8
0
 10
0.720921
 20
5.23867
 30
0.0
 40
0
 41
0
  0
VERTEX
  8
0
 10
0.716417
 20
5.23178
 30
0.0
 40
0
 41
0
  0
VERTEX
  8
0
 10
0.712728
 20
5.22433
 30
0.0
 40
0
 41
0
  0
VERTEX
  8
0
 10
0.709961
 20
5.21658
 30
0.0
 40
0
 41
0
  0
VERTEX
  8
0
 10
0.708171
 20
5.2085
 30
0.0
 40
0
 41
0
  0
VERTEX
  8
0
 10
0.707465
 20
5.20025
 30
0.0
 40
0
 41
0
  0
VERTEX
  8
0
 10
0.707736
 20
5.192
 30
0.0
 40
0
 41
0
  0
VERTEX
  8
0
 10
0.708985
 20
5.18386
 30
0.0
 40
0
 41
0
  0
VERTEX
  8
0
 10
0.711208
 20
5.17594
 30
0.0
 40
0
 41
0
  0
VERTEX
  8
0
 10
0.714464
 20
5.16829
 30
0.0
 40
0
 41
0
  0
VERTEX
  8
0
 10
0.715929
 20
5.16575
 30
0.0
 40
0
 41
0
  0
VERTEX
  8
0
 10
0.71696
 20
5.16396
 30
0.0
 40
0
 41
0
  0
VERTEX
  8
0
 10
0.718588
 20
5.16118
 30
0.0
 40
0
 41
0
  0
VERTEX
  8
0
 10
0.723525
 20
5.15457
 30
0.0
 40
0
 41
0
  0
VERTEX
  8
0
 10
0.729275
 20
5.14865
 30
0.0
 40
0
 41
0
  0
VERTEX
  8
0
 10
0.735732
 20
5.14344
 30
0.0
 40
0
 41
0
  0
VERTEX
  8
0
 10
0.742731
 20
5.13911
 30
0.0
 40
0
 41
0
  0
VERTEX
  8
0
 10
0.750271
 20
5.13564
 30
0.0
 40
0
 41
0
  0
VERTEX
  8
0
 10
0.758137
 20
5.13314
 30
0.0
 40
0
 41
0
  0
VERTEX
  8
0
 10
0.766276
 20
5.13162
 30
0.0
 40
0
 41
0
  0
SEQEND
 8
0
  0
POLYLINE
  8
0
 62
     254
 66
     1
 10
0
 20
0
 30
0.0
 70
     1
 40
0
 41
0
  0
VERTEX
  8
0
 10
1.19884
 20
0.320856
 30
0.0
 40
0
 41
0
  0
VERTEX
  8
0
 10
1.19727
 20
0.327963
 30
0.0
 40
0
 41
0
  0
VERTEX
  8
0
 10
1.19705
 20
0.328939
 30
0.0
 40
0
 41
0
  0
VERTEX
  8
0
 10
1.19428
 20
0.336697
 30
0.0
 40
0
 41
0
  0
VERTEX
  8
0
 10
1.19065
 20
0.344129
 30
0.0
 40
0
 41
0
  0
VERTEX
  8
0
 10
1.18609
 20
0.351019
 30
0.0
 40
0
 41
0
  0
VERTEX
  8
0
 10
1.18072
 20
0.35726
 30
0.0
 40
0
 41
0
  0
VERTEX
  8
0
 10
1.17459
 20
0.362847
 30
0.0
 40
0
 41
0
  0
VERTEX
  8
0
 10
1.16786
 20
0.367622
 30
0.0
 40
0
 41
0
  0
VERTEX
  8
0
 10
1.16054
 20
0.371528
 30
0.0
 40
0
 41
0
  0
VERTEX
  8
0
 10
1.15289
 20
0.374511
 30
0.0
 40
0
 41
0
  0
VERTEX
  8
0
 10
1.14486
 20
0.376519
 30
0.0
 40
0
 41
0
  0
VERTEX
  8
0
 10
1.14079
 20
0.377007
 30
0.0
 40
0
 41
0
  0
VERTEX
  8
0
 10
1.13666
 20
0.37755
 30
0.0
 40
0
 41
0
  0
VERTEX
  8
0
 10
1.12836
 20
0.37755
 30
0.0
 40
0
 41
0
  0
VERTEX
  8
0
 10
1.12017
 20
0.376519
 30
0.0
 40
0
 41
0
  0
VERTEX
  8
0
 10
1.11214
 20
0.374511
 30
0.0
 40
0
 41
0
  0
VERTEX
  8
0
 10
1.10449
 20
0.371528
 30
0.0
 40
0
 41
0
  0
VERTEX
  8
0
 10
1.09722
 20
0.367622
 30
0.0
 40
0
 41
0
  0
VERTEX
  8
0
 10
1.09049
 20
0.362847
 30
0.0
 40
0
 41
0
  0
VERTEX
  8
0
 10
1.08436
 20
0.35726
 30
0.0
 40
0
 41
0
  0
VERTEX
  8
0
 10
1.08328
 20
0.355957
 30
0.0
 40
0
 41
0
  0
VERTEX
  8
0
 10
1.07899
 20
0.351019
 30
0.0
 40
0
 41
0
  0
VERTEX
  8
0
 10
1.07444
 20
0.344129
 30
0.0
 40
0
 41
0
  0
VERTEX
  8
0
 10
1.07075
 20
0.336697
 30
0.0
 40
0
 41
0
  0
VERTEX
  8
0
 10
1.06798
 20
0.328939
 30
0.0
 40
0
 41
0
  0
VERTEX
  8
0
 10
1.06776
 20
0.327963
 30
0.0
 40
0
 41
0
  0
VERTEX
  8
0
 10
1.06624
 20
0.320856
 30
0.0
 40
0
 41
0
  0
VERTEX
  8
0
 10
1.06548
 20
0.312662
 30
0.0
 40
0
 41
0
  0
VERTEX
  8
0
 10
1.0657
 20
0.304417
 30
0.0
 40
0
 41
0
  0
VERTEX
  8
0
 10
1.06695
 20
0.296224
 30
0.0
 40
0
 41
0
  0
VERTEX
  8
0
 10
1.06923
 20
0.288303
 30
0.0
 40
0
 41
0
  0
VERTEX
  8
0
 10
1.07248
 20
0.280653
 30
0.0
 40
0
 41
0
  0
VERTEX
  8
0
 10
1.07661
 20
0.273546
 30
0.0
 40
0
 41
0
  0
VERTEX
  8
0
 10
1.0816
 20
0.266928
 30
0.0
 40
0
 41
0
  0
VERTEX
  8
0
 10
1.08735
 20
0.261014
 30
0.0
 40
0
 41
0
  0
VERTEX
  8
0
 10
1.0938
 20
0.255806
 30
0.0
 40
0
 41
0
  0
VERTEX
  8
0
 10
1.1008
 20
0.251465
 30
0.0
 40
0
 41
0
  0
VERTEX
  8
0
 10
1.10829
 20
0.247993
 30
0.0
 40
0
 41
0
  0
VERTEX
  8
0
 10
1.11041
 20
0.247342
 30
0.0
 40
0
 41
0
  0
VERTEX
  8
0
 10
1.11616
 20
0.245497
 30
0.0
 40
0
 41
0
  0
VERTEX
  8
0
 10
1.12429
 20
0.243978
 30
0.0
 40
0
 41
0
  0
VERTEX
  8
0
 10
1.13254
 20
0.24349
 30
0.0
 40
0
 41
0
  0
VERTEX
  8
0
 10
1.13287
 20
0.24349
 30
0.0
 40
0
 41
0
  0
VERTEX
  8
0
 10
1.13558
 20
0.243653
 30
0.0
 40
0
 41
0
  0
VERTEX
  8
0
 10
1.14079
 20
0.243978
 30
0.0
 40
0
 41
0
  0
VERTEX
  8
0
 10
1.14887
 20
0.245497
 30
0.0
 40
0
 41
0
  0
VERTEX
  8
0
 10
1.15468
 20
0.247342
 30
0.0
 40
0
 41
0
  0
VERTEX
  8
0
 10
1.15679
 20
0.247993
 30
0.0
 40
0
 41
0
  0
VERTEX
  8
0
 10
1.16423
 20
0.251465
 30
0.0
 40
0
 41
0
  0
VERTEX
  8
0
 10
1.17128
 20
0.255806
 30
0.0
 40
0
 41
0
  0
VERTEX
  8
0
 10
1.17773
 20
0.261014
 30
0.0
 40
0
 41
0
  0
VERTEX
  8
0
 10
1.18348
 20
0.266928
 30
0.0
 40
0
 41
0
  0
VERTEX
  8
0
 10
1.18848
 20
0.273546
 30
0.0
 40
0
 41
0
  0
VERTEX
  8
0
 10
1.1926
 20
0.280653
 30
0.0
 40
0
 41
0
  0
VERTEX
  8
0
 10
1.19352
 20
0.282824
 30
0.0
 40
0
 41
0
  0
VERTEX
  8
0
 10
1.1958
 20
0.288303
 30
0.0
 40
0
 41
0
  0
VERTEX
  8
0
 10
1.19808
 20
0.296224
 30
0.0
 40
0
 41
0
  0
VERTEX
  8
0
 10
1.19933
 20
0.304417
 30
0.0
 40
0
 41
0
  0
VERTEX
  8
0
 10
1.19954
 20
0.312662
 30
0.0
 40
0
 41
0
  0
VERTEX
  8
0
 10
1.19884
 20
0.320856
 30
0.0
 40
0
 41
0
  0
SEQEND
 8
0
  0
POLYLINE
  8
0
 62
     1
 66
     1
 10
0
 20
0
 30
0.0
 70
     1
 40
0.0107136
 41
0.0107136
  0
VERTEX
  8
0
 10
0.477593
 20
5.09668
 30
0.0
 40
0.0001488
 41
0.0001488
  0
VERTEX
  8
0
 10
0.529676
 20
5.1785
 30
0.0
 40
0.0001488
 41
0.0001488
  0
VERTEX
  8
0
 10
0.534831
 20
5.18658
 30
0.0
 40
0.0001488
 41
0.0001488
  0
VERTEX
  8
0
 10
0.576497
 20
5.25201
 30
0.0
 40
0.0001488
 41
0.0001488
  0
VERTEX
  8
0
 10
0.605414
 20
5.28597
 30
0.0
 40
0.0001488
 41
0.0001488
  0
VERTEX
  8
0
 10
0.671278
 20
5.36339
 30
0.0
 40
0.0001488
 41
0.0001488
  0
VERTEX
  8
0
 10
0.707465
 20
5.36083
 30
0.0
 40
0.0001488
 41
0.0001488
  0
VERTEX
  8
0
 10
0.841581
 20
5.35135
 30
0.0
 40
0.0001488
 41
0.0001488
  0
VERTEX
  8
0
 10
0.896972
 20
5.34739
 30
0.0
 40
0.0001488
 41
0.0001488
  0
VERTEX
  8
0
 10
0.902724
 20
5.347
 30
0.0
 40
0.0001488
 41
0.0001488
  0
VERTEX
  8
0
 10
0.950629
 20
5.24957
 30
0.0
 40
0.0001488
 41
0.0001488
  0
VERTEX
  8
0
 10
0.969021
 20
5.21218
 30
0.0
 40
0.0001488
 41
0.0001488
  0
VERTEX
  8
0
 10
0.982368
 20
5.18511
 30
0.0
 40
0.0001488
 41
0.0001488
  0
VERTEX
  8
0
 10
0.988986
 20
5.1716
 30
0.0
 40
0.0001488
 41
0.0001488
  0
VERTEX
  8
0
 10
0.979058
 20
5.15972
 30
0.0
 40
0.0001488
 41
0.0001488
  0
VERTEX
  8
0
 10
0.939128
 20
5.11214
 30
0.0
 40
0.0001488
 41
0.0001488
  0
VERTEX
  8
0
 10
0.896972
 20
5.0619
 30
0.0
 40
0.0001488
 41
0.0001488
  0
VERTEX
  8
0
 10
0.895887
 20
5.0606
 30
0.0
 40
0.0001488
 41
0.0001488
  0
VERTEX
  8
0
 10
0.876628
 20
5.03933
 30
0.0
 40
0.0001488
 41
0.0001488
  0
VERTEX
  8
0
 10
0.846246
 20
4.9981
 30
0.0
 40
0.0001488
 41
0.0001488
  0
VERTEX
  8
0
 10
0.805012
 20
4.94222
 30
0.0
 40
0.0001488
 41
0.0001488
  0
VERTEX
  8
0
 10
0.800999
 20
4.93549
 30
0.0
 40
0.0001488
 41
0.0001488
  0
VERTEX
  8
0
 10
0.775065
 20
4.89193
 30
0.0
 40
0.0001488
 41
0.0001488
  0
VERTEX
  8
0
 10
0.717449
 20
4.80154
 30
0.0
 40
0.0001488
 41
0.0001488
  0
VERTEX
  8
0
 10
0.697211
 20
4.76264
 30
0.0
 40
0.0001488
 41
0.0001488
  0
VERTEX
  8
0
 10
0.63189
 20
4.63704
 30
0.0
 40
0.0001488
 41
0.0001488
  0
VERTEX
  8
0
 10
0.554904
 20
4.45583
 30
0.0
 40
0.0001488
 41
0.0001488
  0
VERTEX
  8
0
 10
0.529676
 20
4.38282
 30
0.0
 40
0.0001488
 41
0.0001488
  0
VERTEX
  8
0
 10
0.487196
 20
4.25971
 30
0.0
 40
0.0001488
 41
0.0001488
  0
VERTEX
  8
0
 10
0.447971
 20
4.11757
 30
0.0
 40
0.0001488
 41
0.0001488
  0
VERTEX
  8
0
 10
0.429471
 20
4.05051
 30
0.0
 40
0.0001488
 41
0.0001488
  0
VERTEX
  8
0
 10
0.382324
 20
3.83024
 30
0.0
 40
0.0001488
 41
0.0001488
  0
VERTEX
  8
0
 10
0.346083
 20
3.60107
 30
0.0
 40
0.0001488
 41
0.0001488
  0
VERTEX
  8
0
 10
0.329264
 20
3.44168
 30
0.0
 40
0.0001488
 41
0.0001488
  0
VERTEX
  8
0
 10
0.321235
 20
3.36518
 30
0.0
 40
0.0001488
 41
0.0001488
  0
VERTEX
  8
0
 10
0.307889
 20
3.12483
 30
0.0
 40
0.0001488
 41
0.0001488
  0
VERTEX
  8
0
 10
0.306261
 20
2.88232
 30
0.0
 40
0.0001488
 41
0.0001488
  0
VERTEX
  8
0
 10
0.316351
 20
2.64008
 30
0.0
 40
0.0001488
 41
0.0001488
  0
VERTEX
  8
0
 10
0.329264
 20
2.4974
 30
0.0
 40
0.0001488
 41
0.0001488
  0
VERTEX
  8
0
 10
0.338053
 20
2.40033
 30
0.0
 40
0.0001488
 41
0.0001488
  0
VERTEX
  8
0
 10
0.371203
 20
2.16547
 30
0.0
 40
0.0001488
 41
0.0001488
  0
VERTEX
  8
0
 10
0.415365
 20
1.93772
 30
0.0
 40
0.0001488
 41
0.0001488
  0
VERTEX
  8
0
 10
0.470215
 20
1.71924
 30
0.0
 40
0.0001488
 41
0.0001488
  0
VERTEX
  8
0
 10
0.527235
 20
1.53743
 30
0.0
 40
0.0001488
 41
0.0001488
  0
VERTEX
  8
0
 10
0.529676
 20
1.52957
 30
0.0
 40
0.0001488
 41
0.0001488
  0
VERTEX
  8
0
 10
0.535157
 20
1.51215
 30
0.0
 40
0.0001488
 41
0.0001488
  0
VERTEX
  8
0
 10
0.609646
 20
1.31847
 30
0.0
 40
0.0001488
 41
0.0001488
  0
VERTEX
  8
0
 10
0.692925
 20
1.14008
 30
0.0
 40
0.0001488
 41
0.0001488
  0
VERTEX
  8
0
 10
0.725586
 20
1.08225
 30
0.0
 40
0.0001488
 41
0.0001488
  0
VERTEX
  8
0
 10
0.761176
 20
1.01931
 30
0.0
 40
0.0001488
 41
0.0001488
  0
VERTEX
  8
0
 10
0.770833
 20
0.998915
 30
0.0
 40
0.0001488
 41
0.0001488
  0
VERTEX
  8
0
 10
0.803874
 20
0.943739
 30
0.0
 40
0.0001488
 41
0.0001488
  0
VERTEX
  8
0
 10
0.83469
 20
0.892361
 30
0.0
 40
0.0001488
 41
0.0001488
  0
VERTEX
  8
0
 10
0.846951
 20
0.871907
 30
0.0
 40
0.0001488
 41
0.0001488
  0
VERTEX
  8
0
 10
0.896972
 20
0.804525
 30
0.0
 40
0.0001488
 41
0.0001488
  0
VERTEX
  8
0
 10
0.935167
 20
0.753039
 30
0.0
 40
0.0001488
 41
0.0001488
  0
VERTEX
  8
0
 10
0.953125
 20
0.733182
 30
0.0
 40
0.0001488
 41
0.0001488
  0
VERTEX
  8
0
 10
0.958387
 20
0.727376
 30
0.0
 40
0.0001488
 41
0.0001488
  0
VERTEX
  8
0
 10
0.960504
 20
0.724338
 30
0.0
 40
0.0001488
 41
0.0001488
  0
VERTEX
  8
0
 10
0.98367
 20
0.696886
 30
0.0
 40
0.0001488
 41
0.0001488
  0
VERTEX
  8
0
 10
1.0427
 20
0.627115
 30
0.0
 40
0.0001488
 41
0.0001488
  0
VERTEX
  8
0
 10
1.13341
 20
0.539008
 30
0.0
 40
0.0001488
 41
0.0001488
  0
VERTEX
  8
0
 10
1.1377
 20
0.53559
 30
0.0
 40
0.0001488
 41
0.0001488
  0
VERTEX
  8
0
 10
1.16395
 20
0.514703
 30
0.0
 40
0.0001488
 41
0.0001488
  0
VERTEX
  8
0
 10
1.23177
 20
0.460829
 30
0.0
 40
0.0001488
 41
0.0001488
  0
VERTEX
  8
0
 10
1.33681
 20
0.393446
 30
0.0
 40
0.0001488
 41
0.0001488
  0
VERTEX
  8
0
 10
1.40213
 20
0.360351
 30
0.0
 40
0.0001488
 41
0.0001488
  0
VERTEX
  8
0
 10
1.42139
 20
0.344347
 30
0.0
 40
0.0001488
 41
0.0001488
  0
VERTEX
  8
0
 10
1.42042
 20
0.339789
 30
0.0
 40
0.0001488
 41
0.0001488
  0
VERTEX
  8
0
 10
1.41515
 20
0.315158
 30
0.0
 40
0.0001488
 41
0.0001488
  0
VERTEX
  8
0
 10
1.40631
 20
0.273926
 30
0.0
 40
0.0001488
 41
0.0001488
  0
VERTEX
  8
0
 10
1.39811
 20
0.235622
 30
0.0
 40
0.0001488
 41
0.0001488
  0
VERTEX
  8
0
 10
1.37684
 20
0.136502
 30
0.0
 40
0.0001488
 41
0.0001488
  0
VERTEX
  8
0
 10
1.11122
 20
0.0512696
 30
0.0
 40
0.0001488
 41
0.0001488
  0
VERTEX
  8
0
 10
0.941189
 20
0.17399
 30
0.0
 40
0.0001488
 41
0.0001488
  0
VERTEX
  8
0
 10
0.8986
 20
0.213542
 30
0.0
 40
0.0001488
 41
0.0001488
  0
VERTEX
  8
0
 10
0.896972
 20
0.215115
 30
0.0
 40
0.0001488
 41
0.0001488
  0
VERTEX
  8
0
 10
0.862304
 20
0.247342
 30
0.0
 40
0.0001488
 41
0.0001488
  0
VERTEX
  8
0
 10
0.834364
 20
0.273329
 30
0.0
 40
0.0001488
 41
0.0001488
  0
VERTEX
  8
0
 10
0.779025
 20
0.338487
 30
0.0
 40
0.0001488
 41
0.0001488
  0
VERTEX
  8
0
 10
0.742133
 20
0.38189
 30
0.0
 40
0.0001488
 41
0.0001488
  0
VERTEX
  8
0
 10
0.622179
 20
0.556099
 30
0.0
 40
0.0001488
 41
0.0001488
  0
VERTEX
  8
0
 10
0.592665
 20
0.60829
 30
0.0
 40
0.0001488
 41
0.0001488
  0
VERTEX
  8
0
 10
0.529676
 20
0.719726
 30
0.0
 40
0.0001488
 41
0.0001488
  0
VERTEX
  8
0
 10
0.510906
 20
0.752983
 30
0.0
 40
0.0001488
 41
0.0001488
  0
VERTEX
  8
0
 10
0.445801
 20
0.892361
 30
0.0
 40
0.0001488
 41
0.0001488
  0
VERTEX
  8
0
 10
0.409343
 20
0.97054
 30
0.0
 40
0.0001488
 41
0.0001488
  0
VERTEX
  8
0
 10
0.329264
 20
1.17866
 30
0.0
 40
0.0001488
 41
0.0001488
  0
VERTEX
  8
0
 10
0.318522
 20
1.20671
 30
0.0
 40
0.0001488
 41
0.0001488
  0
VERTEX
  8
0
 10
0.239312
 20
1.45925
 30
0.0
 40
0.0001488
 41
0.0001488
  0
VERTEX
  8
0
 10
0.219672
 20
1.53743
 30
0.0
 40
0.0001488
 41
0.0001488
  0
VERTEX
  8
0
 10
0.172418
 20
1.72564
 30
0.0
 40
0.0001488
 41
0.0001488
  0
VERTEX
  8
0
 10
0.156793
 20
1.80615
 30
0.0
 40
0.0001488
 41
0.0001488
  0
VERTEX
  8
0
 10
0.11849
 20
2.00347
 30
0.0
 40
0.0001488
 41
0.0001488
  0
VERTEX
  8
0
 10
0.078125
 20
2.28993
 30
0.0
 40
0.0001488
 41
0.0001488
  0
VERTEX
  8
0
 10
0.0517036
 20
2.58225
 30
0.0
 40
0.0001488
 41
0.0001488
  0
VERTEX
  8
0
 10
0.0393881
 20
2.87771
 30
0.0
 40
0.0001488
 41
0.0001488
  0
VERTEX
  8
0
 10
0.0413954
 20
3.17339
 30
0.0
 40
0.0001488
 41
0.0001488
  0
VERTEX
  8
0
 10
0.0576172
 20
3.46647
 30
0.0
 40
0.0001488
 41
0.0001488
  0
VERTEX
  8
0
 10
0.0879449
 20
3.75418
 30
0.0
 40
0.0001488
 41
0.0001488
  0
VERTEX
  8
0
 10
0.132107
 20
4.03369
 30
0.0
 40
0.0001488
 41
0.0001488
  0
VERTEX
  8
0
 10
0.150119
 20
4.11757
 30
0.0
 40
0.0001488
 41
0.0001488
  0
VERTEX
  8
0
 10
0.189671
 20
4.30225
 30
0.0
 40
0.0001488
 41
0.0001488
  0
VERTEX
  8
0
 10
0.260038
 20
4.5574
 30
0.0
 40
0.0001488
 41
0.0001488
  0
VERTEX
  8
0
 10
0.329264
 20
4.75814
 30
0.0
 40
0.0001488
 41
0.0001488
  0
VERTEX
  8
0
 10
0.330837
 20
4.76264
 30
0.0
 40
0.0001488
 41
0.0001488
  0
VERTEX
  8
0
 10
0.342557
 20
4.7966
 30
0.0
 40
0.0001488
 41
0.0001488
  0
VERTEX
  8
0
 10
0.369792
 20
4.86074
 30
0.0
 40
0.0001488
 41
0.0001488
  0
VERTEX
  8
0
 10
0.436469
 20
5.01758
 30
0.0
 40
0.0001488
 41
0.0001488
  0
VERTEX
  8
0
 10
0.466635
 20
5.07563
 30
0.0
 40
0.0001488
 41
0.0001488
  0
VERTEX
  8
0
 10
0.477593
 20
5.09668
 30
0.0
 40
0.0001488
 41
0.0001488
  0
SEQEND
 8
0
  0
POLYLINE
  8
0
 62
     1
 66
     1
 10
0
 20
0
 30
0.0
 70
     1
 40
0.0107136
 41
0.0107136
  0
VERTEX
  8
0
 10
0.766276
 20
5.13162
 30
0.0
 40
0.0001488
 41
0.0001488
  0
VERTEX
  8
0
 10
0.774468
 20
5.13113
 30
0.0
 40
0.0001488
 41
0.0001488
  0
VERTEX
  8
0
 10
0.782769
 20
5.13162
 30
0.0
 40
0.0001488
 41
0.0001488
  0
VERTEX
  8
0
 10
0.790853
 20
5.13314
 30
0.0
 40
0.0001488
 41
0.0001488
  0
VERTEX
  8
0
 10
0.798719
 20
5.13564
 30
0.0
 40
0.0001488
 41
0.0001488
  0
VERTEX
  8
0
 10
0.806261
 20
5.13911
 30
0.0
 40
0.0001488
 41
0.0001488
  0
VERTEX
  8
0
 10
0.813097
 20
5.14333
 30
0.0
 40
0.0001488
 41
0.0001488
  0
VERTEX
  8
0
 10
0.81326
 20
5.14344
 30
0.0
 40
0.0001488
 41
0.0001488
  0
VERTEX
  8
0
 10
0.819661
 20
5.14865
 30
0.0
 40
0.0001488
 41
0.0001488
  0
VERTEX
  8
0
 10
0.825412
 20
5.15457
 30
0.0
 40
0.0001488
 41
0.0001488
  0
VERTEX
  8
0
 10
0.830458
 20
5.16118
 30
0.0
 40
0.0001488
 41
0.0001488
  0
VERTEX
  8
0
 10
0.833117
 20
5.16575
 30
0.0
 40
0.0001488
 41
0.0001488
  0
VERTEX
  8
0
 10
0.834581
 20
5.16829
 30
0.0
 40
0.0001488
 41
0.0001488
  0
VERTEX
  8
0
 10
0.837782
 20
5.17594
 30
0.0
 40
0.0001488
 41
0.0001488
  0
VERTEX
  8
0
 10
0.840061
 20
5.18386
 30
0.0
 40
0.0001488
 41
0.0001488
  0
VERTEX
  8
0
 10
0.841308
 20
5.192
 30
0.0
 40
0.0001488
 41
0.0001488
  0
VERTEX
  8
0
 10
0.841581
 20
5.20025
 30
0.0
 40
0.0001488
 41
0.0001488
  0
VERTEX
  8
0
 10
0.840767
 20
5.2085
 30
0.0
 40
0.0001488
 41
0.0001488
  0
VERTEX
  8
0
 10
0.840603
 20
5.20925
 30
0.0
 40
0.0001488
 41
0.0001488
  0
VERTEX
  8
0
 10
0.839031
 20
5.21658
 30
0.0
 40
0.0001488
 41
0.0001488
  0
VERTEX
  8
0
 10
0.836317
 20
5.22433
 30
0.0
 40
0.0001488
 41
0.0001488
  0
VERTEX
  8
0
 10
0.832574
 20
5.23178
 30
0.0
 40
0.0001488
 41
0.0001488
  0
VERTEX
  8
0
 10
0.828017
 20
5.23867
 30
0.0
 40
0.0001488
 41
0.0001488
  0
VERTEX
  8
0
 10
0.8227
 20
5.2449
 30
0.0
 40
0.0001488
 41
0.0001488
  0
VERTEX
  8
0
 10
0.821018
 20
5.24642
 30
0.0
 40
0.0001488
 41
0.0001488
  0
VERTEX
  8
0
 10
0.816569
 20
5.25049
 30
0.0
 40
0.0001488
 41
0.0001488
  0
VERTEX
  8
0
 10
0.813097
 20
5.25299
 30
0.0
 40
0.0001488
 41
0.0001488
  0
VERTEX
  8
0
 10
0.809787
 20
5.25526
 30
0.0
 40
0.0001488
 41
0.0001488
  0
VERTEX
  8
0
 10
0.802572
 20
5.25917
 30
0.0
 40
0.0001488
 41
0.0001488
  0
VERTEX
  8
0
 10
0.794868
 20
5.26215
 30
0.0
 40
0.0001488
 41
0.0001488
  0
VERTEX
  8
0
 10
0.786838
 20
5.26417
 30
0.0
 40
0.0001488
 41
0.0001488
  0
VERTEX
  8
0
 10
0.778646
 20
5.26519
 30
0.0
 40
0.0001488
 41
0.0001488
  0
VERTEX
  8
0
 10
0.770344
 20
5.26519
 30
0.0
 40
0.0001488
 41
0.0001488
  0
VERTEX
  8
0
 10
0.762153
 20
5.26417
 30
0.0
 40
0.0001488
 41
0.0001488
  0
VERTEX
  8
0
 10
0.754178
 20
5.26215
 30
0.0
 40
0.0001488
 41
0.0001488
  0
VERTEX
  8
0
 10
0.746474
 20
5.25917
 30
0.0
 40
0.0001488
 41
0.0001488
  0
VERTEX
  8
0
 10
0.73915
 20
5.25526
 30
0.0
 40
0.0001488
 41
0.0001488
  0
VERTEX
  8
0
 10
0.732422
 20
5.25049
 30
0.0
 40
0.0001488
 41
0.0001488
  0
VERTEX
  8
0
 10
0.727974
 20
5.24642
 30
0.0
 40
0.0001488
 41
0.0001488
  0
VERTEX
  8
0
 10
0.726346
 20
5.2449
 30
0.0
 40
0.0001488
 41
0.0001488
  0
VERTEX
  8
0
 10
0.720921
 20
5.23867
 30
0.0
 40
0.0001488
 41
0.0001488
  0
VERTEX
  8
0
 10
0.716417
 20
5.23178
 30
0.0
 40
0.0001488
 41
0.0001488
  0
VERTEX
  8
0
 10
0.712728
 20
5.22433
 30
0.0
 40
0.0001488
 41
0.0001488
  0
VERTEX
  8
0
 10
0.709961
 20
5.21658
 30
0.0
 40
0.0001488
 41
0.0001488
  0
VERTEX
  8
0
 10
0.708171
 20
5.2085
 30
0.0
 40
0.0001488
 41
0.0001488
  0
VERTEX
  8
0
 10
0.707465
 20
5.20025
 30
0.0
 40
0.0001488
 41
0.0001488
  0
VERTEX
  8
0
 10
0.707736
 20
5.192
 30
0.0
 40
0.0001488
 41
0.0001488
  0
VERTEX
  8
0
 10
0.708985
 20
5.18386
 30
0.0
 40
0.0001488
 41
0.0001488
  0
VERTEX
  8
0
 10
0.711208
 20
5.17594
 30
0.0
 40
0.0001488
 41
0.0001488
  0
VERTEX
  8
0
 10
0.714464
 20
5.16829
 30
0.0
 40
0.0001488
 41
0.0001488
  0
VERTEX
  8
0
 10
0.715929
 20
5.16575
 30
0.0
 40
0.0001488
 41
0.0001488
  0
VERTEX
  8
0
 10
0.71696
 20
5.16396
 30
0.0
 40
0.0001488
 41
0.0001488
  0
VERTEX
  8
0
 10
0.718588
 20
5.16118
 30
0.0
 40
0.0001488
 41
0.0001488
  0
VERTEX
  8
0
 10
0.723525
 20
5.15457
 30
0.0
 40
0.0001488
 41
0.0001488
  0
VERTEX
  8
0
 10
0.729275
 20
5.14865
 30
0.0
 40
0.0001488
 41
0.0001488
  0
VERTEX
  8
0
 10
0.735732
 20
5.14344
 30
0.0
 40
0.0001488
 41
0.0001488
  0
VERTEX
  8
0
 10
0.742731
 20
5.13911
 30
0.0
 40
0.0001488
 41
0.0001488
  0
VERTEX
  8
0
 10
0.750271
 20
5.13564
 30
0.0
 40
0.0001488
 41
0.0001488
  0
VERTEX
  8
0
 10
0.758137
 20
5.13314
 30
0.0
 40
0.0001488
 41
0.0001488
  0
VERTEX
  8
0
 10
0.766276
 20
5.13162
 30
0.0
 40
0.0001488
 41
0.0001488
  0
SEQEND
 8
0
  0
POLYLINE
  8
0
 62
     1
 66
     1
 10
0
 20
0
 30
0.0
 70
     1
 40
0.0107136
 41
0.0107136
  0
VERTEX
  8
0
 10
1.19884
 20
0.320856
 30
0.0
 40
0.0001488
 41
0.0001488
  0
VERTEX
  8
0
 10
1.19727
 20
0.327963
 30
0.0
 40
0.0001488
 41
0.0001488
  0
VERTEX
  8
0
 10
1.19705
 20
0.328939
 30
0.0
 40
0.0001488
 41
0.0001488
  0
VERTEX
  8
0
 10
1.19428
 20
0.336697
 30
0.0
 40
0.0001488
 41
0.0001488
  0
VERTEX
  8
0
 10
1.19065
 20
0.344129
 30
0.0
 40
0.0001488
 41
0.0001488
  0
VERTEX
  8
0
 10
1.18609
 20
0.351019
 30
0.0
 40
0.0001488
 41
0.0001488
  0
VERTEX
  8
0
 10
1.18072
 20
0.35726
 30
0.0
 40
0.0001488
 41
0.0001488
  0
VERTEX
  8
0
 10
1.17459
 20
0.362847
 30
0.0
 40
0.0001488
 41
0.0001488
  0
VERTEX
  8
0
 10
1.16786
 20
0.367622
 30
0.0
 40
0.0001488
 41
0.0001488
  0
VERTEX
  8
0
 10
1.16054
 20
0.371528
 30
0.0
 40
0.0001488
 41
0.0001488
  0
VERTEX
  8
0
 10
1.15289
 20
0.374511
 30
0.0
 40
0.0001488
 41
0.0001488
  0
VERTEX
  8
0
 10
1.14486
 20
0.376519
 30
0.0
 40
0.0001488
 41
0.0001488
  0
VERTEX
  8
0
 10
1.14079
 20
0.377007
 30
0.0
 40
0.0001488
 41
0.0001488
  0
VERTEX
  8
0
 10
1.13666
 20
0.37755
 30
0.0
 40
0.0001488
 41
0.0001488
  0
VERTEX
  8
0
 10
1.12836
 20
0.37755
 30
0.0
 40
0.0001488
 41
0.0001488
  0
VERTEX
  8
0
 10
1.12017
 20
0.376519
 30
0.0
 40
0.0001488
 41
0.0001488
  0
VERTEX
  8
0
 10
1.11214
 20
0.374511
 30
0.0
 40
0.0001488
 41
0.0001488
  0
VERTEX
  8
0
 10
1.10449
 20
0.371528
 30
0.0
 40
0.0001488
 41
0.0001488
  0
VERTEX
  8
0
 10
1.09722
 20
0.367622
 30
0.0
 40
0.0001488
 41
0.0001488
  0
VERTEX
  8
0
 10
1.09049
 20
0.362847
 30
0.0
 40
0.0001488
 41
0.0001488
  0
VERTEX
  8
0
 10
1.08436
 20
0.35726
 30
0.0
 40
0.0001488
 41
0.0001488
  0
VERTEX
  8
0
 10
1.08328
 20
0.355957
 30
0.0
 40
0.0001488
 41
0.0001488
  0
VERTEX
  8
0
 10
1.07899
 20
0.351019
 30
0.0
 40
0.0001488
 41
0.0001488
  0
VERTEX
  8
0
 10
1.07444
 20
0.344129
 30
0.0
 40
0.0001488
 41
0.0001488
  0
VERTEX
  8
0
 10
1.07075
 20
0.336697
 30
0.0
 40
0.0001488
 41
0.0001488
  0
VERTEX
  8
0
 10
1.06798
 20
0.328939
 30
0.0
 40
0.0001488
 41
0.0001488
  0
VERTEX
  8
0
 10
1.06776
 20
0.327963
 30
0.0
 40
0.0001488
 41
0.0001488
  0
VERTEX
  8
0
 10
1.06624
 20
0.320856
 30
0.0
 40
0.0001488
 41
0.0001488
  0
VERTEX
  8
0
 10
1.06548
 20
0.312662
 30
0.0
 40
0.0001488
 41
0.0001488
  0
VERTEX
  8
0
 10
1.0657
 20
0.304417
 30
0.0
 40
0.0001488
 41
0.0001488
  0
VERTEX
  8
0
 10
1.06695
 20
0.296224
 30
0.0
 40
0.0001488
 41
0.0001488
  0
VERTEX
  8
0
 10
1.06923
 20
0.288303
 30
0.0
 40
0.0001488
 41
0.0001488
  0
VERTEX
  8
0
 10
1.07248
 20
0.280653
 30
0.0
 40
0.0001488
 41
0.0001488
  0
VERTEX
  8
0
 10
1.07661
 20
0.273546
 30
0.0
 40
0.0001488
 41
0.0001488
  0
VERTEX
  8
0
 10
1.0816
 20
0.266928
 30
0.0
 40
0.0001488
 41
0.0001488
  0
VERTEX
  8
0
 10
1.08735
 20
0.261014
 30
0.0
 40
0.0001488
 41
0.0001488
  0
VERTEX
  8
0
 10
1.0938
 20
0.255806
 30
0.0
 40
0.0001488
 41
0.0001488
  0
VERTEX
  8
0
 10
1.1008
 20
0.251465
 30
0.0
 40
0.0001488
 41
0.0001488
  0
VERTEX
  8
0
 10
1.10829
 20
0.247993
 30
0.0
 40
0.0001488
 41
0.0001488
  0
VERTEX
  8
0
 10
1.11041
 20
0.247342
 30
0.0
 40
0.0001488
 41
0.0001488
  0
VERTEX
  8
0
 10
1.11616
 20
0.245497
 30
0.0
 40
0.0001488
 41
0.0001488
  0
VERTEX
  8
0
 10
1.12429
 20
0.243978
 30
0.0
 40
0.0001488
 41
0.0001488
  0
VERTEX
  8
0
 10
1.13254
 20
0.24349
 30
0.0
 40
0.0001488
 41
0.0001488
  0
VERTEX
  8
0
 10
1.13287
 20
0.24349
 30
0.0
 40
0.0001488
 41
0.0001488
  0
VERTEX
  8
0
 10
1.13558
 20
0.243653
 30
0.0
 40
0.0001488
 41
0.0001488
  0
VERTEX
  8
0
 10
1.14079
 20
0.243978
 30
0.0
 40
0.0001488
 41
0.0001488
  0
VERTEX
  8
0
 10
1.14887
 20
0.245497
 30
0.0
 40
0.0001488
 41
0.0001488
  0
VERTEX
  8
0
 10
1.15468
 20
0.247342
 30
0.0
 40
0.0001488
 41
0.0001488
  0
VERTEX
  8
0
 10
1.15679
 20
0.247993
 30
0.0
 40
0.0001488
 41
0.0001488
  0
VERTEX
  8
0
 10
1.16423
 20
0.251465
 30
0.0
 40
0.0001488
 41
0.0001488
  0
VERTEX
  8
0
 10
1.17128
 20
0.255806
 30
0.0
 40
0.0001488
 41
0.0001488
  0
VERTEX
  8
0
 10
1.17773
 20
0.261014
 30
0.0
 40
0.0001488
 41
0.0001488
  0
VERTEX
  8
0
 10
1.18348
 20
0.266928
 30
0.0
 40
0.0001488
 41
0.0001488
  0
VERTEX
  8
0
 10
1.18848
 20
0.273546
 30
0.0
 40
0.0001488
 41
0.0001488
  0
VERTEX
  8
0
 10
1.1926
 20
0.280653
 30
0.0
 40
0.0001488
 41
0.0001488
  0
VERTEX
  8
0
 10
1.19352
 20
0.282824
 30
0.0
 40
0.0001488
 41
0.0001488
  0
VERTEX
  8
0
 10
1.1958
 20
0.288303
 30
0.0
 40
0.0001488
 41
0.0001488
  0
VERTEX
  8
0
 10
1.19808
 20
0.296224
 30
0.0
 40
0.0001488
 41
0.0001488
  0
VERTEX
  8
0
 10
1.19933
 20
0.304417
 30
0.0
 40
0.0001488
 41
0.0001488
  0
VERTEX
  8
0
 10
1.19954
 20
0.312662
 30
0.0
 40
0.0001488
 41
0.0001488
  0
VERTEX
  8
0
 10
1.19884
 20
0.320856
 30
0.0
 40
0.0001488
 41
0.0001488
  0
SEQEND
 8
0
  0
ENDSEC
  0
EOF
