  0
SECTION
  2
HEADER
  9
$ACADVER
  1
AC1009
  9
$EXTMAX
 10
36.9418296813965
 20
199.696853637695
 30
0.0
  9
$EXTMIN
 10
3.1681234836578
 20
1.9033221006393
 30
0.0
  9
$INSUNITS
 70
     4
  9
$LUNITS
 70
     2
  9
$LUPREC
 70
     4
  9
$MEASUREMENT
 70
     1
  0
ENDSEC
  0
SECTION
  2
TABLES
  0
TABLE
  2
LAYER
 70
     1
  0
LAYER
  2
0
 70
     0
 62
     7
  6
Continuous
  0
ENDTAB
  0
TABLE
  2
APPID
 70
     1
  0
APPID
  2
ACAD
 70
     0
  0
ENDTAB
  0
ENDSEC
  0
SECTION
  2
ENTITIES
  0
POLYLINE
  8
0
 66
     1
 10
0.0
 20
0.0
 30
0.0
 70
     1
  0
VERTEX
  8
0
 10
28.9825314427854
 20
41.5069909390384
 42
0.0
  0
VERTEX
  8
0
 10
28.9792706859029
 20
41.4624240818327
 42
0.0
  0
VERTEX
  8
0
 10
28.3772436112493
 20
35.5529731813337
 42
0.0
  0
VERTEX
  8
0
 10
26.2105344305971
 20
14.25392477196
 42
0.0
  0
VERTEX
  8
0
 10
26.1149371420154
 20
13.3093751689423
 42
0.0
  0
VERTEX
  8
0
 10
27.3227781442883
 20
11.901712515692
 42
0.0
  0
VERTEX
  8
0
 10
15.6702834558931
 20
1.9033220413035
 42
0.0
  0
VERTEX
  8
0
 10
5.8432886115091
 20
13.3560659124689
 42
0.0
  0
VERTEX
  8
0
 10
5.8359693239597
 20
13.3497856182598
 42
0.0
  0
VERTEX
  8
0
 10
5.8387896912434
 20
13.3613091208267
 42
0.0
  0
VERTEX
  8
0
 10
7.2259145729299
 20
19.0074539282645
 42
0.0
  0
VERTEX
  8
0
 10
7.5718235487112
 20
20.4137150574429
 42
0.0
  0
VERTEX
  8
0
 10
9.0858833431966
 20
26.5700995420764
 42
0.0
  0
VERTEX
  8
0
 10
10.0676165320256
 20
30.5683063605261
 42
0.0
  0
VERTEX
  8
0
 10
10.1992108172595
 20
31.1005836441773
 42
0.0
  0
VERTEX
  8
0
 10
9.4634640350854
 20
31.0268672020356
 42
0.0
  0
VERTEX
  8
0
 10
8.2666458463962
 20
31.0060106987684
 42
0.0
  0
VERTEX
  8
0
 10
7.8732198399192
 20
31.0349151977066
 42
0.0
  0
VERTEX
  8
0
 10
7.1735167236122
 20
31.0885158619757
 42
0.0
  0
VERTEX
  8
0
 10
6.195166197995
 20
31.2785430362865
 42
0.0
  0
VERTEX
  8
0
 10
5.3410215955126
 20
31.5714631953309
 42
0.0
  0
VERTEX
  8
0
 10
4.6186137198438
 20
31.9647015672914
 42
0.0
  0
VERTEX
  8
0
 10
4.0354814616988
 20
32.456025006696
 42
0.0
  0
VERTEX
  8
0
 10
3.5962765593126
 20
33.0377108693503
 42
0.0
  0
VERTEX
  8
0
 10
3.3062813324578
 20
33.7079325764363
 42
0.0
  0
VERTEX
  8
0
 10
3.1681234867312
 20
34.4572307682158
 42
0.0
  0
VERTEX
  8
0
 10
3.1822214586975
 20
35.2809441736517
 42
0.0
  0
VERTEX
  8
0
 10
3.3498312199216
 20
36.1691057950382
 42
0.0
  0
VERTEX
  8
0
 10
3.3835620571256
 20
36.2673287147346
 42
0.0
  0
VERTEX
  8
0
 10
3.6700100005351
 20
37.1122048217676
 42
0.0
  0
VERTEX
  8
0
 10
4.1358020860014
 20
38.103603547856
 42
0.0
  0
VERTEX
  8
0
 10
4.3262909214433
 20
38.4233509250655
 42
0.0
  0
VERTEX
  8
0
 10
4.7470724373526
 20
39.1328107974822
 42
0.0
  0
VERTEX
  8
0
 10
5.402168679111
 20
40.0580500058082
 42
0.0
  0
VERTEX
  8
0
 10
5.4950950043696
 20
40.1910004585
 42
0.0
  0
VERTEX
  8
0
 10
6.3739170089965
 20
41.2660363332438
 42
0.0
  0
VERTEX
  8
0
 10
7.3759894878781
 20
42.3477594946237
 42
0.0
  0
VERTEX
  8
0
 10
8.4887348548419
 20
43.427385903749
 42
0.0
  0
VERTEX
  8
0
 10
9.7047695480126
 20
44.4945638685168
 42
0.0
  0
VERTEX
  8
0
 10
11.0097742293516
 20
45.5363373463935
 42
0.0
  0
VERTEX
  8
0
 10
11.963089257956
 20
46.2304923426162
 42
0.0
  0
VERTEX
  8
0
 10
12.3935628191328
 20
46.543631512871
 42
0.0
  0
VERTEX
  8
0
 10
12.934900668544
 20
46.9050412548464
 42
0.0
  0
VERTEX
  8
0
 10
12.9356272810938
 20
46.9381293899133
 42
0.0
  0
VERTEX
  8
0
 10
12.9373187532976
 20
47.0757984802342
 42
0.0
  0
VERTEX
  8
0
 10
12.939559233735
 20
47.2701661103772
 42
0.0
  0
VERTEX
  8
0
 10
12.9407424843572
 20
47.3257354236532
 42
0.0
  0
VERTEX
  8
0
 10
12.9411273113941
 20
47.3802849645142
 42
0.0
  0
VERTEX
  8
0
 10
12.9643500240989
 20
49.6576769241775
 42
0.0
  0
VERTEX
  8
0
 10
12.9835088343688
 20
53.3365991102136
 42
0.0
  0
VERTEX
  8
0
 10
12.9842762335707
 20
53.3442860080577
 42
0.0
  0
VERTEX
  8
0
 10
12.9842950551185
 20
53.3610365223706
 42
0.0
  0
VERTEX
  8
0
 10
12.9857426960942
 20
53.4907985863015
 42
0.0
  0
VERTEX
  8
0
 10
13.0101367218646
 20
55.0007535683453
 42
0.0
  0
VERTEX
  8
0
 10
13.020673711376
 20
55.7163196734565
 42
0.0
  0
VERTEX
  8
0
 10
13.052702043421
 20
58.436695435406
 42
0.0
  0
VERTEX
  8
0
 10
13.0798997104991
 20
61.4922991715939
 42
0.0
  0
VERTEX
  8
0
 10
13.101428205362
 20
64.8532936089278
 42
0.0
  0
VERTEX
  8
0
 10
13.1174189472455
 20
68.4789596618457
 42
0.0
  0
VERTEX
  8
0
 10
13.1291039981147
 20
72.3311960846555
 42
0.0
  0
VERTEX
  8
0
 10
13.1346050364753
 20
76.3665552775112
 42
0.0
  0
VERTEX
  8
0
 10
13.1350511827619
 20
79.9514389758169
 42
0.0
  0
VERTEX
  8
0
 10
13.1347436713007
 20
80.5415634973178
 42
0.0
  0
VERTEX
  8
0
 10
13.1281104220048
 20
84.8118366826964
 42
0.0
  0
VERTEX
  8
0
 10
13.1166312011414
 20
89.1294936384987
 42
0.0
  0
VERTEX
  8
0
 10
13.1007445282246
 20
93.4460462907206
 42
0.0
  0
VERTEX
  8
0
 10
13.077029961655
 20
97.7167238276733
 42
0.0
  0
VERTEX
  8
0
 10
13.0769835908791
 20
97.8057108586933
 42
0.0
  0
VERTEX
  8
0
 10
13.0499491632573
 20
101.891469911998
 42
0.0
  0
VERTEX
  8
0
 10
13.0457422754208
 20
102.298521509385
 42
0.0
  0
VERTEX
  8
0
 10
13.0350105445675
 20
103.754239449274
 42
0.0
  0
VERTEX
  8
0
 10
13.0172930085763
 20
105.927222473876
 42
0.0
  0
VERTEX
  8
0
 10
12.9946806896746
 20
108.241259827869
 42
0.0
  0
VERTEX
  8
0
 10
12.980324583961
 20
109.779213142185
 42
0.0
  0
VERTEX
  8
0
 10
12.9534438855418
 20
112.195349208943
 42
0.0
  0
VERTEX
  8
0
 10
12.9397821875027
 20
113.405235438323
 42
0.0
  0
VERTEX
  8
0
 10
12.9313333949968
 20
114.075058364695
 42
0.0
  0
VERTEX
  8
0
 10
12.8952463069303
 20
116.764432238782
 42
0.0
  0
VERTEX
  8
0
 10
12.8606236520026
 20
119.022646686003
 42
0.0
  0
VERTEX
  8
0
 10
12.8493804498995
 20
119.820934607712
 42
0.0
  0
VERTEX
  8
0
 10
12.7979596498076
 20
122.540660780881
 42
0.0
  0
VERTEX
  8
0
 10
12.7948642413497
 20
122.665185944789
 42
0.0
  0
VERTEX
  8
0
 10
12.791414844543
 20
122.834590154234
 42
0.0
  0
VERTEX
  8
0
 10
12.7739186308535
 20
123.63119425704
 42
0.0
  0
VERTEX
  8
0
 10
12.7694271251369
 20
124.055740065259
 42
0.0
  0
VERTEX
  8
0
 10
12.7582931914697
 20
124.961556364768
 42
0.0
  0
VERTEX
  8
0
 10
12.7434759379399
 20
126.274204133118
 42
0.0
  0
VERTEX
  8
0
 10
12.7265373805807
 20
127.745346934911
 42
0.0
  0
VERTEX
  8
0
 10
12.7166958200681
 20
128.550192527918
 42
0.0
  0
VERTEX
  8
0
 10
12.7037147351935
 20
129.669962499731
 42
0.0
  0
VERTEX
  8
0
 10
12.6968038846479
 20
130.296256955942
 42
0.0
  0
VERTEX
  8
0
 10
12.6907765459394
 20
130.601675020621
 42
0.0
  0
VERTEX
  8
0
 10
12.6875722006443
 20
130.776644492482
 42
0.0
  0
VERTEX
  8
0
 10
12.5348021806541
 20
139.561295341931
 42
0.0
  0
VERTEX
  8
0
 10
12.3638351991308
 20
146.839300459227
 42
0.0
  0
VERTEX
  8
0
 10
12.3252706833899
 20
148.520143900199
 42
0.0
  0
VERTEX
  8
0
 10
12.3238482969786
 20
148.553396216463
 42
0.0
  0
VERTEX
  8
0
 10
12.3115093730719
 20
148.969535133
 42
0.0
  0
VERTEX
  8
0
 10
12.3054201712916
 20
149.18219173671
 42
0.0
  0
VERTEX
  8
0
 10
12.1277889956725
 20
155.132798549805
 42
0.0
  0
VERTEX
  8
0
 10
12.1235491999714
 20
155.232913665089
 42
0.0
  0
VERTEX
  8
0
 10
12.0667420416471
 20
157.186604502229
 42
0.0
  0
VERTEX
  8
0
 10
11.9971967144635
 20
159.053726061503
 42
0.0
  0
VERTEX
  8
0
 10
11.96354935792
 20
159.969007888489
 42
0.0
  0
VERTEX
  8
0
 10
11.771145946624
 20
165.136823970107
 42
0.0
  0
VERTEX
  8
0
 10
11.7620113680123
 20
165.377993414784
 42
0.0
  0
VERTEX
  8
0
 10
11.6076112613877
 20
168.83168515535
 42
0.0
  0
VERTEX
  8
0
 10
11.5499241857575
 20
170.094830475709
 42
0.0
  0
VERTEX
  8
0
 10
11.5480208617138
 20
170.786669400233
 42
0.0
  0
VERTEX
  8
0
 10
8.131268988474
 20
173.020833344774
 42
0.0
  0
VERTEX
  8
0
 10
8.2142722396034
 20
178.318196097008
 42
0.0
  0
VERTEX
  8
0
 10
8.2508055004844
 20
180.588266647022
 42
0.0
  0
VERTEX
  8
0
 10
8.2686826814008
 20
181.704057924028
 42
0.0
  0
VERTEX
  8
0
 10
8.2745100395064
 20
182.046757548699
 42
0.0
  0
VERTEX
  8
0
 10
4.9258961881522
 20
192.939177067673
 42
0.0
  0
VERTEX
  8
0
 10
8.4864718774156
 20
195.440411612461
 42
0.0
  0
VERTEX
  8
0
 10
11.4587632460747
 20
197.529244133676
 42
0.0
  0
VERTEX
  8
0
 10
11.5112549378523
 20
197.565582613423
 42
0.0
  0
VERTEX
  8
0
 10
11.5124115279312
 20
197.566575022305
 42
0.0
  0
VERTEX
  8
0
 10
14.5435284702691
 20
199.696846105626
 42
0.0
  0
VERTEX
  8
0
 10
18.1526907449076
 20
196.986853206067
 42
0.0
  0
VERTEX
  8
0
 10
19.7429852979937
 20
195.793051348807
 42
0.0
  0
VERTEX
  8
0
 10
21.0561607328786
 20
196.592828374605
 42
0.0
  0
VERTEX
  8
0
 10
22.2799153259322
 20
195.793050924361
 42
0.0
  0
VERTEX
  8
0
 10
26.7115835752
 20
198.907179712869
 42
0.0
  0
VERTEX
  8
0
 10
27.5428534275128
 20
199.491593877584
 42
0.0
  0
VERTEX
  8
0
 10
29.4180737170742
 20
198.082746101372
 42
0.0
  0
VERTEX
  8
0
 10
29.4189007244759
 20
198.081782276306
 42
0.0
  0
VERTEX
  8
0
 10
29.5908257081901
 20
197.95318501284
 42
0.0
  0
VERTEX
  8
0
 10
30.8578858706925
 20
197.001132778778
 42
0.0
  0
VERTEX
  8
0
 10
35.6703327068843
 20
193.386110105529
 42
0.0
  0
VERTEX
  8
0
 10
36.9418301255399
 20
192.430836813592
 42
0.0
  0
VERTEX
  8
0
 10
35.2012705028381
 20
187.345490493694
 42
0.0
  0
VERTEX
  8
0
 10
35.0261517186707
 20
186.835776160515
 42
0.0
  0
VERTEX
  8
0
 10
33.3764758986404
 20
182.022865749204
 42
0.0
  0
VERTEX
  8
0
 10
33.3193519573526
 20
178.39872107157
 42
0.0
  0
VERTEX
  8
0
 10
33.3020645713219
 20
177.314227097164
 42
0.0
  0
VERTEX
  8
0
 10
33.2280302320447
 20
172.622311595904
 42
0.0
  0
VERTEX
  8
0
 10
29.6833665100543
 20
170.461385065881
 42
0.0
  0
VERTEX
  8
0
 10
29.6817684425999
 20
170.461687285025
 42
0.0
  0
VERTEX
  8
0
 10
29.5115076073486
 20
170.357431362913
 42
0.0
  0
VERTEX
  8
0
 10
29.4899975759066
 20
170.344664424542
 42
0.0
  0
VERTEX
  8
0
 10
29.4878905838813
 20
170.317085604542
 42
0.0
  0
VERTEX
  8
0
 10
29.31368917442
 20
165.773503132398
 42
0.0
  0
VERTEX
  8
0
 10
29.3098839057836
 20
165.674182779848
 42
0.0
  0
VERTEX
  8
0
 10
29.3056068383776
 20
165.528605442853
 42
0.0
  0
VERTEX
  8
0
 10
29.2985716382829
 20
165.283267496217
 42
0.0
  0
VERTEX
  8
0
 10
29.2946415691229
 20
165.264834383284
 42
0.0
  0
VERTEX
  8
0
 10
29.2712417163403
 20
165.177818746909
 42
0.0
  0
VERTEX
  8
0
 10
29.164853852709
 20
163.940898341923
 42
0.0
  0
VERTEX
  8
0
 10
29.0652245296634
 20
161.894144156269
 42
0.0
  0
VERTEX
  8
0
 10
28.9708541513281
 20
159.060366950836
 42
0.0
  0
VERTEX
  8
0
 10
28.9530450808048
 20
158.289696712506
 42
0.0
  0
VERTEX
  8
0
 10
28.8948280307118
 20
155.917348625127
 42
0.0
  0
VERTEX
  8
0
 10
28.8833237011875
 20
155.472049202116
 42
0.0
  0
VERTEX
  8
0
 10
28.8528509786867
 20
153.731633864683
 42
0.0
  0
VERTEX
  8
0
 10
28.8053968960539
 20
151.165365725954
 42
0.0
  0
VERTEX
  8
0
 10
28.7829361045389
 20
149.593478964917
 42
0.0
  0
VERTEX
  8
0
 10
28.7798837773967
 20
149.423850966075
 42
0.0
  0
VERTEX
  8
0
 10
28.7740839685193
 20
148.975413796071
 42
0.0
  0
VERTEX
  8
0
 10
28.7486037975186
 20
147.170671408889
 42
0.0
  0
VERTEX
  8
0
 10
28.744891270434
 20
146.893376994299
 42
0.0
  0
VERTEX
  8
0
 10
28.7344302701031
 20
146.190594208539
 42
0.0
  0
VERTEX
  8
0
 10
28.6807208281643
 20
141.142272724843
 42
0.0
  0
VERTEX
  8
0
 10
28.6754933986038
 20
140.599944867325
 42
0.0
  0
VERTEX
  8
0
 10
28.6417108160706
 20
136.434892278018
 42
0.0
  0
VERTEX
  8
0
 10
28.6383301663267
 20
135.890802171849
 42
0.0
  0
VERTEX
  8
0
 10
28.6261021157941
 20
134.455211443358
 42
0.0
  0
VERTEX
  8
0
 10
28.6037145943494
 20
130.627929899261
 42
0.0
  0
VERTEX
  8
0
 10
28.6032879460721
 20
130.495027647771
 42
0.0
  0
VERTEX
  8
0
 10
28.5987310358087
 20
129.723344958728
 42
0.0
  0
VERTEX
  8
0
 10
28.5936842082174
 20
128.834436033026
 42
0.0
  0
VERTEX
  8
0
 10
28.5925651153305
 20
128.602876255191
 42
0.0
  0
VERTEX
  8
0
 10
28.5879285550358
 20
127.825435538719
 42
0.0
  0
VERTEX
  8
0
 10
28.562582761132
 20
121.163157115754
 42
0.0
  0
VERTEX
  8
0
 10
28.5616798043416
 20
120.781173512063
 42
0.0
  0
VERTEX
  8
0
 10
28.5598109931008
 20
119.82069089586
 42
0.0
  0
VERTEX
  8
0
 10
28.5451939589251
 20
113.400225922228
 42
0.0
  0
VERTEX
  8
0
 10
28.5423681402897
 20
105.764253509453
 42
0.0
  0
VERTEX
  8
0
 10
28.5427300074258
 20
105.387036744592
 42
0.0
  0
VERTEX
  8
0
 10
28.5503105283755
 20
99.4575274009786
 42
0.0
  0
VERTEX
  8
0
 10
28.5505417986411
 20
97.9563186555624
 42
0.0
  0
VERTEX
  8
0
 10
28.5508417629136
 20
97.8565045391388
 42
0.0
  0
VERTEX
  8
0
 10
28.5637700705236
 20
93.1900080620611
 42
0.0
  0
VERTEX
  8
0
 10
28.5720674948102
 20
90.0614424169
 42
0.0
  0
VERTEX
  8
0
 10
28.5898619617225
 20
85.6260393173165
 42
0.0
  0
VERTEX
  8
0
 10
28.6040347463567
 20
82.1664889687735
 42
0.0
  0
VERTEX
  8
0
 10
28.6477751214131
 20
74.3596195550847
 42
0.0
  0
VERTEX
  8
0
 10
28.7014824411195
 20
66.7232908990884
 42
0.0
  0
VERTEX
  8
0
 10
28.7461370340616
 20
61.5501908436825
 42
0.0
  0
VERTEX
  8
0
 10
28.7661039638658
 20
59.3429916777515
 42
0.0
  0
VERTEX
  8
0
 10
28.8115931379262
 20
55.0531781179982
 42
0.0
  0
VERTEX
  8
0
 10
28.8396693295952
 20
52.2990296153678
 42
0.0
  0
VERTEX
  8
0
 10
28.8535668341714
 20
51.1653197341237
 42
0.0
  0
VERTEX
  8
0
 10
28.8654109994078
 20
50.2711575274196
 42
0.0
  0
VERTEX
  8
0
 10
28.9090472126499
 20
46.7351432549997
 42
0.0
  0
VERTEX
  8
0
 10
28.9224131245613
 20
45.6699228240471
 42
0.0
  0
VERTEX
  8
0
 10
28.9817086798483
 20
41.5844009832582
 42
0.0
  0
SEQEND
  0
POLYLINE
  8
0
 66
     1
 10
0.0
 20
0.0
 30
0.0
 70
     1
  0
VERTEX
  8
0
 10
18.268284900033
 20
14.3554795778074
 42
0.0
  0
VERTEX
  8
0
 10
18.412319139369
 20
14.526225193258
 42
0.0
  0
VERTEX
  8
0
 10
18.5380594351347
 20
14.7140396273605
 42
0.0
  0
VERTEX
  8
0
 10
18.6412053674105
 20
14.9133251992741
 42
0.0
  0
VERTEX
  8
0
 10
18.7197329035581
 20
15.122345193455
 42
0.0
  0
VERTEX
  8
0
 10
18.7639209224012
 20
15.2909559864564
 42
0.0
  0
VERTEX
  8
0
 10
18.766727796134
 20
15.3024679109197
 42
0.0
  0
VERTEX
  8
0
 10
18.7764280212806
 20
15.3398420188099
 42
0.0
  0
VERTEX
  8
0
 10
18.8090445552108
 20
15.5621145167871
 42
0.0
  0
VERTEX
  8
0
 10
18.8135472676404
 20
15.7875075743278
 42
0.0
  0
VERTEX
  8
0
 10
18.7944736318376
 20
16.0108110633705
 42
0.0
  0
VERTEX
  8
0
 10
18.7507083470795
 20
16.2311014719783
 42
0.0
  0
VERTEX
  8
0
 10
18.6839258029261
 20
16.444360102591
 42
0.0
  0
VERTEX
  8
0
 10
18.5911509692416
 20
16.6498415502918
 42
0.0
  0
VERTEX
  8
0
 10
18.4779236973625
 20
16.8431957747168
 42
0.0
  0
VERTEX
  8
0
 10
18.3732019704605
 20
16.9821318218077
 42
0.0
  0
VERTEX
  8
0
 10
18.342087755495
 20
17.0226060959354
 42
0.0
  0
VERTEX
  8
0
 10
18.1874434210502
 20
17.1859448659698
 42
0.0
  0
VERTEX
  8
0
 10
18.0157826247511
 20
17.3309676795795
 42
0.0
  0
VERTEX
  8
0
 10
17.8297710667845
 20
17.4546068367019
 42
0.0
  0
VERTEX
  8
0
 10
17.6304909675775
 20
17.5578244022763
 42
0.0
  0
VERTEX
  8
0
 10
17.4207255684797
 20
17.6393269685599
 42
0.0
  0
VERTEX
  8
0
 10
17.2021850757005
 20
17.6950931016392
 42
0.0
  0
VERTEX
  8
0
 10
16.9816989137112
 20
17.7256277734273
 42
0.0
  0
VERTEX
  8
0
 10
16.7554154245298
 20
17.7312072335772
 42
0.0
  0
VERTEX
  8
0
 10
16.6875484873142
 20
17.7256205087609
 42
0.0
  0
VERTEX
  8
0
 10
16.6748506050561
 20
17.7256359320841
 42
0.0
  0
VERTEX
  8
0
 10
16.5311802144906
 20
17.7131414485494
 42
0.0
  0
VERTEX
  8
0
 10
16.3119500134551
 20
17.6702858719333
 42
0.0
  0
VERTEX
  8
0
 10
16.0985436197653
 20
17.601569228715
 42
0.0
  0
VERTEX
  8
0
 10
15.8930952523606
 20
17.5087558420278
 42
0.0
  0
VERTEX
  8
0
 10
15.7293214127658
 20
17.4118399110347
 42
0.0
  0
VERTEX
  8
0
 10
15.6995739883572
 20
17.3935779309358
 42
0.0
  0
VERTEX
  8
0
 10
15.5202783499196
 20
17.2597146411358
 42
0.0
  0
VERTEX
  8
0
 10
15.3570112131838
 20
17.1050648339845
 42
0.0
  0
VERTEX
  8
0
 10
15.3172476441484
 20
17.0582611664769
 42
0.0
  0
VERTEX
  8
0
 10
15.2119360427768
 20
16.9334260505399
 42
0.0
  0
VERTEX
  8
0
 10
15.0882776091531
 20
16.7473979524253
 42
0.0
  0
VERTEX
  8
0
 10
14.9898891898232
 20
16.5594572653966
 42
0.0
  0
VERTEX
  8
0
 10
14.9851316768774
 20
16.5481123805117
 42
0.0
  0
VERTEX
  8
0
 10
14.9055632096587
 20
16.3381992183368
 42
0.0
  0
VERTEX
  8
0
 10
14.8478078843638
 20
16.11979268484
 42
0.0
  0
VERTEX
  8
0
 10
14.8171447259999
 20
15.8973889639338
 42
0.0
  0
VERTEX
  8
0
 10
14.8108364010812
 20
15.674061228387
 42
0.0
  0
VERTEX
  8
0
 10
14.8299293133853
 20
15.4507742794924
 42
0.0
  0
VERTEX
  8
0
 10
14.8726536670724
 20
15.2295907028907
 42
0.0
  0
VERTEX
  8
0
 10
14.9422634782846
 20
15.0151433781298
 42
0.0
  0
VERTEX
  8
0
 10
15.0341451439752
 20
14.8107028615001
 42
0.0
  0
VERTEX
  8
0
 10
15.1473724158542
 20
14.6173486370751
 42
0.0
  0
VERTEX
  8
0
 10
15.2832083577218
 20
14.4379383158565
 42
0.0
  0
VERTEX
  8
0
 10
15.338251773874
 20
14.3780012946327
 42
0.0
  0
VERTEX
  8
0
 10
15.4378196118705
 20
14.2746380988246
 42
0.0
  0
VERTEX
  8
0
 10
15.6086037803237
 20
14.1306369397847
 42
0.0
  0
VERTEX
  8
0
 10
15.7964182144262
 20
14.004896644019
 42
0.0
  0
VERTEX
  8
0
 10
15.9956983136332
 20
13.9016790784445
 42
0.0
  0
VERTEX
  8
0
 10
16.2055949356601
 20
13.8221298877272
 42
0.0
  0
VERTEX
  8
0
 10
16.4222178695223
 20
13.7664922412237
 42
0.0
  0
VERTEX
  8
0
 10
16.6455312985705
 20
13.7347688752874
 42
0.0
  0
VERTEX
  8
0
 10
16.868839757616
 20
13.7284440102207
 42
0.0
  0
VERTEX
  8
0
 10
17.0931896504362
 20
13.7484824473161
 42
0.0
  0
VERTEX
  8
0
 10
17.3124005749704
 20
13.7913214837842
 42
0.0
  0
VERTEX
  8
0
 10
17.3544191325539
 20
13.8037464668637
 42
0.0
  0
VERTEX
  8
0
 10
17.5277768843745
 20
13.8598876275721
 42
0.0
  0
VERTEX
  8
0
 10
17.7322008608562
 20
13.9517885697641
 42
0.0
  0
VERTEX
  8
0
 10
17.9255743617825
 20
14.0650323817911
 42
0.0
  0
VERTEX
  8
0
 10
18.1050177632972
 20
14.2008297706561
 42
0.0
  0
SEQEND
  0
POLYLINE
  8
0
 66
     1
 10
0.0
 20
0.0
 30
0.0
 70
     1
  0
VERTEX
  8
0
 10
15.8933186955681
 20
20.2362808302874
 42
0.0
  0
VERTEX
  8
0
 10
16.1912855376268
 20
20.0815903585124
 42
0.0
  0
VERTEX
  8
0
 10
16.506577054664
 20
19.9617461069008
 42
0.0
  0
VERTEX
  8
0
 10
16.8324592284885
 20
19.878199215459
 42
0.0
  0
VERTEX
  8
0
 10
17.1659432251695
 20
19.8302593724209
 42
0.0
  0
VERTEX
  8
0
 10
17.502429245455
 20
19.8211420409259
 42
0.0
  0
VERTEX
  8
0
 10
17.8377800743952
 20
19.8492719502738
 42
0.0
  0
VERTEX
  8
0
 10
18.1673583359623
 20
19.9159580721287
 42
0.0
  0
VERTEX
  8
0
 10
18.488807678488
 20
20.0174716403496
 42
0.0
  0
VERTEX
  8
0
 10
18.7964928443556
 20
20.1562065833808
 42
0.0
  0
VERTEX
  8
0
 10
19.0860803333494
 20
20.3266037733842
 42
0.0
  0
VERTEX
  8
0
 10
19.3547263382625
 20
20.5298711810093
 42
0.0
  0
VERTEX
  8
0
 10
19.5347254781399
 20
20.6988778366556
 42
0.0
  0
VERTEX
  8
0
 10
19.600014917796
 20
20.7603211918423
 42
0.0
  0
VERTEX
  8
0
 10
19.8161630512563
 20
21.0184136352625
 42
0.0
  0
VERTEX
  8
0
 10
20.0027247130589
 20
21.2983103974257
 42
0.0
  0
VERTEX
  8
0
 10
20.158439575757
 20
21.5971896839796
 42
0.0
  0
VERTEX
  8
0
 10
20.2772594364456
 20
21.9115687565216
 42
0.0
  0
VERTEX
  8
0
 10
20.3627431633056
 20
22.2373389839184
 42
0.0
  0
VERTEX
  8
0
 10
20.4087461709255
 20
22.5709349270271
 42
0.0
  0
VERTEX
  8
0
 10
20.4178469622724
 20
22.9074402238139
 42
0.0
  0
VERTEX
  8
0
 10
20.3897197892778
 20
23.2428268694035
 42
0.0
  0
VERTEX
  8
0
 10
20.3240884022887
 20
23.5732432058139
 42
0.0
  0
VERTEX
  8
0
 10
20.2225748340678
 20
23.8946925483395
 42
0.0
  0
VERTEX
  8
0
 10
20.1990866884629
 20
23.9453919101493
 42
0.0
  0
VERTEX
  8
0
 10
20.0847330590305
 20
24.2013367831361
 42
0.0
  0
VERTEX
  8
0
 10
19.9134619775345
 20
24.4919817433489
 42
0.0
  0
VERTEX
  8
0
 10
19.7101945699094
 20
24.760627748262
 42
0.0
  0
VERTEX
  8
0
 10
19.479577519498
 20
25.0039656885825
 42
0.0
  0
VERTEX
  8
0
 10
19.2226599664312
 20
25.2229961822524
 42
0.0
  0
VERTEX
  8
0
 10
18.942796284564
 20
25.4095192910524
 42
0.0
  0
VERTEX
  8
0
 10
18.8279178536103
 20
25.4671467332813
 42
0.0
  0
VERTEX
  8
0
 10
18.6418185957201
 20
25.563467094264
 42
0.0
  0
VERTEX
  8
0
 10
18.328463914101
 20
25.6831993994478
 42
0.0
  0
VERTEX
  8
0
 10
18.0016858359293
 20
25.7677514053112
 42
0.0
  0
VERTEX
  8
0
 10
17.6690784670942
 20
25.8146695937796
 42
0.0
  0
VERTEX
  8
0
 10
17.3326448036061
 20
25.82376491242
 42
0.0
  0
VERTEX
  8
0
 10
16.9972223413672
 20
25.7956404757787
 42
0.0
  0
VERTEX
  8
0
 10
16.6667701883075
 20
25.7300118251428
 42
0.0
  0
VERTEX
  8
0
 10
16.3462470940718
 20
25.6274187728483
 42
0.0
  0
VERTEX
  8
0
 10
16.0386766109853
 20
25.4906564818847
 42
0.0
  0
VERTEX
  8
0
 10
15.7489578990624
 20
25.318305916315
 42
0.0
  0
VERTEX
  8
0
 10
15.6401987618167
 20
25.2377035598574
 42
0.0
  0
VERTEX
  8
0
 10
15.4794380026567
 20
25.116095979909
 42
0.0
  0
VERTEX
  8
0
 10
15.2350067744678
 20
24.8846077743582
 42
0.0
  0
VERTEX
  8
0
 10
15.0179820131615
 20
24.6275369855077
 42
0.0
  0
VERTEX
  8
0
 10
14.830527183365
 20
24.3486811544156
 42
0.0
  0
VERTEX
  8
0
 10
14.6765986566548
 20
24.0477200057196
 42
0.0
  0
VERTEX
  8
0
 10
14.5568663514709
 20
23.7343653241006
 42
0.0
  0
VERTEX
  8
0
 10
14.4723143456075
 20
23.4075872459289
 42
0.0
  0
VERTEX
  8
0
 10
14.426289325133
 20
23.0739389460228
 42
0.0
  0
VERTEX
  8
0
 10
14.4152406309263
 20
22.7376365054637
 42
0.0
  0
VERTEX
  8
0
 10
14.443367803921
 20
22.4022498598742
 42
0.0
  0
VERTEX
  8
0
 10
14.5109663702711
 20
22.071647207384
 42
0.0
  0
VERTEX
  8
0
 10
14.5881863248169
 20
21.829256953879
 42
0.0
  0
VERTEX
  8
0
 10
14.6135208695631
 20
21.7510910328524
 42
0.0
  0
VERTEX
  8
0
 10
14.7493569122366
 20
21.4446000338394
 42
0.0
  0
VERTEX
  8
0
 10
14.9206858232366
 20
21.1540046940707
 42
0.0
  0
VERTEX
  8
0
 10
15.1239697710098
 20
20.8853394126563
 42
0.0
  0
VERTEX
  8
0
 10
15.3544170454895
 20
20.6400150164734
 42
0.0
  0
VERTEX
  8
0
 10
15.6134026569036
 20
20.422825951942
 42
0.0
  0
VERTEX
  8
0
 10
15.8829816614582
 20
20.2419700642298
 42
0.0
  0
SEQEND
  0
POLYLINE
  8
0
 66
     1
 10
0.0
 20
0.0
 30
0.0
 70
     1
  0
VERTEX
  8
0
 10
23.1305942925515
 20
44.192061379636
 42
0.0
  0
VERTEX
  8
0
 10
23.0630397121187
 20
44.4065318155067
 42
0.0
  0
VERTEX
  8
0
 10
22.9722651380913
 20
44.6117883941251
 42
0.0
  0
VERTEX
  8
0
 10
22.8569771627263
 20
44.8050478741415
 42
0.0
  0
VERTEX
  8
0
 10
22.7221913372164
 20
44.9835854021227
 42
0.0
  0
VERTEX
  8
0
 10
22.714086664679
 20
44.9930308877672
 42
0.0
  0
VERTEX
  8
0
 10
22.5673293665223
 20
45.1469047736275
 42
0.0
  0
VERTEX
  8
0
 10
22.3957540073166
 20
45.29186702138
 42
0.0
  0
VERTEX
  8
0
 10
22.2097535167915
 20
45.4154152687023
 42
0.0
  0
VERTEX
  8
0
 10
22.0103190835456
 20
45.5187346894899
 42
0.0
  0
VERTEX
  8
0
 10
21.7996009268235
 20
45.5993193385717
 42
0.0
  0
VERTEX
  8
0
 10
21.7805609350347
 20
45.6047368007713
 42
0.0
  0
VERTEX
  8
0
 10
21.5822004839752
 20
45.6560971570344
 42
0.0
  0
VERTEX
  8
0
 10
21.3617006402195
 20
45.6864527455758
 42
0.0
  0
VERTEX
  8
0
 10
21.1365021078183
 20
45.6930300873144
 42
0.0
  0
VERTEX
  8
0
 10
20.9111515970561
 20
45.6740407903499
 42
0.0
  0
VERTEX
  8
0
 10
20.6909382944535
 20
45.6303416661839
 42
0.0
  0
VERTEX
  8
0
 10
20.4784240925308
 20
45.562457503074
 42
0.0
  0
VERTEX
  8
0
 10
20.2731960977287
 20
45.4696993315658
 42
0.0
  0
VERTEX
  8
0
 10
20.0797426324155
 20
45.3565877186947
 42
0.0
  0
VERTEX
  8
0
 10
20.0101781653493
 20
45.3042612427022
 42
0.0
  0
VERTEX
  8
0
 10
19.9002139158358
 20
45.2206167192896
 42
0.0
  0
VERTEX
  8
0
 10
19.7378857329295
 20
45.0669399224907
 42
0.0
  0
VERTEX
  8
0
 10
19.5919596601114
 20
44.8945375558832
 42
0.0
  0
VERTEX
  8
0
 10
19.4673916403741
 20
44.7093354889435
 42
0.0
  0
VERTEX
  8
0
 10
19.3650919920014
 20
44.5091026321122
 42
0.0
  0
VERTEX
  8
0
 10
19.2845073429196
 20
44.2983844753901
 42
0.0
  0
VERTEX
  8
0
 10
19.2278663421209
 20
44.0827748650094
 42
0.0
  0
VERTEX
  8
0
 10
19.1981735797845
 20
43.8591621972269
 42
0.0
  0
VERTEX
  8
0
 10
19.1907692306441
 20
43.6349274898914
 42
0.0
  0
VERTEX
  8
0
 10
19.2089588837396
 20
43.4108989706885
 42
0.0
  0
VERTEX
  8
0
 10
19.2526580079056
 20
43.1906856680859
 42
0.0
  0
VERTEX
  8
0
 10
19.3223615872995
 20
42.9760510510185
 42
0.0
  0
VERTEX
  8
0
 10
19.336538709246
 20
42.944706343055
 42
0.0
  0
VERTEX
  8
0
 10
19.4140999863927
 20
42.7716214798019
 42
0.0
  0
VERTEX
  8
0
 10
19.5033031535091
 20
42.6212440247216
 42
0.0
  0
VERTEX
  8
0
 10
19.5283681893427
 20
42.5791604233708
 42
0.0
  0
VERTEX
  8
0
 10
19.6623829548
 20
42.3999612894682
 42
0.0
  0
VERTEX
  8
0
 10
19.6749534673071
 20
42.3853111484685
 42
0.0
  0
VERTEX
  8
0
 10
19.8178791678827
 20
42.2355126914172
 42
0.0
  0
VERTEX
  8
0
 10
19.9886275196867
 20
42.0915142687306
 42
0.0
  0
VERTEX
  8
0
 10
20.1754550176135
 20
41.9670021963425
 42
0.0
  0
VERTEX
  8
0
 10
20.3757164582612
 20
41.8627189504891
 42
0.0
  0
VERTEX
  8
0
 10
20.5847806001798
 20
41.7840619515388
 42
0.0
  0
VERTEX
  8
0
 10
20.802181043028
 20
41.7272841330761
 42
0.0
  0
VERTEX
  8
0
 10
21.0254641281334
 20
41.6956351367918
 42
0.0
  0
VERTEX
  8
0
 10
21.2487064265867
 20
41.6893873777304
 42
0.0
  0
VERTEX
  8
0
 10
21.4722661048814
 20
41.7085134923589
 42
0.0
  0
VERTEX
  8
0
 10
21.692479407484
 20
41.7522126165248
 42
0.0
  0
VERTEX
  8
0
 10
21.90774826694
 20
41.8207869693726
 42
0.0
  0
VERTEX
  8
0
 10
22.1122052016894
 20
41.9128835349593
 42
0.0
  0
VERTEX
  8
0
 10
22.3056586670026
 20
42.0259951478305
 42
0.0
  0
VERTEX
  8
0
 10
22.4849946185692
 20
42.1618007457552
 42
0.0
  0
VERTEX
  8
0
 10
22.6071468084248
 20
42.2776577711852
 42
0.0
  0
VERTEX
  8
0
 10
22.6482866265413
 20
42.3163045499559
 42
0.0
  0
VERTEX
  8
0
 10
22.7922850492279
 20
42.4870529017598
 42
0.0
  0
VERTEX
  8
0
 10
22.917953711695
 20
42.6748728085688
 42
0.0
  0
VERTEX
  8
0
 10
23.0212731324825
 20
42.8743072418147
 42
0.0
  0
VERTEX
  8
0
 10
23.1008939564986
 20
43.084198391135
 42
0.0
  0
VERTEX
  8
0
 10
23.156349783402
 20
43.3007991901143
 42
0.0
  0
VERTEX
  8
0
 10
23.1879987796863
 20
43.5240822752197
 42
0.0
  0
VERTEX
  8
0
 10
23.1936122963592
 20
43.7484538002191
 42
0.0
  0
VERTEX
  8
0
 10
23.1744588181979
 20
43.9716553120203
 42
0.0
  0
VERTEX
  8
0
 10
23.1643449222246
 20
44.0302492573068
 42
0.0
  0
SEQEND
  0
POLYLINE
  8
0
 66
     1
 10
0.0
 20
0.0
 30
0.0
 70
     1
  0
VERTEX
  8
0
 10
8.9151092712635
 20
35.7460140608115
 42
0.0
  0
VERTEX
  8
0
 10
8.8820355939043
 20
35.8247352174972
 42
0.0
  0
VERTEX
  8
0
 10
8.8303178378041
 20
35.952722896261
 42
0.0
  0
VERTEX
  8
0
 10
8.7241824362543
 20
36.1504888437318
 42
0.0
  0
VERTEX
  8
0
 10
8.5965674692338
 20
36.3351793067822
 42
0.0
  0
VERTEX
  8
0
 10
8.4482706984567
 20
36.5037972424217
 42
0.0
  0
VERTEX
  8
0
 10
8.2819677932963
 20
36.6552916283646
 42
0.0
  0
VERTEX
  8
0
 10
8.10048985542
 20
36.7864019995354
 42
0.0
  0
VERTEX
  8
0
 10
7.9036329303449
 20
36.8972880406511
 42
0.0
  0
VERTEX
  8
0
 10
7.6983526291485
 20
36.9842120629103
 42
0.0
  0
VERTEX
  8
0
 10
7.4824216265809
 20
37.0496138508918
 42
0.0
  0
VERTEX
  8
0
 10
7.2617353261476
 20
37.0888460076522
 42
0.0
  0
VERTEX
  8
0
 10
7.213909519936
 20
37.0916532434909
 42
0.0
  0
VERTEX
  8
0
 10
7.0369653029561
 20
37.1031541509157
 42
0.0
  0
VERTEX
  8
0
 10
6.813296273989
 20
37.0929707650984
 42
0.0
  0
VERTEX
  8
0
 10
6.5917013716273
 20
37.0571227199732
 42
0.0
  0
VERTEX
  8
0
 10
6.3750316359108
 20
36.9963829060183
 42
0.0
  0
VERTEX
  8
0
 10
6.1673525264622
 20
36.9125662430378
 42
0.0
  0
VERTEX
  8
0
 10
5.9704741522504
 20
36.8055524535157
 42
0.0
  0
VERTEX
  8
0
 10
5.8096113972794
 20
36.6946342871084
 42
0.0
  0
VERTEX
  8
0
 10
5.7858360459973
 20
36.6779154736405
 42
0.0
  0
VERTEX
  8
0
 10
5.6171548081473
 20
36.5294974491206
 42
0.0
  0
VERTEX
  8
0
 10
5.4657623994459
 20
36.3631147016017
 42
0.0
  0
VERTEX
  8
0
 10
5.3335560040534
 20
36.1807297919368
 42
0.0
  0
VERTEX
  8
0
 10
5.2238430931647
 20
35.9848459992424
 42
0.0
  0
VERTEX
  8
0
 10
5.1358744272543
 20
35.7805101245821
 42
0.0
  0
VERTEX
  8
0
 10
5.0714401769187
 20
35.5635685348863
 42
0.0
  0
VERTEX
  8
0
 10
5.0330009710371
 20
35.3438303735692
 42
0.0
  0
VERTEX
  8
0
 10
5.0239640350075
 20
35.2125766456062
 42
0.0
  0
VERTEX
  8
0
 10
5.0179787430265
 20
35.1200875996823
 42
0.0
  0
VERTEX
  8
0
 10
5.0291847596404
 20
34.8954217873818
 42
0.0
  0
VERTEX
  8
0
 10
5.0639725971932
 20
34.6729171768781
 42
0.0
  0
VERTEX
  8
0
 10
5.1236070796114
 20
34.4573406070016
 42
0.0
  0
VERTEX
  8
0
 10
5.2083499908819
 20
34.2485820134794
 42
0.0
  0
VERTEX
  8
0
 10
5.3155263235027
 20
34.0517092340025
 42
0.0
  0
VERTEX
  8
0
 10
5.4421488816411
 20
33.868175361031
 42
0.0
  0
VERTEX
  8
0
 10
5.5914380613003
 20
33.6984008353125
 42
0.0
  0
VERTEX
  8
0
 10
5.7577409664607
 20
33.5469064493696
 42
0.0
  0
VERTEX
  8
0
 10
5.9392381808383
 20
33.4158126183469
 42
0.0
  0
VERTEX
  8
0
 10
6.0206895681635
 20
33.3695652635312
 42
0.0
  0
VERTEX
  8
0
 10
6.13508342053
 20
33.3060666271621
 42
0.0
  0
VERTEX
  8
0
 10
6.3413946836112
 20
33.2180190951201
 42
0.0
  0
VERTEX
  8
0
 10
6.5564794022756
 20
33.1535645920563
 42
0.0
  0
VERTEX
  8
0
 10
6.777165702709
 20
33.1143324352959
 42
0.0
  0
VERTEX
  8
0
 10
7.0008755183281
 20
33.0991145838904
 42
0.0
  0
VERTEX
  8
0
 10
7.2243791458148
 20
33.1094907347209
 42
0.0
  0
VERTEX
  8
0
 10
7.4470535322502
 20
33.146265028136
 42
0.0
  0
VERTEX
  8
0
 10
7.6628091853735
 20
33.2058858287878
 42
0.0
  0
VERTEX
  8
0
 10
7.8715292258931
 20
33.2905956597623
 42
0.0
  0
VERTEX
  8
0
 10
8.069253884008
 20
33.3966621643666
 42
0.0
  0
VERTEX
  8
0
 10
8.2530457063579
 20
33.5252464291595
 42
0.0
  0
VERTEX
  8
0
 10
8.4110458803245
 20
33.6628261602363
 42
0.0
  0
VERTEX
  8
0
 10
8.4225539516097
 20
33.6727006286136
 42
0.0
  0
VERTEX
  8
0
 10
8.5731193529094
 20
33.8400472011983
 42
0.0
  0
VERTEX
  8
0
 10
8.7051118246326
 20
34.0205751178036
 42
0.0
  0
VERTEX
  8
0
 10
8.8149901370017
 20
34.2162661454848
 42
0.0
  0
VERTEX
  8
0
 10
8.9030073251009
 20
34.4226517782179
 42
0.0
  0
VERTEX
  8
0
 10
8.9664006443655
 20
34.6387001999197
 42
0.0
  0
VERTEX
  8
0
 10
9.0067077887199
 20
34.858367704165
 42
0.0
  0
VERTEX
  8
0
 10
9.0209030093288
 20
35.0830743031177
 42
0.0
  0
VERTEX
  8
0
 10
9.010689401597
 20
35.3065835253393
 42
0.0
  0
VERTEX
  8
0
 10
8.9746952314928
 20
35.5283877328622
 42
0.0
  0
SEQEND
  0
POLYLINE
  8
0
 66
     1
 10
0.0
 20
0.0
 30
0.0
 70
     1
  0
VERTEX
  8
0
 10
29.7323568501256
 20
190.275742164683
 42
0.0
  0
VERTEX
  8
0
 10
29.6163994298436
 20
190.431946314671
 42
0.0
  0
VERTEX
  8
0
 10
29.596880834878
 20
190.457034350197
 42
0.0
  0
VERTEX
  8
0
 10
29.4445296904891
 20
190.61313688505
 42
0.0
  0
VERTEX
  8
0
 10
29.443537281607
 20
190.614293475129
 42
0.0
  0
VERTEX
  8
0
 10
29.2141972393883
 20
190.84959018572
 42
0.0
  0
VERTEX
  8
0
 10
29.1856983388357
 20
190.872662379099
 42
0.0
  0
VERTEX
  8
0
 10
29.0380788307489
 20
190.98931553345
 42
0.0
  0
VERTEX
  8
0
 10
28.8213478328177
 20
191.083148681941
 42
0.0
  0
VERTEX
  8
0
 10
28.6290288067837
 20
191.119276941315
 42
0.0
  0
VERTEX
  8
0
 10
28.5719124922682
 20
191.128504035991
 42
0.0
  0
VERTEX
  8
0
 10
28.295502252713
 20
191.127285543048
 42
0.0
  0
VERTEX
  8
0
 10
27.9973266506416
 20
191.074591987187
 42
0.0
  0
VERTEX
  8
0
 10
27.9871897549757
 20
191.071583736157
 42
0.0
  0
VERTEX
  8
0
 10
27.9090705960115
 20
191.046389721655
 42
0.0
  0
VERTEX
  8
0
 10
27.6867776649164
 20
190.975469943982
 42
0.0
  0
VERTEX
  8
0
 10
27.3717611016439
 20
190.832017346181
 42
0.0
  0
VERTEX
  8
0
 10
27.3707972765782
 20
190.831190338779
 42
0.0
  0
VERTEX
  8
0
 10
27.0566844128774
 20
190.645338497363
 42
0.0
  0
VERTEX
  8
0
 10
26.752343659637
 20
190.422354116454
 42
0.0
  0
VERTEX
  8
0
 10
26.4660639124226
 20
190.169349459709
 42
0.0
  0
VERTEX
  8
0
 10
25.8286278427161
 20
189.54977208097
 42
0.0
  0
VERTEX
  8
0
 10
25.7980627367904
 20
189.519864217125
 42
0.0
  0
VERTEX
  8
0
 10
25.7934923238238
 20
189.51426915061
 42
0.0
  0
VERTEX
  8
0
 10
25.7871596622062
 20
189.506827304277
 42
0.0
  0
VERTEX
  8
0
 10
25.5307269503528
 20
189.23425002849
 42
0.0
  0
VERTEX
  8
0
 10
25.2989092549726
 20
188.937276127198
 42
0.0
  0
VERTEX
  8
0
 10
25.1042350816369
 20
188.628998460598
 42
0.0
  0
VERTEX
  8
0
 10
24.9920059460145
 20
188.397821586527
 42
0.0
  0
VERTEX
  8
0
 10
24.9525135239896
 20
188.31707900357
 42
0.0
  0
VERTEX
  8
0
 10
24.8638784121418
 20
188.064645691553
 42
0.0
  0
VERTEX
  8
0
 10
24.8438515955947
 20
188.007633950034
 42
0.0
  0
VERTEX
  8
0
 10
24.7840833130615
 20
187.713366969313
 42
0.0
  0
VERTEX
  8
0
 10
24.7730146910935
 20
187.436454423899
 42
0.0
  0
VERTEX
  8
0
 10
24.8121841889451
 20
187.185244817558
 42
0.0
  0
VERTEX
  8
0
 10
24.8319077517596
 20
187.13690454377
 42
0.0
  0
VERTEX
  8
0
 10
24.9002935177391
 20
186.966321964837
 42
0.0
  0
VERTEX
  8
0
 10
24.9329359972856
 20
186.92203829831
 42
0.0
  0
VERTEX
  8
0
 10
25.0336205340257
 20
186.785193960519
 42
0.0
  0
VERTEX
  8
0
 10
25.4161113645021
 20
186.392472723516
 42
0.0
  0
VERTEX
  8
0
 10
25.47517607397
 20
186.345089656081
 42
0.0
  0
VERTEX
  8
0
 10
25.5932209617401
 20
186.253932549681
 42
0.0
  0
VERTEX
  8
0
 10
25.7588350632457
 20
186.181837400173
 42
0.0
  0
VERTEX
  8
0
 10
25.8087953695925
 20
186.159106992308
 42
0.0
  0
VERTEX
  8
0
 10
26.0594158840372
 20
186.11276044966
 42
0.0
  0
VERTEX
  8
0
 10
26.3363484712827
 20
186.11610057803
 42
0.0
  0
VERTEX
  8
0
 10
26.6333401197424
 20
186.167443558516
 42
0.0
  0
VERTEX
  8
0
 10
26.8755760392086
 20
186.244765368275
 42
0.0
  0
VERTEX
  8
0
 10
26.9326229832555
 20
186.262923108302
 42
0.0
  0
VERTEX
  8
0
 10
26.9447434764021
 20
186.265959943149
 42
0.0
  0
VERTEX
  8
0
 10
27.2597040923255
 20
186.411037971937
 42
0.0
  0
VERTEX
  8
0
 10
27.5750294934543
 20
186.596256791248
 42
0.0
  0
VERTEX
  8
0
 10
27.8791774816815
 20
186.819075770676
 42
0.0
  0
VERTEX
  8
0
 10
28.0134501646837
 20
186.937969630953
 42
0.0
  0
VERTEX
  8
0
 10
28.1662282889486
 20
187.072742033343
 42
0.0
  0
VERTEX
  8
0
 10
28.8387998775473
 20
187.727822342442
 42
0.0
  0
VERTEX
  8
0
 10
28.9740241827795
 20
187.870960849863
 42
0.0
  0
VERTEX
  8
0
 10
28.9731971753778
 20
187.871924674928
 42
0.0
  0
VERTEX
  8
0
 10
29.1006014259526
 20
188.00701445716
 42
0.0
  0
VERTEX
  8
0
 10
29.331592113931
 20
188.304952183518
 42
0.0
  0
VERTEX
  8
0
 10
29.4204238373381
 20
188.444429893266
 42
0.0
  0
VERTEX
  8
0
 10
29.4507316889165
 20
188.492190134437
 42
0.0
  0
VERTEX
  8
0
 10
29.4518596951791
 20
188.4951661408
 42
0.0
  0
VERTEX
  8
0
 10
29.5261008857863
 20
188.613422615131
 42
0.0
  0
VERTEX
  8
0
 10
29.6220952360741
 20
188.806571792123
 42
0.0
  0
VERTEX
  8
0
 10
29.6801642074079
 20
188.925343292443
 42
0.0
  0
VERTEX
  8
0
 10
29.7874767807108
 20
189.233630535616
 42
0.0
  0
VERTEX
  8
0
 10
29.8484016533228
 20
189.52888992522
 42
0.0
  0
VERTEX
  8
0
 10
29.8576520792905
 20
189.805581121804
 42
0.0
  0
VERTEX
  8
0
 10
29.8191441873603
 20
190.056019668093
 42
0.0
  0
SEQEND
  0
POLYLINE
  8
0
 66
     1
 10
0.0
 20
0.0
 30
0.0
 70
     1
  0
VERTEX
  8
0
 10
15.3403685255152
 20
190.326566272634
 42
0.0
  0
VERTEX
  8
0
 10
15.1470373803665
 20
190.5074150575
 42
0.0
  0
VERTEX
  8
0
 10
15.0613418122777
 20
190.588175056026
 42
0.0
  0
VERTEX
  8
0
 10
14.7634040859199
 20
190.819165744004
 42
0.0
  0
VERTEX
  8
0
 10
14.6709976478886
 20
190.878102509392
 42
0.0
  0
VERTEX
  8
0
 10
14.4544100863333
 20
191.013894644406
 42
0.0
  0
VERTEX
  8
0
 10
14.1430129769949
 20
191.167737837481
 42
0.0
  0
VERTEX
  8
0
 10
13.8343949308614
 20
191.27543594081
 42
0.0
  0
VERTEX
  8
0
 10
13.5392735792051
 20
191.335809881916
 42
0.0
  0
VERTEX
  8
0
 10
13.4435348915905
 20
191.339341515224
 42
0.0
  0
VERTEX
  8
0
 10
13.2610949895809
 20
191.344453429028
 42
0.0
  0
VERTEX
  8
0
 10
13.0101876023841
 20
191.306881998631
 42
0.0
  0
VERTEX
  8
0
 10
12.7926141047553
 20
191.219930480199
 42
0.0
  0
VERTEX
  8
0
 10
12.7810482039661
 20
191.210006391378
 42
0.0
  0
VERTEX
  8
0
 10
12.6109363892145
 20
191.084123661991
 42
0.0
  0
VERTEX
  8
0
 10
12.2174428718749
 20
190.703312989567
 42
0.0
  0
VERTEX
  8
0
 10
12.0789026980401
 20
190.526203392329
 42
0.0
  0
VERTEX
  8
0
 10
11.9850695495491
 20
190.309472394398
 42
0.0
  0
VERTEX
  8
0
 10
11.9586670298604
 20
190.169007859891
 42
0.0
  0
VERTEX
  8
0
 10
11.9386670595519
 20
190.06047731094
 42
0.0
  0
VERTEX
  8
0
 10
11.9409053249093
 20
189.7832686478
 42
0.0
  0
VERTEX
  8
0
 10
11.9734842038064
 20
189.596688310353
 42
0.0
  0
VERTEX
  8
0
 10
11.9907797339035
 20
189.502420634797
 42
0.0
  0
VERTEX
  8
0
 10
11.9932407142775
 20
189.485120409261
 42
0.0
  0
VERTEX
  8
0
 10
12.092886325456
 20
189.17435129499
 42
0.0
  0
VERTEX
  8
0
 10
12.2114605510192
 20
188.91329255442
 42
0.0
  0
VERTEX
  8
0
 10
12.2276224907299
 20
188.879634666298
 42
0.0
  0
VERTEX
  8
0
 10
12.2364495976723
 20
188.858425633717
 42
0.0
  0
VERTEX
  8
0
 10
12.4220253631932
 20
188.54541463303
 42
0.0
  0
VERTEX
  8
0
 10
12.6450097441015
 20
188.241073879789
 42
0.0
  0
VERTEX
  8
0
 10
12.8984832417552
 20
187.953857671042
 42
0.0
  0
VERTEX
  8
0
 10
13.0370799200252
 20
187.811054701813
 42
0.0
  0
VERTEX
  8
0
 10
13.5537289523349
 20
187.28109331743
 42
0.0
  0
VERTEX
  8
0
 10
13.8325914843755
 20
187.017335535077
 42
0.0
  0
VERTEX
  8
0
 10
14.1298949683447
 20
186.787474073645
 42
0.0
  0
VERTEX
  8
0
 10
14.4393578088396
 20
186.59180871171
 42
0.0
  0
VERTEX
  8
0
 10
14.5615741564306
 20
186.531675272581
 42
0.0
  0
VERTEX
  8
0
 10
14.6450166698556
 20
186.492156707307
 42
0.0
  0
VERTEX
  8
0
 10
14.7511118643879
 20
186.440279919076
 42
0.0
  0
VERTEX
  8
0
 10
14.8351004281852
 20
186.410266447647
 42
0.0
  0
VERTEX
  8
0
 10
15.0603641529101
 20
186.331452589201
 42
0.0
  0
VERTEX
  8
0
 10
15.2950611604437
 20
186.284161043035
 42
0.0
  0
VERTEX
  8
0
 10
15.3551820651384
 20
186.271822344615
 42
0.0
  0
VERTEX
  8
0
 10
15.6277692490976
 20
186.260723918547
 42
0.0
  0
VERTEX
  8
0
 10
15.6317090805262
 20
186.260422919687
 42
0.0
  0
VERTEX
  8
0
 10
15.882753285387
 20
186.299785182551
 42
0.0
  0
VERTEX
  8
0
 10
16.1016487745751
 20
186.387536344852
 42
0.0
  0
VERTEX
  8
0
 10
16.1397913242138
 20
186.41524414352
 42
0.0
  0
VERTEX
  8
0
 10
16.2828315059584
 20
186.521579694125
 42
0.0
  0
VERTEX
  8
0
 10
16.6757181444421
 20
186.903877759589
 42
0.0
  0
VERTEX
  8
0
 10
16.814258318277
 20
187.080987356827
 42
0.0
  0
VERTEX
  8
0
 10
16.9078987017548
 20
187.297552953278
 42
0.0
  0
VERTEX
  8
0
 10
16.9091921094977
 20
187.300336194627
 42
0.0
  0
VERTEX
  8
0
 10
16.9555958197785
 20
187.546989514111
 42
0.0
  0
VERTEX
  8
0
 10
16.9522556914078
 20
187.823922101356
 42
0.0
  0
VERTEX
  8
0
 10
16.8997275370264
 20
188.121904938414
 42
0.0
  0
VERTEX
  8
0
 10
16.8830869941387
 20
188.175233399862
 42
0.0
  0
VERTEX
  8
0
 10
16.8735125298258
 20
188.203164284938
 42
0.0
  0
VERTEX
  8
0
 10
16.8020381597958
 20
188.432344470008
 42
0.0
  0
VERTEX
  8
0
 10
16.6563258886185
 20
188.748434312478
 42
0.0
  0
VERTEX
  8
0
 10
16.4722922432028
 20
189.062768525008
 42
0.0
  0
VERTEX
  8
0
 10
16.2491150972813
 20
189.366943876768
 42
0.0
  0
VERTEX
  8
0
 10
16.1528812398139
 20
189.474807752968
 42
0.0
  0
VERTEX
  8
0
 10
16.1168237170962
 20
189.516830525836
 42
0.0
  0
VERTEX
  8
0
 10
15.9954488346145
 20
189.653994684035
 42
0.0
  0
VERTEX
  8
0
 10
15.6255285166451
 20
190.032065780039
 42
0.0
  0
VERTEX
  8
0
 10
15.5432741349767
 20
190.117786602692
 42
0.0
  0
SEQEND
  0
POLYLINE
  8
0
 66
     1
 10
0.0
 20
0.0
 30
0.0
 70
     1
  0
VERTEX
  8
0
 10
22.337541268008
 20
186.029465338532
 42
0.0
  0
VERTEX
  8
0
 10
22.2850713556396
 20
186.057070819076
 42
0.0
  0
VERTEX
  8
0
 10
21.75600871011
 20
186.247717817859
 42
0.0
  0
VERTEX
  8
0
 10
21.2048347384064
 20
186.363499477515
 42
0.0
  0
VERTEX
  8
0
 10
20.644913495487
 20
186.400152485353
 42
0.0
  0
VERTEX
  8
0
 10
20.0848123933798
 20
186.35900371407
 42
0.0
  0
VERTEX
  8
0
 10
19.5343113815404
 20
186.240747014251
 42
0.0
  0
VERTEX
  8
0
 10
19.0071849679193
 20
186.046491570614
 42
0.0
  0
VERTEX
  8
0
 10
18.8911756325295
 20
185.985104436013
 42
0.0
  0
VERTEX
  8
0
 10
18.8503854389215
 20
185.962822641529
 42
0.0
  0
VERTEX
  8
0
 10
18.5103179659242
 20
185.781475503462
 42
0.0
  0
VERTEX
  8
0
 10
18.3280060079947
 20
185.6467979118
 42
0.0
  0
VERTEX
  8
0
 10
18.0567399667019
 20
185.448846322058
 42
0.0
  0
VERTEX
  8
0
 10
17.6544364263901
 20
185.056459986577
 42
0.0
  0
VERTEX
  8
0
 10
17.3085548327111
 20
184.612749531949
 42
0.0
  0
VERTEX
  8
0
 10
17.0300840116983
 20
184.124801078581
 42
0.0
  0
VERTEX
  8
0
 10
17.0095311866102
 20
184.072692993556
 42
0.0
  0
VERTEX
  8
0
 10
16.8210300432309
 20
183.602368432679
 42
0.0
  0
VERTEX
  8
0
 10
16.7783927382074
 20
183.423876201093
 42
0.0
  0
VERTEX
  8
0
 10
16.6876957848266
 20
183.05721880203
 42
0.0
  0
VERTEX
  8
0
 10
16.6300216282855
 20
182.498002909546
 42
0.0
  0
VERTEX
  8
0
 10
16.6517211750723
 20
181.935605008261
 42
0.0
  0
VERTEX
  8
0
 10
16.7519339528347
 20
181.38233957662
 42
0.0
  0
VERTEX
  8
0
 10
16.9274589455295
 20
180.848178108808
 42
0.0
  0
VERTEX
  8
0
 10
17.0979826590438
 20
180.500831750391
 42
0.0
  0
VERTEX
  8
0
 10
17.1363181593909
 20
180.422609238714
 42
0.0
  0
VERTEX
  8
0
 10
17.1749297356332
 20
180.343284864023
 42
0.0
  0
VERTEX
  8
0
 10
17.4905110647142
 20
179.878760562997
 42
0.0
  0
VERTEX
  8
0
 10
17.6949959200824
 20
179.652928159598
 42
0.0
  0
VERTEX
  8
0
 10
17.8682758430124
 20
179.461902912698
 42
0.0
  0
VERTEX
  8
0
 10
18.3007810039118
 20
179.101386338716
 42
0.0
  0
VERTEX
  8
0
 10
18.7778835503286
 20
178.805911409894
 42
0.0
  0
VERTEX
  8
0
 10
19.0878668152407
 20
178.668928185262
 42
0.0
  0
VERTEX
  8
0
 10
19.291922727668
 20
178.5789454559
 42
0.0
  0
VERTEX
  8
0
 10
19.6992293245298
 20
178.463887782532
 42
0.0
  0
VERTEX
  8
0
 10
19.834245372453
 20
178.425112396484
 42
0.0
  0
VERTEX
  8
0
 10
20.3915421567911
 20
178.349391877319
 42
0.0
  0
VERTEX
  8
0
 10
20.9526278287849
 20
178.351557668444
 42
0.0
  0
VERTEX
  8
0
 10
21.5094585443806
 20
178.430062768617
 42
0.0
  0
VERTEX
  8
0
 10
22.0495246195546
 20
178.588564831954
 42
0.0
  0
VERTEX
  8
0
 10
22.2477297630011
 20
178.676635814663
 42
0.0
  0
VERTEX
  8
0
 10
22.5627475465572
 20
178.81774664849
 42
0.0
  0
VERTEX
  8
0
 10
23.0368949375436
 20
179.117822245354
 42
0.0
  0
VERTEX
  8
0
 10
23.4674523268964
 20
179.481571125041
 42
0.0
  0
VERTEX
  8
0
 10
23.5442724939939
 20
179.56756769199
 42
0.0
  0
VERTEX
  8
0
 10
23.8423576093853
 20
179.89964749377
 42
0.0
  0
VERTEX
  8
0
 10
24.1555803425371
 20
180.366207572663
 42
0.0
  0
VERTEX
  8
0
 10
24.4003202441094
 20
180.872404212947
 42
0.0
  0
VERTEX
  8
0
 10
24.5413689495859
 20
181.31104889906
 42
0.0
  0
VERTEX
  8
0
 10
24.5720367052355
 20
181.40831698665
 42
0.0
  0
VERTEX
  8
0
 10
24.6684487904249
 20
181.962952186605
 42
0.0
  0
VERTEX
  8
0
 10
24.6859535726273
 20
182.524516461776
 42
0.0
  0
VERTEX
  8
0
 10
24.6257958339382
 20
183.083367900654
 42
0.0
  0
VERTEX
  8
0
 10
24.4867691383471
 20
183.628430705473
 42
0.0
  0
VERTEX
  8
0
 10
24.4284254573053
 20
183.772487701771
 42
0.0
  0
VERTEX
  8
0
 10
24.3804832479781
 20
183.887649987928
 42
0.0
  0
VERTEX
  8
0
 10
24.2743615388059
 20
184.149018269344
 42
0.0
  0
VERTEX
  8
0
 10
23.9919120893052
 20
184.634608166575
 42
0.0
  0
VERTEX
  8
0
 10
23.6447695845655
 20
185.077406485758
 42
0.0
  0
VERTEX
  8
0
 10
23.238367350473
 20
185.466010287016
 42
0.0
  0
VERTEX
  8
0
 10
23.2329650489704
 20
185.470746101463
 42
0.0
  0
VERTEX
  8
0
 10
23.0467109649487
 20
185.605121434189
 42
0.0
  0
VERTEX
  8
0
 10
22.7828185800115
 20
185.796044362964
 42
0.0
  0
SEQEND
  0
POLYLINE
  8
0
 66
     1
 10
0.0
 20
0.0
 30
0.0
 70
     1
  0
VERTEX
  8
0
 10
14.0057334356778
 20
178.103237043677
 42
0.0
  0
VERTEX
  8
0
 10
13.7552063657742
 20
177.917390786385
 42
0.0
  0
VERTEX
  8
0
 10
13.4728664499884
 20
177.664085130779
 42
0.0
  0
VERTEX
  8
0
 10
12.812085771859
 20
177.010085422578
 42
0.0
  0
VERTEX
  8
0
 10
12.5550510622841
 20
176.729628483933
 42
0.0
  0
VERTEX
  8
0
 10
12.5226464982431
 20
176.687432284895
 42
0.0
  0
VERTEX
  8
0
 10
12.3280002057343
 20
176.431389758715
 42
0.0
  0
VERTEX
  8
0
 10
12.2967844764393
 20
176.381177079155
 42
0.0
  0
VERTEX
  8
0
 10
12.1364388564255
 20
176.12377491832
 42
0.0
  0
VERTEX
  8
0
 10
11.986673532726
 20
175.811525878614
 42
0.0
  0
VERTEX
  8
0
 10
11.8801320194758
 20
175.503900241363
 42
0.0
  0
VERTEX
  8
0
 10
11.8610338254661
 20
175.409530950672
 42
0.0
  0
VERTEX
  8
0
 10
11.8201995557459
 20
175.20748426168
 42
0.0
  0
VERTEX
  8
0
 10
11.8105909632847
 20
174.930820428628
 42
0.0
  0
VERTEX
  8
0
 10
11.8494570217084
 20
174.680354518807
 42
0.0
  0
VERTEX
  8
0
 10
11.8650157434141
 20
174.641158731803
 42
0.0
  0
VERTEX
  8
0
 10
11.9352793135938
 20
174.46214677879
 42
0.0
  0
VERTEX
  8
0
 10
12.0669808988931
 20
174.280962827123
 42
0.0
  0
VERTEX
  8
0
 10
12.4425844753946
 20
173.887686997762
 42
0.0
  0
VERTEX
  8
0
 10
12.4902389232849
 20
173.848921188287
 42
0.0
  0
VERTEX
  8
0
 10
12.5402077716168
 20
173.809798432602
 42
0.0
  0
VERTEX
  8
0
 10
12.6165812486057
 20
173.748483997722
 42
0.0
  0
VERTEX
  8
0
 10
12.8303648239905
 20
173.653795258013
 42
0.0
  0
VERTEX
  8
0
 10
13.0740695006438
 20
173.608877720488
 42
0.0
  0
VERTEX
  8
0
 10
13.3467053102507
 20
173.610204447278
 42
0.0
  0
VERTEX
  8
0
 10
13.6401426573081
 20
173.662179229586
 42
0.0
  0
VERTEX
  8
0
 10
13.9436663511107
 20
173.76129761194
 42
0.0
  0
VERTEX
  8
0
 10
14.0884621627945
 20
173.829311788306
 42
0.0
  0
VERTEX
  8
0
 10
14.2548525370858
 20
173.906483874576
 42
0.0
  0
VERTEX
  8
0
 10
14.5650815167071
 20
174.091011283866
 42
0.0
  0
VERTEX
  8
0
 10
14.6781585902474
 20
174.175318633483
 42
0.0
  0
VERTEX
  8
0
 10
14.862369614492
 20
174.31363383743
 42
0.0
  0
VERTEX
  8
0
 10
15.1450117494222
 20
174.56853756049
 42
0.0
  0
VERTEX
  8
0
 10
15.8056270260712
 20
175.222730033704
 42
0.0
  0
VERTEX
  8
0
 10
16.0632959780347
 20
175.502057745803
 42
0.0
  0
VERTEX
  8
0
 10
16.1448707811268
 20
175.610207128568
 42
0.0
  0
VERTEX
  8
0
 10
16.2905122360649
 20
175.800103706008
 42
0.0
  0
VERTEX
  8
0
 10
16.4822937139196
 20
176.108242114376
 42
0.0
  0
VERTEX
  8
0
 10
16.5169420876501
 20
176.179807965883
 42
0.0
  0
VERTEX
  8
0
 10
16.6156302669877
 20
176.384639819497
 42
0.0
  0
VERTEX
  8
0
 10
16.6318662726059
 20
176.420325752602
 42
0.0
  0
VERTEX
  8
0
 10
16.7377461799348
 20
176.728722449906
 42
0.0
  0
VERTEX
  8
0
 10
16.7975132421843
 20
177.025331194602
 42
0.0
  0
VERTEX
  8
0
 10
16.8060468178709
 20
177.250200144326
 42
0.0
  0
VERTEX
  8
0
 10
16.806763668152
 20
177.302022391186
 42
0.0
  0
VERTEX
  8
0
 10
16.7728992205076
 20
177.523645877365
 42
0.0
  0
VERTEX
  8
0
 10
16.7684211777022
 20
177.552268172462
 42
0.0
  0
VERTEX
  8
0
 10
16.6826262493496
 20
177.770834078973
 42
0.0
  0
VERTEX
  8
0
 10
16.5507592625699
 20
177.952210795653
 42
0.0
  0
VERTEX
  8
0
 10
16.4728874099891
 20
178.033994227445
 42
0.0
  0
VERTEX
  8
0
 10
16.4112522660161
 20
178.097244854441
 42
0.0
  0
VERTEX
  8
0
 10
16.1753210875488
 20
178.34529386
 42
0.0
  0
VERTEX
  8
0
 10
16.0019585567263
 20
178.483367633494
 42
0.0
  0
VERTEX
  8
0
 10
15.7893315714204
 20
178.579048782085
 42
0.0
  0
VERTEX
  8
0
 10
15.604204459073
 20
178.612646173322
 42
0.0
  0
VERTEX
  8
0
 10
15.543477895806
 20
178.624130500807
 42
0.0
  0
VERTEX
  8
0
 10
15.2716417300681
 20
178.621481782458
 42
0.0
  0
VERTEX
  8
0
 10
14.978369784491
 20
178.569314235137
 42
0.0
  0
VERTEX
  8
0
 10
14.90044339054
 20
178.544285622115
 42
0.0
  0
VERTEX
  8
0
 10
14.7661042949306
 20
178.49997004252
 42
0.0
  0
VERTEX
  8
0
 10
14.6739096291555
 20
178.469727011875
 42
0.0
  0
VERTEX
  8
0
 10
14.3628602608445
 20
178.326331581706
 42
0.0
  0
VERTEX
  8
0
 10
14.0542852960267
 20
178.139876522285
 42
0.0
  0
SEQEND
  0
POLYLINE
  8
0
 66
     1
 10
0.0
 20
0.0
 30
0.0
 70
     1
  0
VERTEX
  8
0
 10
24.3909532943242
 20
176.642621442599
 42
0.0
  0
VERTEX
  8
0
 10
24.490678555534
 20
176.337610355757
 42
0.0
  0
VERTEX
  8
0
 10
24.5853929609901
 20
176.132052778278
 42
0.0
  0
VERTEX
  8
0
 10
24.6350937581176
 20
176.02576256386
 42
0.0
  0
VERTEX
  8
0
 10
24.8194271821105
 20
175.717709946733
 42
0.0
  0
VERTEX
  8
0
 10
25.0430147810239
 20
175.418907092376
 42
0.0
  0
VERTEX
  8
0
 10
25.2959896336693
 20
175.136952706616
 42
0.0
  0
VERTEX
  8
0
 10
25.8812705180583
 20
174.545727953568
 42
0.0
  0
VERTEX
  8
0
 10
25.9509817507524
 20
174.475015438408
 42
0.0
  0
VERTEX
  8
0
 10
26.2294550919161
 20
174.217952145017
 42
0.0
  0
VERTEX
  8
0
 10
26.5288789910299
 20
173.989910099868
 42
0.0
  0
VERTEX
  8
0
 10
26.8378431865166
 20
173.799506560922
 42
0.0
  0
VERTEX
  8
0
 10
27.0959433760847
 20
173.674232673456
 42
0.0
  0
VERTEX
  8
0
 10
27.14857746965
 20
173.648776191873
 42
0.0
  0
VERTEX
  8
0
 10
27.4571669319671
 20
173.543061686024
 42
0.0
  0
VERTEX
  8
0
 10
27.5216405616496
 20
173.531110958198
 42
0.0
  0
VERTEX
  8
0
 10
27.5592231205024
 20
173.523196092813
 42
0.0
  0
VERTEX
  8
0
 10
27.7525905027677
 20
173.484285812374
 42
0.0
  0
VERTEX
  8
0
 10
27.7888200456778
 20
173.482238428548
 42
0.0
  0
VERTEX
  8
0
 10
28.0304395097148
 20
173.473686031314
 42
0.0
  0
VERTEX
  8
0
 10
28.1908512107371
 20
173.498537225715
 42
0.0
  0
VERTEX
  8
0
 10
28.280712654523
 20
173.512386688257
 42
0.0
  0
VERTEX
  8
0
 10
28.499278561034
 20
173.59818161661
 42
0.0
  0
VERTEX
  8
0
 10
28.5603613675214
 20
173.643230427467
 42
0.0
  0
VERTEX
  8
0
 10
28.6017535588509
 20
173.673391884808
 42
0.0
  0
VERTEX
  8
0
 10
28.6802697476877
 20
173.729717800429
 42
0.0
  0
VERTEX
  8
0
 10
29.0431172887866
 20
174.077204345553
 42
0.0
  0
VERTEX
  8
0
 10
29.0737383420615
 20
174.10548677841
 42
0.0
  0
VERTEX
  8
0
 10
29.2051498712605
 20
174.269451228953
 42
0.0
  0
VERTEX
  8
0
 10
29.2131341071146
 20
174.279648953102
 42
0.0
  0
VERTEX
  8
0
 10
29.3061153252381
 20
174.492302081657
 42
0.0
  0
VERTEX
  8
0
 10
29.3525476193353
 20
174.73697180366
 42
0.0
  0
VERTEX
  8
0
 10
29.3523370673626
 20
174.823809835719
 42
0.0
  0
VERTEX
  8
0
 10
29.3506973245713
 20
175.009827741813
 42
0.0
  0
VERTEX
  8
0
 10
29.2990533452245
 20
175.302879558844
 42
0.0
  0
VERTEX
  8
0
 10
29.1989425539884
 20
175.607559842725
 42
0.0
  0
VERTEX
  8
0
 10
29.1392854233723
 20
175.734424847335
 42
0.0
  0
VERTEX
  8
0
 10
29.0545832987539
 20
175.917782203634
 42
0.0
  0
VERTEX
  8
0
 10
28.9056281902931
 20
176.16549082966
 42
0.0
  0
VERTEX
  8
0
 10
28.8690920643986
 20
176.227184175854
 42
0.0
  0
VERTEX
  8
0
 10
28.821396829856
 20
176.291351222552
 42
0.0
  0
VERTEX
  8
0
 10
28.6467990935116
 20
176.526428507587
 42
0.0
  0
VERTEX
  8
0
 10
28.4477439031788
 20
176.747883263033
 42
0.0
  0
VERTEX
  8
0
 10
28.3925296128397
 20
176.807941415971
 42
0.0
  0
VERTEX
  8
0
 10
27.738502541106
 20
177.468363927607
 42
0.0
  0
VERTEX
  8
0
 10
27.4592021925405
 20
177.726391046064
 42
0.0
  0
VERTEX
  8
0
 10
27.160963467322
 20
177.953441902614
 42
0.0
  0
VERTEX
  8
0
 10
26.8987658838405
 20
178.117035944035
 42
0.0
  0
VERTEX
  8
0
 10
26.8529904604339
 20
178.145030615455
 42
0.0
  0
VERTEX
  8
0
 10
26.5411269507544
 20
178.295126742115
 42
0.0
  0
VERTEX
  8
0
 10
26.3857987654145
 20
178.348603335378
 42
0.0
  0
VERTEX
  8
0
 10
26.3756582088979
 20
178.352620376271
 42
0.0
  0
VERTEX
  8
0
 10
26.2323447234241
 20
178.400675846483
 42
0.0
  0
VERTEX
  8
0
 10
25.9360941452217
 20
178.4604155452
 42
0.0
  0
VERTEX
  8
0
 10
25.6590447821436
 20
178.469693334701
 42
0.0
  0
VERTEX
  8
0
 10
25.4081373949468
 20
178.432121904304
 42
0.0
  0
VERTEX
  8
0
 10
25.1895714884358
 20
178.346326975951
 42
0.0
  0
VERTEX
  8
0
 10
25.0083875367689
 20
178.214625390652
 42
0.0
  0
VERTEX
  8
0
 10
24.8418471073897
 20
178.055326163804
 42
0.0
  0
VERTEX
  8
0
 10
24.7837725519322
 20
178.000140457281
 42
0.0
  0
VERTEX
  8
0
 10
24.6403353403149
 20
177.862673005558
 42
0.0
  0
VERTEX
  8
0
 10
24.6151117074082
 20
177.83902181415
 42
0.0
  0
VERTEX
  8
0
 10
24.4974947279908
 20
177.690575298662
 42
0.0
  0
VERTEX
  8
0
 10
24.475743305888
 20
177.665217805952
 42
0.0
  0
VERTEX
  8
0
 10
24.3822111562578
 20
177.45242663945
 42
0.0
  0
VERTEX
  8
0
 10
24.3374876040298
 20
177.206545600302
 42
0.0
  0
VERTEX
  8
0
 10
24.3389797323002
 20
176.933717025682
 42
0.0
  0
SEQEND
  0
POLYLINE
  8
0
 66
     1
 10
0.0
 20
0.0
 30
0.0
 70
     1
  0
VERTEX
  8
0
 10
22.3866442986148
 20
110.885102255682
 42
0.0
  0
VERTEX
  8
0
 10
22.4355654937047
 20
110.794542783162
 42
0.0
  0
VERTEX
  8
0
 10
22.556379165117
 20
110.624097724883
 42
0.0
  0
VERTEX
  8
0
 10
22.6992252156614
 20
110.468541240403
 42
0.0
  0
VERTEX
  8
0
 10
22.8579576473156
 20
110.33230570474
 42
0.0
  0
VERTEX
  8
0
 10
23.0335402851454
 20
110.216218125298
 42
0.0
  0
VERTEX
  8
0
 10
23.1671383104975
 20
110.149451025691
 42
0.0
  0
VERTEX
  8
0
 10
23.2209302144253
 20
110.122645189016
 42
0.0
  0
VERTEX
  8
0
 10
23.4186114582992
 20
110.052963614518
 42
0.0
  0
VERTEX
  8
0
 10
23.6234699724567
 20
110.008852339575
 42
0.0
  0
VERTEX
  8
0
 10
23.8324202964039
 20
109.990006704473
 42
0.0
  0
VERTEX
  8
0
 10
23.8753431079923
 20
109.990690275499
 42
0.0
  0
VERTEX
  8
0
 10
24.0416059095941
 20
109.995460443581
 42
0.0
  0
VERTEX
  8
0
 10
24.2494822513548
 20
110.028573873005
 42
0.0
  0
VERTEX
  8
0
 10
24.4512575598902
 20
110.085570122227
 42
0.0
  0
VERTEX
  8
0
 10
24.6443139953307
 20
110.16754983398
 42
0.0
  0
VERTEX
  8
0
 10
24.8262003395712
 20
110.273079122003
 42
0.0
  0
VERTEX
  8
0
 10
24.9929506179337
 20
110.399759054692
 42
0.0
  0
VERTEX
  8
0
 10
25.1440698462606
 20
110.545826163111
 42
0.0
  0
VERTEX
  8
0
 10
25.2758121784203
 20
110.709405083627
 42
0.0
  0
VERTEX
  8
0
 10
25.3863606386959
 20
110.887932703436
 42
0.0
  0
VERTEX
  8
0
 10
25.4733473198639
 20
111.078707871787
 42
0.0
  0
VERTEX
  8
0
 10
25.518235238984
 20
111.220642198069
 42
0.0
  0
VERTEX
  8
0
 10
25.537269646649
 20
111.278810529667
 42
0.0
  0
VERTEX
  8
0
 10
25.5746304852817
 20
111.484905283934
 42
0.0
  0
VERTEX
  8
0
 10
25.5875526914737
 20
111.694128022926
 42
0.0
  0
VERTEX
  8
0
 10
25.5752664254562
 20
111.903475376746
 42
0.0
  0
VERTEX
  8
0
 10
25.5364235524204
 20
112.109447771057
 42
0.0
  0
VERTEX
  8
0
 10
25.5171365858471
 20
112.165860472715
 42
0.0
  0
VERTEX
  8
0
 10
25.4724032315586
 20
112.308877654767
 42
0.0
  0
VERTEX
  8
0
 10
25.3845286747135
 20
112.500222907772
 42
0.0
  0
VERTEX
  8
0
 10
25.2749513214133
 20
112.678635820924
 42
0.0
  0
VERTEX
  8
0
 10
25.1417435215265
 20
112.842462379423
 42
0.0
  0
VERTEX
  8
0
 10
24.991629568115
 20
112.987766412688
 42
0.0
  0
VERTEX
  8
0
 10
24.8233148331523
 20
113.114106443345
 42
0.0
  0
VERTEX
  8
0
 10
24.6420623599098
 20
113.219639352428
 42
0.0
  0
VERTEX
  8
0
 10
24.449692784955
 20
113.299902960818
 42
0.0
  0
VERTEX
  8
0
 10
24.2478303189917
 20
113.357294979838
 42
0.0
  0
VERTEX
  8
0
 10
24.0392855669022
 20
113.390880168238
 42
0.0
  0
VERTEX
  8
0
 10
23.8296535952022
 20
113.396088113054
 42
0.0
  0
VERTEX
  8
0
 10
23.6650770530711
 20
113.380381405436
 42
0.0
  0
VERTEX
  8
0
 10
23.6206680687267
 20
113.376749191581
 42
0.0
  0
VERTEX
  8
0
 10
23.4162140918386
 20
113.331846071972
 42
0.0
  0
VERTEX
  8
0
 10
23.2183026255513
 20
113.261765504536
 42
0.0
  0
VERTEX
  8
0
 10
23.0301012209574
 20
113.167886648467
 42
0.0
  0
VERTEX
  8
0
 10
22.8551903227083
 20
113.05227763241
 42
0.0
  0
VERTEX
  8
0
 10
22.6963519518701
 20
112.915986812596
 42
0.0
  0
VERTEX
  8
0
 10
22.5723925485664
 20
112.778832562569
 42
0.0
  0
VERTEX
  8
0
 10
22.5555137585744
 20
112.76066820383
 42
0.0
  0
VERTEX
  8
0
 10
22.4341345520445
 20
112.588912282447
 42
0.0
  0
VERTEX
  8
0
 10
22.3348023680496
 20
112.403943767172
 42
0.0
  0
VERTEX
  8
0
 10
22.2591687808263
 20
112.208518535823
 42
0.0
  0
VERTEX
  8
0
 10
22.2084998345846
 20
112.005061663256
 42
0.0
  0
VERTEX
  8
0
 10
22.2008185208643
 20
111.942243268661
 42
0.0
  0
VERTEX
  8
0
 10
22.1829584902377
 20
111.798063912406
 42
0.0
  0
VERTEX
  8
0
 10
22.1833170281219
 20
111.585845125221
 42
0.0
  0
VERTEX
  8
0
 10
22.2095705671028
 20
111.377772357596
 42
0.0
  0
VERTEX
  8
0
 10
22.2606433874163
 20
111.176269464105
 42
0.0
  0
VERTEX
  8
0
 10
22.3362606334508
 20
110.980096543787
 42
0.0
  0
SEQEND
  0
POLYLINE
  8
0
 66
     1
 10
0.0
 20
0.0
 30
0.0
 70
     1
  0
VERTEX
  8
0
 10
28.9825314427854
 20
41.5069909390384
 42
0.0
  0
VERTEX
  8
0
 10
28.9792706859029
 20
41.4624240818327
 42
0.0
  0
VERTEX
  8
0
 10
28.3772436112493
 20
35.5529731813337
 42
0.0
  0
VERTEX
  8
0
 10
26.2105344305971
 20
14.25392477196
 42
0.0
  0
VERTEX
  8
0
 10
26.1149371420154
 20
13.3093751689423
 42
0.0
  0
VERTEX
  8
0
 10
27.3227781442883
 20
11.901712515692
 42
0.0
  0
VERTEX
  8
0
 10
15.6702834558931
 20
1.9033220413035
 42
0.0
  0
VERTEX
  8
0
 10
5.8432886115091
 20
13.3560659124689
 42
0.0
  0
VERTEX
  8
0
 10
5.8359693239597
 20
13.3497856182598
 42
0.0
  0
VERTEX
  8
0
 10
5.8387896912434
 20
13.3613091208267
 42
0.0
  0
VERTEX
  8
0
 10
7.2259145729299
 20
19.0074539282645
 42
0.0
  0
VERTEX
  8
0
 10
7.5718235487112
 20
20.4137150574429
 42
0.0
  0
VERTEX
  8
0
 10
9.0858833431966
 20
26.5700995420764
 42
0.0
  0
VERTEX
  8
0
 10
10.0676165320256
 20
30.5683063605261
 42
0.0
  0
VERTEX
  8
0
 10
10.1992108172595
 20
31.1005836441773
 42
0.0
  0
VERTEX
  8
0
 10
9.4634640350854
 20
31.0268672020356
 42
0.0
  0
VERTEX
  8
0
 10
8.2666458463962
 20
31.0060106987684
 42
0.0
  0
VERTEX
  8
0
 10
7.8732198399192
 20
31.0349151977066
 42
0.0
  0
VERTEX
  8
0
 10
7.1735167236122
 20
31.0885158619757
 42
0.0
  0
VERTEX
  8
0
 10
6.195166197995
 20
31.2785430362865
 42
0.0
  0
VERTEX
  8
0
 10
5.3410215955126
 20
31.5714631953309
 42
0.0
  0
VERTEX
  8
0
 10
4.6186137198438
 20
31.9647015672914
 42
0.0
  0
VERTEX
  8
0
 10
4.0354814616988
 20
32.456025006696
 42
0.0
  0
VERTEX
  8
0
 10
3.5962765593126
 20
33.0377108693503
 42
0.0
  0
VERTEX
  8
0
 10
3.3062813324578
 20
33.7079325764363
 42
0.0
  0
VERTEX
  8
0
 10
3.1681234867312
 20
34.4572307682158
 42
0.0
  0
VERTEX
  8
0
 10
3.1822214586975
 20
35.2809441736517
 42
0.0
  0
VERTEX
  8
0
 10
3.3498312199216
 20
36.1691057950382
 42
0.0
  0
VERTEX
  8
0
 10
3.3835620571256
 20
36.2673287147346
 42
0.0
  0
VERTEX
  8
0
 10
3.6700100005351
 20
37.1122048217676
 42
0.0
  0
VERTEX
  8
0
 10
4.1358020860014
 20
38.103603547856
 42
0.0
  0
VERTEX
  8
0
 10
4.3262909214433
 20
38.4233509250655
 42
0.0
  0
VERTEX
  8
0
 10
4.7470724373526
 20
39.1328107974822
 42
0.0
  0
VERTEX
  8
0
 10
5.402168679111
 20
40.0580500058082
 42
0.0
  0
VERTEX
  8
0
 10
5.4950950043696
 20
40.1910004585
 42
0.0
  0
VERTEX
  8
0
 10
6.3739170089965
 20
41.2660363332438
 42
0.0
  0
VERTEX
  8
0
 10
7.3759894878781
 20
42.3477594946237
 42
0.0
  0
VERTEX
  8
0
 10
8.4887348548419
 20
43.427385903749
 42
0.0
  0
VERTEX
  8
0
 10
9.7047695480126
 20
44.4945638685168
 42
0.0
  0
VERTEX
  8
0
 10
11.0097742293516
 20
45.5363373463935
 42
0.0
  0
VERTEX
  8
0
 10
11.963089257956
 20
46.2304923426162
 42
0.0
  0
VERTEX
  8
0
 10
12.3935628191328
 20
46.543631512871
 42
0.0
  0
VERTEX
  8
0
 10
12.934900668544
 20
46.9050412548464
 42
0.0
  0
VERTEX
  8
0
 10
12.9356272810938
 20
46.9381293899133
 42
0.0
  0
VERTEX
  8
0
 10
12.9373187532976
 20
47.0757984802342
 42
0.0
  0
VERTEX
  8
0
 10
12.939559233735
 20
47.2701661103772
 42
0.0
  0
VERTEX
  8
0
 10
12.9407424843572
 20
47.3257354236532
 42
0.0
  0
VERTEX
  8
0
 10
12.9411273113941
 20
47.3802849645142
 42
0.0
  0
VERTEX
  8
0
 10
12.9643500240989
 20
49.6576769241775
 42
0.0
  0
VERTEX
  8
0
 10
12.9835088343688
 20
53.3365991102136
 42
0.0
  0
VERTEX
  8
0
 10
12.9842762335707
 20
53.3442860080577
 42
0.0
  0
VERTEX
  8
0
 10
12.9842950551185
 20
53.3610365223706
 42
0.0
  0
VERTEX
  8
0
 10
12.9857426960942
 20
53.4907985863015
 42
0.0
  0
VERTEX
  8
0
 10
13.0101367218646
 20
55.0007535683453
 42
0.0
  0
VERTEX
  8
0
 10
13.020673711376
 20
55.7163196734565
 42
0.0
  0
VERTEX
  8
0
 10
13.052702043421
 20
58.436695435406
 42
0.0
  0
VERTEX
  8
0
 10
13.0798997104991
 20
61.4922991715939
 42
0.0
  0
VERTEX
  8
0
 10
13.101428205362
 20
64.8532936089278
 42
0.0
  0
VERTEX
  8
0
 10
13.1174189472455
 20
68.4789596618457
 42
0.0
  0
VERTEX
  8
0
 10
13.1291039981147
 20
72.3311960846555
 42
0.0
  0
VERTEX
  8
0
 10
13.1346050364753
 20
76.3665552775112
 42
0.0
  0
VERTEX
  8
0
 10
13.1350511827619
 20
79.9514389758169
 42
0.0
  0
VERTEX
  8
0
 10
13.1347436713007
 20
80.5415634973178
 42
0.0
  0
VERTEX
  8
0
 10
13.1281104220048
 20
84.8118366826964
 42
0.0
  0
VERTEX
  8
0
 10
13.1166312011414
 20
89.1294936384987
 42
0.0
  0
VERTEX
  8
0
 10
13.1007445282246
 20
93.4460462907206
 42
0.0
  0
VERTEX
  8
0
 10
13.077029961655
 20
97.7167238276733
 42
0.0
  0
VERTEX
  8
0
 10
13.0769835908791
 20
97.8057108586933
 42
0.0
  0
VERTEX
  8
0
 10
13.0499491632573
 20
101.891469911998
 42
0.0
  0
VERTEX
  8
0
 10
13.0457422754208
 20
102.298521509385
 42
0.0
  0
VERTEX
  8
0
 10
13.0350105445675
 20
103.754239449274
 42
0.0
  0
VERTEX
  8
0
 10
13.0172930085763
 20
105.927222473876
 42
0.0
  0
VERTEX
  8
0
 10
12.9946806896746
 20
108.241259827869
 42
0.0
  0
VERTEX
  8
0
 10
12.980324583961
 20
109.779213142185
 42
0.0
  0
VERTEX
  8
0
 10
12.9534438855418
 20
112.195349208943
 42
0.0
  0
VERTEX
  8
0
 10
12.9397821875027
 20
113.405235438323
 42
0.0
  0
VERTEX
  8
0
 10
12.9313333949968
 20
114.075058364695
 42
0.0
  0
VERTEX
  8
0
 10
12.8952463069303
 20
116.764432238782
 42
0.0
  0
VERTEX
  8
0
 10
12.8606236520026
 20
119.022646686003
 42
0.0
  0
VERTEX
  8
0
 10
12.8493804498995
 20
119.820934607712
 42
0.0
  0
VERTEX
  8
0
 10
12.7979596498076
 20
122.540660780881
 42
0.0
  0
VERTEX
  8
0
 10
12.7948642413497
 20
122.665185944789
 42
0.0
  0
VERTEX
  8
0
 10
12.791414844543
 20
122.834590154234
 42
0.0
  0
VERTEX
  8
0
 10
12.7739186308535
 20
123.63119425704
 42
0.0
  0
VERTEX
  8
0
 10
12.7694271251369
 20
124.055740065259
 42
0.0
  0
VERTEX
  8
0
 10
12.7582931914697
 20
124.961556364768
 42
0.0
  0
VERTEX
  8
0
 10
12.7434759379399
 20
126.274204133118
 42
0.0
  0
VERTEX
  8
0
 10
12.7265373805807
 20
127.745346934911
 42
0.0
  0
VERTEX
  8
0
 10
12.7166958200681
 20
128.550192527918
 42
0.0
  0
VERTEX
  8
0
 10
12.7037147351935
 20
129.669962499731
 42
0.0
  0
VERTEX
  8
0
 10
12.6968038846479
 20
130.296256955942
 42
0.0
  0
VERTEX
  8
0
 10
12.6907765459394
 20
130.601675020621
 42
0.0
  0
VERTEX
  8
0
 10
12.6875722006443
 20
130.776644492482
 42
0.0
  0
VERTEX
  8
0
 10
12.5348021806541
 20
139.561295341931
 42
0.0
  0
VERTEX
  8
0
 10
12.3638351991308
 20
146.839300459227
 42
0.0
  0
VERTEX
  8
0
 10
12.3252706833899
 20
148.520143900199
 42
0.0
  0
VERTEX
  8
0
 10
12.3238482969786
 20
148.553396216463
 42
0.0
  0
VERTEX
  8
0
 10
12.3115093730719
 20
148.969535133
 42
0.0
  0
VERTEX
  8
0
 10
12.3054201712916
 20
149.18219173671
 42
0.0
  0
VERTEX
  8
0
 10
12.1277889956725
 20
155.132798549805
 42
0.0
  0
VERTEX
  8
0
 10
12.1235491999714
 20
155.232913665089
 42
0.0
  0
VERTEX
  8
0
 10
12.0667420416471
 20
157.186604502229
 42
0.0
  0
VERTEX
  8
0
 10
11.9971967144635
 20
159.053726061503
 42
0.0
  0
VERTEX
  8
0
 10
11.96354935792
 20
159.969007888489
 42
0.0
  0
VERTEX
  8
0
 10
11.771145946624
 20
165.136823970107
 42
0.0
  0
VERTEX
  8
0
 10
11.7620113680123
 20
165.377993414784
 42
0.0
  0
VERTEX
  8
0
 10
11.6076112613877
 20
168.83168515535
 42
0.0
  0
VERTEX
  8
0
 10
11.5499241857575
 20
170.094830475709
 42
0.0
  0
VERTEX
  8
0
 10
11.5480208617138
 20
170.786669400233
 42
0.0
  0
VERTEX
  8
0
 10
8.131268988474
 20
173.020833344774
 42
0.0
  0
VERTEX
  8
0
 10
8.2142722396034
 20
178.318196097008
 42
0.0
  0
VERTEX
  8
0
 10
8.2508055004844
 20
180.588266647022
 42
0.0
  0
VERTEX
  8
0
 10
8.2686826814008
 20
181.704057924028
 42
0.0
  0
VERTEX
  8
0
 10
8.2745100395064
 20
182.046757548699
 42
0.0
  0
VERTEX
  8
0
 10
4.9258961881522
 20
192.939177067673
 42
0.0
  0
VERTEX
  8
0
 10
8.4864718774156
 20
195.440411612461
 42
0.0
  0
VERTEX
  8
0
 10
11.4587632460747
 20
197.529244133676
 42
0.0
  0
VERTEX
  8
0
 10
11.5112549378523
 20
197.565582613423
 42
0.0
  0
VERTEX
  8
0
 10
11.5124115279312
 20
197.566575022305
 42
0.0
  0
VERTEX
  8
0
 10
14.5435284702691
 20
199.696846105626
 42
0.0
  0
VERTEX
  8
0
 10
18.1526907449076
 20
196.986853206067
 42
0.0
  0
VERTEX
  8
0
 10
19.7429852979937
 20
195.793051348807
 42
0.0
  0
VERTEX
  8
0
 10
21.0561607328786
 20
196.592828374605
 42
0.0
  0
VERTEX
  8
0
 10
22.2799153259322
 20
195.793050924361
 42
0.0
  0
VERTEX
  8
0
 10
26.7115835752
 20
198.907179712869
 42
0.0
  0
VERTEX
  8
0
 10
27.5428534275128
 20
199.491593877584
 42
0.0
  0
VERTEX
  8
0
 10
29.4180737170742
 20
198.082746101372
 42
0.0
  0
VERTEX
  8
0
 10
29.4189007244759
 20
198.081782276306
 42
0.0
  0
VERTEX
  8
0
 10
29.5908257081901
 20
197.95318501284
 42
0.0
  0
VERTEX
  8
0
 10
30.8578858706925
 20
197.001132778778
 42
0.0
  0
VERTEX
  8
0
 10
35.6703327068843
 20
193.386110105529
 42
0.0
  0
VERTEX
  8
0
 10
36.9418301255399
 20
192.430836813592
 42
0.0
  0
VERTEX
  8
0
 10
35.2012705028381
 20
187.345490493694
 42
0.0
  0
VERTEX
  8
0
 10
35.0261517186707
 20
186.835776160515
 42
0.0
  0
VERTEX
  8
0
 10
33.3764758986404
 20
182.022865749204
 42
0.0
  0
VERTEX
  8
0
 10
33.3193519573526
 20
178.39872107157
 42
0.0
  0
VERTEX
  8
0
 10
33.3020645713219
 20
177.314227097164
 42
0.0
  0
VERTEX
  8
0
 10
33.2280302320447
 20
172.622311595904
 42
0.0
  0
VERTEX
  8
0
 10
29.6833665100543
 20
170.461385065881
 42
0.0
  0
VERTEX
  8
0
 10
29.6817684425999
 20
170.461687285025
 42
0.0
  0
VERTEX
  8
0
 10
29.5115076073486
 20
170.357431362913
 42
0.0
  0
VERTEX
  8
0
 10
29.4899975759066
 20
170.344664424542
 42
0.0
  0
VERTEX
  8
0
 10
29.4878905838813
 20
170.317085604542
 42
0.0
  0
VERTEX
  8
0
 10
29.31368917442
 20
165.773503132398
 42
0.0
  0
VERTEX
  8
0
 10
29.3098839057836
 20
165.674182779848
 42
0.0
  0
VERTEX
  8
0
 10
29.3056068383776
 20
165.528605442853
 42
0.0
  0
VERTEX
  8
0
 10
29.2985716382829
 20
165.283267496217
 42
0.0
  0
VERTEX
  8
0
 10
29.2946415691229
 20
165.264834383284
 42
0.0
  0
VERTEX
  8
0
 10
29.2712417163403
 20
165.177818746909
 42
0.0
  0
VERTEX
  8
0
 10
29.164853852709
 20
163.940898341923
 42
0.0
  0
VERTEX
  8
0
 10
29.0652245296634
 20
161.894144156269
 42
0.0
  0
VERTEX
  8
0
 10
28.9708541513281
 20
159.060366950836
 42
0.0
  0
VERTEX
  8
0
 10
28.9530450808048
 20
158.289696712506
 42
0.0
  0
VERTEX
  8
0
 10
28.8948280307118
 20
155.917348625127
 42
0.0
  0
VERTEX
  8
0
 10
28.8833237011875
 20
155.472049202116
 42
0.0
  0
VERTEX
  8
0
 10
28.8528509786867
 20
153.731633864683
 42
0.0
  0
VERTEX
  8
0
 10
28.8053968960539
 20
151.165365725954
 42
0.0
  0
VERTEX
  8
0
 10
28.7829361045389
 20
149.593478964917
 42
0.0
  0
VERTEX
  8
0
 10
28.7798837773967
 20
149.423850966075
 42
0.0
  0
VERTEX
  8
0
 10
28.7740839685193
 20
148.975413796071
 42
0.0
  0
VERTEX
  8
0
 10
28.7486037975186
 20
147.170671408889
 42
0.0
  0
VERTEX
  8
0
 10
28.744891270434
 20
146.893376994299
 42
0.0
  0
VERTEX
  8
0
 10
28.7344302701031
 20
146.190594208539
 42
0.0
  0
VERTEX
  8
0
 10
28.6807208281643
 20
141.142272724843
 42
0.0
  0
VERTEX
  8
0
 10
28.6754933986038
 20
140.599944867325
 42
0.0
  0
VERTEX
  8
0
 10
28.6417108160706
 20
136.434892278018
 42
0.0
  0
VERTEX
  8
0
 10
28.6383301663267
 20
135.890802171849
 42
0.0
  0
VERTEX
  8
0
 10
28.6261021157941
 20
134.455211443358
 42
0.0
  0
VERTEX
  8
0
 10
28.6037145943494
 20
130.627929899261
 42
0.0
  0
VERTEX
  8
0
 10
28.6032879460721
 20
130.495027647771
 42
0.0
  0
VERTEX
  8
0
 10
28.5987310358087
 20
129.723344958728
 42
0.0
  0
VERTEX
  8
0
 10
28.5936842082174
 20
128.834436033026
 42
0.0
  0
VERTEX
  8
0
 10
28.5925651153305
 20
128.602876255191
 42
0.0
  0
VERTEX
  8
0
 10
28.5879285550358
 20
127.825435538719
 42
0.0
  0
VERTEX
  8
0
 10
28.562582761132
 20
121.163157115754
 42
0.0
  0
VERTEX
  8
0
 10
28.5616798043416
 20
120.781173512063
 42
0.0
  0
VERTEX
  8
0
 10
28.5598109931008
 20
119.82069089586
 42
0.0
  0
VERTEX
  8
0
 10
28.5451939589251
 20
113.400225922228
 42
0.0
  0
VERTEX
  8
0
 10
28.5423681402897
 20
105.764253509453
 42
0.0
  0
VERTEX
  8
0
 10
28.5427300074258
 20
105.387036744592
 42
0.0
  0
VERTEX
  8
0
 10
28.5503105283755
 20
99.4575274009786
 42
0.0
  0
VERTEX
  8
0
 10
28.5505417986411
 20
97.9563186555624
 42
0.0
  0
VERTEX
  8
0
 10
28.5508417629136
 20
97.8565045391388
 42
0.0
  0
VERTEX
  8
0
 10
28.5637700705236
 20
93.1900080620611
 42
0.0
  0
VERTEX
  8
0
 10
28.5720674948102
 20
90.0614424169
 42
0.0
  0
VERTEX
  8
0
 10
28.5898619617225
 20
85.6260393173165
 42
0.0
  0
VERTEX
  8
0
 10
28.6040347463567
 20
82.1664889687735
 42
0.0
  0
VERTEX
  8
0
 10
28.6477751214131
 20
74.3596195550847
 42
0.0
  0
VERTEX
  8
0
 10
28.7014824411195
 20
66.7232908990884
 42
0.0
  0
VERTEX
  8
0
 10
28.7461370340616
 20
61.5501908436825
 42
0.0
  0
VERTEX
  8
0
 10
28.7661039638658
 20
59.3429916777515
 42
0.0
  0
VERTEX
  8
0
 10
28.8115931379262
 20
55.0531781179982
 42
0.0
  0
VERTEX
  8
0
 10
28.8396693295952
 20
52.2990296153678
 42
0.0
  0
VERTEX
  8
0
 10
28.8535668341714
 20
51.1653197341237
 42
0.0
  0
VERTEX
  8
0
 10
28.8654109994078
 20
50.2711575274196
 42
0.0
  0
VERTEX
  8
0
 10
28.9090472126499
 20
46.7351432549997
 42
0.0
  0
VERTEX
  8
0
 10
28.9224131245613
 20
45.6699228240471
 42
0.0
  0
VERTEX
  8
0
 10
28.9817086798483
 20
41.5844009832582
 42
0.0
  0
SEQEND
  0
POLYLINE
  8
0
 66
     1
 10
0.0
 20
0.0
 30
0.0
 70
     1
  0
VERTEX
  8
0
 10
18.268284900033
 20
14.3554795778074
 42
0.0
  0
VERTEX
  8
0
 10
18.412319139369
 20
14.526225193258
 42
0.0
  0
VERTEX
  8
0
 10
18.5380594351347
 20
14.7140396273605
 42
0.0
  0
VERTEX
  8
0
 10
18.6412053674105
 20
14.9133251992741
 42
0.0
  0
VERTEX
  8
0
 10
18.7197329035581
 20
15.122345193455
 42
0.0
  0
VERTEX
  8
0
 10
18.7639209224012
 20
15.2909559864564
 42
0.0
  0
VERTEX
  8
0
 10
18.766727796134
 20
15.3024679109197
 42
0.0
  0
VERTEX
  8
0
 10
18.7764280212806
 20
15.3398420188099
 42
0.0
  0
VERTEX
  8
0
 10
18.8090445552108
 20
15.5621145167871
 42
0.0
  0
VERTEX
  8
0
 10
18.8135472676404
 20
15.7875075743278
 42
0.0
  0
VERTEX
  8
0
 10
18.7944736318376
 20
16.0108110633705
 42
0.0
  0
VERTEX
  8
0
 10
18.7507083470795
 20
16.2311014719783
 42
0.0
  0
VERTEX
  8
0
 10
18.6839258029261
 20
16.444360102591
 42
0.0
  0
VERTEX
  8
0
 10
18.5911509692416
 20
16.6498415502918
 42
0.0
  0
VERTEX
  8
0
 10
18.4779236973625
 20
16.8431957747168
 42
0.0
  0
VERTEX
  8
0
 10
18.3732019704605
 20
16.9821318218077
 42
0.0
  0
VERTEX
  8
0
 10
18.342087755495
 20
17.0226060959354
 42
0.0
  0
VERTEX
  8
0
 10
18.1874434210502
 20
17.1859448659698
 42
0.0
  0
VERTEX
  8
0
 10
18.0157826247511
 20
17.3309676795795
 42
0.0
  0
VERTEX
  8
0
 10
17.8297710667845
 20
17.4546068367019
 42
0.0
  0
VERTEX
  8
0
 10
17.6304909675775
 20
17.5578244022763
 42
0.0
  0
VERTEX
  8
0
 10
17.4207255684797
 20
17.6393269685599
 42
0.0
  0
VERTEX
  8
0
 10
17.2021850757005
 20
17.6950931016392
 42
0.0
  0
VERTEX
  8
0
 10
16.9816989137112
 20
17.7256277734273
 42
0.0
  0
VERTEX
  8
0
 10
16.7554154245298
 20
17.7312072335772
 42
0.0
  0
VERTEX
  8
0
 10
16.6875484873142
 20
17.7256205087609
 42
0.0
  0
VERTEX
  8
0
 10
16.6748506050561
 20
17.7256359320841
 42
0.0
  0
VERTEX
  8
0
 10
16.5311802144906
 20
17.7131414485494
 42
0.0
  0
VERTEX
  8
0
 10
16.3119500134551
 20
17.6702858719333
 42
0.0
  0
VERTEX
  8
0
 10
16.0985436197653
 20
17.601569228715
 42
0.0
  0
VERTEX
  8
0
 10
15.8930952523606
 20
17.5087558420278
 42
0.0
  0
VERTEX
  8
0
 10
15.7293214127658
 20
17.4118399110347
 42
0.0
  0
VERTEX
  8
0
 10
15.6995739883572
 20
17.3935779309358
 42
0.0
  0
VERTEX
  8
0
 10
15.5202783499196
 20
17.2597146411358
 42
0.0
  0
VERTEX
  8
0
 10
15.3570112131838
 20
17.1050648339845
 42
0.0
  0
VERTEX
  8
0
 10
15.3172476441484
 20
17.0582611664769
 42
0.0
  0
VERTEX
  8
0
 10
15.2119360427768
 20
16.9334260505399
 42
0.0
  0
VERTEX
  8
0
 10
15.0882776091531
 20
16.7473979524253
 42
0.0
  0
VERTEX
  8
0
 10
14.9898891898232
 20
16.5594572653966
 42
0.0
  0
VERTEX
  8
0
 10
14.9851316768774
 20
16.5481123805117
 42
0.0
  0
VERTEX
  8
0
 10
14.9055632096587
 20
16.3381992183368
 42
0.0
  0
VERTEX
  8
0
 10
14.8478078843638
 20
16.11979268484
 42
0.0
  0
VERTEX
  8
0
 10
14.8171447259999
 20
15.8973889639338
 42
0.0
  0
VERTEX
  8
0
 10
14.8108364010812
 20
15.674061228387
 42
0.0
  0
VERTEX
  8
0
 10
14.8299293133853
 20
15.4507742794924
 42
0.0
  0
VERTEX
  8
0
 10
14.8726536670724
 20
15.2295907028907
 42
0.0
  0
VERTEX
  8
0
 10
14.9422634782846
 20
15.0151433781298
 42
0.0
  0
VERTEX
  8
0
 10
15.0341451439752
 20
14.8107028615001
 42
0.0
  0
VERTEX
  8
0
 10
15.1473724158542
 20
14.6173486370751
 42
0.0
  0
VERTEX
  8
0
 10
15.2832083577218
 20
14.4379383158565
 42
0.0
  0
VERTEX
  8
0
 10
15.338251773874
 20
14.3780012946327
 42
0.0
  0
VERTEX
  8
0
 10
15.4378196118705
 20
14.2746380988246
 42
0.0
  0
VERTEX
  8
0
 10
15.6086037803237
 20
14.1306369397847
 42
0.0
  0
VERTEX
  8
0
 10
15.7964182144262
 20
14.004896644019
 42
0.0
  0
VERTEX
  8
0
 10
15.9956983136332
 20
13.9016790784445
 42
0.0
  0
VERTEX
  8
0
 10
16.2055949356601
 20
13.8221298877272
 42
0.0
  0
VERTEX
  8
0
 10
16.4222178695223
 20
13.7664922412237
 42
0.0
  0
VERTEX
  8
0
 10
16.6455312985705
 20
13.7347688752874
 42
0.0
  0
VERTEX
  8
0
 10
16.868839757616
 20
13.7284440102207
 42
0.0
  0
VERTEX
  8
0
 10
17.0931896504362
 20
13.7484824473161
 42
0.0
  0
VERTEX
  8
0
 10
17.3124005749704
 20
13.7913214837842
 42
0.0
  0
VERTEX
  8
0
 10
17.3544191325539
 20
13.8037464668637
 42
0.0
  0
VERTEX
  8
0
 10
17.5277768843745
 20
13.8598876275721
 42
0.0
  0
VERTEX
  8
0
 10
17.7322008608562
 20
13.9517885697641
 42
0.0
  0
VERTEX
  8
0
 10
17.9255743617825
 20
14.0650323817911
 42
0.0
  0
VERTEX
  8
0
 10
18.1050177632972
 20
14.2008297706561
 42
0.0
  0
SEQEND
  0
POLYLINE
  8
0
 66
     1
 10
0.0
 20
0.0
 30
0.0
 70
     1
  0
VERTEX
  8
0
 10
15.8933186955681
 20
20.2362808302874
 42
0.0
  0
VERTEX
  8
0
 10
16.1912855376268
 20
20.0815903585124
 42
0.0
  0
VERTEX
  8
0
 10
16.506577054664
 20
19.9617461069008
 42
0.0
  0
VERTEX
  8
0
 10
16.8324592284885
 20
19.878199215459
 42
0.0
  0
VERTEX
  8
0
 10
17.1659432251695
 20
19.8302593724209
 42
0.0
  0
VERTEX
  8
0
 10
17.502429245455
 20
19.8211420409259
 42
0.0
  0
VERTEX
  8
0
 10
17.8377800743952
 20
19.8492719502738
 42
0.0
  0
VERTEX
  8
0
 10
18.1673583359623
 20
19.9159580721287
 42
0.0
  0
VERTEX
  8
0
 10
18.488807678488
 20
20.0174716403496
 42
0.0
  0
VERTEX
  8
0
 10
18.7964928443556
 20
20.1562065833808
 42
0.0
  0
VERTEX
  8
0
 10
19.0860803333494
 20
20.3266037733842
 42
0.0
  0
VERTEX
  8
0
 10
19.3547263382625
 20
20.5298711810093
 42
0.0
  0
VERTEX
  8
0
 10
19.5347254781399
 20
20.6988778366556
 42
0.0
  0
VERTEX
  8
0
 10
19.600014917796
 20
20.7603211918423
 42
0.0
  0
VERTEX
  8
0
 10
19.8161630512563
 20
21.0184136352625
 42
0.0
  0
VERTEX
  8
0
 10
20.0027247130589
 20
21.2983103974257
 42
0.0
  0
VERTEX
  8
0
 10
20.158439575757
 20
21.5971896839796
 42
0.0
  0
VERTEX
  8
0
 10
20.2772594364456
 20
21.9115687565216
 42
0.0
  0
VERTEX
  8
0
 10
20.3627431633056
 20
22.2373389839184
 42
0.0
  0
VERTEX
  8
0
 10
20.4087461709255
 20
22.5709349270271
 42
0.0
  0
VERTEX
  8
0
 10
20.4178469622724
 20
22.9074402238139
 42
0.0
  0
VERTEX
  8
0
 10
20.3897197892778
 20
23.2428268694035
 42
0.0
  0
VERTEX
  8
0
 10
20.3240884022887
 20
23.5732432058139
 42
0.0
  0
VERTEX
  8
0
 10
20.2225748340678
 20
23.8946925483395
 42
0.0
  0
VERTEX
  8
0
 10
20.1990866884629
 20
23.9453919101493
 42
0.0
  0
VERTEX
  8
0
 10
20.0847330590305
 20
24.2013367831361
 42
0.0
  0
VERTEX
  8
0
 10
19.9134619775345
 20
24.4919817433489
 42
0.0
  0
VERTEX
  8
0
 10
19.7101945699094
 20
24.760627748262
 42
0.0
  0
VERTEX
  8
0
 10
19.479577519498
 20
25.0039656885825
 42
0.0
  0
VERTEX
  8
0
 10
19.2226599664312
 20
25.2229961822524
 42
0.0
  0
VERTEX
  8
0
 10
18.942796284564
 20
25.4095192910524
 42
0.0
  0
VERTEX
  8
0
 10
18.8279178536103
 20
25.4671467332813
 42
0.0
  0
VERTEX
  8
0
 10
18.6418185957201
 20
25.563467094264
 42
0.0
  0
VERTEX
  8
0
 10
18.328463914101
 20
25.6831993994478
 42
0.0
  0
VERTEX
  8
0
 10
18.0016858359293
 20
25.7677514053112
 42
0.0
  0
VERTEX
  8
0
 10
17.6690784670942
 20
25.8146695937796
 42
0.0
  0
VERTEX
  8
0
 10
17.3326448036061
 20
25.82376491242
 42
0.0
  0
VERTEX
  8
0
 10
16.9972223413672
 20
25.7956404757787
 42
0.0
  0
VERTEX
  8
0
 10
16.6667701883075
 20
25.7300118251428
 42
0.0
  0
VERTEX
  8
0
 10
16.3462470940718
 20
25.6274187728483
 42
0.0
  0
VERTEX
  8
0
 10
16.0386766109853
 20
25.4906564818847
 42
0.0
  0
VERTEX
  8
0
 10
15.7489578990624
 20
25.318305916315
 42
0.0
  0
VERTEX
  8
0
 10
15.6401987618167
 20
25.2377035598574
 42
0.0
  0
VERTEX
  8
0
 10
15.4794380026567
 20
25.116095979909
 42
0.0
  0
VERTEX
  8
0
 10
15.2350067744678
 20
24.8846077743582
 42
0.0
  0
VERTEX
  8
0
 10
15.0179820131615
 20
24.6275369855077
 42
0.0
  0
VERTEX
  8
0
 10
14.830527183365
 20
24.3486811544156
 42
0.0
  0
VERTEX
  8
0
 10
14.6765986566548
 20
24.0477200057196
 42
0.0
  0
VERTEX
  8
0
 10
14.5568663514709
 20
23.7343653241006
 42
0.0
  0
VERTEX
  8
0
 10
14.4723143456075
 20
23.4075872459289
 42
0.0
  0
VERTEX
  8
0
 10
14.426289325133
 20
23.0739389460228
 42
0.0
  0
VERTEX
  8
0
 10
14.4152406309263
 20
22.7376365054637
 42
0.0
  0
VERTEX
  8
0
 10
14.443367803921
 20
22.4022498598742
 42
0.0
  0
VERTEX
  8
0
 10
14.5109663702711
 20
22.071647207384
 42
0.0
  0
VERTEX
  8
0
 10
14.5881863248169
 20
21.829256953879
 42
0.0
  0
VERTEX
  8
0
 10
14.6135208695631
 20
21.7510910328524
 42
0.0
  0
VERTEX
  8
0
 10
14.7493569122366
 20
21.4446000338394
 42
0.0
  0
VERTEX
  8
0
 10
14.9206858232366
 20
21.1540046940707
 42
0.0
  0
VERTEX
  8
0
 10
15.1239697710098
 20
20.8853394126563
 42
0.0
  0
VERTEX
  8
0
 10
15.3544170454895
 20
20.6400150164734
 42
0.0
  0
VERTEX
  8
0
 10
15.6134026569036
 20
20.422825951942
 42
0.0
  0
VERTEX
  8
0
 10
15.8829816614582
 20
20.2419700642298
 42
0.0
  0
SEQEND
  0
POLYLINE
  8
0
 66
     1
 10
0.0
 20
0.0
 30
0.0
 70
     1
  0
VERTEX
  8
0
 10
23.1305942925515
 20
44.192061379636
 42
0.0
  0
VERTEX
  8
0
 10
23.0630397121187
 20
44.4065318155067
 42
0.0
  0
VERTEX
  8
0
 10
22.9722651380913
 20
44.6117883941251
 42
0.0
  0
VERTEX
  8
0
 10
22.8569771627263
 20
44.8050478741415
 42
0.0
  0
VERTEX
  8
0
 10
22.7221913372164
 20
44.9835854021227
 42
0.0
  0
VERTEX
  8
0
 10
22.714086664679
 20
44.9930308877672
 42
0.0
  0
VERTEX
  8
0
 10
22.5673293665223
 20
45.1469047736275
 42
0.0
  0
VERTEX
  8
0
 10
22.3957540073166
 20
45.29186702138
 42
0.0
  0
VERTEX
  8
0
 10
22.2097535167915
 20
45.4154152687023
 42
0.0
  0
VERTEX
  8
0
 10
22.0103190835456
 20
45.5187346894899
 42
0.0
  0
VERTEX
  8
0
 10
21.7996009268235
 20
45.5993193385717
 42
0.0
  0
VERTEX
  8
0
 10
21.7805609350347
 20
45.6047368007713
 42
0.0
  0
VERTEX
  8
0
 10
21.5822004839752
 20
45.6560971570344
 42
0.0
  0
VERTEX
  8
0
 10
21.3617006402195
 20
45.6864527455758
 42
0.0
  0
VERTEX
  8
0
 10
21.1365021078183
 20
45.6930300873144
 42
0.0
  0
VERTEX
  8
0
 10
20.9111515970561
 20
45.6740407903499
 42
0.0
  0
VERTEX
  8
0
 10
20.6909382944535
 20
45.6303416661839
 42
0.0
  0
VERTEX
  8
0
 10
20.4784240925308
 20
45.562457503074
 42
0.0
  0
VERTEX
  8
0
 10
20.2731960977287
 20
45.4696993315658
 42
0.0
  0
VERTEX
  8
0
 10
20.0797426324155
 20
45.3565877186947
 42
0.0
  0
VERTEX
  8
0
 10
20.0101781653493
 20
45.3042612427022
 42
0.0
  0
VERTEX
  8
0
 10
19.9002139158358
 20
45.2206167192896
 42
0.0
  0
VERTEX
  8
0
 10
19.7378857329295
 20
45.0669399224907
 42
0.0
  0
VERTEX
  8
0
 10
19.5919596601114
 20
44.8945375558832
 42
0.0
  0
VERTEX
  8
0
 10
19.4673916403741
 20
44.7093354889435
 42
0.0
  0
VERTEX
  8
0
 10
19.3650919920014
 20
44.5091026321122
 42
0.0
  0
VERTEX
  8
0
 10
19.2845073429196
 20
44.2983844753901
 42
0.0
  0
VERTEX
  8
0
 10
19.2278663421209
 20
44.0827748650094
 42
0.0
  0
VERTEX
  8
0
 10
19.1981735797845
 20
43.8591621972269
 42
0.0
  0
VERTEX
  8
0
 10
19.1907692306441
 20
43.6349274898914
 42
0.0
  0
VERTEX
  8
0
 10
19.2089588837396
 20
43.4108989706885
 42
0.0
  0
VERTEX
  8
0
 10
19.2526580079056
 20
43.1906856680859
 42
0.0
  0
VERTEX
  8
0
 10
19.3223615872995
 20
42.9760510510185
 42
0.0
  0
VERTEX
  8
0
 10
19.336538709246
 20
42.944706343055
 42
0.0
  0
VERTEX
  8
0
 10
19.4140999863927
 20
42.7716214798019
 42
0.0
  0
VERTEX
  8
0
 10
19.5033031535091
 20
42.6212440247216
 42
0.0
  0
VERTEX
  8
0
 10
19.5283681893427
 20
42.5791604233708
 42
0.0
  0
VERTEX
  8
0
 10
19.6623829548
 20
42.3999612894682
 42
0.0
  0
VERTEX
  8
0
 10
19.6749534673071
 20
42.3853111484685
 42
0.0
  0
VERTEX
  8
0
 10
19.8178791678827
 20
42.2355126914172
 42
0.0
  0
VERTEX
  8
0
 10
19.9886275196867
 20
42.0915142687306
 42
0.0
  0
VERTEX
  8
0
 10
20.1754550176135
 20
41.9670021963425
 42
0.0
  0
VERTEX
  8
0
 10
20.3757164582612
 20
41.8627189504891
 42
0.0
  0
VERTEX
  8
0
 10
20.5847806001798
 20
41.7840619515388
 42
0.0
  0
VERTEX
  8
0
 10
20.802181043028
 20
41.7272841330761
 42
0.0
  0
VERTEX
  8
0
 10
21.0254641281334
 20
41.6956351367918
 42
0.0
  0
VERTEX
  8
0
 10
21.2487064265867
 20
41.6893873777304
 42
0.0
  0
VERTEX
  8
0
 10
21.4722661048814
 20
41.7085134923589
 42
0.0
  0
VERTEX
  8
0
 10
21.692479407484
 20
41.7522126165248
 42
0.0
  0
VERTEX
  8
0
 10
21.90774826694
 20
41.8207869693726
 42
0.0
  0
VERTEX
  8
0
 10
22.1122052016894
 20
41.9128835349593
 42
0.0
  0
VERTEX
  8
0
 10
22.3056586670026
 20
42.0259951478305
 42
0.0
  0
VERTEX
  8
0
 10
22.4849946185692
 20
42.1618007457552
 42
0.0
  0
VERTEX
  8
0
 10
22.6071468084248
 20
42.2776577711852
 42
0.0
  0
VERTEX
  8
0
 10
22.6482866265413
 20
42.3163045499559
 42
0.0
  0
VERTEX
  8
0
 10
22.7922850492279
 20
42.4870529017598
 42
0.0
  0
VERTEX
  8
0
 10
22.917953711695
 20
42.6748728085688
 42
0.0
  0
VERTEX
  8
0
 10
23.0212731324825
 20
42.8743072418147
 42
0.0
  0
VERTEX
  8
0
 10
23.1008939564986
 20
43.084198391135
 42
0.0
  0
VERTEX
  8
0
 10
23.156349783402
 20
43.3007991901143
 42
0.0
  0
VERTEX
  8
0
 10
23.1879987796863
 20
43.5240822752197
 42
0.0
  0
VERTEX
  8
0
 10
23.1936122963592
 20
43.7484538002191
 42
0.0
  0
VERTEX
  8
0
 10
23.1744588181979
 20
43.9716553120203
 42
0.0
  0
VERTEX
  8
0
 10
23.1643449222246
 20
44.0302492573068
 42
0.0
  0
SEQEND
  0
POLYLINE
  8
0
 66
     1
 10
0.0
 20
0.0
 30
0.0
 70
     1
  0
VERTEX
  8
0
 10
8.9151092712635
 20
35.7460140608115
 42
0.0
  0
VERTEX
  8
0
 10
8.8820355939043
 20
35.8247352174972
 42
0.0
  0
VERTEX
  8
0
 10
8.8303178378041
 20
35.952722896261
 42
0.0
  0
VERTEX
  8
0
 10
8.7241824362543
 20
36.1504888437318
 42
0.0
  0
VERTEX
  8
0
 10
8.5965674692338
 20
36.3351793067822
 42
0.0
  0
VERTEX
  8
0
 10
8.4482706984567
 20
36.5037972424217
 42
0.0
  0
VERTEX
  8
0
 10
8.2819677932963
 20
36.6552916283646
 42
0.0
  0
VERTEX
  8
0
 10
8.10048985542
 20
36.7864019995354
 42
0.0
  0
VERTEX
  8
0
 10
7.9036329303449
 20
36.8972880406511
 42
0.0
  0
VERTEX
  8
0
 10
7.6983526291485
 20
36.9842120629103
 42
0.0
  0
VERTEX
  8
0
 10
7.4824216265809
 20
37.0496138508918
 42
0.0
  0
VERTEX
  8
0
 10
7.2617353261476
 20
37.0888460076522
 42
0.0
  0
VERTEX
  8
0
 10
7.213909519936
 20
37.0916532434909
 42
0.0
  0
VERTEX
  8
0
 10
7.0369653029561
 20
37.1031541509157
 42
0.0
  0
VERTEX
  8
0
 10
6.813296273989
 20
37.0929707650984
 42
0.0
  0
VERTEX
  8
0
 10
6.5917013716273
 20
37.0571227199732
 42
0.0
  0
VERTEX
  8
0
 10
6.3750316359108
 20
36.9963829060183
 42
0.0
  0
VERTEX
  8
0
 10
6.1673525264622
 20
36.9125662430378
 42
0.0
  0
VERTEX
  8
0
 10
5.9704741522504
 20
36.8055524535157
 42
0.0
  0
VERTEX
  8
0
 10
5.8096113972794
 20
36.6946342871084
 42
0.0
  0
VERTEX
  8
0
 10
5.7858360459973
 20
36.6779154736405
 42
0.0
  0
VERTEX
  8
0
 10
5.6171548081473
 20
36.5294974491206
 42
0.0
  0
VERTEX
  8
0
 10
5.4657623994459
 20
36.3631147016017
 42
0.0
  0
VERTEX
  8
0
 10
5.3335560040534
 20
36.1807297919368
 42
0.0
  0
VERTEX
  8
0
 10
5.2238430931647
 20
35.9848459992424
 42
0.0
  0
VERTEX
  8
0
 10
5.1358744272543
 20
35.7805101245821
 42
0.0
  0
VERTEX
  8
0
 10
5.0714401769187
 20
35.5635685348863
 42
0.0
  0
VERTEX
  8
0
 10
5.0330009710371
 20
35.3438303735692
 42
0.0
  0
VERTEX
  8
0
 10
5.0239640350075
 20
35.2125766456062
 42
0.0
  0
VERTEX
  8
0
 10
5.0179787430265
 20
35.1200875996823
 42
0.0
  0
VERTEX
  8
0
 10
5.0291847596404
 20
34.8954217873818
 42
0.0
  0
VERTEX
  8
0
 10
5.0639725971932
 20
34.6729171768781
 42
0.0
  0
VERTEX
  8
0
 10
5.1236070796114
 20
34.4573406070016
 42
0.0
  0
VERTEX
  8
0
 10
5.2083499908819
 20
34.2485820134794
 42
0.0
  0
VERTEX
  8
0
 10
5.3155263235027
 20
34.0517092340025
 42
0.0
  0
VERTEX
  8
0
 10
5.4421488816411
 20
33.868175361031
 42
0.0
  0
VERTEX
  8
0
 10
5.5914380613003
 20
33.6984008353125
 42
0.0
  0
VERTEX
  8
0
 10
5.7577409664607
 20
33.5469064493696
 42
0.0
  0
VERTEX
  8
0
 10
5.9392381808383
 20
33.4158126183469
 42
0.0
  0
VERTEX
  8
0
 10
6.0206895681635
 20
33.3695652635312
 42
0.0
  0
VERTEX
  8
0
 10
6.13508342053
 20
33.3060666271621
 42
0.0
  0
VERTEX
  8
0
 10
6.3413946836112
 20
33.2180190951201
 42
0.0
  0
VERTEX
  8
0
 10
6.5564794022756
 20
33.1535645920563
 42
0.0
  0
VERTEX
  8
0
 10
6.777165702709
 20
33.1143324352959
 42
0.0
  0
VERTEX
  8
0
 10
7.0008755183281
 20
33.0991145838904
 42
0.0
  0
VERTEX
  8
0
 10
7.2243791458148
 20
33.1094907347209
 42
0.0
  0
VERTEX
  8
0
 10
7.4470535322502
 20
33.146265028136
 42
0.0
  0
VERTEX
  8
0
 10
7.6628091853735
 20
33.2058858287878
 42
0.0
  0
VERTEX
  8
0
 10
7.8715292258931
 20
33.2905956597623
 42
0.0
  0
VERTEX
  8
0
 10
8.069253884008
 20
33.3966621643666
 42
0.0
  0
VERTEX
  8
0
 10
8.2530457063579
 20
33.5252464291595
 42
0.0
  0
VERTEX
  8
0
 10
8.4110458803245
 20
33.6628261602363
 42
0.0
  0
VERTEX
  8
0
 10
8.4225539516097
 20
33.6727006286136
 42
0.0
  0
VERTEX
  8
0
 10
8.5731193529094
 20
33.8400472011983
 42
0.0
  0
VERTEX
  8
0
 10
8.7051118246326
 20
34.0205751178036
 42
0.0
  0
VERTEX
  8
0
 10
8.8149901370017
 20
34.2162661454848
 42
0.0
  0
VERTEX
  8
0
 10
8.9030073251009
 20
34.4226517782179
 42
0.0
  0
VERTEX
  8
0
 10
8.9664006443655
 20
34.6387001999197
 42
0.0
  0
VERTEX
  8
0
 10
9.0067077887199
 20
34.858367704165
 42
0.0
  0
VERTEX
  8
0
 10
9.0209030093288
 20
35.0830743031177
 42
0.0
  0
VERTEX
  8
0
 10
9.010689401597
 20
35.3065835253393
 42
0.0
  0
VERTEX
  8
0
 10
8.9746952314928
 20
35.5283877328622
 42
0.0
  0
SEQEND
  0
POLYLINE
  8
0
 66
     1
 10
0.0
 20
0.0
 30
0.0
 70
     1
  0
VERTEX
  8
0
 10
29.7323568501256
 20
190.275742164683
 42
0.0
  0
VERTEX
  8
0
 10
29.6163994298436
 20
190.431946314671
 42
0.0
  0
VERTEX
  8
0
 10
29.596880834878
 20
190.457034350197
 42
0.0
  0
VERTEX
  8
0
 10
29.4445296904891
 20
190.61313688505
 42
0.0
  0
VERTEX
  8
0
 10
29.443537281607
 20
190.614293475129
 42
0.0
  0
VERTEX
  8
0
 10
29.2141972393883
 20
190.84959018572
 42
0.0
  0
VERTEX
  8
0
 10
29.1856983388357
 20
190.872662379099
 42
0.0
  0
VERTEX
  8
0
 10
29.0380788307489
 20
190.98931553345
 42
0.0
  0
VERTEX
  8
0
 10
28.8213478328177
 20
191.083148681941
 42
0.0
  0
VERTEX
  8
0
 10
28.6290288067837
 20
191.119276941315
 42
0.0
  0
VERTEX
  8
0
 10
28.5719124922682
 20
191.128504035991
 42
0.0
  0
VERTEX
  8
0
 10
28.295502252713
 20
191.127285543048
 42
0.0
  0
VERTEX
  8
0
 10
27.9973266506416
 20
191.074591987187
 42
0.0
  0
VERTEX
  8
0
 10
27.9871897549757
 20
191.071583736157
 42
0.0
  0
VERTEX
  8
0
 10
27.9090705960115
 20
191.046389721655
 42
0.0
  0
VERTEX
  8
0
 10
27.6867776649164
 20
190.975469943982
 42
0.0
  0
VERTEX
  8
0
 10
27.3717611016439
 20
190.832017346181
 42
0.0
  0
VERTEX
  8
0
 10
27.3707972765782
 20
190.831190338779
 42
0.0
  0
VERTEX
  8
0
 10
27.0566844128774
 20
190.645338497363
 42
0.0
  0
VERTEX
  8
0
 10
26.752343659637
 20
190.422354116454
 42
0.0
  0
VERTEX
  8
0
 10
26.4660639124226
 20
190.169349459709
 42
0.0
  0
VERTEX
  8
0
 10
25.8286278427161
 20
189.54977208097
 42
0.0
  0
VERTEX
  8
0
 10
25.7980627367904
 20
189.519864217125
 42
0.0
  0
VERTEX
  8
0
 10
25.7934923238238
 20
189.51426915061
 42
0.0
  0
VERTEX
  8
0
 10
25.7871596622062
 20
189.506827304277
 42
0.0
  0
VERTEX
  8
0
 10
25.5307269503528
 20
189.23425002849
 42
0.0
  0
VERTEX
  8
0
 10
25.2989092549726
 20
188.937276127198
 42
0.0
  0
VERTEX
  8
0
 10
25.1042350816369
 20
188.628998460598
 42
0.0
  0
VERTEX
  8
0
 10
24.9920059460145
 20
188.397821586527
 42
0.0
  0
VERTEX
  8
0
 10
24.9525135239896
 20
188.31707900357
 42
0.0
  0
VERTEX
  8
0
 10
24.8638784121418
 20
188.064645691553
 42
0.0
  0
VERTEX
  8
0
 10
24.8438515955947
 20
188.007633950034
 42
0.0
  0
VERTEX
  8
0
 10
24.7840833130615
 20
187.713366969313
 42
0.0
  0
VERTEX
  8
0
 10
24.7730146910935
 20
187.436454423899
 42
0.0
  0
VERTEX
  8
0
 10
24.8121841889451
 20
187.185244817558
 42
0.0
  0
VERTEX
  8
0
 10
24.8319077517596
 20
187.13690454377
 42
0.0
  0
VERTEX
  8
0
 10
24.9002935177391
 20
186.966321964837
 42
0.0
  0
VERTEX
  8
0
 10
24.9329359972856
 20
186.92203829831
 42
0.0
  0
VERTEX
  8
0
 10
25.0336205340257
 20
186.785193960519
 42
0.0
  0
VERTEX
  8
0
 10
25.4161113645021
 20
186.392472723516
 42
0.0
  0
VERTEX
  8
0
 10
25.47517607397
 20
186.345089656081
 42
0.0
  0
VERTEX
  8
0
 10
25.5932209617401
 20
186.253932549681
 42
0.0
  0
VERTEX
  8
0
 10
25.7588350632457
 20
186.181837400173
 42
0.0
  0
VERTEX
  8
0
 10
25.8087953695925
 20
186.159106992308
 42
0.0
  0
VERTEX
  8
0
 10
26.0594158840372
 20
186.11276044966
 42
0.0
  0
VERTEX
  8
0
 10
26.3363484712827
 20
186.11610057803
 42
0.0
  0
VERTEX
  8
0
 10
26.6333401197424
 20
186.167443558516
 42
0.0
  0
VERTEX
  8
0
 10
26.8755760392086
 20
186.244765368275
 42
0.0
  0
VERTEX
  8
0
 10
26.9326229832555
 20
186.262923108302
 42
0.0
  0
VERTEX
  8
0
 10
26.9447434764021
 20
186.265959943149
 42
0.0
  0
VERTEX
  8
0
 10
27.2597040923255
 20
186.411037971937
 42
0.0
  0
VERTEX
  8
0
 10
27.5750294934543
 20
186.596256791248
 42
0.0
  0
VERTEX
  8
0
 10
27.8791774816815
 20
186.819075770676
 42
0.0
  0
VERTEX
  8
0
 10
28.0134501646837
 20
186.937969630953
 42
0.0
  0
VERTEX
  8
0
 10
28.1662282889486
 20
187.072742033343
 42
0.0
  0
VERTEX
  8
0
 10
28.8387998775473
 20
187.727822342442
 42
0.0
  0
VERTEX
  8
0
 10
28.9740241827795
 20
187.870960849863
 42
0.0
  0
VERTEX
  8
0
 10
28.9731971753778
 20
187.871924674928
 42
0.0
  0
VERTEX
  8
0
 10
29.1006014259526
 20
188.00701445716
 42
0.0
  0
VERTEX
  8
0
 10
29.331592113931
 20
188.304952183518
 42
0.0
  0
VERTEX
  8
0
 10
29.4204238373381
 20
188.444429893266
 42
0.0
  0
VERTEX
  8
0
 10
29.4507316889165
 20
188.492190134437
 42
0.0
  0
VERTEX
  8
0
 10
29.4518596951791
 20
188.4951661408
 42
0.0
  0
VERTEX
  8
0
 10
29.5261008857863
 20
188.613422615131
 42
0.0
  0
VERTEX
  8
0
 10
29.6220952360741
 20
188.806571792123
 42
0.0
  0
VERTEX
  8
0
 10
29.6801642074079
 20
188.925343292443
 42
0.0
  0
VERTEX
  8
0
 10
29.7874767807108
 20
189.233630535616
 42
0.0
  0
VERTEX
  8
0
 10
29.8484016533228
 20
189.52888992522
 42
0.0
  0
VERTEX
  8
0
 10
29.8576520792905
 20
189.805581121804
 42
0.0
  0
VERTEX
  8
0
 10
29.8191441873603
 20
190.056019668093
 42
0.0
  0
SEQEND
  0
POLYLINE
  8
0
 66
     1
 10
0.0
 20
0.0
 30
0.0
 70
     1
  0
VERTEX
  8
0
 10
15.3403685255152
 20
190.326566272634
 42
0.0
  0
VERTEX
  8
0
 10
15.1470373803665
 20
190.5074150575
 42
0.0
  0
VERTEX
  8
0
 10
15.0613418122777
 20
190.588175056026
 42
0.0
  0
VERTEX
  8
0
 10
14.7634040859199
 20
190.819165744004
 42
0.0
  0
VERTEX
  8
0
 10
14.6709976478886
 20
190.878102509392
 42
0.0
  0
VERTEX
  8
0
 10
14.4544100863333
 20
191.013894644406
 42
0.0
  0
VERTEX
  8
0
 10
14.1430129769949
 20
191.167737837481
 42
0.0
  0
VERTEX
  8
0
 10
13.8343949308614
 20
191.27543594081
 42
0.0
  0
VERTEX
  8
0
 10
13.5392735792051
 20
191.335809881916
 42
0.0
  0
VERTEX
  8
0
 10
13.4435348915905
 20
191.339341515224
 42
0.0
  0
VERTEX
  8
0
 10
13.2610949895809
 20
191.344453429028
 42
0.0
  0
VERTEX
  8
0
 10
13.0101876023841
 20
191.306881998631
 42
0.0
  0
VERTEX
  8
0
 10
12.7926141047553
 20
191.219930480199
 42
0.0
  0
VERTEX
  8
0
 10
12.7810482039661
 20
191.210006391378
 42
0.0
  0
VERTEX
  8
0
 10
12.6109363892145
 20
191.084123661991
 42
0.0
  0
VERTEX
  8
0
 10
12.2174428718749
 20
190.703312989567
 42
0.0
  0
VERTEX
  8
0
 10
12.0789026980401
 20
190.526203392329
 42
0.0
  0
VERTEX
  8
0
 10
11.9850695495491
 20
190.309472394398
 42
0.0
  0
VERTEX
  8
0
 10
11.9586670298604
 20
190.169007859891
 42
0.0
  0
VERTEX
  8
0
 10
11.9386670595519
 20
190.06047731094
 42
0.0
  0
VERTEX
  8
0
 10
11.9409053249093
 20
189.7832686478
 42
0.0
  0
VERTEX
  8
0
 10
11.9734842038064
 20
189.596688310353
 42
0.0
  0
VERTEX
  8
0
 10
11.9907797339035
 20
189.502420634797
 42
0.0
  0
VERTEX
  8
0
 10
11.9932407142775
 20
189.485120409261
 42
0.0
  0
VERTEX
  8
0
 10
12.092886325456
 20
189.17435129499
 42
0.0
  0
VERTEX
  8
0
 10
12.2114605510192
 20
188.91329255442
 42
0.0
  0
VERTEX
  8
0
 10
12.2276224907299
 20
188.879634666298
 42
0.0
  0
VERTEX
  8
0
 10
12.2364495976723
 20
188.858425633717
 42
0.0
  0
VERTEX
  8
0
 10
12.4220253631932
 20
188.54541463303
 42
0.0
  0
VERTEX
  8
0
 10
12.6450097441015
 20
188.241073879789
 42
0.0
  0
VERTEX
  8
0
 10
12.8984832417552
 20
187.953857671042
 42
0.0
  0
VERTEX
  8
0
 10
13.0370799200252
 20
187.811054701813
 42
0.0
  0
VERTEX
  8
0
 10
13.5537289523349
 20
187.28109331743
 42
0.0
  0
VERTEX
  8
0
 10
13.8325914843755
 20
187.017335535077
 42
0.0
  0
VERTEX
  8
0
 10
14.1298949683447
 20
186.787474073645
 42
0.0
  0
VERTEX
  8
0
 10
14.4393578088396
 20
186.59180871171
 42
0.0
  0
VERTEX
  8
0
 10
14.5615741564306
 20
186.531675272581
 42
0.0
  0
VERTEX
  8
0
 10
14.6450166698556
 20
186.492156707307
 42
0.0
  0
VERTEX
  8
0
 10
14.7511118643879
 20
186.440279919076
 42
0.0
  0
VERTEX
  8
0
 10
14.8351004281852
 20
186.410266447647
 42
0.0
  0
VERTEX
  8
0
 10
15.0603641529101
 20
186.331452589201
 42
0.0
  0
VERTEX
  8
0
 10
15.2950611604437
 20
186.284161043035
 42
0.0
  0
VERTEX
  8
0
 10
15.3551820651384
 20
186.271822344615
 42
0.0
  0
VERTEX
  8
0
 10
15.6277692490976
 20
186.260723918547
 42
0.0
  0
VERTEX
  8
0
 10
15.6317090805262
 20
186.260422919687
 42
0.0
  0
VERTEX
  8
0
 10
15.882753285387
 20
186.299785182551
 42
0.0
  0
VERTEX
  8
0
 10
16.1016487745751
 20
186.387536344852
 42
0.0
  0
VERTEX
  8
0
 10
16.1397913242138
 20
186.41524414352
 42
0.0
  0
VERTEX
  8
0
 10
16.2828315059584
 20
186.521579694125
 42
0.0
  0
VERTEX
  8
0
 10
16.6757181444421
 20
186.903877759589
 42
0.0
  0
VERTEX
  8
0
 10
16.814258318277
 20
187.080987356827
 42
0.0
  0
VERTEX
  8
0
 10
16.9078987017548
 20
187.297552953278
 42
0.0
  0
VERTEX
  8
0
 10
16.9091921094977
 20
187.300336194627
 42
0.0
  0
VERTEX
  8
0
 10
16.9555958197785
 20
187.546989514111
 42
0.0
  0
VERTEX
  8
0
 10
16.9522556914078
 20
187.823922101356
 42
0.0
  0
VERTEX
  8
0
 10
16.8997275370264
 20
188.121904938414
 42
0.0
  0
VERTEX
  8
0
 10
16.8830869941387
 20
188.175233399862
 42
0.0
  0
VERTEX
  8
0
 10
16.8735125298258
 20
188.203164284938
 42
0.0
  0
VERTEX
  8
0
 10
16.8020381597958
 20
188.432344470008
 42
0.0
  0
VERTEX
  8
0
 10
16.6563258886185
 20
188.748434312478
 42
0.0
  0
VERTEX
  8
0
 10
16.4722922432028
 20
189.062768525008
 42
0.0
  0
VERTEX
  8
0
 10
16.2491150972813
 20
189.366943876768
 42
0.0
  0
VERTEX
  8
0
 10
16.1528812398139
 20
189.474807752968
 42
0.0
  0
VERTEX
  8
0
 10
16.1168237170962
 20
189.516830525836
 42
0.0
  0
VERTEX
  8
0
 10
15.9954488346145
 20
189.653994684035
 42
0.0
  0
VERTEX
  8
0
 10
15.6255285166451
 20
190.032065780039
 42
0.0
  0
VERTEX
  8
0
 10
15.5432741349767
 20
190.117786602692
 42
0.0
  0
SEQEND
  0
POLYLINE
  8
0
 66
     1
 10
0.0
 20
0.0
 30
0.0
 70
     1
  0
VERTEX
  8
0
 10
22.337541268008
 20
186.029465338532
 42
0.0
  0
VERTEX
  8
0
 10
22.2850713556396
 20
186.057070819076
 42
0.0
  0
VERTEX
  8
0
 10
21.75600871011
 20
186.247717817859
 42
0.0
  0
VERTEX
  8
0
 10
21.2048347384064
 20
186.363499477515
 42
0.0
  0
VERTEX
  8
0
 10
20.644913495487
 20
186.400152485353
 42
0.0
  0
VERTEX
  8
0
 10
20.0848123933798
 20
186.35900371407
 42
0.0
  0
VERTEX
  8
0
 10
19.5343113815404
 20
186.240747014251
 42
0.0
  0
VERTEX
  8
0
 10
19.0071849679193
 20
186.046491570614
 42
0.0
  0
VERTEX
  8
0
 10
18.8911756325295
 20
185.985104436013
 42
0.0
  0
VERTEX
  8
0
 10
18.8503854389215
 20
185.962822641529
 42
0.0
  0
VERTEX
  8
0
 10
18.5103179659242
 20
185.781475503462
 42
0.0
  0
VERTEX
  8
0
 10
18.3280060079947
 20
185.6467979118
 42
0.0
  0
VERTEX
  8
0
 10
18.0567399667019
 20
185.448846322058
 42
0.0
  0
VERTEX
  8
0
 10
17.6544364263901
 20
185.056459986577
 42
0.0
  0
VERTEX
  8
0
 10
17.3085548327111
 20
184.612749531949
 42
0.0
  0
VERTEX
  8
0
 10
17.0300840116983
 20
184.124801078581
 42
0.0
  0
VERTEX
  8
0
 10
17.0095311866102
 20
184.072692993556
 42
0.0
  0
VERTEX
  8
0
 10
16.8210300432309
 20
183.602368432679
 42
0.0
  0
VERTEX
  8
0
 10
16.7783927382074
 20
183.423876201093
 42
0.0
  0
VERTEX
  8
0
 10
16.6876957848266
 20
183.05721880203
 42
0.0
  0
VERTEX
  8
0
 10
16.6300216282855
 20
182.498002909546
 42
0.0
  0
VERTEX
  8
0
 10
16.6517211750723
 20
181.935605008261
 42
0.0
  0
VERTEX
  8
0
 10
16.7519339528347
 20
181.38233957662
 42
0.0
  0
VERTEX
  8
0
 10
16.9274589455295
 20
180.848178108808
 42
0.0
  0
VERTEX
  8
0
 10
17.0979826590438
 20
180.500831750391
 42
0.0
  0
VERTEX
  8
0
 10
17.1363181593909
 20
180.422609238714
 42
0.0
  0
VERTEX
  8
0
 10
17.1749297356332
 20
180.343284864023
 42
0.0
  0
VERTEX
  8
0
 10
17.4905110647142
 20
179.878760562997
 42
0.0
  0
VERTEX
  8
0
 10
17.6949959200824
 20
179.652928159598
 42
0.0
  0
VERTEX
  8
0
 10
17.8682758430124
 20
179.461902912698
 42
0.0
  0
VERTEX
  8
0
 10
18.3007810039118
 20
179.101386338716
 42
0.0
  0
VERTEX
  8
0
 10
18.7778835503286
 20
178.805911409894
 42
0.0
  0
VERTEX
  8
0
 10
19.0878668152407
 20
178.668928185262
 42
0.0
  0
VERTEX
  8
0
 10
19.291922727668
 20
178.5789454559
 42
0.0
  0
VERTEX
  8
0
 10
19.6992293245298
 20
178.463887782532
 42
0.0
  0
VERTEX
  8
0
 10
19.834245372453
 20
178.425112396484
 42
0.0
  0
VERTEX
  8
0
 10
20.3915421567911
 20
178.349391877319
 42
0.0
  0
VERTEX
  8
0
 10
20.9526278287849
 20
178.351557668444
 42
0.0
  0
VERTEX
  8
0
 10
21.5094585443806
 20
178.430062768617
 42
0.0
  0
VERTEX
  8
0
 10
22.0495246195546
 20
178.588564831954
 42
0.0
  0
VERTEX
  8
0
 10
22.2477297630011
 20
178.676635814663
 42
0.0
  0
VERTEX
  8
0
 10
22.5627475465572
 20
178.81774664849
 42
0.0
  0
VERTEX
  8
0
 10
23.0368949375436
 20
179.117822245354
 42
0.0
  0
VERTEX
  8
0
 10
23.4674523268964
 20
179.481571125041
 42
0.0
  0
VERTEX
  8
0
 10
23.5442724939939
 20
179.56756769199
 42
0.0
  0
VERTEX
  8
0
 10
23.8423576093853
 20
179.89964749377
 42
0.0
  0
VERTEX
  8
0
 10
24.1555803425371
 20
180.366207572663
 42
0.0
  0
VERTEX
  8
0
 10
24.4003202441094
 20
180.872404212947
 42
0.0
  0
VERTEX
  8
0
 10
24.5413689495859
 20
181.31104889906
 42
0.0
  0
VERTEX
  8
0
 10
24.5720367052355
 20
181.40831698665
 42
0.0
  0
VERTEX
  8
0
 10
24.6684487904249
 20
181.962952186605
 42
0.0
  0
VERTEX
  8
0
 10
24.6859535726273
 20
182.524516461776
 42
0.0
  0
VERTEX
  8
0
 10
24.6257958339382
 20
183.083367900654
 42
0.0
  0
VERTEX
  8
0
 10
24.4867691383471
 20
183.628430705473
 42
0.0
  0
VERTEX
  8
0
 10
24.4284254573053
 20
183.772487701771
 42
0.0
  0
VERTEX
  8
0
 10
24.3804832479781
 20
183.887649987928
 42
0.0
  0
VERTEX
  8
0
 10
24.2743615388059
 20
184.149018269344
 42
0.0
  0
VERTEX
  8
0
 10
23.9919120893052
 20
184.634608166575
 42
0.0
  0
VERTEX
  8
0
 10
23.6447695845655
 20
185.077406485758
 42
0.0
  0
VERTEX
  8
0
 10
23.238367350473
 20
185.466010287016
 42
0.0
  0
VERTEX
  8
0
 10
23.2329650489704
 20
185.470746101463
 42
0.0
  0
VERTEX
  8
0
 10
23.0467109649487
 20
185.605121434189
 42
0.0
  0
VERTEX
  8
0
 10
22.7828185800115
 20
185.796044362964
 42
0.0
  0
SEQEND
  0
POLYLINE
  8
0
 66
     1
 10
0.0
 20
0.0
 30
0.0
 70
     1
  0
VERTEX
  8
0
 10
14.0057334356778
 20
178.103237043677
 42
0.0
  0
VERTEX
  8
0
 10
13.7552063657742
 20
177.917390786385
 42
0.0
  0
VERTEX
  8
0
 10
13.4728664499884
 20
177.664085130779
 42
0.0
  0
VERTEX
  8
0
 10
12.812085771859
 20
177.010085422578
 42
0.0
  0
VERTEX
  8
0
 10
12.5550510622841
 20
176.729628483933
 42
0.0
  0
VERTEX
  8
0
 10
12.5226464982431
 20
176.687432284895
 42
0.0
  0
VERTEX
  8
0
 10
12.3280002057343
 20
176.431389758715
 42
0.0
  0
VERTEX
  8
0
 10
12.2967844764393
 20
176.381177079155
 42
0.0
  0
VERTEX
  8
0
 10
12.1364388564255
 20
176.12377491832
 42
0.0
  0
VERTEX
  8
0
 10
11.986673532726
 20
175.811525878614
 42
0.0
  0
VERTEX
  8
0
 10
11.8801320194758
 20
175.503900241363
 42
0.0
  0
VERTEX
  8
0
 10
11.8610338254661
 20
175.409530950672
 42
0.0
  0
VERTEX
  8
0
 10
11.8201995557459
 20
175.20748426168
 42
0.0
  0
VERTEX
  8
0
 10
11.8105909632847
 20
174.930820428628
 42
0.0
  0
VERTEX
  8
0
 10
11.8494570217084
 20
174.680354518807
 42
0.0
  0
VERTEX
  8
0
 10
11.8650157434141
 20
174.641158731803
 42
0.0
  0
VERTEX
  8
0
 10
11.9352793135938
 20
174.46214677879
 42
0.0
  0
VERTEX
  8
0
 10
12.0669808988931
 20
174.280962827123
 42
0.0
  0
VERTEX
  8
0
 10
12.4425844753946
 20
173.887686997762
 42
0.0
  0
VERTEX
  8
0
 10
12.4902389232849
 20
173.848921188287
 42
0.0
  0
VERTEX
  8
0
 10
12.5402077716168
 20
173.809798432602
 42
0.0
  0
VERTEX
  8
0
 10
12.6165812486057
 20
173.748483997722
 42
0.0
  0
VERTEX
  8
0
 10
12.8303648239905
 20
173.653795258013
 42
0.0
  0
VERTEX
  8
0
 10
13.0740695006438
 20
173.608877720488
 42
0.0
  0
VERTEX
  8
0
 10
13.3467053102507
 20
173.610204447278
 42
0.0
  0
VERTEX
  8
0
 10
13.6401426573081
 20
173.662179229586
 42
0.0
  0
VERTEX
  8
0
 10
13.9436663511107
 20
173.76129761194
 42
0.0
  0
VERTEX
  8
0
 10
14.0884621627945
 20
173.829311788306
 42
0.0
  0
VERTEX
  8
0
 10
14.2548525370858
 20
173.906483874576
 42
0.0
  0
VERTEX
  8
0
 10
14.5650815167071
 20
174.091011283866
 42
0.0
  0
VERTEX
  8
0
 10
14.6781585902474
 20
174.175318633483
 42
0.0
  0
VERTEX
  8
0
 10
14.862369614492
 20
174.31363383743
 42
0.0
  0
VERTEX
  8
0
 10
15.1450117494222
 20
174.56853756049
 42
0.0
  0
VERTEX
  8
0
 10
15.8056270260712
 20
175.222730033704
 42
0.0
  0
VERTEX
  8
0
 10
16.0632959780347
 20
175.502057745803
 42
0.0
  0
VERTEX
  8
0
 10
16.1448707811268
 20
175.610207128568
 42
0.0
  0
VERTEX
  8
0
 10
16.2905122360649
 20
175.800103706008
 42
0.0
  0
VERTEX
  8
0
 10
16.4822937139196
 20
176.108242114376
 42
0.0
  0
VERTEX
  8
0
 10
16.5169420876501
 20
176.179807965883
 42
0.0
  0
VERTEX
  8
0
 10
16.6156302669877
 20
176.384639819497
 42
0.0
  0
VERTEX
  8
0
 10
16.6318662726059
 20
176.420325752602
 42
0.0
  0
VERTEX
  8
0
 10
16.7377461799348
 20
176.728722449906
 42
0.0
  0
VERTEX
  8
0
 10
16.7975132421843
 20
177.025331194602
 42
0.0
  0
VERTEX
  8
0
 10
16.8060468178709
 20
177.250200144326
 42
0.0
  0
VERTEX
  8
0
 10
16.806763668152
 20
177.302022391186
 42
0.0
  0
VERTEX
  8
0
 10
16.7728992205076
 20
177.523645877365
 42
0.0
  0
VERTEX
  8
0
 10
16.7684211777022
 20
177.552268172462
 42
0.0
  0
VERTEX
  8
0
 10
16.6826262493496
 20
177.770834078973
 42
0.0
  0
VERTEX
  8
0
 10
16.5507592625699
 20
177.952210795653
 42
0.0
  0
VERTEX
  8
0
 10
16.4728874099891
 20
178.033994227445
 42
0.0
  0
VERTEX
  8
0
 10
16.4112522660161
 20
178.097244854441
 42
0.0
  0
VERTEX
  8
0
 10
16.1753210875488
 20
178.34529386
 42
0.0
  0
VERTEX
  8
0
 10
16.0019585567263
 20
178.483367633494
 42
0.0
  0
VERTEX
  8
0
 10
15.7893315714204
 20
178.579048782085
 42
0.0
  0
VERTEX
  8
0
 10
15.604204459073
 20
178.612646173322
 42
0.0
  0
VERTEX
  8
0
 10
15.543477895806
 20
178.624130500807
 42
0.0
  0
VERTEX
  8
0
 10
15.2716417300681
 20
178.621481782458
 42
0.0
  0
VERTEX
  8
0
 10
14.978369784491
 20
178.569314235137
 42
0.0
  0
VERTEX
  8
0
 10
14.90044339054
 20
178.544285622115
 42
0.0
  0
VERTEX
  8
0
 10
14.7661042949306
 20
178.49997004252
 42
0.0
  0
VERTEX
  8
0
 10
14.6739096291555
 20
178.469727011875
 42
0.0
  0
VERTEX
  8
0
 10
14.3628602608445
 20
178.326331581706
 42
0.0
  0
VERTEX
  8
0
 10
14.0542852960267
 20
178.139876522285
 42
0.0
  0
SEQEND
  0
POLYLINE
  8
0
 66
     1
 10
0.0
 20
0.0
 30
0.0
 70
     1
  0
VERTEX
  8
0
 10
24.3909532943242
 20
176.642621442599
 42
0.0
  0
VERTEX
  8
0
 10
24.490678555534
 20
176.337610355757
 42
0.0
  0
VERTEX
  8
0
 10
24.5853929609901
 20
176.132052778278
 42
0.0
  0
VERTEX
  8
0
 10
24.6350937581176
 20
176.02576256386
 42
0.0
  0
VERTEX
  8
0
 10
24.8194271821105
 20
175.717709946733
 42
0.0
  0
VERTEX
  8
0
 10
25.0430147810239
 20
175.418907092376
 42
0.0
  0
VERTEX
  8
0
 10
25.2959896336693
 20
175.136952706616
 42
0.0
  0
VERTEX
  8
0
 10
25.8812705180583
 20
174.545727953568
 42
0.0
  0
VERTEX
  8
0
 10
25.9509817507524
 20
174.475015438408
 42
0.0
  0
VERTEX
  8
0
 10
26.2294550919161
 20
174.217952145017
 42
0.0
  0
VERTEX
  8
0
 10
26.5288789910299
 20
173.989910099868
 42
0.0
  0
VERTEX
  8
0
 10
26.8378431865166
 20
173.799506560922
 42
0.0
  0
VERTEX
  8
0
 10
27.0959433760847
 20
173.674232673456
 42
0.0
  0
VERTEX
  8
0
 10
27.14857746965
 20
173.648776191873
 42
0.0
  0
VERTEX
  8
0
 10
27.4571669319671
 20
173.543061686024
 42
0.0
  0
VERTEX
  8
0
 10
27.5216405616496
 20
173.531110958198
 42
0.0
  0
VERTEX
  8
0
 10
27.5592231205024
 20
173.523196092813
 42
0.0
  0
VERTEX
  8
0
 10
27.7525905027677
 20
173.484285812374
 42
0.0
  0
VERTEX
  8
0
 10
27.7888200456778
 20
173.482238428548
 42
0.0
  0
VERTEX
  8
0
 10
28.0304395097148
 20
173.473686031314
 42
0.0
  0
VERTEX
  8
0
 10
28.1908512107371
 20
173.498537225715
 42
0.0
  0
VERTEX
  8
0
 10
28.280712654523
 20
173.512386688257
 42
0.0
  0
VERTEX
  8
0
 10
28.499278561034
 20
173.59818161661
 42
0.0
  0
VERTEX
  8
0
 10
28.5603613675214
 20
173.643230427467
 42
0.0
  0
VERTEX
  8
0
 10
28.6017535588509
 20
173.673391884808
 42
0.0
  0
VERTEX
  8
0
 10
28.6802697476877
 20
173.729717800429
 42
0.0
  0
VERTEX
  8
0
 10
29.0431172887866
 20
174.077204345553
 42
0.0
  0
VERTEX
  8
0
 10
29.0737383420615
 20
174.10548677841
 42
0.0
  0
VERTEX
  8
0
 10
29.2051498712605
 20
174.269451228953
 42
0.0
  0
VERTEX
  8
0
 10
29.2131341071146
 20
174.279648953102
 42
0.0
  0
VERTEX
  8
0
 10
29.3061153252381
 20
174.492302081657
 42
0.0
  0
VERTEX
  8
0
 10
29.3525476193353
 20
174.73697180366
 42
0.0
  0
VERTEX
  8
0
 10
29.3523370673626
 20
174.823809835719
 42
0.0
  0
VERTEX
  8
0
 10
29.3506973245713
 20
175.009827741813
 42
0.0
  0
VERTEX
  8
0
 10
29.2990533452245
 20
175.302879558844
 42
0.0
  0
VERTEX
  8
0
 10
29.1989425539884
 20
175.607559842725
 42
0.0
  0
VERTEX
  8
0
 10
29.1392854233723
 20
175.734424847335
 42
0.0
  0
VERTEX
  8
0
 10
29.0545832987539
 20
175.917782203634
 42
0.0
  0
VERTEX
  8
0
 10
28.9056281902931
 20
176.16549082966
 42
0.0
  0
VERTEX
  8
0
 10
28.8690920643986
 20
176.227184175854
 42
0.0
  0
VERTEX
  8
0
 10
28.821396829856
 20
176.291351222552
 42
0.0
  0
VERTEX
  8
0
 10
28.6467990935116
 20
176.526428507587
 42
0.0
  0
VERTEX
  8
0
 10
28.4477439031788
 20
176.747883263033
 42
0.0
  0
VERTEX
  8
0
 10
28.3925296128397
 20
176.807941415971
 42
0.0
  0
VERTEX
  8
0
 10
27.738502541106
 20
177.468363927607
 42
0.0
  0
VERTEX
  8
0
 10
27.4592021925405
 20
177.726391046064
 42
0.0
  0
VERTEX
  8
0
 10
27.160963467322
 20
177.953441902614
 42
0.0
  0
VERTEX
  8
0
 10
26.8987658838405
 20
178.117035944035
 42
0.0
  0
VERTEX
  8
0
 10
26.8529904604339
 20
178.145030615455
 42
0.0
  0
VERTEX
  8
0
 10
26.5411269507544
 20
178.295126742115
 42
0.0
  0
VERTEX
  8
0
 10
26.3857987654145
 20
178.348603335378
 42
0.0
  0
VERTEX
  8
0
 10
26.3756582088979
 20
178.352620376271
 42
0.0
  0
VERTEX
  8
0
 10
26.2323447234241
 20
178.400675846483
 42
0.0
  0
VERTEX
  8
0
 10
25.9360941452217
 20
178.4604155452
 42
0.0
  0
VERTEX
  8
0
 10
25.6590447821436
 20
178.469693334701
 42
0.0
  0
VERTEX
  8
0
 10
25.4081373949468
 20
178.432121904304
 42
0.0
  0
VERTEX
  8
0
 10
25.1895714884358
 20
178.346326975951
 42
0.0
  0
VERTEX
  8
0
 10
25.0083875367689
 20
178.214625390652
 42
0.0
  0
VERTEX
  8
0
 10
24.8418471073897
 20
178.055326163804
 42
0.0
  0
VERTEX
  8
0
 10
24.7837725519322
 20
178.000140457281
 42
0.0
  0
VERTEX
  8
0
 10
24.6403353403149
 20
177.862673005558
 42
0.0
  0
VERTEX
  8
0
 10
24.6151117074082
 20
177.83902181415
 42
0.0
  0
VERTEX
  8
0
 10
24.4974947279908
 20
177.690575298662
 42
0.0
  0
VERTEX
  8
0
 10
24.475743305888
 20
177.665217805952
 42
0.0
  0
VERTEX
  8
0
 10
24.3822111562578
 20
177.45242663945
 42
0.0
  0
VERTEX
  8
0
 10
24.3374876040298
 20
177.206545600302
 42
0.0
  0
VERTEX
  8
0
 10
24.3389797323002
 20
176.933717025682
 42
0.0
  0
SEQEND
  0
POLYLINE
  8
0
 66
     1
 10
0.0
 20
0.0
 30
0.0
 70
     1
  0
VERTEX
  8
0
 10
22.3866442986148
 20
110.885102255682
 42
0.0
  0
VERTEX
  8
0
 10
22.4355654937047
 20
110.794542783162
 42
0.0
  0
VERTEX
  8
0
 10
22.556379165117
 20
110.624097724883
 42
0.0
  0
VERTEX
  8
0
 10
22.6992252156614
 20
110.468541240403
 42
0.0
  0
VERTEX
  8
0
 10
22.8579576473156
 20
110.33230570474
 42
0.0
  0
VERTEX
  8
0
 10
23.0335402851454
 20
110.216218125298
 42
0.0
  0
VERTEX
  8
0
 10
23.1671383104975
 20
110.149451025691
 42
0.0
  0
VERTEX
  8
0
 10
23.2209302144253
 20
110.122645189016
 42
0.0
  0
VERTEX
  8
0
 10
23.4186114582992
 20
110.052963614518
 42
0.0
  0
VERTEX
  8
0
 10
23.6234699724567
 20
110.008852339575
 42
0.0
  0
VERTEX
  8
0
 10
23.8324202964039
 20
109.990006704473
 42
0.0
  0
VERTEX
  8
0
 10
23.8753431079923
 20
109.990690275499
 42
0.0
  0
VERTEX
  8
0
 10
24.0416059095941
 20
109.995460443581
 42
0.0
  0
VERTEX
  8
0
 10
24.2494822513548
 20
110.028573873005
 42
0.0
  0
VERTEX
  8
0
 10
24.4512575598902
 20
110.085570122227
 42
0.0
  0
VERTEX
  8
0
 10
24.6443139953307
 20
110.16754983398
 42
0.0
  0
VERTEX
  8
0
 10
24.8262003395712
 20
110.273079122003
 42
0.0
  0
VERTEX
  8
0
 10
24.9929506179337
 20
110.399759054692
 42
0.0
  0
VERTEX
  8
0
 10
25.1440698462606
 20
110.545826163111
 42
0.0
  0
VERTEX
  8
0
 10
25.2758121784203
 20
110.709405083627
 42
0.0
  0
VERTEX
  8
0
 10
25.3863606386959
 20
110.887932703436
 42
0.0
  0
VERTEX
  8
0
 10
25.4733473198639
 20
111.078707871787
 42
0.0
  0
VERTEX
  8
0
 10
25.518235238984
 20
111.220642198069
 42
0.0
  0
VERTEX
  8
0
 10
25.537269646649
 20
111.278810529667
 42
0.0
  0
VERTEX
  8
0
 10
25.5746304852817
 20
111.484905283934
 42
0.0
  0
VERTEX
  8
0
 10
25.5875526914737
 20
111.694128022926
 42
0.0
  0
VERTEX
  8
0
 10
25.5752664254562
 20
111.903475376746
 42
0.0
  0
VERTEX
  8
0
 10
25.5364235524204
 20
112.109447771057
 42
0.0
  0
VERTEX
  8
0
 10
25.5171365858471
 20
112.165860472715
 42
0.0
  0
VERTEX
  8
0
 10
25.4724032315586
 20
112.308877654767
 42
0.0
  0
VERTEX
  8
0
 10
25.3845286747135
 20
112.500222907772
 42
0.0
  0
VERTEX
  8
0
 10
25.2749513214133
 20
112.678635820924
 42
0.0
  0
VERTEX
  8
0
 10
25.1417435215265
 20
112.842462379423
 42
0.0
  0
VERTEX
  8
0
 10
24.991629568115
 20
112.987766412688
 42
0.0
  0
VERTEX
  8
0
 10
24.8233148331523
 20
113.114106443345
 42
0.0
  0
VERTEX
  8
0
 10
24.6420623599098
 20
113.219639352428
 42
0.0
  0
VERTEX
  8
0
 10
24.449692784955
 20
113.299902960818
 42
0.0
  0
VERTEX
  8
0
 10
24.2478303189917
 20
113.357294979838
 42
0.0
  0
VERTEX
  8
0
 10
24.0392855669022
 20
113.390880168238
 42
0.0
  0
VERTEX
  8
0
 10
23.8296535952022
 20
113.396088113054
 42
0.0
  0
VERTEX
  8
0
 10
23.6650770530711
 20
113.380381405436
 42
0.0
  0
VERTEX
  8
0
 10
23.6206680687267
 20
113.376749191581
 42
0.0
  0
VERTEX
  8
0
 10
23.4162140918386
 20
113.331846071972
 42
0.0
  0
VERTEX
  8
0
 10
23.2183026255513
 20
113.261765504536
 42
0.0
  0
VERTEX
  8
0
 10
23.0301012209574
 20
113.167886648467
 42
0.0
  0
VERTEX
  8
0
 10
22.8551903227083
 20
113.05227763241
 42
0.0
  0
VERTEX
  8
0
 10
22.6963519518701
 20
112.915986812596
 42
0.0
  0
VERTEX
  8
0
 10
22.5723925485664
 20
112.778832562569
 42
0.0
  0
VERTEX
  8
0
 10
22.5555137585744
 20
112.76066820383
 42
0.0
  0
VERTEX
  8
0
 10
22.4341345520445
 20
112.588912282447
 42
0.0
  0
VERTEX
  8
0
 10
22.3348023680496
 20
112.403943767172
 42
0.0
  0
VERTEX
  8
0
 10
22.2591687808263
 20
112.208518535823
 42
0.0
  0
VERTEX
  8
0
 10
22.2084998345846
 20
112.005061663256
 42
0.0
  0
VERTEX
  8
0
 10
22.2008185208643
 20
111.942243268661
 42
0.0
  0
VERTEX
  8
0
 10
22.1829584902377
 20
111.798063912406
 42
0.0
  0
VERTEX
  8
0
 10
22.1833170281219
 20
111.585845125221
 42
0.0
  0
VERTEX
  8
0
 10
22.2095705671028
 20
111.377772357596
 42
0.0
  0
VERTEX
  8
0
 10
22.2606433874163
 20
111.176269464105
 42
0.0
  0
VERTEX
  8
0
 10
22.3362606334508
 20
110.980096543787
 42
0.0
  0
SEQEND
  0
ENDSEC
  0
EOF
