  0
SECTION
  2
HEADER
  9
$ACADVER
  1
AC1009
  9
$FILLMODE
 70
 0
  9
$SPLFRAME
 70
 1
  9
$EXTMIN
 10
0
 20
0
 30
0.0
  9
$EXTMAX
 10
41.6667
 20
41.6667
 30
0.0
  0
ENDSEC
  0
SECTION
  2
TABLES
  0
TABLE
  2
LAYER
 70
1
  0
LAYER
  2
0
 70
     0
 62
     7
  6
CONTINUOUS
  0
ENDTAB
  0
ENDSEC
  0
SECTION
  2
ENTITIES
  0
POLYLINE
  8
0
 62
     254
 66
     1
 10
0
 20
0
 30
0.0
 70
     1
 40
0
 41
0
  0
VERTEX
  8
0
 10
1.45285
 20
0.888726
 30
0.0
 40
0
 41
0
  0
VERTEX
  8
0
 10
1.45161
 20
0.887478
 30
0.0
 40
0
 41
0
  0
VERTEX
  8
0
 10
1.28212
 20
0.726346
 30
0.0
 40
0
 41
0
  0
VERTEX
  8
0
 10
0.671332
 20
0.145508
 30
0.0
 40
0
 41
0
  0
VERTEX
  8
0
 10
0.64426
 20
0.119737
 30
0.0
 40
0
 41
0
  0
VERTEX
  8
0
 10
0.64426
 20
0.0467122
 30
0.0
 40
0
 41
0
  0
VERTEX
  8
0
 10
0.0397678
 20
0.0467122
 30
0.0
 40
0
 41
0
  0
VERTEX
  8
0
 10
0.0397678
 20
0.640842
 30
0.0
 40
0
 41
0
  0
VERTEX
  8
0
 10
0.0393881
 20
0.640842
 30
0.0
 40
0
 41
0
  0
VERTEX
  8
0
 10
0.0397678
 20
0.641114
 30
0.0
 40
0
 41
0
  0
VERTEX
  8
0
 10
0.225965
 20
0.774251
 30
0.0
 40
0
 41
0
  0
VERTEX
  8
0
 10
0.272353
 20
0.8074
 30
0.0
 40
0
 41
0
  0
VERTEX
  8
0
 10
0.475424
 20
0.952528
 30
0.0
 40
0
 41
0
  0
VERTEX
  8
0
 10
0.60726
 20
1.04682
 30
0.0
 40
0
 41
0
  0
VERTEX
  8
0
 10
0.624838
 20
1.05935
 30
0.0
 40
0
 41
0
  0
VERTEX
  8
0
 10
0.600965
 20
1.07601
 30
0.0
 40
0
 41
0
  0
VERTEX
  8
0
 10
0.564671
 20
1.10607
 30
0.0
 40
0
 41
0
  0
VERTEX
  8
0
 10
0.553657
 20
1.11702
 30
0.0
 40
0
 41
0
  0
VERTEX
  8
0
 10
0.534125
 20
1.13656
 30
0.0
 40
0
 41
0
  0
VERTEX
  8
0
 10
0.509765
 20
1.16732
 30
0.0
 40
0
 41
0
  0
VERTEX
  8
0
 10
0.491754
 20
1.19797
 30
0.0
 40
0
 41
0
  0
VERTEX
  8
0
 10
0.480251
 20
1.22824
 30
0.0
 40
0
 41
0
  0
VERTEX
  8
0
 10
0.475424
 20
1.25787
 30
0.0
 40
0
 41
0
  0
VERTEX
  8
0
 10
0.477214
 20
1.28651
 30
0.0
 40
0
 41
0
  0
VERTEX
  8
0
 10
0.485732
 20
1.31397
 30
0.0
 40
0
 41
0
  0
VERTEX
  8
0
 10
0.500814
 20
1.3399
 30
0.0
 40
0
 41
0
  0
VERTEX
  8
0
 10
0.522353
 20
1.36415
 30
0.0
 40
0
 41
0
  0
VERTEX
  8
0
 10
0.550131
 20
1.38639
 30
0.0
 40
0
 41
0
  0
VERTEX
  8
0
 10
0.553657
 20
1.38846
 30
0.0
 40
0
 41
0
  0
VERTEX
  8
0
 10
0.583876
 20
1.40636
 30
0.0
 40
0
 41
0
  0
VERTEX
  8
0
 10
0.62321
 20
1.42404
 30
0.0
 40
0
 41
0
  0
VERTEX
  8
0
 10
0.637099
 20
1.42871
 30
0.0
 40
0
 41
0
  0
VERTEX
  8
0
 10
0.66786
 20
1.43912
 30
0.0
 40
0
 41
0
  0
VERTEX
  8
0
 10
0.711154
 20
1.44997
 30
0.0
 40
0
 41
0
  0
VERTEX
  8
0
 10
0.717339
 20
1.45156
 30
0.0
 40
0
 41
0
  0
VERTEX
  8
0
 10
0.771158
 20
1.46115
 30
0.0
 40
0
 41
0
  0
VERTEX
  8
0
 10
0.828831
 20
1.46778
 30
0.0
 40
0
 41
0
  0
VERTEX
  8
0
 10
0.889757
 20
1.47151
 30
0.0
 40
0
 41
0
  0
VERTEX
  8
0
 10
0.95345
 20
1.47222
 30
0.0
 40
0
 41
0
  0
VERTEX
  8
0
 10
1.01915
 20
1.46989
 30
0.0
 40
0
 41
0
  0
VERTEX
  8
0
 10
1.06543
 20
1.46619
 30
0.0
 40
0
 41
0
  0
VERTEX
  8
0
 10
1.08632
 20
1.46451
 30
0.0
 40
0
 41
0
  0
VERTEX
  8
0
 10
1.11176
 20
1.46143
 30
0.0
 40
0
 41
0
  0
VERTEX
  8
0
 10
1.11263
 20
1.4624
 30
0.0
 40
0
 41
0
  0
VERTEX
  8
0
 10
1.11621
 20
1.46647
 30
0.0
 40
0
 41
0
  0
VERTEX
  8
0
 10
1.12126
 20
1.47222
 30
0.0
 40
0
 41
0
  0
VERTEX
  8
0
 10
1.12272
 20
1.47385
 30
0.0
 40
0
 41
0
  0
VERTEX
  8
0
 10
1.12413
 20
1.47547
 30
0.0
 40
0
 41
0
  0
VERTEX
  8
0
 10
1.18321
 20
1.54292
 30
0.0
 40
0
 41
0
  0
VERTEX
  8
0
 10
1.2781
 20
1.65235
 30
0.0
 40
0
 41
0
  0
VERTEX
  8
0
 10
1.27832
 20
1.65256
 30
0.0
 40
0
 41
0
  0
VERTEX
  8
0
 10
1.27875
 20
1.65306
 30
0.0
 40
0
 41
0
  0
VERTEX
  8
0
 10
1.28212
 20
1.6569
 30
0.0
 40
0
 41
0
  0
VERTEX
  8
0
 10
1.32156
 20
1.70139
 30
0.0
 40
0
 41
0
  0
VERTEX
  8
0
 10
1.34022
 20
1.7225
 30
0.0
 40
0
 41
0
  0
VERTEX
  8
0
 10
1.41092
 20
1.80296
 30
0.0
 40
0
 41
0
  0
VERTEX
  8
0
 10
1.49007
 20
1.89356
 30
0.0
 40
0
 41
0
  0
VERTEX
  8
0
 10
1.57688
 20
1.99343
 30
0.0
 40
0
 41
0
  0
VERTEX
  8
0
 10
1.67031
 20
2.10135
 30
0.0
 40
0
 41
0
  0
VERTEX
  8
0
 10
1.76942
 20
2.21615
 30
0.0
 40
0
 41
0
  0
VERTEX
  8
0
 10
1.87304
 20
2.33658
 30
0.0
 40
0
 41
0
  0
VERTEX
  8
0
 10
1.96496
 20
2.44368
 30
0.0
 40
0
 41
0
  0
VERTEX
  8
0
 10
1.98008
 20
2.46132
 30
0.0
 40
0
 41
0
  0
VERTEX
  8
0
 10
2.08936
 20
2.58908
 30
0.0
 40
0
 41
0
  0
VERTEX
  8
0
 10
2.19971
 20
2.71838
 30
0.0
 40
0
 41
0
  0
VERTEX
  8
0
 10
2.3099
 20
2.84776
 30
0.0
 40
0
 41
0
  0
VERTEX
  8
0
 10
2.41868
 20
2.97597
 30
0.0
 40
0
 41
0
  0
VERTEX
  8
0
 10
2.42096
 20
2.97863
 30
0.0
 40
0
 41
0
  0
VERTEX
  8
0
 10
2.5249
 20
3.1014
 30
0.0
 40
0
 41
0
  0
VERTEX
  8
0
 10
2.53521
 20
3.11367
 30
0.0
 40
0
 41
0
  0
VERTEX
  8
0
 10
2.57221
 20
3.15744
 30
0.0
 40
0
 41
0
  0
VERTEX
  8
0
 10
2.62739
 20
3.22282
 30
0.0
 40
0
 41
0
  0
VERTEX
  8
0
 10
2.68604
 20
3.29254
 30
0.0
 40
0
 41
0
  0
VERTEX
  8
0
 10
2.72504
 20
3.33886
 30
0.0
 40
0
 41
0
  0
VERTEX
  8
0
 10
2.78618
 20
3.41174
 30
0.0
 40
0
 41
0
  0
VERTEX
  8
0
 10
2.81679
 20
3.44824
 30
0.0
 40
0
 41
0
  0
VERTEX
  8
0
 10
2.83371
 20
3.46847
 30
0.0
 40
0
 41
0
  0
VERTEX
  8
0
 10
2.90158
 20
3.54975
 30
0.0
 40
0
 41
0
  0
VERTEX
  8
0
 10
2.95844
 20
3.61811
 30
0.0
 40
0
 41
0
  0
VERTEX
  8
0
 10
2.97857
 20
3.64225
 30
0.0
 40
0
 41
0
  0
VERTEX
  8
0
 10
3.04676
 20
3.72483
 30
0.0
 40
0
 41
0
  0
VERTEX
  8
0
 10
3.04986
 20
3.72863
 30
0.0
 40
0
 41
0
  0
VERTEX
  8
0
 10
3.0541
 20
3.73378
 30
0.0
 40
0
 41
0
  0
VERTEX
  8
0
 10
3.074
 20
3.75803
 30
0.0
 40
0
 41
0
  0
VERTEX
  8
0
 10
3.08475
 20
3.77083
 30
0.0
 40
0
 41
0
  0
VERTEX
  8
0
 10
3.10764
 20
3.79818
 30
0.0
 40
0
 41
0
  0
VERTEX
  8
0
 10
3.14085
 20
3.83778
 30
0.0
 40
0
 41
0
  0
VERTEX
  8
0
 10
3.17806
 20
3.88217
 30
0.0
 40
0
 41
0
  0
VERTEX
  8
0
 10
3.1984
 20
3.90647
 30
0.0
 40
0
 41
0
  0
VERTEX
  8
0
 10
3.22672
 20
3.94026
 30
0.0
 40
0
 41
0
  0
VERTEX
  8
0
 10
3.24257
 20
3.95915
 30
0.0
 40
0
 41
0
  0
VERTEX
  8
0
 10
3.25022
 20
3.96843
 30
0.0
 40
0
 41
0
  0
VERTEX
  8
0
 10
3.25461
 20
3.97374
 30
0.0
 40
0
 41
0
  0
VERTEX
  8
0
 10
3.47526
 20
4.24013
 30
0.0
 40
0
 41
0
  0
VERTEX
  8
0
 10
3.65674
 20
4.46197
 30
0.0
 40
0
 41
0
  0
VERTEX
  8
0
 10
3.69868
 20
4.51318
 30
0.0
 40
0
 41
0
  0
VERTEX
  8
0
 10
3.69949
 20
4.51421
 30
0.0
 40
0
 41
0
  0
VERTEX
  8
0
 10
3.70979
 20
4.52696
 30
0.0
 40
0
 41
0
  0
VERTEX
  8
0
 10
3.71506
 20
4.53347
 30
0.0
 40
0
 41
0
  0
VERTEX
  8
0
 10
3.86231
 20
4.71582
 30
0.0
 40
0
 41
0
  0
VERTEX
  8
0
 10
3.86475
 20
4.71892
 30
0.0
 40
0
 41
0
  0
VERTEX
  8
0
 10
3.91314
 20
4.77875
 30
0.0
 40
0
 41
0
  0
VERTEX
  8
0
 10
3.95893
 20
4.83632
 30
0.0
 40
0
 41
0
  0
VERTEX
  8
0
 10
3.98139
 20
4.86453
 30
0.0
 40
0
 41
0
  0
VERTEX
  8
0
 10
4.10813
 20
5.02387
 30
0.0
 40
0
 41
0
  0
VERTEX
  8
0
 10
4.11404
 20
5.03131
 30
0.0
 40
0
 41
0
  0
VERTEX
  8
0
 10
4.19797
 20
5.13846
 30
0.0
 40
0
 41
0
  0
VERTEX
  8
0
 10
4.22863
 20
5.17768
 30
0.0
 40
0
 41
0
  0
VERTEX
  8
0
 10
4.24631
 20
5.1984
 30
0.0
 40
0
 41
0
  0
VERTEX
  8
0
 10
4.2015
 20
5.35275
 30
0.0
 40
0
 41
0
  0
VERTEX
  8
0
 10
4.33979
 20
5.5089
 30
0.0
 40
0
 41
0
  0
VERTEX
  8
0
 10
4.39908
 20
5.57579
 30
0.0
 40
0
 41
0
  0
VERTEX
  8
0
 10
4.42822
 20
5.60867
 30
0.0
 40
0
 41
0
  0
VERTEX
  8
0
 10
4.43718
 20
5.61876
 30
0.0
 40
0
 41
0
  0
VERTEX
  8
0
 10
4.61638
 20
6.03006
 30
0.0
 40
0
 41
0
  0
VERTEX
  8
0
 10
4.78689
 20
6.01351
 30
0.0
 40
0
 41
0
  0
VERTEX
  8
0
 10
4.92925
 20
5.99972
 30
0.0
 40
0
 41
0
  0
VERTEX
  8
0
 10
4.93175
 20
5.99946
 30
0.0
 40
0
 41
0
  0
VERTEX
  8
0
 10
4.93181
 20
5.99946
 30
0.0
 40
0
 41
0
  0
VERTEX
  8
0
 10
5.07699
 20
5.9854
 30
0.0
 40
0
 41
0
  0
VERTEX
  8
0
 10
5.11535
 20
5.8119
 30
0.0
 40
0
 41
0
  0
VERTEX
  8
0
 10
5.13226
 20
5.73546
 30
0.0
 40
0
 41
0
  0
VERTEX
  8
0
 10
5.192
 20
5.72569
 30
0.0
 40
0
 41
0
  0
VERTEX
  8
0
 10
5.20806
 20
5.67042
 30
0.0
 40
0
 41
0
  0
VERTEX
  8
0
 10
5.42031
 20
5.64985
 30
0.0
 40
0
 41
0
  0
VERTEX
  8
0
 10
5.46013
 20
5.646
 30
0.0
 40
0
 41
0
  0
VERTEX
  8
0
 10
5.48004
 20
5.55583
 30
0.0
 40
0
 41
0
  0
VERTEX
  8
0
 10
5.48004
 20
5.55578
 30
0.0
 40
0
 41
0
  0
VERTEX
  8
0
 10
5.48188
 20
5.54753
 30
0.0
 40
0
 41
0
  0
VERTEX
  8
0
 10
5.49533
 20
5.4866
 30
0.0
 40
0
 41
0
  0
VERTEX
  8
0
 10
5.54644
 20
5.25521
 30
0.0
 40
0
 41
0
  0
VERTEX
  8
0
 10
5.55994
 20
5.19407
 30
0.0
 40
0
 41
0
  0
VERTEX
  8
0
 10
5.37756
 20
5.08675
 30
0.0
 40
0
 41
0
  0
VERTEX
  8
0
 10
5.35926
 20
5.07601
 30
0.0
 40
0
 41
0
  0
VERTEX
  8
0
 10
5.18658
 20
4.9745
 30
0.0
 40
0
 41
0
  0
VERTEX
  8
0
 10
5.09196
 20
4.86768
 30
0.0
 40
0
 41
0
  0
VERTEX
  8
0
 10
5.06364
 20
4.83572
 30
0.0
 40
0
 41
0
  0
VERTEX
  8
0
 10
4.94114
 20
4.69743
 30
0.0
 40
0
 41
0
  0
VERTEX
  8
0
 10
4.77983
 20
4.72374
 30
0.0
 40
0
 41
0
  0
VERTEX
  8
0
 10
4.77979
 20
4.72379
 30
0.0
 40
0
 41
0
  0
VERTEX
  8
0
 10
4.77203
 20
4.72504
 30
0.0
 40
0
 41
0
  0
VERTEX
  8
0
 10
4.77106
 20
4.72521
 30
0.0
 40
0
 41
0
  0
VERTEX
  8
0
 10
4.77029
 20
4.72444
 30
0.0
 40
0
 41
0
  0
VERTEX
  8
0
 10
4.6486
 20
4.59315
 30
0.0
 40
0
 41
0
  0
VERTEX
  8
0
 10
4.64594
 20
4.59028
 30
0.0
 40
0
 41
0
  0
VERTEX
  8
0
 10
4.64208
 20
4.58604
 30
0.0
 40
0
 41
0
  0
VERTEX
  8
0
 10
4.63558
 20
4.57889
 30
0.0
 40
0
 41
0
  0
VERTEX
  8
0
 10
4.63499
 20
4.57844
 30
0.0
 40
0
 41
0
  0
VERTEX
  8
0
 10
4.63206
 20
4.57644
 30
0.0
 40
0
 41
0
  0
VERTEX
  8
0
 10
4.59717
 20
4.54221
 30
0.0
 40
0
 41
0
  0
VERTEX
  8
0
 10
4.54172
 20
4.48361
 30
0.0
 40
0
 41
0
  0
VERTEX
  8
0
 10
4.46625
 20
4.40136
 30
0.0
 40
0
 41
0
  0
VERTEX
  8
0
 10
4.44596
 20
4.37879
 30
0.0
 40
0
 41
0
  0
VERTEX
  8
0
 10
4.3834
 20
4.3094
 30
0.0
 40
0
 41
0
  0
VERTEX
  8
0
 10
4.37164
 20
4.29639
 30
0.0
 40
0
 41
0
  0
VERTEX
  8
0
 10
4.32611
 20
4.24517
 30
0.0
 40
0
 41
0
  0
VERTEX
  8
0
 10
4.2589
 20
4.16971
 30
0.0
 40
0
 41
0
  0
VERTEX
  8
0
 10
4.21793
 20
4.12332
 30
0.0
 40
0
 41
0
  0
VERTEX
  8
0
 10
4.21349
 20
4.11833
 30
0.0
 40
0
 41
0
  0
VERTEX
  8
0
 10
4.20182
 20
4.10508
 30
0.0
 40
0
 41
0
  0
VERTEX
  8
0
 10
4.15479
 20
4.05181
 30
0.0
 40
0
 41
0
  0
VERTEX
  8
0
 10
4.14757
 20
4.04362
 30
0.0
 40
0
 41
0
  0
VERTEX
  8
0
 10
4.12924
 20
4.02289
 30
0.0
 40
0
 41
0
  0
VERTEX
  8
0
 10
3.99821
 20
3.87343
 30
0.0
 40
0
 41
0
  0
VERTEX
  8
0
 10
3.98415
 20
3.85736
 30
0.0
 40
0
 41
0
  0
VERTEX
  8
0
 10
3.87636
 20
3.73378
 30
0.0
 40
0
 41
0
  0
VERTEX
  8
0
 10
3.86231
 20
3.71761
 30
0.0
 40
0
 41
0
  0
VERTEX
  8
0
 10
3.82514
 20
3.67503
 30
0.0
 40
0
 41
0
  0
VERTEX
  8
0
 10
3.72635
 20
3.56125
 30
0.0
 40
0
 41
0
  0
VERTEX
  8
0
 10
3.72293
 20
3.55729
 30
0.0
 40
0
 41
0
  0
VERTEX
  8
0
 10
3.70301
 20
3.53435
 30
0.0
 40
0
 41
0
  0
VERTEX
  8
0
 10
3.68007
 20
3.50792
 30
0.0
 40
0
 41
0
  0
VERTEX
  8
0
 10
3.6741
 20
3.50103
 30
0.0
 40
0
 41
0
  0
VERTEX
  8
0
 10
3.65403
 20
3.47792
 30
0.0
 40
0
 41
0
  0
VERTEX
  8
0
 10
3.48247
 20
3.27951
 30
0.0
 40
0
 41
0
  0
VERTEX
  8
0
 10
3.47265
 20
3.26812
 30
0.0
 40
0
 41
0
  0
VERTEX
  8
0
 10
3.44797
 20
3.23947
 30
0.0
 40
0
 41
0
  0
VERTEX
  8
0
 10
3.28293
 20
3.04801
 30
0.0
 40
0
 41
0
  0
VERTEX
  8
0
 10
3.08708
 20
2.81993
 30
0.0
 40
0
 41
0
  0
VERTEX
  8
0
 10
3.07742
 20
2.80865
 30
0.0
 40
0
 41
0
  0
VERTEX
  8
0
 10
2.92563
 20
2.63129
 30
0.0
 40
0
 41
0
  0
VERTEX
  8
0
 10
2.88715
 20
2.58643
 30
0.0
 40
0
 41
0
  0
VERTEX
  8
0
 10
2.8846
 20
2.58344
 30
0.0
 40
0
 41
0
  0
VERTEX
  8
0
 10
2.76535
 20
2.44368
 30
0.0
 40
0
 41
0
  0
VERTEX
  8
0
 10
2.68539
 20
2.34999
 30
0.0
 40
0
 41
0
  0
VERTEX
  8
0
 10
2.57221
 20
2.21701
 30
0.0
 40
0
 41
0
  0
VERTEX
  8
0
 10
2.48394
 20
2.11328
 30
0.0
 40
0
 41
0
  0
VERTEX
  8
0
 10
2.2851
 20
1.8789
 30
0.0
 40
0
 41
0
  0
VERTEX
  8
0
 10
2.09093
 20
1.64936
 30
0.0
 40
0
 41
0
  0
VERTEX
  8
0
 10
1.95964
 20
1.49365
 30
0.0
 40
0
 41
0
  0
VERTEX
  8
0
 10
1.90365
 20
1.42719
 30
0.0
 40
0
 41
0
  0
VERTEX
  8
0
 10
1.79503
 20
1.29785
 30
0.0
 40
0
 41
0
  0
VERTEX
  8
0
 10
1.72526
 20
1.21484
 30
0.0
 40
0
 41
0
  0
VERTEX
  8
0
 10
1.69661
 20
1.18061
 30
0.0
 40
0
 41
0
  0
VERTEX
  8
0
 10
1.67404
 20
1.15359
 30
0.0
 40
0
 41
0
  0
VERTEX
  8
0
 10
1.58469
 20
1.04682
 30
0.0
 40
0
 41
0
  0
VERTEX
  8
0
 10
1.55778
 20
1.01465
 30
0.0
 40
0
 41
0
  0
VERTEX
  8
0
 10
1.45481
 20
0.89106
 30
0.0
 40
0
 41
0
  0
VERTEX
  8
0
 10
1.45285
 20
0.888726
 30
0.0
 40
0
 41
0
  0
SEQEND
 8
0
  0
POLYLINE
  8
0
 62
     254
 66
     1
 10
0
 20
0
 30
0.0
 70
     1
 40
0
 41
0
  0
VERTEX
  8
0
 10
0.436632
 20
0.35216
 30
0.0
 40
0
 41
0
  0
VERTEX
  8
0
 10
0.445313
 20
0.353569
 30
0.0
 40
0
 41
0
  0
VERTEX
  8
0
 10
0.453885
 20
0.355957
 30
0.0
 40
0
 41
0
  0
VERTEX
  8
0
 10
0.462076
 20
0.359267
 30
0.0
 40
0
 41
0
  0
VERTEX
  8
0
 10
0.469781
 20
0.363499
 30
0.0
 40
0
 41
0
  0
VERTEX
  8
0
 10
0.475424
 20
0.367404
 30
0.0
 40
0
 41
0
  0
VERTEX
  8
0
 10
0.475803
 20
0.367676
 30
0.0
 40
0
 41
0
  0
VERTEX
  8
0
 10
0.477051
 20
0.368544
 30
0.0
 40
0
 41
0
  0
VERTEX
  8
0
 10
0.483724
 20
0.374349
 30
0.0
 40
0
 41
0
  0
VERTEX
  8
0
 10
0.489637
 20
0.380968
 30
0.0
 40
0
 41
0
  0
VERTEX
  8
0
 10
0.494792
 20
0.388129
 30
0.0
 40
0
 41
0
  0
VERTEX
  8
0
 10
0.499132
 20
0.395833
 30
0.0
 40
0
 41
0
  0
VERTEX
  8
0
 10
0.502604
 20
0.403917
 30
0.0
 40
0
 41
0
  0
VERTEX
  8
0
 10
0.5051
 20
0.412435
 30
0.0
 40
0
 41
0
  0
VERTEX
  8
0
 10
0.506674
 20
0.421115
 30
0.0
 40
0
 41
0
  0
VERTEX
  8
0
 10
0.507107
 20
0.427951
 30
0.0
 40
0
 41
0
  0
VERTEX
  8
0
 10
0.507215
 20
0.429958
 30
0.0
 40
0
 41
0
  0
VERTEX
  8
0
 10
0.506782
 20
0.438803
 30
0.0
 40
0
 41
0
  0
VERTEX
  8
0
 10
0.505371
 20
0.447537
 30
0.0
 40
0
 41
0
  0
VERTEX
  8
0
 10
0.502983
 20
0.456
 30
0.0
 40
0
 41
0
  0
VERTEX
  8
0
 10
0.499675
 20
0.464193
 30
0.0
 40
0
 41
0
  0
VERTEX
  8
0
 10
0.495497
 20
0.472006
 30
0.0
 40
0
 41
0
  0
VERTEX
  8
0
 10
0.490397
 20
0.479275
 30
0.0
 40
0
 41
0
  0
VERTEX
  8
0
 10
0.484592
 20
0.48584
 30
0.0
 40
0
 41
0
  0
VERTEX
  8
0
 10
0.477974
 20
0.491808
 30
0.0
 40
0
 41
0
  0
VERTEX
  8
0
 10
0.475803
 20
0.493381
 30
0.0
 40
0
 41
0
  0
VERTEX
  8
0
 10
0.475424
 20
0.493707
 30
0.0
 40
0
 41
0
  0
VERTEX
  8
0
 10
0.470811
 20
0.497017
 30
0.0
 40
0
 41
0
  0
VERTEX
  8
0
 10
0.463162
 20
0.501357
 30
0.0
 40
0
 41
0
  0
VERTEX
  8
0
 10
0.455024
 20
0.504775
 30
0.0
 40
0
 41
0
  0
VERTEX
  8
0
 10
0.446506
 20
0.507269
 30
0.0
 40
0
 41
0
  0
VERTEX
  8
0
 10
0.439128
 20
0.508572
 30
0.0
 40
0
 41
0
  0
VERTEX
  8
0
 10
0.437771
 20
0.508789
 30
0.0
 40
0
 41
0
  0
VERTEX
  8
0
 10
0.428982
 20
0.509386
 30
0.0
 40
0
 41
0
  0
VERTEX
  8
0
 10
0.420139
 20
0.508951
 30
0.0
 40
0
 41
0
  0
VERTEX
  8
0
 10
0.417751
 20
0.508572
 30
0.0
 40
0
 41
0
  0
VERTEX
  8
0
 10
0.411404
 20
0.507542
 30
0.0
 40
0
 41
0
  0
VERTEX
  8
0
 10
0.40294
 20
0.505154
 30
0.0
 40
0
 41
0
  0
VERTEX
  8
0
 10
0.395182
 20
0.502061
 30
0.0
 40
0
 41
0
  0
VERTEX
  8
0
 10
0.394749
 20
0.501844
 30
0.0
 40
0
 41
0
  0
VERTEX
  8
0
 10
0.38699
 20
0.497612
 30
0.0
 40
0
 41
0
  0
VERTEX
  8
0
 10
0.379665
 20
0.492567
 30
0.0
 40
0
 41
0
  0
VERTEX
  8
0
 10
0.373047
 20
0.486708
 30
0.0
 40
0
 41
0
  0
VERTEX
  8
0
 10
0.367133
 20
0.480197
 30
0.0
 40
0
 41
0
  0
VERTEX
  8
0
 10
0.361979
 20
0.473036
 30
0.0
 40
0
 41
0
  0
VERTEX
  8
0
 10
0.357585
 20
0.465332
 30
0.0
 40
0
 41
0
  0
VERTEX
  8
0
 10
0.354167
 20
0.45714
 30
0.0
 40
0
 41
0
  0
VERTEX
  8
0
 10
0.351671
 20
0.448676
 30
0.0
 40
0
 41
0
  0
VERTEX
  8
0
 10
0.350097
 20
0.439996
 30
0.0
 40
0
 41
0
  0
VERTEX
  8
0
 10
0.349556
 20
0.431153
 30
0.0
 40
0
 41
0
  0
VERTEX
  8
0
 10
0.349664
 20
0.427951
 30
0.0
 40
0
 41
0
  0
VERTEX
  8
0
 10
0.349989
 20
0.42231
 30
0.0
 40
0
 41
0
  0
VERTEX
  8
0
 10
0.3514
 20
0.413629
 30
0.0
 40
0
 41
0
  0
VERTEX
  8
0
 10
0.353788
 20
0.405057
 30
0.0
 40
0
 41
0
  0
VERTEX
  8
0
 10
0.357096
 20
0.396864
 30
0.0
 40
0
 41
0
  0
VERTEX
  8
0
 10
0.361328
 20
0.389106
 30
0.0
 40
0
 41
0
  0
VERTEX
  8
0
 10
0.366374
 20
0.38189
 30
0.0
 40
0
 41
0
  0
VERTEX
  8
0
 10
0.372233
 20
0.375217
 30
0.0
 40
0
 41
0
  0
VERTEX
  8
0
 10
0.378743
 20
0.369303
 30
0.0
 40
0
 41
0
  0
VERTEX
  8
0
 10
0.38596
 20
0.36415
 30
0.0
 40
0
 41
0
  0
VERTEX
  8
0
 10
0.393608
 20
0.35981
 30
0.0
 40
0
 41
0
  0
VERTEX
  8
0
 10
0.395182
 20
0.359104
 30
0.0
 40
0
 41
0
  0
VERTEX
  8
0
 10
0.401801
 20
0.356337
 30
0.0
 40
0
 41
0
  0
VERTEX
  8
0
 10
0.410265
 20
0.353842
 30
0.0
 40
0
 41
0
  0
VERTEX
  8
0
 10
0.418946
 20
0.352268
 30
0.0
 40
0
 41
0
  0
VERTEX
  8
0
 10
0.427789
 20
0.351725
 30
0.0
 40
0
 41
0
  0
VERTEX
  8
0
 10
0.436632
 20
0.35216
 30
0.0
 40
0
 41
0
  0
SEQEND
 8
0
  0
POLYLINE
  8
0
 62
     254
 66
     1
 10
0
 20
0
 30
0.0
 70
     1
 40
0
 41
0
  0
VERTEX
  8
0
 10
0.516439
 20
0.588758
 30
0.0
 40
0
 41
0
  0
VERTEX
  8
0
 10
0.521376
 20
0.576497
 30
0.0
 40
0
 41
0
  0
VERTEX
  8
0
 10
0.527724
 20
0.564833
 30
0.0
 40
0
 41
0
  0
VERTEX
  8
0
 10
0.535319
 20
0.553982
 30
0.0
 40
0
 41
0
  0
VERTEX
  8
0
 10
0.544054
 20
0.544
 30
0.0
 40
0
 41
0
  0
VERTEX
  8
0
 10
0.553874
 20
0.535101
 30
0.0
 40
0
 41
0
  0
VERTEX
  8
0
 10
0.564615
 20
0.527344
 30
0.0
 40
0
 41
0
  0
VERTEX
  8
0
 10
0.576172
 20
0.520887
 30
0.0
 40
0
 41
0
  0
VERTEX
  8
0
 10
0.588379
 20
0.515679
 30
0.0
 40
0
 41
0
  0
VERTEX
  8
0
 10
0.601129
 20
0.511936
 30
0.0
 40
0
 41
0
  0
VERTEX
  8
0
 10
0.61415
 20
0.509603
 30
0.0
 40
0
 41
0
  0
VERTEX
  8
0
 10
0.627388
 20
0.508789
 30
0.0
 40
0
 41
0
  0
VERTEX
  8
0
 10
0.637099
 20
0.509224
 30
0.0
 40
0
 41
0
  0
VERTEX
  8
0
 10
0.640625
 20
0.509386
 30
0.0
 40
0
 41
0
  0
VERTEX
  8
0
 10
0.6537
 20
0.511556
 30
0.0
 40
0
 41
0
  0
VERTEX
  8
0
 10
0.66645
 20
0.515136
 30
0.0
 40
0
 41
0
  0
VERTEX
  8
0
 10
0.678765
 20
0.520074
 30
0.0
 40
0
 41
0
  0
VERTEX
  8
0
 10
0.690375
 20
0.526421
 30
0.0
 40
0
 41
0
  0
VERTEX
  8
0
 10
0.701281
 20
0.533963
 30
0.0
 40
0
 41
0
  0
VERTEX
  8
0
 10
0.711208
 20
0.542751
 30
0.0
 40
0
 41
0
  0
VERTEX
  8
0
 10
0.720107
 20
0.552572
 30
0.0
 40
0
 41
0
  0
VERTEX
  8
0
 10
0.727865
 20
0.563314
 30
0.0
 40
0
 41
0
  0
VERTEX
  8
0
 10
0.734375
 20
0.574869
 30
0.0
 40
0
 41
0
  0
VERTEX
  8
0
 10
0.739583
 20
0.587076
 30
0.0
 40
0
 41
0
  0
VERTEX
  8
0
 10
0.740181
 20
0.589193
 30
0.0
 40
0
 41
0
  0
VERTEX
  8
0
 10
0.743326
 20
0.599772
 30
0.0
 40
0
 41
0
  0
VERTEX
  8
0
 10
0.74566
 20
0.612847
 30
0.0
 40
0
 41
0
  0
VERTEX
  8
0
 10
0.746474
 20
0.626085
 30
0.0
 40
0
 41
0
  0
VERTEX
  8
0
 10
0.745822
 20
0.639268
 30
0.0
 40
0
 41
0
  0
VERTEX
  8
0
 10
0.743761
 20
0.652399
 30
0.0
 40
0
 41
0
  0
VERTEX
  8
0
 10
0.740181
 20
0.665147
 30
0.0
 40
0
 41
0
  0
VERTEX
  8
0
 10
0.738226
 20
0.669814
 30
0.0
 40
0
 41
0
  0
VERTEX
  8
0
 10
0.735135
 20
0.677463
 30
0.0
 40
0
 41
0
  0
VERTEX
  8
0
 10
0.728842
 20
0.689074
 30
0.0
 40
0
 41
0
  0
VERTEX
  8
0
 10
0.721246
 20
0.699978
 30
0.0
 40
0
 41
0
  0
VERTEX
  8
0
 10
0.712511
 20
0.709907
 30
0.0
 40
0
 41
0
  0
VERTEX
  8
0
 10
0.702692
 20
0.718804
 30
0.0
 40
0
 41
0
  0
VERTEX
  8
0
 10
0.691949
 20
0.726563
 30
0.0
 40
0
 41
0
  0
VERTEX
  8
0
 10
0.680393
 20
0.733074
 30
0.0
 40
0
 41
0
  0
VERTEX
  8
0
 10
0.668186
 20
0.738226
 30
0.0
 40
0
 41
0
  0
VERTEX
  8
0
 10
0.65549
 20
0.742025
 30
0.0
 40
0
 41
0
  0
VERTEX
  8
0
 10
0.642415
 20
0.744303
 30
0.0
 40
0
 41
0
  0
VERTEX
  8
0
 10
0.637099
 20
0.744683
 30
0.0
 40
0
 41
0
  0
VERTEX
  8
0
 10
0.629178
 20
0.745171
 30
0.0
 40
0
 41
0
  0
VERTEX
  8
0
 10
0.61594
 20
0.744521
 30
0.0
 40
0
 41
0
  0
VERTEX
  8
0
 10
0.602865
 20
0.742404
 30
0.0
 40
0
 41
0
  0
VERTEX
  8
0
 10
0.590115
 20
0.738878
 30
0.0
 40
0
 41
0
  0
VERTEX
  8
0
 10
0.5778
 20
0.733832
 30
0.0
 40
0
 41
0
  0
VERTEX
  8
0
 10
0.566189
 20
0.727539
 30
0.0
 40
0
 41
0
  0
VERTEX
  8
0
 10
0.555285
 20
0.719943
 30
0.0
 40
0
 41
0
  0
VERTEX
  8
0
 10
0.545356
 20
0.711154
 30
0.0
 40
0
 41
0
  0
VERTEX
  8
0
 10
0.536404
 20
0.701389
 30
0.0
 40
0
 41
0
  0
VERTEX
  8
0
 10
0.528646
 20
0.690647
 30
0.0
 40
0
 41
0
  0
VERTEX
  8
0
 10
0.52219
 20
0.679036
 30
0.0
 40
0
 41
0
  0
VERTEX
  8
0
 10
0.518283
 20
0.669814
 30
0.0
 40
0
 41
0
  0
VERTEX
  8
0
 10
0.517036
 20
0.666829
 30
0.0
 40
0
 41
0
  0
VERTEX
  8
0
 10
0.513237
 20
0.654189
 30
0.0
 40
0
 41
0
  0
VERTEX
  8
0
 10
0.510906
 20
0.641114
 30
0.0
 40
0
 41
0
  0
VERTEX
  8
0
 10
0.510092
 20
0.627875
 30
0.0
 40
0
 41
0
  0
VERTEX
  8
0
 10
0.510688
 20
0.614637
 30
0.0
 40
0
 41
0
  0
VERTEX
  8
0
 10
0.512858
 20
0.601508
 30
0.0
 40
0
 41
0
  0
VERTEX
  8
0
 10
0.516276
 20
0.589193
 30
0.0
 40
0
 41
0
  0
VERTEX
  8
0
 10
0.516439
 20
0.588758
 30
0.0
 40
0
 41
0
  0
SEQEND
 8
0
  0
POLYLINE
  8
0
 62
     254
 66
     1
 10
0
 20
0
 30
0.0
 70
     1
 40
0
 41
0
  0
VERTEX
  8
0
 10
1.34684
 20
1.11898
 30
0.0
 40
0
 41
0
  0
VERTEX
  8
0
 10
1.35032
 20
1.12712
 30
0.0
 40
0
 41
0
  0
VERTEX
  8
0
 10
1.35287
 20
1.13558
 30
0.0
 40
0
 41
0
  0
VERTEX
  8
0
 10
1.35438
 20
1.14431
 30
0.0
 40
0
 41
0
  0
VERTEX
  8
0
 10
1.35493
 20
1.1531
 30
0.0
 40
0
 41
0
  0
VERTEX
  8
0
 10
1.35493
 20
1.15359
 30
0.0
 40
0
 41
0
  0
VERTEX
  8
0
 10
1.35449
 20
1.16195
 30
0.0
 40
0
 41
0
  0
VERTEX
  8
0
 10
1.35308
 20
1.17068
 30
0.0
 40
0
 41
0
  0
VERTEX
  8
0
 10
1.35069
 20
1.17914
 30
0.0
 40
0
 41
0
  0
VERTEX
  8
0
 10
1.34738
 20
1.18734
 30
0.0
 40
0
 41
0
  0
VERTEX
  8
0
 10
1.34315
 20
1.19515
 30
0.0
 40
0
 41
0
  0
VERTEX
  8
0
 10
1.34272
 20
1.1958
 30
0.0
 40
0
 41
0
  0
VERTEX
  8
0
 10
1.33811
 20
1.20242
 30
0.0
 40
0
 41
0
  0
VERTEX
  8
0
 10
1.3323
 20
1.20898
 30
0.0
 40
0
 41
0
  0
VERTEX
  8
0
 10
1.32574
 20
1.21495
 30
0.0
 40
0
 41
0
  0
VERTEX
  8
0
 10
1.31852
 20
1.22016
 30
0.0
 40
0
 41
0
  0
VERTEX
  8
0
 10
1.31082
 20
1.2245
 30
0.0
 40
0
 41
0
  0
VERTEX
  8
0
 10
1.30273
 20
1.22792
 30
0.0
 40
0
 41
0
  0
VERTEX
  8
0
 10
1.29422
 20
1.23041
 30
0.0
 40
0
 41
0
  0
VERTEX
  8
0
 10
1.28554
 20
1.23199
 30
0.0
 40
0
 41
0
  0
VERTEX
  8
0
 10
1.28212
 20
1.23221
 30
0.0
 40
0
 41
0
  0
VERTEX
  8
0
 10
1.27669
 20
1.23253
 30
0.0
 40
0
 41
0
  0
VERTEX
  8
0
 10
1.2679
 20
1.2321
 30
0.0
 40
0
 41
0
  0
VERTEX
  8
0
 10
1.25912
 20
1.23069
 30
0.0
 40
0
 41
0
  0
VERTEX
  8
0
 10
1.25065
 20
1.22835
 30
0.0
 40
0
 41
0
  0
VERTEX
  8
0
 10
1.24246
 20
1.22499
 30
0.0
 40
0
 41
0
  0
VERTEX
  8
0
 10
1.23465
 20
1.22076
 30
0.0
 40
0
 41
0
  0
VERTEX
  8
0
 10
1.22743
 20
1.21577
 30
0.0
 40
0
 41
0
  0
VERTEX
  8
0
 10
1.22081
 20
1.20985
 30
0.0
 40
0
 41
0
  0
VERTEX
  8
0
 10
1.21484
 20
1.20334
 30
0.0
 40
0
 41
0
  0
VERTEX
  8
0
 10
1.20964
 20
1.19618
 30
0.0
 40
0
 41
0
  0
VERTEX
  8
0
 10
1.2053
 20
1.18848
 30
0.0
 40
0
 41
0
  0
VERTEX
  8
0
 10
1.20188
 20
1.18028
 30
0.0
 40
0
 41
0
  0
VERTEX
  8
0
 10
1.2015
 20
1.17898
 30
0.0
 40
0
 41
0
  0
VERTEX
  8
0
 10
1.19938
 20
1.17182
 30
0.0
 40
0
 41
0
  0
VERTEX
  8
0
 10
1.19819
 20
1.16504
 30
0.0
 40
0
 41
0
  0
VERTEX
  8
0
 10
1.19786
 20
1.16314
 30
0.0
 40
0
 41
0
  0
VERTEX
  8
0
 10
1.19727
 20
1.15435
 30
0.0
 40
0
 41
0
  0
VERTEX
  8
0
 10
1.19727
 20
1.15359
 30
0.0
 40
0
 41
0
  0
VERTEX
  8
0
 10
1.1977
 20
1.14545
 30
0.0
 40
0
 41
0
  0
VERTEX
  8
0
 10
1.19911
 20
1.13677
 30
0.0
 40
0
 41
0
  0
VERTEX
  8
0
 10
1.2015
 20
1.12826
 30
0.0
 40
0
 41
0
  0
VERTEX
  8
0
 10
1.20481
 20
1.12001
 30
0.0
 40
0
 41
0
  0
VERTEX
  8
0
 10
1.20904
 20
1.1123
 30
0.0
 40
0
 41
0
  0
VERTEX
  8
0
 10
1.21408
 20
1.10503
 30
0.0
 40
0
 41
0
  0
VERTEX
  8
0
 10
1.21994
 20
1.09836
 30
0.0
 40
0
 41
0
  0
VERTEX
  8
0
 10
1.22645
 20
1.09245
 30
0.0
 40
0
 41
0
  0
VERTEX
  8
0
 10
1.23362
 20
1.08729
 30
0.0
 40
0
 41
0
  0
VERTEX
  8
0
 10
1.24132
 20
1.08295
 30
0.0
 40
0
 41
0
  0
VERTEX
  8
0
 10
1.24951
 20
1.07948
 30
0.0
 40
0
 41
0
  0
VERTEX
  8
0
 10
1.25798
 20
1.07699
 30
0.0
 40
0
 41
0
  0
VERTEX
  8
0
 10
1.26666
 20
1.07541
 30
0.0
 40
0
 41
0
  0
VERTEX
  8
0
 10
1.2755
 20
1.07487
 30
0.0
 40
0
 41
0
  0
VERTEX
  8
0
 10
1.28212
 20
1.0752
 30
0.0
 40
0
 41
0
  0
VERTEX
  8
0
 10
1.28434
 20
1.0753
 30
0.0
 40
0
 41
0
  0
VERTEX
  8
0
 10
1.29302
 20
1.07671
 30
0.0
 40
0
 41
0
  0
VERTEX
  8
0
 10
1.30159
 20
1.0791
 30
0.0
 40
0
 41
0
  0
VERTEX
  8
0
 10
1.30979
 20
1.08241
 30
0.0
 40
0
 41
0
  0
VERTEX
  8
0
 10
1.31755
 20
1.08664
 30
0.0
 40
0
 41
0
  0
VERTEX
  8
0
 10
1.32476
 20
1.09169
 30
0.0
 40
0
 41
0
  0
VERTEX
  8
0
 10
1.33143
 20
1.09755
 30
0.0
 40
0
 41
0
  0
VERTEX
  8
0
 10
1.33735
 20
1.10411
 30
0.0
 40
0
 41
0
  0
VERTEX
  8
0
 10
1.3425
 20
1.11127
 30
0.0
 40
0
 41
0
  0
VERTEX
  8
0
 10
1.3437
 20
1.11328
 30
0.0
 40
0
 41
0
  0
VERTEX
  8
0
 10
1.34684
 20
1.11898
 30
0.0
 40
0
 41
0
  0
SEQEND
 8
0
  0
POLYLINE
  8
0
 62
     254
 66
     1
 10
0
 20
0
 30
0.0
 70
     1
 40
0
 41
0
  0
VERTEX
  8
0
 10
0.705567
 20
1.23107
 30
0.0
 40
0
 41
0
  0
VERTEX
  8
0
 10
0.706597
 20
1.23427
 30
0.0
 40
0
 41
0
  0
VERTEX
  8
0
 10
0.708333
 20
1.23942
 30
0.0
 40
0
 41
0
  0
VERTEX
  8
0
 10
0.710232
 20
1.24805
 30
0.0
 40
0
 41
0
  0
VERTEX
  8
0
 10
0.711154
 20
1.25684
 30
0.0
 40
0
 41
0
  0
VERTEX
  8
0
 10
0.711046
 20
1.26568
 30
0.0
 40
0
 41
0
  0
VERTEX
  8
0
 10
0.709961
 20
1.27447
 30
0.0
 40
0
 41
0
  0
VERTEX
  8
0
 10
0.7079
 20
1.28304
 30
0.0
 40
0
 41
0
  0
VERTEX
  8
0
 10
0.704861
 20
1.2914
 30
0.0
 40
0
 41
0
  0
VERTEX
  8
0
 10
0.700956
 20
1.29926
 30
0.0
 40
0
 41
0
  0
VERTEX
  8
0
 10
0.696181
 20
1.30675
 30
0.0
 40
0
 41
0
  0
VERTEX
  8
0
 10
0.690593
 20
1.31358
 30
0.0
 40
0
 41
0
  0
VERTEX
  8
0
 10
0.689236
 20
1.31489
 30
0.0
 40
0
 41
0
  0
VERTEX
  8
0
 10
0.684244
 20
1.31977
 30
0.0
 40
0
 41
0
  0
VERTEX
  8
0
 10
0.6773
 20
1.3252
 30
0.0
 40
0
 41
0
  0
VERTEX
  8
0
 10
0.66976
 20
1.32981
 30
0.0
 40
0
 41
0
  0
VERTEX
  8
0
 10
0.661729
 20
1.33355
 30
0.0
 40
0
 41
0
  0
VERTEX
  8
0
 10
0.653375
 20
1.33637
 30
0.0
 40
0
 41
0
  0
VERTEX
  8
0
 10
0.644749
 20
1.33822
 30
0.0
 40
0
 41
0
  0
VERTEX
  8
0
 10
0.637099
 20
1.33903
 30
0.0
 40
0
 41
0
  0
VERTEX
  8
0
 10
0.63596
 20
1.33914
 30
0.0
 40
0
 41
0
  0
VERTEX
  8
0
 10
0.627115
 20
1.33903
 30
0.0
 40
0
 41
0
  0
VERTEX
  8
0
 10
0.618326
 20
1.33794
 30
0.0
 40
0
 41
0
  0
VERTEX
  8
0
 10
0.6097
 20
1.33588
 30
0.0
 40
0
 41
0
  0
VERTEX
  8
0
 10
0.6014
 20
1.33284
 30
0.0
 40
0
 41
0
  0
VERTEX
  8
0
 10
0.593533
 20
1.32899
 30
0.0
 40
0
 41
0
  0
VERTEX
  8
0
 10
0.586046
 20
1.32416
 30
0.0
 40
0
 41
0
  0
VERTEX
  8
0
 10
0.579264
 20
1.31858
 30
0.0
 40
0
 41
0
  0
VERTEX
  8
0
 10
0.575629
 20
1.31489
 30
0.0
 40
0
 41
0
  0
VERTEX
  8
0
 10
0.573079
 20
1.31228
 30
0.0
 40
0
 41
0
  0
VERTEX
  8
0
 10
0.567654
 20
1.30528
 30
0.0
 40
0
 41
0
  0
VERTEX
  8
0
 10
0.562989
 20
1.29774
 30
0.0
 40
0
 41
0
  0
VERTEX
  8
0
 10
0.559244
 20
1.28977
 30
0.0
 40
0
 41
0
  0
VERTEX
  8
0
 10
0.556424
 20
1.28136
 30
0.0
 40
0
 41
0
  0
VERTEX
  8
0
 10
0.554579
 20
1.27273
 30
0.0
 40
0
 41
0
  0
VERTEX
  8
0
 10
0.553657
 20
1.264
 30
0.0
 40
0
 41
0
  0
VERTEX
  8
0
 10
0.553765
 20
1.2551
 30
0.0
 40
0
 41
0
  0
VERTEX
  8
0
 10
0.55485
 20
1.24631
 30
0.0
 40
0
 41
0
  0
VERTEX
  8
0
 10
0.556912
 20
1.23774
 30
0.0
 40
0
 41
0
  0
VERTEX
  8
0
 10
0.55816
 20
1.23427
 30
0.0
 40
0
 41
0
  0
VERTEX
  8
0
 10
0.55995
 20
1.22944
 30
0.0
 40
0
 41
0
  0
VERTEX
  8
0
 10
0.563857
 20
1.22152
 30
0.0
 40
0
 41
0
  0
VERTEX
  8
0
 10
0.568631
 20
1.21408
 30
0.0
 40
0
 41
0
  0
VERTEX
  8
0
 10
0.574219
 20
1.20725
 30
0.0
 40
0
 41
0
  0
VERTEX
  8
0
 10
0.580513
 20
1.20106
 30
0.0
 40
0
 41
0
  0
VERTEX
  8
0
 10
0.587457
 20
1.19564
 30
0.0
 40
0
 41
0
  0
VERTEX
  8
0
 10
0.595053
 20
1.19103
 30
0.0
 40
0
 41
0
  0
VERTEX
  8
0
 10
0.603028
 20
1.18728
 30
0.0
 40
0
 41
0
  0
VERTEX
  8
0
 10
0.611436
 20
1.18446
 30
0.0
 40
0
 41
0
  0
VERTEX
  8
0
 10
0.620063
 20
1.18256
 30
0.0
 40
0
 41
0
  0
VERTEX
  8
0
 10
0.628851
 20
1.18169
 30
0.0
 40
0
 41
0
  0
VERTEX
  8
0
 10
0.637099
 20
1.18175
 30
0.0
 40
0
 41
0
  0
VERTEX
  8
0
 10
0.637696
 20
1.18175
 30
0.0
 40
0
 41
0
  0
VERTEX
  8
0
 10
0.646485
 20
1.18289
 30
0.0
 40
0
 41
0
  0
VERTEX
  8
0
 10
0.655057
 20
1.1849
 30
0.0
 40
0
 41
0
  0
VERTEX
  8
0
 10
0.663357
 20
1.18793
 30
0.0
 40
0
 41
0
  0
VERTEX
  8
0
 10
0.671278
 20
1.19184
 30
0.0
 40
0
 41
0
  0
VERTEX
  8
0
 10
0.678711
 20
1.19667
 30
0.0
 40
0
 41
0
  0
VERTEX
  8
0
 10
0.685547
 20
1.2022
 30
0.0
 40
0
 41
0
  0
VERTEX
  8
0
 10
0.691732
 20
1.20855
 30
0.0
 40
0
 41
0
  0
VERTEX
  8
0
 10
0.697157
 20
1.21549
 30
0.0
 40
0
 41
0
  0
VERTEX
  8
0
 10
0.701768
 20
1.22304
 30
0.0
 40
0
 41
0
  0
VERTEX
  8
0
 10
0.705567
 20
1.23107
 30
0.0
 40
0
 41
0
  0
SEQEND
 8
0
  0
POLYLINE
  8
0
 62
     254
 66
     1
 10
0
 20
0
 30
0.0
 70
     1
 40
0
 41
0
  0
VERTEX
  8
0
 10
5.28928
 20
5.31451
 30
0.0
 40
0
 41
0
  0
VERTEX
  8
0
 10
5.28982
 20
5.32215
 30
0.0
 40
0
 41
0
  0
VERTEX
  8
0
 10
5.28988
 20
5.3234
 30
0.0
 40
0
 41
0
  0
VERTEX
  8
0
 10
5.28933
 20
5.33197
 30
0.0
 40
0
 41
0
  0
VERTEX
  8
0
 10
5.28933
 20
5.33203
 30
0.0
 40
0
 41
0
  0
VERTEX
  8
0
 10
5.28851
 20
5.34494
 30
0.0
 40
0
 41
0
  0
VERTEX
  8
0
 10
5.28825
 20
5.34636
 30
0.0
 40
0
 41
0
  0
VERTEX
  8
0
 10
5.28683
 20
5.35363
 30
0.0
 40
0
 41
0
  0
VERTEX
  8
0
 10
5.28276
 20
5.36199
 30
0.0
 40
0
 41
0
  0
VERTEX
  8
0
 10
5.27794
 20
5.368
 30
0.0
 40
0
 41
0
  0
VERTEX
  8
0
 10
5.27647
 20
5.36974
 30
0.0
 40
0
 41
0
  0
VERTEX
  8
0
 10
5.26818
 20
5.37679
 30
0.0
 40
0
 41
0
  0
VERTEX
  8
0
 10
5.25792
 20
5.38286
 30
0.0
 40
0
 41
0
  0
VERTEX
  8
0
 10
5.25754
 20
5.38303
 30
0.0
 40
0
 41
0
  0
VERTEX
  8
0
 10
5.25456
 20
5.38428
 30
0.0
 40
0
 41
0
  0
VERTEX
  8
0
 10
5.2461
 20
5.38786
 30
0.0
 40
0
 41
0
  0
VERTEX
  8
0
 10
5.23301
 20
5.39165
 30
0.0
 40
0
 41
0
  0
VERTEX
  8
0
 10
5.23296
 20
5.39165
 30
0.0
 40
0
 41
0
  0
VERTEX
  8
0
 10
5.21881
 20
5.39415
 30
0.0
 40
0
 41
0
  0
VERTEX
  8
0
 10
5.204
 20
5.39529
 30
0.0
 40
0
 41
0
  0
VERTEX
  8
0
 10
5.18896
 20
5.39507
 30
0.0
 40
0
 41
0
  0
VERTEX
  8
0
 10
5.15403
 20
5.3929
 30
0.0
 40
0
 41
0
  0
VERTEX
  8
0
 10
5.15235
 20
5.39279
 30
0.0
 40
0
 41
0
  0
VERTEX
  8
0
 10
5.15207
 20
5.39274
 30
0.0
 40
0
 41
0
  0
VERTEX
  8
0
 10
5.15169
 20
5.39268
 30
0.0
 40
0
 41
0
  0
VERTEX
  8
0
 10
5.13704
 20
5.39111
 30
0.0
 40
0
 41
0
  0
VERTEX
  8
0
 10
5.1225
 20
5.38818
 30
0.0
 40
0
 41
0
  0
VERTEX
  8
0
 10
5.10878
 20
5.38396
 30
0.0
 40
0
 41
0
  0
VERTEX
  8
0
 10
5.0995
 20
5.37993
 30
0.0
 40
0
 41
0
  0
VERTEX
  8
0
 10
5.09625
 20
5.37853
 30
0.0
 40
0
 41
0
  0
VERTEX
  8
0
 10
5.08713
 20
5.37326
 30
0.0
 40
0
 41
0
  0
VERTEX
  8
0
 10
5.08507
 20
5.37207
 30
0.0
 40
0
 41
0
  0
VERTEX
  8
0
 10
5.07574
 20
5.36481
 30
0.0
 40
0
 41
0
  0
VERTEX
  8
0
 10
5.06831
 20
5.35682
 30
0.0
 40
0
 41
0
  0
VERTEX
  8
0
 10
5.06304
 20
5.34831
 30
0.0
 40
0
 41
0
  0
VERTEX
  8
0
 10
5.06239
 20
5.34636
 30
0.0
 40
0
 41
0
  0
VERTEX
  8
0
 10
5.06006
 20
5.33951
 30
0.0
 40
0
 41
0
  0
VERTEX
  8
0
 10
5.0599
 20
5.33735
 30
0.0
 40
0
 41
0
  0
VERTEX
  8
0
 10
5.0594
 20
5.33068
 30
0.0
 40
0
 41
0
  0
VERTEX
  8
0
 10
5.06076
 20
5.30914
 30
0.0
 40
0
 41
0
  0
VERTEX
  8
0
 10
5.06131
 20
5.30621
 30
0.0
 40
0
 41
0
  0
VERTEX
  8
0
 10
5.0625
 20
5.30046
 30
0.0
 40
0
 41
0
  0
VERTEX
  8
0
 10
5.0656
 20
5.29406
 30
0.0
 40
0
 41
0
  0
VERTEX
  8
0
 10
5.06651
 20
5.2921
 30
0.0
 40
0
 41
0
  0
VERTEX
  8
0
 10
5.07281
 20
5.28429
 30
0.0
 40
0
 41
0
  0
VERTEX
  8
0
 10
5.08117
 20
5.27729
 30
0.0
 40
0
 41
0
  0
VERTEX
  8
0
 10
5.09136
 20
5.27121
 30
0.0
 40
0
 41
0
  0
VERTEX
  8
0
 10
5.10058
 20
5.26731
 30
0.0
 40
0
 41
0
  0
VERTEX
  8
0
 10
5.10275
 20
5.26639
 30
0.0
 40
0
 41
0
  0
VERTEX
  8
0
 10
5.10319
 20
5.26617
 30
0.0
 40
0
 41
0
  0
VERTEX
  8
0
 10
5.11632
 20
5.26243
 30
0.0
 40
0
 41
0
  0
VERTEX
  8
0
 10
5.13049
 20
5.25988
 30
0.0
 40
0
 41
0
  0
VERTEX
  8
0
 10
5.14529
 20
5.25874
 30
0.0
 40
0
 41
0
  0
VERTEX
  8
0
 10
5.15235
 20
5.25885
 30
0.0
 40
0
 41
0
  0
VERTEX
  8
0
 10
5.16037
 20
5.25896
 30
0.0
 40
0
 41
0
  0
VERTEX
  8
0
 10
5.19726
 20
5.26129
 30
0.0
 40
0
 41
0
  0
VERTEX
  8
0
 10
5.20497
 20
5.2621
 30
0.0
 40
0
 41
0
  0
VERTEX
  8
0
 10
5.20497
 20
5.26215
 30
0.0
 40
0
 41
0
  0
VERTEX
  8
0
 10
5.21224
 20
5.26292
 30
0.0
 40
0
 41
0
  0
VERTEX
  8
0
 10
5.22678
 20
5.2659
 30
0.0
 40
0
 41
0
  0
VERTEX
  8
0
 10
5.23301
 20
5.26779
 30
0.0
 40
0
 41
0
  0
VERTEX
  8
0
 10
5.23514
 20
5.26844
 30
0.0
 40
0
 41
0
  0
VERTEX
  8
0
 10
5.23525
 20
5.2685
 30
0.0
 40
0
 41
0
  0
VERTEX
  8
0
 10
5.2405
 20
5.27013
 30
0.0
 40
0
 41
0
  0
VERTEX
  8
0
 10
5.24832
 20
5.27344
 30
0.0
 40
0
 41
0
  0
VERTEX
  8
0
 10
5.2531
 20
5.2755
 30
0.0
 40
0
 41
0
  0
VERTEX
  8
0
 10
5.26421
 20
5.28196
 30
0.0
 40
0
 41
0
  0
VERTEX
  8
0
 10
5.2736
 20
5.28922
 30
0.0
 40
0
 41
0
  0
VERTEX
  8
0
 10
5.28097
 20
5.29725
 30
0.0
 40
0
 41
0
  0
VERTEX
  8
0
 10
5.28624
 20
5.30572
 30
0.0
 40
0
 41
0
  0
VERTEX
  8
0
 10
5.28928
 20
5.31451
 30
0.0
 40
0
 41
0
  0
SEQEND
 8
0
  0
POLYLINE
  8
0
 62
     254
 66
     1
 10
0
 20
0
 30
0.0
 70
     1
 40
0
 41
0
  0
VERTEX
  8
0
 10
4.86057
 20
5.685
 30
0.0
 40
0
 41
0
  0
VERTEX
  8
0
 10
4.85943
 20
5.69536
 30
0.0
 40
0
 41
0
  0
VERTEX
  8
0
 10
4.85894
 20
5.69997
 30
0.0
 40
0
 41
0
  0
VERTEX
  8
0
 10
4.85596
 20
5.71451
 30
0.0
 40
0
 41
0
  0
VERTEX
  8
0
 10
4.85471
 20
5.71864
 30
0.0
 40
0
 41
0
  0
VERTEX
  8
0
 10
4.85172
 20
5.72825
 30
0.0
 40
0
 41
0
  0
VERTEX
  8
0
 10
4.84636
 20
5.74083
 30
0.0
 40
0
 41
0
  0
VERTEX
  8
0
 10
4.8399
 20
5.75196
 30
0.0
 40
0
 41
0
  0
VERTEX
  8
0
 10
4.83263
 20
5.76133
 30
0.0
 40
0
 41
0
  0
VERTEX
  8
0
 10
4.82986
 20
5.76389
 30
0.0
 40
0
 41
0
  0
VERTEX
  8
0
 10
4.82454
 20
5.76872
 30
0.0
 40
0
 41
0
  0
VERTEX
  8
0
 10
4.81608
 20
5.77403
 30
0.0
 40
0
 41
0
  0
VERTEX
  8
0
 10
4.80735
 20
5.77701
 30
0.0
 40
0
 41
0
  0
VERTEX
  8
0
 10
4.80675
 20
5.77701
 30
0.0
 40
0
 41
0
  0
VERTEX
  8
0
 10
4.79844
 20
5.77761
 30
0.0
 40
0
 41
0
  0
VERTEX
  8
0
 10
4.77692
 20
5.77632
 30
0.0
 40
0
 41
0
  0
VERTEX
  8
0
 10
4.76824
 20
5.77458
 30
0.0
 40
0
 41
0
  0
VERTEX
  8
0
 10
4.75988
 20
5.77051
 30
0.0
 40
0
 41
0
  0
VERTEX
  8
0
 10
4.75549
 20
5.76699
 30
0.0
 40
0
 41
0
  0
VERTEX
  8
0
 10
4.75211
 20
5.76426
 30
0.0
 40
0
 41
0
  0
VERTEX
  8
0
 10
4.74507
 20
5.75592
 30
0.0
 40
0
 41
0
  0
VERTEX
  8
0
 10
4.74126
 20
5.74951
 30
0.0
 40
0
 41
0
  0
VERTEX
  8
0
 10
4.73936
 20
5.74625
 30
0.0
 40
0
 41
0
  0
VERTEX
  8
0
 10
4.73899
 20
5.74567
 30
0.0
 40
0
 41
0
  0
VERTEX
  8
0
 10
4.734
 20
5.73383
 30
0.0
 40
0
 41
0
  0
VERTEX
  8
0
 10
4.73085
 20
5.72299
 30
0.0
 40
0
 41
0
  0
VERTEX
  8
0
 10
4.73047
 20
5.72157
 30
0.0
 40
0
 41
0
  0
VERTEX
  8
0
 10
4.73019
 20
5.72071
 30
0.0
 40
0
 41
0
  0
VERTEX
  8
0
 10
4.72771
 20
5.7066
 30
0.0
 40
0
 41
0
  0
VERTEX
  8
0
 10
4.72657
 20
5.69179
 30
0.0
 40
0
 41
0
  0
VERTEX
  8
0
 10
4.72678
 20
5.67671
 30
0.0
 40
0
 41
0
  0
VERTEX
  8
0
 10
4.72726
 20
5.66889
 30
0.0
 40
0
 41
0
  0
VERTEX
  8
0
 10
4.72911
 20
5.63981
 30
0.0
 40
0
 41
0
  0
VERTEX
  8
0
 10
4.73068
 20
5.62478
 30
0.0
 40
0
 41
0
  0
VERTEX
  8
0
 10
4.73367
 20
5.61029
 30
0.0
 40
0
 41
0
  0
VERTEX
  8
0
 10
4.7379
 20
5.59651
 30
0.0
 40
0
 41
0
  0
VERTEX
  8
0
 10
4.74001
 20
5.59158
 30
0.0
 40
0
 41
0
  0
VERTEX
  8
0
 10
4.74149
 20
5.58826
 30
0.0
 40
0
 41
0
  0
VERTEX
  8
0
 10
4.74333
 20
5.58399
 30
0.0
 40
0
 41
0
  0
VERTEX
  8
0
 10
4.74507
 20
5.58094
 30
0.0
 40
0
 41
0
  0
VERTEX
  8
0
 10
4.74978
 20
5.57281
 30
0.0
 40
0
 41
0
  0
VERTEX
  8
0
 10
4.75558
 20
5.56538
 30
0.0
 40
0
 41
0
  0
VERTEX
  8
0
 10
4.75706
 20
5.56347
 30
0.0
 40
0
 41
0
  0
VERTEX
  8
0
 10
4.76492
 20
5.55615
 30
0.0
 40
0
 41
0
  0
VERTEX
  8
0
 10
4.76503
 20
5.55604
 30
0.0
 40
0
 41
0
  0
VERTEX
  8
0
 10
4.77354
 20
5.55078
 30
0.0
 40
0
 41
0
  0
VERTEX
  8
0
 10
4.78233
 20
5.54779
 30
0.0
 40
0
 41
0
  0
VERTEX
  8
0
 10
4.78418
 20
5.54764
 30
0.0
 40
0
 41
0
  0
VERTEX
  8
0
 10
4.79118
 20
5.54715
 30
0.0
 40
0
 41
0
  0
VERTEX
  8
0
 10
4.81272
 20
5.5485
 30
0.0
 40
0
 41
0
  0
VERTEX
  8
0
 10
4.8214
 20
5.55024
 30
0.0
 40
0
 41
0
  0
VERTEX
  8
0
 10
4.82975
 20
5.55431
 30
0.0
 40
0
 41
0
  0
VERTEX
  8
0
 10
4.82986
 20
5.55436
 30
0.0
 40
0
 41
0
  0
VERTEX
  8
0
 10
4.83757
 20
5.56054
 30
0.0
 40
0
 41
0
  0
VERTEX
  8
0
 10
4.84457
 20
5.5689
 30
0.0
 40
0
 41
0
  0
VERTEX
  8
0
 10
4.85064
 20
5.57915
 30
0.0
 40
0
 41
0
  0
VERTEX
  8
0
 10
4.85151
 20
5.58117
 30
0.0
 40
0
 41
0
  0
VERTEX
  8
0
 10
4.85194
 20
5.58225
 30
0.0
 40
0
 41
0
  0
VERTEX
  8
0
 10
4.85568
 20
5.59093
 30
0.0
 40
0
 41
0
  0
VERTEX
  8
0
 10
4.85943
 20
5.60411
 30
0.0
 40
0
 41
0
  0
VERTEX
  8
0
 10
4.86199
 20
5.61822
 30
0.0
 40
0
 41
0
  0
VERTEX
  8
0
 10
4.86312
 20
5.63303
 30
0.0
 40
0
 41
0
  0
VERTEX
  8
0
 10
4.86301
 20
5.63872
 30
0.0
 40
0
 41
0
  0
VERTEX
  8
0
 10
4.86301
 20
5.6409
 30
0.0
 40
0
 41
0
  0
VERTEX
  8
0
 10
4.8629
 20
5.64811
 30
0.0
 40
0
 41
0
  0
VERTEX
  8
0
 10
4.86154
 20
5.66889
 30
0.0
 40
0
 41
0
  0
VERTEX
  8
0
 10
4.86128
 20
5.67356
 30
0.0
 40
0
 41
0
  0
VERTEX
  8
0
 10
4.86057
 20
5.685
 30
0.0
 40
0
 41
0
  0
SEQEND
 8
0
  0
POLYLINE
  8
0
 62
     254
 66
     1
 10
0
 20
0
 30
0.0
 70
     1
 40
0
 41
0
  0
VERTEX
  8
0
 10
4.95947
 20
5.37722
 30
0.0
 40
0
 41
0
  0
VERTEX
  8
0
 10
4.95861
 20
5.37939
 30
0.0
 40
0
 41
0
  0
VERTEX
  8
0
 10
4.94769
 20
5.39865
 30
0.0
 40
0
 41
0
  0
VERTEX
  8
0
 10
4.93419
 20
5.41624
 30
0.0
 40
0
 41
0
  0
VERTEX
  8
0
 10
4.9184
 20
5.43169
 30
0.0
 40
0
 41
0
  0
VERTEX
  8
0
 10
4.90061
 20
5.44482
 30
0.0
 40
0
 41
0
  0
VERTEX
  8
0
 10
4.88113
 20
5.4554
 30
0.0
 40
0
 41
0
  0
VERTEX
  8
0
 10
4.8604
 20
5.46311
 30
0.0
 40
0
 41
0
  0
VERTEX
  8
0
 10
4.85536
 20
5.46425
 30
0.0
 40
0
 41
0
  0
VERTEX
  8
0
 10
4.85357
 20
5.46463
 30
0.0
 40
0
 41
0
  0
VERTEX
  8
0
 10
4.83876
 20
5.46793
 30
0.0
 40
0
 41
0
  0
VERTEX
  8
0
 10
4.82986
 20
5.46858
 30
0.0
 40
0
 41
0
  0
VERTEX
  8
0
 10
4.81668
 20
5.46962
 30
0.0
 40
0
 41
0
  0
VERTEX
  8
0
 10
4.7946
 20
5.46821
 30
0.0
 40
0
 41
0
  0
VERTEX
  8
0
 10
4.77289
 20
5.46382
 30
0.0
 40
0
 41
0
  0
VERTEX
  8
0
 10
4.75206
 20
5.45638
 30
0.0
 40
0
 41
0
  0
VERTEX
  8
0
 10
4.75011
 20
5.45535
 30
0.0
 40
0
 41
0
  0
VERTEX
  8
0
 10
4.73242
 20
5.44613
 30
0.0
 40
0
 41
0
  0
VERTEX
  8
0
 10
4.72657
 20
5.44189
 30
0.0
 40
0
 41
0
  0
VERTEX
  8
0
 10
4.71446
 20
5.43326
 30
0.0
 40
0
 41
0
  0
VERTEX
  8
0
 10
4.6984
 20
5.41803
 30
0.0
 40
0
 41
0
  0
VERTEX
  8
0
 10
4.68463
 20
5.40067
 30
0.0
 40
0
 41
0
  0
VERTEX
  8
0
 10
4.67344
 20
5.38157
 30
0.0
 40
0
 41
0
  0
VERTEX
  8
0
 10
4.66499
 20
5.36111
 30
0.0
 40
0
 41
0
  0
VERTEX
  8
0
 10
4.66118
 20
5.34636
 30
0.0
 40
0
 41
0
  0
VERTEX
  8
0
 10
4.66032
 20
5.34304
 30
0.0
 40
0
 41
0
  0
VERTEX
  8
0
 10
4.65944
 20
5.33968
 30
0.0
 40
0
 41
0
  0
VERTEX
  8
0
 10
4.65696
 20
5.31771
 30
0.0
 40
0
 41
0
  0
VERTEX
  8
0
 10
4.65728
 20
5.30572
 30
0.0
 40
0
 41
0
  0
VERTEX
  8
0
 10
4.65756
 20
5.29557
 30
0.0
 40
0
 41
0
  0
VERTEX
  8
0
 10
4.66124
 20
5.27371
 30
0.0
 40
0
 41
0
  0
VERTEX
  8
0
 10
4.66792
 20
5.25265
 30
0.0
 40
0
 41
0
  0
VERTEX
  8
0
 10
4.67367
 20
5.24061
 30
0.0
 40
0
 41
0
  0
VERTEX
  8
0
 10
4.67746
 20
5.23269
 30
0.0
 40
0
 41
0
  0
VERTEX
  8
0
 10
4.68668
 20
5.21881
 30
0.0
 40
0
 41
0
  0
VERTEX
  8
0
 10
4.68972
 20
5.21419
 30
0.0
 40
0
 41
0
  0
VERTEX
  8
0
 10
4.70443
 20
5.19764
 30
0.0
 40
0
 41
0
  0
VERTEX
  8
0
 10
4.72125
 20
5.18332
 30
0.0
 40
0
 41
0
  0
VERTEX
  8
0
 10
4.7399
 20
5.17139
 30
0.0
 40
0
 41
0
  0
VERTEX
  8
0
 10
4.7601
 20
5.16228
 30
0.0
 40
0
 41
0
  0
VERTEX
  8
0
 10
4.76828
 20
5.15983
 30
0.0
 40
0
 41
0
  0
VERTEX
  8
0
 10
4.78131
 20
5.15597
 30
0.0
 40
0
 41
0
  0
VERTEX
  8
0
 10
4.80317
 20
5.15278
 30
0.0
 40
0
 41
0
  0
VERTEX
  8
0
 10
4.82536
 20
5.15261
 30
0.0
 40
0
 41
0
  0
VERTEX
  8
0
 10
4.82986
 20
5.15321
 30
0.0
 40
0
 41
0
  0
VERTEX
  8
0
 10
4.84728
 20
5.15549
 30
0.0
 40
0
 41
0
  0
VERTEX
  8
0
 10
4.8686
 20
5.1614
 30
0.0
 40
0
 41
0
  0
VERTEX
  8
0
 10
4.88889
 20
5.17025
 30
0.0
 40
0
 41
0
  0
VERTEX
  8
0
 10
4.90435
 20
5.17974
 30
0.0
 40
0
 41
0
  0
VERTEX
  8
0
 10
4.90776
 20
5.18186
 30
0.0
 40
0
 41
0
  0
VERTEX
  8
0
 10
4.92486
 20
5.19596
 30
0.0
 40
0
 41
0
  0
VERTEX
  8
0
 10
4.93978
 20
5.21229
 30
0.0
 40
0
 41
0
  0
VERTEX
  8
0
 10
4.95231
 20
5.23053
 30
0.0
 40
0
 41
0
  0
VERTEX
  8
0
 10
4.96213
 20
5.25038
 30
0.0
 40
0
 41
0
  0
VERTEX
  8
0
 10
4.96408
 20
5.25618
 30
0.0
 40
0
 41
0
  0
VERTEX
  8
0
 10
4.9656
 20
5.26085
 30
0.0
 40
0
 41
0
  0
VERTEX
  8
0
 10
4.96913
 20
5.27138
 30
0.0
 40
0
 41
0
  0
VERTEX
  8
0
 10
4.97314
 20
5.29313
 30
0.0
 40
0
 41
0
  0
VERTEX
  8
0
 10
4.97412
 20
5.31526
 30
0.0
 40
0
 41
0
  0
VERTEX
  8
0
 10
4.97194
 20
5.33729
 30
0.0
 40
0
 41
0
  0
VERTEX
  8
0
 10
4.9719
 20
5.33757
 30
0.0
 40
0
 41
0
  0
VERTEX
  8
0
 10
4.96978
 20
5.34636
 30
0.0
 40
0
 41
0
  0
VERTEX
  8
0
 10
4.96679
 20
5.35883
 30
0.0
 40
0
 41
0
  0
VERTEX
  8
0
 10
4.95947
 20
5.37722
 30
0.0
 40
0
 41
0
  0
SEQEND
 8
0
  0
POLYLINE
  8
0
 62
     254
 66
     1
 10
0
 20
0
 30
0.0
 70
     1
 40
0
 41
0
  0
VERTEX
  8
0
 10
4.50732
 20
5.354
 30
0.0
 40
0
 41
0
  0
VERTEX
  8
0
 10
4.49507
 20
5.35487
 30
0.0
 40
0
 41
0
  0
VERTEX
  8
0
 10
4.48014
 20
5.35454
 30
0.0
 40
0
 41
0
  0
VERTEX
  8
0
 10
4.44363
 20
5.35194
 30
0.0
 40
0
 41
0
  0
VERTEX
  8
0
 10
4.42876
 20
5.35015
 30
0.0
 40
0
 41
0
  0
VERTEX
  8
0
 10
4.42671
 20
5.34972
 30
0.0
 40
0
 41
0
  0
VERTEX
  8
0
 10
4.41433
 20
5.34706
 30
0.0
 40
0
 41
0
  0
VERTEX
  8
0
 10
4.41211
 20
5.34636
 30
0.0
 40
0
 41
0
  0
VERTEX
  8
0
 10
4.40072
 20
5.34278
 30
0.0
 40
0
 41
0
  0
VERTEX
  8
0
 10
4.38824
 20
5.33729
 30
0.0
 40
0
 41
0
  0
VERTEX
  8
0
 10
4.37717
 20
5.33083
 30
0.0
 40
0
 41
0
  0
VERTEX
  8
0
 10
4.37418
 20
5.3285
 30
0.0
 40
0
 41
0
  0
VERTEX
  8
0
 10
4.36778
 20
5.32351
 30
0.0
 40
0
 41
0
  0
VERTEX
  8
0
 10
4.3604
 20
5.31549
 30
0.0
 40
0
 41
0
  0
VERTEX
  8
0
 10
4.35514
 20
5.30701
 30
0.0
 40
0
 41
0
  0
VERTEX
  8
0
 10
4.3546
 20
5.30544
 30
0.0
 40
0
 41
0
  0
VERTEX
  8
0
 10
4.35211
 20
5.29829
 30
0.0
 40
0
 41
0
  0
VERTEX
  8
0
 10
4.3514
 20
5.2895
 30
0.0
 40
0
 41
0
  0
VERTEX
  8
0
 10
4.35254
 20
5.26812
 30
0.0
 40
0
 41
0
  0
VERTEX
  8
0
 10
4.35297
 20
5.26574
 30
0.0
 40
0
 41
0
  0
VERTEX
  8
0
 10
4.35346
 20
5.26329
 30
0.0
 40
0
 41
0
  0
VERTEX
  8
0
 10
4.35417
 20
5.2595
 30
0.0
 40
0
 41
0
  0
VERTEX
  8
0
 10
4.35813
 20
5.25119
 30
0.0
 40
0
 41
0
  0
VERTEX
  8
0
 10
4.36426
 20
5.2436
 30
0.0
 40
0
 41
0
  0
VERTEX
  8
0
 10
4.37244
 20
5.23665
 30
0.0
 40
0
 41
0
  0
VERTEX
  8
0
 10
4.38254
 20
5.23068
 30
0.0
 40
0
 41
0
  0
VERTEX
  8
0
 10
4.39415
 20
5.22586
 30
0.0
 40
0
 41
0
  0
VERTEX
  8
0
 10
4.40022
 20
5.22418
 30
0.0
 40
0
 41
0
  0
VERTEX
  8
0
 10
4.40717
 20
5.22222
 30
0.0
 40
0
 41
0
  0
VERTEX
  8
0
 10
4.42117
 20
5.21978
 30
0.0
 40
0
 41
0
  0
VERTEX
  8
0
 10
4.42671
 20
5.2194
 30
0.0
 40
0
 41
0
  0
VERTEX
  8
0
 10
4.43576
 20
5.21881
 30
0.0
 40
0
 41
0
  0
VERTEX
  8
0
 10
4.45074
 20
5.21918
 30
0.0
 40
0
 41
0
  0
VERTEX
  8
0
 10
4.48725
 20
5.22179
 30
0.0
 40
0
 41
0
  0
VERTEX
  8
0
 10
4.50211
 20
5.22353
 30
0.0
 40
0
 41
0
  0
VERTEX
  8
0
 10
4.50732
 20
5.22467
 30
0.0
 40
0
 41
0
  0
VERTEX
  8
0
 10
4.51654
 20
5.22661
 30
0.0
 40
0
 41
0
  0
VERTEX
  8
0
 10
4.53017
 20
5.2309
 30
0.0
 40
0
 41
0
  0
VERTEX
  8
0
 10
4.53304
 20
5.23215
 30
0.0
 40
0
 41
0
  0
VERTEX
  8
0
 10
4.54124
 20
5.23574
 30
0.0
 40
0
 41
0
  0
VERTEX
  8
0
 10
4.54264
 20
5.23639
 30
0.0
 40
0
 41
0
  0
VERTEX
  8
0
 10
4.55371
 20
5.24289
 30
0.0
 40
0
 41
0
  0
VERTEX
  8
0
 10
4.5631
 20
5.25022
 30
0.0
 40
0
 41
0
  0
VERTEX
  8
0
 10
4.56912
 20
5.25672
 30
0.0
 40
0
 41
0
  0
VERTEX
  8
0
 10
4.57047
 20
5.25825
 30
0.0
 40
0
 41
0
  0
VERTEX
  8
0
 10
4.57514
 20
5.26574
 30
0.0
 40
0
 41
0
  0
VERTEX
  8
0
 10
4.57574
 20
5.26671
 30
0.0
 40
0
 41
0
  0
VERTEX
  8
0
 10
4.57878
 20
5.27544
 30
0.0
 40
0
 41
0
  0
VERTEX
  8
0
 10
4.57949
 20
5.28424
 30
0.0
 40
0
 41
0
  0
VERTEX
  8
0
 10
4.57926
 20
5.28868
 30
0.0
 40
0
 41
0
  0
VERTEX
  8
0
 10
4.57904
 20
5.29215
 30
0.0
 40
0
 41
0
  0
VERTEX
  8
0
 10
4.57835
 20
5.30561
 30
0.0
 40
0
 41
0
  0
VERTEX
  8
0
 10
4.57671
 20
5.31418
 30
0.0
 40
0
 41
0
  0
VERTEX
  8
0
 10
4.57281
 20
5.32249
 30
0.0
 40
0
 41
0
  0
VERTEX
  8
0
 10
4.56814
 20
5.32824
 30
0.0
 40
0
 41
0
  0
VERTEX
  8
0
 10
4.56662
 20
5.33014
 30
0.0
 40
0
 41
0
  0
VERTEX
  8
0
 10
4.55843
 20
5.33703
 30
0.0
 40
0
 41
0
  0
VERTEX
  8
0
 10
4.54833
 20
5.34299
 30
0.0
 40
0
 41
0
  0
VERTEX
  8
0
 10
4.54536
 20
5.34424
 30
0.0
 40
0
 41
0
  0
VERTEX
  8
0
 10
4.54021
 20
5.34636
 30
0.0
 40
0
 41
0
  0
VERTEX
  8
0
 10
4.53668
 20
5.34782
 30
0.0
 40
0
 41
0
  0
VERTEX
  8
0
 10
4.52371
 20
5.35151
 30
0.0
 40
0
 41
0
  0
VERTEX
  8
0
 10
4.50971
 20
5.35385
 30
0.0
 40
0
 41
0
  0
VERTEX
  8
0
 10
4.50732
 20
5.354
 30
0.0
 40
0
 41
0
  0
SEQEND
 8
0
  0
POLYLINE
  8
0
 62
     254
 66
     1
 10
0
 20
0
 30
0.0
 70
     1
 40
0
 41
0
  0
VERTEX
  8
0
 10
4.78017
 20
5.04411
 30
0.0
 40
0
 41
0
  0
VERTEX
  8
0
 10
4.77533
 20
5.03244
 30
0.0
 40
0
 41
0
  0
VERTEX
  8
0
 10
4.77289
 20
5.02387
 30
0.0
 40
0
 41
0
  0
VERTEX
  8
0
 10
4.77165
 20
5.01942
 30
0.0
 40
0
 41
0
  0
VERTEX
  8
0
 10
4.76926
 20
5.00549
 30
0.0
 40
0
 41
0
  0
VERTEX
  8
0
 10
4.76828
 20
4.99083
 30
0.0
 40
0
 41
0
  0
VERTEX
  8
0
 10
4.76861
 20
4.97592
 30
0.0
 40
0
 41
0
  0
VERTEX
  8
0
 10
4.77094
 20
4.94325
 30
0.0
 40
0
 41
0
  0
VERTEX
  8
0
 10
4.77121
 20
4.93935
 30
0.0
 40
0
 41
0
  0
VERTEX
  8
0
 10
4.77294
 20
4.92453
 30
0.0
 40
0
 41
0
  0
VERTEX
  8
0
 10
4.77604
 20
4.91004
 30
0.0
 40
0
 41
0
  0
VERTEX
  8
0
 10
4.78039
 20
4.89643
 30
0.0
 40
0
 41
0
  0
VERTEX
  8
0
 10
4.78489
 20
4.88607
 30
0.0
 40
0
 41
0
  0
VERTEX
  8
0
 10
4.78581
 20
4.88396
 30
0.0
 40
0
 41
0
  0
VERTEX
  8
0
 10
4.79232
 20
4.87289
 30
0.0
 40
0
 41
0
  0
VERTEX
  8
0
 10
4.79394
 20
4.87088
 30
0.0
 40
0
 41
0
  0
VERTEX
  8
0
 10
4.79486
 20
4.86968
 30
0.0
 40
0
 41
0
  0
VERTEX
  8
0
 10
4.79964
 20
4.86356
 30
0.0
 40
0
 41
0
  0
VERTEX
  8
0
 10
4.80067
 20
4.86257
 30
0.0
 40
0
 41
0
  0
VERTEX
  8
0
 10
4.80767
 20
4.85612
 30
0.0
 40
0
 41
0
  0
VERTEX
  8
0
 10
4.8131
 20
4.85275
 30
0.0
 40
0
 41
0
  0
VERTEX
  8
0
 10
4.81614
 20
4.85086
 30
0.0
 40
0
 41
0
  0
VERTEX
  8
0
 10
4.82487
 20
4.84782
 30
0.0
 40
0
 41
0
  0
VERTEX
  8
0
 10
4.82785
 20
4.8476
 30
0.0
 40
0
 41
0
  0
VERTEX
  8
0
 10
4.82986
 20
4.84744
 30
0.0
 40
0
 41
0
  0
VERTEX
  8
0
 10
4.83365
 20
4.84711
 30
0.0
 40
0
 41
0
  0
VERTEX
  8
0
 10
4.8534
 20
4.84819
 30
0.0
 40
0
 41
0
  0
VERTEX
  8
0
 10
4.85504
 20
4.84825
 30
0.0
 40
0
 41
0
  0
VERTEX
  8
0
 10
4.86317
 20
4.84978
 30
0.0
 40
0
 41
0
  0
VERTEX
  8
0
 10
4.86367
 20
4.84988
 30
0.0
 40
0
 41
0
  0
VERTEX
  8
0
 10
4.8719
 20
4.85385
 30
0.0
 40
0
 41
0
  0
VERTEX
  8
0
 10
4.87956
 20
4.85997
 30
0.0
 40
0
 41
0
  0
VERTEX
  8
0
 10
4.88178
 20
4.86257
 30
0.0
 40
0
 41
0
  0
VERTEX
  8
0
 10
4.8865
 20
4.86817
 30
0.0
 40
0
 41
0
  0
VERTEX
  8
0
 10
4.89247
 20
4.87825
 30
0.0
 40
0
 41
0
  0
VERTEX
  8
0
 10
4.89729
 20
4.88992
 30
0.0
 40
0
 41
0
  0
VERTEX
  8
0
 10
4.89876
 20
4.89524
 30
0.0
 40
0
 41
0
  0
VERTEX
  8
0
 10
4.90093
 20
4.90289
 30
0.0
 40
0
 41
0
  0
VERTEX
  8
0
 10
4.90283
 20
4.91411
 30
0.0
 40
0
 41
0
  0
VERTEX
  8
0
 10
4.90332
 20
4.91689
 30
0.0
 40
0
 41
0
  0
VERTEX
  8
0
 10
4.90354
 20
4.92003
 30
0.0
 40
0
 41
0
  0
VERTEX
  8
0
 10
4.90435
 20
4.93153
 30
0.0
 40
0
 41
0
  0
VERTEX
  8
0
 10
4.90408
 20
4.94325
 30
0.0
 40
0
 41
0
  0
VERTEX
  8
0
 10
4.90397
 20
4.94646
 30
0.0
 40
0
 41
0
  0
VERTEX
  8
0
 10
4.90136
 20
4.98296
 30
0.0
 40
0
 41
0
  0
VERTEX
  8
0
 10
4.89963
 20
4.99783
 30
0.0
 40
0
 41
0
  0
VERTEX
  8
0
 10
4.89654
 20
5.01226
 30
0.0
 40
0
 41
0
  0
VERTEX
  8
0
 10
4.8929
 20
5.02387
 30
0.0
 40
0
 41
0
  0
VERTEX
  8
0
 10
4.89225
 20
5.02588
 30
0.0
 40
0
 41
0
  0
VERTEX
  8
0
 10
4.88678
 20
5.03836
 30
0.0
 40
0
 41
0
  0
VERTEX
  8
0
 10
4.88351
 20
5.04394
 30
0.0
 40
0
 41
0
  0
VERTEX
  8
0
 10
4.88331
 20
5.04432
 30
0.0
 40
0
 41
0
  0
VERTEX
  8
0
 10
4.88026
 20
5.04943
 30
0.0
 40
0
 41
0
  0
VERTEX
  8
0
 10
4.87294
 20
5.05881
 30
0.0
 40
0
 41
0
  0
VERTEX
  8
0
 10
4.8649
 20
5.06619
 30
0.0
 40
0
 41
0
  0
VERTEX
  8
0
 10
4.85644
 20
5.0715
 30
0.0
 40
0
 41
0
  0
VERTEX
  8
0
 10
4.84771
 20
5.07454
 30
0.0
 40
0
 41
0
  0
VERTEX
  8
0
 10
4.83892
 20
5.07525
 30
0.0
 40
0
 41
0
  0
VERTEX
  8
0
 10
4.82986
 20
5.07476
 30
0.0
 40
0
 41
0
  0
VERTEX
  8
0
 10
4.82671
 20
5.0746
 30
0.0
 40
0
 41
0
  0
VERTEX
  8
0
 10
4.8189
 20
5.07417
 30
0.0
 40
0
 41
0
  0
VERTEX
  8
0
 10
4.81754
 20
5.07411
 30
0.0
 40
0
 41
0
  0
VERTEX
  8
0
 10
4.81022
 20
5.07269
 30
0.0
 40
0
 41
0
  0
VERTEX
  8
0
 10
4.80892
 20
5.07249
 30
0.0
 40
0
 41
0
  0
VERTEX
  8
0
 10
4.80067
 20
5.06853
 30
0.0
 40
0
 41
0
  0
VERTEX
  8
0
 10
4.79303
 20
5.06233
 30
0.0
 40
0
 41
0
  0
VERTEX
  8
0
 10
4.78608
 20
5.05414
 30
0.0
 40
0
 41
0
  0
VERTEX
  8
0
 10
4.78017
 20
5.04411
 30
0.0
 40
0
 41
0
  0
SEQEND
 8
0
  0
POLYLINE
  8
0
 62
     254
 66
     1
 10
0
 20
0
 30
0.0
 70
     1
 40
0
 41
0
  0
VERTEX
  8
0
 10
3.03444
 20
3.13075
 30
0.0
 40
0
 41
0
  0
VERTEX
  8
0
 10
3.03358
 20
3.12679
 30
0.0
 40
0
 41
0
  0
VERTEX
  8
0
 10
3.03282
 20
3.1186
 30
0.0
 40
0
 41
0
  0
VERTEX
  8
0
 10
3.0331
 20
3.11029
 30
0.0
 40
0
 41
0
  0
VERTEX
  8
0
 10
3.03435
 20
3.10215
 30
0.0
 40
0
 41
0
  0
VERTEX
  8
0
 10
3.03662
 20
3.09418
 30
0.0
 40
0
 41
0
  0
VERTEX
  8
0
 10
3.0389
 20
3.08876
 30
0.0
 40
0
 41
0
  0
VERTEX
  8
0
 10
3.03982
 20
3.08658
 30
0.0
 40
0
 41
0
  0
VERTEX
  8
0
 10
3.04394
 20
3.07943
 30
0.0
 40
0
 41
0
  0
VERTEX
  8
0
 10
3.04893
 20
3.07286
 30
0.0
 40
0
 41
0
  0
VERTEX
  8
0
 10
3.05469
 20
3.06694
 30
0.0
 40
0
 41
0
  0
VERTEX
  8
0
 10
3.05599
 20
3.06586
 30
0.0
 40
0
 41
0
  0
VERTEX
  8
0
 10
3.06108
 20
3.06174
 30
0.0
 40
0
 41
0
  0
VERTEX
  8
0
 10
3.06814
 20
3.0574
 30
0.0
 40
0
 41
0
  0
VERTEX
  8
0
 10
3.07563
 20
3.05393
 30
0.0
 40
0
 41
0
  0
VERTEX
  8
0
 10
3.0835
 20
3.05143
 30
0.0
 40
0
 41
0
  0
VERTEX
  8
0
 10
3.09164
 20
3.04992
 30
0.0
 40
0
 41
0
  0
VERTEX
  8
0
 10
3.09987
 20
3.04943
 30
0.0
 40
0
 41
0
  0
VERTEX
  8
0
 10
3.10813
 20
3.04992
 30
0.0
 40
0
 41
0
  0
VERTEX
  8
0
 10
3.11626
 20
3.05143
 30
0.0
 40
0
 41
0
  0
VERTEX
  8
0
 10
3.12414
 20
3.05393
 30
0.0
 40
0
 41
0
  0
VERTEX
  8
0
 10
3.13163
 20
3.0574
 30
0.0
 40
0
 41
0
  0
VERTEX
  8
0
 10
3.13661
 20
3.06049
 30
0.0
 40
0
 41
0
  0
VERTEX
  8
0
 10
3.13867
 20
3.06174
 30
0.0
 40
0
 41
0
  0
VERTEX
  8
0
 10
3.14507
 20
3.06694
 30
0.0
 40
0
 41
0
  0
VERTEX
  8
0
 10
3.15082
 20
3.07286
 30
0.0
 40
0
 41
0
  0
VERTEX
  8
0
 10
3.15582
 20
3.07943
 30
0.0
 40
0
 41
0
  0
VERTEX
  8
0
 10
3.15994
 20
3.08658
 30
0.0
 40
0
 41
0
  0
VERTEX
  8
0
 10
3.16081
 20
3.08876
 30
0.0
 40
0
 41
0
  0
VERTEX
  8
0
 10
3.16314
 20
3.09418
 30
0.0
 40
0
 41
0
  0
VERTEX
  8
0
 10
3.16542
 20
3.10215
 30
0.0
 40
0
 41
0
  0
VERTEX
  8
0
 10
3.16672
 20
3.11029
 30
0.0
 40
0
 41
0
  0
VERTEX
  8
0
 10
3.16694
 20
3.1186
 30
0.0
 40
0
 41
0
  0
VERTEX
  8
0
 10
3.16618
 20
3.12679
 30
0.0
 40
0
 41
0
  0
VERTEX
  8
0
 10
3.16439
 20
3.13488
 30
0.0
 40
0
 41
0
  0
VERTEX
  8
0
 10
3.16168
 20
3.14268
 30
0.0
 40
0
 41
0
  0
VERTEX
  8
0
 10
3.15799
 20
3.15001
 30
0.0
 40
0
 41
0
  0
VERTEX
  8
0
 10
3.15343
 20
3.1569
 30
0.0
 40
0
 41
0
  0
VERTEX
  8
0
 10
3.14806
 20
3.16325
 30
0.0
 40
0
 41
0
  0
VERTEX
  8
0
 10
3.14193
 20
3.16878
 30
0.0
 40
0
 41
0
  0
VERTEX
  8
0
 10
3.13661
 20
3.17253
 30
0.0
 40
0
 41
0
  0
VERTEX
  8
0
 10
3.13519
 20
3.17356
 30
0.0
 40
0
 41
0
  0
VERTEX
  8
0
 10
3.12793
 20
3.17746
 30
0.0
 40
0
 41
0
  0
VERTEX
  8
0
 10
3.12022
 20
3.18044
 30
0.0
 40
0
 41
0
  0
VERTEX
  8
0
 10
3.11219
 20
3.18246
 30
0.0
 40
0
 41
0
  0
VERTEX
  8
0
 10
3.104
 20
3.18349
 30
0.0
 40
0
 41
0
  0
VERTEX
  8
0
 10
3.09576
 20
3.18349
 30
0.0
 40
0
 41
0
  0
VERTEX
  8
0
 10
3.08854
 20
3.18257
 30
0.0
 40
0
 41
0
  0
VERTEX
  8
0
 10
3.08757
 20
3.18246
 30
0.0
 40
0
 41
0
  0
VERTEX
  8
0
 10
3.07954
 20
3.18044
 30
0.0
 40
0
 41
0
  0
VERTEX
  8
0
 10
3.07183
 20
3.17746
 30
0.0
 40
0
 41
0
  0
VERTEX
  8
0
 10
3.06456
 20
3.17356
 30
0.0
 40
0
 41
0
  0
VERTEX
  8
0
 10
3.05783
 20
3.16878
 30
0.0
 40
0
 41
0
  0
VERTEX
  8
0
 10
3.05599
 20
3.1671
 30
0.0
 40
0
 41
0
  0
VERTEX
  8
0
 10
3.05176
 20
3.16325
 30
0.0
 40
0
 41
0
  0
VERTEX
  8
0
 10
3.04633
 20
3.1569
 30
0.0
 40
0
 41
0
  0
VERTEX
  8
0
 10
3.04178
 20
3.15001
 30
0.0
 40
0
 41
0
  0
VERTEX
  8
0
 10
3.03814
 20
3.14268
 30
0.0
 40
0
 41
0
  0
VERTEX
  8
0
 10
3.03537
 20
3.13488
 30
0.0
 40
0
 41
0
  0
VERTEX
  8
0
 10
3.03444
 20
3.13075
 30
0.0
 40
0
 41
0
  0
SEQEND
 8
0
  0
POLYLINE
  8
0
 62
     1
 66
     1
 10
0
 20
0
 30
0.0
 70
     1
 40
0.0107136
 41
0.0107136
  0
VERTEX
  8
0
 10
1.45285
 20
0.888726
 30
0.0
 40
0.0001488
 41
0.0001488
  0
VERTEX
  8
0
 10
1.45161
 20
0.887478
 30
0.0
 40
0.0001488
 41
0.0001488
  0
VERTEX
  8
0
 10
1.28212
 20
0.726346
 30
0.0
 40
0.0001488
 41
0.0001488
  0
VERTEX
  8
0
 10
0.671332
 20
0.145508
 30
0.0
 40
0.0001488
 41
0.0001488
  0
VERTEX
  8
0
 10
0.64426
 20
0.119737
 30
0.0
 40
0.0001488
 41
0.0001488
  0
VERTEX
  8
0
 10
0.64426
 20
0.0467122
 30
0.0
 40
0.0001488
 41
0.0001488
  0
VERTEX
  8
0
 10
0.0397678
 20
0.0467122
 30
0.0
 40
0.0001488
 41
0.0001488
  0
VERTEX
  8
0
 10
0.0397678
 20
0.640842
 30
0.0
 40
0.0001488
 41
0.0001488
  0
VERTEX
  8
0
 10
0.0393881
 20
0.640842
 30
0.0
 40
0.0001488
 41
0.0001488
  0
VERTEX
  8
0
 10
0.0397678
 20
0.641114
 30
0.0
 40
0.0001488
 41
0.0001488
  0
VERTEX
  8
0
 10
0.225965
 20
0.774251
 30
0.0
 40
0.0001488
 41
0.0001488
  0
VERTEX
  8
0
 10
0.272353
 20
0.8074
 30
0.0
 40
0.0001488
 41
0.0001488
  0
VERTEX
  8
0
 10
0.475424
 20
0.952528
 30
0.0
 40
0.0001488
 41
0.0001488
  0
VERTEX
  8
0
 10
0.60726
 20
1.04682
 30
0.0
 40
0.0001488
 41
0.0001488
  0
VERTEX
  8
0
 10
0.624838
 20
1.05935
 30
0.0
 40
0.0001488
 41
0.0001488
  0
VERTEX
  8
0
 10
0.600965
 20
1.07601
 30
0.0
 40
0.0001488
 41
0.0001488
  0
VERTEX
  8
0
 10
0.564671
 20
1.10607
 30
0.0
 40
0.0001488
 41
0.0001488
  0
VERTEX
  8
0
 10
0.553657
 20
1.11702
 30
0.0
 40
0.0001488
 41
0.0001488
  0
VERTEX
  8
0
 10
0.534125
 20
1.13656
 30
0.0
 40
0.0001488
 41
0.0001488
  0
VERTEX
  8
0
 10
0.509765
 20
1.16732
 30
0.0
 40
0.0001488
 41
0.0001488
  0
VERTEX
  8
0
 10
0.491754
 20
1.19797
 30
0.0
 40
0.0001488
 41
0.0001488
  0
VERTEX
  8
0
 10
0.480251
 20
1.22824
 30
0.0
 40
0.0001488
 41
0.0001488
  0
VERTEX
  8
0
 10
0.475424
 20
1.25787
 30
0.0
 40
0.0001488
 41
0.0001488
  0
VERTEX
  8
0
 10
0.477214
 20
1.28651
 30
0.0
 40
0.0001488
 41
0.0001488
  0
VERTEX
  8
0
 10
0.485732
 20
1.31397
 30
0.0
 40
0.0001488
 41
0.0001488
  0
VERTEX
  8
0
 10
0.500814
 20
1.3399
 30
0.0
 40
0.0001488
 41
0.0001488
  0
VERTEX
  8
0
 10
0.522353
 20
1.36415
 30
0.0
 40
0.0001488
 41
0.0001488
  0
VERTEX
  8
0
 10
0.550131
 20
1.38639
 30
0.0
 40
0.0001488
 41
0.0001488
  0
VERTEX
  8
0
 10
0.553657
 20
1.38846
 30
0.0
 40
0.0001488
 41
0.0001488
  0
VERTEX
  8
0
 10
0.583876
 20
1.40636
 30
0.0
 40
0.0001488
 41
0.0001488
  0
VERTEX
  8
0
 10
0.62321
 20
1.42404
 30
0.0
 40
0.0001488
 41
0.0001488
  0
VERTEX
  8
0
 10
0.637099
 20
1.42871
 30
0.0
 40
0.0001488
 41
0.0001488
  0
VERTEX
  8
0
 10
0.66786
 20
1.43912
 30
0.0
 40
0.0001488
 41
0.0001488
  0
VERTEX
  8
0
 10
0.711154
 20
1.44997
 30
0.0
 40
0.0001488
 41
0.0001488
  0
VERTEX
  8
0
 10
0.717339
 20
1.45156
 30
0.0
 40
0.0001488
 41
0.0001488
  0
VERTEX
  8
0
 10
0.771158
 20
1.46115
 30
0.0
 40
0.0001488
 41
0.0001488
  0
VERTEX
  8
0
 10
0.828831
 20
1.46778
 30
0.0
 40
0.0001488
 41
0.0001488
  0
VERTEX
  8
0
 10
0.889757
 20
1.47151
 30
0.0
 40
0.0001488
 41
0.0001488
  0
VERTEX
  8
0
 10
0.95345
 20
1.47222
 30
0.0
 40
0.0001488
 41
0.0001488
  0
VERTEX
  8
0
 10
1.01915
 20
1.46989
 30
0.0
 40
0.0001488
 41
0.0001488
  0
VERTEX
  8
0
 10
1.06543
 20
1.46619
 30
0.0
 40
0.0001488
 41
0.0001488
  0
VERTEX
  8
0
 10
1.08632
 20
1.46451
 30
0.0
 40
0.0001488
 41
0.0001488
  0
VERTEX
  8
0
 10
1.11176
 20
1.46143
 30
0.0
 40
0.0001488
 41
0.0001488
  0
VERTEX
  8
0
 10
1.11263
 20
1.4624
 30
0.0
 40
0.0001488
 41
0.0001488
  0
VERTEX
  8
0
 10
1.11621
 20
1.46647
 30
0.0
 40
0.0001488
 41
0.0001488
  0
VERTEX
  8
0
 10
1.12126
 20
1.47222
 30
0.0
 40
0.0001488
 41
0.0001488
  0
VERTEX
  8
0
 10
1.12272
 20
1.47385
 30
0.0
 40
0.0001488
 41
0.0001488
  0
VERTEX
  8
0
 10
1.12413
 20
1.47547
 30
0.0
 40
0.0001488
 41
0.0001488
  0
VERTEX
  8
0
 10
1.18321
 20
1.54292
 30
0.0
 40
0.0001488
 41
0.0001488
  0
VERTEX
  8
0
 10
1.2781
 20
1.65235
 30
0.0
 40
0.0001488
 41
0.0001488
  0
VERTEX
  8
0
 10
1.27832
 20
1.65256
 30
0.0
 40
0.0001488
 41
0.0001488
  0
VERTEX
  8
0
 10
1.27875
 20
1.65306
 30
0.0
 40
0.0001488
 41
0.0001488
  0
VERTEX
  8
0
 10
1.28212
 20
1.6569
 30
0.0
 40
0.0001488
 41
0.0001488
  0
VERTEX
  8
0
 10
1.32156
 20
1.70139
 30
0.0
 40
0.0001488
 41
0.0001488
  0
VERTEX
  8
0
 10
1.34022
 20
1.7225
 30
0.0
 40
0.0001488
 41
0.0001488
  0
VERTEX
  8
0
 10
1.41092
 20
1.80296
 30
0.0
 40
0.0001488
 41
0.0001488
  0
VERTEX
  8
0
 10
1.49007
 20
1.89356
 30
0.0
 40
0.0001488
 41
0.0001488
  0
VERTEX
  8
0
 10
1.57688
 20
1.99343
 30
0.0
 40
0.0001488
 41
0.0001488
  0
VERTEX
  8
0
 10
1.67031
 20
2.10135
 30
0.0
 40
0.0001488
 41
0.0001488
  0
VERTEX
  8
0
 10
1.76942
 20
2.21615
 30
0.0
 40
0.0001488
 41
0.0001488
  0
VERTEX
  8
0
 10
1.87304
 20
2.33658
 30
0.0
 40
0.0001488
 41
0.0001488
  0
VERTEX
  8
0
 10
1.96496
 20
2.44368
 30
0.0
 40
0.0001488
 41
0.0001488
  0
VERTEX
  8
0
 10
1.98008
 20
2.46132
 30
0.0
 40
0.0001488
 41
0.0001488
  0
VERTEX
  8
0
 10
2.08936
 20
2.58908
 30
0.0
 40
0.0001488
 41
0.0001488
  0
VERTEX
  8
0
 10
2.19971
 20
2.71838
 30
0.0
 40
0.0001488
 41
0.0001488
  0
VERTEX
  8
0
 10
2.3099
 20
2.84776
 30
0.0
 40
0.0001488
 41
0.0001488
  0
VERTEX
  8
0
 10
2.41868
 20
2.97597
 30
0.0
 40
0.0001488
 41
0.0001488
  0
VERTEX
  8
0
 10
2.42096
 20
2.97863
 30
0.0
 40
0.0001488
 41
0.0001488
  0
VERTEX
  8
0
 10
2.5249
 20
3.1014
 30
0.0
 40
0.0001488
 41
0.0001488
  0
VERTEX
  8
0
 10
2.53521
 20
3.11367
 30
0.0
 40
0.0001488
 41
0.0001488
  0
VERTEX
  8
0
 10
2.57221
 20
3.15744
 30
0.0
 40
0.0001488
 41
0.0001488
  0
VERTEX
  8
0
 10
2.62739
 20
3.22282
 30
0.0
 40
0.0001488
 41
0.0001488
  0
VERTEX
  8
0
 10
2.68604
 20
3.29254
 30
0.0
 40
0.0001488
 41
0.0001488
  0
VERTEX
  8
0
 10
2.72504
 20
3.33886
 30
0.0
 40
0.0001488
 41
0.0001488
  0
VERTEX
  8
0
 10
2.78618
 20
3.41174
 30
0.0
 40
0.0001488
 41
0.0001488
  0
VERTEX
  8
0
 10
2.81679
 20
3.44824
 30
0.0
 40
0.0001488
 41
0.0001488
  0
VERTEX
  8
0
 10
2.83371
 20
3.46847
 30
0.0
 40
0.0001488
 41
0.0001488
  0
VERTEX
  8
0
 10
2.90158
 20
3.54975
 30
0.0
 40
0.0001488
 41
0.0001488
  0
VERTEX
  8
0
 10
2.95844
 20
3.61811
 30
0.0
 40
0.0001488
 41
0.0001488
  0
VERTEX
  8
0
 10
2.97857
 20
3.64225
 30
0.0
 40
0.0001488
 41
0.0001488
  0
VERTEX
  8
0
 10
3.04676
 20
3.72483
 30
0.0
 40
0.0001488
 41
0.0001488
  0
VERTEX
  8
0
 10
3.04986
 20
3.72863
 30
0.0
 40
0.0001488
 41
0.0001488
  0
VERTEX
  8
0
 10
3.0541
 20
3.73378
 30
0.0
 40
0.0001488
 41
0.0001488
  0
VERTEX
  8
0
 10
3.074
 20
3.75803
 30
0.0
 40
0.0001488
 41
0.0001488
  0
VERTEX
  8
0
 10
3.08475
 20
3.77083
 30
0.0
 40
0.0001488
 41
0.0001488
  0
VERTEX
  8
0
 10
3.10764
 20
3.79818
 30
0.0
 40
0.0001488
 41
0.0001488
  0
VERTEX
  8
0
 10
3.14085
 20
3.83778
 30
0.0
 40
0.0001488
 41
0.0001488
  0
VERTEX
  8
0
 10
3.17806
 20
3.88217
 30
0.0
 40
0.0001488
 41
0.0001488
  0
VERTEX
  8
0
 10
3.1984
 20
3.90647
 30
0.0
 40
0.0001488
 41
0.0001488
  0
VERTEX
  8
0
 10
3.22672
 20
3.94026
 30
0.0
 40
0.0001488
 41
0.0001488
  0
VERTEX
  8
0
 10
3.24257
 20
3.95915
 30
0.0
 40
0.0001488
 41
0.0001488
  0
VERTEX
  8
0
 10
3.25022
 20
3.96843
 30
0.0
 40
0.0001488
 41
0.0001488
  0
VERTEX
  8
0
 10
3.25461
 20
3.97374
 30
0.0
 40
0.0001488
 41
0.0001488
  0
VERTEX
  8
0
 10
3.47526
 20
4.24013
 30
0.0
 40
0.0001488
 41
0.0001488
  0
VERTEX
  8
0
 10
3.65674
 20
4.46197
 30
0.0
 40
0.0001488
 41
0.0001488
  0
VERTEX
  8
0
 10
3.69868
 20
4.51318
 30
0.0
 40
0.0001488
 41
0.0001488
  0
VERTEX
  8
0
 10
3.69949
 20
4.51421
 30
0.0
 40
0.0001488
 41
0.0001488
  0
VERTEX
  8
0
 10
3.70979
 20
4.52696
 30
0.0
 40
0.0001488
 41
0.0001488
  0
VERTEX
  8
0
 10
3.71506
 20
4.53347
 30
0.0
 40
0.0001488
 41
0.0001488
  0
VERTEX
  8
0
 10
3.86231
 20
4.71582
 30
0.0
 40
0.0001488
 41
0.0001488
  0
VERTEX
  8
0
 10
3.86475
 20
4.71892
 30
0.0
 40
0.0001488
 41
0.0001488
  0
VERTEX
  8
0
 10
3.91314
 20
4.77875
 30
0.0
 40
0.0001488
 41
0.0001488
  0
VERTEX
  8
0
 10
3.95893
 20
4.83632
 30
0.0
 40
0.0001488
 41
0.0001488
  0
VERTEX
  8
0
 10
3.98139
 20
4.86453
 30
0.0
 40
0.0001488
 41
0.0001488
  0
VERTEX
  8
0
 10
4.10813
 20
5.02387
 30
0.0
 40
0.0001488
 41
0.0001488
  0
VERTEX
  8
0
 10
4.11404
 20
5.03131
 30
0.0
 40
0.0001488
 41
0.0001488
  0
VERTEX
  8
0
 10
4.19797
 20
5.13846
 30
0.0
 40
0.0001488
 41
0.0001488
  0
VERTEX
  8
0
 10
4.22863
 20
5.17768
 30
0.0
 40
0.0001488
 41
0.0001488
  0
VERTEX
  8
0
 10
4.24631
 20
5.1984
 30
0.0
 40
0.0001488
 41
0.0001488
  0
VERTEX
  8
0
 10
4.2015
 20
5.35275
 30
0.0
 40
0.0001488
 41
0.0001488
  0
VERTEX
  8
0
 10
4.33979
 20
5.5089
 30
0.0
 40
0.0001488
 41
0.0001488
  0
VERTEX
  8
0
 10
4.39908
 20
5.57579
 30
0.0
 40
0.0001488
 41
0.0001488
  0
VERTEX
  8
0
 10
4.42822
 20
5.60867
 30
0.0
 40
0.0001488
 41
0.0001488
  0
VERTEX
  8
0
 10
4.43718
 20
5.61876
 30
0.0
 40
0.0001488
 41
0.0001488
  0
VERTEX
  8
0
 10
4.61638
 20
6.03006
 30
0.0
 40
0.0001488
 41
0.0001488
  0
VERTEX
  8
0
 10
4.78689
 20
6.01351
 30
0.0
 40
0.0001488
 41
0.0001488
  0
VERTEX
  8
0
 10
4.92925
 20
5.99972
 30
0.0
 40
0.0001488
 41
0.0001488
  0
VERTEX
  8
0
 10
4.93175
 20
5.99946
 30
0.0
 40
0.0001488
 41
0.0001488
  0
VERTEX
  8
0
 10
4.93181
 20
5.99946
 30
0.0
 40
0.0001488
 41
0.0001488
  0
VERTEX
  8
0
 10
5.07699
 20
5.9854
 30
0.0
 40
0.0001488
 41
0.0001488
  0
VERTEX
  8
0
 10
5.11535
 20
5.8119
 30
0.0
 40
0.0001488
 41
0.0001488
  0
VERTEX
  8
0
 10
5.13226
 20
5.73546
 30
0.0
 40
0.0001488
 41
0.0001488
  0
VERTEX
  8
0
 10
5.192
 20
5.72569
 30
0.0
 40
0.0001488
 41
0.0001488
  0
VERTEX
  8
0
 10
5.20806
 20
5.67042
 30
0.0
 40
0.0001488
 41
0.0001488
  0
VERTEX
  8
0
 10
5.42031
 20
5.64985
 30
0.0
 40
0.0001488
 41
0.0001488
  0
VERTEX
  8
0
 10
5.46013
 20
5.646
 30
0.0
 40
0.0001488
 41
0.0001488
  0
VERTEX
  8
0
 10
5.48004
 20
5.55583
 30
0.0
 40
0.0001488
 41
0.0001488
  0
VERTEX
  8
0
 10
5.48004
 20
5.55578
 30
0.0
 40
0.0001488
 41
0.0001488
  0
VERTEX
  8
0
 10
5.48188
 20
5.54753
 30
0.0
 40
0.0001488
 41
0.0001488
  0
VERTEX
  8
0
 10
5.49533
 20
5.4866
 30
0.0
 40
0.0001488
 41
0.0001488
  0
VERTEX
  8
0
 10
5.54644
 20
5.25521
 30
0.0
 40
0.0001488
 41
0.0001488
  0
VERTEX
  8
0
 10
5.55994
 20
5.19407
 30
0.0
 40
0.0001488
 41
0.0001488
  0
VERTEX
  8
0
 10
5.37756
 20
5.08675
 30
0.0
 40
0.0001488
 41
0.0001488
  0
VERTEX
  8
0
 10
5.35926
 20
5.07601
 30
0.0
 40
0.0001488
 41
0.0001488
  0
VERTEX
  8
0
 10
5.18658
 20
4.9745
 30
0.0
 40
0.0001488
 41
0.0001488
  0
VERTEX
  8
0
 10
5.09196
 20
4.86768
 30
0.0
 40
0.0001488
 41
0.0001488
  0
VERTEX
  8
0
 10
5.06364
 20
4.83572
 30
0.0
 40
0.0001488
 41
0.0001488
  0
VERTEX
  8
0
 10
4.94114
 20
4.69743
 30
0.0
 40
0.0001488
 41
0.0001488
  0
VERTEX
  8
0
 10
4.77983
 20
4.72374
 30
0.0
 40
0.0001488
 41
0.0001488
  0
VERTEX
  8
0
 10
4.77979
 20
4.72379
 30
0.0
 40
0.0001488
 41
0.0001488
  0
VERTEX
  8
0
 10
4.77203
 20
4.72504
 30
0.0
 40
0.0001488
 41
0.0001488
  0
VERTEX
  8
0
 10
4.77106
 20
4.72521
 30
0.0
 40
0.0001488
 41
0.0001488
  0
VERTEX
  8
0
 10
4.77029
 20
4.72444
 30
0.0
 40
0.0001488
 41
0.0001488
  0
VERTEX
  8
0
 10
4.6486
 20
4.59315
 30
0.0
 40
0.0001488
 41
0.0001488
  0
VERTEX
  8
0
 10
4.64594
 20
4.59028
 30
0.0
 40
0.0001488
 41
0.0001488
  0
VERTEX
  8
0
 10
4.64208
 20
4.58604
 30
0.0
 40
0.0001488
 41
0.0001488
  0
VERTEX
  8
0
 10
4.63558
 20
4.57889
 30
0.0
 40
0.0001488
 41
0.0001488
  0
VERTEX
  8
0
 10
4.63499
 20
4.57844
 30
0.0
 40
0.0001488
 41
0.0001488
  0
VERTEX
  8
0
 10
4.63206
 20
4.57644
 30
0.0
 40
0.0001488
 41
0.0001488
  0
VERTEX
  8
0
 10
4.59717
 20
4.54221
 30
0.0
 40
0.0001488
 41
0.0001488
  0
VERTEX
  8
0
 10
4.54172
 20
4.48361
 30
0.0
 40
0.0001488
 41
0.0001488
  0
VERTEX
  8
0
 10
4.46625
 20
4.40136
 30
0.0
 40
0.0001488
 41
0.0001488
  0
VERTEX
  8
0
 10
4.44596
 20
4.37879
 30
0.0
 40
0.0001488
 41
0.0001488
  0
VERTEX
  8
0
 10
4.3834
 20
4.3094
 30
0.0
 40
0.0001488
 41
0.0001488
  0
VERTEX
  8
0
 10
4.37164
 20
4.29639
 30
0.0
 40
0.0001488
 41
0.0001488
  0
VERTEX
  8
0
 10
4.32611
 20
4.24517
 30
0.0
 40
0.0001488
 41
0.0001488
  0
VERTEX
  8
0
 10
4.2589
 20
4.16971
 30
0.0
 40
0.0001488
 41
0.0001488
  0
VERTEX
  8
0
 10
4.21793
 20
4.12332
 30
0.0
 40
0.0001488
 41
0.0001488
  0
VERTEX
  8
0
 10
4.21349
 20
4.11833
 30
0.0
 40
0.0001488
 41
0.0001488
  0
VERTEX
  8
0
 10
4.20182
 20
4.10508
 30
0.0
 40
0.0001488
 41
0.0001488
  0
VERTEX
  8
0
 10
4.15479
 20
4.05181
 30
0.0
 40
0.0001488
 41
0.0001488
  0
VERTEX
  8
0
 10
4.14757
 20
4.04362
 30
0.0
 40
0.0001488
 41
0.0001488
  0
VERTEX
  8
0
 10
4.12924
 20
4.02289
 30
0.0
 40
0.0001488
 41
0.0001488
  0
VERTEX
  8
0
 10
3.99821
 20
3.87343
 30
0.0
 40
0.0001488
 41
0.0001488
  0
VERTEX
  8
0
 10
3.98415
 20
3.85736
 30
0.0
 40
0.0001488
 41
0.0001488
  0
VERTEX
  8
0
 10
3.87636
 20
3.73378
 30
0.0
 40
0.0001488
 41
0.0001488
  0
VERTEX
  8
0
 10
3.86231
 20
3.71761
 30
0.0
 40
0.0001488
 41
0.0001488
  0
VERTEX
  8
0
 10
3.82514
 20
3.67503
 30
0.0
 40
0.0001488
 41
0.0001488
  0
VERTEX
  8
0
 10
3.72635
 20
3.56125
 30
0.0
 40
0.0001488
 41
0.0001488
  0
VERTEX
  8
0
 10
3.72293
 20
3.55729
 30
0.0
 40
0.0001488
 41
0.0001488
  0
VERTEX
  8
0
 10
3.70301
 20
3.53435
 30
0.0
 40
0.0001488
 41
0.0001488
  0
VERTEX
  8
0
 10
3.68007
 20
3.50792
 30
0.0
 40
0.0001488
 41
0.0001488
  0
VERTEX
  8
0
 10
3.6741
 20
3.50103
 30
0.0
 40
0.0001488
 41
0.0001488
  0
VERTEX
  8
0
 10
3.65403
 20
3.47792
 30
0.0
 40
0.0001488
 41
0.0001488
  0
VERTEX
  8
0
 10
3.48247
 20
3.27951
 30
0.0
 40
0.0001488
 41
0.0001488
  0
VERTEX
  8
0
 10
3.47265
 20
3.26812
 30
0.0
 40
0.0001488
 41
0.0001488
  0
VERTEX
  8
0
 10
3.44797
 20
3.23947
 30
0.0
 40
0.0001488
 41
0.0001488
  0
VERTEX
  8
0
 10
3.28293
 20
3.04801
 30
0.0
 40
0.0001488
 41
0.0001488
  0
VERTEX
  8
0
 10
3.08708
 20
2.81993
 30
0.0
 40
0.0001488
 41
0.0001488
  0
VERTEX
  8
0
 10
3.07742
 20
2.80865
 30
0.0
 40
0.0001488
 41
0.0001488
  0
VERTEX
  8
0
 10
2.92563
 20
2.63129
 30
0.0
 40
0.0001488
 41
0.0001488
  0
VERTEX
  8
0
 10
2.88715
 20
2.58643
 30
0.0
 40
0.0001488
 41
0.0001488
  0
VERTEX
  8
0
 10
2.8846
 20
2.58344
 30
0.0
 40
0.0001488
 41
0.0001488
  0
VERTEX
  8
0
 10
2.76535
 20
2.44368
 30
0.0
 40
0.0001488
 41
0.0001488
  0
VERTEX
  8
0
 10
2.68539
 20
2.34999
 30
0.0
 40
0.0001488
 41
0.0001488
  0
VERTEX
  8
0
 10
2.57221
 20
2.21701
 30
0.0
 40
0.0001488
 41
0.0001488
  0
VERTEX
  8
0
 10
2.48394
 20
2.11328
 30
0.0
 40
0.0001488
 41
0.0001488
  0
VERTEX
  8
0
 10
2.2851
 20
1.8789
 30
0.0
 40
0.0001488
 41
0.0001488
  0
VERTEX
  8
0
 10
2.09093
 20
1.64936
 30
0.0
 40
0.0001488
 41
0.0001488
  0
VERTEX
  8
0
 10
1.95964
 20
1.49365
 30
0.0
 40
0.0001488
 41
0.0001488
  0
VERTEX
  8
0
 10
1.90365
 20
1.42719
 30
0.0
 40
0.0001488
 41
0.0001488
  0
VERTEX
  8
0
 10
1.79503
 20
1.29785
 30
0.0
 40
0.0001488
 41
0.0001488
  0
VERTEX
  8
0
 10
1.72526
 20
1.21484
 30
0.0
 40
0.0001488
 41
0.0001488
  0
VERTEX
  8
0
 10
1.69661
 20
1.18061
 30
0.0
 40
0.0001488
 41
0.0001488
  0
VERTEX
  8
0
 10
1.67404
 20
1.15359
 30
0.0
 40
0.0001488
 41
0.0001488
  0
VERTEX
  8
0
 10
1.58469
 20
1.04682
 30
0.0
 40
0.0001488
 41
0.0001488
  0
VERTEX
  8
0
 10
1.55778
 20
1.01465
 30
0.0
 40
0.0001488
 41
0.0001488
  0
VERTEX
  8
0
 10
1.45481
 20
0.89106
 30
0.0
 40
0.0001488
 41
0.0001488
  0
VERTEX
  8
0
 10
1.45285
 20
0.888726
 30
0.0
 40
0.0001488
 41
0.0001488
  0
SEQEND
 8
0
  0
POLYLINE
  8
0
 62
     1
 66
     1
 10
0
 20
0
 30
0.0
 70
     1
 40
0.0107136
 41
0.0107136
  0
VERTEX
  8
0
 10
0.436632
 20
0.35216
 30
0.0
 40
0.0001488
 41
0.0001488
  0
VERTEX
  8
0
 10
0.445313
 20
0.353569
 30
0.0
 40
0.0001488
 41
0.0001488
  0
VERTEX
  8
0
 10
0.453885
 20
0.355957
 30
0.0
 40
0.0001488
 41
0.0001488
  0
VERTEX
  8
0
 10
0.462076
 20
0.359267
 30
0.0
 40
0.0001488
 41
0.0001488
  0
VERTEX
  8
0
 10
0.469781
 20
0.363499
 30
0.0
 40
0.0001488
 41
0.0001488
  0
VERTEX
  8
0
 10
0.475424
 20
0.367404
 30
0.0
 40
0.0001488
 41
0.0001488
  0
VERTEX
  8
0
 10
0.475803
 20
0.367676
 30
0.0
 40
0.0001488
 41
0.0001488
  0
VERTEX
  8
0
 10
0.477051
 20
0.368544
 30
0.0
 40
0.0001488
 41
0.0001488
  0
VERTEX
  8
0
 10
0.483724
 20
0.374349
 30
0.0
 40
0.0001488
 41
0.0001488
  0
VERTEX
  8
0
 10
0.489637
 20
0.380968
 30
0.0
 40
0.0001488
 41
0.0001488
  0
VERTEX
  8
0
 10
0.494792
 20
0.388129
 30
0.0
 40
0.0001488
 41
0.0001488
  0
VERTEX
  8
0
 10
0.499132
 20
0.395833
 30
0.0
 40
0.0001488
 41
0.0001488
  0
VERTEX
  8
0
 10
0.502604
 20
0.403917
 30
0.0
 40
0.0001488
 41
0.0001488
  0
VERTEX
  8
0
 10
0.5051
 20
0.412435
 30
0.0
 40
0.0001488
 41
0.0001488
  0
VERTEX
  8
0
 10
0.506674
 20
0.421115
 30
0.0
 40
0.0001488
 41
0.0001488
  0
VERTEX
  8
0
 10
0.507107
 20
0.427951
 30
0.0
 40
0.0001488
 41
0.0001488
  0
VERTEX
  8
0
 10
0.507215
 20
0.429958
 30
0.0
 40
0.0001488
 41
0.0001488
  0
VERTEX
  8
0
 10
0.506782
 20
0.438803
 30
0.0
 40
0.0001488
 41
0.0001488
  0
VERTEX
  8
0
 10
0.505371
 20
0.447537
 30
0.0
 40
0.0001488
 41
0.0001488
  0
VERTEX
  8
0
 10
0.502983
 20
0.456
 30
0.0
 40
0.0001488
 41
0.0001488
  0
VERTEX
  8
0
 10
0.499675
 20
0.464193
 30
0.0
 40
0.0001488
 41
0.0001488
  0
VERTEX
  8
0
 10
0.495497
 20
0.472006
 30
0.0
 40
0.0001488
 41
0.0001488
  0
VERTEX
  8
0
 10
0.490397
 20
0.479275
 30
0.0
 40
0.0001488
 41
0.0001488
  0
VERTEX
  8
0
 10
0.484592
 20
0.48584
 30
0.0
 40
0.0001488
 41
0.0001488
  0
VERTEX
  8
0
 10
0.477974
 20
0.491808
 30
0.0
 40
0.0001488
 41
0.0001488
  0
VERTEX
  8
0
 10
0.475803
 20
0.493381
 30
0.0
 40
0.0001488
 41
0.0001488
  0
VERTEX
  8
0
 10
0.475424
 20
0.493707
 30
0.0
 40
0.0001488
 41
0.0001488
  0
VERTEX
  8
0
 10
0.470811
 20
0.497017
 30
0.0
 40
0.0001488
 41
0.0001488
  0
VERTEX
  8
0
 10
0.463162
 20
0.501357
 30
0.0
 40
0.0001488
 41
0.0001488
  0
VERTEX
  8
0
 10
0.455024
 20
0.504775
 30
0.0
 40
0.0001488
 41
0.0001488
  0
VERTEX
  8
0
 10
0.446506
 20
0.507269
 30
0.0
 40
0.0001488
 41
0.0001488
  0
VERTEX
  8
0
 10
0.439128
 20
0.508572
 30
0.0
 40
0.0001488
 41
0.0001488
  0
VERTEX
  8
0
 10
0.437771
 20
0.508789
 30
0.0
 40
0.0001488
 41
0.0001488
  0
VERTEX
  8
0
 10
0.428982
 20
0.509386
 30
0.0
 40
0.0001488
 41
0.0001488
  0
VERTEX
  8
0
 10
0.420139
 20
0.508951
 30
0.0
 40
0.0001488
 41
0.0001488
  0
VERTEX
  8
0
 10
0.417751
 20
0.508572
 30
0.0
 40
0.0001488
 41
0.0001488
  0
VERTEX
  8
0
 10
0.411404
 20
0.507542
 30
0.0
 40
0.0001488
 41
0.0001488
  0
VERTEX
  8
0
 10
0.40294
 20
0.505154
 30
0.0
 40
0.0001488
 41
0.0001488
  0
VERTEX
  8
0
 10
0.395182
 20
0.502061
 30
0.0
 40
0.0001488
 41
0.0001488
  0
VERTEX
  8
0
 10
0.394749
 20
0.501844
 30
0.0
 40
0.0001488
 41
0.0001488
  0
VERTEX
  8
0
 10
0.38699
 20
0.497612
 30
0.0
 40
0.0001488
 41
0.0001488
  0
VERTEX
  8
0
 10
0.379665
 20
0.492567
 30
0.0
 40
0.0001488
 41
0.0001488
  0
VERTEX
  8
0
 10
0.373047
 20
0.486708
 30
0.0
 40
0.0001488
 41
0.0001488
  0
VERTEX
  8
0
 10
0.367133
 20
0.480197
 30
0.0
 40
0.0001488
 41
0.0001488
  0
VERTEX
  8
0
 10
0.361979
 20
0.473036
 30
0.0
 40
0.0001488
 41
0.0001488
  0
VERTEX
  8
0
 10
0.357585
 20
0.465332
 30
0.0
 40
0.0001488
 41
0.0001488
  0
VERTEX
  8
0
 10
0.354167
 20
0.45714
 30
0.0
 40
0.0001488
 41
0.0001488
  0
VERTEX
  8
0
 10
0.351671
 20
0.448676
 30
0.0
 40
0.0001488
 41
0.0001488
  0
VERTEX
  8
0
 10
0.350097
 20
0.439996
 30
0.0
 40
0.0001488
 41
0.0001488
  0
VERTEX
  8
0
 10
0.349556
 20
0.431153
 30
0.0
 40
0.0001488
 41
0.0001488
  0
VERTEX
  8
0
 10
0.349664
 20
0.427951
 30
0.0
 40
0.0001488
 41
0.0001488
  0
VERTEX
  8
0
 10
0.349989
 20
0.42231
 30
0.0
 40
0.0001488
 41
0.0001488
  0
VERTEX
  8
0
 10
0.3514
 20
0.413629
 30
0.0
 40
0.0001488
 41
0.0001488
  0
VERTEX
  8
0
 10
0.353788
 20
0.405057
 30
0.0
 40
0.0001488
 41
0.0001488
  0
VERTEX
  8
0
 10
0.357096
 20
0.396864
 30
0.0
 40
0.0001488
 41
0.0001488
  0
VERTEX
  8
0
 10
0.361328
 20
0.389106
 30
0.0
 40
0.0001488
 41
0.0001488
  0
VERTEX
  8
0
 10
0.366374
 20
0.38189
 30
0.0
 40
0.0001488
 41
0.0001488
  0
VERTEX
  8
0
 10
0.372233
 20
0.375217
 30
0.0
 40
0.0001488
 41
0.0001488
  0
VERTEX
  8
0
 10
0.378743
 20
0.369303
 30
0.0
 40
0.0001488
 41
0.0001488
  0
VERTEX
  8
0
 10
0.38596
 20
0.36415
 30
0.0
 40
0.0001488
 41
0.0001488
  0
VERTEX
  8
0
 10
0.393608
 20
0.35981
 30
0.0
 40
0.0001488
 41
0.0001488
  0
VERTEX
  8
0
 10
0.395182
 20
0.359104
 30
0.0
 40
0.0001488
 41
0.0001488
  0
VERTEX
  8
0
 10
0.401801
 20
0.356337
 30
0.0
 40
0.0001488
 41
0.0001488
  0
VERTEX
  8
0
 10
0.410265
 20
0.353842
 30
0.0
 40
0.0001488
 41
0.0001488
  0
VERTEX
  8
0
 10
0.418946
 20
0.352268
 30
0.0
 40
0.0001488
 41
0.0001488
  0
VERTEX
  8
0
 10
0.427789
 20
0.351725
 30
0.0
 40
0.0001488
 41
0.0001488
  0
VERTEX
  8
0
 10
0.436632
 20
0.35216
 30
0.0
 40
0.0001488
 41
0.0001488
  0
SEQEND
 8
0
  0
POLYLINE
  8
0
 62
     1
 66
     1
 10
0
 20
0
 30
0.0
 70
     1
 40
0.0107136
 41
0.0107136
  0
VERTEX
  8
0
 10
0.516439
 20
0.588758
 30
0.0
 40
0.0001488
 41
0.0001488
  0
VERTEX
  8
0
 10
0.521376
 20
0.576497
 30
0.0
 40
0.0001488
 41
0.0001488
  0
VERTEX
  8
0
 10
0.527724
 20
0.564833
 30
0.0
 40
0.0001488
 41
0.0001488
  0
VERTEX
  8
0
 10
0.535319
 20
0.553982
 30
0.0
 40
0.0001488
 41
0.0001488
  0
VERTEX
  8
0
 10
0.544054
 20
0.544
 30
0.0
 40
0.0001488
 41
0.0001488
  0
VERTEX
  8
0
 10
0.553874
 20
0.535101
 30
0.0
 40
0.0001488
 41
0.0001488
  0
VERTEX
  8
0
 10
0.564615
 20
0.527344
 30
0.0
 40
0.0001488
 41
0.0001488
  0
VERTEX
  8
0
 10
0.576172
 20
0.520887
 30
0.0
 40
0.0001488
 41
0.0001488
  0
VERTEX
  8
0
 10
0.588379
 20
0.515679
 30
0.0
 40
0.0001488
 41
0.0001488
  0
VERTEX
  8
0
 10
0.601129
 20
0.511936
 30
0.0
 40
0.0001488
 41
0.0001488
  0
VERTEX
  8
0
 10
0.61415
 20
0.509603
 30
0.0
 40
0.0001488
 41
0.0001488
  0
VERTEX
  8
0
 10
0.627388
 20
0.508789
 30
0.0
 40
0.0001488
 41
0.0001488
  0
VERTEX
  8
0
 10
0.637099
 20
0.509224
 30
0.0
 40
0.0001488
 41
0.0001488
  0
VERTEX
  8
0
 10
0.640625
 20
0.509386
 30
0.0
 40
0.0001488
 41
0.0001488
  0
VERTEX
  8
0
 10
0.6537
 20
0.511556
 30
0.0
 40
0.0001488
 41
0.0001488
  0
VERTEX
  8
0
 10
0.66645
 20
0.515136
 30
0.0
 40
0.0001488
 41
0.0001488
  0
VERTEX
  8
0
 10
0.678765
 20
0.520074
 30
0.0
 40
0.0001488
 41
0.0001488
  0
VERTEX
  8
0
 10
0.690375
 20
0.526421
 30
0.0
 40
0.0001488
 41
0.0001488
  0
VERTEX
  8
0
 10
0.701281
 20
0.533963
 30
0.0
 40
0.0001488
 41
0.0001488
  0
VERTEX
  8
0
 10
0.711208
 20
0.542751
 30
0.0
 40
0.0001488
 41
0.0001488
  0
VERTEX
  8
0
 10
0.720107
 20
0.552572
 30
0.0
 40
0.0001488
 41
0.0001488
  0
VERTEX
  8
0
 10
0.727865
 20
0.563314
 30
0.0
 40
0.0001488
 41
0.0001488
  0
VERTEX
  8
0
 10
0.734375
 20
0.574869
 30
0.0
 40
0.0001488
 41
0.0001488
  0
VERTEX
  8
0
 10
0.739583
 20
0.587076
 30
0.0
 40
0.0001488
 41
0.0001488
  0
VERTEX
  8
0
 10
0.740181
 20
0.589193
 30
0.0
 40
0.0001488
 41
0.0001488
  0
VERTEX
  8
0
 10
0.743326
 20
0.599772
 30
0.0
 40
0.0001488
 41
0.0001488
  0
VERTEX
  8
0
 10
0.74566
 20
0.612847
 30
0.0
 40
0.0001488
 41
0.0001488
  0
VERTEX
  8
0
 10
0.746474
 20
0.626085
 30
0.0
 40
0.0001488
 41
0.0001488
  0
VERTEX
  8
0
 10
0.745822
 20
0.639268
 30
0.0
 40
0.0001488
 41
0.0001488
  0
VERTEX
  8
0
 10
0.743761
 20
0.652399
 30
0.0
 40
0.0001488
 41
0.0001488
  0
VERTEX
  8
0
 10
0.740181
 20
0.665147
 30
0.0
 40
0.0001488
 41
0.0001488
  0
VERTEX
  8
0
 10
0.738226
 20
0.669814
 30
0.0
 40
0.0001488
 41
0.0001488
  0
VERTEX
  8
0
 10
0.735135
 20
0.677463
 30
0.0
 40
0.0001488
 41
0.0001488
  0
VERTEX
  8
0
 10
0.728842
 20
0.689074
 30
0.0
 40
0.0001488
 41
0.0001488
  0
VERTEX
  8
0
 10
0.721246
 20
0.699978
 30
0.0
 40
0.0001488
 41
0.0001488
  0
VERTEX
  8
0
 10
0.712511
 20
0.709907
 30
0.0
 40
0.0001488
 41
0.0001488
  0
VERTEX
  8
0
 10
0.702692
 20
0.718804
 30
0.0
 40
0.0001488
 41
0.0001488
  0
VERTEX
  8
0
 10
0.691949
 20
0.726563
 30
0.0
 40
0.0001488
 41
0.0001488
  0
VERTEX
  8
0
 10
0.680393
 20
0.733074
 30
0.0
 40
0.0001488
 41
0.0001488
  0
VERTEX
  8
0
 10
0.668186
 20
0.738226
 30
0.0
 40
0.0001488
 41
0.0001488
  0
VERTEX
  8
0
 10
0.65549
 20
0.742025
 30
0.0
 40
0.0001488
 41
0.0001488
  0
VERTEX
  8
0
 10
0.642415
 20
0.744303
 30
0.0
 40
0.0001488
 41
0.0001488
  0
VERTEX
  8
0
 10
0.637099
 20
0.744683
 30
0.0
 40
0.0001488
 41
0.0001488
  0
VERTEX
  8
0
 10
0.629178
 20
0.745171
 30
0.0
 40
0.0001488
 41
0.0001488
  0
VERTEX
  8
0
 10
0.61594
 20
0.744521
 30
0.0
 40
0.0001488
 41
0.0001488
  0
VERTEX
  8
0
 10
0.602865
 20
0.742404
 30
0.0
 40
0.0001488
 41
0.0001488
  0
VERTEX
  8
0
 10
0.590115
 20
0.738878
 30
0.0
 40
0.0001488
 41
0.0001488
  0
VERTEX
  8
0
 10
0.5778
 20
0.733832
 30
0.0
 40
0.0001488
 41
0.0001488
  0
VERTEX
  8
0
 10
0.566189
 20
0.727539
 30
0.0
 40
0.0001488
 41
0.0001488
  0
VERTEX
  8
0
 10
0.555285
 20
0.719943
 30
0.0
 40
0.0001488
 41
0.0001488
  0
VERTEX
  8
0
 10
0.545356
 20
0.711154
 30
0.0
 40
0.0001488
 41
0.0001488
  0
VERTEX
  8
0
 10
0.536404
 20
0.701389
 30
0.0
 40
0.0001488
 41
0.0001488
  0
VERTEX
  8
0
 10
0.528646
 20
0.690647
 30
0.0
 40
0.0001488
 41
0.0001488
  0
VERTEX
  8
0
 10
0.52219
 20
0.679036
 30
0.0
 40
0.0001488
 41
0.0001488
  0
VERTEX
  8
0
 10
0.518283
 20
0.669814
 30
0.0
 40
0.0001488
 41
0.0001488
  0
VERTEX
  8
0
 10
0.517036
 20
0.666829
 30
0.0
 40
0.0001488
 41
0.0001488
  0
VERTEX
  8
0
 10
0.513237
 20
0.654189
 30
0.0
 40
0.0001488
 41
0.0001488
  0
VERTEX
  8
0
 10
0.510906
 20
0.641114
 30
0.0
 40
0.0001488
 41
0.0001488
  0
VERTEX
  8
0
 10
0.510092
 20
0.627875
 30
0.0
 40
0.0001488
 41
0.0001488
  0
VERTEX
  8
0
 10
0.510688
 20
0.614637
 30
0.0
 40
0.0001488
 41
0.0001488
  0
VERTEX
  8
0
 10
0.512858
 20
0.601508
 30
0.0
 40
0.0001488
 41
0.0001488
  0
VERTEX
  8
0
 10
0.516276
 20
0.589193
 30
0.0
 40
0.0001488
 41
0.0001488
  0
VERTEX
  8
0
 10
0.516439
 20
0.588758
 30
0.0
 40
0.0001488
 41
0.0001488
  0
SEQEND
 8
0
  0
POLYLINE
  8
0
 62
     1
 66
     1
 10
0
 20
0
 30
0.0
 70
     1
 40
0.0107136
 41
0.0107136
  0
VERTEX
  8
0
 10
1.34684
 20
1.11898
 30
0.0
 40
0.0001488
 41
0.0001488
  0
VERTEX
  8
0
 10
1.35032
 20
1.12712
 30
0.0
 40
0.0001488
 41
0.0001488
  0
VERTEX
  8
0
 10
1.35287
 20
1.13558
 30
0.0
 40
0.0001488
 41
0.0001488
  0
VERTEX
  8
0
 10
1.35438
 20
1.14431
 30
0.0
 40
0.0001488
 41
0.0001488
  0
VERTEX
  8
0
 10
1.35493
 20
1.1531
 30
0.0
 40
0.0001488
 41
0.0001488
  0
VERTEX
  8
0
 10
1.35493
 20
1.15359
 30
0.0
 40
0.0001488
 41
0.0001488
  0
VERTEX
  8
0
 10
1.35449
 20
1.16195
 30
0.0
 40
0.0001488
 41
0.0001488
  0
VERTEX
  8
0
 10
1.35308
 20
1.17068
 30
0.0
 40
0.0001488
 41
0.0001488
  0
VERTEX
  8
0
 10
1.35069
 20
1.17914
 30
0.0
 40
0.0001488
 41
0.0001488
  0
VERTEX
  8
0
 10
1.34738
 20
1.18734
 30
0.0
 40
0.0001488
 41
0.0001488
  0
VERTEX
  8
0
 10
1.34315
 20
1.19515
 30
0.0
 40
0.0001488
 41
0.0001488
  0
VERTEX
  8
0
 10
1.34272
 20
1.1958
 30
0.0
 40
0.0001488
 41
0.0001488
  0
VERTEX
  8
0
 10
1.33811
 20
1.20242
 30
0.0
 40
0.0001488
 41
0.0001488
  0
VERTEX
  8
0
 10
1.3323
 20
1.20898
 30
0.0
 40
0.0001488
 41
0.0001488
  0
VERTEX
  8
0
 10
1.32574
 20
1.21495
 30
0.0
 40
0.0001488
 41
0.0001488
  0
VERTEX
  8
0
 10
1.31852
 20
1.22016
 30
0.0
 40
0.0001488
 41
0.0001488
  0
VERTEX
  8
0
 10
1.31082
 20
1.2245
 30
0.0
 40
0.0001488
 41
0.0001488
  0
VERTEX
  8
0
 10
1.30273
 20
1.22792
 30
0.0
 40
0.0001488
 41
0.0001488
  0
VERTEX
  8
0
 10
1.29422
 20
1.23041
 30
0.0
 40
0.0001488
 41
0.0001488
  0
VERTEX
  8
0
 10
1.28554
 20
1.23199
 30
0.0
 40
0.0001488
 41
0.0001488
  0
VERTEX
  8
0
 10
1.28212
 20
1.23221
 30
0.0
 40
0.0001488
 41
0.0001488
  0
VERTEX
  8
0
 10
1.27669
 20
1.23253
 30
0.0
 40
0.0001488
 41
0.0001488
  0
VERTEX
  8
0
 10
1.2679
 20
1.2321
 30
0.0
 40
0.0001488
 41
0.0001488
  0
VERTEX
  8
0
 10
1.25912
 20
1.23069
 30
0.0
 40
0.0001488
 41
0.0001488
  0
VERTEX
  8
0
 10
1.25065
 20
1.22835
 30
0.0
 40
0.0001488
 41
0.0001488
  0
VERTEX
  8
0
 10
1.24246
 20
1.22499
 30
0.0
 40
0.0001488
 41
0.0001488
  0
VERTEX
  8
0
 10
1.23465
 20
1.22076
 30
0.0
 40
0.0001488
 41
0.0001488
  0
VERTEX
  8
0
 10
1.22743
 20
1.21577
 30
0.0
 40
0.0001488
 41
0.0001488
  0
VERTEX
  8
0
 10
1.22081
 20
1.20985
 30
0.0
 40
0.0001488
 41
0.0001488
  0
VERTEX
  8
0
 10
1.21484
 20
1.20334
 30
0.0
 40
0.0001488
 41
0.0001488
  0
VERTEX
  8
0
 10
1.20964
 20
1.19618
 30
0.0
 40
0.0001488
 41
0.0001488
  0
VERTEX
  8
0
 10
1.2053
 20
1.18848
 30
0.0
 40
0.0001488
 41
0.0001488
  0
VERTEX
  8
0
 10
1.20188
 20
1.18028
 30
0.0
 40
0.0001488
 41
0.0001488
  0
VERTEX
  8
0
 10
1.2015
 20
1.17898
 30
0.0
 40
0.0001488
 41
0.0001488
  0
VERTEX
  8
0
 10
1.19938
 20
1.17182
 30
0.0
 40
0.0001488
 41
0.0001488
  0
VERTEX
  8
0
 10
1.19819
 20
1.16504
 30
0.0
 40
0.0001488
 41
0.0001488
  0
VERTEX
  8
0
 10
1.19786
 20
1.16314
 30
0.0
 40
0.0001488
 41
0.0001488
  0
VERTEX
  8
0
 10
1.19727
 20
1.15435
 30
0.0
 40
0.0001488
 41
0.0001488
  0
VERTEX
  8
0
 10
1.19727
 20
1.15359
 30
0.0
 40
0.0001488
 41
0.0001488
  0
VERTEX
  8
0
 10
1.1977
 20
1.14545
 30
0.0
 40
0.0001488
 41
0.0001488
  0
VERTEX
  8
0
 10
1.19911
 20
1.13677
 30
0.0
 40
0.0001488
 41
0.0001488
  0
VERTEX
  8
0
 10
1.2015
 20
1.12826
 30
0.0
 40
0.0001488
 41
0.0001488
  0
VERTEX
  8
0
 10
1.20481
 20
1.12001
 30
0.0
 40
0.0001488
 41
0.0001488
  0
VERTEX
  8
0
 10
1.20904
 20
1.1123
 30
0.0
 40
0.0001488
 41
0.0001488
  0
VERTEX
  8
0
 10
1.21408
 20
1.10503
 30
0.0
 40
0.0001488
 41
0.0001488
  0
VERTEX
  8
0
 10
1.21994
 20
1.09836
 30
0.0
 40
0.0001488
 41
0.0001488
  0
VERTEX
  8
0
 10
1.22645
 20
1.09245
 30
0.0
 40
0.0001488
 41
0.0001488
  0
VERTEX
  8
0
 10
1.23362
 20
1.08729
 30
0.0
 40
0.0001488
 41
0.0001488
  0
VERTEX
  8
0
 10
1.24132
 20
1.08295
 30
0.0
 40
0.0001488
 41
0.0001488
  0
VERTEX
  8
0
 10
1.24951
 20
1.07948
 30
0.0
 40
0.0001488
 41
0.0001488
  0
VERTEX
  8
0
 10
1.25798
 20
1.07699
 30
0.0
 40
0.0001488
 41
0.0001488
  0
VERTEX
  8
0
 10
1.26666
 20
1.07541
 30
0.0
 40
0.0001488
 41
0.0001488
  0
VERTEX
  8
0
 10
1.2755
 20
1.07487
 30
0.0
 40
0.0001488
 41
0.0001488
  0
VERTEX
  8
0
 10
1.28212
 20
1.0752
 30
0.0
 40
0.0001488
 41
0.0001488
  0
VERTEX
  8
0
 10
1.28434
 20
1.0753
 30
0.0
 40
0.0001488
 41
0.0001488
  0
VERTEX
  8
0
 10
1.29302
 20
1.07671
 30
0.0
 40
0.0001488
 41
0.0001488
  0
VERTEX
  8
0
 10
1.30159
 20
1.0791
 30
0.0
 40
0.0001488
 41
0.0001488
  0
VERTEX
  8
0
 10
1.30979
 20
1.08241
 30
0.0
 40
0.0001488
 41
0.0001488
  0
VERTEX
  8
0
 10
1.31755
 20
1.08664
 30
0.0
 40
0.0001488
 41
0.0001488
  0
VERTEX
  8
0
 10
1.32476
 20
1.09169
 30
0.0
 40
0.0001488
 41
0.0001488
  0
VERTEX
  8
0
 10
1.33143
 20
1.09755
 30
0.0
 40
0.0001488
 41
0.0001488
  0
VERTEX
  8
0
 10
1.33735
 20
1.10411
 30
0.0
 40
0.0001488
 41
0.0001488
  0
VERTEX
  8
0
 10
1.3425
 20
1.11127
 30
0.0
 40
0.0001488
 41
0.0001488
  0
VERTEX
  8
0
 10
1.3437
 20
1.11328
 30
0.0
 40
0.0001488
 41
0.0001488
  0
VERTEX
  8
0
 10
1.34684
 20
1.11898
 30
0.0
 40
0.0001488
 41
0.0001488
  0
SEQEND
 8
0
  0
POLYLINE
  8
0
 62
     1
 66
     1
 10
0
 20
0
 30
0.0
 70
     1
 40
0.0107136
 41
0.0107136
  0
VERTEX
  8
0
 10
0.705567
 20
1.23107
 30
0.0
 40
0.0001488
 41
0.0001488
  0
VERTEX
  8
0
 10
0.706597
 20
1.23427
 30
0.0
 40
0.0001488
 41
0.0001488
  0
VERTEX
  8
0
 10
0.708333
 20
1.23942
 30
0.0
 40
0.0001488
 41
0.0001488
  0
VERTEX
  8
0
 10
0.710232
 20
1.24805
 30
0.0
 40
0.0001488
 41
0.0001488
  0
VERTEX
  8
0
 10
0.711154
 20
1.25684
 30
0.0
 40
0.0001488
 41
0.0001488
  0
VERTEX
  8
0
 10
0.711046
 20
1.26568
 30
0.0
 40
0.0001488
 41
0.0001488
  0
VERTEX
  8
0
 10
0.709961
 20
1.27447
 30
0.0
 40
0.0001488
 41
0.0001488
  0
VERTEX
  8
0
 10
0.7079
 20
1.28304
 30
0.0
 40
0.0001488
 41
0.0001488
  0
VERTEX
  8
0
 10
0.704861
 20
1.2914
 30
0.0
 40
0.0001488
 41
0.0001488
  0
VERTEX
  8
0
 10
0.700956
 20
1.29926
 30
0.0
 40
0.0001488
 41
0.0001488
  0
VERTEX
  8
0
 10
0.696181
 20
1.30675
 30
0.0
 40
0.0001488
 41
0.0001488
  0
VERTEX
  8
0
 10
0.690593
 20
1.31358
 30
0.0
 40
0.0001488
 41
0.0001488
  0
VERTEX
  8
0
 10
0.689236
 20
1.31489
 30
0.0
 40
0.0001488
 41
0.0001488
  0
VERTEX
  8
0
 10
0.684244
 20
1.31977
 30
0.0
 40
0.0001488
 41
0.0001488
  0
VERTEX
  8
0
 10
0.6773
 20
1.3252
 30
0.0
 40
0.0001488
 41
0.0001488
  0
VERTEX
  8
0
 10
0.66976
 20
1.32981
 30
0.0
 40
0.0001488
 41
0.0001488
  0
VERTEX
  8
0
 10
0.661729
 20
1.33355
 30
0.0
 40
0.0001488
 41
0.0001488
  0
VERTEX
  8
0
 10
0.653375
 20
1.33637
 30
0.0
 40
0.0001488
 41
0.0001488
  0
VERTEX
  8
0
 10
0.644749
 20
1.33822
 30
0.0
 40
0.0001488
 41
0.0001488
  0
VERTEX
  8
0
 10
0.637099
 20
1.33903
 30
0.0
 40
0.0001488
 41
0.0001488
  0
VERTEX
  8
0
 10
0.63596
 20
1.33914
 30
0.0
 40
0.0001488
 41
0.0001488
  0
VERTEX
  8
0
 10
0.627115
 20
1.33903
 30
0.0
 40
0.0001488
 41
0.0001488
  0
VERTEX
  8
0
 10
0.618326
 20
1.33794
 30
0.0
 40
0.0001488
 41
0.0001488
  0
VERTEX
  8
0
 10
0.6097
 20
1.33588
 30
0.0
 40
0.0001488
 41
0.0001488
  0
VERTEX
  8
0
 10
0.6014
 20
1.33284
 30
0.0
 40
0.0001488
 41
0.0001488
  0
VERTEX
  8
0
 10
0.593533
 20
1.32899
 30
0.0
 40
0.0001488
 41
0.0001488
  0
VERTEX
  8
0
 10
0.586046
 20
1.32416
 30
0.0
 40
0.0001488
 41
0.0001488
  0
VERTEX
  8
0
 10
0.579264
 20
1.31858
 30
0.0
 40
0.0001488
 41
0.0001488
  0
VERTEX
  8
0
 10
0.575629
 20
1.31489
 30
0.0
 40
0.0001488
 41
0.0001488
  0
VERTEX
  8
0
 10
0.573079
 20
1.31228
 30
0.0
 40
0.0001488
 41
0.0001488
  0
VERTEX
  8
0
 10
0.567654
 20
1.30528
 30
0.0
 40
0.0001488
 41
0.0001488
  0
VERTEX
  8
0
 10
0.562989
 20
1.29774
 30
0.0
 40
0.0001488
 41
0.0001488
  0
VERTEX
  8
0
 10
0.559244
 20
1.28977
 30
0.0
 40
0.0001488
 41
0.0001488
  0
VERTEX
  8
0
 10
0.556424
 20
1.28136
 30
0.0
 40
0.0001488
 41
0.0001488
  0
VERTEX
  8
0
 10
0.554579
 20
1.27273
 30
0.0
 40
0.0001488
 41
0.0001488
  0
VERTEX
  8
0
 10
0.553657
 20
1.264
 30
0.0
 40
0.0001488
 41
0.0001488
  0
VERTEX
  8
0
 10
0.553765
 20
1.2551
 30
0.0
 40
0.0001488
 41
0.0001488
  0
VERTEX
  8
0
 10
0.55485
 20
1.24631
 30
0.0
 40
0.0001488
 41
0.0001488
  0
VERTEX
  8
0
 10
0.556912
 20
1.23774
 30
0.0
 40
0.0001488
 41
0.0001488
  0
VERTEX
  8
0
 10
0.55816
 20
1.23427
 30
0.0
 40
0.0001488
 41
0.0001488
  0
VERTEX
  8
0
 10
0.55995
 20
1.22944
 30
0.0
 40
0.0001488
 41
0.0001488
  0
VERTEX
  8
0
 10
0.563857
 20
1.22152
 30
0.0
 40
0.0001488
 41
0.0001488
  0
VERTEX
  8
0
 10
0.568631
 20
1.21408
 30
0.0
 40
0.0001488
 41
0.0001488
  0
VERTEX
  8
0
 10
0.574219
 20
1.20725
 30
0.0
 40
0.0001488
 41
0.0001488
  0
VERTEX
  8
0
 10
0.580513
 20
1.20106
 30
0.0
 40
0.0001488
 41
0.0001488
  0
VERTEX
  8
0
 10
0.587457
 20
1.19564
 30
0.0
 40
0.0001488
 41
0.0001488
  0
VERTEX
  8
0
 10
0.595053
 20
1.19103
 30
0.0
 40
0.0001488
 41
0.0001488
  0
VERTEX
  8
0
 10
0.603028
 20
1.18728
 30
0.0
 40
0.0001488
 41
0.0001488
  0
VERTEX
  8
0
 10
0.611436
 20
1.18446
 30
0.0
 40
0.0001488
 41
0.0001488
  0
VERTEX
  8
0
 10
0.620063
 20
1.18256
 30
0.0
 40
0.0001488
 41
0.0001488
  0
VERTEX
  8
0
 10
0.628851
 20
1.18169
 30
0.0
 40
0.0001488
 41
0.0001488
  0
VERTEX
  8
0
 10
0.637099
 20
1.18175
 30
0.0
 40
0.0001488
 41
0.0001488
  0
VERTEX
  8
0
 10
0.637696
 20
1.18175
 30
0.0
 40
0.0001488
 41
0.0001488
  0
VERTEX
  8
0
 10
0.646485
 20
1.18289
 30
0.0
 40
0.0001488
 41
0.0001488
  0
VERTEX
  8
0
 10
0.655057
 20
1.1849
 30
0.0
 40
0.0001488
 41
0.0001488
  0
VERTEX
  8
0
 10
0.663357
 20
1.18793
 30
0.0
 40
0.0001488
 41
0.0001488
  0
VERTEX
  8
0
 10
0.671278
 20
1.19184
 30
0.0
 40
0.0001488
 41
0.0001488
  0
VERTEX
  8
0
 10
0.678711
 20
1.19667
 30
0.0
 40
0.0001488
 41
0.0001488
  0
VERTEX
  8
0
 10
0.685547
 20
1.2022
 30
0.0
 40
0.0001488
 41
0.0001488
  0
VERTEX
  8
0
 10
0.691732
 20
1.20855
 30
0.0
 40
0.0001488
 41
0.0001488
  0
VERTEX
  8
0
 10
0.697157
 20
1.21549
 30
0.0
 40
0.0001488
 41
0.0001488
  0
VERTEX
  8
0
 10
0.701768
 20
1.22304
 30
0.0
 40
0.0001488
 41
0.0001488
  0
VERTEX
  8
0
 10
0.705567
 20
1.23107
 30
0.0
 40
0.0001488
 41
0.0001488
  0
SEQEND
 8
0
  0
POLYLINE
  8
0
 62
     1
 66
     1
 10
0
 20
0
 30
0.0
 70
     1
 40
0.0107136
 41
0.0107136
  0
VERTEX
  8
0
 10
5.28928
 20
5.31451
 30
0.0
 40
0.0001488
 41
0.0001488
  0
VERTEX
  8
0
 10
5.28982
 20
5.32215
 30
0.0
 40
0.0001488
 41
0.0001488
  0
VERTEX
  8
0
 10
5.28988
 20
5.3234
 30
0.0
 40
0.0001488
 41
0.0001488
  0
VERTEX
  8
0
 10
5.28933
 20
5.33197
 30
0.0
 40
0.0001488
 41
0.0001488
  0
VERTEX
  8
0
 10
5.28933
 20
5.33203
 30
0.0
 40
0.0001488
 41
0.0001488
  0
VERTEX
  8
0
 10
5.28851
 20
5.34494
 30
0.0
 40
0.0001488
 41
0.0001488
  0
VERTEX
  8
0
 10
5.28825
 20
5.34636
 30
0.0
 40
0.0001488
 41
0.0001488
  0
VERTEX
  8
0
 10
5.28683
 20
5.35363
 30
0.0
 40
0.0001488
 41
0.0001488
  0
VERTEX
  8
0
 10
5.28276
 20
5.36199
 30
0.0
 40
0.0001488
 41
0.0001488
  0
VERTEX
  8
0
 10
5.27794
 20
5.368
 30
0.0
 40
0.0001488
 41
0.0001488
  0
VERTEX
  8
0
 10
5.27647
 20
5.36974
 30
0.0
 40
0.0001488
 41
0.0001488
  0
VERTEX
  8
0
 10
5.26818
 20
5.37679
 30
0.0
 40
0.0001488
 41
0.0001488
  0
VERTEX
  8
0
 10
5.25792
 20
5.38286
 30
0.0
 40
0.0001488
 41
0.0001488
  0
VERTEX
  8
0
 10
5.25754
 20
5.38303
 30
0.0
 40
0.0001488
 41
0.0001488
  0
VERTEX
  8
0
 10
5.25456
 20
5.38428
 30
0.0
 40
0.0001488
 41
0.0001488
  0
VERTEX
  8
0
 10
5.2461
 20
5.38786
 30
0.0
 40
0.0001488
 41
0.0001488
  0
VERTEX
  8
0
 10
5.23301
 20
5.39165
 30
0.0
 40
0.0001488
 41
0.0001488
  0
VERTEX
  8
0
 10
5.23296
 20
5.39165
 30
0.0
 40
0.0001488
 41
0.0001488
  0
VERTEX
  8
0
 10
5.21881
 20
5.39415
 30
0.0
 40
0.0001488
 41
0.0001488
  0
VERTEX
  8
0
 10
5.204
 20
5.39529
 30
0.0
 40
0.0001488
 41
0.0001488
  0
VERTEX
  8
0
 10
5.18896
 20
5.39507
 30
0.0
 40
0.0001488
 41
0.0001488
  0
VERTEX
  8
0
 10
5.15403
 20
5.3929
 30
0.0
 40
0.0001488
 41
0.0001488
  0
VERTEX
  8
0
 10
5.15235
 20
5.39279
 30
0.0
 40
0.0001488
 41
0.0001488
  0
VERTEX
  8
0
 10
5.15207
 20
5.39274
 30
0.0
 40
0.0001488
 41
0.0001488
  0
VERTEX
  8
0
 10
5.15169
 20
5.39268
 30
0.0
 40
0.0001488
 41
0.0001488
  0
VERTEX
  8
0
 10
5.13704
 20
5.39111
 30
0.0
 40
0.0001488
 41
0.0001488
  0
VERTEX
  8
0
 10
5.1225
 20
5.38818
 30
0.0
 40
0.0001488
 41
0.0001488
  0
VERTEX
  8
0
 10
5.10878
 20
5.38396
 30
0.0
 40
0.0001488
 41
0.0001488
  0
VERTEX
  8
0
 10
5.0995
 20
5.37993
 30
0.0
 40
0.0001488
 41
0.0001488
  0
VERTEX
  8
0
 10
5.09625
 20
5.37853
 30
0.0
 40
0.0001488
 41
0.0001488
  0
VERTEX
  8
0
 10
5.08713
 20
5.37326
 30
0.0
 40
0.0001488
 41
0.0001488
  0
VERTEX
  8
0
 10
5.08507
 20
5.37207
 30
0.0
 40
0.0001488
 41
0.0001488
  0
VERTEX
  8
0
 10
5.07574
 20
5.36481
 30
0.0
 40
0.0001488
 41
0.0001488
  0
VERTEX
  8
0
 10
5.06831
 20
5.35682
 30
0.0
 40
0.0001488
 41
0.0001488
  0
VERTEX
  8
0
 10
5.06304
 20
5.34831
 30
0.0
 40
0.0001488
 41
0.0001488
  0
VERTEX
  8
0
 10
5.06239
 20
5.34636
 30
0.0
 40
0.0001488
 41
0.0001488
  0
VERTEX
  8
0
 10
5.06006
 20
5.33951
 30
0.0
 40
0.0001488
 41
0.0001488
  0
VERTEX
  8
0
 10
5.0599
 20
5.33735
 30
0.0
 40
0.0001488
 41
0.0001488
  0
VERTEX
  8
0
 10
5.0594
 20
5.33068
 30
0.0
 40
0.0001488
 41
0.0001488
  0
VERTEX
  8
0
 10
5.06076
 20
5.30914
 30
0.0
 40
0.0001488
 41
0.0001488
  0
VERTEX
  8
0
 10
5.06131
 20
5.30621
 30
0.0
 40
0.0001488
 41
0.0001488
  0
VERTEX
  8
0
 10
5.0625
 20
5.30046
 30
0.0
 40
0.0001488
 41
0.0001488
  0
VERTEX
  8
0
 10
5.0656
 20
5.29406
 30
0.0
 40
0.0001488
 41
0.0001488
  0
VERTEX
  8
0
 10
5.06651
 20
5.2921
 30
0.0
 40
0.0001488
 41
0.0001488
  0
VERTEX
  8
0
 10
5.07281
 20
5.28429
 30
0.0
 40
0.0001488
 41
0.0001488
  0
VERTEX
  8
0
 10
5.08117
 20
5.27729
 30
0.0
 40
0.0001488
 41
0.0001488
  0
VERTEX
  8
0
 10
5.09136
 20
5.27121
 30
0.0
 40
0.0001488
 41
0.0001488
  0
VERTEX
  8
0
 10
5.10058
 20
5.26731
 30
0.0
 40
0.0001488
 41
0.0001488
  0
VERTEX
  8
0
 10
5.10275
 20
5.26639
 30
0.0
 40
0.0001488
 41
0.0001488
  0
VERTEX
  8
0
 10
5.10319
 20
5.26617
 30
0.0
 40
0.0001488
 41
0.0001488
  0
VERTEX
  8
0
 10
5.11632
 20
5.26243
 30
0.0
 40
0.0001488
 41
0.0001488
  0
VERTEX
  8
0
 10
5.13049
 20
5.25988
 30
0.0
 40
0.0001488
 41
0.0001488
  0
VERTEX
  8
0
 10
5.14529
 20
5.25874
 30
0.0
 40
0.0001488
 41
0.0001488
  0
VERTEX
  8
0
 10
5.15235
 20
5.25885
 30
0.0
 40
0.0001488
 41
0.0001488
  0
VERTEX
  8
0
 10
5.16037
 20
5.25896
 30
0.0
 40
0.0001488
 41
0.0001488
  0
VERTEX
  8
0
 10
5.19726
 20
5.26129
 30
0.0
 40
0.0001488
 41
0.0001488
  0
VERTEX
  8
0
 10
5.20497
 20
5.2621
 30
0.0
 40
0.0001488
 41
0.0001488
  0
VERTEX
  8
0
 10
5.20497
 20
5.26215
 30
0.0
 40
0.0001488
 41
0.0001488
  0
VERTEX
  8
0
 10
5.21224
 20
5.26292
 30
0.0
 40
0.0001488
 41
0.0001488
  0
VERTEX
  8
0
 10
5.22678
 20
5.2659
 30
0.0
 40
0.0001488
 41
0.0001488
  0
VERTEX
  8
0
 10
5.23301
 20
5.26779
 30
0.0
 40
0.0001488
 41
0.0001488
  0
VERTEX
  8
0
 10
5.23514
 20
5.26844
 30
0.0
 40
0.0001488
 41
0.0001488
  0
VERTEX
  8
0
 10
5.23525
 20
5.2685
 30
0.0
 40
0.0001488
 41
0.0001488
  0
VERTEX
  8
0
 10
5.2405
 20
5.27013
 30
0.0
 40
0.0001488
 41
0.0001488
  0
VERTEX
  8
0
 10
5.24832
 20
5.27344
 30
0.0
 40
0.0001488
 41
0.0001488
  0
VERTEX
  8
0
 10
5.2531
 20
5.2755
 30
0.0
 40
0.0001488
 41
0.0001488
  0
VERTEX
  8
0
 10
5.26421
 20
5.28196
 30
0.0
 40
0.0001488
 41
0.0001488
  0
VERTEX
  8
0
 10
5.2736
 20
5.28922
 30
0.0
 40
0.0001488
 41
0.0001488
  0
VERTEX
  8
0
 10
5.28097
 20
5.29725
 30
0.0
 40
0.0001488
 41
0.0001488
  0
VERTEX
  8
0
 10
5.28624
 20
5.30572
 30
0.0
 40
0.0001488
 41
0.0001488
  0
VERTEX
  8
0
 10
5.28928
 20
5.31451
 30
0.0
 40
0.0001488
 41
0.0001488
  0
SEQEND
 8
0
  0
POLYLINE
  8
0
 62
     1
 66
     1
 10
0
 20
0
 30
0.0
 70
     1
 40
0.0107136
 41
0.0107136
  0
VERTEX
  8
0
 10
4.86057
 20
5.685
 30
0.0
 40
0.0001488
 41
0.0001488
  0
VERTEX
  8
0
 10
4.85943
 20
5.69536
 30
0.0
 40
0.0001488
 41
0.0001488
  0
VERTEX
  8
0
 10
4.85894
 20
5.69997
 30
0.0
 40
0.0001488
 41
0.0001488
  0
VERTEX
  8
0
 10
4.85596
 20
5.71451
 30
0.0
 40
0.0001488
 41
0.0001488
  0
VERTEX
  8
0
 10
4.85471
 20
5.71864
 30
0.0
 40
0.0001488
 41
0.0001488
  0
VERTEX
  8
0
 10
4.85172
 20
5.72825
 30
0.0
 40
0.0001488
 41
0.0001488
  0
VERTEX
  8
0
 10
4.84636
 20
5.74083
 30
0.0
 40
0.0001488
 41
0.0001488
  0
VERTEX
  8
0
 10
4.8399
 20
5.75196
 30
0.0
 40
0.0001488
 41
0.0001488
  0
VERTEX
  8
0
 10
4.83263
 20
5.76133
 30
0.0
 40
0.0001488
 41
0.0001488
  0
VERTEX
  8
0
 10
4.82986
 20
5.76389
 30
0.0
 40
0.0001488
 41
0.0001488
  0
VERTEX
  8
0
 10
4.82454
 20
5.76872
 30
0.0
 40
0.0001488
 41
0.0001488
  0
VERTEX
  8
0
 10
4.81608
 20
5.77403
 30
0.0
 40
0.0001488
 41
0.0001488
  0
VERTEX
  8
0
 10
4.80735
 20
5.77701
 30
0.0
 40
0.0001488
 41
0.0001488
  0
VERTEX
  8
0
 10
4.80675
 20
5.77701
 30
0.0
 40
0.0001488
 41
0.0001488
  0
VERTEX
  8
0
 10
4.79844
 20
5.77761
 30
0.0
 40
0.0001488
 41
0.0001488
  0
VERTEX
  8
0
 10
4.77692
 20
5.77632
 30
0.0
 40
0.0001488
 41
0.0001488
  0
VERTEX
  8
0
 10
4.76824
 20
5.77458
 30
0.0
 40
0.0001488
 41
0.0001488
  0
VERTEX
  8
0
 10
4.75988
 20
5.77051
 30
0.0
 40
0.0001488
 41
0.0001488
  0
VERTEX
  8
0
 10
4.75549
 20
5.76699
 30
0.0
 40
0.0001488
 41
0.0001488
  0
VERTEX
  8
0
 10
4.75211
 20
5.76426
 30
0.0
 40
0.0001488
 41
0.0001488
  0
VERTEX
  8
0
 10
4.74507
 20
5.75592
 30
0.0
 40
0.0001488
 41
0.0001488
  0
VERTEX
  8
0
 10
4.74126
 20
5.74951
 30
0.0
 40
0.0001488
 41
0.0001488
  0
VERTEX
  8
0
 10
4.73936
 20
5.74625
 30
0.0
 40
0.0001488
 41
0.0001488
  0
VERTEX
  8
0
 10
4.73899
 20
5.74567
 30
0.0
 40
0.0001488
 41
0.0001488
  0
VERTEX
  8
0
 10
4.734
 20
5.73383
 30
0.0
 40
0.0001488
 41
0.0001488
  0
VERTEX
  8
0
 10
4.73085
 20
5.72299
 30
0.0
 40
0.0001488
 41
0.0001488
  0
VERTEX
  8
0
 10
4.73047
 20
5.72157
 30
0.0
 40
0.0001488
 41
0.0001488
  0
VERTEX
  8
0
 10
4.73019
 20
5.72071
 30
0.0
 40
0.0001488
 41
0.0001488
  0
VERTEX
  8
0
 10
4.72771
 20
5.7066
 30
0.0
 40
0.0001488
 41
0.0001488
  0
VERTEX
  8
0
 10
4.72657
 20
5.69179
 30
0.0
 40
0.0001488
 41
0.0001488
  0
VERTEX
  8
0
 10
4.72678
 20
5.67671
 30
0.0
 40
0.0001488
 41
0.0001488
  0
VERTEX
  8
0
 10
4.72726
 20
5.66889
 30
0.0
 40
0.0001488
 41
0.0001488
  0
VERTEX
  8
0
 10
4.72911
 20
5.63981
 30
0.0
 40
0.0001488
 41
0.0001488
  0
VERTEX
  8
0
 10
4.73068
 20
5.62478
 30
0.0
 40
0.0001488
 41
0.0001488
  0
VERTEX
  8
0
 10
4.73367
 20
5.61029
 30
0.0
 40
0.0001488
 41
0.0001488
  0
VERTEX
  8
0
 10
4.7379
 20
5.59651
 30
0.0
 40
0.0001488
 41
0.0001488
  0
VERTEX
  8
0
 10
4.74001
 20
5.59158
 30
0.0
 40
0.0001488
 41
0.0001488
  0
VERTEX
  8
0
 10
4.74149
 20
5.58826
 30
0.0
 40
0.0001488
 41
0.0001488
  0
VERTEX
  8
0
 10
4.74333
 20
5.58399
 30
0.0
 40
0.0001488
 41
0.0001488
  0
VERTEX
  8
0
 10
4.74507
 20
5.58094
 30
0.0
 40
0.0001488
 41
0.0001488
  0
VERTEX
  8
0
 10
4.74978
 20
5.57281
 30
0.0
 40
0.0001488
 41
0.0001488
  0
VERTEX
  8
0
 10
4.75558
 20
5.56538
 30
0.0
 40
0.0001488
 41
0.0001488
  0
VERTEX
  8
0
 10
4.75706
 20
5.56347
 30
0.0
 40
0.0001488
 41
0.0001488
  0
VERTEX
  8
0
 10
4.76492
 20
5.55615
 30
0.0
 40
0.0001488
 41
0.0001488
  0
VERTEX
  8
0
 10
4.76503
 20
5.55604
 30
0.0
 40
0.0001488
 41
0.0001488
  0
VERTEX
  8
0
 10
4.77354
 20
5.55078
 30
0.0
 40
0.0001488
 41
0.0001488
  0
VERTEX
  8
0
 10
4.78233
 20
5.54779
 30
0.0
 40
0.0001488
 41
0.0001488
  0
VERTEX
  8
0
 10
4.78418
 20
5.54764
 30
0.0
 40
0.0001488
 41
0.0001488
  0
VERTEX
  8
0
 10
4.79118
 20
5.54715
 30
0.0
 40
0.0001488
 41
0.0001488
  0
VERTEX
  8
0
 10
4.81272
 20
5.5485
 30
0.0
 40
0.0001488
 41
0.0001488
  0
VERTEX
  8
0
 10
4.8214
 20
5.55024
 30
0.0
 40
0.0001488
 41
0.0001488
  0
VERTEX
  8
0
 10
4.82975
 20
5.55431
 30
0.0
 40
0.0001488
 41
0.0001488
  0
VERTEX
  8
0
 10
4.82986
 20
5.55436
 30
0.0
 40
0.0001488
 41
0.0001488
  0
VERTEX
  8
0
 10
4.83757
 20
5.56054
 30
0.0
 40
0.0001488
 41
0.0001488
  0
VERTEX
  8
0
 10
4.84457
 20
5.5689
 30
0.0
 40
0.0001488
 41
0.0001488
  0
VERTEX
  8
0
 10
4.85064
 20
5.57915
 30
0.0
 40
0.0001488
 41
0.0001488
  0
VERTEX
  8
0
 10
4.85151
 20
5.58117
 30
0.0
 40
0.0001488
 41
0.0001488
  0
VERTEX
  8
0
 10
4.85194
 20
5.58225
 30
0.0
 40
0.0001488
 41
0.0001488
  0
VERTEX
  8
0
 10
4.85568
 20
5.59093
 30
0.0
 40
0.0001488
 41
0.0001488
  0
VERTEX
  8
0
 10
4.85943
 20
5.60411
 30
0.0
 40
0.0001488
 41
0.0001488
  0
VERTEX
  8
0
 10
4.86199
 20
5.61822
 30
0.0
 40
0.0001488
 41
0.0001488
  0
VERTEX
  8
0
 10
4.86312
 20
5.63303
 30
0.0
 40
0.0001488
 41
0.0001488
  0
VERTEX
  8
0
 10
4.86301
 20
5.63872
 30
0.0
 40
0.0001488
 41
0.0001488
  0
VERTEX
  8
0
 10
4.86301
 20
5.6409
 30
0.0
 40
0.0001488
 41
0.0001488
  0
VERTEX
  8
0
 10
4.8629
 20
5.64811
 30
0.0
 40
0.0001488
 41
0.0001488
  0
VERTEX
  8
0
 10
4.86154
 20
5.66889
 30
0.0
 40
0.0001488
 41
0.0001488
  0
VERTEX
  8
0
 10
4.86128
 20
5.67356
 30
0.0
 40
0.0001488
 41
0.0001488
  0
VERTEX
  8
0
 10
4.86057
 20
5.685
 30
0.0
 40
0.0001488
 41
0.0001488
  0
SEQEND
 8
0
  0
POLYLINE
  8
0
 62
     1
 66
     1
 10
0
 20
0
 30
0.0
 70
     1
 40
0.0107136
 41
0.0107136
  0
VERTEX
  8
0
 10
4.95947
 20
5.37722
 30
0.0
 40
0.0001488
 41
0.0001488
  0
VERTEX
  8
0
 10
4.95861
 20
5.37939
 30
0.0
 40
0.0001488
 41
0.0001488
  0
VERTEX
  8
0
 10
4.94769
 20
5.39865
 30
0.0
 40
0.0001488
 41
0.0001488
  0
VERTEX
  8
0
 10
4.93419
 20
5.41624
 30
0.0
 40
0.0001488
 41
0.0001488
  0
VERTEX
  8
0
 10
4.9184
 20
5.43169
 30
0.0
 40
0.0001488
 41
0.0001488
  0
VERTEX
  8
0
 10
4.90061
 20
5.44482
 30
0.0
 40
0.0001488
 41
0.0001488
  0
VERTEX
  8
0
 10
4.88113
 20
5.4554
 30
0.0
 40
0.0001488
 41
0.0001488
  0
VERTEX
  8
0
 10
4.8604
 20
5.46311
 30
0.0
 40
0.0001488
 41
0.0001488
  0
VERTEX
  8
0
 10
4.85536
 20
5.46425
 30
0.0
 40
0.0001488
 41
0.0001488
  0
VERTEX
  8
0
 10
4.85357
 20
5.46463
 30
0.0
 40
0.0001488
 41
0.0001488
  0
VERTEX
  8
0
 10
4.83876
 20
5.46793
 30
0.0
 40
0.0001488
 41
0.0001488
  0
VERTEX
  8
0
 10
4.82986
 20
5.46858
 30
0.0
 40
0.0001488
 41
0.0001488
  0
VERTEX
  8
0
 10
4.81668
 20
5.46962
 30
0.0
 40
0.0001488
 41
0.0001488
  0
VERTEX
  8
0
 10
4.7946
 20
5.46821
 30
0.0
 40
0.0001488
 41
0.0001488
  0
VERTEX
  8
0
 10
4.77289
 20
5.46382
 30
0.0
 40
0.0001488
 41
0.0001488
  0
VERTEX
  8
0
 10
4.75206
 20
5.45638
 30
0.0
 40
0.0001488
 41
0.0001488
  0
VERTEX
  8
0
 10
4.75011
 20
5.45535
 30
0.0
 40
0.0001488
 41
0.0001488
  0
VERTEX
  8
0
 10
4.73242
 20
5.44613
 30
0.0
 40
0.0001488
 41
0.0001488
  0
VERTEX
  8
0
 10
4.72657
 20
5.44189
 30
0.0
 40
0.0001488
 41
0.0001488
  0
VERTEX
  8
0
 10
4.71446
 20
5.43326
 30
0.0
 40
0.0001488
 41
0.0001488
  0
VERTEX
  8
0
 10
4.6984
 20
5.41803
 30
0.0
 40
0.0001488
 41
0.0001488
  0
VERTEX
  8
0
 10
4.68463
 20
5.40067
 30
0.0
 40
0.0001488
 41
0.0001488
  0
VERTEX
  8
0
 10
4.67344
 20
5.38157
 30
0.0
 40
0.0001488
 41
0.0001488
  0
VERTEX
  8
0
 10
4.66499
 20
5.36111
 30
0.0
 40
0.0001488
 41
0.0001488
  0
VERTEX
  8
0
 10
4.66118
 20
5.34636
 30
0.0
 40
0.0001488
 41
0.0001488
  0
VERTEX
  8
0
 10
4.66032
 20
5.34304
 30
0.0
 40
0.0001488
 41
0.0001488
  0
VERTEX
  8
0
 10
4.65944
 20
5.33968
 30
0.0
 40
0.0001488
 41
0.0001488
  0
VERTEX
  8
0
 10
4.65696
 20
5.31771
 30
0.0
 40
0.0001488
 41
0.0001488
  0
VERTEX
  8
0
 10
4.65728
 20
5.30572
 30
0.0
 40
0.0001488
 41
0.0001488
  0
VERTEX
  8
0
 10
4.65756
 20
5.29557
 30
0.0
 40
0.0001488
 41
0.0001488
  0
VERTEX
  8
0
 10
4.66124
 20
5.27371
 30
0.0
 40
0.0001488
 41
0.0001488
  0
VERTEX
  8
0
 10
4.66792
 20
5.25265
 30
0.0
 40
0.0001488
 41
0.0001488
  0
VERTEX
  8
0
 10
4.67367
 20
5.24061
 30
0.0
 40
0.0001488
 41
0.0001488
  0
VERTEX
  8
0
 10
4.67746
 20
5.23269
 30
0.0
 40
0.0001488
 41
0.0001488
  0
VERTEX
  8
0
 10
4.68668
 20
5.21881
 30
0.0
 40
0.0001488
 41
0.0001488
  0
VERTEX
  8
0
 10
4.68972
 20
5.21419
 30
0.0
 40
0.0001488
 41
0.0001488
  0
VERTEX
  8
0
 10
4.70443
 20
5.19764
 30
0.0
 40
0.0001488
 41
0.0001488
  0
VERTEX
  8
0
 10
4.72125
 20
5.18332
 30
0.0
 40
0.0001488
 41
0.0001488
  0
VERTEX
  8
0
 10
4.7399
 20
5.17139
 30
0.0
 40
0.0001488
 41
0.0001488
  0
VERTEX
  8
0
 10
4.7601
 20
5.16228
 30
0.0
 40
0.0001488
 41
0.0001488
  0
VERTEX
  8
0
 10
4.76828
 20
5.15983
 30
0.0
 40
0.0001488
 41
0.0001488
  0
VERTEX
  8
0
 10
4.78131
 20
5.15597
 30
0.0
 40
0.0001488
 41
0.0001488
  0
VERTEX
  8
0
 10
4.80317
 20
5.15278
 30
0.0
 40
0.0001488
 41
0.0001488
  0
VERTEX
  8
0
 10
4.82536
 20
5.15261
 30
0.0
 40
0.0001488
 41
0.0001488
  0
VERTEX
  8
0
 10
4.82986
 20
5.15321
 30
0.0
 40
0.0001488
 41
0.0001488
  0
VERTEX
  8
0
 10
4.84728
 20
5.15549
 30
0.0
 40
0.0001488
 41
0.0001488
  0
VERTEX
  8
0
 10
4.8686
 20
5.1614
 30
0.0
 40
0.0001488
 41
0.0001488
  0
VERTEX
  8
0
 10
4.88889
 20
5.17025
 30
0.0
 40
0.0001488
 41
0.0001488
  0
VERTEX
  8
0
 10
4.90435
 20
5.17974
 30
0.0
 40
0.0001488
 41
0.0001488
  0
VERTEX
  8
0
 10
4.90776
 20
5.18186
 30
0.0
 40
0.0001488
 41
0.0001488
  0
VERTEX
  8
0
 10
4.92486
 20
5.19596
 30
0.0
 40
0.0001488
 41
0.0001488
  0
VERTEX
  8
0
 10
4.93978
 20
5.21229
 30
0.0
 40
0.0001488
 41
0.0001488
  0
VERTEX
  8
0
 10
4.95231
 20
5.23053
 30
0.0
 40
0.0001488
 41
0.0001488
  0
VERTEX
  8
0
 10
4.96213
 20
5.25038
 30
0.0
 40
0.0001488
 41
0.0001488
  0
VERTEX
  8
0
 10
4.96408
 20
5.25618
 30
0.0
 40
0.0001488
 41
0.0001488
  0
VERTEX
  8
0
 10
4.9656
 20
5.26085
 30
0.0
 40
0.0001488
 41
0.0001488
  0
VERTEX
  8
0
 10
4.96913
 20
5.27138
 30
0.0
 40
0.0001488
 41
0.0001488
  0
VERTEX
  8
0
 10
4.97314
 20
5.29313
 30
0.0
 40
0.0001488
 41
0.0001488
  0
VERTEX
  8
0
 10
4.97412
 20
5.31526
 30
0.0
 40
0.0001488
 41
0.0001488
  0
VERTEX
  8
0
 10
4.97194
 20
5.33729
 30
0.0
 40
0.0001488
 41
0.0001488
  0
VERTEX
  8
0
 10
4.9719
 20
5.33757
 30
0.0
 40
0.0001488
 41
0.0001488
  0
VERTEX
  8
0
 10
4.96978
 20
5.34636
 30
0.0
 40
0.0001488
 41
0.0001488
  0
VERTEX
  8
0
 10
4.96679
 20
5.35883
 30
0.0
 40
0.0001488
 41
0.0001488
  0
VERTEX
  8
0
 10
4.95947
 20
5.37722
 30
0.0
 40
0.0001488
 41
0.0001488
  0
SEQEND
 8
0
  0
POLYLINE
  8
0
 62
     1
 66
     1
 10
0
 20
0
 30
0.0
 70
     1
 40
0.0107136
 41
0.0107136
  0
VERTEX
  8
0
 10
4.50732
 20
5.354
 30
0.0
 40
0.0001488
 41
0.0001488
  0
VERTEX
  8
0
 10
4.49507
 20
5.35487
 30
0.0
 40
0.0001488
 41
0.0001488
  0
VERTEX
  8
0
 10
4.48014
 20
5.35454
 30
0.0
 40
0.0001488
 41
0.0001488
  0
VERTEX
  8
0
 10
4.44363
 20
5.35194
 30
0.0
 40
0.0001488
 41
0.0001488
  0
VERTEX
  8
0
 10
4.42876
 20
5.35015
 30
0.0
 40
0.0001488
 41
0.0001488
  0
VERTEX
  8
0
 10
4.42671
 20
5.34972
 30
0.0
 40
0.0001488
 41
0.0001488
  0
VERTEX
  8
0
 10
4.41433
 20
5.34706
 30
0.0
 40
0.0001488
 41
0.0001488
  0
VERTEX
  8
0
 10
4.41211
 20
5.34636
 30
0.0
 40
0.0001488
 41
0.0001488
  0
VERTEX
  8
0
 10
4.40072
 20
5.34278
 30
0.0
 40
0.0001488
 41
0.0001488
  0
VERTEX
  8
0
 10
4.38824
 20
5.33729
 30
0.0
 40
0.0001488
 41
0.0001488
  0
VERTEX
  8
0
 10
4.37717
 20
5.33083
 30
0.0
 40
0.0001488
 41
0.0001488
  0
VERTEX
  8
0
 10
4.37418
 20
5.3285
 30
0.0
 40
0.0001488
 41
0.0001488
  0
VERTEX
  8
0
 10
4.36778
 20
5.32351
 30
0.0
 40
0.0001488
 41
0.0001488
  0
VERTEX
  8
0
 10
4.3604
 20
5.31549
 30
0.0
 40
0.0001488
 41
0.0001488
  0
VERTEX
  8
0
 10
4.35514
 20
5.30701
 30
0.0
 40
0.0001488
 41
0.0001488
  0
VERTEX
  8
0
 10
4.3546
 20
5.30544
 30
0.0
 40
0.0001488
 41
0.0001488
  0
VERTEX
  8
0
 10
4.35211
 20
5.29829
 30
0.0
 40
0.0001488
 41
0.0001488
  0
VERTEX
  8
0
 10
4.3514
 20
5.2895
 30
0.0
 40
0.0001488
 41
0.0001488
  0
VERTEX
  8
0
 10
4.35254
 20
5.26812
 30
0.0
 40
0.0001488
 41
0.0001488
  0
VERTEX
  8
0
 10
4.35297
 20
5.26574
 30
0.0
 40
0.0001488
 41
0.0001488
  0
VERTEX
  8
0
 10
4.35346
 20
5.26329
 30
0.0
 40
0.0001488
 41
0.0001488
  0
VERTEX
  8
0
 10
4.35417
 20
5.2595
 30
0.0
 40
0.0001488
 41
0.0001488
  0
VERTEX
  8
0
 10
4.35813
 20
5.25119
 30
0.0
 40
0.0001488
 41
0.0001488
  0
VERTEX
  8
0
 10
4.36426
 20
5.2436
 30
0.0
 40
0.0001488
 41
0.0001488
  0
VERTEX
  8
0
 10
4.37244
 20
5.23665
 30
0.0
 40
0.0001488
 41
0.0001488
  0
VERTEX
  8
0
 10
4.38254
 20
5.23068
 30
0.0
 40
0.0001488
 41
0.0001488
  0
VERTEX
  8
0
 10
4.39415
 20
5.22586
 30
0.0
 40
0.0001488
 41
0.0001488
  0
VERTEX
  8
0
 10
4.40022
 20
5.22418
 30
0.0
 40
0.0001488
 41
0.0001488
  0
VERTEX
  8
0
 10
4.40717
 20
5.22222
 30
0.0
 40
0.0001488
 41
0.0001488
  0
VERTEX
  8
0
 10
4.42117
 20
5.21978
 30
0.0
 40
0.0001488
 41
0.0001488
  0
VERTEX
  8
0
 10
4.42671
 20
5.2194
 30
0.0
 40
0.0001488
 41
0.0001488
  0
VERTEX
  8
0
 10
4.43576
 20
5.21881
 30
0.0
 40
0.0001488
 41
0.0001488
  0
VERTEX
  8
0
 10
4.45074
 20
5.21918
 30
0.0
 40
0.0001488
 41
0.0001488
  0
VERTEX
  8
0
 10
4.48725
 20
5.22179
 30
0.0
 40
0.0001488
 41
0.0001488
  0
VERTEX
  8
0
 10
4.50211
 20
5.22353
 30
0.0
 40
0.0001488
 41
0.0001488
  0
VERTEX
  8
0
 10
4.50732
 20
5.22467
 30
0.0
 40
0.0001488
 41
0.0001488
  0
VERTEX
  8
0
 10
4.51654
 20
5.22661
 30
0.0
 40
0.0001488
 41
0.0001488
  0
VERTEX
  8
0
 10
4.53017
 20
5.2309
 30
0.0
 40
0.0001488
 41
0.0001488
  0
VERTEX
  8
0
 10
4.53304
 20
5.23215
 30
0.0
 40
0.0001488
 41
0.0001488
  0
VERTEX
  8
0
 10
4.54124
 20
5.23574
 30
0.0
 40
0.0001488
 41
0.0001488
  0
VERTEX
  8
0
 10
4.54264
 20
5.23639
 30
0.0
 40
0.0001488
 41
0.0001488
  0
VERTEX
  8
0
 10
4.55371
 20
5.24289
 30
0.0
 40
0.0001488
 41
0.0001488
  0
VERTEX
  8
0
 10
4.5631
 20
5.25022
 30
0.0
 40
0.0001488
 41
0.0001488
  0
VERTEX
  8
0
 10
4.56912
 20
5.25672
 30
0.0
 40
0.0001488
 41
0.0001488
  0
VERTEX
  8
0
 10
4.57047
 20
5.25825
 30
0.0
 40
0.0001488
 41
0.0001488
  0
VERTEX
  8
0
 10
4.57514
 20
5.26574
 30
0.0
 40
0.0001488
 41
0.0001488
  0
VERTEX
  8
0
 10
4.57574
 20
5.26671
 30
0.0
 40
0.0001488
 41
0.0001488
  0
VERTEX
  8
0
 10
4.57878
 20
5.27544
 30
0.0
 40
0.0001488
 41
0.0001488
  0
VERTEX
  8
0
 10
4.57949
 20
5.28424
 30
0.0
 40
0.0001488
 41
0.0001488
  0
VERTEX
  8
0
 10
4.57926
 20
5.28868
 30
0.0
 40
0.0001488
 41
0.0001488
  0
VERTEX
  8
0
 10
4.57904
 20
5.29215
 30
0.0
 40
0.0001488
 41
0.0001488
  0
VERTEX
  8
0
 10
4.57835
 20
5.30561
 30
0.0
 40
0.0001488
 41
0.0001488
  0
VERTEX
  8
0
 10
4.57671
 20
5.31418
 30
0.0
 40
0.0001488
 41
0.0001488
  0
VERTEX
  8
0
 10
4.57281
 20
5.32249
 30
0.0
 40
0.0001488
 41
0.0001488
  0
VERTEX
  8
0
 10
4.56814
 20
5.32824
 30
0.0
 40
0.0001488
 41
0.0001488
  0
VERTEX
  8
0
 10
4.56662
 20
5.33014
 30
0.0
 40
0.0001488
 41
0.0001488
  0
VERTEX
  8
0
 10
4.55843
 20
5.33703
 30
0.0
 40
0.0001488
 41
0.0001488
  0
VERTEX
  8
0
 10
4.54833
 20
5.34299
 30
0.0
 40
0.0001488
 41
0.0001488
  0
VERTEX
  8
0
 10
4.54536
 20
5.34424
 30
0.0
 40
0.0001488
 41
0.0001488
  0
VERTEX
  8
0
 10
4.54021
 20
5.34636
 30
0.0
 40
0.0001488
 41
0.0001488
  0
VERTEX
  8
0
 10
4.53668
 20
5.34782
 30
0.0
 40
0.0001488
 41
0.0001488
  0
VERTEX
  8
0
 10
4.52371
 20
5.35151
 30
0.0
 40
0.0001488
 41
0.0001488
  0
VERTEX
  8
0
 10
4.50971
 20
5.35385
 30
0.0
 40
0.0001488
 41
0.0001488
  0
VERTEX
  8
0
 10
4.50732
 20
5.354
 30
0.0
 40
0.0001488
 41
0.0001488
  0
SEQEND
 8
0
  0
POLYLINE
  8
0
 62
     1
 66
     1
 10
0
 20
0
 30
0.0
 70
     1
 40
0.0107136
 41
0.0107136
  0
VERTEX
  8
0
 10
4.78017
 20
5.04411
 30
0.0
 40
0.0001488
 41
0.0001488
  0
VERTEX
  8
0
 10
4.77533
 20
5.03244
 30
0.0
 40
0.0001488
 41
0.0001488
  0
VERTEX
  8
0
 10
4.77289
 20
5.02387
 30
0.0
 40
0.0001488
 41
0.0001488
  0
VERTEX
  8
0
 10
4.77165
 20
5.01942
 30
0.0
 40
0.0001488
 41
0.0001488
  0
VERTEX
  8
0
 10
4.76926
 20
5.00549
 30
0.0
 40
0.0001488
 41
0.0001488
  0
VERTEX
  8
0
 10
4.76828
 20
4.99083
 30
0.0
 40
0.0001488
 41
0.0001488
  0
VERTEX
  8
0
 10
4.76861
 20
4.97592
 30
0.0
 40
0.0001488
 41
0.0001488
  0
VERTEX
  8
0
 10
4.77094
 20
4.94325
 30
0.0
 40
0.0001488
 41
0.0001488
  0
VERTEX
  8
0
 10
4.77121
 20
4.93935
 30
0.0
 40
0.0001488
 41
0.0001488
  0
VERTEX
  8
0
 10
4.77294
 20
4.92453
 30
0.0
 40
0.0001488
 41
0.0001488
  0
VERTEX
  8
0
 10
4.77604
 20
4.91004
 30
0.0
 40
0.0001488
 41
0.0001488
  0
VERTEX
  8
0
 10
4.78039
 20
4.89643
 30
0.0
 40
0.0001488
 41
0.0001488
  0
VERTEX
  8
0
 10
4.78489
 20
4.88607
 30
0.0
 40
0.0001488
 41
0.0001488
  0
VERTEX
  8
0
 10
4.78581
 20
4.88396
 30
0.0
 40
0.0001488
 41
0.0001488
  0
VERTEX
  8
0
 10
4.79232
 20
4.87289
 30
0.0
 40
0.0001488
 41
0.0001488
  0
VERTEX
  8
0
 10
4.79394
 20
4.87088
 30
0.0
 40
0.0001488
 41
0.0001488
  0
VERTEX
  8
0
 10
4.79486
 20
4.86968
 30
0.0
 40
0.0001488
 41
0.0001488
  0
VERTEX
  8
0
 10
4.79964
 20
4.86356
 30
0.0
 40
0.0001488
 41
0.0001488
  0
VERTEX
  8
0
 10
4.80067
 20
4.86257
 30
0.0
 40
0.0001488
 41
0.0001488
  0
VERTEX
  8
0
 10
4.80767
 20
4.85612
 30
0.0
 40
0.0001488
 41
0.0001488
  0
VERTEX
  8
0
 10
4.8131
 20
4.85275
 30
0.0
 40
0.0001488
 41
0.0001488
  0
VERTEX
  8
0
 10
4.81614
 20
4.85086
 30
0.0
 40
0.0001488
 41
0.0001488
  0
VERTEX
  8
0
 10
4.82487
 20
4.84782
 30
0.0
 40
0.0001488
 41
0.0001488
  0
VERTEX
  8
0
 10
4.82785
 20
4.8476
 30
0.0
 40
0.0001488
 41
0.0001488
  0
VERTEX
  8
0
 10
4.82986
 20
4.84744
 30
0.0
 40
0.0001488
 41
0.0001488
  0
VERTEX
  8
0
 10
4.83365
 20
4.84711
 30
0.0
 40
0.0001488
 41
0.0001488
  0
VERTEX
  8
0
 10
4.8534
 20
4.84819
 30
0.0
 40
0.0001488
 41
0.0001488
  0
VERTEX
  8
0
 10
4.85504
 20
4.84825
 30
0.0
 40
0.0001488
 41
0.0001488
  0
VERTEX
  8
0
 10
4.86317
 20
4.84978
 30
0.0
 40
0.0001488
 41
0.0001488
  0
VERTEX
  8
0
 10
4.86367
 20
4.84988
 30
0.0
 40
0.0001488
 41
0.0001488
  0
VERTEX
  8
0
 10
4.8719
 20
4.85385
 30
0.0
 40
0.0001488
 41
0.0001488
  0
VERTEX
  8
0
 10
4.87956
 20
4.85997
 30
0.0
 40
0.0001488
 41
0.0001488
  0
VERTEX
  8
0
 10
4.88178
 20
4.86257
 30
0.0
 40
0.0001488
 41
0.0001488
  0
VERTEX
  8
0
 10
4.8865
 20
4.86817
 30
0.0
 40
0.0001488
 41
0.0001488
  0
VERTEX
  8
0
 10
4.89247
 20
4.87825
 30
0.0
 40
0.0001488
 41
0.0001488
  0
VERTEX
  8
0
 10
4.89729
 20
4.88992
 30
0.0
 40
0.0001488
 41
0.0001488
  0
VERTEX
  8
0
 10
4.89876
 20
4.89524
 30
0.0
 40
0.0001488
 41
0.0001488
  0
VERTEX
  8
0
 10
4.90093
 20
4.90289
 30
0.0
 40
0.0001488
 41
0.0001488
  0
VERTEX
  8
0
 10
4.90283
 20
4.91411
 30
0.0
 40
0.0001488
 41
0.0001488
  0
VERTEX
  8
0
 10
4.90332
 20
4.91689
 30
0.0
 40
0.0001488
 41
0.0001488
  0
VERTEX
  8
0
 10
4.90354
 20
4.92003
 30
0.0
 40
0.0001488
 41
0.0001488
  0
VERTEX
  8
0
 10
4.90435
 20
4.93153
 30
0.0
 40
0.0001488
 41
0.0001488
  0
VERTEX
  8
0
 10
4.90408
 20
4.94325
 30
0.0
 40
0.0001488
 41
0.0001488
  0
VERTEX
  8
0
 10
4.90397
 20
4.94646
 30
0.0
 40
0.0001488
 41
0.0001488
  0
VERTEX
  8
0
 10
4.90136
 20
4.98296
 30
0.0
 40
0.0001488
 41
0.0001488
  0
VERTEX
  8
0
 10
4.89963
 20
4.99783
 30
0.0
 40
0.0001488
 41
0.0001488
  0
VERTEX
  8
0
 10
4.89654
 20
5.01226
 30
0.0
 40
0.0001488
 41
0.0001488
  0
VERTEX
  8
0
 10
4.8929
 20
5.02387
 30
0.0
 40
0.0001488
 41
0.0001488
  0
VERTEX
  8
0
 10
4.89225
 20
5.02588
 30
0.0
 40
0.0001488
 41
0.0001488
  0
VERTEX
  8
0
 10
4.88678
 20
5.03836
 30
0.0
 40
0.0001488
 41
0.0001488
  0
VERTEX
  8
0
 10
4.88351
 20
5.04394
 30
0.0
 40
0.0001488
 41
0.0001488
  0
VERTEX
  8
0
 10
4.88331
 20
5.04432
 30
0.0
 40
0.0001488
 41
0.0001488
  0
VERTEX
  8
0
 10
4.88026
 20
5.04943
 30
0.0
 40
0.0001488
 41
0.0001488
  0
VERTEX
  8
0
 10
4.87294
 20
5.05881
 30
0.0
 40
0.0001488
 41
0.0001488
  0
VERTEX
  8
0
 10
4.8649
 20
5.06619
 30
0.0
 40
0.0001488
 41
0.0001488
  0
VERTEX
  8
0
 10
4.85644
 20
5.0715
 30
0.0
 40
0.0001488
 41
0.0001488
  0
VERTEX
  8
0
 10
4.84771
 20
5.07454
 30
0.0
 40
0.0001488
 41
0.0001488
  0
VERTEX
  8
0
 10
4.83892
 20
5.07525
 30
0.0
 40
0.0001488
 41
0.0001488
  0
VERTEX
  8
0
 10
4.82986
 20
5.07476
 30
0.0
 40
0.0001488
 41
0.0001488
  0
VERTEX
  8
0
 10
4.82671
 20
5.0746
 30
0.0
 40
0.0001488
 41
0.0001488
  0
VERTEX
  8
0
 10
4.8189
 20
5.07417
 30
0.0
 40
0.0001488
 41
0.0001488
  0
VERTEX
  8
0
 10
4.81754
 20
5.07411
 30
0.0
 40
0.0001488
 41
0.0001488
  0
VERTEX
  8
0
 10
4.81022
 20
5.07269
 30
0.0
 40
0.0001488
 41
0.0001488
  0
VERTEX
  8
0
 10
4.80892
 20
5.07249
 30
0.0
 40
0.0001488
 41
0.0001488
  0
VERTEX
  8
0
 10
4.80067
 20
5.06853
 30
0.0
 40
0.0001488
 41
0.0001488
  0
VERTEX
  8
0
 10
4.79303
 20
5.06233
 30
0.0
 40
0.0001488
 41
0.0001488
  0
VERTEX
  8
0
 10
4.78608
 20
5.05414
 30
0.0
 40
0.0001488
 41
0.0001488
  0
VERTEX
  8
0
 10
4.78017
 20
5.04411
 30
0.0
 40
0.0001488
 41
0.0001488
  0
SEQEND
 8
0
  0
POLYLINE
  8
0
 62
     1
 66
     1
 10
0
 20
0
 30
0.0
 70
     1
 40
0.0107136
 41
0.0107136
  0
VERTEX
  8
0
 10
3.03444
 20
3.13075
 30
0.0
 40
0.0001488
 41
0.0001488
  0
VERTEX
  8
0
 10
3.03358
 20
3.12679
 30
0.0
 40
0.0001488
 41
0.0001488
  0
VERTEX
  8
0
 10
3.03282
 20
3.1186
 30
0.0
 40
0.0001488
 41
0.0001488
  0
VERTEX
  8
0
 10
3.0331
 20
3.11029
 30
0.0
 40
0.0001488
 41
0.0001488
  0
VERTEX
  8
0
 10
3.03435
 20
3.10215
 30
0.0
 40
0.0001488
 41
0.0001488
  0
VERTEX
  8
0
 10
3.03662
 20
3.09418
 30
0.0
 40
0.0001488
 41
0.0001488
  0
VERTEX
  8
0
 10
3.0389
 20
3.08876
 30
0.0
 40
0.0001488
 41
0.0001488
  0
VERTEX
  8
0
 10
3.03982
 20
3.08658
 30
0.0
 40
0.0001488
 41
0.0001488
  0
VERTEX
  8
0
 10
3.04394
 20
3.07943
 30
0.0
 40
0.0001488
 41
0.0001488
  0
VERTEX
  8
0
 10
3.04893
 20
3.07286
 30
0.0
 40
0.0001488
 41
0.0001488
  0
VERTEX
  8
0
 10
3.05469
 20
3.06694
 30
0.0
 40
0.0001488
 41
0.0001488
  0
VERTEX
  8
0
 10
3.05599
 20
3.06586
 30
0.0
 40
0.0001488
 41
0.0001488
  0
VERTEX
  8
0
 10
3.06108
 20
3.06174
 30
0.0
 40
0.0001488
 41
0.0001488
  0
VERTEX
  8
0
 10
3.06814
 20
3.0574
 30
0.0
 40
0.0001488
 41
0.0001488
  0
VERTEX
  8
0
 10
3.07563
 20
3.05393
 30
0.0
 40
0.0001488
 41
0.0001488
  0
VERTEX
  8
0
 10
3.0835
 20
3.05143
 30
0.0
 40
0.0001488
 41
0.0001488
  0
VERTEX
  8
0
 10
3.09164
 20
3.04992
 30
0.0
 40
0.0001488
 41
0.0001488
  0
VERTEX
  8
0
 10
3.09987
 20
3.04943
 30
0.0
 40
0.0001488
 41
0.0001488
  0
VERTEX
  8
0
 10
3.10813
 20
3.04992
 30
0.0
 40
0.0001488
 41
0.0001488
  0
VERTEX
  8
0
 10
3.11626
 20
3.05143
 30
0.0
 40
0.0001488
 41
0.0001488
  0
VERTEX
  8
0
 10
3.12414
 20
3.05393
 30
0.0
 40
0.0001488
 41
0.0001488
  0
VERTEX
  8
0
 10
3.13163
 20
3.0574
 30
0.0
 40
0.0001488
 41
0.0001488
  0
VERTEX
  8
0
 10
3.13661
 20
3.06049
 30
0.0
 40
0.0001488
 41
0.0001488
  0
VERTEX
  8
0
 10
3.13867
 20
3.06174
 30
0.0
 40
0.0001488
 41
0.0001488
  0
VERTEX
  8
0
 10
3.14507
 20
3.06694
 30
0.0
 40
0.0001488
 41
0.0001488
  0
VERTEX
  8
0
 10
3.15082
 20
3.07286
 30
0.0
 40
0.0001488
 41
0.0001488
  0
VERTEX
  8
0
 10
3.15582
 20
3.07943
 30
0.0
 40
0.0001488
 41
0.0001488
  0
VERTEX
  8
0
 10
3.15994
 20
3.08658
 30
0.0
 40
0.0001488
 41
0.0001488
  0
VERTEX
  8
0
 10
3.16081
 20
3.08876
 30
0.0
 40
0.0001488
 41
0.0001488
  0
VERTEX
  8
0
 10
3.16314
 20
3.09418
 30
0.0
 40
0.0001488
 41
0.0001488
  0
VERTEX
  8
0
 10
3.16542
 20
3.10215
 30
0.0
 40
0.0001488
 41
0.0001488
  0
VERTEX
  8
0
 10
3.16672
 20
3.11029
 30
0.0
 40
0.0001488
 41
0.0001488
  0
VERTEX
  8
0
 10
3.16694
 20
3.1186
 30
0.0
 40
0.0001488
 41
0.0001488
  0
VERTEX
  8
0
 10
3.16618
 20
3.12679
 30
0.0
 40
0.0001488
 41
0.0001488
  0
VERTEX
  8
0
 10
3.16439
 20
3.13488
 30
0.0
 40
0.0001488
 41
0.0001488
  0
VERTEX
  8
0
 10
3.16168
 20
3.14268
 30
0.0
 40
0.0001488
 41
0.0001488
  0
VERTEX
  8
0
 10
3.15799
 20
3.15001
 30
0.0
 40
0.0001488
 41
0.0001488
  0
VERTEX
  8
0
 10
3.15343
 20
3.1569
 30
0.0
 40
0.0001488
 41
0.0001488
  0
VERTEX
  8
0
 10
3.14806
 20
3.16325
 30
0.0
 40
0.0001488
 41
0.0001488
  0
VERTEX
  8
0
 10
3.14193
 20
3.16878
 30
0.0
 40
0.0001488
 41
0.0001488
  0
VERTEX
  8
0
 10
3.13661
 20
3.17253
 30
0.0
 40
0.0001488
 41
0.0001488
  0
VERTEX
  8
0
 10
3.13519
 20
3.17356
 30
0.0
 40
0.0001488
 41
0.0001488
  0
VERTEX
  8
0
 10
3.12793
 20
3.17746
 30
0.0
 40
0.0001488
 41
0.0001488
  0
VERTEX
  8
0
 10
3.12022
 20
3.18044
 30
0.0
 40
0.0001488
 41
0.0001488
  0
VERTEX
  8
0
 10
3.11219
 20
3.18246
 30
0.0
 40
0.0001488
 41
0.0001488
  0
VERTEX
  8
0
 10
3.104
 20
3.18349
 30
0.0
 40
0.0001488
 41
0.0001488
  0
VERTEX
  8
0
 10
3.09576
 20
3.18349
 30
0.0
 40
0.0001488
 41
0.0001488
  0
VERTEX
  8
0
 10
3.08854
 20
3.18257
 30
0.0
 40
0.0001488
 41
0.0001488
  0
VERTEX
  8
0
 10
3.08757
 20
3.18246
 30
0.0
 40
0.0001488
 41
0.0001488
  0
VERTEX
  8
0
 10
3.07954
 20
3.18044
 30
0.0
 40
0.0001488
 41
0.0001488
  0
VERTEX
  8
0
 10
3.07183
 20
3.17746
 30
0.0
 40
0.0001488
 41
0.0001488
  0
VERTEX
  8
0
 10
3.06456
 20
3.17356
 30
0.0
 40
0.0001488
 41
0.0001488
  0
VERTEX
  8
0
 10
3.05783
 20
3.16878
 30
0.0
 40
0.0001488
 41
0.0001488
  0
VERTEX
  8
0
 10
3.05599
 20
3.1671
 30
0.0
 40
0.0001488
 41
0.0001488
  0
VERTEX
  8
0
 10
3.05176
 20
3.16325
 30
0.0
 40
0.0001488
 41
0.0001488
  0
VERTEX
  8
0
 10
3.04633
 20
3.1569
 30
0.0
 40
0.0001488
 41
0.0001488
  0
VERTEX
  8
0
 10
3.04178
 20
3.15001
 30
0.0
 40
0.0001488
 41
0.0001488
  0
VERTEX
  8
0
 10
3.03814
 20
3.14268
 30
0.0
 40
0.0001488
 41
0.0001488
  0
VERTEX
  8
0
 10
3.03537
 20
3.13488
 30
0.0
 40
0.0001488
 41
0.0001488
  0
VERTEX
  8
0
 10
3.03444
 20
3.13075
 30
0.0
 40
0.0001488
 41
0.0001488
  0
SEQEND
 8
0
  0
ENDSEC
  0
EOF
