  0
SECTION
  2
HEADER
  9
$ACADVER
  1
AC1009
  9
$EXTMAX
 10
76.5319747924805
 20
71.3188858032227
 30
0.0
  9
$EXTMIN
 10
1.0004577636719
 20
1.0776255130768
 30
0.0
  9
$INSUNITS
 70
     4
  9
$LUNITS
 70
     2
  9
$LUPREC
 70
     4
  9
$MEASUREMENT
 70
     1
  0
ENDSEC
  0
SECTION
  2
TABLES
  0
TABLE
  2
LAYER
 70
     1
  0
LAYER
  2
0
 70
     0
 62
     7
  6
Continuous
  0
ENDTAB
  0
TABLE
  2
APPID
 70
     1
  0
APPID
  2
ACAD
 70
     0
  0
ENDTAB
  0
ENDSEC
  0
SECTION
  2
ENTITIES
  0
POLYLINE
  8
0
 66
     1
 10
0.0
 20
0.0
 30
0.0
 70
     1
  0
VERTEX
  8
0
 10
73.066402
 20
71.282052
 42
0.0
  0
VERTEX
  8
0
 10
74.2061
 20
71.044816
 42
0.0
  0
VERTEX
  8
0
 10
75.13066
 20
70.607682
 42
0.0
  0
VERTEX
  8
0
 10
75.830684
 20
69.978016
 42
0.0
  0
VERTEX
  8
0
 10
76.300584
 20
69.160898
 42
0.0
  0
VERTEX
  8
0
 10
76.531978
 20
68.16344
 42
0.0
  0
VERTEX
  8
0
 10
76.526644
 20
66.996056
 42
0.0
  0
VERTEX
  8
0
 10
76.284074
 20
65.668906
 42
0.0
  0
VERTEX
  8
0
 10
75.804522
 20
64.19469
 42
0.0
  0
VERTEX
  8
0
 10
75.294744
 20
63.041022
 42
0.0
  0
VERTEX
  8
0
 10
75.154028
 20
62.724284
 42
0.0
  0
VERTEX
  8
0
 10
75.094846
 20
62.589156
 42
0.0
  0
VERTEX
  8
0
 10
74.842624
 20
62.124844
 42
0.0
  0
VERTEX
  8
0
 10
74.606912
 20
61.689234
 42
0.0
  0
VERTEX
  8
0
 10
74.160634
 20
60.866528
 42
0.0
  0
VERTEX
  8
0
 10
73.00976
 20
59.04484
 42
0.0
  0
VERTEX
  8
0
 10
71.656702
 20
57.139078
 42
0.0
  0
VERTEX
  8
0
 10
70.111874
 20
55.169816
 42
0.0
  0
VERTEX
  8
0
 10
68.390516
 20
53.155088
 42
0.0
  0
VERTEX
  8
0
 10
66.509646
 20
51.114452
 42
0.0
  0
VERTEX
  8
0
 10
64.820038
 20
49.40554
 42
0.0
  0
VERTEX
  8
0
 10
64.71666
 20
49.300638
 42
0.0
  0
VERTEX
  8
0
 10
64.525144
 20
49.106328
 42
0.0
  0
VERTEX
  8
0
 10
64.482472
 20
49.063656
 42
0.0
  0
VERTEX
  8
0
 10
64.394334
 20
48.979582
 42
0.0
  0
VERTEX
  8
0
 10
64.263524
 20
48.8569
 42
0.0
  0
VERTEX
  8
0
 10
64.175132
 20
48.772826
 42
0.0
  0
VERTEX
  8
0
 10
64.023494
 20
48.648874
 42
0.0
  0
VERTEX
  8
0
 10
63.665354
 20
48.30445
 42
0.0
  0
VERTEX
  8
0
 10
63.250572
 20
47.906178
 42
0.0
  0
VERTEX
  8
0
 10
63.19266
 20
47.85106
 42
0.0
  0
VERTEX
  8
0
 10
62.993016
 20
47.659544
 42
0.0
  0
VERTEX
  8
0
 10
62.743334
 20
47.377096
 42
0.0
  0
VERTEX
  8
0
 10
62.727078
 20
47.353474
 42
0.0
  0
VERTEX
  8
0
 10
62.715648
 20
47.335694
 42
0.0
  0
VERTEX
  8
0
 10
62.46241
 20
47.061374
 42
0.0
  0
VERTEX
  8
0
 10
62.454028
 20
47.053246
 42
0.0
  0
VERTEX
  8
0
 10
62.320424
 20
46.876716
 42
0.0
  0
VERTEX
  8
0
 10
61.74994
 20
46.122844
 42
0.0
  0
VERTEX
  8
0
 10
61.241432
 20
45.305726
 42
0.0
  0
VERTEX
  8
0
 10
61.111638
 20
45.096176
 42
0.0
  0
VERTEX
  8
0
 10
60.545472
 20
43.984418
 42
0.0
  0
VERTEX
  8
0
 10
60.057538
 20
42.797476
 42
0.0
  0
VERTEX
  8
0
 10
59.873134
 20
42.227246
 42
0.0
  0
VERTEX
  8
0
 10
59.651138
 20
41.545256
 42
0.0
  0
VERTEX
  8
0
 10
59.331606
 20
40.242744
 42
0.0
  0
VERTEX
  8
0
 10
59.099704
 20
38.899338
 42
0.0
  0
VERTEX
  8
0
 10
58.960766
 20
37.529516
 42
0.0
  0
VERTEX
  8
0
 10
58.913776
 20
36.145978
 42
0.0
  0
VERTEX
  8
0
 10
58.960766
 20
34.76371
 42
0.0
  0
VERTEX
  8
0
 10
59.099704
 20
33.394142
 42
0.0
  0
VERTEX
  8
0
 10
59.331606
 20
32.051752
 42
0.0
  0
VERTEX
  8
0
 10
59.651138
 20
30.7467
 42
0.0
  0
VERTEX
  8
0
 10
60.057538
 20
29.49702
 42
0.0
  0
VERTEX
  8
0
 10
60.13069
 20
29.31922
 42
0.0
  0
VERTEX
  8
0
 10
60.294774
 20
28.920948
 42
0.0
  0
VERTEX
  8
0
 10
60.45454
 20
28.532328
 42
0.0
  0
VERTEX
  8
0
 10
60.545472
 20
28.309062
 42
0.0
  0
VERTEX
  8
0
 10
61.111638
 20
27.19705
 42
0.0
  0
VERTEX
  8
0
 10
61.205618
 20
27.045412
 42
0.0
  0
VERTEX
  8
0
 10
61.74994
 20
26.171652
 42
0.0
  0
VERTEX
  8
0
 10
61.950854
 20
25.905714
 42
0.0
  0
VERTEX
  8
0
 10
62.390528
 20
25.3256034
 42
0.0
  0
VERTEX
  8
0
 10
63.665354
 20
24.117046
 42
0.0
  0
VERTEX
  8
0
 10
64.48679
 20
23.3384852
 42
0.0
  0
VERTEX
  8
0
 10
66.509646
 20
21.2920834
 42
0.0
  0
VERTEX
  8
0
 10
68.390516
 20
19.2498218
 42
0.0
  0
VERTEX
  8
0
 10
70.111874
 20
17.2365162
 42
0.0
  0
VERTEX
  8
0
 10
71.407274
 20
15.5842462
 42
0.0
  0
VERTEX
  8
0
 10
71.656702
 20
15.2658826
 42
0.0
  0
VERTEX
  8
0
 10
73.00976
 20
13.3614668
 42
0.0
  0
VERTEX
  8
0
 10
73.530968
 20
12.5374146
 42
0.0
  0
VERTEX
  8
0
 10
74.160634
 20
11.5396772
 42
0.0
  0
VERTEX
  8
0
 10
75.094846
 20
9.8157538
 42
0.0
  0
VERTEX
  8
0
 10
75.804522
 20
8.2117184
 42
0.0
  0
VERTEX
  8
0
 10
76.284074
 20
6.7372484
 42
0.0
  0
VERTEX
  8
0
 10
76.427584
 20
5.953125
 42
0.0
  0
VERTEX
  8
0
 10
76.472796
 20
5.7037224
 42
0.0
  0
VERTEX
  8
0
 10
76.526644
 20
5.4101746
 42
0.0
  0
VERTEX
  8
0
 10
76.531978
 20
4.2429684
 42
0.0
  0
VERTEX
  8
0
 10
76.300584
 20
3.2439102
 42
0.0
  0
VERTEX
  8
0
 10
75.830684
 20
2.42810284
 42
0.0
  0
VERTEX
  8
0
 10
75.13066
 20
1.7969611
 42
0.0
  0
VERTEX
  8
0
 10
74.2061
 20
1.3615035
 42
0.0
  0
VERTEX
  8
0
 10
73.066402
 20
1.12447832
 42
0.0
  0
VERTEX
  8
0
 10
71.721472
 20
1.0872724
 42
0.0
  0
VERTEX
  8
0
 10
70.183502
 20
1.24988066
 42
0.0
  0
VERTEX
  8
0
 10
68.470526
 20
1.61368232
 42
0.0
  0
VERTEX
  8
0
 10
68.466462
 20
1.61506154
 42
0.0
  0
VERTEX
  8
0
 10
68.239132
 20
1.6825849
 42
0.0
  0
VERTEX
  8
0
 10
66.59626
 20
2.1717889
 42
0.0
  0
VERTEX
  8
0
 10
64.820038
 20
2.8318714
 42
0.0
  0
VERTEX
  8
0
 10
64.580516
 20
2.9200602
 42
0.0
  0
VERTEX
  8
0
 10
63.904876
 20
3.2135826
 42
0.0
  0
VERTEX
  8
0
 10
63.522352
 20
3.5057334
 42
0.0
  0
VERTEX
  8
0
 10
52.701952
 20
12.5374146
 42
0.0
  0
VERTEX
  8
0
 10
51.927252
 20
13.1850638
 42
0.0
  0
VERTEX
  8
0
 10
50.857912
 20
14.009116
 42
0.0
  0
VERTEX
  8
0
 10
49.715674
 20
14.7629372
 42
0.0
  0
VERTEX
  8
0
 10
48.504094
 20
15.4367738
 42
0.0
  0
VERTEX
  8
0
 10
48.436784
 20
15.46987
 42
0.0
  0
VERTEX
  8
0
 10
48.19015
 20
15.5842462
 42
0.0
  0
VERTEX
  8
0
 10
47.842678
 20
15.7468316
 42
0.0
  0
VERTEX
  8
0
 10
47.23384
 20
16.032099
 42
0.0
  0
VERTEX
  8
0
 10
47.08779
 20
16.088614
 42
0.0
  0
VERTEX
  8
0
 10
46.05401
 20
16.485489
 42
0.0
  0
VERTEX
  8
0
 10
45.912278
 20
16.5405816
 42
0.0
  0
VERTEX
  8
0
 10
45.847254
 20
16.5598856
 42
0.0
  0
VERTEX
  8
0
 10
44.647104
 20
16.9292016
 42
0.0
  0
VERTEX
  8
0
 10
44.546266
 20
16.9608754
 42
0.0
  0
VERTEX
  8
0
 10
43.836844
 20
17.1276518
 42
0.0
  0
VERTEX
  8
0
 10
43.143678
 20
17.2902372
 42
0.0
  0
VERTEX
  8
0
 10
42.3926
 20
17.4156624
 42
0.0
  0
VERTEX
  8
0
 10
41.717468
 20
17.52727
 42
0.0
  0
VERTEX
  8
0
 10
41.010332
 20
17.5975518
 42
0.0
  0
VERTEX
  8
0
 10
40.457882
 20
17.6512982
 42
0.0
  0
VERTEX
  8
0
 10
40.270176
 20
17.6705768
 42
0.0
  0
VERTEX
  8
0
 10
39.089584
 20
17.7091594
 42
0.0
  0
VERTEX
  8
0
 10
38.816534
 20
17.7188368
 42
0.0
  0
VERTEX
  8
0
 10
38.768528
 20
17.7174398
 42
0.0
  0
VERTEX
  8
0
 10
38.768528
 20
17.7077878
 42
0.0
  0
VERTEX
  8
0
 10
38.717474
 20
17.7091594
 42
0.0
  0
VERTEX
  8
0
 10
37.262054
 20
17.6609502
 42
0.0
  0
VERTEX
  8
0
 10
36.009326
 20
17.5382682
 42
0.0
  0
VERTEX
  8
0
 10
35.81654
 20
17.519015
 42
0.0
  0
VERTEX
  8
0
 10
34.387536
 20
17.2819822
 42
0.0
  0
VERTEX
  8
0
 10
33.695894
 20
17.1179744
 42
0.0
  0
VERTEX
  8
0
 10
32.987488
 20
16.9512488
 42
0.0
  0
VERTEX
  8
0
 10
32.885634
 20
16.9209212
 42
0.0
  0
VERTEX
  8
0
 10
32.051752
 20
16.6632382
 42
0.0
  0
VERTEX
  8
0
 10
31.68523
 20
16.550259
 42
0.0
  0
VERTEX
  8
0
 10
31.62046
 20
16.530955
 42
0.0
  0
VERTEX
  8
0
 10
30.446472
 20
16.0789366
 42
0.0
  0
VERTEX
  8
0
 10
30.298898
 20
16.0224724
 42
0.0
  0
VERTEX
  8
0
 10
29.688536
 20
15.737205
 42
0.0
  0
VERTEX
  8
0
 10
29.343858
 20
15.5759404
 42
0.0
  0
VERTEX
  8
0
 10
29.02839
 20
15.4285188
 42
0.0
  0
VERTEX
  8
0
 10
27.818588
 20
14.7532852
 42
0.0
  0
VERTEX
  8
0
 10
26.674572
 20
14.000861
 42
0.0
  0
VERTEX
  8
0
 10
25.605232
 20
13.1754372
 42
0.0
  0
VERTEX
  8
0
 10
24.8419112
 20
12.5374146
 42
0.0
  0
VERTEX
  8
0
 10
18.6958478
 20
7.4069448
 42
0.0
  0
VERTEX
  8
0
 10
15.6683202
 20
4.8796194
 42
0.0
  0
VERTEX
  8
0
 10
14.009116
 20
3.4947098
 42
0.0
  0
VERTEX
  8
0
 10
13.6274048
 20
3.2053276
 42
0.0
  0
VERTEX
  8
0
 10
12.9535682
 20
2.9118052
 42
0.0
  0
VERTEX
  8
0
 10
11.6981732
 20
2.44464078
 42
0.0
  0
VERTEX
  8
0
 10
10.9361224
 20
2.16214452
 42
0.0
  0
VERTEX
  8
0
 10
9.0619834
 20
1.60403794
 42
0.0
  0
VERTEX
  8
0
 10
8.8029034
 20
1.5489174
 42
0.0
  0
VERTEX
  8
0
 10
7.475855
 20
1.2691745
 42
0.0
  0
VERTEX
  8
0
 10
7.3476866
 20
1.24161296
 42
0.0
  0
VERTEX
  8
0
 10
5.8112152
 20
1.07762548
 42
0.0
  0
VERTEX
  8
0
 10
5.6706262
 20
1.0817606
 42
0.0
  0
VERTEX
  8
0
 10
5.4625494
 20
1.0872724
 42
0.0
  0
VERTEX
  8
0
 10
4.4662344
 20
1.11483394
 42
0.0
  0
VERTEX
  8
0
 10
3.3265872
 20
1.35185404
 42
0.0
  0
VERTEX
  8
0
 10
2.40191798
 20
1.7886934
 42
0.0
  0
VERTEX
  8
0
 10
1.70187874
 20
2.41845846
 42
0.0
  0
VERTEX
  8
0
 10
1.23334272
 20
3.2356298
 42
0.0
  0
VERTEX
  8
0
 10
1.00045774
 20
4.2333418
 42
0.0
  0
VERTEX
  8
0
 10
1.00459032
 20
5.4019196
 42
0.0
  0
VERTEX
  8
0
 10
1.24850144
 20
6.7289426
 42
0.0
  0
VERTEX
  8
0
 10
1.72806106
 20
8.2020918
 42
0.0
  0
VERTEX
  8
0
 10
2.43774976
 20
9.8074988
 42
0.0
  0
VERTEX
  8
0
 10
3.3720532
 20
11.5300506
 42
0.0
  0
VERTEX
  8
0
 10
4.0073326
 20
12.5374146
 42
0.0
  0
VERTEX
  8
0
 10
4.5213524
 20
13.3518148
 42
0.0
  0
VERTEX
  8
0
 10
5.8759598
 20
15.2576276
 42
0.0
  0
VERTEX
  8
0
 10
7.4207624
 20
17.2268388
 42
0.0
  0
VERTEX
  8
0
 10
9.1419172
 20
19.2415668
 42
0.0
  0
VERTEX
  8
0
 10
11.0229396
 20
21.282406
 42
0.0
  0
VERTEX
  8
0
 10
13.0458972
 20
23.3288078
 42
0.0
  0
VERTEX
  8
0
 10
13.8672062
 20
24.107394
 42
0.0
  0
VERTEX
  8
0
 10
15.1419052
 20
25.3172976
 42
0.0
  0
VERTEX
  8
0
 10
15.5676854
 20
25.879552
 42
0.0
  0
VERTEX
  8
0
 10
15.6683202
 20
26.010362
 42
0.0
  0
VERTEX
  8
0
 10
15.782671
 20
26.162
 42
0.0
  0
VERTEX
  8
0
 10
16.4193474
 20
27.187398
 42
0.0
  0
VERTEX
  8
0
 10
16.9856912
 20
28.29941
 42
0.0
  0
VERTEX
  8
0
 10
17.2420026
 20
28.920948
 42
0.0
  0
VERTEX
  8
0
 10
17.4018448
 20
29.309568
 42
0.0
  0
VERTEX
  8
0
 10
17.4749206
 20
29.487368
 42
0.0
  0
VERTEX
  8
0
 10
17.8814222
 20
30.738572
 42
0.0
  0
VERTEX
  8
0
 10
18.2011574
 20
32.0421
 42
0.0
  0
VERTEX
  8
0
 10
18.4326276
 20
33.38576
 42
0.0
  0
VERTEX
  8
0
 10
18.5718196
 20
34.754058
 42
0.0
  0
VERTEX
  8
0
 10
18.6186572
 20
36.13785
 42
0.0
  0
VERTEX
  8
0
 10
18.5718196
 20
37.51961
 42
0.0
  0
VERTEX
  8
0
 10
18.4326276
 20
38.889432
 42
0.0
  0
VERTEX
  8
0
 10
18.2011574
 20
40.231822
 42
0.0
  0
VERTEX
  8
0
 10
17.8814222
 20
41.536874
 42
0.0
  0
VERTEX
  8
0
 10
17.6595532
 20
42.217594
 42
0.0
  0
VERTEX
  8
0
 10
17.4749206
 20
42.788078
 42
0.0
  0
VERTEX
  8
0
 10
16.9856912
 20
43.975782
 42
0.0
  0
VERTEX
  8
0
 10
16.4193474
 20
45.088048
 42
0.0
  0
VERTEX
  8
0
 10
16.2842956
 20
45.305726
 42
0.0
  0
VERTEX
  8
0
 10
15.782671
 20
46.113446
 42
0.0
  0
VERTEX
  8
0
 10
15.6683202
 20
46.26356
 42
0.0
  0
VERTEX
  8
0
 10
15.21079
 20
46.868334
 42
0.0
  0
VERTEX
  8
0
 10
15.0785068
 20
47.043594
 42
0.0
  0
VERTEX
  8
0
 10
15.0674578
 20
47.054516
 42
0.0
  0
VERTEX
  8
0
 10
14.8194268
 20
47.321978
 42
0.0
  0
VERTEX
  8
0
 10
14.8001228
 20
47.353474
 42
0.0
  0
VERTEX
  8
0
 10
14.7904962
 20
47.36846
 42
0.0
  0
VERTEX
  8
0
 10
14.5396712
 20
47.649638
 42
0.0
  0
VERTEX
  8
0
 10
14.3302228
 20
47.85106
 42
0.0
  0
VERTEX
  8
0
 10
14.295755
 20
47.88535
 42
0.0
  0
VERTEX
  8
0
 10
13.8672062
 20
48.296068
 42
0.0
  0
VERTEX
  8
0
 10
13.6205468
 20
48.53305
 42
0.0
  0
VERTEX
  8
0
 10
13.5102854
 20
48.639222
 42
0.0
  0
VERTEX
  8
0
 10
13.3504432
 20
48.770032
 42
0.0
  0
VERTEX
  8
0
 10
13.2663946
 20
48.848772
 42
0.0
  0
VERTEX
  8
0
 10
13.1368546
 20
48.972724
 42
0.0
  0
VERTEX
  8
0
 10
13.0458972
 20
49.058322
 42
0.0
  0
VERTEX
  8
0
 10
13.0059176
 20
49.0982
 42
0.0
  0
VERTEX
  8
0
 10
12.9094738
 20
49.19726
 42
0.0
  0
VERTEX
  8
0
 10
12.8157478
 20
49.29124
 42
0.0
  0
VERTEX
  8
0
 10
11.0229396
 20
51.105816
 42
0.0
  0
VERTEX
  8
0
 10
9.1419172
 20
53.146706
 42
0.0
  0
VERTEX
  8
0
 10
8.5893402
 20
53.791612
 42
0.0
  0
VERTEX
  8
0
 10
7.4207624
 20
55.15991
 42
0.0
  0
VERTEX
  8
0
 10
5.8759598
 20
57.129172
 42
0.0
  0
VERTEX
  8
0
 10
4.5213524
 20
59.035188
 42
0.0
  0
VERTEX
  8
0
 10
3.3720532
 20
60.856876
 42
0.0
  0
VERTEX
  8
0
 10
2.9214318
 20
61.689234
 42
0.0
  0
VERTEX
  8
0
 10
2.6899362
 20
62.114938
 42
0.0
  0
VERTEX
  8
0
 10
2.43774976
 20
62.581028
 42
0.0
  0
VERTEX
  8
0
 10
1.72806106
 20
64.184784
 42
0.0
  0
VERTEX
  8
0
 10
1.24850144
 20
65.659254
 42
0.0
  0
VERTEX
  8
0
 10
1.00459032
 20
66.986404
 42
0.0
  0
VERTEX
  8
0
 10
1.00045774
 20
68.154804
 42
0.0
  0
VERTEX
  8
0
 10
1.23334272
 20
69.152516
 42
0.0
  0
VERTEX
  8
0
 10
1.70187874
 20
69.969888
 42
0.0
  0
VERTEX
  8
0
 10
2.40191798
 20
70.599554
 42
0.0
  0
VERTEX
  8
0
 10
3.3265872
 20
71.03491
 42
0.0
  0
VERTEX
  8
0
 10
4.4662344
 20
71.272146
 42
0.0
  0
VERTEX
  8
0
 10
5.3839872
 20
71.298054
 42
0.0
  0
VERTEX
  8
0
 10
5.640324
 20
71.305166
 42
0.0
  0
VERTEX
  8
0
 10
5.8112152
 20
71.309484
 42
0.0
  0
VERTEX
  8
0
 10
7.3476866
 20
71.146924
 42
0.0
  0
VERTEX
  8
0
 10
7.475855
 20
71.119238
 42
0.0
  0
VERTEX
  8
0
 10
9.0344244
 20
70.7898
 42
0.0
  0
VERTEX
  8
0
 10
9.0619834
 20
70.783196
 42
0.0
  0
VERTEX
  8
0
 10
10.9361224
 20
70.224904
 42
0.0
  0
VERTEX
  8
0
 10
11.860784
 20
69.88175
 42
0.0
  0
VERTEX
  8
0
 10
12.5677168
 20
69.619876
 42
0.0
  0
VERTEX
  8
0
 10
15.6683202
 20
67.237356
 42
0.0
  0
VERTEX
  8
0
 10
22.335236
 20
62.114938
 42
0.0
  0
VERTEX
  8
0
 10
22.8905816
 20
61.689234
 42
0.0
  0
VERTEX
  8
0
 10
24.6310404
 20
60.352432
 42
0.0
  0
VERTEX
  8
0
 10
26.101548
 20
59.22264
 42
0.0
  0
VERTEX
  8
0
 10
27.42565
 20
58.205624
 42
0.0
  0
VERTEX
  8
0
 10
31.416498
 20
55.13959
 42
0.0
  0
VERTEX
  8
0
 10
31.68523
 20
54.934104
 42
0.0
  0
VERTEX
  8
0
 10
32.051752
 20
54.651656
 42
0.0
  0
VERTEX
  8
0
 10
33.553908
 20
53.496972
 42
0.0
  0
VERTEX
  8
0
 10
35.429444
 20
52.057046
 42
0.0
  0
VERTEX
  8
0
 10
35.990276
 20
51.689
 42
0.0
  0
VERTEX
  8
0
 10
36.009326
 20
51.680618
 42
0.0
  0
VERTEX
  8
0
 10
36.147248
 20
51.614578
 42
0.0
  0
VERTEX
  8
0
 10
36.618672
 20
51.392582
 42
0.0
  0
VERTEX
  8
0
 10
37.300662
 20
51.176174
 42
0.0
  0
VERTEX
  8
0
 10
38.018974
 20
51.04384
 42
0.0
  0
VERTEX
  8
0
 10
38.69944
 20
51.002438
 42
0.0
  0
VERTEX
  8
0
 10
38.754304
 20
50.999644
 42
0.0
  0
VERTEX
  8
0
 10
38.76421
 20
50.999644
 42
0.0
  0
VERTEX
  8
0
 10
38.76421
 20
51.00955
 42
0.0
  0
VERTEX
  8
0
 10
38.777926
 20
51.008026
 42
0.0
  0
VERTEX
  8
0
 10
38.831774
 20
51.012344
 42
0.0
  0
VERTEX
  8
0
 10
39.188644
 20
51.032918
 42
0.0
  0
VERTEX
  8
0
 10
39.514018
 20
51.052222
 42
0.0
  0
VERTEX
  8
0
 10
40.230552
 20
51.185826
 42
0.0
  0
VERTEX
  8
0
 10
40.244268
 20
51.18989
 42
0.0
  0
VERTEX
  8
0
 10
40.912796
 20
51.402234
 42
0.0
  0
VERTEX
  8
0
 10
41.010332
 20
51.4477
 42
0.0
  0
VERTEX
  8
0
 10
41.542462
 20
51.698398
 42
0.0
  0
VERTEX
  8
0
 10
42.104818
 20
52.066444
 42
0.0
  0
VERTEX
  8
0
 10
43.966384
 20
53.496972
 42
0.0
  0
VERTEX
  8
0
 10
45.847254
 20
54.942232
 42
0.0
  0
VERTEX
  8
0
 10
46.11624
 20
55.148988
 42
0.0
  0
VERTEX
  8
0
 10
46.453806
 20
55.408322
 42
0.0
  0
VERTEX
  8
0
 10
47.095918
 20
55.90159
 42
0.0
  0
VERTEX
  8
0
 10
47.751746
 20
56.40451
 42
0.0
  0
VERTEX
  8
0
 10
48.43526
 20
56.929528
 42
0.0
  0
VERTEX
  8
0
 10
48.436784
 20
56.930798
 42
0.0
  0
VERTEX
  8
0
 10
52.901596
 20
60.361068
 42
0.0
  0
VERTEX
  8
0
 10
54.630828
 20
61.689234
 42
0.0
  0
VERTEX
  8
0
 10
55.197248
 20
62.124844
 42
0.0
  0
VERTEX
  8
0
 10
64.820038
 20
69.516498
 42
0.0
  0
VERTEX
  8
0
 10
64.966088
 20
69.628004
 42
0.0
  0
VERTEX
  8
0
 10
65.647062
 20
69.88175
 42
0.0
  0
VERTEX
  8
0
 10
66.59626
 20
70.234556
 42
0.0
  0
VERTEX
  8
0
 10
68.470526
 20
70.792594
 42
0.0
  0
VERTEX
  8
0
 10
68.498212
 20
70.798182
 42
0.0
  0
VERTEX
  8
0
 10
70.183502
 20
71.155052
 42
0.0
  0
VERTEX
  8
0
 10
71.721472
 20
71.318882
 42
0.0
  0
VERTEX
  8
0
 10
71.893684
 20
71.314818
 42
0.0
  0
VERTEX
  8
0
 10
72.075802
 20
71.309484
 42
0.0
  0
SEQEND
  0
POLYLINE
  8
0
 66
     1
 10
0.0
 20
0.0
 30
0.0
 70
     1
  0
VERTEX
  8
0
 10
38.768528
 20
46.044612
 42
0.0
  0
VERTEX
  8
0
 10
38.226746
 20
46.031912
 42
0.0
  0
VERTEX
  8
0
 10
37.24021
 20
45.90796
 42
0.0
  0
VERTEX
  8
0
 10
36.2712
 20
45.686218
 42
0.0
  0
VERTEX
  8
0
 10
36.009326
 20
45.597826
 42
0.0
  0
VERTEX
  8
0
 10
35.32759
 20
45.367956
 42
0.0
  0
VERTEX
  8
0
 10
35.188144
 20
45.305726
 42
0.0
  0
VERTEX
  8
0
 10
34.42208
 20
44.958254
 42
0.0
  0
VERTEX
  8
0
 10
33.779968
 20
44.586652
 42
0.0
  0
VERTEX
  8
0
 10
33.560766
 20
44.459652
 42
0.0
  0
VERTEX
  8
0
 10
33.265872
 20
44.246038
 42
0.0
  0
VERTEX
  8
0
 10
36.009326
 20
41.494202
 42
0.0
  0
VERTEX
  8
0
 10
38.761416
 20
38.733984
 42
0.0
  0
VERTEX
  8
0
 10
38.76421
 20
38.73119
 42
0.0
  0
VERTEX
  8
0
 10
38.76421
 20
38.736778
 42
0.0
  0
VERTEX
  8
0
 10
41.010332
 20
40.988488
 42
0.0
  0
VERTEX
  8
0
 10
44.266612
 20
44.25569
 42
0.0
  0
VERTEX
  8
0
 10
43.971972
 20
44.468034
 42
0.0
  0
VERTEX
  8
0
 10
43.767756
 20
44.586652
 42
0.0
  0
VERTEX
  8
0
 10
43.110404
 20
44.96816
 42
0.0
  0
VERTEX
  8
0
 10
42.363644
 20
45.305726
 42
0.0
  0
VERTEX
  8
0
 10
42.203878
 20
45.377354
 42
0.0
  0
VERTEX
  8
0
 10
41.262554
 20
45.695616
 42
0.0
  0
VERTEX
  8
0
 10
41.010332
 20
45.753528
 42
0.0
  0
VERTEX
  8
0
 10
40.292528
 20
45.917612
 42
0.0
  0
VERTEX
  8
0
 10
39.305738
 20
46.041818
 42
0.0
  0
VERTEX
  8
0
 10
38.958774
 20
46.049946
 42
0.0
  0
VERTEX
  8
0
 10
38.768528
 20
46.05401
 42
0.0
  0
SEQEND
  0
POLYLINE
  8
0
 66
     1
 10
0.0
 20
0.0
 30
0.0
 70
     1
  0
VERTEX
  8
0
 10
40.490902
 20
21.881846
 42
0.0
  0
VERTEX
  8
0
 10
41.010332
 20
22.4027746
 42
0.0
  0
VERTEX
  8
0
 10
41.162224
 20
22.5557334
 42
0.0
  0
VERTEX
  8
0
 10
41.811194
 20
23.2047796
 42
0.0
  0
VERTEX
  8
0
 10
35.805618
 20
23.2047796
 42
0.0
  0
VERTEX
  8
0
 10
36.009326
 20
23.0008176
 42
0.0
  0
VERTEX
  8
0
 10
37.126926
 20
21.881846
 42
0.0
  0
VERTEX
  8
0
 10
37.033454
 20
21.881846
 42
0.0
  0
VERTEX
  8
0
 10
38.786054
 20
20.1262488
 42
0.0
  0
VERTEX
  8
0
 10
40.539162
 20
21.881846
 42
0.0
  0
SEQEND
  0
POLYLINE
  8
0
 66
     1
 10
0.0
 20
0.0
 30
0.0
 70
     1
  0
VERTEX
  8
0
 10
44.270676
 20
27.87904
 42
0.0
  0
VERTEX
  8
0
 10
43.231816
 20
28.920948
 42
0.0
  0
VERTEX
  8
0
 10
41.010332
 20
31.15056
 42
0.0
  0
VERTEX
  8
0
 10
38.771068
 20
33.395412
 42
0.0
  0
VERTEX
  8
0
 10
38.768528
 20
33.398206
 42
0.0
  0
VERTEX
  8
0
 10
38.768528
 20
33.394142
 42
0.0
  0
VERTEX
  8
0
 10
36.009326
 20
30.626812
 42
0.0
  0
VERTEX
  8
0
 10
34.30905
 20
28.920948
 42
0.0
  0
VERTEX
  8
0
 10
33.261808
 20
27.870912
 42
0.0
  0
VERTEX
  8
0
 10
33.560766
 20
27.655774
 42
0.0
  0
VERTEX
  8
0
 10
34.42208
 20
27.156918
 42
0.0
  0
VERTEX
  8
0
 10
35.32759
 20
26.746454
 42
0.0
  0
VERTEX
  8
0
 10
36.009326
 20
26.51633
 42
0.0
  0
VERTEX
  8
0
 10
36.2712
 20
26.427938
 42
0.0
  0
VERTEX
  8
0
 10
37.24021
 20
26.206196
 42
0.0
  0
VERTEX
  8
0
 10
38.226746
 20
26.082244
 42
0.0
  0
VERTEX
  8
0
 10
38.574218
 20
26.073862
 42
0.0
  0
VERTEX
  8
0
 10
38.76421
 20
26.069798
 42
0.0
  0
VERTEX
  8
0
 10
38.76421
 20
26.07945
 42
0.0
  0
VERTEX
  8
0
 10
39.305738
 20
26.091642
 42
0.0
  0
VERTEX
  8
0
 10
40.292528
 20
26.215848
 42
0.0
  0
VERTEX
  8
0
 10
41.010332
 20
26.379678
 42
0.0
  0
VERTEX
  8
0
 10
41.262554
 20
26.43759
 42
0.0
  0
VERTEX
  8
0
 10
42.203878
 20
26.756106
 42
0.0
  0
VERTEX
  8
0
 10
43.110404
 20
27.1653
 42
0.0
  0
VERTEX
  8
0
 10
43.971972
 20
27.664156
 42
0.0
  0
SEQEND
  0
POLYLINE
  8
0
 66
     1
 10
0.0
 20
0.0
 30
0.0
 70
     1
  0
VERTEX
  8
0
 10
68.718684
 20
63.348362
 42
0.0
  0
VERTEX
  8
0
 10
68.915788
 20
63.149988
 42
0.0
  0
VERTEX
  8
0
 10
68.968112
 20
63.098934
 42
0.0
  0
VERTEX
  8
0
 10
69.082412
 20
63.041022
 42
0.0
  0
VERTEX
  8
0
 10
69.513704
 20
62.82055
 42
0.0
  0
VERTEX
  8
0
 10
70.117462
 20
62.724284
 42
0.0
  0
VERTEX
  8
0
 10
70.72376
 20
62.82055
 42
0.0
  0
VERTEX
  8
0
 10
71.155052
 20
63.041022
 42
0.0
  0
VERTEX
  8
0
 10
71.269098
 20
63.098934
 42
0.0
  0
VERTEX
  8
0
 10
71.702168
 20
63.53175
 42
0.0
  0
VERTEX
  8
0
 10
71.766938
 20
63.659766
 42
0.0
  0
VERTEX
  8
0
 10
71.893684
 20
63.9064
 42
0.0
  0
VERTEX
  8
0
 10
71.980552
 20
64.076072
 42
0.0
  0
VERTEX
  8
0
 10
72.075802
 20
64.6811
 42
0.0
  0
VERTEX
  8
0
 10
71.980552
 20
65.286128
 42
0.0
  0
VERTEX
  8
0
 10
71.893684
 20
65.456816
 42
0.0
  0
VERTEX
  8
0
 10
71.7296
 20
65.777872
 42
0.0
  0
VERTEX
  8
0
 10
71.725282
 20
65.784984
 42
0.0
  0
VERTEX
  8
0
 10
71.702168
 20
65.83299
 42
0.0
  0
VERTEX
  8
0
 10
71.269098
 20
66.265806
 42
0.0
  0
VERTEX
  8
0
 10
70.917816
 20
66.444876
 42
0.0
  0
VERTEX
  8
0
 10
70.72376
 20
66.54419
 42
0.0
  0
VERTEX
  8
0
 10
70.117462
 20
66.638932
 42
0.0
  0
VERTEX
  8
0
 10
69.513704
 20
66.54419
 42
0.0
  0
VERTEX
  8
0
 10
69.319394
 20
66.444876
 42
0.0
  0
VERTEX
  8
0
 10
68.968112
 20
66.265806
 42
0.0
  0
VERTEX
  8
0
 10
68.535296
 20
65.83299
 42
0.0
  0
VERTEX
  8
0
 10
68.510404
 20
65.784984
 42
0.0
  0
VERTEX
  8
0
 10
68.498212
 20
65.759838
 42
0.0
  0
VERTEX
  8
0
 10
68.256912
 20
65.286128
 42
0.0
  0
VERTEX
  8
0
 10
68.160646
 20
64.6811
 42
0.0
  0
VERTEX
  8
0
 10
68.256912
 20
64.076072
 42
0.0
  0
VERTEX
  8
0
 10
68.498212
 20
63.603378
 42
0.0
  0
VERTEX
  8
0
 10
68.535296
 20
63.53175
 42
0.0
  0
SEQEND
  0
POLYLINE
  8
0
 66
     1
 10
0.0
 20
0.0
 30
0.0
 70
     1
  0
VERTEX
  8
0
 10
52.901596
 20
48.309784
 42
0.0
  0
VERTEX
  8
0
 10
53.798724
 20
48.168052
 42
0.0
  0
VERTEX
  8
0
 10
54.723284
 20
48.314102
 42
0.0
  0
VERTEX
  8
0
 10
55.556912
 20
48.739806
 42
0.0
  0
VERTEX
  8
0
 10
56.219852
 20
49.404016
 42
0.0
  0
VERTEX
  8
0
 10
56.627776
 20
50.207418
 42
0.0
  0
VERTEX
  8
0
 10
56.645556
 20
50.241962
 42
0.0
  0
VERTEX
  8
0
 10
56.791606
 20
51.169316
 42
0.0
  0
VERTEX
  8
0
 10
56.645556
 20
52.098194
 42
0.0
  0
VERTEX
  8
0
 10
56.627776
 20
52.13096
 42
0.0
  0
VERTEX
  8
0
 10
56.219852
 20
52.934616
 42
0.0
  0
VERTEX
  8
0
 10
55.65775
 20
53.496972
 42
0.0
  0
VERTEX
  8
0
 10
55.556912
 20
53.598826
 42
0.0
  0
VERTEX
  8
0
 10
54.723284
 20
54.026054
 42
0.0
  0
VERTEX
  8
0
 10
53.798724
 20
54.172104
 42
0.0
  0
VERTEX
  8
0
 10
52.901596
 20
54.030118
 42
0.0
  0
VERTEX
  8
0
 10
52.87264
 20
54.026054
 42
0.0
  0
VERTEX
  8
0
 10
52.037488
 20
53.598826
 42
0.0
  0
VERTEX
  8
0
 10
51.936904
 20
53.496972
 42
0.0
  0
VERTEX
  8
0
 10
51.376072
 20
52.934616
 42
0.0
  0
VERTEX
  8
0
 10
50.950368
 20
52.098194
 42
0.0
  0
VERTEX
  8
0
 10
50.804318
 20
51.169316
 42
0.0
  0
VERTEX
  8
0
 10
50.950368
 20
50.241962
 42
0.0
  0
VERTEX
  8
0
 10
51.376072
 20
49.404016
 42
0.0
  0
VERTEX
  8
0
 10
52.037488
 20
48.739806
 42
0.0
  0
VERTEX
  8
0
 10
52.87264
 20
48.314102
 42
0.0
  0
SEQEND
  0
POLYLINE
  8
0
 66
     1
 10
0.0
 20
0.0
 30
0.0
 70
     1
  0
VERTEX
  8
0
 10
49.999138
 20
44.59605
 42
0.0
  0
VERTEX
  8
0
 10
50.21961
 20
44.815252
 42
0.0
  0
VERTEX
  8
0
 10
50.354738
 20
44.950126
 42
0.0
  0
VERTEX
  8
0
 10
50.535332
 20
45.305726
 42
0.0
  0
VERTEX
  8
0
 10
50.633122
 20
45.495972
 42
0.0
  0
VERTEX
  8
0
 10
50.728372
 20
46.101
 42
0.0
  0
VERTEX
  8
0
 10
50.633122
 20
46.706028
 42
0.0
  0
VERTEX
  8
0
 10
50.354738
 20
47.251366
 42
0.0
  0
VERTEX
  8
0
 10
49.922176
 20
47.684182
 42
0.0
  0
VERTEX
  8
0
 10
49.376584
 20
47.96409
 42
0.0
  0
VERTEX
  8
0
 10
48.771556
 20
48.058832
 42
0.0
  0
VERTEX
  8
0
 10
48.166528
 20
47.96409
 42
0.0
  0
VERTEX
  8
0
 10
47.620682
 20
47.684182
 42
0.0
  0
VERTEX
  8
0
 10
47.188374
 20
47.251366
 42
0.0
  0
VERTEX
  8
0
 10
46.90999
 20
46.706028
 42
0.0
  0
VERTEX
  8
0
 10
46.813216
 20
46.101
 42
0.0
  0
VERTEX
  8
0
 10
46.90999
 20
45.495972
 42
0.0
  0
VERTEX
  8
0
 10
47.007526
 20
45.305726
 42
0.0
  0
VERTEX
  8
0
 10
47.188374
 20
44.950126
 42
0.0
  0
VERTEX
  8
0
 10
47.620682
 20
44.51731
 42
0.0
  0
VERTEX
  8
0
 10
48.166528
 20
44.238926
 42
0.0
  0
VERTEX
  8
0
 10
48.771556
 20
44.144184
 42
0.0
  0
VERTEX
  8
0
 10
49.376584
 20
44.238926
 42
0.0
  0
VERTEX
  8
0
 10
49.922176
 20
44.51731
 42
0.0
  0
SEQEND
  0
POLYLINE
  8
0
 66
     1
 10
0.0
 20
0.0
 30
0.0
 70
     1
  0
VERTEX
  8
0
 10
53.837078
 20
37.518594
 42
0.0
  0
VERTEX
  8
0
 10
58.135266
 20
37.518594
 42
0.0
  0
VERTEX
  8
0
 10
58.135266
 20
39.02329
 42
0.0
  0
VERTEX
  8
0
 10
53.379878
 20
39.02329
 42
0.0
  0
VERTEX
  8
0
 10
53.379878
 20
37.518594
 42
0.0
  0
SEQEND
  0
POLYLINE
  8
0
 66
     1
 10
0.0
 20
0.0
 30
0.0
 70
     1
  0
VERTEX
  8
0
 10
48.3362
 20
34.084514
 42
0.0
  0
VERTEX
  8
0
 10
48.436784
 20
34.74593
 42
0.0
  0
VERTEX
  8
0
 10
48.485044
 20
35.07105
 42
0.0
  0
VERTEX
  8
0
 10
48.534574
 20
36.065968
 42
0.0
  0
VERTEX
  8
0
 10
48.485044
 20
37.06241
 42
0.0
  0
VERTEX
  8
0
 10
48.436784
 20
37.38626
 42
0.0
  0
VERTEX
  8
0
 10
48.3362
 20
38.048946
 42
0.0
  0
VERTEX
  8
0
 10
48.090582
 20
39.015162
 42
0.0
  0
VERTEX
  8
0
 10
47.750222
 20
39.952168
 42
0.0
  0
VERTEX
  8
0
 10
47.320454
 20
40.850566
 42
0.0
  0
VERTEX
  8
0
 10
47.223934
 20
41.007538
 42
0.0
  0
VERTEX
  8
0
 10
47.214282
 20
41.024302
 42
0.0
  0
VERTEX
  8
0
 10
46.801024
 20
41.700704
 42
0.0
  0
VERTEX
  8
0
 10
46.738794
 20
41.783254
 42
0.0
  0
VERTEX
  8
0
 10
45.847254
 20
40.890444
 42
0.0
  0
VERTEX
  8
0
 10
41.040812
 20
36.068762
 42
0.0
  0
VERTEX
  8
0
 10
41.237916
 20
35.870388
 42
0.0
  0
VERTEX
  8
0
 10
45.847254
 20
31.24835
 42
0.0
  0
VERTEX
  8
0
 10
46.741588
 20
30.352746
 42
0.0
  0
VERTEX
  8
0
 10
46.801024
 20
30.431232
 42
0.0
  0
VERTEX
  8
0
 10
47.214282
 20
31.109158
 42
0.0
  0
VERTEX
  8
0
 10
47.223934
 20
31.124398
 42
0.0
  0
VERTEX
  8
0
 10
47.320454
 20
31.282894
 42
0.0
  0
VERTEX
  8
0
 10
47.750222
 20
32.181292
 42
0.0
  0
VERTEX
  8
0
 10
48.090582
 20
33.118298
 42
0.0
  0
SEQEND
  0
POLYLINE
  8
0
 66
     1
 10
0.0
 20
0.0
 30
0.0
 70
     1
  0
VERTEX
  8
0
 10
50.950368
 20
22.1395544
 42
0.0
  0
VERTEX
  8
0
 10
50.804318
 20
21.2107526
 42
0.0
  0
VERTEX
  8
0
 10
50.873152
 20
20.7766666
 42
0.0
  0
VERTEX
  8
0
 10
50.88001
 20
20.729829
 42
0.0
  0
VERTEX
  8
0
 10
50.950368
 20
20.2833478
 42
0.0
  0
VERTEX
  8
0
 10
51.376072
 20
19.446875
 42
0.0
  0
VERTEX
  8
0
 10
52.037488
 20
18.782665
 42
0.0
  0
VERTEX
  8
0
 10
52.87264
 20
18.3568594
 42
0.0
  0
VERTEX
  8
0
 10
52.901596
 20
18.3513222
 42
0.0
  0
VERTEX
  8
0
 10
53.798724
 20
18.2094124
 42
0.0
  0
VERTEX
  8
0
 10
54.723284
 20
18.3568594
 42
0.0
  0
VERTEX
  8
0
 10
55.556912
 20
18.782665
 42
0.0
  0
VERTEX
  8
0
 10
56.219852
 20
19.446875
 42
0.0
  0
VERTEX
  8
0
 10
56.645556
 20
20.2833478
 42
0.0
  0
VERTEX
  8
0
 10
56.716168
 20
20.729829
 42
0.0
  0
VERTEX
  8
0
 10
56.791606
 20
21.2107526
 42
0.0
  0
VERTEX
  8
0
 10
56.645556
 20
22.1395544
 42
0.0
  0
VERTEX
  8
0
 10
56.219852
 20
22.9760272
 42
0.0
  0
VERTEX
  8
0
 10
55.556912
 20
23.6402372
 42
0.0
  0
VERTEX
  8
0
 10
54.723284
 20
24.0674652
 42
0.0
  0
VERTEX
  8
0
 10
53.798724
 20
24.2148868
 42
0.0
  0
VERTEX
  8
0
 10
53.626512
 20
24.1873278
 42
0.0
  0
VERTEX
  8
0
 10
52.901596
 20
24.07158
 42
0.0
  0
VERTEX
  8
0
 10
52.87264
 20
24.0674652
 42
0.0
  0
VERTEX
  8
0
 10
52.037488
 20
23.6402372
 42
0.0
  0
VERTEX
  8
0
 10
51.376072
 20
22.9760272
 42
0.0
  0
SEQEND
  0
POLYLINE
  8
0
 66
     1
 10
0.0
 20
0.0
 30
0.0
 70
     1
  0
VERTEX
  8
0
 10
50.038
 20
24.755094
 42
0.0
  0
VERTEX
  8
0
 10
50.108104
 20
24.8253504
 42
0.0
  0
VERTEX
  8
0
 10
50.208688
 20
24.9273568
 42
0.0
  0
VERTEX
  8
0
 10
50.356262
 20
25.0747784
 42
0.0
  0
VERTEX
  8
0
 10
50.634646
 20
25.619202
 42
0.0
  0
VERTEX
  8
0
 10
50.729896
 20
26.223976
 42
0.0
  0
VERTEX
  8
0
 10
50.634646
 20
26.829004
 42
0.0
  0
VERTEX
  8
0
 10
50.356262
 20
27.37612
 42
0.0
  0
VERTEX
  8
0
 10
50.208688
 20
27.52217
 42
0.0
  0
VERTEX
  8
0
 10
49.972976
 20
27.757882
 42
0.0
  0
VERTEX
  8
0
 10
49.9237
 20
27.808682
 42
0.0
  0
VERTEX
  8
0
 10
49.376584
 20
28.085796
 42
0.0
  0
VERTEX
  8
0
 10
48.771556
 20
28.182316
 42
0.0
  0
VERTEX
  8
0
 10
48.436784
 20
28.128468
 42
0.0
  0
VERTEX
  8
0
 10
48.166528
 20
28.085796
 42
0.0
  0
VERTEX
  8
0
 10
47.622206
 20
27.808682
 42
0.0
  0
VERTEX
  8
0
 10
47.357538
 20
27.544268
 42
0.0
  0
VERTEX
  8
0
 10
47.223934
 20
27.411934
 42
0.0
  0
VERTEX
  8
0
 10
47.214282
 20
27.401012
 42
0.0
  0
VERTEX
  8
0
 10
47.188374
 20
27.37612
 42
0.0
  0
VERTEX
  8
0
 10
46.90999
 20
26.829004
 42
0.0
  0
VERTEX
  8
0
 10
46.81474
 20
26.223976
 42
0.0
  0
VERTEX
  8
0
 10
46.90999
 20
25.619202
 42
0.0
  0
VERTEX
  8
0
 10
47.188374
 20
25.0747784
 42
0.0
  0
VERTEX
  8
0
 10
47.437548
 20
24.8253504
 42
0.0
  0
VERTEX
  8
0
 10
47.506382
 20
24.755094
 42
0.0
  0
VERTEX
  8
0
 10
47.622206
 20
24.6407178
 42
0.0
  0
VERTEX
  8
0
 10
48.166528
 20
24.3623338
 42
0.0
  0
VERTEX
  8
0
 10
48.436784
 20
24.319611
 42
0.0
  0
VERTEX
  8
0
 10
48.771556
 20
24.2672616
 42
0.0
  0
VERTEX
  8
0
 10
49.376584
 20
24.3623338
 42
0.0
  0
VERTEX
  8
0
 10
49.9237
 20
24.6407178
 42
0.0
  0
SEQEND
  0
POLYLINE
  8
0
 66
     1
 10
0.0
 20
0.0
 30
0.0
 70
     1
  0
VERTEX
  8
0
 10
71.837296
 20
6.6214752
 42
0.0
  0
VERTEX
  8
0
 10
71.86041
 20
6.6697098
 42
0.0
  0
VERTEX
  8
0
 10
72.057768
 20
7.0569328
 42
0.0
  0
VERTEX
  8
0
 10
72.154034
 20
7.66191
 42
0.0
  0
VERTEX
  8
0
 10
72.057768
 20
8.2668618
 42
0.0
  0
VERTEX
  8
0
 10
71.969376
 20
8.4418678
 42
0.0
  0
VERTEX
  8
0
 10
71.86041
 20
8.6526878
 42
0.0
  0
VERTEX
  8
0
 10
71.780654
 20
8.8125554
 42
0.0
  0
VERTEX
  8
0
 10
71.346568
 20
9.2452444
 42
0.0
  0
VERTEX
  8
0
 10
71.198994
 20
9.3210634
 42
0.0
  0
VERTEX
  8
0
 10
71.127366
 20
9.3568774
 42
0.0
  0
VERTEX
  8
0
 10
70.800722
 20
9.5236284
 42
0.0
  0
VERTEX
  8
0
 10
70.195694
 20
9.6187006
 42
0.0
  0
VERTEX
  8
0
 10
69.591174
 20
9.5236284
 42
0.0
  0
VERTEX
  8
0
 10
69.2658
 20
9.3568774
 42
0.0
  0
VERTEX
  8
0
 10
69.046852
 20
9.2452444
 42
0.0
  0
VERTEX
  8
0
 10
68.969382
 20
9.1681046
 42
0.0
  0
VERTEX
  8
0
 10
68.612512
 20
8.8125554
 42
0.0
  0
VERTEX
  8
0
 10
68.56984
 20
8.7271352
 42
0.0
  0
VERTEX
  8
0
 10
68.466462
 20
8.5231732
 42
0.0
  0
VERTEX
  8
0
 10
68.42379
 20
8.4418678
 42
0.0
  0
VERTEX
  8
0
 10
68.335652
 20
8.2668618
 42
0.0
  0
VERTEX
  8
0
 10
68.239132
 20
7.66191
 42
0.0
  0
VERTEX
  8
0
 10
68.335652
 20
7.0569328
 42
0.0
  0
VERTEX
  8
0
 10
68.466462
 20
6.7992244
 42
0.0
  0
VERTEX
  8
0
 10
68.612512
 20
6.5098422
 42
0.0
  0
VERTEX
  8
0
 10
68.65239
 20
6.471285
 42
0.0
  0
VERTEX
  8
0
 10
69.046852
 20
6.0771532
 42
0.0
  0
VERTEX
  8
0
 10
69.094604
 20
6.0523628
 42
0.0
  0
VERTEX
  8
0
 10
69.290438
 20
5.953125
 42
0.0
  0
VERTEX
  8
0
 10
69.591174
 20
5.7987946
 42
0.0
  0
VERTEX
  8
0
 10
70.195694
 20
5.7037224
 42
0.0
  0
VERTEX
  8
0
 10
70.800722
 20
5.7987946
 42
0.0
  0
VERTEX
  8
0
 10
71.101204
 20
5.953125
 42
0.0
  0
VERTEX
  8
0
 10
71.346568
 20
6.0771532
 42
0.0
  0
VERTEX
  8
0
 10
71.42099
 20
6.1515752
 42
0.0
  0
VERTEX
  8
0
 10
71.780654
 20
6.5098422
 42
0.0
  0
SEQEND
  0
POLYLINE
  8
0
 66
     1
 10
0.0
 20
0.0
 30
0.0
 70
     1
  0
VERTEX
  8
0
 10
20.7408526
 20
39.02329
 42
0.0
  0
VERTEX
  8
0
 10
19.3793618
 20
39.02329
 42
0.0
  0
VERTEX
  8
0
 10
19.3793618
 20
37.518594
 42
0.0
  0
VERTEX
  8
0
 10
24.1349784
 20
37.518594
 42
0.0
  0
VERTEX
  8
0
 10
24.1349784
 20
39.02329
 42
0.0
  0
SEQEND
  0
POLYLINE
  8
0
 66
     1
 10
0.0
 20
0.0
 30
0.0
 70
     1
  0
VERTEX
  8
0
 10
8.841486
 20
63.502794
 42
0.0
  0
VERTEX
  8
0
 10
8.92556
 20
63.588138
 42
0.0
  0
VERTEX
  8
0
 10
9.0344244
 20
63.803022
 42
0.0
  0
VERTEX
  8
0
 10
9.2038932
 20
64.133984
 42
0.0
  0
VERTEX
  8
0
 10
9.2990162
 20
64.739012
 42
0.0
  0
VERTEX
  8
0
 10
9.2038932
 20
65.34404
 42
0.0
  0
VERTEX
  8
0
 10
9.0344244
 20
65.676018
 42
0.0
  0
VERTEX
  8
0
 10
8.979281
 20
65.784984
 42
0.0
  0
VERTEX
  8
0
 10
8.92556
 20
65.889378
 42
0.0
  0
VERTEX
  8
0
 10
8.4928456
 20
66.322194
 42
0.0
  0
VERTEX
  8
0
 10
8.2709766
 20
66.435224
 42
0.0
  0
VERTEX
  8
0
 10
7.9471266
 20
66.600578
 42
0.0
  0
VERTEX
  8
0
 10
7.475855
 20
66.675
 42
0.0
  0
VERTEX
  8
0
 10
7.3422002
 20
66.697352
 42
0.0
  0
VERTEX
  8
0
 10
6.7372484
 20
66.600578
 42
0.0
  0
VERTEX
  8
0
 10
6.4133984
 20
66.435224
 42
0.0
  0
VERTEX
  8
0
 10
6.1915294
 20
66.322194
 42
0.0
  0
VERTEX
  8
0
 10
5.7574434
 20
65.889378
 42
0.0
  0
VERTEX
  8
0
 10
5.705094
 20
65.784984
 42
0.0
  0
VERTEX
  8
0
 10
5.640324
 20
65.657984
 42
0.0
  0
VERTEX
  8
0
 10
5.4804818
 20
65.34404
 42
0.0
  0
VERTEX
  8
0
 10
5.3839872
 20
64.739012
 42
0.0
  0
VERTEX
  8
0
 10
5.4804818
 20
64.133984
 42
0.0
  0
VERTEX
  8
0
 10
5.640324
 20
63.819532
 42
0.0
  0
VERTEX
  8
0
 10
5.713349
 20
63.676276
 42
0.0
  0
VERTEX
  8
0
 10
5.7574434
 20
63.588138
 42
0.0
  0
VERTEX
  8
0
 10
6.1226446
 20
63.22441
 42
0.0
  0
VERTEX
  8
0
 10
6.1915294
 20
63.155322
 42
0.0
  0
VERTEX
  8
0
 10
6.434074
 20
63.031624
 42
0.0
  0
VERTEX
  8
0
 10
6.7372484
 20
62.876938
 42
0.0
  0
VERTEX
  8
0
 10
7.3422002
 20
62.782196
 42
0.0
  0
VERTEX
  8
0
 10
7.475855
 20
62.802516
 42
0.0
  0
VERTEX
  8
0
 10
7.9471266
 20
62.876938
 42
0.0
  0
VERTEX
  8
0
 10
8.2489294
 20
63.031624
 42
0.0
  0
VERTEX
  8
0
 10
8.3922616
 20
63.104522
 42
0.0
  0
VERTEX
  8
0
 10
8.4928456
 20
63.155322
 42
0.0
  0
SEQEND
  0
POLYLINE
  8
0
 66
     1
 10
0.0
 20
0.0
 30
0.0
 70
     1
  0
VERTEX
  8
0
 10
26.58237
 20
52.088288
 42
0.0
  0
VERTEX
  8
0
 10
26.156412
 20
52.92471
 42
0.0
  0
VERTEX
  8
0
 10
25.585928
 20
53.496972
 42
0.0
  0
VERTEX
  8
0
 10
25.494996
 20
53.589174
 42
0.0
  0
VERTEX
  8
0
 10
24.659971
 20
54.016402
 42
0.0
  0
VERTEX
  8
0
 10
24.6310404
 20
54.020466
 42
0.0
  0
VERTEX
  8
0
 10
23.7353602
 20
54.162452
 42
0.0
  0
VERTEX
  8
0
 10
22.8106732
 20
54.016402
 42
0.0
  0
VERTEX
  8
0
 10
21.9755974
 20
53.589174
 42
0.0
  0
VERTEX
  8
0
 10
21.8832684
 20
53.496972
 42
0.0
  0
VERTEX
  8
0
 10
21.312759
 20
52.92471
 42
0.0
  0
VERTEX
  8
0
 10
20.8882996
 20
52.088288
 42
0.0
  0
VERTEX
  8
0
 10
20.7408526
 20
51.160934
 42
0.0
  0
VERTEX
  8
0
 10
20.8882996
 20
50.23231
 42
0.0
  0
VERTEX
  8
0
 10
21.312759
 20
49.395888
 42
0.0
  0
VERTEX
  8
0
 10
21.9755974
 20
48.731678
 42
0.0
  0
VERTEX
  8
0
 10
22.8106732
 20
48.30445
 42
0.0
  0
VERTEX
  8
0
 10
23.7353602
 20
48.156876
 42
0.0
  0
VERTEX
  8
0
 10
23.8593376
 20
48.17745
 42
0.0
  0
VERTEX
  8
0
 10
24.6310404
 20
48.300132
 42
0.0
  0
VERTEX
  8
0
 10
24.659971
 20
48.30445
 42
0.0
  0
VERTEX
  8
0
 10
25.494996
 20
48.731678
 42
0.0
  0
VERTEX
  8
0
 10
26.156412
 20
49.395888
 42
0.0
  0
VERTEX
  8
0
 10
26.58237
 20
50.23231
 42
0.0
  0
VERTEX
  8
0
 10
26.72842
 20
51.160934
 42
0.0
  0
SEQEND
  0
POLYLINE
  8
0
 66
     1
 10
0.0
 20
0.0
 30
0.0
 70
     1
  0
VERTEX
  8
0
 10
27.370532
 20
44.813728
 42
0.0
  0
VERTEX
  8
0
 10
27.691588
 20
44.492672
 42
0.0
  0
VERTEX
  8
0
 10
28.237434
 20
44.214288
 42
0.0
  0
VERTEX
  8
0
 10
28.842208
 20
44.118022
 42
0.0
  0
VERTEX
  8
0
 10
29.44876
 20
44.214288
 42
0.0
  0
VERTEX
  8
0
 10
29.993082
 20
44.492672
 42
0.0
  0
VERTEX
  8
0
 10
30.425644
 20
44.925488
 42
0.0
  0
VERTEX
  8
0
 10
30.619954
 20
45.305726
 42
0.0
  0
VERTEX
  8
0
 10
30.704028
 20
45.471334
 42
0.0
  0
VERTEX
  8
0
 10
30.800548
 20
46.075854
 42
0.0
  0
VERTEX
  8
0
 10
30.704028
 20
46.680882
 42
0.0
  0
VERTEX
  8
0
 10
30.425644
 20
47.226728
 42
0.0
  0
VERTEX
  8
0
 10
29.993082
 20
47.659544
 42
0.0
  0
VERTEX
  8
0
 10
29.44876
 20
47.937928
 42
0.0
  0
VERTEX
  8
0
 10
28.842208
 20
48.032924
 42
0.0
  0
VERTEX
  8
0
 10
28.237434
 20
47.937928
 42
0.0
  0
VERTEX
  8
0
 10
27.691588
 20
47.659544
 42
0.0
  0
VERTEX
  8
0
 10
27.259026
 20
47.226728
 42
0.0
  0
VERTEX
  8
0
 10
26.980642
 20
46.680882
 42
0.0
  0
VERTEX
  8
0
 10
26.885392
 20
46.075854
 42
0.0
  0
VERTEX
  8
0
 10
26.980642
 20
45.471334
 42
0.0
  0
VERTEX
  8
0
 10
27.064716
 20
45.305726
 42
0.0
  0
VERTEX
  8
0
 10
27.259026
 20
44.925488
 42
0.0
  0
SEQEND
  0
POLYLINE
  8
0
 66
     1
 10
0.0
 20
0.0
 30
0.0
 70
     1
  0
VERTEX
  8
0
 10
29.047694
 20
37.054028
 42
0.0
  0
VERTEX
  8
0
 10
28.998164
 20
36.05784
 42
0.0
  0
VERTEX
  8
0
 10
29.047694
 20
35.061398
 42
0.0
  0
VERTEX
  8
0
 10
29.196538
 20
34.074608
 42
0.0
  0
VERTEX
  8
0
 10
29.441902
 20
33.11017
 42
0.0
  0
VERTEX
  8
0
 10
29.782262
 20
32.173164
 42
0.0
  0
VERTEX
  8
0
 10
30.213554
 20
31.273242
 42
0.0
  0
VERTEX
  8
0
 10
30.319472
 20
31.099506
 42
0.0
  0
VERTEX
  8
0
 10
30.731714
 20
30.42285
 42
0.0
  0
VERTEX
  8
0
 10
30.790896
 20
30.344364
 42
0.0
  0
VERTEX
  8
0
 10
31.68523
 20
31.240222
 42
0.0
  0
VERTEX
  8
0
 10
36.009326
 20
35.577018
 42
0.0
  0
VERTEX
  8
0
 10
36.491672
 20
36.060634
 42
0.0
  0
VERTEX
  8
0
 10
36.009326
 20
36.542726
 42
0.0
  0
VERTEX
  8
0
 10
31.68523
 20
40.881046
 42
0.0
  0
VERTEX
  8
0
 10
30.79369
 20
41.773856
 42
0.0
  0
VERTEX
  8
0
 10
30.731714
 20
41.692576
 42
0.0
  0
VERTEX
  8
0
 10
30.319472
 20
41.016174
 42
0.0
  0
VERTEX
  8
0
 10
30.213554
 20
40.841168
 42
0.0
  0
VERTEX
  8
0
 10
29.782262
 20
39.942516
 42
0.0
  0
VERTEX
  8
0
 10
29.441902
 20
39.005256
 42
0.0
  0
VERTEX
  8
0
 10
29.196538
 20
38.039294
 42
0.0
  0
VERTEX
  8
0
 10
29.057346
 20
37.11321
 42
0.0
  0
SEQEND
  0
POLYLINE
  8
0
 66
     1
 10
0.0
 20
0.0
 30
0.0
 70
     1
  0
VERTEX
  8
0
 10
30.123892
 20
24.7467882
 42
0.0
  0
VERTEX
  8
0
 10
30.202378
 20
24.8253504
 42
0.0
  0
VERTEX
  8
0
 10
30.319472
 20
24.9410982
 42
0.0
  0
VERTEX
  8
0
 10
30.425644
 20
25.048591
 42
0.0
  0
VERTEX
  8
0
 10
30.704028
 20
25.59431
 42
0.0
  0
VERTEX
  8
0
 10
30.800548
 20
26.199338
 42
0.0
  0
VERTEX
  8
0
 10
30.704028
 20
26.804112
 42
0.0
  0
VERTEX
  8
0
 10
30.425644
 20
27.349958
 42
0.0
  0
VERTEX
  8
0
 10
29.993082
 20
27.78252
 42
0.0
  0
VERTEX
  8
0
 10
29.44876
 20
28.060904
 42
0.0
  0
VERTEX
  8
0
 10
28.842208
 20
28.156154
 42
0.0
  0
VERTEX
  8
0
 10
28.237434
 20
28.060904
 42
0.0
  0
VERTEX
  8
0
 10
27.956256
 20
27.916378
 42
0.0
  0
VERTEX
  8
0
 10
27.691588
 20
27.78252
 42
0.0
  0
VERTEX
  8
0
 10
27.259026
 20
27.349958
 42
0.0
  0
VERTEX
  8
0
 10
26.980642
 20
26.804112
 42
0.0
  0
VERTEX
  8
0
 10
26.885392
 20
26.199338
 42
0.0
  0
VERTEX
  8
0
 10
26.980642
 20
25.59431
 42
0.0
  0
VERTEX
  8
0
 10
27.259026
 20
25.048591
 42
0.0
  0
VERTEX
  8
0
 10
27.31135
 20
24.99487
 42
0.0
  0
VERTEX
  8
0
 10
27.323796
 20
24.983821
 42
0.0
  0
VERTEX
  8
0
 10
27.691588
 20
24.6158766
 42
0.0
  0
VERTEX
  8
0
 10
28.237434
 20
24.3375434
 42
0.0
  0
VERTEX
  8
0
 10
28.842208
 20
24.2410488
 42
0.0
  0
VERTEX
  8
0
 10
29.44876
 20
24.3375434
 42
0.0
  0
VERTEX
  8
0
 10
29.993082
 20
24.6158766
 42
0.0
  0
SEQEND
  0
POLYLINE
  8
0
 66
     1
 10
0.0
 20
0.0
 30
0.0
 70
     1
  0
VERTEX
  8
0
 10
26.659586
 20
20.76704
 42
0.0
  0
VERTEX
  8
0
 10
26.72842
 20
21.2024976
 42
0.0
  0
VERTEX
  8
0
 10
26.59761
 20
22.0293184
 42
0.0
  0
VERTEX
  8
0
 10
26.58237
 20
22.1299278
 42
0.0
  0
VERTEX
  8
0
 10
26.156412
 20
22.9677722
 42
0.0
  0
VERTEX
  8
0
 10
25.494996
 20
23.6319822
 42
0.0
  0
VERTEX
  8
0
 10
24.659971
 20
24.0577878
 42
0.0
  0
VERTEX
  8
0
 10
24.6310404
 20
24.0619026
 42
0.0
  0
VERTEX
  8
0
 10
23.9062006
 20
24.1777012
 42
0.0
  0
VERTEX
  8
0
 10
23.7353602
 20
24.2038632
 42
0.0
  0
VERTEX
  8
0
 10
22.8106732
 20
24.0577878
 42
0.0
  0
VERTEX
  8
0
 10
21.9755974
 20
23.6319822
 42
0.0
  0
VERTEX
  8
0
 10
21.312759
 20
22.9677722
 42
0.0
  0
VERTEX
  8
0
 10
20.8882996
 20
22.1299278
 42
0.0
  0
VERTEX
  8
0
 10
20.8717896
 20
22.0293184
 42
0.0
  0
VERTEX
  8
0
 10
20.7408526
 20
21.2024976
 42
0.0
  0
VERTEX
  8
0
 10
20.8152746
 20
20.729829
 42
0.0
  0
VERTEX
  8
0
 10
20.8882996
 20
20.2750928
 42
0.0
  0
VERTEX
  8
0
 10
21.312759
 20
19.4372484
 42
0.0
  0
VERTEX
  8
0
 10
21.9755974
 20
18.7729876
 42
0.0
  0
VERTEX
  8
0
 10
22.8106732
 20
18.3458104
 42
0.0
  0
VERTEX
  8
0
 10
23.7353602
 20
18.199735
 42
0.0
  0
VERTEX
  8
0
 10
24.6310404
 20
18.3416956
 42
0.0
  0
VERTEX
  8
0
 10
24.659971
 20
18.3458104
 42
0.0
  0
VERTEX
  8
0
 10
25.494996
 20
18.7729876
 42
0.0
  0
VERTEX
  8
0
 10
26.156412
 20
19.4372484
 42
0.0
  0
VERTEX
  8
0
 10
26.58237
 20
20.2750928
 42
0.0
  0
VERTEX
  8
0
 10
26.653998
 20
20.729829
 42
0.0
  0
SEQEND
  0
POLYLINE
  8
0
 66
     1
 10
0.0
 20
0.0
 30
0.0
 70
     1
  0
VERTEX
  8
0
 10
8.5700362
 20
6.1350144
 42
0.0
  0
VERTEX
  8
0
 10
8.8773254
 20
6.442329
 42
0.0
  0
VERTEX
  8
0
 10
9.0027252
 20
6.5691004
 42
0.0
  0
VERTEX
  8
0
 10
9.0674952
 20
6.6945256
 42
0.0
  0
VERTEX
  8
0
 10
9.2810838
 20
7.1134478
 42
0.0
  0
VERTEX
  8
0
 10
9.3775276
 20
7.7183996
 42
0.0
  0
VERTEX
  8
0
 10
9.2810838
 20
8.3233768
 42
0.0
  0
VERTEX
  8
0
 10
9.220454
 20
8.4418678
 42
0.0
  0
VERTEX
  8
0
 10
9.0674952
 20
8.7436706
 42
0.0
  0
VERTEX
  8
0
 10
9.0027252
 20
8.869045
 42
0.0
  0
VERTEX
  8
0
 10
8.5700362
 20
9.3017594
 42
0.0
  0
VERTEX
  8
0
 10
8.4804504
 20
9.3486224
 42
0.0
  0
VERTEX
  8
0
 10
8.0243172
 20
9.5801434
 42
0.0
  0
VERTEX
  8
0
 10
7.475855
 20
9.6669352
 42
0.0
  0
VERTEX
  8
0
 10
7.4193654
 20
9.6765872
 42
0.0
  0
VERTEX
  8
0
 10
6.8143882
 20
9.5801434
 42
0.0
  0
VERTEX
  8
0
 10
6.3596266
 20
9.3486224
 42
0.0
  0
VERTEX
  8
0
 10
6.3486284
 20
9.3431106
 42
0.0
  0
VERTEX
  8
0
 10
6.2686946
 20
9.3017594
 42
0.0
  0
VERTEX
  8
0
 10
5.8360056
 20
8.869045
 42
0.0
  0
VERTEX
  8
0
 10
5.6706262
 20
8.5452204
 42
0.0
  0
VERTEX
  8
0
 10
5.6182768
 20
8.4418678
 42
0.0
  0
VERTEX
  8
0
 10
5.5576216
 20
8.3233768
 42
0.0
  0
VERTEX
  8
0
 10
5.4625494
 20
7.7183996
 42
0.0
  0
VERTEX
  8
0
 10
5.5576216
 20
7.1134478
 42
0.0
  0
VERTEX
  8
0
 10
5.6706262
 20
6.8915788
 42
0.0
  0
VERTEX
  8
0
 10
5.8360056
 20
6.5691004
 42
0.0
  0
VERTEX
  8
0
 10
5.8897266
 20
6.5153794
 42
0.0
  0
VERTEX
  8
0
 10
6.2686946
 20
6.1350144
 42
0.0
  0
VERTEX
  8
0
 10
6.3141606
 20
6.1115956
 42
0.0
  0
VERTEX
  8
0
 10
6.6462656
 20
5.9421268
 42
0.0
  0
VERTEX
  8
0
 10
6.8143882
 20
5.8566812
 42
0.0
  0
VERTEX
  8
0
 10
7.4193654
 20
5.7615582
 42
0.0
  0
VERTEX
  8
0
 10
7.475855
 20
5.769864
 42
0.0
  0
VERTEX
  8
0
 10
8.0243172
 20
5.8566812
 42
0.0
  0
VERTEX
  8
0
 10
8.1579974
 20
5.9241944
 42
0.0
  0
VERTEX
  8
0
 10
8.1938368
 20
5.9421268
 42
0.0
  0
VERTEX
  8
0
 10
8.4514944
 20
6.07441
 42
0.0
  0
SEQEND
  0
POLYLINE
  8
0
 66
     1
 10
0.0
 20
0.0
 30
0.0
 70
     1
  0
VERTEX
  8
0
 10
56.791606
 20
35.02279
 42
0.0
  0
VERTEX
  8
0
 10
53.379878
 20
35.02279
 42
0.0
  0
VERTEX
  8
0
 10
53.379878
 20
33.518094
 42
0.0
  0
VERTEX
  8
0
 10
58.135266
 20
33.518094
 42
0.0
  0
VERTEX
  8
0
 10
58.135266
 20
35.02279
 42
0.0
  0
SEQEND
  0
POLYLINE
  8
0
 66
     1
 10
0.0
 20
0.0
 30
0.0
 70
     1
  0
VERTEX
  8
0
 10
23.6953806
 20
33.518094
 42
0.0
  0
VERTEX
  8
0
 10
24.1349784
 20
33.518094
 42
0.0
  0
VERTEX
  8
0
 10
24.1349784
 20
35.02279
 42
0.0
  0
VERTEX
  8
0
 10
19.3793618
 20
35.02279
 42
0.0
  0
VERTEX
  8
0
 10
19.3793618
 20
33.518094
 42
0.0
  0
SEQEND
  0
POLYLINE
  8
0
 66
     1
 10
0.0
 20
0.0
 30
0.0
 70
     1
  0
VERTEX
  8
0
 10
73.066402
 20
71.282052
 42
0.0
  0
VERTEX
  8
0
 10
74.2061
 20
71.044816
 42
0.0
  0
VERTEX
  8
0
 10
75.13066
 20
70.607682
 42
0.0
  0
VERTEX
  8
0
 10
75.830684
 20
69.978016
 42
0.0
  0
VERTEX
  8
0
 10
76.300584
 20
69.160898
 42
0.0
  0
VERTEX
  8
0
 10
76.531978
 20
68.16344
 42
0.0
  0
VERTEX
  8
0
 10
76.526644
 20
66.996056
 42
0.0
  0
VERTEX
  8
0
 10
76.284074
 20
65.668906
 42
0.0
  0
VERTEX
  8
0
 10
75.804522
 20
64.19469
 42
0.0
  0
VERTEX
  8
0
 10
75.294744
 20
63.041022
 42
0.0
  0
VERTEX
  8
0
 10
75.154028
 20
62.724284
 42
0.0
  0
VERTEX
  8
0
 10
75.094846
 20
62.589156
 42
0.0
  0
VERTEX
  8
0
 10
74.842624
 20
62.124844
 42
0.0
  0
VERTEX
  8
0
 10
74.606912
 20
61.689234
 42
0.0
  0
VERTEX
  8
0
 10
74.160634
 20
60.866528
 42
0.0
  0
VERTEX
  8
0
 10
73.00976
 20
59.04484
 42
0.0
  0
VERTEX
  8
0
 10
71.656702
 20
57.139078
 42
0.0
  0
VERTEX
  8
0
 10
70.111874
 20
55.169816
 42
0.0
  0
VERTEX
  8
0
 10
68.390516
 20
53.155088
 42
0.0
  0
VERTEX
  8
0
 10
66.509646
 20
51.114452
 42
0.0
  0
VERTEX
  8
0
 10
64.820038
 20
49.40554
 42
0.0
  0
VERTEX
  8
0
 10
64.71666
 20
49.300638
 42
0.0
  0
VERTEX
  8
0
 10
64.525144
 20
49.106328
 42
0.0
  0
VERTEX
  8
0
 10
64.482472
 20
49.063656
 42
0.0
  0
VERTEX
  8
0
 10
64.394334
 20
48.979582
 42
0.0
  0
VERTEX
  8
0
 10
64.263524
 20
48.8569
 42
0.0
  0
VERTEX
  8
0
 10
64.175132
 20
48.772826
 42
0.0
  0
VERTEX
  8
0
 10
64.023494
 20
48.648874
 42
0.0
  0
VERTEX
  8
0
 10
63.665354
 20
48.30445
 42
0.0
  0
VERTEX
  8
0
 10
63.250572
 20
47.906178
 42
0.0
  0
VERTEX
  8
0
 10
63.19266
 20
47.85106
 42
0.0
  0
VERTEX
  8
0
 10
62.993016
 20
47.659544
 42
0.0
  0
VERTEX
  8
0
 10
62.743334
 20
47.377096
 42
0.0
  0
VERTEX
  8
0
 10
62.727078
 20
47.353474
 42
0.0
  0
VERTEX
  8
0
 10
62.715648
 20
47.335694
 42
0.0
  0
VERTEX
  8
0
 10
62.46241
 20
47.061374
 42
0.0
  0
VERTEX
  8
0
 10
62.454028
 20
47.053246
 42
0.0
  0
VERTEX
  8
0
 10
62.320424
 20
46.876716
 42
0.0
  0
VERTEX
  8
0
 10
61.74994
 20
46.122844
 42
0.0
  0
VERTEX
  8
0
 10
61.241432
 20
45.305726
 42
0.0
  0
VERTEX
  8
0
 10
61.111638
 20
45.096176
 42
0.0
  0
VERTEX
  8
0
 10
60.545472
 20
43.984418
 42
0.0
  0
VERTEX
  8
0
 10
60.057538
 20
42.797476
 42
0.0
  0
VERTEX
  8
0
 10
59.873134
 20
42.227246
 42
0.0
  0
VERTEX
  8
0
 10
59.651138
 20
41.545256
 42
0.0
  0
VERTEX
  8
0
 10
59.331606
 20
40.242744
 42
0.0
  0
VERTEX
  8
0
 10
59.099704
 20
38.899338
 42
0.0
  0
VERTEX
  8
0
 10
58.960766
 20
37.529516
 42
0.0
  0
VERTEX
  8
0
 10
58.913776
 20
36.145978
 42
0.0
  0
VERTEX
  8
0
 10
58.960766
 20
34.76371
 42
0.0
  0
VERTEX
  8
0
 10
59.099704
 20
33.394142
 42
0.0
  0
VERTEX
  8
0
 10
59.331606
 20
32.051752
 42
0.0
  0
VERTEX
  8
0
 10
59.651138
 20
30.7467
 42
0.0
  0
VERTEX
  8
0
 10
60.057538
 20
29.49702
 42
0.0
  0
VERTEX
  8
0
 10
60.13069
 20
29.31922
 42
0.0
  0
VERTEX
  8
0
 10
60.294774
 20
28.920948
 42
0.0
  0
VERTEX
  8
0
 10
60.45454
 20
28.532328
 42
0.0
  0
VERTEX
  8
0
 10
60.545472
 20
28.309062
 42
0.0
  0
VERTEX
  8
0
 10
61.111638
 20
27.19705
 42
0.0
  0
VERTEX
  8
0
 10
61.205618
 20
27.045412
 42
0.0
  0
VERTEX
  8
0
 10
61.74994
 20
26.171652
 42
0.0
  0
VERTEX
  8
0
 10
61.950854
 20
25.905714
 42
0.0
  0
VERTEX
  8
0
 10
62.390528
 20
25.3256034
 42
0.0
  0
VERTEX
  8
0
 10
63.665354
 20
24.117046
 42
0.0
  0
VERTEX
  8
0
 10
64.48679
 20
23.3384852
 42
0.0
  0
VERTEX
  8
0
 10
66.509646
 20
21.2920834
 42
0.0
  0
VERTEX
  8
0
 10
68.390516
 20
19.2498218
 42
0.0
  0
VERTEX
  8
0
 10
70.111874
 20
17.2365162
 42
0.0
  0
VERTEX
  8
0
 10
71.407274
 20
15.5842462
 42
0.0
  0
VERTEX
  8
0
 10
71.656702
 20
15.2658826
 42
0.0
  0
VERTEX
  8
0
 10
73.00976
 20
13.3614668
 42
0.0
  0
VERTEX
  8
0
 10
73.530968
 20
12.5374146
 42
0.0
  0
VERTEX
  8
0
 10
74.160634
 20
11.5396772
 42
0.0
  0
VERTEX
  8
0
 10
75.094846
 20
9.8157538
 42
0.0
  0
VERTEX
  8
0
 10
75.804522
 20
8.2117184
 42
0.0
  0
VERTEX
  8
0
 10
76.284074
 20
6.7372484
 42
0.0
  0
VERTEX
  8
0
 10
76.427584
 20
5.953125
 42
0.0
  0
VERTEX
  8
0
 10
76.472796
 20
5.7037224
 42
0.0
  0
VERTEX
  8
0
 10
76.526644
 20
5.4101746
 42
0.0
  0
VERTEX
  8
0
 10
76.531978
 20
4.2429684
 42
0.0
  0
VERTEX
  8
0
 10
76.300584
 20
3.2439102
 42
0.0
  0
VERTEX
  8
0
 10
75.830684
 20
2.42810284
 42
0.0
  0
VERTEX
  8
0
 10
75.13066
 20
1.7969611
 42
0.0
  0
VERTEX
  8
0
 10
74.2061
 20
1.3615035
 42
0.0
  0
VERTEX
  8
0
 10
73.066402
 20
1.12447832
 42
0.0
  0
VERTEX
  8
0
 10
71.721472
 20
1.0872724
 42
0.0
  0
VERTEX
  8
0
 10
70.183502
 20
1.24988066
 42
0.0
  0
VERTEX
  8
0
 10
68.470526
 20
1.61368232
 42
0.0
  0
VERTEX
  8
0
 10
68.466462
 20
1.61506154
 42
0.0
  0
VERTEX
  8
0
 10
68.239132
 20
1.6825849
 42
0.0
  0
VERTEX
  8
0
 10
66.59626
 20
2.1717889
 42
0.0
  0
VERTEX
  8
0
 10
64.820038
 20
2.8318714
 42
0.0
  0
VERTEX
  8
0
 10
64.580516
 20
2.9200602
 42
0.0
  0
VERTEX
  8
0
 10
63.904876
 20
3.2135826
 42
0.0
  0
VERTEX
  8
0
 10
63.522352
 20
3.5057334
 42
0.0
  0
VERTEX
  8
0
 10
52.701952
 20
12.5374146
 42
0.0
  0
VERTEX
  8
0
 10
51.927252
 20
13.1850638
 42
0.0
  0
VERTEX
  8
0
 10
50.857912
 20
14.009116
 42
0.0
  0
VERTEX
  8
0
 10
49.715674
 20
14.7629372
 42
0.0
  0
VERTEX
  8
0
 10
48.504094
 20
15.4367738
 42
0.0
  0
VERTEX
  8
0
 10
48.436784
 20
15.46987
 42
0.0
  0
VERTEX
  8
0
 10
48.19015
 20
15.5842462
 42
0.0
  0
VERTEX
  8
0
 10
47.842678
 20
15.7468316
 42
0.0
  0
VERTEX
  8
0
 10
47.23384
 20
16.032099
 42
0.0
  0
VERTEX
  8
0
 10
47.08779
 20
16.088614
 42
0.0
  0
VERTEX
  8
0
 10
46.05401
 20
16.485489
 42
0.0
  0
VERTEX
  8
0
 10
45.912278
 20
16.5405816
 42
0.0
  0
VERTEX
  8
0
 10
45.847254
 20
16.5598856
 42
0.0
  0
VERTEX
  8
0
 10
44.647104
 20
16.9292016
 42
0.0
  0
VERTEX
  8
0
 10
44.546266
 20
16.9608754
 42
0.0
  0
VERTEX
  8
0
 10
43.836844
 20
17.1276518
 42
0.0
  0
VERTEX
  8
0
 10
43.143678
 20
17.2902372
 42
0.0
  0
VERTEX
  8
0
 10
42.3926
 20
17.4156624
 42
0.0
  0
VERTEX
  8
0
 10
41.717468
 20
17.52727
 42
0.0
  0
VERTEX
  8
0
 10
41.010332
 20
17.5975518
 42
0.0
  0
VERTEX
  8
0
 10
40.457882
 20
17.6512982
 42
0.0
  0
VERTEX
  8
0
 10
40.270176
 20
17.6705768
 42
0.0
  0
VERTEX
  8
0
 10
39.089584
 20
17.7091594
 42
0.0
  0
VERTEX
  8
0
 10
38.816534
 20
17.7188368
 42
0.0
  0
VERTEX
  8
0
 10
38.768528
 20
17.7174398
 42
0.0
  0
VERTEX
  8
0
 10
38.768528
 20
17.7077878
 42
0.0
  0
VERTEX
  8
0
 10
38.717474
 20
17.7091594
 42
0.0
  0
VERTEX
  8
0
 10
37.262054
 20
17.6609502
 42
0.0
  0
VERTEX
  8
0
 10
36.009326
 20
17.5382682
 42
0.0
  0
VERTEX
  8
0
 10
35.81654
 20
17.519015
 42
0.0
  0
VERTEX
  8
0
 10
34.387536
 20
17.2819822
 42
0.0
  0
VERTEX
  8
0
 10
33.695894
 20
17.1179744
 42
0.0
  0
VERTEX
  8
0
 10
32.987488
 20
16.9512488
 42
0.0
  0
VERTEX
  8
0
 10
32.885634
 20
16.9209212
 42
0.0
  0
VERTEX
  8
0
 10
32.051752
 20
16.6632382
 42
0.0
  0
VERTEX
  8
0
 10
31.68523
 20
16.550259
 42
0.0
  0
VERTEX
  8
0
 10
31.62046
 20
16.530955
 42
0.0
  0
VERTEX
  8
0
 10
30.446472
 20
16.0789366
 42
0.0
  0
VERTEX
  8
0
 10
30.298898
 20
16.0224724
 42
0.0
  0
VERTEX
  8
0
 10
29.688536
 20
15.737205
 42
0.0
  0
VERTEX
  8
0
 10
29.343858
 20
15.5759404
 42
0.0
  0
VERTEX
  8
0
 10
29.02839
 20
15.4285188
 42
0.0
  0
VERTEX
  8
0
 10
27.818588
 20
14.7532852
 42
0.0
  0
VERTEX
  8
0
 10
26.674572
 20
14.000861
 42
0.0
  0
VERTEX
  8
0
 10
25.605232
 20
13.1754372
 42
0.0
  0
VERTEX
  8
0
 10
24.8419112
 20
12.5374146
 42
0.0
  0
VERTEX
  8
0
 10
18.6958478
 20
7.4069448
 42
0.0
  0
VERTEX
  8
0
 10
15.6683202
 20
4.8796194
 42
0.0
  0
VERTEX
  8
0
 10
14.009116
 20
3.4947098
 42
0.0
  0
VERTEX
  8
0
 10
13.6274048
 20
3.2053276
 42
0.0
  0
VERTEX
  8
0
 10
12.9535682
 20
2.9118052
 42
0.0
  0
VERTEX
  8
0
 10
11.6981732
 20
2.44464078
 42
0.0
  0
VERTEX
  8
0
 10
10.9361224
 20
2.16214452
 42
0.0
  0
VERTEX
  8
0
 10
9.0619834
 20
1.60403794
 42
0.0
  0
VERTEX
  8
0
 10
8.8029034
 20
1.5489174
 42
0.0
  0
VERTEX
  8
0
 10
7.475855
 20
1.2691745
 42
0.0
  0
VERTEX
  8
0
 10
7.3476866
 20
1.24161296
 42
0.0
  0
VERTEX
  8
0
 10
5.8112152
 20
1.07762548
 42
0.0
  0
VERTEX
  8
0
 10
5.6706262
 20
1.0817606
 42
0.0
  0
VERTEX
  8
0
 10
5.4625494
 20
1.0872724
 42
0.0
  0
VERTEX
  8
0
 10
4.4662344
 20
1.11483394
 42
0.0
  0
VERTEX
  8
0
 10
3.3265872
 20
1.35185404
 42
0.0
  0
VERTEX
  8
0
 10
2.40191798
 20
1.7886934
 42
0.0
  0
VERTEX
  8
0
 10
1.70187874
 20
2.41845846
 42
0.0
  0
VERTEX
  8
0
 10
1.23334272
 20
3.2356298
 42
0.0
  0
VERTEX
  8
0
 10
1.00045774
 20
4.2333418
 42
0.0
  0
VERTEX
  8
0
 10
1.00459032
 20
5.4019196
 42
0.0
  0
VERTEX
  8
0
 10
1.24850144
 20
6.7289426
 42
0.0
  0
VERTEX
  8
0
 10
1.72806106
 20
8.2020918
 42
0.0
  0
VERTEX
  8
0
 10
2.43774976
 20
9.8074988
 42
0.0
  0
VERTEX
  8
0
 10
3.3720532
 20
11.5300506
 42
0.0
  0
VERTEX
  8
0
 10
4.0073326
 20
12.5374146
 42
0.0
  0
VERTEX
  8
0
 10
4.5213524
 20
13.3518148
 42
0.0
  0
VERTEX
  8
0
 10
5.8759598
 20
15.2576276
 42
0.0
  0
VERTEX
  8
0
 10
7.4207624
 20
17.2268388
 42
0.0
  0
VERTEX
  8
0
 10
9.1419172
 20
19.2415668
 42
0.0
  0
VERTEX
  8
0
 10
11.0229396
 20
21.282406
 42
0.0
  0
VERTEX
  8
0
 10
13.0458972
 20
23.3288078
 42
0.0
  0
VERTEX
  8
0
 10
13.8672062
 20
24.107394
 42
0.0
  0
VERTEX
  8
0
 10
15.1419052
 20
25.3172976
 42
0.0
  0
VERTEX
  8
0
 10
15.5676854
 20
25.879552
 42
0.0
  0
VERTEX
  8
0
 10
15.6683202
 20
26.010362
 42
0.0
  0
VERTEX
  8
0
 10
15.782671
 20
26.162
 42
0.0
  0
VERTEX
  8
0
 10
16.4193474
 20
27.187398
 42
0.0
  0
VERTEX
  8
0
 10
16.9856912
 20
28.29941
 42
0.0
  0
VERTEX
  8
0
 10
17.2420026
 20
28.920948
 42
0.0
  0
VERTEX
  8
0
 10
17.4018448
 20
29.309568
 42
0.0
  0
VERTEX
  8
0
 10
17.4749206
 20
29.487368
 42
0.0
  0
VERTEX
  8
0
 10
17.8814222
 20
30.738572
 42
0.0
  0
VERTEX
  8
0
 10
18.2011574
 20
32.0421
 42
0.0
  0
VERTEX
  8
0
 10
18.4326276
 20
33.38576
 42
0.0
  0
VERTEX
  8
0
 10
18.5718196
 20
34.754058
 42
0.0
  0
VERTEX
  8
0
 10
18.6186572
 20
36.13785
 42
0.0
  0
VERTEX
  8
0
 10
18.5718196
 20
37.51961
 42
0.0
  0
VERTEX
  8
0
 10
18.4326276
 20
38.889432
 42
0.0
  0
VERTEX
  8
0
 10
18.2011574
 20
40.231822
 42
0.0
  0
VERTEX
  8
0
 10
17.8814222
 20
41.536874
 42
0.0
  0
VERTEX
  8
0
 10
17.6595532
 20
42.217594
 42
0.0
  0
VERTEX
  8
0
 10
17.4749206
 20
42.788078
 42
0.0
  0
VERTEX
  8
0
 10
16.9856912
 20
43.975782
 42
0.0
  0
VERTEX
  8
0
 10
16.4193474
 20
45.088048
 42
0.0
  0
VERTEX
  8
0
 10
16.2842956
 20
45.305726
 42
0.0
  0
VERTEX
  8
0
 10
15.782671
 20
46.113446
 42
0.0
  0
VERTEX
  8
0
 10
15.6683202
 20
46.26356
 42
0.0
  0
VERTEX
  8
0
 10
15.21079
 20
46.868334
 42
0.0
  0
VERTEX
  8
0
 10
15.0785068
 20
47.043594
 42
0.0
  0
VERTEX
  8
0
 10
15.0674578
 20
47.054516
 42
0.0
  0
VERTEX
  8
0
 10
14.8194268
 20
47.321978
 42
0.0
  0
VERTEX
  8
0
 10
14.8001228
 20
47.353474
 42
0.0
  0
VERTEX
  8
0
 10
14.7904962
 20
47.36846
 42
0.0
  0
VERTEX
  8
0
 10
14.5396712
 20
47.649638
 42
0.0
  0
VERTEX
  8
0
 10
14.3302228
 20
47.85106
 42
0.0
  0
VERTEX
  8
0
 10
14.295755
 20
47.88535
 42
0.0
  0
VERTEX
  8
0
 10
13.8672062
 20
48.296068
 42
0.0
  0
VERTEX
  8
0
 10
13.6205468
 20
48.53305
 42
0.0
  0
VERTEX
  8
0
 10
13.5102854
 20
48.639222
 42
0.0
  0
VERTEX
  8
0
 10
13.3504432
 20
48.770032
 42
0.0
  0
VERTEX
  8
0
 10
13.2663946
 20
48.848772
 42
0.0
  0
VERTEX
  8
0
 10
13.1368546
 20
48.972724
 42
0.0
  0
VERTEX
  8
0
 10
13.0458972
 20
49.058322
 42
0.0
  0
VERTEX
  8
0
 10
13.0059176
 20
49.0982
 42
0.0
  0
VERTEX
  8
0
 10
12.9094738
 20
49.19726
 42
0.0
  0
VERTEX
  8
0
 10
12.8157478
 20
49.29124
 42
0.0
  0
VERTEX
  8
0
 10
11.0229396
 20
51.105816
 42
0.0
  0
VERTEX
  8
0
 10
9.1419172
 20
53.146706
 42
0.0
  0
VERTEX
  8
0
 10
8.5893402
 20
53.791612
 42
0.0
  0
VERTEX
  8
0
 10
7.4207624
 20
55.15991
 42
0.0
  0
VERTEX
  8
0
 10
5.8759598
 20
57.129172
 42
0.0
  0
VERTEX
  8
0
 10
4.5213524
 20
59.035188
 42
0.0
  0
VERTEX
  8
0
 10
3.3720532
 20
60.856876
 42
0.0
  0
VERTEX
  8
0
 10
2.9214318
 20
61.689234
 42
0.0
  0
VERTEX
  8
0
 10
2.6899362
 20
62.114938
 42
0.0
  0
VERTEX
  8
0
 10
2.43774976
 20
62.581028
 42
0.0
  0
VERTEX
  8
0
 10
1.72806106
 20
64.184784
 42
0.0
  0
VERTEX
  8
0
 10
1.24850144
 20
65.659254
 42
0.0
  0
VERTEX
  8
0
 10
1.00459032
 20
66.986404
 42
0.0
  0
VERTEX
  8
0
 10
1.00045774
 20
68.154804
 42
0.0
  0
VERTEX
  8
0
 10
1.23334272
 20
69.152516
 42
0.0
  0
VERTEX
  8
0
 10
1.70187874
 20
69.969888
 42
0.0
  0
VERTEX
  8
0
 10
2.40191798
 20
70.599554
 42
0.0
  0
VERTEX
  8
0
 10
3.3265872
 20
71.03491
 42
0.0
  0
VERTEX
  8
0
 10
4.4662344
 20
71.272146
 42
0.0
  0
VERTEX
  8
0
 10
5.3839872
 20
71.298054
 42
0.0
  0
VERTEX
  8
0
 10
5.640324
 20
71.305166
 42
0.0
  0
VERTEX
  8
0
 10
5.8112152
 20
71.309484
 42
0.0
  0
VERTEX
  8
0
 10
7.3476866
 20
71.146924
 42
0.0
  0
VERTEX
  8
0
 10
7.475855
 20
71.119238
 42
0.0
  0
VERTEX
  8
0
 10
9.0344244
 20
70.7898
 42
0.0
  0
VERTEX
  8
0
 10
9.0619834
 20
70.783196
 42
0.0
  0
VERTEX
  8
0
 10
10.9361224
 20
70.224904
 42
0.0
  0
VERTEX
  8
0
 10
11.860784
 20
69.88175
 42
0.0
  0
VERTEX
  8
0
 10
12.5677168
 20
69.619876
 42
0.0
  0
VERTEX
  8
0
 10
15.6683202
 20
67.237356
 42
0.0
  0
VERTEX
  8
0
 10
22.335236
 20
62.114938
 42
0.0
  0
VERTEX
  8
0
 10
22.8905816
 20
61.689234
 42
0.0
  0
VERTEX
  8
0
 10
24.6310404
 20
60.352432
 42
0.0
  0
VERTEX
  8
0
 10
26.101548
 20
59.22264
 42
0.0
  0
VERTEX
  8
0
 10
27.42565
 20
58.205624
 42
0.0
  0
VERTEX
  8
0
 10
31.416498
 20
55.13959
 42
0.0
  0
VERTEX
  8
0
 10
31.68523
 20
54.934104
 42
0.0
  0
VERTEX
  8
0
 10
32.051752
 20
54.651656
 42
0.0
  0
VERTEX
  8
0
 10
33.553908
 20
53.496972
 42
0.0
  0
VERTEX
  8
0
 10
35.429444
 20
52.057046
 42
0.0
  0
VERTEX
  8
0
 10
35.990276
 20
51.689
 42
0.0
  0
VERTEX
  8
0
 10
36.009326
 20
51.680618
 42
0.0
  0
VERTEX
  8
0
 10
36.147248
 20
51.614578
 42
0.0
  0
VERTEX
  8
0
 10
36.618672
 20
51.392582
 42
0.0
  0
VERTEX
  8
0
 10
37.300662
 20
51.176174
 42
0.0
  0
VERTEX
  8
0
 10
38.018974
 20
51.04384
 42
0.0
  0
VERTEX
  8
0
 10
38.69944
 20
51.002438
 42
0.0
  0
VERTEX
  8
0
 10
38.754304
 20
50.999644
 42
0.0
  0
VERTEX
  8
0
 10
38.76421
 20
50.999644
 42
0.0
  0
VERTEX
  8
0
 10
38.76421
 20
51.00955
 42
0.0
  0
VERTEX
  8
0
 10
38.777926
 20
51.008026
 42
0.0
  0
VERTEX
  8
0
 10
38.831774
 20
51.012344
 42
0.0
  0
VERTEX
  8
0
 10
39.188644
 20
51.032918
 42
0.0
  0
VERTEX
  8
0
 10
39.514018
 20
51.052222
 42
0.0
  0
VERTEX
  8
0
 10
40.230552
 20
51.185826
 42
0.0
  0
VERTEX
  8
0
 10
40.244268
 20
51.18989
 42
0.0
  0
VERTEX
  8
0
 10
40.912796
 20
51.402234
 42
0.0
  0
VERTEX
  8
0
 10
41.010332
 20
51.4477
 42
0.0
  0
VERTEX
  8
0
 10
41.542462
 20
51.698398
 42
0.0
  0
VERTEX
  8
0
 10
42.104818
 20
52.066444
 42
0.0
  0
VERTEX
  8
0
 10
43.966384
 20
53.496972
 42
0.0
  0
VERTEX
  8
0
 10
45.847254
 20
54.942232
 42
0.0
  0
VERTEX
  8
0
 10
46.11624
 20
55.148988
 42
0.0
  0
VERTEX
  8
0
 10
46.453806
 20
55.408322
 42
0.0
  0
VERTEX
  8
0
 10
47.095918
 20
55.90159
 42
0.0
  0
VERTEX
  8
0
 10
47.751746
 20
56.40451
 42
0.0
  0
VERTEX
  8
0
 10
48.43526
 20
56.929528
 42
0.0
  0
VERTEX
  8
0
 10
48.436784
 20
56.930798
 42
0.0
  0
VERTEX
  8
0
 10
52.901596
 20
60.361068
 42
0.0
  0
VERTEX
  8
0
 10
54.630828
 20
61.689234
 42
0.0
  0
VERTEX
  8
0
 10
55.197248
 20
62.124844
 42
0.0
  0
VERTEX
  8
0
 10
64.820038
 20
69.516498
 42
0.0
  0
VERTEX
  8
0
 10
64.966088
 20
69.628004
 42
0.0
  0
VERTEX
  8
0
 10
65.647062
 20
69.88175
 42
0.0
  0
VERTEX
  8
0
 10
66.59626
 20
70.234556
 42
0.0
  0
VERTEX
  8
0
 10
68.470526
 20
70.792594
 42
0.0
  0
VERTEX
  8
0
 10
68.498212
 20
70.798182
 42
0.0
  0
VERTEX
  8
0
 10
70.183502
 20
71.155052
 42
0.0
  0
VERTEX
  8
0
 10
71.721472
 20
71.318882
 42
0.0
  0
VERTEX
  8
0
 10
71.893684
 20
71.314818
 42
0.0
  0
VERTEX
  8
0
 10
72.075802
 20
71.309484
 42
0.0
  0
SEQEND
  0
POLYLINE
  8
0
 66
     1
 10
0.0
 20
0.0
 30
0.0
 70
     1
  0
VERTEX
  8
0
 10
38.768528
 20
46.044612
 42
0.0
  0
VERTEX
  8
0
 10
38.226746
 20
46.031912
 42
0.0
  0
VERTEX
  8
0
 10
37.24021
 20
45.90796
 42
0.0
  0
VERTEX
  8
0
 10
36.2712
 20
45.686218
 42
0.0
  0
VERTEX
  8
0
 10
36.009326
 20
45.597826
 42
0.0
  0
VERTEX
  8
0
 10
35.32759
 20
45.367956
 42
0.0
  0
VERTEX
  8
0
 10
35.188144
 20
45.305726
 42
0.0
  0
VERTEX
  8
0
 10
34.42208
 20
44.958254
 42
0.0
  0
VERTEX
  8
0
 10
33.779968
 20
44.586652
 42
0.0
  0
VERTEX
  8
0
 10
33.560766
 20
44.459652
 42
0.0
  0
VERTEX
  8
0
 10
33.265872
 20
44.246038
 42
0.0
  0
VERTEX
  8
0
 10
36.009326
 20
41.494202
 42
0.0
  0
VERTEX
  8
0
 10
38.761416
 20
38.733984
 42
0.0
  0
VERTEX
  8
0
 10
38.76421
 20
38.73119
 42
0.0
  0
VERTEX
  8
0
 10
38.76421
 20
38.736778
 42
0.0
  0
VERTEX
  8
0
 10
41.010332
 20
40.988488
 42
0.0
  0
VERTEX
  8
0
 10
44.266612
 20
44.25569
 42
0.0
  0
VERTEX
  8
0
 10
43.971972
 20
44.468034
 42
0.0
  0
VERTEX
  8
0
 10
43.767756
 20
44.586652
 42
0.0
  0
VERTEX
  8
0
 10
43.110404
 20
44.96816
 42
0.0
  0
VERTEX
  8
0
 10
42.363644
 20
45.305726
 42
0.0
  0
VERTEX
  8
0
 10
42.203878
 20
45.377354
 42
0.0
  0
VERTEX
  8
0
 10
41.262554
 20
45.695616
 42
0.0
  0
VERTEX
  8
0
 10
41.010332
 20
45.753528
 42
0.0
  0
VERTEX
  8
0
 10
40.292528
 20
45.917612
 42
0.0
  0
VERTEX
  8
0
 10
39.305738
 20
46.041818
 42
0.0
  0
VERTEX
  8
0
 10
38.958774
 20
46.049946
 42
0.0
  0
VERTEX
  8
0
 10
38.768528
 20
46.05401
 42
0.0
  0
SEQEND
  0
POLYLINE
  8
0
 66
     1
 10
0.0
 20
0.0
 30
0.0
 70
     1
  0
VERTEX
  8
0
 10
40.490902
 20
21.881846
 42
0.0
  0
VERTEX
  8
0
 10
41.010332
 20
22.4027746
 42
0.0
  0
VERTEX
  8
0
 10
41.162224
 20
22.5557334
 42
0.0
  0
VERTEX
  8
0
 10
41.811194
 20
23.2047796
 42
0.0
  0
VERTEX
  8
0
 10
35.805618
 20
23.2047796
 42
0.0
  0
VERTEX
  8
0
 10
36.009326
 20
23.0008176
 42
0.0
  0
VERTEX
  8
0
 10
37.126926
 20
21.881846
 42
0.0
  0
VERTEX
  8
0
 10
37.033454
 20
21.881846
 42
0.0
  0
VERTEX
  8
0
 10
38.786054
 20
20.1262488
 42
0.0
  0
VERTEX
  8
0
 10
40.539162
 20
21.881846
 42
0.0
  0
SEQEND
  0
POLYLINE
  8
0
 66
     1
 10
0.0
 20
0.0
 30
0.0
 70
     1
  0
VERTEX
  8
0
 10
44.270676
 20
27.87904
 42
0.0
  0
VERTEX
  8
0
 10
43.231816
 20
28.920948
 42
0.0
  0
VERTEX
  8
0
 10
41.010332
 20
31.15056
 42
0.0
  0
VERTEX
  8
0
 10
38.771068
 20
33.395412
 42
0.0
  0
VERTEX
  8
0
 10
38.768528
 20
33.398206
 42
0.0
  0
VERTEX
  8
0
 10
38.768528
 20
33.394142
 42
0.0
  0
VERTEX
  8
0
 10
36.009326
 20
30.626812
 42
0.0
  0
VERTEX
  8
0
 10
34.30905
 20
28.920948
 42
0.0
  0
VERTEX
  8
0
 10
33.261808
 20
27.870912
 42
0.0
  0
VERTEX
  8
0
 10
33.560766
 20
27.655774
 42
0.0
  0
VERTEX
  8
0
 10
34.42208
 20
27.156918
 42
0.0
  0
VERTEX
  8
0
 10
35.32759
 20
26.746454
 42
0.0
  0
VERTEX
  8
0
 10
36.009326
 20
26.51633
 42
0.0
  0
VERTEX
  8
0
 10
36.2712
 20
26.427938
 42
0.0
  0
VERTEX
  8
0
 10
37.24021
 20
26.206196
 42
0.0
  0
VERTEX
  8
0
 10
38.226746
 20
26.082244
 42
0.0
  0
VERTEX
  8
0
 10
38.574218
 20
26.073862
 42
0.0
  0
VERTEX
  8
0
 10
38.76421
 20
26.069798
 42
0.0
  0
VERTEX
  8
0
 10
38.76421
 20
26.07945
 42
0.0
  0
VERTEX
  8
0
 10
39.305738
 20
26.091642
 42
0.0
  0
VERTEX
  8
0
 10
40.292528
 20
26.215848
 42
0.0
  0
VERTEX
  8
0
 10
41.010332
 20
26.379678
 42
0.0
  0
VERTEX
  8
0
 10
41.262554
 20
26.43759
 42
0.0
  0
VERTEX
  8
0
 10
42.203878
 20
26.756106
 42
0.0
  0
VERTEX
  8
0
 10
43.110404
 20
27.1653
 42
0.0
  0
VERTEX
  8
0
 10
43.971972
 20
27.664156
 42
0.0
  0
SEQEND
  0
POLYLINE
  8
0
 66
     1
 10
0.0
 20
0.0
 30
0.0
 70
     1
  0
VERTEX
  8
0
 10
68.718684
 20
63.348362
 42
0.0
  0
VERTEX
  8
0
 10
68.915788
 20
63.149988
 42
0.0
  0
VERTEX
  8
0
 10
68.968112
 20
63.098934
 42
0.0
  0
VERTEX
  8
0
 10
69.082412
 20
63.041022
 42
0.0
  0
VERTEX
  8
0
 10
69.513704
 20
62.82055
 42
0.0
  0
VERTEX
  8
0
 10
70.117462
 20
62.724284
 42
0.0
  0
VERTEX
  8
0
 10
70.72376
 20
62.82055
 42
0.0
  0
VERTEX
  8
0
 10
71.155052
 20
63.041022
 42
0.0
  0
VERTEX
  8
0
 10
71.269098
 20
63.098934
 42
0.0
  0
VERTEX
  8
0
 10
71.702168
 20
63.53175
 42
0.0
  0
VERTEX
  8
0
 10
71.766938
 20
63.659766
 42
0.0
  0
VERTEX
  8
0
 10
71.893684
 20
63.9064
 42
0.0
  0
VERTEX
  8
0
 10
71.980552
 20
64.076072
 42
0.0
  0
VERTEX
  8
0
 10
72.075802
 20
64.6811
 42
0.0
  0
VERTEX
  8
0
 10
71.980552
 20
65.286128
 42
0.0
  0
VERTEX
  8
0
 10
71.893684
 20
65.456816
 42
0.0
  0
VERTEX
  8
0
 10
71.7296
 20
65.777872
 42
0.0
  0
VERTEX
  8
0
 10
71.725282
 20
65.784984
 42
0.0
  0
VERTEX
  8
0
 10
71.702168
 20
65.83299
 42
0.0
  0
VERTEX
  8
0
 10
71.269098
 20
66.265806
 42
0.0
  0
VERTEX
  8
0
 10
70.917816
 20
66.444876
 42
0.0
  0
VERTEX
  8
0
 10
70.72376
 20
66.54419
 42
0.0
  0
VERTEX
  8
0
 10
70.117462
 20
66.638932
 42
0.0
  0
VERTEX
  8
0
 10
69.513704
 20
66.54419
 42
0.0
  0
VERTEX
  8
0
 10
69.319394
 20
66.444876
 42
0.0
  0
VERTEX
  8
0
 10
68.968112
 20
66.265806
 42
0.0
  0
VERTEX
  8
0
 10
68.535296
 20
65.83299
 42
0.0
  0
VERTEX
  8
0
 10
68.510404
 20
65.784984
 42
0.0
  0
VERTEX
  8
0
 10
68.498212
 20
65.759838
 42
0.0
  0
VERTEX
  8
0
 10
68.256912
 20
65.286128
 42
0.0
  0
VERTEX
  8
0
 10
68.160646
 20
64.6811
 42
0.0
  0
VERTEX
  8
0
 10
68.256912
 20
64.076072
 42
0.0
  0
VERTEX
  8
0
 10
68.498212
 20
63.603378
 42
0.0
  0
VERTEX
  8
0
 10
68.535296
 20
63.53175
 42
0.0
  0
SEQEND
  0
POLYLINE
  8
0
 66
     1
 10
0.0
 20
0.0
 30
0.0
 70
     1
  0
VERTEX
  8
0
 10
52.901596
 20
48.309784
 42
0.0
  0
VERTEX
  8
0
 10
53.798724
 20
48.168052
 42
0.0
  0
VERTEX
  8
0
 10
54.723284
 20
48.314102
 42
0.0
  0
VERTEX
  8
0
 10
55.556912
 20
48.739806
 42
0.0
  0
VERTEX
  8
0
 10
56.219852
 20
49.404016
 42
0.0
  0
VERTEX
  8
0
 10
56.627776
 20
50.207418
 42
0.0
  0
VERTEX
  8
0
 10
56.645556
 20
50.241962
 42
0.0
  0
VERTEX
  8
0
 10
56.791606
 20
51.169316
 42
0.0
  0
VERTEX
  8
0
 10
56.645556
 20
52.098194
 42
0.0
  0
VERTEX
  8
0
 10
56.627776
 20
52.13096
 42
0.0
  0
VERTEX
  8
0
 10
56.219852
 20
52.934616
 42
0.0
  0
VERTEX
  8
0
 10
55.65775
 20
53.496972
 42
0.0
  0
VERTEX
  8
0
 10
55.556912
 20
53.598826
 42
0.0
  0
VERTEX
  8
0
 10
54.723284
 20
54.026054
 42
0.0
  0
VERTEX
  8
0
 10
53.798724
 20
54.172104
 42
0.0
  0
VERTEX
  8
0
 10
52.901596
 20
54.030118
 42
0.0
  0
VERTEX
  8
0
 10
52.87264
 20
54.026054
 42
0.0
  0
VERTEX
  8
0
 10
52.037488
 20
53.598826
 42
0.0
  0
VERTEX
  8
0
 10
51.936904
 20
53.496972
 42
0.0
  0
VERTEX
  8
0
 10
51.376072
 20
52.934616
 42
0.0
  0
VERTEX
  8
0
 10
50.950368
 20
52.098194
 42
0.0
  0
VERTEX
  8
0
 10
50.804318
 20
51.169316
 42
0.0
  0
VERTEX
  8
0
 10
50.950368
 20
50.241962
 42
0.0
  0
VERTEX
  8
0
 10
51.376072
 20
49.404016
 42
0.0
  0
VERTEX
  8
0
 10
52.037488
 20
48.739806
 42
0.0
  0
VERTEX
  8
0
 10
52.87264
 20
48.314102
 42
0.0
  0
SEQEND
  0
POLYLINE
  8
0
 66
     1
 10
0.0
 20
0.0
 30
0.0
 70
     1
  0
VERTEX
  8
0
 10
49.999138
 20
44.59605
 42
0.0
  0
VERTEX
  8
0
 10
50.21961
 20
44.815252
 42
0.0
  0
VERTEX
  8
0
 10
50.354738
 20
44.950126
 42
0.0
  0
VERTEX
  8
0
 10
50.535332
 20
45.305726
 42
0.0
  0
VERTEX
  8
0
 10
50.633122
 20
45.495972
 42
0.0
  0
VERTEX
  8
0
 10
50.728372
 20
46.101
 42
0.0
  0
VERTEX
  8
0
 10
50.633122
 20
46.706028
 42
0.0
  0
VERTEX
  8
0
 10
50.354738
 20
47.251366
 42
0.0
  0
VERTEX
  8
0
 10
49.922176
 20
47.684182
 42
0.0
  0
VERTEX
  8
0
 10
49.376584
 20
47.96409
 42
0.0
  0
VERTEX
  8
0
 10
48.771556
 20
48.058832
 42
0.0
  0
VERTEX
  8
0
 10
48.166528
 20
47.96409
 42
0.0
  0
VERTEX
  8
0
 10
47.620682
 20
47.684182
 42
0.0
  0
VERTEX
  8
0
 10
47.188374
 20
47.251366
 42
0.0
  0
VERTEX
  8
0
 10
46.90999
 20
46.706028
 42
0.0
  0
VERTEX
  8
0
 10
46.813216
 20
46.101
 42
0.0
  0
VERTEX
  8
0
 10
46.90999
 20
45.495972
 42
0.0
  0
VERTEX
  8
0
 10
47.007526
 20
45.305726
 42
0.0
  0
VERTEX
  8
0
 10
47.188374
 20
44.950126
 42
0.0
  0
VERTEX
  8
0
 10
47.620682
 20
44.51731
 42
0.0
  0
VERTEX
  8
0
 10
48.166528
 20
44.238926
 42
0.0
  0
VERTEX
  8
0
 10
48.771556
 20
44.144184
 42
0.0
  0
VERTEX
  8
0
 10
49.376584
 20
44.238926
 42
0.0
  0
VERTEX
  8
0
 10
49.922176
 20
44.51731
 42
0.0
  0
SEQEND
  0
POLYLINE
  8
0
 66
     1
 10
0.0
 20
0.0
 30
0.0
 70
     1
  0
VERTEX
  8
0
 10
53.837078
 20
37.518594
 42
0.0
  0
VERTEX
  8
0
 10
58.135266
 20
37.518594
 42
0.0
  0
VERTEX
  8
0
 10
58.135266
 20
39.02329
 42
0.0
  0
VERTEX
  8
0
 10
53.379878
 20
39.02329
 42
0.0
  0
VERTEX
  8
0
 10
53.379878
 20
37.518594
 42
0.0
  0
SEQEND
  0
POLYLINE
  8
0
 66
     1
 10
0.0
 20
0.0
 30
0.0
 70
     1
  0
VERTEX
  8
0
 10
48.3362
 20
34.084514
 42
0.0
  0
VERTEX
  8
0
 10
48.436784
 20
34.74593
 42
0.0
  0
VERTEX
  8
0
 10
48.485044
 20
35.07105
 42
0.0
  0
VERTEX
  8
0
 10
48.534574
 20
36.065968
 42
0.0
  0
VERTEX
  8
0
 10
48.485044
 20
37.06241
 42
0.0
  0
VERTEX
  8
0
 10
48.436784
 20
37.38626
 42
0.0
  0
VERTEX
  8
0
 10
48.3362
 20
38.048946
 42
0.0
  0
VERTEX
  8
0
 10
48.090582
 20
39.015162
 42
0.0
  0
VERTEX
  8
0
 10
47.750222
 20
39.952168
 42
0.0
  0
VERTEX
  8
0
 10
47.320454
 20
40.850566
 42
0.0
  0
VERTEX
  8
0
 10
47.223934
 20
41.007538
 42
0.0
  0
VERTEX
  8
0
 10
47.214282
 20
41.024302
 42
0.0
  0
VERTEX
  8
0
 10
46.801024
 20
41.700704
 42
0.0
  0
VERTEX
  8
0
 10
46.738794
 20
41.783254
 42
0.0
  0
VERTEX
  8
0
 10
45.847254
 20
40.890444
 42
0.0
  0
VERTEX
  8
0
 10
41.040812
 20
36.068762
 42
0.0
  0
VERTEX
  8
0
 10
41.237916
 20
35.870388
 42
0.0
  0
VERTEX
  8
0
 10
45.847254
 20
31.24835
 42
0.0
  0
VERTEX
  8
0
 10
46.741588
 20
30.352746
 42
0.0
  0
VERTEX
  8
0
 10
46.801024
 20
30.431232
 42
0.0
  0
VERTEX
  8
0
 10
47.214282
 20
31.109158
 42
0.0
  0
VERTEX
  8
0
 10
47.223934
 20
31.124398
 42
0.0
  0
VERTEX
  8
0
 10
47.320454
 20
31.282894
 42
0.0
  0
VERTEX
  8
0
 10
47.750222
 20
32.181292
 42
0.0
  0
VERTEX
  8
0
 10
48.090582
 20
33.118298
 42
0.0
  0
SEQEND
  0
POLYLINE
  8
0
 66
     1
 10
0.0
 20
0.0
 30
0.0
 70
     1
  0
VERTEX
  8
0
 10
50.950368
 20
22.1395544
 42
0.0
  0
VERTEX
  8
0
 10
50.804318
 20
21.2107526
 42
0.0
  0
VERTEX
  8
0
 10
50.873152
 20
20.7766666
 42
0.0
  0
VERTEX
  8
0
 10
50.88001
 20
20.729829
 42
0.0
  0
VERTEX
  8
0
 10
50.950368
 20
20.2833478
 42
0.0
  0
VERTEX
  8
0
 10
51.376072
 20
19.446875
 42
0.0
  0
VERTEX
  8
0
 10
52.037488
 20
18.782665
 42
0.0
  0
VERTEX
  8
0
 10
52.87264
 20
18.3568594
 42
0.0
  0
VERTEX
  8
0
 10
52.901596
 20
18.3513222
 42
0.0
  0
VERTEX
  8
0
 10
53.798724
 20
18.2094124
 42
0.0
  0
VERTEX
  8
0
 10
54.723284
 20
18.3568594
 42
0.0
  0
VERTEX
  8
0
 10
55.556912
 20
18.782665
 42
0.0
  0
VERTEX
  8
0
 10
56.219852
 20
19.446875
 42
0.0
  0
VERTEX
  8
0
 10
56.645556
 20
20.2833478
 42
0.0
  0
VERTEX
  8
0
 10
56.716168
 20
20.729829
 42
0.0
  0
VERTEX
  8
0
 10
56.791606
 20
21.2107526
 42
0.0
  0
VERTEX
  8
0
 10
56.645556
 20
22.1395544
 42
0.0
  0
VERTEX
  8
0
 10
56.219852
 20
22.9760272
 42
0.0
  0
VERTEX
  8
0
 10
55.556912
 20
23.6402372
 42
0.0
  0
VERTEX
  8
0
 10
54.723284
 20
24.0674652
 42
0.0
  0
VERTEX
  8
0
 10
53.798724
 20
24.2148868
 42
0.0
  0
VERTEX
  8
0
 10
53.626512
 20
24.1873278
 42
0.0
  0
VERTEX
  8
0
 10
52.901596
 20
24.07158
 42
0.0
  0
VERTEX
  8
0
 10
52.87264
 20
24.0674652
 42
0.0
  0
VERTEX
  8
0
 10
52.037488
 20
23.6402372
 42
0.0
  0
VERTEX
  8
0
 10
51.376072
 20
22.9760272
 42
0.0
  0
SEQEND
  0
POLYLINE
  8
0
 66
     1
 10
0.0
 20
0.0
 30
0.0
 70
     1
  0
VERTEX
  8
0
 10
50.038
 20
24.755094
 42
0.0
  0
VERTEX
  8
0
 10
50.108104
 20
24.8253504
 42
0.0
  0
VERTEX
  8
0
 10
50.208688
 20
24.9273568
 42
0.0
  0
VERTEX
  8
0
 10
50.356262
 20
25.0747784
 42
0.0
  0
VERTEX
  8
0
 10
50.634646
 20
25.619202
 42
0.0
  0
VERTEX
  8
0
 10
50.729896
 20
26.223976
 42
0.0
  0
VERTEX
  8
0
 10
50.634646
 20
26.829004
 42
0.0
  0
VERTEX
  8
0
 10
50.356262
 20
27.37612
 42
0.0
  0
VERTEX
  8
0
 10
50.208688
 20
27.52217
 42
0.0
  0
VERTEX
  8
0
 10
49.972976
 20
27.757882
 42
0.0
  0
VERTEX
  8
0
 10
49.9237
 20
27.808682
 42
0.0
  0
VERTEX
  8
0
 10
49.376584
 20
28.085796
 42
0.0
  0
VERTEX
  8
0
 10
48.771556
 20
28.182316
 42
0.0
  0
VERTEX
  8
0
 10
48.436784
 20
28.128468
 42
0.0
  0
VERTEX
  8
0
 10
48.166528
 20
28.085796
 42
0.0
  0
VERTEX
  8
0
 10
47.622206
 20
27.808682
 42
0.0
  0
VERTEX
  8
0
 10
47.357538
 20
27.544268
 42
0.0
  0
VERTEX
  8
0
 10
47.223934
 20
27.411934
 42
0.0
  0
VERTEX
  8
0
 10
47.214282
 20
27.401012
 42
0.0
  0
VERTEX
  8
0
 10
47.188374
 20
27.37612
 42
0.0
  0
VERTEX
  8
0
 10
46.90999
 20
26.829004
 42
0.0
  0
VERTEX
  8
0
 10
46.81474
 20
26.223976
 42
0.0
  0
VERTEX
  8
0
 10
46.90999
 20
25.619202
 42
0.0
  0
VERTEX
  8
0
 10
47.188374
 20
25.0747784
 42
0.0
  0
VERTEX
  8
0
 10
47.437548
 20
24.8253504
 42
0.0
  0
VERTEX
  8
0
 10
47.506382
 20
24.755094
 42
0.0
  0
VERTEX
  8
0
 10
47.622206
 20
24.6407178
 42
0.0
  0
VERTEX
  8
0
 10
48.166528
 20
24.3623338
 42
0.0
  0
VERTEX
  8
0
 10
48.436784
 20
24.319611
 42
0.0
  0
VERTEX
  8
0
 10
48.771556
 20
24.2672616
 42
0.0
  0
VERTEX
  8
0
 10
49.376584
 20
24.3623338
 42
0.0
  0
VERTEX
  8
0
 10
49.9237
 20
24.6407178
 42
0.0
  0
SEQEND
  0
POLYLINE
  8
0
 66
     1
 10
0.0
 20
0.0
 30
0.0
 70
     1
  0
VERTEX
  8
0
 10
71.837296
 20
6.6214752
 42
0.0
  0
VERTEX
  8
0
 10
71.86041
 20
6.6697098
 42
0.0
  0
VERTEX
  8
0
 10
72.057768
 20
7.0569328
 42
0.0
  0
VERTEX
  8
0
 10
72.154034
 20
7.66191
 42
0.0
  0
VERTEX
  8
0
 10
72.057768
 20
8.2668618
 42
0.0
  0
VERTEX
  8
0
 10
71.969376
 20
8.4418678
 42
0.0
  0
VERTEX
  8
0
 10
71.86041
 20
8.6526878
 42
0.0
  0
VERTEX
  8
0
 10
71.780654
 20
8.8125554
 42
0.0
  0
VERTEX
  8
0
 10
71.346568
 20
9.2452444
 42
0.0
  0
VERTEX
  8
0
 10
71.198994
 20
9.3210634
 42
0.0
  0
VERTEX
  8
0
 10
71.127366
 20
9.3568774
 42
0.0
  0
VERTEX
  8
0
 10
70.800722
 20
9.5236284
 42
0.0
  0
VERTEX
  8
0
 10
70.195694
 20
9.6187006
 42
0.0
  0
VERTEX
  8
0
 10
69.591174
 20
9.5236284
 42
0.0
  0
VERTEX
  8
0
 10
69.2658
 20
9.3568774
 42
0.0
  0
VERTEX
  8
0
 10
69.046852
 20
9.2452444
 42
0.0
  0
VERTEX
  8
0
 10
68.969382
 20
9.1681046
 42
0.0
  0
VERTEX
  8
0
 10
68.612512
 20
8.8125554
 42
0.0
  0
VERTEX
  8
0
 10
68.56984
 20
8.7271352
 42
0.0
  0
VERTEX
  8
0
 10
68.466462
 20
8.5231732
 42
0.0
  0
VERTEX
  8
0
 10
68.42379
 20
8.4418678
 42
0.0
  0
VERTEX
  8
0
 10
68.335652
 20
8.2668618
 42
0.0
  0
VERTEX
  8
0
 10
68.239132
 20
7.66191
 42
0.0
  0
VERTEX
  8
0
 10
68.335652
 20
7.0569328
 42
0.0
  0
VERTEX
  8
0
 10
68.466462
 20
6.7992244
 42
0.0
  0
VERTEX
  8
0
 10
68.612512
 20
6.5098422
 42
0.0
  0
VERTEX
  8
0
 10
68.65239
 20
6.471285
 42
0.0
  0
VERTEX
  8
0
 10
69.046852
 20
6.0771532
 42
0.0
  0
VERTEX
  8
0
 10
69.094604
 20
6.0523628
 42
0.0
  0
VERTEX
  8
0
 10
69.290438
 20
5.953125
 42
0.0
  0
VERTEX
  8
0
 10
69.591174
 20
5.7987946
 42
0.0
  0
VERTEX
  8
0
 10
70.195694
 20
5.7037224
 42
0.0
  0
VERTEX
  8
0
 10
70.800722
 20
5.7987946
 42
0.0
  0
VERTEX
  8
0
 10
71.101204
 20
5.953125
 42
0.0
  0
VERTEX
  8
0
 10
71.346568
 20
6.0771532
 42
0.0
  0
VERTEX
  8
0
 10
71.42099
 20
6.1515752
 42
0.0
  0
VERTEX
  8
0
 10
71.780654
 20
6.5098422
 42
0.0
  0
SEQEND
  0
POLYLINE
  8
0
 66
     1
 10
0.0
 20
0.0
 30
0.0
 70
     1
  0
VERTEX
  8
0
 10
20.7408526
 20
39.02329
 42
0.0
  0
VERTEX
  8
0
 10
19.3793618
 20
39.02329
 42
0.0
  0
VERTEX
  8
0
 10
19.3793618
 20
37.518594
 42
0.0
  0
VERTEX
  8
0
 10
24.1349784
 20
37.518594
 42
0.0
  0
VERTEX
  8
0
 10
24.1349784
 20
39.02329
 42
0.0
  0
SEQEND
  0
POLYLINE
  8
0
 66
     1
 10
0.0
 20
0.0
 30
0.0
 70
     1
  0
VERTEX
  8
0
 10
8.841486
 20
63.502794
 42
0.0
  0
VERTEX
  8
0
 10
8.92556
 20
63.588138
 42
0.0
  0
VERTEX
  8
0
 10
9.0344244
 20
63.803022
 42
0.0
  0
VERTEX
  8
0
 10
9.2038932
 20
64.133984
 42
0.0
  0
VERTEX
  8
0
 10
9.2990162
 20
64.739012
 42
0.0
  0
VERTEX
  8
0
 10
9.2038932
 20
65.34404
 42
0.0
  0
VERTEX
  8
0
 10
9.0344244
 20
65.676018
 42
0.0
  0
VERTEX
  8
0
 10
8.979281
 20
65.784984
 42
0.0
  0
VERTEX
  8
0
 10
8.92556
 20
65.889378
 42
0.0
  0
VERTEX
  8
0
 10
8.4928456
 20
66.322194
 42
0.0
  0
VERTEX
  8
0
 10
8.2709766
 20
66.435224
 42
0.0
  0
VERTEX
  8
0
 10
7.9471266
 20
66.600578
 42
0.0
  0
VERTEX
  8
0
 10
7.475855
 20
66.675
 42
0.0
  0
VERTEX
  8
0
 10
7.3422002
 20
66.697352
 42
0.0
  0
VERTEX
  8
0
 10
6.7372484
 20
66.600578
 42
0.0
  0
VERTEX
  8
0
 10
6.4133984
 20
66.435224
 42
0.0
  0
VERTEX
  8
0
 10
6.1915294
 20
66.322194
 42
0.0
  0
VERTEX
  8
0
 10
5.7574434
 20
65.889378
 42
0.0
  0
VERTEX
  8
0
 10
5.705094
 20
65.784984
 42
0.0
  0
VERTEX
  8
0
 10
5.640324
 20
65.657984
 42
0.0
  0
VERTEX
  8
0
 10
5.4804818
 20
65.34404
 42
0.0
  0
VERTEX
  8
0
 10
5.3839872
 20
64.739012
 42
0.0
  0
VERTEX
  8
0
 10
5.4804818
 20
64.133984
 42
0.0
  0
VERTEX
  8
0
 10
5.640324
 20
63.819532
 42
0.0
  0
VERTEX
  8
0
 10
5.713349
 20
63.676276
 42
0.0
  0
VERTEX
  8
0
 10
5.7574434
 20
63.588138
 42
0.0
  0
VERTEX
  8
0
 10
6.1226446
 20
63.22441
 42
0.0
  0
VERTEX
  8
0
 10
6.1915294
 20
63.155322
 42
0.0
  0
VERTEX
  8
0
 10
6.434074
 20
63.031624
 42
0.0
  0
VERTEX
  8
0
 10
6.7372484
 20
62.876938
 42
0.0
  0
VERTEX
  8
0
 10
7.3422002
 20
62.782196
 42
0.0
  0
VERTEX
  8
0
 10
7.475855
 20
62.802516
 42
0.0
  0
VERTEX
  8
0
 10
7.9471266
 20
62.876938
 42
0.0
  0
VERTEX
  8
0
 10
8.2489294
 20
63.031624
 42
0.0
  0
VERTEX
  8
0
 10
8.3922616
 20
63.104522
 42
0.0
  0
VERTEX
  8
0
 10
8.4928456
 20
63.155322
 42
0.0
  0
SEQEND
  0
POLYLINE
  8
0
 66
     1
 10
0.0
 20
0.0
 30
0.0
 70
     1
  0
VERTEX
  8
0
 10
26.58237
 20
52.088288
 42
0.0
  0
VERTEX
  8
0
 10
26.156412
 20
52.92471
 42
0.0
  0
VERTEX
  8
0
 10
25.585928
 20
53.496972
 42
0.0
  0
VERTEX
  8
0
 10
25.494996
 20
53.589174
 42
0.0
  0
VERTEX
  8
0
 10
24.659971
 20
54.016402
 42
0.0
  0
VERTEX
  8
0
 10
24.6310404
 20
54.020466
 42
0.0
  0
VERTEX
  8
0
 10
23.7353602
 20
54.162452
 42
0.0
  0
VERTEX
  8
0
 10
22.8106732
 20
54.016402
 42
0.0
  0
VERTEX
  8
0
 10
21.9755974
 20
53.589174
 42
0.0
  0
VERTEX
  8
0
 10
21.8832684
 20
53.496972
 42
0.0
  0
VERTEX
  8
0
 10
21.312759
 20
52.92471
 42
0.0
  0
VERTEX
  8
0
 10
20.8882996
 20
52.088288
 42
0.0
  0
VERTEX
  8
0
 10
20.7408526
 20
51.160934
 42
0.0
  0
VERTEX
  8
0
 10
20.8882996
 20
50.23231
 42
0.0
  0
VERTEX
  8
0
 10
21.312759
 20
49.395888
 42
0.0
  0
VERTEX
  8
0
 10
21.9755974
 20
48.731678
 42
0.0
  0
VERTEX
  8
0
 10
22.8106732
 20
48.30445
 42
0.0
  0
VERTEX
  8
0
 10
23.7353602
 20
48.156876
 42
0.0
  0
VERTEX
  8
0
 10
23.8593376
 20
48.17745
 42
0.0
  0
VERTEX
  8
0
 10
24.6310404
 20
48.300132
 42
0.0
  0
VERTEX
  8
0
 10
24.659971
 20
48.30445
 42
0.0
  0
VERTEX
  8
0
 10
25.494996
 20
48.731678
 42
0.0
  0
VERTEX
  8
0
 10
26.156412
 20
49.395888
 42
0.0
  0
VERTEX
  8
0
 10
26.58237
 20
50.23231
 42
0.0
  0
VERTEX
  8
0
 10
26.72842
 20
51.160934
 42
0.0
  0
SEQEND
  0
POLYLINE
  8
0
 66
     1
 10
0.0
 20
0.0
 30
0.0
 70
     1
  0
VERTEX
  8
0
 10
27.370532
 20
44.813728
 42
0.0
  0
VERTEX
  8
0
 10
27.691588
 20
44.492672
 42
0.0
  0
VERTEX
  8
0
 10
28.237434
 20
44.214288
 42
0.0
  0
VERTEX
  8
0
 10
28.842208
 20
44.118022
 42
0.0
  0
VERTEX
  8
0
 10
29.44876
 20
44.214288
 42
0.0
  0
VERTEX
  8
0
 10
29.993082
 20
44.492672
 42
0.0
  0
VERTEX
  8
0
 10
30.425644
 20
44.925488
 42
0.0
  0
VERTEX
  8
0
 10
30.619954
 20
45.305726
 42
0.0
  0
VERTEX
  8
0
 10
30.704028
 20
45.471334
 42
0.0
  0
VERTEX
  8
0
 10
30.800548
 20
46.075854
 42
0.0
  0
VERTEX
  8
0
 10
30.704028
 20
46.680882
 42
0.0
  0
VERTEX
  8
0
 10
30.425644
 20
47.226728
 42
0.0
  0
VERTEX
  8
0
 10
29.993082
 20
47.659544
 42
0.0
  0
VERTEX
  8
0
 10
29.44876
 20
47.937928
 42
0.0
  0
VERTEX
  8
0
 10
28.842208
 20
48.032924
 42
0.0
  0
VERTEX
  8
0
 10
28.237434
 20
47.937928
 42
0.0
  0
VERTEX
  8
0
 10
27.691588
 20
47.659544
 42
0.0
  0
VERTEX
  8
0
 10
27.259026
 20
47.226728
 42
0.0
  0
VERTEX
  8
0
 10
26.980642
 20
46.680882
 42
0.0
  0
VERTEX
  8
0
 10
26.885392
 20
46.075854
 42
0.0
  0
VERTEX
  8
0
 10
26.980642
 20
45.471334
 42
0.0
  0
VERTEX
  8
0
 10
27.064716
 20
45.305726
 42
0.0
  0
VERTEX
  8
0
 10
27.259026
 20
44.925488
 42
0.0
  0
SEQEND
  0
POLYLINE
  8
0
 66
     1
 10
0.0
 20
0.0
 30
0.0
 70
     1
  0
VERTEX
  8
0
 10
29.047694
 20
37.054028
 42
0.0
  0
VERTEX
  8
0
 10
28.998164
 20
36.05784
 42
0.0
  0
VERTEX
  8
0
 10
29.047694
 20
35.061398
 42
0.0
  0
VERTEX
  8
0
 10
29.196538
 20
34.074608
 42
0.0
  0
VERTEX
  8
0
 10
29.441902
 20
33.11017
 42
0.0
  0
VERTEX
  8
0
 10
29.782262
 20
32.173164
 42
0.0
  0
VERTEX
  8
0
 10
30.213554
 20
31.273242
 42
0.0
  0
VERTEX
  8
0
 10
30.319472
 20
31.099506
 42
0.0
  0
VERTEX
  8
0
 10
30.731714
 20
30.42285
 42
0.0
  0
VERTEX
  8
0
 10
30.790896
 20
30.344364
 42
0.0
  0
VERTEX
  8
0
 10
31.68523
 20
31.240222
 42
0.0
  0
VERTEX
  8
0
 10
36.009326
 20
35.577018
 42
0.0
  0
VERTEX
  8
0
 10
36.491672
 20
36.060634
 42
0.0
  0
VERTEX
  8
0
 10
36.009326
 20
36.542726
 42
0.0
  0
VERTEX
  8
0
 10
31.68523
 20
40.881046
 42
0.0
  0
VERTEX
  8
0
 10
30.79369
 20
41.773856
 42
0.0
  0
VERTEX
  8
0
 10
30.731714
 20
41.692576
 42
0.0
  0
VERTEX
  8
0
 10
30.319472
 20
41.016174
 42
0.0
  0
VERTEX
  8
0
 10
30.213554
 20
40.841168
 42
0.0
  0
VERTEX
  8
0
 10
29.782262
 20
39.942516
 42
0.0
  0
VERTEX
  8
0
 10
29.441902
 20
39.005256
 42
0.0
  0
VERTEX
  8
0
 10
29.196538
 20
38.039294
 42
0.0
  0
VERTEX
  8
0
 10
29.057346
 20
37.11321
 42
0.0
  0
SEQEND
  0
POLYLINE
  8
0
 66
     1
 10
0.0
 20
0.0
 30
0.0
 70
     1
  0
VERTEX
  8
0
 10
30.123892
 20
24.7467882
 42
0.0
  0
VERTEX
  8
0
 10
30.202378
 20
24.8253504
 42
0.0
  0
VERTEX
  8
0
 10
30.319472
 20
24.9410982
 42
0.0
  0
VERTEX
  8
0
 10
30.425644
 20
25.048591
 42
0.0
  0
VERTEX
  8
0
 10
30.704028
 20
25.59431
 42
0.0
  0
VERTEX
  8
0
 10
30.800548
 20
26.199338
 42
0.0
  0
VERTEX
  8
0
 10
30.704028
 20
26.804112
 42
0.0
  0
VERTEX
  8
0
 10
30.425644
 20
27.349958
 42
0.0
  0
VERTEX
  8
0
 10
29.993082
 20
27.78252
 42
0.0
  0
VERTEX
  8
0
 10
29.44876
 20
28.060904
 42
0.0
  0
VERTEX
  8
0
 10
28.842208
 20
28.156154
 42
0.0
  0
VERTEX
  8
0
 10
28.237434
 20
28.060904
 42
0.0
  0
VERTEX
  8
0
 10
27.956256
 20
27.916378
 42
0.0
  0
VERTEX
  8
0
 10
27.691588
 20
27.78252
 42
0.0
  0
VERTEX
  8
0
 10
27.259026
 20
27.349958
 42
0.0
  0
VERTEX
  8
0
 10
26.980642
 20
26.804112
 42
0.0
  0
VERTEX
  8
0
 10
26.885392
 20
26.199338
 42
0.0
  0
VERTEX
  8
0
 10
26.980642
 20
25.59431
 42
0.0
  0
VERTEX
  8
0
 10
27.259026
 20
25.048591
 42
0.0
  0
VERTEX
  8
0
 10
27.31135
 20
24.99487
 42
0.0
  0
VERTEX
  8
0
 10
27.323796
 20
24.983821
 42
0.0
  0
VERTEX
  8
0
 10
27.691588
 20
24.6158766
 42
0.0
  0
VERTEX
  8
0
 10
28.237434
 20
24.3375434
 42
0.0
  0
VERTEX
  8
0
 10
28.842208
 20
24.2410488
 42
0.0
  0
VERTEX
  8
0
 10
29.44876
 20
24.3375434
 42
0.0
  0
VERTEX
  8
0
 10
29.993082
 20
24.6158766
 42
0.0
  0
SEQEND
  0
POLYLINE
  8
0
 66
     1
 10
0.0
 20
0.0
 30
0.0
 70
     1
  0
VERTEX
  8
0
 10
26.659586
 20
20.76704
 42
0.0
  0
VERTEX
  8
0
 10
26.72842
 20
21.2024976
 42
0.0
  0
VERTEX
  8
0
 10
26.59761
 20
22.0293184
 42
0.0
  0
VERTEX
  8
0
 10
26.58237
 20
22.1299278
 42
0.0
  0
VERTEX
  8
0
 10
26.156412
 20
22.9677722
 42
0.0
  0
VERTEX
  8
0
 10
25.494996
 20
23.6319822
 42
0.0
  0
VERTEX
  8
0
 10
24.659971
 20
24.0577878
 42
0.0
  0
VERTEX
  8
0
 10
24.6310404
 20
24.0619026
 42
0.0
  0
VERTEX
  8
0
 10
23.9062006
 20
24.1777012
 42
0.0
  0
VERTEX
  8
0
 10
23.7353602
 20
24.2038632
 42
0.0
  0
VERTEX
  8
0
 10
22.8106732
 20
24.0577878
 42
0.0
  0
VERTEX
  8
0
 10
21.9755974
 20
23.6319822
 42
0.0
  0
VERTEX
  8
0
 10
21.312759
 20
22.9677722
 42
0.0
  0
VERTEX
  8
0
 10
20.8882996
 20
22.1299278
 42
0.0
  0
VERTEX
  8
0
 10
20.8717896
 20
22.0293184
 42
0.0
  0
VERTEX
  8
0
 10
20.7408526
 20
21.2024976
 42
0.0
  0
VERTEX
  8
0
 10
20.8152746
 20
20.729829
 42
0.0
  0
VERTEX
  8
0
 10
20.8882996
 20
20.2750928
 42
0.0
  0
VERTEX
  8
0
 10
21.312759
 20
19.4372484
 42
0.0
  0
VERTEX
  8
0
 10
21.9755974
 20
18.7729876
 42
0.0
  0
VERTEX
  8
0
 10
22.8106732
 20
18.3458104
 42
0.0
  0
VERTEX
  8
0
 10
23.7353602
 20
18.199735
 42
0.0
  0
VERTEX
  8
0
 10
24.6310404
 20
18.3416956
 42
0.0
  0
VERTEX
  8
0
 10
24.659971
 20
18.3458104
 42
0.0
  0
VERTEX
  8
0
 10
25.494996
 20
18.7729876
 42
0.0
  0
VERTEX
  8
0
 10
26.156412
 20
19.4372484
 42
0.0
  0
VERTEX
  8
0
 10
26.58237
 20
20.2750928
 42
0.0
  0
VERTEX
  8
0
 10
26.653998
 20
20.729829
 42
0.0
  0
SEQEND
  0
POLYLINE
  8
0
 66
     1
 10
0.0
 20
0.0
 30
0.0
 70
     1
  0
VERTEX
  8
0
 10
8.5700362
 20
6.1350144
 42
0.0
  0
VERTEX
  8
0
 10
8.8773254
 20
6.442329
 42
0.0
  0
VERTEX
  8
0
 10
9.0027252
 20
6.5691004
 42
0.0
  0
VERTEX
  8
0
 10
9.0674952
 20
6.6945256
 42
0.0
  0
VERTEX
  8
0
 10
9.2810838
 20
7.1134478
 42
0.0
  0
VERTEX
  8
0
 10
9.3775276
 20
7.7183996
 42
0.0
  0
VERTEX
  8
0
 10
9.2810838
 20
8.3233768
 42
0.0
  0
VERTEX
  8
0
 10
9.220454
 20
8.4418678
 42
0.0
  0
VERTEX
  8
0
 10
9.0674952
 20
8.7436706
 42
0.0
  0
VERTEX
  8
0
 10
9.0027252
 20
8.869045
 42
0.0
  0
VERTEX
  8
0
 10
8.5700362
 20
9.3017594
 42
0.0
  0
VERTEX
  8
0
 10
8.4804504
 20
9.3486224
 42
0.0
  0
VERTEX
  8
0
 10
8.0243172
 20
9.5801434
 42
0.0
  0
VERTEX
  8
0
 10
7.475855
 20
9.6669352
 42
0.0
  0
VERTEX
  8
0
 10
7.4193654
 20
9.6765872
 42
0.0
  0
VERTEX
  8
0
 10
6.8143882
 20
9.5801434
 42
0.0
  0
VERTEX
  8
0
 10
6.3596266
 20
9.3486224
 42
0.0
  0
VERTEX
  8
0
 10
6.3486284
 20
9.3431106
 42
0.0
  0
VERTEX
  8
0
 10
6.2686946
 20
9.3017594
 42
0.0
  0
VERTEX
  8
0
 10
5.8360056
 20
8.869045
 42
0.0
  0
VERTEX
  8
0
 10
5.6706262
 20
8.5452204
 42
0.0
  0
VERTEX
  8
0
 10
5.6182768
 20
8.4418678
 42
0.0
  0
VERTEX
  8
0
 10
5.5576216
 20
8.3233768
 42
0.0
  0
VERTEX
  8
0
 10
5.4625494
 20
7.7183996
 42
0.0
  0
VERTEX
  8
0
 10
5.5576216
 20
7.1134478
 42
0.0
  0
VERTEX
  8
0
 10
5.6706262
 20
6.8915788
 42
0.0
  0
VERTEX
  8
0
 10
5.8360056
 20
6.5691004
 42
0.0
  0
VERTEX
  8
0
 10
5.8897266
 20
6.5153794
 42
0.0
  0
VERTEX
  8
0
 10
6.2686946
 20
6.1350144
 42
0.0
  0
VERTEX
  8
0
 10
6.3141606
 20
6.1115956
 42
0.0
  0
VERTEX
  8
0
 10
6.6462656
 20
5.9421268
 42
0.0
  0
VERTEX
  8
0
 10
6.8143882
 20
5.8566812
 42
0.0
  0
VERTEX
  8
0
 10
7.4193654
 20
5.7615582
 42
0.0
  0
VERTEX
  8
0
 10
7.475855
 20
5.769864
 42
0.0
  0
VERTEX
  8
0
 10
8.0243172
 20
5.8566812
 42
0.0
  0
VERTEX
  8
0
 10
8.1579974
 20
5.9241944
 42
0.0
  0
VERTEX
  8
0
 10
8.1938368
 20
5.9421268
 42
0.0
  0
VERTEX
  8
0
 10
8.4514944
 20
6.07441
 42
0.0
  0
SEQEND
  0
POLYLINE
  8
0
 66
     1
 10
0.0
 20
0.0
 30
0.0
 70
     1
  0
VERTEX
  8
0
 10
56.791606
 20
35.02279
 42
0.0
  0
VERTEX
  8
0
 10
53.379878
 20
35.02279
 42
0.0
  0
VERTEX
  8
0
 10
53.379878
 20
33.518094
 42
0.0
  0
VERTEX
  8
0
 10
58.135266
 20
33.518094
 42
0.0
  0
VERTEX
  8
0
 10
58.135266
 20
35.02279
 42
0.0
  0
SEQEND
  0
POLYLINE
  8
0
 66
     1
 10
0.0
 20
0.0
 30
0.0
 70
     1
  0
VERTEX
  8
0
 10
23.6953806
 20
33.518094
 42
0.0
  0
VERTEX
  8
0
 10
24.1349784
 20
33.518094
 42
0.0
  0
VERTEX
  8
0
 10
24.1349784
 20
35.02279
 42
0.0
  0
VERTEX
  8
0
 10
19.3793618
 20
35.02279
 42
0.0
  0
VERTEX
  8
0
 10
19.3793618
 20
33.518094
 42
0.0
  0
SEQEND
  0
ENDSEC
  0
EOF
