  0
SECTION
  2
HEADER
  9
$ACADVER
  1
AC1009
  9
$FILLMODE
 70
 0
  9
$SPLFRAME
 70
 1
  9
$EXTMIN
 10
0
 20
0
 30
0.0
  9
$EXTMAX
 10
41.6667
 20
41.6667
 30
0.0
  0
ENDSEC
  0
SECTION
  2
TABLES
  0
TABLE
  2
LAYER
 70
1
  0
LAYER
  2
0
 70
     0
 62
     7
  6
CONTINUOUS
  0
ENDTAB
  0
ENDSEC
  0
SECTION
  2
ENTITIES
  0
POLYLINE
  8
0
 62
     254
 66
     1
 10
0
 20
0
 30
0.0
 70
     1
 40
0
 41
0
  0
VERTEX
  8
0
 10
1.08702
 20
1.31825
 30
0.0
 40
0
 41
0
  0
VERTEX
  8
0
 10
1.08697
 20
1.3182
 30
0.0
 40
0
 41
0
  0
VERTEX
  8
0
 10
1.08697
 20
1.31413
 30
0.0
 40
0
 41
0
  0
VERTEX
  8
0
 10
1.08691
 20
1.31147
 30
0.0
 40
0
 41
0
  0
VERTEX
  8
0
 10
1.08691
 20
1.30827
 30
0.0
 40
0
 41
0
  0
VERTEX
  8
0
 10
1.08686
 20
1.30469
 30
0.0
 40
0
 41
0
  0
VERTEX
  8
0
 10
1.08686
 20
1.30111
 30
0.0
 40
0
 41
0
  0
VERTEX
  8
0
 10
1.08681
 20
1.29693
 30
0.0
 40
0
 41
0
  0
VERTEX
  8
0
 10
1.08681
 20
1.29666
 30
0.0
 40
0
 41
0
  0
VERTEX
  8
0
 10
1.09321
 20
1.29666
 30
0.0
 40
0
 41
0
  0
VERTEX
  8
0
 10
1.23069
 20
1.29579
 30
0.0
 40
0
 41
0
  0
VERTEX
  8
0
 10
1.08453
 20
1.03912
 30
0.0
 40
0
 41
0
  0
VERTEX
  8
0
 10
0.821724
 20
0.577582
 30
0.0
 40
0
 41
0
  0
VERTEX
  8
0
 10
0.602539
 20
0.192708
 30
0.0
 40
0
 41
0
  0
VERTEX
  8
0
 10
0.564833
 20
0.126519
 30
0.0
 40
0
 41
0
  0
VERTEX
  8
0
 10
0.472222
 20
0.127062
 30
0.0
 40
0
 41
0
  0
VERTEX
  8
0
 10
0.451064
 20
0.127224
 30
0.0
 40
0
 41
0
  0
VERTEX
  8
0
 10
0.447428
 20
0.127224
 30
0.0
 40
0
 41
0
  0
VERTEX
  8
0
 10
0.443414
 20
0.127279
 30
0.0
 40
0
 41
0
  0
VERTEX
  8
0
 10
0.443306
 20
0.115343
 30
0.0
 40
0
 41
0
  0
VERTEX
  8
0
 10
0.443251
 20
0.10829
 30
0.0
 40
0
 41
0
  0
VERTEX
  8
0
 10
0.443251
 20
0.106879
 30
0.0
 40
0
 41
0
  0
VERTEX
  8
0
 10
0.445475
 20
0.103841
 30
0.0
 40
0
 41
0
  0
VERTEX
  8
0
 10
0.448622
 20
0.0974935
 30
0.0
 40
0
 41
0
  0
VERTEX
  8
0
 10
0.450521
 20
0.0910915
 30
0.0
 40
0
 41
0
  0
VERTEX
  8
0
 10
0.451064
 20
0.0846354
 30
0.0
 40
0
 41
0
  0
VERTEX
  8
0
 10
0.45025
 20
0.0781793
 30
0.0
 40
0
 41
0
  0
VERTEX
  8
0
 10
0.448188
 20
0.0718317
 30
0.0
 40
0
 41
0
  0
VERTEX
  8
0
 10
0.444824
 20
0.0656467
 30
0.0
 40
0
 41
0
  0
VERTEX
  8
0
 10
0.442871
 20
0.0632053
 30
0.0
 40
0
 41
0
  0
VERTEX
  8
0
 10
0.442871
 20
0.0605469
 30
0.0
 40
0
 41
0
  0
VERTEX
  8
0
 10
0.442817
 20
0.0581597
 30
0.0
 40
0
 41
0
  0
VERTEX
  8
0
 10
0.442708
 20
0.0458985
 30
0.0
 40
0
 41
0
  0
VERTEX
  8
0
 10
0.270019
 20
0.0474175
 30
0.0
 40
0
 41
0
  0
VERTEX
  8
0
 10
0.183757
 20
0.0481771
 30
0.0
 40
0
 41
0
  0
VERTEX
  8
0
 10
0.183703
 20
0.0481771
 30
0.0
 40
0
 41
0
  0
VERTEX
  8
0
 10
0.183865
 20
0.0660265
 30
0.0
 40
0
 41
0
  0
VERTEX
  8
0
 10
0.183865
 20
0.0672743
 30
0.0
 40
0
 41
0
  0
VERTEX
  8
0
 10
0.181694
 20
0.0702582
 30
0.0
 40
0
 41
0
  0
VERTEX
  8
0
 10
0.179579
 20
0.07449
 30
0.0
 40
0
 41
0
  0
VERTEX
  8
0
 10
0.178494
 20
0.076606
 30
0.0
 40
0
 41
0
  0
VERTEX
  8
0
 10
0.17665
 20
0.0830078
 30
0.0
 40
0
 41
0
  0
VERTEX
  8
0
 10
0.176107
 20
0.089464
 30
0.0
 40
0
 41
0
  0
VERTEX
  8
0
 10
0.176867
 20
0.0958658
 30
0.0
 40
0
 41
0
  0
VERTEX
  8
0
 10
0.178982
 20
0.102214
 30
0.0
 40
0
 41
0
  0
VERTEX
  8
0
 10
0.179579
 20
0.103299
 30
0.0
 40
0
 41
0
  0
VERTEX
  8
0
 10
0.182346
 20
0.108398
 30
0.0
 40
0
 41
0
  0
VERTEX
  8
0
 10
0.184244
 20
0.11084
 30
0.0
 40
0
 41
0
  0
VERTEX
  8
0
 10
0.184244
 20
0.113553
 30
0.0
 40
0
 41
0
  0
VERTEX
  8
0
 10
0.184299
 20
0.115831
 30
0.0
 40
0
 41
0
  0
VERTEX
  8
0
 10
0.184407
 20
0.128635
 30
0.0
 40
0
 41
0
  0
VERTEX
  8
0
 10
0.184407
 20
0.128852
 30
0.0
 40
0
 41
0
  0
VERTEX
  8
0
 10
0.179579
 20
0.128906
 30
0.0
 40
0
 41
0
  0
VERTEX
  8
0
 10
0.176107
 20
0.128906
 30
0.0
 40
0
 41
0
  0
VERTEX
  8
0
 10
0.0393881
 20
0.129774
 30
0.0
 40
0
 41
0
  0
VERTEX
  8
0
 10
0.0824653
 20
0.205404
 30
0.0
 40
0
 41
0
  0
VERTEX
  8
0
 10
0.108344
 20
0.250868
 30
0.0
 40
0
 41
0
  0
VERTEX
  8
0
 10
0.216581
 20
0.440918
 30
0.0
 40
0
 41
0
  0
VERTEX
  8
0
 10
0.0824653
 20
0.554199
 30
0.0
 40
0
 41
0
  0
VERTEX
  8
0
 10
0.0853407
 20
0.880968
 30
0.0
 40
0
 41
0
  0
VERTEX
  8
0
 10
0.219293
 20
0.990181
 30
0.0
 40
0
 41
0
  0
VERTEX
  8
0
 10
0.224229
 20
0.994249
 30
0.0
 40
0
 41
0
  0
VERTEX
  8
0
 10
0.249729
 20
1.01497
 30
0.0
 40
0
 41
0
  0
VERTEX
  8
0
 10
0.250217
 20
1.0708
 30
0.0
 40
0
 41
0
  0
VERTEX
  8
0
 10
0.252225
 20
1.30431
 30
0.0
 40
0
 41
0
  0
VERTEX
  8
0
 10
0.274306
 20
1.30409
 30
0.0
 40
0
 41
0
  0
VERTEX
  8
0
 10
0.281033
 20
1.30404
 30
0.0
 40
0
 41
0
  0
VERTEX
  8
0
 10
0.281196
 20
1.32541
 30
0.0
 40
0
 41
0
  0
VERTEX
  8
0
 10
0.281196
 20
1.32737
 30
0.0
 40
0
 41
0
  0
VERTEX
  8
0
 10
0.278646
 20
1.33198
 30
0.0
 40
0
 41
0
  0
VERTEX
  8
0
 10
0.276204
 20
1.33805
 30
0.0
 40
0
 41
0
  0
VERTEX
  8
0
 10
0.27615
 20
1.33827
 30
0.0
 40
0
 41
0
  0
VERTEX
  8
0
 10
0.27474
 20
1.34467
 30
0.0
 40
0
 41
0
  0
VERTEX
  8
0
 10
0.274306
 20
1.35113
 30
0.0
 40
0
 41
0
  0
VERTEX
  8
0
 10
0.274903
 20
1.35758
 30
0.0
 40
0
 41
0
  0
VERTEX
  8
0
 10
0.276639
 20
1.36388
 30
0.0
 40
0
 41
0
  0
VERTEX
  8
0
 10
0.279297
 20
1.37006
 30
0.0
 40
0
 41
0
  0
VERTEX
  8
0
 10
0.281629
 20
1.37392
 30
0.0
 40
0
 41
0
  0
VERTEX
  8
0
 10
0.281629
 20
1.37598
 30
0.0
 40
0
 41
0
  0
VERTEX
  8
0
 10
0.281685
 20
1.3782
 30
0.0
 40
0
 41
0
  0
VERTEX
  8
0
 10
0.281685
 20
1.38384
 30
0.0
 40
0
 41
0
  0
VERTEX
  8
0
 10
0.281739
 20
1.38699
 30
0.0
 40
0
 41
0
  0
VERTEX
  8
0
 10
0.281793
 20
1.39063
 30
0.0
 40
0
 41
0
  0
VERTEX
  8
0
 10
0.281793
 20
1.39117
 30
0.0
 40
0
 41
0
  0
VERTEX
  8
0
 10
0.483236
 20
1.38943
 30
0.0
 40
0
 41
0
  0
VERTEX
  8
0
 10
0.483182
 20
1.382
 30
0.0
 40
0
 41
0
  0
VERTEX
  8
0
 10
0.483074
 20
1.37316
 30
0.0
 40
0
 41
0
  0
VERTEX
  8
0
 10
0.483074
 20
1.37109
 30
0.0
 40
0
 41
0
  0
VERTEX
  8
0
 10
0.485678
 20
1.36648
 30
0.0
 40
0
 41
0
  0
VERTEX
  8
0
 10
0.488118
 20
1.36019
 30
0.0
 40
0
 41
0
  0
VERTEX
  8
0
 10
0.489583
 20
1.35379
 30
0.0
 40
0
 41
0
  0
VERTEX
  8
0
 10
0.489963
 20
1.34738
 30
0.0
 40
0
 41
0
  0
VERTEX
  8
0
 10
0.489312
 20
1.34093
 30
0.0
 40
0
 41
0
  0
VERTEX
  8
0
 10
0.488607
 20
1.33805
 30
0.0
 40
0
 41
0
  0
VERTEX
  8
0
 10
0.487685
 20
1.33458
 30
0.0
 40
0
 41
0
  0
VERTEX
  8
0
 10
0.485026
 20
1.32834
 30
0.0
 40
0
 41
0
  0
VERTEX
  8
0
 10
0.482639
 20
1.32454
 30
0.0
 40
0
 41
0
  0
VERTEX
  8
0
 10
0.482639
 20
1.32026
 30
0.0
 40
0
 41
0
  0
VERTEX
  8
0
 10
0.482585
 20
1.31765
 30
0.0
 40
0
 41
0
  0
VERTEX
  8
0
 10
0.482585
 20
1.31467
 30
0.0
 40
0
 41
0
  0
VERTEX
  8
0
 10
0.482531
 20
1.31136
 30
0.0
 40
0
 41
0
  0
VERTEX
  8
0
 10
0.482531
 20
1.30805
 30
0.0
 40
0
 41
0
  0
VERTEX
  8
0
 10
0.482476
 20
1.30387
 30
0.0
 40
0
 41
0
  0
VERTEX
  8
0
 10
0.482476
 20
1.3023
 30
0.0
 40
0
 41
0
  0
VERTEX
  8
0
 10
0.489963
 20
1.30225
 30
0.0
 40
0
 41
0
  0
VERTEX
  8
0
 10
0.511285
 20
1.30203
 30
0.0
 40
0
 41
0
  0
VERTEX
  8
0
 10
0.508192
 20
0.952962
 30
0.0
 40
0
 41
0
  0
VERTEX
  8
0
 10
0.597168
 20
1.10921
 30
0.0
 40
0
 41
0
  0
VERTEX
  8
0
 10
0.602539
 20
1.11865
 30
0.0
 40
0
 41
0
  0
VERTEX
  8
0
 10
0.687011
 20
1.26693
 30
0.0
 40
0
 41
0
  0
VERTEX
  8
0
 10
0.692817
 20
1.27713
 30
0.0
 40
0
 41
0
  0
VERTEX
  8
0
 10
0.705296
 20
1.29905
 30
0.0
 40
0
 41
0
  0
VERTEX
  8
0
 10
0.820692
 20
1.29829
 30
0.0
 40
0
 41
0
  0
VERTEX
  8
0
 10
0.8278
 20
1.29829
 30
0.0
 40
0
 41
0
  0
VERTEX
  8
0
 10
0.827963
 20
1.3189
 30
0.0
 40
0
 41
0
  0
VERTEX
  8
0
 10
0.827963
 20
1.32004
 30
0.0
 40
0
 41
0
  0
VERTEX
  8
0
 10
0.826172
 20
1.32275
 30
0.0
 40
0
 41
0
  0
VERTEX
  8
0
 10
0.823025
 20
1.32959
 30
0.0
 40
0
 41
0
  0
VERTEX
  8
0
 10
0.821181
 20
1.33648
 30
0.0
 40
0
 41
0
  0
VERTEX
  8
0
 10
0.820692
 20
1.34348
 30
0.0
 40
0
 41
0
  0
VERTEX
  8
0
 10
0.821451
 20
1.35042
 30
0.0
 40
0
 41
0
  0
VERTEX
  8
0
 10
0.823514
 20
1.35731
 30
0.0
 40
0
 41
0
  0
VERTEX
  8
0
 10
0.824599
 20
1.35948
 30
0.0
 40
0
 41
0
  0
VERTEX
  8
0
 10
0.826878
 20
1.36399
 30
0.0
 40
0
 41
0
  0
VERTEX
  8
0
 10
0.828396
 20
1.36605
 30
0.0
 40
0
 41
0
  0
VERTEX
  8
0
 10
0.828396
 20
1.37174
 30
0.0
 40
0
 41
0
  0
VERTEX
  8
0
 10
0.82845
 20
1.37478
 30
0.0
 40
0
 41
0
  0
VERTEX
  8
0
 10
0.82845
 20
1.3782
 30
0.0
 40
0
 41
0
  0
VERTEX
  8
0
 10
0.828504
 20
1.38167
 30
0.0
 40
0
 41
0
  0
VERTEX
  8
0
 10
0.82856
 20
1.38569
 30
0.0
 40
0
 41
0
  0
VERTEX
  8
0
 10
0.82856
 20
1.38645
 30
0.0
 40
0
 41
0
  0
VERTEX
  8
0
 10
1.08757
 20
1.38417
 30
0.0
 40
0
 41
0
  0
VERTEX
  8
0
 10
1.0874
 20
1.36561
 30
0.0
 40
0
 41
0
  0
VERTEX
  8
0
 10
1.08735
 20
1.36019
 30
0.0
 40
0
 41
0
  0
VERTEX
  8
0
 10
1.08735
 20
1.35997
 30
0.0
 40
0
 41
0
  0
VERTEX
  8
0
 10
1.08773
 20
1.35943
 30
0.0
 40
0
 41
0
  0
VERTEX
  8
0
 10
1.09087
 20
1.35259
 30
0.0
 40
0
 41
0
  0
VERTEX
  8
0
 10
1.09272
 20
1.34565
 30
0.0
 40
0
 41
0
  0
VERTEX
  8
0
 10
1.09321
 20
1.3387
 30
0.0
 40
0
 41
0
  0
VERTEX
  8
0
 10
1.09315
 20
1.33805
 30
0.0
 40
0
 41
0
  0
VERTEX
  8
0
 10
1.09245
 20
1.33176
 30
0.0
 40
0
 41
0
  0
VERTEX
  8
0
 10
1.09033
 20
1.32492
 30
0.0
 40
0
 41
0
  0
VERTEX
  8
0
 10
1.08702
 20
1.31825
 30
0.0
 40
0
 41
0
  0
SEQEND
 8
0
  0
POLYLINE
  8
0
 62
     254
 66
     1
 10
0
 20
0
 30
0.0
 70
     1
 40
0
 41
0
  0
VERTEX
  8
0
 10
0.495714
 20
0.687392
 30
0.0
 40
0
 41
0
  0
VERTEX
  8
0
 10
0.497342
 20
0.690539
 30
0.0
 40
0
 41
0
  0
VERTEX
  8
0
 10
0.498318
 20
0.693033
 30
0.0
 40
0
 41
0
  0
VERTEX
  8
0
 10
0.499078
 20
0.694933
 30
0.0
 40
0
 41
0
  0
VERTEX
  8
0
 10
0.500379
 20
0.699436
 30
0.0
 40
0
 41
0
  0
VERTEX
  8
0
 10
0.501193
 20
0.704047
 30
0.0
 40
0
 41
0
  0
VERTEX
  8
0
 10
0.501574
 20
0.708768
 30
0.0
 40
0
 41
0
  0
VERTEX
  8
0
 10
0.501519
 20
0.713433
 30
0.0
 40
0
 41
0
  0
VERTEX
  8
0
 10
0.500976
 20
0.718099
 30
0.0
 40
0
 41
0
  0
VERTEX
  8
0
 10
0.5
 20
0.722657
 30
0.0
 40
0
 41
0
  0
VERTEX
  8
0
 10
0.498535
 20
0.72716
 30
0.0
 40
0
 41
0
  0
VERTEX
  8
0
 10
0.49669
 20
0.731446
 30
0.0
 40
0
 41
0
  0
VERTEX
  8
0
 10
0.495714
 20
0.733236
 30
0.0
 40
0
 41
0
  0
VERTEX
  8
0
 10
0.49566
 20
0.733344
 30
0.0
 40
0
 41
0
  0
VERTEX
  8
0
 10
0.494412
 20
0.735568
 30
0.0
 40
0
 41
0
  0
VERTEX
  8
0
 10
0.491754
 20
0.739475
 30
0.0
 40
0
 41
0
  0
VERTEX
  8
0
 10
0.491157
 20
0.740126
 30
0.0
 40
0
 41
0
  0
VERTEX
  8
0
 10
0.488715
 20
0.743056
 30
0.0
 40
0
 41
0
  0
VERTEX
  8
0
 10
0.485297
 20
0.746257
 30
0.0
 40
0
 41
0
  0
VERTEX
  8
0
 10
0.481662
 20
0.74924
 30
0.0
 40
0
 41
0
  0
VERTEX
  8
0
 10
0.479818
 20
0.750379
 30
0.0
 40
0
 41
0
  0
VERTEX
  8
0
 10
0.477701
 20
0.751736
 30
0.0
 40
0
 41
0
  0
VERTEX
  8
0
 10
0.477647
 20
0.751736
 30
0.0
 40
0
 41
0
  0
VERTEX
  8
0
 10
0.477214
 20
0.751953
 30
0.0
 40
0
 41
0
  0
VERTEX
  8
0
 10
0.473525
 20
0.753907
 30
0.0
 40
0
 41
0
  0
VERTEX
  8
0
 10
0.469129
 20
0.755643
 30
0.0
 40
0
 41
0
  0
VERTEX
  8
0
 10
0.464626
 20
0.75689
 30
0.0
 40
0
 41
0
  0
VERTEX
  8
0
 10
0.461751
 20
0.757433
 30
0.0
 40
0
 41
0
  0
VERTEX
  8
0
 10
0.460015
 20
0.757758
 30
0.0
 40
0
 41
0
  0
VERTEX
  8
0
 10
0.45535
 20
0.758137
 30
0.0
 40
0
 41
0
  0
VERTEX
  8
0
 10
0.450629
 20
0.758029
 30
0.0
 40
0
 41
0
  0
VERTEX
  8
0
 10
0.445964
 20
0.757542
 30
0.0
 40
0
 41
0
  0
VERTEX
  8
0
 10
0.441351
 20
0.756565
 30
0.0
 40
0
 41
0
  0
VERTEX
  8
0
 10
0.436903
 20
0.7551
 30
0.0
 40
0
 41
0
  0
VERTEX
  8
0
 10
0.432617
 20
0.753256
 30
0.0
 40
0
 41
0
  0
VERTEX
  8
0
 10
0.430339
 20
0.751953
 30
0.0
 40
0
 41
0
  0
VERTEX
  8
0
 10
0.428494
 20
0.750976
 30
0.0
 40
0
 41
0
  0
VERTEX
  8
0
 10
0.424642
 20
0.748264
 30
0.0
 40
0
 41
0
  0
VERTEX
  8
0
 10
0.423665
 20
0.747396
 30
0.0
 40
0
 41
0
  0
VERTEX
  8
0
 10
0.421442
 20
0.745551
 30
0.0
 40
0
 41
0
  0
VERTEX
  8
0
 10
0.421061
 20
0.745226
 30
0.0
 40
0
 41
0
  0
VERTEX
  8
0
 10
0.417806
 20
0.741863
 30
0.0
 40
0
 41
0
  0
VERTEX
  8
0
 10
0.414876
 20
0.738172
 30
0.0
 40
0
 41
0
  0
VERTEX
  8
0
 10
0.4139
 20
0.736708
 30
0.0
 40
0
 41
0
  0
VERTEX
  8
0
 10
0.412326
 20
0.734213
 30
0.0
 40
0
 41
0
  0
VERTEX
  8
0
 10
0.411242
 20
0.73215
 30
0.0
 40
0
 41
0
  0
VERTEX
  8
0
 10
0.410211
 20
0.730035
 30
0.0
 40
0
 41
0
  0
VERTEX
  8
0
 10
0.408475
 20
0.725694
 30
0.0
 40
0
 41
0
  0
VERTEX
  8
0
 10
0.407172
 20
0.721192
 30
0.0
 40
0
 41
0
  0
VERTEX
  8
0
 10
0.406358
 20
0.716525
 30
0.0
 40
0
 41
0
  0
VERTEX
  8
0
 10
0.405925
 20
0.711914
 30
0.0
 40
0
 41
0
  0
VERTEX
  8
0
 10
0.406033
 20
0.707194
 30
0.0
 40
0
 41
0
  0
VERTEX
  8
0
 10
0.406575
 20
0.702528
 30
0.0
 40
0
 41
0
  0
VERTEX
  8
0
 10
0.407553
 20
0.697917
 30
0.0
 40
0
 41
0
  0
VERTEX
  8
0
 10
0.408962
 20
0.693468
 30
0.0
 40
0
 41
0
  0
VERTEX
  8
0
 10
0.409179
 20
0.693033
 30
0.0
 40
0
 41
0
  0
VERTEX
  8
0
 10
0.410861
 20
0.689128
 30
0.0
 40
0
 41
0
  0
VERTEX
  8
0
 10
0.411242
 20
0.688422
 30
0.0
 40
0
 41
0
  0
VERTEX
  8
0
 10
0.41314
 20
0.685058
 30
0.0
 40
0
 41
0
  0
VERTEX
  8
0
 10
0.415853
 20
0.681207
 30
0.0
 40
0
 41
0
  0
VERTEX
  8
0
 10
0.418837
 20
0.677626
 30
0.0
 40
0
 41
0
  0
VERTEX
  8
0
 10
0.421442
 20
0.675076
 30
0.0
 40
0
 41
0
  0
VERTEX
  8
0
 10
0.422254
 20
0.674317
 30
0.0
 40
0
 41
0
  0
VERTEX
  8
0
 10
0.42589
 20
0.671442
 30
0.0
 40
0
 41
0
  0
VERTEX
  8
0
 10
0.425999
 20
0.671386
 30
0.0
 40
0
 41
0
  0
VERTEX
  8
0
 10
0.42985
 20
0.668837
 30
0.0
 40
0
 41
0
  0
VERTEX
  8
0
 10
0.432563
 20
0.667481
 30
0.0
 40
0
 41
0
  0
VERTEX
  8
0
 10
0.434028
 20
0.666721
 30
0.0
 40
0
 41
0
  0
VERTEX
  8
0
 10
0.438368
 20
0.664985
 30
0.0
 40
0
 41
0
  0
VERTEX
  8
0
 10
0.442925
 20
0.663683
 30
0.0
 40
0
 41
0
  0
VERTEX
  8
0
 10
0.447537
 20
0.662869
 30
0.0
 40
0
 41
0
  0
VERTEX
  8
0
 10
0.452203
 20
0.662489
 30
0.0
 40
0
 41
0
  0
VERTEX
  8
0
 10
0.456868
 20
0.662543
 30
0.0
 40
0
 41
0
  0
VERTEX
  8
0
 10
0.461589
 20
0.66314
 30
0.0
 40
0
 41
0
  0
VERTEX
  8
0
 10
0.461751
 20
0.66314
 30
0.0
 40
0
 41
0
  0
VERTEX
  8
0
 10
0.466146
 20
0.664117
 30
0.0
 40
0
 41
0
  0
VERTEX
  8
0
 10
0.470649
 20
0.665582
 30
0.0
 40
0
 41
0
  0
VERTEX
  8
0
 10
0.474935
 20
0.667426
 30
0.0
 40
0
 41
0
  0
VERTEX
  8
0
 10
0.475043
 20
0.667481
 30
0.0
 40
0
 41
0
  0
VERTEX
  8
0
 10
0.476942
 20
0.668511
 30
0.0
 40
0
 41
0
  0
VERTEX
  8
0
 10
0.479004
 20
0.669706
 30
0.0
 40
0
 41
0
  0
VERTEX
  8
0
 10
0.482206
 20
0.671875
 30
0.0
 40
0
 41
0
  0
VERTEX
  8
0
 10
0.48291
 20
0.672364
 30
0.0
 40
0
 41
0
  0
VERTEX
  8
0
 10
0.486436
 20
0.675401
 30
0.0
 40
0
 41
0
  0
VERTEX
  8
0
 10
0.489746
 20
0.678765
 30
0.0
 40
0
 41
0
  0
VERTEX
  8
0
 10
0.492676
 20
0.682454
 30
0.0
 40
0
 41
0
  0
VERTEX
  8
0
 10
0.492893
 20
0.682835
 30
0.0
 40
0
 41
0
  0
VERTEX
  8
0
 10
0.495171
 20
0.686361
 30
0.0
 40
0
 41
0
  0
VERTEX
  8
0
 10
0.495714
 20
0.687392
 30
0.0
 40
0
 41
0
  0
SEQEND
 8
0
  0
POLYLINE
  8
0
 62
     254
 66
     1
 10
0
 20
0
 30
0.0
 70
     1
 40
0
 41
0
  0
VERTEX
  8
0
 10
0.687011
 20
0.684842
 30
0.0
 40
0
 41
0
  0
VERTEX
  8
0
 10
0.688531
 20
0.687825
 30
0.0
 40
0
 41
0
  0
VERTEX
  8
0
 10
0.690267
 20
0.692219
 30
0.0
 40
0
 41
0
  0
VERTEX
  8
0
 10
0.690539
 20
0.693033
 30
0.0
 40
0
 41
0
  0
VERTEX
  8
0
 10
0.691569
 20
0.696724
 30
0.0
 40
0
 41
0
  0
VERTEX
  8
0
 10
0.692383
 20
0.701335
 30
0.0
 40
0
 41
0
  0
VERTEX
  8
0
 10
0.692817
 20
0.706
 30
0.0
 40
0
 41
0
  0
VERTEX
  8
0
 10
0.692708
 20
0.710721
 30
0.0
 40
0
 41
0
  0
VERTEX
  8
0
 10
0.692165
 20
0.715386
 30
0.0
 40
0
 41
0
  0
VERTEX
  8
0
 10
0.691189
 20
0.719943
 30
0.0
 40
0
 41
0
  0
VERTEX
  8
0
 10
0.689779
 20
0.724393
 30
0.0
 40
0
 41
0
  0
VERTEX
  8
0
 10
0.687879
 20
0.728733
 30
0.0
 40
0
 41
0
  0
VERTEX
  8
0
 10
0.687011
 20
0.730306
 30
0.0
 40
0
 41
0
  0
VERTEX
  8
0
 10
0.685601
 20
0.732856
 30
0.0
 40
0
 41
0
  0
VERTEX
  8
0
 10
0.685221
 20
0.733344
 30
0.0
 40
0
 41
0
  0
VERTEX
  8
0
 10
0.682943
 20
0.736708
 30
0.0
 40
0
 41
0
  0
VERTEX
  8
0
 10
0.682671
 20
0.737033
 30
0.0
 40
0
 41
0
  0
VERTEX
  8
0
 10
0.679904
 20
0.740289
 30
0.0
 40
0
 41
0
  0
VERTEX
  8
0
 10
0.67654
 20
0.743544
 30
0.0
 40
0
 41
0
  0
VERTEX
  8
0
 10
0.672851
 20
0.746474
 30
0.0
 40
0
 41
0
  0
VERTEX
  8
0
 10
0.671983
 20
0.747017
 30
0.0
 40
0
 41
0
  0
VERTEX
  8
0
 10
0.668892
 20
0.749024
 30
0.0
 40
0
 41
0
  0
VERTEX
  8
0
 10
0.666342
 20
0.750325
 30
0.0
 40
0
 41
0
  0
VERTEX
  8
0
 10
0.664714
 20
0.751139
 30
0.0
 40
0
 41
0
  0
VERTEX
  8
0
 10
0.660374
 20
0.752875
 30
0.0
 40
0
 41
0
  0
VERTEX
  8
0
 10
0.655817
 20
0.754178
 30
0.0
 40
0
 41
0
  0
VERTEX
  8
0
 10
0.651204
 20
0.754992
 30
0.0
 40
0
 41
0
  0
VERTEX
  8
0
 10
0.646539
 20
0.755425
 30
0.0
 40
0
 41
0
  0
VERTEX
  8
0
 10
0.641872
 20
0.755317
 30
0.0
 40
0
 41
0
  0
VERTEX
  8
0
 10
0.637207
 20
0.754775
 30
0.0
 40
0
 41
0
  0
VERTEX
  8
0
 10
0.632596
 20
0.753797
 30
0.0
 40
0
 41
0
  0
VERTEX
  8
0
 10
0.628093
 20
0.752333
 30
0.0
 40
0
 41
0
  0
VERTEX
  8
0
 10
0.623807
 20
0.750489
 30
0.0
 40
0
 41
0
  0
VERTEX
  8
0
 10
0.623535
 20
0.750325
 30
0.0
 40
0
 41
0
  0
VERTEX
  8
0
 10
0.623047
 20
0.750054
 30
0.0
 40
0
 41
0
  0
VERTEX
  8
0
 10
0.619738
 20
0.74821
 30
0.0
 40
0
 41
0
  0
VERTEX
  8
0
 10
0.61659
 20
0.746039
 30
0.0
 40
0
 41
0
  0
VERTEX
  8
0
 10
0.615886
 20
0.745497
 30
0.0
 40
0
 41
0
  0
VERTEX
  8
0
 10
0.612304
 20
0.742458
 30
0.0
 40
0
 41
0
  0
VERTEX
  8
0
 10
0.608996
 20
0.739094
 30
0.0
 40
0
 41
0
  0
VERTEX
  8
0
 10
0.606119
 20
0.73546
 30
0.0
 40
0
 41
0
  0
VERTEX
  8
0
 10
0.606011
 20
0.735297
 30
0.0
 40
0
 41
0
  0
VERTEX
  8
0
 10
0.604764
 20
0.733344
 30
0.0
 40
0
 41
0
  0
VERTEX
  8
0
 10
0.603569
 20
0.7315
 30
0.0
 40
0
 41
0
  0
VERTEX
  8
0
 10
0.602539
 20
0.729546
 30
0.0
 40
0
 41
0
  0
VERTEX
  8
0
 10
0.6014
 20
0.727322
 30
0.0
 40
0
 41
0
  0
VERTEX
  8
0
 10
0.599664
 20
0.722982
 30
0.0
 40
0
 41
0
  0
VERTEX
  8
0
 10
0.598361
 20
0.718425
 30
0.0
 40
0
 41
0
  0
VERTEX
  8
0
 10
0.597547
 20
0.713813
 30
0.0
 40
0
 41
0
  0
VERTEX
  8
0
 10
0.597168
 20
0.709147
 30
0.0
 40
0
 41
0
  0
VERTEX
  8
0
 10
0.597222
 20
0.704428
 30
0.0
 40
0
 41
0
  0
VERTEX
  8
0
 10
0.597819
 20
0.699761
 30
0.0
 40
0
 41
0
  0
VERTEX
  8
0
 10
0.598796
 20
0.695204
 30
0.0
 40
0
 41
0
  0
VERTEX
  8
0
 10
0.599447
 20
0.693033
 30
0.0
 40
0
 41
0
  0
VERTEX
  8
0
 10
0.600206
 20
0.690701
 30
0.0
 40
0
 41
0
  0
VERTEX
  8
0
 10
0.602106
 20
0.686415
 30
0.0
 40
0
 41
0
  0
VERTEX
  8
0
 10
0.602539
 20
0.685547
 30
0.0
 40
0
 41
0
  0
VERTEX
  8
0
 10
0.604383
 20
0.682292
 30
0.0
 40
0
 41
0
  0
VERTEX
  8
0
 10
0.606987
 20
0.67844
 30
0.0
 40
0
 41
0
  0
VERTEX
  8
0
 10
0.610081
 20
0.674858
 30
0.0
 40
0
 41
0
  0
VERTEX
  8
0
 10
0.613444
 20
0.671604
 30
0.0
 40
0
 41
0
  0
VERTEX
  8
0
 10
0.617133
 20
0.668674
 30
0.0
 40
0
 41
0
  0
VERTEX
  8
0
 10
0.618164
 20
0.668024
 30
0.0
 40
0
 41
0
  0
VERTEX
  8
0
 10
0.618978
 20
0.667481
 30
0.0
 40
0
 41
0
  0
VERTEX
  8
0
 10
0.621039
 20
0.666124
 30
0.0
 40
0
 41
0
  0
VERTEX
  8
0
 10
0.62169
 20
0.665853
 30
0.0
 40
0
 41
0
  0
VERTEX
  8
0
 10
0.623047
 20
0.665147
 30
0.0
 40
0
 41
0
  0
VERTEX
  8
0
 10
0.625217
 20
0.663954
 30
0.0
 40
0
 41
0
  0
VERTEX
  8
0
 10
0.629611
 20
0.662272
 30
0.0
 40
0
 41
0
  0
VERTEX
  8
0
 10
0.634115
 20
0.660969
 30
0.0
 40
0
 41
0
  0
VERTEX
  8
0
 10
0.638726
 20
0.660101
 30
0.0
 40
0
 41
0
  0
VERTEX
  8
0
 10
0.643446
 20
0.659776
 30
0.0
 40
0
 41
0
  0
VERTEX
  8
0
 10
0.648113
 20
0.659831
 30
0.0
 40
0
 41
0
  0
VERTEX
  8
0
 10
0.652778
 20
0.660374
 30
0.0
 40
0
 41
0
  0
VERTEX
  8
0
 10
0.657389
 20
0.66135
 30
0.0
 40
0
 41
0
  0
VERTEX
  8
0
 10
0.661838
 20
0.662815
 30
0.0
 40
0
 41
0
  0
VERTEX
  8
0
 10
0.663357
 20
0.663465
 30
0.0
 40
0
 41
0
  0
VERTEX
  8
0
 10
0.666124
 20
0.66466
 30
0.0
 40
0
 41
0
  0
VERTEX
  8
0
 10
0.66824
 20
0.665853
 30
0.0
 40
0
 41
0
  0
VERTEX
  8
0
 10
0.670247
 20
0.666938
 30
0.0
 40
0
 41
0
  0
VERTEX
  8
0
 10
0.671007
 20
0.667481
 30
0.0
 40
0
 41
0
  0
VERTEX
  8
0
 10
0.6741
 20
0.669596
 30
0.0
 40
0
 41
0
  0
VERTEX
  8
0
 10
0.675076
 20
0.670464
 30
0.0
 40
0
 41
0
  0
VERTEX
  8
0
 10
0.677681
 20
0.672635
 30
0.0
 40
0
 41
0
  0
VERTEX
  8
0
 10
0.680935
 20
0.676053
 30
0.0
 40
0
 41
0
  0
VERTEX
  8
0
 10
0.683865
 20
0.679688
 30
0.0
 40
0
 41
0
  0
VERTEX
  8
0
 10
0.68495
 20
0.681424
 30
0.0
 40
0
 41
0
  0
VERTEX
  8
0
 10
0.686415
 20
0.683649
 30
0.0
 40
0
 41
0
  0
VERTEX
  8
0
 10
0.687011
 20
0.684842
 30
0.0
 40
0
 41
0
  0
SEQEND
 8
0
  0
POLYLINE
  8
0
 62
     254
 66
     1
 10
0
 20
0
 30
0.0
 70
     1
 40
0
 41
0
  0
VERTEX
  8
0
 10
0.243164
 20
0.670301
 30
0.0
 40
0
 41
0
  0
VERTEX
  8
0
 10
0.245389
 20
0.669162
 30
0.0
 40
0
 41
0
  0
VERTEX
  8
0
 10
0.24669
 20
0.668457
 30
0.0
 40
0
 41
0
  0
VERTEX
  8
0
 10
0.247342
 20
0.668132
 30
0.0
 40
0
 41
0
  0
VERTEX
  8
0
 10
0.251682
 20
0.666396
 30
0.0
 40
0
 41
0
  0
VERTEX
  8
0
 10
0.256239
 20
0.665147
 30
0.0
 40
0
 41
0
  0
VERTEX
  8
0
 10
0.2602
 20
0.664387
 30
0.0
 40
0
 41
0
  0
VERTEX
  8
0
 10
0.260851
 20
0.664279
 30
0.0
 40
0
 41
0
  0
VERTEX
  8
0
 10
0.265517
 20
0.6639
 30
0.0
 40
0
 41
0
  0
VERTEX
  8
0
 10
0.270236
 20
0.663954
 30
0.0
 40
0
 41
0
  0
VERTEX
  8
0
 10
0.274903
 20
0.664497
 30
0.0
 40
0
 41
0
  0
VERTEX
  8
0
 10
0.275444
 20
0.664606
 30
0.0
 40
0
 41
0
  0
VERTEX
  8
0
 10
0.279514
 20
0.665474
 30
0.0
 40
0
 41
0
  0
VERTEX
  8
0
 10
0.283962
 20
0.666938
 30
0.0
 40
0
 41
0
  0
VERTEX
  8
0
 10
0.288249
 20
0.668782
 30
0.0
 40
0
 41
0
  0
VERTEX
  8
0
 10
0.2889
 20
0.669162
 30
0.0
 40
0
 41
0
  0
VERTEX
  8
0
 10
0.292372
 20
0.671061
 30
0.0
 40
0
 41
0
  0
VERTEX
  8
0
 10
0.296115
 20
0.673665
 30
0.0
 40
0
 41
0
  0
VERTEX
  8
0
 10
0.296224
 20
0.673719
 30
0.0
 40
0
 41
0
  0
VERTEX
  8
0
 10
0.299804
 20
0.676758
 30
0.0
 40
0
 41
0
  0
VERTEX
  8
0
 10
0.30051
 20
0.677518
 30
0.0
 40
0
 41
0
  0
VERTEX
  8
0
 10
0.30306
 20
0.680176
 30
0.0
 40
0
 41
0
  0
VERTEX
  8
0
 10
0.30599
 20
0.683811
 30
0.0
 40
0
 41
0
  0
VERTEX
  8
0
 10
0.306478
 20
0.684625
 30
0.0
 40
0
 41
0
  0
VERTEX
  8
0
 10
0.308485
 20
0.687825
 30
0.0
 40
0
 41
0
  0
VERTEX
  8
0
 10
0.308703
 20
0.688206
 30
0.0
 40
0
 41
0
  0
VERTEX
  8
0
 10
0.309299
 20
0.68929
 30
0.0
 40
0
 41
0
  0
VERTEX
  8
0
 10
0.310656
 20
0.691949
 30
0.0
 40
0
 41
0
  0
VERTEX
  8
0
 10
0.311089
 20
0.693033
 30
0.0
 40
0
 41
0
  0
VERTEX
  8
0
 10
0.312392
 20
0.696343
 30
0.0
 40
0
 41
0
  0
VERTEX
  8
0
 10
0.313693
 20
0.700846
 30
0.0
 40
0
 41
0
  0
VERTEX
  8
0
 10
0.314507
 20
0.705458
 30
0.0
 40
0
 41
0
  0
VERTEX
  8
0
 10
0.314942
 20
0.710124
 30
0.0
 40
0
 41
0
  0
VERTEX
  8
0
 10
0.314833
 20
0.714844
 30
0.0
 40
0
 41
0
  0
VERTEX
  8
0
 10
0.314507
 20
0.717503
 30
0.0
 40
0
 41
0
  0
VERTEX
  8
0
 10
0.31429
 20
0.71951
 30
0.0
 40
0
 41
0
  0
VERTEX
  8
0
 10
0.313314
 20
0.724121
 30
0.0
 40
0
 41
0
  0
VERTEX
  8
0
 10
0.311849
 20
0.728569
 30
0.0
 40
0
 41
0
  0
VERTEX
  8
0
 10
0.310004
 20
0.732856
 30
0.0
 40
0
 41
0
  0
VERTEX
  8
0
 10
0.309733
 20
0.733344
 30
0.0
 40
0
 41
0
  0
VERTEX
  8
0
 10
0.309299
 20
0.734158
 30
0.0
 40
0
 41
0
  0
VERTEX
  8
0
 10
0.308703
 20
0.735189
 30
0.0
 40
0
 41
0
  0
VERTEX
  8
0
 10
0.307726
 20
0.736979
 30
0.0
 40
0
 41
0
  0
VERTEX
  8
0
 10
0.305012
 20
0.740831
 30
0.0
 40
0
 41
0
  0
VERTEX
  8
0
 10
0.304144
 20
0.741917
 30
0.0
 40
0
 41
0
  0
VERTEX
  8
0
 10
0.302029
 20
0.744412
 30
0.0
 40
0
 41
0
  0
VERTEX
  8
0
 10
0.298611
 20
0.747667
 30
0.0
 40
0
 41
0
  0
VERTEX
  8
0
 10
0.294976
 20
0.750597
 30
0.0
 40
0
 41
0
  0
VERTEX
  8
0
 10
0.29286
 20
0.751953
 30
0.0
 40
0
 41
0
  0
VERTEX
  8
0
 10
0.291015
 20
0.753147
 30
0.0
 40
0
 41
0
  0
VERTEX
  8
0
 10
0.290147
 20
0.753581
 30
0.0
 40
0
 41
0
  0
VERTEX
  8
0
 10
0.286838
 20
0.755262
 30
0.0
 40
0
 41
0
  0
VERTEX
  8
0
 10
0.282497
 20
0.756999
 30
0.0
 40
0
 41
0
  0
VERTEX
  8
0
 10
0.27794
 20
0.758301
 30
0.0
 40
0
 41
0
  0
VERTEX
  8
0
 10
0.276258
 20
0.758626
 30
0.0
 40
0
 41
0
  0
VERTEX
  8
0
 10
0.273329
 20
0.759115
 30
0.0
 40
0
 41
0
  0
VERTEX
  8
0
 10
0.268664
 20
0.759549
 30
0.0
 40
0
 41
0
  0
VERTEX
  8
0
 10
0.263997
 20
0.75944
 30
0.0
 40
0
 41
0
  0
VERTEX
  8
0
 10
0.2602
 20
0.759006
 30
0.0
 40
0
 41
0
  0
VERTEX
  8
0
 10
0.259278
 20
0.758897
 30
0.0
 40
0
 41
0
  0
VERTEX
  8
0
 10
0.254719
 20
0.757921
 30
0.0
 40
0
 41
0
  0
VERTEX
  8
0
 10
0.250217
 20
0.756456
 30
0.0
 40
0
 41
0
  0
VERTEX
  8
0
 10
0.24745
 20
0.755262
 30
0.0
 40
0
 41
0
  0
VERTEX
  8
0
 10
0.245931
 20
0.754611
 30
0.0
 40
0
 41
0
  0
VERTEX
  8
0
 10
0.244086
 20
0.753581
 30
0.0
 40
0
 41
0
  0
VERTEX
  8
0
 10
0.241808
 20
0.752333
 30
0.0
 40
0
 41
0
  0
VERTEX
  8
0
 10
0.237956
 20
0.749675
 30
0.0
 40
0
 41
0
  0
VERTEX
  8
0
 10
0.237468
 20
0.74924
 30
0.0
 40
0
 41
0
  0
VERTEX
  8
0
 10
0.234375
 20
0.746636
 30
0.0
 40
0
 41
0
  0
VERTEX
  8
0
 10
0.231119
 20
0.743218
 30
0.0
 40
0
 41
0
  0
VERTEX
  8
0
 10
0.22819
 20
0.739583
 30
0.0
 40
0
 41
0
  0
VERTEX
  8
0
 10
0.227539
 20
0.738553
 30
0.0
 40
0
 41
0
  0
VERTEX
  8
0
 10
0.225694
 20
0.735622
 30
0.0
 40
0
 41
0
  0
VERTEX
  8
0
 10
0.224501
 20
0.733344
 30
0.0
 40
0
 41
0
  0
VERTEX
  8
0
 10
0.224229
 20
0.73291
 30
0.0
 40
0
 41
0
  0
VERTEX
  8
0
 10
0.223525
 20
0.731446
 30
0.0
 40
0
 41
0
  0
VERTEX
  8
0
 10
0.221789
 20
0.727106
 30
0.0
 40
0
 41
0
  0
VERTEX
  8
0
 10
0.220486
 20
0.722547
 30
0.0
 40
0
 41
0
  0
VERTEX
  8
0
 10
0.219672
 20
0.717936
 30
0.0
 40
0
 41
0
  0
VERTEX
  8
0
 10
0.219293
 20
0.713271
 30
0.0
 40
0
 41
0
  0
VERTEX
  8
0
 10
0.219347
 20
0.708604
 30
0.0
 40
0
 41
0
  0
VERTEX
  8
0
 10
0.219889
 20
0.703885
 30
0.0
 40
0
 41
0
  0
VERTEX
  8
0
 10
0.220865
 20
0.699328
 30
0.0
 40
0
 41
0
  0
VERTEX
  8
0
 10
0.222331
 20
0.694824
 30
0.0
 40
0
 41
0
  0
VERTEX
  8
0
 10
0.22309
 20
0.693033
 30
0.0
 40
0
 41
0
  0
VERTEX
  8
0
 10
0.224175
 20
0.690539
 30
0.0
 40
0
 41
0
  0
VERTEX
  8
0
 10
0.224229
 20
0.690429
 30
0.0
 40
0
 41
0
  0
VERTEX
  8
0
 10
0.226454
 20
0.686415
 30
0.0
 40
0
 41
0
  0
VERTEX
  8
0
 10
0.229112
 20
0.682563
 30
0.0
 40
0
 41
0
  0
VERTEX
  8
0
 10
0.23215
 20
0.678982
 30
0.0
 40
0
 41
0
  0
VERTEX
  8
0
 10
0.235568
 20
0.675726
 30
0.0
 40
0
 41
0
  0
VERTEX
  8
0
 10
0.23904
 20
0.672906
 30
0.0
 40
0
 41
0
  0
VERTEX
  8
0
 10
0.239204
 20
0.672797
 30
0.0
 40
0
 41
0
  0
VERTEX
  8
0
 10
0.243164
 20
0.670301
 30
0.0
 40
0
 41
0
  0
SEQEND
 8
0
  0
POLYLINE
  8
0
 62
     254
 66
     1
 10
0
 20
0
 30
0.0
 70
     1
 40
0
 41
0
  0
VERTEX
  8
0
 10
0.333171
 20
0.866808
 30
0.0
 40
0
 41
0
  0
VERTEX
  8
0
 10
0.336317
 20
0.865181
 30
0.0
 40
0
 41
0
  0
VERTEX
  8
0
 10
0.337349
 20
0.864637
 30
0.0
 40
0
 41
0
  0
VERTEX
  8
0
 10
0.340821
 20
0.863282
 30
0.0
 40
0
 41
0
  0
VERTEX
  8
0
 10
0.341743
 20
0.862901
 30
0.0
 40
0
 41
0
  0
VERTEX
  8
0
 10
0.346246
 20
0.861654
 30
0.0
 40
0
 41
0
  0
VERTEX
  8
0
 10
0.350857
 20
0.860786
 30
0.0
 40
0
 41
0
  0
VERTEX
  8
0
 10
0.355578
 20
0.86046
 30
0.0
 40
0
 41
0
  0
VERTEX
  8
0
 10
0.360243
 20
0.860514
 30
0.0
 40
0
 41
0
  0
VERTEX
  8
0
 10
0.364908
 20
0.861003
 30
0.0
 40
0
 41
0
  0
VERTEX
  8
0
 10
0.369467
 20
0.862033
 30
0.0
 40
0
 41
0
  0
VERTEX
  8
0
 10
0.373915
 20
0.863444
 30
0.0
 40
0
 41
0
  0
VERTEX
  8
0
 10
0.377983
 20
0.865181
 30
0.0
 40
0
 41
0
  0
VERTEX
  8
0
 10
0.378256
 20
0.865343
 30
0.0
 40
0
 41
0
  0
VERTEX
  8
0
 10
0.381131
 20
0.866917
 30
0.0
 40
0
 41
0
  0
VERTEX
  8
0
 10
0.382379
 20
0.867622
 30
0.0
 40
0
 41
0
  0
VERTEX
  8
0
 10
0.385146
 20
0.869521
 30
0.0
 40
0
 41
0
  0
VERTEX
  8
0
 10
0.386231
 20
0.870281
 30
0.0
 40
0
 41
0
  0
VERTEX
  8
0
 10
0.389811
 20
0.873318
 30
0.0
 40
0
 41
0
  0
VERTEX
  8
0
 10
0.393067
 20
0.876682
 30
0.0
 40
0
 41
0
  0
VERTEX
  8
0
 10
0.395942
 20
0.880317
 30
0.0
 40
0
 41
0
  0
VERTEX
  8
0
 10
0.395996
 20
0.880371
 30
0.0
 40
0
 41
0
  0
VERTEX
  8
0
 10
0.398546
 20
0.884332
 30
0.0
 40
0
 41
0
  0
VERTEX
  8
0
 10
0.399035
 20
0.885254
 30
0.0
 40
0
 41
0
  0
VERTEX
  8
0
 10
0.400663
 20
0.88851
 30
0.0
 40
0
 41
0
  0
VERTEX
  8
0
 10
0.402399
 20
0.892904
 30
0.0
 40
0
 41
0
  0
VERTEX
  8
0
 10
0.402886
 20
0.894586
 30
0.0
 40
0
 41
0
  0
VERTEX
  8
0
 10
0.4037
 20
0.897353
 30
0.0
 40
0
 41
0
  0
VERTEX
  8
0
 10
0.404514
 20
0.902018
 30
0.0
 40
0
 41
0
  0
VERTEX
  8
0
 10
0.404949
 20
0.906685
 30
0.0
 40
0
 41
0
  0
VERTEX
  8
0
 10
0.404839
 20
0.911404
 30
0.0
 40
0
 41
0
  0
VERTEX
  8
0
 10
0.404297
 20
0.916015
 30
0.0
 40
0
 41
0
  0
VERTEX
  8
0
 10
0.403321
 20
0.920628
 30
0.0
 40
0
 41
0
  0
VERTEX
  8
0
 10
0.40191
 20
0.925076
 30
0.0
 40
0
 41
0
  0
VERTEX
  8
0
 10
0.400011
 20
0.929417
 30
0.0
 40
0
 41
0
  0
VERTEX
  8
0
 10
0.399035
 20
0.931153
 30
0.0
 40
0
 41
0
  0
VERTEX
  8
0
 10
0.397732
 20
0.933485
 30
0.0
 40
0
 41
0
  0
VERTEX
  8
0
 10
0.396756
 20
0.93495
 30
0.0
 40
0
 41
0
  0
VERTEX
  8
0
 10
0.395019
 20
0.937392
 30
0.0
 40
0
 41
0
  0
VERTEX
  8
0
 10
0.391982
 20
0.940972
 30
0.0
 40
0
 41
0
  0
VERTEX
  8
0
 10
0.388672
 20
0.944228
 30
0.0
 40
0
 41
0
  0
VERTEX
  8
0
 10
0.384983
 20
0.947157
 30
0.0
 40
0
 41
0
  0
VERTEX
  8
0
 10
0.381022
 20
0.949707
 30
0.0
 40
0
 41
0
  0
VERTEX
  8
0
 10
0.376844
 20
0.951824
 30
0.0
 40
0
 41
0
  0
VERTEX
  8
0
 10
0.372504
 20
0.95356
 30
0.0
 40
0
 41
0
  0
VERTEX
  8
0
 10
0.367947
 20
0.954861
 30
0.0
 40
0
 41
0
  0
VERTEX
  8
0
 10
0.363336
 20
0.955675
 30
0.0
 40
0
 41
0
  0
VERTEX
  8
0
 10
0.358669
 20
0.956054
 30
0.0
 40
0
 41
0
  0
VERTEX
  8
0
 10
0.35395
 20
0.956
 30
0.0
 40
0
 41
0
  0
VERTEX
  8
0
 10
0.349283
 20
0.955458
 30
0.0
 40
0
 41
0
  0
VERTEX
  8
0
 10
0.344726
 20
0.954428
 30
0.0
 40
0
 41
0
  0
VERTEX
  8
0
 10
0.340821
 20
0.953179
 30
0.0
 40
0
 41
0
  0
VERTEX
  8
0
 10
0.340224
 20
0.953017
 30
0.0
 40
0
 41
0
  0
VERTEX
  8
0
 10
0.335938
 20
0.951172
 30
0.0
 40
0
 41
0
  0
VERTEX
  8
0
 10
0.333333
 20
0.949707
 30
0.0
 40
0
 41
0
  0
VERTEX
  8
0
 10
0.331868
 20
0.948839
 30
0.0
 40
0
 41
0
  0
VERTEX
  8
0
 10
0.328017
 20
0.946181
 30
0.0
 40
0
 41
0
  0
VERTEX
  8
0
 10
0.326714
 20
0.945096
 30
0.0
 40
0
 41
0
  0
VERTEX
  8
0
 10
0.324436
 20
0.943143
 30
0.0
 40
0
 41
0
  0
VERTEX
  8
0
 10
0.321126
 20
0.939779
 30
0.0
 40
0
 41
0
  0
VERTEX
  8
0
 10
0.318251
 20
0.936089
 30
0.0
 40
0
 41
0
  0
VERTEX
  8
0
 10
0.317437
 20
0.93495
 30
0.0
 40
0
 41
0
  0
VERTEX
  8
0
 10
0.315647
 20
0.932183
 30
0.0
 40
0
 41
0
  0
VERTEX
  8
0
 10
0.314507
 20
0.929958
 30
0.0
 40
0
 41
0
  0
VERTEX
  8
0
 10
0.313531
 20
0.928006
 30
0.0
 40
0
 41
0
  0
VERTEX
  8
0
 10
0.311794
 20
0.923611
 30
0.0
 40
0
 41
0
  0
VERTEX
  8
0
 10
0.310493
 20
0.919108
 30
0.0
 40
0
 41
0
  0
VERTEX
  8
0
 10
0.309679
 20
0.914497
 30
0.0
 40
0
 41
0
  0
VERTEX
  8
0
 10
0.309299
 20
0.909831
 30
0.0
 40
0
 41
0
  0
VERTEX
  8
0
 10
0.309353
 20
0.905111
 30
0.0
 40
0
 41
0
  0
VERTEX
  8
0
 10
0.309896
 20
0.900444
 30
0.0
 40
0
 41
0
  0
VERTEX
  8
0
 10
0.310926
 20
0.895887
 30
0.0
 40
0
 41
0
  0
VERTEX
  8
0
 10
0.311307
 20
0.894586
 30
0.0
 40
0
 41
0
  0
VERTEX
  8
0
 10
0.312338
 20
0.891385
 30
0.0
 40
0
 41
0
  0
VERTEX
  8
0
 10
0.314182
 20
0.887099
 30
0.0
 40
0
 41
0
  0
VERTEX
  8
0
 10
0.314507
 20
0.886447
 30
0.0
 40
0
 41
0
  0
VERTEX
  8
0
 10
0.316461
 20
0.882975
 30
0.0
 40
0
 41
0
  0
VERTEX
  8
0
 10
0.318793
 20
0.879611
 30
0.0
 40
0
 41
0
  0
VERTEX
  8
0
 10
0.319119
 20
0.879124
 30
0.0
 40
0
 41
0
  0
VERTEX
  8
0
 10
0.322157
 20
0.875543
 30
0.0
 40
0
 41
0
  0
VERTEX
  8
0
 10
0.325575
 20
0.872287
 30
0.0
 40
0
 41
0
  0
VERTEX
  8
0
 10
0.329156
 20
0.869358
 30
0.0
 40
0
 41
0
  0
VERTEX
  8
0
 10
0.32921
 20
0.869358
 30
0.0
 40
0
 41
0
  0
VERTEX
  8
0
 10
0.333171
 20
0.866808
 30
0.0
 40
0
 41
0
  0
SEQEND
 8
0
  0
POLYLINE
  8
0
 62
     1
 66
     1
 10
0
 20
0
 30
0.0
 70
     1
 40
0.0107136
 41
0.0107136
  0
VERTEX
  8
0
 10
1.08702
 20
1.31825
 30
0.0
 40
0.0001488
 41
0.0001488
  0
VERTEX
  8
0
 10
1.08697
 20
1.3182
 30
0.0
 40
0.0001488
 41
0.0001488
  0
VERTEX
  8
0
 10
1.08697
 20
1.31413
 30
0.0
 40
0.0001488
 41
0.0001488
  0
VERTEX
  8
0
 10
1.08691
 20
1.31147
 30
0.0
 40
0.0001488
 41
0.0001488
  0
VERTEX
  8
0
 10
1.08691
 20
1.30827
 30
0.0
 40
0.0001488
 41
0.0001488
  0
VERTEX
  8
0
 10
1.08686
 20
1.30469
 30
0.0
 40
0.0001488
 41
0.0001488
  0
VERTEX
  8
0
 10
1.08686
 20
1.30111
 30
0.0
 40
0.0001488
 41
0.0001488
  0
VERTEX
  8
0
 10
1.08681
 20
1.29693
 30
0.0
 40
0.0001488
 41
0.0001488
  0
VERTEX
  8
0
 10
1.08681
 20
1.29666
 30
0.0
 40
0.0001488
 41
0.0001488
  0
VERTEX
  8
0
 10
1.09321
 20
1.29666
 30
0.0
 40
0.0001488
 41
0.0001488
  0
VERTEX
  8
0
 10
1.23069
 20
1.29579
 30
0.0
 40
0.0001488
 41
0.0001488
  0
VERTEX
  8
0
 10
1.08453
 20
1.03912
 30
0.0
 40
0.0001488
 41
0.0001488
  0
VERTEX
  8
0
 10
0.821724
 20
0.577582
 30
0.0
 40
0.0001488
 41
0.0001488
  0
VERTEX
  8
0
 10
0.602539
 20
0.192708
 30
0.0
 40
0.0001488
 41
0.0001488
  0
VERTEX
  8
0
 10
0.564833
 20
0.126519
 30
0.0
 40
0.0001488
 41
0.0001488
  0
VERTEX
  8
0
 10
0.472222
 20
0.127062
 30
0.0
 40
0.0001488
 41
0.0001488
  0
VERTEX
  8
0
 10
0.451064
 20
0.127224
 30
0.0
 40
0.0001488
 41
0.0001488
  0
VERTEX
  8
0
 10
0.447428
 20
0.127224
 30
0.0
 40
0.0001488
 41
0.0001488
  0
VERTEX
  8
0
 10
0.443414
 20
0.127279
 30
0.0
 40
0.0001488
 41
0.0001488
  0
VERTEX
  8
0
 10
0.443306
 20
0.115343
 30
0.0
 40
0.0001488
 41
0.0001488
  0
VERTEX
  8
0
 10
0.443251
 20
0.10829
 30
0.0
 40
0.0001488
 41
0.0001488
  0
VERTEX
  8
0
 10
0.443251
 20
0.106879
 30
0.0
 40
0.0001488
 41
0.0001488
  0
VERTEX
  8
0
 10
0.445475
 20
0.103841
 30
0.0
 40
0.0001488
 41
0.0001488
  0
VERTEX
  8
0
 10
0.448622
 20
0.0974935
 30
0.0
 40
0.0001488
 41
0.0001488
  0
VERTEX
  8
0
 10
0.450521
 20
0.0910915
 30
0.0
 40
0.0001488
 41
0.0001488
  0
VERTEX
  8
0
 10
0.451064
 20
0.0846354
 30
0.0
 40
0.0001488
 41
0.0001488
  0
VERTEX
  8
0
 10
0.45025
 20
0.0781793
 30
0.0
 40
0.0001488
 41
0.0001488
  0
VERTEX
  8
0
 10
0.448188
 20
0.0718317
 30
0.0
 40
0.0001488
 41
0.0001488
  0
VERTEX
  8
0
 10
0.444824
 20
0.0656467
 30
0.0
 40
0.0001488
 41
0.0001488
  0
VERTEX
  8
0
 10
0.442871
 20
0.0632053
 30
0.0
 40
0.0001488
 41
0.0001488
  0
VERTEX
  8
0
 10
0.442871
 20
0.0605469
 30
0.0
 40
0.0001488
 41
0.0001488
  0
VERTEX
  8
0
 10
0.442817
 20
0.0581597
 30
0.0
 40
0.0001488
 41
0.0001488
  0
VERTEX
  8
0
 10
0.442708
 20
0.0458985
 30
0.0
 40
0.0001488
 41
0.0001488
  0
VERTEX
  8
0
 10
0.270019
 20
0.0474175
 30
0.0
 40
0.0001488
 41
0.0001488
  0
VERTEX
  8
0
 10
0.183757
 20
0.0481771
 30
0.0
 40
0.0001488
 41
0.0001488
  0
VERTEX
  8
0
 10
0.183703
 20
0.0481771
 30
0.0
 40
0.0001488
 41
0.0001488
  0
VERTEX
  8
0
 10
0.183865
 20
0.0660265
 30
0.0
 40
0.0001488
 41
0.0001488
  0
VERTEX
  8
0
 10
0.183865
 20
0.0672743
 30
0.0
 40
0.0001488
 41
0.0001488
  0
VERTEX
  8
0
 10
0.181694
 20
0.0702582
 30
0.0
 40
0.0001488
 41
0.0001488
  0
VERTEX
  8
0
 10
0.179579
 20
0.07449
 30
0.0
 40
0.0001488
 41
0.0001488
  0
VERTEX
  8
0
 10
0.178494
 20
0.076606
 30
0.0
 40
0.0001488
 41
0.0001488
  0
VERTEX
  8
0
 10
0.17665
 20
0.0830078
 30
0.0
 40
0.0001488
 41
0.0001488
  0
VERTEX
  8
0
 10
0.176107
 20
0.089464
 30
0.0
 40
0.0001488
 41
0.0001488
  0
VERTEX
  8
0
 10
0.176867
 20
0.0958658
 30
0.0
 40
0.0001488
 41
0.0001488
  0
VERTEX
  8
0
 10
0.178982
 20
0.102214
 30
0.0
 40
0.0001488
 41
0.0001488
  0
VERTEX
  8
0
 10
0.179579
 20
0.103299
 30
0.0
 40
0.0001488
 41
0.0001488
  0
VERTEX
  8
0
 10
0.182346
 20
0.108398
 30
0.0
 40
0.0001488
 41
0.0001488
  0
VERTEX
  8
0
 10
0.184244
 20
0.11084
 30
0.0
 40
0.0001488
 41
0.0001488
  0
VERTEX
  8
0
 10
0.184244
 20
0.113553
 30
0.0
 40
0.0001488
 41
0.0001488
  0
VERTEX
  8
0
 10
0.184299
 20
0.115831
 30
0.0
 40
0.0001488
 41
0.0001488
  0
VERTEX
  8
0
 10
0.184407
 20
0.128635
 30
0.0
 40
0.0001488
 41
0.0001488
  0
VERTEX
  8
0
 10
0.184407
 20
0.128852
 30
0.0
 40
0.0001488
 41
0.0001488
  0
VERTEX
  8
0
 10
0.179579
 20
0.128906
 30
0.0
 40
0.0001488
 41
0.0001488
  0
VERTEX
  8
0
 10
0.176107
 20
0.128906
 30
0.0
 40
0.0001488
 41
0.0001488
  0
VERTEX
  8
0
 10
0.0393881
 20
0.129774
 30
0.0
 40
0.0001488
 41
0.0001488
  0
VERTEX
  8
0
 10
0.0824653
 20
0.205404
 30
0.0
 40
0.0001488
 41
0.0001488
  0
VERTEX
  8
0
 10
0.108344
 20
0.250868
 30
0.0
 40
0.0001488
 41
0.0001488
  0
VERTEX
  8
0
 10
0.216581
 20
0.440918
 30
0.0
 40
0.0001488
 41
0.0001488
  0
VERTEX
  8
0
 10
0.0824653
 20
0.554199
 30
0.0
 40
0.0001488
 41
0.0001488
  0
VERTEX
  8
0
 10
0.0853407
 20
0.880968
 30
0.0
 40
0.0001488
 41
0.0001488
  0
VERTEX
  8
0
 10
0.219293
 20
0.990181
 30
0.0
 40
0.0001488
 41
0.0001488
  0
VERTEX
  8
0
 10
0.224229
 20
0.994249
 30
0.0
 40
0.0001488
 41
0.0001488
  0
VERTEX
  8
0
 10
0.249729
 20
1.01497
 30
0.0
 40
0.0001488
 41
0.0001488
  0
VERTEX
  8
0
 10
0.250217
 20
1.0708
 30
0.0
 40
0.0001488
 41
0.0001488
  0
VERTEX
  8
0
 10
0.252225
 20
1.30431
 30
0.0
 40
0.0001488
 41
0.0001488
  0
VERTEX
  8
0
 10
0.274306
 20
1.30409
 30
0.0
 40
0.0001488
 41
0.0001488
  0
VERTEX
  8
0
 10
0.281033
 20
1.30404
 30
0.0
 40
0.0001488
 41
0.0001488
  0
VERTEX
  8
0
 10
0.281196
 20
1.32541
 30
0.0
 40
0.0001488
 41
0.0001488
  0
VERTEX
  8
0
 10
0.281196
 20
1.32737
 30
0.0
 40
0.0001488
 41
0.0001488
  0
VERTEX
  8
0
 10
0.278646
 20
1.33198
 30
0.0
 40
0.0001488
 41
0.0001488
  0
VERTEX
  8
0
 10
0.276204
 20
1.33805
 30
0.0
 40
0.0001488
 41
0.0001488
  0
VERTEX
  8
0
 10
0.27615
 20
1.33827
 30
0.0
 40
0.0001488
 41
0.0001488
  0
VERTEX
  8
0
 10
0.27474
 20
1.34467
 30
0.0
 40
0.0001488
 41
0.0001488
  0
VERTEX
  8
0
 10
0.274306
 20
1.35113
 30
0.0
 40
0.0001488
 41
0.0001488
  0
VERTEX
  8
0
 10
0.274903
 20
1.35758
 30
0.0
 40
0.0001488
 41
0.0001488
  0
VERTEX
  8
0
 10
0.276639
 20
1.36388
 30
0.0
 40
0.0001488
 41
0.0001488
  0
VERTEX
  8
0
 10
0.279297
 20
1.37006
 30
0.0
 40
0.0001488
 41
0.0001488
  0
VERTEX
  8
0
 10
0.281629
 20
1.37392
 30
0.0
 40
0.0001488
 41
0.0001488
  0
VERTEX
  8
0
 10
0.281629
 20
1.37598
 30
0.0
 40
0.0001488
 41
0.0001488
  0
VERTEX
  8
0
 10
0.281685
 20
1.3782
 30
0.0
 40
0.0001488
 41
0.0001488
  0
VERTEX
  8
0
 10
0.281685
 20
1.38384
 30
0.0
 40
0.0001488
 41
0.0001488
  0
VERTEX
  8
0
 10
0.281739
 20
1.38699
 30
0.0
 40
0.0001488
 41
0.0001488
  0
VERTEX
  8
0
 10
0.281793
 20
1.39063
 30
0.0
 40
0.0001488
 41
0.0001488
  0
VERTEX
  8
0
 10
0.281793
 20
1.39117
 30
0.0
 40
0.0001488
 41
0.0001488
  0
VERTEX
  8
0
 10
0.483236
 20
1.38943
 30
0.0
 40
0.0001488
 41
0.0001488
  0
VERTEX
  8
0
 10
0.483182
 20
1.382
 30
0.0
 40
0.0001488
 41
0.0001488
  0
VERTEX
  8
0
 10
0.483074
 20
1.37316
 30
0.0
 40
0.0001488
 41
0.0001488
  0
VERTEX
  8
0
 10
0.483074
 20
1.37109
 30
0.0
 40
0.0001488
 41
0.0001488
  0
VERTEX
  8
0
 10
0.485678
 20
1.36648
 30
0.0
 40
0.0001488
 41
0.0001488
  0
VERTEX
  8
0
 10
0.488118
 20
1.36019
 30
0.0
 40
0.0001488
 41
0.0001488
  0
VERTEX
  8
0
 10
0.489583
 20
1.35379
 30
0.0
 40
0.0001488
 41
0.0001488
  0
VERTEX
  8
0
 10
0.489963
 20
1.34738
 30
0.0
 40
0.0001488
 41
0.0001488
  0
VERTEX
  8
0
 10
0.489312
 20
1.34093
 30
0.0
 40
0.0001488
 41
0.0001488
  0
VERTEX
  8
0
 10
0.488607
 20
1.33805
 30
0.0
 40
0.0001488
 41
0.0001488
  0
VERTEX
  8
0
 10
0.487685
 20
1.33458
 30
0.0
 40
0.0001488
 41
0.0001488
  0
VERTEX
  8
0
 10
0.485026
 20
1.32834
 30
0.0
 40
0.0001488
 41
0.0001488
  0
VERTEX
  8
0
 10
0.482639
 20
1.32454
 30
0.0
 40
0.0001488
 41
0.0001488
  0
VERTEX
  8
0
 10
0.482639
 20
1.32026
 30
0.0
 40
0.0001488
 41
0.0001488
  0
VERTEX
  8
0
 10
0.482585
 20
1.31765
 30
0.0
 40
0.0001488
 41
0.0001488
  0
VERTEX
  8
0
 10
0.482585
 20
1.31467
 30
0.0
 40
0.0001488
 41
0.0001488
  0
VERTEX
  8
0
 10
0.482531
 20
1.31136
 30
0.0
 40
0.0001488
 41
0.0001488
  0
VERTEX
  8
0
 10
0.482531
 20
1.30805
 30
0.0
 40
0.0001488
 41
0.0001488
  0
VERTEX
  8
0
 10
0.482476
 20
1.30387
 30
0.0
 40
0.0001488
 41
0.0001488
  0
VERTEX
  8
0
 10
0.482476
 20
1.3023
 30
0.0
 40
0.0001488
 41
0.0001488
  0
VERTEX
  8
0
 10
0.489963
 20
1.30225
 30
0.0
 40
0.0001488
 41
0.0001488
  0
VERTEX
  8
0
 10
0.511285
 20
1.30203
 30
0.0
 40
0.0001488
 41
0.0001488
  0
VERTEX
  8
0
 10
0.508192
 20
0.952962
 30
0.0
 40
0.0001488
 41
0.0001488
  0
VERTEX
  8
0
 10
0.597168
 20
1.10921
 30
0.0
 40
0.0001488
 41
0.0001488
  0
VERTEX
  8
0
 10
0.602539
 20
1.11865
 30
0.0
 40
0.0001488
 41
0.0001488
  0
VERTEX
  8
0
 10
0.687011
 20
1.26693
 30
0.0
 40
0.0001488
 41
0.0001488
  0
VERTEX
  8
0
 10
0.692817
 20
1.27713
 30
0.0
 40
0.0001488
 41
0.0001488
  0
VERTEX
  8
0
 10
0.705296
 20
1.29905
 30
0.0
 40
0.0001488
 41
0.0001488
  0
VERTEX
  8
0
 10
0.820692
 20
1.29829
 30
0.0
 40
0.0001488
 41
0.0001488
  0
VERTEX
  8
0
 10
0.8278
 20
1.29829
 30
0.0
 40
0.0001488
 41
0.0001488
  0
VERTEX
  8
0
 10
0.827963
 20
1.3189
 30
0.0
 40
0.0001488
 41
0.0001488
  0
VERTEX
  8
0
 10
0.827963
 20
1.32004
 30
0.0
 40
0.0001488
 41
0.0001488
  0
VERTEX
  8
0
 10
0.826172
 20
1.32275
 30
0.0
 40
0.0001488
 41
0.0001488
  0
VERTEX
  8
0
 10
0.823025
 20
1.32959
 30
0.0
 40
0.0001488
 41
0.0001488
  0
VERTEX
  8
0
 10
0.821181
 20
1.33648
 30
0.0
 40
0.0001488
 41
0.0001488
  0
VERTEX
  8
0
 10
0.820692
 20
1.34348
 30
0.0
 40
0.0001488
 41
0.0001488
  0
VERTEX
  8
0
 10
0.821451
 20
1.35042
 30
0.0
 40
0.0001488
 41
0.0001488
  0
VERTEX
  8
0
 10
0.823514
 20
1.35731
 30
0.0
 40
0.0001488
 41
0.0001488
  0
VERTEX
  8
0
 10
0.824599
 20
1.35948
 30
0.0
 40
0.0001488
 41
0.0001488
  0
VERTEX
  8
0
 10
0.826878
 20
1.36399
 30
0.0
 40
0.0001488
 41
0.0001488
  0
VERTEX
  8
0
 10
0.828396
 20
1.36605
 30
0.0
 40
0.0001488
 41
0.0001488
  0
VERTEX
  8
0
 10
0.828396
 20
1.37174
 30
0.0
 40
0.0001488
 41
0.0001488
  0
VERTEX
  8
0
 10
0.82845
 20
1.37478
 30
0.0
 40
0.0001488
 41
0.0001488
  0
VERTEX
  8
0
 10
0.82845
 20
1.3782
 30
0.0
 40
0.0001488
 41
0.0001488
  0
VERTEX
  8
0
 10
0.828504
 20
1.38167
 30
0.0
 40
0.0001488
 41
0.0001488
  0
VERTEX
  8
0
 10
0.82856
 20
1.38569
 30
0.0
 40
0.0001488
 41
0.0001488
  0
VERTEX
  8
0
 10
0.82856
 20
1.38645
 30
0.0
 40
0.0001488
 41
0.0001488
  0
VERTEX
  8
0
 10
1.08757
 20
1.38417
 30
0.0
 40
0.0001488
 41
0.0001488
  0
VERTEX
  8
0
 10
1.0874
 20
1.36561
 30
0.0
 40
0.0001488
 41
0.0001488
  0
VERTEX
  8
0
 10
1.08735
 20
1.36019
 30
0.0
 40
0.0001488
 41
0.0001488
  0
VERTEX
  8
0
 10
1.08735
 20
1.35997
 30
0.0
 40
0.0001488
 41
0.0001488
  0
VERTEX
  8
0
 10
1.08773
 20
1.35943
 30
0.0
 40
0.0001488
 41
0.0001488
  0
VERTEX
  8
0
 10
1.09087
 20
1.35259
 30
0.0
 40
0.0001488
 41
0.0001488
  0
VERTEX
  8
0
 10
1.09272
 20
1.34565
 30
0.0
 40
0.0001488
 41
0.0001488
  0
VERTEX
  8
0
 10
1.09321
 20
1.3387
 30
0.0
 40
0.0001488
 41
0.0001488
  0
VERTEX
  8
0
 10
1.09315
 20
1.33805
 30
0.0
 40
0.0001488
 41
0.0001488
  0
VERTEX
  8
0
 10
1.09245
 20
1.33176
 30
0.0
 40
0.0001488
 41
0.0001488
  0
VERTEX
  8
0
 10
1.09033
 20
1.32492
 30
0.0
 40
0.0001488
 41
0.0001488
  0
VERTEX
  8
0
 10
1.08702
 20
1.31825
 30
0.0
 40
0.0001488
 41
0.0001488
  0
SEQEND
 8
0
  0
POLYLINE
  8
0
 62
     1
 66
     1
 10
0
 20
0
 30
0.0
 70
     1
 40
0.0107136
 41
0.0107136
  0
VERTEX
  8
0
 10
0.495714
 20
0.687392
 30
0.0
 40
0.0001488
 41
0.0001488
  0
VERTEX
  8
0
 10
0.497342
 20
0.690539
 30
0.0
 40
0.0001488
 41
0.0001488
  0
VERTEX
  8
0
 10
0.498318
 20
0.693033
 30
0.0
 40
0.0001488
 41
0.0001488
  0
VERTEX
  8
0
 10
0.499078
 20
0.694933
 30
0.0
 40
0.0001488
 41
0.0001488
  0
VERTEX
  8
0
 10
0.500379
 20
0.699436
 30
0.0
 40
0.0001488
 41
0.0001488
  0
VERTEX
  8
0
 10
0.501193
 20
0.704047
 30
0.0
 40
0.0001488
 41
0.0001488
  0
VERTEX
  8
0
 10
0.501574
 20
0.708768
 30
0.0
 40
0.0001488
 41
0.0001488
  0
VERTEX
  8
0
 10
0.501519
 20
0.713433
 30
0.0
 40
0.0001488
 41
0.0001488
  0
VERTEX
  8
0
 10
0.500976
 20
0.718099
 30
0.0
 40
0.0001488
 41
0.0001488
  0
VERTEX
  8
0
 10
0.5
 20
0.722657
 30
0.0
 40
0.0001488
 41
0.0001488
  0
VERTEX
  8
0
 10
0.498535
 20
0.72716
 30
0.0
 40
0.0001488
 41
0.0001488
  0
VERTEX
  8
0
 10
0.49669
 20
0.731446
 30
0.0
 40
0.0001488
 41
0.0001488
  0
VERTEX
  8
0
 10
0.495714
 20
0.733236
 30
0.0
 40
0.0001488
 41
0.0001488
  0
VERTEX
  8
0
 10
0.49566
 20
0.733344
 30
0.0
 40
0.0001488
 41
0.0001488
  0
VERTEX
  8
0
 10
0.494412
 20
0.735568
 30
0.0
 40
0.0001488
 41
0.0001488
  0
VERTEX
  8
0
 10
0.491754
 20
0.739475
 30
0.0
 40
0.0001488
 41
0.0001488
  0
VERTEX
  8
0
 10
0.491157
 20
0.740126
 30
0.0
 40
0.0001488
 41
0.0001488
  0
VERTEX
  8
0
 10
0.488715
 20
0.743056
 30
0.0
 40
0.0001488
 41
0.0001488
  0
VERTEX
  8
0
 10
0.485297
 20
0.746257
 30
0.0
 40
0.0001488
 41
0.0001488
  0
VERTEX
  8
0
 10
0.481662
 20
0.74924
 30
0.0
 40
0.0001488
 41
0.0001488
  0
VERTEX
  8
0
 10
0.479818
 20
0.750379
 30
0.0
 40
0.0001488
 41
0.0001488
  0
VERTEX
  8
0
 10
0.477701
 20
0.751736
 30
0.0
 40
0.0001488
 41
0.0001488
  0
VERTEX
  8
0
 10
0.477647
 20
0.751736
 30
0.0
 40
0.0001488
 41
0.0001488
  0
VERTEX
  8
0
 10
0.477214
 20
0.751953
 30
0.0
 40
0.0001488
 41
0.0001488
  0
VERTEX
  8
0
 10
0.473525
 20
0.753907
 30
0.0
 40
0.0001488
 41
0.0001488
  0
VERTEX
  8
0
 10
0.469129
 20
0.755643
 30
0.0
 40
0.0001488
 41
0.0001488
  0
VERTEX
  8
0
 10
0.464626
 20
0.75689
 30
0.0
 40
0.0001488
 41
0.0001488
  0
VERTEX
  8
0
 10
0.461751
 20
0.757433
 30
0.0
 40
0.0001488
 41
0.0001488
  0
VERTEX
  8
0
 10
0.460015
 20
0.757758
 30
0.0
 40
0.0001488
 41
0.0001488
  0
VERTEX
  8
0
 10
0.45535
 20
0.758137
 30
0.0
 40
0.0001488
 41
0.0001488
  0
VERTEX
  8
0
 10
0.450629
 20
0.758029
 30
0.0
 40
0.0001488
 41
0.0001488
  0
VERTEX
  8
0
 10
0.445964
 20
0.757542
 30
0.0
 40
0.0001488
 41
0.0001488
  0
VERTEX
  8
0
 10
0.441351
 20
0.756565
 30
0.0
 40
0.0001488
 41
0.0001488
  0
VERTEX
  8
0
 10
0.436903
 20
0.7551
 30
0.0
 40
0.0001488
 41
0.0001488
  0
VERTEX
  8
0
 10
0.432617
 20
0.753256
 30
0.0
 40
0.0001488
 41
0.0001488
  0
VERTEX
  8
0
 10
0.430339
 20
0.751953
 30
0.0
 40
0.0001488
 41
0.0001488
  0
VERTEX
  8
0
 10
0.428494
 20
0.750976
 30
0.0
 40
0.0001488
 41
0.0001488
  0
VERTEX
  8
0
 10
0.424642
 20
0.748264
 30
0.0
 40
0.0001488
 41
0.0001488
  0
VERTEX
  8
0
 10
0.423665
 20
0.747396
 30
0.0
 40
0.0001488
 41
0.0001488
  0
VERTEX
  8
0
 10
0.421442
 20
0.745551
 30
0.0
 40
0.0001488
 41
0.0001488
  0
VERTEX
  8
0
 10
0.421061
 20
0.745226
 30
0.0
 40
0.0001488
 41
0.0001488
  0
VERTEX
  8
0
 10
0.417806
 20
0.741863
 30
0.0
 40
0.0001488
 41
0.0001488
  0
VERTEX
  8
0
 10
0.414876
 20
0.738172
 30
0.0
 40
0.0001488
 41
0.0001488
  0
VERTEX
  8
0
 10
0.4139
 20
0.736708
 30
0.0
 40
0.0001488
 41
0.0001488
  0
VERTEX
  8
0
 10
0.412326
 20
0.734213
 30
0.0
 40
0.0001488
 41
0.0001488
  0
VERTEX
  8
0
 10
0.411242
 20
0.73215
 30
0.0
 40
0.0001488
 41
0.0001488
  0
VERTEX
  8
0
 10
0.410211
 20
0.730035
 30
0.0
 40
0.0001488
 41
0.0001488
  0
VERTEX
  8
0
 10
0.408475
 20
0.725694
 30
0.0
 40
0.0001488
 41
0.0001488
  0
VERTEX
  8
0
 10
0.407172
 20
0.721192
 30
0.0
 40
0.0001488
 41
0.0001488
  0
VERTEX
  8
0
 10
0.406358
 20
0.716525
 30
0.0
 40
0.0001488
 41
0.0001488
  0
VERTEX
  8
0
 10
0.405925
 20
0.711914
 30
0.0
 40
0.0001488
 41
0.0001488
  0
VERTEX
  8
0
 10
0.406033
 20
0.707194
 30
0.0
 40
0.0001488
 41
0.0001488
  0
VERTEX
  8
0
 10
0.406575
 20
0.702528
 30
0.0
 40
0.0001488
 41
0.0001488
  0
VERTEX
  8
0
 10
0.407553
 20
0.697917
 30
0.0
 40
0.0001488
 41
0.0001488
  0
VERTEX
  8
0
 10
0.408962
 20
0.693468
 30
0.0
 40
0.0001488
 41
0.0001488
  0
VERTEX
  8
0
 10
0.409179
 20
0.693033
 30
0.0
 40
0.0001488
 41
0.0001488
  0
VERTEX
  8
0
 10
0.410861
 20
0.689128
 30
0.0
 40
0.0001488
 41
0.0001488
  0
VERTEX
  8
0
 10
0.411242
 20
0.688422
 30
0.0
 40
0.0001488
 41
0.0001488
  0
VERTEX
  8
0
 10
0.41314
 20
0.685058
 30
0.0
 40
0.0001488
 41
0.0001488
  0
VERTEX
  8
0
 10
0.415853
 20
0.681207
 30
0.0
 40
0.0001488
 41
0.0001488
  0
VERTEX
  8
0
 10
0.418837
 20
0.677626
 30
0.0
 40
0.0001488
 41
0.0001488
  0
VERTEX
  8
0
 10
0.421442
 20
0.675076
 30
0.0
 40
0.0001488
 41
0.0001488
  0
VERTEX
  8
0
 10
0.422254
 20
0.674317
 30
0.0
 40
0.0001488
 41
0.0001488
  0
VERTEX
  8
0
 10
0.42589
 20
0.671442
 30
0.0
 40
0.0001488
 41
0.0001488
  0
VERTEX
  8
0
 10
0.425999
 20
0.671386
 30
0.0
 40
0.0001488
 41
0.0001488
  0
VERTEX
  8
0
 10
0.42985
 20
0.668837
 30
0.0
 40
0.0001488
 41
0.0001488
  0
VERTEX
  8
0
 10
0.432563
 20
0.667481
 30
0.0
 40
0.0001488
 41
0.0001488
  0
VERTEX
  8
0
 10
0.434028
 20
0.666721
 30
0.0
 40
0.0001488
 41
0.0001488
  0
VERTEX
  8
0
 10
0.438368
 20
0.664985
 30
0.0
 40
0.0001488
 41
0.0001488
  0
VERTEX
  8
0
 10
0.442925
 20
0.663683
 30
0.0
 40
0.0001488
 41
0.0001488
  0
VERTEX
  8
0
 10
0.447537
 20
0.662869
 30
0.0
 40
0.0001488
 41
0.0001488
  0
VERTEX
  8
0
 10
0.452203
 20
0.662489
 30
0.0
 40
0.0001488
 41
0.0001488
  0
VERTEX
  8
0
 10
0.456868
 20
0.662543
 30
0.0
 40
0.0001488
 41
0.0001488
  0
VERTEX
  8
0
 10
0.461589
 20
0.66314
 30
0.0
 40
0.0001488
 41
0.0001488
  0
VERTEX
  8
0
 10
0.461751
 20
0.66314
 30
0.0
 40
0.0001488
 41
0.0001488
  0
VERTEX
  8
0
 10
0.466146
 20
0.664117
 30
0.0
 40
0.0001488
 41
0.0001488
  0
VERTEX
  8
0
 10
0.470649
 20
0.665582
 30
0.0
 40
0.0001488
 41
0.0001488
  0
VERTEX
  8
0
 10
0.474935
 20
0.667426
 30
0.0
 40
0.0001488
 41
0.0001488
  0
VERTEX
  8
0
 10
0.475043
 20
0.667481
 30
0.0
 40
0.0001488
 41
0.0001488
  0
VERTEX
  8
0
 10
0.476942
 20
0.668511
 30
0.0
 40
0.0001488
 41
0.0001488
  0
VERTEX
  8
0
 10
0.479004
 20
0.669706
 30
0.0
 40
0.0001488
 41
0.0001488
  0
VERTEX
  8
0
 10
0.482206
 20
0.671875
 30
0.0
 40
0.0001488
 41
0.0001488
  0
VERTEX
  8
0
 10
0.48291
 20
0.672364
 30
0.0
 40
0.0001488
 41
0.0001488
  0
VERTEX
  8
0
 10
0.486436
 20
0.675401
 30
0.0
 40
0.0001488
 41
0.0001488
  0
VERTEX
  8
0
 10
0.489746
 20
0.678765
 30
0.0
 40
0.0001488
 41
0.0001488
  0
VERTEX
  8
0
 10
0.492676
 20
0.682454
 30
0.0
 40
0.0001488
 41
0.0001488
  0
VERTEX
  8
0
 10
0.492893
 20
0.682835
 30
0.0
 40
0.0001488
 41
0.0001488
  0
VERTEX
  8
0
 10
0.495171
 20
0.686361
 30
0.0
 40
0.0001488
 41
0.0001488
  0
VERTEX
  8
0
 10
0.495714
 20
0.687392
 30
0.0
 40
0.0001488
 41
0.0001488
  0
SEQEND
 8
0
  0
POLYLINE
  8
0
 62
     1
 66
     1
 10
0
 20
0
 30
0.0
 70
     1
 40
0.0107136
 41
0.0107136
  0
VERTEX
  8
0
 10
0.687011
 20
0.684842
 30
0.0
 40
0.0001488
 41
0.0001488
  0
VERTEX
  8
0
 10
0.688531
 20
0.687825
 30
0.0
 40
0.0001488
 41
0.0001488
  0
VERTEX
  8
0
 10
0.690267
 20
0.692219
 30
0.0
 40
0.0001488
 41
0.0001488
  0
VERTEX
  8
0
 10
0.690539
 20
0.693033
 30
0.0
 40
0.0001488
 41
0.0001488
  0
VERTEX
  8
0
 10
0.691569
 20
0.696724
 30
0.0
 40
0.0001488
 41
0.0001488
  0
VERTEX
  8
0
 10
0.692383
 20
0.701335
 30
0.0
 40
0.0001488
 41
0.0001488
  0
VERTEX
  8
0
 10
0.692817
 20
0.706
 30
0.0
 40
0.0001488
 41
0.0001488
  0
VERTEX
  8
0
 10
0.692708
 20
0.710721
 30
0.0
 40
0.0001488
 41
0.0001488
  0
VERTEX
  8
0
 10
0.692165
 20
0.715386
 30
0.0
 40
0.0001488
 41
0.0001488
  0
VERTEX
  8
0
 10
0.691189
 20
0.719943
 30
0.0
 40
0.0001488
 41
0.0001488
  0
VERTEX
  8
0
 10
0.689779
 20
0.724393
 30
0.0
 40
0.0001488
 41
0.0001488
  0
VERTEX
  8
0
 10
0.687879
 20
0.728733
 30
0.0
 40
0.0001488
 41
0.0001488
  0
VERTEX
  8
0
 10
0.687011
 20
0.730306
 30
0.0
 40
0.0001488
 41
0.0001488
  0
VERTEX
  8
0
 10
0.685601
 20
0.732856
 30
0.0
 40
0.0001488
 41
0.0001488
  0
VERTEX
  8
0
 10
0.685221
 20
0.733344
 30
0.0
 40
0.0001488
 41
0.0001488
  0
VERTEX
  8
0
 10
0.682943
 20
0.736708
 30
0.0
 40
0.0001488
 41
0.0001488
  0
VERTEX
  8
0
 10
0.682671
 20
0.737033
 30
0.0
 40
0.0001488
 41
0.0001488
  0
VERTEX
  8
0
 10
0.679904
 20
0.740289
 30
0.0
 40
0.0001488
 41
0.0001488
  0
VERTEX
  8
0
 10
0.67654
 20
0.743544
 30
0.0
 40
0.0001488
 41
0.0001488
  0
VERTEX
  8
0
 10
0.672851
 20
0.746474
 30
0.0
 40
0.0001488
 41
0.0001488
  0
VERTEX
  8
0
 10
0.671983
 20
0.747017
 30
0.0
 40
0.0001488
 41
0.0001488
  0
VERTEX
  8
0
 10
0.668892
 20
0.749024
 30
0.0
 40
0.0001488
 41
0.0001488
  0
VERTEX
  8
0
 10
0.666342
 20
0.750325
 30
0.0
 40
0.0001488
 41
0.0001488
  0
VERTEX
  8
0
 10
0.664714
 20
0.751139
 30
0.0
 40
0.0001488
 41
0.0001488
  0
VERTEX
  8
0
 10
0.660374
 20
0.752875
 30
0.0
 40
0.0001488
 41
0.0001488
  0
VERTEX
  8
0
 10
0.655817
 20
0.754178
 30
0.0
 40
0.0001488
 41
0.0001488
  0
VERTEX
  8
0
 10
0.651204
 20
0.754992
 30
0.0
 40
0.0001488
 41
0.0001488
  0
VERTEX
  8
0
 10
0.646539
 20
0.755425
 30
0.0
 40
0.0001488
 41
0.0001488
  0
VERTEX
  8
0
 10
0.641872
 20
0.755317
 30
0.0
 40
0.0001488
 41
0.0001488
  0
VERTEX
  8
0
 10
0.637207
 20
0.754775
 30
0.0
 40
0.0001488
 41
0.0001488
  0
VERTEX
  8
0
 10
0.632596
 20
0.753797
 30
0.0
 40
0.0001488
 41
0.0001488
  0
VERTEX
  8
0
 10
0.628093
 20
0.752333
 30
0.0
 40
0.0001488
 41
0.0001488
  0
VERTEX
  8
0
 10
0.623807
 20
0.750489
 30
0.0
 40
0.0001488
 41
0.0001488
  0
VERTEX
  8
0
 10
0.623535
 20
0.750325
 30
0.0
 40
0.0001488
 41
0.0001488
  0
VERTEX
  8
0
 10
0.623047
 20
0.750054
 30
0.0
 40
0.0001488
 41
0.0001488
  0
VERTEX
  8
0
 10
0.619738
 20
0.74821
 30
0.0
 40
0.0001488
 41
0.0001488
  0
VERTEX
  8
0
 10
0.61659
 20
0.746039
 30
0.0
 40
0.0001488
 41
0.0001488
  0
VERTEX
  8
0
 10
0.615886
 20
0.745497
 30
0.0
 40
0.0001488
 41
0.0001488
  0
VERTEX
  8
0
 10
0.612304
 20
0.742458
 30
0.0
 40
0.0001488
 41
0.0001488
  0
VERTEX
  8
0
 10
0.608996
 20
0.739094
 30
0.0
 40
0.0001488
 41
0.0001488
  0
VERTEX
  8
0
 10
0.606119
 20
0.73546
 30
0.0
 40
0.0001488
 41
0.0001488
  0
VERTEX
  8
0
 10
0.606011
 20
0.735297
 30
0.0
 40
0.0001488
 41
0.0001488
  0
VERTEX
  8
0
 10
0.604764
 20
0.733344
 30
0.0
 40
0.0001488
 41
0.0001488
  0
VERTEX
  8
0
 10
0.603569
 20
0.7315
 30
0.0
 40
0.0001488
 41
0.0001488
  0
VERTEX
  8
0
 10
0.602539
 20
0.729546
 30
0.0
 40
0.0001488
 41
0.0001488
  0
VERTEX
  8
0
 10
0.6014
 20
0.727322
 30
0.0
 40
0.0001488
 41
0.0001488
  0
VERTEX
  8
0
 10
0.599664
 20
0.722982
 30
0.0
 40
0.0001488
 41
0.0001488
  0
VERTEX
  8
0
 10
0.598361
 20
0.718425
 30
0.0
 40
0.0001488
 41
0.0001488
  0
VERTEX
  8
0
 10
0.597547
 20
0.713813
 30
0.0
 40
0.0001488
 41
0.0001488
  0
VERTEX
  8
0
 10
0.597168
 20
0.709147
 30
0.0
 40
0.0001488
 41
0.0001488
  0
VERTEX
  8
0
 10
0.597222
 20
0.704428
 30
0.0
 40
0.0001488
 41
0.0001488
  0
VERTEX
  8
0
 10
0.597819
 20
0.699761
 30
0.0
 40
0.0001488
 41
0.0001488
  0
VERTEX
  8
0
 10
0.598796
 20
0.695204
 30
0.0
 40
0.0001488
 41
0.0001488
  0
VERTEX
  8
0
 10
0.599447
 20
0.693033
 30
0.0
 40
0.0001488
 41
0.0001488
  0
VERTEX
  8
0
 10
0.600206
 20
0.690701
 30
0.0
 40
0.0001488
 41
0.0001488
  0
VERTEX
  8
0
 10
0.602106
 20
0.686415
 30
0.0
 40
0.0001488
 41
0.0001488
  0
VERTEX
  8
0
 10
0.602539
 20
0.685547
 30
0.0
 40
0.0001488
 41
0.0001488
  0
VERTEX
  8
0
 10
0.604383
 20
0.682292
 30
0.0
 40
0.0001488
 41
0.0001488
  0
VERTEX
  8
0
 10
0.606987
 20
0.67844
 30
0.0
 40
0.0001488
 41
0.0001488
  0
VERTEX
  8
0
 10
0.610081
 20
0.674858
 30
0.0
 40
0.0001488
 41
0.0001488
  0
VERTEX
  8
0
 10
0.613444
 20
0.671604
 30
0.0
 40
0.0001488
 41
0.0001488
  0
VERTEX
  8
0
 10
0.617133
 20
0.668674
 30
0.0
 40
0.0001488
 41
0.0001488
  0
VERTEX
  8
0
 10
0.618164
 20
0.668024
 30
0.0
 40
0.0001488
 41
0.0001488
  0
VERTEX
  8
0
 10
0.618978
 20
0.667481
 30
0.0
 40
0.0001488
 41
0.0001488
  0
VERTEX
  8
0
 10
0.621039
 20
0.666124
 30
0.0
 40
0.0001488
 41
0.0001488
  0
VERTEX
  8
0
 10
0.62169
 20
0.665853
 30
0.0
 40
0.0001488
 41
0.0001488
  0
VERTEX
  8
0
 10
0.623047
 20
0.665147
 30
0.0
 40
0.0001488
 41
0.0001488
  0
VERTEX
  8
0
 10
0.625217
 20
0.663954
 30
0.0
 40
0.0001488
 41
0.0001488
  0
VERTEX
  8
0
 10
0.629611
 20
0.662272
 30
0.0
 40
0.0001488
 41
0.0001488
  0
VERTEX
  8
0
 10
0.634115
 20
0.660969
 30
0.0
 40
0.0001488
 41
0.0001488
  0
VERTEX
  8
0
 10
0.638726
 20
0.660101
 30
0.0
 40
0.0001488
 41
0.0001488
  0
VERTEX
  8
0
 10
0.643446
 20
0.659776
 30
0.0
 40
0.0001488
 41
0.0001488
  0
VERTEX
  8
0
 10
0.648113
 20
0.659831
 30
0.0
 40
0.0001488
 41
0.0001488
  0
VERTEX
  8
0
 10
0.652778
 20
0.660374
 30
0.0
 40
0.0001488
 41
0.0001488
  0
VERTEX
  8
0
 10
0.657389
 20
0.66135
 30
0.0
 40
0.0001488
 41
0.0001488
  0
VERTEX
  8
0
 10
0.661838
 20
0.662815
 30
0.0
 40
0.0001488
 41
0.0001488
  0
VERTEX
  8
0
 10
0.663357
 20
0.663465
 30
0.0
 40
0.0001488
 41
0.0001488
  0
VERTEX
  8
0
 10
0.666124
 20
0.66466
 30
0.0
 40
0.0001488
 41
0.0001488
  0
VERTEX
  8
0
 10
0.66824
 20
0.665853
 30
0.0
 40
0.0001488
 41
0.0001488
  0
VERTEX
  8
0
 10
0.670247
 20
0.666938
 30
0.0
 40
0.0001488
 41
0.0001488
  0
VERTEX
  8
0
 10
0.671007
 20
0.667481
 30
0.0
 40
0.0001488
 41
0.0001488
  0
VERTEX
  8
0
 10
0.6741
 20
0.669596
 30
0.0
 40
0.0001488
 41
0.0001488
  0
VERTEX
  8
0
 10
0.675076
 20
0.670464
 30
0.0
 40
0.0001488
 41
0.0001488
  0
VERTEX
  8
0
 10
0.677681
 20
0.672635
 30
0.0
 40
0.0001488
 41
0.0001488
  0
VERTEX
  8
0
 10
0.680935
 20
0.676053
 30
0.0
 40
0.0001488
 41
0.0001488
  0
VERTEX
  8
0
 10
0.683865
 20
0.679688
 30
0.0
 40
0.0001488
 41
0.0001488
  0
VERTEX
  8
0
 10
0.68495
 20
0.681424
 30
0.0
 40
0.0001488
 41
0.0001488
  0
VERTEX
  8
0
 10
0.686415
 20
0.683649
 30
0.0
 40
0.0001488
 41
0.0001488
  0
VERTEX
  8
0
 10
0.687011
 20
0.684842
 30
0.0
 40
0.0001488
 41
0.0001488
  0
SEQEND
 8
0
  0
POLYLINE
  8
0
 62
     1
 66
     1
 10
0
 20
0
 30
0.0
 70
     1
 40
0.0107136
 41
0.0107136
  0
VERTEX
  8
0
 10
0.243164
 20
0.670301
 30
0.0
 40
0.0001488
 41
0.0001488
  0
VERTEX
  8
0
 10
0.245389
 20
0.669162
 30
0.0
 40
0.0001488
 41
0.0001488
  0
VERTEX
  8
0
 10
0.24669
 20
0.668457
 30
0.0
 40
0.0001488
 41
0.0001488
  0
VERTEX
  8
0
 10
0.247342
 20
0.668132
 30
0.0
 40
0.0001488
 41
0.0001488
  0
VERTEX
  8
0
 10
0.251682
 20
0.666396
 30
0.0
 40
0.0001488
 41
0.0001488
  0
VERTEX
  8
0
 10
0.256239
 20
0.665147
 30
0.0
 40
0.0001488
 41
0.0001488
  0
VERTEX
  8
0
 10
0.2602
 20
0.664387
 30
0.0
 40
0.0001488
 41
0.0001488
  0
VERTEX
  8
0
 10
0.260851
 20
0.664279
 30
0.0
 40
0.0001488
 41
0.0001488
  0
VERTEX
  8
0
 10
0.265517
 20
0.6639
 30
0.0
 40
0.0001488
 41
0.0001488
  0
VERTEX
  8
0
 10
0.270236
 20
0.663954
 30
0.0
 40
0.0001488
 41
0.0001488
  0
VERTEX
  8
0
 10
0.274903
 20
0.664497
 30
0.0
 40
0.0001488
 41
0.0001488
  0
VERTEX
  8
0
 10
0.275444
 20
0.664606
 30
0.0
 40
0.0001488
 41
0.0001488
  0
VERTEX
  8
0
 10
0.279514
 20
0.665474
 30
0.0
 40
0.0001488
 41
0.0001488
  0
VERTEX
  8
0
 10
0.283962
 20
0.666938
 30
0.0
 40
0.0001488
 41
0.0001488
  0
VERTEX
  8
0
 10
0.288249
 20
0.668782
 30
0.0
 40
0.0001488
 41
0.0001488
  0
VERTEX
  8
0
 10
0.2889
 20
0.669162
 30
0.0
 40
0.0001488
 41
0.0001488
  0
VERTEX
  8
0
 10
0.292372
 20
0.671061
 30
0.0
 40
0.0001488
 41
0.0001488
  0
VERTEX
  8
0
 10
0.296115
 20
0.673665
 30
0.0
 40
0.0001488
 41
0.0001488
  0
VERTEX
  8
0
 10
0.296224
 20
0.673719
 30
0.0
 40
0.0001488
 41
0.0001488
  0
VERTEX
  8
0
 10
0.299804
 20
0.676758
 30
0.0
 40
0.0001488
 41
0.0001488
  0
VERTEX
  8
0
 10
0.30051
 20
0.677518
 30
0.0
 40
0.0001488
 41
0.0001488
  0
VERTEX
  8
0
 10
0.30306
 20
0.680176
 30
0.0
 40
0.0001488
 41
0.0001488
  0
VERTEX
  8
0
 10
0.30599
 20
0.683811
 30
0.0
 40
0.0001488
 41
0.0001488
  0
VERTEX
  8
0
 10
0.306478
 20
0.684625
 30
0.0
 40
0.0001488
 41
0.0001488
  0
VERTEX
  8
0
 10
0.308485
 20
0.687825
 30
0.0
 40
0.0001488
 41
0.0001488
  0
VERTEX
  8
0
 10
0.308703
 20
0.688206
 30
0.0
 40
0.0001488
 41
0.0001488
  0
VERTEX
  8
0
 10
0.309299
 20
0.68929
 30
0.0
 40
0.0001488
 41
0.0001488
  0
VERTEX
  8
0
 10
0.310656
 20
0.691949
 30
0.0
 40
0.0001488
 41
0.0001488
  0
VERTEX
  8
0
 10
0.311089
 20
0.693033
 30
0.0
 40
0.0001488
 41
0.0001488
  0
VERTEX
  8
0
 10
0.312392
 20
0.696343
 30
0.0
 40
0.0001488
 41
0.0001488
  0
VERTEX
  8
0
 10
0.313693
 20
0.700846
 30
0.0
 40
0.0001488
 41
0.0001488
  0
VERTEX
  8
0
 10
0.314507
 20
0.705458
 30
0.0
 40
0.0001488
 41
0.0001488
  0
VERTEX
  8
0
 10
0.314942
 20
0.710124
 30
0.0
 40
0.0001488
 41
0.0001488
  0
VERTEX
  8
0
 10
0.314833
 20
0.714844
 30
0.0
 40
0.0001488
 41
0.0001488
  0
VERTEX
  8
0
 10
0.314507
 20
0.717503
 30
0.0
 40
0.0001488
 41
0.0001488
  0
VERTEX
  8
0
 10
0.31429
 20
0.71951
 30
0.0
 40
0.0001488
 41
0.0001488
  0
VERTEX
  8
0
 10
0.313314
 20
0.724121
 30
0.0
 40
0.0001488
 41
0.0001488
  0
VERTEX
  8
0
 10
0.311849
 20
0.728569
 30
0.0
 40
0.0001488
 41
0.0001488
  0
VERTEX
  8
0
 10
0.310004
 20
0.732856
 30
0.0
 40
0.0001488
 41
0.0001488
  0
VERTEX
  8
0
 10
0.309733
 20
0.733344
 30
0.0
 40
0.0001488
 41
0.0001488
  0
VERTEX
  8
0
 10
0.309299
 20
0.734158
 30
0.0
 40
0.0001488
 41
0.0001488
  0
VERTEX
  8
0
 10
0.308703
 20
0.735189
 30
0.0
 40
0.0001488
 41
0.0001488
  0
VERTEX
  8
0
 10
0.307726
 20
0.736979
 30
0.0
 40
0.0001488
 41
0.0001488
  0
VERTEX
  8
0
 10
0.305012
 20
0.740831
 30
0.0
 40
0.0001488
 41
0.0001488
  0
VERTEX
  8
0
 10
0.304144
 20
0.741917
 30
0.0
 40
0.0001488
 41
0.0001488
  0
VERTEX
  8
0
 10
0.302029
 20
0.744412
 30
0.0
 40
0.0001488
 41
0.0001488
  0
VERTEX
  8
0
 10
0.298611
 20
0.747667
 30
0.0
 40
0.0001488
 41
0.0001488
  0
VERTEX
  8
0
 10
0.294976
 20
0.750597
 30
0.0
 40
0.0001488
 41
0.0001488
  0
VERTEX
  8
0
 10
0.29286
 20
0.751953
 30
0.0
 40
0.0001488
 41
0.0001488
  0
VERTEX
  8
0
 10
0.291015
 20
0.753147
 30
0.0
 40
0.0001488
 41
0.0001488
  0
VERTEX
  8
0
 10
0.290147
 20
0.753581
 30
0.0
 40
0.0001488
 41
0.0001488
  0
VERTEX
  8
0
 10
0.286838
 20
0.755262
 30
0.0
 40
0.0001488
 41
0.0001488
  0
VERTEX
  8
0
 10
0.282497
 20
0.756999
 30
0.0
 40
0.0001488
 41
0.0001488
  0
VERTEX
  8
0
 10
0.27794
 20
0.758301
 30
0.0
 40
0.0001488
 41
0.0001488
  0
VERTEX
  8
0
 10
0.276258
 20
0.758626
 30
0.0
 40
0.0001488
 41
0.0001488
  0
VERTEX
  8
0
 10
0.273329
 20
0.759115
 30
0.0
 40
0.0001488
 41
0.0001488
  0
VERTEX
  8
0
 10
0.268664
 20
0.759549
 30
0.0
 40
0.0001488
 41
0.0001488
  0
VERTEX
  8
0
 10
0.263997
 20
0.75944
 30
0.0
 40
0.0001488
 41
0.0001488
  0
VERTEX
  8
0
 10
0.2602
 20
0.759006
 30
0.0
 40
0.0001488
 41
0.0001488
  0
VERTEX
  8
0
 10
0.259278
 20
0.758897
 30
0.0
 40
0.0001488
 41
0.0001488
  0
VERTEX
  8
0
 10
0.254719
 20
0.757921
 30
0.0
 40
0.0001488
 41
0.0001488
  0
VERTEX
  8
0
 10
0.250217
 20
0.756456
 30
0.0
 40
0.0001488
 41
0.0001488
  0
VERTEX
  8
0
 10
0.24745
 20
0.755262
 30
0.0
 40
0.0001488
 41
0.0001488
  0
VERTEX
  8
0
 10
0.245931
 20
0.754611
 30
0.0
 40
0.0001488
 41
0.0001488
  0
VERTEX
  8
0
 10
0.244086
 20
0.753581
 30
0.0
 40
0.0001488
 41
0.0001488
  0
VERTEX
  8
0
 10
0.241808
 20
0.752333
 30
0.0
 40
0.0001488
 41
0.0001488
  0
VERTEX
  8
0
 10
0.237956
 20
0.749675
 30
0.0
 40
0.0001488
 41
0.0001488
  0
VERTEX
  8
0
 10
0.237468
 20
0.74924
 30
0.0
 40
0.0001488
 41
0.0001488
  0
VERTEX
  8
0
 10
0.234375
 20
0.746636
 30
0.0
 40
0.0001488
 41
0.0001488
  0
VERTEX
  8
0
 10
0.231119
 20
0.743218
 30
0.0
 40
0.0001488
 41
0.0001488
  0
VERTEX
  8
0
 10
0.22819
 20
0.739583
 30
0.0
 40
0.0001488
 41
0.0001488
  0
VERTEX
  8
0
 10
0.227539
 20
0.738553
 30
0.0
 40
0.0001488
 41
0.0001488
  0
VERTEX
  8
0
 10
0.225694
 20
0.735622
 30
0.0
 40
0.0001488
 41
0.0001488
  0
VERTEX
  8
0
 10
0.224501
 20
0.733344
 30
0.0
 40
0.0001488
 41
0.0001488
  0
VERTEX
  8
0
 10
0.224229
 20
0.73291
 30
0.0
 40
0.0001488
 41
0.0001488
  0
VERTEX
  8
0
 10
0.223525
 20
0.731446
 30
0.0
 40
0.0001488
 41
0.0001488
  0
VERTEX
  8
0
 10
0.221789
 20
0.727106
 30
0.0
 40
0.0001488
 41
0.0001488
  0
VERTEX
  8
0
 10
0.220486
 20
0.722547
 30
0.0
 40
0.0001488
 41
0.0001488
  0
VERTEX
  8
0
 10
0.219672
 20
0.717936
 30
0.0
 40
0.0001488
 41
0.0001488
  0
VERTEX
  8
0
 10
0.219293
 20
0.713271
 30
0.0
 40
0.0001488
 41
0.0001488
  0
VERTEX
  8
0
 10
0.219347
 20
0.708604
 30
0.0
 40
0.0001488
 41
0.0001488
  0
VERTEX
  8
0
 10
0.219889
 20
0.703885
 30
0.0
 40
0.0001488
 41
0.0001488
  0
VERTEX
  8
0
 10
0.220865
 20
0.699328
 30
0.0
 40
0.0001488
 41
0.0001488
  0
VERTEX
  8
0
 10
0.222331
 20
0.694824
 30
0.0
 40
0.0001488
 41
0.0001488
  0
VERTEX
  8
0
 10
0.22309
 20
0.693033
 30
0.0
 40
0.0001488
 41
0.0001488
  0
VERTEX
  8
0
 10
0.224175
 20
0.690539
 30
0.0
 40
0.0001488
 41
0.0001488
  0
VERTEX
  8
0
 10
0.224229
 20
0.690429
 30
0.0
 40
0.0001488
 41
0.0001488
  0
VERTEX
  8
0
 10
0.226454
 20
0.686415
 30
0.0
 40
0.0001488
 41
0.0001488
  0
VERTEX
  8
0
 10
0.229112
 20
0.682563
 30
0.0
 40
0.0001488
 41
0.0001488
  0
VERTEX
  8
0
 10
0.23215
 20
0.678982
 30
0.0
 40
0.0001488
 41
0.0001488
  0
VERTEX
  8
0
 10
0.235568
 20
0.675726
 30
0.0
 40
0.0001488
 41
0.0001488
  0
VERTEX
  8
0
 10
0.23904
 20
0.672906
 30
0.0
 40
0.0001488
 41
0.0001488
  0
VERTEX
  8
0
 10
0.239204
 20
0.672797
 30
0.0
 40
0.0001488
 41
0.0001488
  0
VERTEX
  8
0
 10
0.243164
 20
0.670301
 30
0.0
 40
0.0001488
 41
0.0001488
  0
SEQEND
 8
0
  0
POLYLINE
  8
0
 62
     1
 66
     1
 10
0
 20
0
 30
0.0
 70
     1
 40
0.0107136
 41
0.0107136
  0
VERTEX
  8
0
 10
0.333171
 20
0.866808
 30
0.0
 40
0.0001488
 41
0.0001488
  0
VERTEX
  8
0
 10
0.336317
 20
0.865181
 30
0.0
 40
0.0001488
 41
0.0001488
  0
VERTEX
  8
0
 10
0.337349
 20
0.864637
 30
0.0
 40
0.0001488
 41
0.0001488
  0
VERTEX
  8
0
 10
0.340821
 20
0.863282
 30
0.0
 40
0.0001488
 41
0.0001488
  0
VERTEX
  8
0
 10
0.341743
 20
0.862901
 30
0.0
 40
0.0001488
 41
0.0001488
  0
VERTEX
  8
0
 10
0.346246
 20
0.861654
 30
0.0
 40
0.0001488
 41
0.0001488
  0
VERTEX
  8
0
 10
0.350857
 20
0.860786
 30
0.0
 40
0.0001488
 41
0.0001488
  0
VERTEX
  8
0
 10
0.355578
 20
0.86046
 30
0.0
 40
0.0001488
 41
0.0001488
  0
VERTEX
  8
0
 10
0.360243
 20
0.860514
 30
0.0
 40
0.0001488
 41
0.0001488
  0
VERTEX
  8
0
 10
0.364908
 20
0.861003
 30
0.0
 40
0.0001488
 41
0.0001488
  0
VERTEX
  8
0
 10
0.369467
 20
0.862033
 30
0.0
 40
0.0001488
 41
0.0001488
  0
VERTEX
  8
0
 10
0.373915
 20
0.863444
 30
0.0
 40
0.0001488
 41
0.0001488
  0
VERTEX
  8
0
 10
0.377983
 20
0.865181
 30
0.0
 40
0.0001488
 41
0.0001488
  0
VERTEX
  8
0
 10
0.378256
 20
0.865343
 30
0.0
 40
0.0001488
 41
0.0001488
  0
VERTEX
  8
0
 10
0.381131
 20
0.866917
 30
0.0
 40
0.0001488
 41
0.0001488
  0
VERTEX
  8
0
 10
0.382379
 20
0.867622
 30
0.0
 40
0.0001488
 41
0.0001488
  0
VERTEX
  8
0
 10
0.385146
 20
0.869521
 30
0.0
 40
0.0001488
 41
0.0001488
  0
VERTEX
  8
0
 10
0.386231
 20
0.870281
 30
0.0
 40
0.0001488
 41
0.0001488
  0
VERTEX
  8
0
 10
0.389811
 20
0.873318
 30
0.0
 40
0.0001488
 41
0.0001488
  0
VERTEX
  8
0
 10
0.393067
 20
0.876682
 30
0.0
 40
0.0001488
 41
0.0001488
  0
VERTEX
  8
0
 10
0.395942
 20
0.880317
 30
0.0
 40
0.0001488
 41
0.0001488
  0
VERTEX
  8
0
 10
0.395996
 20
0.880371
 30
0.0
 40
0.0001488
 41
0.0001488
  0
VERTEX
  8
0
 10
0.398546
 20
0.884332
 30
0.0
 40
0.0001488
 41
0.0001488
  0
VERTEX
  8
0
 10
0.399035
 20
0.885254
 30
0.0
 40
0.0001488
 41
0.0001488
  0
VERTEX
  8
0
 10
0.400663
 20
0.88851
 30
0.0
 40
0.0001488
 41
0.0001488
  0
VERTEX
  8
0
 10
0.402399
 20
0.892904
 30
0.0
 40
0.0001488
 41
0.0001488
  0
VERTEX
  8
0
 10
0.402886
 20
0.894586
 30
0.0
 40
0.0001488
 41
0.0001488
  0
VERTEX
  8
0
 10
0.4037
 20
0.897353
 30
0.0
 40
0.0001488
 41
0.0001488
  0
VERTEX
  8
0
 10
0.404514
 20
0.902018
 30
0.0
 40
0.0001488
 41
0.0001488
  0
VERTEX
  8
0
 10
0.404949
 20
0.906685
 30
0.0
 40
0.0001488
 41
0.0001488
  0
VERTEX
  8
0
 10
0.404839
 20
0.911404
 30
0.0
 40
0.0001488
 41
0.0001488
  0
VERTEX
  8
0
 10
0.404297
 20
0.916015
 30
0.0
 40
0.0001488
 41
0.0001488
  0
VERTEX
  8
0
 10
0.403321
 20
0.920628
 30
0.0
 40
0.0001488
 41
0.0001488
  0
VERTEX
  8
0
 10
0.40191
 20
0.925076
 30
0.0
 40
0.0001488
 41
0.0001488
  0
VERTEX
  8
0
 10
0.400011
 20
0.929417
 30
0.0
 40
0.0001488
 41
0.0001488
  0
VERTEX
  8
0
 10
0.399035
 20
0.931153
 30
0.0
 40
0.0001488
 41
0.0001488
  0
VERTEX
  8
0
 10
0.397732
 20
0.933485
 30
0.0
 40
0.0001488
 41
0.0001488
  0
VERTEX
  8
0
 10
0.396756
 20
0.93495
 30
0.0
 40
0.0001488
 41
0.0001488
  0
VERTEX
  8
0
 10
0.395019
 20
0.937392
 30
0.0
 40
0.0001488
 41
0.0001488
  0
VERTEX
  8
0
 10
0.391982
 20
0.940972
 30
0.0
 40
0.0001488
 41
0.0001488
  0
VERTEX
  8
0
 10
0.388672
 20
0.944228
 30
0.0
 40
0.0001488
 41
0.0001488
  0
VERTEX
  8
0
 10
0.384983
 20
0.947157
 30
0.0
 40
0.0001488
 41
0.0001488
  0
VERTEX
  8
0
 10
0.381022
 20
0.949707
 30
0.0
 40
0.0001488
 41
0.0001488
  0
VERTEX
  8
0
 10
0.376844
 20
0.951824
 30
0.0
 40
0.0001488
 41
0.0001488
  0
VERTEX
  8
0
 10
0.372504
 20
0.95356
 30
0.0
 40
0.0001488
 41
0.0001488
  0
VERTEX
  8
0
 10
0.367947
 20
0.954861
 30
0.0
 40
0.0001488
 41
0.0001488
  0
VERTEX
  8
0
 10
0.363336
 20
0.955675
 30
0.0
 40
0.0001488
 41
0.0001488
  0
VERTEX
  8
0
 10
0.358669
 20
0.956054
 30
0.0
 40
0.0001488
 41
0.0001488
  0
VERTEX
  8
0
 10
0.35395
 20
0.956
 30
0.0
 40
0.0001488
 41
0.0001488
  0
VERTEX
  8
0
 10
0.349283
 20
0.955458
 30
0.0
 40
0.0001488
 41
0.0001488
  0
VERTEX
  8
0
 10
0.344726
 20
0.954428
 30
0.0
 40
0.0001488
 41
0.0001488
  0
VERTEX
  8
0
 10
0.340821
 20
0.953179
 30
0.0
 40
0.0001488
 41
0.0001488
  0
VERTEX
  8
0
 10
0.340224
 20
0.953017
 30
0.0
 40
0.0001488
 41
0.0001488
  0
VERTEX
  8
0
 10
0.335938
 20
0.951172
 30
0.0
 40
0.0001488
 41
0.0001488
  0
VERTEX
  8
0
 10
0.333333
 20
0.949707
 30
0.0
 40
0.0001488
 41
0.0001488
  0
VERTEX
  8
0
 10
0.331868
 20
0.948839
 30
0.0
 40
0.0001488
 41
0.0001488
  0
VERTEX
  8
0
 10
0.328017
 20
0.946181
 30
0.0
 40
0.0001488
 41
0.0001488
  0
VERTEX
  8
0
 10
0.326714
 20
0.945096
 30
0.0
 40
0.0001488
 41
0.0001488
  0
VERTEX
  8
0
 10
0.324436
 20
0.943143
 30
0.0
 40
0.0001488
 41
0.0001488
  0
VERTEX
  8
0
 10
0.321126
 20
0.939779
 30
0.0
 40
0.0001488
 41
0.0001488
  0
VERTEX
  8
0
 10
0.318251
 20
0.936089
 30
0.0
 40
0.0001488
 41
0.0001488
  0
VERTEX
  8
0
 10
0.317437
 20
0.93495
 30
0.0
 40
0.0001488
 41
0.0001488
  0
VERTEX
  8
0
 10
0.315647
 20
0.932183
 30
0.0
 40
0.0001488
 41
0.0001488
  0
VERTEX
  8
0
 10
0.314507
 20
0.929958
 30
0.0
 40
0.0001488
 41
0.0001488
  0
VERTEX
  8
0
 10
0.313531
 20
0.928006
 30
0.0
 40
0.0001488
 41
0.0001488
  0
VERTEX
  8
0
 10
0.311794
 20
0.923611
 30
0.0
 40
0.0001488
 41
0.0001488
  0
VERTEX
  8
0
 10
0.310493
 20
0.919108
 30
0.0
 40
0.0001488
 41
0.0001488
  0
VERTEX
  8
0
 10
0.309679
 20
0.914497
 30
0.0
 40
0.0001488
 41
0.0001488
  0
VERTEX
  8
0
 10
0.309299
 20
0.909831
 30
0.0
 40
0.0001488
 41
0.0001488
  0
VERTEX
  8
0
 10
0.309353
 20
0.905111
 30
0.0
 40
0.0001488
 41
0.0001488
  0
VERTEX
  8
0
 10
0.309896
 20
0.900444
 30
0.0
 40
0.0001488
 41
0.0001488
  0
VERTEX
  8
0
 10
0.310926
 20
0.895887
 30
0.0
 40
0.0001488
 41
0.0001488
  0
VERTEX
  8
0
 10
0.311307
 20
0.894586
 30
0.0
 40
0.0001488
 41
0.0001488
  0
VERTEX
  8
0
 10
0.312338
 20
0.891385
 30
0.0
 40
0.0001488
 41
0.0001488
  0
VERTEX
  8
0
 10
0.314182
 20
0.887099
 30
0.0
 40
0.0001488
 41
0.0001488
  0
VERTEX
  8
0
 10
0.314507
 20
0.886447
 30
0.0
 40
0.0001488
 41
0.0001488
  0
VERTEX
  8
0
 10
0.316461
 20
0.882975
 30
0.0
 40
0.0001488
 41
0.0001488
  0
VERTEX
  8
0
 10
0.318793
 20
0.879611
 30
0.0
 40
0.0001488
 41
0.0001488
  0
VERTEX
  8
0
 10
0.319119
 20
0.879124
 30
0.0
 40
0.0001488
 41
0.0001488
  0
VERTEX
  8
0
 10
0.322157
 20
0.875543
 30
0.0
 40
0.0001488
 41
0.0001488
  0
VERTEX
  8
0
 10
0.325575
 20
0.872287
 30
0.0
 40
0.0001488
 41
0.0001488
  0
VERTEX
  8
0
 10
0.329156
 20
0.869358
 30
0.0
 40
0.0001488
 41
0.0001488
  0
VERTEX
  8
0
 10
0.32921
 20
0.869358
 30
0.0
 40
0.0001488
 41
0.0001488
  0
VERTEX
  8
0
 10
0.333171
 20
0.866808
 30
0.0
 40
0.0001488
 41
0.0001488
  0
SEQEND
 8
0
  0
ENDSEC
  0
EOF
