  0
SECTION
  2
HEADER
  9
$ACADVER
  1
AC1009
  9
$EXTMAX
 10
31.2595252990723
 20
35.3357162475586
 30
0.0
  9
$EXTMIN
 10
1.0004577636719
 20
1.1658219099045
 30
0.0
  9
$INSUNITS
 70
     4
  9
$LUNITS
 70
     2
  9
$LUPREC
 70
     4
  9
$MEASUREMENT
 70
     1
  0
ENDSEC
  0
SECTION
  2
TABLES
  0
TABLE
  2
LAYER
 70
     1
  0
LAYER
  2
0
 70
     0
 62
     7
  6
Continuous
  0
ENDTAB
  0
TABLE
  2
APPID
 70
     1
  0
APPID
  2
ACAD
 70
     0
  0
ENDTAB
  0
ENDSEC
  0
SECTION
  2
ENTITIES
  0
POLYLINE
  8
0
 66
     1
 10
0.0
 20
0.0
 30
0.0
 70
     1
  0
VERTEX
  8
0
 10
27.610308
 20
33.48355
 42
0.0
  0
VERTEX
  8
0
 10
27.609038
 20
33.48228
 42
0.0
  0
VERTEX
  8
0
 10
27.609038
 20
33.378902
 42
0.0
  0
VERTEX
  8
0
 10
27.607514
 20
33.311338
 42
0.0
  0
VERTEX
  8
0
 10
27.607514
 20
33.230058
 42
0.0
  0
VERTEX
  8
0
 10
27.606244
 20
33.139126
 42
0.0
  0
VERTEX
  8
0
 10
27.606244
 20
33.048194
 42
0.0
  0
VERTEX
  8
0
 10
27.604974
 20
32.942022
 42
0.0
  0
VERTEX
  8
0
 10
27.604974
 20
32.935164
 42
0.0
  0
VERTEX
  8
0
 10
27.767534
 20
32.935164
 42
0.0
  0
VERTEX
  8
0
 10
31.259526
 20
32.913066
 42
0.0
  0
VERTEX
  8
0
 10
27.547062
 20
26.393648
 42
0.0
  0
VERTEX
  8
0
 10
20.8717896
 20
14.6705828
 42
0.0
  0
VERTEX
  8
0
 10
15.3044906
 20
4.8947832
 42
0.0
  0
VERTEX
  8
0
 10
14.3467582
 20
3.2135826
 42
0.0
  0
VERTEX
  8
0
 10
11.9944388
 20
3.2273748
 42
0.0
  0
VERTEX
  8
0
 10
11.4570256
 20
3.2314896
 42
0.0
  0
VERTEX
  8
0
 10
11.3646712
 20
3.2314896
 42
0.0
  0
VERTEX
  8
0
 10
11.2627156
 20
3.2328866
 42
0.0
  0
VERTEX
  8
0
 10
11.2599724
 20
2.9297122
 42
0.0
  0
VERTEX
  8
0
 10
11.2585754
 20
2.750566
 42
0.0
  0
VERTEX
  8
0
 10
11.2585754
 20
2.7147266
 42
0.0
  0
VERTEX
  8
0
 10
11.315065
 20
2.6375614
 42
0.0
  0
VERTEX
  8
0
 10
11.3949988
 20
2.4763349
 42
0.0
  0
VERTEX
  8
0
 10
11.4432334
 20
2.3137241
 42
0.0
  0
VERTEX
  8
0
 10
11.4570256
 20
2.14973916
 42
0.0
  0
VERTEX
  8
0
 10
11.43635
 20
1.98575422
 42
0.0
  0
VERTEX
  8
0
 10
11.3839752
 20
1.82452518
 42
0.0
  0
VERTEX
  8
0
 10
11.2985296
 20
1.66742618
 42
0.0
  0
VERTEX
  8
0
 10
11.2489234
 20
1.60541462
 42
0.0
  0
VERTEX
  8
0
 10
11.2489234
 20
1.53789126
 42
0.0
  0
VERTEX
  8
0
 10
11.2475518
 20
1.47725638
 42
0.0
  0
VERTEX
  8
0
 10
11.2447832
 20
1.1658219
 42
0.0
  0
VERTEX
  8
0
 10
6.8584826
 20
1.2044045
 42
0.0
  0
VERTEX
  8
0
 10
4.6674278
 20
1.22369834
 42
0.0
  0
VERTEX
  8
0
 10
4.6660562
 20
1.22369834
 42
0.0
  0
VERTEX
  8
0
 10
4.670171
 20
1.6770731
 42
0.0
  0
VERTEX
  8
0
 10
4.670171
 20
1.70876722
 42
0.0
  0
VERTEX
  8
0
 10
4.6150276
 20
1.78455828
 42
0.0
  0
VERTEX
  8
0
 10
4.5613066
 20
1.892046
 42
0.0
  0
VERTEX
  8
0
 10
4.5337476
 20
1.9457924
 42
0.0
  0
VERTEX
  8
0
 10
4.48691
 20
2.10839812
 42
0.0
  0
VERTEX
  8
0
 10
4.4731178
 20
2.2723856
 42
0.0
  0
VERTEX
  8
0
 10
4.4924218
 20
2.43499132
 42
0.0
  0
VERTEX
  8
0
 10
4.5461428
 20
2.5962356
 42
0.0
  0
VERTEX
  8
0
 10
4.5613066
 20
2.6237946
 42
0.0
  0
VERTEX
  8
0
 10
4.6315884
 20
2.7533092
 42
0.0
  0
VERTEX
  8
0
 10
4.6797976
 20
2.815336
 42
0.0
  0
VERTEX
  8
0
 10
4.6797976
 20
2.8842462
 42
0.0
  0
VERTEX
  8
0
 10
4.6811946
 20
2.9421074
 42
0.0
  0
VERTEX
  8
0
 10
4.6839378
 20
3.267329
 42
0.0
  0
VERTEX
  8
0
 10
4.6839378
 20
3.2728408
 42
0.0
  0
VERTEX
  8
0
 10
4.5613066
 20
3.2742124
 42
0.0
  0
VERTEX
  8
0
 10
4.4731178
 20
3.2742124
 42
0.0
  0
VERTEX
  8
0
 10
1.00045774
 20
3.2962596
 42
0.0
  0
VERTEX
  8
0
 10
2.09461862
 20
5.2172616
 42
0.0
  0
VERTEX
  8
0
 10
2.7519376
 20
6.3720472
 42
0.0
  0
VERTEX
  8
0
 10
5.5011574
 20
11.1993172
 42
0.0
  0
VERTEX
  8
0
 10
2.09461862
 20
14.0766546
 42
0.0
  0
VERTEX
  8
0
 10
2.16765378
 20
22.3765872
 42
0.0
  0
VERTEX
  8
0
 10
5.5700422
 20
25.1505974
 42
0.0
  0
VERTEX
  8
0
 10
5.6954166
 20
25.2539246
 42
0.0
  0
VERTEX
  8
0
 10
6.3431166
 20
25.780238
 42
0.0
  0
VERTEX
  8
0
 10
6.3555118
 20
27.19832
 42
0.0
  0
VERTEX
  8
0
 10
6.406515
 20
33.129474
 42
0.0
  0
VERTEX
  8
0
 10
6.9673724
 20
33.123886
 42
0.0
  0
VERTEX
  8
0
 10
7.1382382
 20
33.122616
 42
0.0
  0
VERTEX
  8
0
 10
7.1423784
 20
33.665414
 42
0.0
  0
VERTEX
  8
0
 10
7.1423784
 20
33.715198
 42
0.0
  0
VERTEX
  8
0
 10
7.0776084
 20
33.832292
 42
0.0
  0
VERTEX
  8
0
 10
7.0155816
 20
33.98647
 42
0.0
  0
VERTEX
  8
0
 10
7.01421
 20
33.992058
 42
0.0
  0
VERTEX
  8
0
 10
6.978396
 20
34.154618
 42
0.0
  0
VERTEX
  8
0
 10
6.9673724
 20
34.318702
 42
0.0
  0
VERTEX
  8
0
 10
6.9825362
 20
34.482532
 42
0.0
  0
VERTEX
  8
0
 10
7.0266306
 20
34.642552
 42
0.0
  0
VERTEX
  8
0
 10
7.0941438
 20
34.799524
 42
0.0
  0
VERTEX
  8
0
 10
7.1533766
 20
34.897568
 42
0.0
  0
VERTEX
  8
0
 10
7.1533766
 20
34.949892
 42
0.0
  0
VERTEX
  8
0
 10
7.154799
 20
35.00628
 42
0.0
  0
VERTEX
  8
0
 10
7.154799
 20
35.149536
 42
0.0
  0
VERTEX
  8
0
 10
7.1561706
 20
35.229546
 42
0.0
  0
VERTEX
  8
0
 10
7.1575422
 20
35.322002
 42
0.0
  0
VERTEX
  8
0
 10
7.1575422
 20
35.335718
 42
0.0
  0
VERTEX
  8
0
 10
12.2741944
 20
35.291522
 42
0.0
  0
VERTEX
  8
0
 10
12.2728228
 20
35.1028
 42
0.0
  0
VERTEX
  8
0
 10
12.2700796
 20
34.878264
 42
0.0
  0
VERTEX
  8
0
 10
12.2700796
 20
34.825686
 42
0.0
  0
VERTEX
  8
0
 10
12.3362212
 20
34.708592
 42
0.0
  0
VERTEX
  8
0
 10
12.3981972
 20
34.548826
 42
0.0
  0
VERTEX
  8
0
 10
12.4354082
 20
34.386266
 42
0.0
  0
VERTEX
  8
0
 10
12.4450602
 20
34.223452
 42
0.0
  0
VERTEX
  8
0
 10
12.4285248
 20
34.059622
 42
0.0
  0
VERTEX
  8
0
 10
12.4106178
 20
33.98647
 42
0.0
  0
VERTEX
  8
0
 10
12.387199
 20
33.898332
 42
0.0
  0
VERTEX
  8
0
 10
12.3196604
 20
33.739836
 42
0.0
  0
VERTEX
  8
0
 10
12.2590306
 20
33.643316
 42
0.0
  0
VERTEX
  8
0
 10
12.2590306
 20
33.534604
 42
0.0
  0
VERTEX
  8
0
 10
12.257659
 20
33.46831
 42
0.0
  0
VERTEX
  8
0
 10
12.257659
 20
33.392618
 42
0.0
  0
VERTEX
  8
0
 10
12.2562874
 20
33.308544
 42
0.0
  0
VERTEX
  8
0
 10
12.2562874
 20
33.22447
 42
0.0
  0
VERTEX
  8
0
 10
12.2548904
 20
33.118298
 42
0.0
  0
VERTEX
  8
0
 10
12.2548904
 20
33.07842
 42
0.0
  0
VERTEX
  8
0
 10
12.4450602
 20
33.07715
 42
0.0
  0
VERTEX
  8
0
 10
12.986639
 20
33.071562
 42
0.0
  0
VERTEX
  8
0
 10
12.9080768
 20
24.2052348
 42
0.0
  0
VERTEX
  8
0
 10
15.1680672
 20
28.173934
 42
0.0
  0
VERTEX
  8
0
 10
15.3044906
 20
28.41371
 42
0.0
  0
VERTEX
  8
0
 10
17.4500794
 20
32.180022
 42
0.0
  0
VERTEX
  8
0
 10
17.5975518
 20
32.439102
 42
0.0
  0
VERTEX
  8
0
 10
17.9145184
 20
32.99587
 42
0.0
  0
VERTEX
  8
0
 10
20.8455768
 20
32.976566
 42
0.0
  0
VERTEX
  8
0
 10
21.02612
 20
32.976566
 42
0.0
  0
VERTEX
  8
0
 10
21.0302602
 20
33.50006
 42
0.0
  0
VERTEX
  8
0
 10
21.0302602
 20
33.529016
 42
0.0
  0
VERTEX
  8
0
 10
20.9847688
 20
33.59785
 42
0.0
  0
VERTEX
  8
0
 10
20.904835
 20
33.771586
 42
0.0
  0
VERTEX
  8
0
 10
20.8579974
 20
33.946592
 42
0.0
  0
VERTEX
  8
0
 10
20.8455768
 20
34.124392
 42
0.0
  0
VERTEX
  8
0
 10
20.8648554
 20
34.300668
 42
0.0
  0
VERTEX
  8
0
 10
20.9172556
 20
34.475674
 42
0.0
  0
VERTEX
  8
0
 10
20.9448146
 20
34.530792
 42
0.0
  0
VERTEX
  8
0
 10
21.0027012
 20
34.645346
 42
0.0
  0
VERTEX
  8
0
 10
21.0412584
 20
34.69767
 42
0.0
  0
VERTEX
  8
0
 10
21.0412584
 20
34.842196
 42
0.0
  0
VERTEX
  8
0
 10
21.04263
 20
34.919412
 42
0.0
  0
VERTEX
  8
0
 10
21.04263
 20
35.00628
 42
0.0
  0
VERTEX
  8
0
 10
21.0440016
 20
35.094418
 42
0.0
  0
VERTEX
  8
0
 10
21.045424
 20
35.196526
 42
0.0
  0
VERTEX
  8
0
 10
21.045424
 20
35.21583
 42
0.0
  0
VERTEX
  8
0
 10
27.624278
 20
35.157918
 42
0.0
  0
VERTEX
  8
0
 10
27.61996
 20
34.686494
 42
0.0
  0
VERTEX
  8
0
 10
27.61869
 20
34.548826
 42
0.0
  0
VERTEX
  8
0
 10
27.61869
 20
34.543238
 42
0.0
  0
VERTEX
  8
0
 10
27.628342
 20
34.529522
 42
0.0
  0
VERTEX
  8
0
 10
27.708098
 20
34.355786
 42
0.0
  0
VERTEX
  8
0
 10
27.755088
 20
34.17951
 42
0.0
  0
VERTEX
  8
0
 10
27.767534
 20
34.00298
 42
0.0
  0
VERTEX
  8
0
 10
27.76601
 20
33.98647
 42
0.0
  0
VERTEX
  8
0
 10
27.74823
 20
33.826704
 42
0.0
  0
VERTEX
  8
0
 10
27.694382
 20
33.652968
 42
0.0
  0
SEQEND
  0
POLYLINE
  8
0
 66
     1
 10
0.0
 20
0.0
 30
0.0
 70
     1
  0
VERTEX
  8
0
 10
12.5911356
 20
17.4597568
 42
0.0
  0
VERTEX
  8
0
 10
12.6324868
 20
17.5396906
 42
0.0
  0
VERTEX
  8
0
 10
12.6572772
 20
17.6030382
 42
0.0
  0
VERTEX
  8
0
 10
12.6765812
 20
17.6512982
 42
0.0
  0
VERTEX
  8
0
 10
12.7096266
 20
17.7656744
 42
0.0
  0
VERTEX
  8
0
 10
12.7303022
 20
17.8827938
 42
0.0
  0
VERTEX
  8
0
 10
12.7399796
 20
18.0027072
 42
0.0
  0
VERTEX
  8
0
 10
12.7385826
 20
18.1211982
 42
0.0
  0
VERTEX
  8
0
 10
12.7247904
 20
18.2397146
 42
0.0
  0
VERTEX
  8
0
 10
12.7
 20
18.3554878
 42
0.0
  0
VERTEX
  8
0
 10
12.662789
 20
18.469864
 42
0.0
  0
VERTEX
  8
0
 10
12.615926
 20
18.5787284
 42
0.0
  0
VERTEX
  8
0
 10
12.5911356
 20
18.6241944
 42
0.0
  0
VERTEX
  8
0
 10
12.589764
 20
18.6269376
 42
0.0
  0
VERTEX
  8
0
 10
12.5580648
 20
18.6834272
 42
0.0
  0
VERTEX
  8
0
 10
12.4905516
 20
18.782665
 42
0.0
  0
VERTEX
  8
0
 10
12.4753878
 20
18.7992004
 42
0.0
  0
VERTEX
  8
0
 10
12.413361
 20
18.8736224
 42
0.0
  0
VERTEX
  8
0
 10
12.3265438
 20
18.9549278
 42
0.0
  0
VERTEX
  8
0
 10
12.2342148
 20
19.030696
 42
0.0
  0
VERTEX
  8
0
 10
12.1873772
 20
19.0596266
 42
0.0
  0
VERTEX
  8
0
 10
12.1336054
 20
19.0940944
 42
0.0
  0
VERTEX
  8
0
 10
12.1322338
 20
19.0940944
 42
0.0
  0
VERTEX
  8
0
 10
12.1212356
 20
19.0996062
 42
0.0
  0
VERTEX
  8
0
 10
12.027535
 20
19.1492378
 42
0.0
  0
VERTEX
  8
0
 10
11.9158766
 20
19.1933322
 42
0.0
  0
VERTEX
  8
0
 10
11.8015004
 20
19.225006
 42
0.0
  0
VERTEX
  8
0
 10
11.7284754
 20
19.2387982
 42
0.0
  0
VERTEX
  8
0
 10
11.684381
 20
19.2470532
 42
0.0
  0
VERTEX
  8
0
 10
11.56589
 20
19.2566798
 42
0.0
  0
VERTEX
  8
0
 10
11.4459766
 20
19.2539366
 42
0.0
  0
VERTEX
  8
0
 10
11.3274856
 20
19.2415668
 42
0.0
  0
VERTEX
  8
0
 10
11.2103154
 20
19.216751
 42
0.0
  0
VERTEX
  8
0
 10
11.0973362
 20
19.17954
 42
0.0
  0
VERTEX
  8
0
 10
10.9884718
 20
19.1327024
 42
0.0
  0
VERTEX
  8
0
 10
10.9306106
 20
19.0996062
 42
0.0
  0
VERTEX
  8
0
 10
10.8837476
 20
19.0747904
 42
0.0
  0
VERTEX
  8
0
 10
10.7859068
 20
19.0059056
 42
0.0
  0
VERTEX
  8
0
 10
10.761091
 20
18.9838584
 42
0.0
  0
VERTEX
  8
0
 10
10.7046268
 20
18.9369954
 42
0.0
  0
VERTEX
  8
0
 10
10.6949494
 20
18.9287404
 42
0.0
  0
VERTEX
  8
0
 10
10.6122724
 20
18.8433202
 42
0.0
  0
VERTEX
  8
0
 10
10.5378504
 20
18.7495688
 42
0.0
  0
VERTEX
  8
0
 10
10.51306
 20
18.7123832
 42
0.0
  0
VERTEX
  8
0
 10
10.4730804
 20
18.6490102
 42
0.0
  0
VERTEX
  8
0
 10
10.4455468
 20
18.59661
 42
0.0
  0
VERTEX
  8
0
 10
10.4193594
 20
18.542889
 42
0.0
  0
VERTEX
  8
0
 10
10.375265
 20
18.4326276
 42
0.0
  0
VERTEX
  8
0
 10
10.3421688
 20
18.3182768
 42
0.0
  0
VERTEX
  8
0
 10
10.3214932
 20
18.199735
 42
0.0
  0
VERTEX
  8
0
 10
10.310495
 20
18.0826156
 42
0.0
  0
VERTEX
  8
0
 10
10.3132382
 20
17.9627276
 42
0.0
  0
VERTEX
  8
0
 10
10.327005
 20
17.8442112
 42
0.0
  0
VERTEX
  8
0
 10
10.3518462
 20
17.7270918
 42
0.0
  0
VERTEX
  8
0
 10
10.3876348
 20
17.6140872
 42
0.0
  0
VERTEX
  8
0
 10
10.3931466
 20
17.6030382
 42
0.0
  0
VERTEX
  8
0
 10
10.4358694
 20
17.5038512
 42
0.0
  0
VERTEX
  8
0
 10
10.4455468
 20
17.4859188
 42
0.0
  0
VERTEX
  8
0
 10
10.493756
 20
17.4004732
 42
0.0
  0
VERTEX
  8
0
 10
10.5626662
 20
17.3026578
 42
0.0
  0
VERTEX
  8
0
 10
10.6384598
 20
17.2117004
 42
0.0
  0
VERTEX
  8
0
 10
10.7046268
 20
17.1469304
 42
0.0
  0
VERTEX
  8
0
 10
10.7252516
 20
17.1276518
 42
0.0
  0
VERTEX
  8
0
 10
10.817606
 20
17.0546268
 42
0.0
  0
VERTEX
  8
0
 10
10.8203746
 20
17.0532044
 42
0.0
  0
VERTEX
  8
0
 10
10.91819
 20
16.9884598
 42
0.0
  0
VERTEX
  8
0
 10
10.9871002
 20
16.9540174
 42
0.0
  0
VERTEX
  8
0
 10
11.0243112
 20
16.9347134
 42
0.0
  0
VERTEX
  8
0
 10
11.1345472
 20
16.890619
 42
0.0
  0
VERTEX
  8
0
 10
11.250295
 20
16.8575482
 42
0.0
  0
VERTEX
  8
0
 10
11.3674398
 20
16.8368726
 42
0.0
  0
VERTEX
  8
0
 10
11.4859562
 20
16.8272206
 42
0.0
  0
VERTEX
  8
0
 10
11.6044472
 20
16.8285922
 42
0.0
  0
VERTEX
  8
0
 10
11.7243606
 20
16.843756
 42
0.0
  0
VERTEX
  8
0
 10
11.7284754
 20
16.843756
 42
0.0
  0
VERTEX
  8
0
 10
11.8401084
 20
16.8685718
 42
0.0
  0
VERTEX
  8
0
 10
11.9544846
 20
16.9057828
 42
0.0
  0
VERTEX
  8
0
 10
12.063349
 20
16.9526204
 42
0.0
  0
VERTEX
  8
0
 10
12.0660922
 20
16.9540174
 42
0.0
  0
VERTEX
  8
0
 10
12.1143268
 20
16.9801794
 42
0.0
  0
VERTEX
  8
0
 10
12.1667016
 20
17.0105324
 42
0.0
  0
VERTEX
  8
0
 10
12.2480324
 20
17.065625
 42
0.0
  0
VERTEX
  8
0
 10
12.265914
 20
17.0780456
 42
0.0
  0
VERTEX
  8
0
 10
12.3554744
 20
17.1551854
 42
0.0
  0
VERTEX
  8
0
 10
12.4395484
 20
17.240631
 42
0.0
  0
VERTEX
  8
0
 10
12.5139704
 20
17.3343316
 42
0.0
  0
VERTEX
  8
0
 10
12.5194822
 20
17.344009
 42
0.0
  0
VERTEX
  8
0
 10
12.5773434
 20
17.4335694
 42
0.0
  0
SEQEND
  0
POLYLINE
  8
0
 66
     1
 10
0.0
 20
0.0
 30
0.0
 70
     1
  0
VERTEX
  8
0
 10
17.4500794
 20
17.3949868
 42
0.0
  0
VERTEX
  8
0
 10
17.4886874
 20
17.470755
 42
0.0
  0
VERTEX
  8
0
 10
17.5327818
 20
17.5823626
 42
0.0
  0
VERTEX
  8
0
 10
17.5396906
 20
17.6030382
 42
0.0
  0
VERTEX
  8
0
 10
17.5658526
 20
17.6967896
 42
0.0
  0
VERTEX
  8
0
 10
17.5865282
 20
17.813909
 42
0.0
  0
VERTEX
  8
0
 10
17.5975518
 20
17.9324
 42
0.0
  0
VERTEX
  8
0
 10
17.5947832
 20
18.0523134
 42
0.0
  0
VERTEX
  8
0
 10
17.580991
 20
18.1708044
 42
0.0
  0
VERTEX
  8
0
 10
17.5562006
 20
18.2865522
 42
0.0
  0
VERTEX
  8
0
 10
17.5203866
 20
18.3995822
 42
0.0
  0
VERTEX
  8
0
 10
17.4721266
 20
18.5098182
 42
0.0
  0
VERTEX
  8
0
 10
17.4500794
 20
18.5497724
 42
0.0
  0
VERTEX
  8
0
 10
17.4142654
 20
18.6145424
 42
0.0
  0
VERTEX
  8
0
 10
17.4046134
 20
18.6269376
 42
0.0
  0
VERTEX
  8
0
 10
17.3467522
 20
18.7123832
 42
0.0
  0
VERTEX
  8
0
 10
17.3398434
 20
18.7206382
 42
0.0
  0
VERTEX
  8
0
 10
17.2695616
 20
18.8033406
 42
0.0
  0
VERTEX
  8
0
 10
17.184116
 20
18.8860176
 42
0.0
  0
VERTEX
  8
0
 10
17.0904154
 20
18.9604396
 42
0.0
  0
VERTEX
  8
0
 10
17.0683682
 20
18.9742318
 42
0.0
  0
VERTEX
  8
0
 10
16.9898568
 20
19.0252096
 42
0.0
  0
VERTEX
  8
0
 10
16.9250868
 20
19.058255
 42
0.0
  0
VERTEX
  8
0
 10
16.8837356
 20
19.0789306
 42
0.0
  0
VERTEX
  8
0
 10
16.7734996
 20
19.123025
 42
0.0
  0
VERTEX
  8
0
 10
16.6577518
 20
19.1561212
 42
0.0
  0
VERTEX
  8
0
 10
16.5405816
 20
19.1767968
 42
0.0
  0
VERTEX
  8
0
 10
16.4220906
 20
19.187795
 42
0.0
  0
VERTEX
  8
0
 10
16.3035488
 20
19.1850518
 42
0.0
  0
VERTEX
  8
0
 10
16.1850578
 20
19.171285
 42
0.0
  0
VERTEX
  8
0
 10
16.0679384
 20
19.1464438
 42
0.0
  0
VERTEX
  8
0
 10
15.9535622
 20
19.1092582
 42
0.0
  0
VERTEX
  8
0
 10
15.8446978
 20
19.0624206
 42
0.0
  0
VERTEX
  8
0
 10
15.837789
 20
19.058255
 42
0.0
  0
VERTEX
  8
0
 10
15.8253938
 20
19.0513716
 42
0.0
  0
VERTEX
  8
0
 10
15.7413452
 20
19.004534
 42
0.0
  0
VERTEX
  8
0
 10
15.661386
 20
18.9493906
 42
0.0
  0
VERTEX
  8
0
 10
15.6435044
 20
18.9356238
 42
0.0
  0
VERTEX
  8
0
 10
15.5525216
 20
18.8584332
 42
0.0
  0
VERTEX
  8
0
 10
15.4684984
 20
18.7729876
 42
0.0
  0
VERTEX
  8
0
 10
15.3954226
 20
18.680684
 42
0.0
  0
VERTEX
  8
0
 10
15.3926794
 20
18.6765438
 42
0.0
  0
VERTEX
  8
0
 10
15.3610056
 20
18.6269376
 42
0.0
  0
VERTEX
  8
0
 10
15.3306526
 20
18.5801
 42
0.0
  0
VERTEX
  8
0
 10
15.3044906
 20
18.5304684
 42
0.0
  0
VERTEX
  8
0
 10
15.27556
 20
18.4739788
 42
0.0
  0
VERTEX
  8
0
 10
15.2314656
 20
18.3637428
 42
0.0
  0
VERTEX
  8
0
 10
15.1983694
 20
18.247995
 42
0.0
  0
VERTEX
  8
0
 10
15.1776938
 20
18.1308502
 42
0.0
  0
VERTEX
  8
0
 10
15.1680672
 20
18.0123338
 42
0.0
  0
VERTEX
  8
0
 10
15.1694388
 20
17.8924712
 42
0.0
  0
VERTEX
  8
0
 10
15.1846026
 20
17.7739294
 42
0.0
  0
VERTEX
  8
0
 10
15.2094184
 20
17.6581816
 42
0.0
  0
VERTEX
  8
0
 10
15.2259538
 20
17.6030382
 42
0.0
  0
VERTEX
  8
0
 10
15.2452324
 20
17.5438054
 42
0.0
  0
VERTEX
  8
0
 10
15.2934924
 20
17.434941
 42
0.0
  0
VERTEX
  8
0
 10
15.3044906
 20
17.4128938
 42
0.0
  0
VERTEX
  8
0
 10
15.3513282
 20
17.3302168
 42
0.0
  0
VERTEX
  8
0
 10
15.4174698
 20
17.232376
 42
0.0
  0
VERTEX
  8
0
 10
15.4960574
 20
17.1413932
 42
0.0
  0
VERTEX
  8
0
 10
15.5814776
 20
17.0587416
 42
0.0
  0
VERTEX
  8
0
 10
15.6751782
 20
16.9843196
 42
0.0
  0
VERTEX
  8
0
 10
15.7013656
 20
16.9678096
 42
0.0
  0
VERTEX
  8
0
 10
15.7220412
 20
16.9540174
 42
0.0
  0
VERTEX
  8
0
 10
15.7743906
 20
16.9195496
 42
0.0
  0
VERTEX
  8
0
 10
15.790926
 20
16.9126662
 42
0.0
  0
VERTEX
  8
0
 10
15.8253938
 20
16.8947338
 42
0.0
  0
VERTEX
  8
0
 10
15.8805118
 20
16.8644316
 42
0.0
  0
VERTEX
  8
0
 10
15.9921194
 20
16.8217088
 42
0.0
  0
VERTEX
  8
0
 10
16.106521
 20
16.7886126
 42
0.0
  0
VERTEX
  8
0
 10
16.2236404
 20
16.7665654
 42
0.0
  0
VERTEX
  8
0
 10
16.3435284
 20
16.7583104
 42
0.0
  0
VERTEX
  8
0
 10
16.4620702
 20
16.7597074
 42
0.0
  0
VERTEX
  8
0
 10
16.5805612
 20
16.7734996
 42
0.0
  0
VERTEX
  8
0
 10
16.6976806
 20
16.79829
 42
0.0
  0
VERTEX
  8
0
 10
16.8106852
 20
16.835501
 42
0.0
  0
VERTEX
  8
0
 10
16.8492678
 20
16.852011
 42
0.0
  0
VERTEX
  8
0
 10
16.9195496
 20
16.882364
 42
0.0
  0
VERTEX
  8
0
 10
16.973296
 20
16.9126662
 42
0.0
  0
VERTEX
  8
0
 10
17.0242738
 20
16.9402252
 42
0.0
  0
VERTEX
  8
0
 10
17.0435778
 20
16.9540174
 42
0.0
  0
VERTEX
  8
0
 10
17.12214
 20
17.0077384
 42
0.0
  0
VERTEX
  8
0
 10
17.1469304
 20
17.0297856
 42
0.0
  0
VERTEX
  8
0
 10
17.2130974
 20
17.084929
 42
0.0
  0
VERTEX
  8
0
 10
17.295749
 20
17.1717462
 42
0.0
  0
VERTEX
  8
0
 10
17.370171
 20
17.2640752
 42
0.0
  0
VERTEX
  8
0
 10
17.39773
 20
17.3081696
 42
0.0
  0
VERTEX
  8
0
 10
17.434941
 20
17.3646846
 42
0.0
  0
SEQEND
  0
POLYLINE
  8
0
 66
     1
 10
0.0
 20
0.0
 30
0.0
 70
     1
  0
VERTEX
  8
0
 10
6.1763656
 20
17.0256454
 42
0.0
  0
VERTEX
  8
0
 10
6.2328806
 20
16.9967148
 42
0.0
  0
VERTEX
  8
0
 10
6.265926
 20
16.9788078
 42
0.0
  0
VERTEX
  8
0
 10
6.2824868
 20
16.9705528
 42
0.0
  0
VERTEX
  8
0
 10
6.3927228
 20
16.9264584
 42
0.0
  0
VERTEX
  8
0
 10
6.5084706
 20
16.8947338
 42
0.0
  0
VERTEX
  8
0
 10
6.60908
 20
16.8754298
 42
0.0
  0
VERTEX
  8
0
 10
6.6256154
 20
16.8726866
 42
0.0
  0
VERTEX
  8
0
 10
6.7441318
 20
16.86306
 42
0.0
  0
VERTEX
  8
0
 10
6.8639944
 20
16.8644316
 42
0.0
  0
VERTEX
  8
0
 10
6.9825362
 20
16.8782238
 42
0.0
  0
VERTEX
  8
0
 10
6.9962776
 20
16.8809924
 42
0.0
  0
VERTEX
  8
0
 10
7.0996556
 20
16.9030396
 42
0.0
  0
VERTEX
  8
0
 10
7.2126348
 20
16.9402252
 42
0.0
  0
VERTEX
  8
0
 10
7.3215246
 20
16.9870628
 42
0.0
  0
VERTEX
  8
0
 10
7.33806
 20
16.9967148
 42
0.0
  0
VERTEX
  8
0
 10
7.4262488
 20
17.0449494
 42
0.0
  0
VERTEX
  8
0
 10
7.521321
 20
17.111091
 42
0.0
  0
VERTEX
  8
0
 10
7.5240896
 20
17.1124626
 42
0.0
  0
VERTEX
  8
0
 10
7.6150216
 20
17.1896532
 42
0.0
  0
VERTEX
  8
0
 10
7.632954
 20
17.2089572
 42
0.0
  0
VERTEX
  8
0
 10
7.697724
 20
17.2764704
 42
0.0
  0
VERTEX
  8
0
 10
7.772146
 20
17.3687994
 42
0.0
  0
VERTEX
  8
0
 10
7.7845412
 20
17.389475
 42
0.0
  0
VERTEX
  8
0
 10
7.835519
 20
17.470755
 42
0.0
  0
VERTEX
  8
0
 10
7.8410562
 20
17.4804324
 42
0.0
  0
VERTEX
  8
0
 10
7.8561946
 20
17.507966
 42
0.0
  0
VERTEX
  8
0
 10
7.8906624
 20
17.5755046
 42
0.0
  0
VERTEX
  8
0
 10
7.9016606
 20
17.6030382
 42
0.0
  0
VERTEX
  8
0
 10
7.9347568
 20
17.6871122
 42
0.0
  0
VERTEX
  8
0
 10
7.9678022
 20
17.8014884
 42
0.0
  0
VERTEX
  8
0
 10
7.9884778
 20
17.9186332
 42
0.0
  0
VERTEX
  8
0
 10
7.9995268
 20
18.0371496
 42
0.0
  0
VERTEX
  8
0
 10
7.9967582
 20
18.1570376
 42
0.0
  0
VERTEX
  8
0
 10
7.9884778
 20
18.2245762
 42
0.0
  0
VERTEX
  8
0
 10
7.982966
 20
18.275554
 42
0.0
  0
VERTEX
  8
0
 10
7.9581756
 20
18.3926734
 42
0.0
  0
VERTEX
  8
0
 10
7.9209646
 20
18.5056526
 42
0.0
  0
VERTEX
  8
0
 10
7.8741016
 20
18.6145424
 42
0.0
  0
VERTEX
  8
0
 10
7.8672182
 20
18.6269376
 42
0.0
  0
VERTEX
  8
0
 10
7.8561946
 20
18.6476132
 42
0.0
  0
VERTEX
  8
0
 10
7.8410562
 20
18.6738006
 42
0.0
  0
VERTEX
  8
0
 10
7.8162404
 20
18.7192666
 42
0.0
  0
VERTEX
  8
0
 10
7.7473048
 20
18.8171074
 42
0.0
  0
VERTEX
  8
0
 10
7.7252576
 20
18.8446918
 42
0.0
  0
VERTEX
  8
0
 10
7.6715366
 20
18.9080648
 42
0.0
  0
VERTEX
  8
0
 10
7.5847194
 20
18.9907418
 42
0.0
  0
VERTEX
  8
0
 10
7.4923904
 20
19.0651638
 42
0.0
  0
VERTEX
  8
0
 10
7.438644
 20
19.0996062
 42
0.0
  0
VERTEX
  8
0
 10
7.391781
 20
19.1299338
 42
0.0
  0
VERTEX
  8
0
 10
7.3697338
 20
19.1409574
 42
0.0
  0
VERTEX
  8
0
 10
7.2856852
 20
19.1836548
 42
0.0
  0
VERTEX
  8
0
 10
7.1754238
 20
19.2277746
 42
0.0
  0
VERTEX
  8
0
 10
7.059676
 20
19.2608454
 42
0.0
  0
VERTEX
  8
0
 10
7.0169532
 20
19.2691004
 42
0.0
  0
VERTEX
  8
0
 10
6.9425566
 20
19.281521
 42
0.0
  0
VERTEX
  8
0
 10
6.8240656
 20
19.2925446
 42
0.0
  0
VERTEX
  8
0
 10
6.7055238
 20
19.289776
 42
0.0
  0
VERTEX
  8
0
 10
6.60908
 20
19.2787524
 42
0.0
  0
VERTEX
  8
0
 10
6.5856612
 20
19.2759838
 42
0.0
  0
VERTEX
  8
0
 10
6.4698626
 20
19.2511934
 42
0.0
  0
VERTEX
  8
0
 10
6.3555118
 20
19.2139824
 42
0.0
  0
VERTEX
  8
0
 10
6.28523
 20
19.1836548
 42
0.0
  0
VERTEX
  8
0
 10
6.2466474
 20
19.1671194
 42
0.0
  0
VERTEX
  8
0
 10
6.1997844
 20
19.1409574
 42
0.0
  0
VERTEX
  8
0
 10
6.1419232
 20
19.1092582
 42
0.0
  0
VERTEX
  8
0
 10
6.0440824
 20
19.041745
 42
0.0
  0
VERTEX
  8
0
 10
6.0316872
 20
19.030696
 42
0.0
  0
VERTEX
  8
0
 10
5.953125
 20
18.9645544
 42
0.0
  0
VERTEX
  8
0
 10
5.8704226
 20
18.8777372
 42
0.0
  0
VERTEX
  8
0
 10
5.796026
 20
18.7854082
 42
0.0
  0
VERTEX
  8
0
 10
5.7794906
 20
18.7592462
 42
0.0
  0
VERTEX
  8
0
 10
5.7326276
 20
18.6847988
 42
0.0
  0
VERTEX
  8
0
 10
5.7023254
 20
18.6269376
 42
0.0
  0
VERTEX
  8
0
 10
5.6954166
 20
18.615914
 42
0.0
  0
VERTEX
  8
0
 10
5.677535
 20
18.5787284
 42
0.0
  0
VERTEX
  8
0
 10
5.6334406
 20
18.4684924
 42
0.0
  0
VERTEX
  8
0
 10
5.6003444
 20
18.3526938
 42
0.0
  0
VERTEX
  8
0
 10
5.5796688
 20
18.2355744
 42
0.0
  0
VERTEX
  8
0
 10
5.5700422
 20
18.1170834
 42
0.0
  0
VERTEX
  8
0
 10
5.5714138
 20
17.9985416
 42
0.0
  0
VERTEX
  8
0
 10
5.5851806
 20
17.878679
 42
0.0
  0
VERTEX
  8
0
 10
5.609971
 20
17.7629312
 42
0.0
  0
VERTEX
  8
0
 10
5.6472074
 20
17.6485296
 42
0.0
  0
VERTEX
  8
0
 10
5.666486
 20
17.6030382
 42
0.0
  0
VERTEX
  8
0
 10
5.694045
 20
17.5396906
 42
0.0
  0
VERTEX
  8
0
 10
5.6954166
 20
17.5368966
 42
0.0
  0
VERTEX
  8
0
 10
5.7519316
 20
17.434941
 42
0.0
  0
VERTEX
  8
0
 10
5.8194448
 20
17.3371002
 42
0.0
  0
VERTEX
  8
0
 10
5.89661
 20
17.2461428
 42
0.0
  0
VERTEX
  8
0
 10
5.9834272
 20
17.1634404
 42
0.0
  0
VERTEX
  8
0
 10
6.071616
 20
17.0918124
 42
0.0
  0
VERTEX
  8
0
 10
6.0757816
 20
17.0890438
 42
0.0
  0
SEQEND
  0
POLYLINE
  8
0
 66
     1
 10
0.0
 20
0.0
 30
0.0
 70
     1
  0
VERTEX
  8
0
 10
8.4625434
 20
22.0169232
 42
0.0
  0
VERTEX
  8
0
 10
8.5424518
 20
21.9755974
 42
0.0
  0
VERTEX
  8
0
 10
8.5686646
 20
21.9617798
 42
0.0
  0
VERTEX
  8
0
 10
8.6568534
 20
21.9273628
 42
0.0
  0
VERTEX
  8
0
 10
8.6802722
 20
21.9176854
 42
0.0
  0
VERTEX
  8
0
 10
8.7946484
 20
21.8860116
 42
0.0
  0
VERTEX
  8
0
 10
8.9117678
 20
21.8639644
 42
0.0
  0
VERTEX
  8
0
 10
9.0316812
 20
21.855684
 42
0.0
  0
VERTEX
  8
0
 10
9.1501722
 20
21.8570556
 42
0.0
  0
VERTEX
  8
0
 10
9.2686632
 20
21.8694762
 42
0.0
  0
VERTEX
  8
0
 10
9.3844618
 20
21.8956382
 42
0.0
  0
VERTEX
  8
0
 10
9.497441
 20
21.9314776
 42
0.0
  0
VERTEX
  8
0
 10
9.6007682
 20
21.9755974
 42
0.0
  0
VERTEX
  8
0
 10
9.6077024
 20
21.9797122
 42
0.0
  0
VERTEX
  8
0
 10
9.6807274
 20
22.0196918
 42
0.0
  0
VERTEX
  8
0
 10
9.7124266
 20
22.0375988
 42
0.0
  0
VERTEX
  8
0
 10
9.7827084
 20
22.0858334
 42
0.0
  0
VERTEX
  8
0
 10
9.8102674
 20
22.1051374
 42
0.0
  0
VERTEX
  8
0
 10
9.9011994
 20
22.1822772
 42
0.0
  0
VERTEX
  8
0
 10
9.9839018
 20
22.2677228
 42
0.0
  0
VERTEX
  8
0
 10
10.0569268
 20
22.3600518
 42
0.0
  0
VERTEX
  8
0
 10
10.0582984
 20
22.3614234
 42
0.0
  0
VERTEX
  8
0
 10
10.1230684
 20
22.4620328
 42
0.0
  0
VERTEX
  8
0
 10
10.135489
 20
22.4854516
 42
0.0
  0
VERTEX
  8
0
 10
10.1768402
 20
22.568154
 42
0.0
  0
VERTEX
  8
0
 10
10.2209346
 20
22.6797616
 42
0.0
  0
VERTEX
  8
0
 10
10.2333044
 20
22.7224844
 42
0.0
  0
VERTEX
  8
0
 10
10.25398
 20
22.7927662
 42
0.0
  0
VERTEX
  8
0
 10
10.2746556
 20
22.9112572
 42
0.0
  0
VERTEX
  8
0
 10
10.2857046
 20
23.029799
 42
0.0
  0
VERTEX
  8
0
 10
10.2829106
 20
23.1496616
 42
0.0
  0
VERTEX
  8
0
 10
10.2691438
 20
23.266781
 42
0.0
  0
VERTEX
  8
0
 10
10.2443534
 20
23.3839512
 42
0.0
  0
VERTEX
  8
0
 10
10.208514
 20
23.4969304
 42
0.0
  0
VERTEX
  8
0
 10
10.1602794
 20
23.6071918
 42
0.0
  0
VERTEX
  8
0
 10
10.135489
 20
23.6512862
 42
0.0
  0
VERTEX
  8
0
 10
10.1023928
 20
23.710519
 42
0.0
  0
VERTEX
  8
0
 10
10.0776024
 20
23.74773
 42
0.0
  0
VERTEX
  8
0
 10
10.0334826
 20
23.8097568
 42
0.0
  0
VERTEX
  8
0
 10
9.9563428
 20
23.9006888
 42
0.0
  0
VERTEX
  8
0
 10
9.8722688
 20
23.9833912
 42
0.0
  0
VERTEX
  8
0
 10
9.7785682
 20
24.0577878
 42
0.0
  0
VERTEX
  8
0
 10
9.6779588
 20
24.1225578
 42
0.0
  0
VERTEX
  8
0
 10
9.5718376
 20
24.1763296
 42
0.0
  0
VERTEX
  8
0
 10
9.4616016
 20
24.220424
 42
0.0
  0
VERTEX
  8
0
 10
9.3458538
 20
24.2534694
 42
0.0
  0
VERTEX
  8
0
 10
9.2287344
 20
24.274145
 42
0.0
  0
VERTEX
  8
0
 10
9.1101926
 20
24.2837716
 42
0.0
  0
VERTEX
  8
0
 10
8.99033
 20
24.2824
 42
0.0
  0
VERTEX
  8
0
 10
8.8717882
 20
24.2686332
 42
0.0
  0
VERTEX
  8
0
 10
8.7560404
 20
24.2424712
 42
0.0
  0
VERTEX
  8
0
 10
8.6568534
 20
24.2107466
 42
0.0
  0
VERTEX
  8
0
 10
8.6416896
 20
24.2066318
 42
0.0
  0
VERTEX
  8
0
 10
8.5328252
 20
24.1597688
 42
0.0
  0
VERTEX
  8
0
 10
8.4666582
 20
24.1225578
 42
0.0
  0
VERTEX
  8
0
 10
8.4294472
 20
24.1005106
 42
0.0
  0
VERTEX
  8
0
 10
8.3316318
 20
24.0329974
 42
0.0
  0
VERTEX
  8
0
 10
8.2985356
 20
24.0054384
 42
0.0
  0
VERTEX
  8
0
 10
8.2406744
 20
23.9558322
 42
0.0
  0
VERTEX
  8
0
 10
8.1566004
 20
23.8703866
 42
0.0
  0
VERTEX
  8
0
 10
8.0835754
 20
23.7766606
 42
0.0
  0
VERTEX
  8
0
 10
8.0628998
 20
23.74773
 42
0.0
  0
VERTEX
  8
0
 10
8.0174338
 20
23.6774482
 42
0.0
  0
VERTEX
  8
0
 10
7.9884778
 20
23.6209332
 42
0.0
  0
VERTEX
  8
0
 10
7.9636874
 20
23.5713524
 42
0.0
  0
VERTEX
  8
0
 10
7.9195676
 20
23.4597194
 42
0.0
  0
VERTEX
  8
0
 10
7.8865222
 20
23.3453432
 42
0.0
  0
VERTEX
  8
0
 10
7.8658466
 20
23.2282238
 42
0.0
  0
VERTEX
  8
0
 10
7.8561946
 20
23.1097074
 42
0.0
  0
VERTEX
  8
0
 10
7.8575662
 20
22.9898194
 42
0.0
  0
VERTEX
  8
0
 10
7.8713584
 20
22.8712776
 42
0.0
  0
VERTEX
  8
0
 10
7.8975204
 20
22.7555298
 42
0.0
  0
VERTEX
  8
0
 10
7.9071978
 20
22.7224844
 42
0.0
  0
VERTEX
  8
0
 10
7.9333852
 20
22.641179
 42
0.0
  0
VERTEX
  8
0
 10
7.9802228
 20
22.5323146
 42
0.0
  0
VERTEX
  8
0
 10
7.9884778
 20
22.5157538
 42
0.0
  0
VERTEX
  8
0
 10
8.0381094
 20
22.427565
 42
0.0
  0
VERTEX
  8
0
 10
8.0973422
 20
22.3421194
 42
0.0
  0
VERTEX
  8
0
 10
8.1056226
 20
22.3297496
 42
0.0
  0
VERTEX
  8
0
 10
8.1827878
 20
22.2387922
 42
0.0
  0
VERTEX
  8
0
 10
8.269605
 20
22.1560898
 42
0.0
  0
VERTEX
  8
0
 10
8.3605624
 20
22.0816932
 42
0.0
  0
VERTEX
  8
0
 10
8.361934
 20
22.0816932
 42
0.0
  0
SEQEND
  0
POLYLINE
  8
0
 66
     1
 10
0.0
 20
0.0
 30
0.0
 70
     1
  0
VERTEX
  8
0
 10
27.610308
 20
33.48355
 42
0.0
  0
VERTEX
  8
0
 10
27.609038
 20
33.48228
 42
0.0
  0
VERTEX
  8
0
 10
27.609038
 20
33.378902
 42
0.0
  0
VERTEX
  8
0
 10
27.607514
 20
33.311338
 42
0.0
  0
VERTEX
  8
0
 10
27.607514
 20
33.230058
 42
0.0
  0
VERTEX
  8
0
 10
27.606244
 20
33.139126
 42
0.0
  0
VERTEX
  8
0
 10
27.606244
 20
33.048194
 42
0.0
  0
VERTEX
  8
0
 10
27.604974
 20
32.942022
 42
0.0
  0
VERTEX
  8
0
 10
27.604974
 20
32.935164
 42
0.0
  0
VERTEX
  8
0
 10
27.767534
 20
32.935164
 42
0.0
  0
VERTEX
  8
0
 10
31.259526
 20
32.913066
 42
0.0
  0
VERTEX
  8
0
 10
27.547062
 20
26.393648
 42
0.0
  0
VERTEX
  8
0
 10
20.8717896
 20
14.6705828
 42
0.0
  0
VERTEX
  8
0
 10
15.3044906
 20
4.8947832
 42
0.0
  0
VERTEX
  8
0
 10
14.3467582
 20
3.2135826
 42
0.0
  0
VERTEX
  8
0
 10
11.9944388
 20
3.2273748
 42
0.0
  0
VERTEX
  8
0
 10
11.4570256
 20
3.2314896
 42
0.0
  0
VERTEX
  8
0
 10
11.3646712
 20
3.2314896
 42
0.0
  0
VERTEX
  8
0
 10
11.2627156
 20
3.2328866
 42
0.0
  0
VERTEX
  8
0
 10
11.2599724
 20
2.9297122
 42
0.0
  0
VERTEX
  8
0
 10
11.2585754
 20
2.750566
 42
0.0
  0
VERTEX
  8
0
 10
11.2585754
 20
2.7147266
 42
0.0
  0
VERTEX
  8
0
 10
11.315065
 20
2.6375614
 42
0.0
  0
VERTEX
  8
0
 10
11.3949988
 20
2.4763349
 42
0.0
  0
VERTEX
  8
0
 10
11.4432334
 20
2.3137241
 42
0.0
  0
VERTEX
  8
0
 10
11.4570256
 20
2.14973916
 42
0.0
  0
VERTEX
  8
0
 10
11.43635
 20
1.98575422
 42
0.0
  0
VERTEX
  8
0
 10
11.3839752
 20
1.82452518
 42
0.0
  0
VERTEX
  8
0
 10
11.2985296
 20
1.66742618
 42
0.0
  0
VERTEX
  8
0
 10
11.2489234
 20
1.60541462
 42
0.0
  0
VERTEX
  8
0
 10
11.2489234
 20
1.53789126
 42
0.0
  0
VERTEX
  8
0
 10
11.2475518
 20
1.47725638
 42
0.0
  0
VERTEX
  8
0
 10
11.2447832
 20
1.1658219
 42
0.0
  0
VERTEX
  8
0
 10
6.8584826
 20
1.2044045
 42
0.0
  0
VERTEX
  8
0
 10
4.6674278
 20
1.22369834
 42
0.0
  0
VERTEX
  8
0
 10
4.6660562
 20
1.22369834
 42
0.0
  0
VERTEX
  8
0
 10
4.670171
 20
1.6770731
 42
0.0
  0
VERTEX
  8
0
 10
4.670171
 20
1.70876722
 42
0.0
  0
VERTEX
  8
0
 10
4.6150276
 20
1.78455828
 42
0.0
  0
VERTEX
  8
0
 10
4.5613066
 20
1.892046
 42
0.0
  0
VERTEX
  8
0
 10
4.5337476
 20
1.9457924
 42
0.0
  0
VERTEX
  8
0
 10
4.48691
 20
2.10839812
 42
0.0
  0
VERTEX
  8
0
 10
4.4731178
 20
2.2723856
 42
0.0
  0
VERTEX
  8
0
 10
4.4924218
 20
2.43499132
 42
0.0
  0
VERTEX
  8
0
 10
4.5461428
 20
2.5962356
 42
0.0
  0
VERTEX
  8
0
 10
4.5613066
 20
2.6237946
 42
0.0
  0
VERTEX
  8
0
 10
4.6315884
 20
2.7533092
 42
0.0
  0
VERTEX
  8
0
 10
4.6797976
 20
2.815336
 42
0.0
  0
VERTEX
  8
0
 10
4.6797976
 20
2.8842462
 42
0.0
  0
VERTEX
  8
0
 10
4.6811946
 20
2.9421074
 42
0.0
  0
VERTEX
  8
0
 10
4.6839378
 20
3.267329
 42
0.0
  0
VERTEX
  8
0
 10
4.6839378
 20
3.2728408
 42
0.0
  0
VERTEX
  8
0
 10
4.5613066
 20
3.2742124
 42
0.0
  0
VERTEX
  8
0
 10
4.4731178
 20
3.2742124
 42
0.0
  0
VERTEX
  8
0
 10
1.00045774
 20
3.2962596
 42
0.0
  0
VERTEX
  8
0
 10
2.09461862
 20
5.2172616
 42
0.0
  0
VERTEX
  8
0
 10
2.7519376
 20
6.3720472
 42
0.0
  0
VERTEX
  8
0
 10
5.5011574
 20
11.1993172
 42
0.0
  0
VERTEX
  8
0
 10
2.09461862
 20
14.0766546
 42
0.0
  0
VERTEX
  8
0
 10
2.16765378
 20
22.3765872
 42
0.0
  0
VERTEX
  8
0
 10
5.5700422
 20
25.1505974
 42
0.0
  0
VERTEX
  8
0
 10
5.6954166
 20
25.2539246
 42
0.0
  0
VERTEX
  8
0
 10
6.3431166
 20
25.780238
 42
0.0
  0
VERTEX
  8
0
 10
6.3555118
 20
27.19832
 42
0.0
  0
VERTEX
  8
0
 10
6.406515
 20
33.129474
 42
0.0
  0
VERTEX
  8
0
 10
6.9673724
 20
33.123886
 42
0.0
  0
VERTEX
  8
0
 10
7.1382382
 20
33.122616
 42
0.0
  0
VERTEX
  8
0
 10
7.1423784
 20
33.665414
 42
0.0
  0
VERTEX
  8
0
 10
7.1423784
 20
33.715198
 42
0.0
  0
VERTEX
  8
0
 10
7.0776084
 20
33.832292
 42
0.0
  0
VERTEX
  8
0
 10
7.0155816
 20
33.98647
 42
0.0
  0
VERTEX
  8
0
 10
7.01421
 20
33.992058
 42
0.0
  0
VERTEX
  8
0
 10
6.978396
 20
34.154618
 42
0.0
  0
VERTEX
  8
0
 10
6.9673724
 20
34.318702
 42
0.0
  0
VERTEX
  8
0
 10
6.9825362
 20
34.482532
 42
0.0
  0
VERTEX
  8
0
 10
7.0266306
 20
34.642552
 42
0.0
  0
VERTEX
  8
0
 10
7.0941438
 20
34.799524
 42
0.0
  0
VERTEX
  8
0
 10
7.1533766
 20
34.897568
 42
0.0
  0
VERTEX
  8
0
 10
7.1533766
 20
34.949892
 42
0.0
  0
VERTEX
  8
0
 10
7.154799
 20
35.00628
 42
0.0
  0
VERTEX
  8
0
 10
7.154799
 20
35.149536
 42
0.0
  0
VERTEX
  8
0
 10
7.1561706
 20
35.229546
 42
0.0
  0
VERTEX
  8
0
 10
7.1575422
 20
35.322002
 42
0.0
  0
VERTEX
  8
0
 10
7.1575422
 20
35.335718
 42
0.0
  0
VERTEX
  8
0
 10
12.2741944
 20
35.291522
 42
0.0
  0
VERTEX
  8
0
 10
12.2728228
 20
35.1028
 42
0.0
  0
VERTEX
  8
0
 10
12.2700796
 20
34.878264
 42
0.0
  0
VERTEX
  8
0
 10
12.2700796
 20
34.825686
 42
0.0
  0
VERTEX
  8
0
 10
12.3362212
 20
34.708592
 42
0.0
  0
VERTEX
  8
0
 10
12.3981972
 20
34.548826
 42
0.0
  0
VERTEX
  8
0
 10
12.4354082
 20
34.386266
 42
0.0
  0
VERTEX
  8
0
 10
12.4450602
 20
34.223452
 42
0.0
  0
VERTEX
  8
0
 10
12.4285248
 20
34.059622
 42
0.0
  0
VERTEX
  8
0
 10
12.4106178
 20
33.98647
 42
0.0
  0
VERTEX
  8
0
 10
12.387199
 20
33.898332
 42
0.0
  0
VERTEX
  8
0
 10
12.3196604
 20
33.739836
 42
0.0
  0
VERTEX
  8
0
 10
12.2590306
 20
33.643316
 42
0.0
  0
VERTEX
  8
0
 10
12.2590306
 20
33.534604
 42
0.0
  0
VERTEX
  8
0
 10
12.257659
 20
33.46831
 42
0.0
  0
VERTEX
  8
0
 10
12.257659
 20
33.392618
 42
0.0
  0
VERTEX
  8
0
 10
12.2562874
 20
33.308544
 42
0.0
  0
VERTEX
  8
0
 10
12.2562874
 20
33.22447
 42
0.0
  0
VERTEX
  8
0
 10
12.2548904
 20
33.118298
 42
0.0
  0
VERTEX
  8
0
 10
12.2548904
 20
33.07842
 42
0.0
  0
VERTEX
  8
0
 10
12.4450602
 20
33.07715
 42
0.0
  0
VERTEX
  8
0
 10
12.986639
 20
33.071562
 42
0.0
  0
VERTEX
  8
0
 10
12.9080768
 20
24.2052348
 42
0.0
  0
VERTEX
  8
0
 10
15.1680672
 20
28.173934
 42
0.0
  0
VERTEX
  8
0
 10
15.3044906
 20
28.41371
 42
0.0
  0
VERTEX
  8
0
 10
17.4500794
 20
32.180022
 42
0.0
  0
VERTEX
  8
0
 10
17.5975518
 20
32.439102
 42
0.0
  0
VERTEX
  8
0
 10
17.9145184
 20
32.99587
 42
0.0
  0
VERTEX
  8
0
 10
20.8455768
 20
32.976566
 42
0.0
  0
VERTEX
  8
0
 10
21.02612
 20
32.976566
 42
0.0
  0
VERTEX
  8
0
 10
21.0302602
 20
33.50006
 42
0.0
  0
VERTEX
  8
0
 10
21.0302602
 20
33.529016
 42
0.0
  0
VERTEX
  8
0
 10
20.9847688
 20
33.59785
 42
0.0
  0
VERTEX
  8
0
 10
20.904835
 20
33.771586
 42
0.0
  0
VERTEX
  8
0
 10
20.8579974
 20
33.946592
 42
0.0
  0
VERTEX
  8
0
 10
20.8455768
 20
34.124392
 42
0.0
  0
VERTEX
  8
0
 10
20.8648554
 20
34.300668
 42
0.0
  0
VERTEX
  8
0
 10
20.9172556
 20
34.475674
 42
0.0
  0
VERTEX
  8
0
 10
20.9448146
 20
34.530792
 42
0.0
  0
VERTEX
  8
0
 10
21.0027012
 20
34.645346
 42
0.0
  0
VERTEX
  8
0
 10
21.0412584
 20
34.69767
 42
0.0
  0
VERTEX
  8
0
 10
21.0412584
 20
34.842196
 42
0.0
  0
VERTEX
  8
0
 10
21.04263
 20
34.919412
 42
0.0
  0
VERTEX
  8
0
 10
21.04263
 20
35.00628
 42
0.0
  0
VERTEX
  8
0
 10
21.0440016
 20
35.094418
 42
0.0
  0
VERTEX
  8
0
 10
21.045424
 20
35.196526
 42
0.0
  0
VERTEX
  8
0
 10
21.045424
 20
35.21583
 42
0.0
  0
VERTEX
  8
0
 10
27.624278
 20
35.157918
 42
0.0
  0
VERTEX
  8
0
 10
27.61996
 20
34.686494
 42
0.0
  0
VERTEX
  8
0
 10
27.61869
 20
34.548826
 42
0.0
  0
VERTEX
  8
0
 10
27.61869
 20
34.543238
 42
0.0
  0
VERTEX
  8
0
 10
27.628342
 20
34.529522
 42
0.0
  0
VERTEX
  8
0
 10
27.708098
 20
34.355786
 42
0.0
  0
VERTEX
  8
0
 10
27.755088
 20
34.17951
 42
0.0
  0
VERTEX
  8
0
 10
27.767534
 20
34.00298
 42
0.0
  0
VERTEX
  8
0
 10
27.76601
 20
33.98647
 42
0.0
  0
VERTEX
  8
0
 10
27.74823
 20
33.826704
 42
0.0
  0
VERTEX
  8
0
 10
27.694382
 20
33.652968
 42
0.0
  0
SEQEND
  0
POLYLINE
  8
0
 66
     1
 10
0.0
 20
0.0
 30
0.0
 70
     1
  0
VERTEX
  8
0
 10
12.5911356
 20
17.4597568
 42
0.0
  0
VERTEX
  8
0
 10
12.6324868
 20
17.5396906
 42
0.0
  0
VERTEX
  8
0
 10
12.6572772
 20
17.6030382
 42
0.0
  0
VERTEX
  8
0
 10
12.6765812
 20
17.6512982
 42
0.0
  0
VERTEX
  8
0
 10
12.7096266
 20
17.7656744
 42
0.0
  0
VERTEX
  8
0
 10
12.7303022
 20
17.8827938
 42
0.0
  0
VERTEX
  8
0
 10
12.7399796
 20
18.0027072
 42
0.0
  0
VERTEX
  8
0
 10
12.7385826
 20
18.1211982
 42
0.0
  0
VERTEX
  8
0
 10
12.7247904
 20
18.2397146
 42
0.0
  0
VERTEX
  8
0
 10
12.7
 20
18.3554878
 42
0.0
  0
VERTEX
  8
0
 10
12.662789
 20
18.469864
 42
0.0
  0
VERTEX
  8
0
 10
12.615926
 20
18.5787284
 42
0.0
  0
VERTEX
  8
0
 10
12.5911356
 20
18.6241944
 42
0.0
  0
VERTEX
  8
0
 10
12.589764
 20
18.6269376
 42
0.0
  0
VERTEX
  8
0
 10
12.5580648
 20
18.6834272
 42
0.0
  0
VERTEX
  8
0
 10
12.4905516
 20
18.782665
 42
0.0
  0
VERTEX
  8
0
 10
12.4753878
 20
18.7992004
 42
0.0
  0
VERTEX
  8
0
 10
12.413361
 20
18.8736224
 42
0.0
  0
VERTEX
  8
0
 10
12.3265438
 20
18.9549278
 42
0.0
  0
VERTEX
  8
0
 10
12.2342148
 20
19.030696
 42
0.0
  0
VERTEX
  8
0
 10
12.1873772
 20
19.0596266
 42
0.0
  0
VERTEX
  8
0
 10
12.1336054
 20
19.0940944
 42
0.0
  0
VERTEX
  8
0
 10
12.1322338
 20
19.0940944
 42
0.0
  0
VERTEX
  8
0
 10
12.1212356
 20
19.0996062
 42
0.0
  0
VERTEX
  8
0
 10
12.027535
 20
19.1492378
 42
0.0
  0
VERTEX
  8
0
 10
11.9158766
 20
19.1933322
 42
0.0
  0
VERTEX
  8
0
 10
11.8015004
 20
19.225006
 42
0.0
  0
VERTEX
  8
0
 10
11.7284754
 20
19.2387982
 42
0.0
  0
VERTEX
  8
0
 10
11.684381
 20
19.2470532
 42
0.0
  0
VERTEX
  8
0
 10
11.56589
 20
19.2566798
 42
0.0
  0
VERTEX
  8
0
 10
11.4459766
 20
19.2539366
 42
0.0
  0
VERTEX
  8
0
 10
11.3274856
 20
19.2415668
 42
0.0
  0
VERTEX
  8
0
 10
11.2103154
 20
19.216751
 42
0.0
  0
VERTEX
  8
0
 10
11.0973362
 20
19.17954
 42
0.0
  0
VERTEX
  8
0
 10
10.9884718
 20
19.1327024
 42
0.0
  0
VERTEX
  8
0
 10
10.9306106
 20
19.0996062
 42
0.0
  0
VERTEX
  8
0
 10
10.8837476
 20
19.0747904
 42
0.0
  0
VERTEX
  8
0
 10
10.7859068
 20
19.0059056
 42
0.0
  0
VERTEX
  8
0
 10
10.761091
 20
18.9838584
 42
0.0
  0
VERTEX
  8
0
 10
10.7046268
 20
18.9369954
 42
0.0
  0
VERTEX
  8
0
 10
10.6949494
 20
18.9287404
 42
0.0
  0
VERTEX
  8
0
 10
10.6122724
 20
18.8433202
 42
0.0
  0
VERTEX
  8
0
 10
10.5378504
 20
18.7495688
 42
0.0
  0
VERTEX
  8
0
 10
10.51306
 20
18.7123832
 42
0.0
  0
VERTEX
  8
0
 10
10.4730804
 20
18.6490102
 42
0.0
  0
VERTEX
  8
0
 10
10.4455468
 20
18.59661
 42
0.0
  0
VERTEX
  8
0
 10
10.4193594
 20
18.542889
 42
0.0
  0
VERTEX
  8
0
 10
10.375265
 20
18.4326276
 42
0.0
  0
VERTEX
  8
0
 10
10.3421688
 20
18.3182768
 42
0.0
  0
VERTEX
  8
0
 10
10.3214932
 20
18.199735
 42
0.0
  0
VERTEX
  8
0
 10
10.310495
 20
18.0826156
 42
0.0
  0
VERTEX
  8
0
 10
10.3132382
 20
17.9627276
 42
0.0
  0
VERTEX
  8
0
 10
10.327005
 20
17.8442112
 42
0.0
  0
VERTEX
  8
0
 10
10.3518462
 20
17.7270918
 42
0.0
  0
VERTEX
  8
0
 10
10.3876348
 20
17.6140872
 42
0.0
  0
VERTEX
  8
0
 10
10.3931466
 20
17.6030382
 42
0.0
  0
VERTEX
  8
0
 10
10.4358694
 20
17.5038512
 42
0.0
  0
VERTEX
  8
0
 10
10.4455468
 20
17.4859188
 42
0.0
  0
VERTEX
  8
0
 10
10.493756
 20
17.4004732
 42
0.0
  0
VERTEX
  8
0
 10
10.5626662
 20
17.3026578
 42
0.0
  0
VERTEX
  8
0
 10
10.6384598
 20
17.2117004
 42
0.0
  0
VERTEX
  8
0
 10
10.7046268
 20
17.1469304
 42
0.0
  0
VERTEX
  8
0
 10
10.7252516
 20
17.1276518
 42
0.0
  0
VERTEX
  8
0
 10
10.817606
 20
17.0546268
 42
0.0
  0
VERTEX
  8
0
 10
10.8203746
 20
17.0532044
 42
0.0
  0
VERTEX
  8
0
 10
10.91819
 20
16.9884598
 42
0.0
  0
VERTEX
  8
0
 10
10.9871002
 20
16.9540174
 42
0.0
  0
VERTEX
  8
0
 10
11.0243112
 20
16.9347134
 42
0.0
  0
VERTEX
  8
0
 10
11.1345472
 20
16.890619
 42
0.0
  0
VERTEX
  8
0
 10
11.250295
 20
16.8575482
 42
0.0
  0
VERTEX
  8
0
 10
11.3674398
 20
16.8368726
 42
0.0
  0
VERTEX
  8
0
 10
11.4859562
 20
16.8272206
 42
0.0
  0
VERTEX
  8
0
 10
11.6044472
 20
16.8285922
 42
0.0
  0
VERTEX
  8
0
 10
11.7243606
 20
16.843756
 42
0.0
  0
VERTEX
  8
0
 10
11.7284754
 20
16.843756
 42
0.0
  0
VERTEX
  8
0
 10
11.8401084
 20
16.8685718
 42
0.0
  0
VERTEX
  8
0
 10
11.9544846
 20
16.9057828
 42
0.0
  0
VERTEX
  8
0
 10
12.063349
 20
16.9526204
 42
0.0
  0
VERTEX
  8
0
 10
12.0660922
 20
16.9540174
 42
0.0
  0
VERTEX
  8
0
 10
12.1143268
 20
16.9801794
 42
0.0
  0
VERTEX
  8
0
 10
12.1667016
 20
17.0105324
 42
0.0
  0
VERTEX
  8
0
 10
12.2480324
 20
17.065625
 42
0.0
  0
VERTEX
  8
0
 10
12.265914
 20
17.0780456
 42
0.0
  0
VERTEX
  8
0
 10
12.3554744
 20
17.1551854
 42
0.0
  0
VERTEX
  8
0
 10
12.4395484
 20
17.240631
 42
0.0
  0
VERTEX
  8
0
 10
12.5139704
 20
17.3343316
 42
0.0
  0
VERTEX
  8
0
 10
12.5194822
 20
17.344009
 42
0.0
  0
VERTEX
  8
0
 10
12.5773434
 20
17.4335694
 42
0.0
  0
SEQEND
  0
POLYLINE
  8
0
 66
     1
 10
0.0
 20
0.0
 30
0.0
 70
     1
  0
VERTEX
  8
0
 10
17.4500794
 20
17.3949868
 42
0.0
  0
VERTEX
  8
0
 10
17.4886874
 20
17.470755
 42
0.0
  0
VERTEX
  8
0
 10
17.5327818
 20
17.5823626
 42
0.0
  0
VERTEX
  8
0
 10
17.5396906
 20
17.6030382
 42
0.0
  0
VERTEX
  8
0
 10
17.5658526
 20
17.6967896
 42
0.0
  0
VERTEX
  8
0
 10
17.5865282
 20
17.813909
 42
0.0
  0
VERTEX
  8
0
 10
17.5975518
 20
17.9324
 42
0.0
  0
VERTEX
  8
0
 10
17.5947832
 20
18.0523134
 42
0.0
  0
VERTEX
  8
0
 10
17.580991
 20
18.1708044
 42
0.0
  0
VERTEX
  8
0
 10
17.5562006
 20
18.2865522
 42
0.0
  0
VERTEX
  8
0
 10
17.5203866
 20
18.3995822
 42
0.0
  0
VERTEX
  8
0
 10
17.4721266
 20
18.5098182
 42
0.0
  0
VERTEX
  8
0
 10
17.4500794
 20
18.5497724
 42
0.0
  0
VERTEX
  8
0
 10
17.4142654
 20
18.6145424
 42
0.0
  0
VERTEX
  8
0
 10
17.4046134
 20
18.6269376
 42
0.0
  0
VERTEX
  8
0
 10
17.3467522
 20
18.7123832
 42
0.0
  0
VERTEX
  8
0
 10
17.3398434
 20
18.7206382
 42
0.0
  0
VERTEX
  8
0
 10
17.2695616
 20
18.8033406
 42
0.0
  0
VERTEX
  8
0
 10
17.184116
 20
18.8860176
 42
0.0
  0
VERTEX
  8
0
 10
17.0904154
 20
18.9604396
 42
0.0
  0
VERTEX
  8
0
 10
17.0683682
 20
18.9742318
 42
0.0
  0
VERTEX
  8
0
 10
16.9898568
 20
19.0252096
 42
0.0
  0
VERTEX
  8
0
 10
16.9250868
 20
19.058255
 42
0.0
  0
VERTEX
  8
0
 10
16.8837356
 20
19.0789306
 42
0.0
  0
VERTEX
  8
0
 10
16.7734996
 20
19.123025
 42
0.0
  0
VERTEX
  8
0
 10
16.6577518
 20
19.1561212
 42
0.0
  0
VERTEX
  8
0
 10
16.5405816
 20
19.1767968
 42
0.0
  0
VERTEX
  8
0
 10
16.4220906
 20
19.187795
 42
0.0
  0
VERTEX
  8
0
 10
16.3035488
 20
19.1850518
 42
0.0
  0
VERTEX
  8
0
 10
16.1850578
 20
19.171285
 42
0.0
  0
VERTEX
  8
0
 10
16.0679384
 20
19.1464438
 42
0.0
  0
VERTEX
  8
0
 10
15.9535622
 20
19.1092582
 42
0.0
  0
VERTEX
  8
0
 10
15.8446978
 20
19.0624206
 42
0.0
  0
VERTEX
  8
0
 10
15.837789
 20
19.058255
 42
0.0
  0
VERTEX
  8
0
 10
15.8253938
 20
19.0513716
 42
0.0
  0
VERTEX
  8
0
 10
15.7413452
 20
19.004534
 42
0.0
  0
VERTEX
  8
0
 10
15.661386
 20
18.9493906
 42
0.0
  0
VERTEX
  8
0
 10
15.6435044
 20
18.9356238
 42
0.0
  0
VERTEX
  8
0
 10
15.5525216
 20
18.8584332
 42
0.0
  0
VERTEX
  8
0
 10
15.4684984
 20
18.7729876
 42
0.0
  0
VERTEX
  8
0
 10
15.3954226
 20
18.680684
 42
0.0
  0
VERTEX
  8
0
 10
15.3926794
 20
18.6765438
 42
0.0
  0
VERTEX
  8
0
 10
15.3610056
 20
18.6269376
 42
0.0
  0
VERTEX
  8
0
 10
15.3306526
 20
18.5801
 42
0.0
  0
VERTEX
  8
0
 10
15.3044906
 20
18.5304684
 42
0.0
  0
VERTEX
  8
0
 10
15.27556
 20
18.4739788
 42
0.0
  0
VERTEX
  8
0
 10
15.2314656
 20
18.3637428
 42
0.0
  0
VERTEX
  8
0
 10
15.1983694
 20
18.247995
 42
0.0
  0
VERTEX
  8
0
 10
15.1776938
 20
18.1308502
 42
0.0
  0
VERTEX
  8
0
 10
15.1680672
 20
18.0123338
 42
0.0
  0
VERTEX
  8
0
 10
15.1694388
 20
17.8924712
 42
0.0
  0
VERTEX
  8
0
 10
15.1846026
 20
17.7739294
 42
0.0
  0
VERTEX
  8
0
 10
15.2094184
 20
17.6581816
 42
0.0
  0
VERTEX
  8
0
 10
15.2259538
 20
17.6030382
 42
0.0
  0
VERTEX
  8
0
 10
15.2452324
 20
17.5438054
 42
0.0
  0
VERTEX
  8
0
 10
15.2934924
 20
17.434941
 42
0.0
  0
VERTEX
  8
0
 10
15.3044906
 20
17.4128938
 42
0.0
  0
VERTEX
  8
0
 10
15.3513282
 20
17.3302168
 42
0.0
  0
VERTEX
  8
0
 10
15.4174698
 20
17.232376
 42
0.0
  0
VERTEX
  8
0
 10
15.4960574
 20
17.1413932
 42
0.0
  0
VERTEX
  8
0
 10
15.5814776
 20
17.0587416
 42
0.0
  0
VERTEX
  8
0
 10
15.6751782
 20
16.9843196
 42
0.0
  0
VERTEX
  8
0
 10
15.7013656
 20
16.9678096
 42
0.0
  0
VERTEX
  8
0
 10
15.7220412
 20
16.9540174
 42
0.0
  0
VERTEX
  8
0
 10
15.7743906
 20
16.9195496
 42
0.0
  0
VERTEX
  8
0
 10
15.790926
 20
16.9126662
 42
0.0
  0
VERTEX
  8
0
 10
15.8253938
 20
16.8947338
 42
0.0
  0
VERTEX
  8
0
 10
15.8805118
 20
16.8644316
 42
0.0
  0
VERTEX
  8
0
 10
15.9921194
 20
16.8217088
 42
0.0
  0
VERTEX
  8
0
 10
16.106521
 20
16.7886126
 42
0.0
  0
VERTEX
  8
0
 10
16.2236404
 20
16.7665654
 42
0.0
  0
VERTEX
  8
0
 10
16.3435284
 20
16.7583104
 42
0.0
  0
VERTEX
  8
0
 10
16.4620702
 20
16.7597074
 42
0.0
  0
VERTEX
  8
0
 10
16.5805612
 20
16.7734996
 42
0.0
  0
VERTEX
  8
0
 10
16.6976806
 20
16.79829
 42
0.0
  0
VERTEX
  8
0
 10
16.8106852
 20
16.835501
 42
0.0
  0
VERTEX
  8
0
 10
16.8492678
 20
16.852011
 42
0.0
  0
VERTEX
  8
0
 10
16.9195496
 20
16.882364
 42
0.0
  0
VERTEX
  8
0
 10
16.973296
 20
16.9126662
 42
0.0
  0
VERTEX
  8
0
 10
17.0242738
 20
16.9402252
 42
0.0
  0
VERTEX
  8
0
 10
17.0435778
 20
16.9540174
 42
0.0
  0
VERTEX
  8
0
 10
17.12214
 20
17.0077384
 42
0.0
  0
VERTEX
  8
0
 10
17.1469304
 20
17.0297856
 42
0.0
  0
VERTEX
  8
0
 10
17.2130974
 20
17.084929
 42
0.0
  0
VERTEX
  8
0
 10
17.295749
 20
17.1717462
 42
0.0
  0
VERTEX
  8
0
 10
17.370171
 20
17.2640752
 42
0.0
  0
VERTEX
  8
0
 10
17.39773
 20
17.3081696
 42
0.0
  0
VERTEX
  8
0
 10
17.434941
 20
17.3646846
 42
0.0
  0
SEQEND
  0
POLYLINE
  8
0
 66
     1
 10
0.0
 20
0.0
 30
0.0
 70
     1
  0
VERTEX
  8
0
 10
6.1763656
 20
17.0256454
 42
0.0
  0
VERTEX
  8
0
 10
6.2328806
 20
16.9967148
 42
0.0
  0
VERTEX
  8
0
 10
6.265926
 20
16.9788078
 42
0.0
  0
VERTEX
  8
0
 10
6.2824868
 20
16.9705528
 42
0.0
  0
VERTEX
  8
0
 10
6.3927228
 20
16.9264584
 42
0.0
  0
VERTEX
  8
0
 10
6.5084706
 20
16.8947338
 42
0.0
  0
VERTEX
  8
0
 10
6.60908
 20
16.8754298
 42
0.0
  0
VERTEX
  8
0
 10
6.6256154
 20
16.8726866
 42
0.0
  0
VERTEX
  8
0
 10
6.7441318
 20
16.86306
 42
0.0
  0
VERTEX
  8
0
 10
6.8639944
 20
16.8644316
 42
0.0
  0
VERTEX
  8
0
 10
6.9825362
 20
16.8782238
 42
0.0
  0
VERTEX
  8
0
 10
6.9962776
 20
16.8809924
 42
0.0
  0
VERTEX
  8
0
 10
7.0996556
 20
16.9030396
 42
0.0
  0
VERTEX
  8
0
 10
7.2126348
 20
16.9402252
 42
0.0
  0
VERTEX
  8
0
 10
7.3215246
 20
16.9870628
 42
0.0
  0
VERTEX
  8
0
 10
7.33806
 20
16.9967148
 42
0.0
  0
VERTEX
  8
0
 10
7.4262488
 20
17.0449494
 42
0.0
  0
VERTEX
  8
0
 10
7.521321
 20
17.111091
 42
0.0
  0
VERTEX
  8
0
 10
7.5240896
 20
17.1124626
 42
0.0
  0
VERTEX
  8
0
 10
7.6150216
 20
17.1896532
 42
0.0
  0
VERTEX
  8
0
 10
7.632954
 20
17.2089572
 42
0.0
  0
VERTEX
  8
0
 10
7.697724
 20
17.2764704
 42
0.0
  0
VERTEX
  8
0
 10
7.772146
 20
17.3687994
 42
0.0
  0
VERTEX
  8
0
 10
7.7845412
 20
17.389475
 42
0.0
  0
VERTEX
  8
0
 10
7.835519
 20
17.470755
 42
0.0
  0
VERTEX
  8
0
 10
7.8410562
 20
17.4804324
 42
0.0
  0
VERTEX
  8
0
 10
7.8561946
 20
17.507966
 42
0.0
  0
VERTEX
  8
0
 10
7.8906624
 20
17.5755046
 42
0.0
  0
VERTEX
  8
0
 10
7.9016606
 20
17.6030382
 42
0.0
  0
VERTEX
  8
0
 10
7.9347568
 20
17.6871122
 42
0.0
  0
VERTEX
  8
0
 10
7.9678022
 20
17.8014884
 42
0.0
  0
VERTEX
  8
0
 10
7.9884778
 20
17.9186332
 42
0.0
  0
VERTEX
  8
0
 10
7.9995268
 20
18.0371496
 42
0.0
  0
VERTEX
  8
0
 10
7.9967582
 20
18.1570376
 42
0.0
  0
VERTEX
  8
0
 10
7.9884778
 20
18.2245762
 42
0.0
  0
VERTEX
  8
0
 10
7.982966
 20
18.275554
 42
0.0
  0
VERTEX
  8
0
 10
7.9581756
 20
18.3926734
 42
0.0
  0
VERTEX
  8
0
 10
7.9209646
 20
18.5056526
 42
0.0
  0
VERTEX
  8
0
 10
7.8741016
 20
18.6145424
 42
0.0
  0
VERTEX
  8
0
 10
7.8672182
 20
18.6269376
 42
0.0
  0
VERTEX
  8
0
 10
7.8561946
 20
18.6476132
 42
0.0
  0
VERTEX
  8
0
 10
7.8410562
 20
18.6738006
 42
0.0
  0
VERTEX
  8
0
 10
7.8162404
 20
18.7192666
 42
0.0
  0
VERTEX
  8
0
 10
7.7473048
 20
18.8171074
 42
0.0
  0
VERTEX
  8
0
 10
7.7252576
 20
18.8446918
 42
0.0
  0
VERTEX
  8
0
 10
7.6715366
 20
18.9080648
 42
0.0
  0
VERTEX
  8
0
 10
7.5847194
 20
18.9907418
 42
0.0
  0
VERTEX
  8
0
 10
7.4923904
 20
19.0651638
 42
0.0
  0
VERTEX
  8
0
 10
7.438644
 20
19.0996062
 42
0.0
  0
VERTEX
  8
0
 10
7.391781
 20
19.1299338
 42
0.0
  0
VERTEX
  8
0
 10
7.3697338
 20
19.1409574
 42
0.0
  0
VERTEX
  8
0
 10
7.2856852
 20
19.1836548
 42
0.0
  0
VERTEX
  8
0
 10
7.1754238
 20
19.2277746
 42
0.0
  0
VERTEX
  8
0
 10
7.059676
 20
19.2608454
 42
0.0
  0
VERTEX
  8
0
 10
7.0169532
 20
19.2691004
 42
0.0
  0
VERTEX
  8
0
 10
6.9425566
 20
19.281521
 42
0.0
  0
VERTEX
  8
0
 10
6.8240656
 20
19.2925446
 42
0.0
  0
VERTEX
  8
0
 10
6.7055238
 20
19.289776
 42
0.0
  0
VERTEX
  8
0
 10
6.60908
 20
19.2787524
 42
0.0
  0
VERTEX
  8
0
 10
6.5856612
 20
19.2759838
 42
0.0
  0
VERTEX
  8
0
 10
6.4698626
 20
19.2511934
 42
0.0
  0
VERTEX
  8
0
 10
6.3555118
 20
19.2139824
 42
0.0
  0
VERTEX
  8
0
 10
6.28523
 20
19.1836548
 42
0.0
  0
VERTEX
  8
0
 10
6.2466474
 20
19.1671194
 42
0.0
  0
VERTEX
  8
0
 10
6.1997844
 20
19.1409574
 42
0.0
  0
VERTEX
  8
0
 10
6.1419232
 20
19.1092582
 42
0.0
  0
VERTEX
  8
0
 10
6.0440824
 20
19.041745
 42
0.0
  0
VERTEX
  8
0
 10
6.0316872
 20
19.030696
 42
0.0
  0
VERTEX
  8
0
 10
5.953125
 20
18.9645544
 42
0.0
  0
VERTEX
  8
0
 10
5.8704226
 20
18.8777372
 42
0.0
  0
VERTEX
  8
0
 10
5.796026
 20
18.7854082
 42
0.0
  0
VERTEX
  8
0
 10
5.7794906
 20
18.7592462
 42
0.0
  0
VERTEX
  8
0
 10
5.7326276
 20
18.6847988
 42
0.0
  0
VERTEX
  8
0
 10
5.7023254
 20
18.6269376
 42
0.0
  0
VERTEX
  8
0
 10
5.6954166
 20
18.615914
 42
0.0
  0
VERTEX
  8
0
 10
5.677535
 20
18.5787284
 42
0.0
  0
VERTEX
  8
0
 10
5.6334406
 20
18.4684924
 42
0.0
  0
VERTEX
  8
0
 10
5.6003444
 20
18.3526938
 42
0.0
  0
VERTEX
  8
0
 10
5.5796688
 20
18.2355744
 42
0.0
  0
VERTEX
  8
0
 10
5.5700422
 20
18.1170834
 42
0.0
  0
VERTEX
  8
0
 10
5.5714138
 20
17.9985416
 42
0.0
  0
VERTEX
  8
0
 10
5.5851806
 20
17.878679
 42
0.0
  0
VERTEX
  8
0
 10
5.609971
 20
17.7629312
 42
0.0
  0
VERTEX
  8
0
 10
5.6472074
 20
17.6485296
 42
0.0
  0
VERTEX
  8
0
 10
5.666486
 20
17.6030382
 42
0.0
  0
VERTEX
  8
0
 10
5.694045
 20
17.5396906
 42
0.0
  0
VERTEX
  8
0
 10
5.6954166
 20
17.5368966
 42
0.0
  0
VERTEX
  8
0
 10
5.7519316
 20
17.434941
 42
0.0
  0
VERTEX
  8
0
 10
5.8194448
 20
17.3371002
 42
0.0
  0
VERTEX
  8
0
 10
5.89661
 20
17.2461428
 42
0.0
  0
VERTEX
  8
0
 10
5.9834272
 20
17.1634404
 42
0.0
  0
VERTEX
  8
0
 10
6.071616
 20
17.0918124
 42
0.0
  0
VERTEX
  8
0
 10
6.0757816
 20
17.0890438
 42
0.0
  0
SEQEND
  0
POLYLINE
  8
0
 66
     1
 10
0.0
 20
0.0
 30
0.0
 70
     1
  0
VERTEX
  8
0
 10
8.4625434
 20
22.0169232
 42
0.0
  0
VERTEX
  8
0
 10
8.5424518
 20
21.9755974
 42
0.0
  0
VERTEX
  8
0
 10
8.5686646
 20
21.9617798
 42
0.0
  0
VERTEX
  8
0
 10
8.6568534
 20
21.9273628
 42
0.0
  0
VERTEX
  8
0
 10
8.6802722
 20
21.9176854
 42
0.0
  0
VERTEX
  8
0
 10
8.7946484
 20
21.8860116
 42
0.0
  0
VERTEX
  8
0
 10
8.9117678
 20
21.8639644
 42
0.0
  0
VERTEX
  8
0
 10
9.0316812
 20
21.855684
 42
0.0
  0
VERTEX
  8
0
 10
9.1501722
 20
21.8570556
 42
0.0
  0
VERTEX
  8
0
 10
9.2686632
 20
21.8694762
 42
0.0
  0
VERTEX
  8
0
 10
9.3844618
 20
21.8956382
 42
0.0
  0
VERTEX
  8
0
 10
9.497441
 20
21.9314776
 42
0.0
  0
VERTEX
  8
0
 10
9.6007682
 20
21.9755974
 42
0.0
  0
VERTEX
  8
0
 10
9.6077024
 20
21.9797122
 42
0.0
  0
VERTEX
  8
0
 10
9.6807274
 20
22.0196918
 42
0.0
  0
VERTEX
  8
0
 10
9.7124266
 20
22.0375988
 42
0.0
  0
VERTEX
  8
0
 10
9.7827084
 20
22.0858334
 42
0.0
  0
VERTEX
  8
0
 10
9.8102674
 20
22.1051374
 42
0.0
  0
VERTEX
  8
0
 10
9.9011994
 20
22.1822772
 42
0.0
  0
VERTEX
  8
0
 10
9.9839018
 20
22.2677228
 42
0.0
  0
VERTEX
  8
0
 10
10.0569268
 20
22.3600518
 42
0.0
  0
VERTEX
  8
0
 10
10.0582984
 20
22.3614234
 42
0.0
  0
VERTEX
  8
0
 10
10.1230684
 20
22.4620328
 42
0.0
  0
VERTEX
  8
0
 10
10.135489
 20
22.4854516
 42
0.0
  0
VERTEX
  8
0
 10
10.1768402
 20
22.568154
 42
0.0
  0
VERTEX
  8
0
 10
10.2209346
 20
22.6797616
 42
0.0
  0
VERTEX
  8
0
 10
10.2333044
 20
22.7224844
 42
0.0
  0
VERTEX
  8
0
 10
10.25398
 20
22.7927662
 42
0.0
  0
VERTEX
  8
0
 10
10.2746556
 20
22.9112572
 42
0.0
  0
VERTEX
  8
0
 10
10.2857046
 20
23.029799
 42
0.0
  0
VERTEX
  8
0
 10
10.2829106
 20
23.1496616
 42
0.0
  0
VERTEX
  8
0
 10
10.2691438
 20
23.266781
 42
0.0
  0
VERTEX
  8
0
 10
10.2443534
 20
23.3839512
 42
0.0
  0
VERTEX
  8
0
 10
10.208514
 20
23.4969304
 42
0.0
  0
VERTEX
  8
0
 10
10.1602794
 20
23.6071918
 42
0.0
  0
VERTEX
  8
0
 10
10.135489
 20
23.6512862
 42
0.0
  0
VERTEX
  8
0
 10
10.1023928
 20
23.710519
 42
0.0
  0
VERTEX
  8
0
 10
10.0776024
 20
23.74773
 42
0.0
  0
VERTEX
  8
0
 10
10.0334826
 20
23.8097568
 42
0.0
  0
VERTEX
  8
0
 10
9.9563428
 20
23.9006888
 42
0.0
  0
VERTEX
  8
0
 10
9.8722688
 20
23.9833912
 42
0.0
  0
VERTEX
  8
0
 10
9.7785682
 20
24.0577878
 42
0.0
  0
VERTEX
  8
0
 10
9.6779588
 20
24.1225578
 42
0.0
  0
VERTEX
  8
0
 10
9.5718376
 20
24.1763296
 42
0.0
  0
VERTEX
  8
0
 10
9.4616016
 20
24.220424
 42
0.0
  0
VERTEX
  8
0
 10
9.3458538
 20
24.2534694
 42
0.0
  0
VERTEX
  8
0
 10
9.2287344
 20
24.274145
 42
0.0
  0
VERTEX
  8
0
 10
9.1101926
 20
24.2837716
 42
0.0
  0
VERTEX
  8
0
 10
8.99033
 20
24.2824
 42
0.0
  0
VERTEX
  8
0
 10
8.8717882
 20
24.2686332
 42
0.0
  0
VERTEX
  8
0
 10
8.7560404
 20
24.2424712
 42
0.0
  0
VERTEX
  8
0
 10
8.6568534
 20
24.2107466
 42
0.0
  0
VERTEX
  8
0
 10
8.6416896
 20
24.2066318
 42
0.0
  0
VERTEX
  8
0
 10
8.5328252
 20
24.1597688
 42
0.0
  0
VERTEX
  8
0
 10
8.4666582
 20
24.1225578
 42
0.0
  0
VERTEX
  8
0
 10
8.4294472
 20
24.1005106
 42
0.0
  0
VERTEX
  8
0
 10
8.3316318
 20
24.0329974
 42
0.0
  0
VERTEX
  8
0
 10
8.2985356
 20
24.0054384
 42
0.0
  0
VERTEX
  8
0
 10
8.2406744
 20
23.9558322
 42
0.0
  0
VERTEX
  8
0
 10
8.1566004
 20
23.8703866
 42
0.0
  0
VERTEX
  8
0
 10
8.0835754
 20
23.7766606
 42
0.0
  0
VERTEX
  8
0
 10
8.0628998
 20
23.74773
 42
0.0
  0
VERTEX
  8
0
 10
8.0174338
 20
23.6774482
 42
0.0
  0
VERTEX
  8
0
 10
7.9884778
 20
23.6209332
 42
0.0
  0
VERTEX
  8
0
 10
7.9636874
 20
23.5713524
 42
0.0
  0
VERTEX
  8
0
 10
7.9195676
 20
23.4597194
 42
0.0
  0
VERTEX
  8
0
 10
7.8865222
 20
23.3453432
 42
0.0
  0
VERTEX
  8
0
 10
7.8658466
 20
23.2282238
 42
0.0
  0
VERTEX
  8
0
 10
7.8561946
 20
23.1097074
 42
0.0
  0
VERTEX
  8
0
 10
7.8575662
 20
22.9898194
 42
0.0
  0
VERTEX
  8
0
 10
7.8713584
 20
22.8712776
 42
0.0
  0
VERTEX
  8
0
 10
7.8975204
 20
22.7555298
 42
0.0
  0
VERTEX
  8
0
 10
7.9071978
 20
22.7224844
 42
0.0
  0
VERTEX
  8
0
 10
7.9333852
 20
22.641179
 42
0.0
  0
VERTEX
  8
0
 10
7.9802228
 20
22.5323146
 42
0.0
  0
VERTEX
  8
0
 10
7.9884778
 20
22.5157538
 42
0.0
  0
VERTEX
  8
0
 10
8.0381094
 20
22.427565
 42
0.0
  0
VERTEX
  8
0
 10
8.0973422
 20
22.3421194
 42
0.0
  0
VERTEX
  8
0
 10
8.1056226
 20
22.3297496
 42
0.0
  0
VERTEX
  8
0
 10
8.1827878
 20
22.2387922
 42
0.0
  0
VERTEX
  8
0
 10
8.269605
 20
22.1560898
 42
0.0
  0
VERTEX
  8
0
 10
8.3605624
 20
22.0816932
 42
0.0
  0
VERTEX
  8
0
 10
8.361934
 20
22.0816932
 42
0.0
  0
SEQEND
  0
ENDSEC
  0
EOF
