  0
SECTION
  2
HEADER
  9
$ACADVER
  1
AC1009
  9
$EXTMAX
 10
76.7499084472656
 20
169.743881225586
 30
0.0
  9
$EXTMIN
 10
1.0004577636719
 20
1.2168073654175
 30
0.0
  9
$INSUNITS
 70
     4
  9
$LUNITS
 70
     2
  9
$LUPREC
 70
     4
  9
$MEASUREMENT
 70
     1
  0
ENDSEC
  0
SECTION
  2
TABLES
  0
TABLE
  2
LAYER
 70
     1
  0
LAYER
  2
0
 70
     0
 62
     7
  6
Continuous
  0
ENDTAB
  0
TABLE
  2
APPID
 70
     1
  0
APPID
  2
ACAD
 70
     0
  0
ENDTAB
  0
ENDSEC
  0
SECTION
  2
ENTITIES
  0
POLYLINE
  8
0
 66
     1
 10
0.0
 20
0.0
 30
0.0
 70
     1
  0
VERTEX
  8
0
 10
48.514
 20
124.030232
 42
0.0
  0
VERTEX
  8
0
 10
48.432466
 20
124.024644
 42
0.0
  0
VERTEX
  8
0
 10
48.363632
 20
124.008388
 42
0.0
  0
VERTEX
  8
0
 10
48.359568
 20
124.007118
 42
0.0
  0
VERTEX
  8
0
 10
48.330612
 20
124.000006
 42
0.0
  0
VERTEX
  8
0
 10
48.213518
 20
123.972574
 42
0.0
  0
VERTEX
  8
0
 10
48.172116
 20
123.962922
 42
0.0
  0
VERTEX
  8
0
 10
48.090582
 20
123.928378
 42
0.0
  0
VERTEX
  8
0
 10
48.038512
 20
123.910344
 42
0.0
  0
VERTEX
  8
0
 10
47.982124
 20
123.884182
 42
0.0
  0
VERTEX
  8
0
 10
47.925482
 20
123.861068
 42
0.0
  0
VERTEX
  8
0
 10
47.904654
 20
123.847098
 42
0.0
  0
VERTEX
  8
0
 10
47.888144
 20
123.838716
 42
0.0
  0
VERTEX
  8
0
 10
47.744888
 20
123.753372
 42
0.0
  0
VERTEX
  8
0
 10
47.713138
 20
123.72975
 42
0.0
  0
VERTEX
  8
0
 10
47.698152
 20
123.720352
 42
0.0
  0
VERTEX
  8
0
 10
47.678594
 20
123.703588
 42
0.0
  0
VERTEX
  8
0
 10
47.611284
 20
123.654312
 42
0.0
  0
VERTEX
  8
0
 10
47.487078
 20
123.541028
 42
0.0
  0
VERTEX
  8
0
 10
47.484538
 20
123.538488
 42
0.0
  0
VERTEX
  8
0
 10
47.375572
 20
123.417076
 42
0.0
  0
VERTEX
  8
0
 10
47.335694
 20
123.366022
 42
0.0
  0
VERTEX
  8
0
 10
47.31766
 20
123.33986
 42
0.0
  0
VERTEX
  8
0
 10
47.274988
 20
123.283472
 42
0.0
  0
VERTEX
  8
0
 10
47.189644
 20
123.140216
 42
0.0
  0
VERTEX
  8
0
 10
47.166022
 20
123.090432
 42
0.0
  0
VERTEX
  8
0
 10
47.118016
 20
122.989848
 42
0.0
  0
VERTEX
  8
0
 10
47.086266
 20
122.90044
 42
0.0
  0
VERTEX
  8
0
 10
47.061374
 20
122.831606
 42
0.0
  0
VERTEX
  8
0
 10
47.021496
 20
122.669046
 42
0.0
  0
VERTEX
  8
0
 10
47.004732
 20
122.558556
 42
0.0
  0
VERTEX
  8
0
 10
46.996604
 20
122.504962
 42
0.0
  0
VERTEX
  8
0
 10
46.991016
 20
122.401584
 42
0.0
  0
VERTEX
  8
0
 10
46.988222
 20
122.338084
 42
0.0
  0
VERTEX
  8
0
 10
46.996604
 20
122.17019
 42
0.0
  0
VERTEX
  8
0
 10
47.021496
 20
122.006106
 42
0.0
  0
VERTEX
  8
0
 10
47.022766
 20
121.9962
 42
0.0
  0
VERTEX
  8
0
 10
47.061374
 20
121.843546
 42
0.0
  0
VERTEX
  8
0
 10
47.094394
 20
121.75236
 42
0.0
  0
VERTEX
  8
0
 10
47.118016
 20
121.686574
 42
0.0
  0
VERTEX
  8
0
 10
47.189644
 20
121.536206
 42
0.0
  0
VERTEX
  8
0
 10
47.213012
 20
121.497344
 42
0.0
  0
VERTEX
  8
0
 10
47.266606
 20
121.406666
 42
0.0
  0
VERTEX
  8
0
 10
47.274988
 20
121.391426
 42
0.0
  0
VERTEX
  8
0
 10
47.330106
 20
121.317004
 42
0.0
  0
VERTEX
  8
0
 10
47.375572
 20
121.257822
 42
0.0
  0
VERTEX
  8
0
 10
47.487078
 20
121.133616
 42
0.0
  0
VERTEX
  8
0
 10
47.54499
 20
121.081546
 42
0.0
  0
VERTEX
  8
0
 10
47.611284
 20
121.02211
 42
0.0
  0
VERTEX
  8
0
 10
47.744888
 20
120.922796
 42
0.0
  0
VERTEX
  8
0
 10
47.760128
 20
120.913144
 42
0.0
  0
VERTEX
  8
0
 10
47.888144
 20
120.835928
 42
0.0
  0
VERTEX
  8
0
 10
47.984918
 20
120.790462
 42
0.0
  0
VERTEX
  8
0
 10
48.038512
 20
120.7643
 42
0.0
  0
VERTEX
  8
0
 10
48.196754
 20
120.707912
 42
0.0
  0
VERTEX
  8
0
 10
48.231298
 20
120.699784
 42
0.0
  0
VERTEX
  8
0
 10
48.359568
 20
120.668034
 42
0.0
  0
VERTEX
  8
0
 10
48.479456
 20
120.65
 42
0.0
  0
VERTEX
  8
0
 10
48.523398
 20
120.642888
 42
0.0
  0
VERTEX
  8
0
 10
48.655732
 20
120.637554
 42
0.0
  0
VERTEX
  8
0
 10
48.691546
 20
120.63476
 42
0.0
  0
VERTEX
  8
0
 10
48.792384
 20
120.640348
 42
0.0
  0
VERTEX
  8
0
 10
48.858424
 20
120.642888
 42
0.0
  0
VERTEX
  8
0
 10
49.001426
 20
120.663716
 42
0.0
  0
VERTEX
  8
0
 10
49.022254
 20
120.668034
 42
0.0
  0
VERTEX
  8
0
 10
49.185068
 20
120.707912
 42
0.0
  0
VERTEX
  8
0
 10
49.194466
 20
120.711976
 42
0.0
  0
VERTEX
  8
0
 10
49.34204
 20
120.7643
 42
0.0
  0
VERTEX
  8
0
 10
49.486566
 20
120.833388
 42
0.0
  0
VERTEX
  8
0
 10
49.493678
 20
120.835928
 42
0.0
  0
VERTEX
  8
0
 10
49.636934
 20
120.922796
 42
0.0
  0
VERTEX
  8
0
 10
49.685194
 20
120.95734
 42
0.0
  0
VERTEX
  8
0
 10
49.69891
 20
120.966738
 42
0.0
  0
VERTEX
  8
0
 10
49.715674
 20
120.979438
 42
0.0
  0
VERTEX
  8
0
 10
49.770538
 20
121.02211
 42
0.0
  0
VERTEX
  8
0
 10
49.894744
 20
121.133616
 42
0.0
  0
VERTEX
  8
0
 10
49.901602
 20
121.139204
 42
0.0
  0
VERTEX
  8
0
 10
49.931828
 20
121.173494
 42
0.0
  0
VERTEX
  8
0
 10
50.007774
 20
121.257822
 42
0.0
  0
VERTEX
  8
0
 10
50.032412
 20
121.292112
 42
0.0
  0
VERTEX
  8
0
 10
50.076354
 20
121.341896
 42
0.0
  0
VERTEX
  8
0
 10
50.1015
 20
121.383044
 42
0.0
  0
VERTEX
  8
0
 10
50.106834
 20
121.391426
 42
0.0
  0
VERTEX
  8
0
 10
50.141378
 20
121.449338
 42
0.0
  0
VERTEX
  8
0
 10
50.185574
 20
121.52249
 42
0.0
  0
VERTEX
  8
0
 10
50.214276
 20
121.570496
 42
0.0
  0
VERTEX
  8
0
 10
50.258472
 20
121.676668
 42
0.0
  0
VERTEX
  8
0
 10
50.263806
 20
121.686574
 42
0.0
  0
VERTEX
  8
0
 10
50.268124
 20
121.697496
 42
0.0
  0
VERTEX
  8
0
 10
50.306732
 20
121.789444
 42
0.0
  0
VERTEX
  8
0
 10
50.317654
 20
121.817384
 42
0.0
  0
VERTEX
  8
0
 10
50.379884
 20
122.077734
 42
0.0
  0
VERTEX
  8
0
 10
50.400204
 20
122.343672
 42
0.0
  0
VERTEX
  8
0
 10
50.379884
 20
122.60961
 42
0.0
  0
VERTEX
  8
0
 10
50.317654
 20
122.86996
 42
0.0
  0
VERTEX
  8
0
 10
50.214276
 20
123.116594
 42
0.0
  0
VERTEX
  8
0
 10
50.076354
 20
123.344178
 42
0.0
  0
VERTEX
  8
0
 10
50.058574
 20
123.366022
 42
0.0
  0
VERTEX
  8
0
 10
49.901602
 20
123.54814
 42
0.0
  0
VERTEX
  8
0
 10
49.69891
 20
123.720352
 42
0.0
  0
VERTEX
  8
0
 10
49.471326
 20
123.861068
 42
0.0
  0
VERTEX
  8
0
 10
49.224946
 20
123.962922
 42
0.0
  0
VERTEX
  8
0
 10
48.964596
 20
124.024644
 42
0.0
  0
VERTEX
  8
0
 10
48.698404
 20
124.045472
 42
0.0
  0
VERTEX
  8
0
 10
48.634904
 20
124.039884
 42
0.0
  0
VERTEX
  8
0
 10
48.54829
 20
124.033026
 42
0.0
  0
VERTEX
  8
0
 10
48.523398
 20
124.033026
 42
0.0
  0
SEQEND
  0
POLYLINE
  8
0
 66
     1
 10
0.0
 20
0.0
 30
0.0
 70
     1
  0
VERTEX
  8
0
 10
9.6268162760117
 20
111.193646559348
 42
0.0
  0
VERTEX
  8
0
 10
9.6489679450974
 20
111.100849026692
 42
0.0
  0
VERTEX
  8
0
 10
9.6799911671583
 20
110.979749607244
 42
0.0
  0
VERTEX
  8
0
 10
9.7124566969116
 20
110.761226385183
 42
0.0
  0
VERTEX
  8
0
 10
9.7228249842846
 20
110.541342495488
 42
0.0
  0
VERTEX
  8
0
 10
9.7124566969116
 20
110.319825804631
 42
0.0
  0
VERTEX
  8
0
 10
9.6799911671583
 20
110.10130258257
 42
0.0
  0
VERTEX
  8
0
 10
9.6268162760117
 20
109.887133496939
 42
0.0
  0
VERTEX
  8
0
 10
9.5515169291322
 20
109.680312016533
 42
0.0
  0
VERTEX
  8
0
 10
9.4570321686097
 20
109.481110274878
 42
0.0
  0
VERTEX
  8
0
 10
9.3433347810915
 20
109.290616806083
 42
0.0
  0
VERTEX
  8
0
 10
9.2134454487258
 20
109.113457880103
 42
0.0
  0
VERTEX
  8
0
 10
9.0643434893644
 20
108.949905630466
 42
0.0
  0
VERTEX
  8
0
 10
9.0170738957505
 20
108.90718066675
 42
0.0
  0
VERTEX
  8
0
 10
8.9004374661423
 20
108.800504324225
 42
0.0
  0
VERTEX
  8
0
 10
8.72325132681
 20
108.669335964283
 42
0.0
  0
VERTEX
  8
0
 10
8.53281228472
 20
108.556944817694
 42
0.0
  0
VERTEX
  8
0
 10
8.3335016896547
 20
108.461153816242
 42
0.0
  0
VERTEX
  8
0
 10
8.126789062659
 20
108.387405630466
 42
0.0
  0
VERTEX
  8
0
 10
7.9127288304384
 20
108.334067459203
 42
0.0
  0
VERTEX
  8
0
 10
7.8728340554021
 20
108.328080521613
 42
0.0
  0
VERTEX
  8
0
 10
7.6942056083775
 20
108.301683569508
 42
0.0
  0
VERTEX
  8
0
 10
7.4727161308738
 20
108.291342495488
 42
0.0
  0
VERTEX
  8
0
 10
7.2527506011206
 20
108.301683569508
 42
0.0
  0
VERTEX
  8
0
 10
7.0342545924123
 20
108.334067459203
 42
0.0
  0
VERTEX
  8
0
 10
6.820167146839
 20
108.387405630466
 42
0.0
  0
VERTEX
  8
0
 10
6.6119849987984
 20
108.461153816242
 42
0.0
  0
VERTEX
  8
0
 10
6.4126471903804
 20
108.556944817694
 42
0.0
  0
VERTEX
  8
0
 10
6.2236776693354
 20
108.669335964283
 42
0.0
  0
VERTEX
  8
0
 10
6.0450492223107
 20
108.800504324225
 42
0.0
  0
VERTEX
  8
0
 10
5.9284127927026
 20
108.90718066675
 42
0.0
  0
VERTEX
  8
0
 10
5.8811704124413
 20
108.949905630466
 42
0.0
  0
VERTEX
  8
0
 10
5.7335379741249
 20
109.113457880103
 42
0.0
  0
VERTEX
  8
0
 10
5.6788663485807
 20
109.187478199406
 42
0.0
  0
VERTEX
  8
0
 10
5.6021246940088
 20
109.290616806083
 42
0.0
  0
VERTEX
  8
0
 10
5.4884273064907
 20
109.481110274878
 42
0.0
  0
VERTEX
  8
0
 10
5.3939425459682
 20
109.680312016533
 42
0.0
  0
VERTEX
  8
0
 10
5.3201127201336
 20
109.887133496939
 42
0.0
  0
VERTEX
  8
0
 10
5.2669650423397
 20
110.10130258257
 42
0.0
  0
VERTEX
  8
0
 10
5.2330027781888
 20
110.319825804631
 42
0.0
  0
VERTEX
  8
0
 10
5.2226889175212
 20
110.541342495488
 42
0.0
  0
VERTEX
  8
0
 10
5.2330027781888
 20
110.761226385183
 42
0.0
  0
VERTEX
  8
0
 10
5.2669650423397
 20
110.979749607244
 42
0.0
  0
VERTEX
  8
0
 10
5.297961051048
 20
111.100849026692
 42
0.0
  0
VERTEX
  8
0
 10
5.3201127201336
 20
111.193646559348
 42
0.0
  0
VERTEX
  8
0
 10
5.3939425459682
 20
111.402100840916
 42
0.0
  0
VERTEX
  8
0
 10
5.4884273064907
 20
111.601574716097
 42
0.0
  0
VERTEX
  8
0
 10
5.6021246940088
 20
111.790435383732
 42
0.0
  0
VERTEX
  8
0
 10
5.6788663485807
 20
111.895206791569
 42
0.0
  0
VERTEX
  8
0
 10
5.7335379741249
 20
111.968954977345
 42
0.0
  0
VERTEX
  8
0
 10
5.8811704124413
 20
112.131418692875
 42
0.0
  0
VERTEX
  8
0
 10
5.9564425459682
 20
112.199452074588
 42
0.0
  0
VERTEX
  8
0
 10
6.0450492223107
 20
112.280275732062
 42
0.0
  0
VERTEX
  8
0
 10
6.2236776693354
 20
112.411988359058
 42
0.0
  0
VERTEX
  8
0
 10
6.4126471903804
 20
112.525740173282
 42
0.0
  0
VERTEX
  8
0
 10
6.6119849987984
 20
112.620170507099
 42
0.0
  0
VERTEX
  8
0
 10
6.820167146839
 20
112.693918692875
 42
0.0
  0
VERTEX
  8
0
 10
7.0342545924123
 20
112.747256864138
 42
0.0
  0
VERTEX
  8
0
 10
7.2527506011206
 20
112.779640753833
 42
0.0
  0
VERTEX
  8
0
 10
7.4727161308738
 20
112.791342495488
 42
0.0
  0
VERTEX
  8
0
 10
7.6942056083775
 20
112.779640753833
 42
0.0
  0
VERTEX
  8
0
 10
7.8728340554021
 20
112.752971668202
 42
0.0
  0
VERTEX
  8
0
 10
7.9127288304384
 20
112.747256864138
 42
0.0
  0
VERTEX
  8
0
 10
8.126789062659
 20
112.693918692875
 42
0.0
  0
VERTEX
  8
0
 10
8.3335016896547
 20
112.620170507099
 42
0.0
  0
VERTEX
  8
0
 10
8.53281228472
 20
112.525740173282
 42
0.0
  0
VERTEX
  8
0
 10
8.72325132681
 20
112.411988359058
 42
0.0
  0
VERTEX
  8
0
 10
8.9004374661423
 20
112.280275732062
 42
0.0
  0
VERTEX
  8
0
 10
8.9890169291322
 20
112.199452074588
 42
0.0
  0
VERTEX
  8
0
 10
9.0643434893644
 20
112.131418692875
 42
0.0
  0
VERTEX
  8
0
 10
9.2134454487258
 20
111.968954977345
 42
0.0
  0
VERTEX
  8
0
 10
9.3433347810915
 20
111.790435383732
 42
0.0
  0
VERTEX
  8
0
 10
9.4570321686097
 20
111.601574716097
 42
0.0
  0
VERTEX
  8
0
 10
9.5515169291322
 20
111.402100840916
 42
0.0
  0
SEQEND
  0
POLYLINE
  8
0
 66
     1
 10
0.0
 20
0.0
 30
0.0
 70
     1
  0
VERTEX
  8
0
 10
30.378908
 20
123.363228
 42
0.0
  0
VERTEX
  8
0
 10
30.377384
 20
123.366022
 42
0.0
  0
VERTEX
  8
0
 10
30.338776
 20
123.417076
 42
0.0
  0
VERTEX
  8
0
 10
30.235652
 20
123.5329
 42
0.0
  0
VERTEX
  8
0
 10
30.22727
 20
123.541028
 42
0.0
  0
VERTEX
  8
0
 10
30.103318
 20
123.654312
 42
0.0
  0
VERTEX
  8
0
 10
30.024578
 20
123.712224
 42
0.0
  0
VERTEX
  8
0
 10
29.96946
 20
123.753372
 42
0.0
  0
VERTEX
  8
0
 10
29.835856
 20
123.833128
 42
0.0
  0
VERTEX
  8
0
 10
29.824934
 20
123.838716
 42
0.0
  0
VERTEX
  8
0
 10
29.673296
 20
123.910344
 42
0.0
  0
VERTEX
  8
0
 10
29.517594
 20
123.966732
 42
0.0
  0
VERTEX
  8
0
 10
29.505148
 20
123.969526
 42
0.0
  0
VERTEX
  8
0
 10
29.355034
 20
124.007118
 42
0.0
  0
VERTEX
  8
0
 10
29.244798
 20
124.024644
 42
0.0
  0
VERTEX
  8
0
 10
29.18968
 20
124.033026
 42
0.0
  0
VERTEX
  8
0
 10
29.022802
 20
124.039884
 42
0.0
  0
VERTEX
  8
0
 10
28.955238
 20
124.037344
 42
0.0
  0
VERTEX
  8
0
 10
28.856178
 20
124.033026
 42
0.0
  0
VERTEX
  8
0
 10
28.690824
 20
124.007118
 42
0.0
  0
VERTEX
  8
0
 10
28.682442
 20
124.005594
 42
0.0
  0
VERTEX
  8
0
 10
28.580588
 20
123.979432
 42
0.0
  0
VERTEX
  8
0
 10
28.528264
 20
123.966732
 42
0.0
  0
VERTEX
  8
0
 10
28.371038
 20
123.910344
 42
0.0
  0
VERTEX
  8
0
 10
28.311856
 20
123.882912
 42
0.0
  0
VERTEX
  8
0
 10
28.2194
 20
123.838716
 42
0.0
  0
VERTEX
  8
0
 10
28.173934
 20
123.811284
 42
0.0
  0
VERTEX
  8
0
 10
28.077414
 20
123.753372
 42
0.0
  0
VERTEX
  8
0
 10
27.94254
 20
123.654312
 42
0.0
  0
VERTEX
  8
0
 10
27.883358
 20
123.59894
 42
0.0
  0
VERTEX
  8
0
 10
27.818588
 20
123.541028
 42
0.0
  0
VERTEX
  8
0
 10
27.706828
 20
123.417076
 42
0.0
  0
VERTEX
  8
0
 10
27.66822
 20
123.366022
 42
0.0
  0
VERTEX
  8
0
 10
27.607514
 20
123.283472
 42
0.0
  0
VERTEX
  8
0
 10
27.589734
 20
123.25604
 42
0.0
  0
VERTEX
  8
0
 10
27.548332
 20
123.186952
 42
0.0
  0
VERTEX
  8
0
 10
27.5209
 20
123.140216
 42
0.0
  0
VERTEX
  8
0
 10
27.450542
 20
122.989848
 42
0.0
  0
VERTEX
  8
0
 10
27.39263
 20
122.831606
 42
0.0
  0
VERTEX
  8
0
 10
27.378914
 20
122.776234
 42
0.0
  0
VERTEX
  8
0
 10
27.352752
 20
122.669046
 42
0.0
  0
VERTEX
  8
0
 10
27.329384
 20
122.515884
 42
0.0
  0
VERTEX
  8
0
 10
27.32786
 20
122.504962
 42
0.0
  0
VERTEX
  8
0
 10
27.322272
 20
122.395996
 42
0.0
  0
VERTEX
  8
0
 10
27.319478
 20
122.338084
 42
0.0
  0
VERTEX
  8
0
 10
27.32786
 20
122.17019
 42
0.0
  0
VERTEX
  8
0
 10
27.352752
 20
122.006106
 42
0.0
  0
VERTEX
  8
0
 10
27.354022
 20
122.001788
 42
0.0
  0
VERTEX
  8
0
 10
27.389836
 20
121.858532
 42
0.0
  0
VERTEX
  8
0
 10
27.39263
 20
121.843546
 42
0.0
  0
VERTEX
  8
0
 10
27.450542
 20
121.686574
 42
0.0
  0
VERTEX
  8
0
 10
27.5209
 20
121.536206
 42
0.0
  0
VERTEX
  8
0
 10
27.526234
 20
121.5263
 42
0.0
  0
VERTEX
  8
0
 10
27.607514
 20
121.391426
 42
0.0
  0
VERTEX
  8
0
 10
27.654504
 20
121.327926
 42
0.0
  0
VERTEX
  8
0
 10
27.662632
 20
121.317004
 42
0.0
  0
VERTEX
  8
0
 10
27.706828
 20
121.257822
 42
0.0
  0
VERTEX
  8
0
 10
27.818588
 20
121.133616
 42
0.0
  0
VERTEX
  8
0
 10
27.826716
 20
121.125488
 42
0.0
  0
VERTEX
  8
0
 10
27.841956
 20
121.113296
 42
0.0
  0
VERTEX
  8
0
 10
27.94254
 20
121.02211
 42
0.0
  0
VERTEX
  8
0
 10
27.988006
 20
120.987566
 42
0.0
  0
VERTEX
  8
0
 10
28.030678
 20
120.951752
 42
0.0
  0
VERTEX
  8
0
 10
28.067762
 20
120.929654
 42
0.0
  0
VERTEX
  8
0
 10
28.077414
 20
120.922796
 42
0.0
  0
VERTEX
  8
0
 10
28.167076
 20
120.867678
 42
0.0
  0
VERTEX
  8
0
 10
28.215336
 20
120.838722
 42
0.0
  0
VERTEX
  8
0
 10
28.258008
 20
120.81256
 42
0.0
  0
VERTEX
  8
0
 10
28.311856
 20
120.790462
 42
0.0
  0
VERTEX
  8
0
 10
28.350464
 20
120.774206
 42
0.0
  0
VERTEX
  8
0
 10
28.371038
 20
120.7643
 42
0.0
  0
VERTEX
  8
0
 10
28.394406
 20
120.756172
 42
0.0
  0
VERTEX
  8
0
 10
28.481274
 20
120.720104
 42
0.0
  0
VERTEX
  8
0
 10
28.504642
 20
120.710706
 42
0.0
  0
VERTEX
  8
0
 10
28.765246
 20
120.647206
 42
0.0
  0
VERTEX
  8
0
 10
29.031184
 20
120.626632
 42
0.0
  0
VERTEX
  8
0
 10
29.297122
 20
120.647206
 42
0.0
  0
VERTEX
  8
0
 10
29.556202
 20
120.710706
 42
0.0
  0
VERTEX
  8
0
 10
29.802836
 20
120.81256
 42
0.0
  0
VERTEX
  8
0
 10
30.03169
 20
120.951752
 42
0.0
  0
VERTEX
  8
0
 10
30.234128
 20
121.125488
 42
0.0
  0
VERTEX
  8
0
 10
30.398212
 20
121.317004
 42
0.0
  0
VERTEX
  8
0
 10
30.40634
 20
121.327926
 42
0.0
  0
VERTEX
  8
0
 10
30.545532
 20
121.555256
 42
0.0
  0
VERTEX
  8
0
 10
30.547056
 20
121.556526
 42
0.0
  0
VERTEX
  8
0
 10
30.64891
 20
121.803668
 42
0.0
  0
VERTEX
  8
0
 10
30.710886
 20
122.064018
 42
0.0
  0
VERTEX
  8
0
 10
30.731714
 20
122.329956
 42
0.0
  0
VERTEX
  8
0
 10
30.710886
 20
122.595894
 42
0.0
  0
VERTEX
  8
0
 10
30.64891
 20
122.854974
 42
0.0
  0
VERTEX
  8
0
 10
30.610302
 20
122.950224
 42
0.0
  0
VERTEX
  8
0
 10
30.596586
 20
122.989848
 42
0.0
  0
VERTEX
  8
0
 10
30.578552
 20
123.025662
 42
0.0
  0
VERTEX
  8
0
 10
30.547056
 20
123.101354
 42
0.0
  0
VERTEX
  8
0
 10
30.547056
 20
123.102878
 42
0.0
  0
VERTEX
  8
0
 10
30.545532
 20
123.104402
 42
0.0
  0
VERTEX
  8
0
 10
30.540198
 20
123.1138
 42
0.0
  0
VERTEX
  8
0
 10
30.524958
 20
123.137422
 42
0.0
  0
VERTEX
  8
0
 10
30.523434
 20
123.140216
 42
0.0
  0
VERTEX
  8
0
 10
30.43809
 20
123.283472
 42
0.0
  0
VERTEX
  8
0
 10
30.425644
 20
123.299982
 42
0.0
  0
VERTEX
  8
0
 10
30.40634
 20
123.330462
 42
0.0
  0
SEQEND
  0
POLYLINE
  8
0
 66
     1
 10
0.0
 20
0.0
 30
0.0
 70
     1
  0
VERTEX
  8
0
 10
56.797194
 20
152.584404
 42
0.0
  0
VERTEX
  8
0
 10
56.797194
 20
125.170184
 42
0.0
  0
VERTEX
  8
0
 10
56.839866
 20
125.170184
 42
0.0
  0
VERTEX
  8
0
 10
56.839866
 20
124.305822
 42
0.0
  0
VERTEX
  8
0
 10
56.996838
 20
123.366022
 42
0.0
  0
VERTEX
  8
0
 10
58.117232
 20
116.639848
 42
0.0
  0
VERTEX
  8
0
 10
60.992004
 20
115.17376
 42
0.0
  0
VERTEX
  8
0
 10
61.080396
 20
115.128294
 42
0.0
  0
VERTEX
  8
0
 10
62.571122
 20
114.36731
 42
0.0
  0
VERTEX
  8
0
 10
62.618112
 20
114.390932
 42
0.0
  0
VERTEX
  8
0
 10
64.420496
 20
115.17376
 42
0.0
  0
VERTEX
  8
0
 10
64.76365
 20
115.32235
 42
0.0
  0
VERTEX
  8
0
 10
66.786506
 20
116.070888
 42
0.0
  0
VERTEX
  8
0
 10
68.66509
 20
116.628926
 42
0.0
  0
VERTEX
  8
0
 10
69.272404
 20
116.757196
 42
0.0
  0
VERTEX
  8
0
 10
70.3834
 20
116.992654
 42
0.0
  0
VERTEX
  8
0
 10
71.925434
 20
117.156738
 42
0.0
  0
VERTEX
  8
0
 10
73.274428
 20
117.1194
 42
0.0
  0
VERTEX
  8
0
 10
74.416666
 20
116.880894
 42
0.0
  0
VERTEX
  8
0
 10
75.344274
 20
116.445538
 42
0.0
  0
VERTEX
  8
0
 10
76.045822
 20
115.815872
 42
0.0
  0
VERTEX
  8
0
 10
76.414884
 20
115.17376
 42
0.0
  0
VERTEX
  8
0
 10
76.515722
 20
114.9985
 42
0.0
  0
VERTEX
  8
0
 10
76.74991
 20
114.000788
 42
0.0
  0
VERTEX
  8
0
 10
76.744322
 20
112.832388
 42
0.0
  0
VERTEX
  8
0
 10
76.500482
 20
111.505238
 42
0.0
  0
VERTEX
  8
0
 10
76.359766
 20
111.07674
 42
0.0
  0
VERTEX
  8
0
 10
76.019406
 20
110.032038
 42
0.0
  0
VERTEX
  8
0
 10
75.30846
 20
108.427012
 42
0.0
  0
VERTEX
  8
0
 10
74.521568
 20
106.981244
 42
0.0
  0
VERTEX
  8
0
 10
74.3712
 20
106.704384
 42
0.0
  0
VERTEX
  8
0
 10
73.21804
 20
104.881172
 42
0.0
  0
VERTEX
  8
0
 10
71.86041
 20
102.976426
 42
0.0
  0
VERTEX
  8
0
 10
70.310248
 20
101.007418
 42
0.0
  0
VERTEX
  8
0
 10
69.272404
 20
99.796346
 42
0.0
  0
VERTEX
  8
0
 10
68.583556
 20
98.99269
 42
0.0
  0
VERTEX
  8
0
 10
68.396104
 20
98.788728
 42
0.0
  0
VERTEX
  8
0
 10
66.698368
 20
96.9518
 42
0.0
  0
VERTEX
  8
0
 10
64.669924
 20
94.905322
 42
0.0
  0
VERTEX
  8
0
 10
63.071502
 20
93.393768
 42
0.0
  0
VERTEX
  8
0
 10
62.612524
 20
92.898976
 42
0.0
  0
VERTEX
  8
0
 10
62.391798
 20
92.6084
 42
0.0
  0
VERTEX
  8
0
 10
61.906912
 20
91.968828
 42
0.0
  0
VERTEX
  8
0
 10
61.267594
 20
90.944954
 42
0.0
  0
VERTEX
  8
0
 10
61.089794
 20
90.59799
 42
0.0
  0
VERTEX
  8
0
 10
60.698634
 20
89.833196
 42
0.0
  0
VERTEX
  8
0
 10
60.209176
 20
88.644984
 42
0.0
  0
VERTEX
  8
0
 10
59.801506
 20
87.393526
 42
0.0
  0
VERTEX
  8
0
 10
59.481466
 20
86.088728
 42
0.0
  0
VERTEX
  8
0
 10
59.248802
 20
84.746846
 42
0.0
  0
VERTEX
  8
0
 10
59.10961
 20
83.377024
 42
0.0
  0
VERTEX
  8
0
 10
59.062874
 20
81.994756
 42
0.0
  0
VERTEX
  8
0
 10
59.10961
 20
80.611218
 42
0.0
  0
VERTEX
  8
0
 10
59.248802
 20
79.241396
 42
0.0
  0
VERTEX
  8
0
 10
59.481466
 20
77.899006
 42
0.0
  0
VERTEX
  8
0
 10
59.801506
 20
76.595478
 42
0.0
  0
VERTEX
  8
0
 10
60.209176
 20
75.34275
 42
0.0
  0
VERTEX
  8
0
 10
60.675012
 20
74.212704
 42
0.0
  0
VERTEX
  8
0
 10
60.698634
 20
74.156316
 42
0.0
  0
VERTEX
  8
0
 10
61.080396
 20
73.410826
 42
0.0
  0
VERTEX
  8
0
 10
61.267594
 20
73.044304
 42
0.0
  0
VERTEX
  8
0
 10
61.339222
 20
72.92975
 42
0.0
  0
VERTEX
  8
0
 10
61.906912
 20
72.018906
 42
0.0
  0
VERTEX
  8
0
 10
62.084712
 20
71.783194
 42
0.0
  0
VERTEX
  8
0
 10
62.525656
 20
71.201788
 42
0.0
  0
VERTEX
  8
0
 10
64.669924
 20
69.174868
 42
0.0
  0
VERTEX
  8
0
 10
66.698368
 20
67.12839
 42
0.0
  0
VERTEX
  8
0
 10
67.722496
 20
66.021712
 42
0.0
  0
VERTEX
  8
0
 10
68.583556
 20
65.089024
 42
0.0
  0
VERTEX
  8
0
 10
69.272404
 20
64.285622
 42
0.0
  0
VERTEX
  8
0
 10
70.310248
 20
63.072772
 42
0.0
  0
VERTEX
  8
0
 10
71.86041
 20
61.105034
 42
0.0
  0
VERTEX
  8
0
 10
73.21804
 20
59.199272
 42
0.0
  0
VERTEX
  8
0
 10
74.084688
 20
57.82945
 42
0.0
  0
VERTEX
  8
0
 10
74.3712
 20
57.37606
 42
0.0
  0
VERTEX
  8
0
 10
75.30846
 20
55.654956
 42
0.0
  0
VERTEX
  8
0
 10
76.019406
 20
54.048152
 42
0.0
  0
VERTEX
  8
0
 10
76.122784
 20
53.7337
 42
0.0
  0
VERTEX
  8
0
 10
76.500482
 20
52.574952
 42
0.0
  0
VERTEX
  8
0
 10
76.744322
 20
51.248056
 42
0.0
  0
VERTEX
  8
0
 10
76.74991
 20
50.079402
 42
0.0
  0
VERTEX
  8
0
 10
76.646532
 20
49.636934
 42
0.0
  0
VERTEX
  8
0
 10
76.515722
 20
49.08296
 42
0.0
  0
VERTEX
  8
0
 10
76.045822
 20
48.264572
 42
0.0
  0
VERTEX
  8
0
 10
75.344274
 20
47.634398
 42
0.0
  0
VERTEX
  8
0
 10
74.416666
 20
47.199296
 42
0.0
  0
VERTEX
  8
0
 10
73.274428
 20
46.96079
 42
0.0
  0
VERTEX
  8
0
 10
71.925434
 20
46.924976
 42
0.0
  0
VERTEX
  8
0
 10
70.3834
 20
47.08779
 42
0.0
  0
VERTEX
  8
0
 10
69.272404
 20
47.321978
 42
0.0
  0
VERTEX
  8
0
 10
68.66509
 20
47.449994
 42
0.0
  0
VERTEX
  8
0
 10
66.786506
 20
48.009556
 42
0.0
  0
VERTEX
  8
0
 10
64.76365
 20
48.75911
 42
0.0
  0
VERTEX
  8
0
 10
62.740794
 20
49.636934
 42
0.0
  0
VERTEX
  8
0
 10
62.707774
 20
49.652174
 42
0.0
  0
VERTEX
  8
0
 10
62.680088
 20
49.636934
 42
0.0
  0
VERTEX
  8
0
 10
61.080396
 20
48.82134
 42
0.0
  0
VERTEX
  8
0
 10
58.13679
 20
47.319184
 42
0.0
  0
VERTEX
  8
0
 10
57.821068
 20
45.42155
 42
0.0
  0
VERTEX
  8
0
 10
57.159398
 20
41.445688
 42
0.0
  0
VERTEX
  8
0
 10
56.839866
 20
39.529004
 42
0.0
  0
VERTEX
  8
0
 10
56.839866
 20
5.6168798
 42
0.0
  0
VERTEX
  8
0
 10
52.887626
 20
3.6848796
 42
0.0
  0
VERTEX
  8
0
 10
50.790602
 20
2.6596086
 42
0.0
  0
VERTEX
  8
0
 10
50.546254
 20
2.53972568
 42
0.0
  0
VERTEX
  8
0
 10
47.839884
 20
1.21680732
 42
0.0
  0
VERTEX
  8
0
 10
29.910278
 20
1.21680732
 42
0.0
  0
VERTEX
  8
0
 10
27.228546
 20
2.52869954
 42
0.0
  0
VERTEX
  8
0
 10
21.2769196
 20
5.4391306
 42
0.0
  0
VERTEX
  8
0
 10
20.9103468
 20
5.6168798
 42
0.0
  0
VERTEX
  8
0
 10
20.9103468
 20
39.529004
 42
0.0
  0
VERTEX
  8
0
 10
20.592034
 20
41.445688
 42
0.0
  0
VERTEX
  8
0
 10
20.1193654
 20
44.276518
 42
0.0
  0
VERTEX
  8
0
 10
19.741769
 20
46.543468
 42
0.0
  0
VERTEX
  8
0
 10
19.613626
 20
47.319184
 42
0.0
  0
VERTEX
  8
0
 10
15.0688294
 20
49.636934
 42
0.0
  0
VERTEX
  8
0
 10
15.0426674
 20
49.652174
 42
0.0
  0
VERTEX
  8
0
 10
15.0095966
 20
49.636934
 42
0.0
  0
VERTEX
  8
0
 10
12.986639
 20
48.75911
 42
0.0
  0
VERTEX
  8
0
 10
10.9650276
 20
48.009556
 42
0.0
  0
VERTEX
  8
0
 10
9.0854022
 20
47.449994
 42
0.0
  0
VERTEX
  8
0
 10
7.3669906
 20
47.08779
 42
0.0
  0
VERTEX
  8
0
 10
5.8249566
 20
46.924976
 42
0.0
  0
VERTEX
  8
0
 10
4.475861
 20
46.96079
 42
0.0
  0
VERTEX
  8
0
 10
3.7358574
 20
47.115222
 42
0.0
  0
VERTEX
  8
0
 10
3.3334706
 20
47.199296
 42
0.0
  0
VERTEX
  8
0
 10
2.4060531
 20
47.634398
 42
0.0
  0
VERTEX
  8
0
 10
1.7046321
 20
48.264572
 42
0.0
  0
VERTEX
  8
0
 10
1.23334272
 20
49.08296
 42
0.0
  0
VERTEX
  8
0
 10
1.00045774
 20
50.079402
 42
0.0
  0
VERTEX
  8
0
 10
1.00459032
 20
51.248056
 42
0.0
  0
VERTEX
  8
0
 10
1.24988066
 20
52.574952
 42
0.0
  0
VERTEX
  8
0
 10
1.72943774
 20
54.048152
 42
0.0
  0
VERTEX
  8
0
 10
2.44188488
 20
55.654956
 42
0.0
  0
VERTEX
  8
0
 10
3.378962
 20
57.37606
 42
0.0
  0
VERTEX
  8
0
 10
3.6655756
 20
57.82945
 42
0.0
  0
VERTEX
  8
0
 10
3.7358574
 20
57.940956
 42
0.0
  0
VERTEX
  8
0
 10
4.532376
 20
59.199272
 42
0.0
  0
VERTEX
  8
0
 10
5.8897266
 20
61.105034
 42
0.0
  0
VERTEX
  8
0
 10
7.4400156
 20
63.072772
 42
0.0
  0
VERTEX
  8
0
 10
9.165336
 20
65.089024
 42
0.0
  0
VERTEX
  8
0
 10
11.0518702
 20
67.12839
 42
0.0
  0
VERTEX
  8
0
 10
13.0803396
 20
69.174868
 42
0.0
  0
VERTEX
  8
0
 10
15.2245822
 20
71.201788
 42
0.0
  0
VERTEX
  8
0
 10
15.8446978
 20
72.018906
 42
0.0
  0
VERTEX
  8
0
 10
16.4841174
 20
73.044304
 42
0.0
  0
VERTEX
  8
0
 10
17.0518328
 20
74.156316
 42
0.0
  0
VERTEX
  8
0
 10
17.0752516
 20
74.212704
 42
0.0
  0
VERTEX
  8
0
 10
17.5424338
 20
75.34275
 42
0.0
  0
VERTEX
  8
0
 10
17.9489354
 20
76.595478
 42
0.0
  0
VERTEX
  8
0
 10
18.2700422
 20
77.899006
 42
0.0
  0
VERTEX
  8
0
 10
18.5015378
 20
79.241396
 42
0.0
  0
VERTEX
  8
0
 10
18.6421268
 20
80.611218
 42
0.0
  0
VERTEX
  8
0
 10
18.6875928
 20
81.994756
 42
0.0
  0
VERTEX
  8
0
 10
18.6421268
 20
83.377024
 42
0.0
  0
VERTEX
  8
0
 10
18.5015378
 20
84.746846
 42
0.0
  0
VERTEX
  8
0
 10
18.2700422
 20
86.088728
 42
0.0
  0
VERTEX
  8
0
 10
17.9489354
 20
87.393526
 42
0.0
  0
VERTEX
  8
0
 10
17.5424338
 20
88.644984
 42
0.0
  0
VERTEX
  8
0
 10
17.0518328
 20
89.833196
 42
0.0
  0
VERTEX
  8
0
 10
16.6618666
 20
90.59799
 42
0.0
  0
VERTEX
  8
0
 10
16.4841174
 20
90.944954
 42
0.0
  0
VERTEX
  8
0
 10
15.8446978
 20
91.968828
 42
0.0
  0
VERTEX
  8
0
 10
15.3582624
 20
92.6084
 42
0.0
  0
VERTEX
  8
0
 10
15.137765
 20
92.898976
 42
0.0
  0
VERTEX
  8
0
 10
14.6788632
 20
93.393768
 42
0.0
  0
VERTEX
  8
0
 10
13.0803396
 20
94.905322
 42
0.0
  0
VERTEX
  8
0
 10
11.0518702
 20
96.9518
 42
0.0
  0
VERTEX
  8
0
 10
9.165336
 20
98.99269
 42
0.0
  0
VERTEX
  8
0
 10
7.4400156
 20
101.007418
 42
0.0
  0
VERTEX
  8
0
 10
5.8897266
 20
102.976426
 42
0.0
  0
VERTEX
  8
0
 10
4.532376
 20
104.881172
 42
0.0
  0
VERTEX
  8
0
 10
3.7358574
 20
106.140504
 42
0.0
  0
VERTEX
  8
0
 10
3.378962
 20
106.704384
 42
0.0
  0
VERTEX
  8
0
 10
2.44188488
 20
108.427012
 42
0.0
  0
VERTEX
  8
0
 10
1.72943774
 20
110.032038
 42
0.0
  0
VERTEX
  8
0
 10
1.24988066
 20
111.505238
 42
0.0
  0
VERTEX
  8
0
 10
1.00459032
 20
112.832388
 42
0.0
  0
VERTEX
  8
0
 10
1.00045774
 20
114.000788
 42
0.0
  0
VERTEX
  8
0
 10
1.23334272
 20
114.9985
 42
0.0
  0
VERTEX
  8
0
 10
1.7046321
 20
115.815872
 42
0.0
  0
VERTEX
  8
0
 10
2.4060531
 20
116.445538
 42
0.0
  0
VERTEX
  8
0
 10
3.3334706
 20
116.880894
 42
0.0
  0
VERTEX
  8
0
 10
3.7358574
 20
116.965222
 42
0.0
  0
VERTEX
  8
0
 10
4.475861
 20
117.1194
 42
0.0
  0
VERTEX
  8
0
 10
5.8249566
 20
117.156738
 42
0.0
  0
VERTEX
  8
0
 10
7.3669906
 20
116.992654
 42
0.0
  0
VERTEX
  8
0
 10
9.0854022
 20
116.628926
 42
0.0
  0
VERTEX
  8
0
 10
10.9650276
 20
116.070888
 42
0.0
  0
VERTEX
  8
0
 10
12.986639
 20
115.32235
 42
0.0
  0
VERTEX
  8
0
 10
13.3297676
 20
115.17376
 42
0.0
  0
VERTEX
  8
0
 10
15.1335994
 20
114.390932
 42
0.0
  0
VERTEX
  8
0
 10
15.1804878
 20
114.36731
 42
0.0
  0
VERTEX
  8
0
 10
16.7597074
 20
115.17376
 42
0.0
  0
VERTEX
  8
0
 10
19.6343016
 20
116.639848
 42
0.0
  0
VERTEX
  8
0
 10
20.1193654
 20
119.557038
 42
0.0
  0
VERTEX
  8
0
 10
20.7546194
 20
123.366022
 42
0.0
  0
VERTEX
  8
0
 10
20.9103468
 20
124.305822
 42
0.0
  0
VERTEX
  8
0
 10
20.9103468
 20
125.260862
 42
0.0
  0
VERTEX
  8
0
 10
20.9365596
 20
125.260862
 42
0.0
  0
VERTEX
  8
0
 10
20.9365596
 20
152.603962
 42
0.0
  0
VERTEX
  8
0
 10
24.2162584
 20
154.259026
 42
0.0
  0
VERTEX
  8
0
 10
25.613614
 20
154.964638
 42
0.0
  0
VERTEX
  8
0
 10
26.149554
 20
155.23464
 42
0.0
  0
VERTEX
  8
0
 10
26.149554
 20
167.906954
 42
0.0
  0
VERTEX
  8
0
 10
27.228546
 20
168.434766
 42
0.0
  0
VERTEX
  8
0
 10
28.311856
 20
168.965372
 42
0.0
  0
VERTEX
  8
0
 10
29.906214
 20
169.743882
 42
0.0
  0
VERTEX
  8
0
 10
47.836074
 20
169.743882
 42
0.0
  0
VERTEX
  8
0
 10
50.546254
 20
168.419526
 42
0.0
  0
VERTEX
  8
0
 10
50.790602
 20
168.299638
 42
0.0
  0
VERTEX
  8
0
 10
51.744118
 20
167.834056
 42
0.0
  0
VERTEX
  8
0
 10
51.744118
 20
158.5087
 42
0.0
  0
VERTEX
  8
0
 10
51.748182
 20
158.507684
 42
0.0
  0
VERTEX
  8
0
 10
51.748182
 20
155.132532
 42
0.0
  0
VERTEX
  8
0
 10
52.887626
 20
154.55646
 42
0.0
  0
SEQEND
  0
POLYLINE
  8
0
 66
     1
 10
0.0
 20
0.0
 30
0.0
 70
     1
  0
VERTEX
  8
0
 10
55.43296
 20
113.685574
 42
0.0
  0
VERTEX
  8
0
 10
55.331106
 20
113.931954
 42
0.0
  0
VERTEX
  8
0
 10
55.19039
 20
114.159538
 42
0.0
  0
VERTEX
  8
0
 10
55.018178
 20
114.361976
 42
0.0
  0
VERTEX
  8
0
 10
54.81574
 20
114.536982
 42
0.0
  0
VERTEX
  8
0
 10
54.586632
 20
114.674904
 42
0.0
  0
VERTEX
  8
0
 10
54.340252
 20
114.778028
 42
0.0
  0
VERTEX
  8
0
 10
54.079648
 20
114.840004
 42
0.0
  0
VERTEX
  8
0
 10
53.81371
 20
114.860832
 42
0.0
  0
VERTEX
  8
0
 10
53.547772
 20
114.840004
 42
0.0
  0
VERTEX
  8
0
 10
53.287422
 20
114.778028
 42
0.0
  0
VERTEX
  8
0
 10
53.040788
 20
114.674904
 42
0.0
  0
VERTEX
  8
0
 10
52.887626
 20
114.582448
 42
0.0
  0
VERTEX
  8
0
 10
52.813204
 20
114.536982
 42
0.0
  0
VERTEX
  8
0
 10
52.609496
 20
114.361976
 42
0.0
  0
VERTEX
  8
0
 10
52.437284
 20
114.159538
 42
0.0
  0
VERTEX
  8
0
 10
52.296568
 20
113.931954
 42
0.0
  0
VERTEX
  8
0
 10
52.19446
 20
113.685574
 42
0.0
  0
VERTEX
  8
0
 10
52.132484
 20
113.425224
 42
0.0
  0
VERTEX
  8
0
 10
52.11064
 20
113.159032
 42
0.0
  0
VERTEX
  8
0
 10
52.132484
 20
112.893094
 42
0.0
  0
VERTEX
  8
0
 10
52.19446
 20
112.63249
 42
0.0
  0
VERTEX
  8
0
 10
52.296568
 20
112.385856
 42
0.0
  0
VERTEX
  8
0
 10
52.437284
 20
112.158526
 42
0.0
  0
VERTEX
  8
0
 10
52.609496
 20
111.955834
 42
0.0
  0
VERTEX
  8
0
 10
52.813204
 20
111.780828
 42
0.0
  0
VERTEX
  8
0
 10
52.887626
 20
111.735362
 42
0.0
  0
VERTEX
  8
0
 10
53.040788
 20
111.64189
 42
0.0
  0
VERTEX
  8
0
 10
53.287422
 20
111.539782
 42
0.0
  0
VERTEX
  8
0
 10
53.547772
 20
111.477806
 42
0.0
  0
VERTEX
  8
0
 10
53.81371
 20
111.456978
 42
0.0
  0
VERTEX
  8
0
 10
54.079648
 20
111.477806
 42
0.0
  0
VERTEX
  8
0
 10
54.340252
 20
111.539782
 42
0.0
  0
VERTEX
  8
0
 10
54.586632
 20
111.64189
 42
0.0
  0
VERTEX
  8
0
 10
54.81574
 20
111.780828
 42
0.0
  0
VERTEX
  8
0
 10
55.018178
 20
111.955834
 42
0.0
  0
VERTEX
  8
0
 10
55.19039
 20
112.158526
 42
0.0
  0
VERTEX
  8
0
 10
55.331106
 20
112.385856
 42
0.0
  0
VERTEX
  8
0
 10
55.43296
 20
112.63249
 42
0.0
  0
VERTEX
  8
0
 10
55.49646
 20
112.893094
 42
0.0
  0
VERTEX
  8
0
 10
55.512716
 20
113.126012
 42
0.0
  0
VERTEX
  8
0
 10
55.51551
 20
113.159032
 42
0.0
  0
VERTEX
  8
0
 10
55.49646
 20
113.425224
 42
0.0
  0
SEQEND
  0
POLYLINE
  8
0
 66
     1
 10
0.0
 20
0.0
 30
0.0
 70
     1
  0
VERTEX
  8
0
 10
55.383176
 20
97.884996
 42
0.0
  0
VERTEX
  8
0
 10
55.292244
 20
98.03384
 42
0.0
  0
VERTEX
  8
0
 10
55.188866
 20
98.172778
 42
0.0
  0
VERTEX
  8
0
 10
55.070248
 20
98.300794
 42
0.0
  0
VERTEX
  8
0
 10
54.939438
 20
98.414078
 42
0.0
  0
VERTEX
  8
0
 10
54.935628
 20
98.416872
 42
0.0
  0
VERTEX
  8
0
 10
54.797706
 20
98.515932
 42
0.0
  0
VERTEX
  8
0
 10
54.647338
 20
98.601276
 42
0.0
  0
VERTEX
  8
0
 10
54.487572
 20
98.67011
 42
0.0
  0
VERTEX
  8
0
 10
54.322218
 20
98.724212
 42
0.0
  0
VERTEX
  8
0
 10
54.151276
 20
98.759772
 42
0.0
  0
VERTEX
  8
0
 10
53.979318
 20
98.777806
 42
0.0
  0
VERTEX
  8
0
 10
53.805582
 20
98.777806
 42
0.0
  0
VERTEX
  8
0
 10
53.631846
 20
98.759772
 42
0.0
  0
VERTEX
  8
0
 10
53.462428
 20
98.724212
 42
0.0
  0
VERTEX
  8
0
 10
53.297074
 20
98.67011
 42
0.0
  0
VERTEX
  8
0
 10
53.137054
 20
98.601276
 42
0.0
  0
VERTEX
  8
0
 10
52.985416
 20
98.515932
 42
0.0
  0
VERTEX
  8
0
 10
52.887626
 20
98.445828
 42
0.0
  0
VERTEX
  8
0
 10
52.843684
 20
98.414078
 42
0.0
  0
VERTEX
  8
0
 10
52.714144
 20
98.300794
 42
0.0
  0
VERTEX
  8
0
 10
52.595526
 20
98.172778
 42
0.0
  0
VERTEX
  8
0
 10
52.490878
 20
98.03384
 42
0.0
  0
VERTEX
  8
0
 10
52.40274
 20
97.884996
 42
0.0
  0
VERTEX
  8
0
 10
52.328318
 20
97.727516
 42
0.0
  0
VERTEX
  8
0
 10
52.270406
 20
97.562416
 42
0.0
  0
VERTEX
  8
0
 10
52.230528
 20
97.392744
 42
0.0
  0
VERTEX
  8
0
 10
52.208176
 20
97.222056
 42
0.0
  0
VERTEX
  8
0
 10
52.204112
 20
97.04705
 42
0.0
  0
VERTEX
  8
0
 10
52.218082
 20
96.874584
 42
0.0
  0
VERTEX
  8
0
 10
52.24145
 20
96.741234
 42
0.0
  0
VERTEX
  8
0
 10
52.248054
 20
96.703896
 42
0.0
  0
VERTEX
  8
0
 10
52.297838
 20
96.537018
 42
0.0
  0
VERTEX
  8
0
 10
52.362862
 20
96.375728
 42
0.0
  0
VERTEX
  8
0
 10
52.445412
 20
96.22155
 42
0.0
  0
VERTEX
  8
0
 10
52.541932
 20
96.077024
 42
0.0
  0
VERTEX
  8
0
 10
52.653438
 20
95.94469
 42
0.0
  0
VERTEX
  8
0
 10
52.77739
 20
95.821754
 42
0.0
  0
VERTEX
  8
0
 10
52.887626
 20
95.73514
 42
0.0
  0
VERTEX
  8
0
 10
52.913788
 20
95.714312
 42
0.0
  0
VERTEX
  8
0
 10
53.061362
 20
95.62211
 42
0.0
  0
VERTEX
  8
0
 10
53.215794
 20
95.543624
 42
0.0
  0
VERTEX
  8
0
 10
53.379878
 20
95.482918
 42
0.0
  0
VERTEX
  8
0
 10
53.546502
 20
95.438722
 42
0.0
  0
VERTEX
  8
0
 10
53.71846
 20
95.41129
 42
0.0
  0
VERTEX
  8
0
 10
53.89245
 20
95.403162
 42
0.0
  0
VERTEX
  8
0
 10
54.065932
 20
95.41129
 42
0.0
  0
VERTEX
  8
0
 10
54.238144
 20
95.438722
 42
0.0
  0
VERTEX
  8
0
 10
54.406546
 20
95.482918
 42
0.0
  0
VERTEX
  8
0
 10
54.567582
 20
95.543624
 42
0.0
  0
VERTEX
  8
0
 10
54.724554
 20
95.62211
 42
0.0
  0
VERTEX
  8
0
 10
54.870604
 20
95.714312
 42
0.0
  0
VERTEX
  8
0
 10
54.935628
 20
95.765366
 42
0.0
  0
VERTEX
  8
0
 10
55.007256
 20
95.821754
 42
0.0
  0
VERTEX
  8
0
 10
55.130954
 20
95.94469
 42
0.0
  0
VERTEX
  8
0
 10
55.242968
 20
96.077024
 42
0.0
  0
VERTEX
  8
0
 10
55.340504
 20
96.22155
 42
0.0
  0
VERTEX
  8
0
 10
55.420768
 20
96.375728
 42
0.0
  0
VERTEX
  8
0
 10
55.486554
 20
96.537018
 42
0.0
  0
VERTEX
  8
0
 10
55.536338
 20
96.703896
 42
0.0
  0
VERTEX
  8
0
 10
55.543196
 20
96.741234
 42
0.0
  0
VERTEX
  8
0
 10
55.566818
 20
96.874584
 42
0.0
  0
VERTEX
  8
0
 10
55.580534
 20
97.04705
 42
0.0
  0
VERTEX
  8
0
 10
55.576216
 20
97.222056
 42
0.0
  0
VERTEX
  8
0
 10
55.553102
 20
97.392744
 42
0.0
  0
VERTEX
  8
0
 10
55.512716
 20
97.562416
 42
0.0
  0
VERTEX
  8
0
 10
55.456328
 20
97.727516
 42
0.0
  0
SEQEND
  0
POLYLINE
  8
0
 66
     1
 10
0.0
 20
0.0
 30
0.0
 70
     1
  0
VERTEX
  8
0
 10
53.3908
 20
68.612512
 42
0.0
  0
VERTEX
  8
0
 10
53.225446
 20
68.558918
 42
0.0
  0
VERTEX
  8
0
 10
53.065426
 20
68.490084
 42
0.0
  0
VERTEX
  8
0
 10
52.915312
 20
68.404232
 42
0.0
  0
VERTEX
  8
0
 10
52.887626
 20
68.385182
 42
0.0
  0
VERTEX
  8
0
 10
52.773326
 20
68.303902
 42
0.0
  0
VERTEX
  8
0
 10
52.642516
 20
68.188078
 42
0.0
  0
VERTEX
  8
0
 10
52.530756
 20
68.06946
 42
0.0
  0
VERTEX
  8
0
 10
52.523898
 20
68.061332
 42
0.0
  0
VERTEX
  8
0
 10
52.420774
 20
67.92214
 42
0.0
  0
VERTEX
  8
0
 10
52.331112
 20
67.773296
 42
0.0
  0
VERTEX
  8
0
 10
52.25669
 20
67.6148
 42
0.0
  0
VERTEX
  8
0
 10
52.200048
 20
67.450716
 42
0.0
  0
VERTEX
  8
0
 10
52.159916
 20
67.282822
 42
0.0
  0
VERTEX
  8
0
 10
52.136802
 20
67.108832
 42
0.0
  0
VERTEX
  8
0
 10
52.132484
 20
66.936874
 42
0.0
  0
VERTEX
  8
0
 10
52.1462
 20
66.761868
 42
0.0
  0
VERTEX
  8
0
 10
52.17795
 20
66.590926
 42
0.0
  0
VERTEX
  8
0
 10
52.22621
 20
66.424302
 42
0.0
  0
VERTEX
  8
0
 10
52.29225
 20
66.263012
 42
0.0
  0
VERTEX
  8
0
 10
52.37226
 20
66.10985
 42
0.0
  0
VERTEX
  8
0
 10
52.432966
 20
66.021712
 42
0.0
  0
VERTEX
  8
0
 10
52.47005
 20
65.966594
 42
0.0
  0
VERTEX
  8
0
 10
52.58181
 20
65.83299
 42
0.0
  0
VERTEX
  8
0
 10
52.705762
 20
65.711832
 42
0.0
  0
VERTEX
  8
0
 10
52.843684
 20
65.602866
 42
0.0
  0
VERTEX
  8
0
 10
52.887626
 20
65.575434
 42
0.0
  0
VERTEX
  8
0
 10
52.98821
 20
65.51041
 42
0.0
  0
VERTEX
  8
0
 10
53.145182
 20
65.432178
 42
0.0
  0
VERTEX
  8
0
 10
53.306472
 20
65.371472
 42
0.0
  0
VERTEX
  8
0
 10
53.474874
 20
65.326006
 42
0.0
  0
VERTEX
  8
0
 10
53.646832
 20
65.30086
 42
0.0
  0
VERTEX
  8
0
 10
53.820822
 20
65.291462
 42
0.0
  0
VERTEX
  8
0
 10
53.994304
 20
65.30086
 42
0.0
  0
VERTEX
  8
0
 10
54.166516
 20
65.326006
 42
0.0
  0
VERTEX
  8
0
 10
54.334918
 20
65.371472
 42
0.0
  0
VERTEX
  8
0
 10
54.497224
 20
65.432178
 42
0.0
  0
VERTEX
  8
0
 10
54.651656
 20
65.51041
 42
0.0
  0
VERTEX
  8
0
 10
54.798976
 20
65.602866
 42
0.0
  0
VERTEX
  8
0
 10
54.935628
 20
65.711832
 42
0.0
  0
VERTEX
  8
0
 10
55.059326
 20
65.83299
 42
0.0
  0
VERTEX
  8
0
 10
55.17134
 20
65.966594
 42
0.0
  0
VERTEX
  8
0
 10
55.208424
 20
66.021712
 42
0.0
  0
VERTEX
  8
0
 10
55.267606
 20
66.10985
 42
0.0
  0
VERTEX
  8
0
 10
55.350156
 20
66.263012
 42
0.0
  0
VERTEX
  8
0
 10
55.41645
 20
66.424302
 42
0.0
  0
VERTEX
  8
0
 10
55.46471
 20
66.590926
 42
0.0
  0
VERTEX
  8
0
 10
55.49519
 20
66.761868
 42
0.0
  0
VERTEX
  8
0
 10
55.508906
 20
66.936874
 42
0.0
  0
VERTEX
  8
0
 10
55.504588
 20
67.108832
 42
0.0
  0
VERTEX
  8
0
 10
55.48249
 20
67.282822
 42
0.0
  0
VERTEX
  8
0
 10
55.442612
 20
67.450716
 42
0.0
  0
VERTEX
  8
0
 10
55.3847
 20
67.6148
 42
0.0
  0
VERTEX
  8
0
 10
55.310278
 20
67.773296
 42
0.0
  0
VERTEX
  8
0
 10
55.22214
 20
67.92214
 42
0.0
  0
VERTEX
  8
0
 10
55.117238
 20
68.061332
 42
0.0
  0
VERTEX
  8
0
 10
55.10911
 20
68.06946
 42
0.0
  0
VERTEX
  8
0
 10
54.998874
 20
68.188078
 42
0.0
  0
VERTEX
  8
0
 10
54.869334
 20
68.303902
 42
0.0
  0
VERTEX
  8
0
 10
54.727348
 20
68.404232
 42
0.0
  0
VERTEX
  8
0
 10
54.57571
 20
68.490084
 42
0.0
  0
VERTEX
  8
0
 10
54.415944
 20
68.558918
 42
0.0
  0
VERTEX
  8
0
 10
54.25059
 20
68.612512
 42
0.0
  0
VERTEX
  8
0
 10
54.081172
 20
68.647056
 42
0.0
  0
VERTEX
  8
0
 10
53.90769
 20
68.66509
 42
0.0
  0
VERTEX
  8
0
 10
53.7337
 20
68.66509
 42
0.0
  0
VERTEX
  8
0
 10
53.561488
 20
68.647056
 42
0.0
  0
SEQEND
  0
POLYLINE
  8
0
 66
     1
 10
0.0
 20
0.0
 30
0.0
 70
     1
  0
VERTEX
  8
0
 10
55.43296
 20
50.398934
 42
0.0
  0
VERTEX
  8
0
 10
55.331106
 20
50.646838
 42
0.0
  0
VERTEX
  8
0
 10
55.19039
 20
50.874422
 42
0.0
  0
VERTEX
  8
0
 10
55.018178
 20
51.07686
 42
0.0
  0
VERTEX
  8
0
 10
54.81574
 20
51.250596
 42
0.0
  0
VERTEX
  8
0
 10
54.586632
 20
51.389788
 42
0.0
  0
VERTEX
  8
0
 10
54.340252
 20
51.491896
 42
0.0
  0
VERTEX
  8
0
 10
54.079648
 20
51.555396
 42
0.0
  0
VERTEX
  8
0
 10
53.81371
 20
51.575716
 42
0.0
  0
VERTEX
  8
0
 10
53.547772
 20
51.555396
 42
0.0
  0
VERTEX
  8
0
 10
53.287422
 20
51.491896
 42
0.0
  0
VERTEX
  8
0
 10
53.040788
 20
51.389788
 42
0.0
  0
VERTEX
  8
0
 10
52.887626
 20
51.296062
 42
0.0
  0
VERTEX
  8
0
 10
52.813204
 20
51.250596
 42
0.0
  0
VERTEX
  8
0
 10
52.609496
 20
51.07686
 42
0.0
  0
VERTEX
  8
0
 10
52.437284
 20
50.874422
 42
0.0
  0
VERTEX
  8
0
 10
52.296568
 20
50.646838
 42
0.0
  0
VERTEX
  8
0
 10
52.19446
 20
50.398934
 42
0.0
  0
VERTEX
  8
0
 10
52.132484
 20
50.139854
 42
0.0
  0
VERTEX
  8
0
 10
52.11064
 20
49.873916
 42
0.0
  0
VERTEX
  8
0
 10
52.129944
 20
49.636934
 42
0.0
  0
VERTEX
  8
0
 10
52.132484
 20
49.607978
 42
0.0
  0
VERTEX
  8
0
 10
52.19446
 20
49.347628
 42
0.0
  0
VERTEX
  8
0
 10
52.296568
 20
49.100994
 42
0.0
  0
VERTEX
  8
0
 10
52.437284
 20
48.87214
 42
0.0
  0
VERTEX
  8
0
 10
52.609496
 20
48.669448
 42
0.0
  0
VERTEX
  8
0
 10
52.813204
 20
48.495966
 42
0.0
  0
VERTEX
  8
0
 10
52.887626
 20
48.4505
 42
0.0
  0
VERTEX
  8
0
 10
53.040788
 20
48.356774
 42
0.0
  0
VERTEX
  8
0
 10
53.287422
 20
48.254666
 42
0.0
  0
VERTEX
  8
0
 10
53.547772
 20
48.19269
 42
0.0
  0
VERTEX
  8
0
 10
53.81371
 20
48.172116
 42
0.0
  0
VERTEX
  8
0
 10
54.079648
 20
48.19269
 42
0.0
  0
VERTEX
  8
0
 10
54.340252
 20
48.254666
 42
0.0
  0
VERTEX
  8
0
 10
54.586632
 20
48.356774
 42
0.0
  0
VERTEX
  8
0
 10
54.81574
 20
48.495966
 42
0.0
  0
VERTEX
  8
0
 10
55.018178
 20
48.669448
 42
0.0
  0
VERTEX
  8
0
 10
55.19039
 20
48.87214
 42
0.0
  0
VERTEX
  8
0
 10
55.331106
 20
49.100994
 42
0.0
  0
VERTEX
  8
0
 10
55.43296
 20
49.347628
 42
0.0
  0
VERTEX
  8
0
 10
55.49646
 20
49.607978
 42
0.0
  0
VERTEX
  8
0
 10
55.497476
 20
49.636934
 42
0.0
  0
VERTEX
  8
0
 10
55.51551
 20
49.873916
 42
0.0
  0
VERTEX
  8
0
 10
55.49646
 20
50.139854
 42
0.0
  0
SEQEND
  0
POLYLINE
  8
0
 66
     1
 10
0.0
 20
0.0
 30
0.0
 70
     1
  0
VERTEX
  8
0
 10
50.790602
 20
39.382954
 42
0.0
  0
VERTEX
  8
0
 10
49.266094
 20
39.382954
 42
0.0
  0
VERTEX
  8
0
 10
49.266094
 20
31.823152
 42
0.0
  0
VERTEX
  8
0
 10
50.790602
 20
31.823152
 42
0.0
  0
SEQEND
  0
POLYLINE
  8
0
 66
     1
 10
0.0
 20
0.0
 30
0.0
 70
     1
  0
VERTEX
  8
0
 10
53.550566
 20
11.5837716
 42
0.0
  0
VERTEX
  8
0
 10
53.29174
 20
11.5217956
 42
0.0
  0
VERTEX
  8
0
 10
53.043328
 20
11.4184176
 42
0.0
  0
VERTEX
  8
0
 10
52.887626
 20
11.3233454
 42
0.0
  0
VERTEX
  8
0
 10
52.817522
 20
11.279251
 42
0.0
  0
VERTEX
  8
0
 10
52.61356
 20
11.1069882
 42
0.0
  0
VERTEX
  8
0
 10
52.441094
 20
10.9030516
 42
0.0
  0
VERTEX
  8
0
 10
52.300632
 20
10.6770424
 42
0.0
  0
VERTEX
  8
0
 10
52.198778
 20
10.428986
 42
0.0
  0
VERTEX
  8
0
 10
52.136802
 20
10.169906
 42
0.0
  0
VERTEX
  8
0
 10
52.115974
 20
9.9039426
 42
0.0
  0
VERTEX
  8
0
 10
52.136802
 20
9.6380046
 42
0.0
  0
VERTEX
  8
0
 10
52.198778
 20
9.3789246
 42
0.0
  0
VERTEX
  8
0
 10
52.300632
 20
9.1322398
 42
0.0
  0
VERTEX
  8
0
 10
52.441094
 20
8.9048844
 42
0.0
  0
VERTEX
  8
0
 10
52.61356
 20
8.7023194
 42
0.0
  0
VERTEX
  8
0
 10
52.64404
 20
8.677529
 42
0.0
  0
VERTEX
  8
0
 10
52.817522
 20
8.528685
 42
0.0
  0
VERTEX
  8
0
 10
52.887626
 20
8.4845906
 42
0.0
  0
VERTEX
  8
0
 10
53.043328
 20
8.3895184
 42
0.0
  0
VERTEX
  8
0
 10
53.29174
 20
8.2875374
 42
0.0
  0
VERTEX
  8
0
 10
53.550566
 20
8.2255106
 42
0.0
  0
VERTEX
  8
0
 10
53.816504
 20
8.204835
 42
0.0
  0
VERTEX
  8
0
 10
54.082696
 20
8.2255106
 42
0.0
  0
VERTEX
  8
0
 10
54.341522
 20
8.2875374
 42
0.0
  0
VERTEX
  8
0
 10
54.588156
 20
8.3895184
 42
0.0
  0
VERTEX
  8
0
 10
54.81574
 20
8.528685
 42
0.0
  0
VERTEX
  8
0
 10
55.018178
 20
8.7023194
 42
0.0
  0
VERTEX
  8
0
 10
55.19166
 20
8.9048844
 42
0.0
  0
VERTEX
  8
0
 10
55.331106
 20
9.1322398
 42
0.0
  0
VERTEX
  8
0
 10
55.43296
 20
9.3789246
 42
0.0
  0
VERTEX
  8
0
 10
55.49646
 20
9.6380046
 42
0.0
  0
VERTEX
  8
0
 10
55.51551
 20
9.9039426
 42
0.0
  0
VERTEX
  8
0
 10
55.49646
 20
10.169906
 42
0.0
  0
VERTEX
  8
0
 10
55.43296
 20
10.428986
 42
0.0
  0
VERTEX
  8
0
 10
55.331106
 20
10.6770424
 42
0.0
  0
VERTEX
  8
0
 10
55.300626
 20
10.7252516
 42
0.0
  0
VERTEX
  8
0
 10
55.19166
 20
10.9030516
 42
0.0
  0
VERTEX
  8
0
 10
55.018178
 20
11.1069882
 42
0.0
  0
VERTEX
  8
0
 10
54.81574
 20
11.279251
 42
0.0
  0
VERTEX
  8
0
 10
54.588156
 20
11.4184176
 42
0.0
  0
VERTEX
  8
0
 10
54.341522
 20
11.5217956
 42
0.0
  0
VERTEX
  8
0
 10
54.082696
 20
11.5837716
 42
0.0
  0
VERTEX
  8
0
 10
53.816504
 20
11.6044472
 42
0.0
  0
SEQEND
  0
POLYLINE
  8
0
 66
     1
 10
0.0
 20
0.0
 30
0.0
 70
     1
  0
VERTEX
  8
0
 10
50.8635
 20
24.044021
 42
0.0
  0
VERTEX
  8
0
 10
49.337722
 20
24.044021
 42
0.0
  0
VERTEX
  8
0
 10
49.337722
 20
18.0151024
 42
0.0
  0
VERTEX
  8
0
 10
50.8635
 20
18.0151024
 42
0.0
  0
SEQEND
  0
POLYLINE
  8
0
 66
     1
 10
0.0
 20
0.0
 30
0.0
 70
     1
  0
VERTEX
  8
0
 10
36.504372
 20
124.161296
 42
0.0
  0
VERTEX
  8
0
 10
37.253926
 20
123.366022
 42
0.0
  0
VERTEX
  8
0
 10
38.870382
 20
121.648982
 42
0.0
  0
VERTEX
  8
0
 10
40.488362
 20
123.366022
 42
0.0
  0
VERTEX
  8
0
 10
43.747182
 20
126.824994
 42
0.0
  0
VERTEX
  8
0
 10
43.945556
 20
127.034544
 42
0.0
  0
VERTEX
  8
0
 10
43.945556
 20
137.806684
 42
0.0
  0
VERTEX
  8
0
 10
41.283128
 20
140.633196
 42
0.0
  0
VERTEX
  8
0
 10
40.85336
 20
141.087856
 42
0.0
  0
VERTEX
  8
0
 10
38.870382
 20
143.191738
 42
0.0
  0
VERTEX
  8
0
 10
36.458906
 20
140.633196
 42
0.0
  0
VERTEX
  8
0
 10
33.796478
 20
137.806684
 42
0.0
  0
VERTEX
  8
0
 10
33.796478
 20
127.034544
 42
0.0
  0
VERTEX
  8
0
 10
33.994852
 20
126.824994
 42
0.0
  0
SEQEND
  0
POLYLINE
  8
0
 66
     1
 10
0.0
 20
0.0
 30
0.0
 70
     1
  0
VERTEX
  8
0
 10
44.696634
 20
107.021122
 42
0.0
  0
VERTEX
  8
0
 10
46.693328
 20
108.17479
 42
0.0
  0
VERTEX
  8
0
 10
46.747176
 20
108.205016
 42
0.0
  0
VERTEX
  8
0
 10
46.747176
 20
111.550704
 42
0.0
  0
VERTEX
  8
0
 10
46.693328
 20
111.582454
 42
0.0
  0
VERTEX
  8
0
 10
44.696634
 20
112.734598
 42
0.0
  0
VERTEX
  8
0
 10
43.84929
 20
113.223802
 42
0.0
  0
VERTEX
  8
0
 10
40.95115
 20
111.550704
 42
0.0
  0
VERTEX
  8
0
 10
40.95115
 20
108.205016
 42
0.0
  0
VERTEX
  8
0
 10
43.070526
 20
106.981244
 42
0.0
  0
VERTEX
  8
0
 10
43.84929
 20
106.531918
 42
0.0
  0
VERTEX
  8
0
 10
44.626276
 20
106.981244
 42
0.0
  0
VERTEX
  8
0
 10
44.673266
 20
107.008676
 42
0.0
  0
SEQEND
  0
POLYLINE
  8
0
 66
     1
 10
0.0
 20
0.0
 30
0.0
 70
     1
  0
VERTEX
  8
0
 10
41.692576
 20
114.468148
 42
0.0
  0
VERTEX
  8
0
 10
41.692576
 20
117.672104
 42
0.0
  0
VERTEX
  8
0
 10
38.874446
 20
119.299482
 42
0.0
  0
VERTEX
  8
0
 10
36.504372
 20
117.931184
 42
0.0
  0
VERTEX
  8
0
 10
36.056316
 20
117.672104
 42
0.0
  0
VERTEX
  8
0
 10
36.056316
 20
114.327432
 42
0.0
  0
VERTEX
  8
0
 10
36.504372
 20
114.069876
 42
0.0
  0
VERTEX
  8
0
 10
38.874446
 20
112.700054
 42
0.0
  0
VERTEX
  8
0
 10
40.95115
 20
113.898934
 42
0.0
  0
VERTEX
  8
0
 10
41.692576
 20
114.327432
 42
0.0
  0
SEQEND
  0
POLYLINE
  8
0
 66
     1
 10
0.0
 20
0.0
 30
0.0
 70
     1
  0
VERTEX
  8
0
 10
41.692576
 20
105.932478
 42
0.0
  0
VERTEX
  8
0
 10
39.876222
 20
106.981244
 42
0.0
  0
VERTEX
  8
0
 10
38.874446
 20
107.56011
 42
0.0
  0
VERTEX
  8
0
 10
37.87394
 20
106.981244
 42
0.0
  0
VERTEX
  8
0
 10
36.504372
 20
106.190288
 42
0.0
  0
VERTEX
  8
0
 10
36.056316
 20
105.932478
 42
0.0
  0
VERTEX
  8
0
 10
36.056316
 20
102.58806
 42
0.0
  0
VERTEX
  8
0
 10
36.504372
 20
102.328726
 42
0.0
  0
VERTEX
  8
0
 10
36.535868
 20
102.3112
 42
0.0
  0
VERTEX
  8
0
 10
38.874446
 20
100.961952
 42
0.0
  0
VERTEX
  8
0
 10
41.692576
 20
102.58806
 42
0.0
  0
SEQEND
  0
POLYLINE
  8
0
 66
     1
 10
0.0
 20
0.0
 30
0.0
 70
     1
  0
VERTEX
  8
0
 10
31.325566
 20
111.736632
 42
0.0
  0
VERTEX
  8
0
 10
31.002986
 20
111.550704
 42
0.0
  0
VERTEX
  8
0
 10
31.002986
 20
108.205016
 42
0.0
  0
VERTEX
  8
0
 10
31.325566
 20
108.018834
 42
0.0
  0
VERTEX
  8
0
 10
33.123886
 20
106.981244
 42
0.0
  0
VERTEX
  8
0
 10
33.901126
 20
106.531918
 42
0.0
  0
VERTEX
  8
0
 10
34.678366
 20
106.981244
 42
0.0
  0
VERTEX
  8
0
 10
36.504372
 20
108.035344
 42
0.0
  0
VERTEX
  8
0
 10
36.799266
 20
108.205016
 42
0.0
  0
VERTEX
  8
0
 10
36.799266
 20
111.550704
 42
0.0
  0
VERTEX
  8
0
 10
36.504372
 20
111.721646
 42
0.0
  0
VERTEX
  8
0
 10
33.901126
 20
113.223802
 42
0.0
  0
SEQEND
  0
POLYLINE
  8
0
 66
     1
 10
0.0
 20
0.0
 30
0.0
 70
     1
  0
VERTEX
  8
0
 10
36.504372
 20
59.043316
 42
0.0
  0
VERTEX
  8
0
 10
38.607238
 20
57.82945
 42
0.0
  0
VERTEX
  8
0
 10
38.874446
 20
57.675018
 42
0.0
  0
VERTEX
  8
0
 10
39.143178
 20
57.82945
 42
0.0
  0
VERTEX
  8
0
 10
41.692576
 20
59.301126
 42
0.0
  0
VERTEX
  8
0
 10
41.692576
 20
62.647068
 42
0.0
  0
VERTEX
  8
0
 10
38.874446
 20
64.272922
 42
0.0
  0
VERTEX
  8
0
 10
36.504372
 20
62.904878
 42
0.0
  0
VERTEX
  8
0
 10
36.056316
 20
62.647068
 42
0.0
  0
VERTEX
  8
0
 10
36.056316
 20
59.301126
 42
0.0
  0
SEQEND
  0
POLYLINE
  8
0
 66
     1
 10
0.0
 20
0.0
 30
0.0
 70
     1
  0
VERTEX
  8
0
 10
44.696634
 20
51.994816
 42
0.0
  0
VERTEX
  8
0
 10
46.693328
 20
53.147976
 42
0.0
  0
VERTEX
  8
0
 10
46.747176
 20
53.179726
 42
0.0
  0
VERTEX
  8
0
 10
46.747176
 20
56.524652
 42
0.0
  0
VERTEX
  8
0
 10
46.693328
 20
56.555894
 42
0.0
  0
VERTEX
  8
0
 10
44.696634
 20
57.708038
 42
0.0
  0
VERTEX
  8
0
 10
44.486068
 20
57.82945
 42
0.0
  0
VERTEX
  8
0
 10
43.84929
 20
58.197496
 42
0.0
  0
VERTEX
  8
0
 10
43.210988
 20
57.82945
 42
0.0
  0
VERTEX
  8
0
 10
40.95115
 20
56.524652
 42
0.0
  0
VERTEX
  8
0
 10
40.95115
 20
53.179726
 42
0.0
  0
VERTEX
  8
0
 10
41.692576
 20
52.751228
 42
0.0
  0
VERTEX
  8
0
 10
43.84929
 20
51.506882
 42
0.0
  0
SEQEND
  0
POLYLINE
  8
0
 66
     1
 10
0.0
 20
0.0
 30
0.0
 70
     1
  0
VERTEX
  8
0
 10
41.692576
 20
50.906172
 42
0.0
  0
VERTEX
  8
0
 10
38.874446
 20
52.53355
 42
0.0
  0
VERTEX
  8
0
 10
36.504372
 20
51.165252
 42
0.0
  0
VERTEX
  8
0
 10
36.056316
 20
50.906172
 42
0.0
  0
VERTEX
  8
0
 10
36.056316
 20
47.5615
 42
0.0
  0
VERTEX
  8
0
 10
36.504372
 20
47.303944
 42
0.0
  0
VERTEX
  8
0
 10
38.874446
 20
45.935646
 42
0.0
  0
VERTEX
  8
0
 10
41.692576
 20
47.5615
 42
0.0
  0
SEQEND
  0
POLYLINE
  8
0
 66
     1
 10
0.0
 20
0.0
 30
0.0
 70
     1
  0
VERTEX
  8
0
 10
36.799266
 20
56.524652
 42
0.0
  0
VERTEX
  8
0
 10
36.504372
 20
56.69534
 42
0.0
  0
VERTEX
  8
0
 10
34.53765
 20
57.82945
 42
0.0
  0
VERTEX
  8
0
 10
33.901126
 20
58.197496
 42
0.0
  0
VERTEX
  8
0
 10
33.263078
 20
57.82945
 42
0.0
  0
VERTEX
  8
0
 10
31.325566
 20
56.710326
 42
0.0
  0
VERTEX
  8
0
 10
31.002986
 20
56.524652
 42
0.0
  0
VERTEX
  8
0
 10
31.002986
 20
53.179726
 42
0.0
  0
VERTEX
  8
0
 10
31.325566
 20
52.993798
 42
0.0
  0
VERTEX
  8
0
 10
33.901126
 20
51.506882
 42
0.0
  0
VERTEX
  8
0
 10
36.504372
 20
53.009038
 42
0.0
  0
VERTEX
  8
0
 10
36.799266
 20
53.179726
 42
0.0
  0
SEQEND
  0
POLYLINE
  8
0
 66
     1
 10
0.0
 20
0.0
 30
0.0
 70
     1
  0
VERTEX
  8
0
 10
43.890438
 20
33.833562
 42
0.0
  0
VERTEX
  8
0
 10
43.890438
 20
39.757604
 42
0.0
  0
VERTEX
  8
0
 10
40.96766
 20
41.445688
 42
0.0
  0
VERTEX
  8
0
 10
38.874446
 20
42.65295
 42
0.0
  0
VERTEX
  8
0
 10
36.782756
 20
41.445688
 42
0.0
  0
VERTEX
  8
0
 10
36.504372
 20
41.284652
 42
0.0
  0
VERTEX
  8
0
 10
33.858454
 20
39.757604
 42
0.0
  0
VERTEX
  8
0
 10
33.858454
 20
33.833562
 42
0.0
  0
VERTEX
  8
0
 10
36.504372
 20
32.306768
 42
0.0
  0
VERTEX
  8
0
 10
38.874446
 20
30.938216
 42
0.0
  0
SEQEND
  0
POLYLINE
  8
0
 66
     1
 10
0.0
 20
0.0
 30
0.0
 70
     1
  0
VERTEX
  8
0
 10
41.998646
 20
29.135832
 42
0.0
  0
VERTEX
  8
0
 10
41.998646
 20
24.1942112
 42
0.0
  0
VERTEX
  8
0
 10
43.890438
 20
23.1014524
 42
0.0
  0
VERTEX
  8
0
 10
46.3296
 20
21.6944702
 42
0.0
  0
VERTEX
  8
0
 10
46.340522
 20
21.6999566
 42
0.0
  0
VERTEX
  8
0
 10
46.340522
 20
31.690818
 42
0.0
  0
VERTEX
  8
0
 10
46.3296
 20
31.697676
 42
0.0
  0
VERTEX
  8
0
 10
41.998646
 20
29.196538
 42
0.0
  0
SEQEND
  0
POLYLINE
  8
0
 66
     1
 10
0.0
 20
0.0
 30
0.0
 70
     1
  0
VERTEX
  8
0
 10
44.40301
 20
149.065234
 42
0.0
  0
VERTEX
  8
0
 10
43.443906
 20
149.618954
 42
0.0
  0
VERTEX
  8
0
 10
42.808906
 20
149.252432
 42
0.0
  0
VERTEX
  8
0
 10
41.250362
 20
148.35251
 42
0.0
  0
VERTEX
  8
0
 10
40.85336
 20
148.12391
 42
0.0
  0
VERTEX
  8
0
 10
40.85336
 20
145.133568
 42
0.0
  0
VERTEX
  8
0
 10
43.443906
 20
143.638524
 42
0.0
  0
VERTEX
  8
0
 10
46.033182
 20
145.133568
 42
0.0
  0
VERTEX
  8
0
 10
46.033182
 20
148.12391
 42
0.0
  0
SEQEND
  0
POLYLINE
  8
0
 66
     1
 10
0.0
 20
0.0
 30
0.0
 70
     1
  0
VERTEX
  8
0
 10
38.870382
 20
150.58771
 42
0.0
  0
VERTEX
  8
0
 10
40.85336
 20
152.449784
 42
0.0
  0
VERTEX
  8
0
 10
42.808906
 20
154.285188
 42
0.0
  0
VERTEX
  8
0
 10
42.808906
 20
161.68116
 42
0.0
  0
VERTEX
  8
0
 10
41.930828
 20
162.50539
 42
0.0
  0
VERTEX
  8
0
 10
38.870382
 20
165.378384
 42
0.0
  0
VERTEX
  8
0
 10
36.504372
 20
163.155376
 42
0.0
  0
VERTEX
  8
0
 10
35.811206
 20
162.50539
 42
0.0
  0
VERTEX
  8
0
 10
34.933382
 20
161.68116
 42
0.0
  0
VERTEX
  8
0
 10
34.933382
 20
154.285188
 42
0.0
  0
VERTEX
  8
0
 10
37.088572
 20
152.260554
 42
0.0
  0
SEQEND
  0
POLYLINE
  8
0
 66
     1
 10
0.0
 20
0.0
 30
0.0
 70
     1
  0
VERTEX
  8
0
 10
37.088572
 20
148.12391
 42
0.0
  0
VERTEX
  8
0
 10
34.933382
 20
149.368256
 42
0.0
  0
VERTEX
  8
0
 10
34.499296
 20
149.618954
 42
0.0
  0
VERTEX
  8
0
 10
33.796478
 20
149.214078
 42
0.0
  0
VERTEX
  8
0
 10
31.908496
 20
148.12391
 42
0.0
  0
VERTEX
  8
0
 10
31.908496
 20
145.133568
 42
0.0
  0
VERTEX
  8
0
 10
33.796478
 20
144.043654
 42
0.0
  0
VERTEX
  8
0
 10
34.499296
 20
143.638524
 42
0.0
  0
VERTEX
  8
0
 10
34.933382
 20
143.889222
 42
0.0
  0
VERTEX
  8
0
 10
37.088572
 20
145.133568
 42
0.0
  0
SEQEND
  0
POLYLINE
  8
0
 66
     1
 10
0.0
 20
0.0
 30
0.0
 70
     1
  0
VERTEX
  8
0
 10
48.523398
 20
140.6398
 42
0.0
  0
VERTEX
  8
0
 10
48.691546
 20
140.633196
 42
0.0
  0
VERTEX
  8
0
 10
48.792384
 20
140.637006
 42
0.0
  0
VERTEX
  8
0
 10
48.858424
 20
140.6398
 42
0.0
  0
VERTEX
  8
0
 10
49.022254
 20
140.664438
 42
0.0
  0
VERTEX
  8
0
 10
49.185068
 20
140.706094
 42
0.0
  0
VERTEX
  8
0
 10
49.34204
 20
140.761212
 42
0.0
  0
VERTEX
  8
0
 10
49.493678
 20
140.83284
 42
0.0
  0
VERTEX
  8
0
 10
49.636934
 20
140.919454
 42
0.0
  0
VERTEX
  8
0
 10
49.770538
 20
141.018768
 42
0.0
  0
VERTEX
  8
0
 10
49.894744
 20
141.130528
 42
0.0
  0
VERTEX
  8
0
 10
50.007774
 20
141.254226
 42
0.0
  0
VERTEX
  8
0
 10
50.106834
 20
141.388084
 42
0.0
  0
VERTEX
  8
0
 10
50.192178
 20
141.53261
 42
0.0
  0
VERTEX
  8
0
 10
50.263806
 20
141.682978
 42
0.0
  0
VERTEX
  8
0
 10
50.305462
 20
141.797278
 42
0.0
  0
VERTEX
  8
0
 10
50.320702
 20
141.83995
 42
0.0
  0
VERTEX
  8
0
 10
50.360326
 20
142.00251
 42
0.0
  0
VERTEX
  8
0
 10
50.385218
 20
142.168118
 42
0.0
  0
VERTEX
  8
0
 10
50.3936
 20
142.334996
 42
0.0
  0
VERTEX
  8
0
 10
50.385218
 20
142.501366
 42
0.0
  0
VERTEX
  8
0
 10
50.360326
 20
142.666974
 42
0.0
  0
VERTEX
  8
0
 10
50.321972
 20
142.821406
 42
0.0
  0
VERTEX
  8
0
 10
50.320702
 20
142.82801
 42
0.0
  0
VERTEX
  8
0
 10
50.263806
 20
142.986506
 42
0.0
  0
VERTEX
  8
0
 10
50.192178
 20
143.136874
 42
0.0
  0
VERTEX
  8
0
 10
50.106834
 20
143.279876
 42
0.0
  0
VERTEX
  8
0
 10
50.007774
 20
143.413734
 42
0.0
  0
VERTEX
  8
0
 10
49.894744
 20
143.53794
 42
0.0
  0
VERTEX
  8
0
 10
49.770538
 20
143.650716
 42
0.0
  0
VERTEX
  8
0
 10
49.636934
 20
143.749776
 42
0.0
  0
VERTEX
  8
0
 10
49.493678
 20
143.836898
 42
0.0
  0
VERTEX
  8
0
 10
49.474374
 20
143.845026
 42
0.0
  0
VERTEX
  8
0
 10
49.34204
 20
143.907256
 42
0.0
  0
VERTEX
  8
0
 10
49.185068
 20
143.963644
 42
0.0
  0
VERTEX
  8
0
 10
49.022254
 20
144.005046
 42
0.0
  0
VERTEX
  8
0
 10
48.858424
 20
144.028668
 42
0.0
  0
VERTEX
  8
0
 10
48.691546
 20
144.038066
 42
0.0
  0
VERTEX
  8
0
 10
48.523398
 20
144.028668
 42
0.0
  0
VERTEX
  8
0
 10
48.359568
 20
144.005046
 42
0.0
  0
VERTEX
  8
0
 10
48.196754
 20
143.963644
 42
0.0
  0
VERTEX
  8
0
 10
48.038512
 20
143.907256
 42
0.0
  0
VERTEX
  8
0
 10
47.907448
 20
143.845026
 42
0.0
  0
VERTEX
  8
0
 10
47.888144
 20
143.836898
 42
0.0
  0
VERTEX
  8
0
 10
47.744888
 20
143.749776
 42
0.0
  0
VERTEX
  8
0
 10
47.611284
 20
143.650716
 42
0.0
  0
VERTEX
  8
0
 10
47.487078
 20
143.53794
 42
0.0
  0
VERTEX
  8
0
 10
47.375572
 20
143.413734
 42
0.0
  0
VERTEX
  8
0
 10
47.274988
 20
143.279876
 42
0.0
  0
VERTEX
  8
0
 10
47.189644
 20
143.136874
 42
0.0
  0
VERTEX
  8
0
 10
47.118016
 20
142.986506
 42
0.0
  0
VERTEX
  8
0
 10
47.061374
 20
142.82801
 42
0.0
  0
VERTEX
  8
0
 10
47.05985
 20
142.821406
 42
0.0
  0
VERTEX
  8
0
 10
47.021496
 20
142.666974
 42
0.0
  0
VERTEX
  8
0
 10
46.996604
 20
142.501366
 42
0.0
  0
VERTEX
  8
0
 10
46.988222
 20
142.334996
 42
0.0
  0
VERTEX
  8
0
 10
46.996604
 20
142.168118
 42
0.0
  0
VERTEX
  8
0
 10
47.021496
 20
142.00251
 42
0.0
  0
VERTEX
  8
0
 10
47.061374
 20
141.83995
 42
0.0
  0
VERTEX
  8
0
 10
47.077884
 20
141.797278
 42
0.0
  0
VERTEX
  8
0
 10
47.118016
 20
141.682978
 42
0.0
  0
VERTEX
  8
0
 10
47.189644
 20
141.53261
 42
0.0
  0
VERTEX
  8
0
 10
47.274988
 20
141.388084
 42
0.0
  0
VERTEX
  8
0
 10
47.375572
 20
141.254226
 42
0.0
  0
VERTEX
  8
0
 10
47.487078
 20
141.130528
 42
0.0
  0
VERTEX
  8
0
 10
47.611284
 20
141.018768
 42
0.0
  0
VERTEX
  8
0
 10
47.744888
 20
140.919454
 42
0.0
  0
VERTEX
  8
0
 10
47.888144
 20
140.83284
 42
0.0
  0
VERTEX
  8
0
 10
48.038512
 20
140.761212
 42
0.0
  0
VERTEX
  8
0
 10
48.196754
 20
140.706094
 42
0.0
  0
VERTEX
  8
0
 10
48.359568
 20
140.664438
 42
0.0
  0
SEQEND
  0
POLYLINE
  8
0
 66
     1
 10
0.0
 20
0.0
 30
0.0
 70
     1
  0
VERTEX
  8
0
 10
47.729648
 20
164.66185
 42
0.0
  0
VERTEX
  8
0
 10
47.768256
 20
164.643816
 42
0.0
  0
VERTEX
  8
0
 10
47.880016
 20
164.591746
 42
0.0
  0
VERTEX
  8
0
 10
48.036988
 20
164.53485
 42
0.0
  0
VERTEX
  8
0
 10
48.198278
 20
164.494972
 42
0.0
  0
VERTEX
  8
0
 10
48.362362
 20
164.46881
 42
0.0
  0
VERTEX
  8
0
 10
48.527716
 20
164.461952
 42
0.0
  0
VERTEX
  8
0
 10
48.69434
 20
164.46881
 42
0.0
  0
VERTEX
  8
0
 10
48.792384
 20
164.48405
 42
0.0
  0
VERTEX
  8
0
 10
48.858424
 20
164.494972
 42
0.0
  0
VERTEX
  8
0
 10
49.01946
 20
164.53485
 42
0.0
  0
VERTEX
  8
0
 10
49.175416
 20
164.591746
 42
0.0
  0
VERTEX
  8
0
 10
49.325276
 20
164.66185
 42
0.0
  0
VERTEX
  8
0
 10
49.467516
 20
164.748718
 42
0.0
  0
VERTEX
  8
0
 10
49.601374
 20
164.847778
 42
0.0
  0
VERTEX
  8
0
 10
49.723802
 20
164.960554
 42
0.0
  0
VERTEX
  8
0
 10
49.835562
 20
165.08349
 42
0.0
  0
VERTEX
  8
0
 10
49.934622
 20
165.218618
 42
0.0
  0
VERTEX
  8
0
 10
50.013362
 20
165.349428
 42
0.0
  0
VERTEX
  8
0
 10
50.019966
 20
165.361874
 42
0.0
  0
VERTEX
  8
0
 10
50.091594
 20
165.511988
 42
0.0
  0
VERTEX
  8
0
 10
50.146712
 20
165.66896
 42
0.0
  0
VERTEX
  8
0
 10
50.186844
 20
165.831774
 42
0.0
  0
VERTEX
  8
0
 10
50.211482
 20
165.997128
 42
0.0
  0
VERTEX
  8
0
 10
50.218594
 20
166.164006
 42
0.0
  0
VERTEX
  8
0
 10
50.211482
 20
166.330376
 42
0.0
  0
VERTEX
  8
0
 10
50.204878
 20
166.373302
 42
0.0
  0
VERTEX
  8
0
 10
50.186844
 20
166.495984
 42
0.0
  0
VERTEX
  8
0
 10
50.146712
 20
166.658544
 42
0.0
  0
VERTEX
  8
0
 10
50.091594
 20
166.815516
 42
0.0
  0
VERTEX
  8
0
 10
50.019966
 20
166.965884
 42
0.0
  0
VERTEX
  8
0
 10
49.934622
 20
167.10914
 42
0.0
  0
VERTEX
  8
0
 10
49.835562
 20
167.244268
 42
0.0
  0
VERTEX
  8
0
 10
49.723802
 20
167.36695
 42
0.0
  0
VERTEX
  8
0
 10
49.601374
 20
167.479726
 42
0.0
  0
VERTEX
  8
0
 10
49.467516
 20
167.57904
 42
0.0
  0
VERTEX
  8
0
 10
49.325276
 20
167.665654
 42
0.0
  0
VERTEX
  8
0
 10
49.175416
 20
167.736266
 42
0.0
  0
VERTEX
  8
0
 10
49.01946
 20
167.794178
 42
0.0
  0
VERTEX
  8
0
 10
48.858424
 20
167.834056
 42
0.0
  0
VERTEX
  8
0
 10
48.792384
 20
167.843454
 42
0.0
  0
VERTEX
  8
0
 10
48.69434
 20
167.858694
 42
0.0
  0
VERTEX
  8
0
 10
48.527716
 20
167.867076
 42
0.0
  0
VERTEX
  8
0
 10
48.362362
 20
167.858694
 42
0.0
  0
VERTEX
  8
0
 10
48.198278
 20
167.834056
 42
0.0
  0
VERTEX
  8
0
 10
48.036988
 20
167.794178
 42
0.0
  0
VERTEX
  8
0
 10
47.880016
 20
167.736266
 42
0.0
  0
VERTEX
  8
0
 10
47.768256
 20
167.683688
 42
0.0
  0
VERTEX
  8
0
 10
47.729648
 20
167.665654
 42
0.0
  0
VERTEX
  8
0
 10
47.587916
 20
167.57904
 42
0.0
  0
VERTEX
  8
0
 10
47.455582
 20
167.479726
 42
0.0
  0
VERTEX
  8
0
 10
47.331376
 20
167.36695
 42
0.0
  0
VERTEX
  8
0
 10
47.220124
 20
167.244268
 42
0.0
  0
VERTEX
  8
0
 10
47.120556
 20
167.10914
 42
0.0
  0
VERTEX
  8
0
 10
47.036482
 20
166.965884
 42
0.0
  0
VERTEX
  8
0
 10
46.964854
 20
166.815516
 42
0.0
  0
VERTEX
  8
0
 10
46.908466
 20
166.658544
 42
0.0
  0
VERTEX
  8
0
 10
46.868334
 20
166.495984
 42
0.0
  0
VERTEX
  8
0
 10
46.850554
 20
166.373302
 42
0.0
  0
VERTEX
  8
0
 10
46.843696
 20
166.330376
 42
0.0
  0
VERTEX
  8
0
 10
46.835568
 20
166.164006
 42
0.0
  0
VERTEX
  8
0
 10
46.843696
 20
165.997128
 42
0.0
  0
VERTEX
  8
0
 10
46.868334
 20
165.831774
 42
0.0
  0
VERTEX
  8
0
 10
46.908466
 20
165.66896
 42
0.0
  0
VERTEX
  8
0
 10
46.964854
 20
165.511988
 42
0.0
  0
VERTEX
  8
0
 10
47.036482
 20
165.361874
 42
0.0
  0
VERTEX
  8
0
 10
47.120556
 20
165.218618
 42
0.0
  0
VERTEX
  8
0
 10
47.220124
 20
165.08349
 42
0.0
  0
VERTEX
  8
0
 10
47.331376
 20
164.960554
 42
0.0
  0
VERTEX
  8
0
 10
47.455582
 20
164.847778
 42
0.0
  0
VERTEX
  8
0
 10
47.587916
 20
164.748718
 42
0.0
  0
SEQEND
  0
POLYLINE
  8
0
 66
     1
 10
0.0
 20
0.0
 30
0.0
 70
     1
  0
VERTEX
  8
0
 10
25.485344
 20
113.685574
 42
0.0
  0
VERTEX
  8
0
 10
25.382093
 20
113.931954
 42
0.0
  0
VERTEX
  8
0
 10
25.242901
 20
114.159538
 42
0.0
  0
VERTEX
  8
0
 10
25.0692666
 20
114.361976
 42
0.0
  0
VERTEX
  8
0
 10
24.86533
 20
114.536982
 42
0.0
  0
VERTEX
  8
0
 10
24.6379238
 20
114.674904
 42
0.0
  0
VERTEX
  8
0
 10
24.392636
 20
114.778028
 42
0.0
  0
VERTEX
  8
0
 10
24.2162584
 20
114.820954
 42
0.0
  0
VERTEX
  8
0
 10
24.1322352
 20
114.840004
 42
0.0
  0
VERTEX
  8
0
 10
23.8648494
 20
114.860832
 42
0.0
  0
VERTEX
  8
0
 10
23.598886
 20
114.840004
 42
0.0
  0
VERTEX
  8
0
 10
23.3384852
 20
114.778028
 42
0.0
  0
VERTEX
  8
0
 10
23.0931466
 20
114.674904
 42
0.0
  0
VERTEX
  8
0
 10
22.8644196
 20
114.536982
 42
0.0
  0
VERTEX
  8
0
 10
22.6618546
 20
114.361976
 42
0.0
  0
VERTEX
  8
0
 10
22.4882202
 20
114.159538
 42
0.0
  0
VERTEX
  8
0
 10
22.3490282
 20
113.931954
 42
0.0
  0
VERTEX
  8
0
 10
22.2456756
 20
113.685574
 42
0.0
  0
VERTEX
  8
0
 10
22.1836488
 20
113.425224
 42
0.0
  0
VERTEX
  8
0
 10
22.1629732
 20
113.159032
 42
0.0
  0
VERTEX
  8
0
 10
22.1657418
 20
113.126012
 42
0.0
  0
VERTEX
  8
0
 10
22.1836488
 20
112.893094
 42
0.0
  0
VERTEX
  8
0
 10
22.2456756
 20
112.63249
 42
0.0
  0
VERTEX
  8
0
 10
22.3490282
 20
112.385856
 42
0.0
  0
VERTEX
  8
0
 10
22.4882202
 20
112.158526
 42
0.0
  0
VERTEX
  8
0
 10
22.6618546
 20
111.955834
 42
0.0
  0
VERTEX
  8
0
 10
22.8644196
 20
111.780828
 42
0.0
  0
VERTEX
  8
0
 10
23.0931466
 20
111.64189
 42
0.0
  0
VERTEX
  8
0
 10
23.3384852
 20
111.539782
 42
0.0
  0
VERTEX
  8
0
 10
23.598886
 20
111.477806
 42
0.0
  0
VERTEX
  8
0
 10
23.8648494
 20
111.456978
 42
0.0
  0
VERTEX
  8
0
 10
24.1322352
 20
111.477806
 42
0.0
  0
VERTEX
  8
0
 10
24.2162584
 20
111.49711
 42
0.0
  0
VERTEX
  8
0
 10
24.392636
 20
111.539782
 42
0.0
  0
VERTEX
  8
0
 10
24.6379238
 20
111.64189
 42
0.0
  0
VERTEX
  8
0
 10
24.86533
 20
111.780828
 42
0.0
  0
VERTEX
  8
0
 10
25.0692666
 20
111.955834
 42
0.0
  0
VERTEX
  8
0
 10
25.242901
 20
112.158526
 42
0.0
  0
VERTEX
  8
0
 10
25.382093
 20
112.385856
 42
0.0
  0
VERTEX
  8
0
 10
25.485344
 20
112.63249
 42
0.0
  0
VERTEX
  8
0
 10
25.547574
 20
112.893094
 42
0.0
  0
VERTEX
  8
0
 10
25.565354
 20
113.126012
 42
0.0
  0
VERTEX
  8
0
 10
25.568148
 20
113.159032
 42
0.0
  0
VERTEX
  8
0
 10
25.547574
 20
113.425224
 42
0.0
  0
SEQEND
  0
POLYLINE
  8
0
 66
     1
 10
0.0
 20
0.0
 30
0.0
 70
     1
  0
VERTEX
  8
0
 10
25.3490222
 20
97.884996
 42
0.0
  0
VERTEX
  8
0
 10
25.2594618
 20
98.03384
 42
0.0
  0
VERTEX
  8
0
 10
25.1547122
 20
98.172778
 42
0.0
  0
VERTEX
  8
0
 10
25.0375928
 20
98.300794
 42
0.0
  0
VERTEX
  8
0
 10
24.9066812
 20
98.414078
 42
0.0
  0
VERTEX
  8
0
 10
24.7647206
 20
98.515932
 42
0.0
  0
VERTEX
  8
0
 10
24.614505
 20
98.601276
 42
0.0
  0
VERTEX
  8
0
 10
24.4546628
 20
98.67011
 42
0.0
  0
VERTEX
  8
0
 10
24.2893088
 20
98.724212
 42
0.0
  0
VERTEX
  8
0
 10
24.2162584
 20
98.739198
 42
0.0
  0
VERTEX
  8
0
 10
24.1184176
 20
98.759772
 42
0.0
  0
VERTEX
  8
0
 10
23.9461548
 20
98.777806
 42
0.0
  0
VERTEX
  8
0
 10
23.7725204
 20
98.777806
 42
0.0
  0
VERTEX
  8
0
 10
23.598886
 20
98.759772
 42
0.0
  0
VERTEX
  8
0
 10
23.4294172
 20
98.724212
 42
0.0
  0
VERTEX
  8
0
 10
23.2626662
 20
98.67011
 42
0.0
  0
VERTEX
  8
0
 10
23.1041956
 20
98.601276
 42
0.0
  0
VERTEX
  8
0
 10
22.9526084
 20
98.515932
 42
0.0
  0
VERTEX
  8
0
 10
22.8106732
 20
98.414078
 42
0.0
  0
VERTEX
  8
0
 10
22.6797616
 20
98.300794
 42
0.0
  0
VERTEX
  8
0
 10
22.5626168
 20
98.172778
 42
0.0
  0
VERTEX
  8
0
 10
22.4578926
 20
98.03384
 42
0.0
  0
VERTEX
  8
0
 10
22.3683322
 20
97.884996
 42
0.0
  0
VERTEX
  8
0
 10
22.3131888
 20
97.764854
 42
0.0
  0
VERTEX
  8
0
 10
22.2952818
 20
97.727516
 42
0.0
  0
VERTEX
  8
0
 10
22.2374206
 20
97.562416
 42
0.0
  0
VERTEX
  8
0
 10
22.197441
 20
97.392744
 42
0.0
  0
VERTEX
  8
0
 10
22.1753938
 20
97.222056
 42
0.0
  0
VERTEX
  8
0
 10
22.171279
 20
97.04705
 42
0.0
  0
VERTEX
  8
0
 10
22.1836488
 20
96.874584
 42
0.0
  0
VERTEX
  8
0
 10
22.2084646
 20
96.741234
 42
0.0
  0
VERTEX
  8
0
 10
22.2153734
 20
96.703896
 42
0.0
  0
VERTEX
  8
0
 10
22.2635826
 20
96.537018
 42
0.0
  0
VERTEX
  8
0
 10
22.3283526
 20
96.375728
 42
0.0
  0
VERTEX
  8
0
 10
22.4110296
 20
96.22155
 42
0.0
  0
VERTEX
  8
0
 10
22.5074988
 20
96.077024
 42
0.0
  0
VERTEX
  8
0
 10
22.6205034
 20
95.94469
 42
0.0
  0
VERTEX
  8
0
 10
22.7445316
 20
95.821754
 42
0.0
  0
VERTEX
  8
0
 10
22.8768402
 20
95.717106
 42
0.0
  0
VERTEX
  8
0
 10
22.8795834
 20
95.714312
 42
0.0
  0
VERTEX
  8
0
 10
23.027005
 20
95.62211
 42
0.0
  0
VERTEX
  8
0
 10
23.1827324
 20
95.543624
 42
0.0
  0
VERTEX
  8
0
 10
23.3453432
 20
95.482918
 42
0.0
  0
VERTEX
  8
0
 10
23.5134404
 20
95.438722
 42
0.0
  0
VERTEX
  8
0
 10
23.6843316
 20
95.41129
 42
0.0
  0
VERTEX
  8
0
 10
23.8593376
 20
95.403162
 42
0.0
  0
VERTEX
  8
0
 10
24.0316004
 20
95.41129
 42
0.0
  0
VERTEX
  8
0
 10
24.2038632
 20
95.438722
 42
0.0
  0
VERTEX
  8
0
 10
24.2162584
 20
95.441516
 42
0.0
  0
VERTEX
  8
0
 10
24.3719604
 20
95.482918
 42
0.0
  0
VERTEX
  8
0
 10
24.5345966
 20
95.543624
 42
0.0
  0
VERTEX
  8
0
 10
24.690324
 20
95.62211
 42
0.0
  0
VERTEX
  8
0
 10
24.836374
 20
95.714312
 42
0.0
  0
VERTEX
  8
0
 10
24.9728228
 20
95.821754
 42
0.0
  0
VERTEX
  8
0
 10
25.0981972
 20
95.94469
 42
0.0
  0
VERTEX
  8
0
 10
25.2084332
 20
96.077024
 42
0.0
  0
VERTEX
  8
0
 10
25.3062994
 20
96.22155
 42
0.0
  0
VERTEX
  8
0
 10
25.3875794
 20
96.375728
 42
0.0
  0
VERTEX
  8
0
 10
25.452324
 20
96.537018
 42
0.0
  0
VERTEX
  8
0
 10
25.502108
 20
96.703896
 42
0.0
  0
VERTEX
  8
0
 10
25.508966
 20
96.741234
 42
0.0
  0
VERTEX
  8
0
 10
25.533604
 20
96.874584
 42
0.0
  0
VERTEX
  8
0
 10
25.54605
 20
97.04705
 42
0.0
  0
VERTEX
  8
0
 10
25.541986
 20
97.222056
 42
0.0
  0
VERTEX
  8
0
 10
25.519888
 20
97.392744
 42
0.0
  0
VERTEX
  8
0
 10
25.48001
 20
97.562416
 42
0.0
  0
VERTEX
  8
0
 10
25.423368
 20
97.727516
 42
0.0
  0
SEQEND
  0
POLYLINE
  8
0
 66
     1
 10
0.0
 20
0.0
 30
0.0
 70
     1
  0
VERTEX
  8
0
 10
24.3595906
 20
68.612512
 42
0.0
  0
VERTEX
  8
0
 10
24.2162584
 20
68.641468
 42
0.0
  0
VERTEX
  8
0
 10
24.190071
 20
68.647056
 42
0.0
  0
VERTEX
  8
0
 10
24.0164366
 20
68.66509
 42
0.0
  0
VERTEX
  8
0
 10
23.8428022
 20
68.66509
 42
0.0
  0
VERTEX
  8
0
 10
23.6705902
 20
68.647056
 42
0.0
  0
VERTEX
  8
0
 10
23.499699
 20
68.612512
 42
0.0
  0
VERTEX
  8
0
 10
23.3343196
 20
68.558918
 42
0.0
  0
VERTEX
  8
0
 10
23.1744774
 20
68.490084
 42
0.0
  0
VERTEX
  8
0
 10
23.0242618
 20
68.404232
 42
0.0
  0
VERTEX
  8
0
 10
22.8823266
 20
68.303902
 42
0.0
  0
VERTEX
  8
0
 10
22.751415
 20
68.188078
 42
0.0
  0
VERTEX
  8
0
 10
22.641179
 20
68.06946
 42
0.0
  0
VERTEX
  8
0
 10
22.6342956
 20
68.061332
 42
0.0
  0
VERTEX
  8
0
 10
22.529546
 20
67.92214
 42
0.0
  0
VERTEX
  8
0
 10
22.4399856
 20
67.773296
 42
0.0
  0
VERTEX
  8
0
 10
22.3655382
 20
67.6148
 42
0.0
  0
VERTEX
  8
0
 10
22.309074
 20
67.450716
 42
0.0
  0
VERTEX
  8
0
 10
22.2690944
 20
67.282822
 42
0.0
  0
VERTEX
  8
0
 10
22.2470472
 20
67.108832
 42
0.0
  0
VERTEX
  8
0
 10
22.2415354
 20
66.936874
 42
0.0
  0
VERTEX
  8
0
 10
22.2553022
 20
66.761868
 42
0.0
  0
VERTEX
  8
0
 10
22.2870268
 20
66.590926
 42
0.0
  0
VERTEX
  8
0
 10
22.335236
 20
66.424302
 42
0.0
  0
VERTEX
  8
0
 10
22.4013776
 20
66.263012
 42
0.0
  0
VERTEX
  8
0
 10
22.4827084
 20
66.10985
 42
0.0
  0
VERTEX
  8
0
 10
22.5433128
 20
66.021712
 42
0.0
  0
VERTEX
  8
0
 10
22.5805238
 20
65.966594
 42
0.0
  0
VERTEX
  8
0
 10
22.6907598
 20
65.83299
 42
0.0
  0
VERTEX
  8
0
 10
22.8148134
 20
65.711832
 42
0.0
  0
VERTEX
  8
0
 10
22.9526084
 20
65.602866
 42
0.0
  0
VERTEX
  8
0
 10
23.0986838
 20
65.51041
 42
0.0
  0
VERTEX
  8
0
 10
23.2544112
 20
65.432178
 42
0.0
  0
VERTEX
  8
0
 10
23.4169966
 20
65.371472
 42
0.0
  0
VERTEX
  8
0
 10
23.5851446
 20
65.326006
 42
0.0
  0
VERTEX
  8
0
 10
23.755985
 20
65.30086
 42
0.0
  0
VERTEX
  8
0
 10
23.9296194
 20
65.291462
 42
0.0
  0
VERTEX
  8
0
 10
24.1046254
 20
65.30086
 42
0.0
  0
VERTEX
  8
0
 10
24.2162584
 20
65.317624
 42
0.0
  0
VERTEX
  8
0
 10
24.2755166
 20
65.326006
 42
0.0
  0
VERTEX
  8
0
 10
24.4436646
 20
65.371472
 42
0.0
  0
VERTEX
  8
0
 10
24.60625
 20
65.432178
 42
0.0
  0
VERTEX
  8
0
 10
24.7619774
 20
65.51041
 42
0.0
  0
VERTEX
  8
0
 10
24.9080528
 20
65.602866
 42
0.0
  0
VERTEX
  8
0
 10
25.0444762
 20
65.711832
 42
0.0
  0
VERTEX
  8
0
 10
25.1685044
 20
65.83299
 42
0.0
  0
VERTEX
  8
0
 10
25.2801374
 20
65.966594
 42
0.0
  0
VERTEX
  8
0
 10
25.3172976
 20
66.021712
 42
0.0
  0
VERTEX
  8
0
 10
25.3779528
 20
66.10985
 42
0.0
  0
VERTEX
  8
0
 10
25.459182
 20
66.263012
 42
0.0
  0
VERTEX
  8
0
 10
25.525476
 20
66.424302
 42
0.0
  0
VERTEX
  8
0
 10
25.573736
 20
66.590926
 42
0.0
  0
VERTEX
  8
0
 10
25.603962
 20
66.761868
 42
0.0
  0
VERTEX
  8
0
 10
25.617678
 20
66.936874
 42
0.0
  0
VERTEX
  8
0
 10
25.613614
 20
67.108832
 42
0.0
  0
VERTEX
  8
0
 10
25.591516
 20
67.282822
 42
0.0
  0
VERTEX
  8
0
 10
25.551638
 20
67.450716
 42
0.0
  0
VERTEX
  8
0
 10
25.493726
 20
67.6148
 42
0.0
  0
VERTEX
  8
0
 10
25.420574
 20
67.773296
 42
0.0
  0
VERTEX
  8
0
 10
25.3311152
 20
67.92214
 42
0.0
  0
VERTEX
  8
0
 10
25.2263656
 20
68.061332
 42
0.0
  0
VERTEX
  8
0
 10
25.2194822
 20
68.06946
 42
0.0
  0
VERTEX
  8
0
 10
25.1078746
 20
68.188078
 42
0.0
  0
VERTEX
  8
0
 10
24.9783346
 20
68.303902
 42
0.0
  0
VERTEX
  8
0
 10
24.836374
 20
68.404232
 42
0.0
  0
VERTEX
  8
0
 10
24.6848122
 20
68.490084
 42
0.0
  0
VERTEX
  8
0
 10
24.5263162
 20
68.558918
 42
0.0
  0
SEQEND
  0
POLYLINE
  8
0
 66
     1
 10
0.0
 20
0.0
 30
0.0
 70
     1
  0
VERTEX
  8
0
 10
25.547574
 20
50.139854
 42
0.0
  0
VERTEX
  8
0
 10
25.485344
 20
50.398934
 42
0.0
  0
VERTEX
  8
0
 10
25.382093
 20
50.646838
 42
0.0
  0
VERTEX
  8
0
 10
25.242901
 20
50.874422
 42
0.0
  0
VERTEX
  8
0
 10
25.0692666
 20
51.07686
 42
0.0
  0
VERTEX
  8
0
 10
24.86533
 20
51.250596
 42
0.0
  0
VERTEX
  8
0
 10
24.6379238
 20
51.389788
 42
0.0
  0
VERTEX
  8
0
 10
24.392636
 20
51.491896
 42
0.0
  0
VERTEX
  8
0
 10
24.2162584
 20
51.534568
 42
0.0
  0
VERTEX
  8
0
 10
24.1322352
 20
51.555396
 42
0.0
  0
VERTEX
  8
0
 10
23.8648494
 20
51.575716
 42
0.0
  0
VERTEX
  8
0
 10
23.598886
 20
51.555396
 42
0.0
  0
VERTEX
  8
0
 10
23.3384852
 20
51.491896
 42
0.0
  0
VERTEX
  8
0
 10
23.0931466
 20
51.389788
 42
0.0
  0
VERTEX
  8
0
 10
22.8644196
 20
51.250596
 42
0.0
  0
VERTEX
  8
0
 10
22.6618546
 20
51.07686
 42
0.0
  0
VERTEX
  8
0
 10
22.4882202
 20
50.874422
 42
0.0
  0
VERTEX
  8
0
 10
22.3490282
 20
50.646838
 42
0.0
  0
VERTEX
  8
0
 10
22.2456756
 20
50.398934
 42
0.0
  0
VERTEX
  8
0
 10
22.1836488
 20
50.139854
 42
0.0
  0
VERTEX
  8
0
 10
22.1629732
 20
49.873916
 42
0.0
  0
VERTEX
  8
0
 10
22.1822772
 20
49.636934
 42
0.0
  0
VERTEX
  8
0
 10
22.1836488
 20
49.607978
 42
0.0
  0
VERTEX
  8
0
 10
22.2456756
 20
49.347628
 42
0.0
  0
VERTEX
  8
0
 10
22.3490282
 20
49.100994
 42
0.0
  0
VERTEX
  8
0
 10
22.4882202
 20
48.87214
 42
0.0
  0
VERTEX
  8
0
 10
22.6618546
 20
48.669448
 42
0.0
  0
VERTEX
  8
0
 10
22.8644196
 20
48.495966
 42
0.0
  0
VERTEX
  8
0
 10
23.0931466
 20
48.356774
 42
0.0
  0
VERTEX
  8
0
 10
23.3384852
 20
48.254666
 42
0.0
  0
VERTEX
  8
0
 10
23.598886
 20
48.19269
 42
0.0
  0
VERTEX
  8
0
 10
23.8648494
 20
48.172116
 42
0.0
  0
VERTEX
  8
0
 10
24.1322352
 20
48.19269
 42
0.0
  0
VERTEX
  8
0
 10
24.2162584
 20
48.211994
 42
0.0
  0
VERTEX
  8
0
 10
24.392636
 20
48.254666
 42
0.0
  0
VERTEX
  8
0
 10
24.6379238
 20
48.356774
 42
0.0
  0
VERTEX
  8
0
 10
24.86533
 20
48.495966
 42
0.0
  0
VERTEX
  8
0
 10
25.0692666
 20
48.669448
 42
0.0
  0
VERTEX
  8
0
 10
25.242901
 20
48.87214
 42
0.0
  0
VERTEX
  8
0
 10
25.382093
 20
49.100994
 42
0.0
  0
VERTEX
  8
0
 10
25.485344
 20
49.347628
 42
0.0
  0
VERTEX
  8
0
 10
25.547574
 20
49.607978
 42
0.0
  0
VERTEX
  8
0
 10
25.548844
 20
49.636934
 42
0.0
  0
VERTEX
  8
0
 10
25.568148
 20
49.873916
 42
0.0
  0
SEQEND
  0
POLYLINE
  8
0
 66
     1
 10
0.0
 20
0.0
 30
0.0
 70
     1
  0
VERTEX
  8
0
 10
26.903426
 20
31.823152
 42
0.0
  0
VERTEX
  8
0
 10
28.42895
 20
31.823152
 42
0.0
  0
VERTEX
  8
0
 10
28.42895
 20
39.382954
 42
0.0
  0
VERTEX
  8
0
 10
26.903426
 20
39.382954
 42
0.0
  0
SEQEND
  0
POLYLINE
  8
0
 66
     1
 10
0.0
 20
0.0
 30
0.0
 70
     1
  0
VERTEX
  8
0
 10
26.991564
 20
18.0151024
 42
0.0
  0
VERTEX
  8
0
 10
28.500578
 20
18.0151024
 42
0.0
  0
VERTEX
  8
0
 10
28.500578
 20
24.044021
 42
0.0
  0
VERTEX
  8
0
 10
26.976578
 20
24.044021
 42
0.0
  0
VERTEX
  8
0
 10
26.976578
 20
18.0151024
 42
0.0
  0
SEQEND
  0
POLYLINE
  8
0
 66
     1
 10
0.0
 20
0.0
 30
0.0
 70
     1
  0
VERTEX
  8
0
 10
25.3779528
 20
10.6770424
 42
0.0
  0
VERTEX
  8
0
 10
25.2387862
 20
10.9030516
 42
0.0
  0
VERTEX
  8
0
 10
25.0651518
 20
11.1069882
 42
0.0
  0
VERTEX
  8
0
 10
24.8625868
 20
11.279251
 42
0.0
  0
VERTEX
  8
0
 10
24.6351806
 20
11.4184176
 42
0.0
  0
VERTEX
  8
0
 10
24.3885212
 20
11.5217956
 42
0.0
  0
VERTEX
  8
0
 10
24.2162584
 20
11.563096
 42
0.0
  0
VERTEX
  8
0
 10
24.1294412
 20
11.5837716
 42
0.0
  0
VERTEX
  8
0
 10
23.8634778
 20
11.6044472
 42
0.0
  0
VERTEX
  8
0
 10
23.5975144
 20
11.5837716
 42
0.0
  0
VERTEX
  8
0
 10
23.3384852
 20
11.5217956
 42
0.0
  0
VERTEX
  8
0
 10
23.0904034
 20
11.4184176
 42
0.0
  0
VERTEX
  8
0
 10
22.8644196
 20
11.279251
 42
0.0
  0
VERTEX
  8
0
 10
22.6604576
 20
11.1069882
 42
0.0
  0
VERTEX
  8
0
 10
22.4882202
 20
10.9030516
 42
0.0
  0
VERTEX
  8
0
 10
22.3779588
 20
10.7252516
 42
0.0
  0
VERTEX
  8
0
 10
22.3476566
 20
10.6770424
 42
0.0
  0
VERTEX
  8
0
 10
22.2456756
 20
10.428986
 42
0.0
  0
VERTEX
  8
0
 10
22.1836488
 20
10.169906
 42
0.0
  0
VERTEX
  8
0
 10
22.1629732
 20
9.9039426
 42
0.0
  0
VERTEX
  8
0
 10
22.1836488
 20
9.6380046
 42
0.0
  0
VERTEX
  8
0
 10
22.2456756
 20
9.3789246
 42
0.0
  0
VERTEX
  8
0
 10
22.3476566
 20
9.1322398
 42
0.0
  0
VERTEX
  8
0
 10
22.4882202
 20
8.9048844
 42
0.0
  0
VERTEX
  8
0
 10
22.6604576
 20
8.7023194
 42
0.0
  0
VERTEX
  8
0
 10
22.6907598
 20
8.677529
 42
0.0
  0
VERTEX
  8
0
 10
22.8644196
 20
8.528685
 42
0.0
  0
VERTEX
  8
0
 10
23.0904034
 20
8.3895184
 42
0.0
  0
VERTEX
  8
0
 10
23.3384852
 20
8.2875374
 42
0.0
  0
VERTEX
  8
0
 10
23.5975144
 20
8.2255106
 42
0.0
  0
VERTEX
  8
0
 10
23.8634778
 20
8.204835
 42
0.0
  0
VERTEX
  8
0
 10
24.1294412
 20
8.2255106
 42
0.0
  0
VERTEX
  8
0
 10
24.3885212
 20
8.2875374
 42
0.0
  0
VERTEX
  8
0
 10
24.6351806
 20
8.3895184
 42
0.0
  0
VERTEX
  8
0
 10
24.8625868
 20
8.528685
 42
0.0
  0
VERTEX
  8
0
 10
25.0651518
 20
8.7023194
 42
0.0
  0
VERTEX
  8
0
 10
25.2387862
 20
8.9048844
 42
0.0
  0
VERTEX
  8
0
 10
25.3779528
 20
9.1322398
 42
0.0
  0
VERTEX
  8
0
 10
25.48001
 20
9.3789246
 42
0.0
  0
VERTEX
  8
0
 10
25.543256
 20
9.6380046
 42
0.0
  0
VERTEX
  8
0
 10
25.56256
 20
9.9039426
 42
0.0
  0
VERTEX
  8
0
 10
25.543256
 20
10.169906
 42
0.0
  0
VERTEX
  8
0
 10
25.48001
 20
10.428986
 42
0.0
  0
SEQEND
  0
POLYLINE
  8
0
 66
     1
 10
0.0
 20
0.0
 30
0.0
 70
     1
  0
VERTEX
  8
0
 10
28.856178
 20
140.6398
 42
0.0
  0
VERTEX
  8
0
 10
29.022802
 20
140.633196
 42
0.0
  0
VERTEX
  8
0
 10
29.18968
 20
140.6398
 42
0.0
  0
VERTEX
  8
0
 10
29.33573
 20
140.661898
 42
0.0
  0
VERTEX
  8
0
 10
29.355034
 20
140.664438
 42
0.0
  0
VERTEX
  8
0
 10
29.517594
 20
140.706094
 42
0.0
  0
VERTEX
  8
0
 10
29.673296
 20
140.761212
 42
0.0
  0
VERTEX
  8
0
 10
29.824934
 20
140.83284
 42
0.0
  0
VERTEX
  8
0
 10
29.96946
 20
140.919454
 42
0.0
  0
VERTEX
  8
0
 10
30.103318
 20
141.018768
 42
0.0
  0
VERTEX
  8
0
 10
30.22727
 20
141.130528
 42
0.0
  0
VERTEX
  8
0
 10
30.338776
 20
141.254226
 42
0.0
  0
VERTEX
  8
0
 10
30.359604
 20
141.283182
 42
0.0
  0
VERTEX
  8
0
 10
30.43809
 20
141.388084
 42
0.0
  0
VERTEX
  8
0
 10
30.523434
 20
141.53261
 42
0.0
  0
VERTEX
  8
0
 10
30.545532
 20
141.578076
 42
0.0
  0
VERTEX
  8
0
 10
30.596586
 20
141.682978
 42
0.0
  0
VERTEX
  8
0
 10
30.636464
 20
141.797278
 42
0.0
  0
VERTEX
  8
0
 10
30.651704
 20
141.83995
 42
0.0
  0
VERTEX
  8
0
 10
30.691582
 20
142.00251
 42
0.0
  0
VERTEX
  8
0
 10
30.716474
 20
142.168118
 42
0.0
  0
VERTEX
  8
0
 10
30.724856
 20
142.334996
 42
0.0
  0
VERTEX
  8
0
 10
30.716474
 20
142.501366
 42
0.0
  0
VERTEX
  8
0
 10
30.691582
 20
142.666974
 42
0.0
  0
VERTEX
  8
0
 10
30.651704
 20
142.82801
 42
0.0
  0
VERTEX
  8
0
 10
30.596586
 20
142.986506
 42
0.0
  0
VERTEX
  8
0
 10
30.545532
 20
143.091154
 42
0.0
  0
VERTEX
  8
0
 10
30.523434
 20
143.136874
 42
0.0
  0
VERTEX
  8
0
 10
30.43809
 20
143.279876
 42
0.0
  0
VERTEX
  8
0
 10
30.359604
 20
143.386302
 42
0.0
  0
VERTEX
  8
0
 10
30.338776
 20
143.413734
 42
0.0
  0
VERTEX
  8
0
 10
30.22727
 20
143.53794
 42
0.0
  0
VERTEX
  8
0
 10
30.103318
 20
143.650716
 42
0.0
  0
VERTEX
  8
0
 10
29.96946
 20
143.749776
 42
0.0
  0
VERTEX
  8
0
 10
29.824934
 20
143.836898
 42
0.0
  0
VERTEX
  8
0
 10
29.80563
 20
143.845026
 42
0.0
  0
VERTEX
  8
0
 10
29.673296
 20
143.907256
 42
0.0
  0
VERTEX
  8
0
 10
29.517594
 20
143.963644
 42
0.0
  0
VERTEX
  8
0
 10
29.355034
 20
144.005046
 42
0.0
  0
VERTEX
  8
0
 10
29.18968
 20
144.028668
 42
0.0
  0
VERTEX
  8
0
 10
29.022802
 20
144.038066
 42
0.0
  0
VERTEX
  8
0
 10
28.856178
 20
144.028668
 42
0.0
  0
VERTEX
  8
0
 10
28.690824
 20
144.005046
 42
0.0
  0
VERTEX
  8
0
 10
28.528264
 20
143.963644
 42
0.0
  0
VERTEX
  8
0
 10
28.371038
 20
143.907256
 42
0.0
  0
VERTEX
  8
0
 10
28.311856
 20
143.879824
 42
0.0
  0
VERTEX
  8
0
 10
28.238704
 20
143.845026
 42
0.0
  0
VERTEX
  8
0
 10
28.2194
 20
143.836898
 42
0.0
  0
VERTEX
  8
0
 10
28.077414
 20
143.749776
 42
0.0
  0
VERTEX
  8
0
 10
27.94254
 20
143.650716
 42
0.0
  0
VERTEX
  8
0
 10
27.818588
 20
143.53794
 42
0.0
  0
VERTEX
  8
0
 10
27.706828
 20
143.413734
 42
0.0
  0
VERTEX
  8
0
 10
27.607514
 20
143.279876
 42
0.0
  0
VERTEX
  8
0
 10
27.5209
 20
143.136874
 42
0.0
  0
VERTEX
  8
0
 10
27.450542
 20
142.986506
 42
0.0
  0
VERTEX
  8
0
 10
27.39263
 20
142.82801
 42
0.0
  0
VERTEX
  8
0
 10
27.39136
 20
142.821406
 42
0.0
  0
VERTEX
  8
0
 10
27.352752
 20
142.666974
 42
0.0
  0
VERTEX
  8
0
 10
27.32786
 20
142.501366
 42
0.0
  0
VERTEX
  8
0
 10
27.319478
 20
142.334996
 42
0.0
  0
VERTEX
  8
0
 10
27.32786
 20
142.168118
 42
0.0
  0
VERTEX
  8
0
 10
27.352752
 20
142.00251
 42
0.0
  0
VERTEX
  8
0
 10
27.39263
 20
141.83995
 42
0.0
  0
VERTEX
  8
0
 10
27.40914
 20
141.797278
 42
0.0
  0
VERTEX
  8
0
 10
27.450542
 20
141.682978
 42
0.0
  0
VERTEX
  8
0
 10
27.5209
 20
141.53261
 42
0.0
  0
VERTEX
  8
0
 10
27.607514
 20
141.388084
 42
0.0
  0
VERTEX
  8
0
 10
27.706828
 20
141.254226
 42
0.0
  0
VERTEX
  8
0
 10
27.818588
 20
141.130528
 42
0.0
  0
VERTEX
  8
0
 10
27.94254
 20
141.018768
 42
0.0
  0
VERTEX
  8
0
 10
28.077414
 20
140.919454
 42
0.0
  0
VERTEX
  8
0
 10
28.2194
 20
140.83284
 42
0.0
  0
VERTEX
  8
0
 10
28.311856
 20
140.790168
 42
0.0
  0
VERTEX
  8
0
 10
28.371038
 20
140.761212
 42
0.0
  0
VERTEX
  8
0
 10
28.528264
 20
140.706094
 42
0.0
  0
VERTEX
  8
0
 10
28.690824
 20
140.664438
 42
0.0
  0
SEQEND
  0
POLYLINE
  8
0
 66
     1
 10
0.0
 20
0.0
 30
0.0
 70
     1
  0
VERTEX
  8
0
 10
29.18968
 20
164.319966
 42
0.0
  0
VERTEX
  8
0
 10
29.355034
 20
164.311838
 42
0.0
  0
VERTEX
  8
0
 10
29.520388
 20
164.319966
 42
0.0
  0
VERTEX
  8
0
 10
29.558996
 20
164.325554
 42
0.0
  0
VERTEX
  8
0
 10
29.684218
 20
164.344604
 42
0.0
  0
VERTEX
  8
0
 10
29.845508
 20
164.38499
 42
0.0
  0
VERTEX
  8
0
 10
30.002734
 20
164.441378
 42
0.0
  0
VERTEX
  8
0
 10
30.151578
 20
164.513006
 42
0.0
  0
VERTEX
  8
0
 10
30.29331
 20
164.59835
 42
0.0
  0
VERTEX
  8
0
 10
30.359604
 20
164.648134
 42
0.0
  0
VERTEX
  8
0
 10
30.428438
 20
164.698934
 42
0.0
  0
VERTEX
  8
0
 10
30.55112
 20
164.810694
 42
0.0
  0
VERTEX
  8
0
 10
30.661356
 20
164.934646
 42
0.0
  0
VERTEX
  8
0
 10
30.76067
 20
165.06825
 42
0.0
  0
VERTEX
  8
0
 10
30.846014
 20
165.211506
 42
0.0
  0
VERTEX
  8
0
 10
30.917642
 20
165.361874
 42
0.0
  0
VERTEX
  8
0
 10
30.97276
 20
165.520116
 42
0.0
  0
VERTEX
  8
0
 10
31.014162
 20
165.682676
 42
0.0
  0
VERTEX
  8
0
 10
31.03753
 20
165.84676
 42
0.0
  0
VERTEX
  8
0
 10
31.045912
 20
166.015162
 42
0.0
  0
VERTEX
  8
0
 10
31.03753
 20
166.181532
 42
0.0
  0
VERTEX
  8
0
 10
31.014162
 20
166.345616
 42
0.0
  0
VERTEX
  8
0
 10
31.007304
 20
166.373302
 42
0.0
  0
VERTEX
  8
0
 10
30.97276
 20
166.508176
 42
0.0
  0
VERTEX
  8
0
 10
30.917642
 20
166.665656
 42
0.0
  0
VERTEX
  8
0
 10
30.846014
 20
166.81704
 42
0.0
  0
VERTEX
  8
0
 10
30.76067
 20
166.960296
 42
0.0
  0
VERTEX
  8
0
 10
30.661356
 20
167.0939
 42
0.0
  0
VERTEX
  8
0
 10
30.55112
 20
167.218106
 42
0.0
  0
VERTEX
  8
0
 10
30.428438
 20
167.330882
 42
0.0
  0
VERTEX
  8
0
 10
30.359604
 20
167.380666
 42
0.0
  0
VERTEX
  8
0
 10
30.29331
 20
167.428926
 42
0.0
  0
VERTEX
  8
0
 10
30.151578
 20
167.515794
 42
0.0
  0
VERTEX
  8
0
 10
30.002734
 20
167.587422
 42
0.0
  0
VERTEX
  8
0
 10
29.845508
 20
167.64381
 42
0.0
  0
VERTEX
  8
0
 10
29.684218
 20
167.683688
 42
0.0
  0
VERTEX
  8
0
 10
29.520388
 20
167.708834
 42
0.0
  0
VERTEX
  8
0
 10
29.355034
 20
167.716962
 42
0.0
  0
VERTEX
  8
0
 10
29.18968
 20
167.708834
 42
0.0
  0
VERTEX
  8
0
 10
29.025596
 20
167.683688
 42
0.0
  0
VERTEX
  8
0
 10
28.864306
 20
167.64381
 42
0.0
  0
VERTEX
  8
0
 10
28.707334
 20
167.587422
 42
0.0
  0
VERTEX
  8
0
 10
28.556966
 20
167.515794
 42
0.0
  0
VERTEX
  8
0
 10
28.415234
 20
167.428926
 42
0.0
  0
VERTEX
  8
0
 10
28.311856
 20
167.353234
 42
0.0
  0
VERTEX
  8
0
 10
28.281376
 20
167.330882
 42
0.0
  0
VERTEX
  8
0
 10
28.157424
 20
167.218106
 42
0.0
  0
VERTEX
  8
0
 10
28.047188
 20
167.0939
 42
0.0
  0
VERTEX
  8
0
 10
27.948128
 20
166.960296
 42
0.0
  0
VERTEX
  8
0
 10
27.86253
 20
166.81704
 42
0.0
  0
VERTEX
  8
0
 10
27.792172
 20
166.665656
 42
0.0
  0
VERTEX
  8
0
 10
27.735784
 20
166.508176
 42
0.0
  0
VERTEX
  8
0
 10
27.70124
 20
166.373302
 42
0.0
  0
VERTEX
  8
0
 10
27.694382
 20
166.345616
 42
0.0
  0
VERTEX
  8
0
 10
27.671014
 20
166.181532
 42
0.0
  0
VERTEX
  8
0
 10
27.662632
 20
166.015162
 42
0.0
  0
VERTEX
  8
0
 10
27.671014
 20
165.84676
 42
0.0
  0
VERTEX
  8
0
 10
27.694382
 20
165.682676
 42
0.0
  0
VERTEX
  8
0
 10
27.735784
 20
165.520116
 42
0.0
  0
VERTEX
  8
0
 10
27.792172
 20
165.361874
 42
0.0
  0
VERTEX
  8
0
 10
27.86253
 20
165.211506
 42
0.0
  0
VERTEX
  8
0
 10
27.948128
 20
165.06825
 42
0.0
  0
VERTEX
  8
0
 10
28.047188
 20
164.934646
 42
0.0
  0
VERTEX
  8
0
 10
28.157424
 20
164.810694
 42
0.0
  0
VERTEX
  8
0
 10
28.281376
 20
164.698934
 42
0.0
  0
VERTEX
  8
0
 10
28.311856
 20
164.675566
 42
0.0
  0
VERTEX
  8
0
 10
28.415234
 20
164.59835
 42
0.0
  0
VERTEX
  8
0
 10
28.556966
 20
164.513006
 42
0.0
  0
VERTEX
  8
0
 10
28.707334
 20
164.441378
 42
0.0
  0
VERTEX
  8
0
 10
28.864306
 20
164.38499
 42
0.0
  0
VERTEX
  8
0
 10
29.025596
 20
164.344604
 42
0.0
  0
VERTEX
  8
0
 10
29.149548
 20
164.325554
 42
0.0
  0
SEQEND
  0
POLYLINE
  8
0
 66
     1
 10
0.0
 20
0.0
 30
0.0
 70
     1
  0
VERTEX
  8
0
 10
43.890438
 20
19.8575422
 42
0.0
  0
VERTEX
  8
0
 10
38.874446
 20
22.7527866
 42
0.0
  0
VERTEX
  8
0
 10
36.504372
 20
21.3844124
 42
0.0
  0
VERTEX
  8
0
 10
33.858454
 20
19.8575422
 42
0.0
  0
VERTEX
  8
0
 10
33.858454
 20
13.9333478
 42
0.0
  0
VERTEX
  8
0
 10
36.504372
 20
12.4064776
 42
0.0
  0
VERTEX
  8
0
 10
38.874446
 20
11.0381034
 42
0.0
  0
VERTEX
  8
0
 10
43.890438
 20
13.9333478
 42
0.0
  0
SEQEND
  0
POLYLINE
  8
0
 66
     1
 10
0.0
 20
0.0
 30
0.0
 70
     1
  0
VERTEX
  8
0
 10
31.40964
 20
31.690818
 42
0.0
  0
VERTEX
  8
0
 10
31.40964
 20
21.6999566
 42
0.0
  0
VERTEX
  8
0
 10
31.420562
 20
21.6944702
 42
0.0
  0
VERTEX
  8
0
 10
35.752024
 20
24.1942112
 42
0.0
  0
VERTEX
  8
0
 10
35.752024
 20
29.196538
 42
0.0
  0
VERTEX
  8
0
 10
31.420562
 20
31.697676
 42
0.0
  0
SEQEND
  0
POLYLINE
  8
0
 66
     1
 10
0.0
 20
0.0
 30
0.0
 70
     1
  0
VERTEX
  8
0
 10
72.4367176683009
 20
111.22924742752
 42
0.0
  0
VERTEX
  8
0
 10
72.4588693373865
 20
111.136449894864
 42
0.0
  0
VERTEX
  8
0
 10
72.4898925594475
 20
111.015350475415
 42
0.0
  0
VERTEX
  8
0
 10
72.5223580892008
 20
110.796827253354
 42
0.0
  0
VERTEX
  8
0
 10
72.5327263765738
 20
110.576943363659
 42
0.0
  0
VERTEX
  8
0
 10
72.5223580892008
 20
110.355426672803
 42
0.0
  0
VERTEX
  8
0
 10
72.4898925594475
 20
110.136903450742
 42
0.0
  0
VERTEX
  8
0
 10
72.4367176683009
 20
109.92273436511
 42
0.0
  0
VERTEX
  8
0
 10
72.3614183214214
 20
109.715912884704
 42
0.0
  0
VERTEX
  8
0
 10
72.2669335608989
 20
109.516711143049
 42
0.0
  0
VERTEX
  8
0
 10
72.1532361733807
 20
109.326217674254
 42
0.0
  0
VERTEX
  8
0
 10
72.023346841015
 20
109.149058748274
 42
0.0
  0
VERTEX
  8
0
 10
71.8742448816536
 20
108.985506498637
 42
0.0
  0
VERTEX
  8
0
 10
71.8269752880397
 20
108.942781534922
 42
0.0
  0
VERTEX
  8
0
 10
71.7103388584315
 20
108.836105192396
 42
0.0
  0
VERTEX
  8
0
 10
71.5331527190992
 20
108.704936832454
 42
0.0
  0
VERTEX
  8
0
 10
71.3427136770092
 20
108.592545685865
 42
0.0
  0
VERTEX
  8
0
 10
71.1434030819439
 20
108.496754684414
 42
0.0
  0
VERTEX
  8
0
 10
70.9366904549482
 20
108.423006498637
 42
0.0
  0
VERTEX
  8
0
 10
70.7226302227276
 20
108.369668327375
 42
0.0
  0
VERTEX
  8
0
 10
70.6827354476913
 20
108.363681389784
 42
0.0
  0
VERTEX
  8
0
 10
70.5041070006667
 20
108.337284437679
 42
0.0
  0
VERTEX
  8
0
 10
70.282617523163
 20
108.326943363659
 42
0.0
  0
VERTEX
  8
0
 10
70.0626519934098
 20
108.337284437679
 42
0.0
  0
VERTEX
  8
0
 10
69.8441559847015
 20
108.369668327375
 42
0.0
  0
VERTEX
  8
0
 10
69.6300685391282
 20
108.423006498637
 42
0.0
  0
VERTEX
  8
0
 10
69.4218863910876
 20
108.496754684414
 42
0.0
  0
VERTEX
  8
0
 10
69.2225485826696
 20
108.592545685865
 42
0.0
  0
VERTEX
  8
0
 10
69.0335790616246
 20
108.704936832454
 42
0.0
  0
VERTEX
  8
0
 10
68.8549506145999
 20
108.836105192396
 42
0.0
  0
VERTEX
  8
0
 10
68.7383141849918
 20
108.942781534922
 42
0.0
  0
VERTEX
  8
0
 10
68.6910718047305
 20
108.985506498637
 42
0.0
  0
VERTEX
  8
0
 10
68.5434393664141
 20
109.149058748274
 42
0.0
  0
VERTEX
  8
0
 10
68.4887677408699
 20
109.223079067578
 42
0.0
  0
VERTEX
  8
0
 10
68.412026086298
 20
109.326217674254
 42
0.0
  0
VERTEX
  8
0
 10
68.2983286987799
 20
109.516711143049
 42
0.0
  0
VERTEX
  8
0
 10
68.2038439382574
 20
109.715912884704
 42
0.0
  0
VERTEX
  8
0
 10
68.1300141124228
 20
109.92273436511
 42
0.0
  0
VERTEX
  8
0
 10
68.0768664346289
 20
110.136903450742
 42
0.0
  0
VERTEX
  8
0
 10
68.042904170478
 20
110.355426672803
 42
0.0
  0
VERTEX
  8
0
 10
68.0325903098104
 20
110.576943363659
 42
0.0
  0
VERTEX
  8
0
 10
68.042904170478
 20
110.796827253354
 42
0.0
  0
VERTEX
  8
0
 10
68.0768664346289
 20
111.015350475415
 42
0.0
  0
VERTEX
  8
0
 10
68.1078624433372
 20
111.136449894864
 42
0.0
  0
VERTEX
  8
0
 10
68.1300141124228
 20
111.22924742752
 42
0.0
  0
VERTEX
  8
0
 10
68.2038439382574
 20
111.437701709087
 42
0.0
  0
VERTEX
  8
0
 10
68.2983286987799
 20
111.637175584269
 42
0.0
  0
VERTEX
  8
0
 10
68.412026086298
 20
111.826036251903
 42
0.0
  0
VERTEX
  8
0
 10
68.4887677408699
 20
111.93080765974
 42
0.0
  0
VERTEX
  8
0
 10
68.5434393664141
 20
112.004555845517
 42
0.0
  0
VERTEX
  8
0
 10
68.6910718047305
 20
112.167019561047
 42
0.0
  0
VERTEX
  8
0
 10
68.7663439382574
 20
112.235052942759
 42
0.0
  0
VERTEX
  8
0
 10
68.8549506145999
 20
112.315876600234
 42
0.0
  0
VERTEX
  8
0
 10
69.0335790616246
 20
112.447589227229
 42
0.0
  0
VERTEX
  8
0
 10
69.2225485826696
 20
112.561341041453
 42
0.0
  0
VERTEX
  8
0
 10
69.4218863910876
 20
112.65577137527
 42
0.0
  0
VERTEX
  8
0
 10
69.6300685391282
 20
112.729519561047
 42
0.0
  0
VERTEX
  8
0
 10
69.8441559847015
 20
112.782857732309
 42
0.0
  0
VERTEX
  8
0
 10
70.0626519934098
 20
112.815241622004
 42
0.0
  0
VERTEX
  8
0
 10
70.282617523163
 20
112.826943363659
 42
0.0
  0
VERTEX
  8
0
 10
70.5041070006667
 20
112.815241622004
 42
0.0
  0
VERTEX
  8
0
 10
70.6827354476913
 20
112.788572536373
 42
0.0
  0
VERTEX
  8
0
 10
70.7226302227276
 20
112.782857732309
 42
0.0
  0
VERTEX
  8
0
 10
70.9366904549482
 20
112.729519561047
 42
0.0
  0
VERTEX
  8
0
 10
71.1434030819439
 20
112.65577137527
 42
0.0
  0
VERTEX
  8
0
 10
71.3427136770092
 20
112.561341041453
 42
0.0
  0
VERTEX
  8
0
 10
71.5331527190992
 20
112.447589227229
 42
0.0
  0
VERTEX
  8
0
 10
71.7103388584315
 20
112.315876600234
 42
0.0
  0
VERTEX
  8
0
 10
71.7989183214214
 20
112.235052942759
 42
0.0
  0
VERTEX
  8
0
 10
71.8742448816536
 20
112.167019561047
 42
0.0
  0
VERTEX
  8
0
 10
72.023346841015
 20
112.004555845517
 42
0.0
  0
VERTEX
  8
0
 10
72.1532361733807
 20
111.826036251903
 42
0.0
  0
VERTEX
  8
0
 10
72.2669335608989
 20
111.637175584269
 42
0.0
  0
VERTEX
  8
0
 10
72.3614183214214
 20
111.437701709087
 42
0.0
  0
SEQEND
  0
POLYLINE
  8
0
 66
     1
 10
0.0
 20
0.0
 30
0.0
 70
     1
  0
VERTEX
  8
0
 10
50.9469105530965
 20
92.649369314378
 42
0.0
  0
VERTEX
  8
0
 10
50.9690622221822
 20
92.556571781722
 42
0.0
  0
VERTEX
  8
0
 10
51.0000854442431
 20
92.4354723622735
 42
0.0
  0
VERTEX
  8
0
 10
51.0325509739964
 20
92.2169491402125
 42
0.0
  0
VERTEX
  8
0
 10
51.0429192613694
 20
91.9970652505174
 42
0.0
  0
VERTEX
  8
0
 10
51.0325509739964
 20
91.775548559661
 42
0.0
  0
VERTEX
  8
0
 10
51.0000854442431
 20
91.5570253376001
 42
0.0
  0
VERTEX
  8
0
 10
50.9469105530965
 20
91.3428562519687
 42
0.0
  0
VERTEX
  8
0
 10
50.871611206217
 20
91.1360347715623
 42
0.0
  0
VERTEX
  8
0
 10
50.7771264456945
 20
90.9368330299078
 42
0.0
  0
VERTEX
  8
0
 10
50.6634290581764
 20
90.7463395611124
 42
0.0
  0
VERTEX
  8
0
 10
50.5335397258106
 20
90.5691806351327
 42
0.0
  0
VERTEX
  8
0
 10
50.3844377664492
 20
90.4056283854956
 42
0.0
  0
VERTEX
  8
0
 10
50.3371681728353
 20
90.36290342178
 42
0.0
  0
VERTEX
  8
0
 10
50.2205317432272
 20
90.2562270792546
 42
0.0
  0
VERTEX
  8
0
 10
50.0433456038948
 20
90.1250587193127
 42
0.0
  0
VERTEX
  8
0
 10
49.8529065618048
 20
90.0126675727234
 42
0.0
  0
VERTEX
  8
0
 10
49.6535959667395
 20
89.9168765712721
 42
0.0
  0
VERTEX
  8
0
 10
49.4468833397439
 20
89.8431283854956
 42
0.0
  0
VERTEX
  8
0
 10
49.2328231075233
 20
89.7897902142329
 42
0.0
  0
VERTEX
  8
0
 10
49.192928332487
 20
89.7838032766422
 42
0.0
  0
VERTEX
  8
0
 10
49.0142998854623
 20
89.7574063245377
 42
0.0
  0
VERTEX
  8
0
 10
48.7928104079587
 20
89.7470652505173
 42
0.0
  0
VERTEX
  8
0
 10
48.5728448782054
 20
89.7574063245377
 42
0.0
  0
VERTEX
  8
0
 10
48.3543488694971
 20
89.7897902142329
 42
0.0
  0
VERTEX
  8
0
 10
48.1402614239238
 20
89.8431283854956
 42
0.0
  0
VERTEX
  8
0
 10
47.9320792758832
 20
89.9168765712721
 42
0.0
  0
VERTEX
  8
0
 10
47.7327414674652
 20
90.0126675727234
 42
0.0
  0
VERTEX
  8
0
 10
47.5437719464202
 20
90.1250587193127
 42
0.0
  0
VERTEX
  8
0
 10
47.3651434993955
 20
90.2562270792546
 42
0.0
  0
VERTEX
  8
0
 10
47.2485070697874
 20
90.36290342178
 42
0.0
  0
VERTEX
  8
0
 10
47.2012646895262
 20
90.4056283854956
 42
0.0
  0
VERTEX
  8
0
 10
47.0536322512098
 20
90.5691806351327
 42
0.0
  0
VERTEX
  8
0
 10
46.9989606256655
 20
90.6432009544361
 42
0.0
  0
VERTEX
  8
0
 10
46.9222189710936
 20
90.7463395611124
 42
0.0
  0
VERTEX
  8
0
 10
46.8085215835755
 20
90.9368330299078
 42
0.0
  0
VERTEX
  8
0
 10
46.714036823053
 20
91.1360347715623
 42
0.0
  0
VERTEX
  8
0
 10
46.6402069972185
 20
91.3428562519687
 42
0.0
  0
VERTEX
  8
0
 10
46.5870593194246
 20
91.5570253376001
 42
0.0
  0
VERTEX
  8
0
 10
46.5530970552736
 20
91.775548559661
 42
0.0
  0
VERTEX
  8
0
 10
46.542783194606
 20
91.9970652505174
 42
0.0
  0
VERTEX
  8
0
 10
46.5530970552736
 20
92.2169491402125
 42
0.0
  0
VERTEX
  8
0
 10
46.5870593194246
 20
92.4354723622735
 42
0.0
  0
VERTEX
  8
0
 10
46.6180553281328
 20
92.556571781722
 42
0.0
  0
VERTEX
  8
0
 10
46.6402069972185
 20
92.649369314378
 42
0.0
  0
VERTEX
  8
0
 10
46.714036823053
 20
92.8578235959455
 42
0.0
  0
VERTEX
  8
0
 10
46.8085215835755
 20
93.0572974711269
 42
0.0
  0
VERTEX
  8
0
 10
46.9222189710936
 20
93.2461581387612
 42
0.0
  0
VERTEX
  8
0
 10
46.9989606256655
 20
93.3509295465986
 42
0.0
  0
VERTEX
  8
0
 10
47.0536322512098
 20
93.4246777323751
 42
0.0
  0
VERTEX
  8
0
 10
47.2012646895262
 20
93.5871414479049
 42
0.0
  0
VERTEX
  8
0
 10
47.276536823053
 20
93.6551748296175
 42
0.0
  0
VERTEX
  8
0
 10
47.3651434993955
 20
93.7359984870921
 42
0.0
  0
VERTEX
  8
0
 10
47.5437719464202
 20
93.8677111140877
 42
0.0
  0
VERTEX
  8
0
 10
47.7327414674652
 20
93.9814629283112
 42
0.0
  0
VERTEX
  8
0
 10
47.9320792758832
 20
94.0758932621284
 42
0.0
  0
VERTEX
  8
0
 10
48.1402614239238
 20
94.1496414479048
 42
0.0
  0
VERTEX
  8
0
 10
48.3543488694971
 20
94.2029796191676
 42
0.0
  0
VERTEX
  8
0
 10
48.5728448782054
 20
94.2353635088628
 42
0.0
  0
VERTEX
  8
0
 10
48.7928104079587
 20
94.2470652505173
 42
0.0
  0
VERTEX
  8
0
 10
49.0142998854623
 20
94.2353635088628
 42
0.0
  0
VERTEX
  8
0
 10
49.192928332487
 20
94.2086944232314
 42
0.0
  0
VERTEX
  8
0
 10
49.2328231075233
 20
94.2029796191676
 42
0.0
  0
VERTEX
  8
0
 10
49.4468833397439
 20
94.1496414479048
 42
0.0
  0
VERTEX
  8
0
 10
49.6535959667395
 20
94.0758932621284
 42
0.0
  0
VERTEX
  8
0
 10
49.8529065618048
 20
93.9814629283112
 42
0.0
  0
VERTEX
  8
0
 10
50.0433456038948
 20
93.8677111140877
 42
0.0
  0
VERTEX
  8
0
 10
50.2205317432272
 20
93.7359984870921
 42
0.0
  0
VERTEX
  8
0
 10
50.309111206217
 20
93.6551748296175
 42
0.0
  0
VERTEX
  8
0
 10
50.3844377664492
 20
93.5871414479049
 42
0.0
  0
VERTEX
  8
0
 10
50.5335397258106
 20
93.4246777323751
 42
0.0
  0
VERTEX
  8
0
 10
50.6634290581764
 20
93.2461581387612
 42
0.0
  0
VERTEX
  8
0
 10
50.7771264456945
 20
93.0572974711269
 42
0.0
  0
VERTEX
  8
0
 10
50.871611206217
 20
92.8578235959455
 42
0.0
  0
SEQEND
  0
POLYLINE
  8
0
 66
     1
 10
0.0
 20
0.0
 30
0.0
 70
     1
  0
VERTEX
  8
0
 10
31.0320141069104
 20
92.6502267871907
 42
0.0
  0
VERTEX
  8
0
 10
31.054165775996
 20
92.5574292545347
 42
0.0
  0
VERTEX
  8
0
 10
31.085188998057
 20
92.4363298350863
 42
0.0
  0
VERTEX
  8
0
 10
31.1176545278102
 20
92.2178066130253
 42
0.0
  0
VERTEX
  8
0
 10
31.1280228151832
 20
91.9979227233301
 42
0.0
  0
VERTEX
  8
0
 10
31.1176545278102
 20
91.7764060324738
 42
0.0
  0
VERTEX
  8
0
 10
31.085188998057
 20
91.5578828104128
 42
0.0
  0
VERTEX
  8
0
 10
31.0320141069104
 20
91.3437137247815
 42
0.0
  0
VERTEX
  8
0
 10
30.9567147600308
 20
91.1368922443751
 42
0.0
  0
VERTEX
  8
0
 10
30.8622299995083
 20
90.9376905027205
 42
0.0
  0
VERTEX
  8
0
 10
30.7485326119902
 20
90.7471970339251
 42
0.0
  0
VERTEX
  8
0
 10
30.6186432796245
 20
90.5700381079455
 42
0.0
  0
VERTEX
  8
0
 10
30.4695413202631
 20
90.4064858583083
 42
0.0
  0
VERTEX
  8
0
 10
30.4222717266491
 20
90.3637608945928
 42
0.0
  0
VERTEX
  8
0
 10
30.305635297041
 20
90.2570845520674
 42
0.0
  0
VERTEX
  8
0
 10
30.1284491577086
 20
90.1259161921254
 42
0.0
  0
VERTEX
  8
0
 10
29.9380101156187
 20
90.0135250455362
 42
0.0
  0
VERTEX
  8
0
 10
29.7386995205533
 20
89.9177340440848
 42
0.0
  0
VERTEX
  8
0
 10
29.5319868935577
 20
89.8439858583083
 42
0.0
  0
VERTEX
  8
0
 10
29.3179266613371
 20
89.7906476870456
 42
0.0
  0
VERTEX
  8
0
 10
29.2780318863008
 20
89.7846607494549
 42
0.0
  0
VERTEX
  8
0
 10
29.0994034392761
 20
89.7582637973504
 42
0.0
  0
VERTEX
  8
0
 10
28.8779139617725
 20
89.7479227233301
 42
0.0
  0
VERTEX
  8
0
 10
28.6579484320192
 20
89.7582637973504
 42
0.0
  0
VERTEX
  8
0
 10
28.439452423311
 20
89.7906476870456
 42
0.0
  0
VERTEX
  8
0
 10
28.2253649777377
 20
89.8439858583083
 42
0.0
  0
VERTEX
  8
0
 10
28.017182829697
 20
89.9177340440848
 42
0.0
  0
VERTEX
  8
0
 10
27.817845021279
 20
90.0135250455362
 42
0.0
  0
VERTEX
  8
0
 10
27.628875500234
 20
90.1259161921254
 42
0.0
  0
VERTEX
  8
0
 10
27.4502470532094
 20
90.2570845520674
 42
0.0
  0
VERTEX
  8
0
 10
27.3336106236012
 20
90.3637608945928
 42
0.0
  0
VERTEX
  8
0
 10
27.28636824334
 20
90.4064858583083
 42
0.0
  0
VERTEX
  8
0
 10
27.1387358050236
 20
90.5700381079455
 42
0.0
  0
VERTEX
  8
0
 10
27.0840641794793
 20
90.6440584272488
 42
0.0
  0
VERTEX
  8
0
 10
27.0073225249075
 20
90.7471970339251
 42
0.0
  0
VERTEX
  8
0
 10
26.8936251373893
 20
90.9376905027205
 42
0.0
  0
VERTEX
  8
0
 10
26.7991403768668
 20
91.1368922443751
 42
0.0
  0
VERTEX
  8
0
 10
26.7253105510323
 20
91.3437137247815
 42
0.0
  0
VERTEX
  8
0
 10
26.6721628732384
 20
91.5578828104128
 42
0.0
  0
VERTEX
  8
0
 10
26.6382006090874
 20
91.7764060324738
 42
0.0
  0
VERTEX
  8
0
 10
26.6278867484198
 20
91.9979227233301
 42
0.0
  0
VERTEX
  8
0
 10
26.6382006090874
 20
92.2178066130253
 42
0.0
  0
VERTEX
  8
0
 10
26.6721628732384
 20
92.4363298350863
 42
0.0
  0
VERTEX
  8
0
 10
26.7031588819467
 20
92.5574292545347
 42
0.0
  0
VERTEX
  8
0
 10
26.7253105510323
 20
92.6502267871907
 42
0.0
  0
VERTEX
  8
0
 10
26.7991403768668
 20
92.8586810687582
 42
0.0
  0
VERTEX
  8
0
 10
26.8936251373893
 20
93.0581549439397
 42
0.0
  0
VERTEX
  8
0
 10
27.0073225249075
 20
93.2470156115739
 42
0.0
  0
VERTEX
  8
0
 10
27.0840641794793
 20
93.3517870194114
 42
0.0
  0
VERTEX
  8
0
 10
27.1387358050236
 20
93.4255352051878
 42
0.0
  0
VERTEX
  8
0
 10
27.28636824334
 20
93.5879989207176
 42
0.0
  0
VERTEX
  8
0
 10
27.3616403768668
 20
93.6560323024302
 42
0.0
  0
VERTEX
  8
0
 10
27.4502470532094
 20
93.7368559599048
 42
0.0
  0
VERTEX
  8
0
 10
27.628875500234
 20
93.8685685869005
 42
0.0
  0
VERTEX
  8
0
 10
27.817845021279
 20
93.982320401124
 42
0.0
  0
VERTEX
  8
0
 10
28.017182829697
 20
94.0767507349411
 42
0.0
  0
VERTEX
  8
0
 10
28.2253649777377
 20
94.1504989207176
 42
0.0
  0
VERTEX
  8
0
 10
28.439452423311
 20
94.2038370919803
 42
0.0
  0
VERTEX
  8
0
 10
28.6579484320192
 20
94.2362209816755
 42
0.0
  0
VERTEX
  8
0
 10
28.8779139617725
 20
94.2479227233301
 42
0.0
  0
VERTEX
  8
0
 10
29.0994034392761
 20
94.2362209816755
 42
0.0
  0
VERTEX
  8
0
 10
29.2780318863008
 20
94.2095518960442
 42
0.0
  0
VERTEX
  8
0
 10
29.3179266613371
 20
94.2038370919803
 42
0.0
  0
VERTEX
  8
0
 10
29.5319868935577
 20
94.1504989207176
 42
0.0
  0
VERTEX
  8
0
 10
29.7386995205533
 20
94.0767507349411
 42
0.0
  0
VERTEX
  8
0
 10
29.9380101156187
 20
93.982320401124
 42
0.0
  0
VERTEX
  8
0
 10
30.1284491577086
 20
93.8685685869005
 42
0.0
  0
VERTEX
  8
0
 10
30.305635297041
 20
93.7368559599048
 42
0.0
  0
VERTEX
  8
0
 10
30.3942147600308
 20
93.6560323024302
 42
0.0
  0
VERTEX
  8
0
 10
30.4695413202631
 20
93.5879989207176
 42
0.0
  0
VERTEX
  8
0
 10
30.6186432796245
 20
93.4255352051878
 42
0.0
  0
VERTEX
  8
0
 10
30.7485326119902
 20
93.2470156115739
 42
0.0
  0
VERTEX
  8
0
 10
30.8622299995083
 20
93.0581549439397
 42
0.0
  0
VERTEX
  8
0
 10
30.9567147600308
 20
92.8586810687582
 42
0.0
  0
SEQEND
  0
POLYLINE
  8
0
 66
     1
 10
0.0
 20
0.0
 30
0.0
 70
     1
  0
VERTEX
  8
0
 10
31.0809190538815
 20
72.8052975551125
 42
0.0
  0
VERTEX
  8
0
 10
31.1030707229671
 20
72.7125000224565
 42
0.0
  0
VERTEX
  8
0
 10
31.1340939450281
 20
72.591400603008
 42
0.0
  0
VERTEX
  8
0
 10
31.1665594747813
 20
72.372877380947
 42
0.0
  0
VERTEX
  8
0
 10
31.1769277621543
 20
72.1529934912518
 42
0.0
  0
VERTEX
  8
0
 10
31.1665594747813
 20
71.9314768003955
 42
0.0
  0
VERTEX
  8
0
 10
31.1340939450281
 20
71.7129535783345
 42
0.0
  0
VERTEX
  8
0
 10
31.0809190538815
 20
71.4987844927032
 42
0.0
  0
VERTEX
  8
0
 10
31.0056197070019
 20
71.2919630122968
 42
0.0
  0
VERTEX
  8
0
 10
30.9111349464794
 20
71.0927612706422
 42
0.0
  0
VERTEX
  8
0
 10
30.7974375589613
 20
70.9022678018469
 42
0.0
  0
VERTEX
  8
0
 10
30.6675482265955
 20
70.7251088758672
 42
0.0
  0
VERTEX
  8
0
 10
30.5184462672342
 20
70.5615566262301
 42
0.0
  0
VERTEX
  8
0
 10
30.4711766736202
 20
70.5188316625145
 42
0.0
  0
VERTEX
  8
0
 10
30.3545402440121
 20
70.4121553199891
 42
0.0
  0
VERTEX
  8
0
 10
30.1773541046797
 20
70.2809869600472
 42
0.0
  0
VERTEX
  8
0
 10
29.9869150625898
 20
70.1685958134579
 42
0.0
  0
VERTEX
  8
0
 10
29.7876044675244
 20
70.0728048120065
 42
0.0
  0
VERTEX
  8
0
 10
29.5808918405288
 20
69.9990566262301
 42
0.0
  0
VERTEX
  8
0
 10
29.3668316083082
 20
69.9457184549673
 42
0.0
  0
VERTEX
  8
0
 10
29.3269368332719
 20
69.9397315173766
 42
0.0
  0
VERTEX
  8
0
 10
29.1483083862472
 20
69.9133345652721
 42
0.0
  0
VERTEX
  8
0
 10
28.9268189087436
 20
69.9029934912518
 42
0.0
  0
VERTEX
  8
0
 10
28.7068533789903
 20
69.9133345652721
 42
0.0
  0
VERTEX
  8
0
 10
28.4883573702821
 20
69.9457184549673
 42
0.0
  0
VERTEX
  8
0
 10
28.2742699247088
 20
69.9990566262301
 42
0.0
  0
VERTEX
  8
0
 10
28.0660877766681
 20
70.0728048120065
 42
0.0
  0
VERTEX
  8
0
 10
27.8667499682501
 20
70.1685958134579
 42
0.0
  0
VERTEX
  8
0
 10
27.6777804472051
 20
70.2809869600472
 42
0.0
  0
VERTEX
  8
0
 10
27.4991520001805
 20
70.4121553199891
 42
0.0
  0
VERTEX
  8
0
 10
27.3825155705723
 20
70.5188316625145
 42
0.0
  0
VERTEX
  8
0
 10
27.3352731903111
 20
70.5615566262301
 42
0.0
  0
VERTEX
  8
0
 10
27.1876407519947
 20
70.7251088758672
 42
0.0
  0
VERTEX
  8
0
 10
27.1329691264504
 20
70.7991291951705
 42
0.0
  0
VERTEX
  8
0
 10
27.0562274718786
 20
70.9022678018469
 42
0.0
  0
VERTEX
  8
0
 10
26.9425300843604
 20
71.0927612706422
 42
0.0
  0
VERTEX
  8
0
 10
26.8480453238379
 20
71.2919630122968
 42
0.0
  0
VERTEX
  8
0
 10
26.7742154980034
 20
71.4987844927032
 42
0.0
  0
VERTEX
  8
0
 10
26.7210678202095
 20
71.7129535783345
 42
0.0
  0
VERTEX
  8
0
 10
26.6871055560585
 20
71.9314768003955
 42
0.0
  0
VERTEX
  8
0
 10
26.6767916953909
 20
72.1529934912518
 42
0.0
  0
VERTEX
  8
0
 10
26.6871055560585
 20
72.372877380947
 42
0.0
  0
VERTEX
  8
0
 10
26.7210678202095
 20
72.591400603008
 42
0.0
  0
VERTEX
  8
0
 10
26.7520638289178
 20
72.7125000224565
 42
0.0
  0
VERTEX
  8
0
 10
26.7742154980034
 20
72.8052975551125
 42
0.0
  0
VERTEX
  8
0
 10
26.8480453238379
 20
73.01375183668
 42
0.0
  0
VERTEX
  8
0
 10
26.9425300843604
 20
73.2132257118614
 42
0.0
  0
VERTEX
  8
0
 10
27.0562274718786
 20
73.4020863794957
 42
0.0
  0
VERTEX
  8
0
 10
27.1329691264504
 20
73.5068577873331
 42
0.0
  0
VERTEX
  8
0
 10
27.1876407519947
 20
73.5806059731096
 42
0.0
  0
VERTEX
  8
0
 10
27.3352731903111
 20
73.7430696886393
 42
0.0
  0
VERTEX
  8
0
 10
27.4105453238379
 20
73.811103070352
 42
0.0
  0
VERTEX
  8
0
 10
27.4991520001805
 20
73.8919267278266
 42
0.0
  0
VERTEX
  8
0
 10
27.6777804472051
 20
74.0236393548222
 42
0.0
  0
VERTEX
  8
0
 10
27.8667499682501
 20
74.1373911690457
 42
0.0
  0
VERTEX
  8
0
 10
28.0660877766681
 20
74.2318215028628
 42
0.0
  0
VERTEX
  8
0
 10
28.2742699247088
 20
74.3055696886393
 42
0.0
  0
VERTEX
  8
0
 10
28.4883573702821
 20
74.358907859902
 42
0.0
  0
VERTEX
  8
0
 10
28.7068533789903
 20
74.3912917495972
 42
0.0
  0
VERTEX
  8
0
 10
28.9268189087436
 20
74.4029934912518
 42
0.0
  0
VERTEX
  8
0
 10
29.1483083862472
 20
74.3912917495972
 42
0.0
  0
VERTEX
  8
0
 10
29.3269368332719
 20
74.3646226639659
 42
0.0
  0
VERTEX
  8
0
 10
29.3668316083082
 20
74.358907859902
 42
0.0
  0
VERTEX
  8
0
 10
29.5808918405288
 20
74.3055696886393
 42
0.0
  0
VERTEX
  8
0
 10
29.7876044675244
 20
74.2318215028628
 42
0.0
  0
VERTEX
  8
0
 10
29.9869150625898
 20
74.1373911690457
 42
0.0
  0
VERTEX
  8
0
 10
30.1773541046797
 20
74.0236393548222
 42
0.0
  0
VERTEX
  8
0
 10
30.3545402440121
 20
73.8919267278266
 42
0.0
  0
VERTEX
  8
0
 10
30.4431197070019
 20
73.811103070352
 42
0.0
  0
VERTEX
  8
0
 10
30.5184462672342
 20
73.7430696886393
 42
0.0
  0
VERTEX
  8
0
 10
30.6675482265955
 20
73.5806059731096
 42
0.0
  0
VERTEX
  8
0
 10
30.7974375589613
 20
73.4020863794957
 42
0.0
  0
VERTEX
  8
0
 10
30.9111349464794
 20
73.2132257118614
 42
0.0
  0
VERTEX
  8
0
 10
31.0056197070019
 20
73.01375183668
 42
0.0
  0
SEQEND
  0
POLYLINE
  8
0
 66
     1
 10
0.0
 20
0.0
 30
0.0
 70
     1
  0
VERTEX
  8
0
 10
50.9893808093137
 20
72.8144600546141
 42
0.0
  0
VERTEX
  8
0
 10
51.0115324783993
 20
72.7216625219581
 42
0.0
  0
VERTEX
  8
0
 10
51.0425557004603
 20
72.6005631025096
 42
0.0
  0
VERTEX
  8
0
 10
51.0750212302135
 20
72.3820398804487
 42
0.0
  0
VERTEX
  8
0
 10
51.0853895175865
 20
72.1621559907535
 42
0.0
  0
VERTEX
  8
0
 10
51.0750212302135
 20
71.9406392998971
 42
0.0
  0
VERTEX
  8
0
 10
51.0425557004603
 20
71.7221160778362
 42
0.0
  0
VERTEX
  8
0
 10
50.9893808093137
 20
71.5079469922048
 42
0.0
  0
VERTEX
  8
0
 10
50.9140814624341
 20
71.3011255117985
 42
0.0
  0
VERTEX
  8
0
 10
50.8195967019116
 20
71.1019237701439
 42
0.0
  0
VERTEX
  8
0
 10
50.7058993143935
 20
70.9114303013485
 42
0.0
  0
VERTEX
  8
0
 10
50.5760099820278
 20
70.7342713753688
 42
0.0
  0
VERTEX
  8
0
 10
50.4269080226664
 20
70.5707191257317
 42
0.0
  0
VERTEX
  8
0
 10
50.3796384290524
 20
70.5279941620162
 42
0.0
  0
VERTEX
  8
0
 10
50.2630019994443
 20
70.4213178194908
 42
0.0
  0
VERTEX
  8
0
 10
50.085815860112
 20
70.2901494595488
 42
0.0
  0
VERTEX
  8
0
 10
49.895376818022
 20
70.1777583129596
 42
0.0
  0
VERTEX
  8
0
 10
49.6960662229566
 20
70.0819673115082
 42
0.0
  0
VERTEX
  8
0
 10
49.489353595961
 20
70.0082191257317
 42
0.0
  0
VERTEX
  8
0
 10
49.2752933637404
 20
69.954880954469
 42
0.0
  0
VERTEX
  8
0
 10
49.2353985887041
 20
69.9488940168783
 42
0.0
  0
VERTEX
  8
0
 10
49.0567701416794
 20
69.9224970647738
 42
0.0
  0
VERTEX
  8
0
 10
48.8352806641758
 20
69.9121559907535
 42
0.0
  0
VERTEX
  8
0
 10
48.6153151344225
 20
69.9224970647738
 42
0.0
  0
VERTEX
  8
0
 10
48.3968191257143
 20
69.954880954469
 42
0.0
  0
VERTEX
  8
0
 10
48.182731680141
 20
70.0082191257317
 42
0.0
  0
VERTEX
  8
0
 10
47.9745495321003
 20
70.0819673115082
 42
0.0
  0
VERTEX
  8
0
 10
47.7752117236823
 20
70.1777583129596
 42
0.0
  0
VERTEX
  8
0
 10
47.5862422026374
 20
70.2901494595488
 42
0.0
  0
VERTEX
  8
0
 10
47.4076137556127
 20
70.4213178194908
 42
0.0
  0
VERTEX
  8
0
 10
47.2909773260045
 20
70.5279941620162
 42
0.0
  0
VERTEX
  8
0
 10
47.2437349457433
 20
70.5707191257317
 42
0.0
  0
VERTEX
  8
0
 10
47.0961025074269
 20
70.7342713753688
 42
0.0
  0
VERTEX
  8
0
 10
47.0414308818826
 20
70.8082916946722
 42
0.0
  0
VERTEX
  8
0
 10
46.9646892273108
 20
70.9114303013485
 42
0.0
  0
VERTEX
  8
0
 10
46.8509918397926
 20
71.1019237701439
 42
0.0
  0
VERTEX
  8
0
 10
46.7565070792702
 20
71.3011255117985
 42
0.0
  0
VERTEX
  8
0
 10
46.6826772534356
 20
71.5079469922048
 42
0.0
  0
VERTEX
  8
0
 10
46.6295295756417
 20
71.7221160778362
 42
0.0
  0
VERTEX
  8
0
 10
46.5955673114908
 20
71.9406392998971
 42
0.0
  0
VERTEX
  8
0
 10
46.5852534508231
 20
72.1621559907535
 42
0.0
  0
VERTEX
  8
0
 10
46.5955673114908
 20
72.3820398804487
 42
0.0
  0
VERTEX
  8
0
 10
46.6295295756417
 20
72.6005631025096
 42
0.0
  0
VERTEX
  8
0
 10
46.66052558435
 20
72.7216625219581
 42
0.0
  0
VERTEX
  8
0
 10
46.6826772534356
 20
72.8144600546141
 42
0.0
  0
VERTEX
  8
0
 10
46.7565070792702
 20
73.0229143361816
 42
0.0
  0
VERTEX
  8
0
 10
46.8509918397926
 20
73.222388211363
 42
0.0
  0
VERTEX
  8
0
 10
46.9646892273108
 20
73.4112488789973
 42
0.0
  0
VERTEX
  8
0
 10
47.0414308818826
 20
73.5160202868347
 42
0.0
  0
VERTEX
  8
0
 10
47.0961025074269
 20
73.5897684726112
 42
0.0
  0
VERTEX
  8
0
 10
47.2437349457433
 20
73.752232188141
 42
0.0
  0
VERTEX
  8
0
 10
47.3190070792701
 20
73.8202655698536
 42
0.0
  0
VERTEX
  8
0
 10
47.4076137556127
 20
73.9010892273282
 42
0.0
  0
VERTEX
  8
0
 10
47.5862422026374
 20
74.0328018543239
 42
0.0
  0
VERTEX
  8
0
 10
47.7752117236823
 20
74.1465536685474
 42
0.0
  0
VERTEX
  8
0
 10
47.9745495321003
 20
74.2409840023645
 42
0.0
  0
VERTEX
  8
0
 10
48.182731680141
 20
74.314732188141
 42
0.0
  0
VERTEX
  8
0
 10
48.3968191257143
 20
74.3680703594037
 42
0.0
  0
VERTEX
  8
0
 10
48.6153151344225
 20
74.4004542490989
 42
0.0
  0
VERTEX
  8
0
 10
48.8352806641758
 20
74.4121559907535
 42
0.0
  0
VERTEX
  8
0
 10
49.0567701416794
 20
74.4004542490989
 42
0.0
  0
VERTEX
  8
0
 10
49.2353985887041
 20
74.3737851634675
 42
0.0
  0
VERTEX
  8
0
 10
49.2752933637404
 20
74.3680703594037
 42
0.0
  0
VERTEX
  8
0
 10
49.489353595961
 20
74.314732188141
 42
0.0
  0
VERTEX
  8
0
 10
49.6960662229566
 20
74.2409840023645
 42
0.0
  0
VERTEX
  8
0
 10
49.895376818022
 20
74.1465536685474
 42
0.0
  0
VERTEX
  8
0
 10
50.085815860112
 20
74.0328018543239
 42
0.0
  0
VERTEX
  8
0
 10
50.2630019994443
 20
73.9010892273282
 42
0.0
  0
VERTEX
  8
0
 10
50.3515814624342
 20
73.8202655698536
 42
0.0
  0
VERTEX
  8
0
 10
50.4269080226664
 20
73.752232188141
 42
0.0
  0
VERTEX
  8
0
 10
50.5760099820278
 20
73.5897684726112
 42
0.0
  0
VERTEX
  8
0
 10
50.7058993143935
 20
73.4112488789973
 42
0.0
  0
VERTEX
  8
0
 10
50.8195967019116
 20
73.222388211363
 42
0.0
  0
VERTEX
  8
0
 10
50.9140814624341
 20
73.0229143361816
 42
0.0
  0
SEQEND
  0
POLYLINE
  8
0
 66
     1
 10
0.0
 20
0.0
 30
0.0
 70
     1
  0
VERTEX
  8
0
 10
72.4976879923238
 20
54.1402742035478
 42
0.0
  0
VERTEX
  8
0
 10
72.5198396614094
 20
54.0474766708918
 42
0.0
  0
VERTEX
  8
0
 10
72.5508628834704
 20
53.9263772514433
 42
0.0
  0
VERTEX
  8
0
 10
72.5833284132236
 20
53.7078540293824
 42
0.0
  0
VERTEX
  8
0
 10
72.5936967005966
 20
53.4879701396872
 42
0.0
  0
VERTEX
  8
0
 10
72.5833284132236
 20
53.2664534488308
 42
0.0
  0
VERTEX
  8
0
 10
72.5508628834704
 20
53.0479302267699
 42
0.0
  0
VERTEX
  8
0
 10
72.4976879923238
 20
52.8337611411385
 42
0.0
  0
VERTEX
  8
0
 10
72.4223886454442
 20
52.6269396607322
 42
0.0
  0
VERTEX
  8
0
 10
72.3279038849217
 20
52.4277379190776
 42
0.0
  0
VERTEX
  8
0
 10
72.2142064974036
 20
52.2372444502822
 42
0.0
  0
VERTEX
  8
0
 10
72.0843171650378
 20
52.0600855243025
 42
0.0
  0
VERTEX
  8
0
 10
71.9352152056765
 20
51.8965332746654
 42
0.0
  0
VERTEX
  8
0
 10
71.8879456120625
 20
51.8538083109499
 42
0.0
  0
VERTEX
  8
0
 10
71.7713091824544
 20
51.7471319684245
 42
0.0
  0
VERTEX
  8
0
 10
71.594123043122
 20
51.6159636084825
 42
0.0
  0
VERTEX
  8
0
 10
71.403684001032
 20
51.5035724618933
 42
0.0
  0
VERTEX
  8
0
 10
71.2043734059667
 20
51.4077814604419
 42
0.0
  0
VERTEX
  8
0
 10
70.9976607789711
 20
51.3340332746654
 42
0.0
  0
VERTEX
  8
0
 10
70.7836005467505
 20
51.2806951034027
 42
0.0
  0
VERTEX
  8
0
 10
70.7437057717142
 20
51.274708165812
 42
0.0
  0
VERTEX
  8
0
 10
70.5650773246895
 20
51.2483112137075
 42
0.0
  0
VERTEX
  8
0
 10
70.3435878471859
 20
51.2379701396872
 42
0.0
  0
VERTEX
  8
0
 10
70.1236223174326
 20
51.2483112137075
 42
0.0
  0
VERTEX
  8
0
 10
69.9051263087244
 20
51.2806951034027
 42
0.0
  0
VERTEX
  8
0
 10
69.6910388631511
 20
51.3340332746654
 42
0.0
  0
VERTEX
  8
0
 10
69.4828567151104
 20
51.4077814604419
 42
0.0
  0
VERTEX
  8
0
 10
69.2835189066924
 20
51.5035724618933
 42
0.0
  0
VERTEX
  8
0
 10
69.0945493856474
 20
51.6159636084825
 42
0.0
  0
VERTEX
  8
0
 10
68.9159209386227
 20
51.7471319684245
 42
0.0
  0
VERTEX
  8
0
 10
68.7992845090146
 20
51.8538083109499
 42
0.0
  0
VERTEX
  8
0
 10
68.7520421287534
 20
51.8965332746654
 42
0.0
  0
VERTEX
  8
0
 10
68.604409690437
 20
52.0600855243025
 42
0.0
  0
VERTEX
  8
0
 10
68.5497380648927
 20
52.1341058436059
 42
0.0
  0
VERTEX
  8
0
 10
68.4729964103209
 20
52.2372444502822
 42
0.0
  0
VERTEX
  8
0
 10
68.3592990228027
 20
52.4277379190776
 42
0.0
  0
VERTEX
  8
0
 10
68.2648142622802
 20
52.6269396607322
 42
0.0
  0
VERTEX
  8
0
 10
68.1909844364457
 20
52.8337611411385
 42
0.0
  0
VERTEX
  8
0
 10
68.1378367586518
 20
53.0479302267699
 42
0.0
  0
VERTEX
  8
0
 10
68.1038744945008
 20
53.2664534488308
 42
0.0
  0
VERTEX
  8
0
 10
68.0935606338332
 20
53.4879701396872
 42
0.0
  0
VERTEX
  8
0
 10
68.1038744945008
 20
53.7078540293824
 42
0.0
  0
VERTEX
  8
0
 10
68.1378367586518
 20
53.9263772514433
 42
0.0
  0
VERTEX
  8
0
 10
68.1688327673601
 20
54.0474766708918
 42
0.0
  0
VERTEX
  8
0
 10
68.1909844364457
 20
54.1402742035478
 42
0.0
  0
VERTEX
  8
0
 10
68.2648142622802
 20
54.3487284851153
 42
0.0
  0
VERTEX
  8
0
 10
68.3592990228027
 20
54.5482023602967
 42
0.0
  0
VERTEX
  8
0
 10
68.4729964103209
 20
54.737063027931
 42
0.0
  0
VERTEX
  8
0
 10
68.5497380648927
 20
54.8418344357684
 42
0.0
  0
VERTEX
  8
0
 10
68.604409690437
 20
54.9155826215449
 42
0.0
  0
VERTEX
  8
0
 10
68.7520421287534
 20
55.0780463370747
 42
0.0
  0
VERTEX
  8
0
 10
68.8273142622802
 20
55.1460797187873
 42
0.0
  0
VERTEX
  8
0
 10
68.9159209386227
 20
55.2269033762619
 42
0.0
  0
VERTEX
  8
0
 10
69.0945493856474
 20
55.3586160032575
 42
0.0
  0
VERTEX
  8
0
 10
69.2835189066924
 20
55.4723678174811
 42
0.0
  0
VERTEX
  8
0
 10
69.4828567151104
 20
55.5667981512982
 42
0.0
  0
VERTEX
  8
0
 10
69.6910388631511
 20
55.6405463370747
 42
0.0
  0
VERTEX
  8
0
 10
69.9051263087244
 20
55.6938845083374
 42
0.0
  0
VERTEX
  8
0
 10
70.1236223174326
 20
55.7262683980326
 42
0.0
  0
VERTEX
  8
0
 10
70.3435878471859
 20
55.7379701396872
 42
0.0
  0
VERTEX
  8
0
 10
70.5650773246895
 20
55.7262683980326
 42
0.0
  0
VERTEX
  8
0
 10
70.7437057717142
 20
55.6995993124012
 42
0.0
  0
VERTEX
  8
0
 10
70.7836005467505
 20
55.6938845083374
 42
0.0
  0
VERTEX
  8
0
 10
70.9976607789711
 20
55.6405463370747
 42
0.0
  0
VERTEX
  8
0
 10
71.2043734059667
 20
55.5667981512982
 42
0.0
  0
VERTEX
  8
0
 10
71.403684001032
 20
55.4723678174811
 42
0.0
  0
VERTEX
  8
0
 10
71.594123043122
 20
55.3586160032575
 42
0.0
  0
VERTEX
  8
0
 10
71.7713091824544
 20
55.2269033762619
 42
0.0
  0
VERTEX
  8
0
 10
71.8598886454442
 20
55.1460797187873
 42
0.0
  0
VERTEX
  8
0
 10
71.9352152056765
 20
55.0780463370747
 42
0.0
  0
VERTEX
  8
0
 10
72.0843171650378
 20
54.9155826215449
 42
0.0
  0
VERTEX
  8
0
 10
72.2142064974036
 20
54.737063027931
 42
0.0
  0
VERTEX
  8
0
 10
72.3279038849217
 20
54.5482023602967
 42
0.0
  0
VERTEX
  8
0
 10
72.4223886454442
 20
54.3487284851153
 42
0.0
  0
SEQEND
  0
POLYLINE
  8
0
 66
     1
 10
0.0
 20
0.0
 30
0.0
 70
     1
  0
VERTEX
  8
0
 10
9.7273976578501
 20
54.2281266870603
 42
0.0
  0
VERTEX
  8
0
 10
9.7495493269358
 20
54.1353291544043
 42
0.0
  0
VERTEX
  8
0
 10
9.7805725489967
 20
54.0142297349558
 42
0.0
  0
VERTEX
  8
0
 10
9.81303807875
 20
53.7957065128948
 42
0.0
  0
VERTEX
  8
0
 10
9.823406366123
 20
53.5758226231996
 42
0.0
  0
VERTEX
  8
0
 10
9.81303807875
 20
53.3543059323433
 42
0.0
  0
VERTEX
  8
0
 10
9.7805725489967
 20
53.1357827102824
 42
0.0
  0
VERTEX
  8
0
 10
9.7273976578501
 20
52.921613624651
 42
0.0
  0
VERTEX
  8
0
 10
9.6520983109706
 20
52.7147921442446
 42
0.0
  0
VERTEX
  8
0
 10
9.5576135504481
 20
52.5155904025901
 42
0.0
  0
VERTEX
  8
0
 10
9.4439161629299
 20
52.3250969337947
 42
0.0
  0
VERTEX
  8
0
 10
9.3140268305642
 20
52.147938007815
 42
0.0
  0
VERTEX
  8
0
 10
9.1649248712028
 20
51.9843857581779
 42
0.0
  0
VERTEX
  8
0
 10
9.1176552775889
 20
51.9416607944623
 42
0.0
  0
VERTEX
  8
0
 10
9.0010188479807
 20
51.8349844519369
 42
0.0
  0
VERTEX
  8
0
 10
8.8238327086484
 20
51.703816091995
 42
0.0
  0
VERTEX
  8
0
 10
8.6333936665584
 20
51.5914249454057
 42
0.0
  0
VERTEX
  8
0
 10
8.4340830714931
 20
51.4956339439543
 42
0.0
  0
VERTEX
  8
0
 10
8.2273704444975
 20
51.4218857581779
 42
0.0
  0
VERTEX
  8
0
 10
8.0133102122768
 20
51.3685475869152
 42
0.0
  0
VERTEX
  8
0
 10
7.9734154372405
 20
51.3625606493245
 42
0.0
  0
VERTEX
  8
0
 10
7.7947869902159
 20
51.3361636972199
 42
0.0
  0
VERTEX
  8
0
 10
7.5732975127122
 20
51.3258226231996
 42
0.0
  0
VERTEX
  8
0
 10
7.353331982959
 20
51.3361636972199
 42
0.0
  0
VERTEX
  8
0
 10
7.1348359742507
 20
51.3685475869152
 42
0.0
  0
VERTEX
  8
0
 10
6.9207485286774
 20
51.4218857581779
 42
0.0
  0
VERTEX
  8
0
 10
6.7125663806368
 20
51.4956339439543
 42
0.0
  0
VERTEX
  8
0
 10
6.5132285722188
 20
51.5914249454057
 42
0.0
  0
VERTEX
  8
0
 10
6.3242590511738
 20
51.703816091995
 42
0.0
  0
VERTEX
  8
0
 10
6.1456306041491
 20
51.8349844519369
 42
0.0
  0
VERTEX
  8
0
 10
6.028994174541
 20
51.9416607944623
 42
0.0
  0
VERTEX
  8
0
 10
5.9817517942797
 20
51.9843857581779
 42
0.0
  0
VERTEX
  8
0
 10
5.8341193559634
 20
52.147938007815
 42
0.0
  0
VERTEX
  8
0
 10
5.7794477304191
 20
52.2219583271183
 42
0.0
  0
VERTEX
  8
0
 10
5.7027060758472
 20
52.3250969337947
 42
0.0
  0
VERTEX
  8
0
 10
5.5890086883291
 20
52.5155904025901
 42
0.0
  0
VERTEX
  8
0
 10
5.4945239278066
 20
52.7147921442446
 42
0.0
  0
VERTEX
  8
0
 10
5.420694101972
 20
52.921613624651
 42
0.0
  0
VERTEX
  8
0
 10
5.3675464241781
 20
53.1357827102824
 42
0.0
  0
VERTEX
  8
0
 10
5.3335841600272
 20
53.3543059323433
 42
0.0
  0
VERTEX
  8
0
 10
5.3232702993596
 20
53.5758226231996
 42
0.0
  0
VERTEX
  8
0
 10
5.3335841600272
 20
53.7957065128948
 42
0.0
  0
VERTEX
  8
0
 10
5.3675464241781
 20
54.0142297349558
 42
0.0
  0
VERTEX
  8
0
 10
5.3985424328864
 20
54.1353291544043
 42
0.0
  0
VERTEX
  8
0
 10
5.420694101972
 20
54.2281266870603
 42
0.0
  0
VERTEX
  8
0
 10
5.4945239278066
 20
54.4365809686278
 42
0.0
  0
VERTEX
  8
0
 10
5.5890086883291
 20
54.6360548438092
 42
0.0
  0
VERTEX
  8
0
 10
5.7027060758472
 20
54.8249155114435
 42
0.0
  0
VERTEX
  8
0
 10
5.7794477304191
 20
54.9296869192809
 42
0.0
  0
VERTEX
  8
0
 10
5.8341193559634
 20
55.0034351050574
 42
0.0
  0
VERTEX
  8
0
 10
5.9817517942797
 20
55.1658988205871
 42
0.0
  0
VERTEX
  8
0
 10
6.0570239278066
 20
55.2339322022998
 42
0.0
  0
VERTEX
  8
0
 10
6.1456306041491
 20
55.3147558597744
 42
0.0
  0
VERTEX
  8
0
 10
6.3242590511738
 20
55.44646848677
 42
0.0
  0
VERTEX
  8
0
 10
6.5132285722188
 20
55.5602203009935
 42
0.0
  0
VERTEX
  8
0
 10
6.7125663806368
 20
55.6546506348107
 42
0.0
  0
VERTEX
  8
0
 10
6.9207485286774
 20
55.7283988205871
 42
0.0
  0
VERTEX
  8
0
 10
7.1348359742507
 20
55.7817369918498
 42
0.0
  0
VERTEX
  8
0
 10
7.353331982959
 20
55.8141208815451
 42
0.0
  0
VERTEX
  8
0
 10
7.5732975127122
 20
55.8258226231996
 42
0.0
  0
VERTEX
  8
0
 10
7.7947869902159
 20
55.8141208815451
 42
0.0
  0
VERTEX
  8
0
 10
7.9734154372405
 20
55.7874517959137
 42
0.0
  0
VERTEX
  8
0
 10
8.0133102122768
 20
55.7817369918498
 42
0.0
  0
VERTEX
  8
0
 10
8.2273704444975
 20
55.7283988205871
 42
0.0
  0
VERTEX
  8
0
 10
8.4340830714931
 20
55.6546506348107
 42
0.0
  0
VERTEX
  8
0
 10
8.6333936665584
 20
55.5602203009935
 42
0.0
  0
VERTEX
  8
0
 10
8.8238327086484
 20
55.44646848677
 42
0.0
  0
VERTEX
  8
0
 10
9.0010188479807
 20
55.3147558597744
 42
0.0
  0
VERTEX
  8
0
 10
9.0895983109706
 20
55.2339322022998
 42
0.0
  0
VERTEX
  8
0
 10
9.1649248712028
 20
55.1658988205871
 42
0.0
  0
VERTEX
  8
0
 10
9.3140268305642
 20
55.0034351050574
 42
0.0
  0
VERTEX
  8
0
 10
9.4439161629299
 20
54.8249155114435
 42
0.0
  0
VERTEX
  8
0
 10
9.5576135504481
 20
54.6360548438092
 42
0.0
  0
VERTEX
  8
0
 10
9.6520983109706
 20
54.4365809686278
 42
0.0
  0
SEQEND
  0
ENDSEC
  0
EOF
