  0
SECTION
  2
HEADER
  9
$ACADVER
  1
AC1009
  9
$EXTMAX
 10
170.743881225586
 20
77.9995422363281
 30
0.0
  9
$EXTMIN
 10
2.2168073654175
 20
2.2500898838043
 30
0.0
  9
$INSUNITS
 70
     4
  9
$LUNITS
 70
     2
  9
$LUPREC
 70
     4
  9
$MEASUREMENT
 70
     1
  0
ENDSEC
  0
SECTION
  2
TABLES
  0
TABLE
  2
LAYER
 70
     1
  0
LAYER
  2
0
 70
     0
 62
     7
  6
Continuous
  0
ENDTAB
  0
TABLE
  2
APPID
 70
     1
  0
APPID
  2
ACAD
 70
     0
  0
ENDTAB
  0
ENDSEC
  0
SECTION
  2
ENTITIES
  0
POLYLINE
  8
0
 66
     1
 10
0.0
 20
0.0
 30
0.0
 70
     1
  0
VERTEX
  8
0
 10
125.030232
 20
30.486
 42
0.0
  0
VERTEX
  8
0
 10
125.024644
 20
30.567534
 42
0.0
  0
VERTEX
  8
0
 10
125.008388
 20
30.636368
 42
0.0
  0
VERTEX
  8
0
 10
125.007118
 20
30.640432
 42
0.0
  0
VERTEX
  8
0
 10
125.000006
 20
30.669388
 42
0.0
  0
VERTEX
  8
0
 10
124.972574
 20
30.786482
 42
0.0
  0
VERTEX
  8
0
 10
124.962922
 20
30.827884
 42
0.0
  0
VERTEX
  8
0
 10
124.928378
 20
30.909418
 42
0.0
  0
VERTEX
  8
0
 10
124.910344
 20
30.961488
 42
0.0
  0
VERTEX
  8
0
 10
124.884182
 20
31.017876
 42
0.0
  0
VERTEX
  8
0
 10
124.861068
 20
31.074518
 42
0.0
  0
VERTEX
  8
0
 10
124.847098
 20
31.095346
 42
0.0
  0
VERTEX
  8
0
 10
124.838716
 20
31.111856
 42
0.0
  0
VERTEX
  8
0
 10
124.753372
 20
31.255112
 42
0.0
  0
VERTEX
  8
0
 10
124.72975
 20
31.286862
 42
0.0
  0
VERTEX
  8
0
 10
124.720352
 20
31.301848
 42
0.0
  0
VERTEX
  8
0
 10
124.703588
 20
31.321406
 42
0.0
  0
VERTEX
  8
0
 10
124.654312
 20
31.388716
 42
0.0
  0
VERTEX
  8
0
 10
124.541028
 20
31.512922
 42
0.0
  0
VERTEX
  8
0
 10
124.538488
 20
31.515462
 42
0.0
  0
VERTEX
  8
0
 10
124.417076
 20
31.624428
 42
0.0
  0
VERTEX
  8
0
 10
124.366022
 20
31.664306
 42
0.0
  0
VERTEX
  8
0
 10
124.33986
 20
31.68234
 42
0.0
  0
VERTEX
  8
0
 10
124.283472
 20
31.725012
 42
0.0
  0
VERTEX
  8
0
 10
124.140216
 20
31.810356
 42
0.0
  0
VERTEX
  8
0
 10
124.090432
 20
31.833978
 42
0.0
  0
VERTEX
  8
0
 10
123.989848
 20
31.881984
 42
0.0
  0
VERTEX
  8
0
 10
123.90044
 20
31.913734
 42
0.0
  0
VERTEX
  8
0
 10
123.831606
 20
31.938626
 42
0.0
  0
VERTEX
  8
0
 10
123.669046
 20
31.978504
 42
0.0
  0
VERTEX
  8
0
 10
123.558556
 20
31.995268
 42
0.0
  0
VERTEX
  8
0
 10
123.504962
 20
32.003396
 42
0.0
  0
VERTEX
  8
0
 10
123.401584
 20
32.008984
 42
0.0
  0
VERTEX
  8
0
 10
123.338084
 20
32.011778
 42
0.0
  0
VERTEX
  8
0
 10
123.17019
 20
32.003396
 42
0.0
  0
VERTEX
  8
0
 10
123.006106
 20
31.978504
 42
0.0
  0
VERTEX
  8
0
 10
122.9962
 20
31.977234
 42
0.0
  0
VERTEX
  8
0
 10
122.843546
 20
31.938626
 42
0.0
  0
VERTEX
  8
0
 10
122.75236
 20
31.905606
 42
0.0
  0
VERTEX
  8
0
 10
122.686574
 20
31.881984
 42
0.0
  0
VERTEX
  8
0
 10
122.536206
 20
31.810356
 42
0.0
  0
VERTEX
  8
0
 10
122.497344
 20
31.786988
 42
0.0
  0
VERTEX
  8
0
 10
122.406666
 20
31.733394
 42
0.0
  0
VERTEX
  8
0
 10
122.391426
 20
31.725012
 42
0.0
  0
VERTEX
  8
0
 10
122.317004
 20
31.669894
 42
0.0
  0
VERTEX
  8
0
 10
122.257822
 20
31.624428
 42
0.0
  0
VERTEX
  8
0
 10
122.133616
 20
31.512922
 42
0.0
  0
VERTEX
  8
0
 10
122.081546
 20
31.45501
 42
0.0
  0
VERTEX
  8
0
 10
122.02211
 20
31.388716
 42
0.0
  0
VERTEX
  8
0
 10
121.922796
 20
31.255112
 42
0.0
  0
VERTEX
  8
0
 10
121.913144
 20
31.239872
 42
0.0
  0
VERTEX
  8
0
 10
121.835928
 20
31.111856
 42
0.0
  0
VERTEX
  8
0
 10
121.790462
 20
31.015082
 42
0.0
  0
VERTEX
  8
0
 10
121.7643
 20
30.961488
 42
0.0
  0
VERTEX
  8
0
 10
121.707912
 20
30.803246
 42
0.0
  0
VERTEX
  8
0
 10
121.699784
 20
30.768702
 42
0.0
  0
VERTEX
  8
0
 10
121.668034
 20
30.640432
 42
0.0
  0
VERTEX
  8
0
 10
121.65
 20
30.520544
 42
0.0
  0
VERTEX
  8
0
 10
121.642888
 20
30.476602
 42
0.0
  0
VERTEX
  8
0
 10
121.637554
 20
30.344268
 42
0.0
  0
VERTEX
  8
0
 10
121.63476
 20
30.308454
 42
0.0
  0
VERTEX
  8
0
 10
121.640348
 20
30.207616
 42
0.0
  0
VERTEX
  8
0
 10
121.642888
 20
30.141576
 42
0.0
  0
VERTEX
  8
0
 10
121.663716
 20
29.998574
 42
0.0
  0
VERTEX
  8
0
 10
121.668034
 20
29.977746
 42
0.0
  0
VERTEX
  8
0
 10
121.707912
 20
29.814932
 42
0.0
  0
VERTEX
  8
0
 10
121.711976
 20
29.805534
 42
0.0
  0
VERTEX
  8
0
 10
121.7643
 20
29.65796
 42
0.0
  0
VERTEX
  8
0
 10
121.833388
 20
29.513434
 42
0.0
  0
VERTEX
  8
0
 10
121.835928
 20
29.506322
 42
0.0
  0
VERTEX
  8
0
 10
121.922796
 20
29.363066
 42
0.0
  0
VERTEX
  8
0
 10
121.95734
 20
29.314806
 42
0.0
  0
VERTEX
  8
0
 10
121.966738
 20
29.30109
 42
0.0
  0
VERTEX
  8
0
 10
121.979438
 20
29.284326
 42
0.0
  0
VERTEX
  8
0
 10
122.02211
 20
29.229462
 42
0.0
  0
VERTEX
  8
0
 10
122.133616
 20
29.105256
 42
0.0
  0
VERTEX
  8
0
 10
122.139204
 20
29.098398
 42
0.0
  0
VERTEX
  8
0
 10
122.173494
 20
29.068172
 42
0.0
  0
VERTEX
  8
0
 10
122.257822
 20
28.992226
 42
0.0
  0
VERTEX
  8
0
 10
122.292112
 20
28.967588
 42
0.0
  0
VERTEX
  8
0
 10
122.341896
 20
28.923646
 42
0.0
  0
VERTEX
  8
0
 10
122.383044
 20
28.8985
 42
0.0
  0
VERTEX
  8
0
 10
122.391426
 20
28.893166
 42
0.0
  0
VERTEX
  8
0
 10
122.449338
 20
28.858622
 42
0.0
  0
VERTEX
  8
0
 10
122.52249
 20
28.814426
 42
0.0
  0
VERTEX
  8
0
 10
122.570496
 20
28.785724
 42
0.0
  0
VERTEX
  8
0
 10
122.676668
 20
28.741528
 42
0.0
  0
VERTEX
  8
0
 10
122.686574
 20
28.736194
 42
0.0
  0
VERTEX
  8
0
 10
122.697496
 20
28.731876
 42
0.0
  0
VERTEX
  8
0
 10
122.789444
 20
28.693268
 42
0.0
  0
VERTEX
  8
0
 10
122.817384
 20
28.682346
 42
0.0
  0
VERTEX
  8
0
 10
123.077734
 20
28.620116
 42
0.0
  0
VERTEX
  8
0
 10
123.343672
 20
28.599796
 42
0.0
  0
VERTEX
  8
0
 10
123.60961
 20
28.620116
 42
0.0
  0
VERTEX
  8
0
 10
123.86996
 20
28.682346
 42
0.0
  0
VERTEX
  8
0
 10
124.116594
 20
28.785724
 42
0.0
  0
VERTEX
  8
0
 10
124.344178
 20
28.923646
 42
0.0
  0
VERTEX
  8
0
 10
124.366022
 20
28.941426
 42
0.0
  0
VERTEX
  8
0
 10
124.54814
 20
29.098398
 42
0.0
  0
VERTEX
  8
0
 10
124.720352
 20
29.30109
 42
0.0
  0
VERTEX
  8
0
 10
124.861068
 20
29.528674
 42
0.0
  0
VERTEX
  8
0
 10
124.962922
 20
29.775054
 42
0.0
  0
VERTEX
  8
0
 10
125.024644
 20
30.035404
 42
0.0
  0
VERTEX
  8
0
 10
125.045472
 20
30.301596
 42
0.0
  0
VERTEX
  8
0
 10
125.039884
 20
30.365096
 42
0.0
  0
VERTEX
  8
0
 10
125.033026
 20
30.45171
 42
0.0
  0
VERTEX
  8
0
 10
125.033026
 20
30.476602
 42
0.0
  0
SEQEND
  0
POLYLINE
  8
0
 66
     1
 10
0.0
 20
0.0
 30
0.0
 70
     1
  0
VERTEX
  8
0
 10
112.193646559348
 20
69.3731837239883
 42
0.0
  0
VERTEX
  8
0
 10
112.100849026692
 20
69.3510320549026
 42
0.0
  0
VERTEX
  8
0
 10
111.979749607244
 20
69.3200088328417
 42
0.0
  0
VERTEX
  8
0
 10
111.761226385183
 20
69.2875433030884
 42
0.0
  0
VERTEX
  8
0
 10
111.541342495488
 20
69.2771750157154
 42
0.0
  0
VERTEX
  8
0
 10
111.319825804631
 20
69.2875433030884
 42
0.0
  0
VERTEX
  8
0
 10
111.10130258257
 20
69.3200088328417
 42
0.0
  0
VERTEX
  8
0
 10
110.887133496939
 20
69.3731837239883
 42
0.0
  0
VERTEX
  8
0
 10
110.680312016533
 20
69.4484830708678
 42
0.0
  0
VERTEX
  8
0
 10
110.481110274878
 20
69.5429678313903
 42
0.0
  0
VERTEX
  8
0
 10
110.290616806083
 20
69.6566652189085
 42
0.0
  0
VERTEX
  8
0
 10
110.113457880103
 20
69.7865545512742
 42
0.0
  0
VERTEX
  8
0
 10
109.949905630466
 20
69.9356565106356
 42
0.0
  0
VERTEX
  8
0
 10
109.90718066675
 20
69.9829261042495
 42
0.0
  0
VERTEX
  8
0
 10
109.800504324225
 20
70.0995625338577
 42
0.0
  0
VERTEX
  8
0
 10
109.669335964283
 20
70.27674867319
 42
0.0
  0
VERTEX
  8
0
 10
109.556944817694
 20
70.46718771528
 42
0.0
  0
VERTEX
  8
0
 10
109.461153816242
 20
70.6664983103453
 42
0.0
  0
VERTEX
  8
0
 10
109.387405630466
 20
70.873210937341
 42
0.0
  0
VERTEX
  8
0
 10
109.334067459203
 20
71.0872711695616
 42
0.0
  0
VERTEX
  8
0
 10
109.328080521613
 20
71.1271659445979
 42
0.0
  0
VERTEX
  8
0
 10
109.301683569508
 20
71.3057943916225
 42
0.0
  0
VERTEX
  8
0
 10
109.291342495488
 20
71.5272838691262
 42
0.0
  0
VERTEX
  8
0
 10
109.301683569508
 20
71.7472493988794
 42
0.0
  0
VERTEX
  8
0
 10
109.334067459203
 20
71.9657454075877
 42
0.0
  0
VERTEX
  8
0
 10
109.387405630466
 20
72.179832853161
 42
0.0
  0
VERTEX
  8
0
 10
109.461153816242
 20
72.3880150012016
 42
0.0
  0
VERTEX
  8
0
 10
109.556944817694
 20
72.5873528096196
 42
0.0
  0
VERTEX
  8
0
 10
109.669335964283
 20
72.7763223306646
 42
0.0
  0
VERTEX
  8
0
 10
109.800504324225
 20
72.9549507776893
 42
0.0
  0
VERTEX
  8
0
 10
109.90718066675
 20
73.0715872072974
 42
0.0
  0
VERTEX
  8
0
 10
109.949905630466
 20
73.1188295875587
 42
0.0
  0
VERTEX
  8
0
 10
110.113457880103
 20
73.2664620258751
 42
0.0
  0
VERTEX
  8
0
 10
110.187478199406
 20
73.3211336514193
 42
0.0
  0
VERTEX
  8
0
 10
110.290616806083
 20
73.3978753059912
 42
0.0
  0
VERTEX
  8
0
 10
110.481110274878
 20
73.5115726935093
 42
0.0
  0
VERTEX
  8
0
 10
110.680312016533
 20
73.6060574540318
 42
0.0
  0
VERTEX
  8
0
 10
110.887133496939
 20
73.6798872798664
 42
0.0
  0
VERTEX
  8
0
 10
111.10130258257
 20
73.7330349576603
 42
0.0
  0
VERTEX
  8
0
 10
111.319825804631
 20
73.7669972218112
 42
0.0
  0
VERTEX
  8
0
 10
111.541342495488
 20
73.7773110824788
 42
0.0
  0
VERTEX
  8
0
 10
111.761226385183
 20
73.7669972218112
 42
0.0
  0
VERTEX
  8
0
 10
111.979749607244
 20
73.7330349576603
 42
0.0
  0
VERTEX
  8
0
 10
112.100849026692
 20
73.702038948952
 42
0.0
  0
VERTEX
  8
0
 10
112.193646559348
 20
73.6798872798664
 42
0.0
  0
VERTEX
  8
0
 10
112.402100840916
 20
73.6060574540318
 42
0.0
  0
VERTEX
  8
0
 10
112.601574716097
 20
73.5115726935093
 42
0.0
  0
VERTEX
  8
0
 10
112.790435383732
 20
73.3978753059912
 42
0.0
  0
VERTEX
  8
0
 10
112.895206791569
 20
73.3211336514193
 42
0.0
  0
VERTEX
  8
0
 10
112.968954977345
 20
73.2664620258751
 42
0.0
  0
VERTEX
  8
0
 10
113.131418692875
 20
73.1188295875587
 42
0.0
  0
VERTEX
  8
0
 10
113.199452074588
 20
73.0435574540318
 42
0.0
  0
VERTEX
  8
0
 10
113.280275732062
 20
72.9549507776893
 42
0.0
  0
VERTEX
  8
0
 10
113.411988359058
 20
72.7763223306646
 42
0.0
  0
VERTEX
  8
0
 10
113.525740173282
 20
72.5873528096196
 42
0.0
  0
VERTEX
  8
0
 10
113.620170507099
 20
72.3880150012016
 42
0.0
  0
VERTEX
  8
0
 10
113.693918692875
 20
72.179832853161
 42
0.0
  0
VERTEX
  8
0
 10
113.747256864138
 20
71.9657454075877
 42
0.0
  0
VERTEX
  8
0
 10
113.779640753833
 20
71.7472493988794
 42
0.0
  0
VERTEX
  8
0
 10
113.791342495488
 20
71.5272838691262
 42
0.0
  0
VERTEX
  8
0
 10
113.779640753833
 20
71.3057943916225
 42
0.0
  0
VERTEX
  8
0
 10
113.752971668202
 20
71.1271659445979
 42
0.0
  0
VERTEX
  8
0
 10
113.747256864138
 20
71.0872711695616
 42
0.0
  0
VERTEX
  8
0
 10
113.693918692875
 20
70.873210937341
 42
0.0
  0
VERTEX
  8
0
 10
113.620170507099
 20
70.6664983103453
 42
0.0
  0
VERTEX
  8
0
 10
113.525740173282
 20
70.46718771528
 42
0.0
  0
VERTEX
  8
0
 10
113.411988359058
 20
70.27674867319
 42
0.0
  0
VERTEX
  8
0
 10
113.280275732062
 20
70.0995625338577
 42
0.0
  0
VERTEX
  8
0
 10
113.199452074588
 20
70.0109830708678
 42
0.0
  0
VERTEX
  8
0
 10
113.131418692875
 20
69.9356565106356
 42
0.0
  0
VERTEX
  8
0
 10
112.968954977345
 20
69.7865545512742
 42
0.0
  0
VERTEX
  8
0
 10
112.790435383732
 20
69.6566652189085
 42
0.0
  0
VERTEX
  8
0
 10
112.601574716097
 20
69.5429678313903
 42
0.0
  0
VERTEX
  8
0
 10
112.402100840916
 20
69.4484830708678
 42
0.0
  0
SEQEND
  0
POLYLINE
  8
0
 66
     1
 10
0.0
 20
0.0
 30
0.0
 70
     1
  0
VERTEX
  8
0
 10
124.363228
 20
48.621092
 42
0.0
  0
VERTEX
  8
0
 10
124.366022
 20
48.622616
 42
0.0
  0
VERTEX
  8
0
 10
124.417076
 20
48.661224
 42
0.0
  0
VERTEX
  8
0
 10
124.5329
 20
48.764348
 42
0.0
  0
VERTEX
  8
0
 10
124.541028
 20
48.77273
 42
0.0
  0
VERTEX
  8
0
 10
124.654312
 20
48.896682
 42
0.0
  0
VERTEX
  8
0
 10
124.712224
 20
48.975422
 42
0.0
  0
VERTEX
  8
0
 10
124.753372
 20
49.03054
 42
0.0
  0
VERTEX
  8
0
 10
124.833128
 20
49.164144
 42
0.0
  0
VERTEX
  8
0
 10
124.838716
 20
49.175066
 42
0.0
  0
VERTEX
  8
0
 10
124.910344
 20
49.326704
 42
0.0
  0
VERTEX
  8
0
 10
124.966732
 20
49.482406
 42
0.0
  0
VERTEX
  8
0
 10
124.969526
 20
49.494852
 42
0.0
  0
VERTEX
  8
0
 10
125.007118
 20
49.644966
 42
0.0
  0
VERTEX
  8
0
 10
125.024644
 20
49.755202
 42
0.0
  0
VERTEX
  8
0
 10
125.033026
 20
49.81032
 42
0.0
  0
VERTEX
  8
0
 10
125.039884
 20
49.977198
 42
0.0
  0
VERTEX
  8
0
 10
125.037344
 20
50.044762
 42
0.0
  0
VERTEX
  8
0
 10
125.033026
 20
50.143822
 42
0.0
  0
VERTEX
  8
0
 10
125.007118
 20
50.309176
 42
0.0
  0
VERTEX
  8
0
 10
125.005594
 20
50.317558
 42
0.0
  0
VERTEX
  8
0
 10
124.979432
 20
50.419412
 42
0.0
  0
VERTEX
  8
0
 10
124.966732
 20
50.471736
 42
0.0
  0
VERTEX
  8
0
 10
124.910344
 20
50.628962
 42
0.0
  0
VERTEX
  8
0
 10
124.882912
 20
50.688144
 42
0.0
  0
VERTEX
  8
0
 10
124.838716
 20
50.7806
 42
0.0
  0
VERTEX
  8
0
 10
124.811284
 20
50.826066
 42
0.0
  0
VERTEX
  8
0
 10
124.753372
 20
50.922586
 42
0.0
  0
VERTEX
  8
0
 10
124.654312
 20
51.05746
 42
0.0
  0
VERTEX
  8
0
 10
124.59894
 20
51.116642
 42
0.0
  0
VERTEX
  8
0
 10
124.541028
 20
51.181412
 42
0.0
  0
VERTEX
  8
0
 10
124.417076
 20
51.293172
 42
0.0
  0
VERTEX
  8
0
 10
124.366022
 20
51.33178
 42
0.0
  0
VERTEX
  8
0
 10
124.283472
 20
51.392486
 42
0.0
  0
VERTEX
  8
0
 10
124.25604
 20
51.410266
 42
0.0
  0
VERTEX
  8
0
 10
124.186952
 20
51.451668
 42
0.0
  0
VERTEX
  8
0
 10
124.140216
 20
51.4791
 42
0.0
  0
VERTEX
  8
0
 10
123.989848
 20
51.549458
 42
0.0
  0
VERTEX
  8
0
 10
123.831606
 20
51.60737
 42
0.0
  0
VERTEX
  8
0
 10
123.776234
 20
51.621086
 42
0.0
  0
VERTEX
  8
0
 10
123.669046
 20
51.647248
 42
0.0
  0
VERTEX
  8
0
 10
123.515884
 20
51.670616
 42
0.0
  0
VERTEX
  8
0
 10
123.504962
 20
51.67214
 42
0.0
  0
VERTEX
  8
0
 10
123.395996
 20
51.677728
 42
0.0
  0
VERTEX
  8
0
 10
123.338084
 20
51.680522
 42
0.0
  0
VERTEX
  8
0
 10
123.17019
 20
51.67214
 42
0.0
  0
VERTEX
  8
0
 10
123.006106
 20
51.647248
 42
0.0
  0
VERTEX
  8
0
 10
123.001788
 20
51.645978
 42
0.0
  0
VERTEX
  8
0
 10
122.858532
 20
51.610164
 42
0.0
  0
VERTEX
  8
0
 10
122.843546
 20
51.60737
 42
0.0
  0
VERTEX
  8
0
 10
122.686574
 20
51.549458
 42
0.0
  0
VERTEX
  8
0
 10
122.536206
 20
51.4791
 42
0.0
  0
VERTEX
  8
0
 10
122.5263
 20
51.473766
 42
0.0
  0
VERTEX
  8
0
 10
122.391426
 20
51.392486
 42
0.0
  0
VERTEX
  8
0
 10
122.327926
 20
51.345496
 42
0.0
  0
VERTEX
  8
0
 10
122.317004
 20
51.337368
 42
0.0
  0
VERTEX
  8
0
 10
122.257822
 20
51.293172
 42
0.0
  0
VERTEX
  8
0
 10
122.133616
 20
51.181412
 42
0.0
  0
VERTEX
  8
0
 10
122.125488
 20
51.173284
 42
0.0
  0
VERTEX
  8
0
 10
122.113296
 20
51.158044
 42
0.0
  0
VERTEX
  8
0
 10
122.02211
 20
51.05746
 42
0.0
  0
VERTEX
  8
0
 10
121.987566
 20
51.011994
 42
0.0
  0
VERTEX
  8
0
 10
121.951752
 20
50.969322
 42
0.0
  0
VERTEX
  8
0
 10
121.929654
 20
50.932238
 42
0.0
  0
VERTEX
  8
0
 10
121.922796
 20
50.922586
 42
0.0
  0
VERTEX
  8
0
 10
121.867678
 20
50.832924
 42
0.0
  0
VERTEX
  8
0
 10
121.838722
 20
50.784664
 42
0.0
  0
VERTEX
  8
0
 10
121.81256
 20
50.741992
 42
0.0
  0
VERTEX
  8
0
 10
121.790462
 20
50.688144
 42
0.0
  0
VERTEX
  8
0
 10
121.774206
 20
50.649536
 42
0.0
  0
VERTEX
  8
0
 10
121.7643
 20
50.628962
 42
0.0
  0
VERTEX
  8
0
 10
121.756172
 20
50.605594
 42
0.0
  0
VERTEX
  8
0
 10
121.720104
 20
50.518726
 42
0.0
  0
VERTEX
  8
0
 10
121.710706
 20
50.495358
 42
0.0
  0
VERTEX
  8
0
 10
121.647206
 20
50.234754
 42
0.0
  0
VERTEX
  8
0
 10
121.626632
 20
49.968816
 42
0.0
  0
VERTEX
  8
0
 10
121.647206
 20
49.702878
 42
0.0
  0
VERTEX
  8
0
 10
121.710706
 20
49.443798
 42
0.0
  0
VERTEX
  8
0
 10
121.81256
 20
49.197164
 42
0.0
  0
VERTEX
  8
0
 10
121.951752
 20
48.96831
 42
0.0
  0
VERTEX
  8
0
 10
122.125488
 20
48.765872
 42
0.0
  0
VERTEX
  8
0
 10
122.317004
 20
48.601788
 42
0.0
  0
VERTEX
  8
0
 10
122.327926
 20
48.59366
 42
0.0
  0
VERTEX
  8
0
 10
122.555256
 20
48.454468
 42
0.0
  0
VERTEX
  8
0
 10
122.556526
 20
48.452944
 42
0.0
  0
VERTEX
  8
0
 10
122.803668
 20
48.35109
 42
0.0
  0
VERTEX
  8
0
 10
123.064018
 20
48.289114
 42
0.0
  0
VERTEX
  8
0
 10
123.329956
 20
48.268286
 42
0.0
  0
VERTEX
  8
0
 10
123.595894
 20
48.289114
 42
0.0
  0
VERTEX
  8
0
 10
123.854974
 20
48.35109
 42
0.0
  0
VERTEX
  8
0
 10
123.950224
 20
48.389698
 42
0.0
  0
VERTEX
  8
0
 10
123.989848
 20
48.403414
 42
0.0
  0
VERTEX
  8
0
 10
124.025662
 20
48.421448
 42
0.0
  0
VERTEX
  8
0
 10
124.101354
 20
48.452944
 42
0.0
  0
VERTEX
  8
0
 10
124.102878
 20
48.452944
 42
0.0
  0
VERTEX
  8
0
 10
124.104402
 20
48.454468
 42
0.0
  0
VERTEX
  8
0
 10
124.1138
 20
48.459802
 42
0.0
  0
VERTEX
  8
0
 10
124.137422
 20
48.475042
 42
0.0
  0
VERTEX
  8
0
 10
124.140216
 20
48.476566
 42
0.0
  0
VERTEX
  8
0
 10
124.283472
 20
48.56191
 42
0.0
  0
VERTEX
  8
0
 10
124.299982
 20
48.574356
 42
0.0
  0
VERTEX
  8
0
 10
124.330462
 20
48.59366
 42
0.0
  0
SEQEND
  0
POLYLINE
  8
0
 66
     1
 10
0.0
 20
0.0
 30
0.0
 70
     1
  0
VERTEX
  8
0
 10
153.584404
 20
22.202806
 42
0.0
  0
VERTEX
  8
0
 10
126.170184
 20
22.202806
 42
0.0
  0
VERTEX
  8
0
 10
126.170184
 20
22.160134
 42
0.0
  0
VERTEX
  8
0
 10
125.000156481557
 20
22.0816297477264
 42
0.0
  0
VERTEX
  8
0
 10
123.414398019113
 20
21.6650388124565
 42
0.0
  0
VERTEX
  8
0
 10
121.443256153242
 20
20.6131090924449
 42
0.0
  0
VERTEX
  8
0
 10
119.637406258897
 20
19.1260155642181
 42
0.0
  0
VERTEX
  8
0
 10
118.572992792686
 20
17.6904071407886
 42
0.0
  0
VERTEX
  8
0
 10
117.946751866095
 20
16.3797621033101
 42
0.0
  0
VERTEX
  8
0
 10
117.466506686099
 20
14.8611689639464
 42
0.0
  0
VERTEX
  8
0
 10
117.299276451436
 20
13.571493963379
 42
0.0
  0
VERTEX
  8
0
 10
117.298905851764
 20
12.0738785801652
 42
0.0
  0
VERTEX
  8
0
 10
117.404405265423
 20
11.2634667443306
 42
0.0
  0
VERTEX
  8
0
 10
117.628926
 20
10.33491
 42
0.0
  0
VERTEX
  8
0
 10
117.757196
 20
9.727596
 42
0.0
  0
VERTEX
  8
0
 10
117.992654
 20
8.6166
 42
0.0
  0
VERTEX
  8
0
 10
118.156738
 20
7.074566
 42
0.0
  0
VERTEX
  8
0
 10
118.1194
 20
5.725572
 42
0.0
  0
VERTEX
  8
0
 10
117.880894
 20
4.583334
 42
0.0
  0
VERTEX
  8
0
 10
117.445538
 20
3.655726
 42
0.0
  0
VERTEX
  8
0
 10
116.815872
 20
2.954178
 42
0.0
  0
VERTEX
  8
0
 10
116.17376
 20
2.585116
 42
0.0
  0
VERTEX
  8
0
 10
115.9985
 20
2.484278
 42
0.0
  0
VERTEX
  8
0
 10
115.000788
 20
2.25009
 42
0.0
  0
VERTEX
  8
0
 10
113.832388
 20
2.255678
 42
0.0
  0
VERTEX
  8
0
 10
112.505238
 20
2.499518
 42
0.0
  0
VERTEX
  8
0
 10
112.07674
 20
2.640234
 42
0.0
  0
VERTEX
  8
0
 10
111.032038
 20
2.980594
 42
0.0
  0
VERTEX
  8
0
 10
109.427012
 20
3.69154
 42
0.0
  0
VERTEX
  8
0
 10
107.981244
 20
4.478432
 42
0.0
  0
VERTEX
  8
0
 10
107.704384
 20
4.6288
 42
0.0
  0
VERTEX
  8
0
 10
105.881172
 20
5.78196
 42
0.0
  0
VERTEX
  8
0
 10
103.976426
 20
7.13959
 42
0.0
  0
VERTEX
  8
0
 10
102.007418
 20
8.689752
 42
0.0
  0
VERTEX
  8
0
 10
100.796346
 20
9.727596
 42
0.0
  0
VERTEX
  8
0
 10
99.99269
 20
10.416444
 42
0.0
  0
VERTEX
  8
0
 10
99.788728
 20
10.603896
 42
0.0
  0
VERTEX
  8
0
 10
97.9518
 20
12.301632
 42
0.0
  0
VERTEX
  8
0
 10
95.905322
 20
14.330076
 42
0.0
  0
VERTEX
  8
0
 10
94.393768
 20
15.928498
 42
0.0
  0
VERTEX
  8
0
 10
93.898976
 20
16.387476
 42
0.0
  0
VERTEX
  8
0
 10
93.6084
 20
16.608202
 42
0.0
  0
VERTEX
  8
0
 10
92.968828
 20
17.093088
 42
0.0
  0
VERTEX
  8
0
 10
91.944954
 20
17.732406
 42
0.0
  0
VERTEX
  8
0
 10
91.59799
 20
17.910206
 42
0.0
  0
VERTEX
  8
0
 10
90.833196
 20
18.301366
 42
0.0
  0
VERTEX
  8
0
 10
89.644984
 20
18.790824
 42
0.0
  0
VERTEX
  8
0
 10
88.393526
 20
19.198494
 42
0.0
  0
VERTEX
  8
0
 10
87.088728
 20
19.518534
 42
0.0
  0
VERTEX
  8
0
 10
85.746846
 20
19.751198
 42
0.0
  0
VERTEX
  8
0
 10
84.377024
 20
19.89039
 42
0.0
  0
VERTEX
  8
0
 10
82.994756
 20
19.937126
 42
0.0
  0
VERTEX
  8
0
 10
81.611218
 20
19.89039
 42
0.0
  0
VERTEX
  8
0
 10
80.241396
 20
19.751198
 42
0.0
  0
VERTEX
  8
0
 10
78.899006
 20
19.518534
 42
0.0
  0
VERTEX
  8
0
 10
77.595478
 20
19.198494
 42
0.0
  0
VERTEX
  8
0
 10
76.34275
 20
18.790824
 42
0.0
  0
VERTEX
  8
0
 10
75.212704
 20
18.324988
 42
0.0
  0
VERTEX
  8
0
 10
75.156316
 20
18.301366
 42
0.0
  0
VERTEX
  8
0
 10
74.410826
 20
17.919604
 42
0.0
  0
VERTEX
  8
0
 10
74.044304
 20
17.732406
 42
0.0
  0
VERTEX
  8
0
 10
73.92975
 20
17.660778
 42
0.0
  0
VERTEX
  8
0
 10
73.018906
 20
17.093088
 42
0.0
  0
VERTEX
  8
0
 10
72.783194
 20
16.915288
 42
0.0
  0
VERTEX
  8
0
 10
72.201788
 20
16.474344
 42
0.0
  0
VERTEX
  8
0
 10
70.174868
 20
14.330076
 42
0.0
  0
VERTEX
  8
0
 10
68.12839
 20
12.301632
 42
0.0
  0
VERTEX
  8
0
 10
67.021712
 20
11.277504
 42
0.0
  0
VERTEX
  8
0
 10
66.089024
 20
10.416444
 42
0.0
  0
VERTEX
  8
0
 10
65.285622
 20
9.727596
 42
0.0
  0
VERTEX
  8
0
 10
64.072772
 20
8.689752
 42
0.0
  0
VERTEX
  8
0
 10
62.105034
 20
7.13959
 42
0.0
  0
VERTEX
  8
0
 10
60.199272
 20
5.78196
 42
0.0
  0
VERTEX
  8
0
 10
58.82945
 20
4.915312
 42
0.0
  0
VERTEX
  8
0
 10
58.37606
 20
4.6288
 42
0.0
  0
VERTEX
  8
0
 10
56.654956
 20
3.69154
 42
0.0
  0
VERTEX
  8
0
 10
55.048152
 20
2.980594
 42
0.0
  0
VERTEX
  8
0
 10
54.7337
 20
2.877216
 42
0.0
  0
VERTEX
  8
0
 10
53.574952
 20
2.499518
 42
0.0
  0
VERTEX
  8
0
 10
52.248056
 20
2.255678
 42
0.0
  0
VERTEX
  8
0
 10
51.079402
 20
2.25009
 42
0.0
  0
VERTEX
  8
0
 10
50.636934
 20
2.353468
 42
0.0
  0
VERTEX
  8
0
 10
50.08296
 20
2.484278
 42
0.0
  0
VERTEX
  8
0
 10
49.264572
 20
2.954178
 42
0.0
  0
VERTEX
  8
0
 10
48.634398
 20
3.655726
 42
0.0
  0
VERTEX
  8
0
 10
48.199296
 20
4.583334
 42
0.0
  0
VERTEX
  8
0
 10
47.96079
 20
5.725572
 42
0.0
  0
VERTEX
  8
0
 10
47.924976
 20
7.074566
 42
0.0
  0
VERTEX
  8
0
 10
48.08779
 20
8.6166
 42
0.0
  0
VERTEX
  8
0
 10
48.321978
 20
9.727596
 42
0.0
  0
VERTEX
  8
0
 10
48.6156847666964
 20
11.0822060874969
 42
0.0
  0
VERTEX
  8
0
 10
48.7871199311396
 20
12.4914325389048
 42
0.0
  0
VERTEX
  8
0
 10
48.6124574536673
 20
14.6455263101257
 42
0.0
  0
VERTEX
  8
0
 10
47.9364364766992
 20
16.6912927490609
 42
0.0
  0
VERTEX
  8
0
 10
47.9364364766992
 20
16.6912927490609
 42
0.0
  0
VERTEX
  8
0
 10
47.9364364766992
 20
16.6912927490609
 42
0.0
  0
VERTEX
  8
0
 10
46.6209422307216
 20
18.9294291245308
 42
0.0
  0
VERTEX
  8
0
 10
45.1295117666991
 20
20.3245788523134
 42
0.0
  0
VERTEX
  8
0
 10
43.4773322659863
 20
21.3307031062945
 42
0.0
  0
VERTEX
  8
0
 10
42.3758264204658
 20
21.7879026287562
 42
0.0
  0
VERTEX
  8
0
 10
40.529004
 20
22.160134
 42
0.0
  0
VERTEX
  8
0
 10
6.6168798
 20
22.160134
 42
0.0
  0
VERTEX
  8
0
 10
4.6848796
 20
26.112374
 42
0.0
  0
VERTEX
  8
0
 10
3.6596086
 20
28.209398
 42
0.0
  0
VERTEX
  8
0
 10
3.53972568
 20
28.453746
 42
0.0
  0
VERTEX
  8
0
 10
2.21680732
 20
31.160116
 42
0.0
  0
VERTEX
  8
0
 10
2.21680732
 20
49.089722
 42
0.0
  0
VERTEX
  8
0
 10
3.52869954
 20
51.771454
 42
0.0
  0
VERTEX
  8
0
 10
6.4391306
 20
57.7230804
 42
0.0
  0
VERTEX
  8
0
 10
6.6168798
 20
58.0896532
 42
0.0
  0
VERTEX
  8
0
 10
40.529004
 20
58.0896532
 42
0.0
  0
VERTEX
  8
0
 10
42.5614783865131
 20
58.5452691840964
 42
0.0
  0
VERTEX
  8
0
 10
44.8757740360131
 20
59.7374133516445
 42
0.0
  0
VERTEX
  8
0
 10
46.8298422410303
 20
61.5345228692471
 42
0.0
  0
VERTEX
  8
0
 10
47.9493995541699
 20
63.5204169548448
 42
0.0
  0
VERTEX
  8
0
 10
48.6327201633573
 20
65.5439683054285
 42
0.0
  0
VERTEX
  8
0
 10
48.6327201633573
 20
65.5439683054285
 42
0.0
  0
VERTEX
  8
0
 10
48.6327201633573
 20
65.5439683054285
 42
0.0
  0
VERTEX
  8
0
 10
48.7822414784378
 20
66.7212434087915
 42
0.0
  0
VERTEX
  8
0
 10
48.7825972599754
 20
68.1589778264528
 42
0.0
  0
VERTEX
  8
0
 10
48.449994
 20
69.9145978
 42
0.0
  0
VERTEX
  8
0
 10
48.08779
 20
71.6330094
 42
0.0
  0
VERTEX
  8
0
 10
47.924976
 20
73.1750434
 42
0.0
  0
VERTEX
  8
0
 10
47.96079
 20
74.524139
 42
0.0
  0
VERTEX
  8
0
 10
48.115222
 20
75.2641426
 42
0.0
  0
VERTEX
  8
0
 10
48.199296
 20
75.6665294
 42
0.0
  0
VERTEX
  8
0
 10
48.634398
 20
76.5939469
 42
0.0
  0
VERTEX
  8
0
 10
49.264572
 20
77.2953679
 42
0.0
  0
VERTEX
  8
0
 10
50.08296
 20
77.76665728
 42
0.0
  0
VERTEX
  8
0
 10
51.079402
 20
77.99954226
 42
0.0
  0
VERTEX
  8
0
 10
52.248056
 20
77.99540968
 42
0.0
  0
VERTEX
  8
0
 10
53.574952
 20
77.75011934
 42
0.0
  0
VERTEX
  8
0
 10
55.048152
 20
77.27056226
 42
0.0
  0
VERTEX
  8
0
 10
56.654956
 20
76.55811512
 42
0.0
  0
VERTEX
  8
0
 10
58.37606
 20
75.621038
 42
0.0
  0
VERTEX
  8
0
 10
58.82945
 20
75.3344244
 42
0.0
  0
VERTEX
  8
0
 10
58.940956
 20
75.2641426
 42
0.0
  0
VERTEX
  8
0
 10
60.199272
 20
74.467624
 42
0.0
  0
VERTEX
  8
0
 10
62.105034
 20
73.1102734
 42
0.0
  0
VERTEX
  8
0
 10
64.072772
 20
71.5599844
 42
0.0
  0
VERTEX
  8
0
 10
66.089024
 20
69.834664
 42
0.0
  0
VERTEX
  8
0
 10
68.12839
 20
67.9481298
 42
0.0
  0
VERTEX
  8
0
 10
70.174868
 20
65.9196604
 42
0.0
  0
VERTEX
  8
0
 10
72.201788
 20
63.7754178
 42
0.0
  0
VERTEX
  8
0
 10
73.018906
 20
63.1553022
 42
0.0
  0
VERTEX
  8
0
 10
74.044304
 20
62.5158826
 42
0.0
  0
VERTEX
  8
0
 10
75.156316
 20
61.9481672
 42
0.0
  0
VERTEX
  8
0
 10
75.212704
 20
61.9247484
 42
0.0
  0
VERTEX
  8
0
 10
76.34275
 20
61.4575662
 42
0.0
  0
VERTEX
  8
0
 10
77.595478
 20
61.0510646
 42
0.0
  0
VERTEX
  8
0
 10
78.899006
 20
60.7299578
 42
0.0
  0
VERTEX
  8
0
 10
80.241396
 20
60.4984622
 42
0.0
  0
VERTEX
  8
0
 10
81.611218
 20
60.3578732
 42
0.0
  0
VERTEX
  8
0
 10
82.994756
 20
60.3124072
 42
0.0
  0
VERTEX
  8
0
 10
84.377024
 20
60.3578732
 42
0.0
  0
VERTEX
  8
0
 10
85.746846
 20
60.4984622
 42
0.0
  0
VERTEX
  8
0
 10
87.088728
 20
60.7299578
 42
0.0
  0
VERTEX
  8
0
 10
88.393526
 20
61.0510646
 42
0.0
  0
VERTEX
  8
0
 10
89.644984
 20
61.4575662
 42
0.0
  0
VERTEX
  8
0
 10
90.833196
 20
61.9481672
 42
0.0
  0
VERTEX
  8
0
 10
91.59799
 20
62.3381334
 42
0.0
  0
VERTEX
  8
0
 10
91.944954
 20
62.5158826
 42
0.0
  0
VERTEX
  8
0
 10
92.968828
 20
63.1553022
 42
0.0
  0
VERTEX
  8
0
 10
93.6084
 20
63.6417376
 42
0.0
  0
VERTEX
  8
0
 10
93.898976
 20
63.862235
 42
0.0
  0
VERTEX
  8
0
 10
94.393768
 20
64.3211368
 42
0.0
  0
VERTEX
  8
0
 10
95.905322
 20
65.9196604
 42
0.0
  0
VERTEX
  8
0
 10
97.9518
 20
67.9481298
 42
0.0
  0
VERTEX
  8
0
 10
99.99269
 20
69.834664
 42
0.0
  0
VERTEX
  8
0
 10
102.007418
 20
71.5599844
 42
0.0
  0
VERTEX
  8
0
 10
103.976426
 20
73.1102734
 42
0.0
  0
VERTEX
  8
0
 10
105.881172
 20
74.467624
 42
0.0
  0
VERTEX
  8
0
 10
107.140504
 20
75.2641426
 42
0.0
  0
VERTEX
  8
0
 10
107.704384
 20
75.621038
 42
0.0
  0
VERTEX
  8
0
 10
109.427012
 20
76.55811512
 42
0.0
  0
VERTEX
  8
0
 10
111.032038
 20
77.27056226
 42
0.0
  0
VERTEX
  8
0
 10
112.505238
 20
77.75011934
 42
0.0
  0
VERTEX
  8
0
 10
113.832388
 20
77.99540968
 42
0.0
  0
VERTEX
  8
0
 10
115.000788
 20
77.99954226
 42
0.0
  0
VERTEX
  8
0
 10
115.9985
 20
77.76665728
 42
0.0
  0
VERTEX
  8
0
 10
116.815872
 20
77.2953679
 42
0.0
  0
VERTEX
  8
0
 10
117.445538
 20
76.5939469
 42
0.0
  0
VERTEX
  8
0
 10
117.880894
 20
75.6665294
 42
0.0
  0
VERTEX
  8
0
 10
117.965222
 20
75.2641426
 42
0.0
  0
VERTEX
  8
0
 10
118.1194
 20
74.524139
 42
0.0
  0
VERTEX
  8
0
 10
118.156738
 20
73.1750434
 42
0.0
  0
VERTEX
  8
0
 10
117.992654
 20
71.6330094
 42
0.0
  0
VERTEX
  8
0
 10
117.628926
 20
69.9145978
 42
0.0
  0
VERTEX
  8
0
 10
117.359770247801
 20
68.69878595851
 42
0.0
  0
VERTEX
  8
0
 10
117.281501487167
 20
67.068575074859
 42
0.0
  0
VERTEX
  8
0
 10
117.475766275068
 20
65.4578719510853
 42
0.0
  0
VERTEX
  8
0
 10
118.004096878538
 20
63.740485852592
 42
0.0
  0
VERTEX
  8
0
 10
118.004096878538
 20
63.740485852592
 42
0.0
  0
VERTEX
  8
0
 10
119.043921094444
 20
61.9223950899662
 42
0.0
  0
VERTEX
  8
0
 10
120.197874526531
 20
60.6157927810548
 42
0.0
  0
VERTEX
  8
0
 10
121.380409481381
 20
59.635958359151
 42
0.0
  0
VERTEX
  8
0
 10
123.246963874446
 20
58.6705838510003
 42
0.0
  0
VERTEX
  8
0
 10
124.885643038019
 20
58.2307781011424
 42
0.0
  0
VERTEX
  8
0
 10
126.260862
 20
58.0896532
 42
0.0
  0
VERTEX
  8
0
 10
126.260862
 20
58.0634404
 42
0.0
  0
VERTEX
  8
0
 10
153.603962
 20
58.0634404
 42
0.0
  0
VERTEX
  8
0
 10
155.259026
 20
54.7837416
 42
0.0
  0
VERTEX
  8
0
 10
155.964638
 20
53.386386
 42
0.0
  0
VERTEX
  8
0
 10
156.23464
 20
52.850446
 42
0.0
  0
VERTEX
  8
0
 10
168.906954
 20
52.850446
 42
0.0
  0
VERTEX
  8
0
 10
169.434766
 20
51.771454
 42
0.0
  0
VERTEX
  8
0
 10
169.965372
 20
50.688144
 42
0.0
  0
VERTEX
  8
0
 10
170.743882
 20
49.093786
 42
0.0
  0
VERTEX
  8
0
 10
170.743882
 20
31.163926
 42
0.0
  0
VERTEX
  8
0
 10
169.419526
 20
28.453746
 42
0.0
  0
VERTEX
  8
0
 10
169.299638
 20
28.209398
 42
0.0
  0
VERTEX
  8
0
 10
168.834056
 20
27.255882
 42
0.0
  0
VERTEX
  8
0
 10
159.5087
 20
27.255882
 42
0.0
  0
VERTEX
  8
0
 10
159.507684
 20
27.251818
 42
0.0
  0
VERTEX
  8
0
 10
156.132532
 20
27.251818
 42
0.0
  0
VERTEX
  8
0
 10
155.55646
 20
26.112374
 42
0.0
  0
SEQEND
  0
POLYLINE
  8
0
 66
     1
 10
0.0
 20
0.0
 30
0.0
 70
     1
  0
VERTEX
  8
0
 10
114.685574
 20
23.56704
 42
0.0
  0
VERTEX
  8
0
 10
114.931954
 20
23.668894
 42
0.0
  0
VERTEX
  8
0
 10
115.159538
 20
23.80961
 42
0.0
  0
VERTEX
  8
0
 10
115.361976
 20
23.981822
 42
0.0
  0
VERTEX
  8
0
 10
115.536982
 20
24.18426
 42
0.0
  0
VERTEX
  8
0
 10
115.674904
 20
24.413368
 42
0.0
  0
VERTEX
  8
0
 10
115.778028
 20
24.659748
 42
0.0
  0
VERTEX
  8
0
 10
115.840004
 20
24.920352
 42
0.0
  0
VERTEX
  8
0
 10
115.860832
 20
25.18629
 42
0.0
  0
VERTEX
  8
0
 10
115.840004
 20
25.452228
 42
0.0
  0
VERTEX
  8
0
 10
115.778028
 20
25.712578
 42
0.0
  0
VERTEX
  8
0
 10
115.674904
 20
25.959212
 42
0.0
  0
VERTEX
  8
0
 10
115.582448
 20
26.112374
 42
0.0
  0
VERTEX
  8
0
 10
115.536982
 20
26.186796
 42
0.0
  0
VERTEX
  8
0
 10
115.361976
 20
26.390504
 42
0.0
  0
VERTEX
  8
0
 10
115.159538
 20
26.562716
 42
0.0
  0
VERTEX
  8
0
 10
114.931954
 20
26.703432
 42
0.0
  0
VERTEX
  8
0
 10
114.685574
 20
26.80554
 42
0.0
  0
VERTEX
  8
0
 10
114.425224
 20
26.867516
 42
0.0
  0
VERTEX
  8
0
 10
114.159032
 20
26.88936
 42
0.0
  0
VERTEX
  8
0
 10
113.893094
 20
26.867516
 42
0.0
  0
VERTEX
  8
0
 10
113.63249
 20
26.80554
 42
0.0
  0
VERTEX
  8
0
 10
113.385856
 20
26.703432
 42
0.0
  0
VERTEX
  8
0
 10
113.158526
 20
26.562716
 42
0.0
  0
VERTEX
  8
0
 10
112.955834
 20
26.390504
 42
0.0
  0
VERTEX
  8
0
 10
112.780828
 20
26.186796
 42
0.0
  0
VERTEX
  8
0
 10
112.735362
 20
26.112374
 42
0.0
  0
VERTEX
  8
0
 10
112.64189
 20
25.959212
 42
0.0
  0
VERTEX
  8
0
 10
112.539782
 20
25.712578
 42
0.0
  0
VERTEX
  8
0
 10
112.477806
 20
25.452228
 42
0.0
  0
VERTEX
  8
0
 10
112.456978
 20
25.18629
 42
0.0
  0
VERTEX
  8
0
 10
112.477806
 20
24.920352
 42
0.0
  0
VERTEX
  8
0
 10
112.539782
 20
24.659748
 42
0.0
  0
VERTEX
  8
0
 10
112.64189
 20
24.413368
 42
0.0
  0
VERTEX
  8
0
 10
112.780828
 20
24.18426
 42
0.0
  0
VERTEX
  8
0
 10
112.955834
 20
23.981822
 42
0.0
  0
VERTEX
  8
0
 10
113.158526
 20
23.80961
 42
0.0
  0
VERTEX
  8
0
 10
113.385856
 20
23.668894
 42
0.0
  0
VERTEX
  8
0
 10
113.63249
 20
23.56704
 42
0.0
  0
VERTEX
  8
0
 10
113.893094
 20
23.50354
 42
0.0
  0
VERTEX
  8
0
 10
114.126012
 20
23.487284
 42
0.0
  0
VERTEX
  8
0
 10
114.159032
 20
23.48449
 42
0.0
  0
VERTEX
  8
0
 10
114.425224
 20
23.50354
 42
0.0
  0
SEQEND
  0
POLYLINE
  8
0
 66
     1
 10
0.0
 20
0.0
 30
0.0
 70
     1
  0
VERTEX
  8
0
 10
98.884996
 20
23.616824
 42
0.0
  0
VERTEX
  8
0
 10
99.03384
 20
23.707756
 42
0.0
  0
VERTEX
  8
0
 10
99.172778
 20
23.811134
 42
0.0
  0
VERTEX
  8
0
 10
99.300794
 20
23.929752
 42
0.0
  0
VERTEX
  8
0
 10
99.414078
 20
24.060562
 42
0.0
  0
VERTEX
  8
0
 10
99.416872
 20
24.064372
 42
0.0
  0
VERTEX
  8
0
 10
99.515932
 20
24.202294
 42
0.0
  0
VERTEX
  8
0
 10
99.601276
 20
24.352662
 42
0.0
  0
VERTEX
  8
0
 10
99.67011
 20
24.512428
 42
0.0
  0
VERTEX
  8
0
 10
99.724212
 20
24.677782
 42
0.0
  0
VERTEX
  8
0
 10
99.759772
 20
24.848724
 42
0.0
  0
VERTEX
  8
0
 10
99.777806
 20
25.020682
 42
0.0
  0
VERTEX
  8
0
 10
99.777806
 20
25.194418
 42
0.0
  0
VERTEX
  8
0
 10
99.759772
 20
25.368154
 42
0.0
  0
VERTEX
  8
0
 10
99.724212
 20
25.537572
 42
0.0
  0
VERTEX
  8
0
 10
99.67011
 20
25.702926
 42
0.0
  0
VERTEX
  8
0
 10
99.601276
 20
25.862946
 42
0.0
  0
VERTEX
  8
0
 10
99.515932
 20
26.014584
 42
0.0
  0
VERTEX
  8
0
 10
99.445828
 20
26.112374
 42
0.0
  0
VERTEX
  8
0
 10
99.414078
 20
26.156316
 42
0.0
  0
VERTEX
  8
0
 10
99.300794
 20
26.285856
 42
0.0
  0
VERTEX
  8
0
 10
99.172778
 20
26.404474
 42
0.0
  0
VERTEX
  8
0
 10
99.03384
 20
26.509122
 42
0.0
  0
VERTEX
  8
0
 10
98.884996
 20
26.59726
 42
0.0
  0
VERTEX
  8
0
 10
98.727516
 20
26.671682
 42
0.0
  0
VERTEX
  8
0
 10
98.562416
 20
26.729594
 42
0.0
  0
VERTEX
  8
0
 10
98.392744
 20
26.769472
 42
0.0
  0
VERTEX
  8
0
 10
98.222056
 20
26.791824
 42
0.0
  0
VERTEX
  8
0
 10
98.04705
 20
26.795888
 42
0.0
  0
VERTEX
  8
0
 10
97.874584
 20
26.781918
 42
0.0
  0
VERTEX
  8
0
 10
97.741234
 20
26.75855
 42
0.0
  0
VERTEX
  8
0
 10
97.703896
 20
26.751946
 42
0.0
  0
VERTEX
  8
0
 10
97.537018
 20
26.702162
 42
0.0
  0
VERTEX
  8
0
 10
97.375728
 20
26.637138
 42
0.0
  0
VERTEX
  8
0
 10
97.22155
 20
26.554588
 42
0.0
  0
VERTEX
  8
0
 10
97.077024
 20
26.458068
 42
0.0
  0
VERTEX
  8
0
 10
96.94469
 20
26.346562
 42
0.0
  0
VERTEX
  8
0
 10
96.821754
 20
26.22261
 42
0.0
  0
VERTEX
  8
0
 10
96.73514
 20
26.112374
 42
0.0
  0
VERTEX
  8
0
 10
96.714312
 20
26.086212
 42
0.0
  0
VERTEX
  8
0
 10
96.62211
 20
25.938638
 42
0.0
  0
VERTEX
  8
0
 10
96.543624
 20
25.784206
 42
0.0
  0
VERTEX
  8
0
 10
96.482918
 20
25.620122
 42
0.0
  0
VERTEX
  8
0
 10
96.438722
 20
25.453498
 42
0.0
  0
VERTEX
  8
0
 10
96.41129
 20
25.28154
 42
0.0
  0
VERTEX
  8
0
 10
96.403162
 20
25.10755
 42
0.0
  0
VERTEX
  8
0
 10
96.41129
 20
24.934068
 42
0.0
  0
VERTEX
  8
0
 10
96.438722
 20
24.761856
 42
0.0
  0
VERTEX
  8
0
 10
96.482918
 20
24.593454
 42
0.0
  0
VERTEX
  8
0
 10
96.543624
 20
24.432418
 42
0.0
  0
VERTEX
  8
0
 10
96.62211
 20
24.275446
 42
0.0
  0
VERTEX
  8
0
 10
96.714312
 20
24.129396
 42
0.0
  0
VERTEX
  8
0
 10
96.765366
 20
24.064372
 42
0.0
  0
VERTEX
  8
0
 10
96.821754
 20
23.992744
 42
0.0
  0
VERTEX
  8
0
 10
96.94469
 20
23.869046
 42
0.0
  0
VERTEX
  8
0
 10
97.077024
 20
23.757032
 42
0.0
  0
VERTEX
  8
0
 10
97.22155
 20
23.659496
 42
0.0
  0
VERTEX
  8
0
 10
97.375728
 20
23.579232
 42
0.0
  0
VERTEX
  8
0
 10
97.537018
 20
23.513446
 42
0.0
  0
VERTEX
  8
0
 10
97.703896
 20
23.463662
 42
0.0
  0
VERTEX
  8
0
 10
97.741234
 20
23.456804
 42
0.0
  0
VERTEX
  8
0
 10
97.874584
 20
23.433182
 42
0.0
  0
VERTEX
  8
0
 10
98.04705
 20
23.419466
 42
0.0
  0
VERTEX
  8
0
 10
98.222056
 20
23.423784
 42
0.0
  0
VERTEX
  8
0
 10
98.392744
 20
23.446898
 42
0.0
  0
VERTEX
  8
0
 10
98.562416
 20
23.487284
 42
0.0
  0
VERTEX
  8
0
 10
98.727516
 20
23.543672
 42
0.0
  0
SEQEND
  0
POLYLINE
  8
0
 66
     1
 10
0.0
 20
0.0
 30
0.0
 70
     1
  0
VERTEX
  8
0
 10
69.612512
 20
25.6092
 42
0.0
  0
VERTEX
  8
0
 10
69.558918
 20
25.774554
 42
0.0
  0
VERTEX
  8
0
 10
69.490084
 20
25.934574
 42
0.0
  0
VERTEX
  8
0
 10
69.404232
 20
26.084688
 42
0.0
  0
VERTEX
  8
0
 10
69.385182
 20
26.112374
 42
0.0
  0
VERTEX
  8
0
 10
69.303902
 20
26.226674
 42
0.0
  0
VERTEX
  8
0
 10
69.188078
 20
26.357484
 42
0.0
  0
VERTEX
  8
0
 10
69.06946
 20
26.469244
 42
0.0
  0
VERTEX
  8
0
 10
69.061332
 20
26.476102
 42
0.0
  0
VERTEX
  8
0
 10
68.92214
 20
26.579226
 42
0.0
  0
VERTEX
  8
0
 10
68.773296
 20
26.668888
 42
0.0
  0
VERTEX
  8
0
 10
68.6148
 20
26.74331
 42
0.0
  0
VERTEX
  8
0
 10
68.450716
 20
26.799952
 42
0.0
  0
VERTEX
  8
0
 10
68.282822
 20
26.840084
 42
0.0
  0
VERTEX
  8
0
 10
68.108832
 20
26.863198
 42
0.0
  0
VERTEX
  8
0
 10
67.936874
 20
26.867516
 42
0.0
  0
VERTEX
  8
0
 10
67.761868
 20
26.8538
 42
0.0
  0
VERTEX
  8
0
 10
67.590926
 20
26.82205
 42
0.0
  0
VERTEX
  8
0
 10
67.424302
 20
26.77379
 42
0.0
  0
VERTEX
  8
0
 10
67.263012
 20
26.70775
 42
0.0
  0
VERTEX
  8
0
 10
67.10985
 20
26.62774
 42
0.0
  0
VERTEX
  8
0
 10
67.021712
 20
26.567034
 42
0.0
  0
VERTEX
  8
0
 10
66.966594
 20
26.52995
 42
0.0
  0
VERTEX
  8
0
 10
66.83299
 20
26.41819
 42
0.0
  0
VERTEX
  8
0
 10
66.711832
 20
26.294238
 42
0.0
  0
VERTEX
  8
0
 10
66.602866
 20
26.156316
 42
0.0
  0
VERTEX
  8
0
 10
66.575434
 20
26.112374
 42
0.0
  0
VERTEX
  8
0
 10
66.51041
 20
26.01179
 42
0.0
  0
VERTEX
  8
0
 10
66.432178
 20
25.854818
 42
0.0
  0
VERTEX
  8
0
 10
66.371472
 20
25.693528
 42
0.0
  0
VERTEX
  8
0
 10
66.326006
 20
25.525126
 42
0.0
  0
VERTEX
  8
0
 10
66.30086
 20
25.353168
 42
0.0
  0
VERTEX
  8
0
 10
66.291462
 20
25.179178
 42
0.0
  0
VERTEX
  8
0
 10
66.30086
 20
25.005696
 42
0.0
  0
VERTEX
  8
0
 10
66.326006
 20
24.833484
 42
0.0
  0
VERTEX
  8
0
 10
66.371472
 20
24.665082
 42
0.0
  0
VERTEX
  8
0
 10
66.432178
 20
24.502776
 42
0.0
  0
VERTEX
  8
0
 10
66.51041
 20
24.348344
 42
0.0
  0
VERTEX
  8
0
 10
66.602866
 20
24.201024
 42
0.0
  0
VERTEX
  8
0
 10
66.711832
 20
24.064372
 42
0.0
  0
VERTEX
  8
0
 10
66.83299
 20
23.940674
 42
0.0
  0
VERTEX
  8
0
 10
66.966594
 20
23.82866
 42
0.0
  0
VERTEX
  8
0
 10
67.021712
 20
23.791576
 42
0.0
  0
VERTEX
  8
0
 10
67.10985
 20
23.732394
 42
0.0
  0
VERTEX
  8
0
 10
67.263012
 20
23.649844
 42
0.0
  0
VERTEX
  8
0
 10
67.424302
 20
23.58355
 42
0.0
  0
VERTEX
  8
0
 10
67.590926
 20
23.53529
 42
0.0
  0
VERTEX
  8
0
 10
67.761868
 20
23.50481
 42
0.0
  0
VERTEX
  8
0
 10
67.936874
 20
23.491094
 42
0.0
  0
VERTEX
  8
0
 10
68.108832
 20
23.495412
 42
0.0
  0
VERTEX
  8
0
 10
68.282822
 20
23.51751
 42
0.0
  0
VERTEX
  8
0
 10
68.450716
 20
23.557388
 42
0.0
  0
VERTEX
  8
0
 10
68.6148
 20
23.6153
 42
0.0
  0
VERTEX
  8
0
 10
68.773296
 20
23.689722
 42
0.0
  0
VERTEX
  8
0
 10
68.92214
 20
23.77786
 42
0.0
  0
VERTEX
  8
0
 10
69.061332
 20
23.882762
 42
0.0
  0
VERTEX
  8
0
 10
69.06946
 20
23.89089
 42
0.0
  0
VERTEX
  8
0
 10
69.188078
 20
24.001126
 42
0.0
  0
VERTEX
  8
0
 10
69.303902
 20
24.130666
 42
0.0
  0
VERTEX
  8
0
 10
69.404232
 20
24.272652
 42
0.0
  0
VERTEX
  8
0
 10
69.490084
 20
24.42429
 42
0.0
  0
VERTEX
  8
0
 10
69.558918
 20
24.584056
 42
0.0
  0
VERTEX
  8
0
 10
69.612512
 20
24.74941
 42
0.0
  0
VERTEX
  8
0
 10
69.647056
 20
24.918828
 42
0.0
  0
VERTEX
  8
0
 10
69.66509
 20
25.09231
 42
0.0
  0
VERTEX
  8
0
 10
69.66509
 20
25.2663
 42
0.0
  0
VERTEX
  8
0
 10
69.647056
 20
25.438512
 42
0.0
  0
SEQEND
  0
POLYLINE
  8
0
 66
     1
 10
0.0
 20
0.0
 30
0.0
 70
     1
  0
VERTEX
  8
0
 10
51.398934
 20
23.56704
 42
0.0
  0
VERTEX
  8
0
 10
51.646838
 20
23.668894
 42
0.0
  0
VERTEX
  8
0
 10
51.874422
 20
23.80961
 42
0.0
  0
VERTEX
  8
0
 10
52.07686
 20
23.981822
 42
0.0
  0
VERTEX
  8
0
 10
52.250596
 20
24.18426
 42
0.0
  0
VERTEX
  8
0
 10
52.389788
 20
24.413368
 42
0.0
  0
VERTEX
  8
0
 10
52.491896
 20
24.659748
 42
0.0
  0
VERTEX
  8
0
 10
52.555396
 20
24.920352
 42
0.0
  0
VERTEX
  8
0
 10
52.575716
 20
25.18629
 42
0.0
  0
VERTEX
  8
0
 10
52.555396
 20
25.452228
 42
0.0
  0
VERTEX
  8
0
 10
52.491896
 20
25.712578
 42
0.0
  0
VERTEX
  8
0
 10
52.389788
 20
25.959212
 42
0.0
  0
VERTEX
  8
0
 10
52.296062
 20
26.112374
 42
0.0
  0
VERTEX
  8
0
 10
52.250596
 20
26.186796
 42
0.0
  0
VERTEX
  8
0
 10
52.07686
 20
26.390504
 42
0.0
  0
VERTEX
  8
0
 10
51.874422
 20
26.562716
 42
0.0
  0
VERTEX
  8
0
 10
51.646838
 20
26.703432
 42
0.0
  0
VERTEX
  8
0
 10
51.398934
 20
26.80554
 42
0.0
  0
VERTEX
  8
0
 10
51.139854
 20
26.867516
 42
0.0
  0
VERTEX
  8
0
 10
50.873916
 20
26.88936
 42
0.0
  0
VERTEX
  8
0
 10
50.636934
 20
26.870056
 42
0.0
  0
VERTEX
  8
0
 10
50.607978
 20
26.867516
 42
0.0
  0
VERTEX
  8
0
 10
50.347628
 20
26.80554
 42
0.0
  0
VERTEX
  8
0
 10
50.100994
 20
26.703432
 42
0.0
  0
VERTEX
  8
0
 10
49.87214
 20
26.562716
 42
0.0
  0
VERTEX
  8
0
 10
49.669448
 20
26.390504
 42
0.0
  0
VERTEX
  8
0
 10
49.495966
 20
26.186796
 42
0.0
  0
VERTEX
  8
0
 10
49.4505
 20
26.112374
 42
0.0
  0
VERTEX
  8
0
 10
49.356774
 20
25.959212
 42
0.0
  0
VERTEX
  8
0
 10
49.254666
 20
25.712578
 42
0.0
  0
VERTEX
  8
0
 10
49.19269
 20
25.452228
 42
0.0
  0
VERTEX
  8
0
 10
49.172116
 20
25.18629
 42
0.0
  0
VERTEX
  8
0
 10
49.19269
 20
24.920352
 42
0.0
  0
VERTEX
  8
0
 10
49.254666
 20
24.659748
 42
0.0
  0
VERTEX
  8
0
 10
49.356774
 20
24.413368
 42
0.0
  0
VERTEX
  8
0
 10
49.495966
 20
24.18426
 42
0.0
  0
VERTEX
  8
0
 10
49.669448
 20
23.981822
 42
0.0
  0
VERTEX
  8
0
 10
49.87214
 20
23.80961
 42
0.0
  0
VERTEX
  8
0
 10
50.100994
 20
23.668894
 42
0.0
  0
VERTEX
  8
0
 10
50.347628
 20
23.56704
 42
0.0
  0
VERTEX
  8
0
 10
50.607978
 20
23.50354
 42
0.0
  0
VERTEX
  8
0
 10
50.636934
 20
23.502524
 42
0.0
  0
VERTEX
  8
0
 10
50.873916
 20
23.48449
 42
0.0
  0
VERTEX
  8
0
 10
51.139854
 20
23.50354
 42
0.0
  0
SEQEND
  0
POLYLINE
  8
0
 66
     1
 10
0.0
 20
0.0
 30
0.0
 70
     1
  0
VERTEX
  8
0
 10
40.382954
 20
28.209398
 42
0.0
  0
VERTEX
  8
0
 10
40.382954
 20
29.733906
 42
0.0
  0
VERTEX
  8
0
 10
32.823152
 20
29.733906
 42
0.0
  0
VERTEX
  8
0
 10
32.823152
 20
28.209398
 42
0.0
  0
SEQEND
  0
POLYLINE
  8
0
 66
     1
 10
0.0
 20
0.0
 30
0.0
 70
     1
  0
VERTEX
  8
0
 10
12.5837716
 20
25.449434
 42
0.0
  0
VERTEX
  8
0
 10
12.5217956
 20
25.70826
 42
0.0
  0
VERTEX
  8
0
 10
12.4184176
 20
25.956672
 42
0.0
  0
VERTEX
  8
0
 10
12.3233454
 20
26.112374
 42
0.0
  0
VERTEX
  8
0
 10
12.279251
 20
26.182478
 42
0.0
  0
VERTEX
  8
0
 10
12.1069882
 20
26.38644
 42
0.0
  0
VERTEX
  8
0
 10
11.9030516
 20
26.558906
 42
0.0
  0
VERTEX
  8
0
 10
11.6770424
 20
26.699368
 42
0.0
  0
VERTEX
  8
0
 10
11.428986
 20
26.801222
 42
0.0
  0
VERTEX
  8
0
 10
11.169906
 20
26.863198
 42
0.0
  0
VERTEX
  8
0
 10
10.9039426
 20
26.884026
 42
0.0
  0
VERTEX
  8
0
 10
10.6380046
 20
26.863198
 42
0.0
  0
VERTEX
  8
0
 10
10.3789246
 20
26.801222
 42
0.0
  0
VERTEX
  8
0
 10
10.1322398
 20
26.699368
 42
0.0
  0
VERTEX
  8
0
 10
9.9048844
 20
26.558906
 42
0.0
  0
VERTEX
  8
0
 10
9.7023194
 20
26.38644
 42
0.0
  0
VERTEX
  8
0
 10
9.677529
 20
26.35596
 42
0.0
  0
VERTEX
  8
0
 10
9.528685
 20
26.182478
 42
0.0
  0
VERTEX
  8
0
 10
9.4845906
 20
26.112374
 42
0.0
  0
VERTEX
  8
0
 10
9.3895184
 20
25.956672
 42
0.0
  0
VERTEX
  8
0
 10
9.2875374
 20
25.70826
 42
0.0
  0
VERTEX
  8
0
 10
9.2255106
 20
25.449434
 42
0.0
  0
VERTEX
  8
0
 10
9.204835
 20
25.183496
 42
0.0
  0
VERTEX
  8
0
 10
9.2255106
 20
24.917304
 42
0.0
  0
VERTEX
  8
0
 10
9.2875374
 20
24.658478
 42
0.0
  0
VERTEX
  8
0
 10
9.3895184
 20
24.411844
 42
0.0
  0
VERTEX
  8
0
 10
9.528685
 20
24.18426
 42
0.0
  0
VERTEX
  8
0
 10
9.7023194
 20
23.981822
 42
0.0
  0
VERTEX
  8
0
 10
9.9048844
 20
23.80834
 42
0.0
  0
VERTEX
  8
0
 10
10.1322398
 20
23.668894
 42
0.0
  0
VERTEX
  8
0
 10
10.3789246
 20
23.56704
 42
0.0
  0
VERTEX
  8
0
 10
10.6380046
 20
23.50354
 42
0.0
  0
VERTEX
  8
0
 10
10.9039426
 20
23.48449
 42
0.0
  0
VERTEX
  8
0
 10
11.169906
 20
23.50354
 42
0.0
  0
VERTEX
  8
0
 10
11.428986
 20
23.56704
 42
0.0
  0
VERTEX
  8
0
 10
11.6770424
 20
23.668894
 42
0.0
  0
VERTEX
  8
0
 10
11.7252516
 20
23.699374
 42
0.0
  0
VERTEX
  8
0
 10
11.9030516
 20
23.80834
 42
0.0
  0
VERTEX
  8
0
 10
12.1069882
 20
23.981822
 42
0.0
  0
VERTEX
  8
0
 10
12.279251
 20
24.18426
 42
0.0
  0
VERTEX
  8
0
 10
12.4184176
 20
24.411844
 42
0.0
  0
VERTEX
  8
0
 10
12.5217956
 20
24.658478
 42
0.0
  0
VERTEX
  8
0
 10
12.5837716
 20
24.917304
 42
0.0
  0
VERTEX
  8
0
 10
12.6044472
 20
25.183496
 42
0.0
  0
SEQEND
  0
POLYLINE
  8
0
 66
     1
 10
0.0
 20
0.0
 30
0.0
 70
     1
  0
VERTEX
  8
0
 10
25.044021
 20
28.1365
 42
0.0
  0
VERTEX
  8
0
 10
25.044021
 20
29.662278
 42
0.0
  0
VERTEX
  8
0
 10
19.0151024
 20
29.662278
 42
0.0
  0
VERTEX
  8
0
 10
19.0151024
 20
28.1365
 42
0.0
  0
SEQEND
  0
POLYLINE
  8
0
 66
     1
 10
0.0
 20
0.0
 30
0.0
 70
     1
  0
VERTEX
  8
0
 10
125.161296
 20
42.495628
 42
0.0
  0
VERTEX
  8
0
 10
124.366022
 20
41.746074
 42
0.0
  0
VERTEX
  8
0
 10
122.648982
 20
40.129618
 42
0.0
  0
VERTEX
  8
0
 10
124.366022
 20
38.511638
 42
0.0
  0
VERTEX
  8
0
 10
127.824994
 20
35.252818
 42
0.0
  0
VERTEX
  8
0
 10
128.034544
 20
35.054444
 42
0.0
  0
VERTEX
  8
0
 10
138.806684
 20
35.054444
 42
0.0
  0
VERTEX
  8
0
 10
141.633196
 20
37.716872
 42
0.0
  0
VERTEX
  8
0
 10
142.087856
 20
38.14664
 42
0.0
  0
VERTEX
  8
0
 10
144.191738
 20
40.129618
 42
0.0
  0
VERTEX
  8
0
 10
141.633196
 20
42.541094
 42
0.0
  0
VERTEX
  8
0
 10
138.806684
 20
45.203522
 42
0.0
  0
VERTEX
  8
0
 10
128.034544
 20
45.203522
 42
0.0
  0
VERTEX
  8
0
 10
127.824994
 20
45.005148
 42
0.0
  0
SEQEND
  0
POLYLINE
  8
0
 66
     1
 10
0.0
 20
0.0
 30
0.0
 70
     1
  0
VERTEX
  8
0
 10
108.021122
 20
34.303366
 42
0.0
  0
VERTEX
  8
0
 10
109.17479
 20
32.306672
 42
0.0
  0
VERTEX
  8
0
 10
109.205016
 20
32.252824
 42
0.0
  0
VERTEX
  8
0
 10
112.550704
 20
32.252824
 42
0.0
  0
VERTEX
  8
0
 10
112.582454
 20
32.306672
 42
0.0
  0
VERTEX
  8
0
 10
113.734598
 20
34.303366
 42
0.0
  0
VERTEX
  8
0
 10
114.223802
 20
35.15071
 42
0.0
  0
VERTEX
  8
0
 10
112.550704
 20
38.04885
 42
0.0
  0
VERTEX
  8
0
 10
109.205016
 20
38.04885
 42
0.0
  0
VERTEX
  8
0
 10
107.981244
 20
35.929474
 42
0.0
  0
VERTEX
  8
0
 10
107.531918
 20
35.15071
 42
0.0
  0
VERTEX
  8
0
 10
107.981244
 20
34.373724
 42
0.0
  0
VERTEX
  8
0
 10
108.008676
 20
34.326734
 42
0.0
  0
SEQEND
  0
POLYLINE
  8
0
 66
     1
 10
0.0
 20
0.0
 30
0.0
 70
     1
  0
VERTEX
  8
0
 10
115.468148
 20
37.307424
 42
0.0
  0
VERTEX
  8
0
 10
118.672104
 20
37.307424
 42
0.0
  0
VERTEX
  8
0
 10
120.299482
 20
40.125554
 42
0.0
  0
VERTEX
  8
0
 10
118.931184
 20
42.495628
 42
0.0
  0
VERTEX
  8
0
 10
118.672104
 20
42.943684
 42
0.0
  0
VERTEX
  8
0
 10
115.327432
 20
42.943684
 42
0.0
  0
VERTEX
  8
0
 10
115.069876
 20
42.495628
 42
0.0
  0
VERTEX
  8
0
 10
113.700054
 20
40.125554
 42
0.0
  0
VERTEX
  8
0
 10
114.898934
 20
38.04885
 42
0.0
  0
VERTEX
  8
0
 10
115.327432
 20
37.307424
 42
0.0
  0
SEQEND
  0
POLYLINE
  8
0
 66
     1
 10
0.0
 20
0.0
 30
0.0
 70
     1
  0
VERTEX
  8
0
 10
106.932478
 20
37.307424
 42
0.0
  0
VERTEX
  8
0
 10
107.981244
 20
39.123778
 42
0.0
  0
VERTEX
  8
0
 10
108.56011
 20
40.125554
 42
0.0
  0
VERTEX
  8
0
 10
107.981244
 20
41.12606
 42
0.0
  0
VERTEX
  8
0
 10
107.190288
 20
42.495628
 42
0.0
  0
VERTEX
  8
0
 10
106.932478
 20
42.943684
 42
0.0
  0
VERTEX
  8
0
 10
103.58806
 20
42.943684
 42
0.0
  0
VERTEX
  8
0
 10
103.328726
 20
42.495628
 42
0.0
  0
VERTEX
  8
0
 10
103.3112
 20
42.464132
 42
0.0
  0
VERTEX
  8
0
 10
101.961952
 20
40.125554
 42
0.0
  0
VERTEX
  8
0
 10
103.58806
 20
37.307424
 42
0.0
  0
SEQEND
  0
POLYLINE
  8
0
 66
     1
 10
0.0
 20
0.0
 30
0.0
 70
     1
  0
VERTEX
  8
0
 10
112.736632
 20
47.674434
 42
0.0
  0
VERTEX
  8
0
 10
112.550704
 20
47.997014
 42
0.0
  0
VERTEX
  8
0
 10
109.205016
 20
47.997014
 42
0.0
  0
VERTEX
  8
0
 10
109.018834
 20
47.674434
 42
0.0
  0
VERTEX
  8
0
 10
107.981244
 20
45.876114
 42
0.0
  0
VERTEX
  8
0
 10
107.531918
 20
45.098874
 42
0.0
  0
VERTEX
  8
0
 10
107.981244
 20
44.321634
 42
0.0
  0
VERTEX
  8
0
 10
109.035344
 20
42.495628
 42
0.0
  0
VERTEX
  8
0
 10
109.205016
 20
42.200734
 42
0.0
  0
VERTEX
  8
0
 10
112.550704
 20
42.200734
 42
0.0
  0
VERTEX
  8
0
 10
112.721646
 20
42.495628
 42
0.0
  0
VERTEX
  8
0
 10
114.223802
 20
45.098874
 42
0.0
  0
SEQEND
  0
POLYLINE
  8
0
 66
     1
 10
0.0
 20
0.0
 30
0.0
 70
     1
  0
VERTEX
  8
0
 10
60.043316
 20
42.495628
 42
0.0
  0
VERTEX
  8
0
 10
58.82945
 20
40.392762
 42
0.0
  0
VERTEX
  8
0
 10
58.675018
 20
40.125554
 42
0.0
  0
VERTEX
  8
0
 10
58.82945
 20
39.856822
 42
0.0
  0
VERTEX
  8
0
 10
60.301126
 20
37.307424
 42
0.0
  0
VERTEX
  8
0
 10
63.647068
 20
37.307424
 42
0.0
  0
VERTEX
  8
0
 10
65.272922
 20
40.125554
 42
0.0
  0
VERTEX
  8
0
 10
63.904878
 20
42.495628
 42
0.0
  0
VERTEX
  8
0
 10
63.647068
 20
42.943684
 42
0.0
  0
VERTEX
  8
0
 10
60.301126
 20
42.943684
 42
0.0
  0
SEQEND
  0
POLYLINE
  8
0
 66
     1
 10
0.0
 20
0.0
 30
0.0
 70
     1
  0
VERTEX
  8
0
 10
52.994816
 20
34.303366
 42
0.0
  0
VERTEX
  8
0
 10
54.147976
 20
32.306672
 42
0.0
  0
VERTEX
  8
0
 10
54.179726
 20
32.252824
 42
0.0
  0
VERTEX
  8
0
 10
57.524652
 20
32.252824
 42
0.0
  0
VERTEX
  8
0
 10
57.555894
 20
32.306672
 42
0.0
  0
VERTEX
  8
0
 10
58.708038
 20
34.303366
 42
0.0
  0
VERTEX
  8
0
 10
58.82945
 20
34.513932
 42
0.0
  0
VERTEX
  8
0
 10
59.197496
 20
35.15071
 42
0.0
  0
VERTEX
  8
0
 10
58.82945
 20
35.789012
 42
0.0
  0
VERTEX
  8
0
 10
57.524652
 20
38.04885
 42
0.0
  0
VERTEX
  8
0
 10
54.179726
 20
38.04885
 42
0.0
  0
VERTEX
  8
0
 10
53.751228
 20
37.307424
 42
0.0
  0
VERTEX
  8
0
 10
52.506882
 20
35.15071
 42
0.0
  0
SEQEND
  0
POLYLINE
  8
0
 66
     1
 10
0.0
 20
0.0
 30
0.0
 70
     1
  0
VERTEX
  8
0
 10
51.906172
 20
37.307424
 42
0.0
  0
VERTEX
  8
0
 10
53.53355
 20
40.125554
 42
0.0
  0
VERTEX
  8
0
 10
52.165252
 20
42.495628
 42
0.0
  0
VERTEX
  8
0
 10
51.906172
 20
42.943684
 42
0.0
  0
VERTEX
  8
0
 10
48.5615
 20
42.943684
 42
0.0
  0
VERTEX
  8
0
 10
48.303944
 20
42.495628
 42
0.0
  0
VERTEX
  8
0
 10
46.935646
 20
40.125554
 42
0.0
  0
VERTEX
  8
0
 10
48.5615
 20
37.307424
 42
0.0
  0
SEQEND
  0
POLYLINE
  8
0
 66
     1
 10
0.0
 20
0.0
 30
0.0
 70
     1
  0
VERTEX
  8
0
 10
57.524652
 20
42.200734
 42
0.0
  0
VERTEX
  8
0
 10
57.69534
 20
42.495628
 42
0.0
  0
VERTEX
  8
0
 10
58.82945
 20
44.46235
 42
0.0
  0
VERTEX
  8
0
 10
59.197496
 20
45.098874
 42
0.0
  0
VERTEX
  8
0
 10
58.82945
 20
45.736922
 42
0.0
  0
VERTEX
  8
0
 10
57.710326
 20
47.674434
 42
0.0
  0
VERTEX
  8
0
 10
57.524652
 20
47.997014
 42
0.0
  0
VERTEX
  8
0
 10
54.179726
 20
47.997014
 42
0.0
  0
VERTEX
  8
0
 10
53.993798
 20
47.674434
 42
0.0
  0
VERTEX
  8
0
 10
52.506882
 20
45.098874
 42
0.0
  0
VERTEX
  8
0
 10
54.009038
 20
42.495628
 42
0.0
  0
VERTEX
  8
0
 10
54.179726
 20
42.200734
 42
0.0
  0
SEQEND
  0
POLYLINE
  8
0
 66
     1
 10
0.0
 20
0.0
 30
0.0
 70
     1
  0
VERTEX
  8
0
 10
34.833562
 20
35.109562
 42
0.0
  0
VERTEX
  8
0
 10
40.757604
 20
35.109562
 42
0.0
  0
VERTEX
  8
0
 10
42.445688
 20
38.03234
 42
0.0
  0
VERTEX
  8
0
 10
43.65295
 20
40.125554
 42
0.0
  0
VERTEX
  8
0
 10
42.445688
 20
42.217244
 42
0.0
  0
VERTEX
  8
0
 10
42.284652
 20
42.495628
 42
0.0
  0
VERTEX
  8
0
 10
40.757604
 20
45.141546
 42
0.0
  0
VERTEX
  8
0
 10
34.833562
 20
45.141546
 42
0.0
  0
VERTEX
  8
0
 10
33.306768
 20
42.495628
 42
0.0
  0
VERTEX
  8
0
 10
31.938216
 20
40.125554
 42
0.0
  0
SEQEND
  0
POLYLINE
  8
0
 66
     1
 10
0.0
 20
0.0
 30
0.0
 70
     1
  0
VERTEX
  8
0
 10
30.135832
 20
37.001354
 42
0.0
  0
VERTEX
  8
0
 10
25.1942112
 20
37.001354
 42
0.0
  0
VERTEX
  8
0
 10
24.1014524
 20
35.109562
 42
0.0
  0
VERTEX
  8
0
 10
22.6944702
 20
32.6704
 42
0.0
  0
VERTEX
  8
0
 10
22.6999566
 20
32.659478
 42
0.0
  0
VERTEX
  8
0
 10
32.690818
 20
32.659478
 42
0.0
  0
VERTEX
  8
0
 10
32.697676
 20
32.6704
 42
0.0
  0
VERTEX
  8
0
 10
30.196538
 20
37.001354
 42
0.0
  0
SEQEND
  0
POLYLINE
  8
0
 66
     1
 10
0.0
 20
0.0
 30
0.0
 70
     1
  0
VERTEX
  8
0
 10
150.065234
 20
34.59699
 42
0.0
  0
VERTEX
  8
0
 10
150.618954
 20
35.556094
 42
0.0
  0
VERTEX
  8
0
 10
150.252432
 20
36.191094
 42
0.0
  0
VERTEX
  8
0
 10
149.35251
 20
37.749638
 42
0.0
  0
VERTEX
  8
0
 10
149.12391
 20
38.14664
 42
0.0
  0
VERTEX
  8
0
 10
146.133568
 20
38.14664
 42
0.0
  0
VERTEX
  8
0
 10
144.638524
 20
35.556094
 42
0.0
  0
VERTEX
  8
0
 10
146.133568
 20
32.966818
 42
0.0
  0
VERTEX
  8
0
 10
149.12391
 20
32.966818
 42
0.0
  0
SEQEND
  0
POLYLINE
  8
0
 66
     1
 10
0.0
 20
0.0
 30
0.0
 70
     1
  0
VERTEX
  8
0
 10
151.58771
 20
40.129618
 42
0.0
  0
VERTEX
  8
0
 10
153.449784
 20
38.14664
 42
0.0
  0
VERTEX
  8
0
 10
155.285188
 20
36.191094
 42
0.0
  0
VERTEX
  8
0
 10
162.68116
 20
36.191094
 42
0.0
  0
VERTEX
  8
0
 10
163.50539
 20
37.069172
 42
0.0
  0
VERTEX
  8
0
 10
166.378384
 20
40.129618
 42
0.0
  0
VERTEX
  8
0
 10
164.155376
 20
42.495628
 42
0.0
  0
VERTEX
  8
0
 10
163.50539
 20
43.188794
 42
0.0
  0
VERTEX
  8
0
 10
162.68116
 20
44.066618
 42
0.0
  0
VERTEX
  8
0
 10
155.285188
 20
44.066618
 42
0.0
  0
VERTEX
  8
0
 10
153.260554
 20
41.911428
 42
0.0
  0
SEQEND
  0
POLYLINE
  8
0
 66
     1
 10
0.0
 20
0.0
 30
0.0
 70
     1
  0
VERTEX
  8
0
 10
149.12391
 20
41.911428
 42
0.0
  0
VERTEX
  8
0
 10
150.368256
 20
44.066618
 42
0.0
  0
VERTEX
  8
0
 10
150.618954
 20
44.500704
 42
0.0
  0
VERTEX
  8
0
 10
150.214078
 20
45.203522
 42
0.0
  0
VERTEX
  8
0
 10
149.12391
 20
47.091504
 42
0.0
  0
VERTEX
  8
0
 10
146.133568
 20
47.091504
 42
0.0
  0
VERTEX
  8
0
 10
145.043654
 20
45.203522
 42
0.0
  0
VERTEX
  8
0
 10
144.638524
 20
44.500704
 42
0.0
  0
VERTEX
  8
0
 10
144.889222
 20
44.066618
 42
0.0
  0
VERTEX
  8
0
 10
146.133568
 20
41.911428
 42
0.0
  0
SEQEND
  0
POLYLINE
  8
0
 66
     1
 10
0.0
 20
0.0
 30
0.0
 70
     1
  0
VERTEX
  8
0
 10
141.6398
 20
30.476602
 42
0.0
  0
VERTEX
  8
0
 10
141.633196
 20
30.308454
 42
0.0
  0
VERTEX
  8
0
 10
141.637006
 20
30.207616
 42
0.0
  0
VERTEX
  8
0
 10
141.6398
 20
30.141576
 42
0.0
  0
VERTEX
  8
0
 10
141.664438
 20
29.977746
 42
0.0
  0
VERTEX
  8
0
 10
141.706094
 20
29.814932
 42
0.0
  0
VERTEX
  8
0
 10
141.761212
 20
29.65796
 42
0.0
  0
VERTEX
  8
0
 10
141.83284
 20
29.506322
 42
0.0
  0
VERTEX
  8
0
 10
141.919454
 20
29.363066
 42
0.0
  0
VERTEX
  8
0
 10
142.018768
 20
29.229462
 42
0.0
  0
VERTEX
  8
0
 10
142.130528
 20
29.105256
 42
0.0
  0
VERTEX
  8
0
 10
142.254226
 20
28.992226
 42
0.0
  0
VERTEX
  8
0
 10
142.388084
 20
28.893166
 42
0.0
  0
VERTEX
  8
0
 10
142.53261
 20
28.807822
 42
0.0
  0
VERTEX
  8
0
 10
142.682978
 20
28.736194
 42
0.0
  0
VERTEX
  8
0
 10
142.797278
 20
28.694538
 42
0.0
  0
VERTEX
  8
0
 10
142.83995
 20
28.679298
 42
0.0
  0
VERTEX
  8
0
 10
143.00251
 20
28.639674
 42
0.0
  0
VERTEX
  8
0
 10
143.168118
 20
28.614782
 42
0.0
  0
VERTEX
  8
0
 10
143.334996
 20
28.6064
 42
0.0
  0
VERTEX
  8
0
 10
143.501366
 20
28.614782
 42
0.0
  0
VERTEX
  8
0
 10
143.666974
 20
28.639674
 42
0.0
  0
VERTEX
  8
0
 10
143.821406
 20
28.678028
 42
0.0
  0
VERTEX
  8
0
 10
143.82801
 20
28.679298
 42
0.0
  0
VERTEX
  8
0
 10
143.986506
 20
28.736194
 42
0.0
  0
VERTEX
  8
0
 10
144.136874
 20
28.807822
 42
0.0
  0
VERTEX
  8
0
 10
144.279876
 20
28.893166
 42
0.0
  0
VERTEX
  8
0
 10
144.413734
 20
28.992226
 42
0.0
  0
VERTEX
  8
0
 10
144.53794
 20
29.105256
 42
0.0
  0
VERTEX
  8
0
 10
144.650716
 20
29.229462
 42
0.0
  0
VERTEX
  8
0
 10
144.749776
 20
29.363066
 42
0.0
  0
VERTEX
  8
0
 10
144.836898
 20
29.506322
 42
0.0
  0
VERTEX
  8
0
 10
144.845026
 20
29.525626
 42
0.0
  0
VERTEX
  8
0
 10
144.907256
 20
29.65796
 42
0.0
  0
VERTEX
  8
0
 10
144.963644
 20
29.814932
 42
0.0
  0
VERTEX
  8
0
 10
145.005046
 20
29.977746
 42
0.0
  0
VERTEX
  8
0
 10
145.028668
 20
30.141576
 42
0.0
  0
VERTEX
  8
0
 10
145.038066
 20
30.308454
 42
0.0
  0
VERTEX
  8
0
 10
145.028668
 20
30.476602
 42
0.0
  0
VERTEX
  8
0
 10
145.005046
 20
30.640432
 42
0.0
  0
VERTEX
  8
0
 10
144.963644
 20
30.803246
 42
0.0
  0
VERTEX
  8
0
 10
144.907256
 20
30.961488
 42
0.0
  0
VERTEX
  8
0
 10
144.845026
 20
31.092552
 42
0.0
  0
VERTEX
  8
0
 10
144.836898
 20
31.111856
 42
0.0
  0
VERTEX
  8
0
 10
144.749776
 20
31.255112
 42
0.0
  0
VERTEX
  8
0
 10
144.650716
 20
31.388716
 42
0.0
  0
VERTEX
  8
0
 10
144.53794
 20
31.512922
 42
0.0
  0
VERTEX
  8
0
 10
144.413734
 20
31.624428
 42
0.0
  0
VERTEX
  8
0
 10
144.279876
 20
31.725012
 42
0.0
  0
VERTEX
  8
0
 10
144.136874
 20
31.810356
 42
0.0
  0
VERTEX
  8
0
 10
143.986506
 20
31.881984
 42
0.0
  0
VERTEX
  8
0
 10
143.82801
 20
31.938626
 42
0.0
  0
VERTEX
  8
0
 10
143.821406
 20
31.94015
 42
0.0
  0
VERTEX
  8
0
 10
143.666974
 20
31.978504
 42
0.0
  0
VERTEX
  8
0
 10
143.501366
 20
32.003396
 42
0.0
  0
VERTEX
  8
0
 10
143.334996
 20
32.011778
 42
0.0
  0
VERTEX
  8
0
 10
143.168118
 20
32.003396
 42
0.0
  0
VERTEX
  8
0
 10
143.00251
 20
31.978504
 42
0.0
  0
VERTEX
  8
0
 10
142.83995
 20
31.938626
 42
0.0
  0
VERTEX
  8
0
 10
142.797278
 20
31.922116
 42
0.0
  0
VERTEX
  8
0
 10
142.682978
 20
31.881984
 42
0.0
  0
VERTEX
  8
0
 10
142.53261
 20
31.810356
 42
0.0
  0
VERTEX
  8
0
 10
142.388084
 20
31.725012
 42
0.0
  0
VERTEX
  8
0
 10
142.254226
 20
31.624428
 42
0.0
  0
VERTEX
  8
0
 10
142.130528
 20
31.512922
 42
0.0
  0
VERTEX
  8
0
 10
142.018768
 20
31.388716
 42
0.0
  0
VERTEX
  8
0
 10
141.919454
 20
31.255112
 42
0.0
  0
VERTEX
  8
0
 10
141.83284
 20
31.111856
 42
0.0
  0
VERTEX
  8
0
 10
141.761212
 20
30.961488
 42
0.0
  0
VERTEX
  8
0
 10
141.706094
 20
30.803246
 42
0.0
  0
VERTEX
  8
0
 10
141.664438
 20
30.640432
 42
0.0
  0
SEQEND
  0
POLYLINE
  8
0
 66
     1
 10
0.0
 20
0.0
 30
0.0
 70
     1
  0
VERTEX
  8
0
 10
165.66185
 20
31.270352
 42
0.0
  0
VERTEX
  8
0
 10
165.643816
 20
31.231744
 42
0.0
  0
VERTEX
  8
0
 10
165.591746
 20
31.119984
 42
0.0
  0
VERTEX
  8
0
 10
165.53485
 20
30.963012
 42
0.0
  0
VERTEX
  8
0
 10
165.494972
 20
30.801722
 42
0.0
  0
VERTEX
  8
0
 10
165.46881
 20
30.637638
 42
0.0
  0
VERTEX
  8
0
 10
165.461952
 20
30.472284
 42
0.0
  0
VERTEX
  8
0
 10
165.46881
 20
30.30566
 42
0.0
  0
VERTEX
  8
0
 10
165.48405
 20
30.207616
 42
0.0
  0
VERTEX
  8
0
 10
165.494972
 20
30.141576
 42
0.0
  0
VERTEX
  8
0
 10
165.53485
 20
29.98054
 42
0.0
  0
VERTEX
  8
0
 10
165.591746
 20
29.824584
 42
0.0
  0
VERTEX
  8
0
 10
165.66185
 20
29.674724
 42
0.0
  0
VERTEX
  8
0
 10
165.748718
 20
29.532484
 42
0.0
  0
VERTEX
  8
0
 10
165.847778
 20
29.398626
 42
0.0
  0
VERTEX
  8
0
 10
165.960554
 20
29.276198
 42
0.0
  0
VERTEX
  8
0
 10
166.08349
 20
29.164438
 42
0.0
  0
VERTEX
  8
0
 10
166.218618
 20
29.065378
 42
0.0
  0
VERTEX
  8
0
 10
166.349428
 20
28.986638
 42
0.0
  0
VERTEX
  8
0
 10
166.361874
 20
28.980034
 42
0.0
  0
VERTEX
  8
0
 10
166.511988
 20
28.908406
 42
0.0
  0
VERTEX
  8
0
 10
166.66896
 20
28.853288
 42
0.0
  0
VERTEX
  8
0
 10
166.831774
 20
28.813156
 42
0.0
  0
VERTEX
  8
0
 10
166.997128
 20
28.788518
 42
0.0
  0
VERTEX
  8
0
 10
167.164006
 20
28.781406
 42
0.0
  0
VERTEX
  8
0
 10
167.330376
 20
28.788518
 42
0.0
  0
VERTEX
  8
0
 10
167.373302
 20
28.795122
 42
0.0
  0
VERTEX
  8
0
 10
167.495984
 20
28.813156
 42
0.0
  0
VERTEX
  8
0
 10
167.658544
 20
28.853288
 42
0.0
  0
VERTEX
  8
0
 10
167.815516
 20
28.908406
 42
0.0
  0
VERTEX
  8
0
 10
167.965884
 20
28.980034
 42
0.0
  0
VERTEX
  8
0
 10
168.10914
 20
29.065378
 42
0.0
  0
VERTEX
  8
0
 10
168.244268
 20
29.164438
 42
0.0
  0
VERTEX
  8
0
 10
168.36695
 20
29.276198
 42
0.0
  0
VERTEX
  8
0
 10
168.479726
 20
29.398626
 42
0.0
  0
VERTEX
  8
0
 10
168.57904
 20
29.532484
 42
0.0
  0
VERTEX
  8
0
 10
168.665654
 20
29.674724
 42
0.0
  0
VERTEX
  8
0
 10
168.736266
 20
29.824584
 42
0.0
  0
VERTEX
  8
0
 10
168.794178
 20
29.98054
 42
0.0
  0
VERTEX
  8
0
 10
168.834056
 20
30.141576
 42
0.0
  0
VERTEX
  8
0
 10
168.843454
 20
30.207616
 42
0.0
  0
VERTEX
  8
0
 10
168.858694
 20
30.30566
 42
0.0
  0
VERTEX
  8
0
 10
168.867076
 20
30.472284
 42
0.0
  0
VERTEX
  8
0
 10
168.858694
 20
30.637638
 42
0.0
  0
VERTEX
  8
0
 10
168.834056
 20
30.801722
 42
0.0
  0
VERTEX
  8
0
 10
168.794178
 20
30.963012
 42
0.0
  0
VERTEX
  8
0
 10
168.736266
 20
31.119984
 42
0.0
  0
VERTEX
  8
0
 10
168.683688
 20
31.231744
 42
0.0
  0
VERTEX
  8
0
 10
168.665654
 20
31.270352
 42
0.0
  0
VERTEX
  8
0
 10
168.57904
 20
31.412084
 42
0.0
  0
VERTEX
  8
0
 10
168.479726
 20
31.544418
 42
0.0
  0
VERTEX
  8
0
 10
168.36695
 20
31.668624
 42
0.0
  0
VERTEX
  8
0
 10
168.244268
 20
31.779876
 42
0.0
  0
VERTEX
  8
0
 10
168.10914
 20
31.879444
 42
0.0
  0
VERTEX
  8
0
 10
167.965884
 20
31.963518
 42
0.0
  0
VERTEX
  8
0
 10
167.815516
 20
32.035146
 42
0.0
  0
VERTEX
  8
0
 10
167.658544
 20
32.091534
 42
0.0
  0
VERTEX
  8
0
 10
167.495984
 20
32.131666
 42
0.0
  0
VERTEX
  8
0
 10
167.373302
 20
32.149446
 42
0.0
  0
VERTEX
  8
0
 10
167.330376
 20
32.156304
 42
0.0
  0
VERTEX
  8
0
 10
167.164006
 20
32.164432
 42
0.0
  0
VERTEX
  8
0
 10
166.997128
 20
32.156304
 42
0.0
  0
VERTEX
  8
0
 10
166.831774
 20
32.131666
 42
0.0
  0
VERTEX
  8
0
 10
166.66896
 20
32.091534
 42
0.0
  0
VERTEX
  8
0
 10
166.511988
 20
32.035146
 42
0.0
  0
VERTEX
  8
0
 10
166.361874
 20
31.963518
 42
0.0
  0
VERTEX
  8
0
 10
166.218618
 20
31.879444
 42
0.0
  0
VERTEX
  8
0
 10
166.08349
 20
31.779876
 42
0.0
  0
VERTEX
  8
0
 10
165.960554
 20
31.668624
 42
0.0
  0
VERTEX
  8
0
 10
165.847778
 20
31.544418
 42
0.0
  0
VERTEX
  8
0
 10
165.748718
 20
31.412084
 42
0.0
  0
SEQEND
  0
POLYLINE
  8
0
 66
     1
 10
0.0
 20
0.0
 30
0.0
 70
     1
  0
VERTEX
  8
0
 10
114.685574
 20
53.514656
 42
0.0
  0
VERTEX
  8
0
 10
114.931954
 20
53.617907
 42
0.0
  0
VERTEX
  8
0
 10
115.159538
 20
53.757099
 42
0.0
  0
VERTEX
  8
0
 10
115.361976
 20
53.9307334
 42
0.0
  0
VERTEX
  8
0
 10
115.536982
 20
54.13467
 42
0.0
  0
VERTEX
  8
0
 10
115.674904
 20
54.3620762
 42
0.0
  0
VERTEX
  8
0
 10
115.778028
 20
54.607364
 42
0.0
  0
VERTEX
  8
0
 10
115.820954
 20
54.7837416
 42
0.0
  0
VERTEX
  8
0
 10
115.840004
 20
54.8677648
 42
0.0
  0
VERTEX
  8
0
 10
115.860832
 20
55.1351506
 42
0.0
  0
VERTEX
  8
0
 10
115.840004
 20
55.401114
 42
0.0
  0
VERTEX
  8
0
 10
115.778028
 20
55.6615148
 42
0.0
  0
VERTEX
  8
0
 10
115.674904
 20
55.9068534
 42
0.0
  0
VERTEX
  8
0
 10
115.536982
 20
56.1355804
 42
0.0
  0
VERTEX
  8
0
 10
115.361976
 20
56.3381454
 42
0.0
  0
VERTEX
  8
0
 10
115.159538
 20
56.5117798
 42
0.0
  0
VERTEX
  8
0
 10
114.931954
 20
56.6509718
 42
0.0
  0
VERTEX
  8
0
 10
114.685574
 20
56.7543244
 42
0.0
  0
VERTEX
  8
0
 10
114.425224
 20
56.8163512
 42
0.0
  0
VERTEX
  8
0
 10
114.159032
 20
56.8370268
 42
0.0
  0
VERTEX
  8
0
 10
114.126012
 20
56.8342582
 42
0.0
  0
VERTEX
  8
0
 10
113.893094
 20
56.8163512
 42
0.0
  0
VERTEX
  8
0
 10
113.63249
 20
56.7543244
 42
0.0
  0
VERTEX
  8
0
 10
113.385856
 20
56.6509718
 42
0.0
  0
VERTEX
  8
0
 10
113.158526
 20
56.5117798
 42
0.0
  0
VERTEX
  8
0
 10
112.955834
 20
56.3381454
 42
0.0
  0
VERTEX
  8
0
 10
112.780828
 20
56.1355804
 42
0.0
  0
VERTEX
  8
0
 10
112.64189
 20
55.9068534
 42
0.0
  0
VERTEX
  8
0
 10
112.539782
 20
55.6615148
 42
0.0
  0
VERTEX
  8
0
 10
112.477806
 20
55.401114
 42
0.0
  0
VERTEX
  8
0
 10
112.456978
 20
55.1351506
 42
0.0
  0
VERTEX
  8
0
 10
112.477806
 20
54.8677648
 42
0.0
  0
VERTEX
  8
0
 10
112.49711
 20
54.7837416
 42
0.0
  0
VERTEX
  8
0
 10
112.539782
 20
54.607364
 42
0.0
  0
VERTEX
  8
0
 10
112.64189
 20
54.3620762
 42
0.0
  0
VERTEX
  8
0
 10
112.780828
 20
54.13467
 42
0.0
  0
VERTEX
  8
0
 10
112.955834
 20
53.9307334
 42
0.0
  0
VERTEX
  8
0
 10
113.158526
 20
53.757099
 42
0.0
  0
VERTEX
  8
0
 10
113.385856
 20
53.617907
 42
0.0
  0
VERTEX
  8
0
 10
113.63249
 20
53.514656
 42
0.0
  0
VERTEX
  8
0
 10
113.893094
 20
53.452426
 42
0.0
  0
VERTEX
  8
0
 10
114.126012
 20
53.434646
 42
0.0
  0
VERTEX
  8
0
 10
114.159032
 20
53.431852
 42
0.0
  0
VERTEX
  8
0
 10
114.425224
 20
53.452426
 42
0.0
  0
SEQEND
  0
POLYLINE
  8
0
 66
     1
 10
0.0
 20
0.0
 30
0.0
 70
     1
  0
VERTEX
  8
0
 10
98.884996
 20
53.6509778
 42
0.0
  0
VERTEX
  8
0
 10
99.03384
 20
53.7405382
 42
0.0
  0
VERTEX
  8
0
 10
99.172778
 20
53.8452878
 42
0.0
  0
VERTEX
  8
0
 10
99.300794
 20
53.9624072
 42
0.0
  0
VERTEX
  8
0
 10
99.414078
 20
54.0933188
 42
0.0
  0
VERTEX
  8
0
 10
99.515932
 20
54.2352794
 42
0.0
  0
VERTEX
  8
0
 10
99.601276
 20
54.385495
 42
0.0
  0
VERTEX
  8
0
 10
99.67011
 20
54.5453372
 42
0.0
  0
VERTEX
  8
0
 10
99.724212
 20
54.7106912
 42
0.0
  0
VERTEX
  8
0
 10
99.739198
 20
54.7837416
 42
0.0
  0
VERTEX
  8
0
 10
99.759772
 20
54.8815824
 42
0.0
  0
VERTEX
  8
0
 10
99.777806
 20
55.0538452
 42
0.0
  0
VERTEX
  8
0
 10
99.777806
 20
55.2274796
 42
0.0
  0
VERTEX
  8
0
 10
99.759772
 20
55.401114
 42
0.0
  0
VERTEX
  8
0
 10
99.724212
 20
55.5705828
 42
0.0
  0
VERTEX
  8
0
 10
99.67011
 20
55.7373338
 42
0.0
  0
VERTEX
  8
0
 10
99.601276
 20
55.8958044
 42
0.0
  0
VERTEX
  8
0
 10
99.515932
 20
56.0473916
 42
0.0
  0
VERTEX
  8
0
 10
99.414078
 20
56.1893268
 42
0.0
  0
VERTEX
  8
0
 10
99.300794
 20
56.3202384
 42
0.0
  0
VERTEX
  8
0
 10
99.172778
 20
56.4373832
 42
0.0
  0
VERTEX
  8
0
 10
99.03384
 20
56.5421074
 42
0.0
  0
VERTEX
  8
0
 10
98.884996
 20
56.6316678
 42
0.0
  0
VERTEX
  8
0
 10
98.764854
 20
56.6868112
 42
0.0
  0
VERTEX
  8
0
 10
98.727516
 20
56.7047182
 42
0.0
  0
VERTEX
  8
0
 10
98.562416
 20
56.7625794
 42
0.0
  0
VERTEX
  8
0
 10
98.392744
 20
56.802559
 42
0.0
  0
VERTEX
  8
0
 10
98.222056
 20
56.8246062
 42
0.0
  0
VERTEX
  8
0
 10
98.04705
 20
56.828721
 42
0.0
  0
VERTEX
  8
0
 10
97.874584
 20
56.8163512
 42
0.0
  0
VERTEX
  8
0
 10
97.741234
 20
56.7915354
 42
0.0
  0
VERTEX
  8
0
 10
97.703896
 20
56.7846266
 42
0.0
  0
VERTEX
  8
0
 10
97.537018
 20
56.7364174
 42
0.0
  0
VERTEX
  8
0
 10
97.375728
 20
56.6716474
 42
0.0
  0
VERTEX
  8
0
 10
97.22155
 20
56.5889704
 42
0.0
  0
VERTEX
  8
0
 10
97.077024
 20
56.4925012
 42
0.0
  0
VERTEX
  8
0
 10
96.94469
 20
56.3794966
 42
0.0
  0
VERTEX
  8
0
 10
96.821754
 20
56.2554684
 42
0.0
  0
VERTEX
  8
0
 10
96.717106
 20
56.1231598
 42
0.0
  0
VERTEX
  8
0
 10
96.714312
 20
56.1204166
 42
0.0
  0
VERTEX
  8
0
 10
96.62211
 20
55.972995
 42
0.0
  0
VERTEX
  8
0
 10
96.543624
 20
55.8172676
 42
0.0
  0
VERTEX
  8
0
 10
96.482918
 20
55.6546568
 42
0.0
  0
VERTEX
  8
0
 10
96.438722
 20
55.4865596
 42
0.0
  0
VERTEX
  8
0
 10
96.41129
 20
55.3156684
 42
0.0
  0
VERTEX
  8
0
 10
96.403162
 20
55.1406624
 42
0.0
  0
VERTEX
  8
0
 10
96.41129
 20
54.9683996
 42
0.0
  0
VERTEX
  8
0
 10
96.438722
 20
54.7961368
 42
0.0
  0
VERTEX
  8
0
 10
96.441516
 20
54.7837416
 42
0.0
  0
VERTEX
  8
0
 10
96.482918
 20
54.6280396
 42
0.0
  0
VERTEX
  8
0
 10
96.543624
 20
54.4654034
 42
0.0
  0
VERTEX
  8
0
 10
96.62211
 20
54.309676
 42
0.0
  0
VERTEX
  8
0
 10
96.714312
 20
54.163626
 42
0.0
  0
VERTEX
  8
0
 10
96.821754
 20
54.0271772
 42
0.0
  0
VERTEX
  8
0
 10
96.94469
 20
53.9018028
 42
0.0
  0
VERTEX
  8
0
 10
97.077024
 20
53.7915668
 42
0.0
  0
VERTEX
  8
0
 10
97.22155
 20
53.6937006
 42
0.0
  0
VERTEX
  8
0
 10
97.375728
 20
53.6124206
 42
0.0
  0
VERTEX
  8
0
 10
97.537018
 20
53.547676
 42
0.0
  0
VERTEX
  8
0
 10
97.703896
 20
53.497892
 42
0.0
  0
VERTEX
  8
0
 10
97.741234
 20
53.491034
 42
0.0
  0
VERTEX
  8
0
 10
97.874584
 20
53.466396
 42
0.0
  0
VERTEX
  8
0
 10
98.04705
 20
53.45395
 42
0.0
  0
VERTEX
  8
0
 10
98.222056
 20
53.458014
 42
0.0
  0
VERTEX
  8
0
 10
98.392744
 20
53.480112
 42
0.0
  0
VERTEX
  8
0
 10
98.562416
 20
53.51999
 42
0.0
  0
VERTEX
  8
0
 10
98.727516
 20
53.576632
 42
0.0
  0
SEQEND
  0
POLYLINE
  8
0
 66
     1
 10
0.0
 20
0.0
 30
0.0
 70
     1
  0
VERTEX
  8
0
 10
69.612512
 20
54.6404094
 42
0.0
  0
VERTEX
  8
0
 10
69.641468
 20
54.7837416
 42
0.0
  0
VERTEX
  8
0
 10
69.647056
 20
54.809929
 42
0.0
  0
VERTEX
  8
0
 10
69.66509
 20
54.9835634
 42
0.0
  0
VERTEX
  8
0
 10
69.66509
 20
55.1571978
 42
0.0
  0
VERTEX
  8
0
 10
69.647056
 20
55.3294098
 42
0.0
  0
VERTEX
  8
0
 10
69.612512
 20
55.500301
 42
0.0
  0
VERTEX
  8
0
 10
69.558918
 20
55.6656804
 42
0.0
  0
VERTEX
  8
0
 10
69.490084
 20
55.8255226
 42
0.0
  0
VERTEX
  8
0
 10
69.404232
 20
55.9757382
 42
0.0
  0
VERTEX
  8
0
 10
69.303902
 20
56.1176734
 42
0.0
  0
VERTEX
  8
0
 10
69.188078
 20
56.248585
 42
0.0
  0
VERTEX
  8
0
 10
69.06946
 20
56.358821
 42
0.0
  0
VERTEX
  8
0
 10
69.061332
 20
56.3657044
 42
0.0
  0
VERTEX
  8
0
 10
68.92214
 20
56.470454
 42
0.0
  0
VERTEX
  8
0
 10
68.773296
 20
56.5600144
 42
0.0
  0
VERTEX
  8
0
 10
68.6148
 20
56.6344618
 42
0.0
  0
VERTEX
  8
0
 10
68.450716
 20
56.690926
 42
0.0
  0
VERTEX
  8
0
 10
68.282822
 20
56.7309056
 42
0.0
  0
VERTEX
  8
0
 10
68.108832
 20
56.7529528
 42
0.0
  0
VERTEX
  8
0
 10
67.936874
 20
56.7584646
 42
0.0
  0
VERTEX
  8
0
 10
67.761868
 20
56.7446978
 42
0.0
  0
VERTEX
  8
0
 10
67.590926
 20
56.7129732
 42
0.0
  0
VERTEX
  8
0
 10
67.424302
 20
56.664764
 42
0.0
  0
VERTEX
  8
0
 10
67.263012
 20
56.5986224
 42
0.0
  0
VERTEX
  8
0
 10
67.10985
 20
56.5172916
 42
0.0
  0
VERTEX
  8
0
 10
67.021712
 20
56.4566872
 42
0.0
  0
VERTEX
  8
0
 10
66.966594
 20
56.4194762
 42
0.0
  0
VERTEX
  8
0
 10
66.83299
 20
56.3092402
 42
0.0
  0
VERTEX
  8
0
 10
66.711832
 20
56.1851866
 42
0.0
  0
VERTEX
  8
0
 10
66.602866
 20
56.0473916
 42
0.0
  0
VERTEX
  8
0
 10
66.51041
 20
55.9013162
 42
0.0
  0
VERTEX
  8
0
 10
66.432178
 20
55.7455888
 42
0.0
  0
VERTEX
  8
0
 10
66.371472
 20
55.5830034
 42
0.0
  0
VERTEX
  8
0
 10
66.326006
 20
55.4148554
 42
0.0
  0
VERTEX
  8
0
 10
66.30086
 20
55.244015
 42
0.0
  0
VERTEX
  8
0
 10
66.291462
 20
55.0703806
 42
0.0
  0
VERTEX
  8
0
 10
66.30086
 20
54.8953746
 42
0.0
  0
VERTEX
  8
0
 10
66.317624
 20
54.7837416
 42
0.0
  0
VERTEX
  8
0
 10
66.326006
 20
54.7244834
 42
0.0
  0
VERTEX
  8
0
 10
66.371472
 20
54.5563354
 42
0.0
  0
VERTEX
  8
0
 10
66.432178
 20
54.39375
 42
0.0
  0
VERTEX
  8
0
 10
66.51041
 20
54.2380226
 42
0.0
  0
VERTEX
  8
0
 10
66.602866
 20
54.0919472
 42
0.0
  0
VERTEX
  8
0
 10
66.711832
 20
53.9555238
 42
0.0
  0
VERTEX
  8
0
 10
66.83299
 20
53.8314956
 42
0.0
  0
VERTEX
  8
0
 10
66.966594
 20
53.7198626
 42
0.0
  0
VERTEX
  8
0
 10
67.021712
 20
53.6827024
 42
0.0
  0
VERTEX
  8
0
 10
67.10985
 20
53.6220472
 42
0.0
  0
VERTEX
  8
0
 10
67.263012
 20
53.540818
 42
0.0
  0
VERTEX
  8
0
 10
67.424302
 20
53.474524
 42
0.0
  0
VERTEX
  8
0
 10
67.590926
 20
53.426264
 42
0.0
  0
VERTEX
  8
0
 10
67.761868
 20
53.396038
 42
0.0
  0
VERTEX
  8
0
 10
67.936874
 20
53.382322
 42
0.0
  0
VERTEX
  8
0
 10
68.108832
 20
53.386386
 42
0.0
  0
VERTEX
  8
0
 10
68.282822
 20
53.408484
 42
0.0
  0
VERTEX
  8
0
 10
68.450716
 20
53.448362
 42
0.0
  0
VERTEX
  8
0
 10
68.6148
 20
53.506274
 42
0.0
  0
VERTEX
  8
0
 10
68.773296
 20
53.579426
 42
0.0
  0
VERTEX
  8
0
 10
68.92214
 20
53.6688848
 42
0.0
  0
VERTEX
  8
0
 10
69.061332
 20
53.7736344
 42
0.0
  0
VERTEX
  8
0
 10
69.06946
 20
53.7805178
 42
0.0
  0
VERTEX
  8
0
 10
69.188078
 20
53.8921254
 42
0.0
  0
VERTEX
  8
0
 10
69.303902
 20
54.0216654
 42
0.0
  0
VERTEX
  8
0
 10
69.404232
 20
54.163626
 42
0.0
  0
VERTEX
  8
0
 10
69.490084
 20
54.3151878
 42
0.0
  0
VERTEX
  8
0
 10
69.558918
 20
54.4736838
 42
0.0
  0
SEQEND
  0
POLYLINE
  8
0
 66
     1
 10
0.0
 20
0.0
 30
0.0
 70
     1
  0
VERTEX
  8
0
 10
51.139854
 20
53.452426
 42
0.0
  0
VERTEX
  8
0
 10
51.398934
 20
53.514656
 42
0.0
  0
VERTEX
  8
0
 10
51.646838
 20
53.617907
 42
0.0
  0
VERTEX
  8
0
 10
51.874422
 20
53.757099
 42
0.0
  0
VERTEX
  8
0
 10
52.07686
 20
53.9307334
 42
0.0
  0
VERTEX
  8
0
 10
52.250596
 20
54.13467
 42
0.0
  0
VERTEX
  8
0
 10
52.389788
 20
54.3620762
 42
0.0
  0
VERTEX
  8
0
 10
52.491896
 20
54.607364
 42
0.0
  0
VERTEX
  8
0
 10
52.534568
 20
54.7837416
 42
0.0
  0
VERTEX
  8
0
 10
52.555396
 20
54.8677648
 42
0.0
  0
VERTEX
  8
0
 10
52.575716
 20
55.1351506
 42
0.0
  0
VERTEX
  8
0
 10
52.555396
 20
55.401114
 42
0.0
  0
VERTEX
  8
0
 10
52.491896
 20
55.6615148
 42
0.0
  0
VERTEX
  8
0
 10
52.389788
 20
55.9068534
 42
0.0
  0
VERTEX
  8
0
 10
52.250596
 20
56.1355804
 42
0.0
  0
VERTEX
  8
0
 10
52.07686
 20
56.3381454
 42
0.0
  0
VERTEX
  8
0
 10
51.874422
 20
56.5117798
 42
0.0
  0
VERTEX
  8
0
 10
51.646838
 20
56.6509718
 42
0.0
  0
VERTEX
  8
0
 10
51.398934
 20
56.7543244
 42
0.0
  0
VERTEX
  8
0
 10
51.139854
 20
56.8163512
 42
0.0
  0
VERTEX
  8
0
 10
50.873916
 20
56.8370268
 42
0.0
  0
VERTEX
  8
0
 10
50.636934
 20
56.8177228
 42
0.0
  0
VERTEX
  8
0
 10
50.607978
 20
56.8163512
 42
0.0
  0
VERTEX
  8
0
 10
50.347628
 20
56.7543244
 42
0.0
  0
VERTEX
  8
0
 10
50.100994
 20
56.6509718
 42
0.0
  0
VERTEX
  8
0
 10
49.87214
 20
56.5117798
 42
0.0
  0
VERTEX
  8
0
 10
49.669448
 20
56.3381454
 42
0.0
  0
VERTEX
  8
0
 10
49.495966
 20
56.1355804
 42
0.0
  0
VERTEX
  8
0
 10
49.356774
 20
55.9068534
 42
0.0
  0
VERTEX
  8
0
 10
49.254666
 20
55.6615148
 42
0.0
  0
VERTEX
  8
0
 10
49.19269
 20
55.401114
 42
0.0
  0
VERTEX
  8
0
 10
49.172116
 20
55.1351506
 42
0.0
  0
VERTEX
  8
0
 10
49.19269
 20
54.8677648
 42
0.0
  0
VERTEX
  8
0
 10
49.211994
 20
54.7837416
 42
0.0
  0
VERTEX
  8
0
 10
49.254666
 20
54.607364
 42
0.0
  0
VERTEX
  8
0
 10
49.356774
 20
54.3620762
 42
0.0
  0
VERTEX
  8
0
 10
49.495966
 20
54.13467
 42
0.0
  0
VERTEX
  8
0
 10
49.669448
 20
53.9307334
 42
0.0
  0
VERTEX
  8
0
 10
49.87214
 20
53.757099
 42
0.0
  0
VERTEX
  8
0
 10
50.100994
 20
53.617907
 42
0.0
  0
VERTEX
  8
0
 10
50.347628
 20
53.514656
 42
0.0
  0
VERTEX
  8
0
 10
50.607978
 20
53.452426
 42
0.0
  0
VERTEX
  8
0
 10
50.636934
 20
53.451156
 42
0.0
  0
VERTEX
  8
0
 10
50.873916
 20
53.431852
 42
0.0
  0
SEQEND
  0
POLYLINE
  8
0
 66
     1
 10
0.0
 20
0.0
 30
0.0
 70
     1
  0
VERTEX
  8
0
 10
32.823152
 20
52.096574
 42
0.0
  0
VERTEX
  8
0
 10
32.823152
 20
50.57105
 42
0.0
  0
VERTEX
  8
0
 10
40.382954
 20
50.57105
 42
0.0
  0
VERTEX
  8
0
 10
40.382954
 20
52.096574
 42
0.0
  0
SEQEND
  0
POLYLINE
  8
0
 66
     1
 10
0.0
 20
0.0
 30
0.0
 70
     1
  0
VERTEX
  8
0
 10
19.0151024
 20
52.008436
 42
0.0
  0
VERTEX
  8
0
 10
19.0151024
 20
50.499422
 42
0.0
  0
VERTEX
  8
0
 10
25.044021
 20
50.499422
 42
0.0
  0
VERTEX
  8
0
 10
25.044021
 20
52.023422
 42
0.0
  0
VERTEX
  8
0
 10
19.0151024
 20
52.023422
 42
0.0
  0
SEQEND
  0
POLYLINE
  8
0
 66
     1
 10
0.0
 20
0.0
 30
0.0
 70
     1
  0
VERTEX
  8
0
 10
11.6770424
 20
53.6220472
 42
0.0
  0
VERTEX
  8
0
 10
11.9030516
 20
53.7612138
 42
0.0
  0
VERTEX
  8
0
 10
12.1069882
 20
53.9348482
 42
0.0
  0
VERTEX
  8
0
 10
12.279251
 20
54.1374132
 42
0.0
  0
VERTEX
  8
0
 10
12.4184176
 20
54.3648194
 42
0.0
  0
VERTEX
  8
0
 10
12.5217956
 20
54.6114788
 42
0.0
  0
VERTEX
  8
0
 10
12.563096
 20
54.7837416
 42
0.0
  0
VERTEX
  8
0
 10
12.5837716
 20
54.8705588
 42
0.0
  0
VERTEX
  8
0
 10
12.6044472
 20
55.1365222
 42
0.0
  0
VERTEX
  8
0
 10
12.5837716
 20
55.4024856
 42
0.0
  0
VERTEX
  8
0
 10
12.5217956
 20
55.6615148
 42
0.0
  0
VERTEX
  8
0
 10
12.4184176
 20
55.9095966
 42
0.0
  0
VERTEX
  8
0
 10
12.279251
 20
56.1355804
 42
0.0
  0
VERTEX
  8
0
 10
12.1069882
 20
56.3395424
 42
0.0
  0
VERTEX
  8
0
 10
11.9030516
 20
56.5117798
 42
0.0
  0
VERTEX
  8
0
 10
11.7252516
 20
56.6220412
 42
0.0
  0
VERTEX
  8
0
 10
11.6770424
 20
56.6523434
 42
0.0
  0
VERTEX
  8
0
 10
11.428986
 20
56.7543244
 42
0.0
  0
VERTEX
  8
0
 10
11.169906
 20
56.8163512
 42
0.0
  0
VERTEX
  8
0
 10
10.9039426
 20
56.8370268
 42
0.0
  0
VERTEX
  8
0
 10
10.6380046
 20
56.8163512
 42
0.0
  0
VERTEX
  8
0
 10
10.3789246
 20
56.7543244
 42
0.0
  0
VERTEX
  8
0
 10
10.1322398
 20
56.6523434
 42
0.0
  0
VERTEX
  8
0
 10
9.9048844
 20
56.5117798
 42
0.0
  0
VERTEX
  8
0
 10
9.7023194
 20
56.3395424
 42
0.0
  0
VERTEX
  8
0
 10
9.677529
 20
56.3092402
 42
0.0
  0
VERTEX
  8
0
 10
9.528685
 20
56.1355804
 42
0.0
  0
VERTEX
  8
0
 10
9.3895184
 20
55.9095966
 42
0.0
  0
VERTEX
  8
0
 10
9.2875374
 20
55.6615148
 42
0.0
  0
VERTEX
  8
0
 10
9.2255106
 20
55.4024856
 42
0.0
  0
VERTEX
  8
0
 10
9.204835
 20
55.1365222
 42
0.0
  0
VERTEX
  8
0
 10
9.2255106
 20
54.8705588
 42
0.0
  0
VERTEX
  8
0
 10
9.2875374
 20
54.6114788
 42
0.0
  0
VERTEX
  8
0
 10
9.3895184
 20
54.3648194
 42
0.0
  0
VERTEX
  8
0
 10
9.528685
 20
54.1374132
 42
0.0
  0
VERTEX
  8
0
 10
9.7023194
 20
53.9348482
 42
0.0
  0
VERTEX
  8
0
 10
9.9048844
 20
53.7612138
 42
0.0
  0
VERTEX
  8
0
 10
10.1322398
 20
53.6220472
 42
0.0
  0
VERTEX
  8
0
 10
10.3789246
 20
53.51999
 42
0.0
  0
VERTEX
  8
0
 10
10.6380046
 20
53.456744
 42
0.0
  0
VERTEX
  8
0
 10
10.9039426
 20
53.43744
 42
0.0
  0
VERTEX
  8
0
 10
11.169906
 20
53.456744
 42
0.0
  0
VERTEX
  8
0
 10
11.428986
 20
53.51999
 42
0.0
  0
SEQEND
  0
POLYLINE
  8
0
 66
     1
 10
0.0
 20
0.0
 30
0.0
 70
     1
  0
VERTEX
  8
0
 10
141.6398
 20
50.143822
 42
0.0
  0
VERTEX
  8
0
 10
141.633196
 20
49.977198
 42
0.0
  0
VERTEX
  8
0
 10
141.6398
 20
49.81032
 42
0.0
  0
VERTEX
  8
0
 10
141.661898
 20
49.66427
 42
0.0
  0
VERTEX
  8
0
 10
141.664438
 20
49.644966
 42
0.0
  0
VERTEX
  8
0
 10
141.706094
 20
49.482406
 42
0.0
  0
VERTEX
  8
0
 10
141.761212
 20
49.326704
 42
0.0
  0
VERTEX
  8
0
 10
141.83284
 20
49.175066
 42
0.0
  0
VERTEX
  8
0
 10
141.919454
 20
49.03054
 42
0.0
  0
VERTEX
  8
0
 10
142.018768
 20
48.896682
 42
0.0
  0
VERTEX
  8
0
 10
142.130528
 20
48.77273
 42
0.0
  0
VERTEX
  8
0
 10
142.254226
 20
48.661224
 42
0.0
  0
VERTEX
  8
0
 10
142.283182
 20
48.640396
 42
0.0
  0
VERTEX
  8
0
 10
142.388084
 20
48.56191
 42
0.0
  0
VERTEX
  8
0
 10
142.53261
 20
48.476566
 42
0.0
  0
VERTEX
  8
0
 10
142.578076
 20
48.454468
 42
0.0
  0
VERTEX
  8
0
 10
142.682978
 20
48.403414
 42
0.0
  0
VERTEX
  8
0
 10
142.797278
 20
48.363536
 42
0.0
  0
VERTEX
  8
0
 10
142.83995
 20
48.348296
 42
0.0
  0
VERTEX
  8
0
 10
143.00251
 20
48.308418
 42
0.0
  0
VERTEX
  8
0
 10
143.168118
 20
48.283526
 42
0.0
  0
VERTEX
  8
0
 10
143.334996
 20
48.275144
 42
0.0
  0
VERTEX
  8
0
 10
143.501366
 20
48.283526
 42
0.0
  0
VERTEX
  8
0
 10
143.666974
 20
48.308418
 42
0.0
  0
VERTEX
  8
0
 10
143.82801
 20
48.348296
 42
0.0
  0
VERTEX
  8
0
 10
143.986506
 20
48.403414
 42
0.0
  0
VERTEX
  8
0
 10
144.091154
 20
48.454468
 42
0.0
  0
VERTEX
  8
0
 10
144.136874
 20
48.476566
 42
0.0
  0
VERTEX
  8
0
 10
144.279876
 20
48.56191
 42
0.0
  0
VERTEX
  8
0
 10
144.386302
 20
48.640396
 42
0.0
  0
VERTEX
  8
0
 10
144.413734
 20
48.661224
 42
0.0
  0
VERTEX
  8
0
 10
144.53794
 20
48.77273
 42
0.0
  0
VERTEX
  8
0
 10
144.650716
 20
48.896682
 42
0.0
  0
VERTEX
  8
0
 10
144.749776
 20
49.03054
 42
0.0
  0
VERTEX
  8
0
 10
144.836898
 20
49.175066
 42
0.0
  0
VERTEX
  8
0
 10
144.845026
 20
49.19437
 42
0.0
  0
VERTEX
  8
0
 10
144.907256
 20
49.326704
 42
0.0
  0
VERTEX
  8
0
 10
144.963644
 20
49.482406
 42
0.0
  0
VERTEX
  8
0
 10
145.005046
 20
49.644966
 42
0.0
  0
VERTEX
  8
0
 10
145.028668
 20
49.81032
 42
0.0
  0
VERTEX
  8
0
 10
145.038066
 20
49.977198
 42
0.0
  0
VERTEX
  8
0
 10
145.028668
 20
50.143822
 42
0.0
  0
VERTEX
  8
0
 10
145.005046
 20
50.309176
 42
0.0
  0
VERTEX
  8
0
 10
144.963644
 20
50.471736
 42
0.0
  0
VERTEX
  8
0
 10
144.907256
 20
50.628962
 42
0.0
  0
VERTEX
  8
0
 10
144.879824
 20
50.688144
 42
0.0
  0
VERTEX
  8
0
 10
144.845026
 20
50.761296
 42
0.0
  0
VERTEX
  8
0
 10
144.836898
 20
50.7806
 42
0.0
  0
VERTEX
  8
0
 10
144.749776
 20
50.922586
 42
0.0
  0
VERTEX
  8
0
 10
144.650716
 20
51.05746
 42
0.0
  0
VERTEX
  8
0
 10
144.53794
 20
51.181412
 42
0.0
  0
VERTEX
  8
0
 10
144.413734
 20
51.293172
 42
0.0
  0
VERTEX
  8
0
 10
144.279876
 20
51.392486
 42
0.0
  0
VERTEX
  8
0
 10
144.136874
 20
51.4791
 42
0.0
  0
VERTEX
  8
0
 10
143.986506
 20
51.549458
 42
0.0
  0
VERTEX
  8
0
 10
143.82801
 20
51.60737
 42
0.0
  0
VERTEX
  8
0
 10
143.821406
 20
51.60864
 42
0.0
  0
VERTEX
  8
0
 10
143.666974
 20
51.647248
 42
0.0
  0
VERTEX
  8
0
 10
143.501366
 20
51.67214
 42
0.0
  0
VERTEX
  8
0
 10
143.334996
 20
51.680522
 42
0.0
  0
VERTEX
  8
0
 10
143.168118
 20
51.67214
 42
0.0
  0
VERTEX
  8
0
 10
143.00251
 20
51.647248
 42
0.0
  0
VERTEX
  8
0
 10
142.83995
 20
51.60737
 42
0.0
  0
VERTEX
  8
0
 10
142.797278
 20
51.59086
 42
0.0
  0
VERTEX
  8
0
 10
142.682978
 20
51.549458
 42
0.0
  0
VERTEX
  8
0
 10
142.53261
 20
51.4791
 42
0.0
  0
VERTEX
  8
0
 10
142.388084
 20
51.392486
 42
0.0
  0
VERTEX
  8
0
 10
142.254226
 20
51.293172
 42
0.0
  0
VERTEX
  8
0
 10
142.130528
 20
51.181412
 42
0.0
  0
VERTEX
  8
0
 10
142.018768
 20
51.05746
 42
0.0
  0
VERTEX
  8
0
 10
141.919454
 20
50.922586
 42
0.0
  0
VERTEX
  8
0
 10
141.83284
 20
50.7806
 42
0.0
  0
VERTEX
  8
0
 10
141.790168
 20
50.688144
 42
0.0
  0
VERTEX
  8
0
 10
141.761212
 20
50.628962
 42
0.0
  0
VERTEX
  8
0
 10
141.706094
 20
50.471736
 42
0.0
  0
VERTEX
  8
0
 10
141.664438
 20
50.309176
 42
0.0
  0
SEQEND
  0
POLYLINE
  8
0
 66
     1
 10
0.0
 20
0.0
 30
0.0
 70
     1
  0
VERTEX
  8
0
 10
165.319966
 20
49.81032
 42
0.0
  0
VERTEX
  8
0
 10
165.311838
 20
49.644966
 42
0.0
  0
VERTEX
  8
0
 10
165.319966
 20
49.479612
 42
0.0
  0
VERTEX
  8
0
 10
165.325554
 20
49.441004
 42
0.0
  0
VERTEX
  8
0
 10
165.344604
 20
49.315782
 42
0.0
  0
VERTEX
  8
0
 10
165.38499
 20
49.154492
 42
0.0
  0
VERTEX
  8
0
 10
165.441378
 20
48.997266
 42
0.0
  0
VERTEX
  8
0
 10
165.513006
 20
48.848422
 42
0.0
  0
VERTEX
  8
0
 10
165.59835
 20
48.70669
 42
0.0
  0
VERTEX
  8
0
 10
165.648134
 20
48.640396
 42
0.0
  0
VERTEX
  8
0
 10
165.698934
 20
48.571562
 42
0.0
  0
VERTEX
  8
0
 10
165.810694
 20
48.44888
 42
0.0
  0
VERTEX
  8
0
 10
165.934646
 20
48.338644
 42
0.0
  0
VERTEX
  8
0
 10
166.06825
 20
48.23933
 42
0.0
  0
VERTEX
  8
0
 10
166.211506
 20
48.153986
 42
0.0
  0
VERTEX
  8
0
 10
166.361874
 20
48.082358
 42
0.0
  0
VERTEX
  8
0
 10
166.520116
 20
48.02724
 42
0.0
  0
VERTEX
  8
0
 10
166.682676
 20
47.985838
 42
0.0
  0
VERTEX
  8
0
 10
166.84676
 20
47.96247
 42
0.0
  0
VERTEX
  8
0
 10
167.015162
 20
47.954088
 42
0.0
  0
VERTEX
  8
0
 10
167.181532
 20
47.96247
 42
0.0
  0
VERTEX
  8
0
 10
167.345616
 20
47.985838
 42
0.0
  0
VERTEX
  8
0
 10
167.373302
 20
47.992696
 42
0.0
  0
VERTEX
  8
0
 10
167.508176
 20
48.02724
 42
0.0
  0
VERTEX
  8
0
 10
167.665656
 20
48.082358
 42
0.0
  0
VERTEX
  8
0
 10
167.81704
 20
48.153986
 42
0.0
  0
VERTEX
  8
0
 10
167.960296
 20
48.23933
 42
0.0
  0
VERTEX
  8
0
 10
168.0939
 20
48.338644
 42
0.0
  0
VERTEX
  8
0
 10
168.218106
 20
48.44888
 42
0.0
  0
VERTEX
  8
0
 10
168.330882
 20
48.571562
 42
0.0
  0
VERTEX
  8
0
 10
168.380666
 20
48.640396
 42
0.0
  0
VERTEX
  8
0
 10
168.428926
 20
48.70669
 42
0.0
  0
VERTEX
  8
0
 10
168.515794
 20
48.848422
 42
0.0
  0
VERTEX
  8
0
 10
168.587422
 20
48.997266
 42
0.0
  0
VERTEX
  8
0
 10
168.64381
 20
49.154492
 42
0.0
  0
VERTEX
  8
0
 10
168.683688
 20
49.315782
 42
0.0
  0
VERTEX
  8
0
 10
168.708834
 20
49.479612
 42
0.0
  0
VERTEX
  8
0
 10
168.716962
 20
49.644966
 42
0.0
  0
VERTEX
  8
0
 10
168.708834
 20
49.81032
 42
0.0
  0
VERTEX
  8
0
 10
168.683688
 20
49.974404
 42
0.0
  0
VERTEX
  8
0
 10
168.64381
 20
50.135694
 42
0.0
  0
VERTEX
  8
0
 10
168.587422
 20
50.292666
 42
0.0
  0
VERTEX
  8
0
 10
168.515794
 20
50.443034
 42
0.0
  0
VERTEX
  8
0
 10
168.428926
 20
50.584766
 42
0.0
  0
VERTEX
  8
0
 10
168.353234
 20
50.688144
 42
0.0
  0
VERTEX
  8
0
 10
168.330882
 20
50.718624
 42
0.0
  0
VERTEX
  8
0
 10
168.218106
 20
50.842576
 42
0.0
  0
VERTEX
  8
0
 10
168.0939
 20
50.952812
 42
0.0
  0
VERTEX
  8
0
 10
167.960296
 20
51.051872
 42
0.0
  0
VERTEX
  8
0
 10
167.81704
 20
51.13747
 42
0.0
  0
VERTEX
  8
0
 10
167.665656
 20
51.207828
 42
0.0
  0
VERTEX
  8
0
 10
167.508176
 20
51.264216
 42
0.0
  0
VERTEX
  8
0
 10
167.373302
 20
51.29876
 42
0.0
  0
VERTEX
  8
0
 10
167.345616
 20
51.305618
 42
0.0
  0
VERTEX
  8
0
 10
167.181532
 20
51.328986
 42
0.0
  0
VERTEX
  8
0
 10
167.015162
 20
51.337368
 42
0.0
  0
VERTEX
  8
0
 10
166.84676
 20
51.328986
 42
0.0
  0
VERTEX
  8
0
 10
166.682676
 20
51.305618
 42
0.0
  0
VERTEX
  8
0
 10
166.520116
 20
51.264216
 42
0.0
  0
VERTEX
  8
0
 10
166.361874
 20
51.207828
 42
0.0
  0
VERTEX
  8
0
 10
166.211506
 20
51.13747
 42
0.0
  0
VERTEX
  8
0
 10
166.06825
 20
51.051872
 42
0.0
  0
VERTEX
  8
0
 10
165.934646
 20
50.952812
 42
0.0
  0
VERTEX
  8
0
 10
165.810694
 20
50.842576
 42
0.0
  0
VERTEX
  8
0
 10
165.698934
 20
50.718624
 42
0.0
  0
VERTEX
  8
0
 10
165.675566
 20
50.688144
 42
0.0
  0
VERTEX
  8
0
 10
165.59835
 20
50.584766
 42
0.0
  0
VERTEX
  8
0
 10
165.513006
 20
50.443034
 42
0.0
  0
VERTEX
  8
0
 10
165.441378
 20
50.292666
 42
0.0
  0
VERTEX
  8
0
 10
165.38499
 20
50.135694
 42
0.0
  0
VERTEX
  8
0
 10
165.344604
 20
49.974404
 42
0.0
  0
VERTEX
  8
0
 10
165.325554
 20
49.850452
 42
0.0
  0
SEQEND
  0
POLYLINE
  8
0
 66
     1
 10
0.0
 20
0.0
 30
0.0
 70
     1
  0
VERTEX
  8
0
 10
20.8575422
 20
35.109562
 42
0.0
  0
VERTEX
  8
0
 10
23.7527866
 20
40.125554
 42
0.0
  0
VERTEX
  8
0
 10
22.3844124
 20
42.495628
 42
0.0
  0
VERTEX
  8
0
 10
20.8575422
 20
45.141546
 42
0.0
  0
VERTEX
  8
0
 10
14.9333478
 20
45.141546
 42
0.0
  0
VERTEX
  8
0
 10
13.4064776
 20
42.495628
 42
0.0
  0
VERTEX
  8
0
 10
12.0381034
 20
40.125554
 42
0.0
  0
VERTEX
  8
0
 10
14.9333478
 20
35.109562
 42
0.0
  0
SEQEND
  0
POLYLINE
  8
0
 66
     1
 10
0.0
 20
0.0
 30
0.0
 70
     1
  0
VERTEX
  8
0
 10
32.690818
 20
47.59036
 42
0.0
  0
VERTEX
  8
0
 10
22.6999566
 20
47.59036
 42
0.0
  0
VERTEX
  8
0
 10
22.6944702
 20
47.579438
 42
0.0
  0
VERTEX
  8
0
 10
25.1942112
 20
43.247976
 42
0.0
  0
VERTEX
  8
0
 10
30.196538
 20
43.247976
 42
0.0
  0
VERTEX
  8
0
 10
32.697676
 20
47.579438
 42
0.0
  0
SEQEND
  0
POLYLINE
  8
0
 66
     1
 10
0.0
 20
0.0
 30
0.0
 70
     1
  0
VERTEX
  8
0
 10
112.22924742752
 20
6.5632823316991
 42
0.0
  0
VERTEX
  8
0
 10
112.136449894864
 20
6.5411306626135
 42
0.0
  0
VERTEX
  8
0
 10
112.015350475415
 20
6.5101074405525
 42
0.0
  0
VERTEX
  8
0
 10
111.796827253354
 20
6.4776419107992
 42
0.0
  0
VERTEX
  8
0
 10
111.576943363659
 20
6.4672736234262
 42
0.0
  0
VERTEX
  8
0
 10
111.355426672803
 20
6.4776419107992
 42
0.0
  0
VERTEX
  8
0
 10
111.136903450742
 20
6.5101074405525
 42
0.0
  0
VERTEX
  8
0
 10
110.92273436511
 20
6.5632823316991
 42
0.0
  0
VERTEX
  8
0
 10
110.715912884704
 20
6.6385816785786
 42
0.0
  0
VERTEX
  8
0
 10
110.516711143049
 20
6.7330664391011
 42
0.0
  0
VERTEX
  8
0
 10
110.326217674254
 20
6.8467638266193
 42
0.0
  0
VERTEX
  8
0
 10
110.149058748274
 20
6.976653158985
 42
0.0
  0
VERTEX
  8
0
 10
109.985506498637
 20
7.1257551183464
 42
0.0
  0
VERTEX
  8
0
 10
109.942781534922
 20
7.1730247119603
 42
0.0
  0
VERTEX
  8
0
 10
109.836105192396
 20
7.2896611415685
 42
0.0
  0
VERTEX
  8
0
 10
109.704936832454
 20
7.4668472809008
 42
0.0
  0
VERTEX
  8
0
 10
109.592545685865
 20
7.6572863229908
 42
0.0
  0
VERTEX
  8
0
 10
109.496754684414
 20
7.8565969180561
 42
0.0
  0
VERTEX
  8
0
 10
109.423006498637
 20
8.0633095450518
 42
0.0
  0
VERTEX
  8
0
 10
109.369668327375
 20
8.2773697772724
 42
0.0
  0
VERTEX
  8
0
 10
109.363681389784
 20
8.3172645523087
 42
0.0
  0
VERTEX
  8
0
 10
109.337284437679
 20
8.4958929993333
 42
0.0
  0
VERTEX
  8
0
 10
109.326943363659
 20
8.717382476837
 42
0.0
  0
VERTEX
  8
0
 10
109.337284437679
 20
8.9373480065902
 42
0.0
  0
VERTEX
  8
0
 10
109.369668327375
 20
9.1558440152985
 42
0.0
  0
VERTEX
  8
0
 10
109.423006498637
 20
9.3699314608718
 42
0.0
  0
VERTEX
  8
0
 10
109.496754684414
 20
9.5781136089124
 42
0.0
  0
VERTEX
  8
0
 10
109.592545685865
 20
9.7774514173304
 42
0.0
  0
VERTEX
  8
0
 10
109.704936832454
 20
9.9664209383754
 42
0.0
  0
VERTEX
  8
0
 10
109.836105192396
 20
10.1450493854001
 42
0.0
  0
VERTEX
  8
0
 10
109.942781534922
 20
10.2616858150082
 42
0.0
  0
VERTEX
  8
0
 10
109.985506498637
 20
10.3089281952695
 42
0.0
  0
VERTEX
  8
0
 10
110.149058748274
 20
10.4565606335859
 42
0.0
  0
VERTEX
  8
0
 10
110.223079067578
 20
10.5112322591301
 42
0.0
  0
VERTEX
  8
0
 10
110.326217674254
 20
10.587973913702
 42
0.0
  0
VERTEX
  8
0
 10
110.516711143049
 20
10.7016713012201
 42
0.0
  0
VERTEX
  8
0
 10
110.715912884704
 20
10.7961560617426
 42
0.0
  0
VERTEX
  8
0
 10
110.92273436511
 20
10.8699858875772
 42
0.0
  0
VERTEX
  8
0
 10
111.136903450742
 20
10.9231335653711
 42
0.0
  0
VERTEX
  8
0
 10
111.355426672803
 20
10.957095829522
 42
0.0
  0
VERTEX
  8
0
 10
111.576943363659
 20
10.9674096901896
 42
0.0
  0
VERTEX
  8
0
 10
111.796827253354
 20
10.957095829522
 42
0.0
  0
VERTEX
  8
0
 10
112.015350475415
 20
10.9231335653711
 42
0.0
  0
VERTEX
  8
0
 10
112.136449894864
 20
10.8921375566628
 42
0.0
  0
VERTEX
  8
0
 10
112.22924742752
 20
10.8699858875772
 42
0.0
  0
VERTEX
  8
0
 10
112.437701709087
 20
10.7961560617426
 42
0.0
  0
VERTEX
  8
0
 10
112.637175584269
 20
10.7016713012201
 42
0.0
  0
VERTEX
  8
0
 10
112.826036251903
 20
10.587973913702
 42
0.0
  0
VERTEX
  8
0
 10
112.93080765974
 20
10.5112322591301
 42
0.0
  0
VERTEX
  8
0
 10
113.004555845517
 20
10.4565606335859
 42
0.0
  0
VERTEX
  8
0
 10
113.167019561047
 20
10.3089281952695
 42
0.0
  0
VERTEX
  8
0
 10
113.235052942759
 20
10.2336560617426
 42
0.0
  0
VERTEX
  8
0
 10
113.315876600234
 20
10.1450493854001
 42
0.0
  0
VERTEX
  8
0
 10
113.447589227229
 20
9.9664209383754
 42
0.0
  0
VERTEX
  8
0
 10
113.561341041453
 20
9.7774514173304
 42
0.0
  0
VERTEX
  8
0
 10
113.65577137527
 20
9.5781136089124
 42
0.0
  0
VERTEX
  8
0
 10
113.729519561047
 20
9.3699314608718
 42
0.0
  0
VERTEX
  8
0
 10
113.782857732309
 20
9.1558440152985
 42
0.0
  0
VERTEX
  8
0
 10
113.815241622004
 20
8.9373480065902
 42
0.0
  0
VERTEX
  8
0
 10
113.826943363659
 20
8.717382476837
 42
0.0
  0
VERTEX
  8
0
 10
113.815241622004
 20
8.4958929993333
 42
0.0
  0
VERTEX
  8
0
 10
113.788572536373
 20
8.3172645523087
 42
0.0
  0
VERTEX
  8
0
 10
113.782857732309
 20
8.2773697772724
 42
0.0
  0
VERTEX
  8
0
 10
113.729519561047
 20
8.0633095450518
 42
0.0
  0
VERTEX
  8
0
 10
113.65577137527
 20
7.8565969180561
 42
0.0
  0
VERTEX
  8
0
 10
113.561341041453
 20
7.6572863229908
 42
0.0
  0
VERTEX
  8
0
 10
113.447589227229
 20
7.4668472809008
 42
0.0
  0
VERTEX
  8
0
 10
113.315876600234
 20
7.2896611415685
 42
0.0
  0
VERTEX
  8
0
 10
113.235052942759
 20
7.2010816785786
 42
0.0
  0
VERTEX
  8
0
 10
113.167019561047
 20
7.1257551183464
 42
0.0
  0
VERTEX
  8
0
 10
113.004555845517
 20
6.976653158985
 42
0.0
  0
VERTEX
  8
0
 10
112.826036251903
 20
6.8467638266193
 42
0.0
  0
VERTEX
  8
0
 10
112.637175584269
 20
6.7330664391011
 42
0.0
  0
VERTEX
  8
0
 10
112.437701709087
 20
6.6385816785786
 42
0.0
  0
SEQEND
  0
POLYLINE
  8
0
 66
     1
 10
0.0
 20
0.0
 30
0.0
 70
     1
  0
VERTEX
  8
0
 10
93.649369314378
 20
28.0530894469035
 42
0.0
  0
VERTEX
  8
0
 10
93.556571781722
 20
28.0309377778178
 42
0.0
  0
VERTEX
  8
0
 10
93.4354723622735
 20
27.9999145557569
 42
0.0
  0
VERTEX
  8
0
 10
93.2169491402125
 20
27.9674490260036
 42
0.0
  0
VERTEX
  8
0
 10
92.9970652505174
 20
27.9570807386306
 42
0.0
  0
VERTEX
  8
0
 10
92.775548559661
 20
27.9674490260036
 42
0.0
  0
VERTEX
  8
0
 10
92.5570253376001
 20
27.9999145557569
 42
0.0
  0
VERTEX
  8
0
 10
92.3428562519687
 20
28.0530894469035
 42
0.0
  0
VERTEX
  8
0
 10
92.1360347715623
 20
28.128388793783
 42
0.0
  0
VERTEX
  8
0
 10
91.9368330299078
 20
28.2228735543055
 42
0.0
  0
VERTEX
  8
0
 10
91.7463395611124
 20
28.3365709418236
 42
0.0
  0
VERTEX
  8
0
 10
91.5691806351327
 20
28.4664602741894
 42
0.0
  0
VERTEX
  8
0
 10
91.4056283854956
 20
28.6155622335508
 42
0.0
  0
VERTEX
  8
0
 10
91.36290342178
 20
28.6628318271647
 42
0.0
  0
VERTEX
  8
0
 10
91.2562270792546
 20
28.7794682567728
 42
0.0
  0
VERTEX
  8
0
 10
91.1250587193127
 20
28.9566543961052
 42
0.0
  0
VERTEX
  8
0
 10
91.0126675727234
 20
29.1470934381952
 42
0.0
  0
VERTEX
  8
0
 10
90.9168765712721
 20
29.3464040332605
 42
0.0
  0
VERTEX
  8
0
 10
90.8431283854956
 20
29.5531166602561
 42
0.0
  0
VERTEX
  8
0
 10
90.7897902142329
 20
29.7671768924767
 42
0.0
  0
VERTEX
  8
0
 10
90.7838032766422
 20
29.807071667513
 42
0.0
  0
VERTEX
  8
0
 10
90.7574063245377
 20
29.9857001145377
 42
0.0
  0
VERTEX
  8
0
 10
90.7470652505173
 20
30.2071895920413
 42
0.0
  0
VERTEX
  8
0
 10
90.7574063245377
 20
30.4271551217946
 42
0.0
  0
VERTEX
  8
0
 10
90.7897902142329
 20
30.6456511305029
 42
0.0
  0
VERTEX
  8
0
 10
90.8431283854956
 20
30.8597385760762
 42
0.0
  0
VERTEX
  8
0
 10
90.9168765712721
 20
31.0679207241168
 42
0.0
  0
VERTEX
  8
0
 10
91.0126675727234
 20
31.2672585325348
 42
0.0
  0
VERTEX
  8
0
 10
91.1250587193127
 20
31.4562280535798
 42
0.0
  0
VERTEX
  8
0
 10
91.2562270792546
 20
31.6348565006045
 42
0.0
  0
VERTEX
  8
0
 10
91.36290342178
 20
31.7514929302126
 42
0.0
  0
VERTEX
  8
0
 10
91.4056283854956
 20
31.7987353104738
 42
0.0
  0
VERTEX
  8
0
 10
91.5691806351327
 20
31.9463677487902
 42
0.0
  0
VERTEX
  8
0
 10
91.6432009544361
 20
32.0010393743345
 42
0.0
  0
VERTEX
  8
0
 10
91.7463395611124
 20
32.0777810289064
 42
0.0
  0
VERTEX
  8
0
 10
91.9368330299078
 20
32.1914784164245
 42
0.0
  0
VERTEX
  8
0
 10
92.1360347715623
 20
32.285963176947
 42
0.0
  0
VERTEX
  8
0
 10
92.3428562519687
 20
32.3597930027815
 42
0.0
  0
VERTEX
  8
0
 10
92.5570253376001
 20
32.4129406805754
 42
0.0
  0
VERTEX
  8
0
 10
92.775548559661
 20
32.4469029447264
 42
0.0
  0
VERTEX
  8
0
 10
92.9970652505174
 20
32.457216805394
 42
0.0
  0
VERTEX
  8
0
 10
93.2169491402125
 20
32.4469029447264
 42
0.0
  0
VERTEX
  8
0
 10
93.4354723622735
 20
32.4129406805754
 42
0.0
  0
VERTEX
  8
0
 10
93.556571781722
 20
32.3819446718672
 42
0.0
  0
VERTEX
  8
0
 10
93.649369314378
 20
32.3597930027815
 42
0.0
  0
VERTEX
  8
0
 10
93.8578235959455
 20
32.285963176947
 42
0.0
  0
VERTEX
  8
0
 10
94.0572974711269
 20
32.1914784164245
 42
0.0
  0
VERTEX
  8
0
 10
94.2461581387612
 20
32.0777810289064
 42
0.0
  0
VERTEX
  8
0
 10
94.3509295465986
 20
32.0010393743345
 42
0.0
  0
VERTEX
  8
0
 10
94.4246777323751
 20
31.9463677487902
 42
0.0
  0
VERTEX
  8
0
 10
94.5871414479049
 20
31.7987353104738
 42
0.0
  0
VERTEX
  8
0
 10
94.6551748296175
 20
31.723463176947
 42
0.0
  0
VERTEX
  8
0
 10
94.7359984870921
 20
31.6348565006045
 42
0.0
  0
VERTEX
  8
0
 10
94.8677111140877
 20
31.4562280535798
 42
0.0
  0
VERTEX
  8
0
 10
94.9814629283112
 20
31.2672585325348
 42
0.0
  0
VERTEX
  8
0
 10
95.0758932621284
 20
31.0679207241168
 42
0.0
  0
VERTEX
  8
0
 10
95.1496414479048
 20
30.8597385760762
 42
0.0
  0
VERTEX
  8
0
 10
95.2029796191676
 20
30.6456511305029
 42
0.0
  0
VERTEX
  8
0
 10
95.2353635088628
 20
30.4271551217946
 42
0.0
  0
VERTEX
  8
0
 10
95.2470652505173
 20
30.2071895920413
 42
0.0
  0
VERTEX
  8
0
 10
95.2353635088628
 20
29.9857001145377
 42
0.0
  0
VERTEX
  8
0
 10
95.2086944232314
 20
29.807071667513
 42
0.0
  0
VERTEX
  8
0
 10
95.2029796191676
 20
29.7671768924767
 42
0.0
  0
VERTEX
  8
0
 10
95.1496414479048
 20
29.5531166602561
 42
0.0
  0
VERTEX
  8
0
 10
95.0758932621284
 20
29.3464040332605
 42
0.0
  0
VERTEX
  8
0
 10
94.9814629283112
 20
29.1470934381952
 42
0.0
  0
VERTEX
  8
0
 10
94.8677111140877
 20
28.9566543961052
 42
0.0
  0
VERTEX
  8
0
 10
94.7359984870921
 20
28.7794682567728
 42
0.0
  0
VERTEX
  8
0
 10
94.6551748296175
 20
28.690888793783
 42
0.0
  0
VERTEX
  8
0
 10
94.5871414479049
 20
28.6155622335508
 42
0.0
  0
VERTEX
  8
0
 10
94.4246777323751
 20
28.4664602741894
 42
0.0
  0
VERTEX
  8
0
 10
94.2461581387612
 20
28.3365709418236
 42
0.0
  0
VERTEX
  8
0
 10
94.0572974711269
 20
28.2228735543055
 42
0.0
  0
VERTEX
  8
0
 10
93.8578235959455
 20
28.128388793783
 42
0.0
  0
SEQEND
  0
POLYLINE
  8
0
 66
     1
 10
0.0
 20
0.0
 30
0.0
 70
     1
  0
VERTEX
  8
0
 10
93.6502267871907
 20
47.9679858930896
 42
0.0
  0
VERTEX
  8
0
 10
93.5574292545347
 20
47.945834224004
 42
0.0
  0
VERTEX
  8
0
 10
93.4363298350863
 20
47.914811001943
 42
0.0
  0
VERTEX
  8
0
 10
93.2178066130253
 20
47.8823454721898
 42
0.0
  0
VERTEX
  8
0
 10
92.9979227233301
 20
47.8719771848168
 42
0.0
  0
VERTEX
  8
0
 10
92.7764060324738
 20
47.8823454721898
 42
0.0
  0
VERTEX
  8
0
 10
92.5578828104128
 20
47.914811001943
 42
0.0
  0
VERTEX
  8
0
 10
92.3437137247815
 20
47.9679858930896
 42
0.0
  0
VERTEX
  8
0
 10
92.1368922443751
 20
48.0432852399692
 42
0.0
  0
VERTEX
  8
0
 10
91.9376905027205
 20
48.1377700004917
 42
0.0
  0
VERTEX
  8
0
 10
91.7471970339251
 20
48.2514673880098
 42
0.0
  0
VERTEX
  8
0
 10
91.5700381079455
 20
48.3813567203755
 42
0.0
  0
VERTEX
  8
0
 10
91.4064858583083
 20
48.5304586797369
 42
0.0
  0
VERTEX
  8
0
 10
91.3637608945928
 20
48.5777282733509
 42
0.0
  0
VERTEX
  8
0
 10
91.2570845520674
 20
48.694364702959
 42
0.0
  0
VERTEX
  8
0
 10
91.1259161921254
 20
48.8715508422914
 42
0.0
  0
VERTEX
  8
0
 10
91.0135250455362
 20
49.0619898843813
 42
0.0
  0
VERTEX
  8
0
 10
90.9177340440848
 20
49.2613004794467
 42
0.0
  0
VERTEX
  8
0
 10
90.8439858583083
 20
49.4680131064423
 42
0.0
  0
VERTEX
  8
0
 10
90.7906476870456
 20
49.6820733386629
 42
0.0
  0
VERTEX
  8
0
 10
90.7846607494549
 20
49.7219681136992
 42
0.0
  0
VERTEX
  8
0
 10
90.7582637973504
 20
49.9005965607239
 42
0.0
  0
VERTEX
  8
0
 10
90.7479227233301
 20
50.1220860382275
 42
0.0
  0
VERTEX
  8
0
 10
90.7582637973504
 20
50.3420515679808
 42
0.0
  0
VERTEX
  8
0
 10
90.7906476870456
 20
50.560547576689
 42
0.0
  0
VERTEX
  8
0
 10
90.8439858583083
 20
50.7746350222623
 42
0.0
  0
VERTEX
  8
0
 10
90.9177340440848
 20
50.982817170303
 42
0.0
  0
VERTEX
  8
0
 10
91.0135250455362
 20
51.182154978721
 42
0.0
  0
VERTEX
  8
0
 10
91.1259161921254
 20
51.371124499766
 42
0.0
  0
VERTEX
  8
0
 10
91.2570845520674
 20
51.5497529467906
 42
0.0
  0
VERTEX
  8
0
 10
91.3637608945928
 20
51.6663893763988
 42
0.0
  0
VERTEX
  8
0
 10
91.4064858583083
 20
51.71363175666
 42
0.0
  0
VERTEX
  8
0
 10
91.5700381079455
 20
51.8612641949764
 42
0.0
  0
VERTEX
  8
0
 10
91.6440584272488
 20
51.9159358205207
 42
0.0
  0
VERTEX
  8
0
 10
91.7471970339251
 20
51.9926774750925
 42
0.0
  0
VERTEX
  8
0
 10
91.9376905027205
 20
52.1063748626107
 42
0.0
  0
VERTEX
  8
0
 10
92.1368922443751
 20
52.2008596231332
 42
0.0
  0
VERTEX
  8
0
 10
92.3437137247815
 20
52.2746894489677
 42
0.0
  0
VERTEX
  8
0
 10
92.5578828104128
 20
52.3278371267616
 42
0.0
  0
VERTEX
  8
0
 10
92.7764060324738
 20
52.3617993909126
 42
0.0
  0
VERTEX
  8
0
 10
92.9979227233301
 20
52.3721132515802
 42
0.0
  0
VERTEX
  8
0
 10
93.2178066130253
 20
52.3617993909126
 42
0.0
  0
VERTEX
  8
0
 10
93.4363298350863
 20
52.3278371267616
 42
0.0
  0
VERTEX
  8
0
 10
93.5574292545347
 20
52.2968411180533
 42
0.0
  0
VERTEX
  8
0
 10
93.6502267871907
 20
52.2746894489677
 42
0.0
  0
VERTEX
  8
0
 10
93.8586810687582
 20
52.2008596231332
 42
0.0
  0
VERTEX
  8
0
 10
94.0581549439397
 20
52.1063748626107
 42
0.0
  0
VERTEX
  8
0
 10
94.2470156115739
 20
51.9926774750925
 42
0.0
  0
VERTEX
  8
0
 10
94.3517870194114
 20
51.9159358205207
 42
0.0
  0
VERTEX
  8
0
 10
94.4255352051878
 20
51.8612641949764
 42
0.0
  0
VERTEX
  8
0
 10
94.5879989207176
 20
51.71363175666
 42
0.0
  0
VERTEX
  8
0
 10
94.6560323024302
 20
51.6383596231332
 42
0.0
  0
VERTEX
  8
0
 10
94.7368559599048
 20
51.5497529467906
 42
0.0
  0
VERTEX
  8
0
 10
94.8685685869005
 20
51.371124499766
 42
0.0
  0
VERTEX
  8
0
 10
94.982320401124
 20
51.182154978721
 42
0.0
  0
VERTEX
  8
0
 10
95.0767507349411
 20
50.982817170303
 42
0.0
  0
VERTEX
  8
0
 10
95.1504989207176
 20
50.7746350222623
 42
0.0
  0
VERTEX
  8
0
 10
95.2038370919803
 20
50.560547576689
 42
0.0
  0
VERTEX
  8
0
 10
95.2362209816755
 20
50.3420515679808
 42
0.0
  0
VERTEX
  8
0
 10
95.2479227233301
 20
50.1220860382275
 42
0.0
  0
VERTEX
  8
0
 10
95.2362209816755
 20
49.9005965607239
 42
0.0
  0
VERTEX
  8
0
 10
95.2095518960442
 20
49.7219681136992
 42
0.0
  0
VERTEX
  8
0
 10
95.2038370919803
 20
49.6820733386629
 42
0.0
  0
VERTEX
  8
0
 10
95.1504989207176
 20
49.4680131064423
 42
0.0
  0
VERTEX
  8
0
 10
95.0767507349411
 20
49.2613004794467
 42
0.0
  0
VERTEX
  8
0
 10
94.982320401124
 20
49.0619898843813
 42
0.0
  0
VERTEX
  8
0
 10
94.8685685869005
 20
48.8715508422914
 42
0.0
  0
VERTEX
  8
0
 10
94.7368559599048
 20
48.694364702959
 42
0.0
  0
VERTEX
  8
0
 10
94.6560323024302
 20
48.6057852399692
 42
0.0
  0
VERTEX
  8
0
 10
94.5879989207176
 20
48.5304586797369
 42
0.0
  0
VERTEX
  8
0
 10
94.4255352051878
 20
48.3813567203755
 42
0.0
  0
VERTEX
  8
0
 10
94.2470156115739
 20
48.2514673880098
 42
0.0
  0
VERTEX
  8
0
 10
94.0581549439397
 20
48.1377700004917
 42
0.0
  0
VERTEX
  8
0
 10
93.8586810687582
 20
48.0432852399692
 42
0.0
  0
SEQEND
  0
POLYLINE
  8
0
 66
     1
 10
0.0
 20
0.0
 30
0.0
 70
     1
  0
VERTEX
  8
0
 10
73.8052975551125
 20
47.9190809461185
 42
0.0
  0
VERTEX
  8
0
 10
73.7125000224565
 20
47.8969292770329
 42
0.0
  0
VERTEX
  8
0
 10
73.591400603008
 20
47.8659060549719
 42
0.0
  0
VERTEX
  8
0
 10
73.372877380947
 20
47.8334405252187
 42
0.0
  0
VERTEX
  8
0
 10
73.1529934912518
 20
47.8230722378457
 42
0.0
  0
VERTEX
  8
0
 10
72.9314768003955
 20
47.8334405252187
 42
0.0
  0
VERTEX
  8
0
 10
72.7129535783345
 20
47.8659060549719
 42
0.0
  0
VERTEX
  8
0
 10
72.4987844927032
 20
47.9190809461185
 42
0.0
  0
VERTEX
  8
0
 10
72.2919630122968
 20
47.9943802929981
 42
0.0
  0
VERTEX
  8
0
 10
72.0927612706422
 20
48.0888650535206
 42
0.0
  0
VERTEX
  8
0
 10
71.9022678018469
 20
48.2025624410387
 42
0.0
  0
VERTEX
  8
0
 10
71.7251088758672
 20
48.3324517734045
 42
0.0
  0
VERTEX
  8
0
 10
71.5615566262301
 20
48.4815537327658
 42
0.0
  0
VERTEX
  8
0
 10
71.5188316625145
 20
48.5288233263798
 42
0.0
  0
VERTEX
  8
0
 10
71.4121553199891
 20
48.6454597559879
 42
0.0
  0
VERTEX
  8
0
 10
71.2809869600472
 20
48.8226458953203
 42
0.0
  0
VERTEX
  8
0
 10
71.1685958134579
 20
49.0130849374102
 42
0.0
  0
VERTEX
  8
0
 10
71.0728048120065
 20
49.2123955324756
 42
0.0
  0
VERTEX
  8
0
 10
70.9990566262301
 20
49.4191081594712
 42
0.0
  0
VERTEX
  8
0
 10
70.9457184549673
 20
49.6331683916918
 42
0.0
  0
VERTEX
  8
0
 10
70.9397315173766
 20
49.6730631667281
 42
0.0
  0
VERTEX
  8
0
 10
70.9133345652721
 20
49.8516916137528
 42
0.0
  0
VERTEX
  8
0
 10
70.9029934912518
 20
50.0731810912564
 42
0.0
  0
VERTEX
  8
0
 10
70.9133345652721
 20
50.2931466210097
 42
0.0
  0
VERTEX
  8
0
 10
70.9457184549673
 20
50.5116426297179
 42
0.0
  0
VERTEX
  8
0
 10
70.9990566262301
 20
50.7257300752912
 42
0.0
  0
VERTEX
  8
0
 10
71.0728048120065
 20
50.9339122233319
 42
0.0
  0
VERTEX
  8
0
 10
71.1685958134579
 20
51.1332500317499
 42
0.0
  0
VERTEX
  8
0
 10
71.2809869600472
 20
51.3222195527949
 42
0.0
  0
VERTEX
  8
0
 10
71.4121553199891
 20
51.5008479998195
 42
0.0
  0
VERTEX
  8
0
 10
71.5188316625145
 20
51.6174844294277
 42
0.0
  0
VERTEX
  8
0
 10
71.5615566262301
 20
51.6647268096889
 42
0.0
  0
VERTEX
  8
0
 10
71.7251088758672
 20
51.8123592480053
 42
0.0
  0
VERTEX
  8
0
 10
71.7991291951705
 20
51.8670308735496
 42
0.0
  0
VERTEX
  8
0
 10
71.9022678018469
 20
51.9437725281214
 42
0.0
  0
VERTEX
  8
0
 10
72.0927612706422
 20
52.0574699156396
 42
0.0
  0
VERTEX
  8
0
 10
72.2919630122968
 20
52.1519546761621
 42
0.0
  0
VERTEX
  8
0
 10
72.4987844927032
 20
52.2257845019966
 42
0.0
  0
VERTEX
  8
0
 10
72.7129535783345
 20
52.2789321797905
 42
0.0
  0
VERTEX
  8
0
 10
72.9314768003955
 20
52.3128944439415
 42
0.0
  0
VERTEX
  8
0
 10
73.1529934912518
 20
52.3232083046091
 42
0.0
  0
VERTEX
  8
0
 10
73.372877380947
 20
52.3128944439415
 42
0.0
  0
VERTEX
  8
0
 10
73.591400603008
 20
52.2789321797905
 42
0.0
  0
VERTEX
  8
0
 10
73.7125000224565
 20
52.2479361710822
 42
0.0
  0
VERTEX
  8
0
 10
73.8052975551125
 20
52.2257845019966
 42
0.0
  0
VERTEX
  8
0
 10
74.01375183668
 20
52.1519546761621
 42
0.0
  0
VERTEX
  8
0
 10
74.2132257118614
 20
52.0574699156396
 42
0.0
  0
VERTEX
  8
0
 10
74.4020863794957
 20
51.9437725281214
 42
0.0
  0
VERTEX
  8
0
 10
74.5068577873331
 20
51.8670308735496
 42
0.0
  0
VERTEX
  8
0
 10
74.5806059731096
 20
51.8123592480053
 42
0.0
  0
VERTEX
  8
0
 10
74.7430696886393
 20
51.6647268096889
 42
0.0
  0
VERTEX
  8
0
 10
74.811103070352
 20
51.5894546761621
 42
0.0
  0
VERTEX
  8
0
 10
74.8919267278266
 20
51.5008479998195
 42
0.0
  0
VERTEX
  8
0
 10
75.0236393548222
 20
51.3222195527949
 42
0.0
  0
VERTEX
  8
0
 10
75.1373911690457
 20
51.1332500317499
 42
0.0
  0
VERTEX
  8
0
 10
75.2318215028628
 20
50.9339122233319
 42
0.0
  0
VERTEX
  8
0
 10
75.3055696886393
 20
50.7257300752912
 42
0.0
  0
VERTEX
  8
0
 10
75.358907859902
 20
50.5116426297179
 42
0.0
  0
VERTEX
  8
0
 10
75.3912917495972
 20
50.2931466210097
 42
0.0
  0
VERTEX
  8
0
 10
75.4029934912518
 20
50.0731810912564
 42
0.0
  0
VERTEX
  8
0
 10
75.3912917495972
 20
49.8516916137528
 42
0.0
  0
VERTEX
  8
0
 10
75.3646226639659
 20
49.6730631667281
 42
0.0
  0
VERTEX
  8
0
 10
75.358907859902
 20
49.6331683916918
 42
0.0
  0
VERTEX
  8
0
 10
75.3055696886393
 20
49.4191081594712
 42
0.0
  0
VERTEX
  8
0
 10
75.2318215028628
 20
49.2123955324756
 42
0.0
  0
VERTEX
  8
0
 10
75.1373911690457
 20
49.0130849374102
 42
0.0
  0
VERTEX
  8
0
 10
75.0236393548222
 20
48.8226458953203
 42
0.0
  0
VERTEX
  8
0
 10
74.8919267278266
 20
48.6454597559879
 42
0.0
  0
VERTEX
  8
0
 10
74.811103070352
 20
48.5568802929981
 42
0.0
  0
VERTEX
  8
0
 10
74.7430696886393
 20
48.4815537327658
 42
0.0
  0
VERTEX
  8
0
 10
74.5806059731096
 20
48.3324517734045
 42
0.0
  0
VERTEX
  8
0
 10
74.4020863794957
 20
48.2025624410387
 42
0.0
  0
VERTEX
  8
0
 10
74.2132257118614
 20
48.0888650535206
 42
0.0
  0
VERTEX
  8
0
 10
74.01375183668
 20
47.9943802929981
 42
0.0
  0
SEQEND
  0
POLYLINE
  8
0
 66
     1
 10
0.0
 20
0.0
 30
0.0
 70
     1
  0
VERTEX
  8
0
 10
73.8144600546141
 20
28.0106191906863
 42
0.0
  0
VERTEX
  8
0
 10
73.7216625219581
 20
27.9884675216007
 42
0.0
  0
VERTEX
  8
0
 10
73.6005631025096
 20
27.9574442995397
 42
0.0
  0
VERTEX
  8
0
 10
73.3820398804487
 20
27.9249787697865
 42
0.0
  0
VERTEX
  8
0
 10
73.1621559907535
 20
27.9146104824135
 42
0.0
  0
VERTEX
  8
0
 10
72.9406392998971
 20
27.9249787697865
 42
0.0
  0
VERTEX
  8
0
 10
72.7221160778362
 20
27.9574442995397
 42
0.0
  0
VERTEX
  8
0
 10
72.5079469922048
 20
28.0106191906863
 42
0.0
  0
VERTEX
  8
0
 10
72.3011255117985
 20
28.0859185375659
 42
0.0
  0
VERTEX
  8
0
 10
72.1019237701439
 20
28.1804032980884
 42
0.0
  0
VERTEX
  8
0
 10
71.9114303013485
 20
28.2941006856065
 42
0.0
  0
VERTEX
  8
0
 10
71.7342713753688
 20
28.4239900179722
 42
0.0
  0
VERTEX
  8
0
 10
71.5707191257317
 20
28.5730919773336
 42
0.0
  0
VERTEX
  8
0
 10
71.5279941620162
 20
28.6203615709476
 42
0.0
  0
VERTEX
  8
0
 10
71.4213178194908
 20
28.7369980005557
 42
0.0
  0
VERTEX
  8
0
 10
71.2901494595488
 20
28.914184139888
 42
0.0
  0
VERTEX
  8
0
 10
71.1777583129596
 20
29.104623181978
 42
0.0
  0
VERTEX
  8
0
 10
71.0819673115082
 20
29.3039337770434
 42
0.0
  0
VERTEX
  8
0
 10
71.0082191257317
 20
29.510646404039
 42
0.0
  0
VERTEX
  8
0
 10
70.954880954469
 20
29.7247066362596
 42
0.0
  0
VERTEX
  8
0
 10
70.9488940168783
 20
29.7646014112959
 42
0.0
  0
VERTEX
  8
0
 10
70.9224970647738
 20
29.9432298583206
 42
0.0
  0
VERTEX
  8
0
 10
70.9121559907535
 20
30.1647193358242
 42
0.0
  0
VERTEX
  8
0
 10
70.9224970647738
 20
30.3846848655775
 42
0.0
  0
VERTEX
  8
0
 10
70.954880954469
 20
30.6031808742857
 42
0.0
  0
VERTEX
  8
0
 10
71.0082191257317
 20
30.817268319859
 42
0.0
  0
VERTEX
  8
0
 10
71.0819673115082
 20
31.0254504678997
 42
0.0
  0
VERTEX
  8
0
 10
71.1777583129596
 20
31.2247882763177
 42
0.0
  0
VERTEX
  8
0
 10
71.2901494595488
 20
31.4137577973626
 42
0.0
  0
VERTEX
  8
0
 10
71.4213178194908
 20
31.5923862443873
 42
0.0
  0
VERTEX
  8
0
 10
71.5279941620162
 20
31.7090226739955
 42
0.0
  0
VERTEX
  8
0
 10
71.5707191257317
 20
31.7562650542567
 42
0.0
  0
VERTEX
  8
0
 10
71.7342713753688
 20
31.9038974925731
 42
0.0
  0
VERTEX
  8
0
 10
71.8082916946722
 20
31.9585691181174
 42
0.0
  0
VERTEX
  8
0
 10
71.9114303013485
 20
32.0353107726892
 42
0.0
  0
VERTEX
  8
0
 10
72.1019237701439
 20
32.1490081602074
 42
0.0
  0
VERTEX
  8
0
 10
72.3011255117985
 20
32.2434929207298
 42
0.0
  0
VERTEX
  8
0
 10
72.5079469922048
 20
32.3173227465644
 42
0.0
  0
VERTEX
  8
0
 10
72.7221160778362
 20
32.3704704243583
 42
0.0
  0
VERTEX
  8
0
 10
72.9406392998971
 20
32.4044326885092
 42
0.0
  0
VERTEX
  8
0
 10
73.1621559907535
 20
32.4147465491769
 42
0.0
  0
VERTEX
  8
0
 10
73.3820398804487
 20
32.4044326885092
 42
0.0
  0
VERTEX
  8
0
 10
73.6005631025096
 20
32.3704704243583
 42
0.0
  0
VERTEX
  8
0
 10
73.7216625219581
 20
32.33947441565
 42
0.0
  0
VERTEX
  8
0
 10
73.8144600546141
 20
32.3173227465644
 42
0.0
  0
VERTEX
  8
0
 10
74.0229143361816
 20
32.2434929207298
 42
0.0
  0
VERTEX
  8
0
 10
74.222388211363
 20
32.1490081602074
 42
0.0
  0
VERTEX
  8
0
 10
74.4112488789973
 20
32.0353107726892
 42
0.0
  0
VERTEX
  8
0
 10
74.5160202868347
 20
31.9585691181174
 42
0.0
  0
VERTEX
  8
0
 10
74.5897684726112
 20
31.9038974925731
 42
0.0
  0
VERTEX
  8
0
 10
74.752232188141
 20
31.7562650542567
 42
0.0
  0
VERTEX
  8
0
 10
74.8202655698536
 20
31.6809929207299
 42
0.0
  0
VERTEX
  8
0
 10
74.9010892273282
 20
31.5923862443873
 42
0.0
  0
VERTEX
  8
0
 10
75.0328018543239
 20
31.4137577973626
 42
0.0
  0
VERTEX
  8
0
 10
75.1465536685474
 20
31.2247882763177
 42
0.0
  0
VERTEX
  8
0
 10
75.2409840023645
 20
31.0254504678997
 42
0.0
  0
VERTEX
  8
0
 10
75.314732188141
 20
30.817268319859
 42
0.0
  0
VERTEX
  8
0
 10
75.3680703594037
 20
30.6031808742857
 42
0.0
  0
VERTEX
  8
0
 10
75.4004542490989
 20
30.3846848655775
 42
0.0
  0
VERTEX
  8
0
 10
75.4121559907535
 20
30.1647193358242
 42
0.0
  0
VERTEX
  8
0
 10
75.4004542490989
 20
29.9432298583206
 42
0.0
  0
VERTEX
  8
0
 10
75.3737851634675
 20
29.7646014112959
 42
0.0
  0
VERTEX
  8
0
 10
75.3680703594037
 20
29.7247066362596
 42
0.0
  0
VERTEX
  8
0
 10
75.314732188141
 20
29.510646404039
 42
0.0
  0
VERTEX
  8
0
 10
75.2409840023645
 20
29.3039337770434
 42
0.0
  0
VERTEX
  8
0
 10
75.1465536685474
 20
29.104623181978
 42
0.0
  0
VERTEX
  8
0
 10
75.0328018543239
 20
28.914184139888
 42
0.0
  0
VERTEX
  8
0
 10
74.9010892273282
 20
28.7369980005557
 42
0.0
  0
VERTEX
  8
0
 10
74.8202655698536
 20
28.6484185375658
 42
0.0
  0
VERTEX
  8
0
 10
74.752232188141
 20
28.5730919773336
 42
0.0
  0
VERTEX
  8
0
 10
74.5897684726112
 20
28.4239900179722
 42
0.0
  0
VERTEX
  8
0
 10
74.4112488789973
 20
28.2941006856065
 42
0.0
  0
VERTEX
  8
0
 10
74.222388211363
 20
28.1804032980884
 42
0.0
  0
VERTEX
  8
0
 10
74.0229143361816
 20
28.0859185375659
 42
0.0
  0
SEQEND
  0
POLYLINE
  8
0
 66
     1
 10
0.0
 20
0.0
 30
0.0
 70
     1
  0
VERTEX
  8
0
 10
55.1402742035478
 20
6.5023120076762
 42
0.0
  0
VERTEX
  8
0
 10
55.0474766708918
 20
6.4801603385906
 42
0.0
  0
VERTEX
  8
0
 10
54.9263772514433
 20
6.4491371165296
 42
0.0
  0
VERTEX
  8
0
 10
54.7078540293824
 20
6.4166715867764
 42
0.0
  0
VERTEX
  8
0
 10
54.4879701396872
 20
6.4063032994034
 42
0.0
  0
VERTEX
  8
0
 10
54.2664534488308
 20
6.4166715867764
 42
0.0
  0
VERTEX
  8
0
 10
54.0479302267699
 20
6.4491371165296
 42
0.0
  0
VERTEX
  8
0
 10
53.8337611411385
 20
6.5023120076762
 42
0.0
  0
VERTEX
  8
0
 10
53.6269396607322
 20
6.5776113545558
 42
0.0
  0
VERTEX
  8
0
 10
53.4277379190776
 20
6.6720961150783
 42
0.0
  0
VERTEX
  8
0
 10
53.2372444502822
 20
6.7857935025964
 42
0.0
  0
VERTEX
  8
0
 10
53.0600855243025
 20
6.9156828349622
 42
0.0
  0
VERTEX
  8
0
 10
52.8965332746654
 20
7.0647847943235
 42
0.0
  0
VERTEX
  8
0
 10
52.8538083109499
 20
7.1120543879375
 42
0.0
  0
VERTEX
  8
0
 10
52.7471319684245
 20
7.2286908175456
 42
0.0
  0
VERTEX
  8
0
 10
52.6159636084825
 20
7.405876956878
 42
0.0
  0
VERTEX
  8
0
 10
52.5035724618933
 20
7.596315998968
 42
0.0
  0
VERTEX
  8
0
 10
52.4077814604419
 20
7.7956265940333
 42
0.0
  0
VERTEX
  8
0
 10
52.3340332746654
 20
8.0023392210289
 42
0.0
  0
VERTEX
  8
0
 10
52.2806951034027
 20
8.2163994532495
 42
0.0
  0
VERTEX
  8
0
 10
52.274708165812
 20
8.2562942282858
 42
0.0
  0
VERTEX
  8
0
 10
52.2483112137075
 20
8.4349226753105
 42
0.0
  0
VERTEX
  8
0
 10
52.2379701396872
 20
8.6564121528141
 42
0.0
  0
VERTEX
  8
0
 10
52.2483112137075
 20
8.8763776825674
 42
0.0
  0
VERTEX
  8
0
 10
52.2806951034027
 20
9.0948736912756
 42
0.0
  0
VERTEX
  8
0
 10
52.3340332746654
 20
9.3089611368489
 42
0.0
  0
VERTEX
  8
0
 10
52.4077814604419
 20
9.5171432848896
 42
0.0
  0
VERTEX
  8
0
 10
52.5035724618933
 20
9.7164810933076
 42
0.0
  0
VERTEX
  8
0
 10
52.6159636084825
 20
9.9054506143526
 42
0.0
  0
VERTEX
  8
0
 10
52.7471319684245
 20
10.0840790613773
 42
0.0
  0
VERTEX
  8
0
 10
52.8538083109499
 20
10.2007154909854
 42
0.0
  0
VERTEX
  8
0
 10
52.8965332746654
 20
10.2479578712466
 42
0.0
  0
VERTEX
  8
0
 10
53.0600855243025
 20
10.395590309563
 42
0.0
  0
VERTEX
  8
0
 10
53.1341058436059
 20
10.4502619351073
 42
0.0
  0
VERTEX
  8
0
 10
53.2372444502822
 20
10.5270035896791
 42
0.0
  0
VERTEX
  8
0
 10
53.4277379190776
 20
10.6407009771973
 42
0.0
  0
VERTEX
  8
0
 10
53.6269396607322
 20
10.7351857377198
 42
0.0
  0
VERTEX
  8
0
 10
53.8337611411385
 20
10.8090155635543
 42
0.0
  0
VERTEX
  8
0
 10
54.0479302267699
 20
10.8621632413482
 42
0.0
  0
VERTEX
  8
0
 10
54.2664534488308
 20
10.8961255054992
 42
0.0
  0
VERTEX
  8
0
 10
54.4879701396872
 20
10.9064393661668
 42
0.0
  0
VERTEX
  8
0
 10
54.7078540293824
 20
10.8961255054992
 42
0.0
  0
VERTEX
  8
0
 10
54.9263772514433
 20
10.8621632413482
 42
0.0
  0
VERTEX
  8
0
 10
55.0474766708918
 20
10.8311672326399
 42
0.0
  0
VERTEX
  8
0
 10
55.1402742035478
 20
10.8090155635543
 42
0.0
  0
VERTEX
  8
0
 10
55.3487284851153
 20
10.7351857377198
 42
0.0
  0
VERTEX
  8
0
 10
55.5482023602967
 20
10.6407009771973
 42
0.0
  0
VERTEX
  8
0
 10
55.737063027931
 20
10.5270035896791
 42
0.0
  0
VERTEX
  8
0
 10
55.8418344357684
 20
10.4502619351073
 42
0.0
  0
VERTEX
  8
0
 10
55.9155826215449
 20
10.395590309563
 42
0.0
  0
VERTEX
  8
0
 10
56.0780463370747
 20
10.2479578712466
 42
0.0
  0
VERTEX
  8
0
 10
56.1460797187873
 20
10.1726857377198
 42
0.0
  0
VERTEX
  8
0
 10
56.2269033762619
 20
10.0840790613773
 42
0.0
  0
VERTEX
  8
0
 10
56.3586160032575
 20
9.9054506143526
 42
0.0
  0
VERTEX
  8
0
 10
56.4723678174811
 20
9.7164810933076
 42
0.0
  0
VERTEX
  8
0
 10
56.5667981512982
 20
9.5171432848896
 42
0.0
  0
VERTEX
  8
0
 10
56.6405463370747
 20
9.3089611368489
 42
0.0
  0
VERTEX
  8
0
 10
56.6938845083374
 20
9.0948736912756
 42
0.0
  0
VERTEX
  8
0
 10
56.7262683980326
 20
8.8763776825674
 42
0.0
  0
VERTEX
  8
0
 10
56.7379701396872
 20
8.6564121528141
 42
0.0
  0
VERTEX
  8
0
 10
56.7262683980326
 20
8.4349226753105
 42
0.0
  0
VERTEX
  8
0
 10
56.6995993124012
 20
8.2562942282858
 42
0.0
  0
VERTEX
  8
0
 10
56.6938845083374
 20
8.2163994532495
 42
0.0
  0
VERTEX
  8
0
 10
56.6405463370747
 20
8.0023392210289
 42
0.0
  0
VERTEX
  8
0
 10
56.5667981512982
 20
7.7956265940333
 42
0.0
  0
VERTEX
  8
0
 10
56.4723678174811
 20
7.596315998968
 42
0.0
  0
VERTEX
  8
0
 10
56.3586160032575
 20
7.405876956878
 42
0.0
  0
VERTEX
  8
0
 10
56.2269033762619
 20
7.2286908175456
 42
0.0
  0
VERTEX
  8
0
 10
56.1460797187873
 20
7.1401113545558
 42
0.0
  0
VERTEX
  8
0
 10
56.0780463370747
 20
7.0647847943235
 42
0.0
  0
VERTEX
  8
0
 10
55.9155826215449
 20
6.9156828349622
 42
0.0
  0
VERTEX
  8
0
 10
55.737063027931
 20
6.7857935025964
 42
0.0
  0
VERTEX
  8
0
 10
55.5482023602967
 20
6.6720961150783
 42
0.0
  0
VERTEX
  8
0
 10
55.3487284851153
 20
6.5776113545558
 42
0.0
  0
SEQEND
  0
POLYLINE
  8
0
 66
     1
 10
0.0
 20
0.0
 30
0.0
 70
     1
  0
VERTEX
  8
0
 10
55.2281266870603
 20
69.2726023421499
 42
0.0
  0
VERTEX
  8
0
 10
55.1353291544043
 20
69.2504506730642
 42
0.0
  0
VERTEX
  8
0
 10
55.0142297349558
 20
69.2194274510033
 42
0.0
  0
VERTEX
  8
0
 10
54.7957065128948
 20
69.18696192125
 42
0.0
  0
VERTEX
  8
0
 10
54.5758226231996
 20
69.176593633877
 42
0.0
  0
VERTEX
  8
0
 10
54.3543059323433
 20
69.18696192125
 42
0.0
  0
VERTEX
  8
0
 10
54.1357827102824
 20
69.2194274510033
 42
0.0
  0
VERTEX
  8
0
 10
53.921613624651
 20
69.2726023421499
 42
0.0
  0
VERTEX
  8
0
 10
53.7147921442446
 20
69.3479016890294
 42
0.0
  0
VERTEX
  8
0
 10
53.5155904025901
 20
69.4423864495519
 42
0.0
  0
VERTEX
  8
0
 10
53.3250969337947
 20
69.5560838370701
 42
0.0
  0
VERTEX
  8
0
 10
53.147938007815
 20
69.6859731694358
 42
0.0
  0
VERTEX
  8
0
 10
52.9843857581779
 20
69.8350751287972
 42
0.0
  0
VERTEX
  8
0
 10
52.9416607944623
 20
69.8823447224111
 42
0.0
  0
VERTEX
  8
0
 10
52.8349844519369
 20
69.9989811520193
 42
0.0
  0
VERTEX
  8
0
 10
52.703816091995
 20
70.1761672913516
 42
0.0
  0
VERTEX
  8
0
 10
52.5914249454057
 20
70.3666063334416
 42
0.0
  0
VERTEX
  8
0
 10
52.4956339439543
 20
70.5659169285069
 42
0.0
  0
VERTEX
  8
0
 10
52.4218857581779
 20
70.7726295555025
 42
0.0
  0
VERTEX
  8
0
 10
52.3685475869152
 20
70.9866897877232
 42
0.0
  0
VERTEX
  8
0
 10
52.3625606493245
 20
71.0265845627595
 42
0.0
  0
VERTEX
  8
0
 10
52.3361636972199
 20
71.2052130097841
 42
0.0
  0
VERTEX
  8
0
 10
52.3258226231996
 20
71.4267024872878
 42
0.0
  0
VERTEX
  8
0
 10
52.3361636972199
 20
71.646668017041
 42
0.0
  0
VERTEX
  8
0
 10
52.3685475869152
 20
71.8651640257493
 42
0.0
  0
VERTEX
  8
0
 10
52.4218857581779
 20
72.0792514713226
 42
0.0
  0
VERTEX
  8
0
 10
52.4956339439543
 20
72.2874336193632
 42
0.0
  0
VERTEX
  8
0
 10
52.5914249454057
 20
72.4867714277812
 42
0.0
  0
VERTEX
  8
0
 10
52.703816091995
 20
72.6757409488262
 42
0.0
  0
VERTEX
  8
0
 10
52.8349844519369
 20
72.8543693958509
 42
0.0
  0
VERTEX
  8
0
 10
52.9416607944623
 20
72.971005825459
 42
0.0
  0
VERTEX
  8
0
 10
52.9843857581779
 20
73.0182482057203
 42
0.0
  0
VERTEX
  8
0
 10
53.147938007815
 20
73.1658806440366
 42
0.0
  0
VERTEX
  8
0
 10
53.2219583271183
 20
73.2205522695809
 42
0.0
  0
VERTEX
  8
0
 10
53.3250969337947
 20
73.2972939241528
 42
0.0
  0
VERTEX
  8
0
 10
53.5155904025901
 20
73.4109913116709
 42
0.0
  0
VERTEX
  8
0
 10
53.7147921442446
 20
73.5054760721934
 42
0.0
  0
VERTEX
  8
0
 10
53.921613624651
 20
73.579305898028
 42
0.0
  0
VERTEX
  8
0
 10
54.1357827102824
 20
73.6324535758219
 42
0.0
  0
VERTEX
  8
0
 10
54.3543059323433
 20
73.6664158399728
 42
0.0
  0
VERTEX
  8
0
 10
54.5758226231996
 20
73.6767297006404
 42
0.0
  0
VERTEX
  8
0
 10
54.7957065128948
 20
73.6664158399728
 42
0.0
  0
VERTEX
  8
0
 10
55.0142297349558
 20
73.6324535758219
 42
0.0
  0
VERTEX
  8
0
 10
55.1353291544043
 20
73.6014575671136
 42
0.0
  0
VERTEX
  8
0
 10
55.2281266870603
 20
73.579305898028
 42
0.0
  0
VERTEX
  8
0
 10
55.4365809686278
 20
73.5054760721934
 42
0.0
  0
VERTEX
  8
0
 10
55.6360548438092
 20
73.4109913116709
 42
0.0
  0
VERTEX
  8
0
 10
55.8249155114435
 20
73.2972939241528
 42
0.0
  0
VERTEX
  8
0
 10
55.9296869192809
 20
73.2205522695809
 42
0.0
  0
VERTEX
  8
0
 10
56.0034351050574
 20
73.1658806440366
 42
0.0
  0
VERTEX
  8
0
 10
56.1658988205871
 20
73.0182482057203
 42
0.0
  0
VERTEX
  8
0
 10
56.2339322022998
 20
72.9429760721934
 42
0.0
  0
VERTEX
  8
0
 10
56.3147558597744
 20
72.8543693958509
 42
0.0
  0
VERTEX
  8
0
 10
56.44646848677
 20
72.6757409488262
 42
0.0
  0
VERTEX
  8
0
 10
56.5602203009935
 20
72.4867714277812
 42
0.0
  0
VERTEX
  8
0
 10
56.6546506348107
 20
72.2874336193632
 42
0.0
  0
VERTEX
  8
0
 10
56.7283988205871
 20
72.0792514713226
 42
0.0
  0
VERTEX
  8
0
 10
56.7817369918498
 20
71.8651640257493
 42
0.0
  0
VERTEX
  8
0
 10
56.8141208815451
 20
71.646668017041
 42
0.0
  0
VERTEX
  8
0
 10
56.8258226231996
 20
71.4267024872878
 42
0.0
  0
VERTEX
  8
0
 10
56.8141208815451
 20
71.2052130097841
 42
0.0
  0
VERTEX
  8
0
 10
56.7874517959137
 20
71.0265845627595
 42
0.0
  0
VERTEX
  8
0
 10
56.7817369918498
 20
70.9866897877232
 42
0.0
  0
VERTEX
  8
0
 10
56.7283988205871
 20
70.7726295555025
 42
0.0
  0
VERTEX
  8
0
 10
56.6546506348107
 20
70.5659169285069
 42
0.0
  0
VERTEX
  8
0
 10
56.5602203009935
 20
70.3666063334416
 42
0.0
  0
VERTEX
  8
0
 10
56.44646848677
 20
70.1761672913516
 42
0.0
  0
VERTEX
  8
0
 10
56.3147558597744
 20
69.9989811520193
 42
0.0
  0
VERTEX
  8
0
 10
56.2339322022998
 20
69.9104016890294
 42
0.0
  0
VERTEX
  8
0
 10
56.1658988205871
 20
69.8350751287972
 42
0.0
  0
VERTEX
  8
0
 10
56.0034351050574
 20
69.6859731694358
 42
0.0
  0
VERTEX
  8
0
 10
55.8249155114435
 20
69.5560838370701
 42
0.0
  0
VERTEX
  8
0
 10
55.6360548438092
 20
69.4423864495519
 42
0.0
  0
VERTEX
  8
0
 10
55.4365809686278
 20
69.3479016890294
 42
0.0
  0
SEQEND
  0
ENDSEC
  0
EOF
