  0
SECTION
  2
HEADER
  9
$ACADVER
  1
AC1009
  9
$EXTMAX
 10
37.0004348754883
 20
159.513519287109
 30
0.0
  9
$EXTMIN
 10
1.0004577636719
 20
1.3366953134537
 30
0.0
  9
$INSUNITS
 70
     4
  9
$LUNITS
 70
     2
  9
$LUPREC
 70
     4
  9
$MEASUREMENT
 70
     1
  0
ENDSEC
  0
SECTION
  2
TABLES
  0
TABLE
  2
LAYER
 70
     1
  0
LAYER
  2
0
 70
     0
 62
     7
  6
Continuous
  0
ENDTAB
  0
TABLE
  2
APPID
 70
     1
  0
APPID
  2
ACAD
 70
     0
  0
ENDTAB
  0
ENDSEC
  0
SECTION
  2
ENTITIES
  0
POLYLINE
  8
0
 66
     1
 10
0.0
 20
0.0
 30
0.0
 70
     1
  0
VERTEX
  8
0
 10
5.002276
 20
56.385206
 42
0.0
  0
VERTEX
  8
0
 10
6.09092
 20
56.385206
 42
0.0
  0
VERTEX
  8
0
 10
6.09092
 20
72.140318
 42
0.0
  0
VERTEX
  8
0
 10
3.0854142
 20
72.140318
 42
0.0
  0
VERTEX
  8
0
 10
3.0854142
 20
72.13346
 42
0.0
  0
VERTEX
  8
0
 10
2.9972254
 20
72.13346
 42
0.0
  0
VERTEX
  8
0
 10
2.9972254
 20
56.378602
 42
0.0
  0
VERTEX
  8
0
 10
5.002276
 20
56.378602
 42
0.0
  0
SEQEND
  0
POLYLINE
  8
0
 66
     1
 10
0.0
 20
0.0
 30
0.0
 70
     1
  0
VERTEX
  8
0
 10
5.002276
 20
75.884278
 42
0.0
  0
VERTEX
  8
0
 10
6.09092
 20
75.884278
 42
0.0
  0
VERTEX
  8
0
 10
6.09092
 20
97.890076
 42
0.0
  0
VERTEX
  8
0
 10
3.0854142
 20
97.890076
 42
0.0
  0
VERTEX
  8
0
 10
3.0854142
 20
97.883472
 42
0.0
  0
VERTEX
  8
0
 10
2.9972254
 20
97.883472
 42
0.0
  0
VERTEX
  8
0
 10
2.9972254
 20
75.877674
 42
0.0
  0
VERTEX
  8
0
 10
5.002276
 20
75.877674
 42
0.0
  0
SEQEND
  0
POLYLINE
  8
0
 66
     1
 10
0.0
 20
0.0
 30
0.0
 70
     1
  0
VERTEX
  8
0
 10
1.00045774
 20
115.478306
 42
0.0
  0
VERTEX
  8
0
 10
2.32199434
 20
116.145056
 42
0.0
  0
VERTEX
  8
0
 10
2.32612946
 20
116.14785
 42
0.0
  0
VERTEX
  8
0
 10
2.49700796
 20
116.233194
 42
0.0
  0
VERTEX
  8
0
 10
5.5314596
 20
117.764306
 42
0.0
  0
VERTEX
  8
0
 10
5.5355744
 20
117.7671
 42
0.0
  0
VERTEX
  8
0
 10
6.09092
 20
118.046754
 42
0.0
  0
VERTEX
  8
0
 10
6.2025276
 20
118.103396
 42
0.0
  0
VERTEX
  8
0
 10
6.2025276
 20
157.657038
 42
0.0
  0
VERTEX
  8
0
 10
6.3293244
 20
157.719268
 42
0.0
  0
VERTEX
  8
0
 10
7.1740522
 20
158.132526
 42
0.0
  0
VERTEX
  8
0
 10
7.8065884
 20
158.44139
 42
0.0
  0
VERTEX
  8
0
 10
8.4694268
 20
158.76651
 42
0.0
  0
VERTEX
  8
0
 10
8.5617304
 20
158.810706
 42
0.0
  0
VERTEX
  8
0
 10
10.0004372
 20
159.513524
 42
0.0
  0
VERTEX
  8
0
 10
13.2167376
 20
159.513524
 42
0.0
  0
VERTEX
  8
0
 10
14.4983454
 20
158.773368
 42
0.0
  0
VERTEX
  8
0
 10
14.4983454
 20
152.635712
 42
0.0
  0
VERTEX
  8
0
 10
14.6443954
 20
152.524206
 42
0.0
  0
VERTEX
  8
0
 10
16.4317172
 20
151.159718
 42
0.0
  0
VERTEX
  8
0
 10
17.0146472
 20
150.71344
 42
0.0
  0
VERTEX
  8
0
 10
18.9879732
 20
149.205696
 42
0.0
  0
VERTEX
  8
0
 10
18.9879732
 20
149.206966
 42
0.0
  0
VERTEX
  8
0
 10
19.0003938
 20
149.197568
 42
0.0
  0
VERTEX
  8
0
 10
19.012789
 20
149.206966
 42
0.0
  0
VERTEX
  8
0
 10
19.012789
 20
149.205696
 42
0.0
  0
VERTEX
  8
0
 10
20.9875374
 20
150.71344
 42
0.0
  0
VERTEX
  8
0
 10
21.569045
 20
151.158194
 42
0.0
  0
VERTEX
  8
0
 10
23.3067606
 20
152.486868
 42
0.0
  0
VERTEX
  8
0
 10
23.3563668
 20
152.524206
 42
0.0
  0
VERTEX
  8
0
 10
23.5024422
 20
152.635712
 42
0.0
  0
VERTEX
  8
0
 10
23.5024422
 20
158.773368
 42
0.0
  0
VERTEX
  8
0
 10
24.0536476
 20
159.091884
 42
0.0
  0
VERTEX
  8
0
 10
24.7853962
 20
159.513524
 42
0.0
  0
VERTEX
  8
0
 10
28.000452
 20
159.513524
 42
0.0
  0
VERTEX
  8
0
 10
29.557472
 20
158.752794
 42
0.0
  0
VERTEX
  8
0
 10
29.649928
 20
158.707328
 42
0.0
  0
VERTEX
  8
0
 10
30.852872
 20
158.120334
 42
0.0
  0
VERTEX
  8
0
 10
30.946598
 20
158.074868
 42
0.0
  0
VERTEX
  8
0
 10
31.79826
 20
157.657038
 42
0.0
  0
VERTEX
  8
0
 10
31.79826
 20
118.004082
 42
0.0
  0
VERTEX
  8
0
 10
31.908496
 20
117.947694
 42
0.0
  0
VERTEX
  8
0
 10
32.466534
 20
117.666516
 42
0.0
  0
VERTEX
  8
0
 10
32.497014
 20
117.651276
 42
0.0
  0
VERTEX
  8
0
 10
35.502596
 20
116.134134
 42
0.0
  0
VERTEX
  8
0
 10
35.506406
 20
116.13261
 42
0.0
  0
VERTEX
  8
0
 10
35.680396
 20
116.044472
 42
0.0
  0
VERTEX
  8
0
 10
37.000434
 20
115.379246
 42
0.0
  0
VERTEX
  8
0
 10
37.000434
 20
4.6302168
 42
0.0
  0
VERTEX
  8
0
 10
36.829238
 20
4.6302168
 42
0.0
  0
VERTEX
  8
0
 10
30.946598
 20
1.75424338
 42
0.0
  0
VERTEX
  8
0
 10
30.852872
 20
1.70876722
 42
0.0
  0
VERTEX
  8
0
 10
30.209236
 20
1.39319762
 42
0.0
  0
VERTEX
  8
0
 10
30.093666
 20
1.33669532
 42
0.0
  0
VERTEX
  8
0
 10
29.557472
 20
1.71290234
 42
0.0
  0
VERTEX
  8
0
 10
28.194762
 20
2.666492
 42
0.0
  0
VERTEX
  8
0
 10
28.194762
 20
11.943461
 42
0.0
  0
VERTEX
  8
0
 10
23.091775
 20
15.5139644
 42
0.0
  0
VERTEX
  8
0
 10
19.0003938
 20
18.374741
 42
0.0
  0
VERTEX
  8
0
 10
14.9089872
 20
15.5139644
 42
0.0
  0
VERTEX
  8
0
 10
9.8061272
 20
11.943461
 42
0.0
  0
VERTEX
  8
0
 10
9.8061272
 20
2.666492
 42
0.0
  0
VERTEX
  8
0
 10
8.5617304
 20
1.79558188
 42
0.0
  0
VERTEX
  8
0
 10
8.4694268
 20
1.73219618
 42
0.0
  0
VERTEX
  8
0
 10
7.9058262
 20
1.33669532
 42
0.0
  0
VERTEX
  8
0
 10
7.7900276
 20
1.39457684
 42
0.0
  0
VERTEX
  8
0
 10
7.1740522
 20
1.69498772
 42
0.0
  0
VERTEX
  8
0
 10
6.3293244
 20
2.10839812
 42
0.0
  0
VERTEX
  8
0
 10
1.17133116
 20
4.6302168
 42
0.0
  0
VERTEX
  8
0
 10
1.00045774
 20
4.6302168
 42
0.0
  0
SEQEND
  0
POLYLINE
  8
0
 66
     1
 10
0.0
 20
0.0
 30
0.0
 70
     1
  0
VERTEX
  8
0
 10
18.9879732
 20
111.331756
 42
0.0
  0
VERTEX
  8
0
 10
19.0003938
 20
111.324644
 42
0.0
  0
VERTEX
  8
0
 10
19.012789
 20
111.333026
 42
0.0
  0
VERTEX
  8
0
 10
19.012789
 20
111.31804
 42
0.0
  0
VERTEX
  8
0
 10
19.0252096
 20
111.310928
 42
0.0
  0
VERTEX
  8
0
 10
21.1804504
 20
112.555528
 42
0.0
  0
VERTEX
  8
0
 10
21.8722194
 20
112.9538
 42
0.0
  0
VERTEX
  8
0
 10
21.9218256
 20
112.982756
 42
0.0
  0
VERTEX
  8
0
 10
21.9218256
 20
116.328444
 42
0.0
  0
VERTEX
  8
0
 10
21.8722194
 20
116.3574
 42
0.0
  0
VERTEX
  8
0
 10
21.6765378
 20
116.470176
 42
0.0
  0
VERTEX
  8
0
 10
21.1804504
 20
116.757196
 42
0.0
  0
VERTEX
  8
0
 10
19.0252096
 20
118.001288
 42
0.0
  0
VERTEX
  8
0
 10
19.012789
 20
117.994684
 42
0.0
  0
VERTEX
  8
0
 10
19.012789
 20
117.979444
 42
0.0
  0
VERTEX
  8
0
 10
19.0003938
 20
117.986302
 42
0.0
  0
VERTEX
  8
0
 10
18.9879732
 20
117.979444
 42
0.0
  0
VERTEX
  8
0
 10
18.9879732
 20
117.99316
 42
0.0
  0
VERTEX
  8
0
 10
18.9756034
 20
118.001288
 42
0.0
  0
VERTEX
  8
0
 10
16.8203372
 20
116.757196
 42
0.0
  0
VERTEX
  8
0
 10
16.077565
 20
116.328444
 42
0.0
  0
VERTEX
  8
0
 10
16.077565
 20
112.982756
 42
0.0
  0
VERTEX
  8
0
 10
16.8203372
 20
112.554004
 42
0.0
  0
VERTEX
  8
0
 10
18.9756034
 20
111.310928
 42
0.0
  0
VERTEX
  8
0
 10
18.9879732
 20
111.31804
 42
0.0
  0
SEQEND
  0
POLYLINE
  8
0
 66
     1
 10
0.0
 20
0.0
 30
0.0
 70
     1
  0
VERTEX
  8
0
 10
18.9879732
 20
126.525782
 42
0.0
  0
VERTEX
  8
0
 10
19.0003938
 20
126.519178
 42
0.0
  0
VERTEX
  8
0
 10
19.012789
 20
126.525782
 42
0.0
  0
VERTEX
  8
0
 10
19.012789
 20
126.512066
 42
0.0
  0
VERTEX
  8
0
 10
19.0279528
 20
126.502668
 42
0.0
  0
VERTEX
  8
0
 10
21.1804504
 20
127.74676
 42
0.0
  0
VERTEX
  8
0
 10
21.6765378
 20
128.032256
 42
0.0
  0
VERTEX
  8
0
 10
21.7316812
 20
128.065276
 42
0.0
  0
VERTEX
  8
0
 10
21.7316812
 20
131.186428
 42
0.0
  0
VERTEX
  8
0
 10
21.6765378
 20
131.219702
 42
0.0
  0
VERTEX
  8
0
 10
21.1804504
 20
131.504944
 42
0.0
  0
VERTEX
  8
0
 10
20.9007202
 20
131.666234
 42
0.0
  0
VERTEX
  8
0
 10
19.0279528
 20
132.747766
 42
0.0
  0
VERTEX
  8
0
 10
19.012789
 20
132.739638
 42
0.0
  0
VERTEX
  8
0
 10
19.012789
 20
132.724398
 42
0.0
  0
VERTEX
  8
0
 10
19.0003938
 20
132.731256
 42
0.0
  0
VERTEX
  8
0
 10
18.9879732
 20
132.724398
 42
0.0
  0
VERTEX
  8
0
 10
18.9879732
 20
132.738368
 42
0.0
  0
VERTEX
  8
0
 10
18.9714378
 20
132.747766
 42
0.0
  0
VERTEX
  8
0
 10
17.0987212
 20
131.666234
 42
0.0
  0
VERTEX
  8
0
 10
16.8203372
 20
131.50596
 42
0.0
  0
VERTEX
  8
0
 10
16.2677602
 20
131.186428
 42
0.0
  0
VERTEX
  8
0
 10
16.2677602
 20
128.065276
 42
0.0
  0
VERTEX
  8
0
 10
16.8203372
 20
127.74549
 42
0.0
  0
VERTEX
  8
0
 10
18.9714378
 20
126.502668
 42
0.0
  0
VERTEX
  8
0
 10
18.9879732
 20
126.512066
 42
0.0
  0
SEQEND
  0
POLYLINE
  8
0
 66
     1
 10
0.0
 20
0.0
 30
0.0
 70
     1
  0
VERTEX
  8
0
 10
18.9879732
 20
137.482834
 42
0.0
  0
VERTEX
  8
0
 10
19.0003938
 20
137.475722
 42
0.0
  0
VERTEX
  8
0
 10
19.012789
 20
137.484104
 42
0.0
  0
VERTEX
  8
0
 10
19.012789
 20
137.469118
 42
0.0
  0
VERTEX
  8
0
 10
19.0279528
 20
137.459212
 42
0.0
  0
VERTEX
  8
0
 10
21.0398868
 20
138.622278
 42
0.0
  0
VERTEX
  8
0
 10
21.1804504
 20
138.703812
 42
0.0
  0
VERTEX
  8
0
 10
21.6765378
 20
138.9888
 42
0.0
  0
VERTEX
  8
0
 10
21.7316812
 20
139.022074
 42
0.0
  0
VERTEX
  8
0
 10
21.7316812
 20
142.143226
 42
0.0
  0
VERTEX
  8
0
 10
21.6765378
 20
142.1765
 42
0.0
  0
VERTEX
  8
0
 10
21.1804504
 20
142.461488
 42
0.0
  0
VERTEX
  8
0
 10
21.0398868
 20
142.543022
 42
0.0
  0
VERTEX
  8
0
 10
20.37842
 20
142.924784
 42
0.0
  0
VERTEX
  8
0
 10
19.0279528
 20
143.704818
 42
0.0
  0
VERTEX
  8
0
 10
19.012789
 20
143.696182
 42
0.0
  0
VERTEX
  8
0
 10
19.012789
 20
143.681196
 42
0.0
  0
VERTEX
  8
0
 10
19.0003938
 20
143.688054
 42
0.0
  0
VERTEX
  8
0
 10
18.9879732
 20
143.681196
 42
0.0
  0
VERTEX
  8
0
 10
18.9879732
 20
143.696182
 42
0.0
  0
VERTEX
  8
0
 10
18.9714378
 20
143.704818
 42
0.0
  0
VERTEX
  8
0
 10
17.6223422
 20
142.926054
 42
0.0
  0
VERTEX
  8
0
 10
16.9608754
 20
142.544546
 42
0.0
  0
VERTEX
  8
0
 10
16.8203372
 20
142.463012
 42
0.0
  0
VERTEX
  8
0
 10
16.2677602
 20
142.143226
 42
0.0
  0
VERTEX
  8
0
 10
16.2677602
 20
139.022074
 42
0.0
  0
VERTEX
  8
0
 10
16.8203372
 20
138.703812
 42
0.0
  0
VERTEX
  8
0
 10
16.9608754
 20
138.620754
 42
0.0
  0
VERTEX
  8
0
 10
18.9714378
 20
137.459212
 42
0.0
  0
VERTEX
  8
0
 10
18.9879732
 20
137.469118
 42
0.0
  0
SEQEND
  0
POLYLINE
  8
0
 66
     1
 10
0.0
 20
0.0
 30
0.0
 70
     1
  0
VERTEX
  8
0
 10
18.9879732
 20
51.213512
 42
0.0
  0
VERTEX
  8
0
 10
18.9879732
 20
51.227228
 42
0.0
  0
VERTEX
  8
0
 10
18.9756034
 20
51.235356
 42
0.0
  0
VERTEX
  8
0
 10
16.9595038
 20
50.071274
 42
0.0
  0
VERTEX
  8
0
 10
16.077565
 20
49.562512
 42
0.0
  0
VERTEX
  8
0
 10
16.077565
 20
46.218094
 42
0.0
  0
VERTEX
  8
0
 10
16.1285682
 20
46.189138
 42
0.0
  0
VERTEX
  8
0
 10
18.9756034
 20
44.54525
 42
0.0
  0
VERTEX
  8
0
 10
18.9879732
 20
44.551854
 42
0.0
  0
VERTEX
  8
0
 10
18.9879732
 20
44.565824
 42
0.0
  0
VERTEX
  8
0
 10
19.0003938
 20
44.558966
 42
0.0
  0
VERTEX
  8
0
 10
19.012789
 20
44.567094
 42
0.0
  0
VERTEX
  8
0
 10
19.012789
 20
44.551854
 42
0.0
  0
VERTEX
  8
0
 10
19.0252096
 20
44.54525
 42
0.0
  0
VERTEX
  8
0
 10
21.8722194
 20
46.189138
 42
0.0
  0
VERTEX
  8
0
 10
21.9218256
 20
46.218094
 42
0.0
  0
VERTEX
  8
0
 10
21.9218256
 20
49.562512
 42
0.0
  0
VERTEX
  8
0
 10
21.04263
 20
50.071274
 42
0.0
  0
VERTEX
  8
0
 10
19.0252096
 20
51.235356
 42
0.0
  0
VERTEX
  8
0
 10
19.012789
 20
51.228498
 42
0.0
  0
VERTEX
  8
0
 10
19.012789
 20
51.213512
 42
0.0
  0
VERTEX
  8
0
 10
19.0003938
 20
51.220116
 42
0.0
  0
SEQEND
  0
POLYLINE
  8
0
 66
     1
 10
0.0
 20
0.0
 30
0.0
 70
     1
  0
VERTEX
  8
0
 10
18.9879732
 20
56.306466
 42
0.0
  0
VERTEX
  8
0
 10
19.0003938
 20
56.299862
 42
0.0
  0
VERTEX
  8
0
 10
19.012789
 20
56.306466
 42
0.0
  0
VERTEX
  8
0
 10
19.012789
 20
56.291226
 42
0.0
  0
VERTEX
  8
0
 10
19.0252096
 20
56.284622
 42
0.0
  0
VERTEX
  8
0
 10
21.1804504
 20
57.528968
 42
0.0
  0
VERTEX
  8
0
 10
21.8722194
 20
57.92851
 42
0.0
  0
VERTEX
  8
0
 10
21.9218256
 20
57.957466
 42
0.0
  0
VERTEX
  8
0
 10
21.9218256
 20
61.302138
 42
0.0
  0
VERTEX
  8
0
 10
21.8722194
 20
61.331094
 42
0.0
  0
VERTEX
  8
0
 10
21.8432888
 20
61.34735
 42
0.0
  0
VERTEX
  8
0
 10
19.0252096
 20
62.974982
 42
0.0
  0
VERTEX
  8
0
 10
19.012789
 20
62.968124
 42
0.0
  0
VERTEX
  8
0
 10
19.012789
 20
62.952884
 42
0.0
  0
VERTEX
  8
0
 10
19.0003938
 20
62.959996
 42
0.0
  0
VERTEX
  8
0
 10
18.9879732
 20
62.952884
 42
0.0
  0
VERTEX
  8
0
 10
18.9879732
 20
62.9666
 42
0.0
  0
VERTEX
  8
0
 10
18.9756034
 20
62.974982
 42
0.0
  0
VERTEX
  8
0
 10
17.8717956
 20
62.338204
 42
0.0
  0
VERTEX
  8
0
 10
16.1561272
 20
61.34735
 42
0.0
  0
VERTEX
  8
0
 10
16.077565
 20
61.302138
 42
0.0
  0
VERTEX
  8
0
 10
16.077565
 20
57.957466
 42
0.0
  0
VERTEX
  8
0
 10
16.8203372
 20
57.528968
 42
0.0
  0
VERTEX
  8
0
 10
18.9756034
 20
56.284622
 42
0.0
  0
VERTEX
  8
0
 10
18.9879732
 20
56.29275
 42
0.0
  0
SEQEND
  0
POLYLINE
  8
0
 66
     1
 10
0.0
 20
0.0
 30
0.0
 70
     1
  0
VERTEX
  8
0
 10
18.9879732
 20
99.592384
 42
0.0
  0
VERTEX
  8
0
 10
19.0003938
 20
99.585272
 42
0.0
  0
VERTEX
  8
0
 10
19.012789
 20
99.592384
 42
0.0
  0
VERTEX
  8
0
 10
19.012789
 20
99.578668
 42
0.0
  0
VERTEX
  8
0
 10
19.0252096
 20
99.571556
 42
0.0
  0
VERTEX
  8
0
 10
21.8722194
 20
101.215444
 42
0.0
  0
VERTEX
  8
0
 10
21.9218256
 20
101.2444
 42
0.0
  0
VERTEX
  8
0
 10
21.9218256
 20
104.589072
 42
0.0
  0
VERTEX
  8
0
 10
21.8722194
 20
104.618028
 42
0.0
  0
VERTEX
  8
0
 10
21.04263
 20
105.097326
 42
0.0
  0
VERTEX
  8
0
 10
19.0252096
 20
106.260646
 42
0.0
  0
VERTEX
  8
0
 10
19.012789
 20
106.253534
 42
0.0
  0
VERTEX
  8
0
 10
19.012789
 20
106.238294
 42
0.0
  0
VERTEX
  8
0
 10
19.0003938
 20
106.246676
 42
0.0
  0
VERTEX
  8
0
 10
18.9879732
 20
106.239818
 42
0.0
  0
VERTEX
  8
0
 10
18.9879732
 20
106.253534
 42
0.0
  0
VERTEX
  8
0
 10
18.9756034
 20
106.260646
 42
0.0
  0
VERTEX
  8
0
 10
16.9595038
 20
105.097326
 42
0.0
  0
VERTEX
  8
0
 10
16.1285682
 20
104.618028
 42
0.0
  0
VERTEX
  8
0
 10
16.077565
 20
104.589072
 42
0.0
  0
VERTEX
  8
0
 10
16.077565
 20
101.2444
 42
0.0
  0
VERTEX
  8
0
 10
16.1285682
 20
101.215444
 42
0.0
  0
VERTEX
  8
0
 10
18.9756034
 20
99.571556
 42
0.0
  0
VERTEX
  8
0
 10
18.9879732
 20
99.578668
 42
0.0
  0
SEQEND
  0
POLYLINE
  8
0
 66
     1
 10
0.0
 20
0.0
 30
0.0
 70
     1
  0
VERTEX
  8
0
 10
21.8460574
 20
80.649572
 42
0.0
  0
VERTEX
  8
0
 10
21.8722194
 20
80.573626
 42
0.0
  0
VERTEX
  8
0
 10
21.9218256
 20
80.4291
 42
0.0
  0
VERTEX
  8
0
 10
22.0127576
 20
80.163162
 42
0.0
  0
VERTEX
  8
0
 10
22.0706696
 20
79.817468
 42
0.0
  0
VERTEX
  8
0
 10
22.0913452
 20
79.697326
 42
0.0
  0
VERTEX
  8
0
 10
22.0982032
 20
79.656178
 42
0.0
  0
VERTEX
  8
0
 10
22.0982032
 20
79.140812
 42
0.0
  0
VERTEX
  8
0
 10
22.0127576
 20
78.632304
 42
0.0
  0
VERTEX
  8
0
 10
21.9218256
 20
78.36789
 42
0.0
  0
VERTEX
  8
0
 10
21.8722194
 20
78.221332
 42
0.0
  0
VERTEX
  8
0
 10
21.8460574
 20
78.145894
 42
0.0
  0
VERTEX
  8
0
 10
21.6007696
 20
77.693774
 42
0.0
  0
VERTEX
  8
0
 10
21.2851746
 20
77.287374
 42
0.0
  0
VERTEX
  8
0
 10
20.9062066
 20
76.938632
 42
0.0
  0
VERTEX
  8
0
 10
20.6223362
 20
76.75245
 42
0.0
  0
VERTEX
  8
0
 10
20.4749146
 20
76.657454
 42
0.0
  0
VERTEX
  8
0
 10
20.0035922
 20
76.449428
 42
0.0
  0
VERTEX
  8
0
 10
19.9567546
 20
76.438506
 42
0.0
  0
VERTEX
  8
0
 10
19.8685404
 20
76.416154
 42
0.0
  0
VERTEX
  8
0
 10
19.8203312
 20
76.403962
 42
0.0
  0
VERTEX
  8
0
 10
19.8203312
 20
74.779378
 42
0.0
  0
VERTEX
  8
0
 10
19.8685404
 20
74.791824
 42
0.0
  0
VERTEX
  8
0
 10
20.5010766
 20
74.95159
 42
0.0
  0
VERTEX
  8
0
 10
20.5176374
 20
74.954384
 42
0.0
  0
VERTEX
  8
0
 10
21.228685
 20
75.266804
 42
0.0
  0
VERTEX
  8
0
 10
21.7413078
 20
75.602084
 42
0.0
  0
VERTEX
  8
0
 10
21.8722194
 20
75.687428
 42
0.0
  0
VERTEX
  8
0
 10
21.8763596
 20
75.691746
 42
0.0
  0
VERTEX
  8
0
 10
21.9218256
 20
75.732894
 42
0.0
  0
VERTEX
  8
0
 10
22.4482406
 20
76.21651
 42
0.0
  0
VERTEX
  8
0
 10
22.7376228
 20
76.588874
 42
0.0
  0
VERTEX
  8
0
 10
22.8644196
 20
76.75245
 42
0.0
  0
VERTEX
  8
0
 10
22.9236778
 20
76.828396
 42
0.0
  0
VERTEX
  8
0
 10
23.1496616
 20
77.244702
 42
0.0
  0
VERTEX
  8
0
 10
23.1965246
 20
77.33284
 42
0.0
  0
VERTEX
  8
0
 10
23.2943654
 20
77.51064
 42
0.0
  0
VERTEX
  8
0
 10
23.5465366
 20
78.244954
 42
0.0
  0
VERTEX
  8
0
 10
23.6733334
 20
79.011272
 42
0.0
  0
VERTEX
  8
0
 10
23.6733334
 20
79.785718
 42
0.0
  0
VERTEX
  8
0
 10
23.6677962
 20
79.817468
 42
0.0
  0
VERTEX
  8
0
 10
23.5465366
 20
80.551782
 42
0.0
  0
VERTEX
  8
0
 10
23.2943654
 20
81.284826
 42
0.0
  0
VERTEX
  8
0
 10
23.1965246
 20
81.46415
 42
0.0
  0
VERTEX
  8
0
 10
22.9236778
 20
81.968594
 42
0.0
  0
VERTEX
  8
0
 10
22.4482406
 20
82.580226
 42
0.0
  0
VERTEX
  8
0
 10
21.9218256
 20
83.064096
 42
0.0
  0
VERTEX
  8
0
 10
21.8763596
 20
83.105244
 42
0.0
  0
VERTEX
  8
0
 10
21.8722194
 20
83.108038
 42
0.0
  0
VERTEX
  8
0
 10
21.476716
 20
83.367118
 42
0.0
  0
VERTEX
  8
0
 10
21.228685
 20
83.529678
 42
0.0
  0
VERTEX
  8
0
 10
20.7904588
 20
83.721194
 42
0.0
  0
VERTEX
  8
0
 10
20.6250794
 20
83.794346
 42
0.0
  0
VERTEX
  8
0
 10
20.5176374
 20
83.841082
 42
0.0
  0
VERTEX
  8
0
 10
19.8203312
 20
84.017612
 42
0.0
  0
VERTEX
  8
0
 10
19.8203312
 20
82.393028
 42
0.0
  0
VERTEX
  8
0
 10
20.0035922
 20
82.346038
 42
0.0
  0
VERTEX
  8
0
 10
20.4749146
 20
82.139282
 42
0.0
  0
VERTEX
  8
0
 10
20.9062066
 20
81.858104
 42
0.0
  0
VERTEX
  8
0
 10
21.2851746
 20
81.508346
 42
0.0
  0
VERTEX
  8
0
 10
21.6007696
 20
81.102962
 42
0.0
  0
SEQEND
  0
POLYLINE
  8
0
 66
     1
 10
0.0
 20
0.0
 30
0.0
 70
     1
  0
VERTEX
  8
0
 10
21.6544906
 20
66.92011
 42
0.0
  0
VERTEX
  8
0
 10
21.8722194
 20
66.305684
 42
0.0
  0
VERTEX
  8
0
 10
21.9218256
 20
66.165222
 42
0.0
  0
VERTEX
  8
0
 10
22.3697038
 20
64.905382
 42
0.0
  0
VERTEX
  8
0
 10
22.934676
 20
63.314072
 42
0.0
  0
VERTEX
  8
0
 10
23.1965246
 20
62.573916
 42
0.0
  0
VERTEX
  8
0
 10
23.2103168
 20
62.537848
 42
0.0
  0
VERTEX
  8
0
 10
25.0513596
 20
62.537848
 42
0.0
  0
VERTEX
  8
0
 10
24.8515378
 20
63.082424
 42
0.0
  0
VERTEX
  8
0
 10
23.866221
 20
65.771268
 42
0.0
  0
VERTEX
  8
0
 10
23.1965246
 20
67.596766
 42
0.0
  0
VERTEX
  8
0
 10
21.9218256
 20
71.075296
 42
0.0
  0
VERTEX
  8
0
 10
21.8722194
 20
71.21144
 42
0.0
  0
VERTEX
  8
0
 10
21.7647266
 20
71.506334
 42
0.0
  0
VERTEX
  8
0
 10
21.6420954
 20
71.838566
 42
0.0
  0
VERTEX
  8
0
 10
21.1666582
 20
73.13549
 42
0.0
  0
VERTEX
  8
0
 10
19.8685404
 20
73.13549
 42
0.0
  0
VERTEX
  8
0
 10
19.8685404
 20
72.00265
 42
0.0
  0
VERTEX
  8
0
 10
20.0422002
 20
71.506334
 42
0.0
  0
VERTEX
  8
0
 10
21.0826096
 20
68.517516
 42
0.0
  0
VERTEX
  8
0
 10
19.8685404
 20
68.517516
 42
0.0
  0
VERTEX
  8
0
 10
19.8685404
 20
66.92011
 42
0.0
  0
SEQEND
  0
POLYLINE
  8
0
 66
     1
 10
0.0
 20
0.0
 30
0.0
 70
     1
  0
VERTEX
  8
0
 10
18.0674518
 20
87.617046
 42
0.0
  0
VERTEX
  8
0
 10
17.2310044
 20
87.890096
 42
0.0
  0
VERTEX
  8
0
 10
17.1965366
 20
87.901018
 42
0.0
  0
VERTEX
  8
0
 10
16.5226746
 20
88.374982
 42
0.0
  0
VERTEX
  8
0
 10
16.077565
 20
88.984074
 42
0.0
  0
VERTEX
  8
0
 10
16.050006
 20
89.022682
 42
0.0
  0
VERTEX
  8
0
 10
15.7661356
 20
89.827354
 42
0.0
  0
VERTEX
  8
0
 10
15.672435
 20
90.790522
 42
0.0
  0
VERTEX
  8
0
 10
15.672435
 20
92.583254
 42
0.0
  0
VERTEX
  8
0
 10
13.8244834
 20
92.583254
 42
0.0
  0
VERTEX
  8
0
 10
13.8244834
 20
90.869262
 42
0.0
  0
VERTEX
  8
0
 10
13.8616944
 20
90.166444
 42
0.0
  0
VERTEX
  8
0
 10
13.9705588
 20
89.526872
 42
0.0
  0
VERTEX
  8
0
 10
13.974699
 20
89.510362
 42
0.0
  0
VERTEX
  8
0
 10
14.1621002
 20
88.9
 42
0.0
  0
VERTEX
  8
0
 10
14.4225518
 20
88.33485
 42
0.0
  0
VERTEX
  8
0
 10
14.7133056
 20
87.890096
 42
0.0
  0
VERTEX
  8
0
 10
14.7546568
 20
87.826596
 42
0.0
  0
VERTEX
  8
0
 10
15.0054818
 20
87.549482
 42
0.0
  0
VERTEX
  8
0
 10
15.1584406
 20
87.377524
 42
0.0
  0
VERTEX
  8
0
 10
15.6324554
 20
86.990174
 42
0.0
  0
VERTEX
  8
0
 10
16.077565
 20
86.723982
 42
0.0
  0
VERTEX
  8
0
 10
16.1754312
 20
86.666324
 42
0.0
  0
VERTEX
  8
0
 10
16.7858694
 20
86.405974
 42
0.0
  0
VERTEX
  8
0
 10
17.473549
 20
86.217252
 42
0.0
  0
VERTEX
  8
0
 10
18.1873398
 20
86.108032
 42
0.0
  0
VERTEX
  8
0
 10
18.1873398
 20
87.606124
 42
0.0
  0
SEQEND
  0
POLYLINE
  8
0
 66
     1
 10
0.0
 20
0.0
 30
0.0
 70
     1
  0
VERTEX
  8
0
 10
16.9581322
 20
68.517516
 42
0.0
  0
VERTEX
  8
0
 10
17.988915
 20
71.506334
 42
0.0
  0
VERTEX
  8
0
 10
18.1955948
 20
72.107044
 42
0.0
  0
VERTEX
  8
0
 10
18.1955948
 20
73.13549
 42
0.0
  0
VERTEX
  8
0
 10
16.8782238
 20
73.13549
 42
0.0
  0
VERTEX
  8
0
 10
16.282924
 20
71.506334
 42
0.0
  0
VERTEX
  8
0
 10
16.077565
 20
70.946772
 42
0.0
  0
VERTEX
  8
0
 10
15.0054818
 20
68.010278
 42
0.0
  0
VERTEX
  8
0
 10
14.7849844
 20
67.409568
 42
0.0
  0
VERTEX
  8
0
 10
14.177264
 20
65.746122
 42
0.0
  0
VERTEX
  8
0
 10
13.9705588
 20
65.181226
 42
0.0
  0
VERTEX
  8
0
 10
13.2884418
 20
63.314072
 42
0.0
  0
VERTEX
  8
0
 10
13.1946904
 20
63.057532
 42
0.0
  0
VERTEX
  8
0
 10
13.0638296
 20
62.699138
 42
0.0
  0
VERTEX
  8
0
 10
13.004546
 20
62.537848
 42
0.0
  0
VERTEX
  8
0
 10
14.8166582
 20
62.537848
 42
0.0
  0
VERTEX
  8
0
 10
14.9089872
 20
62.794388
 42
0.0
  0
VERTEX
  8
0
 10
15.0054818
 20
63.063374
 42
0.0
  0
VERTEX
  8
0
 10
15.0950422
 20
63.314072
 42
0.0
  0
VERTEX
  8
0
 10
15.6600144
 20
64.889126
 42
0.0
  0
VERTEX
  8
0
 10
16.077565
 20
66.057526
 42
0.0
  0
VERTEX
  8
0
 10
16.3876228
 20
66.92011
 42
0.0
  0
VERTEX
  8
0
 10
18.1955948
 20
66.92011
 42
0.0
  0
VERTEX
  8
0
 10
18.1955948
 20
68.517516
 42
0.0
  0
SEQEND
  0
POLYLINE
  8
0
 66
     1
 10
0.0
 20
0.0
 30
0.0
 70
     1
  0
VERTEX
  8
0
 10
17.507966
 20
76.657454
 42
0.0
  0
VERTEX
  8
0
 10
17.3618906
 20
76.75245
 42
0.0
  0
VERTEX
  8
0
 10
17.076674
 20
76.938632
 42
0.0
  0
VERTEX
  8
0
 10
16.6990522
 20
77.287374
 42
0.0
  0
VERTEX
  8
0
 10
16.382111
 20
77.693774
 42
0.0
  0
VERTEX
  8
0
 10
16.1368232
 20
78.145894
 42
0.0
  0
VERTEX
  8
0
 10
16.077565
 20
78.318106
 42
0.0
  0
VERTEX
  8
0
 10
15.9700722
 20
78.632304
 42
0.0
  0
VERTEX
  8
0
 10
15.8846266
 20
79.140812
 42
0.0
  0
VERTEX
  8
0
 10
15.8846266
 20
79.656178
 42
0.0
  0
VERTEX
  8
0
 10
15.8915354
 20
79.697326
 42
0.0
  0
VERTEX
  8
0
 10
15.912211
 20
79.817468
 42
0.0
  0
VERTEX
  8
0
 10
15.9700722
 20
80.163162
 42
0.0
  0
VERTEX
  8
0
 10
16.077565
 20
80.478884
 42
0.0
  0
VERTEX
  8
0
 10
16.1368232
 20
80.649572
 42
0.0
  0
VERTEX
  8
0
 10
16.382111
 20
81.102962
 42
0.0
  0
VERTEX
  8
0
 10
16.6990522
 20
81.508346
 42
0.0
  0
VERTEX
  8
0
 10
17.076674
 20
81.858104
 42
0.0
  0
VERTEX
  8
0
 10
17.507966
 20
82.139282
 42
0.0
  0
VERTEX
  8
0
 10
17.98066
 20
82.346038
 42
0.0
  0
VERTEX
  8
0
 10
18.2576216
 20
82.416396
 42
0.0
  0
VERTEX
  8
0
 10
18.2576216
 20
84.035646
 42
0.0
  0
VERTEX
  8
0
 10
18.219039
 20
84.031328
 42
0.0
  0
VERTEX
  8
0
 10
17.4666402
 20
83.841082
 42
0.0
  0
VERTEX
  8
0
 10
17.3591474
 20
83.794346
 42
0.0
  0
VERTEX
  8
0
 10
16.7555672
 20
83.529678
 42
0.0
  0
VERTEX
  8
0
 10
16.106521
 20
83.105244
 42
0.0
  0
VERTEX
  8
0
 10
16.077565
 20
83.079082
 42
0.0
  0
VERTEX
  8
0
 10
15.7537404
 20
82.780124
 42
0.0
  0
VERTEX
  8
0
 10
15.5360116
 20
82.580226
 42
0.0
  0
VERTEX
  8
0
 10
15.2466294
 20
82.208116
 42
0.0
  0
VERTEX
  8
0
 10
15.0592028
 20
81.968594
 42
0.0
  0
VERTEX
  8
0
 10
15.0054818
 20
81.867756
 42
0.0
  0
VERTEX
  8
0
 10
14.6898868
 20
81.284826
 42
0.0
  0
VERTEX
  8
0
 10
14.4377156
 20
80.551782
 42
0.0
  0
VERTEX
  8
0
 10
14.315059
 20
79.817468
 42
0.0
  0
VERTEX
  8
0
 10
14.3095472
 20
79.785718
 42
0.0
  0
VERTEX
  8
0
 10
14.3095472
 20
79.011272
 42
0.0
  0
VERTEX
  8
0
 10
14.4377156
 20
78.244954
 42
0.0
  0
VERTEX
  8
0
 10
14.6898868
 20
77.51064
 42
0.0
  0
VERTEX
  8
0
 10
15.0054818
 20
76.928726
 42
0.0
  0
VERTEX
  8
0
 10
15.0592028
 20
76.828396
 42
0.0
  0
VERTEX
  8
0
 10
15.118461
 20
76.75245
 42
0.0
  0
VERTEX
  8
0
 10
15.3499566
 20
76.45654
 42
0.0
  0
VERTEX
  8
0
 10
15.5360116
 20
76.21651
 42
0.0
  0
VERTEX
  8
0
 10
15.7523434
 20
76.016612
 42
0.0
  0
VERTEX
  8
0
 10
16.077565
 20
75.716384
 42
0.0
  0
VERTEX
  8
0
 10
16.106521
 20
75.691746
 42
0.0
  0
VERTEX
  8
0
 10
16.2429444
 20
75.602084
 42
0.0
  0
VERTEX
  8
0
 10
16.7555672
 20
75.266804
 42
0.0
  0
VERTEX
  8
0
 10
17.4666402
 20
74.954384
 42
0.0
  0
VERTEX
  8
0
 10
18.219039
 20
74.765662
 42
0.0
  0
VERTEX
  8
0
 10
18.2576216
 20
74.761344
 42
0.0
  0
VERTEX
  8
0
 10
18.2576216
 20
76.380594
 42
0.0
  0
VERTEX
  8
0
 10
17.98066
 20
76.449428
 42
0.0
  0
SEQEND
  0
POLYLINE
  8
0
 66
     1
 10
0.0
 20
0.0
 30
0.0
 70
     1
  0
VERTEX
  8
0
 10
21.9549218
 20
88.748362
 42
0.0
  0
VERTEX
  8
0
 10
21.9218256
 20
88.70696
 42
0.0
  0
VERTEX
  8
0
 10
21.8722194
 20
88.64346
 42
0.0
  0
VERTEX
  8
0
 10
21.7123772
 20
88.441022
 42
0.0
  0
VERTEX
  8
0
 10
21.4133176
 20
88.166956
 42
0.0
  0
VERTEX
  8
0
 10
21.0605624
 20
87.939372
 42
0.0
  0
VERTEX
  8
0
 10
20.9516726
 20
87.890096
 42
0.0
  0
VERTEX
  8
0
 10
20.656804
 20
87.757762
 42
0.0
  0
VERTEX
  8
0
 10
20.2075796
 20
87.626952
 42
0.0
  0
VERTEX
  8
0
 10
19.8327518
 20
87.56904
 42
0.0
  0
VERTEX
  8
0
 10
19.8327518
 20
86.101174
 42
0.0
  0
VERTEX
  8
0
 10
19.9044052
 20
86.103968
 42
0.0
  0
VERTEX
  8
0
 10
20.6857346
 20
86.222332
 42
0.0
  0
VERTEX
  8
0
 10
21.3898988
 20
86.41969
 42
0.0
  0
VERTEX
  8
0
 10
21.8722194
 20
86.630256
 42
0.0
  0
VERTEX
  8
0
 10
21.9218256
 20
86.652354
 42
0.0
  0
VERTEX
  8
0
 10
22.0196918
 20
86.695026
 42
0.0
  0
VERTEX
  8
0
 10
22.576409
 20
87.031322
 42
0.0
  0
VERTEX
  8
0
 10
23.0614728
 20
87.429594
 42
0.0
  0
VERTEX
  8
0
 10
23.1965246
 20
87.582756
 42
0.0
  0
VERTEX
  8
0
 10
23.4638596
 20
87.884254
 42
0.0
  0
VERTEX
  8
0
 10
23.7918244
 20
88.387428
 42
0.0
  0
VERTEX
  8
0
 10
24.044021
 20
88.939878
 42
0.0
  0
VERTEX
  8
0
 10
24.2314222
 20
89.540588
 42
0.0
  0
VERTEX
  8
0
 10
24.3444268
 20
90.170762
 42
0.0
  0
VERTEX
  8
0
 10
24.3816378
 20
90.829384
 42
0.0
  0
VERTEX
  8
0
 10
24.3816378
 20
92.583254
 42
0.0
  0
VERTEX
  8
0
 10
22.5185224
 20
92.583254
 42
0.0
  0
VERTEX
  8
0
 10
22.5185224
 20
90.804238
 42
0.0
  0
VERTEX
  8
0
 10
22.4964752
 20
90.335862
 42
0.0
  0
VERTEX
  8
0
 10
22.427565
 20
89.893394
 42
0.0
  0
VERTEX
  8
0
 10
22.3145604
 20
89.477596
 42
0.0
  0
VERTEX
  8
0
 10
22.1560898
 20
89.09431
 42
0.0
  0
SEQEND
  0
POLYLINE
  8
0
 66
     1
 10
0.0
 20
0.0
 30
0.0
 70
     1
  0
VERTEX
  8
0
 10
5.4584346
 20
47.67199
 42
0.0
  0
VERTEX
  8
0
 10
5.5314596
 20
47.791878
 42
0.0
  0
VERTEX
  8
0
 10
5.5452518
 20
47.813722
 42
0.0
  0
VERTEX
  8
0
 10
5.6472074
 20
48.060356
 42
0.0
  0
VERTEX
  8
0
 10
5.7105804
 20
48.32096
 42
0.0
  0
VERTEX
  8
0
 10
5.731256
 20
48.587152
 42
0.0
  0
VERTEX
  8
0
 10
5.7105804
 20
48.852582
 42
0.0
  0
VERTEX
  8
0
 10
5.6802782
 20
48.978312
 42
0.0
  0
VERTEX
  8
0
 10
5.6472074
 20
49.11344
 42
0.0
  0
VERTEX
  8
0
 10
5.5452518
 20
49.360074
 42
0.0
  0
VERTEX
  8
0
 10
5.5314596
 20
49.383188
 42
0.0
  0
VERTEX
  8
0
 10
5.4046628
 20
49.587404
 42
0.0
  0
VERTEX
  8
0
 10
5.3716174
 20
49.626012
 42
0.0
  0
VERTEX
  8
0
 10
5.2324
 20
49.791366
 42
0.0
  0
VERTEX
  8
0
 10
5.0284634
 20
49.963578
 42
0.0
  0
VERTEX
  8
0
 10
5.0036476
 20
49.980088
 42
0.0
  0
VERTEX
  8
0
 10
4.8010826
 20
50.10404
 42
0.0
  0
VERTEX
  8
0
 10
4.7652432
 20
50.119026
 42
0.0
  0
VERTEX
  8
0
 10
4.7156624
 20
50.138584
 42
0.0
  0
VERTEX
  8
0
 10
4.5544232
 20
50.205894
 42
0.0
  0
VERTEX
  8
0
 10
4.2939716
 20
50.268124
 42
0.0
  0
VERTEX
  8
0
 10
4.0280082
 20
50.288698
 42
0.0
  0
VERTEX
  8
0
 10
3.7620448
 20
50.268124
 42
0.0
  0
VERTEX
  8
0
 10
3.5015932
 20
50.205894
 42
0.0
  0
VERTEX
  8
0
 10
3.340354
 20
50.138584
 42
0.0
  0
VERTEX
  8
0
 10
3.2549338
 20
50.10404
 42
0.0
  0
VERTEX
  8
0
 10
3.0661356
 20
49.988216
 42
0.0
  0
VERTEX
  8
0
 10
3.027553
 20
49.963578
 42
0.0
  0
VERTEX
  8
0
 10
2.823591
 20
49.791366
 42
0.0
  0
VERTEX
  8
0
 10
2.7174952
 20
49.66589
 42
0.0
  0
VERTEX
  8
0
 10
2.6816558
 20
49.624488
 42
0.0
  0
VERTEX
  8
0
 10
2.6513536
 20
49.587404
 42
0.0
  0
VERTEX
  8
0
 10
2.51078746
 20
49.360074
 42
0.0
  0
VERTEX
  8
0
 10
2.49424952
 20
49.318672
 42
0.0
  0
VERTEX
  8
0
 10
2.40881154
 20
49.11344
 42
0.0
  0
VERTEX
  8
0
 10
2.34679744
 20
48.852582
 42
0.0
  0
VERTEX
  8
0
 10
2.32612946
 20
48.587152
 42
0.0
  0
VERTEX
  8
0
 10
2.34679744
 20
48.32096
 42
0.0
  0
VERTEX
  8
0
 10
2.40881154
 20
48.060356
 42
0.0
  0
VERTEX
  8
0
 10
2.49424952
 20
47.855124
 42
0.0
  0
VERTEX
  8
0
 10
2.51078746
 20
47.813722
 42
0.0
  0
VERTEX
  8
0
 10
2.6513536
 20
47.586646
 42
0.0
  0
VERTEX
  8
0
 10
2.658237
 20
47.57674
 42
0.0
  0
VERTEX
  8
0
 10
2.7174952
 20
47.507906
 42
0.0
  0
VERTEX
  8
0
 10
2.823591
 20
47.382684
 42
0.0
  0
VERTEX
  8
0
 10
3.027553
 20
47.210218
 42
0.0
  0
VERTEX
  8
0
 10
3.0564836
 20
47.192184
 42
0.0
  0
VERTEX
  8
0
 10
3.2039306
 20
47.101506
 42
0.0
  0
VERTEX
  8
0
 10
3.2549338
 20
47.069756
 42
0.0
  0
VERTEX
  8
0
 10
3.5015932
 20
46.967648
 42
0.0
  0
VERTEX
  8
0
 10
3.6586922
 20
46.93031
 42
0.0
  0
VERTEX
  8
0
 10
3.7620448
 20
46.904402
 42
0.0
  0
VERTEX
  8
0
 10
4.0280082
 20
46.883574
 42
0.0
  0
VERTEX
  8
0
 10
4.2939716
 20
46.904402
 42
0.0
  0
VERTEX
  8
0
 10
4.3972988
 20
46.93031
 42
0.0
  0
VERTEX
  8
0
 10
4.5544232
 20
46.967648
 42
0.0
  0
VERTEX
  8
0
 10
4.7652432
 20
47.054516
 42
0.0
  0
VERTEX
  8
0
 10
4.8010826
 20
47.069756
 42
0.0
  0
VERTEX
  8
0
 10
4.8520604
 20
47.101506
 42
0.0
  0
VERTEX
  8
0
 10
5.0284634
 20
47.210218
 42
0.0
  0
VERTEX
  8
0
 10
5.105654
 20
47.276512
 42
0.0
  0
VERTEX
  8
0
 10
5.2324
 20
47.382684
 42
0.0
  0
VERTEX
  8
0
 10
5.4046628
 20
47.586646
 42
0.0
  0
SEQEND
  0
POLYLINE
  8
0
 66
     1
 10
0.0
 20
0.0
 30
0.0
 70
     1
  0
VERTEX
  8
0
 10
2.6623772
 20
110.857538
 42
0.0
  0
VERTEX
  8
0
 10
2.7174952
 20
110.794546
 42
0.0
  0
VERTEX
  8
0
 10
2.823591
 20
110.667546
 42
0.0
  0
VERTEX
  8
0
 10
3.027553
 20
110.495334
 42
0.0
  0
VERTEX
  8
0
 10
3.0537404
 20
110.478824
 42
0.0
  0
VERTEX
  8
0
 10
3.2177228
 20
110.37824
 42
0.0
  0
VERTEX
  8
0
 10
3.2549338
 20
110.354618
 42
0.0
  0
VERTEX
  8
0
 10
3.5015932
 20
110.25251
 42
0.0
  0
VERTEX
  8
0
 10
3.7620448
 20
110.190788
 42
0.0
  0
VERTEX
  8
0
 10
4.0280082
 20
110.16996
 42
0.0
  0
VERTEX
  8
0
 10
4.2939716
 20
110.190788
 42
0.0
  0
VERTEX
  8
0
 10
4.5544232
 20
110.25251
 42
0.0
  0
VERTEX
  8
0
 10
4.7652432
 20
110.339378
 42
0.0
  0
VERTEX
  8
0
 10
4.8010826
 20
110.354618
 42
0.0
  0
VERTEX
  8
0
 10
4.8382682
 20
110.37824
 42
0.0
  0
VERTEX
  8
0
 10
5.0284634
 20
110.495334
 42
0.0
  0
VERTEX
  8
0
 10
5.0904902
 20
110.547404
 42
0.0
  0
VERTEX
  8
0
 10
5.2324
 20
110.667546
 42
0.0
  0
VERTEX
  8
0
 10
5.4046628
 20
110.871254
 42
0.0
  0
VERTEX
  8
0
 10
5.4501288
 20
110.944406
 42
0.0
  0
VERTEX
  8
0
 10
5.5314596
 20
111.07674
 42
0.0
  0
VERTEX
  8
0
 10
5.5355744
 20
111.082328
 42
0.0
  0
VERTEX
  8
0
 10
5.5452518
 20
111.098838
 42
0.0
  0
VERTEX
  8
0
 10
5.6472074
 20
111.345472
 42
0.0
  0
VERTEX
  8
0
 10
5.7105804
 20
111.605822
 42
0.0
  0
VERTEX
  8
0
 10
5.731256
 20
111.87176
 42
0.0
  0
VERTEX
  8
0
 10
5.7105804
 20
112.139222
 42
0.0
  0
VERTEX
  8
0
 10
5.6472074
 20
112.398302
 42
0.0
  0
VERTEX
  8
0
 10
5.6182768
 20
112.465866
 42
0.0
  0
VERTEX
  8
0
 10
5.5452518
 20
112.64519
 42
0.0
  0
VERTEX
  8
0
 10
5.5355744
 20
112.661446
 42
0.0
  0
VERTEX
  8
0
 10
5.5314596
 20
112.667034
 42
0.0
  0
VERTEX
  8
0
 10
5.4046628
 20
112.872266
 42
0.0
  0
VERTEX
  8
0
 10
5.2324
 20
113.076228
 42
0.0
  0
VERTEX
  8
0
 10
5.0284634
 20
113.24971
 42
0.0
  0
VERTEX
  8
0
 10
4.9995328
 20
113.267744
 42
0.0
  0
VERTEX
  8
0
 10
4.8010826
 20
113.389156
 42
0.0
  0
VERTEX
  8
0
 10
4.7377096
 20
113.415318
 42
0.0
  0
VERTEX
  8
0
 10
4.5544232
 20
113.49101
 42
0.0
  0
VERTEX
  8
0
 10
4.2939716
 20
113.55451
 42
0.0
  0
VERTEX
  8
0
 10
4.0280082
 20
113.575084
 42
0.0
  0
VERTEX
  8
0
 10
3.7620448
 20
113.55451
 42
0.0
  0
VERTEX
  8
0
 10
3.5015932
 20
113.49101
 42
0.0
  0
VERTEX
  8
0
 10
3.3183068
 20
113.415318
 42
0.0
  0
VERTEX
  8
0
 10
3.2549338
 20
113.389156
 42
0.0
  0
VERTEX
  8
0
 10
3.0468316
 20
113.26241
 42
0.0
  0
VERTEX
  8
0
 10
3.027553
 20
113.24971
 42
0.0
  0
VERTEX
  8
0
 10
2.823591
 20
113.076228
 42
0.0
  0
VERTEX
  8
0
 10
2.7174952
 20
112.951006
 42
0.0
  0
VERTEX
  8
0
 10
2.6513536
 20
112.872266
 42
0.0
  0
VERTEX
  8
0
 10
2.51078746
 20
112.64519
 42
0.0
  0
VERTEX
  8
0
 10
2.49424952
 20
112.603534
 42
0.0
  0
VERTEX
  8
0
 10
2.43774976
 20
112.465866
 42
0.0
  0
VERTEX
  8
0
 10
2.40881154
 20
112.398302
 42
0.0
  0
VERTEX
  8
0
 10
2.34679744
 20
112.139222
 42
0.0
  0
VERTEX
  8
0
 10
2.32612946
 20
111.87176
 42
0.0
  0
VERTEX
  8
0
 10
2.34679744
 20
111.605822
 42
0.0
  0
VERTEX
  8
0
 10
2.40881154
 20
111.345472
 42
0.0
  0
VERTEX
  8
0
 10
2.49424952
 20
111.14024
 42
0.0
  0
VERTEX
  8
0
 10
2.51078746
 20
111.098838
 42
0.0
  0
VERTEX
  8
0
 10
2.6513536
 20
110.871254
 42
0.0
  0
SEQEND
  0
POLYLINE
  8
0
 66
     1
 10
0.0
 20
0.0
 30
0.0
 70
     1
  0
VERTEX
  8
0
 10
2.51078746
 20
9.3927168
 42
0.0
  0
VERTEX
  8
0
 10
2.49700796
 20
9.359646
 42
0.0
  0
VERTEX
  8
0
 10
2.40881154
 20
9.1460574
 42
0.0
  0
VERTEX
  8
0
 10
2.40191798
 20
9.1143328
 42
0.0
  0
VERTEX
  8
0
 10
2.34679744
 20
8.8855804
 42
0.0
  0
VERTEX
  8
0
 10
2.32612946
 20
8.6196424
 42
0.0
  0
VERTEX
  8
0
 10
2.34679744
 20
8.353679
 42
0.0
  0
VERTEX
  8
0
 10
2.40881154
 20
8.0932274
 42
0.0
  0
VERTEX
  8
0
 10
2.49700796
 20
7.880985
 42
0.0
  0
VERTEX
  8
0
 10
2.51078746
 20
7.8465426
 42
0.0
  0
VERTEX
  8
0
 10
2.6513536
 20
7.6191872
 42
0.0
  0
VERTEX
  8
0
 10
2.6568654
 20
7.6109068
 42
0.0
  0
VERTEX
  8
0
 10
2.7174952
 20
7.5419966
 42
0.0
  0
VERTEX
  8
0
 10
2.823591
 20
7.4152252
 42
0.0
  0
VERTEX
  8
0
 10
3.027553
 20
7.2429878
 42
0.0
  0
VERTEX
  8
0
 10
3.0302962
 20
7.2401938
 42
0.0
  0
VERTEX
  8
0
 10
3.2549338
 20
7.1023988
 42
0.0
  0
VERTEX
  8
0
 10
3.2742124
 20
7.0955154
 42
0.0
  0
VERTEX
  8
0
 10
3.5015932
 20
7.0004432
 42
0.0
  0
VERTEX
  8
0
 10
3.7620448
 20
6.9384418
 42
0.0
  0
VERTEX
  8
0
 10
4.0280082
 20
6.9163946
 42
0.0
  0
VERTEX
  8
0
 10
4.2939716
 20
6.9384418
 42
0.0
  0
VERTEX
  8
0
 10
4.5544232
 20
7.0004432
 42
0.0
  0
VERTEX
  8
0
 10
4.781804
 20
7.0955154
 42
0.0
  0
VERTEX
  8
0
 10
4.8010826
 20
7.1023988
 42
0.0
  0
VERTEX
  8
0
 10
5.0284634
 20
7.2429878
 42
0.0
  0
VERTEX
  8
0
 10
5.049139
 20
7.2594978
 42
0.0
  0
VERTEX
  8
0
 10
5.2324
 20
7.4152252
 42
0.0
  0
VERTEX
  8
0
 10
5.4046628
 20
7.6191872
 42
0.0
  0
VERTEX
  8
0
 10
5.4211982
 20
7.6453746
 42
0.0
  0
VERTEX
  8
0
 10
5.5355744
 20
7.8300072
 42
0.0
  0
VERTEX
  8
0
 10
5.5452518
 20
7.8465426
 42
0.0
  0
VERTEX
  8
0
 10
5.6155082
 20
8.0174338
 42
0.0
  0
VERTEX
  8
0
 10
5.6472074
 20
8.0932274
 42
0.0
  0
VERTEX
  8
0
 10
5.7105804
 20
8.353679
 42
0.0
  0
VERTEX
  8
0
 10
5.731256
 20
8.6196424
 42
0.0
  0
VERTEX
  8
0
 10
5.7105804
 20
8.8855804
 42
0.0
  0
VERTEX
  8
0
 10
5.6540654
 20
9.1143328
 42
0.0
  0
VERTEX
  8
0
 10
5.6472074
 20
9.1460574
 42
0.0
  0
VERTEX
  8
0
 10
5.5452518
 20
9.3927168
 42
0.0
  0
VERTEX
  8
0
 10
5.5355744
 20
9.4092522
 42
0.0
  0
VERTEX
  8
0
 10
5.4046628
 20
9.6214438
 42
0.0
  0
VERTEX
  8
0
 10
5.3674518
 20
9.6655382
 42
0.0
  0
VERTEX
  8
0
 10
5.2324
 20
9.8240596
 42
0.0
  0
VERTEX
  8
0
 10
5.0284634
 20
9.9962716
 42
0.0
  0
VERTEX
  8
0
 10
4.9788572
 20
10.0279962
 42
0.0
  0
VERTEX
  8
0
 10
4.9168304
 20
10.0665788
 42
0.0
  0
VERTEX
  8
0
 10
4.807966
 20
10.1327204
 42
0.0
  0
VERTEX
  8
0
 10
4.8010826
 20
10.1368606
 42
0.0
  0
VERTEX
  8
0
 10
4.5544232
 20
10.2388162
 42
0.0
  0
VERTEX
  8
0
 10
4.2939716
 20
10.3008176
 42
0.0
  0
VERTEX
  8
0
 10
4.0280082
 20
10.3214932
 42
0.0
  0
VERTEX
  8
0
 10
3.7620448
 20
10.3008176
 42
0.0
  0
VERTEX
  8
0
 10
3.5015932
 20
10.2388162
 42
0.0
  0
VERTEX
  8
0
 10
3.2549338
 20
10.1368606
 42
0.0
  0
VERTEX
  8
0
 10
3.248025
 20
10.1327204
 42
0.0
  0
VERTEX
  8
0
 10
3.1391606
 20
10.0665788
 42
0.0
  0
VERTEX
  8
0
 10
3.027553
 20
9.9962716
 42
0.0
  0
VERTEX
  8
0
 10
2.9944822
 20
9.9701096
 42
0.0
  0
VERTEX
  8
0
 10
2.823591
 20
9.8240596
 42
0.0
  0
VERTEX
  8
0
 10
2.7174952
 20
9.6986344
 42
0.0
  0
VERTEX
  8
0
 10
2.6513536
 20
9.6214438
 42
0.0
  0
SEQEND
  0
POLYLINE
  8
0
 66
     1
 10
0.0
 20
0.0
 30
0.0
 70
     1
  0
VERTEX
  8
0
 10
7.0955154
 20
14.7464018
 42
0.0
  0
VERTEX
  8
0
 10
8.5893402
 20
14.7464018
 42
0.0
  0
VERTEX
  8
0
 10
8.5893402
 20
22.0045026
 42
0.0
  0
VERTEX
  8
0
 10
7.0651878
 20
22.0045026
 42
0.0
  0
VERTEX
  8
0
 10
7.0651878
 20
14.7464018
 42
0.0
  0
SEQEND
  0
POLYLINE
  8
0
 66
     1
 10
0.0
 20
0.0
 30
0.0
 70
     1
  0
VERTEX
  8
0
 10
13.9222988
 20
111.880396
 42
0.0
  0
VERTEX
  8
0
 10
11.3205768
 20
110.37824
 42
0.0
  0
VERTEX
  8
0
 10
11.0243112
 20
110.207044
 42
0.0
  0
VERTEX
  8
0
 10
11.0243112
 20
106.861356
 42
0.0
  0
VERTEX
  8
0
 10
13.9222988
 20
105.188512
 42
0.0
  0
VERTEX
  8
0
 10
16.8203372
 20
106.861356
 42
0.0
  0
VERTEX
  8
0
 10
16.8203372
 20
110.207044
 42
0.0
  0
VERTEX
  8
0
 10
16.5240462
 20
110.37824
 42
0.0
  0
VERTEX
  8
0
 10
16.077565
 20
110.635796
 42
0.0
  0
SEQEND
  0
POLYLINE
  8
0
 66
     1
 10
0.0
 20
0.0
 30
0.0
 70
     1
  0
VERTEX
  8
0
 10
14.867636
 20
143.973296
 42
0.0
  0
VERTEX
  8
0
 10
16.688054
 20
145.023332
 42
0.0
  0
VERTEX
  8
0
 10
16.8203372
 20
145.099278
 42
0.0
  0
VERTEX
  8
0
 10
16.9608754
 20
145.181828
 42
0.0
  0
VERTEX
  8
0
 10
17.5713644
 20
145.53311
 42
0.0
  0
VERTEX
  8
0
 10
17.5713644
 20
148.65731
 42
0.0
  0
VERTEX
  8
0
 10
14.867636
 20
150.217378
 42
0.0
  0
VERTEX
  8
0
 10
13.1009898
 20
149.197568
 42
0.0
  0
VERTEX
  8
0
 10
12.1639584
 20
148.65731
 42
0.0
  0
VERTEX
  8
0
 10
12.1639584
 20
145.53311
 42
0.0
  0
SEQEND
  0
POLYLINE
  8
0
 66
     1
 10
0.0
 20
0.0
 30
0.0
 70
     1
  0
VERTEX
  8
0
 10
21.6765378
 20
136.796526
 42
0.0
  0
VERTEX
  8
0
 10
21.1804504
 20
136.511284
 42
0.0
  0
VERTEX
  8
0
 10
21.0398868
 20
136.42975
 42
0.0
  0
VERTEX
  8
0
 10
21.0398868
 20
133.307328
 42
0.0
  0
VERTEX
  8
0
 10
21.1804504
 20
133.225794
 42
0.0
  0
VERTEX
  8
0
 10
21.6765378
 20
132.940806
 42
0.0
  0
VERTEX
  8
0
 10
21.8722194
 20
132.827776
 42
0.0
  0
VERTEX
  8
0
 10
23.7449868
 20
131.74599
 42
0.0
  0
VERTEX
  8
0
 10
26.450036
 20
133.307328
 42
0.0
  0
VERTEX
  8
0
 10
26.450036
 20
136.42975
 42
0.0
  0
VERTEX
  8
0
 10
25.927812
 20
136.731756
 42
0.0
  0
VERTEX
  8
0
 10
23.7449868
 20
137.991088
 42
0.0
  0
VERTEX
  8
0
 10
21.8722194
 20
136.910826
 42
0.0
  0
VERTEX
  8
0
 10
21.7316812
 20
136.829546
 42
0.0
  0
SEQEND
  0
POLYLINE
  8
0
 66
     1
 10
0.0
 20
0.0
 30
0.0
 70
     1
  0
VERTEX
  8
0
 10
21.312759
 20
145.023332
 42
0.0
  0
VERTEX
  8
0
 10
21.6765378
 20
144.813782
 42
0.0
  0
VERTEX
  8
0
 10
21.8722194
 20
144.701006
 42
0.0
  0
VERTEX
  8
0
 10
23.1331262
 20
143.973296
 42
0.0
  0
VERTEX
  8
0
 10
23.4335574
 20
144.146778
 42
0.0
  0
VERTEX
  8
0
 10
24.4091968
 20
144.709134
 42
0.0
  0
VERTEX
  8
0
 10
25.78735
 20
145.505678
 42
0.0
  0
VERTEX
  8
0
 10
25.83688
 20
145.53311
 42
0.0
  0
VERTEX
  8
0
 10
25.83688
 20
148.65731
 42
0.0
  0
VERTEX
  8
0
 10
25.78735
 20
148.686266
 42
0.0
  0
VERTEX
  8
0
 10
24.8997724
 20
149.197568
 42
0.0
  0
VERTEX
  8
0
 10
23.1331262
 20
150.217378
 42
0.0
  0
VERTEX
  8
0
 10
23.0669846
 20
150.18004
 42
0.0
  0
VERTEX
  8
0
 10
21.1873338
 20
149.09546
 42
0.0
  0
VERTEX
  8
0
 10
20.4294232
 20
148.65731
 42
0.0
  0
VERTEX
  8
0
 10
20.4294232
 20
145.53311
 42
0.0
  0
VERTEX
  8
0
 10
21.0398868
 20
145.181828
 42
0.0
  0
VERTEX
  8
0
 10
21.1804504
 20
145.099278
 42
0.0
  0
SEQEND
  0
POLYLINE
  8
0
 66
     1
 10
0.0
 20
0.0
 30
0.0
 70
     1
  0
VERTEX
  8
0
 10
21.1804504
 20
52.479956
 42
0.0
  0
VERTEX
  8
0
 10
21.1804504
 20
51.83505
 42
0.0
  0
VERTEX
  8
0
 10
24.0095532
 20
50.202084
 42
0.0
  0
VERTEX
  8
0
 10
24.0784634
 20
50.161698
 42
0.0
  0
VERTEX
  8
0
 10
24.86533
 20
50.616612
 42
0.0
  0
VERTEX
  8
0
 10
26.976578
 20
51.83505
 42
0.0
  0
VERTEX
  8
0
 10
26.976578
 20
55.180738
 42
0.0
  0
VERTEX
  8
0
 10
26.838656
 20
55.261002
 42
0.0
  0
VERTEX
  8
0
 10
24.0784634
 20
56.853582
 42
0.0
  0
VERTEX
  8
0
 10
24.0095532
 20
56.813704
 42
0.0
  0
VERTEX
  8
0
 10
21.1804504
 20
55.180738
 42
0.0
  0
SEQEND
  0
POLYLINE
  8
0
 66
     1
 10
0.0
 20
0.0
 30
0.0
 70
     1
  0
VERTEX
  8
0
 10
13.1354576
 20
50.616612
 42
0.0
  0
VERTEX
  8
0
 10
13.9222988
 20
50.161698
 42
0.0
  0
VERTEX
  8
0
 10
16.8203372
 20
51.83505
 42
0.0
  0
VERTEX
  8
0
 10
16.8203372
 20
55.180738
 42
0.0
  0
VERTEX
  8
0
 10
16.077565
 20
55.60949
 42
0.0
  0
VERTEX
  8
0
 10
13.9222988
 20
56.853582
 42
0.0
  0
VERTEX
  8
0
 10
11.0243112
 20
55.180738
 42
0.0
  0
VERTEX
  8
0
 10
11.0243112
 20
51.83505
 42
0.0
  0
SEQEND
  0
POLYLINE
  8
0
 66
     1
 10
0.0
 20
0.0
 30
0.0
 70
     1
  0
VERTEX
  8
0
 10
13.8244834
 20
96.082104
 42
0.0
  0
VERTEX
  8
0
 10
13.8244834
 20
94.232984
 42
0.0
  0
VERTEX
  8
0
 10
15.672435
 20
94.232984
 42
0.0
  0
VERTEX
  8
0
 10
15.672435
 20
99.257104
 42
0.0
  0
VERTEX
  8
0
 10
13.8244834
 20
99.257104
 42
0.0
  0
SEQEND
  0
POLYLINE
  8
0
 66
     1
 10
0.0
 20
0.0
 30
0.0
 70
     1
  0
VERTEX
  8
0
 10
24.0784634
 20
105.188512
 42
0.0
  0
VERTEX
  8
0
 10
26.838656
 20
106.7816
 42
0.0
  0
VERTEX
  8
0
 10
26.976578
 20
106.861356
 42
0.0
  0
VERTEX
  8
0
 10
26.976578
 20
110.207044
 42
0.0
  0
VERTEX
  8
0
 10
26.838656
 20
110.287054
 42
0.0
  0
VERTEX
  8
0
 10
26.68016
 20
110.37824
 42
0.0
  0
VERTEX
  8
0
 10
24.7964452
 20
111.46536
 42
0.0
  0
VERTEX
  8
0
 10
24.0784634
 20
111.880396
 42
0.0
  0
VERTEX
  8
0
 10
24.0095532
 20
111.84001
 42
0.0
  0
VERTEX
  8
0
 10
21.476716
 20
110.37824
 42
0.0
  0
VERTEX
  8
0
 10
21.1804504
 20
110.207044
 42
0.0
  0
VERTEX
  8
0
 10
21.1804504
 20
106.861356
 42
0.0
  0
VERTEX
  8
0
 10
21.8722194
 20
106.46156
 42
0.0
  0
SEQEND
  0
POLYLINE
  8
0
 66
     1
 10
0.0
 20
0.0
 30
0.0
 70
     1
  0
VERTEX
  8
0
 10
24.3816378
 20
99.283774
 42
0.0
  0
VERTEX
  8
0
 10
22.5185224
 20
99.283774
 42
0.0
  0
VERTEX
  8
0
 10
22.5185224
 20
94.232984
 42
0.0
  0
VERTEX
  8
0
 10
24.3816378
 20
94.232984
 42
0.0
  0
SEQEND
  0
POLYLINE
  8
0
 66
     1
 10
0.0
 20
0.0
 30
0.0
 70
     1
  0
VERTEX
  8
0
 10
12.691745
 20
22.2401638
 42
0.0
  0
VERTEX
  8
0
 10
13.5405876
 20
21.7509852
 42
0.0
  0
VERTEX
  8
0
 10
16.6591234
 20
23.5506768
 42
0.0
  0
VERTEX
  8
0
 10
16.6591234
 20
27.151584
 42
0.0
  0
VERTEX
  8
0
 10
13.8796268
 20
28.755594
 42
0.0
  0
VERTEX
  8
0
 10
13.5405876
 20
28.951174
 42
0.0
  0
VERTEX
  8
0
 10
10.4221026
 20
27.151584
 42
0.0
  0
VERTEX
  8
0
 10
10.4221026
 20
23.5506768
 42
0.0
  0
SEQEND
  0
POLYLINE
  8
0
 66
     1
 10
0.0
 20
0.0
 30
0.0
 70
     1
  0
VERTEX
  8
0
 10
16.843756
 20
30.77845
 42
0.0
  0
VERTEX
  8
0
 10
19.0003938
 20
29.532834
 42
0.0
  0
VERTEX
  8
0
 10
21.1570316
 20
30.77845
 42
0.0
  0
VERTEX
  8
0
 10
21.3416896
 20
30.885892
 42
0.0
  0
VERTEX
  8
0
 10
24.1211862
 20
32.489902
 42
0.0
  0
VERTEX
  8
0
 10
24.1211862
 20
38.412928
 42
0.0
  0
VERTEX
  8
0
 10
19.0003938
 20
41.368726
 42
0.0
  0
VERTEX
  8
0
 10
13.8796268
 20
38.412928
 42
0.0
  0
VERTEX
  8
0
 10
13.8796268
 20
32.489902
 42
0.0
  0
VERTEX
  8
0
 10
16.6591234
 20
30.885892
 42
0.0
  0
SEQEND
  0
POLYLINE
  8
0
 66
     1
 10
0.0
 20
0.0
 30
0.0
 70
     1
  0
VERTEX
  8
0
 10
27.578558
 20
23.5506768
 42
0.0
  0
VERTEX
  8
0
 10
27.578558
 20
27.151584
 42
0.0
  0
VERTEX
  8
0
 10
27.43962
 20
27.232864
 42
0.0
  0
VERTEX
  8
0
 10
24.4615462
 20
28.951174
 42
0.0
  0
VERTEX
  8
0
 10
24.3912644
 20
28.911296
 42
0.0
  0
VERTEX
  8
0
 10
21.3416896
 20
27.151584
 42
0.0
  0
VERTEX
  8
0
 10
21.3416896
 20
23.5506768
 42
0.0
  0
VERTEX
  8
0
 10
24.3912644
 20
21.790914
 42
0.0
  0
VERTEX
  8
0
 10
24.4615462
 20
21.7509852
 42
0.0
  0
VERTEX
  8
0
 10
25.3062994
 20
22.2387922
 42
0.0
  0
SEQEND
  0
POLYLINE
  8
0
 66
     1
 10
0.0
 20
0.0
 30
0.0
 70
     1
  0
VERTEX
  8
0
 10
29.426662
 20
14.7464018
 42
0.0
  0
VERTEX
  8
0
 10
30.950662
 20
14.7464018
 42
0.0
  0
VERTEX
  8
0
 10
30.950662
 20
22.0045026
 42
0.0
  0
VERTEX
  8
0
 10
29.426662
 20
22.0045026
 42
0.0
  0
SEQEND
  0
POLYLINE
  8
0
 66
     1
 10
0.0
 20
0.0
 30
0.0
 70
     1
  0
VERTEX
  8
0
 10
27.283664
 20
154.884628
 42
0.0
  0
VERTEX
  8
0
 10
27.293316
 20
154.865324
 42
0.0
  0
VERTEX
  8
0
 10
27.355546
 20
154.73426
 42
0.0
  0
VERTEX
  8
0
 10
27.44089
 20
154.591004
 42
0.0
  0
VERTEX
  8
0
 10
27.541474
 20
154.4574
 42
0.0
  0
VERTEX
  8
0
 10
27.65298
 20
154.333194
 42
0.0
  0
VERTEX
  8
0
 10
27.777186
 20
154.220418
 42
0.0
  0
VERTEX
  8
0
 10
27.91079
 20
154.121104
 42
0.0
  0
VERTEX
  8
0
 10
28.054046
 20
154.03576
 42
0.0
  0
VERTEX
  8
0
 10
28.205684
 20
153.964132
 42
0.0
  0
VERTEX
  8
0
 10
28.31719
 20
153.924
 42
0.0
  0
VERTEX
  8
0
 10
28.362656
 20
153.90749
 42
0.0
  0
VERTEX
  8
0
 10
28.52547
 20
153.866088
 42
0.0
  0
VERTEX
  8
0
 10
28.6893
 20
153.842974
 42
0.0
  0
VERTEX
  8
0
 10
28.857448
 20
153.834338
 42
0.0
  0
VERTEX
  8
0
 10
29.024326
 20
153.842974
 42
0.0
  0
VERTEX
  8
0
 10
29.18968
 20
153.866088
 42
0.0
  0
VERTEX
  8
0
 10
29.341318
 20
153.90495
 42
0.0
  0
VERTEX
  8
0
 10
29.350716
 20
153.90749
 42
0.0
  0
VERTEX
  8
0
 10
29.507942
 20
153.964132
 42
0.0
  0
VERTEX
  8
0
 10
29.557472
 20
153.9875
 42
0.0
  0
VERTEX
  8
0
 10
29.633418
 20
154.023568
 42
0.0
  0
VERTEX
  8
0
 10
29.649928
 20
154.031696
 42
0.0
  0
VERTEX
  8
0
 10
29.65958
 20
154.03576
 42
0.0
  0
VERTEX
  8
0
 10
29.802836
 20
154.121104
 42
0.0
  0
VERTEX
  8
0
 10
29.93644
 20
154.220418
 42
0.0
  0
VERTEX
  8
0
 10
30.060392
 20
154.333194
 42
0.0
  0
VERTEX
  8
0
 10
30.173422
 20
154.4574
 42
0.0
  0
VERTEX
  8
0
 10
30.271466
 20
154.591004
 42
0.0
  0
VERTEX
  8
0
 10
30.35808
 20
154.73426
 42
0.0
  0
VERTEX
  8
0
 10
30.429708
 20
154.884628
 42
0.0
  0
VERTEX
  8
0
 10
30.48635
 20
155.043124
 42
0.0
  0
VERTEX
  8
0
 10
30.527752
 20
155.20416
 42
0.0
  0
VERTEX
  8
0
 10
30.55112
 20
155.369768
 42
0.0
  0
VERTEX
  8
0
 10
30.556708
 20
155.474416
 42
0.0
  0
VERTEX
  8
0
 10
30.559502
 20
155.536646
 42
0.0
  0
VERTEX
  8
0
 10
30.55112
 20
155.70454
 42
0.0
  0
VERTEX
  8
0
 10
30.527752
 20
155.868624
 42
0.0
  0
VERTEX
  8
0
 10
30.48635
 20
156.031184
 42
0.0
  0
VERTEX
  8
0
 10
30.429708
 20
156.188156
 42
0.0
  0
VERTEX
  8
0
 10
30.35808
 20
156.339794
 42
0.0
  0
VERTEX
  8
0
 10
30.271466
 20
156.48305
 42
0.0
  0
VERTEX
  8
0
 10
30.26029
 20
156.49829
 42
0.0
  0
VERTEX
  8
0
 10
30.173422
 20
156.616654
 42
0.0
  0
VERTEX
  8
0
 10
30.060392
 20
156.74086
 42
0.0
  0
VERTEX
  8
0
 10
29.93644
 20
156.852366
 42
0.0
  0
VERTEX
  8
0
 10
29.802836
 20
156.95295
 42
0.0
  0
VERTEX
  8
0
 10
29.65958
 20
157.038294
 42
0.0
  0
VERTEX
  8
0
 10
29.649928
 20
157.042612
 42
0.0
  0
VERTEX
  8
0
 10
29.64434
 20
157.043882
 42
0.0
  0
VERTEX
  8
0
 10
29.633418
 20
157.049724
 42
0.0
  0
VERTEX
  8
0
 10
29.557472
 20
157.086554
 42
0.0
  0
VERTEX
  8
0
 10
29.507942
 20
157.110176
 42
0.0
  0
VERTEX
  8
0
 10
29.350716
 20
157.165294
 42
0.0
  0
VERTEX
  8
0
 10
29.341318
 20
157.168088
 42
0.0
  0
VERTEX
  8
0
 10
29.18968
 20
157.206696
 42
0.0
  0
VERTEX
  8
0
 10
29.024326
 20
157.231334
 42
0.0
  0
VERTEX
  8
0
 10
28.857448
 20
157.239716
 42
0.0
  0
VERTEX
  8
0
 10
28.6893
 20
157.231334
 42
0.0
  0
VERTEX
  8
0
 10
28.52547
 20
157.206696
 42
0.0
  0
VERTEX
  8
0
 10
28.362656
 20
157.165294
 42
0.0
  0
VERTEX
  8
0
 10
28.31719
 20
157.150054
 42
0.0
  0
VERTEX
  8
0
 10
28.205684
 20
157.110176
 42
0.0
  0
VERTEX
  8
0
 10
28.054046
 20
157.038294
 42
0.0
  0
VERTEX
  8
0
 10
27.91079
 20
156.95295
 42
0.0
  0
VERTEX
  8
0
 10
27.777186
 20
156.852366
 42
0.0
  0
VERTEX
  8
0
 10
27.65298
 20
156.74086
 42
0.0
  0
VERTEX
  8
0
 10
27.541474
 20
156.616654
 42
0.0
  0
VERTEX
  8
0
 10
27.44089
 20
156.48305
 42
0.0
  0
VERTEX
  8
0
 10
27.355546
 20
156.339794
 42
0.0
  0
VERTEX
  8
0
 10
27.293316
 20
156.20746
 42
0.0
  0
VERTEX
  8
0
 10
27.283664
 20
156.188156
 42
0.0
  0
VERTEX
  8
0
 10
27.228546
 20
156.031184
 42
0.0
  0
VERTEX
  8
0
 10
27.187398
 20
155.868624
 42
0.0
  0
VERTEX
  8
0
 10
27.162506
 20
155.70454
 42
0.0
  0
VERTEX
  8
0
 10
27.154378
 20
155.536646
 42
0.0
  0
VERTEX
  8
0
 10
27.156918
 20
155.474416
 42
0.0
  0
VERTEX
  8
0
 10
27.162506
 20
155.369768
 42
0.0
  0
VERTEX
  8
0
 10
27.187398
 20
155.20416
 42
0.0
  0
VERTEX
  8
0
 10
27.228546
 20
155.043124
 42
0.0
  0
SEQEND
  0
POLYLINE
  8
0
 66
     1
 10
0.0
 20
0.0
 30
0.0
 70
     1
  0
VERTEX
  8
0
 10
8.8580468
 20
153.830528
 42
0.0
  0
VERTEX
  8
0
 10
8.86079
 20
153.829004
 42
0.0
  0
VERTEX
  8
0
 10
9.0165174
 20
153.77414
 42
0.0
  0
VERTEX
  8
0
 10
9.1777312
 20
153.732484
 42
0.0
  0
VERTEX
  8
0
 10
9.3431106
 20
153.709116
 42
0.0
  0
VERTEX
  8
0
 10
9.5098362
 20
153.700988
 42
0.0
  0
VERTEX
  8
0
 10
9.6765872
 20
153.709116
 42
0.0
  0
VERTEX
  8
0
 10
9.8419412
 20
153.732484
 42
0.0
  0
VERTEX
  8
0
 10
10.0045774
 20
153.77414
 42
0.0
  0
VERTEX
  8
0
 10
10.161651
 20
153.830528
 42
0.0
  0
VERTEX
  8
0
 10
10.3118666
 20
153.902156
 42
0.0
  0
VERTEX
  8
0
 10
10.456545
 20
153.9875
 42
0.0
  0
VERTEX
  8
0
 10
10.5902252
 20
154.08656
 42
0.0
  0
VERTEX
  8
0
 10
10.7142534
 20
154.198574
 42
0.0
  0
VERTEX
  8
0
 10
10.825861
 20
154.322272
 42
0.0
  0
VERTEX
  8
0
 10
10.9085634
 20
154.435556
 42
0.0
  0
VERTEX
  8
0
 10
10.9250988
 20
154.4574
 42
0.0
  0
VERTEX
  8
0
 10
11.010519
 20
154.600656
 42
0.0
  0
VERTEX
  8
0
 10
11.0835694
 20
154.752294
 42
0.0
  0
VERTEX
  8
0
 10
11.1386874
 20
154.909266
 42
0.0
  0
VERTEX
  8
0
 10
11.1800132
 20
155.070556
 42
0.0
  0
VERTEX
  8
0
 10
11.2034574
 20
155.23591
 42
0.0
  0
VERTEX
  8
0
 10
11.2117378
 20
155.402788
 42
0.0
  0
VERTEX
  8
0
 10
11.2089438
 20
155.474416
 42
0.0
  0
VERTEX
  8
0
 10
11.2034574
 20
155.569412
 42
0.0
  0
VERTEX
  8
0
 10
11.1800132
 20
155.734766
 42
0.0
  0
VERTEX
  8
0
 10
11.1386874
 20
155.897326
 42
0.0
  0
VERTEX
  8
0
 10
11.0835694
 20
156.054552
 42
0.0
  0
VERTEX
  8
0
 10
11.010519
 20
156.20619
 42
0.0
  0
VERTEX
  8
0
 10
10.9250988
 20
156.349446
 42
0.0
  0
VERTEX
  8
0
 10
10.9085634
 20
156.370274
 42
0.0
  0
VERTEX
  8
0
 10
10.825861
 20
156.48305
 42
0.0
  0
VERTEX
  8
0
 10
10.7142534
 20
156.607256
 42
0.0
  0
VERTEX
  8
0
 10
10.5902252
 20
156.718762
 42
0.0
  0
VERTEX
  8
0
 10
10.456545
 20
156.819346
 42
0.0
  0
VERTEX
  8
0
 10
10.3118666
 20
156.904944
 42
0.0
  0
VERTEX
  8
0
 10
10.161651
 20
156.976572
 42
0.0
  0
VERTEX
  8
0
 10
10.0045774
 20
157.03169
 42
0.0
  0
VERTEX
  8
0
 10
9.8419412
 20
157.072838
 42
0.0
  0
VERTEX
  8
0
 10
9.6765872
 20
157.097476
 42
0.0
  0
VERTEX
  8
0
 10
9.5098362
 20
157.106112
 42
0.0
  0
VERTEX
  8
0
 10
9.3431106
 20
157.097476
 42
0.0
  0
VERTEX
  8
0
 10
9.1777312
 20
157.072838
 42
0.0
  0
VERTEX
  8
0
 10
9.0165174
 20
157.03169
 42
0.0
  0
VERTEX
  8
0
 10
8.86079
 20
156.976572
 42
0.0
  0
VERTEX
  8
0
 10
8.8580468
 20
156.976572
 42
0.0
  0
VERTEX
  8
0
 10
8.7064596
 20
156.904944
 42
0.0
  0
VERTEX
  8
0
 10
8.564499
 20
156.819346
 42
0.0
  0
VERTEX
  8
0
 10
8.5617304
 20
156.817822
 42
0.0
  0
VERTEX
  8
0
 10
8.4694268
 20
156.748988
 42
0.0
  0
VERTEX
  8
0
 10
8.4294472
 20
156.718762
 42
0.0
  0
VERTEX
  8
0
 10
8.3054444
 20
156.607256
 42
0.0
  0
VERTEX
  8
0
 10
8.1938368
 20
156.48305
 42
0.0
  0
VERTEX
  8
0
 10
8.094599
 20
156.349446
 42
0.0
  0
VERTEX
  8
0
 10
8.0077818
 20
156.20619
 42
0.0
  0
VERTEX
  8
0
 10
7.9375
 20
156.054552
 42
0.0
  0
VERTEX
  8
0
 10
7.880985
 20
155.897326
 42
0.0
  0
VERTEX
  8
0
 10
7.8396846
 20
155.734766
 42
0.0
  0
VERTEX
  8
0
 10
7.8162404
 20
155.569412
 42
0.0
  0
VERTEX
  8
0
 10
7.8107032
 20
155.474416
 42
0.0
  0
VERTEX
  8
0
 10
7.8065884
 20
155.402788
 42
0.0
  0
VERTEX
  8
0
 10
7.8162404
 20
155.23591
 42
0.0
  0
VERTEX
  8
0
 10
7.8396846
 20
155.070556
 42
0.0
  0
VERTEX
  8
0
 10
7.880985
 20
154.909266
 42
0.0
  0
VERTEX
  8
0
 10
7.9375
 20
154.752294
 42
0.0
  0
VERTEX
  8
0
 10
8.0077818
 20
154.600656
 42
0.0
  0
VERTEX
  8
0
 10
8.094599
 20
154.4574
 42
0.0
  0
VERTEX
  8
0
 10
8.1938368
 20
154.322272
 42
0.0
  0
VERTEX
  8
0
 10
8.3054444
 20
154.198574
 42
0.0
  0
VERTEX
  8
0
 10
8.4294472
 20
154.08656
 42
0.0
  0
VERTEX
  8
0
 10
8.4694268
 20
154.057604
 42
0.0
  0
VERTEX
  8
0
 10
8.5617304
 20
153.989024
 42
0.0
  0
VERTEX
  8
0
 10
8.564499
 20
153.9875
 42
0.0
  0
VERTEX
  8
0
 10
8.7064596
 20
153.902156
 42
0.0
  0
SEQEND
  0
POLYLINE
  8
0
 66
     1
 10
0.0
 20
0.0
 30
0.0
 70
     1
  0
VERTEX
  8
0
 10
32.90062
 20
47.274988
 42
0.0
  0
VERTEX
  8
0
 10
32.976566
 20
47.210218
 42
0.0
  0
VERTEX
  8
0
 10
33.100518
 20
47.134272
 42
0.0
  0
VERTEX
  8
0
 10
33.154112
 20
47.101506
 42
0.0
  0
VERTEX
  8
0
 10
33.205166
 20
47.069756
 42
0.0
  0
VERTEX
  8
0
 10
33.436814
 20
46.974506
 42
0.0
  0
VERTEX
  8
0
 10
33.4518
 20
46.967648
 42
0.0
  0
VERTEX
  8
0
 10
33.607502
 20
46.93031
 42
0.0
  0
VERTEX
  8
0
 10
33.71088
 20
46.904402
 42
0.0
  0
VERTEX
  8
0
 10
33.978342
 20
46.883574
 42
0.0
  0
VERTEX
  8
0
 10
34.24428
 20
46.904402
 42
0.0
  0
VERTEX
  8
0
 10
34.347658
 20
46.93031
 42
0.0
  0
VERTEX
  8
0
 10
34.50336
 20
46.967648
 42
0.0
  0
VERTEX
  8
0
 10
34.751264
 20
47.069756
 42
0.0
  0
VERTEX
  8
0
 10
34.801048
 20
47.101506
 42
0.0
  0
VERTEX
  8
0
 10
34.944304
 20
47.189644
 42
0.0
  0
VERTEX
  8
0
 10
34.977324
 20
47.210218
 42
0.0
  0
VERTEX
  8
0
 10
35.181286
 20
47.382684
 42
0.0
  0
VERTEX
  8
0
 10
35.338512
 20
47.567088
 42
0.0
  0
VERTEX
  8
0
 10
35.355022
 20
47.586646
 42
0.0
  0
VERTEX
  8
0
 10
35.484562
 20
47.797212
 42
0.0
  0
VERTEX
  8
0
 10
35.495484
 20
47.813722
 42
0.0
  0
VERTEX
  8
0
 10
35.506406
 20
47.842678
 42
0.0
  0
VERTEX
  8
0
 10
35.597338
 20
48.060356
 42
0.0
  0
VERTEX
  8
0
 10
35.659568
 20
48.32096
 42
0.0
  0
VERTEX
  8
0
 10
35.680396
 20
48.587152
 42
0.0
  0
VERTEX
  8
0
 10
35.659568
 20
48.852582
 42
0.0
  0
VERTEX
  8
0
 10
35.597338
 20
49.11344
 42
0.0
  0
VERTEX
  8
0
 10
35.506406
 20
49.331118
 42
0.0
  0
VERTEX
  8
0
 10
35.495484
 20
49.360074
 42
0.0
  0
VERTEX
  8
0
 10
35.484562
 20
49.376584
 42
0.0
  0
VERTEX
  8
0
 10
35.355022
 20
49.587404
 42
0.0
  0
VERTEX
  8
0
 10
35.32759
 20
49.620424
 42
0.0
  0
VERTEX
  8
0
 10
35.181286
 20
49.791366
 42
0.0
  0
VERTEX
  8
0
 10
34.977324
 20
49.963578
 42
0.0
  0
VERTEX
  8
0
 10
34.94151
 20
49.986946
 42
0.0
  0
VERTEX
  8
0
 10
34.751264
 20
50.10404
 42
0.0
  0
VERTEX
  8
0
 10
34.66592
 20
50.138584
 42
0.0
  0
VERTEX
  8
0
 10
34.50336
 20
50.205894
 42
0.0
  0
VERTEX
  8
0
 10
34.24428
 20
50.268124
 42
0.0
  0
VERTEX
  8
0
 10
33.978342
 20
50.288698
 42
0.0
  0
VERTEX
  8
0
 10
33.71088
 20
50.268124
 42
0.0
  0
VERTEX
  8
0
 10
33.4518
 20
50.205894
 42
0.0
  0
VERTEX
  8
0
 10
33.436814
 20
50.19929
 42
0.0
  0
VERTEX
  8
0
 10
33.28924
 20
50.138584
 42
0.0
  0
VERTEX
  8
0
 10
33.205166
 20
50.10404
 42
0.0
  0
VERTEX
  8
0
 10
32.993076
 20
49.972976
 42
0.0
  0
VERTEX
  8
0
 10
32.976566
 20
49.963578
 42
0.0
  0
VERTEX
  8
0
 10
32.773874
 20
49.791366
 42
0.0
  0
VERTEX
  8
0
 10
32.629094
 20
49.621694
 42
0.0
  0
VERTEX
  8
0
 10
32.600392
 20
49.587404
 42
0.0
  0
VERTEX
  8
0
 10
32.497014
 20
49.419256
 42
0.0
  0
VERTEX
  8
0
 10
32.49422
 20
49.413668
 42
0.0
  0
VERTEX
  8
0
 10
32.469328
 20
49.372266
 42
0.0
  0
VERTEX
  8
0
 10
32.460946
 20
49.360074
 42
0.0
  0
VERTEX
  8
0
 10
32.357822
 20
49.11344
 42
0.0
  0
VERTEX
  8
0
 10
32.326072
 20
48.978312
 42
0.0
  0
VERTEX
  8
0
 10
32.295592
 20
48.852582
 42
0.0
  0
VERTEX
  8
0
 10
32.275018
 20
48.587152
 42
0.0
  0
VERTEX
  8
0
 10
32.295592
 20
48.32096
 42
0.0
  0
VERTEX
  8
0
 10
32.357822
 20
48.060356
 42
0.0
  0
VERTEX
  8
0
 10
32.460946
 20
47.813722
 42
0.0
  0
VERTEX
  8
0
 10
32.469328
 20
47.801276
 42
0.0
  0
VERTEX
  8
0
 10
32.49422
 20
47.760128
 42
0.0
  0
VERTEX
  8
0
 10
32.497014
 20
47.75454
 42
0.0
  0
VERTEX
  8
0
 10
32.550608
 20
47.666402
 42
0.0
  0
VERTEX
  8
0
 10
32.600392
 20
47.586646
 42
0.0
  0
VERTEX
  8
0
 10
32.773874
 20
47.382684
 42
0.0
  0
SEQEND
  0
POLYLINE
  8
0
 66
     1
 10
0.0
 20
0.0
 30
0.0
 70
     1
  0
VERTEX
  8
0
 10
32.91586
 20
110.546134
 42
0.0
  0
VERTEX
  8
0
 10
32.976566
 20
110.495334
 42
0.0
  0
VERTEX
  8
0
 10
33.168082
 20
110.37824
 42
0.0
  0
VERTEX
  8
0
 10
33.205166
 20
110.354618
 42
0.0
  0
VERTEX
  8
0
 10
33.436814
 20
110.259622
 42
0.0
  0
VERTEX
  8
0
 10
33.4518
 20
110.25251
 42
0.0
  0
VERTEX
  8
0
 10
33.71088
 20
110.190788
 42
0.0
  0
VERTEX
  8
0
 10
33.978342
 20
110.16996
 42
0.0
  0
VERTEX
  8
0
 10
34.24428
 20
110.190788
 42
0.0
  0
VERTEX
  8
0
 10
34.50336
 20
110.25251
 42
0.0
  0
VERTEX
  8
0
 10
34.751264
 20
110.354618
 42
0.0
  0
VERTEX
  8
0
 10
34.788602
 20
110.37824
 42
0.0
  0
VERTEX
  8
0
 10
34.94151
 20
110.471712
 42
0.0
  0
VERTEX
  8
0
 10
34.977324
 20
110.495334
 42
0.0
  0
VERTEX
  8
0
 10
35.181286
 20
110.667546
 42
0.0
  0
VERTEX
  8
0
 10
35.338512
 20
110.852204
 42
0.0
  0
VERTEX
  8
0
 10
35.355022
 20
110.871254
 42
0.0
  0
VERTEX
  8
0
 10
35.484562
 20
111.082328
 42
0.0
  0
VERTEX
  8
0
 10
35.495484
 20
111.098838
 42
0.0
  0
VERTEX
  8
0
 10
35.502596
 20
111.117888
 42
0.0
  0
VERTEX
  8
0
 10
35.506406
 20
111.127794
 42
0.0
  0
VERTEX
  8
0
 10
35.597338
 20
111.345472
 42
0.0
  0
VERTEX
  8
0
 10
35.659568
 20
111.605822
 42
0.0
  0
VERTEX
  8
0
 10
35.680396
 20
111.87176
 42
0.0
  0
VERTEX
  8
0
 10
35.659568
 20
112.139222
 42
0.0
  0
VERTEX
  8
0
 10
35.597338
 20
112.398302
 42
0.0
  0
VERTEX
  8
0
 10
35.568382
 20
112.465866
 42
0.0
  0
VERTEX
  8
0
 10
35.506406
 20
112.616234
 42
0.0
  0
VERTEX
  8
0
 10
35.502596
 20
112.625632
 42
0.0
  0
VERTEX
  8
0
 10
35.495484
 20
112.64519
 42
0.0
  0
VERTEX
  8
0
 10
35.484562
 20
112.661446
 42
0.0
  0
VERTEX
  8
0
 10
35.355022
 20
112.872266
 42
0.0
  0
VERTEX
  8
0
 10
35.342576
 20
112.887506
 42
0.0
  0
VERTEX
  8
0
 10
35.181286
 20
113.076228
 42
0.0
  0
VERTEX
  8
0
 10
34.977324
 20
113.24971
 42
0.0
  0
VERTEX
  8
0
 10
34.959544
 20
113.26114
 42
0.0
  0
VERTEX
  8
0
 10
34.751264
 20
113.389156
 42
0.0
  0
VERTEX
  8
0
 10
34.688018
 20
113.415318
 42
0.0
  0
VERTEX
  8
0
 10
34.50336
 20
113.49101
 42
0.0
  0
VERTEX
  8
0
 10
34.24428
 20
113.55451
 42
0.0
  0
VERTEX
  8
0
 10
33.978342
 20
113.575084
 42
0.0
  0
VERTEX
  8
0
 10
33.71088
 20
113.55451
 42
0.0
  0
VERTEX
  8
0
 10
33.4518
 20
113.49101
 42
0.0
  0
VERTEX
  8
0
 10
33.436814
 20
113.484406
 42
0.0
  0
VERTEX
  8
0
 10
33.268666
 20
113.415318
 42
0.0
  0
VERTEX
  8
0
 10
33.205166
 20
113.389156
 42
0.0
  0
VERTEX
  8
0
 10
32.99587
 20
113.26114
 42
0.0
  0
VERTEX
  8
0
 10
32.976566
 20
113.24971
 42
0.0
  0
VERTEX
  8
0
 10
32.773874
 20
113.076228
 42
0.0
  0
VERTEX
  8
0
 10
32.600392
 20
112.872266
 42
0.0
  0
VERTEX
  8
0
 10
32.497014
 20
112.704372
 42
0.0
  0
VERTEX
  8
0
 10
32.49422
 20
112.698784
 42
0.0
  0
VERTEX
  8
0
 10
32.469328
 20
112.657382
 42
0.0
  0
VERTEX
  8
0
 10
32.460946
 20
112.64519
 42
0.0
  0
VERTEX
  8
0
 10
32.386778
 20
112.465866
 42
0.0
  0
VERTEX
  8
0
 10
32.357822
 20
112.398302
 42
0.0
  0
VERTEX
  8
0
 10
32.295592
 20
112.139222
 42
0.0
  0
VERTEX
  8
0
 10
32.275018
 20
111.87176
 42
0.0
  0
VERTEX
  8
0
 10
32.295592
 20
111.605822
 42
0.0
  0
VERTEX
  8
0
 10
32.357822
 20
111.345472
 42
0.0
  0
VERTEX
  8
0
 10
32.460946
 20
111.098838
 42
0.0
  0
VERTEX
  8
0
 10
32.469328
 20
111.086646
 42
0.0
  0
VERTEX
  8
0
 10
32.49422
 20
111.04499
 42
0.0
  0
VERTEX
  8
0
 10
32.497014
 20
111.039656
 42
0.0
  0
VERTEX
  8
0
 10
32.55899
 20
110.940596
 42
0.0
  0
VERTEX
  8
0
 10
32.600392
 20
110.871254
 42
0.0
  0
VERTEX
  8
0
 10
32.773874
 20
110.667546
 42
0.0
  0
SEQEND
  0
POLYLINE
  8
0
 66
     1
 10
0.0
 20
0.0
 30
0.0
 70
     1
  0
VERTEX
  8
0
 10
32.99841
 20
56.385206
 42
0.0
  0
VERTEX
  8
0
 10
32.99841
 20
56.378602
 42
0.0
  0
VERTEX
  8
0
 10
35.003486
 20
56.378602
 42
0.0
  0
VERTEX
  8
0
 10
35.003486
 20
72.13346
 42
0.0
  0
VERTEX
  8
0
 10
34.914078
 20
72.13346
 42
0.0
  0
VERTEX
  8
0
 10
34.914078
 20
72.140318
 42
0.0
  0
VERTEX
  8
0
 10
31.908496
 20
72.140318
 42
0.0
  0
VERTEX
  8
0
 10
31.908496
 20
56.385206
 42
0.0
  0
SEQEND
  0
POLYLINE
  8
0
 66
     1
 10
0.0
 20
0.0
 30
0.0
 70
     1
  0
VERTEX
  8
0
 10
35.003486
 20
75.877674
 42
0.0
  0
VERTEX
  8
0
 10
35.003486
 20
97.883472
 42
0.0
  0
VERTEX
  8
0
 10
34.914078
 20
97.883472
 42
0.0
  0
VERTEX
  8
0
 10
34.914078
 20
97.890076
 42
0.0
  0
VERTEX
  8
0
 10
31.908496
 20
97.890076
 42
0.0
  0
VERTEX
  8
0
 10
31.908496
 20
75.884278
 42
0.0
  0
VERTEX
  8
0
 10
32.99841
 20
75.884278
 42
0.0
  0
VERTEX
  8
0
 10
32.99841
 20
75.877674
 42
0.0
  0
SEQEND
  0
POLYLINE
  8
0
 66
     1
 10
0.0
 20
0.0
 30
0.0
 70
     1
  0
VERTEX
  8
0
 10
32.773874
 20
9.8240596
 42
0.0
  0
VERTEX
  8
0
 10
32.600392
 20
9.6214438
 42
0.0
  0
VERTEX
  8
0
 10
32.497014
 20
9.451975
 42
0.0
  0
VERTEX
  8
0
 10
32.49422
 20
9.4464378
 42
0.0
  0
VERTEX
  8
0
 10
32.460946
 20
9.3927168
 42
0.0
  0
VERTEX
  8
0
 10
32.357822
 20
9.1460574
 42
0.0
  0
VERTEX
  8
0
 10
32.35071
 20
9.1143328
 42
0.0
  0
VERTEX
  8
0
 10
32.295592
 20
8.8855804
 42
0.0
  0
VERTEX
  8
0
 10
32.275018
 20
8.6196424
 42
0.0
  0
VERTEX
  8
0
 10
32.295592
 20
8.353679
 42
0.0
  0
VERTEX
  8
0
 10
32.357822
 20
8.0932274
 42
0.0
  0
VERTEX
  8
0
 10
32.389318
 20
8.0174338
 42
0.0
  0
VERTEX
  8
0
 10
32.460946
 20
7.8465426
 42
0.0
  0
VERTEX
  8
0
 10
32.466534
 20
7.8382876
 42
0.0
  0
VERTEX
  8
0
 10
32.49422
 20
7.7927962
 42
0.0
  0
VERTEX
  8
0
 10
32.497014
 20
7.7872844
 42
0.0
  0
VERTEX
  8
0
 10
32.586422
 20
7.6412344
 42
0.0
  0
VERTEX
  8
0
 10
32.600392
 20
7.6191872
 42
0.0
  0
VERTEX
  8
0
 10
32.773874
 20
7.4152252
 42
0.0
  0
VERTEX
  8
0
 10
32.976566
 20
7.2429878
 42
0.0
  0
VERTEX
  8
0
 10
33.205166
 20
7.1023988
 42
0.0
  0
VERTEX
  8
0
 10
33.22447
 20
7.0955154
 42
0.0
  0
VERTEX
  8
0
 10
33.436814
 20
7.0073266
 42
0.0
  0
VERTEX
  8
0
 10
33.4518
 20
7.0004432
 42
0.0
  0
VERTEX
  8
0
 10
33.71088
 20
6.9384418
 42
0.0
  0
VERTEX
  8
0
 10
33.978342
 20
6.9163946
 42
0.0
  0
VERTEX
  8
0
 10
34.24428
 20
6.9384418
 42
0.0
  0
VERTEX
  8
0
 10
34.50336
 20
7.0004432
 42
0.0
  0
VERTEX
  8
0
 10
34.73196
 20
7.0955154
 42
0.0
  0
VERTEX
  8
0
 10
34.751264
 20
7.1023988
 42
0.0
  0
VERTEX
  8
0
 10
34.964878
 20
7.2347074
 42
0.0
  0
VERTEX
  8
0
 10
34.977324
 20
7.2429878
 42
0.0
  0
VERTEX
  8
0
 10
35.181286
 20
7.4152252
 42
0.0
  0
VERTEX
  8
0
 10
35.3441
 20
7.605395
 42
0.0
  0
VERTEX
  8
0
 10
35.355022
 20
7.6191872
 42
0.0
  0
VERTEX
  8
0
 10
35.484562
 20
7.8300072
 42
0.0
  0
VERTEX
  8
0
 10
35.495484
 20
7.8465426
 42
0.0
  0
VERTEX
  8
0
 10
35.502596
 20
7.8658466
 42
0.0
  0
VERTEX
  8
0
 10
35.597338
 20
8.0932274
 42
0.0
  0
VERTEX
  8
0
 10
35.659568
 20
8.353679
 42
0.0
  0
VERTEX
  8
0
 10
35.680396
 20
8.6196424
 42
0.0
  0
VERTEX
  8
0
 10
35.659568
 20
8.8855804
 42
0.0
  0
VERTEX
  8
0
 10
35.60445
 20
9.1143328
 42
0.0
  0
VERTEX
  8
0
 10
35.597338
 20
9.1460574
 42
0.0
  0
VERTEX
  8
0
 10
35.502596
 20
9.3734128
 42
0.0
  0
VERTEX
  8
0
 10
35.495484
 20
9.3927168
 42
0.0
  0
VERTEX
  8
0
 10
35.484562
 20
9.4092522
 42
0.0
  0
VERTEX
  8
0
 10
35.374072
 20
9.58977
 42
0.0
  0
VERTEX
  8
0
 10
35.355022
 20
9.6214438
 42
0.0
  0
VERTEX
  8
0
 10
35.181286
 20
9.8240596
 42
0.0
  0
VERTEX
  8
0
 10
35.010344
 20
9.9687126
 42
0.0
  0
VERTEX
  8
0
 10
34.977324
 20
9.9962716
 42
0.0
  0
VERTEX
  8
0
 10
34.865818
 20
10.0665788
 42
0.0
  0
VERTEX
  8
0
 10
34.756852
 20
10.1327204
 42
0.0
  0
VERTEX
  8
0
 10
34.751264
 20
10.1368606
 42
0.0
  0
VERTEX
  8
0
 10
34.50336
 20
10.2388162
 42
0.0
  0
VERTEX
  8
0
 10
34.24428
 20
10.3008176
 42
0.0
  0
VERTEX
  8
0
 10
33.978342
 20
10.3214932
 42
0.0
  0
VERTEX
  8
0
 10
33.71088
 20
10.3008176
 42
0.0
  0
VERTEX
  8
0
 10
33.4518
 20
10.2388162
 42
0.0
  0
VERTEX
  8
0
 10
33.205166
 20
10.1368606
 42
0.0
  0
VERTEX
  8
0
 10
33.198308
 20
10.1327204
 42
0.0
  0
VERTEX
  8
0
 10
33.089342
 20
10.0665788
 42
0.0
  0
VERTEX
  8
0
 10
33.016444
 20
10.0211128
 42
0.0
  0
VERTEX
  8
0
 10
32.976566
 20
9.9962716
 42
0.0
  0
SEQEND
  0
POLYLINE
  8
0
 66
     1
 10
0.0
 20
0.0
 30
0.0
 70
     1
  0
VERTEX
  8
0
 10
14.2558262
 20
131.74599
 42
0.0
  0
VERTEX
  8
0
 10
16.8203372
 20
133.225794
 42
0.0
  0
VERTEX
  8
0
 10
16.9608754
 20
133.307328
 42
0.0
  0
VERTEX
  8
0
 10
16.9608754
 20
136.42975
 42
0.0
  0
VERTEX
  8
0
 10
16.8203372
 20
136.511284
 42
0.0
  0
VERTEX
  8
0
 10
16.2677602
 20
136.829546
 42
0.0
  0
VERTEX
  8
0
 10
14.2558262
 20
137.991088
 42
0.0
  0
VERTEX
  8
0
 10
12.073001
 20
136.730232
 42
0.0
  0
VERTEX
  8
0
 10
11.5507262
 20
136.42975
 42
0.0
  0
VERTEX
  8
0
 10
11.5507262
 20
133.307328
 42
0.0
  0
SEQEND
  0
POLYLINE
  8
0
 66
     1
 10
0.0
 20
0.0
 30
0.0
 70
     1
  0
VERTEX
  8
0
 10
5.002276
 20
56.385206
 42
0.0
  0
VERTEX
  8
0
 10
6.09092
 20
56.385206
 42
0.0
  0
VERTEX
  8
0
 10
6.09092
 20
72.140318
 42
0.0
  0
VERTEX
  8
0
 10
3.0854142
 20
72.140318
 42
0.0
  0
VERTEX
  8
0
 10
3.0854142
 20
72.13346
 42
0.0
  0
VERTEX
  8
0
 10
2.9972254
 20
72.13346
 42
0.0
  0
VERTEX
  8
0
 10
2.9972254
 20
56.378602
 42
0.0
  0
VERTEX
  8
0
 10
5.002276
 20
56.378602
 42
0.0
  0
SEQEND
  0
POLYLINE
  8
0
 66
     1
 10
0.0
 20
0.0
 30
0.0
 70
     1
  0
VERTEX
  8
0
 10
5.002276
 20
75.884278
 42
0.0
  0
VERTEX
  8
0
 10
6.09092
 20
75.884278
 42
0.0
  0
VERTEX
  8
0
 10
6.09092
 20
97.890076
 42
0.0
  0
VERTEX
  8
0
 10
3.0854142
 20
97.890076
 42
0.0
  0
VERTEX
  8
0
 10
3.0854142
 20
97.883472
 42
0.0
  0
VERTEX
  8
0
 10
2.9972254
 20
97.883472
 42
0.0
  0
VERTEX
  8
0
 10
2.9972254
 20
75.877674
 42
0.0
  0
VERTEX
  8
0
 10
5.002276
 20
75.877674
 42
0.0
  0
SEQEND
  0
POLYLINE
  8
0
 66
     1
 10
0.0
 20
0.0
 30
0.0
 70
     1
  0
VERTEX
  8
0
 10
1.00045774
 20
115.478306
 42
0.0
  0
VERTEX
  8
0
 10
2.32199434
 20
116.145056
 42
0.0
  0
VERTEX
  8
0
 10
2.32612946
 20
116.14785
 42
0.0
  0
VERTEX
  8
0
 10
2.49700796
 20
116.233194
 42
0.0
  0
VERTEX
  8
0
 10
5.5314596
 20
117.764306
 42
0.0
  0
VERTEX
  8
0
 10
5.5355744
 20
117.7671
 42
0.0
  0
VERTEX
  8
0
 10
6.09092
 20
118.046754
 42
0.0
  0
VERTEX
  8
0
 10
6.2025276
 20
118.103396
 42
0.0
  0
VERTEX
  8
0
 10
6.2025276
 20
157.657038
 42
0.0
  0
VERTEX
  8
0
 10
6.3293244
 20
157.719268
 42
0.0
  0
VERTEX
  8
0
 10
7.1740522
 20
158.132526
 42
0.0
  0
VERTEX
  8
0
 10
7.8065884
 20
158.44139
 42
0.0
  0
VERTEX
  8
0
 10
8.4694268
 20
158.76651
 42
0.0
  0
VERTEX
  8
0
 10
8.5617304
 20
158.810706
 42
0.0
  0
VERTEX
  8
0
 10
10.0004372
 20
159.513524
 42
0.0
  0
VERTEX
  8
0
 10
13.2167376
 20
159.513524
 42
0.0
  0
VERTEX
  8
0
 10
14.4983454
 20
158.773368
 42
0.0
  0
VERTEX
  8
0
 10
14.4983454
 20
152.635712
 42
0.0
  0
VERTEX
  8
0
 10
14.6443954
 20
152.524206
 42
0.0
  0
VERTEX
  8
0
 10
16.4317172
 20
151.159718
 42
0.0
  0
VERTEX
  8
0
 10
17.0146472
 20
150.71344
 42
0.0
  0
VERTEX
  8
0
 10
18.9879732
 20
149.205696
 42
0.0
  0
VERTEX
  8
0
 10
18.9879732
 20
149.206966
 42
0.0
  0
VERTEX
  8
0
 10
19.0003938
 20
149.197568
 42
0.0
  0
VERTEX
  8
0
 10
19.012789
 20
149.206966
 42
0.0
  0
VERTEX
  8
0
 10
19.012789
 20
149.205696
 42
0.0
  0
VERTEX
  8
0
 10
20.9875374
 20
150.71344
 42
0.0
  0
VERTEX
  8
0
 10
21.569045
 20
151.158194
 42
0.0
  0
VERTEX
  8
0
 10
23.3067606
 20
152.486868
 42
0.0
  0
VERTEX
  8
0
 10
23.3563668
 20
152.524206
 42
0.0
  0
VERTEX
  8
0
 10
23.5024422
 20
152.635712
 42
0.0
  0
VERTEX
  8
0
 10
23.5024422
 20
158.773368
 42
0.0
  0
VERTEX
  8
0
 10
24.0536476
 20
159.091884
 42
0.0
  0
VERTEX
  8
0
 10
24.7853962
 20
159.513524
 42
0.0
  0
VERTEX
  8
0
 10
28.000452
 20
159.513524
 42
0.0
  0
VERTEX
  8
0
 10
29.557472
 20
158.752794
 42
0.0
  0
VERTEX
  8
0
 10
29.649928
 20
158.707328
 42
0.0
  0
VERTEX
  8
0
 10
30.852872
 20
158.120334
 42
0.0
  0
VERTEX
  8
0
 10
30.946598
 20
158.074868
 42
0.0
  0
VERTEX
  8
0
 10
31.79826
 20
157.657038
 42
0.0
  0
VERTEX
  8
0
 10
31.79826
 20
118.004082
 42
0.0
  0
VERTEX
  8
0
 10
31.908496
 20
117.947694
 42
0.0
  0
VERTEX
  8
0
 10
32.466534
 20
117.666516
 42
0.0
  0
VERTEX
  8
0
 10
32.497014
 20
117.651276
 42
0.0
  0
VERTEX
  8
0
 10
35.502596
 20
116.134134
 42
0.0
  0
VERTEX
  8
0
 10
35.506406
 20
116.13261
 42
0.0
  0
VERTEX
  8
0
 10
35.680396
 20
116.044472
 42
0.0
  0
VERTEX
  8
0
 10
37.000434
 20
115.379246
 42
0.0
  0
VERTEX
  8
0
 10
37.000434
 20
4.6302168
 42
0.0
  0
VERTEX
  8
0
 10
36.829238
 20
4.6302168
 42
0.0
  0
VERTEX
  8
0
 10
30.946598
 20
1.75424338
 42
0.0
  0
VERTEX
  8
0
 10
30.852872
 20
1.70876722
 42
0.0
  0
VERTEX
  8
0
 10
30.209236
 20
1.39319762
 42
0.0
  0
VERTEX
  8
0
 10
30.093666
 20
1.33669532
 42
0.0
  0
VERTEX
  8
0
 10
29.557472
 20
1.71290234
 42
0.0
  0
VERTEX
  8
0
 10
28.194762
 20
2.666492
 42
0.0
  0
VERTEX
  8
0
 10
28.194762
 20
11.943461
 42
0.0
  0
VERTEX
  8
0
 10
23.091775
 20
15.5139644
 42
0.0
  0
VERTEX
  8
0
 10
19.0003938
 20
18.374741
 42
0.0
  0
VERTEX
  8
0
 10
14.9089872
 20
15.5139644
 42
0.0
  0
VERTEX
  8
0
 10
9.8061272
 20
11.943461
 42
0.0
  0
VERTEX
  8
0
 10
9.8061272
 20
2.666492
 42
0.0
  0
VERTEX
  8
0
 10
8.5617304
 20
1.79558188
 42
0.0
  0
VERTEX
  8
0
 10
8.4694268
 20
1.73219618
 42
0.0
  0
VERTEX
  8
0
 10
7.9058262
 20
1.33669532
 42
0.0
  0
VERTEX
  8
0
 10
7.7900276
 20
1.39457684
 42
0.0
  0
VERTEX
  8
0
 10
7.1740522
 20
1.69498772
 42
0.0
  0
VERTEX
  8
0
 10
6.3293244
 20
2.10839812
 42
0.0
  0
VERTEX
  8
0
 10
1.17133116
 20
4.6302168
 42
0.0
  0
VERTEX
  8
0
 10
1.00045774
 20
4.6302168
 42
0.0
  0
SEQEND
  0
POLYLINE
  8
0
 66
     1
 10
0.0
 20
0.0
 30
0.0
 70
     1
  0
VERTEX
  8
0
 10
18.9879732
 20
111.331756
 42
0.0
  0
VERTEX
  8
0
 10
19.0003938
 20
111.324644
 42
0.0
  0
VERTEX
  8
0
 10
19.012789
 20
111.333026
 42
0.0
  0
VERTEX
  8
0
 10
19.012789
 20
111.31804
 42
0.0
  0
VERTEX
  8
0
 10
19.0252096
 20
111.310928
 42
0.0
  0
VERTEX
  8
0
 10
21.1804504
 20
112.555528
 42
0.0
  0
VERTEX
  8
0
 10
21.8722194
 20
112.9538
 42
0.0
  0
VERTEX
  8
0
 10
21.9218256
 20
112.982756
 42
0.0
  0
VERTEX
  8
0
 10
21.9218256
 20
116.328444
 42
0.0
  0
VERTEX
  8
0
 10
21.8722194
 20
116.3574
 42
0.0
  0
VERTEX
  8
0
 10
21.6765378
 20
116.470176
 42
0.0
  0
VERTEX
  8
0
 10
21.1804504
 20
116.757196
 42
0.0
  0
VERTEX
  8
0
 10
19.0252096
 20
118.001288
 42
0.0
  0
VERTEX
  8
0
 10
19.012789
 20
117.994684
 42
0.0
  0
VERTEX
  8
0
 10
19.012789
 20
117.979444
 42
0.0
  0
VERTEX
  8
0
 10
19.0003938
 20
117.986302
 42
0.0
  0
VERTEX
  8
0
 10
18.9879732
 20
117.979444
 42
0.0
  0
VERTEX
  8
0
 10
18.9879732
 20
117.99316
 42
0.0
  0
VERTEX
  8
0
 10
18.9756034
 20
118.001288
 42
0.0
  0
VERTEX
  8
0
 10
16.8203372
 20
116.757196
 42
0.0
  0
VERTEX
  8
0
 10
16.077565
 20
116.328444
 42
0.0
  0
VERTEX
  8
0
 10
16.077565
 20
112.982756
 42
0.0
  0
VERTEX
  8
0
 10
16.8203372
 20
112.554004
 42
0.0
  0
VERTEX
  8
0
 10
18.9756034
 20
111.310928
 42
0.0
  0
VERTEX
  8
0
 10
18.9879732
 20
111.31804
 42
0.0
  0
SEQEND
  0
POLYLINE
  8
0
 66
     1
 10
0.0
 20
0.0
 30
0.0
 70
     1
  0
VERTEX
  8
0
 10
18.9879732
 20
126.525782
 42
0.0
  0
VERTEX
  8
0
 10
19.0003938
 20
126.519178
 42
0.0
  0
VERTEX
  8
0
 10
19.012789
 20
126.525782
 42
0.0
  0
VERTEX
  8
0
 10
19.012789
 20
126.512066
 42
0.0
  0
VERTEX
  8
0
 10
19.0279528
 20
126.502668
 42
0.0
  0
VERTEX
  8
0
 10
21.1804504
 20
127.74676
 42
0.0
  0
VERTEX
  8
0
 10
21.6765378
 20
128.032256
 42
0.0
  0
VERTEX
  8
0
 10
21.7316812
 20
128.065276
 42
0.0
  0
VERTEX
  8
0
 10
21.7316812
 20
131.186428
 42
0.0
  0
VERTEX
  8
0
 10
21.6765378
 20
131.219702
 42
0.0
  0
VERTEX
  8
0
 10
21.1804504
 20
131.504944
 42
0.0
  0
VERTEX
  8
0
 10
20.9007202
 20
131.666234
 42
0.0
  0
VERTEX
  8
0
 10
19.0279528
 20
132.747766
 42
0.0
  0
VERTEX
  8
0
 10
19.012789
 20
132.739638
 42
0.0
  0
VERTEX
  8
0
 10
19.012789
 20
132.724398
 42
0.0
  0
VERTEX
  8
0
 10
19.0003938
 20
132.731256
 42
0.0
  0
VERTEX
  8
0
 10
18.9879732
 20
132.724398
 42
0.0
  0
VERTEX
  8
0
 10
18.9879732
 20
132.738368
 42
0.0
  0
VERTEX
  8
0
 10
18.9714378
 20
132.747766
 42
0.0
  0
VERTEX
  8
0
 10
17.0987212
 20
131.666234
 42
0.0
  0
VERTEX
  8
0
 10
16.8203372
 20
131.50596
 42
0.0
  0
VERTEX
  8
0
 10
16.2677602
 20
131.186428
 42
0.0
  0
VERTEX
  8
0
 10
16.2677602
 20
128.065276
 42
0.0
  0
VERTEX
  8
0
 10
16.8203372
 20
127.74549
 42
0.0
  0
VERTEX
  8
0
 10
18.9714378
 20
126.502668
 42
0.0
  0
VERTEX
  8
0
 10
18.9879732
 20
126.512066
 42
0.0
  0
SEQEND
  0
POLYLINE
  8
0
 66
     1
 10
0.0
 20
0.0
 30
0.0
 70
     1
  0
VERTEX
  8
0
 10
18.9879732
 20
137.482834
 42
0.0
  0
VERTEX
  8
0
 10
19.0003938
 20
137.475722
 42
0.0
  0
VERTEX
  8
0
 10
19.012789
 20
137.484104
 42
0.0
  0
VERTEX
  8
0
 10
19.012789
 20
137.469118
 42
0.0
  0
VERTEX
  8
0
 10
19.0279528
 20
137.459212
 42
0.0
  0
VERTEX
  8
0
 10
21.0398868
 20
138.622278
 42
0.0
  0
VERTEX
  8
0
 10
21.1804504
 20
138.703812
 42
0.0
  0
VERTEX
  8
0
 10
21.6765378
 20
138.9888
 42
0.0
  0
VERTEX
  8
0
 10
21.7316812
 20
139.022074
 42
0.0
  0
VERTEX
  8
0
 10
21.7316812
 20
142.143226
 42
0.0
  0
VERTEX
  8
0
 10
21.6765378
 20
142.1765
 42
0.0
  0
VERTEX
  8
0
 10
21.1804504
 20
142.461488
 42
0.0
  0
VERTEX
  8
0
 10
21.0398868
 20
142.543022
 42
0.0
  0
VERTEX
  8
0
 10
20.37842
 20
142.924784
 42
0.0
  0
VERTEX
  8
0
 10
19.0279528
 20
143.704818
 42
0.0
  0
VERTEX
  8
0
 10
19.012789
 20
143.696182
 42
0.0
  0
VERTEX
  8
0
 10
19.012789
 20
143.681196
 42
0.0
  0
VERTEX
  8
0
 10
19.0003938
 20
143.688054
 42
0.0
  0
VERTEX
  8
0
 10
18.9879732
 20
143.681196
 42
0.0
  0
VERTEX
  8
0
 10
18.9879732
 20
143.696182
 42
0.0
  0
VERTEX
  8
0
 10
18.9714378
 20
143.704818
 42
0.0
  0
VERTEX
  8
0
 10
17.6223422
 20
142.926054
 42
0.0
  0
VERTEX
  8
0
 10
16.9608754
 20
142.544546
 42
0.0
  0
VERTEX
  8
0
 10
16.8203372
 20
142.463012
 42
0.0
  0
VERTEX
  8
0
 10
16.2677602
 20
142.143226
 42
0.0
  0
VERTEX
  8
0
 10
16.2677602
 20
139.022074
 42
0.0
  0
VERTEX
  8
0
 10
16.8203372
 20
138.703812
 42
0.0
  0
VERTEX
  8
0
 10
16.9608754
 20
138.620754
 42
0.0
  0
VERTEX
  8
0
 10
18.9714378
 20
137.459212
 42
0.0
  0
VERTEX
  8
0
 10
18.9879732
 20
137.469118
 42
0.0
  0
SEQEND
  0
POLYLINE
  8
0
 66
     1
 10
0.0
 20
0.0
 30
0.0
 70
     1
  0
VERTEX
  8
0
 10
18.9879732
 20
51.213512
 42
0.0
  0
VERTEX
  8
0
 10
18.9879732
 20
51.227228
 42
0.0
  0
VERTEX
  8
0
 10
18.9756034
 20
51.235356
 42
0.0
  0
VERTEX
  8
0
 10
16.9595038
 20
50.071274
 42
0.0
  0
VERTEX
  8
0
 10
16.077565
 20
49.562512
 42
0.0
  0
VERTEX
  8
0
 10
16.077565
 20
46.218094
 42
0.0
  0
VERTEX
  8
0
 10
16.1285682
 20
46.189138
 42
0.0
  0
VERTEX
  8
0
 10
18.9756034
 20
44.54525
 42
0.0
  0
VERTEX
  8
0
 10
18.9879732
 20
44.551854
 42
0.0
  0
VERTEX
  8
0
 10
18.9879732
 20
44.565824
 42
0.0
  0
VERTEX
  8
0
 10
19.0003938
 20
44.558966
 42
0.0
  0
VERTEX
  8
0
 10
19.012789
 20
44.567094
 42
0.0
  0
VERTEX
  8
0
 10
19.012789
 20
44.551854
 42
0.0
  0
VERTEX
  8
0
 10
19.0252096
 20
44.54525
 42
0.0
  0
VERTEX
  8
0
 10
21.8722194
 20
46.189138
 42
0.0
  0
VERTEX
  8
0
 10
21.9218256
 20
46.218094
 42
0.0
  0
VERTEX
  8
0
 10
21.9218256
 20
49.562512
 42
0.0
  0
VERTEX
  8
0
 10
21.04263
 20
50.071274
 42
0.0
  0
VERTEX
  8
0
 10
19.0252096
 20
51.235356
 42
0.0
  0
VERTEX
  8
0
 10
19.012789
 20
51.228498
 42
0.0
  0
VERTEX
  8
0
 10
19.012789
 20
51.213512
 42
0.0
  0
VERTEX
  8
0
 10
19.0003938
 20
51.220116
 42
0.0
  0
SEQEND
  0
POLYLINE
  8
0
 66
     1
 10
0.0
 20
0.0
 30
0.0
 70
     1
  0
VERTEX
  8
0
 10
18.9879732
 20
56.306466
 42
0.0
  0
VERTEX
  8
0
 10
19.0003938
 20
56.299862
 42
0.0
  0
VERTEX
  8
0
 10
19.012789
 20
56.306466
 42
0.0
  0
VERTEX
  8
0
 10
19.012789
 20
56.291226
 42
0.0
  0
VERTEX
  8
0
 10
19.0252096
 20
56.284622
 42
0.0
  0
VERTEX
  8
0
 10
21.1804504
 20
57.528968
 42
0.0
  0
VERTEX
  8
0
 10
21.8722194
 20
57.92851
 42
0.0
  0
VERTEX
  8
0
 10
21.9218256
 20
57.957466
 42
0.0
  0
VERTEX
  8
0
 10
21.9218256
 20
61.302138
 42
0.0
  0
VERTEX
  8
0
 10
21.8722194
 20
61.331094
 42
0.0
  0
VERTEX
  8
0
 10
21.8432888
 20
61.34735
 42
0.0
  0
VERTEX
  8
0
 10
19.0252096
 20
62.974982
 42
0.0
  0
VERTEX
  8
0
 10
19.012789
 20
62.968124
 42
0.0
  0
VERTEX
  8
0
 10
19.012789
 20
62.952884
 42
0.0
  0
VERTEX
  8
0
 10
19.0003938
 20
62.959996
 42
0.0
  0
VERTEX
  8
0
 10
18.9879732
 20
62.952884
 42
0.0
  0
VERTEX
  8
0
 10
18.9879732
 20
62.9666
 42
0.0
  0
VERTEX
  8
0
 10
18.9756034
 20
62.974982
 42
0.0
  0
VERTEX
  8
0
 10
17.8717956
 20
62.338204
 42
0.0
  0
VERTEX
  8
0
 10
16.1561272
 20
61.34735
 42
0.0
  0
VERTEX
  8
0
 10
16.077565
 20
61.302138
 42
0.0
  0
VERTEX
  8
0
 10
16.077565
 20
57.957466
 42
0.0
  0
VERTEX
  8
0
 10
16.8203372
 20
57.528968
 42
0.0
  0
VERTEX
  8
0
 10
18.9756034
 20
56.284622
 42
0.0
  0
VERTEX
  8
0
 10
18.9879732
 20
56.29275
 42
0.0
  0
SEQEND
  0
POLYLINE
  8
0
 66
     1
 10
0.0
 20
0.0
 30
0.0
 70
     1
  0
VERTEX
  8
0
 10
18.9879732
 20
99.592384
 42
0.0
  0
VERTEX
  8
0
 10
19.0003938
 20
99.585272
 42
0.0
  0
VERTEX
  8
0
 10
19.012789
 20
99.592384
 42
0.0
  0
VERTEX
  8
0
 10
19.012789
 20
99.578668
 42
0.0
  0
VERTEX
  8
0
 10
19.0252096
 20
99.571556
 42
0.0
  0
VERTEX
  8
0
 10
21.8722194
 20
101.215444
 42
0.0
  0
VERTEX
  8
0
 10
21.9218256
 20
101.2444
 42
0.0
  0
VERTEX
  8
0
 10
21.9218256
 20
104.589072
 42
0.0
  0
VERTEX
  8
0
 10
21.8722194
 20
104.618028
 42
0.0
  0
VERTEX
  8
0
 10
21.04263
 20
105.097326
 42
0.0
  0
VERTEX
  8
0
 10
19.0252096
 20
106.260646
 42
0.0
  0
VERTEX
  8
0
 10
19.012789
 20
106.253534
 42
0.0
  0
VERTEX
  8
0
 10
19.012789
 20
106.238294
 42
0.0
  0
VERTEX
  8
0
 10
19.0003938
 20
106.246676
 42
0.0
  0
VERTEX
  8
0
 10
18.9879732
 20
106.239818
 42
0.0
  0
VERTEX
  8
0
 10
18.9879732
 20
106.253534
 42
0.0
  0
VERTEX
  8
0
 10
18.9756034
 20
106.260646
 42
0.0
  0
VERTEX
  8
0
 10
16.9595038
 20
105.097326
 42
0.0
  0
VERTEX
  8
0
 10
16.1285682
 20
104.618028
 42
0.0
  0
VERTEX
  8
0
 10
16.077565
 20
104.589072
 42
0.0
  0
VERTEX
  8
0
 10
16.077565
 20
101.2444
 42
0.0
  0
VERTEX
  8
0
 10
16.1285682
 20
101.215444
 42
0.0
  0
VERTEX
  8
0
 10
18.9756034
 20
99.571556
 42
0.0
  0
VERTEX
  8
0
 10
18.9879732
 20
99.578668
 42
0.0
  0
SEQEND
  0
POLYLINE
  8
0
 66
     1
 10
0.0
 20
0.0
 30
0.0
 70
     1
  0
VERTEX
  8
0
 10
21.8460574
 20
80.649572
 42
0.0
  0
VERTEX
  8
0
 10
21.8722194
 20
80.573626
 42
0.0
  0
VERTEX
  8
0
 10
21.9218256
 20
80.4291
 42
0.0
  0
VERTEX
  8
0
 10
22.0127576
 20
80.163162
 42
0.0
  0
VERTEX
  8
0
 10
22.0706696
 20
79.817468
 42
0.0
  0
VERTEX
  8
0
 10
22.0913452
 20
79.697326
 42
0.0
  0
VERTEX
  8
0
 10
22.0982032
 20
79.656178
 42
0.0
  0
VERTEX
  8
0
 10
22.0982032
 20
79.140812
 42
0.0
  0
VERTEX
  8
0
 10
22.0127576
 20
78.632304
 42
0.0
  0
VERTEX
  8
0
 10
21.9218256
 20
78.36789
 42
0.0
  0
VERTEX
  8
0
 10
21.8722194
 20
78.221332
 42
0.0
  0
VERTEX
  8
0
 10
21.8460574
 20
78.145894
 42
0.0
  0
VERTEX
  8
0
 10
21.6007696
 20
77.693774
 42
0.0
  0
VERTEX
  8
0
 10
21.2851746
 20
77.287374
 42
0.0
  0
VERTEX
  8
0
 10
20.9062066
 20
76.938632
 42
0.0
  0
VERTEX
  8
0
 10
20.6223362
 20
76.75245
 42
0.0
  0
VERTEX
  8
0
 10
20.4749146
 20
76.657454
 42
0.0
  0
VERTEX
  8
0
 10
20.0035922
 20
76.449428
 42
0.0
  0
VERTEX
  8
0
 10
19.9567546
 20
76.438506
 42
0.0
  0
VERTEX
  8
0
 10
19.8685404
 20
76.416154
 42
0.0
  0
VERTEX
  8
0
 10
19.8203312
 20
76.403962
 42
0.0
  0
VERTEX
  8
0
 10
19.8203312
 20
74.779378
 42
0.0
  0
VERTEX
  8
0
 10
19.8685404
 20
74.791824
 42
0.0
  0
VERTEX
  8
0
 10
20.5010766
 20
74.95159
 42
0.0
  0
VERTEX
  8
0
 10
20.5176374
 20
74.954384
 42
0.0
  0
VERTEX
  8
0
 10
21.228685
 20
75.266804
 42
0.0
  0
VERTEX
  8
0
 10
21.7413078
 20
75.602084
 42
0.0
  0
VERTEX
  8
0
 10
21.8722194
 20
75.687428
 42
0.0
  0
VERTEX
  8
0
 10
21.8763596
 20
75.691746
 42
0.0
  0
VERTEX
  8
0
 10
21.9218256
 20
75.732894
 42
0.0
  0
VERTEX
  8
0
 10
22.4482406
 20
76.21651
 42
0.0
  0
VERTEX
  8
0
 10
22.7376228
 20
76.588874
 42
0.0
  0
VERTEX
  8
0
 10
22.8644196
 20
76.75245
 42
0.0
  0
VERTEX
  8
0
 10
22.9236778
 20
76.828396
 42
0.0
  0
VERTEX
  8
0
 10
23.1496616
 20
77.244702
 42
0.0
  0
VERTEX
  8
0
 10
23.1965246
 20
77.33284
 42
0.0
  0
VERTEX
  8
0
 10
23.2943654
 20
77.51064
 42
0.0
  0
VERTEX
  8
0
 10
23.5465366
 20
78.244954
 42
0.0
  0
VERTEX
  8
0
 10
23.6733334
 20
79.011272
 42
0.0
  0
VERTEX
  8
0
 10
23.6733334
 20
79.785718
 42
0.0
  0
VERTEX
  8
0
 10
23.6677962
 20
79.817468
 42
0.0
  0
VERTEX
  8
0
 10
23.5465366
 20
80.551782
 42
0.0
  0
VERTEX
  8
0
 10
23.2943654
 20
81.284826
 42
0.0
  0
VERTEX
  8
0
 10
23.1965246
 20
81.46415
 42
0.0
  0
VERTEX
  8
0
 10
22.9236778
 20
81.968594
 42
0.0
  0
VERTEX
  8
0
 10
22.4482406
 20
82.580226
 42
0.0
  0
VERTEX
  8
0
 10
21.9218256
 20
83.064096
 42
0.0
  0
VERTEX
  8
0
 10
21.8763596
 20
83.105244
 42
0.0
  0
VERTEX
  8
0
 10
21.8722194
 20
83.108038
 42
0.0
  0
VERTEX
  8
0
 10
21.476716
 20
83.367118
 42
0.0
  0
VERTEX
  8
0
 10
21.228685
 20
83.529678
 42
0.0
  0
VERTEX
  8
0
 10
20.7904588
 20
83.721194
 42
0.0
  0
VERTEX
  8
0
 10
20.6250794
 20
83.794346
 42
0.0
  0
VERTEX
  8
0
 10
20.5176374
 20
83.841082
 42
0.0
  0
VERTEX
  8
0
 10
19.8203312
 20
84.017612
 42
0.0
  0
VERTEX
  8
0
 10
19.8203312
 20
82.393028
 42
0.0
  0
VERTEX
  8
0
 10
20.0035922
 20
82.346038
 42
0.0
  0
VERTEX
  8
0
 10
20.4749146
 20
82.139282
 42
0.0
  0
VERTEX
  8
0
 10
20.9062066
 20
81.858104
 42
0.0
  0
VERTEX
  8
0
 10
21.2851746
 20
81.508346
 42
0.0
  0
VERTEX
  8
0
 10
21.6007696
 20
81.102962
 42
0.0
  0
SEQEND
  0
POLYLINE
  8
0
 66
     1
 10
0.0
 20
0.0
 30
0.0
 70
     1
  0
VERTEX
  8
0
 10
21.6544906
 20
66.92011
 42
0.0
  0
VERTEX
  8
0
 10
21.8722194
 20
66.305684
 42
0.0
  0
VERTEX
  8
0
 10
21.9218256
 20
66.165222
 42
0.0
  0
VERTEX
  8
0
 10
22.3697038
 20
64.905382
 42
0.0
  0
VERTEX
  8
0
 10
22.934676
 20
63.314072
 42
0.0
  0
VERTEX
  8
0
 10
23.1965246
 20
62.573916
 42
0.0
  0
VERTEX
  8
0
 10
23.2103168
 20
62.537848
 42
0.0
  0
VERTEX
  8
0
 10
25.0513596
 20
62.537848
 42
0.0
  0
VERTEX
  8
0
 10
24.8515378
 20
63.082424
 42
0.0
  0
VERTEX
  8
0
 10
23.866221
 20
65.771268
 42
0.0
  0
VERTEX
  8
0
 10
23.1965246
 20
67.596766
 42
0.0
  0
VERTEX
  8
0
 10
21.9218256
 20
71.075296
 42
0.0
  0
VERTEX
  8
0
 10
21.8722194
 20
71.21144
 42
0.0
  0
VERTEX
  8
0
 10
21.7647266
 20
71.506334
 42
0.0
  0
VERTEX
  8
0
 10
21.6420954
 20
71.838566
 42
0.0
  0
VERTEX
  8
0
 10
21.1666582
 20
73.13549
 42
0.0
  0
VERTEX
  8
0
 10
19.8685404
 20
73.13549
 42
0.0
  0
VERTEX
  8
0
 10
19.8685404
 20
72.00265
 42
0.0
  0
VERTEX
  8
0
 10
20.0422002
 20
71.506334
 42
0.0
  0
VERTEX
  8
0
 10
21.0826096
 20
68.517516
 42
0.0
  0
VERTEX
  8
0
 10
19.8685404
 20
68.517516
 42
0.0
  0
VERTEX
  8
0
 10
19.8685404
 20
66.92011
 42
0.0
  0
SEQEND
  0
POLYLINE
  8
0
 66
     1
 10
0.0
 20
0.0
 30
0.0
 70
     1
  0
VERTEX
  8
0
 10
18.0674518
 20
87.617046
 42
0.0
  0
VERTEX
  8
0
 10
17.2310044
 20
87.890096
 42
0.0
  0
VERTEX
  8
0
 10
17.1965366
 20
87.901018
 42
0.0
  0
VERTEX
  8
0
 10
16.5226746
 20
88.374982
 42
0.0
  0
VERTEX
  8
0
 10
16.077565
 20
88.984074
 42
0.0
  0
VERTEX
  8
0
 10
16.050006
 20
89.022682
 42
0.0
  0
VERTEX
  8
0
 10
15.7661356
 20
89.827354
 42
0.0
  0
VERTEX
  8
0
 10
15.672435
 20
90.790522
 42
0.0
  0
VERTEX
  8
0
 10
15.672435
 20
92.583254
 42
0.0
  0
VERTEX
  8
0
 10
13.8244834
 20
92.583254
 42
0.0
  0
VERTEX
  8
0
 10
13.8244834
 20
90.869262
 42
0.0
  0
VERTEX
  8
0
 10
13.8616944
 20
90.166444
 42
0.0
  0
VERTEX
  8
0
 10
13.9705588
 20
89.526872
 42
0.0
  0
VERTEX
  8
0
 10
13.974699
 20
89.510362
 42
0.0
  0
VERTEX
  8
0
 10
14.1621002
 20
88.9
 42
0.0
  0
VERTEX
  8
0
 10
14.4225518
 20
88.33485
 42
0.0
  0
VERTEX
  8
0
 10
14.7133056
 20
87.890096
 42
0.0
  0
VERTEX
  8
0
 10
14.7546568
 20
87.826596
 42
0.0
  0
VERTEX
  8
0
 10
15.0054818
 20
87.549482
 42
0.0
  0
VERTEX
  8
0
 10
15.1584406
 20
87.377524
 42
0.0
  0
VERTEX
  8
0
 10
15.6324554
 20
86.990174
 42
0.0
  0
VERTEX
  8
0
 10
16.077565
 20
86.723982
 42
0.0
  0
VERTEX
  8
0
 10
16.1754312
 20
86.666324
 42
0.0
  0
VERTEX
  8
0
 10
16.7858694
 20
86.405974
 42
0.0
  0
VERTEX
  8
0
 10
17.473549
 20
86.217252
 42
0.0
  0
VERTEX
  8
0
 10
18.1873398
 20
86.108032
 42
0.0
  0
VERTEX
  8
0
 10
18.1873398
 20
87.606124
 42
0.0
  0
SEQEND
  0
POLYLINE
  8
0
 66
     1
 10
0.0
 20
0.0
 30
0.0
 70
     1
  0
VERTEX
  8
0
 10
16.9581322
 20
68.517516
 42
0.0
  0
VERTEX
  8
0
 10
17.988915
 20
71.506334
 42
0.0
  0
VERTEX
  8
0
 10
18.1955948
 20
72.107044
 42
0.0
  0
VERTEX
  8
0
 10
18.1955948
 20
73.13549
 42
0.0
  0
VERTEX
  8
0
 10
16.8782238
 20
73.13549
 42
0.0
  0
VERTEX
  8
0
 10
16.282924
 20
71.506334
 42
0.0
  0
VERTEX
  8
0
 10
16.077565
 20
70.946772
 42
0.0
  0
VERTEX
  8
0
 10
15.0054818
 20
68.010278
 42
0.0
  0
VERTEX
  8
0
 10
14.7849844
 20
67.409568
 42
0.0
  0
VERTEX
  8
0
 10
14.177264
 20
65.746122
 42
0.0
  0
VERTEX
  8
0
 10
13.9705588
 20
65.181226
 42
0.0
  0
VERTEX
  8
0
 10
13.2884418
 20
63.314072
 42
0.0
  0
VERTEX
  8
0
 10
13.1946904
 20
63.057532
 42
0.0
  0
VERTEX
  8
0
 10
13.0638296
 20
62.699138
 42
0.0
  0
VERTEX
  8
0
 10
13.004546
 20
62.537848
 42
0.0
  0
VERTEX
  8
0
 10
14.8166582
 20
62.537848
 42
0.0
  0
VERTEX
  8
0
 10
14.9089872
 20
62.794388
 42
0.0
  0
VERTEX
  8
0
 10
15.0054818
 20
63.063374
 42
0.0
  0
VERTEX
  8
0
 10
15.0950422
 20
63.314072
 42
0.0
  0
VERTEX
  8
0
 10
15.6600144
 20
64.889126
 42
0.0
  0
VERTEX
  8
0
 10
16.077565
 20
66.057526
 42
0.0
  0
VERTEX
  8
0
 10
16.3876228
 20
66.92011
 42
0.0
  0
VERTEX
  8
0
 10
18.1955948
 20
66.92011
 42
0.0
  0
VERTEX
  8
0
 10
18.1955948
 20
68.517516
 42
0.0
  0
SEQEND
  0
POLYLINE
  8
0
 66
     1
 10
0.0
 20
0.0
 30
0.0
 70
     1
  0
VERTEX
  8
0
 10
17.507966
 20
76.657454
 42
0.0
  0
VERTEX
  8
0
 10
17.3618906
 20
76.75245
 42
0.0
  0
VERTEX
  8
0
 10
17.076674
 20
76.938632
 42
0.0
  0
VERTEX
  8
0
 10
16.6990522
 20
77.287374
 42
0.0
  0
VERTEX
  8
0
 10
16.382111
 20
77.693774
 42
0.0
  0
VERTEX
  8
0
 10
16.1368232
 20
78.145894
 42
0.0
  0
VERTEX
  8
0
 10
16.077565
 20
78.318106
 42
0.0
  0
VERTEX
  8
0
 10
15.9700722
 20
78.632304
 42
0.0
  0
VERTEX
  8
0
 10
15.8846266
 20
79.140812
 42
0.0
  0
VERTEX
  8
0
 10
15.8846266
 20
79.656178
 42
0.0
  0
VERTEX
  8
0
 10
15.8915354
 20
79.697326
 42
0.0
  0
VERTEX
  8
0
 10
15.912211
 20
79.817468
 42
0.0
  0
VERTEX
  8
0
 10
15.9700722
 20
80.163162
 42
0.0
  0
VERTEX
  8
0
 10
16.077565
 20
80.478884
 42
0.0
  0
VERTEX
  8
0
 10
16.1368232
 20
80.649572
 42
0.0
  0
VERTEX
  8
0
 10
16.382111
 20
81.102962
 42
0.0
  0
VERTEX
  8
0
 10
16.6990522
 20
81.508346
 42
0.0
  0
VERTEX
  8
0
 10
17.076674
 20
81.858104
 42
0.0
  0
VERTEX
  8
0
 10
17.507966
 20
82.139282
 42
0.0
  0
VERTEX
  8
0
 10
17.98066
 20
82.346038
 42
0.0
  0
VERTEX
  8
0
 10
18.2576216
 20
82.416396
 42
0.0
  0
VERTEX
  8
0
 10
18.2576216
 20
84.035646
 42
0.0
  0
VERTEX
  8
0
 10
18.219039
 20
84.031328
 42
0.0
  0
VERTEX
  8
0
 10
17.4666402
 20
83.841082
 42
0.0
  0
VERTEX
  8
0
 10
17.3591474
 20
83.794346
 42
0.0
  0
VERTEX
  8
0
 10
16.7555672
 20
83.529678
 42
0.0
  0
VERTEX
  8
0
 10
16.106521
 20
83.105244
 42
0.0
  0
VERTEX
  8
0
 10
16.077565
 20
83.079082
 42
0.0
  0
VERTEX
  8
0
 10
15.7537404
 20
82.780124
 42
0.0
  0
VERTEX
  8
0
 10
15.5360116
 20
82.580226
 42
0.0
  0
VERTEX
  8
0
 10
15.2466294
 20
82.208116
 42
0.0
  0
VERTEX
  8
0
 10
15.0592028
 20
81.968594
 42
0.0
  0
VERTEX
  8
0
 10
15.0054818
 20
81.867756
 42
0.0
  0
VERTEX
  8
0
 10
14.6898868
 20
81.284826
 42
0.0
  0
VERTEX
  8
0
 10
14.4377156
 20
80.551782
 42
0.0
  0
VERTEX
  8
0
 10
14.315059
 20
79.817468
 42
0.0
  0
VERTEX
  8
0
 10
14.3095472
 20
79.785718
 42
0.0
  0
VERTEX
  8
0
 10
14.3095472
 20
79.011272
 42
0.0
  0
VERTEX
  8
0
 10
14.4377156
 20
78.244954
 42
0.0
  0
VERTEX
  8
0
 10
14.6898868
 20
77.51064
 42
0.0
  0
VERTEX
  8
0
 10
15.0054818
 20
76.928726
 42
0.0
  0
VERTEX
  8
0
 10
15.0592028
 20
76.828396
 42
0.0
  0
VERTEX
  8
0
 10
15.118461
 20
76.75245
 42
0.0
  0
VERTEX
  8
0
 10
15.3499566
 20
76.45654
 42
0.0
  0
VERTEX
  8
0
 10
15.5360116
 20
76.21651
 42
0.0
  0
VERTEX
  8
0
 10
15.7523434
 20
76.016612
 42
0.0
  0
VERTEX
  8
0
 10
16.077565
 20
75.716384
 42
0.0
  0
VERTEX
  8
0
 10
16.106521
 20
75.691746
 42
0.0
  0
VERTEX
  8
0
 10
16.2429444
 20
75.602084
 42
0.0
  0
VERTEX
  8
0
 10
16.7555672
 20
75.266804
 42
0.0
  0
VERTEX
  8
0
 10
17.4666402
 20
74.954384
 42
0.0
  0
VERTEX
  8
0
 10
18.219039
 20
74.765662
 42
0.0
  0
VERTEX
  8
0
 10
18.2576216
 20
74.761344
 42
0.0
  0
VERTEX
  8
0
 10
18.2576216
 20
76.380594
 42
0.0
  0
VERTEX
  8
0
 10
17.98066
 20
76.449428
 42
0.0
  0
SEQEND
  0
POLYLINE
  8
0
 66
     1
 10
0.0
 20
0.0
 30
0.0
 70
     1
  0
VERTEX
  8
0
 10
21.9549218
 20
88.748362
 42
0.0
  0
VERTEX
  8
0
 10
21.9218256
 20
88.70696
 42
0.0
  0
VERTEX
  8
0
 10
21.8722194
 20
88.64346
 42
0.0
  0
VERTEX
  8
0
 10
21.7123772
 20
88.441022
 42
0.0
  0
VERTEX
  8
0
 10
21.4133176
 20
88.166956
 42
0.0
  0
VERTEX
  8
0
 10
21.0605624
 20
87.939372
 42
0.0
  0
VERTEX
  8
0
 10
20.9516726
 20
87.890096
 42
0.0
  0
VERTEX
  8
0
 10
20.656804
 20
87.757762
 42
0.0
  0
VERTEX
  8
0
 10
20.2075796
 20
87.626952
 42
0.0
  0
VERTEX
  8
0
 10
19.8327518
 20
87.56904
 42
0.0
  0
VERTEX
  8
0
 10
19.8327518
 20
86.101174
 42
0.0
  0
VERTEX
  8
0
 10
19.9044052
 20
86.103968
 42
0.0
  0
VERTEX
  8
0
 10
20.6857346
 20
86.222332
 42
0.0
  0
VERTEX
  8
0
 10
21.3898988
 20
86.41969
 42
0.0
  0
VERTEX
  8
0
 10
21.8722194
 20
86.630256
 42
0.0
  0
VERTEX
  8
0
 10
21.9218256
 20
86.652354
 42
0.0
  0
VERTEX
  8
0
 10
22.0196918
 20
86.695026
 42
0.0
  0
VERTEX
  8
0
 10
22.576409
 20
87.031322
 42
0.0
  0
VERTEX
  8
0
 10
23.0614728
 20
87.429594
 42
0.0
  0
VERTEX
  8
0
 10
23.1965246
 20
87.582756
 42
0.0
  0
VERTEX
  8
0
 10
23.4638596
 20
87.884254
 42
0.0
  0
VERTEX
  8
0
 10
23.7918244
 20
88.387428
 42
0.0
  0
VERTEX
  8
0
 10
24.044021
 20
88.939878
 42
0.0
  0
VERTEX
  8
0
 10
24.2314222
 20
89.540588
 42
0.0
  0
VERTEX
  8
0
 10
24.3444268
 20
90.170762
 42
0.0
  0
VERTEX
  8
0
 10
24.3816378
 20
90.829384
 42
0.0
  0
VERTEX
  8
0
 10
24.3816378
 20
92.583254
 42
0.0
  0
VERTEX
  8
0
 10
22.5185224
 20
92.583254
 42
0.0
  0
VERTEX
  8
0
 10
22.5185224
 20
90.804238
 42
0.0
  0
VERTEX
  8
0
 10
22.4964752
 20
90.335862
 42
0.0
  0
VERTEX
  8
0
 10
22.427565
 20
89.893394
 42
0.0
  0
VERTEX
  8
0
 10
22.3145604
 20
89.477596
 42
0.0
  0
VERTEX
  8
0
 10
22.1560898
 20
89.09431
 42
0.0
  0
SEQEND
  0
POLYLINE
  8
0
 66
     1
 10
0.0
 20
0.0
 30
0.0
 70
     1
  0
VERTEX
  8
0
 10
5.4584346
 20
47.67199
 42
0.0
  0
VERTEX
  8
0
 10
5.5314596
 20
47.791878
 42
0.0
  0
VERTEX
  8
0
 10
5.5452518
 20
47.813722
 42
0.0
  0
VERTEX
  8
0
 10
5.6472074
 20
48.060356
 42
0.0
  0
VERTEX
  8
0
 10
5.7105804
 20
48.32096
 42
0.0
  0
VERTEX
  8
0
 10
5.731256
 20
48.587152
 42
0.0
  0
VERTEX
  8
0
 10
5.7105804
 20
48.852582
 42
0.0
  0
VERTEX
  8
0
 10
5.6802782
 20
48.978312
 42
0.0
  0
VERTEX
  8
0
 10
5.6472074
 20
49.11344
 42
0.0
  0
VERTEX
  8
0
 10
5.5452518
 20
49.360074
 42
0.0
  0
VERTEX
  8
0
 10
5.5314596
 20
49.383188
 42
0.0
  0
VERTEX
  8
0
 10
5.4046628
 20
49.587404
 42
0.0
  0
VERTEX
  8
0
 10
5.3716174
 20
49.626012
 42
0.0
  0
VERTEX
  8
0
 10
5.2324
 20
49.791366
 42
0.0
  0
VERTEX
  8
0
 10
5.0284634
 20
49.963578
 42
0.0
  0
VERTEX
  8
0
 10
5.0036476
 20
49.980088
 42
0.0
  0
VERTEX
  8
0
 10
4.8010826
 20
50.10404
 42
0.0
  0
VERTEX
  8
0
 10
4.7652432
 20
50.119026
 42
0.0
  0
VERTEX
  8
0
 10
4.7156624
 20
50.138584
 42
0.0
  0
VERTEX
  8
0
 10
4.5544232
 20
50.205894
 42
0.0
  0
VERTEX
  8
0
 10
4.2939716
 20
50.268124
 42
0.0
  0
VERTEX
  8
0
 10
4.0280082
 20
50.288698
 42
0.0
  0
VERTEX
  8
0
 10
3.7620448
 20
50.268124
 42
0.0
  0
VERTEX
  8
0
 10
3.5015932
 20
50.205894
 42
0.0
  0
VERTEX
  8
0
 10
3.340354
 20
50.138584
 42
0.0
  0
VERTEX
  8
0
 10
3.2549338
 20
50.10404
 42
0.0
  0
VERTEX
  8
0
 10
3.0661356
 20
49.988216
 42
0.0
  0
VERTEX
  8
0
 10
3.027553
 20
49.963578
 42
0.0
  0
VERTEX
  8
0
 10
2.823591
 20
49.791366
 42
0.0
  0
VERTEX
  8
0
 10
2.7174952
 20
49.66589
 42
0.0
  0
VERTEX
  8
0
 10
2.6816558
 20
49.624488
 42
0.0
  0
VERTEX
  8
0
 10
2.6513536
 20
49.587404
 42
0.0
  0
VERTEX
  8
0
 10
2.51078746
 20
49.360074
 42
0.0
  0
VERTEX
  8
0
 10
2.49424952
 20
49.318672
 42
0.0
  0
VERTEX
  8
0
 10
2.40881154
 20
49.11344
 42
0.0
  0
VERTEX
  8
0
 10
2.34679744
 20
48.852582
 42
0.0
  0
VERTEX
  8
0
 10
2.32612946
 20
48.587152
 42
0.0
  0
VERTEX
  8
0
 10
2.34679744
 20
48.32096
 42
0.0
  0
VERTEX
  8
0
 10
2.40881154
 20
48.060356
 42
0.0
  0
VERTEX
  8
0
 10
2.49424952
 20
47.855124
 42
0.0
  0
VERTEX
  8
0
 10
2.51078746
 20
47.813722
 42
0.0
  0
VERTEX
  8
0
 10
2.6513536
 20
47.586646
 42
0.0
  0
VERTEX
  8
0
 10
2.658237
 20
47.57674
 42
0.0
  0
VERTEX
  8
0
 10
2.7174952
 20
47.507906
 42
0.0
  0
VERTEX
  8
0
 10
2.823591
 20
47.382684
 42
0.0
  0
VERTEX
  8
0
 10
3.027553
 20
47.210218
 42
0.0
  0
VERTEX
  8
0
 10
3.0564836
 20
47.192184
 42
0.0
  0
VERTEX
  8
0
 10
3.2039306
 20
47.101506
 42
0.0
  0
VERTEX
  8
0
 10
3.2549338
 20
47.069756
 42
0.0
  0
VERTEX
  8
0
 10
3.5015932
 20
46.967648
 42
0.0
  0
VERTEX
  8
0
 10
3.6586922
 20
46.93031
 42
0.0
  0
VERTEX
  8
0
 10
3.7620448
 20
46.904402
 42
0.0
  0
VERTEX
  8
0
 10
4.0280082
 20
46.883574
 42
0.0
  0
VERTEX
  8
0
 10
4.2939716
 20
46.904402
 42
0.0
  0
VERTEX
  8
0
 10
4.3972988
 20
46.93031
 42
0.0
  0
VERTEX
  8
0
 10
4.5544232
 20
46.967648
 42
0.0
  0
VERTEX
  8
0
 10
4.7652432
 20
47.054516
 42
0.0
  0
VERTEX
  8
0
 10
4.8010826
 20
47.069756
 42
0.0
  0
VERTEX
  8
0
 10
4.8520604
 20
47.101506
 42
0.0
  0
VERTEX
  8
0
 10
5.0284634
 20
47.210218
 42
0.0
  0
VERTEX
  8
0
 10
5.105654
 20
47.276512
 42
0.0
  0
VERTEX
  8
0
 10
5.2324
 20
47.382684
 42
0.0
  0
VERTEX
  8
0
 10
5.4046628
 20
47.586646
 42
0.0
  0
SEQEND
  0
POLYLINE
  8
0
 66
     1
 10
0.0
 20
0.0
 30
0.0
 70
     1
  0
VERTEX
  8
0
 10
2.6623772
 20
110.857538
 42
0.0
  0
VERTEX
  8
0
 10
2.7174952
 20
110.794546
 42
0.0
  0
VERTEX
  8
0
 10
2.823591
 20
110.667546
 42
0.0
  0
VERTEX
  8
0
 10
3.027553
 20
110.495334
 42
0.0
  0
VERTEX
  8
0
 10
3.0537404
 20
110.478824
 42
0.0
  0
VERTEX
  8
0
 10
3.2177228
 20
110.37824
 42
0.0
  0
VERTEX
  8
0
 10
3.2549338
 20
110.354618
 42
0.0
  0
VERTEX
  8
0
 10
3.5015932
 20
110.25251
 42
0.0
  0
VERTEX
  8
0
 10
3.7620448
 20
110.190788
 42
0.0
  0
VERTEX
  8
0
 10
4.0280082
 20
110.16996
 42
0.0
  0
VERTEX
  8
0
 10
4.2939716
 20
110.190788
 42
0.0
  0
VERTEX
  8
0
 10
4.5544232
 20
110.25251
 42
0.0
  0
VERTEX
  8
0
 10
4.7652432
 20
110.339378
 42
0.0
  0
VERTEX
  8
0
 10
4.8010826
 20
110.354618
 42
0.0
  0
VERTEX
  8
0
 10
4.8382682
 20
110.37824
 42
0.0
  0
VERTEX
  8
0
 10
5.0284634
 20
110.495334
 42
0.0
  0
VERTEX
  8
0
 10
5.0904902
 20
110.547404
 42
0.0
  0
VERTEX
  8
0
 10
5.2324
 20
110.667546
 42
0.0
  0
VERTEX
  8
0
 10
5.4046628
 20
110.871254
 42
0.0
  0
VERTEX
  8
0
 10
5.4501288
 20
110.944406
 42
0.0
  0
VERTEX
  8
0
 10
5.5314596
 20
111.07674
 42
0.0
  0
VERTEX
  8
0
 10
5.5355744
 20
111.082328
 42
0.0
  0
VERTEX
  8
0
 10
5.5452518
 20
111.098838
 42
0.0
  0
VERTEX
  8
0
 10
5.6472074
 20
111.345472
 42
0.0
  0
VERTEX
  8
0
 10
5.7105804
 20
111.605822
 42
0.0
  0
VERTEX
  8
0
 10
5.731256
 20
111.87176
 42
0.0
  0
VERTEX
  8
0
 10
5.7105804
 20
112.139222
 42
0.0
  0
VERTEX
  8
0
 10
5.6472074
 20
112.398302
 42
0.0
  0
VERTEX
  8
0
 10
5.6182768
 20
112.465866
 42
0.0
  0
VERTEX
  8
0
 10
5.5452518
 20
112.64519
 42
0.0
  0
VERTEX
  8
0
 10
5.5355744
 20
112.661446
 42
0.0
  0
VERTEX
  8
0
 10
5.5314596
 20
112.667034
 42
0.0
  0
VERTEX
  8
0
 10
5.4046628
 20
112.872266
 42
0.0
  0
VERTEX
  8
0
 10
5.2324
 20
113.076228
 42
0.0
  0
VERTEX
  8
0
 10
5.0284634
 20
113.24971
 42
0.0
  0
VERTEX
  8
0
 10
4.9995328
 20
113.267744
 42
0.0
  0
VERTEX
  8
0
 10
4.8010826
 20
113.389156
 42
0.0
  0
VERTEX
  8
0
 10
4.7377096
 20
113.415318
 42
0.0
  0
VERTEX
  8
0
 10
4.5544232
 20
113.49101
 42
0.0
  0
VERTEX
  8
0
 10
4.2939716
 20
113.55451
 42
0.0
  0
VERTEX
  8
0
 10
4.0280082
 20
113.575084
 42
0.0
  0
VERTEX
  8
0
 10
3.7620448
 20
113.55451
 42
0.0
  0
VERTEX
  8
0
 10
3.5015932
 20
113.49101
 42
0.0
  0
VERTEX
  8
0
 10
3.3183068
 20
113.415318
 42
0.0
  0
VERTEX
  8
0
 10
3.2549338
 20
113.389156
 42
0.0
  0
VERTEX
  8
0
 10
3.0468316
 20
113.26241
 42
0.0
  0
VERTEX
  8
0
 10
3.027553
 20
113.24971
 42
0.0
  0
VERTEX
  8
0
 10
2.823591
 20
113.076228
 42
0.0
  0
VERTEX
  8
0
 10
2.7174952
 20
112.951006
 42
0.0
  0
VERTEX
  8
0
 10
2.6513536
 20
112.872266
 42
0.0
  0
VERTEX
  8
0
 10
2.51078746
 20
112.64519
 42
0.0
  0
VERTEX
  8
0
 10
2.49424952
 20
112.603534
 42
0.0
  0
VERTEX
  8
0
 10
2.43774976
 20
112.465866
 42
0.0
  0
VERTEX
  8
0
 10
2.40881154
 20
112.398302
 42
0.0
  0
VERTEX
  8
0
 10
2.34679744
 20
112.139222
 42
0.0
  0
VERTEX
  8
0
 10
2.32612946
 20
111.87176
 42
0.0
  0
VERTEX
  8
0
 10
2.34679744
 20
111.605822
 42
0.0
  0
VERTEX
  8
0
 10
2.40881154
 20
111.345472
 42
0.0
  0
VERTEX
  8
0
 10
2.49424952
 20
111.14024
 42
0.0
  0
VERTEX
  8
0
 10
2.51078746
 20
111.098838
 42
0.0
  0
VERTEX
  8
0
 10
2.6513536
 20
110.871254
 42
0.0
  0
SEQEND
  0
POLYLINE
  8
0
 66
     1
 10
0.0
 20
0.0
 30
0.0
 70
     1
  0
VERTEX
  8
0
 10
2.51078746
 20
9.3927168
 42
0.0
  0
VERTEX
  8
0
 10
2.49700796
 20
9.359646
 42
0.0
  0
VERTEX
  8
0
 10
2.40881154
 20
9.1460574
 42
0.0
  0
VERTEX
  8
0
 10
2.40191798
 20
9.1143328
 42
0.0
  0
VERTEX
  8
0
 10
2.34679744
 20
8.8855804
 42
0.0
  0
VERTEX
  8
0
 10
2.32612946
 20
8.6196424
 42
0.0
  0
VERTEX
  8
0
 10
2.34679744
 20
8.353679
 42
0.0
  0
VERTEX
  8
0
 10
2.40881154
 20
8.0932274
 42
0.0
  0
VERTEX
  8
0
 10
2.49700796
 20
7.880985
 42
0.0
  0
VERTEX
  8
0
 10
2.51078746
 20
7.8465426
 42
0.0
  0
VERTEX
  8
0
 10
2.6513536
 20
7.6191872
 42
0.0
  0
VERTEX
  8
0
 10
2.6568654
 20
7.6109068
 42
0.0
  0
VERTEX
  8
0
 10
2.7174952
 20
7.5419966
 42
0.0
  0
VERTEX
  8
0
 10
2.823591
 20
7.4152252
 42
0.0
  0
VERTEX
  8
0
 10
3.027553
 20
7.2429878
 42
0.0
  0
VERTEX
  8
0
 10
3.0302962
 20
7.2401938
 42
0.0
  0
VERTEX
  8
0
 10
3.2549338
 20
7.1023988
 42
0.0
  0
VERTEX
  8
0
 10
3.2742124
 20
7.0955154
 42
0.0
  0
VERTEX
  8
0
 10
3.5015932
 20
7.0004432
 42
0.0
  0
VERTEX
  8
0
 10
3.7620448
 20
6.9384418
 42
0.0
  0
VERTEX
  8
0
 10
4.0280082
 20
6.9163946
 42
0.0
  0
VERTEX
  8
0
 10
4.2939716
 20
6.9384418
 42
0.0
  0
VERTEX
  8
0
 10
4.5544232
 20
7.0004432
 42
0.0
  0
VERTEX
  8
0
 10
4.781804
 20
7.0955154
 42
0.0
  0
VERTEX
  8
0
 10
4.8010826
 20
7.1023988
 42
0.0
  0
VERTEX
  8
0
 10
5.0284634
 20
7.2429878
 42
0.0
  0
VERTEX
  8
0
 10
5.049139
 20
7.2594978
 42
0.0
  0
VERTEX
  8
0
 10
5.2324
 20
7.4152252
 42
0.0
  0
VERTEX
  8
0
 10
5.4046628
 20
7.6191872
 42
0.0
  0
VERTEX
  8
0
 10
5.4211982
 20
7.6453746
 42
0.0
  0
VERTEX
  8
0
 10
5.5355744
 20
7.8300072
 42
0.0
  0
VERTEX
  8
0
 10
5.5452518
 20
7.8465426
 42
0.0
  0
VERTEX
  8
0
 10
5.6155082
 20
8.0174338
 42
0.0
  0
VERTEX
  8
0
 10
5.6472074
 20
8.0932274
 42
0.0
  0
VERTEX
  8
0
 10
5.7105804
 20
8.353679
 42
0.0
  0
VERTEX
  8
0
 10
5.731256
 20
8.6196424
 42
0.0
  0
VERTEX
  8
0
 10
5.7105804
 20
8.8855804
 42
0.0
  0
VERTEX
  8
0
 10
5.6540654
 20
9.1143328
 42
0.0
  0
VERTEX
  8
0
 10
5.6472074
 20
9.1460574
 42
0.0
  0
VERTEX
  8
0
 10
5.5452518
 20
9.3927168
 42
0.0
  0
VERTEX
  8
0
 10
5.5355744
 20
9.4092522
 42
0.0
  0
VERTEX
  8
0
 10
5.4046628
 20
9.6214438
 42
0.0
  0
VERTEX
  8
0
 10
5.3674518
 20
9.6655382
 42
0.0
  0
VERTEX
  8
0
 10
5.2324
 20
9.8240596
 42
0.0
  0
VERTEX
  8
0
 10
5.0284634
 20
9.9962716
 42
0.0
  0
VERTEX
  8
0
 10
4.9788572
 20
10.0279962
 42
0.0
  0
VERTEX
  8
0
 10
4.9168304
 20
10.0665788
 42
0.0
  0
VERTEX
  8
0
 10
4.807966
 20
10.1327204
 42
0.0
  0
VERTEX
  8
0
 10
4.8010826
 20
10.1368606
 42
0.0
  0
VERTEX
  8
0
 10
4.5544232
 20
10.2388162
 42
0.0
  0
VERTEX
  8
0
 10
4.2939716
 20
10.3008176
 42
0.0
  0
VERTEX
  8
0
 10
4.0280082
 20
10.3214932
 42
0.0
  0
VERTEX
  8
0
 10
3.7620448
 20
10.3008176
 42
0.0
  0
VERTEX
  8
0
 10
3.5015932
 20
10.2388162
 42
0.0
  0
VERTEX
  8
0
 10
3.2549338
 20
10.1368606
 42
0.0
  0
VERTEX
  8
0
 10
3.248025
 20
10.1327204
 42
0.0
  0
VERTEX
  8
0
 10
3.1391606
 20
10.0665788
 42
0.0
  0
VERTEX
  8
0
 10
3.027553
 20
9.9962716
 42
0.0
  0
VERTEX
  8
0
 10
2.9944822
 20
9.9701096
 42
0.0
  0
VERTEX
  8
0
 10
2.823591
 20
9.8240596
 42
0.0
  0
VERTEX
  8
0
 10
2.7174952
 20
9.6986344
 42
0.0
  0
VERTEX
  8
0
 10
2.6513536
 20
9.6214438
 42
0.0
  0
SEQEND
  0
POLYLINE
  8
0
 66
     1
 10
0.0
 20
0.0
 30
0.0
 70
     1
  0
VERTEX
  8
0
 10
7.0955154
 20
14.7464018
 42
0.0
  0
VERTEX
  8
0
 10
8.5893402
 20
14.7464018
 42
0.0
  0
VERTEX
  8
0
 10
8.5893402
 20
22.0045026
 42
0.0
  0
VERTEX
  8
0
 10
7.0651878
 20
22.0045026
 42
0.0
  0
VERTEX
  8
0
 10
7.0651878
 20
14.7464018
 42
0.0
  0
SEQEND
  0
POLYLINE
  8
0
 66
     1
 10
0.0
 20
0.0
 30
0.0
 70
     1
  0
VERTEX
  8
0
 10
13.9222988
 20
111.880396
 42
0.0
  0
VERTEX
  8
0
 10
11.3205768
 20
110.37824
 42
0.0
  0
VERTEX
  8
0
 10
11.0243112
 20
110.207044
 42
0.0
  0
VERTEX
  8
0
 10
11.0243112
 20
106.861356
 42
0.0
  0
VERTEX
  8
0
 10
13.9222988
 20
105.188512
 42
0.0
  0
VERTEX
  8
0
 10
16.8203372
 20
106.861356
 42
0.0
  0
VERTEX
  8
0
 10
16.8203372
 20
110.207044
 42
0.0
  0
VERTEX
  8
0
 10
16.5240462
 20
110.37824
 42
0.0
  0
VERTEX
  8
0
 10
16.077565
 20
110.635796
 42
0.0
  0
SEQEND
  0
POLYLINE
  8
0
 66
     1
 10
0.0
 20
0.0
 30
0.0
 70
     1
  0
VERTEX
  8
0
 10
14.867636
 20
143.973296
 42
0.0
  0
VERTEX
  8
0
 10
16.688054
 20
145.023332
 42
0.0
  0
VERTEX
  8
0
 10
16.8203372
 20
145.099278
 42
0.0
  0
VERTEX
  8
0
 10
16.9608754
 20
145.181828
 42
0.0
  0
VERTEX
  8
0
 10
17.5713644
 20
145.53311
 42
0.0
  0
VERTEX
  8
0
 10
17.5713644
 20
148.65731
 42
0.0
  0
VERTEX
  8
0
 10
14.867636
 20
150.217378
 42
0.0
  0
VERTEX
  8
0
 10
13.1009898
 20
149.197568
 42
0.0
  0
VERTEX
  8
0
 10
12.1639584
 20
148.65731
 42
0.0
  0
VERTEX
  8
0
 10
12.1639584
 20
145.53311
 42
0.0
  0
SEQEND
  0
POLYLINE
  8
0
 66
     1
 10
0.0
 20
0.0
 30
0.0
 70
     1
  0
VERTEX
  8
0
 10
21.6765378
 20
136.796526
 42
0.0
  0
VERTEX
  8
0
 10
21.1804504
 20
136.511284
 42
0.0
  0
VERTEX
  8
0
 10
21.0398868
 20
136.42975
 42
0.0
  0
VERTEX
  8
0
 10
21.0398868
 20
133.307328
 42
0.0
  0
VERTEX
  8
0
 10
21.1804504
 20
133.225794
 42
0.0
  0
VERTEX
  8
0
 10
21.6765378
 20
132.940806
 42
0.0
  0
VERTEX
  8
0
 10
21.8722194
 20
132.827776
 42
0.0
  0
VERTEX
  8
0
 10
23.7449868
 20
131.74599
 42
0.0
  0
VERTEX
  8
0
 10
26.450036
 20
133.307328
 42
0.0
  0
VERTEX
  8
0
 10
26.450036
 20
136.42975
 42
0.0
  0
VERTEX
  8
0
 10
25.927812
 20
136.731756
 42
0.0
  0
VERTEX
  8
0
 10
23.7449868
 20
137.991088
 42
0.0
  0
VERTEX
  8
0
 10
21.8722194
 20
136.910826
 42
0.0
  0
VERTEX
  8
0
 10
21.7316812
 20
136.829546
 42
0.0
  0
SEQEND
  0
POLYLINE
  8
0
 66
     1
 10
0.0
 20
0.0
 30
0.0
 70
     1
  0
VERTEX
  8
0
 10
21.312759
 20
145.023332
 42
0.0
  0
VERTEX
  8
0
 10
21.6765378
 20
144.813782
 42
0.0
  0
VERTEX
  8
0
 10
21.8722194
 20
144.701006
 42
0.0
  0
VERTEX
  8
0
 10
23.1331262
 20
143.973296
 42
0.0
  0
VERTEX
  8
0
 10
23.4335574
 20
144.146778
 42
0.0
  0
VERTEX
  8
0
 10
24.4091968
 20
144.709134
 42
0.0
  0
VERTEX
  8
0
 10
25.78735
 20
145.505678
 42
0.0
  0
VERTEX
  8
0
 10
25.83688
 20
145.53311
 42
0.0
  0
VERTEX
  8
0
 10
25.83688
 20
148.65731
 42
0.0
  0
VERTEX
  8
0
 10
25.78735
 20
148.686266
 42
0.0
  0
VERTEX
  8
0
 10
24.8997724
 20
149.197568
 42
0.0
  0
VERTEX
  8
0
 10
23.1331262
 20
150.217378
 42
0.0
  0
VERTEX
  8
0
 10
23.0669846
 20
150.18004
 42
0.0
  0
VERTEX
  8
0
 10
21.1873338
 20
149.09546
 42
0.0
  0
VERTEX
  8
0
 10
20.4294232
 20
148.65731
 42
0.0
  0
VERTEX
  8
0
 10
20.4294232
 20
145.53311
 42
0.0
  0
VERTEX
  8
0
 10
21.0398868
 20
145.181828
 42
0.0
  0
VERTEX
  8
0
 10
21.1804504
 20
145.099278
 42
0.0
  0
SEQEND
  0
POLYLINE
  8
0
 66
     1
 10
0.0
 20
0.0
 30
0.0
 70
     1
  0
VERTEX
  8
0
 10
21.1804504
 20
52.479956
 42
0.0
  0
VERTEX
  8
0
 10
21.1804504
 20
51.83505
 42
0.0
  0
VERTEX
  8
0
 10
24.0095532
 20
50.202084
 42
0.0
  0
VERTEX
  8
0
 10
24.0784634
 20
50.161698
 42
0.0
  0
VERTEX
  8
0
 10
24.86533
 20
50.616612
 42
0.0
  0
VERTEX
  8
0
 10
26.976578
 20
51.83505
 42
0.0
  0
VERTEX
  8
0
 10
26.976578
 20
55.180738
 42
0.0
  0
VERTEX
  8
0
 10
26.838656
 20
55.261002
 42
0.0
  0
VERTEX
  8
0
 10
24.0784634
 20
56.853582
 42
0.0
  0
VERTEX
  8
0
 10
24.0095532
 20
56.813704
 42
0.0
  0
VERTEX
  8
0
 10
21.1804504
 20
55.180738
 42
0.0
  0
SEQEND
  0
POLYLINE
  8
0
 66
     1
 10
0.0
 20
0.0
 30
0.0
 70
     1
  0
VERTEX
  8
0
 10
13.1354576
 20
50.616612
 42
0.0
  0
VERTEX
  8
0
 10
13.9222988
 20
50.161698
 42
0.0
  0
VERTEX
  8
0
 10
16.8203372
 20
51.83505
 42
0.0
  0
VERTEX
  8
0
 10
16.8203372
 20
55.180738
 42
0.0
  0
VERTEX
  8
0
 10
16.077565
 20
55.60949
 42
0.0
  0
VERTEX
  8
0
 10
13.9222988
 20
56.853582
 42
0.0
  0
VERTEX
  8
0
 10
11.0243112
 20
55.180738
 42
0.0
  0
VERTEX
  8
0
 10
11.0243112
 20
51.83505
 42
0.0
  0
SEQEND
  0
POLYLINE
  8
0
 66
     1
 10
0.0
 20
0.0
 30
0.0
 70
     1
  0
VERTEX
  8
0
 10
13.8244834
 20
96.082104
 42
0.0
  0
VERTEX
  8
0
 10
13.8244834
 20
94.232984
 42
0.0
  0
VERTEX
  8
0
 10
15.672435
 20
94.232984
 42
0.0
  0
VERTEX
  8
0
 10
15.672435
 20
99.257104
 42
0.0
  0
VERTEX
  8
0
 10
13.8244834
 20
99.257104
 42
0.0
  0
SEQEND
  0
POLYLINE
  8
0
 66
     1
 10
0.0
 20
0.0
 30
0.0
 70
     1
  0
VERTEX
  8
0
 10
24.0784634
 20
105.188512
 42
0.0
  0
VERTEX
  8
0
 10
26.838656
 20
106.7816
 42
0.0
  0
VERTEX
  8
0
 10
26.976578
 20
106.861356
 42
0.0
  0
VERTEX
  8
0
 10
26.976578
 20
110.207044
 42
0.0
  0
VERTEX
  8
0
 10
26.838656
 20
110.287054
 42
0.0
  0
VERTEX
  8
0
 10
26.68016
 20
110.37824
 42
0.0
  0
VERTEX
  8
0
 10
24.7964452
 20
111.46536
 42
0.0
  0
VERTEX
  8
0
 10
24.0784634
 20
111.880396
 42
0.0
  0
VERTEX
  8
0
 10
24.0095532
 20
111.84001
 42
0.0
  0
VERTEX
  8
0
 10
21.476716
 20
110.37824
 42
0.0
  0
VERTEX
  8
0
 10
21.1804504
 20
110.207044
 42
0.0
  0
VERTEX
  8
0
 10
21.1804504
 20
106.861356
 42
0.0
  0
VERTEX
  8
0
 10
21.8722194
 20
106.46156
 42
0.0
  0
SEQEND
  0
POLYLINE
  8
0
 66
     1
 10
0.0
 20
0.0
 30
0.0
 70
     1
  0
VERTEX
  8
0
 10
24.3816378
 20
99.283774
 42
0.0
  0
VERTEX
  8
0
 10
22.5185224
 20
99.283774
 42
0.0
  0
VERTEX
  8
0
 10
22.5185224
 20
94.232984
 42
0.0
  0
VERTEX
  8
0
 10
24.3816378
 20
94.232984
 42
0.0
  0
SEQEND
  0
POLYLINE
  8
0
 66
     1
 10
0.0
 20
0.0
 30
0.0
 70
     1
  0
VERTEX
  8
0
 10
12.691745
 20
22.2401638
 42
0.0
  0
VERTEX
  8
0
 10
13.5405876
 20
21.7509852
 42
0.0
  0
VERTEX
  8
0
 10
16.6591234
 20
23.5506768
 42
0.0
  0
VERTEX
  8
0
 10
16.6591234
 20
27.151584
 42
0.0
  0
VERTEX
  8
0
 10
13.8796268
 20
28.755594
 42
0.0
  0
VERTEX
  8
0
 10
13.5405876
 20
28.951174
 42
0.0
  0
VERTEX
  8
0
 10
10.4221026
 20
27.151584
 42
0.0
  0
VERTEX
  8
0
 10
10.4221026
 20
23.5506768
 42
0.0
  0
SEQEND
  0
POLYLINE
  8
0
 66
     1
 10
0.0
 20
0.0
 30
0.0
 70
     1
  0
VERTEX
  8
0
 10
16.843756
 20
30.77845
 42
0.0
  0
VERTEX
  8
0
 10
19.0003938
 20
29.532834
 42
0.0
  0
VERTEX
  8
0
 10
21.1570316
 20
30.77845
 42
0.0
  0
VERTEX
  8
0
 10
21.3416896
 20
30.885892
 42
0.0
  0
VERTEX
  8
0
 10
24.1211862
 20
32.489902
 42
0.0
  0
VERTEX
  8
0
 10
24.1211862
 20
38.412928
 42
0.0
  0
VERTEX
  8
0
 10
19.0003938
 20
41.368726
 42
0.0
  0
VERTEX
  8
0
 10
13.8796268
 20
38.412928
 42
0.0
  0
VERTEX
  8
0
 10
13.8796268
 20
32.489902
 42
0.0
  0
VERTEX
  8
0
 10
16.6591234
 20
30.885892
 42
0.0
  0
SEQEND
  0
POLYLINE
  8
0
 66
     1
 10
0.0
 20
0.0
 30
0.0
 70
     1
  0
VERTEX
  8
0
 10
27.578558
 20
23.5506768
 42
0.0
  0
VERTEX
  8
0
 10
27.578558
 20
27.151584
 42
0.0
  0
VERTEX
  8
0
 10
27.43962
 20
27.232864
 42
0.0
  0
VERTEX
  8
0
 10
24.4615462
 20
28.951174
 42
0.0
  0
VERTEX
  8
0
 10
24.3912644
 20
28.911296
 42
0.0
  0
VERTEX
  8
0
 10
21.3416896
 20
27.151584
 42
0.0
  0
VERTEX
  8
0
 10
21.3416896
 20
23.5506768
 42
0.0
  0
VERTEX
  8
0
 10
24.3912644
 20
21.790914
 42
0.0
  0
VERTEX
  8
0
 10
24.4615462
 20
21.7509852
 42
0.0
  0
VERTEX
  8
0
 10
25.3062994
 20
22.2387922
 42
0.0
  0
SEQEND
  0
POLYLINE
  8
0
 66
     1
 10
0.0
 20
0.0
 30
0.0
 70
     1
  0
VERTEX
  8
0
 10
29.426662
 20
14.7464018
 42
0.0
  0
VERTEX
  8
0
 10
30.950662
 20
14.7464018
 42
0.0
  0
VERTEX
  8
0
 10
30.950662
 20
22.0045026
 42
0.0
  0
VERTEX
  8
0
 10
29.426662
 20
22.0045026
 42
0.0
  0
SEQEND
  0
POLYLINE
  8
0
 66
     1
 10
0.0
 20
0.0
 30
0.0
 70
     1
  0
VERTEX
  8
0
 10
27.283664
 20
154.884628
 42
0.0
  0
VERTEX
  8
0
 10
27.293316
 20
154.865324
 42
0.0
  0
VERTEX
  8
0
 10
27.355546
 20
154.73426
 42
0.0
  0
VERTEX
  8
0
 10
27.44089
 20
154.591004
 42
0.0
  0
VERTEX
  8
0
 10
27.541474
 20
154.4574
 42
0.0
  0
VERTEX
  8
0
 10
27.65298
 20
154.333194
 42
0.0
  0
VERTEX
  8
0
 10
27.777186
 20
154.220418
 42
0.0
  0
VERTEX
  8
0
 10
27.91079
 20
154.121104
 42
0.0
  0
VERTEX
  8
0
 10
28.054046
 20
154.03576
 42
0.0
  0
VERTEX
  8
0
 10
28.205684
 20
153.964132
 42
0.0
  0
VERTEX
  8
0
 10
28.31719
 20
153.924
 42
0.0
  0
VERTEX
  8
0
 10
28.362656
 20
153.90749
 42
0.0
  0
VERTEX
  8
0
 10
28.52547
 20
153.866088
 42
0.0
  0
VERTEX
  8
0
 10
28.6893
 20
153.842974
 42
0.0
  0
VERTEX
  8
0
 10
28.857448
 20
153.834338
 42
0.0
  0
VERTEX
  8
0
 10
29.024326
 20
153.842974
 42
0.0
  0
VERTEX
  8
0
 10
29.18968
 20
153.866088
 42
0.0
  0
VERTEX
  8
0
 10
29.341318
 20
153.90495
 42
0.0
  0
VERTEX
  8
0
 10
29.350716
 20
153.90749
 42
0.0
  0
VERTEX
  8
0
 10
29.507942
 20
153.964132
 42
0.0
  0
VERTEX
  8
0
 10
29.557472
 20
153.9875
 42
0.0
  0
VERTEX
  8
0
 10
29.633418
 20
154.023568
 42
0.0
  0
VERTEX
  8
0
 10
29.649928
 20
154.031696
 42
0.0
  0
VERTEX
  8
0
 10
29.65958
 20
154.03576
 42
0.0
  0
VERTEX
  8
0
 10
29.802836
 20
154.121104
 42
0.0
  0
VERTEX
  8
0
 10
29.93644
 20
154.220418
 42
0.0
  0
VERTEX
  8
0
 10
30.060392
 20
154.333194
 42
0.0
  0
VERTEX
  8
0
 10
30.173422
 20
154.4574
 42
0.0
  0
VERTEX
  8
0
 10
30.271466
 20
154.591004
 42
0.0
  0
VERTEX
  8
0
 10
30.35808
 20
154.73426
 42
0.0
  0
VERTEX
  8
0
 10
30.429708
 20
154.884628
 42
0.0
  0
VERTEX
  8
0
 10
30.48635
 20
155.043124
 42
0.0
  0
VERTEX
  8
0
 10
30.527752
 20
155.20416
 42
0.0
  0
VERTEX
  8
0
 10
30.55112
 20
155.369768
 42
0.0
  0
VERTEX
  8
0
 10
30.556708
 20
155.474416
 42
0.0
  0
VERTEX
  8
0
 10
30.559502
 20
155.536646
 42
0.0
  0
VERTEX
  8
0
 10
30.55112
 20
155.70454
 42
0.0
  0
VERTEX
  8
0
 10
30.527752
 20
155.868624
 42
0.0
  0
VERTEX
  8
0
 10
30.48635
 20
156.031184
 42
0.0
  0
VERTEX
  8
0
 10
30.429708
 20
156.188156
 42
0.0
  0
VERTEX
  8
0
 10
30.35808
 20
156.339794
 42
0.0
  0
VERTEX
  8
0
 10
30.271466
 20
156.48305
 42
0.0
  0
VERTEX
  8
0
 10
30.26029
 20
156.49829
 42
0.0
  0
VERTEX
  8
0
 10
30.173422
 20
156.616654
 42
0.0
  0
VERTEX
  8
0
 10
30.060392
 20
156.74086
 42
0.0
  0
VERTEX
  8
0
 10
29.93644
 20
156.852366
 42
0.0
  0
VERTEX
  8
0
 10
29.802836
 20
156.95295
 42
0.0
  0
VERTEX
  8
0
 10
29.65958
 20
157.038294
 42
0.0
  0
VERTEX
  8
0
 10
29.649928
 20
157.042612
 42
0.0
  0
VERTEX
  8
0
 10
29.64434
 20
157.043882
 42
0.0
  0
VERTEX
  8
0
 10
29.633418
 20
157.049724
 42
0.0
  0
VERTEX
  8
0
 10
29.557472
 20
157.086554
 42
0.0
  0
VERTEX
  8
0
 10
29.507942
 20
157.110176
 42
0.0
  0
VERTEX
  8
0
 10
29.350716
 20
157.165294
 42
0.0
  0
VERTEX
  8
0
 10
29.341318
 20
157.168088
 42
0.0
  0
VERTEX
  8
0
 10
29.18968
 20
157.206696
 42
0.0
  0
VERTEX
  8
0
 10
29.024326
 20
157.231334
 42
0.0
  0
VERTEX
  8
0
 10
28.857448
 20
157.239716
 42
0.0
  0
VERTEX
  8
0
 10
28.6893
 20
157.231334
 42
0.0
  0
VERTEX
  8
0
 10
28.52547
 20
157.206696
 42
0.0
  0
VERTEX
  8
0
 10
28.362656
 20
157.165294
 42
0.0
  0
VERTEX
  8
0
 10
28.31719
 20
157.150054
 42
0.0
  0
VERTEX
  8
0
 10
28.205684
 20
157.110176
 42
0.0
  0
VERTEX
  8
0
 10
28.054046
 20
157.038294
 42
0.0
  0
VERTEX
  8
0
 10
27.91079
 20
156.95295
 42
0.0
  0
VERTEX
  8
0
 10
27.777186
 20
156.852366
 42
0.0
  0
VERTEX
  8
0
 10
27.65298
 20
156.74086
 42
0.0
  0
VERTEX
  8
0
 10
27.541474
 20
156.616654
 42
0.0
  0
VERTEX
  8
0
 10
27.44089
 20
156.48305
 42
0.0
  0
VERTEX
  8
0
 10
27.355546
 20
156.339794
 42
0.0
  0
VERTEX
  8
0
 10
27.293316
 20
156.20746
 42
0.0
  0
VERTEX
  8
0
 10
27.283664
 20
156.188156
 42
0.0
  0
VERTEX
  8
0
 10
27.228546
 20
156.031184
 42
0.0
  0
VERTEX
  8
0
 10
27.187398
 20
155.868624
 42
0.0
  0
VERTEX
  8
0
 10
27.162506
 20
155.70454
 42
0.0
  0
VERTEX
  8
0
 10
27.154378
 20
155.536646
 42
0.0
  0
VERTEX
  8
0
 10
27.156918
 20
155.474416
 42
0.0
  0
VERTEX
  8
0
 10
27.162506
 20
155.369768
 42
0.0
  0
VERTEX
  8
0
 10
27.187398
 20
155.20416
 42
0.0
  0
VERTEX
  8
0
 10
27.228546
 20
155.043124
 42
0.0
  0
SEQEND
  0
POLYLINE
  8
0
 66
     1
 10
0.0
 20
0.0
 30
0.0
 70
     1
  0
VERTEX
  8
0
 10
8.8580468
 20
153.830528
 42
0.0
  0
VERTEX
  8
0
 10
8.86079
 20
153.829004
 42
0.0
  0
VERTEX
  8
0
 10
9.0165174
 20
153.77414
 42
0.0
  0
VERTEX
  8
0
 10
9.1777312
 20
153.732484
 42
0.0
  0
VERTEX
  8
0
 10
9.3431106
 20
153.709116
 42
0.0
  0
VERTEX
  8
0
 10
9.5098362
 20
153.700988
 42
0.0
  0
VERTEX
  8
0
 10
9.6765872
 20
153.709116
 42
0.0
  0
VERTEX
  8
0
 10
9.8419412
 20
153.732484
 42
0.0
  0
VERTEX
  8
0
 10
10.0045774
 20
153.77414
 42
0.0
  0
VERTEX
  8
0
 10
10.161651
 20
153.830528
 42
0.0
  0
VERTEX
  8
0
 10
10.3118666
 20
153.902156
 42
0.0
  0
VERTEX
  8
0
 10
10.456545
 20
153.9875
 42
0.0
  0
VERTEX
  8
0
 10
10.5902252
 20
154.08656
 42
0.0
  0
VERTEX
  8
0
 10
10.7142534
 20
154.198574
 42
0.0
  0
VERTEX
  8
0
 10
10.825861
 20
154.322272
 42
0.0
  0
VERTEX
  8
0
 10
10.9085634
 20
154.435556
 42
0.0
  0
VERTEX
  8
0
 10
10.9250988
 20
154.4574
 42
0.0
  0
VERTEX
  8
0
 10
11.010519
 20
154.600656
 42
0.0
  0
VERTEX
  8
0
 10
11.0835694
 20
154.752294
 42
0.0
  0
VERTEX
  8
0
 10
11.1386874
 20
154.909266
 42
0.0
  0
VERTEX
  8
0
 10
11.1800132
 20
155.070556
 42
0.0
  0
VERTEX
  8
0
 10
11.2034574
 20
155.23591
 42
0.0
  0
VERTEX
  8
0
 10
11.2117378
 20
155.402788
 42
0.0
  0
VERTEX
  8
0
 10
11.2089438
 20
155.474416
 42
0.0
  0
VERTEX
  8
0
 10
11.2034574
 20
155.569412
 42
0.0
  0
VERTEX
  8
0
 10
11.1800132
 20
155.734766
 42
0.0
  0
VERTEX
  8
0
 10
11.1386874
 20
155.897326
 42
0.0
  0
VERTEX
  8
0
 10
11.0835694
 20
156.054552
 42
0.0
  0
VERTEX
  8
0
 10
11.010519
 20
156.20619
 42
0.0
  0
VERTEX
  8
0
 10
10.9250988
 20
156.349446
 42
0.0
  0
VERTEX
  8
0
 10
10.9085634
 20
156.370274
 42
0.0
  0
VERTEX
  8
0
 10
10.825861
 20
156.48305
 42
0.0
  0
VERTEX
  8
0
 10
10.7142534
 20
156.607256
 42
0.0
  0
VERTEX
  8
0
 10
10.5902252
 20
156.718762
 42
0.0
  0
VERTEX
  8
0
 10
10.456545
 20
156.819346
 42
0.0
  0
VERTEX
  8
0
 10
10.3118666
 20
156.904944
 42
0.0
  0
VERTEX
  8
0
 10
10.161651
 20
156.976572
 42
0.0
  0
VERTEX
  8
0
 10
10.0045774
 20
157.03169
 42
0.0
  0
VERTEX
  8
0
 10
9.8419412
 20
157.072838
 42
0.0
  0
VERTEX
  8
0
 10
9.6765872
 20
157.097476
 42
0.0
  0
VERTEX
  8
0
 10
9.5098362
 20
157.106112
 42
0.0
  0
VERTEX
  8
0
 10
9.3431106
 20
157.097476
 42
0.0
  0
VERTEX
  8
0
 10
9.1777312
 20
157.072838
 42
0.0
  0
VERTEX
  8
0
 10
9.0165174
 20
157.03169
 42
0.0
  0
VERTEX
  8
0
 10
8.86079
 20
156.976572
 42
0.0
  0
VERTEX
  8
0
 10
8.8580468
 20
156.976572
 42
0.0
  0
VERTEX
  8
0
 10
8.7064596
 20
156.904944
 42
0.0
  0
VERTEX
  8
0
 10
8.564499
 20
156.819346
 42
0.0
  0
VERTEX
  8
0
 10
8.5617304
 20
156.817822
 42
0.0
  0
VERTEX
  8
0
 10
8.4694268
 20
156.748988
 42
0.0
  0
VERTEX
  8
0
 10
8.4294472
 20
156.718762
 42
0.0
  0
VERTEX
  8
0
 10
8.3054444
 20
156.607256
 42
0.0
  0
VERTEX
  8
0
 10
8.1938368
 20
156.48305
 42
0.0
  0
VERTEX
  8
0
 10
8.094599
 20
156.349446
 42
0.0
  0
VERTEX
  8
0
 10
8.0077818
 20
156.20619
 42
0.0
  0
VERTEX
  8
0
 10
7.9375
 20
156.054552
 42
0.0
  0
VERTEX
  8
0
 10
7.880985
 20
155.897326
 42
0.0
  0
VERTEX
  8
0
 10
7.8396846
 20
155.734766
 42
0.0
  0
VERTEX
  8
0
 10
7.8162404
 20
155.569412
 42
0.0
  0
VERTEX
  8
0
 10
7.8107032
 20
155.474416
 42
0.0
  0
VERTEX
  8
0
 10
7.8065884
 20
155.402788
 42
0.0
  0
VERTEX
  8
0
 10
7.8162404
 20
155.23591
 42
0.0
  0
VERTEX
  8
0
 10
7.8396846
 20
155.070556
 42
0.0
  0
VERTEX
  8
0
 10
7.880985
 20
154.909266
 42
0.0
  0
VERTEX
  8
0
 10
7.9375
 20
154.752294
 42
0.0
  0
VERTEX
  8
0
 10
8.0077818
 20
154.600656
 42
0.0
  0
VERTEX
  8
0
 10
8.094599
 20
154.4574
 42
0.0
  0
VERTEX
  8
0
 10
8.1938368
 20
154.322272
 42
0.0
  0
VERTEX
  8
0
 10
8.3054444
 20
154.198574
 42
0.0
  0
VERTEX
  8
0
 10
8.4294472
 20
154.08656
 42
0.0
  0
VERTEX
  8
0
 10
8.4694268
 20
154.057604
 42
0.0
  0
VERTEX
  8
0
 10
8.5617304
 20
153.989024
 42
0.0
  0
VERTEX
  8
0
 10
8.564499
 20
153.9875
 42
0.0
  0
VERTEX
  8
0
 10
8.7064596
 20
153.902156
 42
0.0
  0
SEQEND
  0
POLYLINE
  8
0
 66
     1
 10
0.0
 20
0.0
 30
0.0
 70
     1
  0
VERTEX
  8
0
 10
32.90062
 20
47.274988
 42
0.0
  0
VERTEX
  8
0
 10
32.976566
 20
47.210218
 42
0.0
  0
VERTEX
  8
0
 10
33.100518
 20
47.134272
 42
0.0
  0
VERTEX
  8
0
 10
33.154112
 20
47.101506
 42
0.0
  0
VERTEX
  8
0
 10
33.205166
 20
47.069756
 42
0.0
  0
VERTEX
  8
0
 10
33.436814
 20
46.974506
 42
0.0
  0
VERTEX
  8
0
 10
33.4518
 20
46.967648
 42
0.0
  0
VERTEX
  8
0
 10
33.607502
 20
46.93031
 42
0.0
  0
VERTEX
  8
0
 10
33.71088
 20
46.904402
 42
0.0
  0
VERTEX
  8
0
 10
33.978342
 20
46.883574
 42
0.0
  0
VERTEX
  8
0
 10
34.24428
 20
46.904402
 42
0.0
  0
VERTEX
  8
0
 10
34.347658
 20
46.93031
 42
0.0
  0
VERTEX
  8
0
 10
34.50336
 20
46.967648
 42
0.0
  0
VERTEX
  8
0
 10
34.751264
 20
47.069756
 42
0.0
  0
VERTEX
  8
0
 10
34.801048
 20
47.101506
 42
0.0
  0
VERTEX
  8
0
 10
34.944304
 20
47.189644
 42
0.0
  0
VERTEX
  8
0
 10
34.977324
 20
47.210218
 42
0.0
  0
VERTEX
  8
0
 10
35.181286
 20
47.382684
 42
0.0
  0
VERTEX
  8
0
 10
35.338512
 20
47.567088
 42
0.0
  0
VERTEX
  8
0
 10
35.355022
 20
47.586646
 42
0.0
  0
VERTEX
  8
0
 10
35.484562
 20
47.797212
 42
0.0
  0
VERTEX
  8
0
 10
35.495484
 20
47.813722
 42
0.0
  0
VERTEX
  8
0
 10
35.506406
 20
47.842678
 42
0.0
  0
VERTEX
  8
0
 10
35.597338
 20
48.060356
 42
0.0
  0
VERTEX
  8
0
 10
35.659568
 20
48.32096
 42
0.0
  0
VERTEX
  8
0
 10
35.680396
 20
48.587152
 42
0.0
  0
VERTEX
  8
0
 10
35.659568
 20
48.852582
 42
0.0
  0
VERTEX
  8
0
 10
35.597338
 20
49.11344
 42
0.0
  0
VERTEX
  8
0
 10
35.506406
 20
49.331118
 42
0.0
  0
VERTEX
  8
0
 10
35.495484
 20
49.360074
 42
0.0
  0
VERTEX
  8
0
 10
35.484562
 20
49.376584
 42
0.0
  0
VERTEX
  8
0
 10
35.355022
 20
49.587404
 42
0.0
  0
VERTEX
  8
0
 10
35.32759
 20
49.620424
 42
0.0
  0
VERTEX
  8
0
 10
35.181286
 20
49.791366
 42
0.0
  0
VERTEX
  8
0
 10
34.977324
 20
49.963578
 42
0.0
  0
VERTEX
  8
0
 10
34.94151
 20
49.986946
 42
0.0
  0
VERTEX
  8
0
 10
34.751264
 20
50.10404
 42
0.0
  0
VERTEX
  8
0
 10
34.66592
 20
50.138584
 42
0.0
  0
VERTEX
  8
0
 10
34.50336
 20
50.205894
 42
0.0
  0
VERTEX
  8
0
 10
34.24428
 20
50.268124
 42
0.0
  0
VERTEX
  8
0
 10
33.978342
 20
50.288698
 42
0.0
  0
VERTEX
  8
0
 10
33.71088
 20
50.268124
 42
0.0
  0
VERTEX
  8
0
 10
33.4518
 20
50.205894
 42
0.0
  0
VERTEX
  8
0
 10
33.436814
 20
50.19929
 42
0.0
  0
VERTEX
  8
0
 10
33.28924
 20
50.138584
 42
0.0
  0
VERTEX
  8
0
 10
33.205166
 20
50.10404
 42
0.0
  0
VERTEX
  8
0
 10
32.993076
 20
49.972976
 42
0.0
  0
VERTEX
  8
0
 10
32.976566
 20
49.963578
 42
0.0
  0
VERTEX
  8
0
 10
32.773874
 20
49.791366
 42
0.0
  0
VERTEX
  8
0
 10
32.629094
 20
49.621694
 42
0.0
  0
VERTEX
  8
0
 10
32.600392
 20
49.587404
 42
0.0
  0
VERTEX
  8
0
 10
32.497014
 20
49.419256
 42
0.0
  0
VERTEX
  8
0
 10
32.49422
 20
49.413668
 42
0.0
  0
VERTEX
  8
0
 10
32.469328
 20
49.372266
 42
0.0
  0
VERTEX
  8
0
 10
32.460946
 20
49.360074
 42
0.0
  0
VERTEX
  8
0
 10
32.357822
 20
49.11344
 42
0.0
  0
VERTEX
  8
0
 10
32.326072
 20
48.978312
 42
0.0
  0
VERTEX
  8
0
 10
32.295592
 20
48.852582
 42
0.0
  0
VERTEX
  8
0
 10
32.275018
 20
48.587152
 42
0.0
  0
VERTEX
  8
0
 10
32.295592
 20
48.32096
 42
0.0
  0
VERTEX
  8
0
 10
32.357822
 20
48.060356
 42
0.0
  0
VERTEX
  8
0
 10
32.460946
 20
47.813722
 42
0.0
  0
VERTEX
  8
0
 10
32.469328
 20
47.801276
 42
0.0
  0
VERTEX
  8
0
 10
32.49422
 20
47.760128
 42
0.0
  0
VERTEX
  8
0
 10
32.497014
 20
47.75454
 42
0.0
  0
VERTEX
  8
0
 10
32.550608
 20
47.666402
 42
0.0
  0
VERTEX
  8
0
 10
32.600392
 20
47.586646
 42
0.0
  0
VERTEX
  8
0
 10
32.773874
 20
47.382684
 42
0.0
  0
SEQEND
  0
POLYLINE
  8
0
 66
     1
 10
0.0
 20
0.0
 30
0.0
 70
     1
  0
VERTEX
  8
0
 10
32.91586
 20
110.546134
 42
0.0
  0
VERTEX
  8
0
 10
32.976566
 20
110.495334
 42
0.0
  0
VERTEX
  8
0
 10
33.168082
 20
110.37824
 42
0.0
  0
VERTEX
  8
0
 10
33.205166
 20
110.354618
 42
0.0
  0
VERTEX
  8
0
 10
33.436814
 20
110.259622
 42
0.0
  0
VERTEX
  8
0
 10
33.4518
 20
110.25251
 42
0.0
  0
VERTEX
  8
0
 10
33.71088
 20
110.190788
 42
0.0
  0
VERTEX
  8
0
 10
33.978342
 20
110.16996
 42
0.0
  0
VERTEX
  8
0
 10
34.24428
 20
110.190788
 42
0.0
  0
VERTEX
  8
0
 10
34.50336
 20
110.25251
 42
0.0
  0
VERTEX
  8
0
 10
34.751264
 20
110.354618
 42
0.0
  0
VERTEX
  8
0
 10
34.788602
 20
110.37824
 42
0.0
  0
VERTEX
  8
0
 10
34.94151
 20
110.471712
 42
0.0
  0
VERTEX
  8
0
 10
34.977324
 20
110.495334
 42
0.0
  0
VERTEX
  8
0
 10
35.181286
 20
110.667546
 42
0.0
  0
VERTEX
  8
0
 10
35.338512
 20
110.852204
 42
0.0
  0
VERTEX
  8
0
 10
35.355022
 20
110.871254
 42
0.0
  0
VERTEX
  8
0
 10
35.484562
 20
111.082328
 42
0.0
  0
VERTEX
  8
0
 10
35.495484
 20
111.098838
 42
0.0
  0
VERTEX
  8
0
 10
35.502596
 20
111.117888
 42
0.0
  0
VERTEX
  8
0
 10
35.506406
 20
111.127794
 42
0.0
  0
VERTEX
  8
0
 10
35.597338
 20
111.345472
 42
0.0
  0
VERTEX
  8
0
 10
35.659568
 20
111.605822
 42
0.0
  0
VERTEX
  8
0
 10
35.680396
 20
111.87176
 42
0.0
  0
VERTEX
  8
0
 10
35.659568
 20
112.139222
 42
0.0
  0
VERTEX
  8
0
 10
35.597338
 20
112.398302
 42
0.0
  0
VERTEX
  8
0
 10
35.568382
 20
112.465866
 42
0.0
  0
VERTEX
  8
0
 10
35.506406
 20
112.616234
 42
0.0
  0
VERTEX
  8
0
 10
35.502596
 20
112.625632
 42
0.0
  0
VERTEX
  8
0
 10
35.495484
 20
112.64519
 42
0.0
  0
VERTEX
  8
0
 10
35.484562
 20
112.661446
 42
0.0
  0
VERTEX
  8
0
 10
35.355022
 20
112.872266
 42
0.0
  0
VERTEX
  8
0
 10
35.342576
 20
112.887506
 42
0.0
  0
VERTEX
  8
0
 10
35.181286
 20
113.076228
 42
0.0
  0
VERTEX
  8
0
 10
34.977324
 20
113.24971
 42
0.0
  0
VERTEX
  8
0
 10
34.959544
 20
113.26114
 42
0.0
  0
VERTEX
  8
0
 10
34.751264
 20
113.389156
 42
0.0
  0
VERTEX
  8
0
 10
34.688018
 20
113.415318
 42
0.0
  0
VERTEX
  8
0
 10
34.50336
 20
113.49101
 42
0.0
  0
VERTEX
  8
0
 10
34.24428
 20
113.55451
 42
0.0
  0
VERTEX
  8
0
 10
33.978342
 20
113.575084
 42
0.0
  0
VERTEX
  8
0
 10
33.71088
 20
113.55451
 42
0.0
  0
VERTEX
  8
0
 10
33.4518
 20
113.49101
 42
0.0
  0
VERTEX
  8
0
 10
33.436814
 20
113.484406
 42
0.0
  0
VERTEX
  8
0
 10
33.268666
 20
113.415318
 42
0.0
  0
VERTEX
  8
0
 10
33.205166
 20
113.389156
 42
0.0
  0
VERTEX
  8
0
 10
32.99587
 20
113.26114
 42
0.0
  0
VERTEX
  8
0
 10
32.976566
 20
113.24971
 42
0.0
  0
VERTEX
  8
0
 10
32.773874
 20
113.076228
 42
0.0
  0
VERTEX
  8
0
 10
32.600392
 20
112.872266
 42
0.0
  0
VERTEX
  8
0
 10
32.497014
 20
112.704372
 42
0.0
  0
VERTEX
  8
0
 10
32.49422
 20
112.698784
 42
0.0
  0
VERTEX
  8
0
 10
32.469328
 20
112.657382
 42
0.0
  0
VERTEX
  8
0
 10
32.460946
 20
112.64519
 42
0.0
  0
VERTEX
  8
0
 10
32.386778
 20
112.465866
 42
0.0
  0
VERTEX
  8
0
 10
32.357822
 20
112.398302
 42
0.0
  0
VERTEX
  8
0
 10
32.295592
 20
112.139222
 42
0.0
  0
VERTEX
  8
0
 10
32.275018
 20
111.87176
 42
0.0
  0
VERTEX
  8
0
 10
32.295592
 20
111.605822
 42
0.0
  0
VERTEX
  8
0
 10
32.357822
 20
111.345472
 42
0.0
  0
VERTEX
  8
0
 10
32.460946
 20
111.098838
 42
0.0
  0
VERTEX
  8
0
 10
32.469328
 20
111.086646
 42
0.0
  0
VERTEX
  8
0
 10
32.49422
 20
111.04499
 42
0.0
  0
VERTEX
  8
0
 10
32.497014
 20
111.039656
 42
0.0
  0
VERTEX
  8
0
 10
32.55899
 20
110.940596
 42
0.0
  0
VERTEX
  8
0
 10
32.600392
 20
110.871254
 42
0.0
  0
VERTEX
  8
0
 10
32.773874
 20
110.667546
 42
0.0
  0
SEQEND
  0
POLYLINE
  8
0
 66
     1
 10
0.0
 20
0.0
 30
0.0
 70
     1
  0
VERTEX
  8
0
 10
32.99841
 20
56.385206
 42
0.0
  0
VERTEX
  8
0
 10
32.99841
 20
56.378602
 42
0.0
  0
VERTEX
  8
0
 10
35.003486
 20
56.378602
 42
0.0
  0
VERTEX
  8
0
 10
35.003486
 20
72.13346
 42
0.0
  0
VERTEX
  8
0
 10
34.914078
 20
72.13346
 42
0.0
  0
VERTEX
  8
0
 10
34.914078
 20
72.140318
 42
0.0
  0
VERTEX
  8
0
 10
31.908496
 20
72.140318
 42
0.0
  0
VERTEX
  8
0
 10
31.908496
 20
56.385206
 42
0.0
  0
SEQEND
  0
POLYLINE
  8
0
 66
     1
 10
0.0
 20
0.0
 30
0.0
 70
     1
  0
VERTEX
  8
0
 10
35.003486
 20
75.877674
 42
0.0
  0
VERTEX
  8
0
 10
35.003486
 20
97.883472
 42
0.0
  0
VERTEX
  8
0
 10
34.914078
 20
97.883472
 42
0.0
  0
VERTEX
  8
0
 10
34.914078
 20
97.890076
 42
0.0
  0
VERTEX
  8
0
 10
31.908496
 20
97.890076
 42
0.0
  0
VERTEX
  8
0
 10
31.908496
 20
75.884278
 42
0.0
  0
VERTEX
  8
0
 10
32.99841
 20
75.884278
 42
0.0
  0
VERTEX
  8
0
 10
32.99841
 20
75.877674
 42
0.0
  0
SEQEND
  0
POLYLINE
  8
0
 66
     1
 10
0.0
 20
0.0
 30
0.0
 70
     1
  0
VERTEX
  8
0
 10
32.773874
 20
9.8240596
 42
0.0
  0
VERTEX
  8
0
 10
32.600392
 20
9.6214438
 42
0.0
  0
VERTEX
  8
0
 10
32.497014
 20
9.451975
 42
0.0
  0
VERTEX
  8
0
 10
32.49422
 20
9.4464378
 42
0.0
  0
VERTEX
  8
0
 10
32.460946
 20
9.3927168
 42
0.0
  0
VERTEX
  8
0
 10
32.357822
 20
9.1460574
 42
0.0
  0
VERTEX
  8
0
 10
32.35071
 20
9.1143328
 42
0.0
  0
VERTEX
  8
0
 10
32.295592
 20
8.8855804
 42
0.0
  0
VERTEX
  8
0
 10
32.275018
 20
8.6196424
 42
0.0
  0
VERTEX
  8
0
 10
32.295592
 20
8.353679
 42
0.0
  0
VERTEX
  8
0
 10
32.357822
 20
8.0932274
 42
0.0
  0
VERTEX
  8
0
 10
32.389318
 20
8.0174338
 42
0.0
  0
VERTEX
  8
0
 10
32.460946
 20
7.8465426
 42
0.0
  0
VERTEX
  8
0
 10
32.466534
 20
7.8382876
 42
0.0
  0
VERTEX
  8
0
 10
32.49422
 20
7.7927962
 42
0.0
  0
VERTEX
  8
0
 10
32.497014
 20
7.7872844
 42
0.0
  0
VERTEX
  8
0
 10
32.586422
 20
7.6412344
 42
0.0
  0
VERTEX
  8
0
 10
32.600392
 20
7.6191872
 42
0.0
  0
VERTEX
  8
0
 10
32.773874
 20
7.4152252
 42
0.0
  0
VERTEX
  8
0
 10
32.976566
 20
7.2429878
 42
0.0
  0
VERTEX
  8
0
 10
33.205166
 20
7.1023988
 42
0.0
  0
VERTEX
  8
0
 10
33.22447
 20
7.0955154
 42
0.0
  0
VERTEX
  8
0
 10
33.436814
 20
7.0073266
 42
0.0
  0
VERTEX
  8
0
 10
33.4518
 20
7.0004432
 42
0.0
  0
VERTEX
  8
0
 10
33.71088
 20
6.9384418
 42
0.0
  0
VERTEX
  8
0
 10
33.978342
 20
6.9163946
 42
0.0
  0
VERTEX
  8
0
 10
34.24428
 20
6.9384418
 42
0.0
  0
VERTEX
  8
0
 10
34.50336
 20
7.0004432
 42
0.0
  0
VERTEX
  8
0
 10
34.73196
 20
7.0955154
 42
0.0
  0
VERTEX
  8
0
 10
34.751264
 20
7.1023988
 42
0.0
  0
VERTEX
  8
0
 10
34.964878
 20
7.2347074
 42
0.0
  0
VERTEX
  8
0
 10
34.977324
 20
7.2429878
 42
0.0
  0
VERTEX
  8
0
 10
35.181286
 20
7.4152252
 42
0.0
  0
VERTEX
  8
0
 10
35.3441
 20
7.605395
 42
0.0
  0
VERTEX
  8
0
 10
35.355022
 20
7.6191872
 42
0.0
  0
VERTEX
  8
0
 10
35.484562
 20
7.8300072
 42
0.0
  0
VERTEX
  8
0
 10
35.495484
 20
7.8465426
 42
0.0
  0
VERTEX
  8
0
 10
35.502596
 20
7.8658466
 42
0.0
  0
VERTEX
  8
0
 10
35.597338
 20
8.0932274
 42
0.0
  0
VERTEX
  8
0
 10
35.659568
 20
8.353679
 42
0.0
  0
VERTEX
  8
0
 10
35.680396
 20
8.6196424
 42
0.0
  0
VERTEX
  8
0
 10
35.659568
 20
8.8855804
 42
0.0
  0
VERTEX
  8
0
 10
35.60445
 20
9.1143328
 42
0.0
  0
VERTEX
  8
0
 10
35.597338
 20
9.1460574
 42
0.0
  0
VERTEX
  8
0
 10
35.502596
 20
9.3734128
 42
0.0
  0
VERTEX
  8
0
 10
35.495484
 20
9.3927168
 42
0.0
  0
VERTEX
  8
0
 10
35.484562
 20
9.4092522
 42
0.0
  0
VERTEX
  8
0
 10
35.374072
 20
9.58977
 42
0.0
  0
VERTEX
  8
0
 10
35.355022
 20
9.6214438
 42
0.0
  0
VERTEX
  8
0
 10
35.181286
 20
9.8240596
 42
0.0
  0
VERTEX
  8
0
 10
35.010344
 20
9.9687126
 42
0.0
  0
VERTEX
  8
0
 10
34.977324
 20
9.9962716
 42
0.0
  0
VERTEX
  8
0
 10
34.865818
 20
10.0665788
 42
0.0
  0
VERTEX
  8
0
 10
34.756852
 20
10.1327204
 42
0.0
  0
VERTEX
  8
0
 10
34.751264
 20
10.1368606
 42
0.0
  0
VERTEX
  8
0
 10
34.50336
 20
10.2388162
 42
0.0
  0
VERTEX
  8
0
 10
34.24428
 20
10.3008176
 42
0.0
  0
VERTEX
  8
0
 10
33.978342
 20
10.3214932
 42
0.0
  0
VERTEX
  8
0
 10
33.71088
 20
10.3008176
 42
0.0
  0
VERTEX
  8
0
 10
33.4518
 20
10.2388162
 42
0.0
  0
VERTEX
  8
0
 10
33.205166
 20
10.1368606
 42
0.0
  0
VERTEX
  8
0
 10
33.198308
 20
10.1327204
 42
0.0
  0
VERTEX
  8
0
 10
33.089342
 20
10.0665788
 42
0.0
  0
VERTEX
  8
0
 10
33.016444
 20
10.0211128
 42
0.0
  0
VERTEX
  8
0
 10
32.976566
 20
9.9962716
 42
0.0
  0
SEQEND
  0
POLYLINE
  8
0
 66
     1
 10
0.0
 20
0.0
 30
0.0
 70
     1
  0
VERTEX
  8
0
 10
14.2558262
 20
131.74599
 42
0.0
  0
VERTEX
  8
0
 10
16.8203372
 20
133.225794
 42
0.0
  0
VERTEX
  8
0
 10
16.9608754
 20
133.307328
 42
0.0
  0
VERTEX
  8
0
 10
16.9608754
 20
136.42975
 42
0.0
  0
VERTEX
  8
0
 10
16.8203372
 20
136.511284
 42
0.0
  0
VERTEX
  8
0
 10
16.2677602
 20
136.829546
 42
0.0
  0
VERTEX
  8
0
 10
14.2558262
 20
137.991088
 42
0.0
  0
VERTEX
  8
0
 10
12.073001
 20
136.730232
 42
0.0
  0
VERTEX
  8
0
 10
11.5507262
 20
136.42975
 42
0.0
  0
VERTEX
  8
0
 10
11.5507262
 20
133.307328
 42
0.0
  0
SEQEND
  0
ENDSEC
  0
EOF
