  0
SECTION
  2
HEADER
  9
$ACADVER
  1
AC1009
  9
$FILLMODE
 70
 0
  9
$SPLFRAME
 70
 1
  9
$EXTMIN
 10
0
 20
0
 30
0.0
  9
$EXTMAX
 10
41.6667
 20
41.6667
 30
0.0
  0
ENDSEC
  0
SECTION
  2
TABLES
  0
TABLE
  2
LAYER
 70
1
  0
LAYER
  2
0
 70
     0
 62
     7
  6
CONTINUOUS
  0
ENDTAB
  0
ENDSEC
  0
SECTION
  2
ENTITIES
  0
POLYLINE
  8
0
 62
     254
 66
     1
 10
0
 20
0
 30
0.0
 70
     1
 40
0
 41
0
  0
VERTEX
  8
0
 10
1.24892
 20
6.56928
 30
0.0
 40
0
 41
0
  0
VERTEX
  8
0
 10
1.24892
 20
4.63906
 30
0.0
 40
0
 41
0
  0
VERTEX
  8
0
 10
1.2525
 20
4.63906
 30
0.0
 40
0
 41
0
  0
VERTEX
  8
0
 10
1.3125
 20
4.60878
 30
0.0
 40
0
 41
0
  0
VERTEX
  8
0
 10
1.31424
 20
4.60792
 30
0.0
 40
0
 41
0
  0
VERTEX
  8
0
 10
1.40474
 20
4.56228
 30
0.0
 40
0
 41
0
  0
VERTEX
  8
0
 10
1.41612
 20
4.55653
 30
0.0
 40
0
 41
0
  0
VERTEX
  8
0
 10
1.45671
 20
4.53608
 30
0.0
 40
0
 41
0
  0
VERTEX
  8
0
 10
1.45671
 20
1.71718
 30
0.0
 40
0
 41
0
  0
VERTEX
  8
0
 10
1.42942
 20
1.6976
 30
0.0
 40
0
 41
0
  0
VERTEX
  8
0
 10
1.42839
 20
1.69683
 30
0.0
 40
0
 41
0
  0
VERTEX
  8
0
 10
1.37788
 20
1.66043
 30
0.0
 40
0
 41
0
  0
VERTEX
  8
0
 10
1.37788
 20
1.18788
 30
0.0
 40
0
 41
0
  0
VERTEX
  8
0
 10
1.45671
 20
1.13113
 30
0.0
 40
0
 41
0
  0
VERTEX
  8
0
 10
1.45671
 20
0.175836
 30
0.0
 40
0
 41
0
  0
VERTEX
  8
0
 10
1.44997
 20
0.175836
 30
0.0
 40
0
 41
0
  0
VERTEX
  8
0
 10
1.22119
 20
0.0639649
 30
0.0
 40
0
 41
0
  0
VERTEX
  8
0
 10
1.21832
 20
0.0625543
 30
0.0
 40
0
 41
0
  0
VERTEX
  8
0
 10
1.21468
 20
0.0608182
 30
0.0
 40
0
 41
0
  0
VERTEX
  8
0
 10
1.18777
 20
0.0476346
 30
0.0
 40
0
 41
0
  0
VERTEX
  8
0
 10
1.18479
 20
0.0461697
 30
0.0
 40
0
 41
0
  0
VERTEX
  8
0
 10
1.18479
 20
0.046224
 30
0.0
 40
0
 41
0
  0
VERTEX
  8
0
 10
1.16368
 20
0.060981
 30
0.0
 40
0
 41
0
  0
VERTEX
  8
0
 10
1.11003
 20
0.0985243
 30
0.0
 40
0
 41
0
  0
VERTEX
  8
0
 10
1.11003
 20
0.463758
 30
0.0
 40
0
 41
0
  0
VERTEX
  8
0
 10
1.01091
 20
0.533094
 30
0.0
 40
0
 41
0
  0
VERTEX
  8
0
 10
0.909125
 20
0.604329
 30
0.0
 40
0
 41
0
  0
VERTEX
  8
0
 10
0.748047
 20
0.717014
 30
0.0
 40
0
 41
0
  0
VERTEX
  8
0
 10
0.586968
 20
0.604329
 30
0.0
 40
0
 41
0
  0
VERTEX
  8
0
 10
0.48291
 20
0.531521
 30
0.0
 40
0
 41
0
  0
VERTEX
  8
0
 10
0.400336
 20
0.473796
 30
0.0
 40
0
 41
0
  0
VERTEX
  8
0
 10
0.386068
 20
0.463758
 30
0.0
 40
0
 41
0
  0
VERTEX
  8
0
 10
0.386068
 20
0.0985243
 30
0.0
 40
0
 41
0
  0
VERTEX
  8
0
 10
0.337076
 20
0.0642361
 30
0.0
 40
0
 41
0
  0
VERTEX
  8
0
 10
0.333442
 20
0.0617404
 30
0.0
 40
0
 41
0
  0
VERTEX
  8
0
 10
0.311253
 20
0.046224
 30
0.0
 40
0
 41
0
  0
VERTEX
  8
0
 10
0.306694
 20
0.0484483
 30
0.0
 40
0
 41
0
  0
VERTEX
  8
0
 10
0.282443
 20
0.0603299
 30
0.0
 40
0
 41
0
  0
VERTEX
  8
0
 10
0.272624
 20
0.0651042
 30
0.0
 40
0
 41
0
  0
VERTEX
  8
0
 10
0.249132
 20
0.076606
 30
0.0
 40
0
 41
0
  0
VERTEX
  8
0
 10
0.0461154
 20
0.175836
 30
0.0
 40
0
 41
0
  0
VERTEX
  8
0
 10
0.0393881
 20
0.175836
 30
0.0
 40
0
 41
0
  0
VERTEX
  8
0
 10
0.0393881
 20
1.13108
 30
0.0
 40
0
 41
0
  0
VERTEX
  8
0
 10
0.118218
 20
1.18788
 30
0.0
 40
0
 41
0
  0
VERTEX
  8
0
 10
0.118218
 20
1.66043
 30
0.0
 40
0
 41
0
  0
VERTEX
  8
0
 10
0.0915256
 20
1.67969
 30
0.0
 40
0
 41
0
  0
VERTEX
  8
0
 10
0.0429144
 20
1.71468
 30
0.0
 40
0
 41
0
  0
VERTEX
  8
0
 10
0.0393881
 20
1.71724
 30
0.0
 40
0
 41
0
  0
VERTEX
  8
0
 10
0.0393881
 20
4.53999
 30
0.0
 40
0
 41
0
  0
VERTEX
  8
0
 10
0.0774197
 20
4.55919
 30
0.0
 40
0
 41
0
  0
VERTEX
  8
0
 10
0.0915256
 20
4.56629
 30
0.0
 40
0
 41
0
  0
VERTEX
  8
0
 10
0.181261
 20
4.61154
 30
0.0
 40
0
 41
0
  0
VERTEX
  8
0
 10
0.244194
 20
4.64333
 30
0.0
 40
0
 41
0
  0
VERTEX
  8
0
 10
0.244194
 20
4.6441
 30
0.0
 40
0
 41
0
  0
VERTEX
  8
0
 10
0.244683
 20
4.6441
 30
0.0
 40
0
 41
0
  0
VERTEX
  8
0
 10
0.244683
 20
6.56868
 30
0.0
 40
0
 41
0
  0
VERTEX
  8
0
 10
0.248481
 20
6.57053
 30
0.0
 40
0
 41
0
  0
VERTEX
  8
0
 10
0.249132
 20
6.57086
 30
0.0
 40
0
 41
0
  0
VERTEX
  8
0
 10
0.272624
 20
6.58231
 30
0.0
 40
0
 41
0
  0
VERTEX
  8
0
 10
0.281793
 20
6.58681
 30
0.0
 40
0
 41
0
  0
VERTEX
  8
0
 10
0.282443
 20
6.58713
 30
0.0
 40
0
 41
0
  0
VERTEX
  8
0
 10
0.33279
 20
6.61176
 30
0.0
 40
0
 41
0
  0
VERTEX
  8
0
 10
0.333442
 20
6.61208
 30
0.0
 40
0
 41
0
  0
VERTEX
  8
0
 10
0.336481
 20
6.61356
 30
0.0
 40
0
 41
0
  0
VERTEX
  8
0
 10
0.337076
 20
6.61382
 30
0.0
 40
0
 41
0
  0
VERTEX
  8
0
 10
0.371799
 20
6.63081
 30
0.0
 40
0
 41
0
  0
VERTEX
  8
0
 10
0.393013
 20
6.64117
 30
0.0
 40
0
 41
0
  0
VERTEX
  8
0
 10
0.51964
 20
6.64117
 30
0.0
 40
0
 41
0
  0
VERTEX
  8
0
 10
0.57015
 20
6.61203
 30
0.0
 40
0
 41
0
  0
VERTEX
  8
0
 10
0.57015
 20
6.37039
 30
0.0
 40
0
 41
0
  0
VERTEX
  8
0
 10
0.575846
 20
6.36604
 30
0.0
 40
0
 41
0
  0
VERTEX
  8
0
 10
0.646213
 20
6.31228
 30
0.0
 40
0
 41
0
  0
VERTEX
  8
0
 10
0.659831
 20
6.30192
 30
0.0
 40
0
 41
0
  0
VERTEX
  8
0
 10
0.669217
 20
6.29471
 30
0.0
 40
0
 41
0
  0
VERTEX
  8
0
 10
0.696832
 20
6.2736
 30
0.0
 40
0
 41
0
  0
VERTEX
  8
0
 10
0.746907
 20
6.23535
 30
0.0
 40
0
 41
0
  0
VERTEX
  8
0
 10
0.746907
 20
6.23546
 30
0.0
 40
0
 41
0
  0
VERTEX
  8
0
 10
0.747396
 20
6.23508
 30
0.0
 40
0
 41
0
  0
VERTEX
  8
0
 10
0.747885
 20
6.23546
 30
0.0
 40
0
 41
0
  0
VERTEX
  8
0
 10
0.747885
 20
6.23535
 30
0.0
 40
0
 41
0
  0
VERTEX
  8
0
 10
0.79796
 20
6.2736
 30
0.0
 40
0
 41
0
  0
VERTEX
  8
0
 10
0.825575
 20
6.29471
 30
0.0
 40
0
 41
0
  0
VERTEX
  8
0
 10
0.834961
 20
6.30192
 30
0.0
 40
0
 41
0
  0
VERTEX
  8
0
 10
0.848579
 20
6.31228
 30
0.0
 40
0
 41
0
  0
VERTEX
  8
0
 10
0.916775
 20
6.36436
 30
0.0
 40
0
 41
0
  0
VERTEX
  8
0
 10
0.916992
 20
6.36453
 30
0.0
 40
0
 41
0
  0
VERTEX
  8
0
 10
0.918946
 20
6.36604
 30
0.0
 40
0
 41
0
  0
VERTEX
  8
0
 10
0.924642
 20
6.37039
 30
0.0
 40
0
 41
0
  0
VERTEX
  8
0
 10
0.924642
 20
6.61203
 30
0.0
 40
0
 41
0
  0
VERTEX
  8
0
 10
0.946343
 20
6.62457
 30
0.0
 40
0
 41
0
  0
VERTEX
  8
0
 10
0.975097
 20
6.64117
 30
0.0
 40
0
 41
0
  0
VERTEX
  8
0
 10
1.10178
 20
6.64117
 30
0.0
 40
0
 41
0
  0
VERTEX
  8
0
 10
1.12364
 20
6.63049
 30
0.0
 40
0
 41
0
  0
VERTEX
  8
0
 10
1.16303
 20
6.61122
 30
0.0
 40
0
 41
0
  0
VERTEX
  8
0
 10
1.16368
 20
6.61094
 30
0.0
 40
0
 41
0
  0
VERTEX
  8
0
 10
1.16667
 20
6.60949
 30
0.0
 40
0
 41
0
  0
VERTEX
  8
0
 10
1.16726
 20
6.60915
 30
0.0
 40
0
 41
0
  0
VERTEX
  8
0
 10
1.18777
 20
6.59918
 30
0.0
 40
0
 41
0
  0
VERTEX
  8
0
 10
1.21403
 20
6.58632
 30
0.0
 40
0
 41
0
  0
VERTEX
  8
0
 10
1.21468
 20
6.58599
 30
0.0
 40
0
 41
0
  0
VERTEX
  8
0
 10
1.21767
 20
6.58453
 30
0.0
 40
0
 41
0
  0
VERTEX
  8
0
 10
1.21832
 20
6.58421
 30
0.0
 40
0
 41
0
  0
VERTEX
  8
0
 10
1.22119
 20
6.58279
 30
0.0
 40
0
 41
0
  0
VERTEX
  8
0
 10
1.24892
 20
6.56928
 30
0.0
 40
0
 41
0
  0
SEQEND
 8
0
  0
POLYLINE
  8
0
 62
     254
 66
     1
 10
0
 20
0
 30
0.0
 70
     1
 40
0
 41
0
  0
VERTEX
  8
0
 10
0.747558
 20
2.00987
 30
0.0
 40
0
 41
0
  0
VERTEX
  8
0
 10
0.747558
 20
2.01042
 30
0.0
 40
0
 41
0
  0
VERTEX
  8
0
 10
0.747071
 20
2.01069
 30
0.0
 40
0
 41
0
  0
VERTEX
  8
0
 10
0.667643
 20
1.96485
 30
0.0
 40
0
 41
0
  0
VERTEX
  8
0
 10
0.652453
 20
1.95606
 30
0.0
 40
0
 41
0
  0
VERTEX
  8
0
 10
0.632975
 20
1.94482
 30
0.0
 40
0
 41
0
  0
VERTEX
  8
0
 10
0.632975
 20
1.81315
 30
0.0
 40
0
 41
0
  0
VERTEX
  8
0
 10
0.653157
 20
1.80154
 30
0.0
 40
0
 41
0
  0
VERTEX
  8
0
 10
0.747071
 20
1.74729
 30
0.0
 40
0
 41
0
  0
VERTEX
  8
0
 10
0.747558
 20
1.74756
 30
0.0
 40
0
 41
0
  0
VERTEX
  8
0
 10
0.747558
 20
1.74815
 30
0.0
 40
0
 41
0
  0
VERTEX
  8
0
 10
0.748047
 20
1.74783
 30
0.0
 40
0
 41
0
  0
VERTEX
  8
0
 10
0.748481
 20
1.74815
 30
0.0
 40
0
 41
0
  0
VERTEX
  8
0
 10
0.748481
 20
1.74756
 30
0.0
 40
0
 41
0
  0
VERTEX
  8
0
 10
0.749024
 20
1.74729
 30
0.0
 40
0
 41
0
  0
VERTEX
  8
0
 10
0.842936
 20
1.80154
 30
0.0
 40
0
 41
0
  0
VERTEX
  8
0
 10
0.861111
 20
1.81201
 30
0.0
 40
0
 41
0
  0
VERTEX
  8
0
 10
0.863064
 20
1.81315
 30
0.0
 40
0
 41
0
  0
VERTEX
  8
0
 10
0.863064
 20
1.94482
 30
0.0
 40
0
 41
0
  0
VERTEX
  8
0
 10
0.843642
 20
1.95606
 30
0.0
 40
0
 41
0
  0
VERTEX
  8
0
 10
0.82845
 20
1.96485
 30
0.0
 40
0
 41
0
  0
VERTEX
  8
0
 10
0.749024
 20
2.01069
 30
0.0
 40
0
 41
0
  0
VERTEX
  8
0
 10
0.748481
 20
2.01042
 30
0.0
 40
0
 41
0
  0
VERTEX
  8
0
 10
0.748481
 20
2.00987
 30
0.0
 40
0
 41
0
  0
VERTEX
  8
0
 10
0.748047
 20
2.01014
 30
0.0
 40
0
 41
0
  0
VERTEX
  8
0
 10
0.747558
 20
2.00987
 30
0.0
 40
0
 41
0
  0
SEQEND
 8
0
  0
POLYLINE
  8
0
 62
     254
 66
     1
 10
0
 20
0
 30
0.0
 70
     1
 40
0
 41
0
  0
VERTEX
  8
0
 10
0.747558
 20
2.21035
 30
0.0
 40
0
 41
0
  0
VERTEX
  8
0
 10
0.748047
 20
2.21007
 30
0.0
 40
0
 41
0
  0
VERTEX
  8
0
 10
0.748481
 20
2.21035
 30
0.0
 40
0
 41
0
  0
VERTEX
  8
0
 10
0.748481
 20
2.20979
 30
0.0
 40
0
 41
0
  0
VERTEX
  8
0
 10
0.749024
 20
2.20947
 30
0.0
 40
0
 41
0
  0
VERTEX
  8
0
 10
0.798882
 20
2.23828
 30
0.0
 40
0
 41
0
  0
VERTEX
  8
0
 10
0.833876
 20
2.25851
 30
0.0
 40
0
 41
0
  0
VERTEX
  8
0
 10
0.863064
 20
2.27533
 30
0.0
 40
0
 41
0
  0
VERTEX
  8
0
 10
0.863064
 20
2.40707
 30
0.0
 40
0
 41
0
  0
VERTEX
  8
0
 10
0.861111
 20
2.40821
 30
0.0
 40
0
 41
0
  0
VERTEX
  8
0
 10
0.860026
 20
2.40881
 30
0.0
 40
0
 41
0
  0
VERTEX
  8
0
 10
0.763021
 20
2.46479
 30
0.0
 40
0
 41
0
  0
VERTEX
  8
0
 10
0.749024
 20
2.47287
 30
0.0
 40
0
 41
0
  0
VERTEX
  8
0
 10
0.748481
 20
2.4726
 30
0.0
 40
0
 41
0
  0
VERTEX
  8
0
 10
0.748481
 20
2.47206
 30
0.0
 40
0
 41
0
  0
VERTEX
  8
0
 10
0.748047
 20
2.47233
 30
0.0
 40
0
 41
0
  0
VERTEX
  8
0
 10
0.747558
 20
2.47206
 30
0.0
 40
0
 41
0
  0
VERTEX
  8
0
 10
0.747558
 20
2.4726
 30
0.0
 40
0
 41
0
  0
VERTEX
  8
0
 10
0.747071
 20
2.47287
 30
0.0
 40
0
 41
0
  0
VERTEX
  8
0
 10
0.733074
 20
2.46479
 30
0.0
 40
0
 41
0
  0
VERTEX
  8
0
 10
0.703614
 20
2.44781
 30
0.0
 40
0
 41
0
  0
VERTEX
  8
0
 10
0.636068
 20
2.40881
 30
0.0
 40
0
 41
0
  0
VERTEX
  8
0
 10
0.632975
 20
2.40707
 30
0.0
 40
0
 41
0
  0
VERTEX
  8
0
 10
0.632975
 20
2.27533
 30
0.0
 40
0
 41
0
  0
VERTEX
  8
0
 10
0.662218
 20
2.25846
 30
0.0
 40
0
 41
0
  0
VERTEX
  8
0
 10
0.697157
 20
2.23828
 30
0.0
 40
0
 41
0
  0
VERTEX
  8
0
 10
0.747071
 20
2.20947
 30
0.0
 40
0
 41
0
  0
VERTEX
  8
0
 10
0.747558
 20
2.20979
 30
0.0
 40
0
 41
0
  0
VERTEX
  8
0
 10
0.747558
 20
2.21035
 30
0.0
 40
0
 41
0
  0
SEQEND
 8
0
  0
POLYLINE
  8
0
 62
     254
 66
     1
 10
0
 20
0
 30
0.0
 70
     1
 40
0
 41
0
  0
VERTEX
  8
0
 10
0.644965
 20
3.18658
 30
0.0
 40
0
 41
0
  0
VERTEX
  8
0
 10
0.648004
 20
3.19049
 30
0.0
 40
0
 41
0
  0
VERTEX
  8
0
 10
0.65115
 20
3.19456
 30
0.0
 40
0
 41
0
  0
VERTEX
  8
0
 10
0.654676
 20
3.19911
 30
0.0
 40
0
 41
0
  0
VERTEX
  8
0
 10
0.657389
 20
3.20258
 30
0.0
 40
0
 41
0
  0
VERTEX
  8
0
 10
0.67231
 20
3.21631
 30
0.0
 40
0
 41
0
  0
VERTEX
  8
0
 10
0.68929
 20
3.22743
 30
0.0
 40
0
 41
0
  0
VERTEX
  8
0
 10
0.707844
 20
3.23557
 30
0.0
 40
0
 41
0
  0
VERTEX
  8
0
 10
0.71875
 20
3.23833
 30
0.0
 40
0
 41
0
  0
VERTEX
  8
0
 10
0.71875
 20
3.30203
 30
0.0
 40
0
 41
0
  0
VERTEX
  8
0
 10
0.717231
 20
3.30192
 30
0.0
 40
0
 41
0
  0
VERTEX
  8
0
 10
0.687663
 20
3.29443
 30
0.0
 40
0
 41
0
  0
VERTEX
  8
0
 10
0.659668
 20
3.28213
 30
0.0
 40
0
 41
0
  0
VERTEX
  8
0
 10
0.63596
 20
3.26665
 30
0.0
 40
0
 41
0
  0
VERTEX
  8
0
 10
0.634115
 20
3.26546
 30
0.0
 40
0
 41
0
  0
VERTEX
  8
0
 10
0.6116
 20
3.24474
 30
0.0
 40
0
 41
0
  0
VERTEX
  8
0
 10
0.592882
 20
3.22065
 30
0.0
 40
0
 41
0
  0
VERTEX
  8
0
 10
0.578722
 20
3.19456
 30
0.0
 40
0
 41
0
  0
VERTEX
  8
0
 10
0.578287
 20
3.19379
 30
0.0
 40
0
 41
0
  0
VERTEX
  8
0
 10
0.568414
 20
3.16488
 30
0.0
 40
0
 41
0
  0
VERTEX
  8
0
 10
0.563585
 20
3.13601
 30
0.0
 40
0
 41
0
  0
VERTEX
  8
0
 10
0.563368
 20
3.13476
 30
0.0
 40
0
 41
0
  0
VERTEX
  8
0
 10
0.563368
 20
3.10422
 30
0.0
 40
0
 41
0
  0
VERTEX
  8
0
 10
0.566515
 20
3.08556
 30
0.0
 40
0
 41
0
  0
VERTEX
  8
0
 10
0.568414
 20
3.07411
 30
0.0
 40
0
 41
0
  0
VERTEX
  8
0
 10
0.574436
 20
3.05647
 30
0.0
 40
0
 41
0
  0
VERTEX
  8
0
 10
0.578287
 20
3.04519
 30
0.0
 40
0
 41
0
  0
VERTEX
  8
0
 10
0.584744
 20
3.03326
 30
0.0
 40
0
 41
0
  0
VERTEX
  8
0
 10
0.592882
 20
3.01833
 30
0.0
 40
0
 41
0
  0
VERTEX
  8
0
 10
0.595161
 20
3.01535
 30
0.0
 40
0
 41
0
  0
VERTEX
  8
0
 10
0.6116
 20
2.99419
 30
0.0
 40
0
 41
0
  0
VERTEX
  8
0
 10
0.634115
 20
2.97353
 30
0.0
 40
0
 41
0
  0
VERTEX
  8
0
 10
0.654676
 20
2.96007
 30
0.0
 40
0
 41
0
  0
VERTEX
  8
0
 10
0.659668
 20
2.95682
 30
0.0
 40
0
 41
0
  0
VERTEX
  8
0
 10
0.686957
 20
2.94488
 30
0.0
 40
0
 41
0
  0
VERTEX
  8
0
 10
0.687663
 20
2.94456
 30
0.0
 40
0
 41
0
  0
VERTEX
  8
0
 10
0.690429
 20
2.94385
 30
0.0
 40
0
 41
0
  0
VERTEX
  8
0
 10
0.716362
 20
2.93728
 30
0.0
 40
0
 41
0
  0
VERTEX
  8
0
 10
0.717231
 20
2.93707
 30
0.0
 40
0
 41
0
  0
VERTEX
  8
0
 10
0.71875
 20
2.9369
 30
0.0
 40
0
 41
0
  0
VERTEX
  8
0
 10
0.71875
 20
3.00065
 30
0.0
 40
0
 41
0
  0
VERTEX
  8
0
 10
0.716362
 20
3.00125
 30
0.0
 40
0
 41
0
  0
VERTEX
  8
0
 10
0.711806
 20
3.00244
 30
0.0
 40
0
 41
0
  0
VERTEX
  8
0
 10
0.707844
 20
3.00342
 30
0.0
 40
0
 41
0
  0
VERTEX
  8
0
 10
0.68929
 20
3.01156
 30
0.0
 40
0
 41
0
  0
VERTEX
  8
0
 10
0.683485
 20
3.01535
 30
0.0
 40
0
 41
0
  0
VERTEX
  8
0
 10
0.674858
 20
3.021
 30
0.0
 40
0
 41
0
  0
VERTEX
  8
0
 10
0.67231
 20
3.02262
 30
0.0
 40
0
 41
0
  0
VERTEX
  8
0
 10
0.660753
 20
3.03326
 30
0.0
 40
0
 41
0
  0
VERTEX
  8
0
 10
0.657389
 20
3.0364
 30
0.0
 40
0
 41
0
  0
VERTEX
  8
0
 10
0.654676
 20
3.03988
 30
0.0
 40
0
 41
0
  0
VERTEX
  8
0
 10
0.644965
 20
3.05236
 30
0.0
 40
0
 41
0
  0
VERTEX
  8
0
 10
0.635308
 20
3.07021
 30
0.0
 40
0
 41
0
  0
VERTEX
  8
0
 10
0.628743
 20
3.08936
 30
0.0
 40
0
 41
0
  0
VERTEX
  8
0
 10
0.625379
 20
3.10932
 30
0.0
 40
0
 41
0
  0
VERTEX
  8
0
 10
0.625379
 20
3.12961
 30
0.0
 40
0
 41
0
  0
VERTEX
  8
0
 10
0.626465
 20
3.13601
 30
0.0
 40
0
 41
0
  0
VERTEX
  8
0
 10
0.628743
 20
3.14962
 30
0.0
 40
0
 41
0
  0
VERTEX
  8
0
 10
0.635308
 20
3.16878
 30
0.0
 40
0
 41
0
  0
VERTEX
  8
0
 10
0.644965
 20
3.18658
 30
0.0
 40
0
 41
0
  0
SEQEND
 8
0
  0
POLYLINE
  8
0
 62
     254
 66
     1
 10
0
 20
0
 30
0.0
 70
     1
 40
0
 41
0
  0
VERTEX
  8
0
 10
0.645182
 20
2.62819
 30
0.0
 40
0
 41
0
  0
VERTEX
  8
0
 10
0.716362
 20
2.62819
 30
0.0
 40
0
 41
0
  0
VERTEX
  8
0
 10
0.716362
 20
2.69108
 30
0.0
 40
0
 41
0
  0
VERTEX
  8
0
 10
0.667643
 20
2.69108
 30
0.0
 40
0
 41
0
  0
VERTEX
  8
0
 10
0.708442
 20
2.80935
 30
0.0
 40
0
 41
0
  0
VERTEX
  8
0
 10
0.716362
 20
2.83231
 30
0.0
 40
0
 41
0
  0
VERTEX
  8
0
 10
0.716362
 20
2.87289
 30
0.0
 40
0
 41
0
  0
VERTEX
  8
0
 10
0.664442
 20
2.87289
 30
0.0
 40
0
 41
0
  0
VERTEX
  8
0
 10
0.664117
 20
2.87201
 30
0.0
 40
0
 41
0
  0
VERTEX
  8
0
 10
0.654676
 20
2.84614
 30
0.0
 40
0
 41
0
  0
VERTEX
  8
0
 10
0.605197
 20
2.71078
 30
0.0
 40
0
 41
0
  0
VERTEX
  8
0
 10
0.558106
 20
2.58192
 30
0.0
 40
0
 41
0
  0
VERTEX
  8
0
 10
0.550022
 20
2.55985
 30
0.0
 40
0
 41
0
  0
VERTEX
  8
0
 10
0.546278
 20
2.54949
 30
0.0
 40
0
 41
0
  0
VERTEX
  8
0
 10
0.519586
 20
2.47657
 30
0.0
 40
0
 41
0
  0
VERTEX
  8
0
 10
0.51199
 20
2.45568
 30
0.0
 40
0
 41
0
  0
VERTEX
  8
0
 10
0.583333
 20
2.45568
 30
0.0
 40
0
 41
0
  0
VERTEX
  8
0
 10
0.616482
 20
2.54824
 30
0.0
 40
0
 41
0
  0
VERTEX
  8
0
 10
0.616971
 20
2.54949
 30
0.0
 40
0
 41
0
  0
VERTEX
  8
0
 10
0.645182
 20
2.62819
 30
0.0
 40
0
 41
0
  0
SEQEND
 8
0
  0
POLYLINE
  8
0
 62
     254
 66
     1
 10
0
 20
0
 30
0.0
 70
     1
 40
0
 41
0
  0
VERTEX
  8
0
 10
0.747558
 20
4.37674
 30
0.0
 40
0
 41
0
  0
VERTEX
  8
0
 10
0.748047
 20
4.37646
 30
0.0
 40
0
 41
0
  0
VERTEX
  8
0
 10
0.748481
 20
4.37674
 30
0.0
 40
0
 41
0
  0
VERTEX
  8
0
 10
0.748481
 20
4.37614
 30
0.0
 40
0
 41
0
  0
VERTEX
  8
0
 10
0.749024
 20
4.37587
 30
0.0
 40
0
 41
0
  0
VERTEX
  8
0
 10
0.754992
 20
4.37935
 30
0.0
 40
0
 41
0
  0
VERTEX
  8
0
 10
0.833876
 20
4.42492
 30
0.0
 40
0
 41
0
  0
VERTEX
  8
0
 10
0.861111
 20
4.4406
 30
0.0
 40
0
 41
0
  0
VERTEX
  8
0
 10
0.863064
 20
4.44174
 30
0.0
 40
0
 41
0
  0
VERTEX
  8
0
 10
0.863064
 20
4.5734
 30
0.0
 40
0
 41
0
  0
VERTEX
  8
0
 10
0.861111
 20
4.57454
 30
0.0
 40
0
 41
0
  0
VERTEX
  8
0
 10
0.853407
 20
4.579
 30
0.0
 40
0
 41
0
  0
VERTEX
  8
0
 10
0.833876
 20
4.59028
 30
0.0
 40
0
 41
0
  0
VERTEX
  8
0
 10
0.77946
 20
4.62169
 30
0.0
 40
0
 41
0
  0
VERTEX
  8
0
 10
0.749024
 20
4.63926
 30
0.0
 40
0
 41
0
  0
VERTEX
  8
0
 10
0.748481
 20
4.63894
 30
0.0
 40
0
 41
0
  0
VERTEX
  8
0
 10
0.748481
 20
4.6384
 30
0.0
 40
0
 41
0
  0
VERTEX
  8
0
 10
0.748047
 20
4.63867
 30
0.0
 40
0
 41
0
  0
VERTEX
  8
0
 10
0.747558
 20
4.6384
 30
0.0
 40
0
 41
0
  0
VERTEX
  8
0
 10
0.747558
 20
4.63894
 30
0.0
 40
0
 41
0
  0
VERTEX
  8
0
 10
0.747071
 20
4.63926
 30
0.0
 40
0
 41
0
  0
VERTEX
  8
0
 10
0.716581
 20
4.62169
 30
0.0
 40
0
 41
0
  0
VERTEX
  8
0
 10
0.662218
 20
4.59028
 30
0.0
 40
0
 41
0
  0
VERTEX
  8
0
 10
0.632975
 20
4.5734
 30
0.0
 40
0
 41
0
  0
VERTEX
  8
0
 10
0.632975
 20
4.44174
 30
0.0
 40
0
 41
0
  0
VERTEX
  8
0
 10
0.662218
 20
4.42486
 30
0.0
 40
0
 41
0
  0
VERTEX
  8
0
 10
0.741049
 20
4.37935
 30
0.0
 40
0
 41
0
  0
VERTEX
  8
0
 10
0.747071
 20
4.37587
 30
0.0
 40
0
 41
0
  0
VERTEX
  8
0
 10
0.747558
 20
4.37614
 30
0.0
 40
0
 41
0
  0
VERTEX
  8
0
 10
0.747558
 20
4.37674
 30
0.0
 40
0
 41
0
  0
SEQEND
 8
0
  0
POLYLINE
  8
0
 62
     254
 66
     1
 10
0
 20
0
 30
0.0
 70
     1
 40
0
 41
0
  0
VERTEX
  8
0
 10
0.747558
 20
3.9145
 30
0.0
 40
0
 41
0
  0
VERTEX
  8
0
 10
0.748047
 20
3.91422
 30
0.0
 40
0
 41
0
  0
VERTEX
  8
0
 10
0.748481
 20
3.9145
 30
0.0
 40
0
 41
0
  0
VERTEX
  8
0
 10
0.748481
 20
3.91396
 30
0.0
 40
0
 41
0
  0
VERTEX
  8
0
 10
0.749024
 20
3.91368
 30
0.0
 40
0
 41
0
  0
VERTEX
  8
0
 10
0.822103
 20
3.95589
 30
0.0
 40
0
 41
0
  0
VERTEX
  8
0
 10
0.861111
 20
3.9784
 30
0.0
 40
0
 41
0
  0
VERTEX
  8
0
 10
0.863064
 20
3.97954
 30
0.0
 40
0
 41
0
  0
VERTEX
  8
0
 10
0.863064
 20
4.11122
 30
0.0
 40
0
 41
0
  0
VERTEX
  8
0
 10
0.861111
 20
4.11236
 30
0.0
 40
0
 41
0
  0
VERTEX
  8
0
 10
0.790853
 20
4.15294
 30
0.0
 40
0
 41
0
  0
VERTEX
  8
0
 10
0.749024
 20
4.17708
 30
0.0
 40
0
 41
0
  0
VERTEX
  8
0
 10
0.748481
 20
4.17681
 30
0.0
 40
0
 41
0
  0
VERTEX
  8
0
 10
0.748481
 20
4.17626
 30
0.0
 40
0
 41
0
  0
VERTEX
  8
0
 10
0.748047
 20
4.17654
 30
0.0
 40
0
 41
0
  0
VERTEX
  8
0
 10
0.747558
 20
4.17626
 30
0.0
 40
0
 41
0
  0
VERTEX
  8
0
 10
0.747558
 20
4.17681
 30
0.0
 40
0
 41
0
  0
VERTEX
  8
0
 10
0.747071
 20
4.17708
 30
0.0
 40
0
 41
0
  0
VERTEX
  8
0
 10
0.705186
 20
4.15294
 30
0.0
 40
0
 41
0
  0
VERTEX
  8
0
 10
0.632975
 20
4.11122
 30
0.0
 40
0
 41
0
  0
VERTEX
  8
0
 10
0.632975
 20
3.97954
 30
0.0
 40
0
 41
0
  0
VERTEX
  8
0
 10
0.67399
 20
3.95589
 30
0.0
 40
0
 41
0
  0
VERTEX
  8
0
 10
0.747071
 20
3.91368
 30
0.0
 40
0
 41
0
  0
VERTEX
  8
0
 10
0.747558
 20
3.91396
 30
0.0
 40
0
 41
0
  0
VERTEX
  8
0
 10
0.747558
 20
3.9145
 30
0.0
 40
0
 41
0
  0
SEQEND
 8
0
  0
POLYLINE
  8
0
 62
     254
 66
     1
 10
0
 20
0
 30
0.0
 70
     1
 40
0
 41
0
  0
VERTEX
  8
0
 10
0.830024
 20
2.69108
 30
0.0
 40
0
 41
0
  0
VERTEX
  8
0
 10
0.782226
 20
2.69108
 30
0.0
 40
0
 41
0
  0
VERTEX
  8
0
 10
0.782226
 20
2.62819
 30
0.0
 40
0
 41
0
  0
VERTEX
  8
0
 10
0.852539
 20
2.62819
 30
0.0
 40
0
 41
0
  0
VERTEX
  8
0
 10
0.861111
 20
2.604
 30
0.0
 40
0
 41
0
  0
VERTEX
  8
0
 10
0.880479
 20
2.54949
 30
0.0
 40
0
 41
0
  0
VERTEX
  8
0
 10
0.913792
 20
2.45568
 30
0.0
 40
0
 41
0
  0
VERTEX
  8
0
 10
0.986274
 20
2.45568
 30
0.0
 40
0
 41
0
  0
VERTEX
  8
0
 10
0.977106
 20
2.48062
 30
0.0
 40
0
 41
0
  0
VERTEX
  8
0
 10
0.951878
 20
2.54949
 30
0.0
 40
0
 41
0
  0
VERTEX
  8
0
 10
0.950358
 20
2.55365
 30
0.0
 40
0
 41
0
  0
VERTEX
  8
0
 10
0.923014
 20
2.62819
 30
0.0
 40
0
 41
0
  0
VERTEX
  8
0
 10
0.861111
 20
2.79719
 30
0.0
 40
0
 41
0
  0
VERTEX
  8
0
 10
0.833658
 20
2.87201
 30
0.0
 40
0
 41
0
  0
VERTEX
  8
0
 10
0.833333
 20
2.87289
 30
0.0
 40
0
 41
0
  0
VERTEX
  8
0
 10
0.782226
 20
2.87289
 30
0.0
 40
0
 41
0
  0
VERTEX
  8
0
 10
0.782226
 20
2.82835
 30
0.0
 40
0
 41
0
  0
VERTEX
  8
0
 10
0.788032
 20
2.81174
 30
0.0
 40
0
 41
0
  0
VERTEX
  8
0
 10
0.806749
 20
2.75803
 30
0.0
 40
0
 41
0
  0
VERTEX
  8
0
 10
0.830024
 20
2.69108
 30
0.0
 40
0
 41
0
  0
SEQEND
 8
0
  0
POLYLINE
  8
0
 62
     254
 66
     1
 10
0
 20
0
 30
0.0
 70
     1
 40
0
 41
0
  0
VERTEX
  8
0
 10
0.823079
 20
3.02262
 30
0.0
 40
0
 41
0
  0
VERTEX
  8
0
 10
0.821289
 20
3.02149
 30
0.0
 40
0
 41
0
  0
VERTEX
  8
0
 10
0.815972
 20
3.01801
 30
0.0
 40
0
 41
0
  0
VERTEX
  8
0
 10
0.811903
 20
3.01535
 30
0.0
 40
0
 41
0
  0
VERTEX
  8
0
 10
0.806099
 20
3.01156
 30
0.0
 40
0
 41
0
  0
VERTEX
  8
0
 10
0.787543
 20
3.00342
 30
0.0
 40
0
 41
0
  0
VERTEX
  8
0
 10
0.780328
 20
3.00157
 30
0.0
 40
0
 41
0
  0
VERTEX
  8
0
 10
0.780328
 20
2.93761
 30
0.0
 40
0
 41
0
  0
VERTEX
  8
0
 10
0.807781
 20
2.94456
 30
0.0
 40
0
 41
0
  0
VERTEX
  8
0
 10
0.80919
 20
2.94521
 30
0.0
 40
0
 41
0
  0
VERTEX
  8
0
 10
0.815972
 20
2.94814
 30
0.0
 40
0
 41
0
  0
VERTEX
  8
0
 10
0.835721
 20
2.95682
 30
0.0
 40
0
 41
0
  0
VERTEX
  8
0
 10
0.861111
 20
2.97342
 30
0.0
 40
0
 41
0
  0
VERTEX
  8
0
 10
0.861274
 20
2.97353
 30
0.0
 40
0
 41
0
  0
VERTEX
  8
0
 10
0.883789
 20
2.99419
 30
0.0
 40
0
 41
0
  0
VERTEX
  8
0
 10
0.900228
 20
3.01535
 30
0.0
 40
0
 41
0
  0
VERTEX
  8
0
 10
0.902507
 20
3.01833
 30
0.0
 40
0
 41
0
  0
VERTEX
  8
0
 10
0.910644
 20
3.03326
 30
0.0
 40
0
 41
0
  0
VERTEX
  8
0
 10
0.917101
 20
3.04519
 30
0.0
 40
0
 41
0
  0
VERTEX
  8
0
 10
0.926975
 20
3.07411
 30
0.0
 40
0
 41
0
  0
VERTEX
  8
0
 10
0.932021
 20
3.10422
 30
0.0
 40
0
 41
0
  0
VERTEX
  8
0
 10
0.932021
 20
3.13476
 30
0.0
 40
0
 41
0
  0
VERTEX
  8
0
 10
0.931803
 20
3.13601
 30
0.0
 40
0
 41
0
  0
VERTEX
  8
0
 10
0.926975
 20
3.16488
 30
0.0
 40
0
 41
0
  0
VERTEX
  8
0
 10
0.917101
 20
3.19379
 30
0.0
 40
0
 41
0
  0
VERTEX
  8
0
 10
0.916667
 20
3.19456
 30
0.0
 40
0
 41
0
  0
VERTEX
  8
0
 10
0.902507
 20
3.22065
 30
0.0
 40
0
 41
0
  0
VERTEX
  8
0
 10
0.883789
 20
3.24474
 30
0.0
 40
0
 41
0
  0
VERTEX
  8
0
 10
0.861274
 20
3.26546
 30
0.0
 40
0
 41
0
  0
VERTEX
  8
0
 10
0.861111
 20
3.26557
 30
0.0
 40
0
 41
0
  0
VERTEX
  8
0
 10
0.860081
 20
3.26628
 30
0.0
 40
0
 41
0
  0
VERTEX
  8
0
 10
0.835721
 20
3.28213
 30
0.0
 40
0
 41
0
  0
VERTEX
  8
0
 10
0.815972
 20
3.29081
 30
0.0
 40
0
 41
0
  0
VERTEX
  8
0
 10
0.807781
 20
3.29443
 30
0.0
 40
0
 41
0
  0
VERTEX
  8
0
 10
0.780328
 20
3.30132
 30
0.0
 40
0
 41
0
  0
VERTEX
  8
0
 10
0.780328
 20
3.23736
 30
0.0
 40
0
 41
0
  0
VERTEX
  8
0
 10
0.787543
 20
3.23557
 30
0.0
 40
0
 41
0
  0
VERTEX
  8
0
 10
0.806099
 20
3.22743
 30
0.0
 40
0
 41
0
  0
VERTEX
  8
0
 10
0.815972
 20
3.22097
 30
0.0
 40
0
 41
0
  0
VERTEX
  8
0
 10
0.823079
 20
3.21631
 30
0.0
 40
0
 41
0
  0
VERTEX
  8
0
 10
0.837999
 20
3.20258
 30
0.0
 40
0
 41
0
  0
VERTEX
  8
0
 10
0.844239
 20
3.19456
 30
0.0
 40
0
 41
0
  0
VERTEX
  8
0
 10
0.847928
 20
3.18978
 30
0.0
 40
0
 41
0
  0
VERTEX
  8
0
 10
0.850424
 20
3.18658
 30
0.0
 40
0
 41
0
  0
VERTEX
  8
0
 10
0.860081
 20
3.16878
 30
0.0
 40
0
 41
0
  0
VERTEX
  8
0
 10
0.861111
 20
3.16581
 30
0.0
 40
0
 41
0
  0
VERTEX
  8
0
 10
0.866644
 20
3.14962
 30
0.0
 40
0
 41
0
  0
VERTEX
  8
0
 10
0.868924
 20
3.13601
 30
0.0
 40
0
 41
0
  0
VERTEX
  8
0
 10
0.870008
 20
3.12961
 30
0.0
 40
0
 41
0
  0
VERTEX
  8
0
 10
0.870008
 20
3.10932
 30
0.0
 40
0
 41
0
  0
VERTEX
  8
0
 10
0.866644
 20
3.08936
 30
0.0
 40
0
 41
0
  0
VERTEX
  8
0
 10
0.861111
 20
3.07319
 30
0.0
 40
0
 41
0
  0
VERTEX
  8
0
 10
0.860081
 20
3.07021
 30
0.0
 40
0
 41
0
  0
VERTEX
  8
0
 10
0.850424
 20
3.05236
 30
0.0
 40
0
 41
0
  0
VERTEX
  8
0
 10
0.837999
 20
3.0364
 30
0.0
 40
0
 41
0
  0
VERTEX
  8
0
 10
0.834636
 20
3.03326
 30
0.0
 40
0
 41
0
  0
VERTEX
  8
0
 10
0.823079
 20
3.02262
 30
0.0
 40
0
 41
0
  0
SEQEND
 8
0
  0
POLYLINE
  8
0
 62
     254
 66
     1
 10
0
 20
0
 30
0.0
 70
     1
 40
0
 41
0
  0
VERTEX
  8
0
 10
0.650499
 20
3.47293
 30
0.0
 40
0
 41
0
  0
VERTEX
  8
0
 10
0.632975
 20
3.49685
 30
0.0
 40
0
 41
0
  0
VERTEX
  8
0
 10
0.63189
 20
3.49837
 30
0.0
 40
0
 41
0
  0
VERTEX
  8
0
 10
0.625325
 20
3.51704
 30
0.0
 40
0
 41
0
  0
VERTEX
  8
0
 10
0.620714
 20
3.53006
 30
0.0
 40
0
 41
0
  0
VERTEX
  8
0
 10
0.617025
 20
3.56799
 30
0.0
 40
0
 41
0
  0
VERTEX
  8
0
 10
0.617025
 20
3.63857
 30
0.0
 40
0
 41
0
  0
VERTEX
  8
0
 10
0.544271
 20
3.63857
 30
0.0
 40
0
 41
0
  0
VERTEX
  8
0
 10
0.544271
 20
3.57113
 30
0.0
 40
0
 41
0
  0
VERTEX
  8
0
 10
0.545736
 20
3.5434
 30
0.0
 40
0
 41
0
  0
VERTEX
  8
0
 10
0.550022
 20
3.51828
 30
0.0
 40
0
 41
0
  0
VERTEX
  8
0
 10
0.550185
 20
3.51758
 30
0.0
 40
0
 41
0
  0
VERTEX
  8
0
 10
0.550293
 20
3.51704
 30
0.0
 40
0
 41
0
  0
VERTEX
  8
0
 10
0.557508
 20
3.4936
 30
0.0
 40
0
 41
0
  0
VERTEX
  8
0
 10
0.567817
 20
3.47131
 30
0.0
 40
0
 41
0
  0
VERTEX
  8
0
 10
0.580892
 20
3.45128
 30
0.0
 40
0
 41
0
  0
VERTEX
  8
0
 10
0.596789
 20
3.43365
 30
0.0
 40
0
 41
0
  0
VERTEX
  8
0
 10
0.611382
 20
3.42165
 30
0.0
 40
0
 41
0
  0
VERTEX
  8
0
 10
0.615451
 20
3.41835
 30
0.0
 40
0
 41
0
  0
VERTEX
  8
0
 10
0.632975
 20
3.40788
 30
0.0
 40
0
 41
0
  0
VERTEX
  8
0
 10
0.636828
 20
3.4056
 30
0.0
 40
0
 41
0
  0
VERTEX
  8
0
 10
0.654676
 20
3.398
 30
0.0
 40
0
 41
0
  0
VERTEX
  8
0
 10
0.660861
 20
3.3954
 30
0.0
 40
0
 41
0
  0
VERTEX
  8
0
 10
0.68164
 20
3.38965
 30
0.0
 40
0
 41
0
  0
VERTEX
  8
0
 10
0.687935
 20
3.38792
 30
0.0
 40
0
 41
0
  0
VERTEX
  8
0
 10
0.716037
 20
3.38368
 30
0.0
 40
0
 41
0
  0
VERTEX
  8
0
 10
0.716037
 20
3.4426
 30
0.0
 40
0
 41
0
  0
VERTEX
  8
0
 10
0.711262
 20
3.44303
 30
0.0
 40
0
 41
0
  0
VERTEX
  8
0
 10
0.677029
 20
3.45426
 30
0.0
 40
0
 41
0
  0
VERTEX
  8
0
 10
0.654676
 20
3.46994
 30
0.0
 40
0
 41
0
  0
VERTEX
  8
0
 10
0.650499
 20
3.47293
 30
0.0
 40
0
 41
0
  0
SEQEND
 8
0
  0
POLYLINE
  8
0
 62
     254
 66
     1
 10
0
 20
0
 30
0.0
 70
     1
 40
0
 41
0
  0
VERTEX
  8
0
 10
0.864367
 20
3.48757
 30
0.0
 40
0
 41
0
  0
VERTEX
  8
0
 10
0.861111
 20
3.48346
 30
0.0
 40
0
 41
0
  0
VERTEX
  8
0
 10
0.854818
 20
3.47547
 30
0.0
 40
0
 41
0
  0
VERTEX
  8
0
 10
0.843044
 20
3.46468
 30
0.0
 40
0
 41
0
  0
VERTEX
  8
0
 10
0.829156
 20
3.45574
 30
0.0
 40
0
 41
0
  0
VERTEX
  8
0
 10
0.815972
 20
3.44982
 30
0.0
 40
0
 41
0
  0
VERTEX
  8
0
 10
0.81326
 20
3.44862
 30
0.0
 40
0
 41
0
  0
VERTEX
  8
0
 10
0.795574
 20
3.44342
 30
0.0
 40
0
 41
0
  0
VERTEX
  8
0
 10
0.780817
 20
3.44119
 30
0.0
 40
0
 41
0
  0
VERTEX
  8
0
 10
0.780817
 20
3.38336
 30
0.0
 40
0
 41
0
  0
VERTEX
  8
0
 10
0.783638
 20
3.38351
 30
0.0
 40
0
 41
0
  0
VERTEX
  8
0
 10
0.814399
 20
3.38813
 30
0.0
 40
0
 41
0
  0
VERTEX
  8
0
 10
0.815972
 20
3.38857
 30
0.0
 40
0
 41
0
  0
VERTEX
  8
0
 10
0.827094
 20
3.39171
 30
0.0
 40
0
 41
0
  0
VERTEX
  8
0
 10
0.842122
 20
3.39589
 30
0.0
 40
0
 41
0
  0
VERTEX
  8
0
 10
0.845975
 20
3.39757
 30
0.0
 40
0
 41
0
  0
VERTEX
  8
0
 10
0.861111
 20
3.40419
 30
0.0
 40
0
 41
0
  0
VERTEX
  8
0
 10
0.866917
 20
3.40674
 30
0.0
 40
0
 41
0
  0
VERTEX
  8
0
 10
0.883951
 20
3.41704
 30
0.0
 40
0
 41
0
  0
VERTEX
  8
0
 10
0.888835
 20
3.42003
 30
0.0
 40
0
 41
0
  0
VERTEX
  8
0
 10
0.896593
 20
3.42638
 30
0.0
 40
0
 41
0
  0
VERTEX
  8
0
 10
0.904893
 20
3.43326
 30
0.0
 40
0
 41
0
  0
VERTEX
  8
0
 10
0.907932
 20
3.43571
 30
0.0
 40
0
 41
0
  0
VERTEX
  8
0
 10
0.923774
 20
3.45356
 30
0.0
 40
0
 41
0
  0
VERTEX
  8
0
 10
0.936632
 20
3.47336
 30
0.0
 40
0
 41
0
  0
VERTEX
  8
0
 10
0.946615
 20
3.49511
 30
0.0
 40
0
 41
0
  0
VERTEX
  8
0
 10
0.95345
 20
3.51704
 30
0.0
 40
0
 41
0
  0
VERTEX
  8
0
 10
0.953993
 20
3.51878
 30
0.0
 40
0
 41
0
  0
VERTEX
  8
0
 10
0.958442
 20
3.54357
 30
0.0
 40
0
 41
0
  0
VERTEX
  8
0
 10
0.959907
 20
3.56956
 30
0.0
 40
0
 41
0
  0
VERTEX
  8
0
 10
0.959907
 20
3.63857
 30
0.0
 40
0
 41
0
  0
VERTEX
  8
0
 10
0.886556
 20
3.63857
 30
0.0
 40
0
 41
0
  0
VERTEX
  8
0
 10
0.886556
 20
3.56853
 30
0.0
 40
0
 41
0
  0
VERTEX
  8
0
 10
0.885851
 20
3.5536
 30
0.0
 40
0
 41
0
  0
VERTEX
  8
0
 10
0.885688
 20
3.55007
 30
0.0
 40
0
 41
0
  0
VERTEX
  8
0
 10
0.882975
 20
3.53267
 30
0.0
 40
0
 41
0
  0
VERTEX
  8
0
 10
0.878689
 20
3.51704
 30
0.0
 40
0
 41
0
  0
VERTEX
  8
0
 10
0.878526
 20
3.51633
 30
0.0
 40
0
 41
0
  0
VERTEX
  8
0
 10
0.872287
 20
3.50125
 30
0.0
 40
0
 41
0
  0
VERTEX
  8
0
 10
0.864367
 20
3.48757
 30
0.0
 40
0
 41
0
  0
SEQEND
 8
0
  0
POLYLINE
  8
0
 62
     254
 66
     1
 10
0
 20
0
 30
0.0
 70
     1
 40
0
 41
0
  0
VERTEX
  8
0
 10
0.335232
 20
0.572863
 30
0.0
 40
0
 41
0
  0
VERTEX
  8
0
 10
0.335613
 20
0.572863
 30
0.0
 40
0
 41
0
  0
VERTEX
  8
0
 10
0.335613
 20
0.853678
 30
0.0
 40
0
 41
0
  0
VERTEX
  8
0
 10
0.275553
 20
0.853678
 30
0.0
 40
0
 41
0
  0
VERTEX
  8
0
 10
0.275553
 20
0.572863
 30
0.0
 40
0
 41
0
  0
VERTEX
  8
0
 10
0.276801
 20
0.572863
 30
0.0
 40
0
 41
0
  0
VERTEX
  8
0
 10
0.276801
 20
0.572646
 30
0.0
 40
0
 41
0
  0
VERTEX
  8
0
 10
0.335232
 20
0.572646
 30
0.0
 40
0
 41
0
  0
VERTEX
  8
0
 10
0.335232
 20
0.572863
 30
0.0
 40
0
 41
0
  0
SEQEND
 8
0
  0
POLYLINE
  8
0
 62
     254
 66
     1
 10
0
 20
0
 30
0.0
 70
     1
 40
0
 41
0
  0
VERTEX
  8
0
 10
1.2883
 20
0.377929
 30
0.0
 40
0
 41
0
  0
VERTEX
  8
0
 10
1.28348
 20
0.372342
 30
0.0
 40
0
 41
0
  0
VERTEX
  8
0
 10
1.27794
 20
0.363336
 30
0.0
 40
0
 41
0
  0
VERTEX
  8
0
 10
1.27393
 20
0.353624
 30
0.0
 40
0
 41
0
  0
VERTEX
  8
0
 10
1.27365
 20
0.352376
 30
0.0
 40
0
 41
0
  0
VERTEX
  8
0
 10
1.27148
 20
0.343425
 30
0.0
 40
0
 41
0
  0
VERTEX
  8
0
 10
1.27067
 20
0.3329
 30
0.0
 40
0
 41
0
  0
VERTEX
  8
0
 10
1.27148
 20
0.322428
 30
0.0
 40
0
 41
0
  0
VERTEX
  8
0
 10
1.27393
 20
0.312229
 30
0.0
 40
0
 41
0
  0
VERTEX
  8
0
 10
1.27675
 20
0.305339
 30
0.0
 40
0
 41
0
  0
VERTEX
  8
0
 10
1.27794
 20
0.302463
 30
0.0
 40
0
 41
0
  0
VERTEX
  8
0
 10
1.28223
 20
0.295518
 30
0.0
 40
0
 41
0
  0
VERTEX
  8
0
 10
1.28348
 20
0.293511
 30
0.0
 40
0
 41
0
  0
VERTEX
  8
0
 10
1.28488
 20
0.291829
 30
0.0
 40
0
 41
0
  0
VERTEX
  8
0
 10
1.29031
 20
0.285536
 30
0.0
 40
0
 41
0
  0
VERTEX
  8
0
 10
1.29829
 20
0.2787
 30
0.0
 40
0
 41
0
  0
VERTEX
  8
0
 10
1.30724
 20
0.273167
 30
0.0
 40
0
 41
0
  0
VERTEX
  8
0
 10
1.31695
 20
0.269151
 30
0.0
 40
0
 41
0
  0
VERTEX
  8
0
 10
1.3272
 20
0.26671
 30
0.0
 40
0
 41
0
  0
VERTEX
  8
0
 10
1.32731
 20
0.26671
 30
0.0
 40
0
 41
0
  0
VERTEX
  8
0
 10
1.33767
 20
0.265896
 30
0.0
 40
0
 41
0
  0
VERTEX
  8
0
 10
1.3482
 20
0.26671
 30
0.0
 40
0
 41
0
  0
VERTEX
  8
0
 10
1.3584
 20
0.269151
 30
0.0
 40
0
 41
0
  0
VERTEX
  8
0
 10
1.36599
 20
0.272299
 30
0.0
 40
0
 41
0
  0
VERTEX
  8
0
 10
1.36811
 20
0.273167
 30
0.0
 40
0
 41
0
  0
VERTEX
  8
0
 10
1.37706
 20
0.2787
 30
0.0
 40
0
 41
0
  0
VERTEX
  8
0
 10
1.38509
 20
0.285536
 30
0.0
 40
0
 41
0
  0
VERTEX
  8
0
 10
1.39051
 20
0.291829
 30
0.0
 40
0
 41
0
  0
VERTEX
  8
0
 10
1.39193
 20
0.293511
 30
0.0
 40
0
 41
0
  0
VERTEX
  8
0
 10
1.3974
 20
0.302463
 30
0.0
 40
0
 41
0
  0
VERTEX
  8
0
 10
1.40007
 20
0.308811
 30
0.0
 40
0
 41
0
  0
VERTEX
  8
0
 10
1.40147
 20
0.312229
 30
0.0
 40
0
 41
0
  0
VERTEX
  8
0
 10
1.40392
 20
0.322428
 30
0.0
 40
0
 41
0
  0
VERTEX
  8
0
 10
1.40474
 20
0.3329
 30
0.0
 40
0
 41
0
  0
VERTEX
  8
0
 10
1.40392
 20
0.343425
 30
0.0
 40
0
 41
0
  0
VERTEX
  8
0
 10
1.40147
 20
0.353624
 30
0.0
 40
0
 41
0
  0
VERTEX
  8
0
 10
1.3974
 20
0.363336
 30
0.0
 40
0
 41
0
  0
VERTEX
  8
0
 10
1.39193
 20
0.372342
 30
0.0
 40
0
 41
0
  0
VERTEX
  8
0
 10
1.39182
 20
0.372504
 30
0.0
 40
0
 41
0
  0
VERTEX
  8
0
 10
1.38954
 20
0.375108
 30
0.0
 40
0
 41
0
  0
VERTEX
  8
0
 10
1.38509
 20
0.380317
 30
0.0
 40
0
 41
0
  0
VERTEX
  8
0
 10
1.37706
 20
0.387153
 30
0.0
 40
0
 41
0
  0
VERTEX
  8
0
 10
1.36811
 20
0.392632
 30
0.0
 40
0
 41
0
  0
VERTEX
  8
0
 10
1.36513
 20
0.393881
 30
0.0
 40
0
 41
0
  0
VERTEX
  8
0
 10
1.3584
 20
0.396647
 30
0.0
 40
0
 41
0
  0
VERTEX
  8
0
 10
1.3552
 20
0.397461
 30
0.0
 40
0
 41
0
  0
VERTEX
  8
0
 10
1.3482
 20
0.399143
 30
0.0
 40
0
 41
0
  0
VERTEX
  8
0
 10
1.33767
 20
0.399957
 30
0.0
 40
0
 41
0
  0
VERTEX
  8
0
 10
1.3272
 20
0.399143
 30
0.0
 40
0
 41
0
  0
VERTEX
  8
0
 10
1.32427
 20
0.398438
 30
0.0
 40
0
 41
0
  0
VERTEX
  8
0
 10
1.31695
 20
0.396647
 30
0.0
 40
0
 41
0
  0
VERTEX
  8
0
 10
1.31293
 20
0.394965
 30
0.0
 40
0
 41
0
  0
VERTEX
  8
0
 10
1.30724
 20
0.392632
 30
0.0
 40
0
 41
0
  0
VERTEX
  8
0
 10
1.29975
 20
0.388021
 30
0.0
 40
0
 41
0
  0
VERTEX
  8
0
 10
1.29829
 20
0.387153
 30
0.0
 40
0
 41
0
  0
VERTEX
  8
0
 10
1.29031
 20
0.380317
 30
0.0
 40
0
 41
0
  0
VERTEX
  8
0
 10
1.2883
 20
0.377929
 30
0.0
 40
0
 41
0
  0
SEQEND
 8
0
  0
POLYLINE
  8
0
 62
     254
 66
     1
 10
0
 20
0
 30
0.0
 70
     1
 40
0
 41
0
  0
VERTEX
  8
0
 10
1.28103
 20
1.87099
 30
0.0
 40
0
 41
0
  0
VERTEX
  8
0
 10
1.28348
 20
1.86703
 30
0.0
 40
0
 41
0
  0
VERTEX
  8
0
 10
1.29031
 20
1.859
 30
0.0
 40
0
 41
0
  0
VERTEX
  8
0
 10
1.29829
 20
1.85221
 30
0.0
 40
0
 41
0
  0
VERTEX
  8
0
 10
1.29975
 20
1.85135
 30
0.0
 40
0
 41
0
  0
VERTEX
  8
0
 10
1.30724
 20
1.84668
 30
0.0
 40
0
 41
0
  0
VERTEX
  8
0
 10
1.31695
 20
1.84267
 30
0.0
 40
0
 41
0
  0
VERTEX
  8
0
 10
1.3272
 20
1.84022
 30
0.0
 40
0
 41
0
  0
VERTEX
  8
0
 10
1.32905
 20
1.84011
 30
0.0
 40
0
 41
0
  0
VERTEX
  8
0
 10
1.33767
 20
1.83942
 30
0.0
 40
0
 41
0
  0
VERTEX
  8
0
 10
1.3482
 20
1.84022
 30
0.0
 40
0
 41
0
  0
VERTEX
  8
0
 10
1.3584
 20
1.84267
 30
0.0
 40
0
 41
0
  0
VERTEX
  8
0
 10
1.36811
 20
1.84668
 30
0.0
 40
0
 41
0
  0
VERTEX
  8
0
 10
1.37088
 20
1.84842
 30
0.0
 40
0
 41
0
  0
VERTEX
  8
0
 10
1.37706
 20
1.85221
 30
0.0
 40
0
 41
0
  0
VERTEX
  8
0
 10
1.38509
 20
1.859
 30
0.0
 40
0
 41
0
  0
VERTEX
  8
0
 10
1.39193
 20
1.86703
 30
0.0
 40
0
 41
0
  0
VERTEX
  8
0
 10
1.3974
 20
1.87597
 30
0.0
 40
0
 41
0
  0
VERTEX
  8
0
 10
1.39925
 20
1.88049
 30
0.0
 40
0
 41
0
  0
VERTEX
  8
0
 10
1.40012
 20
1.88254
 30
0.0
 40
0
 41
0
  0
VERTEX
  8
0
 10
1.40147
 20
1.88569
 30
0.0
 40
0
 41
0
  0
VERTEX
  8
0
 10
1.40392
 20
1.89594
 30
0.0
 40
0
 41
0
  0
VERTEX
  8
0
 10
1.40457
 20
1.90446
 30
0.0
 40
0
 41
0
  0
VERTEX
  8
0
 10
1.40474
 20
1.90642
 30
0.0
 40
0
 41
0
  0
VERTEX
  8
0
 10
1.40392
 20
1.91689
 30
0.0
 40
0
 41
0
  0
VERTEX
  8
0
 10
1.40147
 20
1.92714
 30
0.0
 40
0
 41
0
  0
VERTEX
  8
0
 10
1.3974
 20
1.93685
 30
0.0
 40
0
 41
0
  0
VERTEX
  8
0
 10
1.39193
 20
1.94586
 30
0.0
 40
0
 41
0
  0
VERTEX
  8
0
 10
1.38971
 20
1.94846
 30
0.0
 40
0
 41
0
  0
VERTEX
  8
0
 10
1.38509
 20
1.95383
 30
0.0
 40
0
 41
0
  0
VERTEX
  8
0
 10
1.38037
 20
1.9579
 30
0.0
 40
0
 41
0
  0
VERTEX
  8
0
 10
1.37706
 20
1.96067
 30
0.0
 40
0
 41
0
  0
VERTEX
  8
0
 10
1.36811
 20
1.96615
 30
0.0
 40
0
 41
0
  0
VERTEX
  8
0
 10
1.3584
 20
1.97017
 30
0.0
 40
0
 41
0
  0
VERTEX
  8
0
 10
1.35699
 20
1.97049
 30
0.0
 40
0
 41
0
  0
VERTEX
  8
0
 10
1.3482
 20
1.97265
 30
0.0
 40
0
 41
0
  0
VERTEX
  8
0
 10
1.33892
 20
1.97336
 30
0.0
 40
0
 41
0
  0
VERTEX
  8
0
 10
1.33767
 20
1.97347
 30
0.0
 40
0
 41
0
  0
VERTEX
  8
0
 10
1.3272
 20
1.97265
 30
0.0
 40
0
 41
0
  0
VERTEX
  8
0
 10
1.31695
 20
1.97017
 30
0.0
 40
0
 41
0
  0
VERTEX
  8
0
 10
1.30724
 20
1.96615
 30
0.0
 40
0
 41
0
  0
VERTEX
  8
0
 10
1.29975
 20
1.96153
 30
0.0
 40
0
 41
0
  0
VERTEX
  8
0
 10
1.29829
 20
1.96067
 30
0.0
 40
0
 41
0
  0
VERTEX
  8
0
 10
1.29031
 20
1.95383
 30
0.0
 40
0
 41
0
  0
VERTEX
  8
0
 10
1.28814
 20
1.95128
 30
0.0
 40
0
 41
0
  0
VERTEX
  8
0
 10
1.28348
 20
1.94586
 30
0.0
 40
0
 41
0
  0
VERTEX
  8
0
 10
1.27794
 20
1.93685
 30
0.0
 40
0
 41
0
  0
VERTEX
  8
0
 10
1.27393
 20
1.92714
 30
0.0
 40
0
 41
0
  0
VERTEX
  8
0
 10
1.27148
 20
1.91689
 30
0.0
 40
0
 41
0
  0
VERTEX
  8
0
 10
1.27067
 20
1.90642
 30
0.0
 40
0
 41
0
  0
VERTEX
  8
0
 10
1.27083
 20
1.90446
 30
0.0
 40
0
 41
0
  0
VERTEX
  8
0
 10
1.27148
 20
1.89594
 30
0.0
 40
0
 41
0
  0
VERTEX
  8
0
 10
1.27393
 20
1.88569
 30
0.0
 40
0
 41
0
  0
VERTEX
  8
0
 10
1.27669
 20
1.87907
 30
0.0
 40
0
 41
0
  0
VERTEX
  8
0
 10
1.27794
 20
1.87597
 30
0.0
 40
0
 41
0
  0
VERTEX
  8
0
 10
1.28103
 20
1.87099
 30
0.0
 40
0
 41
0
  0
SEQEND
 8
0
  0
POLYLINE
  8
0
 62
     254
 66
     1
 10
0
 20
0
 30
0.0
 70
     1
 40
0
 41
0
  0
VERTEX
  8
0
 10
1.29915
 20
2.21343
 30
0.0
 40
0
 41
0
  0
VERTEX
  8
0
 10
1.29915
 20
2.21317
 30
0.0
 40
0
 41
0
  0
VERTEX
  8
0
 10
1.37809
 20
2.21317
 30
0.0
 40
0
 41
0
  0
VERTEX
  8
0
 10
1.37809
 20
2.83344
 30
0.0
 40
0
 41
0
  0
VERTEX
  8
0
 10
1.37457
 20
2.83344
 30
0.0
 40
0
 41
0
  0
VERTEX
  8
0
 10
1.37457
 20
2.83371
 30
0.0
 40
0
 41
0
  0
VERTEX
  8
0
 10
1.25624
 20
2.83371
 30
0.0
 40
0
 41
0
  0
VERTEX
  8
0
 10
1.25624
 20
2.21343
 30
0.0
 40
0
 41
0
  0
VERTEX
  8
0
 10
1.29915
 20
2.21343
 30
0.0
 40
0
 41
0
  0
SEQEND
 8
0
  0
POLYLINE
  8
0
 62
     254
 66
     1
 10
0
 20
0
 30
0.0
 70
     1
 40
0
 41
0
  0
VERTEX
  8
0
 10
1.28136
 20
4.36199
 30
0.0
 40
0
 41
0
  0
VERTEX
  8
0
 10
1.28348
 20
4.35856
 30
0.0
 40
0
 41
0
  0
VERTEX
  8
0
 10
1.29031
 20
4.35058
 30
0.0
 40
0
 41
0
  0
VERTEX
  8
0
 10
1.29829
 20
4.34375
 30
0.0
 40
0
 41
0
  0
VERTEX
  8
0
 10
1.29975
 20
4.34289
 30
0.0
 40
0
 41
0
  0
VERTEX
  8
0
 10
1.30724
 20
4.33826
 30
0.0
 40
0
 41
0
  0
VERTEX
  8
0
 10
1.31695
 20
4.33421
 30
0.0
 40
0
 41
0
  0
VERTEX
  8
0
 10
1.32541
 20
4.33219
 30
0.0
 40
0
 41
0
  0
VERTEX
  8
0
 10
1.3272
 20
4.33176
 30
0.0
 40
0
 41
0
  0
VERTEX
  8
0
 10
1.33767
 20
4.33094
 30
0.0
 40
0
 41
0
  0
VERTEX
  8
0
 10
1.3482
 20
4.33176
 30
0.0
 40
0
 41
0
  0
VERTEX
  8
0
 10
1.3584
 20
4.33421
 30
0.0
 40
0
 41
0
  0
VERTEX
  8
0
 10
1.36507
 20
4.33703
 30
0.0
 40
0
 41
0
  0
VERTEX
  8
0
 10
1.36811
 20
4.33826
 30
0.0
 40
0
 41
0
  0
VERTEX
  8
0
 10
1.37457
 20
4.34224
 30
0.0
 40
0
 41
0
  0
VERTEX
  8
0
 10
1.37706
 20
4.34375
 30
0.0
 40
0
 41
0
  0
VERTEX
  8
0
 10
1.38037
 20
4.34657
 30
0.0
 40
0
 41
0
  0
VERTEX
  8
0
 10
1.38509
 20
4.35058
 30
0.0
 40
0
 41
0
  0
VERTEX
  8
0
 10
1.39193
 20
4.35856
 30
0.0
 40
0
 41
0
  0
VERTEX
  8
0
 10
1.3974
 20
4.36757
 30
0.0
 40
0
 41
0
  0
VERTEX
  8
0
 10
1.40082
 20
4.37576
 30
0.0
 40
0
 41
0
  0
VERTEX
  8
0
 10
1.40147
 20
4.37722
 30
0.0
 40
0
 41
0
  0
VERTEX
  8
0
 10
1.40392
 20
4.38747
 30
0.0
 40
0
 41
0
  0
VERTEX
  8
0
 10
1.40474
 20
4.398
 30
0.0
 40
0
 41
0
  0
VERTEX
  8
0
 10
1.40424
 20
4.40397
 30
0.0
 40
0
 41
0
  0
VERTEX
  8
0
 10
1.40392
 20
4.40847
 30
0.0
 40
0
 41
0
  0
VERTEX
  8
0
 10
1.40147
 20
4.41872
 30
0.0
 40
0
 41
0
  0
VERTEX
  8
0
 10
1.3974
 20
4.42839
 30
0.0
 40
0
 41
0
  0
VERTEX
  8
0
 10
1.39453
 20
4.43317
 30
0.0
 40
0
 41
0
  0
VERTEX
  8
0
 10
1.39193
 20
4.43739
 30
0.0
 40
0
 41
0
  0
VERTEX
  8
0
 10
1.38509
 20
4.44536
 30
0.0
 40
0
 41
0
  0
VERTEX
  8
0
 10
1.37706
 20
4.45221
 30
0.0
 40
0
 41
0
  0
VERTEX
  8
0
 10
1.36811
 20
4.45768
 30
0.0
 40
0
 41
0
  0
VERTEX
  8
0
 10
1.36312
 20
4.45975
 30
0.0
 40
0
 41
0
  0
VERTEX
  8
0
 10
1.3584
 20
4.46175
 30
0.0
 40
0
 41
0
  0
VERTEX
  8
0
 10
1.3482
 20
4.46419
 30
0.0
 40
0
 41
0
  0
VERTEX
  8
0
 10
1.33767
 20
4.465
 30
0.0
 40
0
 41
0
  0
VERTEX
  8
0
 10
1.3272
 20
4.46419
 30
0.0
 40
0
 41
0
  0
VERTEX
  8
0
 10
1.32275
 20
4.46311
 30
0.0
 40
0
 41
0
  0
VERTEX
  8
0
 10
1.31695
 20
4.46175
 30
0.0
 40
0
 41
0
  0
VERTEX
  8
0
 10
1.30724
 20
4.45768
 30
0.0
 40
0
 41
0
  0
VERTEX
  8
0
 10
1.29975
 20
4.45307
 30
0.0
 40
0
 41
0
  0
VERTEX
  8
0
 10
1.29829
 20
4.45221
 30
0.0
 40
0
 41
0
  0
VERTEX
  8
0
 10
1.29031
 20
4.44536
 30
0.0
 40
0
 41
0
  0
VERTEX
  8
0
 10
1.28348
 20
4.43739
 30
0.0
 40
0
 41
0
  0
VERTEX
  8
0
 10
1.27794
 20
4.42839
 30
0.0
 40
0
 41
0
  0
VERTEX
  8
0
 10
1.27393
 20
4.41872
 30
0.0
 40
0
 41
0
  0
VERTEX
  8
0
 10
1.27148
 20
4.40847
 30
0.0
 40
0
 41
0
  0
VERTEX
  8
0
 10
1.27116
 20
4.40397
 30
0.0
 40
0
 41
0
  0
VERTEX
  8
0
 10
1.27067
 20
4.398
 30
0.0
 40
0
 41
0
  0
VERTEX
  8
0
 10
1.27148
 20
4.38747
 30
0.0
 40
0
 41
0
  0
VERTEX
  8
0
 10
1.27393
 20
4.37722
 30
0.0
 40
0
 41
0
  0
VERTEX
  8
0
 10
1.27664
 20
4.37071
 30
0.0
 40
0
 41
0
  0
VERTEX
  8
0
 10
1.27794
 20
4.36757
 30
0.0
 40
0
 41
0
  0
VERTEX
  8
0
 10
1.28136
 20
4.36199
 30
0.0
 40
0
 41
0
  0
SEQEND
 8
0
  0
POLYLINE
  8
0
 62
     254
 66
     1
 10
0
 20
0
 30
0.0
 70
     1
 40
0
 41
0
  0
VERTEX
  8
0
 10
1.37809
 20
2.98085
 30
0.0
 40
0
 41
0
  0
VERTEX
  8
0
 10
1.37809
 20
3.84722
 30
0.0
 40
0
 41
0
  0
VERTEX
  8
0
 10
1.37457
 20
3.84722
 30
0.0
 40
0
 41
0
  0
VERTEX
  8
0
 10
1.37457
 20
3.8475
 30
0.0
 40
0
 41
0
  0
VERTEX
  8
0
 10
1.25624
 20
3.8475
 30
0.0
 40
0
 41
0
  0
VERTEX
  8
0
 10
1.25624
 20
2.98113
 30
0.0
 40
0
 41
0
  0
VERTEX
  8
0
 10
1.29915
 20
2.98113
 30
0.0
 40
0
 41
0
  0
VERTEX
  8
0
 10
1.29915
 20
2.98085
 30
0.0
 40
0
 41
0
  0
VERTEX
  8
0
 10
1.37809
 20
2.98085
 30
0.0
 40
0
 41
0
  0
SEQEND
 8
0
  0
POLYLINE
  8
0
 62
     254
 66
     1
 10
0
 20
0
 30
0.0
 70
     1
 40
0
 41
0
  0
VERTEX
  8
0
 10
0.48291
 20
1.10444
 30
0.0
 40
0
 41
0
  0
VERTEX
  8
0
 10
0.410265
 20
1.0625
 30
0.0
 40
0
 41
0
  0
VERTEX
  8
0
 10
0.410265
 20
0.92079
 30
0.0
 40
0
 41
0
  0
VERTEX
  8
0
 10
0.48291
 20
0.878851
 30
0.0
 40
0
 41
0
  0
VERTEX
  8
0
 10
0.533094
 20
0.849881
 30
0.0
 40
0
 41
0
  0
VERTEX
  8
0
 10
0.547146
 20
0.858018
 30
0.0
 40
0
 41
0
  0
VERTEX
  8
0
 10
0.655817
 20
0.92079
 30
0.0
 40
0
 41
0
  0
VERTEX
  8
0
 10
0.655817
 20
1.0625
 30
0.0
 40
0
 41
0
  0
VERTEX
  8
0
 10
0.533094
 20
1.13341
 30
0.0
 40
0
 41
0
  0
VERTEX
  8
0
 10
0.48291
 20
1.10444
 30
0.0
 40
0
 41
0
  0
SEQEND
 8
0
  0
POLYLINE
  8
0
 62
     254
 66
     1
 10
0
 20
0
 30
0.0
 70
     1
 40
0
 41
0
  0
VERTEX
  8
0
 10
0.515625
 20
2.21317
 30
0.0
 40
0
 41
0
  0
VERTEX
  8
0
 10
0.48291
 20
2.19428
 30
0.0
 40
0
 41
0
  0
VERTEX
  8
0
 10
0.434028
 20
2.16601
 30
0.0
 40
0
 41
0
  0
VERTEX
  8
0
 10
0.434028
 20
2.03429
 30
0.0
 40
0
 41
0
  0
VERTEX
  8
0
 10
0.48291
 20
2.00608
 30
0.0
 40
0
 41
0
  0
VERTEX
  8
0
 10
0.548122
 20
1.96847
 30
0.0
 40
0
 41
0
  0
VERTEX
  8
0
 10
0.595757
 20
1.99593
 30
0.0
 40
0
 41
0
  0
VERTEX
  8
0
 10
0.662218
 20
2.03429
 30
0.0
 40
0
 41
0
  0
VERTEX
  8
0
 10
0.662218
 20
2.16601
 30
0.0
 40
0
 41
0
  0
VERTEX
  8
0
 10
0.632975
 20
2.18289
 30
0.0
 40
0
 41
0
  0
VERTEX
  8
0
 10
0.559407
 20
2.22538
 30
0.0
 40
0
 41
0
  0
VERTEX
  8
0
 10
0.550022
 20
2.23079
 30
0.0
 40
0
 41
0
  0
VERTEX
  8
0
 10
0.548122
 20
2.23188
 30
0.0
 40
0
 41
0
  0
VERTEX
  8
0
 10
0.515625
 20
2.21317
 30
0.0
 40
0
 41
0
  0
SEQEND
 8
0
  0
POLYLINE
  8
0
 62
     254
 66
     1
 10
0
 20
0
 30
0.0
 70
     1
 40
0
 41
0
  0
VERTEX
  8
0
 10
0.948893
 20
0.858018
 30
0.0
 40
0
 41
0
  0
VERTEX
  8
0
 10
0.960286
 20
0.851454
 30
0.0
 40
0
 41
0
  0
VERTEX
  8
0
 10
0.962999
 20
0.849881
 30
0.0
 40
0
 41
0
  0
VERTEX
  8
0
 10
1.01091
 20
0.87755
 30
0.0
 40
0
 41
0
  0
VERTEX
  8
0
 10
1.01421
 20
0.879503
 30
0.0
 40
0
 41
0
  0
VERTEX
  8
0
 10
1.08577
 20
0.92079
 30
0.0
 40
0
 41
0
  0
VERTEX
  8
0
 10
1.08577
 20
1.0625
 30
0.0
 40
0
 41
0
  0
VERTEX
  8
0
 10
1.0803
 20
1.0657
 30
0.0
 40
0
 41
0
  0
VERTEX
  8
0
 10
1.01091
 20
1.10574
 30
0.0
 40
0
 41
0
  0
VERTEX
  8
0
 10
0.975097
 20
1.12641
 30
0.0
 40
0
 41
0
  0
VERTEX
  8
0
 10
0.962999
 20
1.13341
 30
0.0
 40
0
 41
0
  0
VERTEX
  8
0
 10
0.960286
 20
1.13184
 30
0.0
 40
0
 41
0
  0
VERTEX
  8
0
 10
0.840224
 20
1.0625
 30
0.0
 40
0
 41
0
  0
VERTEX
  8
0
 10
0.840224
 20
0.92079
 30
0.0
 40
0
 41
0
  0
VERTEX
  8
0
 10
0.948893
 20
0.858018
 30
0.0
 40
0
 41
0
  0
SEQEND
 8
0
  0
POLYLINE
  8
0
 62
     254
 66
     1
 10
0
 20
0
 30
0.0
 70
     1
 40
0
 41
0
  0
VERTEX
  8
0
 10
0.833279
 20
1.57308
 30
0.0
 40
0
 41
0
  0
VERTEX
  8
0
 10
0.748047
 20
1.62229
 30
0.0
 40
0
 41
0
  0
VERTEX
  8
0
 10
0.662761
 20
1.57308
 30
0.0
 40
0
 41
0
  0
VERTEX
  8
0
 10
0.546442
 20
1.50592
 30
0.0
 40
0
 41
0
  0
VERTEX
  8
0
 10
0.546442
 20
1.27268
 30
0.0
 40
0
 41
0
  0
VERTEX
  8
0
 10
0.726887
 20
1.16846
 30
0.0
 40
0
 41
0
  0
VERTEX
  8
0
 10
0.748047
 20
1.15625
 30
0.0
 40
0
 41
0
  0
VERTEX
  8
0
 10
0.769206
 20
1.16846
 30
0.0
 40
0
 41
0
  0
VERTEX
  8
0
 10
0.832954
 20
1.2053
 30
0.0
 40
0
 41
0
  0
VERTEX
  8
0
 10
0.949653
 20
1.27268
 30
0.0
 40
0
 41
0
  0
VERTEX
  8
0
 10
0.949653
 20
1.50592
 30
0.0
 40
0
 41
0
  0
VERTEX
  8
0
 10
0.911458
 20
1.52794
 30
0.0
 40
0
 41
0
  0
VERTEX
  8
0
 10
0.833279
 20
1.57308
 30
0.0
 40
0
 41
0
  0
SEQEND
 8
0
  0
POLYLINE
  8
0
 62
     254
 66
     1
 10
0
 20
0
 30
0.0
 70
     1
 40
0
 41
0
  0
VERTEX
  8
0
 10
0.559517
 20
3.7035
 30
0.0
 40
0
 41
0
  0
VERTEX
  8
0
 10
0.617025
 20
3.7035
 30
0.0
 40
0
 41
0
  0
VERTEX
  8
0
 10
0.617025
 20
3.90136
 30
0.0
 40
0
 41
0
  0
VERTEX
  8
0
 10
0.544271
 20
3.90136
 30
0.0
 40
0
 41
0
  0
VERTEX
  8
0
 10
0.544271
 20
3.7035
 30
0.0
 40
0
 41
0
  0
VERTEX
  8
0
 10
0.559517
 20
3.7035
 30
0.0
 40
0
 41
0
  0
SEQEND
 8
0
  0
POLYLINE
  8
0
 62
     254
 66
     1
 10
0
 20
0
 30
0.0
 70
     1
 40
0
 41
0
  0
VERTEX
  8
0
 10
0.48291
 20
4.36062
 30
0.0
 40
0
 41
0
  0
VERTEX
  8
0
 10
0.464301
 20
4.34988
 30
0.0
 40
0
 41
0
  0
VERTEX
  8
0
 10
0.434028
 20
4.33242
 30
0.0
 40
0
 41
0
  0
VERTEX
  8
0
 10
0.434028
 20
4.20074
 30
0.0
 40
0
 41
0
  0
VERTEX
  8
0
 10
0.48291
 20
4.17247
 30
0.0
 40
0
 41
0
  0
VERTEX
  8
0
 10
0.493326
 20
4.16644
 30
0.0
 40
0
 41
0
  0
VERTEX
  8
0
 10
0.548122
 20
4.13482
 30
0.0
 40
0
 41
0
  0
VERTEX
  8
0
 10
0.662218
 20
4.20074
 30
0.0
 40
0
 41
0
  0
VERTEX
  8
0
 10
0.662218
 20
4.33242
 30
0.0
 40
0
 41
0
  0
VERTEX
  8
0
 10
0.632975
 20
4.34928
 30
0.0
 40
0
 41
0
  0
VERTEX
  8
0
 10
0.548122
 20
4.39828
 30
0.0
 40
0
 41
0
  0
VERTEX
  8
0
 10
0.48291
 20
4.36062
 30
0.0
 40
0
 41
0
  0
SEQEND
 8
0
  0
POLYLINE
  8
0
 62
     254
 66
     1
 10
0
 20
0
 30
0.0
 70
     1
 40
0
 41
0
  0
VERTEX
  8
0
 10
0.950358
 20
1.96983
 30
0.0
 40
0
 41
0
  0
VERTEX
  8
0
 10
1.01091
 20
2.00478
 30
0.0
 40
0
 41
0
  0
VERTEX
  8
0
 10
1.06207
 20
2.03429
 30
0.0
 40
0
 41
0
  0
VERTEX
  8
0
 10
1.06207
 20
2.16601
 30
0.0
 40
0
 41
0
  0
VERTEX
  8
0
 10
1.01091
 20
2.19553
 30
0.0
 40
0
 41
0
  0
VERTEX
  8
0
 10
0.980414
 20
2.21317
 30
0.0
 40
0
 41
0
  0
VERTEX
  8
0
 10
0.950358
 20
2.23053
 30
0.0
 40
0
 41
0
  0
VERTEX
  8
0
 10
0.947971
 20
2.23188
 30
0.0
 40
0
 41
0
  0
VERTEX
  8
0
 10
0.945258
 20
2.23031
 30
0.0
 40
0
 41
0
  0
VERTEX
  8
0
 10
0.936686
 20
2.22538
 30
0.0
 40
0
 41
0
  0
VERTEX
  8
0
 10
0.863064
 20
2.18289
 30
0.0
 40
0
 41
0
  0
VERTEX
  8
0
 10
0.833876
 20
2.16601
 30
0.0
 40
0
 41
0
  0
VERTEX
  8
0
 10
0.833876
 20
2.03429
 30
0.0
 40
0
 41
0
  0
VERTEX
  8
0
 10
0.900336
 20
1.99599
 30
0.0
 40
0
 41
0
  0
VERTEX
  8
0
 10
0.945258
 20
1.97006
 30
0.0
 40
0
 41
0
  0
VERTEX
  8
0
 10
0.947971
 20
1.96847
 30
0.0
 40
0
 41
0
  0
VERTEX
  8
0
 10
0.950358
 20
1.96983
 30
0.0
 40
0
 41
0
  0
SEQEND
 8
0
  0
POLYLINE
  8
0
 62
     254
 66
     1
 10
0
 20
0
 30
0.0
 70
     1
 40
0
 41
0
  0
VERTEX
  8
0
 10
1.00271
 20
4.16644
 30
0.0
 40
0
 41
0
  0
VERTEX
  8
0
 10
1.01091
 20
4.17117
 30
0.0
 40
0
 41
0
  0
VERTEX
  8
0
 10
1.03521
 20
4.18522
 30
0.0
 40
0
 41
0
  0
VERTEX
  8
0
 10
1.06207
 20
4.20074
 30
0.0
 40
0
 41
0
  0
VERTEX
  8
0
 10
1.06207
 20
4.33242
 30
0.0
 40
0
 41
0
  0
VERTEX
  8
0
 10
1.03179
 20
4.34988
 30
0.0
 40
0
 41
0
  0
VERTEX
  8
0
 10
1.01091
 20
4.36193
 30
0.0
 40
0
 41
0
  0
VERTEX
  8
0
 10
1.00684
 20
4.36426
 30
0.0
 40
0
 41
0
  0
VERTEX
  8
0
 10
0.947971
 20
4.39828
 30
0.0
 40
0
 41
0
  0
VERTEX
  8
0
 10
0.863064
 20
4.34924
 30
0.0
 40
0
 41
0
  0
VERTEX
  8
0
 10
0.861111
 20
4.3481
 30
0.0
 40
0
 41
0
  0
VERTEX
  8
0
 10
0.833876
 20
4.33242
 30
0.0
 40
0
 41
0
  0
VERTEX
  8
0
 10
0.833876
 20
4.20074
 30
0.0
 40
0
 41
0
  0
VERTEX
  8
0
 10
0.861111
 20
4.185
 30
0.0
 40
0
 41
0
  0
VERTEX
  8
0
 10
0.947971
 20
4.13482
 30
0.0
 40
0
 41
0
  0
VERTEX
  8
0
 10
1.00271
 20
4.16644
 30
0.0
 40
0
 41
0
  0
SEQEND
 8
0
  0
POLYLINE
  8
0
 62
     254
 66
     1
 10
0
 20
0
 30
0.0
 70
     1
 40
0
 41
0
  0
VERTEX
  8
0
 10
0.747993
 20
6.13672
 30
0.0
 40
0
 41
0
  0
VERTEX
  8
0
 10
0.606717
 20
6.05518
 30
0.0
 40
0
 41
0
  0
VERTEX
  8
0
 10
0.606717
 20
5.89208
 30
0.0
 40
0
 41
0
  0
VERTEX
  8
0
 10
0.747993
 20
5.81049
 30
0.0
 40
0
 41
0
  0
VERTEX
  8
0
 10
0.889268
 20
5.89208
 30
0.0
 40
0
 41
0
  0
VERTEX
  8
0
 10
0.889268
 20
6.05518
 30
0.0
 40
0
 41
0
  0
VERTEX
  8
0
 10
0.747993
 20
6.13672
 30
0.0
 40
0
 41
0
  0
SEQEND
 8
0
  0
POLYLINE
  8
0
 62
     254
 66
     1
 10
0
 20
0
 30
0.0
 70
     1
 40
0
 41
0
  0
VERTEX
  8
0
 10
1.00483
 20
5.6396
 30
0.0
 40
0
 41
0
  0
VERTEX
  8
0
 10
1.01091
 20
5.64312
 30
0.0
 40
0
 41
0
  0
VERTEX
  8
0
 10
1.10498
 20
5.69743
 30
0.0
 40
0
 41
0
  0
VERTEX
  8
0
 10
1.10498
 20
5.8131
 30
0.0
 40
0
 41
0
  0
VERTEX
  8
0
 10
1.01091
 20
5.86735
 30
0.0
 40
0
 41
0
  0
VERTEX
  8
0
 10
1.00483
 20
5.87088
 30
0.0
 40
0
 41
0
  0
VERTEX
  8
0
 10
0.904731
 20
5.8131
 30
0.0
 40
0
 41
0
  0
VERTEX
  8
0
 10
0.904731
 20
5.69743
 30
0.0
 40
0
 41
0
  0
VERTEX
  8
0
 10
1.00483
 20
5.6396
 30
0.0
 40
0
 41
0
  0
SEQEND
 8
0
  0
POLYLINE
  8
0
 62
     254
 66
     1
 10
0
 20
0
 30
0.0
 70
     1
 40
0
 41
0
  0
VERTEX
  8
0
 10
1.00483
 20
5.19228
 30
0.0
 40
0
 41
0
  0
VERTEX
  8
0
 10
1.01091
 20
5.19575
 30
0.0
 40
0
 41
0
  0
VERTEX
  8
0
 10
1.10498
 20
5.25006
 30
0.0
 40
0
 41
0
  0
VERTEX
  8
0
 10
1.10498
 20
5.36567
 30
0.0
 40
0
 41
0
  0
VERTEX
  8
0
 10
1.01091
 20
5.42003
 30
0.0
 40
0
 41
0
  0
VERTEX
  8
0
 10
1.00483
 20
5.4235
 30
0.0
 40
0
 41
0
  0
VERTEX
  8
0
 10
0.904731
 20
5.36567
 30
0.0
 40
0
 41
0
  0
VERTEX
  8
0
 10
0.904731
 20
5.25006
 30
0.0
 40
0
 41
0
  0
VERTEX
  8
0
 10
1.00483
 20
5.19228
 30
0.0
 40
0
 41
0
  0
SEQEND
 8
0
  0
POLYLINE
  8
0
 62
     254
 66
     1
 10
0
 20
0
 30
0.0
 70
     1
 40
0
 41
0
  0
VERTEX
  8
0
 10
0.590224
 20
5.36615
 30
0.0
 40
0
 41
0
  0
VERTEX
  8
0
 10
0.546875
 20
5.39117
 30
0.0
 40
0
 41
0
  0
VERTEX
  8
0
 10
0.490018
 20
5.42399
 30
0.0
 40
0
 41
0
  0
VERTEX
  8
0
 10
0.48291
 20
5.41986
 30
0.0
 40
0
 41
0
  0
VERTEX
  8
0
 10
0.400336
 20
5.37218
 30
0.0
 40
0
 41
0
  0
VERTEX
  8
0
 10
0.389919
 20
5.36615
 30
0.0
 40
0
 41
0
  0
VERTEX
  8
0
 10
0.389919
 20
5.25054
 30
0.0
 40
0
 41
0
  0
VERTEX
  8
0
 10
0.400336
 20
5.24451
 30
0.0
 40
0
 41
0
  0
VERTEX
  8
0
 10
0.48291
 20
5.19683
 30
0.0
 40
0
 41
0
  0
VERTEX
  8
0
 10
0.490018
 20
5.19271
 30
0.0
 40
0
 41
0
  0
VERTEX
  8
0
 10
0.546875
 20
5.22553
 30
0.0
 40
0
 41
0
  0
VERTEX
  8
0
 10
0.590224
 20
5.25054
 30
0.0
 40
0
 41
0
  0
VERTEX
  8
0
 10
0.590224
 20
5.36615
 30
0.0
 40
0
 41
0
  0
SEQEND
 8
0
  0
POLYLINE
  8
0
 62
     254
 66
     1
 10
0
 20
0
 30
0.0
 70
     1
 40
0
 41
0
  0
VERTEX
  8
0
 10
0.747993
 20
5.25956
 30
0.0
 40
0
 41
0
  0
VERTEX
  8
0
 10
0.606717
 20
5.178
 30
0.0
 40
0
 41
0
  0
VERTEX
  8
0
 10
0.606717
 20
5.01486
 30
0.0
 40
0
 41
0
  0
VERTEX
  8
0
 10
0.747993
 20
4.93332
 30
0.0
 40
0
 41
0
  0
VERTEX
  8
0
 10
0.889268
 20
5.01486
 30
0.0
 40
0
 41
0
  0
VERTEX
  8
0
 10
0.889268
 20
5.178
 30
0.0
 40
0
 41
0
  0
VERTEX
  8
0
 10
0.747993
 20
5.25956
 30
0.0
 40
0
 41
0
  0
SEQEND
 8
0
  0
POLYLINE
  8
0
 62
     254
 66
     1
 10
0
 20
0
 30
0.0
 70
     1
 40
0
 41
0
  0
VERTEX
  8
0
 10
0.48291
 20
5.86724
 30
0.0
 40
0
 41
0
  0
VERTEX
  8
0
 10
0.400336
 20
5.81956
 30
0.0
 40
0
 41
0
  0
VERTEX
  8
0
 10
0.389919
 20
5.81353
 30
0.0
 40
0
 41
0
  0
VERTEX
  8
0
 10
0.389919
 20
5.69792
 30
0.0
 40
0
 41
0
  0
VERTEX
  8
0
 10
0.400336
 20
5.69189
 30
0.0
 40
0
 41
0
  0
VERTEX
  8
0
 10
0.48291
 20
5.64426
 30
0.0
 40
0
 41
0
  0
VERTEX
  8
0
 10
0.490018
 20
5.64014
 30
0.0
 40
0
 41
0
  0
VERTEX
  8
0
 10
0.546875
 20
5.6729
 30
0.0
 40
0
 41
0
  0
VERTEX
  8
0
 10
0.590224
 20
5.69792
 30
0.0
 40
0
 41
0
  0
VERTEX
  8
0
 10
0.590224
 20
5.81353
 30
0.0
 40
0
 41
0
  0
VERTEX
  8
0
 10
0.546875
 20
5.83854
 30
0.0
 40
0
 41
0
  0
VERTEX
  8
0
 10
0.490018
 20
5.87136
 30
0.0
 40
0
 41
0
  0
VERTEX
  8
0
 10
0.48291
 20
5.86724
 30
0.0
 40
0
 41
0
  0
SEQEND
 8
0
  0
POLYLINE
  8
0
 62
     254
 66
     1
 10
0
 20
0
 30
0.0
 70
     1
 40
0
 41
0
  0
VERTEX
  8
0
 10
1.21528
 20
0.853678
 30
0.0
 40
0
 41
0
  0
VERTEX
  8
0
 10
1.15522
 20
0.853678
 30
0.0
 40
0
 41
0
  0
VERTEX
  8
0
 10
1.15522
 20
0.572157
 30
0.0
 40
0
 41
0
  0
VERTEX
  8
0
 10
1.21528
 20
0.572157
 30
0.0
 40
0
 41
0
  0
VERTEX
  8
0
 10
1.21528
 20
0.853678
 30
0.0
 40
0
 41
0
  0
SEQEND
 8
0
  0
POLYLINE
  8
0
 62
     254
 66
     1
 10
0
 20
0
 30
0.0
 70
     1
 40
0
 41
0
  0
VERTEX
  8
0
 10
1.13645
 20
6.41971
 30
0.0
 40
0
 41
0
  0
VERTEX
  8
0
 10
1.13846
 20
6.42025
 30
0.0
 40
0
 41
0
  0
VERTEX
  8
0
 10
1.14263
 20
6.42128
 30
0.0
 40
0
 41
0
  0
VERTEX
  8
0
 10
1.14876
 20
6.4235
 30
0.0
 40
0
 41
0
  0
VERTEX
  8
0
 10
1.15468
 20
6.42632
 30
0.0
 40
0
 41
0
  0
VERTEX
  8
0
 10
1.16032
 20
6.42969
 30
0.0
 40
0
 41
0
  0
VERTEX
  8
0
 10
1.16553
 20
6.43365
 30
0.0
 40
0
 41
0
  0
VERTEX
  8
0
 10
1.17041
 20
6.43804
 30
0.0
 40
0
 41
0
  0
VERTEX
  8
0
 10
1.17475
 20
6.44293
 30
0.0
 40
0
 41
0
  0
VERTEX
  8
0
 10
1.17866
 20
6.44819
 30
0.0
 40
0
 41
0
  0
VERTEX
  8
0
 10
1.18202
 20
6.45383
 30
0.0
 40
0
 41
0
  0
VERTEX
  8
0
 10
1.18484
 20
6.45975
 30
0.0
 40
0
 41
0
  0
VERTEX
  8
0
 10
1.18495
 20
6.46007
 30
0.0
 40
0
 41
0
  0
VERTEX
  8
0
 10
1.18707
 20
6.46599
 30
0.0
 40
0
 41
0
  0
VERTEX
  8
0
 10
1.18864
 20
6.47239
 30
0.0
 40
0
 41
0
  0
VERTEX
  8
0
 10
1.18956
 20
6.47885
 30
0.0
 40
0
 41
0
  0
VERTEX
  8
0
 10
1.18989
 20
6.48546
 30
0.0
 40
0
 41
0
  0
VERTEX
  8
0
 10
1.18956
 20
6.49203
 30
0.0
 40
0
 41
0
  0
VERTEX
  8
0
 10
1.18864
 20
6.49854
 30
0.0
 40
0
 41
0
  0
VERTEX
  8
0
 10
1.18815
 20
6.50038
 30
0.0
 40
0
 41
0
  0
VERTEX
  8
0
 10
1.18707
 20
6.50489
 30
0.0
 40
0
 41
0
  0
VERTEX
  8
0
 10
1.18484
 20
6.51107
 30
0.0
 40
0
 41
0
  0
VERTEX
  8
0
 10
1.18202
 20
6.51704
 30
0.0
 40
0
 41
0
  0
VERTEX
  8
0
 10
1.17866
 20
6.52268
 30
0.0
 40
0
 41
0
  0
VERTEX
  8
0
 10
1.17475
 20
6.52794
 30
0.0
 40
0
 41
0
  0
VERTEX
  8
0
 10
1.17041
 20
6.53282
 30
0.0
 40
0
 41
0
  0
VERTEX
  8
0
 10
1.16553
 20
6.53728
 30
0.0
 40
0
 41
0
  0
VERTEX
  8
0
 10
1.16032
 20
6.54113
 30
0.0
 40
0
 41
0
  0
VERTEX
  8
0
 10
1.15468
 20
6.54454
 30
0.0
 40
0
 41
0
  0
VERTEX
  8
0
 10
1.14876
 20
6.54736
 30
0.0
 40
0
 41
0
  0
VERTEX
  8
0
 10
1.14263
 20
6.54958
 30
0.0
 40
0
 41
0
  0
VERTEX
  8
0
 10
1.13846
 20
6.55062
 30
0.0
 40
0
 41
0
  0
VERTEX
  8
0
 10
1.13628
 20
6.55117
 30
0.0
 40
0
 41
0
  0
VERTEX
  8
0
 10
1.12983
 20
6.55214
 30
0.0
 40
0
 41
0
  0
VERTEX
  8
0
 10
1.12332
 20
6.55246
 30
0.0
 40
0
 41
0
  0
VERTEX
  8
0
 10
1.11675
 20
6.55214
 30
0.0
 40
0
 41
0
  0
VERTEX
  8
0
 10
1.1103
 20
6.55117
 30
0.0
 40
0
 41
0
  0
VERTEX
  8
0
 10
1.10395
 20
6.54958
 30
0.0
 40
0
 41
0
  0
VERTEX
  8
0
 10
1.09814
 20
6.54747
 30
0.0
 40
0
 41
0
  0
VERTEX
  8
0
 10
1.09782
 20
6.54736
 30
0.0
 40
0
 41
0
  0
VERTEX
  8
0
 10
1.09191
 20
6.54454
 30
0.0
 40
0
 41
0
  0
VERTEX
  8
0
 10
1.08632
 20
6.54113
 30
0.0
 40
0
 41
0
  0
VERTEX
  8
0
 10
1.08105
 20
6.53728
 30
0.0
 40
0
 41
0
  0
VERTEX
  8
0
 10
1.07623
 20
6.53282
 30
0.0
 40
0
 41
0
  0
VERTEX
  8
0
 10
1.07183
 20
6.52794
 30
0.0
 40
0
 41
0
  0
VERTEX
  8
0
 10
1.06793
 20
6.52268
 30
0.0
 40
0
 41
0
  0
VERTEX
  8
0
 10
1.06456
 20
6.51704
 30
0.0
 40
0
 41
0
  0
VERTEX
  8
0
 10
1.06179
 20
6.51107
 30
0.0
 40
0
 41
0
  0
VERTEX
  8
0
 10
1.05957
 20
6.50489
 30
0.0
 40
0
 41
0
  0
VERTEX
  8
0
 10
1.05843
 20
6.50038
 30
0.0
 40
0
 41
0
  0
VERTEX
  8
0
 10
1.058
 20
6.49854
 30
0.0
 40
0
 41
0
  0
VERTEX
  8
0
 10
1.05702
 20
6.49203
 30
0.0
 40
0
 41
0
  0
VERTEX
  8
0
 10
1.05669
 20
6.48546
 30
0.0
 40
0
 41
0
  0
VERTEX
  8
0
 10
1.05702
 20
6.47885
 30
0.0
 40
0
 41
0
  0
VERTEX
  8
0
 10
1.05783
 20
6.47342
 30
0.0
 40
0
 41
0
  0
VERTEX
  8
0
 10
1.058
 20
6.47239
 30
0.0
 40
0
 41
0
  0
VERTEX
  8
0
 10
1.05957
 20
6.46599
 30
0.0
 40
0
 41
0
  0
VERTEX
  8
0
 10
1.06169
 20
6.46007
 30
0.0
 40
0
 41
0
  0
VERTEX
  8
0
 10
1.06179
 20
6.45975
 30
0.0
 40
0
 41
0
  0
VERTEX
  8
0
 10
1.06456
 20
6.45383
 30
0.0
 40
0
 41
0
  0
VERTEX
  8
0
 10
1.06793
 20
6.44819
 30
0.0
 40
0
 41
0
  0
VERTEX
  8
0
 10
1.07183
 20
6.44293
 30
0.0
 40
0
 41
0
  0
VERTEX
  8
0
 10
1.07623
 20
6.43804
 30
0.0
 40
0
 41
0
  0
VERTEX
  8
0
 10
1.08105
 20
6.43365
 30
0.0
 40
0
 41
0
  0
VERTEX
  8
0
 10
1.08632
 20
6.42969
 30
0.0
 40
0
 41
0
  0
VERTEX
  8
0
 10
1.09191
 20
6.42632
 30
0.0
 40
0
 41
0
  0
VERTEX
  8
0
 10
1.09782
 20
6.4235
 30
0.0
 40
0
 41
0
  0
VERTEX
  8
0
 10
1.10395
 20
6.42128
 30
0.0
 40
0
 41
0
  0
VERTEX
  8
0
 10
1.11013
 20
6.41971
 30
0.0
 40
0
 41
0
  0
VERTEX
  8
0
 10
1.1103
 20
6.41971
 30
0.0
 40
0
 41
0
  0
VERTEX
  8
0
 10
1.11675
 20
6.41872
 30
0.0
 40
0
 41
0
  0
VERTEX
  8
0
 10
1.12332
 20
6.4184
 30
0.0
 40
0
 41
0
  0
VERTEX
  8
0
 10
1.12983
 20
6.41872
 30
0.0
 40
0
 41
0
  0
VERTEX
  8
0
 10
1.13628
 20
6.41971
 30
0.0
 40
0
 41
0
  0
VERTEX
  8
0
 10
1.13645
 20
6.41971
 30
0.0
 40
0
 41
0
  0
SEQEND
 8
0
  0
POLYLINE
  8
0
 62
     254
 66
     1
 10
0
 20
0
 30
0.0
 70
     1
 40
0
 41
0
  0
VERTEX
  8
0
 10
0.219456
 20
1.87875
 30
0.0
 40
0
 41
0
  0
VERTEX
  8
0
 10
0.222331
 20
1.88569
 30
0.0
 40
0
 41
0
  0
VERTEX
  8
0
 10
0.224772
 20
1.89594
 30
0.0
 40
0
 41
0
  0
VERTEX
  8
0
 10
0.225424
 20
1.90446
 30
0.0
 40
0
 41
0
  0
VERTEX
  8
0
 10
0.225586
 20
1.90642
 30
0.0
 40
0
 41
0
  0
VERTEX
  8
0
 10
0.224772
 20
1.91689
 30
0.0
 40
0
 41
0
  0
VERTEX
  8
0
 10
0.222331
 20
1.92714
 30
0.0
 40
0
 41
0
  0
VERTEX
  8
0
 10
0.218317
 20
1.93685
 30
0.0
 40
0
 41
0
  0
VERTEX
  8
0
 10
0.212782
 20
1.94586
 30
0.0
 40
0
 41
0
  0
VERTEX
  8
0
 10
0.2079
 20
1.95161
 30
0.0
 40
0
 41
0
  0
VERTEX
  8
0
 10
0.206
 20
1.95383
 30
0.0
 40
0
 41
0
  0
VERTEX
  8
0
 10
0.197971
 20
1.96067
 30
0.0
 40
0
 41
0
  0
VERTEX
  8
0
 10
0.189019
 20
1.96615
 30
0.0
 40
0
 41
0
  0
VERTEX
  8
0
 10
0.179308
 20
1.97017
 30
0.0
 40
0
 41
0
  0
VERTEX
  8
0
 10
0.173557
 20
1.97157
 30
0.0
 40
0
 41
0
  0
VERTEX
  8
0
 10
0.170899
 20
1.97217
 30
0.0
 40
0
 41
0
  0
VERTEX
  8
0
 10
0.169054
 20
1.97265
 30
0.0
 40
0
 41
0
  0
VERTEX
  8
0
 10
0.158583
 20
1.97347
 30
0.0
 40
0
 41
0
  0
VERTEX
  8
0
 10
0.148112
 20
1.97265
 30
0.0
 40
0
 41
0
  0
VERTEX
  8
0
 10
0.137858
 20
1.97017
 30
0.0
 40
0
 41
0
  0
VERTEX
  8
0
 10
0.133735
 20
1.96843
 30
0.0
 40
0
 41
0
  0
VERTEX
  8
0
 10
0.128147
 20
1.96615
 30
0.0
 40
0
 41
0
  0
VERTEX
  8
0
 10
0.119195
 20
1.96067
 30
0.0
 40
0
 41
0
  0
VERTEX
  8
0
 10
0.111165
 20
1.95383
 30
0.0
 40
0
 41
0
  0
VERTEX
  8
0
 10
0.104384
 20
1.94586
 30
0.0
 40
0
 41
0
  0
VERTEX
  8
0
 10
0.0999892
 20
1.93875
 30
0.0
 40
0
 41
0
  0
VERTEX
  8
0
 10
0.0988499
 20
1.93685
 30
0.0
 40
0
 41
0
  0
VERTEX
  8
0
 10
0.0948351
 20
1.92714
 30
0.0
 40
0
 41
0
  0
VERTEX
  8
0
 10
0.0923394
 20
1.91689
 30
0.0
 40
0
 41
0
  0
VERTEX
  8
0
 10
0.0915256
 20
1.90642
 30
0.0
 40
0
 41
0
  0
VERTEX
  8
0
 10
0.0916883
 20
1.90446
 30
0.0
 40
0
 41
0
  0
VERTEX
  8
0
 10
0.0923394
 20
1.89594
 30
0.0
 40
0
 41
0
  0
VERTEX
  8
0
 10
0.0948351
 20
1.88569
 30
0.0
 40
0
 41
0
  0
VERTEX
  8
0
 10
0.0953233
 20
1.88456
 30
0.0
 40
0
 41
0
  0
VERTEX
  8
0
 10
0.0988499
 20
1.87597
 30
0.0
 40
0
 41
0
  0
VERTEX
  8
0
 10
0.104384
 20
1.86703
 30
0.0
 40
0
 41
0
  0
VERTEX
  8
0
 10
0.111165
 20
1.859
 30
0.0
 40
0
 41
0
  0
VERTEX
  8
0
 10
0.119195
 20
1.85221
 30
0.0
 40
0
 41
0
  0
VERTEX
  8
0
 10
0.125108
 20
1.84858
 30
0.0
 40
0
 41
0
  0
VERTEX
  8
0
 10
0.128147
 20
1.84668
 30
0.0
 40
0
 41
0
  0
VERTEX
  8
0
 10
0.137858
 20
1.84267
 30
0.0
 40
0
 41
0
  0
VERTEX
  8
0
 10
0.148112
 20
1.84022
 30
0.0
 40
0
 41
0
  0
VERTEX
  8
0
 10
0.158583
 20
1.83942
 30
0.0
 40
0
 41
0
  0
VERTEX
  8
0
 10
0.167046
 20
1.84006
 30
0.0
 40
0
 41
0
  0
VERTEX
  8
0
 10
0.169054
 20
1.84022
 30
0.0
 40
0
 41
0
  0
VERTEX
  8
0
 10
0.170899
 20
1.84065
 30
0.0
 40
0
 41
0
  0
VERTEX
  8
0
 10
0.179308
 20
1.84267
 30
0.0
 40
0
 41
0
  0
VERTEX
  8
0
 10
0.189019
 20
1.84668
 30
0.0
 40
0
 41
0
  0
VERTEX
  8
0
 10
0.197971
 20
1.85221
 30
0.0
 40
0
 41
0
  0
VERTEX
  8
0
 10
0.206
 20
1.859
 30
0.0
 40
0
 41
0
  0
VERTEX
  8
0
 10
0.212782
 20
1.86703
 30
0.0
 40
0
 41
0
  0
VERTEX
  8
0
 10
0.215278
 20
1.87104
 30
0.0
 40
0
 41
0
  0
VERTEX
  8
0
 10
0.218317
 20
1.87597
 30
0.0
 40
0
 41
0
  0
VERTEX
  8
0
 10
0.219456
 20
1.87875
 30
0.0
 40
0
 41
0
  0
SEQEND
 8
0
  0
POLYLINE
  8
0
 62
     254
 66
     1
 10
0
 20
0
 30
0.0
 70
     1
 40
0
 41
0
  0
VERTEX
  8
0
 10
0.219456
 20
4.37039
 30
0.0
 40
0
 41
0
  0
VERTEX
  8
0
 10
0.222331
 20
4.37722
 30
0.0
 40
0
 41
0
  0
VERTEX
  8
0
 10
0.224772
 20
4.38747
 30
0.0
 40
0
 41
0
  0
VERTEX
  8
0
 10
0.225586
 20
4.398
 30
0.0
 40
0
 41
0
  0
VERTEX
  8
0
 10
0.225097
 20
4.40397
 30
0.0
 40
0
 41
0
  0
VERTEX
  8
0
 10
0.224772
 20
4.40847
 30
0.0
 40
0
 41
0
  0
VERTEX
  8
0
 10
0.222331
 20
4.41872
 30
0.0
 40
0
 41
0
  0
VERTEX
  8
0
 10
0.218317
 20
4.42839
 30
0.0
 40
0
 41
0
  0
VERTEX
  8
0
 10
0.212782
 20
4.43739
 30
0.0
 40
0
 41
0
  0
VERTEX
  8
0
 10
0.207954
 20
4.44303
 30
0.0
 40
0
 41
0
  0
VERTEX
  8
0
 10
0.206
 20
4.44536
 30
0.0
 40
0
 41
0
  0
VERTEX
  8
0
 10
0.197971
 20
4.45221
 30
0.0
 40
0
 41
0
  0
VERTEX
  8
0
 10
0.189019
 20
4.45768
 30
0.0
 40
0
 41
0
  0
VERTEX
  8
0
 10
0.179308
 20
4.46175
 30
0.0
 40
0
 41
0
  0
VERTEX
  8
0
 10
0.17334
 20
4.46317
 30
0.0
 40
0
 41
0
  0
VERTEX
  8
0
 10
0.170899
 20
4.46376
 30
0.0
 40
0
 41
0
  0
VERTEX
  8
0
 10
0.169054
 20
4.46419
 30
0.0
 40
0
 41
0
  0
VERTEX
  8
0
 10
0.158583
 20
4.465
 30
0.0
 40
0
 41
0
  0
VERTEX
  8
0
 10
0.148112
 20
4.46419
 30
0.0
 40
0
 41
0
  0
VERTEX
  8
0
 10
0.137858
 20
4.46175
 30
0.0
 40
0
 41
0
  0
VERTEX
  8
0
 10
0.133084
 20
4.45975
 30
0.0
 40
0
 41
0
  0
VERTEX
  8
0
 10
0.128147
 20
4.45768
 30
0.0
 40
0
 41
0
  0
VERTEX
  8
0
 10
0.119195
 20
4.45221
 30
0.0
 40
0
 41
0
  0
VERTEX
  8
0
 10
0.111165
 20
4.44536
 30
0.0
 40
0
 41
0
  0
VERTEX
  8
0
 10
0.104384
 20
4.43739
 30
0.0
 40
0
 41
0
  0
VERTEX
  8
0
 10
0.101888
 20
4.43332
 30
0.0
 40
0
 41
0
  0
VERTEX
  8
0
 10
0.0988499
 20
4.42839
 30
0.0
 40
0
 41
0
  0
VERTEX
  8
0
 10
0.0948351
 20
4.41872
 30
0.0
 40
0
 41
0
  0
VERTEX
  8
0
 10
0.0923394
 20
4.40847
 30
0.0
 40
0
 41
0
  0
VERTEX
  8
0
 10
0.0920139
 20
4.40397
 30
0.0
 40
0
 41
0
  0
VERTEX
  8
0
 10
0.0915256
 20
4.398
 30
0.0
 40
0
 41
0
  0
VERTEX
  8
0
 10
0.0923394
 20
4.38747
 30
0.0
 40
0
 41
0
  0
VERTEX
  8
0
 10
0.0948351
 20
4.37722
 30
0.0
 40
0
 41
0
  0
VERTEX
  8
0
 10
0.0953233
 20
4.37608
 30
0.0
 40
0
 41
0
  0
VERTEX
  8
0
 10
0.0988499
 20
4.36757
 30
0.0
 40
0
 41
0
  0
VERTEX
  8
0
 10
0.104384
 20
4.35856
 30
0.0
 40
0
 41
0
  0
VERTEX
  8
0
 10
0.111165
 20
4.35058
 30
0.0
 40
0
 41
0
  0
VERTEX
  8
0
 10
0.119195
 20
4.34375
 30
0.0
 40
0
 41
0
  0
VERTEX
  8
0
 10
0.121473
 20
4.34233
 30
0.0
 40
0
 41
0
  0
VERTEX
  8
0
 10
0.125
 20
4.34022
 30
0.0
 40
0
 41
0
  0
VERTEX
  8
0
 10
0.128147
 20
4.33826
 30
0.0
 40
0
 41
0
  0
VERTEX
  8
0
 10
0.137858
 20
4.33421
 30
0.0
 40
0
 41
0
  0
VERTEX
  8
0
 10
0.148112
 20
4.33176
 30
0.0
 40
0
 41
0
  0
VERTEX
  8
0
 10
0.158583
 20
4.33094
 30
0.0
 40
0
 41
0
  0
VERTEX
  8
0
 10
0.166558
 20
4.3316
 30
0.0
 40
0
 41
0
  0
VERTEX
  8
0
 10
0.169054
 20
4.33176
 30
0.0
 40
0
 41
0
  0
VERTEX
  8
0
 10
0.170899
 20
4.33219
 30
0.0
 40
0
 41
0
  0
VERTEX
  8
0
 10
0.179308
 20
4.33421
 30
0.0
 40
0
 41
0
  0
VERTEX
  8
0
 10
0.189019
 20
4.33826
 30
0.0
 40
0
 41
0
  0
VERTEX
  8
0
 10
0.197971
 20
4.34375
 30
0.0
 40
0
 41
0
  0
VERTEX
  8
0
 10
0.206
 20
4.35058
 30
0.0
 40
0
 41
0
  0
VERTEX
  8
0
 10
0.212782
 20
4.35856
 30
0.0
 40
0
 41
0
  0
VERTEX
  8
0
 10
0.214572
 20
4.36149
 30
0.0
 40
0
 41
0
  0
VERTEX
  8
0
 10
0.218317
 20
4.36757
 30
0.0
 40
0
 41
0
  0
VERTEX
  8
0
 10
0.219456
 20
4.37039
 30
0.0
 40
0
 41
0
  0
SEQEND
 8
0
  0
POLYLINE
  8
0
 62
     254
 66
     1
 10
0
 20
0
 30
0.0
 70
     1
 40
0
 41
0
  0
VERTEX
  8
0
 10
0.118001
 20
2.83344
 30
0.0
 40
0
 41
0
  0
VERTEX
  8
0
 10
0.118001
 20
2.21317
 30
0.0
 40
0
 41
0
  0
VERTEX
  8
0
 10
0.19694
 20
2.21317
 30
0.0
 40
0
 41
0
  0
VERTEX
  8
0
 10
0.19694
 20
2.21343
 30
0.0
 40
0
 41
0
  0
VERTEX
  8
0
 10
0.2398
 20
2.21343
 30
0.0
 40
0
 41
0
  0
VERTEX
  8
0
 10
0.2398
 20
2.83371
 30
0.0
 40
0
 41
0
  0
VERTEX
  8
0
 10
0.121473
 20
2.83371
 30
0.0
 40
0
 41
0
  0
VERTEX
  8
0
 10
0.121473
 20
2.83344
 30
0.0
 40
0
 41
0
  0
VERTEX
  8
0
 10
0.118001
 20
2.83344
 30
0.0
 40
0
 41
0
  0
SEQEND
 8
0
  0
POLYLINE
  8
0
 62
     254
 66
     1
 10
0
 20
0
 30
0.0
 70
     1
 40
0
 41
0
  0
VERTEX
  8
0
 10
0.118001
 20
3.84722
 30
0.0
 40
0
 41
0
  0
VERTEX
  8
0
 10
0.118001
 20
2.98085
 30
0.0
 40
0
 41
0
  0
VERTEX
  8
0
 10
0.19694
 20
2.98085
 30
0.0
 40
0
 41
0
  0
VERTEX
  8
0
 10
0.19694
 20
2.98113
 30
0.0
 40
0
 41
0
  0
VERTEX
  8
0
 10
0.2398
 20
2.98113
 30
0.0
 40
0
 41
0
  0
VERTEX
  8
0
 10
0.2398
 20
3.8475
 30
0.0
 40
0
 41
0
  0
VERTEX
  8
0
 10
0.121473
 20
3.8475
 30
0.0
 40
0
 41
0
  0
VERTEX
  8
0
 10
0.121473
 20
3.84722
 30
0.0
 40
0
 41
0
  0
VERTEX
  8
0
 10
0.118001
 20
3.84722
 30
0.0
 40
0
 41
0
  0
SEQEND
 8
0
  0
POLYLINE
  8
0
 62
     254
 66
     1
 10
0
 20
0
 30
0.0
 70
     1
 40
0
 41
0
  0
VERTEX
  8
0
 10
0.0945096
 20
0.352376
 30
0.0
 40
0
 41
0
  0
VERTEX
  8
0
 10
0.0923394
 20
0.343425
 30
0.0
 40
0
 41
0
  0
VERTEX
  8
0
 10
0.0915256
 20
0.3329
 30
0.0
 40
0
 41
0
  0
VERTEX
  8
0
 10
0.0923394
 20
0.322428
 30
0.0
 40
0
 41
0
  0
VERTEX
  8
0
 10
0.0948351
 20
0.312229
 30
0.0
 40
0
 41
0
  0
VERTEX
  8
0
 10
0.0955404
 20
0.310493
 30
0.0
 40
0
 41
0
  0
VERTEX
  8
0
 10
0.0988499
 20
0.302463
 30
0.0
 40
0
 41
0
  0
VERTEX
  8
0
 10
0.104384
 20
0.293511
 30
0.0
 40
0
 41
0
  0
VERTEX
  8
0
 10
0.105794
 20
0.291829
 30
0.0
 40
0
 41
0
  0
VERTEX
  8
0
 10
0.111165
 20
0.285536
 30
0.0
 40
0
 41
0
  0
VERTEX
  8
0
 10
0.119195
 20
0.2787
 30
0.0
 40
0
 41
0
  0
VERTEX
  8
0
 10
0.124132
 20
0.275663
 30
0.0
 40
0
 41
0
  0
VERTEX
  8
0
 10
0.128147
 20
0.273167
 30
0.0
 40
0
 41
0
  0
VERTEX
  8
0
 10
0.137858
 20
0.269151
 30
0.0
 40
0
 41
0
  0
VERTEX
  8
0
 10
0.148112
 20
0.26671
 30
0.0
 40
0
 41
0
  0
VERTEX
  8
0
 10
0.158583
 20
0.265896
 30
0.0
 40
0
 41
0
  0
VERTEX
  8
0
 10
0.164551
 20
0.266385
 30
0.0
 40
0
 41
0
  0
VERTEX
  8
0
 10
0.169054
 20
0.26671
 30
0.0
 40
0
 41
0
  0
VERTEX
  8
0
 10
0.179308
 20
0.269151
 30
0.0
 40
0
 41
0
  0
VERTEX
  8
0
 10
0.189019
 20
0.273167
 30
0.0
 40
0
 41
0
  0
VERTEX
  8
0
 10
0.197971
 20
0.2787
 30
0.0
 40
0
 41
0
  0
VERTEX
  8
0
 10
0.202963
 20
0.282932
 30
0.0
 40
0
 41
0
  0
VERTEX
  8
0
 10
0.206
 20
0.285536
 30
0.0
 40
0
 41
0
  0
VERTEX
  8
0
 10
0.210232
 20
0.290528
 30
0.0
 40
0
 41
0
  0
VERTEX
  8
0
 10
0.211372
 20
0.291829
 30
0.0
 40
0
 41
0
  0
VERTEX
  8
0
 10
0.212782
 20
0.293511
 30
0.0
 40
0
 41
0
  0
VERTEX
  8
0
 10
0.218317
 20
0.302463
 30
0.0
 40
0
 41
0
  0
VERTEX
  8
0
 10
0.219347
 20
0.305012
 30
0.0
 40
0
 41
0
  0
VERTEX
  8
0
 10
0.222331
 20
0.312229
 30
0.0
 40
0
 41
0
  0
VERTEX
  8
0
 10
0.224772
 20
0.322428
 30
0.0
 40
0
 41
0
  0
VERTEX
  8
0
 10
0.225586
 20
0.3329
 30
0.0
 40
0
 41
0
  0
VERTEX
  8
0
 10
0.224772
 20
0.343425
 30
0.0
 40
0
 41
0
  0
VERTEX
  8
0
 10
0.222601
 20
0.352376
 30
0.0
 40
0
 41
0
  0
VERTEX
  8
0
 10
0.222331
 20
0.353624
 30
0.0
 40
0
 41
0
  0
VERTEX
  8
0
 10
0.218317
 20
0.363336
 30
0.0
 40
0
 41
0
  0
VERTEX
  8
0
 10
0.212782
 20
0.372342
 30
0.0
 40
0
 41
0
  0
VERTEX
  8
0
 10
0.207736
 20
0.378256
 30
0.0
 40
0
 41
0
  0
VERTEX
  8
0
 10
0.206
 20
0.380317
 30
0.0
 40
0
 41
0
  0
VERTEX
  8
0
 10
0.197971
 20
0.387153
 30
0.0
 40
0
 41
0
  0
VERTEX
  8
0
 10
0.189019
 20
0.392632
 30
0.0
 40
0
 41
0
  0
VERTEX
  8
0
 10
0.179308
 20
0.396647
 30
0.0
 40
0
 41
0
  0
VERTEX
  8
0
 10
0.171767
 20
0.398492
 30
0.0
 40
0
 41
0
  0
VERTEX
  8
0
 10
0.170899
 20
0.398708
 30
0.0
 40
0
 41
0
  0
VERTEX
  8
0
 10
0.169054
 20
0.399143
 30
0.0
 40
0
 41
0
  0
VERTEX
  8
0
 10
0.158583
 20
0.399957
 30
0.0
 40
0
 41
0
  0
VERTEX
  8
0
 10
0.148112
 20
0.399143
 30
0.0
 40
0
 41
0
  0
VERTEX
  8
0
 10
0.137858
 20
0.396647
 30
0.0
 40
0
 41
0
  0
VERTEX
  8
0
 10
0.131076
 20
0.393826
 30
0.0
 40
0
 41
0
  0
VERTEX
  8
0
 10
0.128147
 20
0.392632
 30
0.0
 40
0
 41
0
  0
VERTEX
  8
0
 10
0.119195
 20
0.387153
 30
0.0
 40
0
 41
0
  0
VERTEX
  8
0
 10
0.111165
 20
0.380317
 30
0.0
 40
0
 41
0
  0
VERTEX
  8
0
 10
0.104492
 20
0.372504
 30
0.0
 40
0
 41
0
  0
VERTEX
  8
0
 10
0.104384
 20
0.372342
 30
0.0
 40
0
 41
0
  0
VERTEX
  8
0
 10
0.100803
 20
0.366536
 30
0.0
 40
0
 41
0
  0
VERTEX
  8
0
 10
0.0988499
 20
0.363336
 30
0.0
 40
0
 41
0
  0
VERTEX
  8
0
 10
0.0948351
 20
0.353624
 30
0.0
 40
0
 41
0
  0
VERTEX
  8
0
 10
0.0945096
 20
0.352376
 30
0.0
 40
0
 41
0
  0
SEQEND
 8
0
  0
POLYLINE
  8
0
 62
     254
 66
     1
 10
0
 20
0
 30
0.0
 70
     1
 40
0
 41
0
  0
VERTEX
  8
0
 10
0.393935
 20
6.41758
 30
0.0
 40
0
 41
0
  0
VERTEX
  8
0
 10
0.398383
 20
6.41971
 30
0.0
 40
0
 41
0
  0
VERTEX
  8
0
 10
0.399849
 20
6.42046
 30
0.0
 40
0
 41
0
  0
VERTEX
  8
0
 10
0.405436
 20
6.42378
 30
0.0
 40
0
 41
0
  0
VERTEX
  8
0
 10
0.410699
 20
6.42774
 30
0.0
 40
0
 41
0
  0
VERTEX
  8
0
 10
0.412815
 20
6.42964
 30
0.0
 40
0
 41
0
  0
VERTEX
  8
0
 10
0.415528
 20
6.43213
 30
0.0
 40
0
 41
0
  0
VERTEX
  8
0
 10
0.419922
 20
6.43701
 30
0.0
 40
0
 41
0
  0
VERTEX
  8
0
 10
0.423828
 20
6.44228
 30
0.0
 40
0
 41
0
  0
VERTEX
  8
0
 10
0.427192
 20
6.44792
 30
0.0
 40
0
 41
0
  0
VERTEX
  8
0
 10
0.429958
 20
6.45389
 30
0.0
 40
0
 41
0
  0
VERTEX
  8
0
 10
0.432183
 20
6.46007
 30
0.0
 40
0
 41
0
  0
VERTEX
  8
0
 10
0.433757
 20
6.46647
 30
0.0
 40
0
 41
0
  0
VERTEX
  8
0
 10
0.434733
 20
6.47299
 30
0.0
 40
0
 41
0
  0
VERTEX
  8
0
 10
0.435058
 20
6.47954
 30
0.0
 40
0
 41
0
  0
VERTEX
  8
0
 10
0.434733
 20
6.48611
 30
0.0
 40
0
 41
0
  0
VERTEX
  8
0
 10
0.433757
 20
6.49262
 30
0.0
 40
0
 41
0
  0
VERTEX
  8
0
 10
0.432183
 20
6.49897
 30
0.0
 40
0
 41
0
  0
VERTEX
  8
0
 10
0.431694
 20
6.50038
 30
0.0
 40
0
 41
0
  0
VERTEX
  8
0
 10
0.429958
 20
6.50521
 30
0.0
 40
0
 41
0
  0
VERTEX
  8
0
 10
0.427192
 20
6.51112
 30
0.0
 40
0
 41
0
  0
VERTEX
  8
0
 10
0.423828
 20
6.51676
 30
0.0
 40
0
 41
0
  0
VERTEX
  8
0
 10
0.419922
 20
6.52203
 30
0.0
 40
0
 41
0
  0
VERTEX
  8
0
 10
0.415528
 20
6.52692
 30
0.0
 40
0
 41
0
  0
VERTEX
  8
0
 10
0.412815
 20
6.52946
 30
0.0
 40
0
 41
0
  0
VERTEX
  8
0
 10
0.410699
 20
6.53136
 30
0.0
 40
0
 41
0
  0
VERTEX
  8
0
 10
0.405436
 20
6.53526
 30
0.0
 40
0
 41
0
  0
VERTEX
  8
0
 10
0.399849
 20
6.53863
 30
0.0
 40
0
 41
0
  0
VERTEX
  8
0
 10
0.393935
 20
6.54144
 30
0.0
 40
0
 41
0
  0
VERTEX
  8
0
 10
0.387804
 20
6.54368
 30
0.0
 40
0
 41
0
  0
VERTEX
  8
0
 10
0.381456
 20
6.54531
 30
0.0
 40
0
 41
0
  0
VERTEX
  8
0
 10
0.374946
 20
6.54622
 30
0.0
 40
0
 41
0
  0
VERTEX
  8
0
 10
0.36849
 20
6.5466
 30
0.0
 40
0
 41
0
  0
VERTEX
  8
0
 10
0.361925
 20
6.54622
 30
0.0
 40
0
 41
0
  0
VERTEX
  8
0
 10
0.355469
 20
6.54531
 30
0.0
 40
0
 41
0
  0
VERTEX
  8
0
 10
0.349121
 20
6.54368
 30
0.0
 40
0
 41
0
  0
VERTEX
  8
0
 10
0.342936
 20
6.54144
 30
0.0
 40
0
 41
0
  0
VERTEX
  8
0
 10
0.337022
 20
6.53863
 30
0.0
 40
0
 41
0
  0
VERTEX
  8
0
 10
0.33214
 20
6.53569
 30
0.0
 40
0
 41
0
  0
VERTEX
  8
0
 10
0.331435
 20
6.53526
 30
0.0
 40
0
 41
0
  0
VERTEX
  8
0
 10
0.326172
 20
6.53136
 30
0.0
 40
0
 41
0
  0
VERTEX
  8
0
 10
0.321343
 20
6.52692
 30
0.0
 40
0
 41
0
  0
VERTEX
  8
0
 10
0.316949
 20
6.52203
 30
0.0
 40
0
 41
0
  0
VERTEX
  8
0
 10
0.313097
 20
6.51676
 30
0.0
 40
0
 41
0
  0
VERTEX
  8
0
 10
0.309733
 20
6.51112
 30
0.0
 40
0
 41
0
  0
VERTEX
  8
0
 10
0.306913
 20
6.50521
 30
0.0
 40
0
 41
0
  0
VERTEX
  8
0
 10
0.305231
 20
6.50038
 30
0.0
 40
0
 41
0
  0
VERTEX
  8
0
 10
0.304742
 20
6.49897
 30
0.0
 40
0
 41
0
  0
VERTEX
  8
0
 10
0.303114
 20
6.49262
 30
0.0
 40
0
 41
0
  0
VERTEX
  8
0
 10
0.302192
 20
6.48611
 30
0.0
 40
0
 41
0
  0
VERTEX
  8
0
 10
0.301867
 20
6.47954
 30
0.0
 40
0
 41
0
  0
VERTEX
  8
0
 10
0.302192
 20
6.47299
 30
0.0
 40
0
 41
0
  0
VERTEX
  8
0
 10
0.303114
 20
6.46647
 30
0.0
 40
0
 41
0
  0
VERTEX
  8
0
 10
0.304742
 20
6.46007
 30
0.0
 40
0
 41
0
  0
VERTEX
  8
0
 10
0.306913
 20
6.45389
 30
0.0
 40
0
 41
0
  0
VERTEX
  8
0
 10
0.309733
 20
6.44792
 30
0.0
 40
0
 41
0
  0
VERTEX
  8
0
 10
0.313097
 20
6.44228
 30
0.0
 40
0
 41
0
  0
VERTEX
  8
0
 10
0.316949
 20
6.43701
 30
0.0
 40
0
 41
0
  0
VERTEX
  8
0
 10
0.321343
 20
6.43213
 30
0.0
 40
0
 41
0
  0
VERTEX
  8
0
 10
0.326172
 20
6.42774
 30
0.0
 40
0
 41
0
  0
VERTEX
  8
0
 10
0.331435
 20
6.42378
 30
0.0
 40
0
 41
0
  0
VERTEX
  8
0
 10
0.33214
 20
6.42333
 30
0.0
 40
0
 41
0
  0
VERTEX
  8
0
 10
0.337022
 20
6.42046
 30
0.0
 40
0
 41
0
  0
VERTEX
  8
0
 10
0.338542
 20
6.41971
 30
0.0
 40
0
 41
0
  0
VERTEX
  8
0
 10
0.342936
 20
6.41758
 30
0.0
 40
0
 41
0
  0
VERTEX
  8
0
 10
0.349121
 20
6.41542
 30
0.0
 40
0
 41
0
  0
VERTEX
  8
0
 10
0.355469
 20
6.41379
 30
0.0
 40
0
 41
0
  0
VERTEX
  8
0
 10
0.361925
 20
6.41282
 30
0.0
 40
0
 41
0
  0
VERTEX
  8
0
 10
0.36849
 20
6.41254
 30
0.0
 40
0
 41
0
  0
VERTEX
  8
0
 10
0.374946
 20
6.41282
 30
0.0
 40
0
 41
0
  0
VERTEX
  8
0
 10
0.381456
 20
6.41379
 30
0.0
 40
0
 41
0
  0
VERTEX
  8
0
 10
0.387804
 20
6.41542
 30
0.0
 40
0
 41
0
  0
VERTEX
  8
0
 10
0.393935
 20
6.41758
 30
0.0
 40
0
 41
0
  0
SEQEND
 8
0
  0
POLYLINE
  8
0
 62
     254
 66
     1
 10
0
 20
0
 30
0.0
 70
     1
 40
0
 41
0
  0
VERTEX
  8
0
 10
0.959907
 20
3.7035
 30
0.0
 40
0
 41
0
  0
VERTEX
  8
0
 10
0.959907
 20
3.90235
 30
0.0
 40
0
 41
0
  0
VERTEX
  8
0
 10
0.886556
 20
3.90235
 30
0.0
 40
0
 41
0
  0
VERTEX
  8
0
 10
0.886556
 20
3.7035
 30
0.0
 40
0
 41
0
  0
VERTEX
  8
0
 10
0.959907
 20
3.7035
 30
0.0
 40
0
 41
0
  0
SEQEND
 8
0
  0
POLYLINE
  8
0
 62
     254
 66
     1
 10
0
 20
0
 30
0.0
 70
     1
 40
0
 41
0
  0
VERTEX
  8
0
 10
0.747993
 20
5.3719
 30
0.0
 40
0
 41
0
  0
VERTEX
  8
0
 10
0.889268
 20
5.45344
 30
0.0
 40
0
 41
0
  0
VERTEX
  8
0
 10
0.889268
 20
5.6166
 30
0.0
 40
0
 41
0
  0
VERTEX
  8
0
 10
0.747993
 20
5.69814
 30
0.0
 40
0
 41
0
  0
VERTEX
  8
0
 10
0.606717
 20
5.6166
 30
0.0
 40
0
 41
0
  0
VERTEX
  8
0
 10
0.606717
 20
5.45344
 30
0.0
 40
0
 41
0
  0
VERTEX
  8
0
 10
0.747993
 20
5.3719
 30
0.0
 40
0
 41
0
  0
SEQEND
 8
0
  0
POLYLINE
  8
0
 62
     1
 66
     1
 10
0
 20
0
 30
0.0
 70
     1
 40
0.0107136
 41
0.0107136
  0
VERTEX
  8
0
 10
1.24892
 20
6.56928
 30
0.0
 40
0.0001488
 41
0.0001488
  0
VERTEX
  8
0
 10
1.24892
 20
4.63906
 30
0.0
 40
0.0001488
 41
0.0001488
  0
VERTEX
  8
0
 10
1.2525
 20
4.63906
 30
0.0
 40
0.0001488
 41
0.0001488
  0
VERTEX
  8
0
 10
1.3125
 20
4.60878
 30
0.0
 40
0.0001488
 41
0.0001488
  0
VERTEX
  8
0
 10
1.31424
 20
4.60792
 30
0.0
 40
0.0001488
 41
0.0001488
  0
VERTEX
  8
0
 10
1.40474
 20
4.56228
 30
0.0
 40
0.0001488
 41
0.0001488
  0
VERTEX
  8
0
 10
1.41612
 20
4.55653
 30
0.0
 40
0.0001488
 41
0.0001488
  0
VERTEX
  8
0
 10
1.45671
 20
4.53608
 30
0.0
 40
0.0001488
 41
0.0001488
  0
VERTEX
  8
0
 10
1.45671
 20
1.71718
 30
0.0
 40
0.0001488
 41
0.0001488
  0
VERTEX
  8
0
 10
1.42942
 20
1.6976
 30
0.0
 40
0.0001488
 41
0.0001488
  0
VERTEX
  8
0
 10
1.42839
 20
1.69683
 30
0.0
 40
0.0001488
 41
0.0001488
  0
VERTEX
  8
0
 10
1.37788
 20
1.66043
 30
0.0
 40
0.0001488
 41
0.0001488
  0
VERTEX
  8
0
 10
1.37788
 20
1.18788
 30
0.0
 40
0.0001488
 41
0.0001488
  0
VERTEX
  8
0
 10
1.45671
 20
1.13113
 30
0.0
 40
0.0001488
 41
0.0001488
  0
VERTEX
  8
0
 10
1.45671
 20
0.175836
 30
0.0
 40
0.0001488
 41
0.0001488
  0
VERTEX
  8
0
 10
1.44997
 20
0.175836
 30
0.0
 40
0.0001488
 41
0.0001488
  0
VERTEX
  8
0
 10
1.22119
 20
0.0639649
 30
0.0
 40
0.0001488
 41
0.0001488
  0
VERTEX
  8
0
 10
1.21832
 20
0.0625543
 30
0.0
 40
0.0001488
 41
0.0001488
  0
VERTEX
  8
0
 10
1.21468
 20
0.0608182
 30
0.0
 40
0.0001488
 41
0.0001488
  0
VERTEX
  8
0
 10
1.18777
 20
0.0476346
 30
0.0
 40
0.0001488
 41
0.0001488
  0
VERTEX
  8
0
 10
1.18479
 20
0.0461697
 30
0.0
 40
0.0001488
 41
0.0001488
  0
VERTEX
  8
0
 10
1.18479
 20
0.046224
 30
0.0
 40
0.0001488
 41
0.0001488
  0
VERTEX
  8
0
 10
1.16368
 20
0.060981
 30
0.0
 40
0.0001488
 41
0.0001488
  0
VERTEX
  8
0
 10
1.11003
 20
0.0985243
 30
0.0
 40
0.0001488
 41
0.0001488
  0
VERTEX
  8
0
 10
1.11003
 20
0.463758
 30
0.0
 40
0.0001488
 41
0.0001488
  0
VERTEX
  8
0
 10
1.01091
 20
0.533094
 30
0.0
 40
0.0001488
 41
0.0001488
  0
VERTEX
  8
0
 10
0.909125
 20
0.604329
 30
0.0
 40
0.0001488
 41
0.0001488
  0
VERTEX
  8
0
 10
0.748047
 20
0.717014
 30
0.0
 40
0.0001488
 41
0.0001488
  0
VERTEX
  8
0
 10
0.586968
 20
0.604329
 30
0.0
 40
0.0001488
 41
0.0001488
  0
VERTEX
  8
0
 10
0.48291
 20
0.531521
 30
0.0
 40
0.0001488
 41
0.0001488
  0
VERTEX
  8
0
 10
0.400336
 20
0.473796
 30
0.0
 40
0.0001488
 41
0.0001488
  0
VERTEX
  8
0
 10
0.386068
 20
0.463758
 30
0.0
 40
0.0001488
 41
0.0001488
  0
VERTEX
  8
0
 10
0.386068
 20
0.0985243
 30
0.0
 40
0.0001488
 41
0.0001488
  0
VERTEX
  8
0
 10
0.337076
 20
0.0642361
 30
0.0
 40
0.0001488
 41
0.0001488
  0
VERTEX
  8
0
 10
0.333442
 20
0.0617404
 30
0.0
 40
0.0001488
 41
0.0001488
  0
VERTEX
  8
0
 10
0.311253
 20
0.046224
 30
0.0
 40
0.0001488
 41
0.0001488
  0
VERTEX
  8
0
 10
0.306694
 20
0.0484483
 30
0.0
 40
0.0001488
 41
0.0001488
  0
VERTEX
  8
0
 10
0.282443
 20
0.0603299
 30
0.0
 40
0.0001488
 41
0.0001488
  0
VERTEX
  8
0
 10
0.272624
 20
0.0651042
 30
0.0
 40
0.0001488
 41
0.0001488
  0
VERTEX
  8
0
 10
0.249132
 20
0.076606
 30
0.0
 40
0.0001488
 41
0.0001488
  0
VERTEX
  8
0
 10
0.0461154
 20
0.175836
 30
0.0
 40
0.0001488
 41
0.0001488
  0
VERTEX
  8
0
 10
0.0393881
 20
0.175836
 30
0.0
 40
0.0001488
 41
0.0001488
  0
VERTEX
  8
0
 10
0.0393881
 20
1.13108
 30
0.0
 40
0.0001488
 41
0.0001488
  0
VERTEX
  8
0
 10
0.118218
 20
1.18788
 30
0.0
 40
0.0001488
 41
0.0001488
  0
VERTEX
  8
0
 10
0.118218
 20
1.66043
 30
0.0
 40
0.0001488
 41
0.0001488
  0
VERTEX
  8
0
 10
0.0915256
 20
1.67969
 30
0.0
 40
0.0001488
 41
0.0001488
  0
VERTEX
  8
0
 10
0.0429144
 20
1.71468
 30
0.0
 40
0.0001488
 41
0.0001488
  0
VERTEX
  8
0
 10
0.0393881
 20
1.71724
 30
0.0
 40
0.0001488
 41
0.0001488
  0
VERTEX
  8
0
 10
0.0393881
 20
4.53999
 30
0.0
 40
0.0001488
 41
0.0001488
  0
VERTEX
  8
0
 10
0.0774197
 20
4.55919
 30
0.0
 40
0.0001488
 41
0.0001488
  0
VERTEX
  8
0
 10
0.0915256
 20
4.56629
 30
0.0
 40
0.0001488
 41
0.0001488
  0
VERTEX
  8
0
 10
0.181261
 20
4.61154
 30
0.0
 40
0.0001488
 41
0.0001488
  0
VERTEX
  8
0
 10
0.244194
 20
4.64333
 30
0.0
 40
0.0001488
 41
0.0001488
  0
VERTEX
  8
0
 10
0.244194
 20
4.6441
 30
0.0
 40
0.0001488
 41
0.0001488
  0
VERTEX
  8
0
 10
0.244683
 20
4.6441
 30
0.0
 40
0.0001488
 41
0.0001488
  0
VERTEX
  8
0
 10
0.244683
 20
6.56868
 30
0.0
 40
0.0001488
 41
0.0001488
  0
VERTEX
  8
0
 10
0.248481
 20
6.57053
 30
0.0
 40
0.0001488
 41
0.0001488
  0
VERTEX
  8
0
 10
0.249132
 20
6.57086
 30
0.0
 40
0.0001488
 41
0.0001488
  0
VERTEX
  8
0
 10
0.272624
 20
6.58231
 30
0.0
 40
0.0001488
 41
0.0001488
  0
VERTEX
  8
0
 10
0.281793
 20
6.58681
 30
0.0
 40
0.0001488
 41
0.0001488
  0
VERTEX
  8
0
 10
0.282443
 20
6.58713
 30
0.0
 40
0.0001488
 41
0.0001488
  0
VERTEX
  8
0
 10
0.33279
 20
6.61176
 30
0.0
 40
0.0001488
 41
0.0001488
  0
VERTEX
  8
0
 10
0.333442
 20
6.61208
 30
0.0
 40
0.0001488
 41
0.0001488
  0
VERTEX
  8
0
 10
0.336481
 20
6.61356
 30
0.0
 40
0.0001488
 41
0.0001488
  0
VERTEX
  8
0
 10
0.337076
 20
6.61382
 30
0.0
 40
0.0001488
 41
0.0001488
  0
VERTEX
  8
0
 10
0.371799
 20
6.63081
 30
0.0
 40
0.0001488
 41
0.0001488
  0
VERTEX
  8
0
 10
0.393013
 20
6.64117
 30
0.0
 40
0.0001488
 41
0.0001488
  0
VERTEX
  8
0
 10
0.51964
 20
6.64117
 30
0.0
 40
0.0001488
 41
0.0001488
  0
VERTEX
  8
0
 10
0.57015
 20
6.61203
 30
0.0
 40
0.0001488
 41
0.0001488
  0
VERTEX
  8
0
 10
0.57015
 20
6.37039
 30
0.0
 40
0.0001488
 41
0.0001488
  0
VERTEX
  8
0
 10
0.575846
 20
6.36604
 30
0.0
 40
0.0001488
 41
0.0001488
  0
VERTEX
  8
0
 10
0.646213
 20
6.31228
 30
0.0
 40
0.0001488
 41
0.0001488
  0
VERTEX
  8
0
 10
0.659831
 20
6.30192
 30
0.0
 40
0.0001488
 41
0.0001488
  0
VERTEX
  8
0
 10
0.669217
 20
6.29471
 30
0.0
 40
0.0001488
 41
0.0001488
  0
VERTEX
  8
0
 10
0.696832
 20
6.2736
 30
0.0
 40
0.0001488
 41
0.0001488
  0
VERTEX
  8
0
 10
0.746907
 20
6.23535
 30
0.0
 40
0.0001488
 41
0.0001488
  0
VERTEX
  8
0
 10
0.746907
 20
6.23546
 30
0.0
 40
0.0001488
 41
0.0001488
  0
VERTEX
  8
0
 10
0.747396
 20
6.23508
 30
0.0
 40
0.0001488
 41
0.0001488
  0
VERTEX
  8
0
 10
0.747885
 20
6.23546
 30
0.0
 40
0.0001488
 41
0.0001488
  0
VERTEX
  8
0
 10
0.747885
 20
6.23535
 30
0.0
 40
0.0001488
 41
0.0001488
  0
VERTEX
  8
0
 10
0.79796
 20
6.2736
 30
0.0
 40
0.0001488
 41
0.0001488
  0
VERTEX
  8
0
 10
0.825575
 20
6.29471
 30
0.0
 40
0.0001488
 41
0.0001488
  0
VERTEX
  8
0
 10
0.834961
 20
6.30192
 30
0.0
 40
0.0001488
 41
0.0001488
  0
VERTEX
  8
0
 10
0.848579
 20
6.31228
 30
0.0
 40
0.0001488
 41
0.0001488
  0
VERTEX
  8
0
 10
0.916775
 20
6.36436
 30
0.0
 40
0.0001488
 41
0.0001488
  0
VERTEX
  8
0
 10
0.916992
 20
6.36453
 30
0.0
 40
0.0001488
 41
0.0001488
  0
VERTEX
  8
0
 10
0.918946
 20
6.36604
 30
0.0
 40
0.0001488
 41
0.0001488
  0
VERTEX
  8
0
 10
0.924642
 20
6.37039
 30
0.0
 40
0.0001488
 41
0.0001488
  0
VERTEX
  8
0
 10
0.924642
 20
6.61203
 30
0.0
 40
0.0001488
 41
0.0001488
  0
VERTEX
  8
0
 10
0.946343
 20
6.62457
 30
0.0
 40
0.0001488
 41
0.0001488
  0
VERTEX
  8
0
 10
0.975097
 20
6.64117
 30
0.0
 40
0.0001488
 41
0.0001488
  0
VERTEX
  8
0
 10
1.10178
 20
6.64117
 30
0.0
 40
0.0001488
 41
0.0001488
  0
VERTEX
  8
0
 10
1.12364
 20
6.63049
 30
0.0
 40
0.0001488
 41
0.0001488
  0
VERTEX
  8
0
 10
1.16303
 20
6.61122
 30
0.0
 40
0.0001488
 41
0.0001488
  0
VERTEX
  8
0
 10
1.16368
 20
6.61094
 30
0.0
 40
0.0001488
 41
0.0001488
  0
VERTEX
  8
0
 10
1.16667
 20
6.60949
 30
0.0
 40
0.0001488
 41
0.0001488
  0
VERTEX
  8
0
 10
1.16726
 20
6.60915
 30
0.0
 40
0.0001488
 41
0.0001488
  0
VERTEX
  8
0
 10
1.18777
 20
6.59918
 30
0.0
 40
0.0001488
 41
0.0001488
  0
VERTEX
  8
0
 10
1.21403
 20
6.58632
 30
0.0
 40
0.0001488
 41
0.0001488
  0
VERTEX
  8
0
 10
1.21468
 20
6.58599
 30
0.0
 40
0.0001488
 41
0.0001488
  0
VERTEX
  8
0
 10
1.21767
 20
6.58453
 30
0.0
 40
0.0001488
 41
0.0001488
  0
VERTEX
  8
0
 10
1.21832
 20
6.58421
 30
0.0
 40
0.0001488
 41
0.0001488
  0
VERTEX
  8
0
 10
1.22119
 20
6.58279
 30
0.0
 40
0.0001488
 41
0.0001488
  0
VERTEX
  8
0
 10
1.24892
 20
6.56928
 30
0.0
 40
0.0001488
 41
0.0001488
  0
SEQEND
 8
0
  0
POLYLINE
  8
0
 62
     1
 66
     1
 10
0
 20
0
 30
0.0
 70
     1
 40
0.0107136
 41
0.0107136
  0
VERTEX
  8
0
 10
0.747558
 20
2.00987
 30
0.0
 40
0.0001488
 41
0.0001488
  0
VERTEX
  8
0
 10
0.747558
 20
2.01042
 30
0.0
 40
0.0001488
 41
0.0001488
  0
VERTEX
  8
0
 10
0.747071
 20
2.01069
 30
0.0
 40
0.0001488
 41
0.0001488
  0
VERTEX
  8
0
 10
0.667643
 20
1.96485
 30
0.0
 40
0.0001488
 41
0.0001488
  0
VERTEX
  8
0
 10
0.652453
 20
1.95606
 30
0.0
 40
0.0001488
 41
0.0001488
  0
VERTEX
  8
0
 10
0.632975
 20
1.94482
 30
0.0
 40
0.0001488
 41
0.0001488
  0
VERTEX
  8
0
 10
0.632975
 20
1.81315
 30
0.0
 40
0.0001488
 41
0.0001488
  0
VERTEX
  8
0
 10
0.653157
 20
1.80154
 30
0.0
 40
0.0001488
 41
0.0001488
  0
VERTEX
  8
0
 10
0.747071
 20
1.74729
 30
0.0
 40
0.0001488
 41
0.0001488
  0
VERTEX
  8
0
 10
0.747558
 20
1.74756
 30
0.0
 40
0.0001488
 41
0.0001488
  0
VERTEX
  8
0
 10
0.747558
 20
1.74815
 30
0.0
 40
0.0001488
 41
0.0001488
  0
VERTEX
  8
0
 10
0.748047
 20
1.74783
 30
0.0
 40
0.0001488
 41
0.0001488
  0
VERTEX
  8
0
 10
0.748481
 20
1.74815
 30
0.0
 40
0.0001488
 41
0.0001488
  0
VERTEX
  8
0
 10
0.748481
 20
1.74756
 30
0.0
 40
0.0001488
 41
0.0001488
  0
VERTEX
  8
0
 10
0.749024
 20
1.74729
 30
0.0
 40
0.0001488
 41
0.0001488
  0
VERTEX
  8
0
 10
0.842936
 20
1.80154
 30
0.0
 40
0.0001488
 41
0.0001488
  0
VERTEX
  8
0
 10
0.861111
 20
1.81201
 30
0.0
 40
0.0001488
 41
0.0001488
  0
VERTEX
  8
0
 10
0.863064
 20
1.81315
 30
0.0
 40
0.0001488
 41
0.0001488
  0
VERTEX
  8
0
 10
0.863064
 20
1.94482
 30
0.0
 40
0.0001488
 41
0.0001488
  0
VERTEX
  8
0
 10
0.843642
 20
1.95606
 30
0.0
 40
0.0001488
 41
0.0001488
  0
VERTEX
  8
0
 10
0.82845
 20
1.96485
 30
0.0
 40
0.0001488
 41
0.0001488
  0
VERTEX
  8
0
 10
0.749024
 20
2.01069
 30
0.0
 40
0.0001488
 41
0.0001488
  0
VERTEX
  8
0
 10
0.748481
 20
2.01042
 30
0.0
 40
0.0001488
 41
0.0001488
  0
VERTEX
  8
0
 10
0.748481
 20
2.00987
 30
0.0
 40
0.0001488
 41
0.0001488
  0
VERTEX
  8
0
 10
0.748047
 20
2.01014
 30
0.0
 40
0.0001488
 41
0.0001488
  0
VERTEX
  8
0
 10
0.747558
 20
2.00987
 30
0.0
 40
0.0001488
 41
0.0001488
  0
SEQEND
 8
0
  0
POLYLINE
  8
0
 62
     1
 66
     1
 10
0
 20
0
 30
0.0
 70
     1
 40
0.0107136
 41
0.0107136
  0
VERTEX
  8
0
 10
0.747558
 20
2.21035
 30
0.0
 40
0.0001488
 41
0.0001488
  0
VERTEX
  8
0
 10
0.748047
 20
2.21007
 30
0.0
 40
0.0001488
 41
0.0001488
  0
VERTEX
  8
0
 10
0.748481
 20
2.21035
 30
0.0
 40
0.0001488
 41
0.0001488
  0
VERTEX
  8
0
 10
0.748481
 20
2.20979
 30
0.0
 40
0.0001488
 41
0.0001488
  0
VERTEX
  8
0
 10
0.749024
 20
2.20947
 30
0.0
 40
0.0001488
 41
0.0001488
  0
VERTEX
  8
0
 10
0.798882
 20
2.23828
 30
0.0
 40
0.0001488
 41
0.0001488
  0
VERTEX
  8
0
 10
0.833876
 20
2.25851
 30
0.0
 40
0.0001488
 41
0.0001488
  0
VERTEX
  8
0
 10
0.863064
 20
2.27533
 30
0.0
 40
0.0001488
 41
0.0001488
  0
VERTEX
  8
0
 10
0.863064
 20
2.40707
 30
0.0
 40
0.0001488
 41
0.0001488
  0
VERTEX
  8
0
 10
0.861111
 20
2.40821
 30
0.0
 40
0.0001488
 41
0.0001488
  0
VERTEX
  8
0
 10
0.860026
 20
2.40881
 30
0.0
 40
0.0001488
 41
0.0001488
  0
VERTEX
  8
0
 10
0.763021
 20
2.46479
 30
0.0
 40
0.0001488
 41
0.0001488
  0
VERTEX
  8
0
 10
0.749024
 20
2.47287
 30
0.0
 40
0.0001488
 41
0.0001488
  0
VERTEX
  8
0
 10
0.748481
 20
2.4726
 30
0.0
 40
0.0001488
 41
0.0001488
  0
VERTEX
  8
0
 10
0.748481
 20
2.47206
 30
0.0
 40
0.0001488
 41
0.0001488
  0
VERTEX
  8
0
 10
0.748047
 20
2.47233
 30
0.0
 40
0.0001488
 41
0.0001488
  0
VERTEX
  8
0
 10
0.747558
 20
2.47206
 30
0.0
 40
0.0001488
 41
0.0001488
  0
VERTEX
  8
0
 10
0.747558
 20
2.4726
 30
0.0
 40
0.0001488
 41
0.0001488
  0
VERTEX
  8
0
 10
0.747071
 20
2.47287
 30
0.0
 40
0.0001488
 41
0.0001488
  0
VERTEX
  8
0
 10
0.733074
 20
2.46479
 30
0.0
 40
0.0001488
 41
0.0001488
  0
VERTEX
  8
0
 10
0.703614
 20
2.44781
 30
0.0
 40
0.0001488
 41
0.0001488
  0
VERTEX
  8
0
 10
0.636068
 20
2.40881
 30
0.0
 40
0.0001488
 41
0.0001488
  0
VERTEX
  8
0
 10
0.632975
 20
2.40707
 30
0.0
 40
0.0001488
 41
0.0001488
  0
VERTEX
  8
0
 10
0.632975
 20
2.27533
 30
0.0
 40
0.0001488
 41
0.0001488
  0
VERTEX
  8
0
 10
0.662218
 20
2.25846
 30
0.0
 40
0.0001488
 41
0.0001488
  0
VERTEX
  8
0
 10
0.697157
 20
2.23828
 30
0.0
 40
0.0001488
 41
0.0001488
  0
VERTEX
  8
0
 10
0.747071
 20
2.20947
 30
0.0
 40
0.0001488
 41
0.0001488
  0
VERTEX
  8
0
 10
0.747558
 20
2.20979
 30
0.0
 40
0.0001488
 41
0.0001488
  0
VERTEX
  8
0
 10
0.747558
 20
2.21035
 30
0.0
 40
0.0001488
 41
0.0001488
  0
SEQEND
 8
0
  0
POLYLINE
  8
0
 62
     1
 66
     1
 10
0
 20
0
 30
0.0
 70
     1
 40
0.0107136
 41
0.0107136
  0
VERTEX
  8
0
 10
0.644965
 20
3.18658
 30
0.0
 40
0.0001488
 41
0.0001488
  0
VERTEX
  8
0
 10
0.648004
 20
3.19049
 30
0.0
 40
0.0001488
 41
0.0001488
  0
VERTEX
  8
0
 10
0.65115
 20
3.19456
 30
0.0
 40
0.0001488
 41
0.0001488
  0
VERTEX
  8
0
 10
0.654676
 20
3.19911
 30
0.0
 40
0.0001488
 41
0.0001488
  0
VERTEX
  8
0
 10
0.657389
 20
3.20258
 30
0.0
 40
0.0001488
 41
0.0001488
  0
VERTEX
  8
0
 10
0.67231
 20
3.21631
 30
0.0
 40
0.0001488
 41
0.0001488
  0
VERTEX
  8
0
 10
0.68929
 20
3.22743
 30
0.0
 40
0.0001488
 41
0.0001488
  0
VERTEX
  8
0
 10
0.707844
 20
3.23557
 30
0.0
 40
0.0001488
 41
0.0001488
  0
VERTEX
  8
0
 10
0.71875
 20
3.23833
 30
0.0
 40
0.0001488
 41
0.0001488
  0
VERTEX
  8
0
 10
0.71875
 20
3.30203
 30
0.0
 40
0.0001488
 41
0.0001488
  0
VERTEX
  8
0
 10
0.717231
 20
3.30192
 30
0.0
 40
0.0001488
 41
0.0001488
  0
VERTEX
  8
0
 10
0.687663
 20
3.29443
 30
0.0
 40
0.0001488
 41
0.0001488
  0
VERTEX
  8
0
 10
0.659668
 20
3.28213
 30
0.0
 40
0.0001488
 41
0.0001488
  0
VERTEX
  8
0
 10
0.63596
 20
3.26665
 30
0.0
 40
0.0001488
 41
0.0001488
  0
VERTEX
  8
0
 10
0.634115
 20
3.26546
 30
0.0
 40
0.0001488
 41
0.0001488
  0
VERTEX
  8
0
 10
0.6116
 20
3.24474
 30
0.0
 40
0.0001488
 41
0.0001488
  0
VERTEX
  8
0
 10
0.592882
 20
3.22065
 30
0.0
 40
0.0001488
 41
0.0001488
  0
VERTEX
  8
0
 10
0.578722
 20
3.19456
 30
0.0
 40
0.0001488
 41
0.0001488
  0
VERTEX
  8
0
 10
0.578287
 20
3.19379
 30
0.0
 40
0.0001488
 41
0.0001488
  0
VERTEX
  8
0
 10
0.568414
 20
3.16488
 30
0.0
 40
0.0001488
 41
0.0001488
  0
VERTEX
  8
0
 10
0.563585
 20
3.13601
 30
0.0
 40
0.0001488
 41
0.0001488
  0
VERTEX
  8
0
 10
0.563368
 20
3.13476
 30
0.0
 40
0.0001488
 41
0.0001488
  0
VERTEX
  8
0
 10
0.563368
 20
3.10422
 30
0.0
 40
0.0001488
 41
0.0001488
  0
VERTEX
  8
0
 10
0.566515
 20
3.08556
 30
0.0
 40
0.0001488
 41
0.0001488
  0
VERTEX
  8
0
 10
0.568414
 20
3.07411
 30
0.0
 40
0.0001488
 41
0.0001488
  0
VERTEX
  8
0
 10
0.574436
 20
3.05647
 30
0.0
 40
0.0001488
 41
0.0001488
  0
VERTEX
  8
0
 10
0.578287
 20
3.04519
 30
0.0
 40
0.0001488
 41
0.0001488
  0
VERTEX
  8
0
 10
0.584744
 20
3.03326
 30
0.0
 40
0.0001488
 41
0.0001488
  0
VERTEX
  8
0
 10
0.592882
 20
3.01833
 30
0.0
 40
0.0001488
 41
0.0001488
  0
VERTEX
  8
0
 10
0.595161
 20
3.01535
 30
0.0
 40
0.0001488
 41
0.0001488
  0
VERTEX
  8
0
 10
0.6116
 20
2.99419
 30
0.0
 40
0.0001488
 41
0.0001488
  0
VERTEX
  8
0
 10
0.634115
 20
2.97353
 30
0.0
 40
0.0001488
 41
0.0001488
  0
VERTEX
  8
0
 10
0.654676
 20
2.96007
 30
0.0
 40
0.0001488
 41
0.0001488
  0
VERTEX
  8
0
 10
0.659668
 20
2.95682
 30
0.0
 40
0.0001488
 41
0.0001488
  0
VERTEX
  8
0
 10
0.686957
 20
2.94488
 30
0.0
 40
0.0001488
 41
0.0001488
  0
VERTEX
  8
0
 10
0.687663
 20
2.94456
 30
0.0
 40
0.0001488
 41
0.0001488
  0
VERTEX
  8
0
 10
0.690429
 20
2.94385
 30
0.0
 40
0.0001488
 41
0.0001488
  0
VERTEX
  8
0
 10
0.716362
 20
2.93728
 30
0.0
 40
0.0001488
 41
0.0001488
  0
VERTEX
  8
0
 10
0.717231
 20
2.93707
 30
0.0
 40
0.0001488
 41
0.0001488
  0
VERTEX
  8
0
 10
0.71875
 20
2.9369
 30
0.0
 40
0.0001488
 41
0.0001488
  0
VERTEX
  8
0
 10
0.71875
 20
3.00065
 30
0.0
 40
0.0001488
 41
0.0001488
  0
VERTEX
  8
0
 10
0.716362
 20
3.00125
 30
0.0
 40
0.0001488
 41
0.0001488
  0
VERTEX
  8
0
 10
0.711806
 20
3.00244
 30
0.0
 40
0.0001488
 41
0.0001488
  0
VERTEX
  8
0
 10
0.707844
 20
3.00342
 30
0.0
 40
0.0001488
 41
0.0001488
  0
VERTEX
  8
0
 10
0.68929
 20
3.01156
 30
0.0
 40
0.0001488
 41
0.0001488
  0
VERTEX
  8
0
 10
0.683485
 20
3.01535
 30
0.0
 40
0.0001488
 41
0.0001488
  0
VERTEX
  8
0
 10
0.674858
 20
3.021
 30
0.0
 40
0.0001488
 41
0.0001488
  0
VERTEX
  8
0
 10
0.67231
 20
3.02262
 30
0.0
 40
0.0001488
 41
0.0001488
  0
VERTEX
  8
0
 10
0.660753
 20
3.03326
 30
0.0
 40
0.0001488
 41
0.0001488
  0
VERTEX
  8
0
 10
0.657389
 20
3.0364
 30
0.0
 40
0.0001488
 41
0.0001488
  0
VERTEX
  8
0
 10
0.654676
 20
3.03988
 30
0.0
 40
0.0001488
 41
0.0001488
  0
VERTEX
  8
0
 10
0.644965
 20
3.05236
 30
0.0
 40
0.0001488
 41
0.0001488
  0
VERTEX
  8
0
 10
0.635308
 20
3.07021
 30
0.0
 40
0.0001488
 41
0.0001488
  0
VERTEX
  8
0
 10
0.628743
 20
3.08936
 30
0.0
 40
0.0001488
 41
0.0001488
  0
VERTEX
  8
0
 10
0.625379
 20
3.10932
 30
0.0
 40
0.0001488
 41
0.0001488
  0
VERTEX
  8
0
 10
0.625379
 20
3.12961
 30
0.0
 40
0.0001488
 41
0.0001488
  0
VERTEX
  8
0
 10
0.626465
 20
3.13601
 30
0.0
 40
0.0001488
 41
0.0001488
  0
VERTEX
  8
0
 10
0.628743
 20
3.14962
 30
0.0
 40
0.0001488
 41
0.0001488
  0
VERTEX
  8
0
 10
0.635308
 20
3.16878
 30
0.0
 40
0.0001488
 41
0.0001488
  0
VERTEX
  8
0
 10
0.644965
 20
3.18658
 30
0.0
 40
0.0001488
 41
0.0001488
  0
SEQEND
 8
0
  0
POLYLINE
  8
0
 62
     1
 66
     1
 10
0
 20
0
 30
0.0
 70
     1
 40
0.0107136
 41
0.0107136
  0
VERTEX
  8
0
 10
0.645182
 20
2.62819
 30
0.0
 40
0.0001488
 41
0.0001488
  0
VERTEX
  8
0
 10
0.716362
 20
2.62819
 30
0.0
 40
0.0001488
 41
0.0001488
  0
VERTEX
  8
0
 10
0.716362
 20
2.69108
 30
0.0
 40
0.0001488
 41
0.0001488
  0
VERTEX
  8
0
 10
0.667643
 20
2.69108
 30
0.0
 40
0.0001488
 41
0.0001488
  0
VERTEX
  8
0
 10
0.708442
 20
2.80935
 30
0.0
 40
0.0001488
 41
0.0001488
  0
VERTEX
  8
0
 10
0.716362
 20
2.83231
 30
0.0
 40
0.0001488
 41
0.0001488
  0
VERTEX
  8
0
 10
0.716362
 20
2.87289
 30
0.0
 40
0.0001488
 41
0.0001488
  0
VERTEX
  8
0
 10
0.664442
 20
2.87289
 30
0.0
 40
0.0001488
 41
0.0001488
  0
VERTEX
  8
0
 10
0.664117
 20
2.87201
 30
0.0
 40
0.0001488
 41
0.0001488
  0
VERTEX
  8
0
 10
0.654676
 20
2.84614
 30
0.0
 40
0.0001488
 41
0.0001488
  0
VERTEX
  8
0
 10
0.605197
 20
2.71078
 30
0.0
 40
0.0001488
 41
0.0001488
  0
VERTEX
  8
0
 10
0.558106
 20
2.58192
 30
0.0
 40
0.0001488
 41
0.0001488
  0
VERTEX
  8
0
 10
0.550022
 20
2.55985
 30
0.0
 40
0.0001488
 41
0.0001488
  0
VERTEX
  8
0
 10
0.546278
 20
2.54949
 30
0.0
 40
0.0001488
 41
0.0001488
  0
VERTEX
  8
0
 10
0.519586
 20
2.47657
 30
0.0
 40
0.0001488
 41
0.0001488
  0
VERTEX
  8
0
 10
0.51199
 20
2.45568
 30
0.0
 40
0.0001488
 41
0.0001488
  0
VERTEX
  8
0
 10
0.583333
 20
2.45568
 30
0.0
 40
0.0001488
 41
0.0001488
  0
VERTEX
  8
0
 10
0.616482
 20
2.54824
 30
0.0
 40
0.0001488
 41
0.0001488
  0
VERTEX
  8
0
 10
0.616971
 20
2.54949
 30
0.0
 40
0.0001488
 41
0.0001488
  0
VERTEX
  8
0
 10
0.645182
 20
2.62819
 30
0.0
 40
0.0001488
 41
0.0001488
  0
SEQEND
 8
0
  0
POLYLINE
  8
0
 62
     1
 66
     1
 10
0
 20
0
 30
0.0
 70
     1
 40
0.0107136
 41
0.0107136
  0
VERTEX
  8
0
 10
0.747558
 20
4.37674
 30
0.0
 40
0.0001488
 41
0.0001488
  0
VERTEX
  8
0
 10
0.748047
 20
4.37646
 30
0.0
 40
0.0001488
 41
0.0001488
  0
VERTEX
  8
0
 10
0.748481
 20
4.37674
 30
0.0
 40
0.0001488
 41
0.0001488
  0
VERTEX
  8
0
 10
0.748481
 20
4.37614
 30
0.0
 40
0.0001488
 41
0.0001488
  0
VERTEX
  8
0
 10
0.749024
 20
4.37587
 30
0.0
 40
0.0001488
 41
0.0001488
  0
VERTEX
  8
0
 10
0.754992
 20
4.37935
 30
0.0
 40
0.0001488
 41
0.0001488
  0
VERTEX
  8
0
 10
0.833876
 20
4.42492
 30
0.0
 40
0.0001488
 41
0.0001488
  0
VERTEX
  8
0
 10
0.861111
 20
4.4406
 30
0.0
 40
0.0001488
 41
0.0001488
  0
VERTEX
  8
0
 10
0.863064
 20
4.44174
 30
0.0
 40
0.0001488
 41
0.0001488
  0
VERTEX
  8
0
 10
0.863064
 20
4.5734
 30
0.0
 40
0.0001488
 41
0.0001488
  0
VERTEX
  8
0
 10
0.861111
 20
4.57454
 30
0.0
 40
0.0001488
 41
0.0001488
  0
VERTEX
  8
0
 10
0.853407
 20
4.579
 30
0.0
 40
0.0001488
 41
0.0001488
  0
VERTEX
  8
0
 10
0.833876
 20
4.59028
 30
0.0
 40
0.0001488
 41
0.0001488
  0
VERTEX
  8
0
 10
0.77946
 20
4.62169
 30
0.0
 40
0.0001488
 41
0.0001488
  0
VERTEX
  8
0
 10
0.749024
 20
4.63926
 30
0.0
 40
0.0001488
 41
0.0001488
  0
VERTEX
  8
0
 10
0.748481
 20
4.63894
 30
0.0
 40
0.0001488
 41
0.0001488
  0
VERTEX
  8
0
 10
0.748481
 20
4.6384
 30
0.0
 40
0.0001488
 41
0.0001488
  0
VERTEX
  8
0
 10
0.748047
 20
4.63867
 30
0.0
 40
0.0001488
 41
0.0001488
  0
VERTEX
  8
0
 10
0.747558
 20
4.6384
 30
0.0
 40
0.0001488
 41
0.0001488
  0
VERTEX
  8
0
 10
0.747558
 20
4.63894
 30
0.0
 40
0.0001488
 41
0.0001488
  0
VERTEX
  8
0
 10
0.747071
 20
4.63926
 30
0.0
 40
0.0001488
 41
0.0001488
  0
VERTEX
  8
0
 10
0.716581
 20
4.62169
 30
0.0
 40
0.0001488
 41
0.0001488
  0
VERTEX
  8
0
 10
0.662218
 20
4.59028
 30
0.0
 40
0.0001488
 41
0.0001488
  0
VERTEX
  8
0
 10
0.632975
 20
4.5734
 30
0.0
 40
0.0001488
 41
0.0001488
  0
VERTEX
  8
0
 10
0.632975
 20
4.44174
 30
0.0
 40
0.0001488
 41
0.0001488
  0
VERTEX
  8
0
 10
0.662218
 20
4.42486
 30
0.0
 40
0.0001488
 41
0.0001488
  0
VERTEX
  8
0
 10
0.741049
 20
4.37935
 30
0.0
 40
0.0001488
 41
0.0001488
  0
VERTEX
  8
0
 10
0.747071
 20
4.37587
 30
0.0
 40
0.0001488
 41
0.0001488
  0
VERTEX
  8
0
 10
0.747558
 20
4.37614
 30
0.0
 40
0.0001488
 41
0.0001488
  0
VERTEX
  8
0
 10
0.747558
 20
4.37674
 30
0.0
 40
0.0001488
 41
0.0001488
  0
SEQEND
 8
0
  0
POLYLINE
  8
0
 62
     1
 66
     1
 10
0
 20
0
 30
0.0
 70
     1
 40
0.0107136
 41
0.0107136
  0
VERTEX
  8
0
 10
0.747558
 20
3.9145
 30
0.0
 40
0.0001488
 41
0.0001488
  0
VERTEX
  8
0
 10
0.748047
 20
3.91422
 30
0.0
 40
0.0001488
 41
0.0001488
  0
VERTEX
  8
0
 10
0.748481
 20
3.9145
 30
0.0
 40
0.0001488
 41
0.0001488
  0
VERTEX
  8
0
 10
0.748481
 20
3.91396
 30
0.0
 40
0.0001488
 41
0.0001488
  0
VERTEX
  8
0
 10
0.749024
 20
3.91368
 30
0.0
 40
0.0001488
 41
0.0001488
  0
VERTEX
  8
0
 10
0.822103
 20
3.95589
 30
0.0
 40
0.0001488
 41
0.0001488
  0
VERTEX
  8
0
 10
0.861111
 20
3.9784
 30
0.0
 40
0.0001488
 41
0.0001488
  0
VERTEX
  8
0
 10
0.863064
 20
3.97954
 30
0.0
 40
0.0001488
 41
0.0001488
  0
VERTEX
  8
0
 10
0.863064
 20
4.11122
 30
0.0
 40
0.0001488
 41
0.0001488
  0
VERTEX
  8
0
 10
0.861111
 20
4.11236
 30
0.0
 40
0.0001488
 41
0.0001488
  0
VERTEX
  8
0
 10
0.790853
 20
4.15294
 30
0.0
 40
0.0001488
 41
0.0001488
  0
VERTEX
  8
0
 10
0.749024
 20
4.17708
 30
0.0
 40
0.0001488
 41
0.0001488
  0
VERTEX
  8
0
 10
0.748481
 20
4.17681
 30
0.0
 40
0.0001488
 41
0.0001488
  0
VERTEX
  8
0
 10
0.748481
 20
4.17626
 30
0.0
 40
0.0001488
 41
0.0001488
  0
VERTEX
  8
0
 10
0.748047
 20
4.17654
 30
0.0
 40
0.0001488
 41
0.0001488
  0
VERTEX
  8
0
 10
0.747558
 20
4.17626
 30
0.0
 40
0.0001488
 41
0.0001488
  0
VERTEX
  8
0
 10
0.747558
 20
4.17681
 30
0.0
 40
0.0001488
 41
0.0001488
  0
VERTEX
  8
0
 10
0.747071
 20
4.17708
 30
0.0
 40
0.0001488
 41
0.0001488
  0
VERTEX
  8
0
 10
0.705186
 20
4.15294
 30
0.0
 40
0.0001488
 41
0.0001488
  0
VERTEX
  8
0
 10
0.632975
 20
4.11122
 30
0.0
 40
0.0001488
 41
0.0001488
  0
VERTEX
  8
0
 10
0.632975
 20
3.97954
 30
0.0
 40
0.0001488
 41
0.0001488
  0
VERTEX
  8
0
 10
0.67399
 20
3.95589
 30
0.0
 40
0.0001488
 41
0.0001488
  0
VERTEX
  8
0
 10
0.747071
 20
3.91368
 30
0.0
 40
0.0001488
 41
0.0001488
  0
VERTEX
  8
0
 10
0.747558
 20
3.91396
 30
0.0
 40
0.0001488
 41
0.0001488
  0
VERTEX
  8
0
 10
0.747558
 20
3.9145
 30
0.0
 40
0.0001488
 41
0.0001488
  0
SEQEND
 8
0
  0
POLYLINE
  8
0
 62
     1
 66
     1
 10
0
 20
0
 30
0.0
 70
     1
 40
0.0107136
 41
0.0107136
  0
VERTEX
  8
0
 10
0.830024
 20
2.69108
 30
0.0
 40
0.0001488
 41
0.0001488
  0
VERTEX
  8
0
 10
0.782226
 20
2.69108
 30
0.0
 40
0.0001488
 41
0.0001488
  0
VERTEX
  8
0
 10
0.782226
 20
2.62819
 30
0.0
 40
0.0001488
 41
0.0001488
  0
VERTEX
  8
0
 10
0.852539
 20
2.62819
 30
0.0
 40
0.0001488
 41
0.0001488
  0
VERTEX
  8
0
 10
0.861111
 20
2.604
 30
0.0
 40
0.0001488
 41
0.0001488
  0
VERTEX
  8
0
 10
0.880479
 20
2.54949
 30
0.0
 40
0.0001488
 41
0.0001488
  0
VERTEX
  8
0
 10
0.913792
 20
2.45568
 30
0.0
 40
0.0001488
 41
0.0001488
  0
VERTEX
  8
0
 10
0.986274
 20
2.45568
 30
0.0
 40
0.0001488
 41
0.0001488
  0
VERTEX
  8
0
 10
0.977106
 20
2.48062
 30
0.0
 40
0.0001488
 41
0.0001488
  0
VERTEX
  8
0
 10
0.951878
 20
2.54949
 30
0.0
 40
0.0001488
 41
0.0001488
  0
VERTEX
  8
0
 10
0.950358
 20
2.55365
 30
0.0
 40
0.0001488
 41
0.0001488
  0
VERTEX
  8
0
 10
0.923014
 20
2.62819
 30
0.0
 40
0.0001488
 41
0.0001488
  0
VERTEX
  8
0
 10
0.861111
 20
2.79719
 30
0.0
 40
0.0001488
 41
0.0001488
  0
VERTEX
  8
0
 10
0.833658
 20
2.87201
 30
0.0
 40
0.0001488
 41
0.0001488
  0
VERTEX
  8
0
 10
0.833333
 20
2.87289
 30
0.0
 40
0.0001488
 41
0.0001488
  0
VERTEX
  8
0
 10
0.782226
 20
2.87289
 30
0.0
 40
0.0001488
 41
0.0001488
  0
VERTEX
  8
0
 10
0.782226
 20
2.82835
 30
0.0
 40
0.0001488
 41
0.0001488
  0
VERTEX
  8
0
 10
0.788032
 20
2.81174
 30
0.0
 40
0.0001488
 41
0.0001488
  0
VERTEX
  8
0
 10
0.806749
 20
2.75803
 30
0.0
 40
0.0001488
 41
0.0001488
  0
VERTEX
  8
0
 10
0.830024
 20
2.69108
 30
0.0
 40
0.0001488
 41
0.0001488
  0
SEQEND
 8
0
  0
POLYLINE
  8
0
 62
     1
 66
     1
 10
0
 20
0
 30
0.0
 70
     1
 40
0.0107136
 41
0.0107136
  0
VERTEX
  8
0
 10
0.823079
 20
3.02262
 30
0.0
 40
0.0001488
 41
0.0001488
  0
VERTEX
  8
0
 10
0.821289
 20
3.02149
 30
0.0
 40
0.0001488
 41
0.0001488
  0
VERTEX
  8
0
 10
0.815972
 20
3.01801
 30
0.0
 40
0.0001488
 41
0.0001488
  0
VERTEX
  8
0
 10
0.811903
 20
3.01535
 30
0.0
 40
0.0001488
 41
0.0001488
  0
VERTEX
  8
0
 10
0.806099
 20
3.01156
 30
0.0
 40
0.0001488
 41
0.0001488
  0
VERTEX
  8
0
 10
0.787543
 20
3.00342
 30
0.0
 40
0.0001488
 41
0.0001488
  0
VERTEX
  8
0
 10
0.780328
 20
3.00157
 30
0.0
 40
0.0001488
 41
0.0001488
  0
VERTEX
  8
0
 10
0.780328
 20
2.93761
 30
0.0
 40
0.0001488
 41
0.0001488
  0
VERTEX
  8
0
 10
0.807781
 20
2.94456
 30
0.0
 40
0.0001488
 41
0.0001488
  0
VERTEX
  8
0
 10
0.80919
 20
2.94521
 30
0.0
 40
0.0001488
 41
0.0001488
  0
VERTEX
  8
0
 10
0.815972
 20
2.94814
 30
0.0
 40
0.0001488
 41
0.0001488
  0
VERTEX
  8
0
 10
0.835721
 20
2.95682
 30
0.0
 40
0.0001488
 41
0.0001488
  0
VERTEX
  8
0
 10
0.861111
 20
2.97342
 30
0.0
 40
0.0001488
 41
0.0001488
  0
VERTEX
  8
0
 10
0.861274
 20
2.97353
 30
0.0
 40
0.0001488
 41
0.0001488
  0
VERTEX
  8
0
 10
0.883789
 20
2.99419
 30
0.0
 40
0.0001488
 41
0.0001488
  0
VERTEX
  8
0
 10
0.900228
 20
3.01535
 30
0.0
 40
0.0001488
 41
0.0001488
  0
VERTEX
  8
0
 10
0.902507
 20
3.01833
 30
0.0
 40
0.0001488
 41
0.0001488
  0
VERTEX
  8
0
 10
0.910644
 20
3.03326
 30
0.0
 40
0.0001488
 41
0.0001488
  0
VERTEX
  8
0
 10
0.917101
 20
3.04519
 30
0.0
 40
0.0001488
 41
0.0001488
  0
VERTEX
  8
0
 10
0.926975
 20
3.07411
 30
0.0
 40
0.0001488
 41
0.0001488
  0
VERTEX
  8
0
 10
0.932021
 20
3.10422
 30
0.0
 40
0.0001488
 41
0.0001488
  0
VERTEX
  8
0
 10
0.932021
 20
3.13476
 30
0.0
 40
0.0001488
 41
0.0001488
  0
VERTEX
  8
0
 10
0.931803
 20
3.13601
 30
0.0
 40
0.0001488
 41
0.0001488
  0
VERTEX
  8
0
 10
0.926975
 20
3.16488
 30
0.0
 40
0.0001488
 41
0.0001488
  0
VERTEX
  8
0
 10
0.917101
 20
3.19379
 30
0.0
 40
0.0001488
 41
0.0001488
  0
VERTEX
  8
0
 10
0.916667
 20
3.19456
 30
0.0
 40
0.0001488
 41
0.0001488
  0
VERTEX
  8
0
 10
0.902507
 20
3.22065
 30
0.0
 40
0.0001488
 41
0.0001488
  0
VERTEX
  8
0
 10
0.883789
 20
3.24474
 30
0.0
 40
0.0001488
 41
0.0001488
  0
VERTEX
  8
0
 10
0.861274
 20
3.26546
 30
0.0
 40
0.0001488
 41
0.0001488
  0
VERTEX
  8
0
 10
0.861111
 20
3.26557
 30
0.0
 40
0.0001488
 41
0.0001488
  0
VERTEX
  8
0
 10
0.860081
 20
3.26628
 30
0.0
 40
0.0001488
 41
0.0001488
  0
VERTEX
  8
0
 10
0.835721
 20
3.28213
 30
0.0
 40
0.0001488
 41
0.0001488
  0
VERTEX
  8
0
 10
0.815972
 20
3.29081
 30
0.0
 40
0.0001488
 41
0.0001488
  0
VERTEX
  8
0
 10
0.807781
 20
3.29443
 30
0.0
 40
0.0001488
 41
0.0001488
  0
VERTEX
  8
0
 10
0.780328
 20
3.30132
 30
0.0
 40
0.0001488
 41
0.0001488
  0
VERTEX
  8
0
 10
0.780328
 20
3.23736
 30
0.0
 40
0.0001488
 41
0.0001488
  0
VERTEX
  8
0
 10
0.787543
 20
3.23557
 30
0.0
 40
0.0001488
 41
0.0001488
  0
VERTEX
  8
0
 10
0.806099
 20
3.22743
 30
0.0
 40
0.0001488
 41
0.0001488
  0
VERTEX
  8
0
 10
0.815972
 20
3.22097
 30
0.0
 40
0.0001488
 41
0.0001488
  0
VERTEX
  8
0
 10
0.823079
 20
3.21631
 30
0.0
 40
0.0001488
 41
0.0001488
  0
VERTEX
  8
0
 10
0.837999
 20
3.20258
 30
0.0
 40
0.0001488
 41
0.0001488
  0
VERTEX
  8
0
 10
0.844239
 20
3.19456
 30
0.0
 40
0.0001488
 41
0.0001488
  0
VERTEX
  8
0
 10
0.847928
 20
3.18978
 30
0.0
 40
0.0001488
 41
0.0001488
  0
VERTEX
  8
0
 10
0.850424
 20
3.18658
 30
0.0
 40
0.0001488
 41
0.0001488
  0
VERTEX
  8
0
 10
0.860081
 20
3.16878
 30
0.0
 40
0.0001488
 41
0.0001488
  0
VERTEX
  8
0
 10
0.861111
 20
3.16581
 30
0.0
 40
0.0001488
 41
0.0001488
  0
VERTEX
  8
0
 10
0.866644
 20
3.14962
 30
0.0
 40
0.0001488
 41
0.0001488
  0
VERTEX
  8
0
 10
0.868924
 20
3.13601
 30
0.0
 40
0.0001488
 41
0.0001488
  0
VERTEX
  8
0
 10
0.870008
 20
3.12961
 30
0.0
 40
0.0001488
 41
0.0001488
  0
VERTEX
  8
0
 10
0.870008
 20
3.10932
 30
0.0
 40
0.0001488
 41
0.0001488
  0
VERTEX
  8
0
 10
0.866644
 20
3.08936
 30
0.0
 40
0.0001488
 41
0.0001488
  0
VERTEX
  8
0
 10
0.861111
 20
3.07319
 30
0.0
 40
0.0001488
 41
0.0001488
  0
VERTEX
  8
0
 10
0.860081
 20
3.07021
 30
0.0
 40
0.0001488
 41
0.0001488
  0
VERTEX
  8
0
 10
0.850424
 20
3.05236
 30
0.0
 40
0.0001488
 41
0.0001488
  0
VERTEX
  8
0
 10
0.837999
 20
3.0364
 30
0.0
 40
0.0001488
 41
0.0001488
  0
VERTEX
  8
0
 10
0.834636
 20
3.03326
 30
0.0
 40
0.0001488
 41
0.0001488
  0
VERTEX
  8
0
 10
0.823079
 20
3.02262
 30
0.0
 40
0.0001488
 41
0.0001488
  0
SEQEND
 8
0
  0
POLYLINE
  8
0
 62
     1
 66
     1
 10
0
 20
0
 30
0.0
 70
     1
 40
0.0107136
 41
0.0107136
  0
VERTEX
  8
0
 10
0.650499
 20
3.47293
 30
0.0
 40
0.0001488
 41
0.0001488
  0
VERTEX
  8
0
 10
0.632975
 20
3.49685
 30
0.0
 40
0.0001488
 41
0.0001488
  0
VERTEX
  8
0
 10
0.63189
 20
3.49837
 30
0.0
 40
0.0001488
 41
0.0001488
  0
VERTEX
  8
0
 10
0.625325
 20
3.51704
 30
0.0
 40
0.0001488
 41
0.0001488
  0
VERTEX
  8
0
 10
0.620714
 20
3.53006
 30
0.0
 40
0.0001488
 41
0.0001488
  0
VERTEX
  8
0
 10
0.617025
 20
3.56799
 30
0.0
 40
0.0001488
 41
0.0001488
  0
VERTEX
  8
0
 10
0.617025
 20
3.63857
 30
0.0
 40
0.0001488
 41
0.0001488
  0
VERTEX
  8
0
 10
0.544271
 20
3.63857
 30
0.0
 40
0.0001488
 41
0.0001488
  0
VERTEX
  8
0
 10
0.544271
 20
3.57113
 30
0.0
 40
0.0001488
 41
0.0001488
  0
VERTEX
  8
0
 10
0.545736
 20
3.5434
 30
0.0
 40
0.0001488
 41
0.0001488
  0
VERTEX
  8
0
 10
0.550022
 20
3.51828
 30
0.0
 40
0.0001488
 41
0.0001488
  0
VERTEX
  8
0
 10
0.550185
 20
3.51758
 30
0.0
 40
0.0001488
 41
0.0001488
  0
VERTEX
  8
0
 10
0.550293
 20
3.51704
 30
0.0
 40
0.0001488
 41
0.0001488
  0
VERTEX
  8
0
 10
0.557508
 20
3.4936
 30
0.0
 40
0.0001488
 41
0.0001488
  0
VERTEX
  8
0
 10
0.567817
 20
3.47131
 30
0.0
 40
0.0001488
 41
0.0001488
  0
VERTEX
  8
0
 10
0.580892
 20
3.45128
 30
0.0
 40
0.0001488
 41
0.0001488
  0
VERTEX
  8
0
 10
0.596789
 20
3.43365
 30
0.0
 40
0.0001488
 41
0.0001488
  0
VERTEX
  8
0
 10
0.611382
 20
3.42165
 30
0.0
 40
0.0001488
 41
0.0001488
  0
VERTEX
  8
0
 10
0.615451
 20
3.41835
 30
0.0
 40
0.0001488
 41
0.0001488
  0
VERTEX
  8
0
 10
0.632975
 20
3.40788
 30
0.0
 40
0.0001488
 41
0.0001488
  0
VERTEX
  8
0
 10
0.636828
 20
3.4056
 30
0.0
 40
0.0001488
 41
0.0001488
  0
VERTEX
  8
0
 10
0.654676
 20
3.398
 30
0.0
 40
0.0001488
 41
0.0001488
  0
VERTEX
  8
0
 10
0.660861
 20
3.3954
 30
0.0
 40
0.0001488
 41
0.0001488
  0
VERTEX
  8
0
 10
0.68164
 20
3.38965
 30
0.0
 40
0.0001488
 41
0.0001488
  0
VERTEX
  8
0
 10
0.687935
 20
3.38792
 30
0.0
 40
0.0001488
 41
0.0001488
  0
VERTEX
  8
0
 10
0.716037
 20
3.38368
 30
0.0
 40
0.0001488
 41
0.0001488
  0
VERTEX
  8
0
 10
0.716037
 20
3.4426
 30
0.0
 40
0.0001488
 41
0.0001488
  0
VERTEX
  8
0
 10
0.711262
 20
3.44303
 30
0.0
 40
0.0001488
 41
0.0001488
  0
VERTEX
  8
0
 10
0.677029
 20
3.45426
 30
0.0
 40
0.0001488
 41
0.0001488
  0
VERTEX
  8
0
 10
0.654676
 20
3.46994
 30
0.0
 40
0.0001488
 41
0.0001488
  0
VERTEX
  8
0
 10
0.650499
 20
3.47293
 30
0.0
 40
0.0001488
 41
0.0001488
  0
SEQEND
 8
0
  0
POLYLINE
  8
0
 62
     1
 66
     1
 10
0
 20
0
 30
0.0
 70
     1
 40
0.0107136
 41
0.0107136
  0
VERTEX
  8
0
 10
0.864367
 20
3.48757
 30
0.0
 40
0.0001488
 41
0.0001488
  0
VERTEX
  8
0
 10
0.861111
 20
3.48346
 30
0.0
 40
0.0001488
 41
0.0001488
  0
VERTEX
  8
0
 10
0.854818
 20
3.47547
 30
0.0
 40
0.0001488
 41
0.0001488
  0
VERTEX
  8
0
 10
0.843044
 20
3.46468
 30
0.0
 40
0.0001488
 41
0.0001488
  0
VERTEX
  8
0
 10
0.829156
 20
3.45574
 30
0.0
 40
0.0001488
 41
0.0001488
  0
VERTEX
  8
0
 10
0.815972
 20
3.44982
 30
0.0
 40
0.0001488
 41
0.0001488
  0
VERTEX
  8
0
 10
0.81326
 20
3.44862
 30
0.0
 40
0.0001488
 41
0.0001488
  0
VERTEX
  8
0
 10
0.795574
 20
3.44342
 30
0.0
 40
0.0001488
 41
0.0001488
  0
VERTEX
  8
0
 10
0.780817
 20
3.44119
 30
0.0
 40
0.0001488
 41
0.0001488
  0
VERTEX
  8
0
 10
0.780817
 20
3.38336
 30
0.0
 40
0.0001488
 41
0.0001488
  0
VERTEX
  8
0
 10
0.783638
 20
3.38351
 30
0.0
 40
0.0001488
 41
0.0001488
  0
VERTEX
  8
0
 10
0.814399
 20
3.38813
 30
0.0
 40
0.0001488
 41
0.0001488
  0
VERTEX
  8
0
 10
0.815972
 20
3.38857
 30
0.0
 40
0.0001488
 41
0.0001488
  0
VERTEX
  8
0
 10
0.827094
 20
3.39171
 30
0.0
 40
0.0001488
 41
0.0001488
  0
VERTEX
  8
0
 10
0.842122
 20
3.39589
 30
0.0
 40
0.0001488
 41
0.0001488
  0
VERTEX
  8
0
 10
0.845975
 20
3.39757
 30
0.0
 40
0.0001488
 41
0.0001488
  0
VERTEX
  8
0
 10
0.861111
 20
3.40419
 30
0.0
 40
0.0001488
 41
0.0001488
  0
VERTEX
  8
0
 10
0.866917
 20
3.40674
 30
0.0
 40
0.0001488
 41
0.0001488
  0
VERTEX
  8
0
 10
0.883951
 20
3.41704
 30
0.0
 40
0.0001488
 41
0.0001488
  0
VERTEX
  8
0
 10
0.888835
 20
3.42003
 30
0.0
 40
0.0001488
 41
0.0001488
  0
VERTEX
  8
0
 10
0.896593
 20
3.42638
 30
0.0
 40
0.0001488
 41
0.0001488
  0
VERTEX
  8
0
 10
0.904893
 20
3.43326
 30
0.0
 40
0.0001488
 41
0.0001488
  0
VERTEX
  8
0
 10
0.907932
 20
3.43571
 30
0.0
 40
0.0001488
 41
0.0001488
  0
VERTEX
  8
0
 10
0.923774
 20
3.45356
 30
0.0
 40
0.0001488
 41
0.0001488
  0
VERTEX
  8
0
 10
0.936632
 20
3.47336
 30
0.0
 40
0.0001488
 41
0.0001488
  0
VERTEX
  8
0
 10
0.946615
 20
3.49511
 30
0.0
 40
0.0001488
 41
0.0001488
  0
VERTEX
  8
0
 10
0.95345
 20
3.51704
 30
0.0
 40
0.0001488
 41
0.0001488
  0
VERTEX
  8
0
 10
0.953993
 20
3.51878
 30
0.0
 40
0.0001488
 41
0.0001488
  0
VERTEX
  8
0
 10
0.958442
 20
3.54357
 30
0.0
 40
0.0001488
 41
0.0001488
  0
VERTEX
  8
0
 10
0.959907
 20
3.56956
 30
0.0
 40
0.0001488
 41
0.0001488
  0
VERTEX
  8
0
 10
0.959907
 20
3.63857
 30
0.0
 40
0.0001488
 41
0.0001488
  0
VERTEX
  8
0
 10
0.886556
 20
3.63857
 30
0.0
 40
0.0001488
 41
0.0001488
  0
VERTEX
  8
0
 10
0.886556
 20
3.56853
 30
0.0
 40
0.0001488
 41
0.0001488
  0
VERTEX
  8
0
 10
0.885851
 20
3.5536
 30
0.0
 40
0.0001488
 41
0.0001488
  0
VERTEX
  8
0
 10
0.885688
 20
3.55007
 30
0.0
 40
0.0001488
 41
0.0001488
  0
VERTEX
  8
0
 10
0.882975
 20
3.53267
 30
0.0
 40
0.0001488
 41
0.0001488
  0
VERTEX
  8
0
 10
0.878689
 20
3.51704
 30
0.0
 40
0.0001488
 41
0.0001488
  0
VERTEX
  8
0
 10
0.878526
 20
3.51633
 30
0.0
 40
0.0001488
 41
0.0001488
  0
VERTEX
  8
0
 10
0.872287
 20
3.50125
 30
0.0
 40
0.0001488
 41
0.0001488
  0
VERTEX
  8
0
 10
0.864367
 20
3.48757
 30
0.0
 40
0.0001488
 41
0.0001488
  0
SEQEND
 8
0
  0
POLYLINE
  8
0
 62
     1
 66
     1
 10
0
 20
0
 30
0.0
 70
     1
 40
0.0107136
 41
0.0107136
  0
VERTEX
  8
0
 10
0.335232
 20
0.572863
 30
0.0
 40
0.0001488
 41
0.0001488
  0
VERTEX
  8
0
 10
0.335613
 20
0.572863
 30
0.0
 40
0.0001488
 41
0.0001488
  0
VERTEX
  8
0
 10
0.335613
 20
0.853678
 30
0.0
 40
0.0001488
 41
0.0001488
  0
VERTEX
  8
0
 10
0.275553
 20
0.853678
 30
0.0
 40
0.0001488
 41
0.0001488
  0
VERTEX
  8
0
 10
0.275553
 20
0.572863
 30
0.0
 40
0.0001488
 41
0.0001488
  0
VERTEX
  8
0
 10
0.276801
 20
0.572863
 30
0.0
 40
0.0001488
 41
0.0001488
  0
VERTEX
  8
0
 10
0.276801
 20
0.572646
 30
0.0
 40
0.0001488
 41
0.0001488
  0
VERTEX
  8
0
 10
0.335232
 20
0.572646
 30
0.0
 40
0.0001488
 41
0.0001488
  0
VERTEX
  8
0
 10
0.335232
 20
0.572863
 30
0.0
 40
0.0001488
 41
0.0001488
  0
SEQEND
 8
0
  0
POLYLINE
  8
0
 62
     1
 66
     1
 10
0
 20
0
 30
0.0
 70
     1
 40
0.0107136
 41
0.0107136
  0
VERTEX
  8
0
 10
1.2883
 20
0.377929
 30
0.0
 40
0.0001488
 41
0.0001488
  0
VERTEX
  8
0
 10
1.28348
 20
0.372342
 30
0.0
 40
0.0001488
 41
0.0001488
  0
VERTEX
  8
0
 10
1.27794
 20
0.363336
 30
0.0
 40
0.0001488
 41
0.0001488
  0
VERTEX
  8
0
 10
1.27393
 20
0.353624
 30
0.0
 40
0.0001488
 41
0.0001488
  0
VERTEX
  8
0
 10
1.27365
 20
0.352376
 30
0.0
 40
0.0001488
 41
0.0001488
  0
VERTEX
  8
0
 10
1.27148
 20
0.343425
 30
0.0
 40
0.0001488
 41
0.0001488
  0
VERTEX
  8
0
 10
1.27067
 20
0.3329
 30
0.0
 40
0.0001488
 41
0.0001488
  0
VERTEX
  8
0
 10
1.27148
 20
0.322428
 30
0.0
 40
0.0001488
 41
0.0001488
  0
VERTEX
  8
0
 10
1.27393
 20
0.312229
 30
0.0
 40
0.0001488
 41
0.0001488
  0
VERTEX
  8
0
 10
1.27675
 20
0.305339
 30
0.0
 40
0.0001488
 41
0.0001488
  0
VERTEX
  8
0
 10
1.27794
 20
0.302463
 30
0.0
 40
0.0001488
 41
0.0001488
  0
VERTEX
  8
0
 10
1.28223
 20
0.295518
 30
0.0
 40
0.0001488
 41
0.0001488
  0
VERTEX
  8
0
 10
1.28348
 20
0.293511
 30
0.0
 40
0.0001488
 41
0.0001488
  0
VERTEX
  8
0
 10
1.28488
 20
0.291829
 30
0.0
 40
0.0001488
 41
0.0001488
  0
VERTEX
  8
0
 10
1.29031
 20
0.285536
 30
0.0
 40
0.0001488
 41
0.0001488
  0
VERTEX
  8
0
 10
1.29829
 20
0.2787
 30
0.0
 40
0.0001488
 41
0.0001488
  0
VERTEX
  8
0
 10
1.30724
 20
0.273167
 30
0.0
 40
0.0001488
 41
0.0001488
  0
VERTEX
  8
0
 10
1.31695
 20
0.269151
 30
0.0
 40
0.0001488
 41
0.0001488
  0
VERTEX
  8
0
 10
1.3272
 20
0.26671
 30
0.0
 40
0.0001488
 41
0.0001488
  0
VERTEX
  8
0
 10
1.32731
 20
0.26671
 30
0.0
 40
0.0001488
 41
0.0001488
  0
VERTEX
  8
0
 10
1.33767
 20
0.265896
 30
0.0
 40
0.0001488
 41
0.0001488
  0
VERTEX
  8
0
 10
1.3482
 20
0.26671
 30
0.0
 40
0.0001488
 41
0.0001488
  0
VERTEX
  8
0
 10
1.3584
 20
0.269151
 30
0.0
 40
0.0001488
 41
0.0001488
  0
VERTEX
  8
0
 10
1.36599
 20
0.272299
 30
0.0
 40
0.0001488
 41
0.0001488
  0
VERTEX
  8
0
 10
1.36811
 20
0.273167
 30
0.0
 40
0.0001488
 41
0.0001488
  0
VERTEX
  8
0
 10
1.37706
 20
0.2787
 30
0.0
 40
0.0001488
 41
0.0001488
  0
VERTEX
  8
0
 10
1.38509
 20
0.285536
 30
0.0
 40
0.0001488
 41
0.0001488
  0
VERTEX
  8
0
 10
1.39051
 20
0.291829
 30
0.0
 40
0.0001488
 41
0.0001488
  0
VERTEX
  8
0
 10
1.39193
 20
0.293511
 30
0.0
 40
0.0001488
 41
0.0001488
  0
VERTEX
  8
0
 10
1.3974
 20
0.302463
 30
0.0
 40
0.0001488
 41
0.0001488
  0
VERTEX
  8
0
 10
1.40007
 20
0.308811
 30
0.0
 40
0.0001488
 41
0.0001488
  0
VERTEX
  8
0
 10
1.40147
 20
0.312229
 30
0.0
 40
0.0001488
 41
0.0001488
  0
VERTEX
  8
0
 10
1.40392
 20
0.322428
 30
0.0
 40
0.0001488
 41
0.0001488
  0
VERTEX
  8
0
 10
1.40474
 20
0.3329
 30
0.0
 40
0.0001488
 41
0.0001488
  0
VERTEX
  8
0
 10
1.40392
 20
0.343425
 30
0.0
 40
0.0001488
 41
0.0001488
  0
VERTEX
  8
0
 10
1.40147
 20
0.353624
 30
0.0
 40
0.0001488
 41
0.0001488
  0
VERTEX
  8
0
 10
1.3974
 20
0.363336
 30
0.0
 40
0.0001488
 41
0.0001488
  0
VERTEX
  8
0
 10
1.39193
 20
0.372342
 30
0.0
 40
0.0001488
 41
0.0001488
  0
VERTEX
  8
0
 10
1.39182
 20
0.372504
 30
0.0
 40
0.0001488
 41
0.0001488
  0
VERTEX
  8
0
 10
1.38954
 20
0.375108
 30
0.0
 40
0.0001488
 41
0.0001488
  0
VERTEX
  8
0
 10
1.38509
 20
0.380317
 30
0.0
 40
0.0001488
 41
0.0001488
  0
VERTEX
  8
0
 10
1.37706
 20
0.387153
 30
0.0
 40
0.0001488
 41
0.0001488
  0
VERTEX
  8
0
 10
1.36811
 20
0.392632
 30
0.0
 40
0.0001488
 41
0.0001488
  0
VERTEX
  8
0
 10
1.36513
 20
0.393881
 30
0.0
 40
0.0001488
 41
0.0001488
  0
VERTEX
  8
0
 10
1.3584
 20
0.396647
 30
0.0
 40
0.0001488
 41
0.0001488
  0
VERTEX
  8
0
 10
1.3552
 20
0.397461
 30
0.0
 40
0.0001488
 41
0.0001488
  0
VERTEX
  8
0
 10
1.3482
 20
0.399143
 30
0.0
 40
0.0001488
 41
0.0001488
  0
VERTEX
  8
0
 10
1.33767
 20
0.399957
 30
0.0
 40
0.0001488
 41
0.0001488
  0
VERTEX
  8
0
 10
1.3272
 20
0.399143
 30
0.0
 40
0.0001488
 41
0.0001488
  0
VERTEX
  8
0
 10
1.32427
 20
0.398438
 30
0.0
 40
0.0001488
 41
0.0001488
  0
VERTEX
  8
0
 10
1.31695
 20
0.396647
 30
0.0
 40
0.0001488
 41
0.0001488
  0
VERTEX
  8
0
 10
1.31293
 20
0.394965
 30
0.0
 40
0.0001488
 41
0.0001488
  0
VERTEX
  8
0
 10
1.30724
 20
0.392632
 30
0.0
 40
0.0001488
 41
0.0001488
  0
VERTEX
  8
0
 10
1.29975
 20
0.388021
 30
0.0
 40
0.0001488
 41
0.0001488
  0
VERTEX
  8
0
 10
1.29829
 20
0.387153
 30
0.0
 40
0.0001488
 41
0.0001488
  0
VERTEX
  8
0
 10
1.29031
 20
0.380317
 30
0.0
 40
0.0001488
 41
0.0001488
  0
VERTEX
  8
0
 10
1.2883
 20
0.377929
 30
0.0
 40
0.0001488
 41
0.0001488
  0
SEQEND
 8
0
  0
POLYLINE
  8
0
 62
     1
 66
     1
 10
0
 20
0
 30
0.0
 70
     1
 40
0.0107136
 41
0.0107136
  0
VERTEX
  8
0
 10
1.28103
 20
1.87099
 30
0.0
 40
0.0001488
 41
0.0001488
  0
VERTEX
  8
0
 10
1.28348
 20
1.86703
 30
0.0
 40
0.0001488
 41
0.0001488
  0
VERTEX
  8
0
 10
1.29031
 20
1.859
 30
0.0
 40
0.0001488
 41
0.0001488
  0
VERTEX
  8
0
 10
1.29829
 20
1.85221
 30
0.0
 40
0.0001488
 41
0.0001488
  0
VERTEX
  8
0
 10
1.29975
 20
1.85135
 30
0.0
 40
0.0001488
 41
0.0001488
  0
VERTEX
  8
0
 10
1.30724
 20
1.84668
 30
0.0
 40
0.0001488
 41
0.0001488
  0
VERTEX
  8
0
 10
1.31695
 20
1.84267
 30
0.0
 40
0.0001488
 41
0.0001488
  0
VERTEX
  8
0
 10
1.3272
 20
1.84022
 30
0.0
 40
0.0001488
 41
0.0001488
  0
VERTEX
  8
0
 10
1.32905
 20
1.84011
 30
0.0
 40
0.0001488
 41
0.0001488
  0
VERTEX
  8
0
 10
1.33767
 20
1.83942
 30
0.0
 40
0.0001488
 41
0.0001488
  0
VERTEX
  8
0
 10
1.3482
 20
1.84022
 30
0.0
 40
0.0001488
 41
0.0001488
  0
VERTEX
  8
0
 10
1.3584
 20
1.84267
 30
0.0
 40
0.0001488
 41
0.0001488
  0
VERTEX
  8
0
 10
1.36811
 20
1.84668
 30
0.0
 40
0.0001488
 41
0.0001488
  0
VERTEX
  8
0
 10
1.37088
 20
1.84842
 30
0.0
 40
0.0001488
 41
0.0001488
  0
VERTEX
  8
0
 10
1.37706
 20
1.85221
 30
0.0
 40
0.0001488
 41
0.0001488
  0
VERTEX
  8
0
 10
1.38509
 20
1.859
 30
0.0
 40
0.0001488
 41
0.0001488
  0
VERTEX
  8
0
 10
1.39193
 20
1.86703
 30
0.0
 40
0.0001488
 41
0.0001488
  0
VERTEX
  8
0
 10
1.3974
 20
1.87597
 30
0.0
 40
0.0001488
 41
0.0001488
  0
VERTEX
  8
0
 10
1.39925
 20
1.88049
 30
0.0
 40
0.0001488
 41
0.0001488
  0
VERTEX
  8
0
 10
1.40012
 20
1.88254
 30
0.0
 40
0.0001488
 41
0.0001488
  0
VERTEX
  8
0
 10
1.40147
 20
1.88569
 30
0.0
 40
0.0001488
 41
0.0001488
  0
VERTEX
  8
0
 10
1.40392
 20
1.89594
 30
0.0
 40
0.0001488
 41
0.0001488
  0
VERTEX
  8
0
 10
1.40457
 20
1.90446
 30
0.0
 40
0.0001488
 41
0.0001488
  0
VERTEX
  8
0
 10
1.40474
 20
1.90642
 30
0.0
 40
0.0001488
 41
0.0001488
  0
VERTEX
  8
0
 10
1.40392
 20
1.91689
 30
0.0
 40
0.0001488
 41
0.0001488
  0
VERTEX
  8
0
 10
1.40147
 20
1.92714
 30
0.0
 40
0.0001488
 41
0.0001488
  0
VERTEX
  8
0
 10
1.3974
 20
1.93685
 30
0.0
 40
0.0001488
 41
0.0001488
  0
VERTEX
  8
0
 10
1.39193
 20
1.94586
 30
0.0
 40
0.0001488
 41
0.0001488
  0
VERTEX
  8
0
 10
1.38971
 20
1.94846
 30
0.0
 40
0.0001488
 41
0.0001488
  0
VERTEX
  8
0
 10
1.38509
 20
1.95383
 30
0.0
 40
0.0001488
 41
0.0001488
  0
VERTEX
  8
0
 10
1.38037
 20
1.9579
 30
0.0
 40
0.0001488
 41
0.0001488
  0
VERTEX
  8
0
 10
1.37706
 20
1.96067
 30
0.0
 40
0.0001488
 41
0.0001488
  0
VERTEX
  8
0
 10
1.36811
 20
1.96615
 30
0.0
 40
0.0001488
 41
0.0001488
  0
VERTEX
  8
0
 10
1.3584
 20
1.97017
 30
0.0
 40
0.0001488
 41
0.0001488
  0
VERTEX
  8
0
 10
1.35699
 20
1.97049
 30
0.0
 40
0.0001488
 41
0.0001488
  0
VERTEX
  8
0
 10
1.3482
 20
1.97265
 30
0.0
 40
0.0001488
 41
0.0001488
  0
VERTEX
  8
0
 10
1.33892
 20
1.97336
 30
0.0
 40
0.0001488
 41
0.0001488
  0
VERTEX
  8
0
 10
1.33767
 20
1.97347
 30
0.0
 40
0.0001488
 41
0.0001488
  0
VERTEX
  8
0
 10
1.3272
 20
1.97265
 30
0.0
 40
0.0001488
 41
0.0001488
  0
VERTEX
  8
0
 10
1.31695
 20
1.97017
 30
0.0
 40
0.0001488
 41
0.0001488
  0
VERTEX
  8
0
 10
1.30724
 20
1.96615
 30
0.0
 40
0.0001488
 41
0.0001488
  0
VERTEX
  8
0
 10
1.29975
 20
1.96153
 30
0.0
 40
0.0001488
 41
0.0001488
  0
VERTEX
  8
0
 10
1.29829
 20
1.96067
 30
0.0
 40
0.0001488
 41
0.0001488
  0
VERTEX
  8
0
 10
1.29031
 20
1.95383
 30
0.0
 40
0.0001488
 41
0.0001488
  0
VERTEX
  8
0
 10
1.28814
 20
1.95128
 30
0.0
 40
0.0001488
 41
0.0001488
  0
VERTEX
  8
0
 10
1.28348
 20
1.94586
 30
0.0
 40
0.0001488
 41
0.0001488
  0
VERTEX
  8
0
 10
1.27794
 20
1.93685
 30
0.0
 40
0.0001488
 41
0.0001488
  0
VERTEX
  8
0
 10
1.27393
 20
1.92714
 30
0.0
 40
0.0001488
 41
0.0001488
  0
VERTEX
  8
0
 10
1.27148
 20
1.91689
 30
0.0
 40
0.0001488
 41
0.0001488
  0
VERTEX
  8
0
 10
1.27067
 20
1.90642
 30
0.0
 40
0.0001488
 41
0.0001488
  0
VERTEX
  8
0
 10
1.27083
 20
1.90446
 30
0.0
 40
0.0001488
 41
0.0001488
  0
VERTEX
  8
0
 10
1.27148
 20
1.89594
 30
0.0
 40
0.0001488
 41
0.0001488
  0
VERTEX
  8
0
 10
1.27393
 20
1.88569
 30
0.0
 40
0.0001488
 41
0.0001488
  0
VERTEX
  8
0
 10
1.27669
 20
1.87907
 30
0.0
 40
0.0001488
 41
0.0001488
  0
VERTEX
  8
0
 10
1.27794
 20
1.87597
 30
0.0
 40
0.0001488
 41
0.0001488
  0
VERTEX
  8
0
 10
1.28103
 20
1.87099
 30
0.0
 40
0.0001488
 41
0.0001488
  0
SEQEND
 8
0
  0
POLYLINE
  8
0
 62
     1
 66
     1
 10
0
 20
0
 30
0.0
 70
     1
 40
0.0107136
 41
0.0107136
  0
VERTEX
  8
0
 10
1.29915
 20
2.21343
 30
0.0
 40
0.0001488
 41
0.0001488
  0
VERTEX
  8
0
 10
1.29915
 20
2.21317
 30
0.0
 40
0.0001488
 41
0.0001488
  0
VERTEX
  8
0
 10
1.37809
 20
2.21317
 30
0.0
 40
0.0001488
 41
0.0001488
  0
VERTEX
  8
0
 10
1.37809
 20
2.83344
 30
0.0
 40
0.0001488
 41
0.0001488
  0
VERTEX
  8
0
 10
1.37457
 20
2.83344
 30
0.0
 40
0.0001488
 41
0.0001488
  0
VERTEX
  8
0
 10
1.37457
 20
2.83371
 30
0.0
 40
0.0001488
 41
0.0001488
  0
VERTEX
  8
0
 10
1.25624
 20
2.83371
 30
0.0
 40
0.0001488
 41
0.0001488
  0
VERTEX
  8
0
 10
1.25624
 20
2.21343
 30
0.0
 40
0.0001488
 41
0.0001488
  0
VERTEX
  8
0
 10
1.29915
 20
2.21343
 30
0.0
 40
0.0001488
 41
0.0001488
  0
SEQEND
 8
0
  0
POLYLINE
  8
0
 62
     1
 66
     1
 10
0
 20
0
 30
0.0
 70
     1
 40
0.0107136
 41
0.0107136
  0
VERTEX
  8
0
 10
1.28136
 20
4.36199
 30
0.0
 40
0.0001488
 41
0.0001488
  0
VERTEX
  8
0
 10
1.28348
 20
4.35856
 30
0.0
 40
0.0001488
 41
0.0001488
  0
VERTEX
  8
0
 10
1.29031
 20
4.35058
 30
0.0
 40
0.0001488
 41
0.0001488
  0
VERTEX
  8
0
 10
1.29829
 20
4.34375
 30
0.0
 40
0.0001488
 41
0.0001488
  0
VERTEX
  8
0
 10
1.29975
 20
4.34289
 30
0.0
 40
0.0001488
 41
0.0001488
  0
VERTEX
  8
0
 10
1.30724
 20
4.33826
 30
0.0
 40
0.0001488
 41
0.0001488
  0
VERTEX
  8
0
 10
1.31695
 20
4.33421
 30
0.0
 40
0.0001488
 41
0.0001488
  0
VERTEX
  8
0
 10
1.32541
 20
4.33219
 30
0.0
 40
0.0001488
 41
0.0001488
  0
VERTEX
  8
0
 10
1.3272
 20
4.33176
 30
0.0
 40
0.0001488
 41
0.0001488
  0
VERTEX
  8
0
 10
1.33767
 20
4.33094
 30
0.0
 40
0.0001488
 41
0.0001488
  0
VERTEX
  8
0
 10
1.3482
 20
4.33176
 30
0.0
 40
0.0001488
 41
0.0001488
  0
VERTEX
  8
0
 10
1.3584
 20
4.33421
 30
0.0
 40
0.0001488
 41
0.0001488
  0
VERTEX
  8
0
 10
1.36507
 20
4.33703
 30
0.0
 40
0.0001488
 41
0.0001488
  0
VERTEX
  8
0
 10
1.36811
 20
4.33826
 30
0.0
 40
0.0001488
 41
0.0001488
  0
VERTEX
  8
0
 10
1.37457
 20
4.34224
 30
0.0
 40
0.0001488
 41
0.0001488
  0
VERTEX
  8
0
 10
1.37706
 20
4.34375
 30
0.0
 40
0.0001488
 41
0.0001488
  0
VERTEX
  8
0
 10
1.38037
 20
4.34657
 30
0.0
 40
0.0001488
 41
0.0001488
  0
VERTEX
  8
0
 10
1.38509
 20
4.35058
 30
0.0
 40
0.0001488
 41
0.0001488
  0
VERTEX
  8
0
 10
1.39193
 20
4.35856
 30
0.0
 40
0.0001488
 41
0.0001488
  0
VERTEX
  8
0
 10
1.3974
 20
4.36757
 30
0.0
 40
0.0001488
 41
0.0001488
  0
VERTEX
  8
0
 10
1.40082
 20
4.37576
 30
0.0
 40
0.0001488
 41
0.0001488
  0
VERTEX
  8
0
 10
1.40147
 20
4.37722
 30
0.0
 40
0.0001488
 41
0.0001488
  0
VERTEX
  8
0
 10
1.40392
 20
4.38747
 30
0.0
 40
0.0001488
 41
0.0001488
  0
VERTEX
  8
0
 10
1.40474
 20
4.398
 30
0.0
 40
0.0001488
 41
0.0001488
  0
VERTEX
  8
0
 10
1.40424
 20
4.40397
 30
0.0
 40
0.0001488
 41
0.0001488
  0
VERTEX
  8
0
 10
1.40392
 20
4.40847
 30
0.0
 40
0.0001488
 41
0.0001488
  0
VERTEX
  8
0
 10
1.40147
 20
4.41872
 30
0.0
 40
0.0001488
 41
0.0001488
  0
VERTEX
  8
0
 10
1.3974
 20
4.42839
 30
0.0
 40
0.0001488
 41
0.0001488
  0
VERTEX
  8
0
 10
1.39453
 20
4.43317
 30
0.0
 40
0.0001488
 41
0.0001488
  0
VERTEX
  8
0
 10
1.39193
 20
4.43739
 30
0.0
 40
0.0001488
 41
0.0001488
  0
VERTEX
  8
0
 10
1.38509
 20
4.44536
 30
0.0
 40
0.0001488
 41
0.0001488
  0
VERTEX
  8
0
 10
1.37706
 20
4.45221
 30
0.0
 40
0.0001488
 41
0.0001488
  0
VERTEX
  8
0
 10
1.36811
 20
4.45768
 30
0.0
 40
0.0001488
 41
0.0001488
  0
VERTEX
  8
0
 10
1.36312
 20
4.45975
 30
0.0
 40
0.0001488
 41
0.0001488
  0
VERTEX
  8
0
 10
1.3584
 20
4.46175
 30
0.0
 40
0.0001488
 41
0.0001488
  0
VERTEX
  8
0
 10
1.3482
 20
4.46419
 30
0.0
 40
0.0001488
 41
0.0001488
  0
VERTEX
  8
0
 10
1.33767
 20
4.465
 30
0.0
 40
0.0001488
 41
0.0001488
  0
VERTEX
  8
0
 10
1.3272
 20
4.46419
 30
0.0
 40
0.0001488
 41
0.0001488
  0
VERTEX
  8
0
 10
1.32275
 20
4.46311
 30
0.0
 40
0.0001488
 41
0.0001488
  0
VERTEX
  8
0
 10
1.31695
 20
4.46175
 30
0.0
 40
0.0001488
 41
0.0001488
  0
VERTEX
  8
0
 10
1.30724
 20
4.45768
 30
0.0
 40
0.0001488
 41
0.0001488
  0
VERTEX
  8
0
 10
1.29975
 20
4.45307
 30
0.0
 40
0.0001488
 41
0.0001488
  0
VERTEX
  8
0
 10
1.29829
 20
4.45221
 30
0.0
 40
0.0001488
 41
0.0001488
  0
VERTEX
  8
0
 10
1.29031
 20
4.44536
 30
0.0
 40
0.0001488
 41
0.0001488
  0
VERTEX
  8
0
 10
1.28348
 20
4.43739
 30
0.0
 40
0.0001488
 41
0.0001488
  0
VERTEX
  8
0
 10
1.27794
 20
4.42839
 30
0.0
 40
0.0001488
 41
0.0001488
  0
VERTEX
  8
0
 10
1.27393
 20
4.41872
 30
0.0
 40
0.0001488
 41
0.0001488
  0
VERTEX
  8
0
 10
1.27148
 20
4.40847
 30
0.0
 40
0.0001488
 41
0.0001488
  0
VERTEX
  8
0
 10
1.27116
 20
4.40397
 30
0.0
 40
0.0001488
 41
0.0001488
  0
VERTEX
  8
0
 10
1.27067
 20
4.398
 30
0.0
 40
0.0001488
 41
0.0001488
  0
VERTEX
  8
0
 10
1.27148
 20
4.38747
 30
0.0
 40
0.0001488
 41
0.0001488
  0
VERTEX
  8
0
 10
1.27393
 20
4.37722
 30
0.0
 40
0.0001488
 41
0.0001488
  0
VERTEX
  8
0
 10
1.27664
 20
4.37071
 30
0.0
 40
0.0001488
 41
0.0001488
  0
VERTEX
  8
0
 10
1.27794
 20
4.36757
 30
0.0
 40
0.0001488
 41
0.0001488
  0
VERTEX
  8
0
 10
1.28136
 20
4.36199
 30
0.0
 40
0.0001488
 41
0.0001488
  0
SEQEND
 8
0
  0
POLYLINE
  8
0
 62
     1
 66
     1
 10
0
 20
0
 30
0.0
 70
     1
 40
0.0107136
 41
0.0107136
  0
VERTEX
  8
0
 10
1.37809
 20
2.98085
 30
0.0
 40
0.0001488
 41
0.0001488
  0
VERTEX
  8
0
 10
1.37809
 20
3.84722
 30
0.0
 40
0.0001488
 41
0.0001488
  0
VERTEX
  8
0
 10
1.37457
 20
3.84722
 30
0.0
 40
0.0001488
 41
0.0001488
  0
VERTEX
  8
0
 10
1.37457
 20
3.8475
 30
0.0
 40
0.0001488
 41
0.0001488
  0
VERTEX
  8
0
 10
1.25624
 20
3.8475
 30
0.0
 40
0.0001488
 41
0.0001488
  0
VERTEX
  8
0
 10
1.25624
 20
2.98113
 30
0.0
 40
0.0001488
 41
0.0001488
  0
VERTEX
  8
0
 10
1.29915
 20
2.98113
 30
0.0
 40
0.0001488
 41
0.0001488
  0
VERTEX
  8
0
 10
1.29915
 20
2.98085
 30
0.0
 40
0.0001488
 41
0.0001488
  0
VERTEX
  8
0
 10
1.37809
 20
2.98085
 30
0.0
 40
0.0001488
 41
0.0001488
  0
SEQEND
 8
0
  0
POLYLINE
  8
0
 62
     1
 66
     1
 10
0
 20
0
 30
0.0
 70
     1
 40
0.0107136
 41
0.0107136
  0
VERTEX
  8
0
 10
0.48291
 20
1.10444
 30
0.0
 40
0.0001488
 41
0.0001488
  0
VERTEX
  8
0
 10
0.410265
 20
1.0625
 30
0.0
 40
0.0001488
 41
0.0001488
  0
VERTEX
  8
0
 10
0.410265
 20
0.92079
 30
0.0
 40
0.0001488
 41
0.0001488
  0
VERTEX
  8
0
 10
0.48291
 20
0.878851
 30
0.0
 40
0.0001488
 41
0.0001488
  0
VERTEX
  8
0
 10
0.533094
 20
0.849881
 30
0.0
 40
0.0001488
 41
0.0001488
  0
VERTEX
  8
0
 10
0.547146
 20
0.858018
 30
0.0
 40
0.0001488
 41
0.0001488
  0
VERTEX
  8
0
 10
0.655817
 20
0.92079
 30
0.0
 40
0.0001488
 41
0.0001488
  0
VERTEX
  8
0
 10
0.655817
 20
1.0625
 30
0.0
 40
0.0001488
 41
0.0001488
  0
VERTEX
  8
0
 10
0.533094
 20
1.13341
 30
0.0
 40
0.0001488
 41
0.0001488
  0
VERTEX
  8
0
 10
0.48291
 20
1.10444
 30
0.0
 40
0.0001488
 41
0.0001488
  0
SEQEND
 8
0
  0
POLYLINE
  8
0
 62
     1
 66
     1
 10
0
 20
0
 30
0.0
 70
     1
 40
0.0107136
 41
0.0107136
  0
VERTEX
  8
0
 10
0.515625
 20
2.21317
 30
0.0
 40
0.0001488
 41
0.0001488
  0
VERTEX
  8
0
 10
0.48291
 20
2.19428
 30
0.0
 40
0.0001488
 41
0.0001488
  0
VERTEX
  8
0
 10
0.434028
 20
2.16601
 30
0.0
 40
0.0001488
 41
0.0001488
  0
VERTEX
  8
0
 10
0.434028
 20
2.03429
 30
0.0
 40
0.0001488
 41
0.0001488
  0
VERTEX
  8
0
 10
0.48291
 20
2.00608
 30
0.0
 40
0.0001488
 41
0.0001488
  0
VERTEX
  8
0
 10
0.548122
 20
1.96847
 30
0.0
 40
0.0001488
 41
0.0001488
  0
VERTEX
  8
0
 10
0.595757
 20
1.99593
 30
0.0
 40
0.0001488
 41
0.0001488
  0
VERTEX
  8
0
 10
0.662218
 20
2.03429
 30
0.0
 40
0.0001488
 41
0.0001488
  0
VERTEX
  8
0
 10
0.662218
 20
2.16601
 30
0.0
 40
0.0001488
 41
0.0001488
  0
VERTEX
  8
0
 10
0.632975
 20
2.18289
 30
0.0
 40
0.0001488
 41
0.0001488
  0
VERTEX
  8
0
 10
0.559407
 20
2.22538
 30
0.0
 40
0.0001488
 41
0.0001488
  0
VERTEX
  8
0
 10
0.550022
 20
2.23079
 30
0.0
 40
0.0001488
 41
0.0001488
  0
VERTEX
  8
0
 10
0.548122
 20
2.23188
 30
0.0
 40
0.0001488
 41
0.0001488
  0
VERTEX
  8
0
 10
0.515625
 20
2.21317
 30
0.0
 40
0.0001488
 41
0.0001488
  0
SEQEND
 8
0
  0
POLYLINE
  8
0
 62
     1
 66
     1
 10
0
 20
0
 30
0.0
 70
     1
 40
0.0107136
 41
0.0107136
  0
VERTEX
  8
0
 10
0.948893
 20
0.858018
 30
0.0
 40
0.0001488
 41
0.0001488
  0
VERTEX
  8
0
 10
0.960286
 20
0.851454
 30
0.0
 40
0.0001488
 41
0.0001488
  0
VERTEX
  8
0
 10
0.962999
 20
0.849881
 30
0.0
 40
0.0001488
 41
0.0001488
  0
VERTEX
  8
0
 10
1.01091
 20
0.87755
 30
0.0
 40
0.0001488
 41
0.0001488
  0
VERTEX
  8
0
 10
1.01421
 20
0.879503
 30
0.0
 40
0.0001488
 41
0.0001488
  0
VERTEX
  8
0
 10
1.08577
 20
0.92079
 30
0.0
 40
0.0001488
 41
0.0001488
  0
VERTEX
  8
0
 10
1.08577
 20
1.0625
 30
0.0
 40
0.0001488
 41
0.0001488
  0
VERTEX
  8
0
 10
1.0803
 20
1.0657
 30
0.0
 40
0.0001488
 41
0.0001488
  0
VERTEX
  8
0
 10
1.01091
 20
1.10574
 30
0.0
 40
0.0001488
 41
0.0001488
  0
VERTEX
  8
0
 10
0.975097
 20
1.12641
 30
0.0
 40
0.0001488
 41
0.0001488
  0
VERTEX
  8
0
 10
0.962999
 20
1.13341
 30
0.0
 40
0.0001488
 41
0.0001488
  0
VERTEX
  8
0
 10
0.960286
 20
1.13184
 30
0.0
 40
0.0001488
 41
0.0001488
  0
VERTEX
  8
0
 10
0.840224
 20
1.0625
 30
0.0
 40
0.0001488
 41
0.0001488
  0
VERTEX
  8
0
 10
0.840224
 20
0.92079
 30
0.0
 40
0.0001488
 41
0.0001488
  0
VERTEX
  8
0
 10
0.948893
 20
0.858018
 30
0.0
 40
0.0001488
 41
0.0001488
  0
SEQEND
 8
0
  0
POLYLINE
  8
0
 62
     1
 66
     1
 10
0
 20
0
 30
0.0
 70
     1
 40
0.0107136
 41
0.0107136
  0
VERTEX
  8
0
 10
0.833279
 20
1.57308
 30
0.0
 40
0.0001488
 41
0.0001488
  0
VERTEX
  8
0
 10
0.748047
 20
1.62229
 30
0.0
 40
0.0001488
 41
0.0001488
  0
VERTEX
  8
0
 10
0.662761
 20
1.57308
 30
0.0
 40
0.0001488
 41
0.0001488
  0
VERTEX
  8
0
 10
0.546442
 20
1.50592
 30
0.0
 40
0.0001488
 41
0.0001488
  0
VERTEX
  8
0
 10
0.546442
 20
1.27268
 30
0.0
 40
0.0001488
 41
0.0001488
  0
VERTEX
  8
0
 10
0.726887
 20
1.16846
 30
0.0
 40
0.0001488
 41
0.0001488
  0
VERTEX
  8
0
 10
0.748047
 20
1.15625
 30
0.0
 40
0.0001488
 41
0.0001488
  0
VERTEX
  8
0
 10
0.769206
 20
1.16846
 30
0.0
 40
0.0001488
 41
0.0001488
  0
VERTEX
  8
0
 10
0.832954
 20
1.2053
 30
0.0
 40
0.0001488
 41
0.0001488
  0
VERTEX
  8
0
 10
0.949653
 20
1.27268
 30
0.0
 40
0.0001488
 41
0.0001488
  0
VERTEX
  8
0
 10
0.949653
 20
1.50592
 30
0.0
 40
0.0001488
 41
0.0001488
  0
VERTEX
  8
0
 10
0.911458
 20
1.52794
 30
0.0
 40
0.0001488
 41
0.0001488
  0
VERTEX
  8
0
 10
0.833279
 20
1.57308
 30
0.0
 40
0.0001488
 41
0.0001488
  0
SEQEND
 8
0
  0
POLYLINE
  8
0
 62
     1
 66
     1
 10
0
 20
0
 30
0.0
 70
     1
 40
0.0107136
 41
0.0107136
  0
VERTEX
  8
0
 10
0.559517
 20
3.7035
 30
0.0
 40
0.0001488
 41
0.0001488
  0
VERTEX
  8
0
 10
0.617025
 20
3.7035
 30
0.0
 40
0.0001488
 41
0.0001488
  0
VERTEX
  8
0
 10
0.617025
 20
3.90136
 30
0.0
 40
0.0001488
 41
0.0001488
  0
VERTEX
  8
0
 10
0.544271
 20
3.90136
 30
0.0
 40
0.0001488
 41
0.0001488
  0
VERTEX
  8
0
 10
0.544271
 20
3.7035
 30
0.0
 40
0.0001488
 41
0.0001488
  0
VERTEX
  8
0
 10
0.559517
 20
3.7035
 30
0.0
 40
0.0001488
 41
0.0001488
  0
SEQEND
 8
0
  0
POLYLINE
  8
0
 62
     1
 66
     1
 10
0
 20
0
 30
0.0
 70
     1
 40
0.0107136
 41
0.0107136
  0
VERTEX
  8
0
 10
0.48291
 20
4.36062
 30
0.0
 40
0.0001488
 41
0.0001488
  0
VERTEX
  8
0
 10
0.464301
 20
4.34988
 30
0.0
 40
0.0001488
 41
0.0001488
  0
VERTEX
  8
0
 10
0.434028
 20
4.33242
 30
0.0
 40
0.0001488
 41
0.0001488
  0
VERTEX
  8
0
 10
0.434028
 20
4.20074
 30
0.0
 40
0.0001488
 41
0.0001488
  0
VERTEX
  8
0
 10
0.48291
 20
4.17247
 30
0.0
 40
0.0001488
 41
0.0001488
  0
VERTEX
  8
0
 10
0.493326
 20
4.16644
 30
0.0
 40
0.0001488
 41
0.0001488
  0
VERTEX
  8
0
 10
0.548122
 20
4.13482
 30
0.0
 40
0.0001488
 41
0.0001488
  0
VERTEX
  8
0
 10
0.662218
 20
4.20074
 30
0.0
 40
0.0001488
 41
0.0001488
  0
VERTEX
  8
0
 10
0.662218
 20
4.33242
 30
0.0
 40
0.0001488
 41
0.0001488
  0
VERTEX
  8
0
 10
0.632975
 20
4.34928
 30
0.0
 40
0.0001488
 41
0.0001488
  0
VERTEX
  8
0
 10
0.548122
 20
4.39828
 30
0.0
 40
0.0001488
 41
0.0001488
  0
VERTEX
  8
0
 10
0.48291
 20
4.36062
 30
0.0
 40
0.0001488
 41
0.0001488
  0
SEQEND
 8
0
  0
POLYLINE
  8
0
 62
     1
 66
     1
 10
0
 20
0
 30
0.0
 70
     1
 40
0.0107136
 41
0.0107136
  0
VERTEX
  8
0
 10
0.950358
 20
1.96983
 30
0.0
 40
0.0001488
 41
0.0001488
  0
VERTEX
  8
0
 10
1.01091
 20
2.00478
 30
0.0
 40
0.0001488
 41
0.0001488
  0
VERTEX
  8
0
 10
1.06207
 20
2.03429
 30
0.0
 40
0.0001488
 41
0.0001488
  0
VERTEX
  8
0
 10
1.06207
 20
2.16601
 30
0.0
 40
0.0001488
 41
0.0001488
  0
VERTEX
  8
0
 10
1.01091
 20
2.19553
 30
0.0
 40
0.0001488
 41
0.0001488
  0
VERTEX
  8
0
 10
0.980414
 20
2.21317
 30
0.0
 40
0.0001488
 41
0.0001488
  0
VERTEX
  8
0
 10
0.950358
 20
2.23053
 30
0.0
 40
0.0001488
 41
0.0001488
  0
VERTEX
  8
0
 10
0.947971
 20
2.23188
 30
0.0
 40
0.0001488
 41
0.0001488
  0
VERTEX
  8
0
 10
0.945258
 20
2.23031
 30
0.0
 40
0.0001488
 41
0.0001488
  0
VERTEX
  8
0
 10
0.936686
 20
2.22538
 30
0.0
 40
0.0001488
 41
0.0001488
  0
VERTEX
  8
0
 10
0.863064
 20
2.18289
 30
0.0
 40
0.0001488
 41
0.0001488
  0
VERTEX
  8
0
 10
0.833876
 20
2.16601
 30
0.0
 40
0.0001488
 41
0.0001488
  0
VERTEX
  8
0
 10
0.833876
 20
2.03429
 30
0.0
 40
0.0001488
 41
0.0001488
  0
VERTEX
  8
0
 10
0.900336
 20
1.99599
 30
0.0
 40
0.0001488
 41
0.0001488
  0
VERTEX
  8
0
 10
0.945258
 20
1.97006
 30
0.0
 40
0.0001488
 41
0.0001488
  0
VERTEX
  8
0
 10
0.947971
 20
1.96847
 30
0.0
 40
0.0001488
 41
0.0001488
  0
VERTEX
  8
0
 10
0.950358
 20
1.96983
 30
0.0
 40
0.0001488
 41
0.0001488
  0
SEQEND
 8
0
  0
POLYLINE
  8
0
 62
     1
 66
     1
 10
0
 20
0
 30
0.0
 70
     1
 40
0.0107136
 41
0.0107136
  0
VERTEX
  8
0
 10
1.00271
 20
4.16644
 30
0.0
 40
0.0001488
 41
0.0001488
  0
VERTEX
  8
0
 10
1.01091
 20
4.17117
 30
0.0
 40
0.0001488
 41
0.0001488
  0
VERTEX
  8
0
 10
1.03521
 20
4.18522
 30
0.0
 40
0.0001488
 41
0.0001488
  0
VERTEX
  8
0
 10
1.06207
 20
4.20074
 30
0.0
 40
0.0001488
 41
0.0001488
  0
VERTEX
  8
0
 10
1.06207
 20
4.33242
 30
0.0
 40
0.0001488
 41
0.0001488
  0
VERTEX
  8
0
 10
1.03179
 20
4.34988
 30
0.0
 40
0.0001488
 41
0.0001488
  0
VERTEX
  8
0
 10
1.01091
 20
4.36193
 30
0.0
 40
0.0001488
 41
0.0001488
  0
VERTEX
  8
0
 10
1.00684
 20
4.36426
 30
0.0
 40
0.0001488
 41
0.0001488
  0
VERTEX
  8
0
 10
0.947971
 20
4.39828
 30
0.0
 40
0.0001488
 41
0.0001488
  0
VERTEX
  8
0
 10
0.863064
 20
4.34924
 30
0.0
 40
0.0001488
 41
0.0001488
  0
VERTEX
  8
0
 10
0.861111
 20
4.3481
 30
0.0
 40
0.0001488
 41
0.0001488
  0
VERTEX
  8
0
 10
0.833876
 20
4.33242
 30
0.0
 40
0.0001488
 41
0.0001488
  0
VERTEX
  8
0
 10
0.833876
 20
4.20074
 30
0.0
 40
0.0001488
 41
0.0001488
  0
VERTEX
  8
0
 10
0.861111
 20
4.185
 30
0.0
 40
0.0001488
 41
0.0001488
  0
VERTEX
  8
0
 10
0.947971
 20
4.13482
 30
0.0
 40
0.0001488
 41
0.0001488
  0
VERTEX
  8
0
 10
1.00271
 20
4.16644
 30
0.0
 40
0.0001488
 41
0.0001488
  0
SEQEND
 8
0
  0
POLYLINE
  8
0
 62
     1
 66
     1
 10
0
 20
0
 30
0.0
 70
     1
 40
0.0107136
 41
0.0107136
  0
VERTEX
  8
0
 10
0.747993
 20
6.13672
 30
0.0
 40
0.0001488
 41
0.0001488
  0
VERTEX
  8
0
 10
0.606717
 20
6.05518
 30
0.0
 40
0.0001488
 41
0.0001488
  0
VERTEX
  8
0
 10
0.606717
 20
5.89208
 30
0.0
 40
0.0001488
 41
0.0001488
  0
VERTEX
  8
0
 10
0.747993
 20
5.81049
 30
0.0
 40
0.0001488
 41
0.0001488
  0
VERTEX
  8
0
 10
0.889268
 20
5.89208
 30
0.0
 40
0.0001488
 41
0.0001488
  0
VERTEX
  8
0
 10
0.889268
 20
6.05518
 30
0.0
 40
0.0001488
 41
0.0001488
  0
VERTEX
  8
0
 10
0.747993
 20
6.13672
 30
0.0
 40
0.0001488
 41
0.0001488
  0
SEQEND
 8
0
  0
POLYLINE
  8
0
 62
     1
 66
     1
 10
0
 20
0
 30
0.0
 70
     1
 40
0.0107136
 41
0.0107136
  0
VERTEX
  8
0
 10
1.00483
 20
5.6396
 30
0.0
 40
0.0001488
 41
0.0001488
  0
VERTEX
  8
0
 10
1.01091
 20
5.64312
 30
0.0
 40
0.0001488
 41
0.0001488
  0
VERTEX
  8
0
 10
1.10498
 20
5.69743
 30
0.0
 40
0.0001488
 41
0.0001488
  0
VERTEX
  8
0
 10
1.10498
 20
5.8131
 30
0.0
 40
0.0001488
 41
0.0001488
  0
VERTEX
  8
0
 10
1.01091
 20
5.86735
 30
0.0
 40
0.0001488
 41
0.0001488
  0
VERTEX
  8
0
 10
1.00483
 20
5.87088
 30
0.0
 40
0.0001488
 41
0.0001488
  0
VERTEX
  8
0
 10
0.904731
 20
5.8131
 30
0.0
 40
0.0001488
 41
0.0001488
  0
VERTEX
  8
0
 10
0.904731
 20
5.69743
 30
0.0
 40
0.0001488
 41
0.0001488
  0
VERTEX
  8
0
 10
1.00483
 20
5.6396
 30
0.0
 40
0.0001488
 41
0.0001488
  0
SEQEND
 8
0
  0
POLYLINE
  8
0
 62
     1
 66
     1
 10
0
 20
0
 30
0.0
 70
     1
 40
0.0107136
 41
0.0107136
  0
VERTEX
  8
0
 10
1.00483
 20
5.19228
 30
0.0
 40
0.0001488
 41
0.0001488
  0
VERTEX
  8
0
 10
1.01091
 20
5.19575
 30
0.0
 40
0.0001488
 41
0.0001488
  0
VERTEX
  8
0
 10
1.10498
 20
5.25006
 30
0.0
 40
0.0001488
 41
0.0001488
  0
VERTEX
  8
0
 10
1.10498
 20
5.36567
 30
0.0
 40
0.0001488
 41
0.0001488
  0
VERTEX
  8
0
 10
1.01091
 20
5.42003
 30
0.0
 40
0.0001488
 41
0.0001488
  0
VERTEX
  8
0
 10
1.00483
 20
5.4235
 30
0.0
 40
0.0001488
 41
0.0001488
  0
VERTEX
  8
0
 10
0.904731
 20
5.36567
 30
0.0
 40
0.0001488
 41
0.0001488
  0
VERTEX
  8
0
 10
0.904731
 20
5.25006
 30
0.0
 40
0.0001488
 41
0.0001488
  0
VERTEX
  8
0
 10
1.00483
 20
5.19228
 30
0.0
 40
0.0001488
 41
0.0001488
  0
SEQEND
 8
0
  0
POLYLINE
  8
0
 62
     1
 66
     1
 10
0
 20
0
 30
0.0
 70
     1
 40
0.0107136
 41
0.0107136
  0
VERTEX
  8
0
 10
0.590224
 20
5.36615
 30
0.0
 40
0.0001488
 41
0.0001488
  0
VERTEX
  8
0
 10
0.546875
 20
5.39117
 30
0.0
 40
0.0001488
 41
0.0001488
  0
VERTEX
  8
0
 10
0.490018
 20
5.42399
 30
0.0
 40
0.0001488
 41
0.0001488
  0
VERTEX
  8
0
 10
0.48291
 20
5.41986
 30
0.0
 40
0.0001488
 41
0.0001488
  0
VERTEX
  8
0
 10
0.400336
 20
5.37218
 30
0.0
 40
0.0001488
 41
0.0001488
  0
VERTEX
  8
0
 10
0.389919
 20
5.36615
 30
0.0
 40
0.0001488
 41
0.0001488
  0
VERTEX
  8
0
 10
0.389919
 20
5.25054
 30
0.0
 40
0.0001488
 41
0.0001488
  0
VERTEX
  8
0
 10
0.400336
 20
5.24451
 30
0.0
 40
0.0001488
 41
0.0001488
  0
VERTEX
  8
0
 10
0.48291
 20
5.19683
 30
0.0
 40
0.0001488
 41
0.0001488
  0
VERTEX
  8
0
 10
0.490018
 20
5.19271
 30
0.0
 40
0.0001488
 41
0.0001488
  0
VERTEX
  8
0
 10
0.546875
 20
5.22553
 30
0.0
 40
0.0001488
 41
0.0001488
  0
VERTEX
  8
0
 10
0.590224
 20
5.25054
 30
0.0
 40
0.0001488
 41
0.0001488
  0
VERTEX
  8
0
 10
0.590224
 20
5.36615
 30
0.0
 40
0.0001488
 41
0.0001488
  0
SEQEND
 8
0
  0
POLYLINE
  8
0
 62
     1
 66
     1
 10
0
 20
0
 30
0.0
 70
     1
 40
0.0107136
 41
0.0107136
  0
VERTEX
  8
0
 10
0.747993
 20
5.25956
 30
0.0
 40
0.0001488
 41
0.0001488
  0
VERTEX
  8
0
 10
0.606717
 20
5.178
 30
0.0
 40
0.0001488
 41
0.0001488
  0
VERTEX
  8
0
 10
0.606717
 20
5.01486
 30
0.0
 40
0.0001488
 41
0.0001488
  0
VERTEX
  8
0
 10
0.747993
 20
4.93332
 30
0.0
 40
0.0001488
 41
0.0001488
  0
VERTEX
  8
0
 10
0.889268
 20
5.01486
 30
0.0
 40
0.0001488
 41
0.0001488
  0
VERTEX
  8
0
 10
0.889268
 20
5.178
 30
0.0
 40
0.0001488
 41
0.0001488
  0
VERTEX
  8
0
 10
0.747993
 20
5.25956
 30
0.0
 40
0.0001488
 41
0.0001488
  0
SEQEND
 8
0
  0
POLYLINE
  8
0
 62
     1
 66
     1
 10
0
 20
0
 30
0.0
 70
     1
 40
0.0107136
 41
0.0107136
  0
VERTEX
  8
0
 10
0.48291
 20
5.86724
 30
0.0
 40
0.0001488
 41
0.0001488
  0
VERTEX
  8
0
 10
0.400336
 20
5.81956
 30
0.0
 40
0.0001488
 41
0.0001488
  0
VERTEX
  8
0
 10
0.389919
 20
5.81353
 30
0.0
 40
0.0001488
 41
0.0001488
  0
VERTEX
  8
0
 10
0.389919
 20
5.69792
 30
0.0
 40
0.0001488
 41
0.0001488
  0
VERTEX
  8
0
 10
0.400336
 20
5.69189
 30
0.0
 40
0.0001488
 41
0.0001488
  0
VERTEX
  8
0
 10
0.48291
 20
5.64426
 30
0.0
 40
0.0001488
 41
0.0001488
  0
VERTEX
  8
0
 10
0.490018
 20
5.64014
 30
0.0
 40
0.0001488
 41
0.0001488
  0
VERTEX
  8
0
 10
0.546875
 20
5.6729
 30
0.0
 40
0.0001488
 41
0.0001488
  0
VERTEX
  8
0
 10
0.590224
 20
5.69792
 30
0.0
 40
0.0001488
 41
0.0001488
  0
VERTEX
  8
0
 10
0.590224
 20
5.81353
 30
0.0
 40
0.0001488
 41
0.0001488
  0
VERTEX
  8
0
 10
0.546875
 20
5.83854
 30
0.0
 40
0.0001488
 41
0.0001488
  0
VERTEX
  8
0
 10
0.490018
 20
5.87136
 30
0.0
 40
0.0001488
 41
0.0001488
  0
VERTEX
  8
0
 10
0.48291
 20
5.86724
 30
0.0
 40
0.0001488
 41
0.0001488
  0
SEQEND
 8
0
  0
POLYLINE
  8
0
 62
     1
 66
     1
 10
0
 20
0
 30
0.0
 70
     1
 40
0.0107136
 41
0.0107136
  0
VERTEX
  8
0
 10
1.21528
 20
0.853678
 30
0.0
 40
0.0001488
 41
0.0001488
  0
VERTEX
  8
0
 10
1.15522
 20
0.853678
 30
0.0
 40
0.0001488
 41
0.0001488
  0
VERTEX
  8
0
 10
1.15522
 20
0.572157
 30
0.0
 40
0.0001488
 41
0.0001488
  0
VERTEX
  8
0
 10
1.21528
 20
0.572157
 30
0.0
 40
0.0001488
 41
0.0001488
  0
VERTEX
  8
0
 10
1.21528
 20
0.853678
 30
0.0
 40
0.0001488
 41
0.0001488
  0
SEQEND
 8
0
  0
POLYLINE
  8
0
 62
     1
 66
     1
 10
0
 20
0
 30
0.0
 70
     1
 40
0.0107136
 41
0.0107136
  0
VERTEX
  8
0
 10
1.13645
 20
6.41971
 30
0.0
 40
0.0001488
 41
0.0001488
  0
VERTEX
  8
0
 10
1.13846
 20
6.42025
 30
0.0
 40
0.0001488
 41
0.0001488
  0
VERTEX
  8
0
 10
1.14263
 20
6.42128
 30
0.0
 40
0.0001488
 41
0.0001488
  0
VERTEX
  8
0
 10
1.14876
 20
6.4235
 30
0.0
 40
0.0001488
 41
0.0001488
  0
VERTEX
  8
0
 10
1.15468
 20
6.42632
 30
0.0
 40
0.0001488
 41
0.0001488
  0
VERTEX
  8
0
 10
1.16032
 20
6.42969
 30
0.0
 40
0.0001488
 41
0.0001488
  0
VERTEX
  8
0
 10
1.16553
 20
6.43365
 30
0.0
 40
0.0001488
 41
0.0001488
  0
VERTEX
  8
0
 10
1.17041
 20
6.43804
 30
0.0
 40
0.0001488
 41
0.0001488
  0
VERTEX
  8
0
 10
1.17475
 20
6.44293
 30
0.0
 40
0.0001488
 41
0.0001488
  0
VERTEX
  8
0
 10
1.17866
 20
6.44819
 30
0.0
 40
0.0001488
 41
0.0001488
  0
VERTEX
  8
0
 10
1.18202
 20
6.45383
 30
0.0
 40
0.0001488
 41
0.0001488
  0
VERTEX
  8
0
 10
1.18484
 20
6.45975
 30
0.0
 40
0.0001488
 41
0.0001488
  0
VERTEX
  8
0
 10
1.18495
 20
6.46007
 30
0.0
 40
0.0001488
 41
0.0001488
  0
VERTEX
  8
0
 10
1.18707
 20
6.46599
 30
0.0
 40
0.0001488
 41
0.0001488
  0
VERTEX
  8
0
 10
1.18864
 20
6.47239
 30
0.0
 40
0.0001488
 41
0.0001488
  0
VERTEX
  8
0
 10
1.18956
 20
6.47885
 30
0.0
 40
0.0001488
 41
0.0001488
  0
VERTEX
  8
0
 10
1.18989
 20
6.48546
 30
0.0
 40
0.0001488
 41
0.0001488
  0
VERTEX
  8
0
 10
1.18956
 20
6.49203
 30
0.0
 40
0.0001488
 41
0.0001488
  0
VERTEX
  8
0
 10
1.18864
 20
6.49854
 30
0.0
 40
0.0001488
 41
0.0001488
  0
VERTEX
  8
0
 10
1.18815
 20
6.50038
 30
0.0
 40
0.0001488
 41
0.0001488
  0
VERTEX
  8
0
 10
1.18707
 20
6.50489
 30
0.0
 40
0.0001488
 41
0.0001488
  0
VERTEX
  8
0
 10
1.18484
 20
6.51107
 30
0.0
 40
0.0001488
 41
0.0001488
  0
VERTEX
  8
0
 10
1.18202
 20
6.51704
 30
0.0
 40
0.0001488
 41
0.0001488
  0
VERTEX
  8
0
 10
1.17866
 20
6.52268
 30
0.0
 40
0.0001488
 41
0.0001488
  0
VERTEX
  8
0
 10
1.17475
 20
6.52794
 30
0.0
 40
0.0001488
 41
0.0001488
  0
VERTEX
  8
0
 10
1.17041
 20
6.53282
 30
0.0
 40
0.0001488
 41
0.0001488
  0
VERTEX
  8
0
 10
1.16553
 20
6.53728
 30
0.0
 40
0.0001488
 41
0.0001488
  0
VERTEX
  8
0
 10
1.16032
 20
6.54113
 30
0.0
 40
0.0001488
 41
0.0001488
  0
VERTEX
  8
0
 10
1.15468
 20
6.54454
 30
0.0
 40
0.0001488
 41
0.0001488
  0
VERTEX
  8
0
 10
1.14876
 20
6.54736
 30
0.0
 40
0.0001488
 41
0.0001488
  0
VERTEX
  8
0
 10
1.14263
 20
6.54958
 30
0.0
 40
0.0001488
 41
0.0001488
  0
VERTEX
  8
0
 10
1.13846
 20
6.55062
 30
0.0
 40
0.0001488
 41
0.0001488
  0
VERTEX
  8
0
 10
1.13628
 20
6.55117
 30
0.0
 40
0.0001488
 41
0.0001488
  0
VERTEX
  8
0
 10
1.12983
 20
6.55214
 30
0.0
 40
0.0001488
 41
0.0001488
  0
VERTEX
  8
0
 10
1.12332
 20
6.55246
 30
0.0
 40
0.0001488
 41
0.0001488
  0
VERTEX
  8
0
 10
1.11675
 20
6.55214
 30
0.0
 40
0.0001488
 41
0.0001488
  0
VERTEX
  8
0
 10
1.1103
 20
6.55117
 30
0.0
 40
0.0001488
 41
0.0001488
  0
VERTEX
  8
0
 10
1.10395
 20
6.54958
 30
0.0
 40
0.0001488
 41
0.0001488
  0
VERTEX
  8
0
 10
1.09814
 20
6.54747
 30
0.0
 40
0.0001488
 41
0.0001488
  0
VERTEX
  8
0
 10
1.09782
 20
6.54736
 30
0.0
 40
0.0001488
 41
0.0001488
  0
VERTEX
  8
0
 10
1.09191
 20
6.54454
 30
0.0
 40
0.0001488
 41
0.0001488
  0
VERTEX
  8
0
 10
1.08632
 20
6.54113
 30
0.0
 40
0.0001488
 41
0.0001488
  0
VERTEX
  8
0
 10
1.08105
 20
6.53728
 30
0.0
 40
0.0001488
 41
0.0001488
  0
VERTEX
  8
0
 10
1.07623
 20
6.53282
 30
0.0
 40
0.0001488
 41
0.0001488
  0
VERTEX
  8
0
 10
1.07183
 20
6.52794
 30
0.0
 40
0.0001488
 41
0.0001488
  0
VERTEX
  8
0
 10
1.06793
 20
6.52268
 30
0.0
 40
0.0001488
 41
0.0001488
  0
VERTEX
  8
0
 10
1.06456
 20
6.51704
 30
0.0
 40
0.0001488
 41
0.0001488
  0
VERTEX
  8
0
 10
1.06179
 20
6.51107
 30
0.0
 40
0.0001488
 41
0.0001488
  0
VERTEX
  8
0
 10
1.05957
 20
6.50489
 30
0.0
 40
0.0001488
 41
0.0001488
  0
VERTEX
  8
0
 10
1.05843
 20
6.50038
 30
0.0
 40
0.0001488
 41
0.0001488
  0
VERTEX
  8
0
 10
1.058
 20
6.49854
 30
0.0
 40
0.0001488
 41
0.0001488
  0
VERTEX
  8
0
 10
1.05702
 20
6.49203
 30
0.0
 40
0.0001488
 41
0.0001488
  0
VERTEX
  8
0
 10
1.05669
 20
6.48546
 30
0.0
 40
0.0001488
 41
0.0001488
  0
VERTEX
  8
0
 10
1.05702
 20
6.47885
 30
0.0
 40
0.0001488
 41
0.0001488
  0
VERTEX
  8
0
 10
1.05783
 20
6.47342
 30
0.0
 40
0.0001488
 41
0.0001488
  0
VERTEX
  8
0
 10
1.058
 20
6.47239
 30
0.0
 40
0.0001488
 41
0.0001488
  0
VERTEX
  8
0
 10
1.05957
 20
6.46599
 30
0.0
 40
0.0001488
 41
0.0001488
  0
VERTEX
  8
0
 10
1.06169
 20
6.46007
 30
0.0
 40
0.0001488
 41
0.0001488
  0
VERTEX
  8
0
 10
1.06179
 20
6.45975
 30
0.0
 40
0.0001488
 41
0.0001488
  0
VERTEX
  8
0
 10
1.06456
 20
6.45383
 30
0.0
 40
0.0001488
 41
0.0001488
  0
VERTEX
  8
0
 10
1.06793
 20
6.44819
 30
0.0
 40
0.0001488
 41
0.0001488
  0
VERTEX
  8
0
 10
1.07183
 20
6.44293
 30
0.0
 40
0.0001488
 41
0.0001488
  0
VERTEX
  8
0
 10
1.07623
 20
6.43804
 30
0.0
 40
0.0001488
 41
0.0001488
  0
VERTEX
  8
0
 10
1.08105
 20
6.43365
 30
0.0
 40
0.0001488
 41
0.0001488
  0
VERTEX
  8
0
 10
1.08632
 20
6.42969
 30
0.0
 40
0.0001488
 41
0.0001488
  0
VERTEX
  8
0
 10
1.09191
 20
6.42632
 30
0.0
 40
0.0001488
 41
0.0001488
  0
VERTEX
  8
0
 10
1.09782
 20
6.4235
 30
0.0
 40
0.0001488
 41
0.0001488
  0
VERTEX
  8
0
 10
1.10395
 20
6.42128
 30
0.0
 40
0.0001488
 41
0.0001488
  0
VERTEX
  8
0
 10
1.11013
 20
6.41971
 30
0.0
 40
0.0001488
 41
0.0001488
  0
VERTEX
  8
0
 10
1.1103
 20
6.41971
 30
0.0
 40
0.0001488
 41
0.0001488
  0
VERTEX
  8
0
 10
1.11675
 20
6.41872
 30
0.0
 40
0.0001488
 41
0.0001488
  0
VERTEX
  8
0
 10
1.12332
 20
6.4184
 30
0.0
 40
0.0001488
 41
0.0001488
  0
VERTEX
  8
0
 10
1.12983
 20
6.41872
 30
0.0
 40
0.0001488
 41
0.0001488
  0
VERTEX
  8
0
 10
1.13628
 20
6.41971
 30
0.0
 40
0.0001488
 41
0.0001488
  0
VERTEX
  8
0
 10
1.13645
 20
6.41971
 30
0.0
 40
0.0001488
 41
0.0001488
  0
SEQEND
 8
0
  0
POLYLINE
  8
0
 62
     1
 66
     1
 10
0
 20
0
 30
0.0
 70
     1
 40
0.0107136
 41
0.0107136
  0
VERTEX
  8
0
 10
0.219456
 20
1.87875
 30
0.0
 40
0.0001488
 41
0.0001488
  0
VERTEX
  8
0
 10
0.222331
 20
1.88569
 30
0.0
 40
0.0001488
 41
0.0001488
  0
VERTEX
  8
0
 10
0.224772
 20
1.89594
 30
0.0
 40
0.0001488
 41
0.0001488
  0
VERTEX
  8
0
 10
0.225424
 20
1.90446
 30
0.0
 40
0.0001488
 41
0.0001488
  0
VERTEX
  8
0
 10
0.225586
 20
1.90642
 30
0.0
 40
0.0001488
 41
0.0001488
  0
VERTEX
  8
0
 10
0.224772
 20
1.91689
 30
0.0
 40
0.0001488
 41
0.0001488
  0
VERTEX
  8
0
 10
0.222331
 20
1.92714
 30
0.0
 40
0.0001488
 41
0.0001488
  0
VERTEX
  8
0
 10
0.218317
 20
1.93685
 30
0.0
 40
0.0001488
 41
0.0001488
  0
VERTEX
  8
0
 10
0.212782
 20
1.94586
 30
0.0
 40
0.0001488
 41
0.0001488
  0
VERTEX
  8
0
 10
0.2079
 20
1.95161
 30
0.0
 40
0.0001488
 41
0.0001488
  0
VERTEX
  8
0
 10
0.206
 20
1.95383
 30
0.0
 40
0.0001488
 41
0.0001488
  0
VERTEX
  8
0
 10
0.197971
 20
1.96067
 30
0.0
 40
0.0001488
 41
0.0001488
  0
VERTEX
  8
0
 10
0.189019
 20
1.96615
 30
0.0
 40
0.0001488
 41
0.0001488
  0
VERTEX
  8
0
 10
0.179308
 20
1.97017
 30
0.0
 40
0.0001488
 41
0.0001488
  0
VERTEX
  8
0
 10
0.173557
 20
1.97157
 30
0.0
 40
0.0001488
 41
0.0001488
  0
VERTEX
  8
0
 10
0.170899
 20
1.97217
 30
0.0
 40
0.0001488
 41
0.0001488
  0
VERTEX
  8
0
 10
0.169054
 20
1.97265
 30
0.0
 40
0.0001488
 41
0.0001488
  0
VERTEX
  8
0
 10
0.158583
 20
1.97347
 30
0.0
 40
0.0001488
 41
0.0001488
  0
VERTEX
  8
0
 10
0.148112
 20
1.97265
 30
0.0
 40
0.0001488
 41
0.0001488
  0
VERTEX
  8
0
 10
0.137858
 20
1.97017
 30
0.0
 40
0.0001488
 41
0.0001488
  0
VERTEX
  8
0
 10
0.133735
 20
1.96843
 30
0.0
 40
0.0001488
 41
0.0001488
  0
VERTEX
  8
0
 10
0.128147
 20
1.96615
 30
0.0
 40
0.0001488
 41
0.0001488
  0
VERTEX
  8
0
 10
0.119195
 20
1.96067
 30
0.0
 40
0.0001488
 41
0.0001488
  0
VERTEX
  8
0
 10
0.111165
 20
1.95383
 30
0.0
 40
0.0001488
 41
0.0001488
  0
VERTEX
  8
0
 10
0.104384
 20
1.94586
 30
0.0
 40
0.0001488
 41
0.0001488
  0
VERTEX
  8
0
 10
0.0999892
 20
1.93875
 30
0.0
 40
0.0001488
 41
0.0001488
  0
VERTEX
  8
0
 10
0.0988499
 20
1.93685
 30
0.0
 40
0.0001488
 41
0.0001488
  0
VERTEX
  8
0
 10
0.0948351
 20
1.92714
 30
0.0
 40
0.0001488
 41
0.0001488
  0
VERTEX
  8
0
 10
0.0923394
 20
1.91689
 30
0.0
 40
0.0001488
 41
0.0001488
  0
VERTEX
  8
0
 10
0.0915256
 20
1.90642
 30
0.0
 40
0.0001488
 41
0.0001488
  0
VERTEX
  8
0
 10
0.0916883
 20
1.90446
 30
0.0
 40
0.0001488
 41
0.0001488
  0
VERTEX
  8
0
 10
0.0923394
 20
1.89594
 30
0.0
 40
0.0001488
 41
0.0001488
  0
VERTEX
  8
0
 10
0.0948351
 20
1.88569
 30
0.0
 40
0.0001488
 41
0.0001488
  0
VERTEX
  8
0
 10
0.0953233
 20
1.88456
 30
0.0
 40
0.0001488
 41
0.0001488
  0
VERTEX
  8
0
 10
0.0988499
 20
1.87597
 30
0.0
 40
0.0001488
 41
0.0001488
  0
VERTEX
  8
0
 10
0.104384
 20
1.86703
 30
0.0
 40
0.0001488
 41
0.0001488
  0
VERTEX
  8
0
 10
0.111165
 20
1.859
 30
0.0
 40
0.0001488
 41
0.0001488
  0
VERTEX
  8
0
 10
0.119195
 20
1.85221
 30
0.0
 40
0.0001488
 41
0.0001488
  0
VERTEX
  8
0
 10
0.125108
 20
1.84858
 30
0.0
 40
0.0001488
 41
0.0001488
  0
VERTEX
  8
0
 10
0.128147
 20
1.84668
 30
0.0
 40
0.0001488
 41
0.0001488
  0
VERTEX
  8
0
 10
0.137858
 20
1.84267
 30
0.0
 40
0.0001488
 41
0.0001488
  0
VERTEX
  8
0
 10
0.148112
 20
1.84022
 30
0.0
 40
0.0001488
 41
0.0001488
  0
VERTEX
  8
0
 10
0.158583
 20
1.83942
 30
0.0
 40
0.0001488
 41
0.0001488
  0
VERTEX
  8
0
 10
0.167046
 20
1.84006
 30
0.0
 40
0.0001488
 41
0.0001488
  0
VERTEX
  8
0
 10
0.169054
 20
1.84022
 30
0.0
 40
0.0001488
 41
0.0001488
  0
VERTEX
  8
0
 10
0.170899
 20
1.84065
 30
0.0
 40
0.0001488
 41
0.0001488
  0
VERTEX
  8
0
 10
0.179308
 20
1.84267
 30
0.0
 40
0.0001488
 41
0.0001488
  0
VERTEX
  8
0
 10
0.189019
 20
1.84668
 30
0.0
 40
0.0001488
 41
0.0001488
  0
VERTEX
  8
0
 10
0.197971
 20
1.85221
 30
0.0
 40
0.0001488
 41
0.0001488
  0
VERTEX
  8
0
 10
0.206
 20
1.859
 30
0.0
 40
0.0001488
 41
0.0001488
  0
VERTEX
  8
0
 10
0.212782
 20
1.86703
 30
0.0
 40
0.0001488
 41
0.0001488
  0
VERTEX
  8
0
 10
0.215278
 20
1.87104
 30
0.0
 40
0.0001488
 41
0.0001488
  0
VERTEX
  8
0
 10
0.218317
 20
1.87597
 30
0.0
 40
0.0001488
 41
0.0001488
  0
VERTEX
  8
0
 10
0.219456
 20
1.87875
 30
0.0
 40
0.0001488
 41
0.0001488
  0
SEQEND
 8
0
  0
POLYLINE
  8
0
 62
     1
 66
     1
 10
0
 20
0
 30
0.0
 70
     1
 40
0.0107136
 41
0.0107136
  0
VERTEX
  8
0
 10
0.219456
 20
4.37039
 30
0.0
 40
0.0001488
 41
0.0001488
  0
VERTEX
  8
0
 10
0.222331
 20
4.37722
 30
0.0
 40
0.0001488
 41
0.0001488
  0
VERTEX
  8
0
 10
0.224772
 20
4.38747
 30
0.0
 40
0.0001488
 41
0.0001488
  0
VERTEX
  8
0
 10
0.225586
 20
4.398
 30
0.0
 40
0.0001488
 41
0.0001488
  0
VERTEX
  8
0
 10
0.225097
 20
4.40397
 30
0.0
 40
0.0001488
 41
0.0001488
  0
VERTEX
  8
0
 10
0.224772
 20
4.40847
 30
0.0
 40
0.0001488
 41
0.0001488
  0
VERTEX
  8
0
 10
0.222331
 20
4.41872
 30
0.0
 40
0.0001488
 41
0.0001488
  0
VERTEX
  8
0
 10
0.218317
 20
4.42839
 30
0.0
 40
0.0001488
 41
0.0001488
  0
VERTEX
  8
0
 10
0.212782
 20
4.43739
 30
0.0
 40
0.0001488
 41
0.0001488
  0
VERTEX
  8
0
 10
0.207954
 20
4.44303
 30
0.0
 40
0.0001488
 41
0.0001488
  0
VERTEX
  8
0
 10
0.206
 20
4.44536
 30
0.0
 40
0.0001488
 41
0.0001488
  0
VERTEX
  8
0
 10
0.197971
 20
4.45221
 30
0.0
 40
0.0001488
 41
0.0001488
  0
VERTEX
  8
0
 10
0.189019
 20
4.45768
 30
0.0
 40
0.0001488
 41
0.0001488
  0
VERTEX
  8
0
 10
0.179308
 20
4.46175
 30
0.0
 40
0.0001488
 41
0.0001488
  0
VERTEX
  8
0
 10
0.17334
 20
4.46317
 30
0.0
 40
0.0001488
 41
0.0001488
  0
VERTEX
  8
0
 10
0.170899
 20
4.46376
 30
0.0
 40
0.0001488
 41
0.0001488
  0
VERTEX
  8
0
 10
0.169054
 20
4.46419
 30
0.0
 40
0.0001488
 41
0.0001488
  0
VERTEX
  8
0
 10
0.158583
 20
4.465
 30
0.0
 40
0.0001488
 41
0.0001488
  0
VERTEX
  8
0
 10
0.148112
 20
4.46419
 30
0.0
 40
0.0001488
 41
0.0001488
  0
VERTEX
  8
0
 10
0.137858
 20
4.46175
 30
0.0
 40
0.0001488
 41
0.0001488
  0
VERTEX
  8
0
 10
0.133084
 20
4.45975
 30
0.0
 40
0.0001488
 41
0.0001488
  0
VERTEX
  8
0
 10
0.128147
 20
4.45768
 30
0.0
 40
0.0001488
 41
0.0001488
  0
VERTEX
  8
0
 10
0.119195
 20
4.45221
 30
0.0
 40
0.0001488
 41
0.0001488
  0
VERTEX
  8
0
 10
0.111165
 20
4.44536
 30
0.0
 40
0.0001488
 41
0.0001488
  0
VERTEX
  8
0
 10
0.104384
 20
4.43739
 30
0.0
 40
0.0001488
 41
0.0001488
  0
VERTEX
  8
0
 10
0.101888
 20
4.43332
 30
0.0
 40
0.0001488
 41
0.0001488
  0
VERTEX
  8
0
 10
0.0988499
 20
4.42839
 30
0.0
 40
0.0001488
 41
0.0001488
  0
VERTEX
  8
0
 10
0.0948351
 20
4.41872
 30
0.0
 40
0.0001488
 41
0.0001488
  0
VERTEX
  8
0
 10
0.0923394
 20
4.40847
 30
0.0
 40
0.0001488
 41
0.0001488
  0
VERTEX
  8
0
 10
0.0920139
 20
4.40397
 30
0.0
 40
0.0001488
 41
0.0001488
  0
VERTEX
  8
0
 10
0.0915256
 20
4.398
 30
0.0
 40
0.0001488
 41
0.0001488
  0
VERTEX
  8
0
 10
0.0923394
 20
4.38747
 30
0.0
 40
0.0001488
 41
0.0001488
  0
VERTEX
  8
0
 10
0.0948351
 20
4.37722
 30
0.0
 40
0.0001488
 41
0.0001488
  0
VERTEX
  8
0
 10
0.0953233
 20
4.37608
 30
0.0
 40
0.0001488
 41
0.0001488
  0
VERTEX
  8
0
 10
0.0988499
 20
4.36757
 30
0.0
 40
0.0001488
 41
0.0001488
  0
VERTEX
  8
0
 10
0.104384
 20
4.35856
 30
0.0
 40
0.0001488
 41
0.0001488
  0
VERTEX
  8
0
 10
0.111165
 20
4.35058
 30
0.0
 40
0.0001488
 41
0.0001488
  0
VERTEX
  8
0
 10
0.119195
 20
4.34375
 30
0.0
 40
0.0001488
 41
0.0001488
  0
VERTEX
  8
0
 10
0.121473
 20
4.34233
 30
0.0
 40
0.0001488
 41
0.0001488
  0
VERTEX
  8
0
 10
0.125
 20
4.34022
 30
0.0
 40
0.0001488
 41
0.0001488
  0
VERTEX
  8
0
 10
0.128147
 20
4.33826
 30
0.0
 40
0.0001488
 41
0.0001488
  0
VERTEX
  8
0
 10
0.137858
 20
4.33421
 30
0.0
 40
0.0001488
 41
0.0001488
  0
VERTEX
  8
0
 10
0.148112
 20
4.33176
 30
0.0
 40
0.0001488
 41
0.0001488
  0
VERTEX
  8
0
 10
0.158583
 20
4.33094
 30
0.0
 40
0.0001488
 41
0.0001488
  0
VERTEX
  8
0
 10
0.166558
 20
4.3316
 30
0.0
 40
0.0001488
 41
0.0001488
  0
VERTEX
  8
0
 10
0.169054
 20
4.33176
 30
0.0
 40
0.0001488
 41
0.0001488
  0
VERTEX
  8
0
 10
0.170899
 20
4.33219
 30
0.0
 40
0.0001488
 41
0.0001488
  0
VERTEX
  8
0
 10
0.179308
 20
4.33421
 30
0.0
 40
0.0001488
 41
0.0001488
  0
VERTEX
  8
0
 10
0.189019
 20
4.33826
 30
0.0
 40
0.0001488
 41
0.0001488
  0
VERTEX
  8
0
 10
0.197971
 20
4.34375
 30
0.0
 40
0.0001488
 41
0.0001488
  0
VERTEX
  8
0
 10
0.206
 20
4.35058
 30
0.0
 40
0.0001488
 41
0.0001488
  0
VERTEX
  8
0
 10
0.212782
 20
4.35856
 30
0.0
 40
0.0001488
 41
0.0001488
  0
VERTEX
  8
0
 10
0.214572
 20
4.36149
 30
0.0
 40
0.0001488
 41
0.0001488
  0
VERTEX
  8
0
 10
0.218317
 20
4.36757
 30
0.0
 40
0.0001488
 41
0.0001488
  0
VERTEX
  8
0
 10
0.219456
 20
4.37039
 30
0.0
 40
0.0001488
 41
0.0001488
  0
SEQEND
 8
0
  0
POLYLINE
  8
0
 62
     1
 66
     1
 10
0
 20
0
 30
0.0
 70
     1
 40
0.0107136
 41
0.0107136
  0
VERTEX
  8
0
 10
0.118001
 20
2.83344
 30
0.0
 40
0.0001488
 41
0.0001488
  0
VERTEX
  8
0
 10
0.118001
 20
2.21317
 30
0.0
 40
0.0001488
 41
0.0001488
  0
VERTEX
  8
0
 10
0.19694
 20
2.21317
 30
0.0
 40
0.0001488
 41
0.0001488
  0
VERTEX
  8
0
 10
0.19694
 20
2.21343
 30
0.0
 40
0.0001488
 41
0.0001488
  0
VERTEX
  8
0
 10
0.2398
 20
2.21343
 30
0.0
 40
0.0001488
 41
0.0001488
  0
VERTEX
  8
0
 10
0.2398
 20
2.83371
 30
0.0
 40
0.0001488
 41
0.0001488
  0
VERTEX
  8
0
 10
0.121473
 20
2.83371
 30
0.0
 40
0.0001488
 41
0.0001488
  0
VERTEX
  8
0
 10
0.121473
 20
2.83344
 30
0.0
 40
0.0001488
 41
0.0001488
  0
VERTEX
  8
0
 10
0.118001
 20
2.83344
 30
0.0
 40
0.0001488
 41
0.0001488
  0
SEQEND
 8
0
  0
POLYLINE
  8
0
 62
     1
 66
     1
 10
0
 20
0
 30
0.0
 70
     1
 40
0.0107136
 41
0.0107136
  0
VERTEX
  8
0
 10
0.118001
 20
3.84722
 30
0.0
 40
0.0001488
 41
0.0001488
  0
VERTEX
  8
0
 10
0.118001
 20
2.98085
 30
0.0
 40
0.0001488
 41
0.0001488
  0
VERTEX
  8
0
 10
0.19694
 20
2.98085
 30
0.0
 40
0.0001488
 41
0.0001488
  0
VERTEX
  8
0
 10
0.19694
 20
2.98113
 30
0.0
 40
0.0001488
 41
0.0001488
  0
VERTEX
  8
0
 10
0.2398
 20
2.98113
 30
0.0
 40
0.0001488
 41
0.0001488
  0
VERTEX
  8
0
 10
0.2398
 20
3.8475
 30
0.0
 40
0.0001488
 41
0.0001488
  0
VERTEX
  8
0
 10
0.121473
 20
3.8475
 30
0.0
 40
0.0001488
 41
0.0001488
  0
VERTEX
  8
0
 10
0.121473
 20
3.84722
 30
0.0
 40
0.0001488
 41
0.0001488
  0
VERTEX
  8
0
 10
0.118001
 20
3.84722
 30
0.0
 40
0.0001488
 41
0.0001488
  0
SEQEND
 8
0
  0
POLYLINE
  8
0
 62
     1
 66
     1
 10
0
 20
0
 30
0.0
 70
     1
 40
0.0107136
 41
0.0107136
  0
VERTEX
  8
0
 10
0.0945096
 20
0.352376
 30
0.0
 40
0.0001488
 41
0.0001488
  0
VERTEX
  8
0
 10
0.0923394
 20
0.343425
 30
0.0
 40
0.0001488
 41
0.0001488
  0
VERTEX
  8
0
 10
0.0915256
 20
0.3329
 30
0.0
 40
0.0001488
 41
0.0001488
  0
VERTEX
  8
0
 10
0.0923394
 20
0.322428
 30
0.0
 40
0.0001488
 41
0.0001488
  0
VERTEX
  8
0
 10
0.0948351
 20
0.312229
 30
0.0
 40
0.0001488
 41
0.0001488
  0
VERTEX
  8
0
 10
0.0955404
 20
0.310493
 30
0.0
 40
0.0001488
 41
0.0001488
  0
VERTEX
  8
0
 10
0.0988499
 20
0.302463
 30
0.0
 40
0.0001488
 41
0.0001488
  0
VERTEX
  8
0
 10
0.104384
 20
0.293511
 30
0.0
 40
0.0001488
 41
0.0001488
  0
VERTEX
  8
0
 10
0.105794
 20
0.291829
 30
0.0
 40
0.0001488
 41
0.0001488
  0
VERTEX
  8
0
 10
0.111165
 20
0.285536
 30
0.0
 40
0.0001488
 41
0.0001488
  0
VERTEX
  8
0
 10
0.119195
 20
0.2787
 30
0.0
 40
0.0001488
 41
0.0001488
  0
VERTEX
  8
0
 10
0.124132
 20
0.275663
 30
0.0
 40
0.0001488
 41
0.0001488
  0
VERTEX
  8
0
 10
0.128147
 20
0.273167
 30
0.0
 40
0.0001488
 41
0.0001488
  0
VERTEX
  8
0
 10
0.137858
 20
0.269151
 30
0.0
 40
0.0001488
 41
0.0001488
  0
VERTEX
  8
0
 10
0.148112
 20
0.26671
 30
0.0
 40
0.0001488
 41
0.0001488
  0
VERTEX
  8
0
 10
0.158583
 20
0.265896
 30
0.0
 40
0.0001488
 41
0.0001488
  0
VERTEX
  8
0
 10
0.164551
 20
0.266385
 30
0.0
 40
0.0001488
 41
0.0001488
  0
VERTEX
  8
0
 10
0.169054
 20
0.26671
 30
0.0
 40
0.0001488
 41
0.0001488
  0
VERTEX
  8
0
 10
0.179308
 20
0.269151
 30
0.0
 40
0.0001488
 41
0.0001488
  0
VERTEX
  8
0
 10
0.189019
 20
0.273167
 30
0.0
 40
0.0001488
 41
0.0001488
  0
VERTEX
  8
0
 10
0.197971
 20
0.2787
 30
0.0
 40
0.0001488
 41
0.0001488
  0
VERTEX
  8
0
 10
0.202963
 20
0.282932
 30
0.0
 40
0.0001488
 41
0.0001488
  0
VERTEX
  8
0
 10
0.206
 20
0.285536
 30
0.0
 40
0.0001488
 41
0.0001488
  0
VERTEX
  8
0
 10
0.210232
 20
0.290528
 30
0.0
 40
0.0001488
 41
0.0001488
  0
VERTEX
  8
0
 10
0.211372
 20
0.291829
 30
0.0
 40
0.0001488
 41
0.0001488
  0
VERTEX
  8
0
 10
0.212782
 20
0.293511
 30
0.0
 40
0.0001488
 41
0.0001488
  0
VERTEX
  8
0
 10
0.218317
 20
0.302463
 30
0.0
 40
0.0001488
 41
0.0001488
  0
VERTEX
  8
0
 10
0.219347
 20
0.305012
 30
0.0
 40
0.0001488
 41
0.0001488
  0
VERTEX
  8
0
 10
0.222331
 20
0.312229
 30
0.0
 40
0.0001488
 41
0.0001488
  0
VERTEX
  8
0
 10
0.224772
 20
0.322428
 30
0.0
 40
0.0001488
 41
0.0001488
  0
VERTEX
  8
0
 10
0.225586
 20
0.3329
 30
0.0
 40
0.0001488
 41
0.0001488
  0
VERTEX
  8
0
 10
0.224772
 20
0.343425
 30
0.0
 40
0.0001488
 41
0.0001488
  0
VERTEX
  8
0
 10
0.222601
 20
0.352376
 30
0.0
 40
0.0001488
 41
0.0001488
  0
VERTEX
  8
0
 10
0.222331
 20
0.353624
 30
0.0
 40
0.0001488
 41
0.0001488
  0
VERTEX
  8
0
 10
0.218317
 20
0.363336
 30
0.0
 40
0.0001488
 41
0.0001488
  0
VERTEX
  8
0
 10
0.212782
 20
0.372342
 30
0.0
 40
0.0001488
 41
0.0001488
  0
VERTEX
  8
0
 10
0.207736
 20
0.378256
 30
0.0
 40
0.0001488
 41
0.0001488
  0
VERTEX
  8
0
 10
0.206
 20
0.380317
 30
0.0
 40
0.0001488
 41
0.0001488
  0
VERTEX
  8
0
 10
0.197971
 20
0.387153
 30
0.0
 40
0.0001488
 41
0.0001488
  0
VERTEX
  8
0
 10
0.189019
 20
0.392632
 30
0.0
 40
0.0001488
 41
0.0001488
  0
VERTEX
  8
0
 10
0.179308
 20
0.396647
 30
0.0
 40
0.0001488
 41
0.0001488
  0
VERTEX
  8
0
 10
0.171767
 20
0.398492
 30
0.0
 40
0.0001488
 41
0.0001488
  0
VERTEX
  8
0
 10
0.170899
 20
0.398708
 30
0.0
 40
0.0001488
 41
0.0001488
  0
VERTEX
  8
0
 10
0.169054
 20
0.399143
 30
0.0
 40
0.0001488
 41
0.0001488
  0
VERTEX
  8
0
 10
0.158583
 20
0.399957
 30
0.0
 40
0.0001488
 41
0.0001488
  0
VERTEX
  8
0
 10
0.148112
 20
0.399143
 30
0.0
 40
0.0001488
 41
0.0001488
  0
VERTEX
  8
0
 10
0.137858
 20
0.396647
 30
0.0
 40
0.0001488
 41
0.0001488
  0
VERTEX
  8
0
 10
0.131076
 20
0.393826
 30
0.0
 40
0.0001488
 41
0.0001488
  0
VERTEX
  8
0
 10
0.128147
 20
0.392632
 30
0.0
 40
0.0001488
 41
0.0001488
  0
VERTEX
  8
0
 10
0.119195
 20
0.387153
 30
0.0
 40
0.0001488
 41
0.0001488
  0
VERTEX
  8
0
 10
0.111165
 20
0.380317
 30
0.0
 40
0.0001488
 41
0.0001488
  0
VERTEX
  8
0
 10
0.104492
 20
0.372504
 30
0.0
 40
0.0001488
 41
0.0001488
  0
VERTEX
  8
0
 10
0.104384
 20
0.372342
 30
0.0
 40
0.0001488
 41
0.0001488
  0
VERTEX
  8
0
 10
0.100803
 20
0.366536
 30
0.0
 40
0.0001488
 41
0.0001488
  0
VERTEX
  8
0
 10
0.0988499
 20
0.363336
 30
0.0
 40
0.0001488
 41
0.0001488
  0
VERTEX
  8
0
 10
0.0948351
 20
0.353624
 30
0.0
 40
0.0001488
 41
0.0001488
  0
VERTEX
  8
0
 10
0.0945096
 20
0.352376
 30
0.0
 40
0.0001488
 41
0.0001488
  0
SEQEND
 8
0
  0
POLYLINE
  8
0
 62
     1
 66
     1
 10
0
 20
0
 30
0.0
 70
     1
 40
0.0107136
 41
0.0107136
  0
VERTEX
  8
0
 10
0.393935
 20
6.41758
 30
0.0
 40
0.0001488
 41
0.0001488
  0
VERTEX
  8
0
 10
0.398383
 20
6.41971
 30
0.0
 40
0.0001488
 41
0.0001488
  0
VERTEX
  8
0
 10
0.399849
 20
6.42046
 30
0.0
 40
0.0001488
 41
0.0001488
  0
VERTEX
  8
0
 10
0.405436
 20
6.42378
 30
0.0
 40
0.0001488
 41
0.0001488
  0
VERTEX
  8
0
 10
0.410699
 20
6.42774
 30
0.0
 40
0.0001488
 41
0.0001488
  0
VERTEX
  8
0
 10
0.412815
 20
6.42964
 30
0.0
 40
0.0001488
 41
0.0001488
  0
VERTEX
  8
0
 10
0.415528
 20
6.43213
 30
0.0
 40
0.0001488
 41
0.0001488
  0
VERTEX
  8
0
 10
0.419922
 20
6.43701
 30
0.0
 40
0.0001488
 41
0.0001488
  0
VERTEX
  8
0
 10
0.423828
 20
6.44228
 30
0.0
 40
0.0001488
 41
0.0001488
  0
VERTEX
  8
0
 10
0.427192
 20
6.44792
 30
0.0
 40
0.0001488
 41
0.0001488
  0
VERTEX
  8
0
 10
0.429958
 20
6.45389
 30
0.0
 40
0.0001488
 41
0.0001488
  0
VERTEX
  8
0
 10
0.432183
 20
6.46007
 30
0.0
 40
0.0001488
 41
0.0001488
  0
VERTEX
  8
0
 10
0.433757
 20
6.46647
 30
0.0
 40
0.0001488
 41
0.0001488
  0
VERTEX
  8
0
 10
0.434733
 20
6.47299
 30
0.0
 40
0.0001488
 41
0.0001488
  0
VERTEX
  8
0
 10
0.435058
 20
6.47954
 30
0.0
 40
0.0001488
 41
0.0001488
  0
VERTEX
  8
0
 10
0.434733
 20
6.48611
 30
0.0
 40
0.0001488
 41
0.0001488
  0
VERTEX
  8
0
 10
0.433757
 20
6.49262
 30
0.0
 40
0.0001488
 41
0.0001488
  0
VERTEX
  8
0
 10
0.432183
 20
6.49897
 30
0.0
 40
0.0001488
 41
0.0001488
  0
VERTEX
  8
0
 10
0.431694
 20
6.50038
 30
0.0
 40
0.0001488
 41
0.0001488
  0
VERTEX
  8
0
 10
0.429958
 20
6.50521
 30
0.0
 40
0.0001488
 41
0.0001488
  0
VERTEX
  8
0
 10
0.427192
 20
6.51112
 30
0.0
 40
0.0001488
 41
0.0001488
  0
VERTEX
  8
0
 10
0.423828
 20
6.51676
 30
0.0
 40
0.0001488
 41
0.0001488
  0
VERTEX
  8
0
 10
0.419922
 20
6.52203
 30
0.0
 40
0.0001488
 41
0.0001488
  0
VERTEX
  8
0
 10
0.415528
 20
6.52692
 30
0.0
 40
0.0001488
 41
0.0001488
  0
VERTEX
  8
0
 10
0.412815
 20
6.52946
 30
0.0
 40
0.0001488
 41
0.0001488
  0
VERTEX
  8
0
 10
0.410699
 20
6.53136
 30
0.0
 40
0.0001488
 41
0.0001488
  0
VERTEX
  8
0
 10
0.405436
 20
6.53526
 30
0.0
 40
0.0001488
 41
0.0001488
  0
VERTEX
  8
0
 10
0.399849
 20
6.53863
 30
0.0
 40
0.0001488
 41
0.0001488
  0
VERTEX
  8
0
 10
0.393935
 20
6.54144
 30
0.0
 40
0.0001488
 41
0.0001488
  0
VERTEX
  8
0
 10
0.387804
 20
6.54368
 30
0.0
 40
0.0001488
 41
0.0001488
  0
VERTEX
  8
0
 10
0.381456
 20
6.54531
 30
0.0
 40
0.0001488
 41
0.0001488
  0
VERTEX
  8
0
 10
0.374946
 20
6.54622
 30
0.0
 40
0.0001488
 41
0.0001488
  0
VERTEX
  8
0
 10
0.36849
 20
6.5466
 30
0.0
 40
0.0001488
 41
0.0001488
  0
VERTEX
  8
0
 10
0.361925
 20
6.54622
 30
0.0
 40
0.0001488
 41
0.0001488
  0
VERTEX
  8
0
 10
0.355469
 20
6.54531
 30
0.0
 40
0.0001488
 41
0.0001488
  0
VERTEX
  8
0
 10
0.349121
 20
6.54368
 30
0.0
 40
0.0001488
 41
0.0001488
  0
VERTEX
  8
0
 10
0.342936
 20
6.54144
 30
0.0
 40
0.0001488
 41
0.0001488
  0
VERTEX
  8
0
 10
0.337022
 20
6.53863
 30
0.0
 40
0.0001488
 41
0.0001488
  0
VERTEX
  8
0
 10
0.33214
 20
6.53569
 30
0.0
 40
0.0001488
 41
0.0001488
  0
VERTEX
  8
0
 10
0.331435
 20
6.53526
 30
0.0
 40
0.0001488
 41
0.0001488
  0
VERTEX
  8
0
 10
0.326172
 20
6.53136
 30
0.0
 40
0.0001488
 41
0.0001488
  0
VERTEX
  8
0
 10
0.321343
 20
6.52692
 30
0.0
 40
0.0001488
 41
0.0001488
  0
VERTEX
  8
0
 10
0.316949
 20
6.52203
 30
0.0
 40
0.0001488
 41
0.0001488
  0
VERTEX
  8
0
 10
0.313097
 20
6.51676
 30
0.0
 40
0.0001488
 41
0.0001488
  0
VERTEX
  8
0
 10
0.309733
 20
6.51112
 30
0.0
 40
0.0001488
 41
0.0001488
  0
VERTEX
  8
0
 10
0.306913
 20
6.50521
 30
0.0
 40
0.0001488
 41
0.0001488
  0
VERTEX
  8
0
 10
0.305231
 20
6.50038
 30
0.0
 40
0.0001488
 41
0.0001488
  0
VERTEX
  8
0
 10
0.304742
 20
6.49897
 30
0.0
 40
0.0001488
 41
0.0001488
  0
VERTEX
  8
0
 10
0.303114
 20
6.49262
 30
0.0
 40
0.0001488
 41
0.0001488
  0
VERTEX
  8
0
 10
0.302192
 20
6.48611
 30
0.0
 40
0.0001488
 41
0.0001488
  0
VERTEX
  8
0
 10
0.301867
 20
6.47954
 30
0.0
 40
0.0001488
 41
0.0001488
  0
VERTEX
  8
0
 10
0.302192
 20
6.47299
 30
0.0
 40
0.0001488
 41
0.0001488
  0
VERTEX
  8
0
 10
0.303114
 20
6.46647
 30
0.0
 40
0.0001488
 41
0.0001488
  0
VERTEX
  8
0
 10
0.304742
 20
6.46007
 30
0.0
 40
0.0001488
 41
0.0001488
  0
VERTEX
  8
0
 10
0.306913
 20
6.45389
 30
0.0
 40
0.0001488
 41
0.0001488
  0
VERTEX
  8
0
 10
0.309733
 20
6.44792
 30
0.0
 40
0.0001488
 41
0.0001488
  0
VERTEX
  8
0
 10
0.313097
 20
6.44228
 30
0.0
 40
0.0001488
 41
0.0001488
  0
VERTEX
  8
0
 10
0.316949
 20
6.43701
 30
0.0
 40
0.0001488
 41
0.0001488
  0
VERTEX
  8
0
 10
0.321343
 20
6.43213
 30
0.0
 40
0.0001488
 41
0.0001488
  0
VERTEX
  8
0
 10
0.326172
 20
6.42774
 30
0.0
 40
0.0001488
 41
0.0001488
  0
VERTEX
  8
0
 10
0.331435
 20
6.42378
 30
0.0
 40
0.0001488
 41
0.0001488
  0
VERTEX
  8
0
 10
0.33214
 20
6.42333
 30
0.0
 40
0.0001488
 41
0.0001488
  0
VERTEX
  8
0
 10
0.337022
 20
6.42046
 30
0.0
 40
0.0001488
 41
0.0001488
  0
VERTEX
  8
0
 10
0.338542
 20
6.41971
 30
0.0
 40
0.0001488
 41
0.0001488
  0
VERTEX
  8
0
 10
0.342936
 20
6.41758
 30
0.0
 40
0.0001488
 41
0.0001488
  0
VERTEX
  8
0
 10
0.349121
 20
6.41542
 30
0.0
 40
0.0001488
 41
0.0001488
  0
VERTEX
  8
0
 10
0.355469
 20
6.41379
 30
0.0
 40
0.0001488
 41
0.0001488
  0
VERTEX
  8
0
 10
0.361925
 20
6.41282
 30
0.0
 40
0.0001488
 41
0.0001488
  0
VERTEX
  8
0
 10
0.36849
 20
6.41254
 30
0.0
 40
0.0001488
 41
0.0001488
  0
VERTEX
  8
0
 10
0.374946
 20
6.41282
 30
0.0
 40
0.0001488
 41
0.0001488
  0
VERTEX
  8
0
 10
0.381456
 20
6.41379
 30
0.0
 40
0.0001488
 41
0.0001488
  0
VERTEX
  8
0
 10
0.387804
 20
6.41542
 30
0.0
 40
0.0001488
 41
0.0001488
  0
VERTEX
  8
0
 10
0.393935
 20
6.41758
 30
0.0
 40
0.0001488
 41
0.0001488
  0
SEQEND
 8
0
  0
POLYLINE
  8
0
 62
     1
 66
     1
 10
0
 20
0
 30
0.0
 70
     1
 40
0.0107136
 41
0.0107136
  0
VERTEX
  8
0
 10
0.959907
 20
3.7035
 30
0.0
 40
0.0001488
 41
0.0001488
  0
VERTEX
  8
0
 10
0.959907
 20
3.90235
 30
0.0
 40
0.0001488
 41
0.0001488
  0
VERTEX
  8
0
 10
0.886556
 20
3.90235
 30
0.0
 40
0.0001488
 41
0.0001488
  0
VERTEX
  8
0
 10
0.886556
 20
3.7035
 30
0.0
 40
0.0001488
 41
0.0001488
  0
VERTEX
  8
0
 10
0.959907
 20
3.7035
 30
0.0
 40
0.0001488
 41
0.0001488
  0
SEQEND
 8
0
  0
POLYLINE
  8
0
 62
     1
 66
     1
 10
0
 20
0
 30
0.0
 70
     1
 40
0.0107136
 41
0.0107136
  0
VERTEX
  8
0
 10
0.747993
 20
5.3719
 30
0.0
 40
0.0001488
 41
0.0001488
  0
VERTEX
  8
0
 10
0.889268
 20
5.45344
 30
0.0
 40
0.0001488
 41
0.0001488
  0
VERTEX
  8
0
 10
0.889268
 20
5.6166
 30
0.0
 40
0.0001488
 41
0.0001488
  0
VERTEX
  8
0
 10
0.747993
 20
5.69814
 30
0.0
 40
0.0001488
 41
0.0001488
  0
VERTEX
  8
0
 10
0.606717
 20
5.6166
 30
0.0
 40
0.0001488
 41
0.0001488
  0
VERTEX
  8
0
 10
0.606717
 20
5.45344
 30
0.0
 40
0.0001488
 41
0.0001488
  0
VERTEX
  8
0
 10
0.747993
 20
5.3719
 30
0.0
 40
0.0001488
 41
0.0001488
  0
SEQEND
 8
0
  0
ENDSEC
  0
EOF
