  0
SECTION
  2
HEADER
  9
$ACADVER
  1
AC1009
  9
$EXTMAX
 10
76.5319747924805
 20
71.3188858032227
 30
0.0
  9
$EXTMIN
 10
1.0004577636719
 20
1.0776255130768
 30
0.0
  9
$INSUNITS
 70
     4
  9
$LUNITS
 70
     2
  9
$LUPREC
 70
     4
  9
$MEASUREMENT
 70
     1
  0
ENDSEC
  0
SECTION
  2
TABLES
  0
TABLE
  2
LAYER
 70
     1
  0
LAYER
  2
0
 70
     0
 62
     7
  6
Continuous
  0
ENDTAB
  0
TABLE
  2
APPID
 70
     1
  0
APPID
  2
ACAD
 70
     0
  0
ENDTAB
  0
ENDSEC
  0
SECTION
  2
ENTITIES
  0
POLYLINE
  8
0
 66
     1
 10
0.0
 20
0.0
 30
0.0
 70
     1
  0
VERTEX
  8
0
 10
73.066402
 20
71.282052
 42
0.0
  0
VERTEX
  8
0
 10
74.2061
 20
71.044816
 42
0.0
  0
VERTEX
  8
0
 10
75.13066
 20
70.607682
 42
0.0
  0
VERTEX
  8
0
 10
75.830684
 20
69.978016
 42
0.0
  0
VERTEX
  8
0
 10
76.300584
 20
69.160898
 42
0.0
  0
VERTEX
  8
0
 10
76.531978
 20
68.16344
 42
0.0
  0
VERTEX
  8
0
 10
76.526644
 20
66.996056
 42
0.0
  0
VERTEX
  8
0
 10
76.284074
 20
65.668906
 42
0.0
  0
VERTEX
  8
0
 10
75.804522
 20
64.19469
 42
0.0
  0
VERTEX
  8
0
 10
75.294744
 20
63.041022
 42
0.0
  0
VERTEX
  8
0
 10
75.154028
 20
62.724284
 42
0.0
  0
VERTEX
  8
0
 10
75.094846
 20
62.589156
 42
0.0
  0
VERTEX
  8
0
 10
74.842624
 20
62.124844
 42
0.0
  0
VERTEX
  8
0
 10
74.606912
 20
61.689234
 42
0.0
  0
VERTEX
  8
0
 10
74.160634
 20
60.866528
 42
0.0
  0
VERTEX
  8
0
 10
73.00976
 20
59.04484
 42
0.0
  0
VERTEX
  8
0
 10
71.656702
 20
57.139078
 42
0.0
  0
VERTEX
  8
0
 10
70.111874
 20
55.169816
 42
0.0
  0
VERTEX
  8
0
 10
68.390516
 20
53.155088
 42
0.0
  0
VERTEX
  8
0
 10
66.509646
 20
51.114452
 42
0.0
  0
VERTEX
  8
0
 10
64.820038
 20
49.40554
 42
0.0
  0
VERTEX
  8
0
 10
64.71666
 20
49.300638
 42
0.0
  0
VERTEX
  8
0
 10
64.525144
 20
49.106328
 42
0.0
  0
VERTEX
  8
0
 10
64.482472
 20
49.063656
 42
0.0
  0
VERTEX
  8
0
 10
64.394334
 20
48.979582
 42
0.0
  0
VERTEX
  8
0
 10
64.263524
 20
48.8569
 42
0.0
  0
VERTEX
  8
0
 10
64.175132
 20
48.772826
 42
0.0
  0
VERTEX
  8
0
 10
64.023494
 20
48.648874
 42
0.0
  0
VERTEX
  8
0
 10
63.665354
 20
48.30445
 42
0.0
  0
VERTEX
  8
0
 10
63.250572
 20
47.906178
 42
0.0
  0
VERTEX
  8
0
 10
63.19266
 20
47.85106
 42
0.0
  0
VERTEX
  8
0
 10
62.993016
 20
47.659544
 42
0.0
  0
VERTEX
  8
0
 10
62.743334
 20
47.377096
 42
0.0
  0
VERTEX
  8
0
 10
62.727078
 20
47.353474
 42
0.0
  0
VERTEX
  8
0
 10
62.715648
 20
47.335694
 42
0.0
  0
VERTEX
  8
0
 10
62.46241
 20
47.061374
 42
0.0
  0
VERTEX
  8
0
 10
62.454028
 20
47.053246
 42
0.0
  0
VERTEX
  8
0
 10
62.320424
 20
46.876716
 42
0.0
  0
VERTEX
  8
0
 10
61.74994
 20
46.122844
 42
0.0
  0
VERTEX
  8
0
 10
61.241432
 20
45.305726
 42
0.0
  0
VERTEX
  8
0
 10
61.111638
 20
45.096176
 42
0.0
  0
VERTEX
  8
0
 10
60.545472
 20
43.984418
 42
0.0
  0
VERTEX
  8
0
 10
60.057538
 20
42.797476
 42
0.0
  0
VERTEX
  8
0
 10
59.873134
 20
42.227246
 42
0.0
  0
VERTEX
  8
0
 10
59.651138
 20
41.545256
 42
0.0
  0
VERTEX
  8
0
 10
59.331606
 20
40.242744
 42
0.0
  0
VERTEX
  8
0
 10
59.099704
 20
38.899338
 42
0.0
  0
VERTEX
  8
0
 10
58.960766
 20
37.529516
 42
0.0
  0
VERTEX
  8
0
 10
58.913776
 20
36.145978
 42
0.0
  0
VERTEX
  8
0
 10
58.960766
 20
34.76371
 42
0.0
  0
VERTEX
  8
0
 10
59.099704
 20
33.394142
 42
0.0
  0
VERTEX
  8
0
 10
59.331606
 20
32.051752
 42
0.0
  0
VERTEX
  8
0
 10
59.651138
 20
30.7467
 42
0.0
  0
VERTEX
  8
0
 10
60.057538
 20
29.49702
 42
0.0
  0
VERTEX
  8
0
 10
60.13069
 20
29.31922
 42
0.0
  0
VERTEX
  8
0
 10
60.294774
 20
28.920948
 42
0.0
  0
VERTEX
  8
0
 10
60.45454
 20
28.532328
 42
0.0
  0
VERTEX
  8
0
 10
60.545472
 20
28.309062
 42
0.0
  0
VERTEX
  8
0
 10
61.111638
 20
27.19705
 42
0.0
  0
VERTEX
  8
0
 10
61.205618
 20
27.045412
 42
0.0
  0
VERTEX
  8
0
 10
61.74994
 20
26.171652
 42
0.0
  0
VERTEX
  8
0
 10
61.950854
 20
25.905714
 42
0.0
  0
VERTEX
  8
0
 10
62.390528
 20
25.3256034
 42
0.0
  0
VERTEX
  8
0
 10
63.665354
 20
24.117046
 42
0.0
  0
VERTEX
  8
0
 10
64.48679
 20
23.3384852
 42
0.0
  0
VERTEX
  8
0
 10
66.509646
 20
21.2920834
 42
0.0
  0
VERTEX
  8
0
 10
68.390516
 20
19.2498218
 42
0.0
  0
VERTEX
  8
0
 10
70.111874
 20
17.2365162
 42
0.0
  0
VERTEX
  8
0
 10
71.407274
 20
15.5842462
 42
0.0
  0
VERTEX
  8
0
 10
71.656702
 20
15.2658826
 42
0.0
  0
VERTEX
  8
0
 10
73.00976
 20
13.3614668
 42
0.0
  0
VERTEX
  8
0
 10
73.530968
 20
12.5374146
 42
0.0
  0
VERTEX
  8
0
 10
74.160634
 20
11.5396772
 42
0.0
  0
VERTEX
  8
0
 10
75.094846
 20
9.8157538
 42
0.0
  0
VERTEX
  8
0
 10
75.804522
 20
8.2117184
 42
0.0
  0
VERTEX
  8
0
 10
76.284074
 20
6.7372484
 42
0.0
  0
VERTEX
  8
0
 10
76.427584
 20
5.953125
 42
0.0
  0
VERTEX
  8
0
 10
76.472796
 20
5.7037224
 42
0.0
  0
VERTEX
  8
0
 10
76.526644
 20
5.4101746
 42
0.0
  0
VERTEX
  8
0
 10
76.531978
 20
4.2429684
 42
0.0
  0
VERTEX
  8
0
 10
76.300584
 20
3.2439102
 42
0.0
  0
VERTEX
  8
0
 10
75.830684
 20
2.42810284
 42
0.0
  0
VERTEX
  8
0
 10
75.13066
 20
1.7969611
 42
0.0
  0
VERTEX
  8
0
 10
74.2061
 20
1.3615035
 42
0.0
  0
VERTEX
  8
0
 10
73.066402
 20
1.12447832
 42
0.0
  0
VERTEX
  8
0
 10
71.721472
 20
1.0872724
 42
0.0
  0
VERTEX
  8
0
 10
70.183502
 20
1.24988066
 42
0.0
  0
VERTEX
  8
0
 10
68.470526
 20
1.61368232
 42
0.0
  0
VERTEX
  8
0
 10
68.466462
 20
1.61506154
 42
0.0
  0
VERTEX
  8
0
 10
68.239132
 20
1.6825849
 42
0.0
  0
VERTEX
  8
0
 10
66.59626
 20
2.1717889
 42
0.0
  0
VERTEX
  8
0
 10
64.820038
 20
2.8318714
 42
0.0
  0
VERTEX
  8
0
 10
64.580516
 20
2.9200602
 42
0.0
  0
VERTEX
  8
0
 10
63.904876
 20
3.2135826
 42
0.0
  0
VERTEX
  8
0
 10
63.522352
 20
3.5057334
 42
0.0
  0
VERTEX
  8
0
 10
52.701952
 20
12.5374146
 42
0.0
  0
VERTEX
  8
0
 10
51.927252
 20
13.1850638
 42
0.0
  0
VERTEX
  8
0
 10
50.857912
 20
14.009116
 42
0.0
  0
VERTEX
  8
0
 10
49.715674
 20
14.7629372
 42
0.0
  0
VERTEX
  8
0
 10
48.504094
 20
15.4367738
 42
0.0
  0
VERTEX
  8
0
 10
48.436784
 20
15.46987
 42
0.0
  0
VERTEX
  8
0
 10
48.19015
 20
15.5842462
 42
0.0
  0
VERTEX
  8
0
 10
47.842678
 20
15.7468316
 42
0.0
  0
VERTEX
  8
0
 10
47.23384
 20
16.032099
 42
0.0
  0
VERTEX
  8
0
 10
47.08779
 20
16.088614
 42
0.0
  0
VERTEX
  8
0
 10
46.05401
 20
16.485489
 42
0.0
  0
VERTEX
  8
0
 10
45.912278
 20
16.5405816
 42
0.0
  0
VERTEX
  8
0
 10
45.847254
 20
16.5598856
 42
0.0
  0
VERTEX
  8
0
 10
44.647104
 20
16.9292016
 42
0.0
  0
VERTEX
  8
0
 10
44.546266
 20
16.9608754
 42
0.0
  0
VERTEX
  8
0
 10
43.836844
 20
17.1276518
 42
0.0
  0
VERTEX
  8
0
 10
43.143678
 20
17.2902372
 42
0.0
  0
VERTEX
  8
0
 10
42.3926
 20
17.4156624
 42
0.0
  0
VERTEX
  8
0
 10
41.717468
 20
17.52727
 42
0.0
  0
VERTEX
  8
0
 10
41.010332
 20
17.5975518
 42
0.0
  0
VERTEX
  8
0
 10
40.457882
 20
17.6512982
 42
0.0
  0
VERTEX
  8
0
 10
40.270176
 20
17.6705768
 42
0.0
  0
VERTEX
  8
0
 10
39.089584
 20
17.7091594
 42
0.0
  0
VERTEX
  8
0
 10
38.816534
 20
17.7188368
 42
0.0
  0
VERTEX
  8
0
 10
38.768528
 20
17.7174398
 42
0.0
  0
VERTEX
  8
0
 10
38.768528
 20
17.7077878
 42
0.0
  0
VERTEX
  8
0
 10
38.717474
 20
17.7091594
 42
0.0
  0
VERTEX
  8
0
 10
37.262054
 20
17.6609502
 42
0.0
  0
VERTEX
  8
0
 10
36.009326
 20
17.5382682
 42
0.0
  0
VERTEX
  8
0
 10
35.81654
 20
17.519015
 42
0.0
  0
VERTEX
  8
0
 10
34.387536
 20
17.2819822
 42
0.0
  0
VERTEX
  8
0
 10
33.695894
 20
17.1179744
 42
0.0
  0
VERTEX
  8
0
 10
32.987488
 20
16.9512488
 42
0.0
  0
VERTEX
  8
0
 10
32.885634
 20
16.9209212
 42
0.0
  0
VERTEX
  8
0
 10
32.051752
 20
16.6632382
 42
0.0
  0
VERTEX
  8
0
 10
31.68523
 20
16.550259
 42
0.0
  0
VERTEX
  8
0
 10
31.62046
 20
16.530955
 42
0.0
  0
VERTEX
  8
0
 10
30.446472
 20
16.0789366
 42
0.0
  0
VERTEX
  8
0
 10
30.298898
 20
16.0224724
 42
0.0
  0
VERTEX
  8
0
 10
29.688536
 20
15.737205
 42
0.0
  0
VERTEX
  8
0
 10
29.343858
 20
15.5759404
 42
0.0
  0
VERTEX
  8
0
 10
29.02839
 20
15.4285188
 42
0.0
  0
VERTEX
  8
0
 10
27.818588
 20
14.7532852
 42
0.0
  0
VERTEX
  8
0
 10
26.674572
 20
14.000861
 42
0.0
  0
VERTEX
  8
0
 10
25.605232
 20
13.1754372
 42
0.0
  0
VERTEX
  8
0
 10
24.8419112
 20
12.5374146
 42
0.0
  0
VERTEX
  8
0
 10
18.6958478
 20
7.4069448
 42
0.0
  0
VERTEX
  8
0
 10
15.6683202
 20
4.8796194
 42
0.0
  0
VERTEX
  8
0
 10
14.009116
 20
3.4947098
 42
0.0
  0
VERTEX
  8
0
 10
13.6274048
 20
3.2053276
 42
0.0
  0
VERTEX
  8
0
 10
12.9535682
 20
2.9118052
 42
0.0
  0
VERTEX
  8
0
 10
11.6981732
 20
2.44464078
 42
0.0
  0
VERTEX
  8
0
 10
10.9361224
 20
2.16214452
 42
0.0
  0
VERTEX
  8
0
 10
9.0619834
 20
1.60403794
 42
0.0
  0
VERTEX
  8
0
 10
8.8029034
 20
1.5489174
 42
0.0
  0
VERTEX
  8
0
 10
7.475855
 20
1.2691745
 42
0.0
  0
VERTEX
  8
0
 10
7.3476866
 20
1.24161296
 42
0.0
  0
VERTEX
  8
0
 10
5.8112152
 20
1.07762548
 42
0.0
  0
VERTEX
  8
0
 10
5.6706262
 20
1.0817606
 42
0.0
  0
VERTEX
  8
0
 10
5.4625494
 20
1.0872724
 42
0.0
  0
VERTEX
  8
0
 10
4.4662344
 20
1.11483394
 42
0.0
  0
VERTEX
  8
0
 10
3.3265872
 20
1.35185404
 42
0.0
  0
VERTEX
  8
0
 10
2.40191798
 20
1.7886934
 42
0.0
  0
VERTEX
  8
0
 10
1.70187874
 20
2.41845846
 42
0.0
  0
VERTEX
  8
0
 10
1.23334272
 20
3.2356298
 42
0.0
  0
VERTEX
  8
0
 10
1.00045774
 20
4.2333418
 42
0.0
  0
VERTEX
  8
0
 10
1.00459032
 20
5.4019196
 42
0.0
  0
VERTEX
  8
0
 10
1.24850144
 20
6.7289426
 42
0.0
  0
VERTEX
  8
0
 10
1.72806106
 20
8.2020918
 42
0.0
  0
VERTEX
  8
0
 10
2.43774976
 20
9.8074988
 42
0.0
  0
VERTEX
  8
0
 10
3.3720532
 20
11.5300506
 42
0.0
  0
VERTEX
  8
0
 10
4.0073326
 20
12.5374146
 42
0.0
  0
VERTEX
  8
0
 10
4.5213524
 20
13.3518148
 42
0.0
  0
VERTEX
  8
0
 10
5.8759598
 20
15.2576276
 42
0.0
  0
VERTEX
  8
0
 10
7.4207624
 20
17.2268388
 42
0.0
  0
VERTEX
  8
0
 10
9.1419172
 20
19.2415668
 42
0.0
  0
VERTEX
  8
0
 10
11.0229396
 20
21.282406
 42
0.0
  0
VERTEX
  8
0
 10
13.0458972
 20
23.3288078
 42
0.0
  0
VERTEX
  8
0
 10
13.8672062
 20
24.107394
 42
0.0
  0
VERTEX
  8
0
 10
15.1419052
 20
25.3172976
 42
0.0
  0
VERTEX
  8
0
 10
15.5676854
 20
25.879552
 42
0.0
  0
VERTEX
  8
0
 10
15.6683202
 20
26.010362
 42
0.0
  0
VERTEX
  8
0
 10
15.782671
 20
26.162
 42
0.0
  0
VERTEX
  8
0
 10
16.4193474
 20
27.187398
 42
0.0
  0
VERTEX
  8
0
 10
16.9856912
 20
28.29941
 42
0.0
  0
VERTEX
  8
0
 10
17.2420026
 20
28.920948
 42
0.0
  0
VERTEX
  8
0
 10
17.4018448
 20
29.309568
 42
0.0
  0
VERTEX
  8
0
 10
17.4749206
 20
29.487368
 42
0.0
  0
VERTEX
  8
0
 10
17.8814222
 20
30.738572
 42
0.0
  0
VERTEX
  8
0
 10
18.2011574
 20
32.0421
 42
0.0
  0
VERTEX
  8
0
 10
18.4326276
 20
33.38576
 42
0.0
  0
VERTEX
  8
0
 10
18.5718196
 20
34.754058
 42
0.0
  0
VERTEX
  8
0
 10
18.6186572
 20
36.13785
 42
0.0
  0
VERTEX
  8
0
 10
18.5718196
 20
37.51961
 42
0.0
  0
VERTEX
  8
0
 10
18.4326276
 20
38.889432
 42
0.0
  0
VERTEX
  8
0
 10
18.2011574
 20
40.231822
 42
0.0
  0
VERTEX
  8
0
 10
17.8814222
 20
41.536874
 42
0.0
  0
VERTEX
  8
0
 10
17.6595532
 20
42.217594
 42
0.0
  0
VERTEX
  8
0
 10
17.4749206
 20
42.788078
 42
0.0
  0
VERTEX
  8
0
 10
16.9856912
 20
43.975782
 42
0.0
  0
VERTEX
  8
0
 10
16.4193474
 20
45.088048
 42
0.0
  0
VERTEX
  8
0
 10
16.2842956
 20
45.305726
 42
0.0
  0
VERTEX
  8
0
 10
15.782671
 20
46.113446
 42
0.0
  0
VERTEX
  8
0
 10
15.6683202
 20
46.26356
 42
0.0
  0
VERTEX
  8
0
 10
15.21079
 20
46.868334
 42
0.0
  0
VERTEX
  8
0
 10
15.0785068
 20
47.043594
 42
0.0
  0
VERTEX
  8
0
 10
15.0674578
 20
47.054516
 42
0.0
  0
VERTEX
  8
0
 10
14.8194268
 20
47.321978
 42
0.0
  0
VERTEX
  8
0
 10
14.8001228
 20
47.353474
 42
0.0
  0
VERTEX
  8
0
 10
14.7904962
 20
47.36846
 42
0.0
  0
VERTEX
  8
0
 10
14.5396712
 20
47.649638
 42
0.0
  0
VERTEX
  8
0
 10
14.3302228
 20
47.85106
 42
0.0
  0
VERTEX
  8
0
 10
14.295755
 20
47.88535
 42
0.0
  0
VERTEX
  8
0
 10
13.8672062
 20
48.296068
 42
0.0
  0
VERTEX
  8
0
 10
13.6205468
 20
48.53305
 42
0.0
  0
VERTEX
  8
0
 10
13.5102854
 20
48.639222
 42
0.0
  0
VERTEX
  8
0
 10
13.3504432
 20
48.770032
 42
0.0
  0
VERTEX
  8
0
 10
13.2663946
 20
48.848772
 42
0.0
  0
VERTEX
  8
0
 10
13.1368546
 20
48.972724
 42
0.0
  0
VERTEX
  8
0
 10
13.0458972
 20
49.058322
 42
0.0
  0
VERTEX
  8
0
 10
13.0059176
 20
49.0982
 42
0.0
  0
VERTEX
  8
0
 10
12.9094738
 20
49.19726
 42
0.0
  0
VERTEX
  8
0
 10
12.8157478
 20
49.29124
 42
0.0
  0
VERTEX
  8
0
 10
11.0229396
 20
51.105816
 42
0.0
  0
VERTEX
  8
0
 10
9.1419172
 20
53.146706
 42
0.0
  0
VERTEX
  8
0
 10
8.5893402
 20
53.791612
 42
0.0
  0
VERTEX
  8
0
 10
7.4207624
 20
55.15991
 42
0.0
  0
VERTEX
  8
0
 10
5.8759598
 20
57.129172
 42
0.0
  0
VERTEX
  8
0
 10
4.5213524
 20
59.035188
 42
0.0
  0
VERTEX
  8
0
 10
3.3720532
 20
60.856876
 42
0.0
  0
VERTEX
  8
0
 10
2.9214318
 20
61.689234
 42
0.0
  0
VERTEX
  8
0
 10
2.6899362
 20
62.114938
 42
0.0
  0
VERTEX
  8
0
 10
2.43774976
 20
62.581028
 42
0.0
  0
VERTEX
  8
0
 10
1.72806106
 20
64.184784
 42
0.0
  0
VERTEX
  8
0
 10
1.24850144
 20
65.659254
 42
0.0
  0
VERTEX
  8
0
 10
1.00459032
 20
66.986404
 42
0.0
  0
VERTEX
  8
0
 10
1.00045774
 20
68.154804
 42
0.0
  0
VERTEX
  8
0
 10
1.23334272
 20
69.152516
 42
0.0
  0
VERTEX
  8
0
 10
1.70187874
 20
69.969888
 42
0.0
  0
VERTEX
  8
0
 10
2.40191798
 20
70.599554
 42
0.0
  0
VERTEX
  8
0
 10
3.3265872
 20
71.03491
 42
0.0
  0
VERTEX
  8
0
 10
4.4662344
 20
71.272146
 42
0.0
  0
VERTEX
  8
0
 10
5.3839872
 20
71.298054
 42
0.0
  0
VERTEX
  8
0
 10
5.640324
 20
71.305166
 42
0.0
  0
VERTEX
  8
0
 10
5.8112152
 20
71.309484
 42
0.0
  0
VERTEX
  8
0
 10
7.3476866
 20
71.146924
 42
0.0
  0
VERTEX
  8
0
 10
7.475855
 20
71.119238
 42
0.0
  0
VERTEX
  8
0
 10
9.0344244
 20
70.7898
 42
0.0
  0
VERTEX
  8
0
 10
9.0619834
 20
70.783196
 42
0.0
  0
VERTEX
  8
0
 10
10.9361224
 20
70.224904
 42
0.0
  0
VERTEX
  8
0
 10
11.860784
 20
69.88175
 42
0.0
  0
VERTEX
  8
0
 10
12.5677168
 20
69.619876
 42
0.0
  0
VERTEX
  8
0
 10
15.6683202
 20
67.237356
 42
0.0
  0
VERTEX
  8
0
 10
22.335236
 20
62.114938
 42
0.0
  0
VERTEX
  8
0
 10
22.8905816
 20
61.689234
 42
0.0
  0
VERTEX
  8
0
 10
24.6310404
 20
60.352432
 42
0.0
  0
VERTEX
  8
0
 10
26.101548
 20
59.22264
 42
0.0
  0
VERTEX
  8
0
 10
27.42565
 20
58.205624
 42
0.0
  0
VERTEX
  8
0
 10
31.416498
 20
55.13959
 42
0.0
  0
VERTEX
  8
0
 10
31.68523
 20
54.934104
 42
0.0
  0
VERTEX
  8
0
 10
32.051752
 20
54.651656
 42
0.0
  0
VERTEX
  8
0
 10
33.553908
 20
53.496972
 42
0.0
  0
VERTEX
  8
0
 10
35.429444
 20
52.057046
 42
0.0
  0
VERTEX
  8
0
 10
35.990276
 20
51.689
 42
0.0
  0
VERTEX
  8
0
 10
36.009326
 20
51.680618
 42
0.0
  0
VERTEX
  8
0
 10
36.147248
 20
51.614578
 42
0.0
  0
VERTEX
  8
0
 10
36.618672
 20
51.392582
 42
0.0
  0
VERTEX
  8
0
 10
37.300662
 20
51.176174
 42
0.0
  0
VERTEX
  8
0
 10
38.018974
 20
51.04384
 42
0.0
  0
VERTEX
  8
0
 10
38.69944
 20
51.002438
 42
0.0
  0
VERTEX
  8
0
 10
38.754304
 20
50.999644
 42
0.0
  0
VERTEX
  8
0
 10
38.76421
 20
50.999644
 42
0.0
  0
VERTEX
  8
0
 10
38.76421
 20
51.00955
 42
0.0
  0
VERTEX
  8
0
 10
38.777926
 20
51.008026
 42
0.0
  0
VERTEX
  8
0
 10
38.831774
 20
51.012344
 42
0.0
  0
VERTEX
  8
0
 10
39.188644
 20
51.032918
 42
0.0
  0
VERTEX
  8
0
 10
39.514018
 20
51.052222
 42
0.0
  0
VERTEX
  8
0
 10
40.230552
 20
51.185826
 42
0.0
  0
VERTEX
  8
0
 10
40.244268
 20
51.18989
 42
0.0
  0
VERTEX
  8
0
 10
40.912796
 20
51.402234
 42
0.0
  0
VERTEX
  8
0
 10
41.010332
 20
51.4477
 42
0.0
  0
VERTEX
  8
0
 10
41.542462
 20
51.698398
 42
0.0
  0
VERTEX
  8
0
 10
42.104818
 20
52.066444
 42
0.0
  0
VERTEX
  8
0
 10
43.966384
 20
53.496972
 42
0.0
  0
VERTEX
  8
0
 10
45.847254
 20
54.942232
 42
0.0
  0
VERTEX
  8
0
 10
46.11624
 20
55.148988
 42
0.0
  0
VERTEX
  8
0
 10
46.453806
 20
55.408322
 42
0.0
  0
VERTEX
  8
0
 10
47.095918
 20
55.90159
 42
0.0
  0
VERTEX
  8
0
 10
47.751746
 20
56.40451
 42
0.0
  0
VERTEX
  8
0
 10
48.43526
 20
56.929528
 42
0.0
  0
VERTEX
  8
0
 10
48.436784
 20
56.930798
 42
0.0
  0
VERTEX
  8
0
 10
52.901596
 20
60.361068
 42
0.0
  0
VERTEX
  8
0
 10
54.630828
 20
61.689234
 42
0.0
  0
VERTEX
  8
0
 10
55.197248
 20
62.124844
 42
0.0
  0
VERTEX
  8
0
 10
64.820038
 20
69.516498
 42
0.0
  0
VERTEX
  8
0
 10
64.966088
 20
69.628004
 42
0.0
  0
VERTEX
  8
0
 10
65.647062
 20
69.88175
 42
0.0
  0
VERTEX
  8
0
 10
66.59626
 20
70.234556
 42
0.0
  0
VERTEX
  8
0
 10
68.470526
 20
70.792594
 42
0.0
  0
VERTEX
  8
0
 10
68.498212
 20
70.798182
 42
0.0
  0
VERTEX
  8
0
 10
70.183502
 20
71.155052
 42
0.0
  0
VERTEX
  8
0
 10
71.721472
 20
71.318882
 42
0.0
  0
VERTEX
  8
0
 10
71.893684
 20
71.314818
 42
0.0
  0
VERTEX
  8
0
 10
72.075802
 20
71.309484
 42
0.0
  0
SEQEND
  0
POLYLINE
  8
0
 66
     1
 10
0.0
 20
0.0
 30
0.0
 70
     1
  0
VERTEX
  8
0
 10
40.5392947308322
 20
21.8832167242763
 42
0.0
  0
VERTEX
  8
0
 10
41.010332
 20
22.4027746
 42
0.0
  0
VERTEX
  8
0
 10
41.162224
 20
22.5557334
 42
0.0
  0
VERTEX
  8
0
 10
41.811194
 20
23.2047796
 42
0.0
  0
VERTEX
  8
0
 10
35.805618
 20
23.2047796
 42
0.0
  0
VERTEX
  8
0
 10
36.009326
 20
23.0008176
 42
0.0
  0
VERTEX
  8
0
 10
37.0320224462378
 20
21.8833814975554
 42
0.0
  0
VERTEX
  8
0
 10
37.033454
 20
21.881846
 42
0.0
  0
VERTEX
  8
0
 10
38.7891708228195
 20
21.3741062770814
 42
0.0
  0
VERTEX
  8
0
 10
40.539162
 20
21.881846
 42
0.0
  0
SEQEND
  0
POLYLINE
  8
0
 66
     1
 10
0.0
 20
0.0
 30
0.0
 70
     1
  0
VERTEX
  8
0
 10
68.8514302405815
 20
63.4244738625464
 42
0.0
  0
VERTEX
  8
0
 10
69.0326680763153
 20
63.2420682572525
 42
0.0
  0
VERTEX
  8
0
 10
69.0807801821931
 20
63.1951239209349
 42
0.0
  0
VERTEX
  8
0
 10
69.1858794426057
 20
63.1418736289925
 42
0.0
  0
VERTEX
  8
0
 10
69.5824539852293
 20
62.9391488333522
 42
0.0
  0
VERTEX
  8
0
 10
70.1376116341199
 20
62.8506319006936
 42
0.0
  0
VERTEX
  8
0
 10
70.6951048221308
 20
62.9391488333522
 42
0.0
  0
VERTEX
  8
0
 10
71.0916793647544
 20
63.1418736289925
 42
0.0
  0
VERTEX
  8
0
 10
71.196545071255
 20
63.1951239209349
 42
0.0
  0
VERTEX
  8
0
 10
71.5947544912627
 20
63.5930997870307
 42
0.0
  0
VERTEX
  8
0
 10
71.6543107388299
 20
63.7108109586928
 42
0.0
  0
VERTEX
  8
0
 10
71.7708541409319
 20
63.937591807272
 42
0.0
  0
VERTEX
  8
0
 10
71.8507295788455
 20
64.0936058205067
 42
0.0
  0
VERTEX
  8
0
 10
71.938312295856
 20
64.6499312389575
 42
0.0
  0
VERTEX
  8
0
 10
71.8507295788455
 20
65.2062566574082
 42
0.0
  0
VERTEX
  8
0
 10
71.7708541409319
 20
65.3632048862911
 42
0.0
  0
VERTEX
  8
0
 10
71.6199783137618
 20
65.6584170310945
 42
0.0
  0
VERTEX
  8
0
 10
71.6160078972573
 20
65.6649565406313
 42
0.0
  0
VERTEX
  8
0
 10
71.5947544912627
 20
65.7090982300046
 42
0.0
  0
VERTEX
  8
0
 10
71.196545071255
 20
66.1070740961003
 42
0.0
  0
VERTEX
  8
0
 10
70.8735400109202
 20
66.2717296040801
 42
0.0
  0
VERTEX
  8
0
 10
70.6951048221308
 20
66.363049183683
 42
0.0
  0
VERTEX
  8
0
 10
70.1376116341199
 20
66.4501647928695
 42
0.0
  0
VERTEX
  8
0
 10
69.5824539852293
 20
66.363049183683
 42
0.0
  0
VERTEX
  8
0
 10
69.4037852425278
 20
66.2717296040801
 42
0.0
  0
VERTEX
  8
0
 10
69.0807801821931
 20
66.1070740961003
 42
0.0
  0
VERTEX
  8
0
 10
68.6828043160973
 20
65.7090982300046
 42
0.0
  0
VERTEX
  8
0
 10
68.6599160327185
 20
65.6649565406313
 42
0.0
  0
VERTEX
  8
0
 10
68.6487054449412
 20
65.6418347033405
 42
0.0
  0
VERTEX
  8
0
 10
68.4268292285146
 20
65.2062566574082
 42
0.0
  0
VERTEX
  8
0
 10
68.338312295856
 20
64.6499312389575
 42
0.0
  0
VERTEX
  8
0
 10
68.4268292285146
 20
64.0936058205067
 42
0.0
  0
VERTEX
  8
0
 10
68.6487054449412
 20
63.6589619902226
 42
0.0
  0
VERTEX
  8
0
 10
68.6828043160973
 20
63.5930997870307
 42
0.0
  0
SEQEND
  0
POLYLINE
  8
0
 66
     1
 10
0.0
 20
0.0
 30
0.0
 70
     1
  0
VERTEX
  8
0
 10
52.901596
 20
48.309784
 42
0.0
  0
VERTEX
  8
0
 10
53.798724
 20
48.168052
 42
0.0
  0
VERTEX
  8
0
 10
54.723284
 20
48.314102
 42
0.0
  0
VERTEX
  8
0
 10
55.556912
 20
48.739806
 42
0.0
  0
VERTEX
  8
0
 10
56.219852
 20
49.404016
 42
0.0
  0
VERTEX
  8
0
 10
56.627776
 20
50.207418
 42
0.0
  0
VERTEX
  8
0
 10
56.645556
 20
50.241962
 42
0.0
  0
VERTEX
  8
0
 10
56.791606
 20
51.169316
 42
0.0
  0
VERTEX
  8
0
 10
56.645556
 20
52.098194
 42
0.0
  0
VERTEX
  8
0
 10
56.627776
 20
52.13096
 42
0.0
  0
VERTEX
  8
0
 10
56.219852
 20
52.934616
 42
0.0
  0
VERTEX
  8
0
 10
55.65775
 20
53.496972
 42
0.0
  0
VERTEX
  8
0
 10
55.556912
 20
53.598826
 42
0.0
  0
VERTEX
  8
0
 10
54.723284
 20
54.026054
 42
0.0
  0
VERTEX
  8
0
 10
53.798724
 20
54.172104
 42
0.0
  0
VERTEX
  8
0
 10
52.901596
 20
54.030118
 42
0.0
  0
VERTEX
  8
0
 10
52.87264
 20
54.026054
 42
0.0
  0
VERTEX
  8
0
 10
52.037488
 20
53.598826
 42
0.0
  0
VERTEX
  8
0
 10
51.936904
 20
53.496972
 42
0.0
  0
VERTEX
  8
0
 10
51.376072
 20
52.934616
 42
0.0
  0
VERTEX
  8
0
 10
50.950368
 20
52.098194
 42
0.0
  0
VERTEX
  8
0
 10
50.804318
 20
51.169316
 42
0.0
  0
VERTEX
  8
0
 10
50.950368
 20
50.241962
 42
0.0
  0
VERTEX
  8
0
 10
51.376072
 20
49.404016
 42
0.0
  0
VERTEX
  8
0
 10
52.037488
 20
48.739806
 42
0.0
  0
VERTEX
  8
0
 10
52.87264
 20
48.314102
 42
0.0
  0
SEQEND
  0
POLYLINE
  8
0
 66
     1
 10
0.0
 20
0.0
 30
0.0
 70
     1
  0
VERTEX
  8
0
 10
49.9067380258944
 20
44.7058232248312
 42
0.0
  0
VERTEX
  8
0
 10
50.1094628215347
 20
44.9073802509114
 42
0.0
  0
VERTEX
  8
0
 10
50.2337135027336
 20
45.0313973781983
 42
0.0
  0
VERTEX
  8
0
 10
50.3997703341856
 20
45.3583728550376
 42
0.0
  0
VERTEX
  8
0
 10
50.4896885903163
 20
45.5333047351465
 42
0.0
  0
VERTEX
  8
0
 10
50.5772713073269
 20
46.0896301535973
 42
0.0
  0
VERTEX
  8
0
 10
50.4896885903163
 20
46.6459555720481
 42
0.0
  0
VERTEX
  8
0
 10
50.2337135027336
 20
47.1473958211722
 42
0.0
  0
VERTEX
  8
0
 10
49.8359711905499
 20
47.545371687268
 42
0.0
  0
VERTEX
  8
0
 10
49.3342973875137
 20
47.8027480983229
 42
0.0
  0
VERTEX
  8
0
 10
48.7779719690629
 20
47.8898637075093
 42
0.0
  0
VERTEX
  8
0
 10
48.2216465506122
 20
47.8027480983229
 42
0.0
  0
VERTEX
  8
0
 10
47.719739193664
 20
47.545371687268
 42
0.0
  0
VERTEX
  8
0
 10
47.3222304353923
 20
47.1473958211722
 42
0.0
  0
VERTEX
  8
0
 10
47.0662553478095
 20
46.6459555720481
 42
0.0
  0
VERTEX
  8
0
 10
46.9772713073269
 20
46.0896301535973
 42
0.0
  0
VERTEX
  8
0
 10
47.0662553478095
 20
45.5333047351465
 42
0.0
  0
VERTEX
  8
0
 10
47.1559400500283
 20
45.3583728550376
 42
0.0
  0
VERTEX
  8
0
 10
47.3222304353923
 20
45.0313973781983
 42
0.0
  0
VERTEX
  8
0
 10
47.719739193664
 20
44.6334215121026
 42
0.0
  0
VERTEX
  8
0
 10
48.2216465506122
 20
44.3774464245198
 42
0.0
  0
VERTEX
  8
0
 10
48.7779719690629
 20
44.2903308153334
 42
0.0
  0
VERTEX
  8
0
 10
49.3342973875137
 20
44.3774464245198
 42
0.0
  0
VERTEX
  8
0
 10
49.8359711905499
 20
44.6334215121026
 42
0.0
  0
SEQEND
  0
POLYLINE
  8
0
 66
     1
 10
0.0
 20
0.0
 30
0.0
 70
     1
  0
VERTEX
  8
0
 10
53.837078
 20
37.518594
 42
0.0
  0
VERTEX
  8
0
 10
58.135266
 20
37.518594
 42
0.0
  0
VERTEX
  8
0
 10
58.135266
 20
39.02329
 42
0.0
  0
VERTEX
  8
0
 10
53.379878
 20
39.02329
 42
0.0
  0
VERTEX
  8
0
 10
53.379878
 20
37.518594
 42
0.0
  0
SEQEND
  0
POLYLINE
  8
0
 66
     1
 10
0.0
 20
0.0
 30
0.0
 70
     1
  0
VERTEX
  8
0
 10
50.950368
 20
22.1395544
 42
0.0
  0
VERTEX
  8
0
 10
50.804318
 20
21.2107526
 42
0.0
  0
VERTEX
  8
0
 10
50.873152
 20
20.7766666
 42
0.0
  0
VERTEX
  8
0
 10
50.88001
 20
20.729829
 42
0.0
  0
VERTEX
  8
0
 10
50.950368
 20
20.2833478
 42
0.0
  0
VERTEX
  8
0
 10
51.376072
 20
19.446875
 42
0.0
  0
VERTEX
  8
0
 10
52.037488
 20
18.782665
 42
0.0
  0
VERTEX
  8
0
 10
52.87264
 20
18.3568594
 42
0.0
  0
VERTEX
  8
0
 10
52.901596
 20
18.3513222
 42
0.0
  0
VERTEX
  8
0
 10
53.798724
 20
18.2094124
 42
0.0
  0
VERTEX
  8
0
 10
54.723284
 20
18.3568594
 42
0.0
  0
VERTEX
  8
0
 10
55.556912
 20
18.782665
 42
0.0
  0
VERTEX
  8
0
 10
56.219852
 20
19.446875
 42
0.0
  0
VERTEX
  8
0
 10
56.645556
 20
20.2833478
 42
0.0
  0
VERTEX
  8
0
 10
56.716168
 20
20.729829
 42
0.0
  0
VERTEX
  8
0
 10
56.791606
 20
21.2107526
 42
0.0
  0
VERTEX
  8
0
 10
56.645556
 20
22.1395544
 42
0.0
  0
VERTEX
  8
0
 10
56.219852
 20
22.9760272
 42
0.0
  0
VERTEX
  8
0
 10
55.556912
 20
23.6402372
 42
0.0
  0
VERTEX
  8
0
 10
54.723284
 20
24.0674652
 42
0.0
  0
VERTEX
  8
0
 10
53.798724
 20
24.2148868
 42
0.0
  0
VERTEX
  8
0
 10
53.626512
 20
24.1873278
 42
0.0
  0
VERTEX
  8
0
 10
52.901596
 20
24.07158
 42
0.0
  0
VERTEX
  8
0
 10
52.87264
 20
24.0674652
 42
0.0
  0
VERTEX
  8
0
 10
52.037488
 20
23.6402372
 42
0.0
  0
VERTEX
  8
0
 10
51.376072
 20
22.9760272
 42
0.0
  0
SEQEND
  0
POLYLINE
  8
0
 66
     1
 10
0.0
 20
0.0
 30
0.0
 70
     1
  0
VERTEX
  8
0
 10
49.9393025453122
 20
24.865279807049
 42
0.0
  0
VERTEX
  8
0
 10
50.0037655160845
 20
24.9298829147144
 42
0.0
  0
VERTEX
  8
0
 10
50.0962558654536
 20
25.0236812084179
 42
0.0
  0
VERTEX
  8
0
 10
50.2319550901592
 20
25.1592402962306
 42
0.0
  0
VERTEX
  8
0
 10
50.4879384813423
 20
25.659855990265
 42
0.0
  0
VERTEX
  8
0
 10
50.5755240394569
 20
26.2159658939209
 42
0.0
  0
VERTEX
  8
0
 10
50.4879384813423
 20
26.7723093590651
 42
0.0
  0
VERTEX
  8
0
 10
50.2319550901592
 20
27.2754008048756
 42
0.0
  0
VERTEX
  8
0
 10
50.0962558654536
 20
27.4096986606514
 42
0.0
  0
VERTEX
  8
0
 10
49.8795108043059
 20
27.626443721799
 42
0.0
  0
VERTEX
  8
0
 10
49.8341998755746
 20
27.6731560194602
 42
0.0
  0
VERTEX
  8
0
 10
49.3311084297641
 20
27.9279716032017
 42
0.0
  0
VERTEX
  8
0
 10
48.7747649646199
 20
28.0167249687579
 42
0.0
  0
VERTEX
  8
0
 10
48.466930923033
 20
27.9672099332371
 42
0.0
  0
VERTEX
  8
0
 10
48.2184214994757
 20
27.9279716032017
 42
0.0
  0
VERTEX
  8
0
 10
47.7178992300366
 20
27.6731560194602
 42
0.0
  0
VERTEX
  8
0
 10
47.474528159222
 20
27.4300185101339
 42
0.0
  0
VERTEX
  8
0
 10
47.3516748163732
 20
27.3083329747267
 42
0.0
  0
VERTEX
  8
0
 10
47.3427994798176
 20
27.2982898307295
 42
0.0
  0
VERTEX
  8
0
 10
47.3189762080105
 20
27.2754008048756
 42
0.0
  0
VERTEX
  8
0
 10
47.0629928168274
 20
26.7723093590651
 42
0.0
  0
VERTEX
  8
0
 10
46.9754072587128
 20
26.2159658939209
 42
0.0
  0
VERTEX
  8
0
 10
47.0629928168274
 20
25.659855990265
 42
0.0
  0
VERTEX
  8
0
 10
47.3189762080105
 20
25.1592402962306
 42
0.0
  0
VERTEX
  8
0
 10
47.5481000280383
 20
24.9298829147144
 42
0.0
  0
VERTEX
  8
0
 10
47.6113951913692
 20
24.865279807049
 42
0.0
  0
VERTEX
  8
0
 10
47.7178992300366
 20
24.7601070688649
 42
0.0
  0
VERTEX
  8
0
 10
48.2184214994757
 20
24.5041236776819
 42
0.0
  0
VERTEX
  8
0
 10
48.466930923033
 20
24.4648386353489
 42
0.0
  0
VERTEX
  8
0
 10
48.7747649646199
 20
24.4167016126091
 42
0.0
  0
VERTEX
  8
0
 10
49.3311084297641
 20
24.5041236776819
 42
0.0
  0
VERTEX
  8
0
 10
49.8341998755746
 20
24.7601070688649
 42
0.0
  0
SEQEND
  0
POLYLINE
  8
0
 66
     1
 10
0.0
 20
0.0
 30
0.0
 70
     1
  0
VERTEX
  8
0
 10
71.7164010764437
 20
6.7011796923911
 42
0.0
  0
VERTEX
  8
0
 10
71.7376551718796
 20
6.7455330190203
 42
0.0
  0
VERTEX
  8
0
 10
71.9191324482931
 20
7.1015975079424
 42
0.0
  0
VERTEX
  8
0
 10
72.007652252361
 20
7.6578942607889
 42
0.0
  0
VERTEX
  8
0
 10
71.9191324482931
 20
8.2141676574866
 42
0.0
  0
VERTEX
  8
0
 10
71.8378530503627
 20
8.3750915229292
 42
0.0
  0
VERTEX
  8
0
 10
71.7376551718796
 20
8.568947558223
 42
0.0
  0
VERTEX
  8
0
 10
71.6643168645516
 20
8.7159511589626
 42
0.0
  0
VERTEX
  8
0
 10
71.2651602810371
 20
9.1138231542913
 42
0.0
  0
VERTEX
  8
0
 10
71.1294610563315
 20
9.1835412585506
 42
0.0
  0
VERTEX
  8
0
 10
71.0635967166293
 20
9.2164734284017
 42
0.0
  0
VERTEX
  8
0
 10
70.7632366426681
 20
9.3698065454744
 42
0.0
  0
VERTEX
  8
0
 10
70.206893177524
 20
9.4572286105472
 42
0.0
  0
VERTEX
  8
0
 10
69.6510168353564
 20
9.3698065454744
 42
0.0
  0
VERTEX
  8
0
 10
69.3518245688368
 20
9.2164734284017
 42
0.0
  0
VERTEX
  8
0
 10
69.1504945659173
 20
9.1138231542913
 42
0.0
  0
VERTEX
  8
0
 10
69.079258311984
 20
9.0428905302929
 42
0.0
  0
VERTEX
  8
0
 10
68.7511044209145
 20
8.7159511589626
 42
0.0
  0
VERTEX
  8
0
 10
68.7118660908791
 20
8.6374044304454
 42
0.0
  0
VERTEX
  8
0
 10
68.6168065651387
 20
8.4498545553359
 42
0.0
  0
VERTEX
  8
0
 10
68.5775682351033
 20
8.3750915229292
 42
0.0
  0
VERTEX
  8
0
 10
68.4965223986613
 20
8.2141676574866
 42
0.0
  0
VERTEX
  8
0
 10
68.4077690331051
 20
7.6578942607889
 42
0.0
  0
VERTEX
  8
0
 10
68.4965223986613
 20
7.1015975079424
 42
0.0
  0
VERTEX
  8
0
 10
68.6168065651387
 20
6.8646260219074
 42
0.0
  0
VERTEX
  8
0
 10
68.7511044209145
 20
6.5985294182807
 42
0.0
  0
VERTEX
  8
0
 10
68.7877735745785
 20
6.5630747843559
 42
0.0
  0
VERTEX
  8
0
 10
69.1504945659173
 20
6.2006574229519
 42
0.0
  0
VERTEX
  8
0
 10
69.1944041257187
 20
6.1778618216933
 42
0.0
  0
VERTEX
  8
0
 10
69.3744800332024
 20
6.0866093482123
 42
0.0
  0
VERTEX
  8
0
 10
69.6510168353564
 20
5.9446973879177
 42
0.0
  0
VERTEX
  8
0
 10
70.206893177524
 20
5.8572753228449
 42
0.0
  0
VERTEX
  8
0
 10
70.7632366426681
 20
5.9446973879177
 42
0.0
  0
VERTEX
  8
0
 10
71.0395398833338
 20
6.0866093482123
 42
0.0
  0
VERTEX
  8
0
 10
71.2651602810371
 20
6.2006574229519
 42
0.0
  0
VERTEX
  8
0
 10
71.3335937971107
 20
6.2690909390255
 42
0.0
  0
VERTEX
  8
0
 10
71.6643168645516
 20
6.5985294182807
 42
0.0
  0
SEQEND
  0
POLYLINE
  8
0
 66
     1
 10
0.0
 20
0.0
 30
0.0
 70
     1
  0
VERTEX
  8
0
 10
20.7408526
 20
39.02329
 42
0.0
  0
VERTEX
  8
0
 10
19.3793618
 20
39.02329
 42
0.0
  0
VERTEX
  8
0
 10
19.3793618
 20
37.518594
 42
0.0
  0
VERTEX
  8
0
 10
24.1349784
 20
37.518594
 42
0.0
  0
VERTEX
  8
0
 10
24.1349784
 20
39.02329
 42
0.0
  0
SEQEND
  0
POLYLINE
  8
0
 66
     1
 10
0.0
 20
0.0
 30
0.0
 70
     1
  0
VERTEX
  8
0
 10
8.7425559004802
 20
63.5870631297602
 42
0.0
  0
VERTEX
  8
0
 10
8.8198647531093
 20
63.6655397898309
 42
0.0
  0
VERTEX
  8
0
 10
8.9199692069972
 20
63.8631328089376
 42
0.0
  0
VERTEX
  8
0
 10
9.0758014319947
 20
64.1674634281999
 42
0.0
  0
VERTEX
  8
0
 10
9.1632702093652
 20
64.7238068933441
 42
0.0
  0
VERTEX
  8
0
 10
9.0758014319947
 20
65.2801503584883
 42
0.0
  0
VERTEX
  8
0
 10
8.9199692069972
 20
65.5854152237038
 42
0.0
  0
VERTEX
  8
0
 10
8.869263007886
 20
65.685613102187
 42
0.0
  0
VERTEX
  8
0
 10
8.8198647531093
 20
65.7816068738806
 42
0.0
  0
VERTEX
  8
0
 10
8.4219694016317
 20
66.1795956499536
 42
0.0
  0
VERTEX
  8
0
 10
8.2179534415967
 20
66.2835305122496
 42
0.0
  0
VERTEX
  8
0
 10
7.9201625440069
 20
66.4355790411366
 42
0.0
  0
VERTEX
  8
0
 10
7.4868125586045
 20
66.5040125572102
 42
0.0
  0
VERTEX
  8
0
 10
7.3639125034581
 20
66.5245659681811
 42
0.0
  0
VERTEX
  8
0
 10
6.8076391067604
 20
66.4355790411366
 42
0.0
  0
VERTEX
  8
0
 10
6.5098482091706
 20
66.2835305122496
 42
0.0
  0
VERTEX
  8
0
 10
6.3058322491356
 20
66.1795956499536
 42
0.0
  0
VERTEX
  8
0
 10
5.9066756656211
 20
65.7816068738806
 42
0.0
  0
VERTEX
  8
0
 10
5.8585386428813
 20
65.685613102187
 42
0.0
  0
VERTEX
  8
0
 10
5.7989804633633
 20
65.5688323580341
 42
0.0
  0
VERTEX
  8
0
 10
5.6520002187726
 20
65.2801503584883
 42
0.0
  0
VERTEX
  8
0
 10
5.5632702093652
 20
64.7238068933441
 42
0.0
  0
VERTEX
  8
0
 10
5.6520002187726
 20
64.1674634281999
 42
0.0
  0
VERTEX
  8
0
 10
5.7989804633633
 20
63.8783143056774
 42
0.0
  0
VERTEX
  8
0
 10
5.8661293912512
 20
63.746585626273
 42
0.0
  0
VERTEX
  8
0
 10
5.9066756656211
 20
63.6655397898309
 42
0.0
  0
VERTEX
  8
0
 10
6.242490373507
 20
63.3310797385772
 42
0.0
  0
VERTEX
  8
0
 10
6.3058322491356
 20
63.267551013758
 42
0.0
  0
VERTEX
  8
0
 10
6.5288601143187
 20
63.1538065689531
 42
0.0
  0
VERTEX
  8
0
 10
6.8076391067604
 20
63.011567622575
 42
0.0
  0
VERTEX
  8
0
 10
7.3639125034581
 20
62.9244491874369
 42
0.0
  0
VERTEX
  8
0
 10
7.4868125586045
 20
62.9431341065014
 42
0.0
  0
VERTEX
  8
0
 10
7.9201625440069
 20
63.011567622575
 42
0.0
  0
VERTEX
  8
0
 10
8.1976803044118
 20
63.1538065689531
 42
0.0
  0
VERTEX
  8
0
 10
8.3294790522627
 20
63.2208387160969
 42
0.0
  0
VERTEX
  8
0
 10
8.4219694016317
 20
63.267551013758
 42
0.0
  0
SEQEND
  0
POLYLINE
  8
0
 66
     1
 10
0.0
 20
0.0
 30
0.0
 70
     1
  0
VERTEX
  8
0
 10
26.58237
 20
52.088288
 42
0.0
  0
VERTEX
  8
0
 10
26.156412
 20
52.92471
 42
0.0
  0
VERTEX
  8
0
 10
25.585928
 20
53.496972
 42
0.0
  0
VERTEX
  8
0
 10
25.494996
 20
53.589174
 42
0.0
  0
VERTEX
  8
0
 10
24.659971
 20
54.016402
 42
0.0
  0
VERTEX
  8
0
 10
24.6310404
 20
54.020466
 42
0.0
  0
VERTEX
  8
0
 10
23.7353602
 20
54.162452
 42
0.0
  0
VERTEX
  8
0
 10
22.8106732
 20
54.016402
 42
0.0
  0
VERTEX
  8
0
 10
21.9755974
 20
53.589174
 42
0.0
  0
VERTEX
  8
0
 10
21.8832684
 20
53.496972
 42
0.0
  0
VERTEX
  8
0
 10
21.312759
 20
52.92471
 42
0.0
  0
VERTEX
  8
0
 10
20.8882996
 20
52.088288
 42
0.0
  0
VERTEX
  8
0
 10
20.7408526
 20
51.160934
 42
0.0
  0
VERTEX
  8
0
 10
20.8882996
 20
50.23231
 42
0.0
  0
VERTEX
  8
0
 10
21.312759
 20
49.395888
 42
0.0
  0
VERTEX
  8
0
 10
21.9755974
 20
48.731678
 42
0.0
  0
VERTEX
  8
0
 10
22.8106732
 20
48.30445
 42
0.0
  0
VERTEX
  8
0
 10
23.7353602
 20
48.156876
 42
0.0
  0
VERTEX
  8
0
 10
23.8593376
 20
48.17745
 42
0.0
  0
VERTEX
  8
0
 10
24.6310404
 20
48.300132
 42
0.0
  0
VERTEX
  8
0
 10
24.659971
 20
48.30445
 42
0.0
  0
VERTEX
  8
0
 10
25.494996
 20
48.731678
 42
0.0
  0
VERTEX
  8
0
 10
26.156412
 20
49.395888
 42
0.0
  0
VERTEX
  8
0
 10
26.58237
 20
50.23231
 42
0.0
  0
VERTEX
  8
0
 10
26.72842
 20
51.160934
 42
0.0
  0
SEQEND
  0
POLYLINE
  8
0
 66
     1
 10
0.0
 20
0.0
 30
0.0
 70
     1
  0
VERTEX
  8
0
 10
27.4933620065131
 20
44.904651155688
 42
0.0
  0
VERTEX
  8
0
 10
27.7885741513165
 20
44.6094390108846
 42
0.0
  0
VERTEX
  8
0
 10
28.2904815082647
 20
44.3534639233019
 42
0.0
  0
VERTEX
  8
0
 10
28.8465733728035
 20
44.2649469906432
 42
0.0
  0
VERTEX
  8
0
 10
29.4043001147264
 20
44.3534639233019
 42
0.0
  0
VERTEX
  8
0
 10
29.9048061482024
 20
44.6094390108846
 42
0.0
  0
VERTEX
  8
0
 10
30.3025484603862
 20
45.0074148769803
 42
0.0
  0
VERTEX
  8
0
 10
30.4812172030876
 20
45.3570450832863
 42
0.0
  0
VERTEX
  8
0
 10
30.5585235479689
 20
45.5093222339286
 42
0.0
  0
VERTEX
  8
0
 10
30.6472740345395
 20
46.0651805445553
 42
0.0
  0
VERTEX
  8
0
 10
30.5585235479689
 20
46.621505963006
 42
0.0
  0
VERTEX
  8
0
 10
30.3025484603862
 20
47.1234133199543
 42
0.0
  0
VERTEX
  8
0
 10
29.9048061482024
 20
47.52138918605
 42
0.0
  0
VERTEX
  8
0
 10
29.4043001147264
 20
47.7773642736327
 42
0.0
  0
VERTEX
  8
0
 10
28.8465733728035
 20
47.8647134367312
 42
0.0
  0
VERTEX
  8
0
 10
28.2904815082647
 20
47.7773642736327
 42
0.0
  0
VERTEX
  8
0
 10
27.7885741513165
 20
47.52138918605
 42
0.0
  0
VERTEX
  8
0
 10
27.3908318391328
 20
47.1234133199543
 42
0.0
  0
VERTEX
  8
0
 10
27.13485675155
 20
46.621505963006
 42
0.0
  0
VERTEX
  8
0
 10
27.0472740345395
 20
46.0651805445553
 42
0.0
  0
VERTEX
  8
0
 10
27.13485675155
 20
45.5093222339286
 42
0.0
  0
VERTEX
  8
0
 10
27.2121630964313
 20
45.3570450832863
 42
0.0
  0
VERTEX
  8
0
 10
27.3908318391328
 20
45.0074148769803
 42
0.0
  0
SEQEND
  0
POLYLINE
  8
0
 66
     1
 10
0.0
 20
0.0
 30
0.0
 70
     1
  0
VERTEX
  8
0
 10
30.0302678599023
 20
24.8576474479077
 42
0.0
  0
VERTEX
  8
0
 10
30.1024383597888
 20
24.9298880162407
 42
0.0
  0
VERTEX
  8
0
 10
30.2101102058977
 20
25.0363219864616
 42
0.0
  0
VERTEX
  8
0
 10
30.3077389080095
 20
25.1351652083126
 42
0.0
  0
VERTEX
  8
0
 10
30.5637222991926
 20
25.6369720659374
 42
0.0
  0
VERTEX
  8
0
 10
30.6524756647487
 20
26.1933155310816
 42
0.0
  0
VERTEX
  8
0
 10
30.5637222991926
 20
26.7494254347375
 42
0.0
  0
VERTEX
  8
0
 10
30.3077389080095
 20
27.2513490731064
 42
0.0
  0
VERTEX
  8
0
 10
29.9099836934249
 20
27.649104287691
 42
0.0
  0
VERTEX
  8
0
 10
29.4094614239858
 20
27.9050876788741
 42
0.0
  0
VERTEX
  8
0
 10
28.8517165899117
 20
27.9926732369887
 42
0.0
  0
VERTEX
  8
0
 10
28.2956066862559
 20
27.9050876788741
 42
0.0
  0
VERTEX
  8
0
 10
28.0370541187014
 20
27.7721911920282
 42
0.0
  0
VERTEX
  8
0
 10
27.7936830478869
 20
27.649104287691
 42
0.0
  0
VERTEX
  8
0
 10
27.3959278333023
 20
27.2513490731064
 42
0.0
  0
VERTEX
  8
0
 10
27.1399444421192
 20
26.7494254347375
 42
0.0
  0
VERTEX
  8
0
 10
27.0523588840046
 20
26.1933155310816
 42
0.0
  0
VERTEX
  8
0
 10
27.1399444421192
 20
25.6369720659374
 42
0.0
  0
VERTEX
  8
0
 10
27.3959278333023
 20
25.1351652083126
 42
0.0
  0
VERTEX
  8
0
 10
27.4440414998933
 20
25.0857669535359
 42
0.0
  0
VERTEX
  8
0
 10
27.4554860128202
 20
25.0756070287946
 42
0.0
  0
VERTEX
  8
0
 10
27.7936830478869
 20
24.737269856835
 42
0.0
  0
VERTEX
  8
0
 10
28.2956066862559
 20
24.4813331779496
 42
0.0
  0
VERTEX
  8
0
 10
28.8517165899117
 20
24.3926031685422
 42
0.0
  0
VERTEX
  8
0
 10
29.4094614239858
 20
24.4813331779496
 42
0.0
  0
VERTEX
  8
0
 10
29.9099836934249
 20
24.737269856835
 42
0.0
  0
SEQEND
  0
POLYLINE
  8
0
 66
     1
 10
0.0
 20
0.0
 30
0.0
 70
     1
  0
VERTEX
  8
0
 10
26.659586
 20
20.76704
 42
0.0
  0
VERTEX
  8
0
 10
26.72842
 20
21.2024976
 42
0.0
  0
VERTEX
  8
0
 10
26.59761
 20
22.0293184
 42
0.0
  0
VERTEX
  8
0
 10
26.58237
 20
22.1299278
 42
0.0
  0
VERTEX
  8
0
 10
26.156412
 20
22.9677722
 42
0.0
  0
VERTEX
  8
0
 10
25.494996
 20
23.6319822
 42
0.0
  0
VERTEX
  8
0
 10
24.659971
 20
24.0577878
 42
0.0
  0
VERTEX
  8
0
 10
24.6310404
 20
24.0619026
 42
0.0
  0
VERTEX
  8
0
 10
23.9062006
 20
24.1777012
 42
0.0
  0
VERTEX
  8
0
 10
23.7353602
 20
24.2038632
 42
0.0
  0
VERTEX
  8
0
 10
22.8106732
 20
24.0577878
 42
0.0
  0
VERTEX
  8
0
 10
21.9755974
 20
23.6319822
 42
0.0
  0
VERTEX
  8
0
 10
21.312759
 20
22.9677722
 42
0.0
  0
VERTEX
  8
0
 10
20.8882996
 20
22.1299278
 42
0.0
  0
VERTEX
  8
0
 10
20.8717896
 20
22.0293184
 42
0.0
  0
VERTEX
  8
0
 10
20.7408526
 20
21.2024976
 42
0.0
  0
VERTEX
  8
0
 10
20.8152746
 20
20.729829
 42
0.0
  0
VERTEX
  8
0
 10
20.8882996
 20
20.2750928
 42
0.0
  0
VERTEX
  8
0
 10
21.312759
 20
19.4372484
 42
0.0
  0
VERTEX
  8
0
 10
21.9755974
 20
18.7729876
 42
0.0
  0
VERTEX
  8
0
 10
22.8106732
 20
18.3458104
 42
0.0
  0
VERTEX
  8
0
 10
23.7353602
 20
18.199735
 42
0.0
  0
VERTEX
  8
0
 10
24.6310404
 20
18.3416956
 42
0.0
  0
VERTEX
  8
0
 10
24.659971
 20
18.3458104
 42
0.0
  0
VERTEX
  8
0
 10
25.494996
 20
18.7729876
 42
0.0
  0
VERTEX
  8
0
 10
26.156412
 20
19.4372484
 42
0.0
  0
VERTEX
  8
0
 10
26.58237
 20
20.2750928
 42
0.0
  0
VERTEX
  8
0
 10
26.653998
 20
20.729829
 42
0.0
  0
SEQEND
  0
POLYLINE
  8
0
 66
     1
 10
0.0
 20
0.0
 30
0.0
 70
     1
  0
VERTEX
  8
0
 10
8.4919224910582
 20
6.2414088924791
 42
0.0
  0
VERTEX
  8
0
 10
8.7744851796105
 20
6.5239949371801
 42
0.0
  0
VERTEX
  8
0
 10
8.889794486387
 20
6.6405654759935
 42
0.0
  0
VERTEX
  8
0
 10
8.9493526659049
 20
6.7558981389189
 42
0.0
  0
VERTEX
  8
0
 10
9.1457545214212
 20
7.1411111015815
 42
0.0
  0
VERTEX
  8
0
 10
9.2344378185309
 20
7.6973844982792
 42
0.0
  0
VERTEX
  8
0
 10
9.1457545214212
 20
8.2536812511257
 42
0.0
  0
VERTEX
  8
0
 10
9.0900033941626
 20
8.3626376854203
 42
0.0
  0
VERTEX
  8
0
 10
8.9493526659049
 20
8.6401554458252
 42
0.0
  0
VERTEX
  8
0
 10
8.889794486387
 20
8.7554413964529
 42
0.0
  0
VERTEX
  8
0
 10
8.4919224910582
 20
9.1533367479305
 42
0.0
  0
VERTEX
  8
0
 10
8.4095453541328
 20
9.1964288425229
 42
0.0
  0
VERTEX
  8
0
 10
7.9901156334334
 20
9.4093201391135
 42
0.0
  0
VERTEX
  8
0
 10
7.4857863117349
 20
9.4891280996676
 42
0.0
  0
VERTEX
  8
0
 10
7.4338422367357
 20
9.4980034362232
 42
0.0
  0
VERTEX
  8
0
 10
6.8775454838892
 20
9.4093201391135
 42
0.0
  0
VERTEX
  8
0
 10
6.4593769952266
 20
9.1964288425229
 42
0.0
  0
VERTEX
  8
0
 10
6.449263782783
 20
9.1913605582266
 42
0.0
  0
VERTEX
  8
0
 10
6.3757619824132
 20
9.1533367479305
 42
0.0
  0
VERTEX
  8
0
 10
5.9778899870844
 20
8.7554413964529
 42
0.0
  0
VERTEX
  8
0
 10
5.8258181020486
 20
8.4576738550119
 42
0.0
  0
VERTEX
  8
0
 10
5.7776810793088
 20
8.3626376854203
 42
0.0
  0
VERTEX
  8
0
 10
5.7219065959014
 20
8.2536812511257
 42
0.0
  0
VERTEX
  8
0
 10
5.6344845308285
 20
7.6973844982792
 42
0.0
  0
VERTEX
  8
0
 10
5.7219065959014
 20
7.1411111015815
 42
0.0
  0
VERTEX
  8
0
 10
5.8258181020486
 20
6.9370951415464
 42
0.0
  0
VERTEX
  8
0
 10
5.9778899870844
 20
6.6405654759935
 42
0.0
  0
VERTEX
  8
0
 10
6.0272882418611
 20
6.5911672212169
 42
0.0
  0
VERTEX
  8
0
 10
6.3757619824132
 20
6.2414088924791
 42
0.0
  0
VERTEX
  8
0
 10
6.4175694888199
 20
6.2198745232573
 42
0.0
  0
VERTEX
  8
0
 10
6.7229511347796
 20
6.0640422982597
 42
0.0
  0
VERTEX
  8
0
 10
6.8775454838892
 20
5.9854722135937
 42
0.0
  0
VERTEX
  8
0
 10
7.4338422367357
 20
5.8980034362232
 42
0.0
  0
VERTEX
  8
0
 10
7.4857863117349
 20
5.9056408968908
 42
0.0
  0
VERTEX
  8
0
 10
7.9901156334334
 20
5.9854722135937
 42
0.0
  0
VERTEX
  8
0
 10
8.1130390447287
 20
6.0475528571853
 42
0.0
  0
VERTEX
  8
0
 10
8.1459945707286
 20
6.0640422982597
 42
0.0
  0
VERTEX
  8
0
 10
8.3829193444659
 20
6.1856811213693
 42
0.0
  0
SEQEND
  0
POLYLINE
  8
0
 66
     1
 10
0.0
 20
0.0
 30
0.0
 70
     1
  0
VERTEX
  8
0
 10
56.791606
 20
35.02279
 42
0.0
  0
VERTEX
  8
0
 10
53.379878
 20
35.02279
 42
0.0
  0
VERTEX
  8
0
 10
53.379878
 20
33.518094
 42
0.0
  0
VERTEX
  8
0
 10
58.135266
 20
33.518094
 42
0.0
  0
VERTEX
  8
0
 10
58.135266
 20
35.02279
 42
0.0
  0
SEQEND
  0
POLYLINE
  8
0
 66
     1
 10
0.0
 20
0.0
 30
0.0
 70
     1
  0
VERTEX
  8
0
 10
23.6953806
 20
33.518094
 42
0.0
  0
VERTEX
  8
0
 10
24.1349784
 20
33.518094
 42
0.0
  0
VERTEX
  8
0
 10
24.1349784
 20
35.02279
 42
0.0
  0
VERTEX
  8
0
 10
19.3793618
 20
35.02279
 42
0.0
  0
VERTEX
  8
0
 10
19.3793618
 20
33.518094
 42
0.0
  0
SEQEND
  0
ENDSEC
  0
EOF
