0
SECTION
2
HEADER
9
$INSUNITS
70
4
9
$ACADVER
1
AC1014
9
$HANDSEED
5
FFFF
0
ENDSEC
0
SECTION
2
TABLES
0
TABLE
2
VPORT
5
8
100
AcDbSymbolTable
0
ENDTAB
0
TABLE
2
LTYPE
5
5
100
AcDbSymbolTable
0
LTYPE
5
14
100
AcDbSymbolTableRecord
100
AcDbLinetypeTableRecord
2
BYBLOCK
70
0
0
LTYPE
5
15
100
AcDbSymbolTableRecord
100
AcDbLinetypeTableRecord
2
BYLAYER
70
0
0
LTYPE
5
16
100
AcDbSymbolTableRecord
100
AcDbLinetypeTableRecord
2
DASHED
70
0
3
Dashed __ __ __ __ __ __ __ __ __ __ __ __ __ _
72
65
73
2
40
0.75
49
0.5
74
0
49
-0.25
74
0
0
ENDTAB
0
TABLE
2
LAYER
5
2
100
AcDbSymbolTable
70
2
0
LAYER
5
50
100
AcDbSymbolTableRecord
100
AcDbLayerTableRecord
2
0
70
0
62
7
6
CONTINUOUS
0
ENDTAB
0
TABLE
2
STYLE
5
3
100
AcDbSymbolTable
70
1
0
STYLE
5
11
100
AcDbSymbolTableRecord
100
AcDbTextStyleTableRecord
2
STANDARD
70
0
0
ENDTAB
0
TABLE
2
VIEW
5
6
100
AcDbSymbolTable
70
0
0
ENDTAB
0
TABLE
2
UCS
5
7
100
AcDbSymbolTable
70
0
0
ENDTAB
0
TABLE
2
APPID
5
9
100
AcDbSymbolTable
70
2
0
APPID
5
12
100
AcDbSymbolTableRecord
100
AcDbRegAppTableRecord
2
ACAD
70
0
0
ENDTAB
0
TABLE
2
DIMSTYLE
5
A
100
AcDbSymbolTable
70
1
0
ENDTAB
0
TABLE
2
BLOCK_RECORD
5
1
100
AcDbSymbolTable
70
1
0
BLOCK_RECORD
5
1F
100
AcDbSymbolTableRecord
100
AcDbBlockTableRecord
2
*MODEL_SPACE
0
BLOCK_RECORD
5
1B
100
AcDbSymbolTableRecord
100
AcDbBlockTableRecord
2
*PAPER_SPACE
0
ENDTAB
0
ENDSEC
0
SECTION
2
BLOCKS
0
BLOCK
5
20
100
AcDbEntity
100
AcDbBlockBegin
2
*MODEL_SPACE
0
ENDBLK
5
21
100
AcDbEntity
100
AcDbBlockEnd
0
BLOCK
5
1C
100
AcDbEntity
100
AcDbBlockBegin
2
*PAPER_SPACE
0
ENDBLK
5
1D
100
AcDbEntity
100
AcDbBlockEnd
0
ENDSEC
0
SECTION
2
ENTITIES
0
CIRCLE
5
100
100
AcDbEntity
8
0
100
AcDbCircle
10
35.210788892214495
20
-80.704820104510077
30
0
40
1.5999999999998238
210
0
220
0
230
1
0
LWPOLYLINE
5
101
100
AcDbEntity
8
0
100
AcDbPolyline
90
82
70
1
43
0.0
10
-17.762702553090648
20
-111.06579252423799
42
0.22123539220546565
10
-19.001869105458304
20
-110.48928006872201
10
-30.404195001376557
20
-110.48928006872195
42
0.22123539220546737
10
-31.643361553744256
20
-111.06579252423798
42
-0.47622822645699936
10
-37.853388110657633
20
-110.95408365371819
42
0.21009658475449328
10
-39.002165843247418
20
-110.33732402735117
10
-51.051507608706324
20
-109.38892465772881
42
-0.39139018202967646
10
-54.369026562945173
20
-105.80002448374992
10
-54.369026562945173
20
-91.17853565369407
42
-0.39139018202967646
10
-51.051507608706324
20
-87.589635479715184
10
-39.002165843247525
20
-86.641236110092819
42
0.21009658475451362
10
-37.853388110657733
20
-86.024476483725749
42
-0.47622822645702495
10
-31.643361553744143
20
-85.912767613205986
42
0.22123539220547817
10
-30.404195001376451
20
-86.489280068722039
10
-19.001869105458518
20
-86.489280068721982
42
0.22123539220545058
10
-17.762702553090847
20
-85.912767613205972
42
-0.44896039804085941
10
-11.786531397308302
20
-85.751758576036465
42
0.23706271571869109
10
-10.421035382232091
20
-86.252543227586727
10
-7.0989786186956216
20
-85.87211057173802
42
0.025920561921403979
10
-6.7770772844903284
20
-85.818228286006672
42
-0.00069368689155305599
10
-6.7696693653194551
20
-85.820807855542327
42
0.21165902030863057
10
-6.3658208103995406
20
-85.788151388611766
42
0.27509331195346276
10
-3.3481138037990954
20
-80.708363448082693
42
-0.81497776278951728
10
6.251277075083034
20
-78.723564263380212
42
0.021938736691493609
10
6.4504261498716176
20
-79.16209656315749
42
0.20958424939964346
10
8.9330497386727981
20
-81.200507365065363
42
0.0086058892619371111
10
13.971855454304672
20
-82.525080337017556
42
-0.040954859632564067
10
14.825205560252215
20
-82.809493028673486
42
0.20249832440111057
10
21.976840294949653
20
-82.837651195051762
42
-0.044171865798807795
10
22.894981010246838
20
-82.525078624240933
42
0.0086058773288502262
10
27.933779707580371
20
-81.200507365065263
42
0.20958424940041495
10
30.416403296363193
20
-79.162096563157291
42
0.021938736691844096
10
30.61555237117016
20
-78.723564263380041
42
-0.81497776278951706
10
40.214943250052372
20
-80.708363448082409
42
0.098690624950160136
10
40.654441151078622
20
-82.923305465488596
42
0.49006670714129114
10
43.124473649827209
20
-83.598493878360671
42
-0.50336862623677059
10
49.28525081919949
20
-85.424692701698405
42
0.31505682822964975
10
50.807064476363415
20
-86.48928006872228
10
58.589006686624963
20
-86.489280068722096
42
0.41803364787787972
10
60.208869272614521
20
-84.848180246182267
42
-0.82707785784590993
10
67.907440358721672
20
-83.273563609994795
42
0.43394983875465909
10
70.120900535613387
20
-84.110422532845845
42
0.015752795902366157
10
73.753151827907473
20
-82.178195290441082
42
-0.13982771197202834
10
75.051384603026293
20
-81.856999206963721
42
-0.13139919777520109
10
76.140904572031843
20
-82.189991183480345
10
78.572236575061282
20
-83.707267600609441
42
-0.12502750314398489
10
79.108838400941849
20
-84.267210663805344
42
-0.12955539731069154
10
79.368598883929849
20
-85.252891354203683
10
79.368598883930417
20
-86.254485521990233
42
-0.34937131028828416
10
77.429624507429708
20
-88.690722425451
42
0.79588909179868816
10
77.429624507446391
20
-108.28783771192077
42
-0.3493713102927874
10
79.368598884004754
20
-110.72407461549419
10
79.368598883929863
20
-111.72566878328047
42
-0.12955539730558616
10
79.108838400941877
20
-112.71134947363865
42
-0.12502750314398559
10
78.572236575061282
20
-113.27129253683455
10
76.140904572031843
20
-114.78856895396365
42
-0.13139919777520109
10
75.051384603026293
20
-115.12156093048026
42
-0.13982771197202676
10
73.753151827907487
20
-114.80036484700291
42
0.015752795902366157
10
70.120900535613416
20
-112.86813760459819
42
0.43394983875465953
10
67.907440358721729
20
-113.70499652744923
42
-0.82707785784590437
10
60.208869272614493
20
-112.13037989126185
42
0.418033647877883
10
58.589006686624941
20
-110.48928006872204
10
50.807064476363308
20
-110.48928006872197
42
0.31505682822962955
10
49.285250819199433
20
-111.5538674357458
42
-0.5033686262367163
10
43.124473649827628
20
-113.38006625908366
42
0.49006670714129996
10
40.654441151079084
20
-114.05525467195608
42
0.098654007283861964
10
40.214942586650018
20
-116.26935884360229
42
-0.81504742396732088
10
30.615552371170338
20
-118.25499587406364
42
0.021938736691853287
10
30.416403296363335
20
-117.8164635742864
42
0.20958424939773942
10
27.933779707575965
20
-115.7780527723946
42
0.0086058773288760354
10
22.894981010246891
20
-114.45348151320337
42
-0.044165257355422781
10
21.976972998348394
20
-114.14096763306861
42
0.20250680114188188
10
14.825063650880441
20
-114.16912769989739
42
-0.040947834077213502
10
13.971855453477815
20
-114.45347979704681
42
0.0086058892619403377
10
8.9330497386729668
20
-115.77805277237857
42
0.20958424939910592
10
6.4504261498901805
20
-117.81646357428647
42
0.021938736691882756
10
6.251277075083209
20
-118.2549958740637
42
-0.81497776278951817
10
-3.3481138037989657
20
-116.2701966893613
42
0.22468075200981089
10
-5.4580649087935207
20
-111.80180234303376
42
0.14439055946031382
10
-7.0989786186956394
20
-111.10644956570597
10
-10.421035382232304
20
-110.72601690985724
42
0.23706271571866916
10
-11.786531397308481
20
-111.22680156140746
42
-0.44896039804082699
0
LWPOLYLINE
5
102
100
AcDbEntity
8
0
100
AcDbPolyline
90
12
70
1
43
0.0
10
-8.2510135890478864
20
-101.18959637605204
42
0.18053435418556235
10
-7.3639886258279397
20
-101.74961521610797
10
-4.0157152407671681
20
-102.449033488493
42
0.27965945626542066
10
-2.5482778677270801
20
-101.93084202200225
10
-0.50889284752610564
20
-99.439396047621372
42
0.35708929890403279
10
-0.5088928475261234
20
-97.539164089822464
10
-2.5482778677271867
20
-95.047718115441569
42
0.27965945626541583
10
-4.0157152407672925
20
-94.529526648950849
10
-7.3639886258280285
20
-95.228944921335952
42
0.18053435418553718
10
-8.2510135890479752
20
-95.788963761391912
10
-9.6145268092458203
20
-97.580991463387718
42
0.33718513384245608
10
-9.6145268092458203
20
-99.397568674056274
0
LWPOLYLINE
5
103
100
AcDbEntity
8
0
100
AcDbPolyline
90
4
70
1
43
0.0
10
1.6493837157044489
20
-105.00000186264515
42
0.99999999999999989
10
4.649383715704456
20
-105.00000186264515
10
4.649383715704456
20
-91.979798939175339
42
0.99999999999999989
10
1.6493837157044489
20
-91.979798939175339
0
LWPOLYLINE
5
104
100
AcDbEntity
8
0
100
AcDbPolyline
90
8
70
1
43
0.0
10
-13.645111718618708
20
-96.989280068721911
42
0.70793767848198286
10
-12.704888988863452
20
-94.320528076872648
10
-14.312096767899725
20
-93.027582014895543
42
0.17100291491760153
10
-15.25231949765498
20
-92.696334006744792
10
-44.115402417020242
20
-92.69633400674492
42
0.30140302467178265
10
-45.036532547556902
20
-93.307079228203222
10
-46.005494675679763
20
-95.600025290180298
42
0.53680294427194941
10
-45.084364545143174
20
-96.989280068721925
0
LWPOLYLINE
5
105
100
AcDbEntity
8
0
100
AcDbPolyline
90
4
70
1
43
0.0
10
59.058496304037732
20
-104.56781316055955
10
48.555392469478292
20
-104.57169830231344
42
-0.99999999999999989
10
48.553844103073573
20
-100.38583993390236
10
59.056947937633012
20
-100.38195479214849
42
-0.99999999999999989
0
CIRCLE
5
106
100
AcDbEntity
8
0
100
AcDbCircle
10
-14.703032053417502
20
-88.489280068721911
30
0
40
2.2499999999999787
210
0
220
0
230
1
0
LWPOLYLINE
5
107
100
AcDbEntity
8
0
100
AcDbPolyline
90
4
70
1
43
0.0
10
59.056245166851156
20
-96.582209396114223
10
48.553140613726704
20
-96.582209396114266
42
-0.99999999999999989
10
48.553140613726704
20
-92.396350741329499
10
59.05624516685112
20
-92.396350741329556
42
-0.99999999999999989
0
LWPOLYLINE
5
108
100
AcDbEntity
8
0
100
AcDbPolyline
90
8
70
1
43
0.0
10
-45.084364545143707
20
-99.989280068721911
10
-13.645111718618139
20
-99.989280068721911
42
-0.70793767848195466
10
-12.704888988862848
20
-102.65803206057114
10
-14.312096767899476
20
-103.95097812254859
42
-0.17100291491755984
10
-15.252319497654732
20
-104.28222613069936
10
-44.115402417020135
20
-104.2822261306995
42
-0.30140302467176106
10
-45.03653254755676
20
-103.6714809092413
10
-46.005494675680197
20
-101.37853484726362
42
-0.53680294427199515
0
LWPOLYLINE
5
109
100
AcDbEntity
8
0
100
AcDbPolyline
90
4
70
1
43
0.0
10
35.217445730548903
20
-91.979798939175055
42
0.99999999999999989
10
32.217445730548903
20
-91.979798939175126
10
32.217445730549116
20
-105.00000186264492
42
0.99999999999999989
10
35.217445730549116
20
-105.00000186264488
0
CIRCLE
5
110
100
AcDbEntity
8
0
100
AcDbCircle
10
-50.769026562945179
20
-105.80002448374992
30
0
40
1.6000000000000014
210
0
220
0
230
1
0
CIRCLE
5
111
100
AcDbEntity
8
0
100
AcDbCircle
10
45.527686233609629
20
-86.79608191892342
30
0
40
2.2499999999999964
210
0
220
0
230
1
0
CIRCLE
5
112
100
AcDbEntity
8
0
100
AcDbCircle
10
41.521722993787762
20
-89.274950380660769
30
0
40
1.6000000000000014
210
0
220
0
230
1
0
CIRCLE
5
113
100
AcDbEntity
8
0
100
AcDbCircle
10
8.5371797615353451
20
-88.489280068721911
30
0
40
1.1500000000000021
210
0
220
0
230
1
0
CIRCLE
5
114
100
AcDbEntity
8
0
100
AcDbCircle
10
28.537179761535345
20
-108.48928006872191
30
0
40
1.1500000000000021
210
0
220
0
230
1
0
CIRCLE
5
115
100
AcDbEntity
8
0
100
AcDbCircle
10
1.6560405540388956
20
-116.27374003293367
30
0
40
1.6000000000000014
210
0
220
0
230
1
0
CIRCLE
5
116
100
AcDbEntity
8
0
100
AcDbCircle
10
45.527686233609629
20
-110.1824782185206
30
0
40
2.2499999999999964
210
0
220
0
230
1
0
CIRCLE
5
117
100
AcDbEntity
8
0
100
AcDbCircle
10
8.5371797615353451
20
-108.48928006872191
30
0
40
1.1500000000000021
210
0
220
0
230
1
0
CIRCLE
5
118
100
AcDbEntity
8
0
100
AcDbCircle
10
28.537179761535345
20
-88.489280068721911
30
0
40
1.1500000000000021
210
0
220
0
230
1
0
CIRCLE
5
119
100
AcDbEntity
8
0
100
AcDbCircle
10
41.521722993787691
20
-107.70360975678324
30
0
40
1.6000000000000014
210
0
220
0
230
1
0
CIRCLE
5
120
100
AcDbEntity
8
0
100
AcDbCircle
10
35.210788892214637
20
-116.2737400329336
30
0
40
1.6000000000000014
210
0
220
0
230
1
0
CIRCLE
5
121
100
AcDbEntity
8
0
100
AcDbCircle
10
1.6560405540387535
20
-80.70482010451029
30
0
40
1.6000000000000014
210
0
220
0
230
1
0
CIRCLE
5
122
100
AcDbEntity
8
0
100
AcDbCircle
10
-14.703032053417502
20
-108.48928006872191
30
0
40
2.2500000000000142
210
0
220
0
230
1
0
CIRCLE
5
123
100
AcDbEntity
8
0
100
AcDbCircle
10
74.99999888241291
20
-84.97855824499652
30
0
40
1.6000000000000014
210
0
220
0
230
1
0
CIRCLE
5
124
100
AcDbEntity
8
0
100
AcDbCircle
10
64.208529978761547
20
-84.79608191892342
30
0
40
2.2499999999999964
210
0
220
0
230
1
0
CIRCLE
5
125
100
AcDbEntity
8
0
100
AcDbCircle
10
74.99999888241291
20
-112.00000189244747
30
0
40
1.6000000000000014
210
0
220
0
230
1
0
CIRCLE
5
126
100
AcDbEntity
8
0
100
AcDbCircle
10
64.208529978761547
20
-112.1824782185206
30
0
40
2.2499999999999964
210
0
220
0
230
1
0
CIRCLE
5
127
100
AcDbEntity
8
0
100
AcDbCircle
10
-34.703032053417502
20
-88.489280068721911
30
0
40
2.2500000000000142
210
0
220
0
230
1
0
CIRCLE
5
128
100
AcDbEntity
8
0
100
AcDbCircle
10
-34.703032053417502
20
-108.48928006872191
30
0
40
2.2500000000000142
210
0
220
0
230
1
0
CIRCLE
5
129
100
AcDbEntity
8
0
100
AcDbCircle
10
-50.769026562945179
20
-91.17853565369407
30
0
40
1.6000000000000014
210
0
220
0
230
1
0
ENDSEC
0
SECTION
2
OBJECTS
0
DICTIONARY
5
C
100
AcDbDictionary
3
ACAD_GROUP
350
D
3
ACAD_MLINESTYLE
350
17
0
DICTIONARY
5
D
100
AcDbDictionary
0
DICTIONARY
5
1A
330
C
100
AcDbDictionary
0
DICTIONARY
5
17
100
AcDbDictionary
0
ENDSEC
0
EOF
