0
SECTION
2
HEADER
9
$INSUNITS
70
4
9
$ACADVER
1
AC1014
9
$HANDSEED
5
FFFF
0
ENDSEC
0
SECTION
2
TABLES
0
TABLE
2
VPORT
5
8
100
AcDbSymbolTable
0
ENDTAB
0
TABLE
2
LTYPE
5
5
100
AcDbSymbolTable
0
LTYPE
5
14
100
AcDbSymbolTableRecord
100
AcDbLinetypeTableRecord
2
BYBLOCK
70
0
0
LTYPE
5
15
100
AcDbSymbolTableRecord
100
AcDbLinetypeTableRecord
2
BYLAYER
70
0
0
LTYPE
5
16
100
AcDbSymbolTableRecord
100
AcDbLinetypeTableRecord
2
DASHED
70
0
3
Dashed __ __ __ __ __ __ __ __ __ __ __ __ __ _
72
65
73
2
40
0.75
49
0.5
74
0
49
-0.25
74
0
0
ENDTAB
0
TABLE
2
LAYER
5
2
100
AcDbSymbolTable
70
2
0
LAYER
5
50
100
AcDbSymbolTableRecord
100
AcDbLayerTableRecord
2
0
70
0
62
7
6
CONTINUOUS
0
ENDTAB
0
TABLE
2
STYLE
5
3
100
AcDbSymbolTable
70
1
0
STYLE
5
11
100
AcDbSymbolTableRecord
100
AcDbTextStyleTableRecord
2
STANDARD
70
0
0
ENDTAB
0
TABLE
2
VIEW
5
6
100
AcDbSymbolTable
70
0
0
ENDTAB
0
TABLE
2
UCS
5
7
100
AcDbSymbolTable
70
0
0
ENDTAB
0
TABLE
2
APPID
5
9
100
AcDbSymbolTable
70
2
0
APPID
5
12
100
AcDbSymbolTableRecord
100
AcDbRegAppTableRecord
2
ACAD
70
0
0
ENDTAB
0
TABLE
2
DIMSTYLE
5
A
100
AcDbSymbolTable
70
1
0
ENDTAB
0
TABLE
2
BLOCK_RECORD
5
1
100
AcDbSymbolTable
70
1
0
BLOCK_RECORD
5
1F
100
AcDbSymbolTableRecord
100
AcDbBlockTableRecord
2
*MODEL_SPACE
0
BLOCK_RECORD
5
1B
100
AcDbSymbolTableRecord
100
AcDbBlockTableRecord
2
*PAPER_SPACE
0
ENDTAB
0
ENDSEC
0
SECTION
2
BLOCKS
0
BLOCK
5
20
100
AcDbEntity
100
AcDbBlockBegin
2
*MODEL_SPACE
0
ENDBLK
5
21
100
AcDbEntity
100
AcDbBlockEnd
0
BLOCK
5
1C
100
AcDbEntity
100
AcDbBlockBegin
2
*PAPER_SPACE
0
ENDBLK
5
1D
100
AcDbEntity
100
AcDbBlockEnd
0
ENDSEC
0
SECTION
2
ENTITIES
0
LWPOLYLINE
5
100
100
AcDbEntity
8
0
100
AcDbPolyline
90
63
70
1
43
0.0
10
139.85270730907547
20
-108.97229127382177
42
0.14439055946031235
10
138.21179359917335
20
-108.276938496494
10
133.49533510719826
20
-107.73682285187382
42
0.19359472194558494
10
132.41582553848156
20
-108.03377103437501
42
-0.34425193969683171
10
128.74230183052927
20
-107.98897448715125
42
0.1704432336621208
10
127.80462373553583
20
-107.65976899951002
10
113.59270247577132
20
-107.65976899950998
42
0.17839312072501121
10
112.61934520034092
20
-108.01846465168387
42
-0.37306904945503777
10
108.55861226487033
20
-107.98594071526048
42
0.16230686219073312
10
107.68479920080676
20
-107.61613260200342
10
94.259264609162727
20
-106.55941358851685
42
-0.39139018202967635
10
90.941745654923878
20
-102.97051341453796
10
90.941745654923878
20
-88.349024584482123
42
-0.39139018202967646
10
94.259264609162727
20
-84.760124410503238
10
107.68479920080676
20
-83.703405397016653
42
0.16230686219073312
10
108.55861226487033
20
-83.333597283759602
42
-0.37306904945505914
10
112.61934520034092
20
-83.3010733473362
42
0.17839312072501121
10
113.59270247577132
20
-83.659768999510106
10
127.80462373553583
20
-83.65976899951005
42
0.1704432336621256
10
128.7423018305293
20
-83.330563511868817
42
-0.34425193969685058
10
132.41582553848156
20
-83.285766964645092
42
0.19359472194558275
10
133.49533510719826
20
-83.582715147146274
10
138.21179359917335
20
-83.042599502526073
42
0.14439055946031235
10
139.85270730907547
20
-82.347246725198303
42
0.22468075200980248
10
141.96265841406989
20
-77.878852378870747
42
-0.8149777627895185
10
151.562049292952
20
-75.894053194168279
42
0.021938736691493294
10
151.76119836774058
20
-76.332585493945558
42
0.20958424939964374
10
154.24382195654175
20
-78.370996295853402
42
0.0086058892619363062
10
159.28262767134706
20
-79.695569271185406
42
-0.040954859632575856
10
160.135977776755
20
-79.979981962661526
42
-0.89032617747181808
10
167.28761251281864
20
-80.008140125839802
42
-0.044171865798806678
10
168.20575322811578
20
-79.695567555028987
42
0.0086058773288526461
10
173.24455192545028
20
-78.370996295853033
42
0.2095842494003477
10
175.7271755142321
20
-76.332585493945373
42
0.021938736691844096
10
175.92632458903915
20
-75.894053194168151
42
-0.81497776278952117
10
185.52571546792126
20
-77.878852378870477
42
-0.16393124371276502
10
184.52639843615907
20
-80.836474915300172
42
-0.079167922515804942
10
183.40115781858083
20
-81.933402656111014
42
0.13420251170363096
10
181.55654918158808
20
-84.17141581772718
42
0.018514311373328735
10
180.86061013419095
20
-85.886384431876138
42
-0.054851300159873384
10
180.31247936955617
20
-86.998112889171381
42
0.15321603463320191
10
179.62599336172013
20
-89.541860110669603
42
0.21096471950036458
10
181.27564055895584
20
-92.902605370071726
42
0.00015845135290317415
10
181.27505624185258
20
-92.90335531618004
42
-0.4660522343549805
10
181.27564055895576
20
-98.416932628948132
42
0.21096471950042248
10
179.62599336172013
20
-101.77767788835142
42
0.15321603463318356
10
180.31247936955629
20
-104.32142510984839
42
-0.054851300159875833
10
180.86061013419112
20
-105.43315356714371
42
0.018514311373338116
10
181.55654918158817
20
-107.14812218129256
42
0.1342025117036254
10
183.40115781858094
20
-109.38613534290873
42
-0.07916792251580472
10
184.52639854112928
20
-110.483063003787
42
-0.16388724844231295
10
185.52571480451894
20
-113.43984777439032
42
-0.81504742396732088
10
175.92632458903927
20
-115.42548480485166
42
0.021938736691851701
10
175.72717551423227
20
-114.98695250507444
42
0.20958424939773984
10
173.24455192544491
20
-112.94854170318261
42
0.0086058773288760354
10
168.20575322811584
20
-111.62397044399141
42
-0.044165257355425119
10
167.2877452162173
20
-111.31145656385664
42
-0.8906222587930327
10
160.13583586874938
20
-111.33961663068541
42
-0.040947834077212614
10
159.28262767134675
20
-111.62396872783482
42
0.0086058892619395311
10
154.24382195654192
20
-112.9485417031666
42
0.20958424939910647
10
151.76119836775914
20
-114.9869525050745
42
0.021938736691881806
10
151.56204929295217
20
-115.42548480485169
42
-0.81497776278952028
10
141.96265841407001
20
-113.44068562014932
42
0.22468075200981089
0
CIRCLE
5
101
100
AcDbEntity
8
0
100
AcDbCircle
10
153.84795197940431
20
-105.65976899950994
30
0
40
1.1500000000000021
210
0
220
0
230
1
0
LWPOLYLINE
5
102
100
AcDbEntity
8
0
100
AcDbPolyline
90
4
70
1
43
0.0
10
150.96015593357345
20
-97.260389331698292
10
148.46015593357339
20
-97.260389331698264
42
-0.99999999999999989
10
148.46015593357345
20
-94.060389331698303
10
150.96015593357345
20
-94.060389331698275
42
-0.99999999999999989
0
LWPOLYLINE
5
103
100
AcDbEntity
8
0
100
AcDbPolyline
90
8
70
1
43
0.0
10
131.66566049925027
20
-94.159768999509936
10
100.22640767272584
20
-94.159768999509978
42
-0.53680294427194941
10
99.305277542189259
20
-92.770514220968337
10
100.27423967031211
20
-90.477568158991275
42
-0.30140302467178715
10
101.19536980084877
20
-89.866822937532973
10
130.05845272021401
20
-89.866822937532845
42
-0.17100291491760336
10
130.99867544996926
20
-90.198070945683611
10
132.60588322900554
20
-91.491017007660687
42
-0.70793767848198286
0
LWPOLYLINE
5
104
100
AcDbEntity
8
0
100
AcDbPolyline
90
12
70
1
43
0.0
10
144.80187937034285
20
-96.609884978409411
10
142.76249435014191
20
-99.101330952790306
42
-0.27965945626541872
10
141.29505697710181
20
-99.61952241928104
10
137.94678359204104
20
-98.920104146896009
42
-0.18053435418556238
10
137.0597586288211
20
-98.360085306840091
10
135.69624540862316
20
-96.568057604844313
42
-0.33718513384245608
10
135.69624540862316
20
-94.751480394175758
10
137.05975862882102
20
-92.959452692179951
42
-0.18053435418553715
10
137.94678359204096
20
-92.399433852123991
10
141.29505697710169
20
-91.700015579738903
42
-0.27965945626541378
10
142.76249435014176
20
-92.218207046229594
10
144.80187937034285
20
-94.709653020610489
42
-0.35708929890403279
0
LWPOLYLINE
5
105
100
AcDbEntity
8
0
100
AcDbPolyline
90
8
70
1
43
0.0
10
130.05845272021423
20
-101.4527150614874
10
101.19536980084888
20
-101.45271506148754
42
-0.30140302467176106
10
100.27423967031226
20
-100.84196984002932
10
99.305277542188833
20
-98.549023778051662
42
-0.53680294427199515
10
100.22640767272532
20
-97.15976899950995
10
131.66566049925083
20
-97.15976899950995
42
-0.70793767848195466
10
132.60588322900614
20
-99.828520991359184
10
130.99867544996951
20
-101.12146705333663
42
-0.17100291491755984
0
CIRCLE
5
106
100
AcDbEntity
8
0
100
AcDbCircle
10
173.84795197940429
20
-85.659768999509964
30
0
40
1.1500000000000021
210
0
220
0
230
1
0
CIRCLE
5
107
100
AcDbEntity
8
0
100
AcDbCircle
10
180.52156111008344
20
-77.87530903529813
30
0
40
1.5999999999998238
210
0
220
0
230
1
0
CIRCLE
5
108
100
AcDbEntity
8
0
100
AcDbCircle
10
173.84795197940429
20
-105.65976899950994
30
0
40
1.1500000000000021
210
0
220
0
230
1
0
CIRCLE
5
109
100
AcDbEntity
8
0
100
AcDbCircle
10
159.30855314205309
20
-100.36165803876999
30
0
40
2.2500000000000142
210
0
220
0
230
1
0
CIRCLE
5
110
100
AcDbEntity
8
0
100
AcDbCircle
10
130.60774016445149
20
-105.65976899950994
30
0
40
0.98413444424426899
210
0
220
0
230
1
0
LWPOLYLINE
5
111
100
AcDbEntity
8
0
100
AcDbPolyline
90
4
70
1
43
0.0
10
165.31015593357347
20
-108.41038933169825
10
165.31015593357338
20
-110.91038933169825
42
-0.99999999999999989
10
162.11015593357345
20
-110.91038933169825
10
162.11015593357337
20
-108.41038933169825
42
-0.99999999999999989
0
CIRCLE
5
112
100
AcDbEntity
8
0
100
AcDbCircle
10
159.30855314205306
20
-90.95787996024994
30
0
40
2.2499999999999964
210
0
220
0
230
1
0
CIRCLE
5
113
100
AcDbEntity
8
0
100
AcDbCircle
10
168.17982073993824
20
-90.957879960249926
30
0
40
2.2499999999999964
210
0
220
0
230
1
0
LWPOLYLINE
5
114
100
AcDbEntity
8
0
100
AcDbPolyline
90
4
70
1
43
0.0
10
162.11015593357337
20
-82.910389331698639
42
0.99999999999999989
10
165.31015593357338
20
-82.910389331698639
10
165.31015593357338
20
-80.410389331698639
42
0.99999999999999989
10
162.11015593357337
20
-80.410389331698639
0
LWPOLYLINE
5
115
100
AcDbEntity
8
0
100
AcDbPolyline
90
4
70
1
43
0.0
10
176.46015593357339
20
-94.060389331698246
10
178.96015593357339
20
-94.060389331698232
42
-0.99999999999999989
10
178.96015593357339
20
-97.260389331698235
10
176.46015593357339
20
-97.260389331698207
42
-0.99999999999999989
0
CIRCLE
5
116
100
AcDbEntity
8
0
100
AcDbCircle
10
180.52156111008358
20
-113.44422896372163
30
0
40
1.6000000000000014
210
0
220
0
230
1
0
CIRCLE
5
117
100
AcDbEntity
8
0
100
AcDbCircle
10
146.96681277190785
20
-113.44422896372168
30
0
40
1.6000000000000014
210
0
220
0
230
1
0
CIRCLE
5
118
100
AcDbEntity
8
0
100
AcDbCircle
10
168.17982073993824
20
-100.36165803876997
30
0
40
2.2499999999999964
210
0
220
0
230
1
0
CIRCLE
5
119
100
AcDbEntity
8
0
100
AcDbCircle
10
153.84795197940431
20
-85.659768999509964
30
0
40
1.1500000000000021
210
0
220
0
230
1
0
CIRCLE
5
120
100
AcDbEntity
8
0
100
AcDbCircle
10
110.60774016445151
20
-85.659768999509964
30
0
40
1.0999999999999943
210
0
220
0
230
1
0
CIRCLE
5
121
100
AcDbEntity
8
0
100
AcDbCircle
10
94.541745654923872
20
-88.349024584482123
30
0
40
1.6000000000000014
210
0
220
0
230
1
0
CIRCLE
5
122
100
AcDbEntity
8
0
100
AcDbCircle
10
94.541745654923872
20
-102.97051341453796
30
0
40
1.6000000000000014
210
0
220
0
230
1
0
CIRCLE
5
123
100
AcDbEntity
8
0
100
AcDbCircle
10
110.60774016445151
20
-105.65976899950994
30
0
40
1.0999999999999943
210
0
220
0
230
1
0
CIRCLE
5
124
100
AcDbEntity
8
0
100
AcDbCircle
10
130.60774016445149
20
-85.659768999509964
30
0
40
1.0999999999999943
210
0
220
0
230
1
0
CIRCLE
5
125
100
AcDbEntity
8
0
100
AcDbCircle
10
146.96681277190771
20
-77.875309035298343
30
0
40
1.6000000000000014
210
0
220
0
230
1
0
ENDSEC
0
SECTION
2
OBJECTS
0
DICTIONARY
5
C
100
AcDbDictionary
3
ACAD_GROUP
350
D
3
ACAD_MLINESTYLE
350
17
0
DICTIONARY
5
D
100
AcDbDictionary
0
DICTIONARY
5
1A
330
C
100
AcDbDictionary
0
DICTIONARY
5
17
100
AcDbDictionary
0
ENDSEC
0
EOF
