0
SECTION
2
HEADER
9
$INSUNITS
70
4
9
$ACADVER
1
AC1014
9
$HANDSEED
5
FFFF
0
ENDSEC
0
SECTION
2
TABLES
0
TABLE
2
VPORT
5
8
100
AcDbSymbolTable
0
ENDTAB
0
TABLE
2
LTYPE
5
5
100
AcDbSymbolTable
0
LTYPE
5
14
100
AcDbSymbolTableRecord
100
AcDbLinetypeTableRecord
2
BYBLOCK
70
0
0
LTYPE
5
15
100
AcDbSymbolTableRecord
100
AcDbLinetypeTableRecord
2
BYLAYER
70
0
0
LTYPE
5
16
100
AcDbSymbolTableRecord
100
AcDbLinetypeTableRecord
2
DASHED
70
0
3
Dashed __ __ __ __ __ __ __ __ __ __ __ __ __ _
72
65
73
2
40
0.75
49
0.5
74
0
49
-0.25
74
0
0
ENDTAB
0
TABLE
2
LAYER
5
2
100
AcDbSymbolTable
70
2
0
LAYER
5
50
100
AcDbSymbolTableRecord
100
AcDbLayerTableRecord
2
0
70
0
62
7
6
CONTINUOUS
0
ENDTAB
0
TABLE
2
STYLE
5
3
100
AcDbSymbolTable
70
1
0
STYLE
5
11
100
AcDbSymbolTableRecord
100
AcDbTextStyleTableRecord
2
STANDARD
70
0
0
ENDTAB
0
TABLE
2
VIEW
5
6
100
AcDbSymbolTable
70
0
0
ENDTAB
0
TABLE
2
UCS
5
7
100
AcDbSymbolTable
70
0
0
ENDTAB
0
TABLE
2
APPID
5
9
100
AcDbSymbolTable
70
2
0
APPID
5
12
100
AcDbSymbolTableRecord
100
AcDbRegAppTableRecord
2
ACAD
70
0
0
ENDTAB
0
TABLE
2
DIMSTYLE
5
A
100
AcDbSymbolTable
70
1
0
ENDTAB
0
TABLE
2
BLOCK_RECORD
5
1
100
AcDbSymbolTable
70
1
0
BLOCK_RECORD
5
1F
100
AcDbSymbolTableRecord
100
AcDbBlockTableRecord
2
*MODEL_SPACE
0
BLOCK_RECORD
5
1B
100
AcDbSymbolTableRecord
100
AcDbBlockTableRecord
2
*PAPER_SPACE
0
ENDTAB
0
ENDSEC
0
SECTION
2
BLOCKS
0
BLOCK
5
20
100
AcDbEntity
100
AcDbBlockBegin
2
*MODEL_SPACE
0
ENDBLK
5
21
100
AcDbEntity
100
AcDbBlockEnd
0
BLOCK
5
1C
100
AcDbEntity
100
AcDbBlockBegin
2
*PAPER_SPACE
0
ENDBLK
5
1D
100
AcDbEntity
100
AcDbBlockEnd
0
ENDSEC
0
SECTION
2
ENTITIES
0
LWPOLYLINE
5
100
100
AcDbEntity
8
0
100
AcDbPolyline
90
55
70
1
43
0.0
10
156.89080140062447
20
-163.50956675071387
10
159.32213340365394
20
-161.99229033358478
42
0.12502750314398239
10
159.85873522953452
20
-161.43234727038887
42
0.12955539730558793
10
160.11849571252247
20
-160.44666658003067
10
160.11849571259739
20
-159.4450724122444
42
0.34937131029278701
10
158.17952133602242
20
-157.0088355087432
42
-0.79588909179868761
10
158.17952133602236
20
-137.41172022220124
42
0.34937131028828317
10
160.11849571252304
20
-134.97548331874046
10
160.11849571252247
20
-133.97388915095394
42
0.12955539731069035
10
159.85873522953452
20
-132.98820846055557
42
0.1250275031439845
10
159.32213340365394
20
-132.42826539735967
10
156.89080140062447
20
-130.91098898023057
42
0.1313991977752004
10
155.80128143161892
20
-130.57799700371396
42
0.13982771197202915
10
154.50304865650017
20
-130.89919308719129
42
-0.015949267198902443
10
150.82475002443311
20
-132.85406233711785
42
-0.11464891048828768
10
140.68403196858358
20
-135.21027786547228
10
126.74076226969188
20
-135.2102805495789
42
-0.41390211101443097
10
120.96483850331488
20
-129.44049609019817
42
0.5467929888096853
10
113.86651581121967
20
-124.90092782754812
42
0.18833272495590445
10
111.35089472216067
20
-127.52632464188416
42
-0.11678022252552819
10
109.86366269436112
20
-129.57872152584491
42
-0.017959933644322898
10
99.9898991232578
20
-137.4868898621967
42
-0.33105099521091741
10
98.376723980181438
20
-137.48688986219702
42
-0.017959933644322898
10
88.502960409078142
20
-129.57872152584514
42
-0.11678022150473037
10
87.015728389794816
20
-127.52632466233717
42
0.18966593276979374
10
84.47807145447625
20
-124.89084663627426
42
0.54585047293025402
10
77.401790737919583
20
-129.45019908441958
42
0.088865446049603974
10
77.744942068047777
20
-131.23739544673154
42
0.14836931492866401
10
79.526340674133479
20
-133.52534608726765
42
-0.13420251170362593
10
81.370949311124747
20
-135.76335924888372
42
-0.018514311373335465
10
82.066888358524025
20
-137.47832786303167
42
0.14445248482980472
10
83.970338002782341
20
-140.05959185893329
42
-0.08630580361139803
10
89.81059458686218
20
-146.32704241773541
42
-0.0015105932204916295
10
90.389355226118596
20
-147.22027786547702
42
-0.0015105932204916295
10
89.810594586859025
20
-148.11351331321367
42
-0.086305803611397253
10
83.97033800278237
20
-154.38096387201091
42
0.14445248482980547
10
82.066888358526256
20
-156.96222786791336
42
-0.018514311373335132
10
81.370949311128044
20
-158.67719648206196
42
-0.13420251170362696
10
79.526340674134204
20
-160.9152096436776
42
0.14836931492866334
10
77.744942068047777
20
-163.20316028421269
42
0.088865450028954018
10
77.401783688196218
20
-164.99035664035256
42
0.5458504740689416
10
84.478074389633932
20
-169.54971550433419
42
0.18966593276979488
10
87.015728397782368
20
-166.91423104942436
42
-0.11678022054734195
10
88.502960409078042
20
-164.86183420509914
42
-0.017959933644322454
10
98.376723980181126
20
-156.95366586874752
42
-0.33105099521092329
10
99.9898991232577
20
-156.95366586874744
42
-0.017959933644322454
10
109.86366269436077
20
-164.86183420509906
42
-0.11678022150473048
10
111.35089471364411
20
-166.91423106860702
42
0.18833272495590511
10
113.86651250149008
20
-169.53963503624414
42
0.54742283534787595
10
120.96483941524252
20
-164.99035663912392
42
-0.41442424617557305
10
126.74076226969194
20
-159.21027786547211
10
140.68403196858353
20
-159.21027786547231
42
-0.11464891048829477
10
150.82475002443368
20
-161.56649339382685
42
-0.015949267198899886
10
154.50304865650011
20
-163.52136264375309
42
0.13982771197203017
10
155.80128143161892
20
-163.84255872723045
42
0.13139919777519837
0
LWPOLYLINE
5
101
100
AcDbEntity
8
0
100
AcDbPolyline
90
8
70
1
43
0.0
10
147.77638723376231
20
-151.27526362157124
10
145.46462363847067
20
-153.56820968354867
42
-0.19785052010090978
10
144.4083067639931
20
-154.00322392744957
10
129.05702874818405
20
-154.00322392744971
42
-0.18221156162494245
10
128.0668954437196
20
-153.63000520142896
10
125.45750065492555
20
-151.33705913945141
42
-0.6917445784839068
10
126.44763395938995
20
-148.71027786547214
10
146.72007035928473
20
-148.71027786547214
42
-0.66965741253883904
0
CIRCLE
5
102
100
AcDbEntity
8
0
100
AcDbCircle
10
115.96068572080732
20
-164.9947378296838
30
0
40
1.6000000000000014
210
0
220
0
230
1
0
LWPOLYLINE
5
103
100
AcDbEntity
8
0
100
AcDbPolyline
90
8
70
1
43
0.0
10
125.45750065492625
20
-143.08349659149289
42
0.6917445784839098
10
126.44763395939067
20
-145.71027786547211
10
146.72007035928425
20
-145.71027786547211
42
0.66965741253882871
10
147.7763872337618
20
-143.14529210937306
10
145.46462363847047
20
-140.85234604739591
42
0.19785052010090542
10
144.4083067639929
20
-140.41733180349502
10
129.05702874818385
20
-140.41733180349513
42
0.18221156162496088
10
128.0668954437194
20
-140.79055052951588
0
LWPOLYLINE
5
104
100
AcDbEntity
8
0
100
AcDbPolyline
90
14
70
1
43
0.0
10
122.04958847087796
20
-144.32719076533675
10
122.85806878935327
20
-146.73233884999436
42
-0.16357574723439197
10
122.85806878935327
20
-147.68821688094985
10
122.04958847087808
20
-150.09336496560749
42
-0.37995903159023348
10
120.32105408064447
20
-151.08373339551997
10
120.00919186879423
20
-151.01858873606426
42
0.022385730926800452
10
115.13733561225169
20
-150.22655095635167
10
110.10313003990134
20
-149.63790781865956
42
-0.15568736644227366
10
109.13389498805935
20
-149.19890373481292
42
-0.44453884234990221
10
109.13389498806015
20
-145.22165199613059
42
-0.15568736644219394
10
110.10313003990163
20
-144.78264791228503
10
115.13733561225501
20
-144.19400477459217
42
0.022385730926827472
10
120.00919186879858
20
-143.40196699487913
10
120.3210540806444
20
-143.3368223354243
42
-0.37995903159022204
0
CIRCLE
5
105
100
AcDbEntity
8
0
100
AcDbCircle
10
82.40593738263145
20
-129.42581790126053
30
0
40
1.6000000000000014
210
0
220
0
230
1
0
CIRCLE
5
106
100
AcDbEntity
8
0
100
AcDbCircle
10
89.279546513310777
20
-137.21027786547216
30
0
40
2.2499999999999964
210
0
220
0
230
1
0
CIRCLE
5
107
100
AcDbEntity
8
0
100
AcDbCircle
10
103.618945350662
20
-151.91216690473215
30
0
40
1.6000000000000014
210
0
220
0
230
1
0
CIRCLE
5
108
100
AcDbEntity
8
0
100
AcDbCircle
10
103.618945350662
20
-142.5083888262121
30
0
40
1.6000000000000014
210
0
220
0
230
1
0
CIRCLE
5
109
100
AcDbEntity
8
0
100
AcDbCircle
10
109.28707659012802
20
-157.21027786547214
30
0
40
2.2499999999999964
210
0
220
0
230
1
0
CIRCLE
5
110
100
AcDbEntity
8
0
100
AcDbCircle
10
155.74989571100556
20
-160.72099968919764
30
0
40
1.6000000000000014
210
0
220
0
230
1
0
CIRCLE
5
111
100
AcDbEntity
8
0
100
AcDbCircle
10
94.747677752776823
20
-142.50838882621213
30
0
40
1.6000000000000014
210
0
220
0
230
1
0
CIRCLE
5
112
100
AcDbEntity
8
0
100
AcDbCircle
10
82.405937382631592
20
-164.99473782968386
30
0
40
1.6000000000000014
210
0
220
0
230
1
0
CIRCLE
5
113
100
AcDbEntity
8
0
100
AcDbCircle
10
94.747677752776852
20
-151.91216690473217
30
0
40
1.6000000000000014
210
0
220
0
230
1
0
CIRCLE
5
114
100
AcDbEntity
8
0
100
AcDbCircle
10
89.279546513310848
20
-157.21027786547216
30
0
40
2.2499999999999964
210
0
220
0
230
1
0
CIRCLE
5
115
100
AcDbEntity
8
0
100
AcDbCircle
10
155.74989571100556
20
-133.69955604174675
30
0
40
1.6000000000000014
210
0
220
0
230
1
0
CIRCLE
5
116
100
AcDbEntity
8
0
100
AcDbCircle
10
109.28707659012802
20
-137.21027786547214
30
0
40
2.2499999999999964
210
0
220
0
230
1
0
CIRCLE
5
117
100
AcDbEntity
8
0
100
AcDbCircle
10
115.96068572080732
20
-129.42581790126044
30
0
40
1.6000000000000014
210
0
220
0
230
1
0
ENDSEC
0
SECTION
2
OBJECTS
0
DICTIONARY
5
C
100
AcDbDictionary
3
ACAD_GROUP
350
D
3
ACAD_MLINESTYLE
350
17
0
DICTIONARY
5
D
100
AcDbDictionary
0
DICTIONARY
5
1A
330
C
100
AcDbDictionary
0
DICTIONARY
5
17
100
AcDbDictionary
0
ENDSEC
0
EOF
