0
SECTION
2
HEADER
9
$INSUNITS
70
4
9
$ACADVER
1
AC1014
9
$HANDSEED
5
FFFF
0
ENDSEC
0
SECTION
2
TABLES
0
TABLE
2
VPORT
5
8
100
AcDbSymbolTable
0
ENDTAB
0
TABLE
2
LTYPE
5
5
100
AcDbSymbolTable
0
LTYPE
5
14
100
AcDbSymbolTableRecord
100
AcDbLinetypeTableRecord
2
BYBLOCK
70
0
0
LTYPE
5
15
100
AcDbSymbolTableRecord
100
AcDbLinetypeTableRecord
2
BYLAYER
70
0
0
LTYPE
5
16
100
AcDbSymbolTableRecord
100
AcDbLinetypeTableRecord
2
DASHED
70
0
3
Dashed __ __ __ __ __ __ __ __ __ __ __ __ __ _
72
65
73
2
40
0.75
49
0.5
74
0
49
-0.25
74
0
0
ENDTAB
0
TABLE
2
LAYER
5
2
100
AcDbSymbolTable
70
2
0
LAYER
5
50
100
AcDbSymbolTableRecord
100
AcDbLayerTableRecord
2
0
70
0
62
7
6
CONTINUOUS
0
ENDTAB
0
TABLE
2
STYLE
5
3
100
AcDbSymbolTable
70
1
0
STYLE
5
11
100
AcDbSymbolTableRecord
100
AcDbTextStyleTableRecord
2
STANDARD
70
0
0
ENDTAB
0
TABLE
2
VIEW
5
6
100
AcDbSymbolTable
70
0
0
ENDTAB
0
TABLE
2
UCS
5
7
100
AcDbSymbolTable
70
0
0
ENDTAB
0
TABLE
2
APPID
5
9
100
AcDbSymbolTable
70
2
0
APPID
5
12
100
AcDbSymbolTableRecord
100
AcDbRegAppTableRecord
2
ACAD
70
0
0
ENDTAB
0
TABLE
2
DIMSTYLE
5
A
100
AcDbSymbolTable
70
1
0
ENDTAB
0
TABLE
2
BLOCK_RECORD
5
1
100
AcDbSymbolTable
70
1
0
BLOCK_RECORD
5
1F
100
AcDbSymbolTableRecord
100
AcDbBlockTableRecord
2
*MODEL_SPACE
0
BLOCK_RECORD
5
1B
100
AcDbSymbolTableRecord
100
AcDbBlockTableRecord
2
*PAPER_SPACE
0
ENDTAB
0
ENDSEC
0
SECTION
2
BLOCKS
0
BLOCK
5
20
100
AcDbEntity
100
AcDbBlockBegin
2
*MODEL_SPACE
0
ENDBLK
5
21
100
AcDbEntity
100
AcDbBlockEnd
0
BLOCK
5
1C
100
AcDbEntity
100
AcDbBlockBegin
2
*PAPER_SPACE
0
ENDBLK
5
1D
100
AcDbEntity
100
AcDbBlockEnd
0
ENDSEC
0
SECTION
2
ENTITIES
0
CIRCLE
5
100
100
AcDbEntity
8
0
100
AcDbCircle
10
53.275119803279466
20
-123.30647889936384
30
0
40
2.5495821830332011
210
0
220
0
230
1
0
LWPOLYLINE
5
101
100
AcDbEntity
8
0
100
AcDbPolyline
90
29
70
1
43
0.0
10
56.346716830062604
20
-115.77727875765682
10
48.873220698521926
20
-115.40454063318009
42
0.013218984568639285
10
48.529681197926315
20
-115.39650139163555
42
0.16385728364959776
10
47.170027556408201
20
-115.8589792297915
42
-0.18094018310969107
10
39.045125143301206
20
-118.32509820377432
42
0.02349095998138102
10
36.228140976646124
20
-118.27905004848415
42
-0.01936844146395773
10
-4.8142004212901979
20
-117.94643898297022
42
0.094153017563061339
10
-6.639963609171823
20
-118.32240926312937
42
-0.11678022150474275
10
-9.1428591950774685
20
-118.72204115696911
42
-0.017959933644311237
10
-21.71658382943577
20
-117.33215543740971
42
0.23715324103952154
10
-23.421776870955817
20
-117.89666139601877
10
-29.183614167550331
20
-123.65849869261439
10
-22.974449339372551
20
-129.86766352078999
42
-0.0015443487862227556
10
-21.910347465636811
20
-129.6402554386907
42
-0.086305803611392437
10
-13.348905640289958
20
-129.33818368228287
42
0.14445248482980655
10
-10.177734213653114
20
-128.85889655785004
42
-0.018514311373327579
10
-8.4729650573593691
20
-128.13833384097012
42
-0.13420251170363656
10
-5.5861154985432782
20
-127.86015483386035
42
0.073780825109705128
10
-4.1208113410881397
20
-127.89452535895657
42
-0.054601225394465887
10
35.791512884602497
20
-127.30582489347356
42
0.022631691872607943
10
38.88673422957001
20
-127.45789052627478
42
-0.17864541971074008
10
46.746525931106326
20
-130.39298715621823
42
0.1638572836497294
10
48.076943559512806
20
-130.93385008682478
42
0.013218984568301525
10
48.420368290493769
20
-130.94582806765061
10
55.902888022675086
20
-131.00888831746889
42
0.17961711728861982
10
60.157301608984568
20
-129.47027429611342
10
64.412925924403993
20
-125.86787304544021
42
0.44609597292296715
10
64.542965389798454
20
-121.40509295707088
10
60.504321766597911
20
-117.56100779026937
42
0.17961711728861668
0
LWPOLYLINE
5
102
100
AcDbEntity
8
0
100
AcDbPolyline
90
2
70
1
43
0.0
10
49.116547063484944
20
-120.08749889893753
42
2.2530387640029774
10
50.236813052282884
20
-119.00567060875716
42
2.4104457834258688
0
CIRCLE
5
103
100
AcDbEntity
8
0
100
AcDbCircle
10
-4.7376358138378327
20
-122.93931042983139
30
0
40
1.6000000000000014
210
0
220
0
230
1
0
LWPOLYLINE
5
104
100
AcDbEntity
8
0
100
AcDbPolyline
90
2
70
1
43
0.0
10
56.520979908849895
20
-119.1440136844934
42
2.3429949098216154
10
57.57432893195908
20
-120.23478852892474
42
2.5020166845229017
0
LWPOLYLINE
5
105
100
AcDbEntity
8
0
100
AcDbPolyline
90
2
70
1
43
0.0
10
49.003736904616119
20
-126.37177779511767
42
2.4008291216377429
10
50.088619782504594
20
-127.49520690208364
42
2.2435727897958517
0
CIRCLE
5
106
100
AcDbEntity
8
0
100
AcDbCircle
10
61.67624495676661
20
-123.55484517594209
30
0
40
1.6000000000000028
210
0
220
0
230
1
0
CIRCLE
5
107
100
AcDbEntity
8
0
100
AcDbCircle
10
-22.715338737598504
20
-123.46315673884696
30
0
40
1.6000000000000014
210
0
220
0
230
1
0
LWPOLYLINE
5
108
100
AcDbEntity
8
0
100
AcDbPolyline
90
2
70
1
43
0.0
10
56.37371866689282
20
-127.57632341890189
42
2.4915593828804115
10
57.467803946247713
20
-126.51977754594722
42
2.3327374384010859
0
CIRCLE
5
109
100
AcDbEntity
8
0
100
AcDbCircle
10
-14.961034513698779
20
-123.72480058710991
30
0
40
2.2499999999999964
210
0
220
0
230
1
0
ENDSEC
0
SECTION
2
OBJECTS
0
DICTIONARY
5
C
100
AcDbDictionary
3
ACAD_GROUP
350
D
3
ACAD_MLINESTYLE
350
17
0
DICTIONARY
5
D
100
AcDbDictionary
0
DICTIONARY
5
1A
330
C
100
AcDbDictionary
0
DICTIONARY
5
17
100
AcDbDictionary
0
ENDSEC
0
EOF
