0
SECTION
2
HEADER
9
$INSUNITS
70
4
9
$ACADVER
1
AC1014
9
$HANDSEED
5
FFFF
0
ENDSEC
0
SECTION
2
TABLES
0
TABLE
2
VPORT
5
8
100
AcDbSymbolTable
0
ENDTAB
0
TABLE
2
LTYPE
5
5
100
AcDbSymbolTable
0
LTYPE
5
14
100
AcDbSymbolTableRecord
100
AcDbLinetypeTableRecord
2
BYBLOCK
70
0
0
LTYPE
5
15
100
AcDbSymbolTableRecord
100
AcDbLinetypeTableRecord
2
BYLAYER
70
0
0
LTYPE
5
16
100
AcDbSymbolTableRecord
100
AcDbLinetypeTableRecord
2
DASHED
70
0
3
Dashed __ __ __ __ __ __ __ __ __ __ __ __ __ _
72
65
73
2
40
0.75
49
0.5
74
0
49
-0.25
74
0
0
ENDTAB
0
TABLE
2
LAYER
5
2
100
AcDbSymbolTable
70
2
0
LAYER
5
50
100
AcDbSymbolTableRecord
100
AcDbLayerTableRecord
2
0
70
0
62
7
6
CONTINUOUS
0
ENDTAB
0
TABLE
2
STYLE
5
3
100
AcDbSymbolTable
70
1
0
STYLE
5
11
100
AcDbSymbolTableRecord
100
AcDbTextStyleTableRecord
2
STANDARD
70
0
0
ENDTAB
0
TABLE
2
VIEW
5
6
100
AcDbSymbolTable
70
0
0
ENDTAB
0
TABLE
2
UCS
5
7
100
AcDbSymbolTable
70
0
0
ENDTAB
0
TABLE
2
APPID
5
9
100
AcDbSymbolTable
70
2
0
APPID
5
12
100
AcDbSymbolTableRecord
100
AcDbRegAppTableRecord
2
ACAD
70
0
0
ENDTAB
0
TABLE
2
DIMSTYLE
5
A
100
AcDbSymbolTable
70
1
0
ENDTAB
0
TABLE
2
BLOCK_RECORD
5
1
100
AcDbSymbolTable
70
1
0
BLOCK_RECORD
5
1F
100
AcDbSymbolTableRecord
100
AcDbBlockTableRecord
2
*MODEL_SPACE
0
BLOCK_RECORD
5
1B
100
AcDbSymbolTableRecord
100
AcDbBlockTableRecord
2
*PAPER_SPACE
0
ENDTAB
0
ENDSEC
0
SECTION
2
BLOCKS
0
BLOCK
5
20
100
AcDbEntity
100
AcDbBlockBegin
2
*MODEL_SPACE
0
ENDBLK
5
21
100
AcDbEntity
100
AcDbBlockEnd
0
BLOCK
5
1C
100
AcDbEntity
100
AcDbBlockBegin
2
*PAPER_SPACE
0
ENDBLK
5
1D
100
AcDbEntity
100
AcDbBlockEnd
0
ENDSEC
0
SECTION
2
ENTITIES
0
LWPOLYLINE
5
100
100
AcDbEntity
8
0
100
AcDbPolyline
90
29
70
1
43
0.0
10
-32.253474612353358
20
-164.96779857335105
10
-25.936890601840371
20
-171.06765284743202
42
-0.0015443487862542861
10
-24.876919614245683
20
-170.82170826229284
42
-0.086305803611392562
10
-16.322053617023119
20
-170.37026475045124
42
0.14445248482980128
10
-13.159729888850224
20
-169.83570605114878
42
-0.018514311373335909
10
-11.467795930554772
20
-169.08550075526335
42
-0.13420251170363329
10
-8.5862409460037021
20
-168.75698164433987
42
0.073780825109706488
10
-7.1205601130956797
20
-168.76577385092858
42
-0.054601225394465332
10
32.775411032502348
20
-167.48059694313298
42
0.022631691872613165
10
35.872814871495869
20
-167.57862035467588
42
-0.17864541971073997
10
43.782633988004811
20
-170.37609767589814
42
0.16385728364979463
10
45.122288347054337
20
-170.8936592412783
42
0.013218984568488527
10
45.465869817374909
20
-170.89964180981397
10
52.948350478668573
20
-170.83210447970947
42
0.17961711728861618
10
57.175263579931311
20
-169.21947504166104
10
61.367369172377778
20
-165.54335156894979
42
0.44609597292297148
10
61.419502580189217
20
-161.07898168200097
10
57.314385525263432
20
-157.30596603795718
42
0.17961711728861998
10
53.126283448046522
20
-155.59506888707415
10
45.647420388922335
20
-155.3528180244146
42
0.013218984568670275
10
45.303792906945773
20
-155.35077559827712
42
0.16385728364961594
10
43.952417698462611
20
-155.83691222678402
42
-0.18094018310969495
10
35.871792458003739
20
-158.44445469807931
42
0.023490959981404404
10
33.054433680560372
20
-158.44757670875032
42
-0.019368441463958063
10
-7.9874616334895503
20
-158.83130392472873
42
0.094153017563062172
10
-9.8063851626567011
20
-159.23908090400636
42
-0.1167802215047315
10
-12.301925007204993
20
-159.68233348300839
42
-0.017959933644317125
10
-24.897991452878479
20
-158.51210120252591
42
0.23715324103951174
10
-26.5930727978131
20
-159.10628090615788
0
CIRCLE
5
101
100
AcDbEntity
8
0
100
AcDbCircle
10
45.79580717328578
20
-158.94030222746005
30
0
40
1.0999999999999934
210
0
220
0
230
1
0
CIRCLE
5
102
100
AcDbEntity
8
0
100
AcDbCircle
10
50.141636439952279
20
-163.11100422783312
30
0
40
3.0000000000000071
210
0
220
0
230
1
0
CIRCLE
5
103
100
AcDbEntity
8
0
100
AcDbCircle
10
54.279796198071494
20
-158.79221364818096
30
0
40
1.0999999999999934
210
0
220
0
230
1
0
CIRCLE
5
104
100
AcDbEntity
8
0
100
AcDbCircle
10
-25.789593519250708
20
-164.65959939935732
30
0
40
1.6000000000000014
210
0
220
0
230
1
0
CIRCLE
5
105
100
AcDbEntity
8
0
100
AcDbCircle
10
54.427884777350528
20
-167.27620267296663
30
0
40
1.0999999999999934
210
0
220
0
230
1
0
CIRCLE
5
106
100
AcDbEntity
8
0
100
AcDbCircle
10
58.590737112027931
20
-163.27843765333611
30
0
40
1.6000000000000032
210
0
220
0
230
1
0
CIRCLE
5
107
100
AcDbEntity
8
0
100
AcDbCircle
10
-7.8237710654178327
20
-163.82207869643705
30
0
40
1.6000000000000014
210
0
220
0
230
1
0
CIRCLE
5
108
100
AcDbEntity
8
0
100
AcDbCircle
10
45.943895752564892
20
-167.42429125224572
30
0
40
1.0999999999999934
210
0
220
0
230
1
0
CIRCLE
5
109
100
AcDbEntity
8
0
100
AcDbCircle
10
-18.031903998661353
20
-164.78587212904074
30
0
40
2.2499999999999964
210
0
220
0
230
1
0
ENDSEC
0
SECTION
2
OBJECTS
0
DICTIONARY
5
C
100
AcDbDictionary
3
ACAD_GROUP
350
D
3
ACAD_MLINESTYLE
350
17
0
DICTIONARY
5
D
100
AcDbDictionary
0
DICTIONARY
5
1A
330
C
100
AcDbDictionary
0
DICTIONARY
5
17
100
AcDbDictionary
0
ENDSEC
0
EOF
