0
SECTION
2
HEADER
9
$INSUNITS
70
4
9
$ACADVER
1
AC1014
9
$HANDSEED
5
FFFF
0
ENDSEC
0
SECTION
2
TABLES
0
TABLE
2
VPORT
5
8
100
AcDbSymbolTable
0
ENDTAB
0
TABLE
2
LTYPE
5
5
100
AcDbSymbolTable
0
LTYPE
5
14
100
AcDbSymbolTableRecord
100
AcDbLinetypeTableRecord
2
BYBLOCK
70
0
0
LTYPE
5
15
100
AcDbSymbolTableRecord
100
AcDbLinetypeTableRecord
2
BYLAYER
70
0
0
LTYPE
5
16
100
AcDbSymbolTableRecord
100
AcDbLinetypeTableRecord
2
DASHED
70
0
3
Dashed __ __ __ __ __ __ __ __ __ __ __ __ __ _
72
65
73
2
40
0.75
49
0.5
74
0
49
-0.25
74
0
0
ENDTAB
0
TABLE
2
LAYER
5
2
100
AcDbSymbolTable
70
2
0
LAYER
5
50
100
AcDbSymbolTableRecord
100
AcDbLayerTableRecord
2
0
70
0
62
7
6
CONTINUOUS
0
ENDTAB
0
TABLE
2
STYLE
5
3
100
AcDbSymbolTable
70
1
0
STYLE
5
11
100
AcDbSymbolTableRecord
100
AcDbTextStyleTableRecord
2
STANDARD
70
0
0
ENDTAB
0
TABLE
2
VIEW
5
6
100
AcDbSymbolTable
70
0
0
ENDTAB
0
TABLE
2
UCS
5
7
100
AcDbSymbolTable
70
0
0
ENDTAB
0
TABLE
2
APPID
5
9
100
AcDbSymbolTable
70
2
0
APPID
5
12
100
AcDbSymbolTableRecord
100
AcDbRegAppTableRecord
2
ACAD
70
0
0
ENDTAB
0
TABLE
2
DIMSTYLE
5
A
100
AcDbSymbolTable
70
1
0
ENDTAB
0
TABLE
2
BLOCK_RECORD
5
1
100
AcDbSymbolTable
70
1
0
BLOCK_RECORD
5
1F
100
AcDbSymbolTableRecord
100
AcDbBlockTableRecord
2
*MODEL_SPACE
0
BLOCK_RECORD
5
1B
100
AcDbSymbolTableRecord
100
AcDbBlockTableRecord
2
*PAPER_SPACE
0
ENDTAB
0
ENDSEC
0
SECTION
2
BLOCKS
0
BLOCK
5
20
100
AcDbEntity
100
AcDbBlockBegin
2
*MODEL_SPACE
0
ENDBLK
5
21
100
AcDbEntity
100
AcDbBlockEnd
0
BLOCK
5
1C
100
AcDbEntity
100
AcDbBlockBegin
2
*PAPER_SPACE
0
ENDBLK
5
1D
100
AcDbEntity
100
AcDbBlockEnd
0
ENDSEC
0
SECTION
2
ENTITIES
0
LWPOLYLINE
5
100
100
AcDbEntity
8
0
100
AcDbPolyline
90
31
70
1
43
0.0
10
29.924715995242082
20
-99.952701533111508
42
0.028071865130325956
10
34.070686230993942
20
-100.16426520373925
42
-0.17196417283486568
10
41.714045201852343
20
-102.82895918590881
42
0.16385728364973634
10
43.062528219849483
20
-103.32306173179606
42
0.013218984568576776
10
43.40616177126563
20
-103.3230470656932
10
50.886324125577829
20
-103.12493272819157
42
0.1796171172886136
10
55.084449183116355
20
-101.43877909599944
10
59.21175909661698
20
-97.690053184071388
42
0.44609597292296099
10
59.185970566504558
20
-93.225453388857773
10
55.015630538275786
20
-89.524656564686609
42
0.17961711728861543
10
50.798307056841232
20
-87.887112451378897
10
43.316355204270749
20
-87.7754226424954
42
0.013218984568491153
10
42.972744413172947
20
-87.779377653907773
42
0.16385728364964319
10
41.630059279704312
20
-88.289024990839167
42
-0.17802692169859985
10
33.732915634951574
20
-91.040310466312746
42
0.012556126175396082
10
30.142544174599173
20
-91.068992533193708
42
-0.058262147317071154
10
-3.7273760222419261
20
-88.241311239199717
42
0.1335842737042692
10
-5.0369492471904209
20
-88.327750546247358
42
0.033999695457056403
10
-5.6618608868400244
20
-88.591575602831114
42
-0.1342025117036344
10
-8.5039005202128362
20
-89.169584822111588
42
-0.01851431137333058
10
-10.344851522089758
20
-88.978933533376676
42
0.14445248482980419
10
-13.517587832978396
20
-89.447749772781847
42
-0.086305803611396018
10
-21.793252602822246
20
-91.662000456849327
42
-0.0015443487862857055
10
-22.877345974141402
20
-91.755642305216838
10
-26.99981572416641
20
-99.508880266679114
10
-19.805145121606444
20
-103.33435448375688
42
0.23715324103951183
10
-18.009415336721268
20
-103.37564402031342
42
-0.017959933644312014
10
-6.3914659259129198
20
-98.370288390389632
42
-0.1167802215047415
10
-3.8810939153691315
20
-98.020682421908347
42
0.043964279325381835
10
-3.0046699176136089
20
-98.026169544505791
42
-0.028435048601249884
10
0.90363376264015915
20
-97.929393972084171
42
-0.018756000727778725
0
LWPOLYLINE
5
101
100
AcDbEntity
8
0
100
AcDbPolyline
90
2
70
1
43
0.0
10
52.281671773476859
20
-98.533724970068704
42
2.3429949098216012
10
51.228322750367532
20
-99.624499814499927
42
2.5020166845230287
0
LWPOLYLINE
5
102
100
AcDbEntity
8
0
100
AcDbPolyline
90
2
70
1
43
0.0
10
43.849359431097106
20
-98.680836801451733
42
2.4915593828802804
10
44.943444710451992
20
-99.73738267440649
42
2.3327374384008071
0
CIRCLE
5
103
100
AcDbEntity
8
0
100
AcDbCircle
10
-20.757060707598125
20
-97.804545992033553
30
0
40
1.6000000000000014
210
0
220
-0
230
1
0
CIRCLE
5
104
100
AcDbEntity
8
0
100
AcDbCircle
10
56.396021732578077
20
-95.473943137061212
30
0
40
1.6000000000000003
210
0
220
-0
230
1
0
CIRCLE
5
105
100
AcDbEntity
8
0
100
AcDbCircle
10
-13.418079957045869
20
-95.287195590689493
30
0
40
2.2499999999999964
210
0
220
-0
230
1
0
LWPOLYLINE
5
106
100
AcDbEntity
8
0
100
AcDbPolyline
90
2
70
1
43
0.0
10
43.711079746134331
20
-92.396735703875095
42
2.2435727897959108
10
44.795962624022934
20
-91.273306596909151
42
2.4008291216376767
0
CIRCLE
5
107
100
AcDbEntity
8
0
100
AcDbCircle
10
48.008463335898064
20
-95.435110095815006
30
0
40
2.5495821830331868
210
0
220
-0
230
1
0
CIRCLE
5
108
100
AcDbEntity
8
0
100
AcDbCircle
10
-3.4117400619365656
20
-93.049331057916618
30
0
40
1.6000000000000014
210
0
220
-0
230
1
0
LWPOLYLINE
5
109
100
AcDbEntity
8
0
100
AcDbPolyline
90
2
70
1
43
0.0
10
52.200616313860507
20
-92.248558154442748
42
2.410445783425784
10
51.080350325062575
20
-91.166729864262379
42
2.2530387640029219
0
ENDSEC
0
SECTION
2
OBJECTS
0
DICTIONARY
5
C
100
AcDbDictionary
3
ACAD_GROUP
350
D
3
ACAD_MLINESTYLE
350
17
0
DICTIONARY
5
D
100
AcDbDictionary
0
DICTIONARY
5
1A
330
C
100
AcDbDictionary
0
DICTIONARY
5
17
100
AcDbDictionary
0
ENDSEC
0
EOF
