0
SECTION
2
HEADER
9
$INSUNITS
70
4
9
$ACADVER
1
AC1014
9
$HANDSEED
5
FFFF
0
ENDSEC
0
SECTION
2
TABLES
0
TABLE
2
VPORT
5
8
100
AcDbSymbolTable
0
ENDTAB
0
TABLE
2
LTYPE
5
5
100
AcDbSymbolTable
0
LTYPE
5
14
100
AcDbSymbolTableRecord
100
AcDbLinetypeTableRecord
2
BYBLOCK
70
0
0
LTYPE
5
15
100
AcDbSymbolTableRecord
100
AcDbLinetypeTableRecord
2
BYLAYER
70
0
0
LTYPE
5
16
100
AcDbSymbolTableRecord
100
AcDbLinetypeTableRecord
2
DASHED
70
0
3
Dashed __ __ __ __ __ __ __ __ __ __ __ __ __ _
72
65
73
2
40
0.75
49
0.5
74
0
49
-0.25
74
0
0
ENDTAB
0
TABLE
2
LAYER
5
2
100
AcDbSymbolTable
70
2
0
LAYER
5
50
100
AcDbSymbolTableRecord
100
AcDbLayerTableRecord
2
0
70
0
62
7
6
CONTINUOUS
0
ENDTAB
0
TABLE
2
STYLE
5
3
100
AcDbSymbolTable
70
1
0
STYLE
5
11
100
AcDbSymbolTableRecord
100
AcDbTextStyleTableRecord
2
STANDARD
70
0
0
ENDTAB
0
TABLE
2
VIEW
5
6
100
AcDbSymbolTable
70
0
0
ENDTAB
0
TABLE
2
UCS
5
7
100
AcDbSymbolTable
70
0
0
ENDTAB
0
TABLE
2
APPID
5
9
100
AcDbSymbolTable
70
2
0
APPID
5
12
100
AcDbSymbolTableRecord
100
AcDbRegAppTableRecord
2
ACAD
70
0
0
ENDTAB
0
TABLE
2
DIMSTYLE
5
A
100
AcDbSymbolTable
70
1
0
ENDTAB
0
TABLE
2
BLOCK_RECORD
5
1
100
AcDbSymbolTable
70
1
0
BLOCK_RECORD
5
1F
100
AcDbSymbolTableRecord
100
AcDbBlockTableRecord
2
*MODEL_SPACE
0
BLOCK_RECORD
5
1B
100
AcDbSymbolTableRecord
100
AcDbBlockTableRecord
2
*PAPER_SPACE
0
ENDTAB
0
ENDSEC
0
SECTION
2
BLOCKS
0
BLOCK
5
20
100
AcDbEntity
100
AcDbBlockBegin
2
*MODEL_SPACE
0
ENDBLK
5
21
100
AcDbEntity
100
AcDbBlockEnd
0
BLOCK
5
1C
100
AcDbEntity
100
AcDbBlockBegin
2
*PAPER_SPACE
0
ENDBLK
5
1D
100
AcDbEntity
100
AcDbBlockEnd
0
ENDSEC
0
SECTION
2
ENTITIES
0
CIRCLE
5
100
100
AcDbEntity
8
0
100
AcDbCircle
10
-22.744781602730324
20
-138.76802222654675
30
0
40
1.6000000000000014
210
0
220
-0
230
1
0
LWPOLYLINE
5
101
100
AcDbEntity
8
0
100
AcDbPolyline
90
31
70
1
43
0.0
10
-24.865066869273861
20
-132.71911853972998
42
0.0015443487862362841
10
-23.780973497960034
20
-132.62547669136296
42
0.086305803611392576
10
-15.505308728109913
20
-130.41122600729682
42
-0.14445248482981493
10
-12.332572417222254
20
-129.94240976788944
42
0.018514311373330233
10
-10.491621415345385
20
-130.13306105662548
42
0.13420251170362635
10
-7.6495817819724765
20
-129.55505183734377
42
-0.033999695457067672
10
-7.024670142322913
20
-129.29122678075984
42
-0.13358427370425577
10
-5.715096917374427
20
-129.20478747371223
42
0.058262147317067539
10
28.154823279466356
20
-132.03246876770496
42
-0.012556126175388389
10
31.7451947398194
20
-132.00378670082381
42
0.17802692169859907
10
39.642338384572092
20
-129.25250122534996
42
-0.16385728364962102
10
40.985023518040684
20
-128.74285388841849
42
-0.013218984568382946
10
41.328634309138543
20
-128.73889887700611
10
48.810586161709118
20
-128.85058868588931
42
-0.17961711728862248
10
53.027909643143722
20
-130.48813279919693
10
57.198249671372672
20
-134.18892962336793
42
-0.44609597292295783
10
57.22403820148525
20
-138.65352941858157
10
53.096728287984746
20
-142.40225533050977
42
-0.17961711728862453
10
48.898603230446227
20
-144.08840896270209
10
41.418440876134071
20
-144.28652330020407
42
-0.01321898456854418
10
41.074807324717895
20
-144.28653796630687
42
-0.16385728364975485
10
39.726324306720734
20
-143.79243542041965
42
0.17196417283486279
10
32.082965335862163
20
-141.12774143825024
42
-0.028071865130329724
10
27.936995100110245
20
-140.91617776762277
42
0.0187560007277747
10
-1.08408713249267
20
-138.89287020659648
42
0.028435048601256275
10
-4.9923908127457217
20
-138.9896457790183
42
-0.043964279325367533
10
-5.8688148105012328
20
-138.98415865642085
42
0.11678022150473033
10
-8.3791868210450371
20
-139.33376462490216
42
0.017959933644318631
10
-19.99713623185314
20
-144.33912025482644
42
-0.23715324103949967
10
-21.792866016738444
20
-144.29783071827003
10
-28.987536619298595
20
-140.47235650119251
0
LWPOLYLINE
5
102
100
AcDbEntity
8
0
100
AcDbPolyline
90
31
70
1
43
0.0
10
39.726324306720734
20
-143.79243542041965
42
0.17196417283486279
10
32.082965335862163
20
-141.12774143825024
42
-0.028071865130329724
10
27.936995100110245
20
-140.91617776762277
42
0.0187560007277747
10
-1.08408713249267
20
-138.89287020659648
42
0.028435048601256275
10
-4.9923908127457217
20
-138.9896457790183
42
-0.043964279325367533
10
-5.8688148105012328
20
-138.98415865642085
42
0.11678022150473033
10
-8.3791868210450371
20
-139.33376462490216
42
0.017959933644318631
10
-19.99713623185314
20
-144.33912025482644
42
-0.23715324103949967
10
-21.792866016738444
20
-144.29783071827003
10
-28.987536619298595
20
-140.47235650119251
10
-24.865066869273861
20
-132.71911853972998
42
0.0015443487862362841
10
-23.780973497960034
20
-132.62547669136296
42
0.086305803611392576
10
-15.505308728109913
20
-130.41122600729682
42
-0.14445248482981493
10
-12.332572417222254
20
-129.94240976788944
42
0.018514311373330233
10
-10.491621415345385
20
-130.13306105662548
42
0.13420251170362635
10
-7.6495817819724765
20
-129.55505183734377
42
-0.033999695457067672
10
-7.024670142322913
20
-129.29122678075984
42
-0.13358427370425577
10
-5.715096917374427
20
-129.20478747371223
42
0.058262147317067539
10
28.154823279466356
20
-132.03246876770496
42
-0.012556126175388389
10
31.7451947398194
20
-132.00378670082381
42
0.17802692169859907
10
39.642338384572092
20
-129.25250122534996
42
-0.16385728364962102
10
40.985023518040684
20
-128.74285388841849
42
-0.013218984568382946
10
41.328634309138543
20
-128.73889887700611
10
48.810586161709118
20
-128.85058868588931
42
-0.17961711728862248
10
53.027909643143722
20
-130.48813279919693
10
57.198249671372672
20
-134.18892962336793
42
-0.44609597292295783
10
57.22403820148525
20
-138.65352941858157
10
53.096728287984746
20
-142.40225533050977
42
-0.17961711728862453
10
48.898603230446227
20
-144.08840896270209
10
41.418440876134071
20
-144.28652330020407
42
-0.01321898456854418
10
41.074807324717895
20
-144.28653796630687
42
-0.16385728364975485
0
CIRCLE
5
103
100
AcDbEntity
8
0
100
AcDbCircle
10
50.315853145305951
20
-140.50722730310926
30
0
40
1.0999999999999943
210
0
220
-0
230
1
0
CIRCLE
5
104
100
AcDbEntity
8
0
100
AcDbCircle
10
54.408300837446291
20
-136.43741937157154
30
0
40
1.6000000000000003
210
0
220
-0
230
1
0
CIRCLE
5
105
100
AcDbEntity
8
0
100
AcDbCircle
10
-15.405800852178171
20
-136.2506718252024
30
0
40
2.2499999999999964
210
0
220
-0
230
1
0
CIRCLE
5
106
100
AcDbEntity
8
0
100
AcDbCircle
10
-5.399460957068829
20
-134.01280729242745
30
0
40
1.6000000000000014
210
0
220
-0
230
1
0
CIRCLE
5
107
100
AcDbEntity
8
0
100
AcDbCircle
10
-5.399460957068829
20
-134.01280729242745
30
0
40
1.6000000000000014
210
0
220
-0
230
1
0
CIRCLE
5
108
100
AcDbEntity
8
0
100
AcDbCircle
10
-22.744781602730324
20
-138.76802222654675
30
0
40
1.6000000000000014
210
0
220
-0
230
1
0
CIRCLE
5
109
100
AcDbEntity
8
0
100
AcDbCircle
10
50.019721095964726
20
-132.02711493301933
30
0
40
1.0999999999999994
210
0
220
-0
230
1
0
CIRCLE
5
110
100
AcDbEntity
8
0
100
AcDbCircle
10
41.539608725874864
20
-132.3232469823605
30
0
40
1.0999999999999883
210
0
220
-0
230
1
0
CIRCLE
5
111
100
AcDbEntity
8
0
100
AcDbCircle
10
54.408300837446291
20
-136.43741937157154
30
0
40
1.6000000000000003
210
0
220
-0
230
1
0
CIRCLE
5
112
100
AcDbEntity
8
0
100
AcDbCircle
10
45.945478634644346
20
-136.43089177058454
30
0
40
3.0000000000000071
210
0
220
-0
230
1
0
CIRCLE
5
113
100
AcDbEntity
8
0
100
AcDbCircle
10
45.945478634644346
20
-136.43089177058454
30
0
40
3.0000000000000071
210
0
220
-0
230
1
0
CIRCLE
5
114
100
AcDbEntity
8
0
100
AcDbCircle
10
41.835740775216017
20
-140.8033593524504
30
0
40
1.0999999999999994
210
0
220
-0
230
1
0
CIRCLE
5
115
100
AcDbEntity
8
0
100
AcDbCircle
10
50.315853145305951
20
-140.50722730310926
30
0
40
1.0999999999999943
210
0
220
-0
230
1
0
CIRCLE
5
116
100
AcDbEntity
8
0
100
AcDbCircle
10
41.539608725874864
20
-132.3232469823605
30
0
40
1.0999999999999883
210
0
220
-0
230
1
0
CIRCLE
5
117
100
AcDbEntity
8
0
100
AcDbCircle
10
41.835740775216017
20
-140.8033593524504
30
0
40
1.0999999999999994
210
0
220
-0
230
1
0
CIRCLE
5
118
100
AcDbEntity
8
0
100
AcDbCircle
10
50.019721095964726
20
-132.02711493301933
30
0
40
1.0999999999999994
210
0
220
-0
230
1
0
ENDSEC
0
SECTION
2
OBJECTS
0
DICTIONARY
5
C
100
AcDbDictionary
3
ACAD_GROUP
350
D
3
ACAD_MLINESTYLE
350
17
0
DICTIONARY
5
D
100
AcDbDictionary
0
DICTIONARY
5
1A
330
C
100
AcDbDictionary
0
DICTIONARY
5
17
100
AcDbDictionary
0
ENDSEC
0
EOF
