  0
SECTION
  2
HEADER
  9
$ACADVER
  1
AC1009
  9
$EXTMAX
 10
37.0004348754883
 20
168.68571472168
 30
0.0
  9
$EXTMIN
 10
1.0004577636719
 20
1.1727104187012
 30
0.0
  9
$INSUNITS
 70
     4
  9
$LUNITS
 70
     2
  9
$LUPREC
 70
     4
  9
$MEASUREMENT
 70
     1
  0
ENDSEC
  0
SECTION
  2
TABLES
  0
TABLE
  2
LAYER
 70
     1
  0
LAYER
  2
0
 70
     0
 62
     7
  6
Continuous
  0
ENDTAB
  0
TABLE
  2
APPID
 70
     1
  0
APPID
  2
ACAD
 70
     0
  0
ENDTAB
  0
ENDSEC
  0
SECTION
  2
ENTITIES
  0
POLYLINE
  8
0
 66
     1
 10
0.0
 20
0.0
 30
0.0
 70
     1
  0
VERTEX
  8
0
 10
31.722568
 20
166.859712
 42
0.0
  0
VERTEX
  8
0
 10
31.722568
 20
117.832124
 42
0.0
  0
VERTEX
  8
0
 10
31.8135
 20
117.832124
 42
0.0
  0
VERTEX
  8
0
 10
33.3375
 20
117.063012
 42
0.0
  0
VERTEX
  8
0
 10
33.381696
 20
117.041168
 42
0.0
  0
VERTEX
  8
0
 10
35.680396
 20
115.881912
 42
0.0
  0
VERTEX
  8
0
 10
35.969448
 20
115.735862
 42
0.0
  0
VERTEX
  8
0
 10
37.000434
 20
115.216432
 42
0.0
  0
VERTEX
  8
0
 10
37.000434
 20
43.616372
 42
0.0
  0
VERTEX
  8
0
 10
36.307268
 20
43.11904
 42
0.0
  0
VERTEX
  8
0
 10
36.281106
 20
43.099482
 42
0.0
  0
VERTEX
  8
0
 10
34.998152
 20
42.174922
 42
0.0
  0
VERTEX
  8
0
 10
34.998152
 20
30.172152
 42
0.0
  0
VERTEX
  8
0
 10
37.000434
 20
28.730702
 42
0.0
  0
VERTEX
  8
0
 10
37.000434
 20
4.4662344
 42
0.0
  0
VERTEX
  8
0
 10
36.829238
 20
4.4662344
 42
0.0
  0
VERTEX
  8
0
 10
31.018226
 20
1.62470846
 42
0.0
  0
VERTEX
  8
0
 10
30.945328
 20
1.58887922
 42
0.0
  0
VERTEX
  8
0
 10
30.852872
 20
1.54478228
 42
0.0
  0
VERTEX
  8
0
 10
30.169358
 20
1.20991884
 42
0.0
  0
VERTEX
  8
0
 10
30.093666
 20
1.17271038
 42
0.0
  0
VERTEX
  8
0
 10
30.093666
 20
1.1740896
 42
0.0
  0
VERTEX
  8
0
 10
29.557472
 20
1.5489174
 42
0.0
  0
VERTEX
  8
0
 10
28.194762
 20
2.50251722
 42
0.0
  0
VERTEX
  8
0
 10
28.194762
 20
11.7794532
 42
0.0
  0
VERTEX
  8
0
 10
25.677114
 20
13.5405876
 42
0.0
  0
VERTEX
  8
0
 10
23.091775
 20
15.3499566
 42
0.0
  0
VERTEX
  8
0
 10
19.0003938
 20
18.2121556
 42
0.0
  0
VERTEX
  8
0
 10
14.9089872
 20
15.3499566
 42
0.0
  0
VERTEX
  8
0
 10
12.265914
 20
13.5006334
 42
0.0
  0
VERTEX
  8
0
 10
10.1685344
 20
12.0344184
 42
0.0
  0
VERTEX
  8
0
 10
9.8061272
 20
11.7794532
 42
0.0
  0
VERTEX
  8
0
 10
9.8061272
 20
2.50251722
 42
0.0
  0
VERTEX
  8
0
 10
8.5617304
 20
1.63159694
 42
0.0
  0
VERTEX
  8
0
 10
8.4694268
 20
1.56820616
 42
0.0
  0
VERTEX
  8
0
 10
7.9058262
 20
1.1740896
 42
0.0
  0
VERTEX
  8
0
 10
7.7900276
 20
1.23058682
 42
0.0
  0
VERTEX
  8
0
 10
7.1740522
 20
1.53237946
 42
0.0
  0
VERTEX
  8
0
 10
6.9246496
 20
1.65364668
 42
0.0
  0
VERTEX
  8
0
 10
6.3279528
 20
1.9457924
 42
0.0
  0
VERTEX
  8
0
 10
1.17133116
 20
4.4662344
 42
0.0
  0
VERTEX
  8
0
 10
1.00045774
 20
4.4662344
 42
0.0
  0
VERTEX
  8
0
 10
1.00045774
 20
28.729432
 42
0.0
  0
VERTEX
  8
0
 10
3.0027372
 20
30.172152
 42
0.0
  0
VERTEX
  8
0
 10
3.0027372
 20
42.174922
 42
0.0
  0
VERTEX
  8
0
 10
2.32475024
 20
42.664126
 42
0.0
  0
VERTEX
  8
0
 10
1.09002576
 20
43.552872
 42
0.0
  0
VERTEX
  8
0
 10
1.00045774
 20
43.617896
 42
0.0
  0
VERTEX
  8
0
 10
1.00045774
 20
115.315746
 42
0.0
  0
VERTEX
  8
0
 10
1.96646038
 20
115.803426
 42
0.0
  0
VERTEX
  8
0
 10
2.32475024
 20
115.983766
 42
0.0
  0
VERTEX
  8
0
 10
4.6040294
 20
117.133116
 42
0.0
  0
VERTEX
  8
0
 10
6.2025276
 20
117.940582
 42
0.0
  0
VERTEX
  8
0
 10
6.2025276
 20
117.96014
 42
0.0
  0
VERTEX
  8
0
 10
6.2149482
 20
117.96014
 42
0.0
  0
VERTEX
  8
0
 10
6.2149482
 20
166.844472
 42
0.0
  0
VERTEX
  8
0
 10
6.3114174
 20
166.891462
 42
0.0
  0
VERTEX
  8
0
 10
6.3279528
 20
166.899844
 42
0.0
  0
VERTEX
  8
0
 10
6.9246496
 20
167.190674
 42
0.0
  0
VERTEX
  8
0
 10
7.1575422
 20
167.304974
 42
0.0
  0
VERTEX
  8
0
 10
7.1740522
 20
167.313102
 42
0.0
  0
VERTEX
  8
0
 10
8.452866
 20
167.938704
 42
0.0
  0
VERTEX
  8
0
 10
8.4694268
 20
167.946832
 42
0.0
  0
VERTEX
  8
0
 10
8.5466174
 20
167.984424
 42
0.0
  0
VERTEX
  8
0
 10
8.5617304
 20
167.991028
 42
0.0
  0
VERTEX
  8
0
 10
9.4436946
 20
168.422574
 42
0.0
  0
VERTEX
  8
0
 10
9.9825302
 20
168.685718
 42
0.0
  0
VERTEX
  8
0
 10
13.198856
 20
168.685718
 42
0.0
  0
VERTEX
  8
0
 10
14.48181
 20
167.945562
 42
0.0
  0
VERTEX
  8
0
 10
14.48181
 20
161.807906
 42
0.0
  0
VERTEX
  8
0
 10
14.6264884
 20
161.697416
 42
0.0
  0
VERTEX
  8
0
 10
16.4138102
 20
160.331912
 42
0.0
  0
VERTEX
  8
0
 10
16.7597074
 20
160.068768
 42
0.0
  0
VERTEX
  8
0
 10
16.9981118
 20
159.885634
 42
0.0
  0
VERTEX
  8
0
 10
17.6995328
 20
159.34944
 42
0.0
  0
VERTEX
  8
0
 10
18.9714378
 20
158.37789
 42
0.0
  0
VERTEX
  8
0
 10
18.9714378
 20
158.380684
 42
0.0
  0
VERTEX
  8
0
 10
18.9838584
 20
158.371032
 42
0.0
  0
VERTEX
  8
0
 10
18.996279
 20
158.380684
 42
0.0
  0
VERTEX
  8
0
 10
18.996279
 20
158.37789
 42
0.0
  0
VERTEX
  8
0
 10
20.268184
 20
159.34944
 42
0.0
  0
VERTEX
  8
0
 10
20.969605
 20
159.885634
 42
0.0
  0
VERTEX
  8
0
 10
21.2080094
 20
160.068768
 42
0.0
  0
VERTEX
  8
0
 10
21.5539066
 20
160.331912
 42
0.0
  0
VERTEX
  8
0
 10
23.286085
 20
161.654744
 42
0.0
  0
VERTEX
  8
0
 10
23.2915968
 20
161.659062
 42
0.0
  0
VERTEX
  8
0
 10
23.3412284
 20
161.697416
 42
0.0
  0
VERTEX
  8
0
 10
23.4859068
 20
161.807906
 42
0.0
  0
VERTEX
  8
0
 10
23.4859068
 20
167.945562
 42
0.0
  0
VERTEX
  8
0
 10
24.0371122
 20
168.264078
 42
0.0
  0
VERTEX
  8
0
 10
24.7674638
 20
168.685718
 42
0.0
  0
VERTEX
  8
0
 10
27.985212
 20
168.685718
 42
0.0
  0
VERTEX
  8
0
 10
28.540456
 20
168.414446
 42
0.0
  0
VERTEX
  8
0
 10
29.540962
 20
167.924988
 42
0.0
  0
VERTEX
  8
0
 10
29.557472
 20
167.917876
 42
0.0
  0
VERTEX
  8
0
 10
29.633418
 20
167.881046
 42
0.0
  0
VERTEX
  8
0
 10
29.648404
 20
167.87241
 42
0.0
  0
VERTEX
  8
0
 10
30.169358
 20
167.619172
 42
0.0
  0
VERTEX
  8
0
 10
30.836362
 20
167.292528
 42
0.0
  0
VERTEX
  8
0
 10
30.852872
 20
167.284146
 42
0.0
  0
VERTEX
  8
0
 10
30.928818
 20
167.247062
 42
0.0
  0
VERTEX
  8
0
 10
30.945328
 20
167.238934
 42
0.0
  0
VERTEX
  8
0
 10
31.018226
 20
167.202866
 42
0.0
  0
SEQEND
  0
POLYLINE
  8
0
 66
     1
 10
0.0
 20
0.0
 30
0.0
 70
     1
  0
VERTEX
  8
0
 10
18.9879732
 20
51.050698
 42
0.0
  0
VERTEX
  8
0
 10
18.9879732
 20
51.064668
 42
0.0
  0
VERTEX
  8
0
 10
18.9756034
 20
51.071526
 42
0.0
  0
VERTEX
  8
0
 10
16.9581322
 20
49.90719
 42
0.0
  0
VERTEX
  8
0
 10
16.5723062
 20
49.683924
 42
0.0
  0
VERTEX
  8
0
 10
16.077565
 20
49.398428
 42
0.0
  0
VERTEX
  8
0
 10
16.077565
 20
46.05401
 42
0.0
  0
VERTEX
  8
0
 10
16.5901878
 20
45.759116
 42
0.0
  0
VERTEX
  8
0
 10
18.9756034
 20
44.381166
 42
0.0
  0
VERTEX
  8
0
 10
18.9879732
 20
44.388024
 42
0.0
  0
VERTEX
  8
0
 10
18.9879732
 20
44.40301
 42
0.0
  0
VERTEX
  8
0
 10
19.0003938
 20
44.394882
 42
0.0
  0
VERTEX
  8
0
 10
19.0114174
 20
44.40301
 42
0.0
  0
VERTEX
  8
0
 10
19.0114174
 20
44.388024
 42
0.0
  0
VERTEX
  8
0
 10
19.0252096
 20
44.381166
 42
0.0
  0
VERTEX
  8
0
 10
21.4105744
 20
45.759116
 42
0.0
  0
VERTEX
  8
0
 10
21.8722194
 20
46.025054
 42
0.0
  0
VERTEX
  8
0
 10
21.9218256
 20
46.05401
 42
0.0
  0
VERTEX
  8
0
 10
21.9218256
 20
49.398428
 42
0.0
  0
VERTEX
  8
0
 10
21.4285068
 20
49.683924
 42
0.0
  0
VERTEX
  8
0
 10
21.04263
 20
49.90719
 42
0.0
  0
VERTEX
  8
0
 10
19.0252096
 20
51.071526
 42
0.0
  0
VERTEX
  8
0
 10
19.0114174
 20
51.064668
 42
0.0
  0
VERTEX
  8
0
 10
19.0114174
 20
51.050698
 42
0.0
  0
VERTEX
  8
0
 10
19.0003938
 20
51.057556
 42
0.0
  0
SEQEND
  0
POLYLINE
  8
0
 66
     1
 10
0.0
 20
0.0
 30
0.0
 70
     1
  0
VERTEX
  8
0
 10
18.9879732
 20
56.14289
 42
0.0
  0
VERTEX
  8
0
 10
19.0003938
 20
56.135778
 42
0.0
  0
VERTEX
  8
0
 10
19.0114174
 20
56.14289
 42
0.0
  0
VERTEX
  8
0
 10
19.0114174
 20
56.128666
 42
0.0
  0
VERTEX
  8
0
 10
19.0252096
 20
56.120538
 42
0.0
  0
VERTEX
  8
0
 10
20.2916028
 20
56.852312
 42
0.0
  0
VERTEX
  8
0
 10
21.1804504
 20
57.366154
 42
0.0
  0
VERTEX
  8
0
 10
21.9218256
 20
57.793382
 42
0.0
  0
VERTEX
  8
0
 10
21.9218256
 20
61.139578
 42
0.0
  0
VERTEX
  8
0
 10
21.8722194
 20
61.168534
 42
0.0
  0
VERTEX
  8
0
 10
21.8446604
 20
61.183774
 42
0.0
  0
VERTEX
  8
0
 10
19.3807334
 20
62.605666
 42
0.0
  0
VERTEX
  8
0
 10
19.0252096
 20
62.810898
 42
0.0
  0
VERTEX
  8
0
 10
19.0114174
 20
62.80404
 42
0.0
  0
VERTEX
  8
0
 10
19.0114174
 20
62.790324
 42
0.0
  0
VERTEX
  8
0
 10
19.0003938
 20
62.797182
 42
0.0
  0
VERTEX
  8
0
 10
18.9879732
 20
62.790324
 42
0.0
  0
VERTEX
  8
0
 10
18.9879732
 20
62.80404
 42
0.0
  0
VERTEX
  8
0
 10
18.9756034
 20
62.810898
 42
0.0
  0
VERTEX
  8
0
 10
18.6200796
 20
62.605666
 42
0.0
  0
VERTEX
  8
0
 10
17.8717956
 20
62.174374
 42
0.0
  0
VERTEX
  8
0
 10
16.1561272
 20
61.183774
 42
0.0
  0
VERTEX
  8
0
 10
16.077565
 20
61.139578
 42
0.0
  0
VERTEX
  8
0
 10
16.077565
 20
57.793382
 42
0.0
  0
VERTEX
  8
0
 10
16.8203372
 20
57.364884
 42
0.0
  0
VERTEX
  8
0
 10
17.7077878
 20
56.852312
 42
0.0
  0
VERTEX
  8
0
 10
18.9756034
 20
56.120538
 42
0.0
  0
VERTEX
  8
0
 10
18.9879732
 20
56.128666
 42
0.0
  0
SEQEND
  0
POLYLINE
  8
0
 66
     1
 10
0.0
 20
0.0
 30
0.0
 70
     1
  0
VERTEX
  8
0
 10
16.382111
 20
80.939132
 42
0.0
  0
VERTEX
  8
0
 10
16.4593016
 20
81.038446
 42
0.0
  0
VERTEX
  8
0
 10
16.53921
 20
81.141824
 42
0.0
  0
VERTEX
  8
0
 10
16.6287704
 20
81.257394
 42
0.0
  0
VERTEX
  8
0
 10
16.6976806
 20
81.345532
 42
0.0
  0
VERTEX
  8
0
 10
17.076674
 20
81.694274
 42
0.0
  0
VERTEX
  8
0
 10
17.507966
 20
81.976722
 42
0.0
  0
VERTEX
  8
0
 10
17.9792376
 20
82.183478
 42
0.0
  0
VERTEX
  8
0
 10
18.25625
 20
82.253582
 42
0.0
  0
VERTEX
  8
0
 10
18.25625
 20
83.871562
 42
0.0
  0
VERTEX
  8
0
 10
18.2176674
 20
83.868768
 42
0.0
  0
VERTEX
  8
0
 10
17.4666402
 20
83.678522
 42
0.0
  0
VERTEX
  8
0
 10
16.7555672
 20
83.366102
 42
0.0
  0
VERTEX
  8
0
 10
16.153384
 20
82.97291
 42
0.0
  0
VERTEX
  8
0
 10
16.106521
 20
82.942684
 42
0.0
  0
VERTEX
  8
0
 10
15.53464
 20
82.416396
 42
0.0
  0
VERTEX
  8
0
 10
15.0592028
 20
81.80451
 42
0.0
  0
VERTEX
  8
0
 10
14.6995388
 20
81.141824
 42
0.0
  0
VERTEX
  8
0
 10
14.6884898
 20
81.122266
 42
0.0
  0
VERTEX
  8
0
 10
14.4377156
 20
80.387952
 42
0.0
  0
VERTEX
  8
0
 10
14.315059
 20
79.654654
 42
0.0
  0
VERTEX
  8
0
 10
14.3095472
 20
79.622904
 42
0.0
  0
VERTEX
  8
0
 10
14.3095472
 20
78.847188
 42
0.0
  0
VERTEX
  8
0
 10
14.389481
 20
78.373224
 42
0.0
  0
VERTEX
  8
0
 10
14.4377156
 20
78.082394
 42
0.0
  0
VERTEX
  8
0
 10
14.5906744
 20
77.634338
 42
0.0
  0
VERTEX
  8
0
 10
14.6884898
 20
77.347826
 42
0.0
  0
VERTEX
  8
0
 10
14.8524976
 20
77.044804
 42
0.0
  0
VERTEX
  8
0
 10
15.0592028
 20
76.665582
 42
0.0
  0
VERTEX
  8
0
 10
15.1170894
 20
76.58989
 42
0.0
  0
VERTEX
  8
0
 10
15.53464
 20
76.052426
 42
0.0
  0
VERTEX
  8
0
 10
16.106521
 20
75.527662
 42
0.0
  0
VERTEX
  8
0
 10
16.6287704
 20
75.185778
 42
0.0
  0
VERTEX
  8
0
 10
16.7555672
 20
75.103228
 42
0.0
  0
VERTEX
  8
0
 10
17.4487078
 20
74.799952
 42
0.0
  0
VERTEX
  8
0
 10
17.4666402
 20
74.791824
 42
0.0
  0
VERTEX
  8
0
 10
17.5368966
 20
74.77379
 42
0.0
  0
VERTEX
  8
0
 10
18.1955948
 20
74.606912
 42
0.0
  0
VERTEX
  8
0
 10
18.2176674
 20
74.601578
 42
0.0
  0
VERTEX
  8
0
 10
18.25625
 20
74.59726
 42
0.0
  0
VERTEX
  8
0
 10
18.25625
 20
76.21651
 42
0.0
  0
VERTEX
  8
0
 10
18.1955948
 20
76.23175
 42
0.0
  0
VERTEX
  8
0
 10
18.0798724
 20
76.261976
 42
0.0
  0
VERTEX
  8
0
 10
17.9792376
 20
76.286868
 42
0.0
  0
VERTEX
  8
0
 10
17.507966
 20
76.493624
 42
0.0
  0
VERTEX
  8
0
 10
17.360519
 20
76.58989
 42
0.0
  0
VERTEX
  8
0
 10
17.1413932
 20
76.7334
 42
0.0
  0
VERTEX
  8
0
 10
17.076674
 20
76.774548
 42
0.0
  0
VERTEX
  8
0
 10
16.7831262
 20
77.044804
 42
0.0
  0
VERTEX
  8
0
 10
16.6976806
 20
77.12456
 42
0.0
  0
VERTEX
  8
0
 10
16.6287704
 20
77.212952
 42
0.0
  0
VERTEX
  8
0
 10
16.382111
 20
77.529944
 42
0.0
  0
VERTEX
  8
0
 10
16.1368232
 20
77.983334
 42
0.0
  0
VERTEX
  8
0
 10
15.9700722
 20
78.469744
 42
0.0
  0
VERTEX
  8
0
 10
15.8846266
 20
78.976728
 42
0.0
  0
VERTEX
  8
0
 10
15.8846266
 20
79.492094
 42
0.0
  0
VERTEX
  8
0
 10
15.912211
 20
79.654654
 42
0.0
  0
VERTEX
  8
0
 10
15.9700722
 20
80.000348
 42
0.0
  0
VERTEX
  8
0
 10
16.1368232
 20
80.487012
 42
0.0
  0
SEQEND
  0
POLYLINE
  8
0
 66
     1
 10
0.0
 20
0.0
 30
0.0
 70
     1
  0
VERTEX
  8
0
 10
16.3876228
 20
66.756026
 42
0.0
  0
VERTEX
  8
0
 10
18.1955948
 20
66.756026
 42
0.0
  0
VERTEX
  8
0
 10
18.1955948
 20
68.353432
 42
0.0
  0
VERTEX
  8
0
 10
16.9581322
 20
68.353432
 42
0.0
  0
VERTEX
  8
0
 10
17.9944268
 20
71.35749
 42
0.0
  0
VERTEX
  8
0
 10
18.1955948
 20
71.940674
 42
0.0
  0
VERTEX
  8
0
 10
18.1955948
 20
72.971406
 42
0.0
  0
VERTEX
  8
0
 10
16.8768268
 20
72.971406
 42
0.0
  0
VERTEX
  8
0
 10
16.8685718
 20
72.949054
 42
0.0
  0
VERTEX
  8
0
 10
16.6287704
 20
72.291956
 42
0.0
  0
VERTEX
  8
0
 10
15.3720038
 20
68.853812
 42
0.0
  0
VERTEX
  8
0
 10
14.1758924
 20
65.580768
 42
0.0
  0
VERTEX
  8
0
 10
13.9705588
 20
65.02019
 42
0.0
  0
VERTEX
  8
0
 10
13.8754612
 20
64.757046
 42
0.0
  0
VERTEX
  8
0
 10
13.1974844
 20
62.904878
 42
0.0
  0
VERTEX
  8
0
 10
13.004546
 20
62.374272
 42
0.0
  0
VERTEX
  8
0
 10
14.8166582
 20
62.374272
 42
0.0
  0
VERTEX
  8
0
 10
15.6586428
 20
64.725296
 42
0.0
  0
VERTEX
  8
0
 10
15.6710634
 20
64.757046
 42
0.0
  0
SEQEND
  0
POLYLINE
  8
0
 66
     1
 10
0.0
 20
0.0
 30
0.0
 70
     1
  0
VERTEX
  8
0
 10
18.9879732
 20
111.169196
 42
0.0
  0
VERTEX
  8
0
 10
19.0003938
 20
111.162084
 42
0.0
  0
VERTEX
  8
0
 10
19.0114174
 20
111.169196
 42
0.0
  0
VERTEX
  8
0
 10
19.0114174
 20
111.153956
 42
0.0
  0
VERTEX
  8
0
 10
19.0252096
 20
111.147098
 42
0.0
  0
VERTEX
  8
0
 10
19.1767968
 20
111.23549
 42
0.0
  0
VERTEX
  8
0
 10
21.1804504
 20
112.392968
 42
0.0
  0
VERTEX
  8
0
 10
21.8722194
 20
112.79124
 42
0.0
  0
VERTEX
  8
0
 10
21.9218256
 20
112.820196
 42
0.0
  0
VERTEX
  8
0
 10
21.9218256
 20
116.16436
 42
0.0
  0
VERTEX
  8
0
 10
21.8722194
 20
116.193316
 42
0.0
  0
VERTEX
  8
0
 10
21.6765378
 20
116.3066
 42
0.0
  0
VERTEX
  8
0
 10
21.1804504
 20
116.593112
 42
0.0
  0
VERTEX
  8
0
 10
19.798284
 20
117.390926
 42
0.0
  0
VERTEX
  8
0
 10
19.0252096
 20
117.837204
 42
0.0
  0
VERTEX
  8
0
 10
19.0114174
 20
117.829076
 42
0.0
  0
VERTEX
  8
0
 10
19.0114174
 20
117.81536
 42
0.0
  0
VERTEX
  8
0
 10
19.0003938
 20
117.822218
 42
0.0
  0
VERTEX
  8
0
 10
18.9879732
 20
117.81536
 42
0.0
  0
VERTEX
  8
0
 10
18.9879732
 20
117.829076
 42
0.0
  0
VERTEX
  8
0
 10
18.9756034
 20
117.837204
 42
0.0
  0
VERTEX
  8
0
 10
18.2011574
 20
117.390926
 42
0.0
  0
VERTEX
  8
0
 10
16.8203372
 20
116.593112
 42
0.0
  0
VERTEX
  8
0
 10
16.077565
 20
116.16436
 42
0.0
  0
VERTEX
  8
0
 10
16.077565
 20
112.820196
 42
0.0
  0
VERTEX
  8
0
 10
16.8203372
 20
112.391444
 42
0.0
  0
VERTEX
  8
0
 10
18.8226446
 20
111.23549
 42
0.0
  0
VERTEX
  8
0
 10
18.9756034
 20
111.147098
 42
0.0
  0
VERTEX
  8
0
 10
18.9879732
 20
111.153956
 42
0.0
  0
SEQEND
  0
POLYLINE
  8
0
 66
     1
 10
0.0
 20
0.0
 30
0.0
 70
     1
  0
VERTEX
  8
0
 10
18.9879732
 20
99.4283
 42
0.0
  0
VERTEX
  8
0
 10
19.0003938
 20
99.421188
 42
0.0
  0
VERTEX
  8
0
 10
19.0114174
 20
99.4283
 42
0.0
  0
VERTEX
  8
0
 10
19.0114174
 20
99.414584
 42
0.0
  0
VERTEX
  8
0
 10
19.0252096
 20
99.407472
 42
0.0
  0
VERTEX
  8
0
 10
20.8814162
 20
100.479606
 42
0.0
  0
VERTEX
  8
0
 10
21.8722194
 20
101.05136
 42
0.0
  0
VERTEX
  8
0
 10
21.9218256
 20
101.080316
 42
0.0
  0
VERTEX
  8
0
 10
21.9218256
 20
104.424988
 42
0.0
  0
VERTEX
  8
0
 10
21.8722194
 20
104.453944
 42
0.0
  0
VERTEX
  8
0
 10
20.0876662
 20
105.484676
 42
0.0
  0
VERTEX
  8
0
 10
19.0252096
 20
106.097832
 42
0.0
  0
VERTEX
  8
0
 10
19.0114174
 20
106.090974
 42
0.0
  0
VERTEX
  8
0
 10
19.0114174
 20
106.077004
 42
0.0
  0
VERTEX
  8
0
 10
19.0003938
 20
106.084116
 42
0.0
  0
VERTEX
  8
0
 10
18.9879732
 20
106.077004
 42
0.0
  0
VERTEX
  8
0
 10
18.9879732
 20
106.090974
 42
0.0
  0
VERTEX
  8
0
 10
18.9756034
 20
106.097832
 42
0.0
  0
VERTEX
  8
0
 10
17.9117244
 20
105.484676
 42
0.0
  0
VERTEX
  8
0
 10
16.077565
 20
104.424988
 42
0.0
  0
VERTEX
  8
0
 10
16.077565
 20
101.080316
 42
0.0
  0
VERTEX
  8
0
 10
17.119346
 20
100.479606
 42
0.0
  0
VERTEX
  8
0
 10
18.9756034
 20
99.407472
 42
0.0
  0
VERTEX
  8
0
 10
18.9879732
 20
99.414584
 42
0.0
  0
SEQEND
  0
POLYLINE
  8
0
 66
     1
 10
0.0
 20
0.0
 30
0.0
 70
     1
  0
VERTEX
  8
0
 10
21.0826096
 20
68.353432
 42
0.0
  0
VERTEX
  8
0
 10
19.8685404
 20
68.353432
 42
0.0
  0
VERTEX
  8
0
 10
19.8685404
 20
66.756026
 42
0.0
  0
VERTEX
  8
0
 10
21.6544906
 20
66.756026
 42
0.0
  0
VERTEX
  8
0
 10
21.8722194
 20
66.1416
 42
0.0
  0
VERTEX
  8
0
 10
22.3641666
 20
64.757046
 42
0.0
  0
VERTEX
  8
0
 10
23.2103168
 20
62.374272
 42
0.0
  0
VERTEX
  8
0
 10
25.0513596
 20
62.374272
 42
0.0
  0
VERTEX
  8
0
 10
24.8184924
 20
63.007748
 42
0.0
  0
VERTEX
  8
0
 10
24.1777012
 20
64.757046
 42
0.0
  0
VERTEX
  8
0
 10
24.1390932
 20
64.86271
 42
0.0
  0
VERTEX
  8
0
 10
23.4445556
 20
66.756026
 42
0.0
  0
VERTEX
  8
0
 10
21.8722194
 20
71.048626
 42
0.0
  0
VERTEX
  8
0
 10
21.1749132
 20
72.949054
 42
0.0
  0
VERTEX
  8
0
 10
21.1666582
 20
72.971406
 42
0.0
  0
VERTEX
  8
0
 10
19.8685404
 20
72.971406
 42
0.0
  0
VERTEX
  8
0
 10
19.8685404
 20
71.84009
 42
0.0
  0
VERTEX
  8
0
 10
20.0160128
 20
71.418196
 42
0.0
  0
VERTEX
  8
0
 10
20.4914246
 20
70.053962
 42
0.0
  0
SEQEND
  0
POLYLINE
  8
0
 66
     1
 10
0.0
 20
0.0
 30
0.0
 70
     1
  0
VERTEX
  8
0
 10
20.9062066
 20
76.774548
 42
0.0
  0
VERTEX
  8
0
 10
20.8607406
 20
76.745846
 42
0.0
  0
VERTEX
  8
0
 10
20.7256888
 20
76.657454
 42
0.0
  0
VERTEX
  8
0
 10
20.6223362
 20
76.58989
 42
0.0
  0
VERTEX
  8
0
 10
20.4749146
 20
76.493624
 42
0.0
  0
VERTEX
  8
0
 10
20.0035922
 20
76.286868
 42
0.0
  0
VERTEX
  8
0
 10
19.8203312
 20
76.239878
 42
0.0
  0
VERTEX
  8
0
 10
19.8203312
 20
74.615294
 42
0.0
  0
VERTEX
  8
0
 10
20.5176374
 20
74.791824
 42
0.0
  0
VERTEX
  8
0
 10
20.553426
 20
74.808334
 42
0.0
  0
VERTEX
  8
0
 10
20.7256888
 20
74.882756
 42
0.0
  0
VERTEX
  8
0
 10
21.2273134
 20
75.103228
 42
0.0
  0
VERTEX
  8
0
 10
21.8722194
 20
75.524868
 42
0.0
  0
VERTEX
  8
0
 10
21.8763596
 20
75.527662
 42
0.0
  0
VERTEX
  8
0
 10
22.4482406
 20
76.052426
 42
0.0
  0
VERTEX
  8
0
 10
22.8657912
 20
76.58989
 42
0.0
  0
VERTEX
  8
0
 10
22.9236778
 20
76.665582
 42
0.0
  0
VERTEX
  8
0
 10
23.1303576
 20
77.044804
 42
0.0
  0
VERTEX
  8
0
 10
23.2943654
 20
77.347826
 42
0.0
  0
VERTEX
  8
0
 10
23.545165
 20
78.082394
 42
0.0
  0
VERTEX
  8
0
 10
23.6733334
 20
78.847188
 42
0.0
  0
VERTEX
  8
0
 10
23.6733334
 20
79.622904
 42
0.0
  0
VERTEX
  8
0
 10
23.6677962
 20
79.654654
 42
0.0
  0
VERTEX
  8
0
 10
23.545165
 20
80.387952
 42
0.0
  0
VERTEX
  8
0
 10
23.2943654
 20
81.122266
 42
0.0
  0
VERTEX
  8
0
 10
23.2833418
 20
81.141824
 42
0.0
  0
VERTEX
  8
0
 10
22.9236778
 20
81.80451
 42
0.0
  0
VERTEX
  8
0
 10
22.4482406
 20
82.416396
 42
0.0
  0
VERTEX
  8
0
 10
21.8763596
 20
82.942684
 42
0.0
  0
VERTEX
  8
0
 10
21.8722194
 20
82.945478
 42
0.0
  0
VERTEX
  8
0
 10
21.8460574
 20
82.963512
 42
0.0
  0
VERTEX
  8
0
 10
21.2273134
 20
83.366102
 42
0.0
  0
VERTEX
  8
0
 10
20.7256888
 20
83.586574
 42
0.0
  0
VERTEX
  8
0
 10
20.5176374
 20
83.678522
 42
0.0
  0
VERTEX
  8
0
 10
19.8203312
 20
83.853528
 42
0.0
  0
VERTEX
  8
0
 10
19.8203312
 20
82.228944
 42
0.0
  0
VERTEX
  8
0
 10
20.0035922
 20
82.183478
 42
0.0
  0
VERTEX
  8
0
 10
20.4749146
 20
81.976722
 42
0.0
  0
VERTEX
  8
0
 10
20.7256888
 20
81.812638
 42
0.0
  0
VERTEX
  8
0
 10
20.9062066
 20
81.694274
 42
0.0
  0
VERTEX
  8
0
 10
21.2851746
 20
81.345532
 42
0.0
  0
VERTEX
  8
0
 10
21.4436706
 20
81.141824
 42
0.0
  0
VERTEX
  8
0
 10
21.5373712
 20
81.020412
 42
0.0
  0
VERTEX
  8
0
 10
21.6007696
 20
80.939132
 42
0.0
  0
VERTEX
  8
0
 10
21.8460574
 20
80.487012
 42
0.0
  0
VERTEX
  8
0
 10
21.8722194
 20
80.411574
 42
0.0
  0
VERTEX
  8
0
 10
22.0127576
 20
80.000348
 42
0.0
  0
VERTEX
  8
0
 10
22.0706696
 20
79.654654
 42
0.0
  0
VERTEX
  8
0
 10
22.0982032
 20
79.492094
 42
0.0
  0
VERTEX
  8
0
 10
22.0982032
 20
78.976728
 42
0.0
  0
VERTEX
  8
0
 10
22.0127576
 20
78.469744
 42
0.0
  0
VERTEX
  8
0
 10
21.8722194
 20
78.059026
 42
0.0
  0
VERTEX
  8
0
 10
21.8460574
 20
77.983334
 42
0.0
  0
VERTEX
  8
0
 10
21.6007696
 20
77.529944
 42
0.0
  0
VERTEX
  8
0
 10
21.2851746
 20
77.12456
 42
0.0
  0
VERTEX
  8
0
 10
21.1997544
 20
77.044804
 42
0.0
  0
SEQEND
  0
POLYLINE
  8
0
 66
     1
 10
0.0
 20
0.0
 30
0.0
 70
     1
  0
VERTEX
  8
0
 10
16.5226746
 20
88.212422
 42
0.0
  0
VERTEX
  8
0
 10
16.077565
 20
88.81999
 42
0.0
  0
VERTEX
  8
0
 10
16.050006
 20
88.858598
 42
0.0
  0
VERTEX
  8
0
 10
15.883255
 20
89.332816
 42
0.0
  0
VERTEX
  8
0
 10
15.7661356
 20
89.663524
 42
0.0
  0
VERTEX
  8
0
 10
15.672435
 20
90.626946
 42
0.0
  0
VERTEX
  8
0
 10
15.672435
 20
92.419678
 42
0.0
  0
VERTEX
  8
0
 10
13.8244834
 20
92.419678
 42
0.0
  0
VERTEX
  8
0
 10
13.8244834
 20
90.706702
 42
0.0
  0
VERTEX
  8
0
 10
13.8616944
 20
90.00236
 42
0.0
  0
VERTEX
  8
0
 10
13.9705588
 20
89.364312
 42
0.0
  0
VERTEX
  8
0
 10
13.974699
 20
89.346532
 42
0.0
  0
VERTEX
  8
0
 10
13.9774422
 20
89.332816
 42
0.0
  0
VERTEX
  8
0
 10
14.1607032
 20
88.73744
 42
0.0
  0
VERTEX
  8
0
 10
14.4225518
 20
88.171274
 42
0.0
  0
VERTEX
  8
0
 10
14.7546568
 20
87.662512
 42
0.0
  0
VERTEX
  8
0
 10
15.1584406
 20
87.21471
 42
0.0
  0
VERTEX
  8
0
 10
15.5291028
 20
86.90991
 42
0.0
  0
VERTEX
  8
0
 10
15.6324554
 20
86.82609
 42
0.0
  0
VERTEX
  8
0
 10
16.077565
 20
86.560152
 42
0.0
  0
VERTEX
  8
0
 10
16.1754312
 20
86.50224
 42
0.0
  0
VERTEX
  8
0
 10
16.6287704
 20
86.3092
 42
0.0
  0
VERTEX
  8
0
 10
16.7858694
 20
86.24316
 42
0.0
  0
VERTEX
  8
0
 10
17.313656
 20
86.09711
 42
0.0
  0
VERTEX
  8
0
 10
17.473549
 20
86.053168
 42
0.0
  0
VERTEX
  8
0
 10
18.1873398
 20
85.945472
 42
0.0
  0
VERTEX
  8
0
 10
18.1873398
 20
87.44204
 42
0.0
  0
VERTEX
  8
0
 10
18.0660548
 20
87.452962
 42
0.0
  0
VERTEX
  8
0
 10
17.1965366
 20
87.738204
 42
0.0
  0
VERTEX
  8
0
 10
16.6287704
 20
88.136476
 42
0.0
  0
SEQEND
  0
POLYLINE
  8
0
 66
     1
 10
0.0
 20
0.0
 30
0.0
 70
     1
  0
VERTEX
  8
0
 10
21.9549218
 20
88.584278
 42
0.0
  0
VERTEX
  8
0
 10
21.8722194
 20
88.479884
 42
0.0
  0
VERTEX
  8
0
 10
21.7123772
 20
88.276938
 42
0.0
  0
VERTEX
  8
0
 10
21.4133176
 20
88.002872
 42
0.0
  0
VERTEX
  8
0
 10
21.0605624
 20
87.775796
 42
0.0
  0
VERTEX
  8
0
 10
20.7256888
 20
87.625428
 42
0.0
  0
VERTEX
  8
0
 10
20.656804
 20
87.594948
 42
0.0
  0
VERTEX
  8
0
 10
20.2075796
 20
87.462868
 42
0.0
  0
VERTEX
  8
0
 10
19.8327518
 20
87.406226
 42
0.0
  0
VERTEX
  8
0
 10
19.8327518
 20
85.937344
 42
0.0
  0
VERTEX
  8
0
 10
19.9044052
 20
85.941154
 42
0.0
  0
VERTEX
  8
0
 10
20.6857346
 20
86.058502
 42
0.0
  0
VERTEX
  8
0
 10
20.7256888
 20
86.069678
 42
0.0
  0
VERTEX
  8
0
 10
21.0081876
 20
86.149434
 42
0.0
  0
VERTEX
  8
0
 10
21.3898988
 20
86.255606
 42
0.0
  0
VERTEX
  8
0
 10
21.487765
 20
86.298278
 42
0.0
  0
VERTEX
  8
0
 10
21.8722194
 20
86.466426
 42
0.0
  0
VERTEX
  8
0
 10
22.0196918
 20
86.531196
 42
0.0
  0
VERTEX
  8
0
 10
22.4523554
 20
86.792816
 42
0.0
  0
VERTEX
  8
0
 10
22.576409
 20
86.868762
 42
0.0
  0
VERTEX
  8
0
 10
22.7734622
 20
87.030052
 42
0.0
  0
VERTEX
  8
0
 10
22.9842822
 20
87.204804
 42
0.0
  0
VERTEX
  8
0
 10
23.0614728
 20
87.267034
 42
0.0
  0
VERTEX
  8
0
 10
23.4638596
 20
87.720424
 42
0.0
  0
VERTEX
  8
0
 10
23.7904528
 20
88.223344
 42
0.0
  0
VERTEX
  8
0
 10
24.044021
 20
88.775794
 42
0.0
  0
VERTEX
  8
0
 10
24.21763
 20
89.332816
 42
0.0
  0
VERTEX
  8
0
 10
24.2314222
 20
89.377012
 42
0.0
  0
VERTEX
  8
0
 10
24.3444268
 20
90.006678
 42
0.0
  0
VERTEX
  8
0
 10
24.3816378
 20
90.666824
 42
0.0
  0
VERTEX
  8
0
 10
24.3816378
 20
92.419678
 42
0.0
  0
VERTEX
  8
0
 10
22.5185224
 20
92.419678
 42
0.0
  0
VERTEX
  8
0
 10
22.5185224
 20
90.640662
 42
0.0
  0
VERTEX
  8
0
 10
22.5006154
 20
90.26144
 42
0.0
  0
VERTEX
  8
0
 10
22.4964752
 20
90.171778
 42
0.0
  0
VERTEX
  8
0
 10
22.427565
 20
89.729818
 42
0.0
  0
VERTEX
  8
0
 10
22.3187006
 20
89.332816
 42
0.0
  0
VERTEX
  8
0
 10
22.3145604
 20
89.314782
 42
0.0
  0
VERTEX
  8
0
 10
22.1560898
 20
88.93175
 42
0.0
  0
SEQEND
  0
POLYLINE
  8
0
 66
     1
 10
0.0
 20
0.0
 30
0.0
 70
     1
  0
VERTEX
  8
0
 10
8.5148928
 20
14.5507202
 42
0.0
  0
VERTEX
  8
0
 10
8.5245702
 20
14.5507202
 42
0.0
  0
VERTEX
  8
0
 10
8.5245702
 20
21.6834212
 42
0.0
  0
VERTEX
  8
0
 10
6.9990462
 20
21.6834212
 42
0.0
  0
VERTEX
  8
0
 10
6.9990462
 20
14.5507202
 42
0.0
  0
VERTEX
  8
0
 10
7.0307454
 20
14.5507202
 42
0.0
  0
VERTEX
  8
0
 10
7.0307454
 20
14.5452084
 42
0.0
  0
VERTEX
  8
0
 10
8.5148928
 20
14.5452084
 42
0.0
  0
SEQEND
  0
POLYLINE
  8
0
 66
     1
 10
0.0
 20
0.0
 30
0.0
 70
     1
  0
VERTEX
  8
0
 10
32.72282
 20
9.5993966
 42
0.0
  0
VERTEX
  8
0
 10
32.600392
 20
9.4574868
 42
0.0
  0
VERTEX
  8
0
 10
32.459676
 20
9.2287344
 42
0.0
  0
VERTEX
  8
0
 10
32.357822
 20
8.9820496
 42
0.0
  0
VERTEX
  8
0
 10
32.35071
 20
8.9503504
 42
0.0
  0
VERTEX
  8
0
 10
32.295592
 20
8.722995
 42
0.0
  0
VERTEX
  8
0
 10
32.275018
 20
8.45566
 42
0.0
  0
VERTEX
  8
0
 10
32.295592
 20
8.1896712
 42
0.0
  0
VERTEX
  8
0
 10
32.357822
 20
7.9306166
 42
0.0
  0
VERTEX
  8
0
 10
32.42945
 20
7.7556106
 42
0.0
  0
VERTEX
  8
0
 10
32.459676
 20
7.6825602
 42
0.0
  0
VERTEX
  8
0
 10
32.568642
 20
7.5061572
 42
0.0
  0
VERTEX
  8
0
 10
32.600392
 20
7.4551794
 42
0.0
  0
VERTEX
  8
0
 10
32.635952
 20
7.4124566
 42
0.0
  0
VERTEX
  8
0
 10
32.773874
 20
7.2526144
 42
0.0
  0
VERTEX
  8
0
 10
32.976566
 20
7.07898
 42
0.0
  0
VERTEX
  8
0
 10
33.203896
 20
6.9384418
 42
0.0
  0
VERTEX
  8
0
 10
33.45053
 20
6.8364354
 42
0.0
  0
VERTEX
  8
0
 10
33.71088
 20
6.774434
 42
0.0
  0
VERTEX
  8
0
 10
33.713674
 20
6.774434
 42
0.0
  0
VERTEX
  8
0
 10
33.976818
 20
6.7537584
 42
0.0
  0
VERTEX
  8
0
 10
34.24428
 20
6.774434
 42
0.0
  0
VERTEX
  8
0
 10
34.50336
 20
6.8364354
 42
0.0
  0
VERTEX
  8
0
 10
34.696146
 20
6.9163946
 42
0.0
  0
VERTEX
  8
0
 10
34.749994
 20
6.9384418
 42
0.0
  0
VERTEX
  8
0
 10
34.977324
 20
7.07898
 42
0.0
  0
VERTEX
  8
0
 10
35.181286
 20
7.2526144
 42
0.0
  0
VERTEX
  8
0
 10
35.318954
 20
7.4124566
 42
0.0
  0
VERTEX
  8
0
 10
35.355022
 20
7.4551794
 42
0.0
  0
VERTEX
  8
0
 10
35.49396
 20
7.6825602
 42
0.0
  0
VERTEX
  8
0
 10
35.561778
 20
7.8437994
 42
0.0
  0
VERTEX
  8
0
 10
35.597338
 20
7.9306166
 42
0.0
  0
VERTEX
  8
0
 10
35.659568
 20
8.1896712
 42
0.0
  0
VERTEX
  8
0
 10
35.680396
 20
8.45566
 42
0.0
  0
VERTEX
  8
0
 10
35.659568
 20
8.722995
 42
0.0
  0
VERTEX
  8
0
 10
35.597338
 20
8.9820496
 42
0.0
  0
VERTEX
  8
0
 10
35.49396
 20
9.2287344
 42
0.0
  0
VERTEX
  8
0
 10
35.355022
 20
9.4574868
 42
0.0
  0
VERTEX
  8
0
 10
35.352228
 20
9.4616016
 42
0.0
  0
VERTEX
  8
0
 10
35.294316
 20
9.5277432
 42
0.0
  0
VERTEX
  8
0
 10
35.181286
 20
9.6600518
 42
0.0
  0
VERTEX
  8
0
 10
34.977324
 20
9.8336862
 42
0.0
  0
VERTEX
  8
0
 10
34.749994
 20
9.9728528
 42
0.0
  0
VERTEX
  8
0
 10
34.674302
 20
10.0045774
 42
0.0
  0
VERTEX
  8
0
 10
34.50336
 20
10.0748338
 42
0.0
  0
VERTEX
  8
0
 10
34.42208
 20
10.0955094
 42
0.0
  0
VERTEX
  8
0
 10
34.24428
 20
10.1382322
 42
0.0
  0
VERTEX
  8
0
 10
33.976818
 20
10.1589078
 42
0.0
  0
VERTEX
  8
0
 10
33.71088
 20
10.1382322
 42
0.0
  0
VERTEX
  8
0
 10
33.636458
 20
10.1203252
 42
0.0
  0
VERTEX
  8
0
 10
33.45053
 20
10.0748338
 42
0.0
  0
VERTEX
  8
0
 10
33.348422
 20
10.032111
 42
0.0
  0
VERTEX
  8
0
 10
33.203896
 20
9.9728528
 42
0.0
  0
VERTEX
  8
0
 10
33.01365
 20
9.8557334
 42
0.0
  0
VERTEX
  8
0
 10
32.976566
 20
9.8336862
 42
0.0
  0
VERTEX
  8
0
 10
32.773874
 20
9.6600518
 42
0.0
  0
SEQEND
  0
POLYLINE
  8
0
 66
     1
 10
0.0
 20
0.0
 30
0.0
 70
     1
  0
VERTEX
  8
0
 10
32.538162
 20
47.523146
 42
0.0
  0
VERTEX
  8
0
 10
32.600392
 20
47.422562
 42
0.0
  0
VERTEX
  8
0
 10
32.773874
 20
47.2186
 42
0.0
  0
VERTEX
  8
0
 10
32.976566
 20
47.046134
 42
0.0
  0
VERTEX
  8
0
 10
33.01365
 20
47.02429
 42
0.0
  0
VERTEX
  8
0
 10
33.203896
 20
46.905672
 42
0.0
  0
VERTEX
  8
0
 10
33.45053
 20
46.803818
 42
0.0
  0
VERTEX
  8
0
 10
33.71088
 20
46.741588
 42
0.0
  0
VERTEX
  8
0
 10
33.75787
 20
46.738794
 42
0.0
  0
VERTEX
  8
0
 10
33.976818
 20
46.721268
 42
0.0
  0
VERTEX
  8
0
 10
34.24428
 20
46.741588
 42
0.0
  0
VERTEX
  8
0
 10
34.50336
 20
46.803818
 42
0.0
  0
VERTEX
  8
0
 10
34.749994
 20
46.905672
 42
0.0
  0
VERTEX
  8
0
 10
34.820352
 20
46.949868
 42
0.0
  0
VERTEX
  8
0
 10
34.977324
 20
47.046134
 42
0.0
  0
VERTEX
  8
0
 10
35.181286
 20
47.2186
 42
0.0
  0
VERTEX
  8
0
 10
35.355022
 20
47.422562
 42
0.0
  0
VERTEX
  8
0
 10
35.49396
 20
47.649638
 42
0.0
  0
VERTEX
  8
0
 10
35.54095
 20
47.764446
 42
0.0
  0
VERTEX
  8
0
 10
35.563048
 20
47.816516
 42
0.0
  0
VERTEX
  8
0
 10
35.597338
 20
47.896526
 42
0.0
  0
VERTEX
  8
0
 10
35.659568
 20
48.156876
 42
0.0
  0
VERTEX
  8
0
 10
35.676078
 20
48.373284
 42
0.0
  0
VERTEX
  8
0
 10
35.680396
 20
48.423068
 42
0.0
  0
VERTEX
  8
0
 10
35.659568
 20
48.689006
 42
0.0
  0
VERTEX
  8
0
 10
35.597338
 20
48.949356
 42
0.0
  0
VERTEX
  8
0
 10
35.49396
 20
49.19599
 42
0.0
  0
VERTEX
  8
0
 10
35.355022
 20
49.424844
 42
0.0
  0
VERTEX
  8
0
 10
35.298634
 20
49.490884
 42
0.0
  0
VERTEX
  8
0
 10
35.181286
 20
49.627282
 42
0.0
  0
VERTEX
  8
0
 10
35.061398
 20
49.73066
 42
0.0
  0
VERTEX
  8
0
 10
34.977324
 20
49.801018
 42
0.0
  0
VERTEX
  8
0
 10
34.749994
 20
49.94021
 42
0.0
  0
VERTEX
  8
0
 10
34.50336
 20
50.042318
 42
0.0
  0
VERTEX
  8
0
 10
34.467546
 20
50.050446
 42
0.0
  0
VERTEX
  8
0
 10
34.24428
 20
50.10531
 42
0.0
  0
VERTEX
  8
0
 10
34.008568
 20
50.123344
 42
0.0
  0
VERTEX
  8
0
 10
33.976818
 20
50.126138
 42
0.0
  0
VERTEX
  8
0
 10
33.71088
 20
50.10531
 42
0.0
  0
VERTEX
  8
0
 10
33.45053
 20
50.042318
 42
0.0
  0
VERTEX
  8
0
 10
33.203896
 20
49.94021
 42
0.0
  0
VERTEX
  8
0
 10
33.01365
 20
49.822862
 42
0.0
  0
VERTEX
  8
0
 10
32.976566
 20
49.801018
 42
0.0
  0
VERTEX
  8
0
 10
32.773874
 20
49.627282
 42
0.0
  0
VERTEX
  8
0
 10
32.718756
 20
49.562512
 42
0.0
  0
VERTEX
  8
0
 10
32.600392
 20
49.424844
 42
0.0
  0
VERTEX
  8
0
 10
32.459676
 20
49.19599
 42
0.0
  0
VERTEX
  8
0
 10
32.357822
 20
48.949356
 42
0.0
  0
VERTEX
  8
0
 10
32.295592
 20
48.689006
 42
0.0
  0
VERTEX
  8
0
 10
32.275018
 20
48.423068
 42
0.0
  0
VERTEX
  8
0
 10
32.279082
 20
48.373284
 42
0.0
  0
VERTEX
  8
0
 10
32.295592
 20
48.156876
 42
0.0
  0
VERTEX
  8
0
 10
32.357822
 20
47.896526
 42
0.0
  0
VERTEX
  8
0
 10
32.427926
 20
47.728378
 42
0.0
  0
VERTEX
  8
0
 10
32.459676
 20
47.649638
 42
0.0
  0
SEQEND
  0
POLYLINE
  8
0
 66
     1
 10
0.0
 20
0.0
 30
0.0
 70
     1
  0
VERTEX
  8
0
 10
32.546544
 20
110.794546
 42
0.0
  0
VERTEX
  8
0
 10
32.600392
 20
110.707424
 42
0.0
  0
VERTEX
  8
0
 10
32.773874
 20
110.504732
 42
0.0
  0
VERTEX
  8
0
 10
32.976566
 20
110.33125
 42
0.0
  0
VERTEX
  8
0
 10
33.01365
 20
110.309406
 42
0.0
  0
VERTEX
  8
0
 10
33.203896
 20
110.191804
 42
0.0
  0
VERTEX
  8
0
 10
33.45053
 20
110.088934
 42
0.0
  0
VERTEX
  8
0
 10
33.665414
 20
110.037626
 42
0.0
  0
VERTEX
  8
0
 10
33.71088
 20
110.026704
 42
0.0
  0
VERTEX
  8
0
 10
33.976818
 20
110.005876
 42
0.0
  0
VERTEX
  8
0
 10
34.24428
 20
110.026704
 42
0.0
  0
VERTEX
  8
0
 10
34.50336
 20
110.088934
 42
0.0
  0
VERTEX
  8
0
 10
34.672778
 20
110.160562
 42
0.0
  0
VERTEX
  8
0
 10
34.749994
 20
110.191804
 42
0.0
  0
VERTEX
  8
0
 10
34.914078
 20
110.292896
 42
0.0
  0
VERTEX
  8
0
 10
34.977324
 20
110.33125
 42
0.0
  0
VERTEX
  8
0
 10
35.061398
 20
110.402878
 42
0.0
  0
VERTEX
  8
0
 10
35.181286
 20
110.504732
 42
0.0
  0
VERTEX
  8
0
 10
35.355022
 20
110.707424
 42
0.0
  0
VERTEX
  8
0
 10
35.49396
 20
110.936278
 42
0.0
  0
VERTEX
  8
0
 10
35.580828
 20
111.144304
 42
0.0
  0
VERTEX
  8
0
 10
35.597338
 20
111.181388
 42
0.0
  0
VERTEX
  8
0
 10
35.659568
 20
111.441738
 42
0.0
  0
VERTEX
  8
0
 10
35.680396
 20
111.7092
 42
0.0
  0
VERTEX
  8
0
 10
35.667696
 20
111.860838
 42
0.0
  0
VERTEX
  8
0
 10
35.659568
 20
111.975138
 42
0.0
  0
VERTEX
  8
0
 10
35.597338
 20
112.235488
 42
0.0
  0
VERTEX
  8
0
 10
35.49396
 20
112.481106
 42
0.0
  0
VERTEX
  8
0
 10
35.421062
 20
112.602518
 42
0.0
  0
VERTEX
  8
0
 10
35.355022
 20
112.709706
 42
0.0
  0
VERTEX
  8
0
 10
35.181286
 20
112.912144
 42
0.0
  0
VERTEX
  8
0
 10
34.977324
 20
113.086134
 42
0.0
  0
VERTEX
  8
0
 10
34.749994
 20
113.225072
 42
0.0
  0
VERTEX
  8
0
 10
34.623248
 20
113.27765
 42
0.0
  0
VERTEX
  8
0
 10
34.50336
 20
113.32845
 42
0.0
  0
VERTEX
  8
0
 10
34.24428
 20
113.390426
 42
0.0
  0
VERTEX
  8
0
 10
33.976818
 20
113.411
 42
0.0
  0
VERTEX
  8
0
 10
33.71088
 20
113.390426
 42
0.0
  0
VERTEX
  8
0
 10
33.59785
 20
113.362994
 42
0.0
  0
VERTEX
  8
0
 10
33.45053
 20
113.32845
 42
0.0
  0
VERTEX
  8
0
 10
33.203896
 20
113.225072
 42
0.0
  0
VERTEX
  8
0
 10
33.01365
 20
113.107978
 42
0.0
  0
VERTEX
  8
0
 10
32.976566
 20
113.086134
 42
0.0
  0
VERTEX
  8
0
 10
32.773874
 20
112.912144
 42
0.0
  0
VERTEX
  8
0
 10
32.600392
 20
112.709706
 42
0.0
  0
VERTEX
  8
0
 10
32.459676
 20
112.481106
 42
0.0
  0
VERTEX
  8
0
 10
32.357822
 20
112.235488
 42
0.0
  0
VERTEX
  8
0
 10
32.295592
 20
111.975138
 42
0.0
  0
VERTEX
  8
0
 10
32.287464
 20
111.860838
 42
0.0
  0
VERTEX
  8
0
 10
32.275018
 20
111.7092
 42
0.0
  0
VERTEX
  8
0
 10
32.295592
 20
111.441738
 42
0.0
  0
VERTEX
  8
0
 10
32.357822
 20
111.181388
 42
0.0
  0
VERTEX
  8
0
 10
32.426656
 20
111.016034
 42
0.0
  0
VERTEX
  8
0
 10
32.459676
 20
110.936278
 42
0.0
  0
SEQEND
  0
POLYLINE
  8
0
 66
     1
 10
0.0
 20
0.0
 30
0.0
 70
     1
  0
VERTEX
  8
0
 10
35.0948814773495
 20
57.61962085774
 42
0.0
  0
VERTEX
  8
0
 10
35.0948814773495
 20
79.62541885774
 42
0.0
  0
VERTEX
  8
0
 10
35.0054734773495
 20
79.62541885774
 42
0.0
  0
VERTEX
  8
0
 10
35.0054734773495
 20
79.6325308577401
 42
0.0
  0
VERTEX
  8
0
 10
31.9998914773495
 20
79.6325308577401
 42
0.0
  0
VERTEX
  8
0
 10
31.9998914773495
 20
57.6267328577401
 42
0.0
  0
VERTEX
  8
0
 10
33.0898054773495
 20
57.6267328577401
 42
0.0
  0
VERTEX
  8
0
 10
33.0898054773495
 20
57.61962085774
 42
0.0
  0
SEQEND
  0
POLYLINE
  8
0
 66
     1
 10
0.0
 20
0.0
 30
0.0
 70
     1
  0
VERTEX
  8
0
 10
12.265914
 20
28.052776
 42
0.0
  0
VERTEX
  8
0
 10
10.420731
 20
26.9875
 42
0.0
  0
VERTEX
  8
0
 10
10.420731
 20
23.388066
 42
0.0
  0
VERTEX
  8
0
 10
12.265914
 20
22.3228154
 42
0.0
  0
VERTEX
  8
0
 10
13.5405876
 20
21.5869774
 42
0.0
  0
VERTEX
  8
0
 10
13.8975084
 20
21.7936572
 42
0.0
  0
VERTEX
  8
0
 10
16.6577518
 20
23.388066
 42
0.0
  0
VERTEX
  8
0
 10
16.6577518
 20
26.9875
 42
0.0
  0
VERTEX
  8
0
 10
13.5405876
 20
28.788614
 42
0.0
  0
SEQEND
  0
POLYLINE
  8
0
 66
     1
 10
0.0
 20
0.0
 30
0.0
 70
     1
  0
VERTEX
  8
0
 10
13.096875
 20
56.214518
 42
0.0
  0
VERTEX
  8
0
 10
12.265914
 20
55.734712
 42
0.0
  0
VERTEX
  8
0
 10
11.0243112
 20
55.016654
 42
0.0
  0
VERTEX
  8
0
 10
11.0243112
 20
51.670966
 42
0.0
  0
VERTEX
  8
0
 10
12.265914
 20
50.954432
 42
0.0
  0
VERTEX
  8
0
 10
13.9222988
 20
49.999138
 42
0.0
  0
VERTEX
  8
0
 10
15.1322278
 20
50.696622
 42
0.0
  0
VERTEX
  8
0
 10
16.8203372
 20
51.670966
 42
0.0
  0
VERTEX
  8
0
 10
16.8203372
 20
55.016654
 42
0.0
  0
VERTEX
  8
0
 10
16.077565
 20
55.445406
 42
0.0
  0
VERTEX
  8
0
 10
14.2089378
 20
56.524652
 42
0.0
  0
VERTEX
  8
0
 10
13.9705588
 20
56.662066
 42
0.0
  0
VERTEX
  8
0
 10
13.9222988
 20
56.689752
 42
0.0
  0
SEQEND
  0
POLYLINE
  8
0
 66
     1
 10
0.0
 20
0.0
 30
0.0
 70
     1
  0
VERTEX
  8
0
 10
24.1018822
 20
21.7936572
 42
0.0
  0
VERTEX
  8
0
 10
24.3912644
 20
21.6269316
 42
0.0
  0
VERTEX
  8
0
 10
24.4601746
 20
21.5869774
 42
0.0
  0
VERTEX
  8
0
 10
25.677114
 20
22.28977
 42
0.0
  0
VERTEX
  8
0
 10
25.760934
 20
22.3393762
 42
0.0
  0
VERTEX
  8
0
 10
27.578558
 20
23.388066
 42
0.0
  0
VERTEX
  8
0
 10
27.578558
 20
26.9875
 42
0.0
  0
VERTEX
  8
0
 10
27.43962
 20
27.06878
 42
0.0
  0
VERTEX
  8
0
 10
25.677114
 20
28.085796
 42
0.0
  0
VERTEX
  8
0
 10
24.7674638
 20
28.610814
 42
0.0
  0
VERTEX
  8
0
 10
24.4601746
 20
28.788614
 42
0.0
  0
VERTEX
  8
0
 10
24.3912644
 20
28.748736
 42
0.0
  0
VERTEX
  8
0
 10
21.3416896
 20
26.9875
 42
0.0
  0
VERTEX
  8
0
 10
21.3416896
 20
23.388066
 42
0.0
  0
SEQEND
  0
POLYLINE
  8
0
 66
     1
 10
0.0
 20
0.0
 30
0.0
 70
     1
  0
VERTEX
  8
0
 10
21.1652866
 20
39.956232
 42
0.0
  0
VERTEX
  8
0
 10
19.0003938
 20
41.206166
 42
0.0
  0
VERTEX
  8
0
 10
16.8341294
 20
39.956232
 42
0.0
  0
VERTEX
  8
0
 10
13.8796268
 20
38.250368
 42
0.0
  0
VERTEX
  8
0
 10
13.8796268
 20
32.326072
 42
0.0
  0
VERTEX
  8
0
 10
18.4629298
 20
29.678884
 42
0.0
  0
VERTEX
  8
0
 10
19.0003938
 20
29.36875
 42
0.0
  0
VERTEX
  8
0
 10
19.5378324
 20
29.678884
 42
0.0
  0
VERTEX
  8
0
 10
21.1570316
 20
30.61462
 42
0.0
  0
VERTEX
  8
0
 10
24.1211862
 20
32.326072
 42
0.0
  0
VERTEX
  8
0
 10
24.1211862
 20
38.250368
 42
0.0
  0
VERTEX
  8
0
 10
23.1510332
 20
38.809676
 42
0.0
  0
SEQEND
  0
POLYLINE
  8
0
 66
     1
 10
0.0
 20
0.0
 30
0.0
 70
     1
  0
VERTEX
  8
0
 10
14.2117318
 20
94.0689
 42
0.0
  0
VERTEX
  8
0
 10
15.672435
 20
94.0689
 42
0.0
  0
VERTEX
  8
0
 10
15.672435
 20
99.094544
 42
0.0
  0
VERTEX
  8
0
 10
13.8244834
 20
99.094544
 42
0.0
  0
VERTEX
  8
0
 10
13.8244834
 20
94.0689
 42
0.0
  0
SEQEND
  0
POLYLINE
  8
0
 66
     1
 10
0.0
 20
0.0
 30
0.0
 70
     1
  0
VERTEX
  8
0
 10
12.265914
 20
110.759748
 42
0.0
  0
VERTEX
  8
0
 10
11.7932454
 20
110.486952
 42
0.0
  0
VERTEX
  8
0
 10
11.0243112
 20
110.043468
 42
0.0
  0
VERTEX
  8
0
 10
11.0243112
 20
106.698796
 42
0.0
  0
VERTEX
  8
0
 10
12.265914
 20
105.980738
 42
0.0
  0
VERTEX
  8
0
 10
12.5304804
 20
105.827576
 42
0.0
  0
VERTEX
  8
0
 10
13.9222988
 20
105.024428
 42
0.0
  0
VERTEX
  8
0
 10
16.8203372
 20
106.698796
 42
0.0
  0
VERTEX
  8
0
 10
16.8203372
 20
110.043468
 42
0.0
  0
VERTEX
  8
0
 10
16.077565
 20
110.471712
 42
0.0
  0
VERTEX
  8
0
 10
13.9222988
 20
111.716312
 42
0.0
  0
SEQEND
  0
POLYLINE
  8
0
 66
     1
 10
0.0
 20
0.0
 30
0.0
 70
     1
  0
VERTEX
  8
0
 10
24.1390932
 20
50.033682
 42
0.0
  0
VERTEX
  8
0
 10
25.677114
 20
50.921412
 42
0.0
  0
VERTEX
  8
0
 10
26.976578
 20
51.670966
 42
0.0
  0
VERTEX
  8
0
 10
26.976578
 20
55.016654
 42
0.0
  0
VERTEX
  8
0
 10
25.677114
 20
55.766462
 42
0.0
  0
VERTEX
  8
0
 10
24.9025156
 20
56.214518
 42
0.0
  0
VERTEX
  8
0
 10
24.1390932
 20
56.655462
 42
0.0
  0
VERTEX
  8
0
 10
24.0784634
 20
56.689752
 42
0.0
  0
VERTEX
  8
0
 10
24.0095532
 20
56.649874
 42
0.0
  0
VERTEX
  8
0
 10
23.7918244
 20
56.524652
 42
0.0
  0
VERTEX
  8
0
 10
21.9218256
 20
55.445406
 42
0.0
  0
VERTEX
  8
0
 10
21.1804504
 20
55.016654
 42
0.0
  0
VERTEX
  8
0
 10
21.1804504
 20
51.670966
 42
0.0
  0
VERTEX
  8
0
 10
22.8685344
 20
50.698146
 42
0.0
  0
VERTEX
  8
0
 10
24.0095532
 20
50.039524
 42
0.0
  0
VERTEX
  8
0
 10
24.0784634
 20
49.999138
 42
0.0
  0
SEQEND
  0
POLYLINE
  8
0
 66
     1
 10
0.0
 20
0.0
 30
0.0
 70
     1
  0
VERTEX
  8
0
 10
25.468834
 20
105.827576
 42
0.0
  0
VERTEX
  8
0
 10
25.677114
 20
105.947718
 42
0.0
  0
VERTEX
  8
0
 10
26.294334
 20
106.304588
 42
0.0
  0
VERTEX
  8
0
 10
26.976578
 20
106.698796
 42
0.0
  0
VERTEX
  8
0
 10
26.976578
 20
110.043468
 42
0.0
  0
VERTEX
  8
0
 10
26.207466
 20
110.486952
 42
0.0
  0
VERTEX
  8
0
 10
25.677114
 20
110.793022
 42
0.0
  0
VERTEX
  8
0
 10
25.573736
 20
110.852204
 42
0.0
  0
VERTEX
  8
0
 10
24.0784634
 20
111.716312
 42
0.0
  0
VERTEX
  8
0
 10
21.9218256
 20
110.470696
 42
0.0
  0
VERTEX
  8
0
 10
21.8722194
 20
110.44174
 42
0.0
  0
VERTEX
  8
0
 10
21.1804504
 20
110.043468
 42
0.0
  0
VERTEX
  8
0
 10
21.1804504
 20
106.698796
 42
0.0
  0
VERTEX
  8
0
 10
21.8722194
 20
106.299
 42
0.0
  0
VERTEX
  8
0
 10
24.0784634
 20
105.024428
 42
0.0
  0
SEQEND
  0
POLYLINE
  8
0
 66
     1
 10
0.0
 20
0.0
 30
0.0
 70
     1
  0
VERTEX
  8
0
 10
18.9990222
 20
155.872688
 42
0.0
  0
VERTEX
  8
0
 10
15.4106118
 20
153.801572
 42
0.0
  0
VERTEX
  8
0
 10
15.4106118
 20
149.658832
 42
0.0
  0
VERTEX
  8
0
 10
18.9990222
 20
147.586446
 42
0.0
  0
VERTEX
  8
0
 10
22.5874072
 20
149.658832
 42
0.0
  0
VERTEX
  8
0
 10
22.5874072
 20
153.801572
 42
0.0
  0
SEQEND
  0
POLYLINE
  8
0
 66
     1
 10
0.0
 20
0.0
 30
0.0
 70
     1
  0
VERTEX
  8
0
 10
25.522682
 20
143.24584
 42
0.0
  0
VERTEX
  8
0
 10
25.677114
 20
143.335248
 42
0.0
  0
VERTEX
  8
0
 10
28.066492
 20
144.714722
 42
0.0
  0
VERTEX
  8
0
 10
28.066492
 20
147.65274
 42
0.0
  0
VERTEX
  8
0
 10
25.677114
 20
149.03069
 42
0.0
  0
VERTEX
  8
0
 10
25.522682
 20
149.120352
 42
0.0
  0
VERTEX
  8
0
 10
22.9801674
 20
147.65274
 42
0.0
  0
VERTEX
  8
0
 10
22.9801674
 20
144.714722
 42
0.0
  0
SEQEND
  0
POLYLINE
  8
0
 66
     1
 10
0.0
 20
0.0
 30
0.0
 70
     1
  0
VERTEX
  8
0
 10
25.522682
 20
131.883912
 42
0.0
  0
VERTEX
  8
0
 10
25.677114
 20
131.97205
 42
0.0
  0
VERTEX
  8
0
 10
28.066492
 20
133.351524
 42
0.0
  0
VERTEX
  8
0
 10
28.066492
 20
136.288018
 42
0.0
  0
VERTEX
  8
0
 10
25.677114
 20
137.668762
 42
0.0
  0
VERTEX
  8
0
 10
25.522682
 20
137.7569
 42
0.0
  0
VERTEX
  8
0
 10
22.9801674
 20
136.288018
 42
0.0
  0
VERTEX
  8
0
 10
22.9801674
 20
133.351524
 42
0.0
  0
SEQEND
  0
POLYLINE
  8
0
 66
     1
 10
0.0
 20
0.0
 30
0.0
 70
     1
  0
VERTEX
  8
0
 10
14.9916896
 20
136.30021
 42
0.0
  0
VERTEX
  8
0
 10
13.890625
 20
136.935718
 42
0.0
  0
VERTEX
  8
0
 10
12.4464572
 20
137.769346
 42
0.0
  0
VERTEX
  8
0
 10
12.265914
 20
137.664444
 42
0.0
  0
VERTEX
  8
0
 10
10.1685344
 20
136.453372
 42
0.0
  0
VERTEX
  8
0
 10
9.9039426
 20
136.30021
 42
0.0
  0
VERTEX
  8
0
 10
9.9039426
 20
133.363716
 42
0.0
  0
VERTEX
  8
0
 10
10.1685344
 20
133.210554
 42
0.0
  0
VERTEX
  8
0
 10
12.265914
 20
131.999482
 42
0.0
  0
VERTEX
  8
0
 10
12.4464572
 20
131.894834
 42
0.0
  0
VERTEX
  8
0
 10
13.890625
 20
132.728462
 42
0.0
  0
VERTEX
  8
0
 10
14.9916896
 20
133.363716
 42
0.0
  0
SEQEND
  0
POLYLINE
  8
0
 66
     1
 10
0.0
 20
0.0
 30
0.0
 70
     1
  0
VERTEX
  8
0
 10
18.9990222
 20
133.592824
 42
0.0
  0
VERTEX
  8
0
 10
15.4106118
 20
131.5212
 42
0.0
  0
VERTEX
  8
0
 10
15.4106118
 20
127.377444
 42
0.0
  0
VERTEX
  8
0
 10
18.9990222
 20
125.306328
 42
0.0
  0
VERTEX
  8
0
 10
22.5874072
 20
127.377444
 42
0.0
  0
VERTEX
  8
0
 10
22.5874072
 20
131.5212
 42
0.0
  0
SEQEND
  0
POLYLINE
  8
0
 66
     1
 10
0.0
 20
0.0
 30
0.0
 70
     1
  0
VERTEX
  8
0
 10
12.265914
 20
149.027896
 42
0.0
  0
VERTEX
  8
0
 10
10.1685344
 20
147.816824
 42
0.0
  0
VERTEX
  8
0
 10
9.9039426
 20
147.663662
 42
0.0
  0
VERTEX
  8
0
 10
9.9039426
 20
144.727168
 42
0.0
  0
VERTEX
  8
0
 10
10.1685344
 20
144.574006
 42
0.0
  0
VERTEX
  8
0
 10
12.265914
 20
143.364204
 42
0.0
  0
VERTEX
  8
0
 10
12.4464572
 20
143.259556
 42
0.0
  0
VERTEX
  8
0
 10
13.890625
 20
144.09166
 42
0.0
  0
VERTEX
  8
0
 10
14.9916896
 20
144.727168
 42
0.0
  0
VERTEX
  8
0
 10
14.9916896
 20
147.663662
 42
0.0
  0
VERTEX
  8
0
 10
13.890625
 20
148.298916
 42
0.0
  0
VERTEX
  8
0
 10
12.4464572
 20
149.132544
 42
0.0
  0
SEQEND
  0
POLYLINE
  8
0
 66
     1
 10
0.0
 20
0.0
 30
0.0
 70
     1
  0
VERTEX
  8
0
 10
30.868112
 20
21.6834212
 42
0.0
  0
VERTEX
  8
0
 10
29.342588
 20
21.6834212
 42
0.0
  0
VERTEX
  8
0
 10
29.342588
 20
14.5327878
 42
0.0
  0
VERTEX
  8
0
 10
30.868112
 20
14.5327878
 42
0.0
  0
SEQEND
  0
POLYLINE
  8
0
 66
     1
 10
0.0
 20
0.0
 30
0.0
 70
     1
  0
VERTEX
  8
0
 10
28.86583
 20
163.060634
 42
0.0
  0
VERTEX
  8
0
 10
28.916884
 20
163.07435
 42
0.0
  0
VERTEX
  8
0
 10
29.022802
 20
163.100512
 42
0.0
  0
VERTEX
  8
0
 10
29.178504
 20
163.1569
 42
0.0
  0
VERTEX
  8
0
 10
29.328872
 20
163.228528
 42
0.0
  0
VERTEX
  8
0
 10
29.472128
 20
163.314126
 42
0.0
  0
VERTEX
  8
0
 10
29.604462
 20
163.41471
 42
0.0
  0
VERTEX
  8
0
 10
29.728414
 20
163.526216
 42
0.0
  0
VERTEX
  8
0
 10
29.83865
 20
163.650422
 42
0.0
  0
VERTEX
  8
0
 10
29.937964
 20
163.784026
 42
0.0
  0
VERTEX
  8
0
 10
30.023308
 20
163.927282
 42
0.0
  0
VERTEX
  8
0
 10
30.094936
 20
164.07765
 42
0.0
  0
VERTEX
  8
0
 10
30.09773
 20
164.085778
 42
0.0
  0
VERTEX
  8
0
 10
30.151578
 20
164.236146
 42
0.0
  0
VERTEX
  8
0
 10
30.191456
 20
164.398706
 42
0.0
  0
VERTEX
  8
0
 10
30.214824
 20
164.56279
 42
0.0
  0
VERTEX
  8
0
 10
30.223206
 20
164.730684
 42
0.0
  0
VERTEX
  8
0
 10
30.214824
 20
164.897562
 42
0.0
  0
VERTEX
  8
0
 10
30.191456
 20
165.062916
 42
0.0
  0
VERTEX
  8
0
 10
30.17901
 20
165.109652
 42
0.0
  0
VERTEX
  8
0
 10
30.151578
 20
165.224206
 42
0.0
  0
VERTEX
  8
0
 10
30.094936
 20
165.381178
 42
0.0
  0
VERTEX
  8
0
 10
30.023308
 20
165.532816
 42
0.0
  0
VERTEX
  8
0
 10
29.937964
 20
165.676072
 42
0.0
  0
VERTEX
  8
0
 10
29.83865
 20
165.809676
 42
0.0
  0
VERTEX
  8
0
 10
29.728414
 20
165.933628
 42
0.0
  0
VERTEX
  8
0
 10
29.604462
 20
166.046912
 42
0.0
  0
VERTEX
  8
0
 10
29.472128
 20
166.144702
 42
0.0
  0
VERTEX
  8
0
 10
29.328872
 20
166.231316
 42
0.0
  0
VERTEX
  8
0
 10
29.178504
 20
166.302944
 42
0.0
  0
VERTEX
  8
0
 10
29.022802
 20
166.359332
 42
0.0
  0
VERTEX
  8
0
 10
28.916884
 20
166.385748
 42
0.0
  0
VERTEX
  8
0
 10
28.861512
 20
166.399718
 42
0.0
  0
VERTEX
  8
0
 10
28.697682
 20
166.424356
 42
0.0
  0
VERTEX
  8
0
 10
28.532328
 20
166.432484
 42
0.0
  0
VERTEX
  8
0
 10
28.36545
 20
166.424356
 42
0.0
  0
VERTEX
  8
0
 10
28.20162
 20
166.399718
 42
0.0
  0
VERTEX
  8
0
 10
28.04033
 20
166.359332
 42
0.0
  0
VERTEX
  8
0
 10
27.892756
 20
166.305738
 42
0.0
  0
VERTEX
  8
0
 10
27.884628
 20
166.302944
 42
0.0
  0
VERTEX
  8
0
 10
27.734514
 20
166.231316
 42
0.0
  0
VERTEX
  8
0
 10
27.592528
 20
166.144702
 42
0.0
  0
VERTEX
  8
0
 10
27.45867
 20
166.046912
 42
0.0
  0
VERTEX
  8
0
 10
27.336242
 20
165.933628
 42
0.0
  0
VERTEX
  8
0
 10
27.224482
 20
165.809676
 42
0.0
  0
VERTEX
  8
0
 10
27.125422
 20
165.676072
 42
0.0
  0
VERTEX
  8
0
 10
27.039824
 20
165.532816
 42
0.0
  0
VERTEX
  8
0
 10
26.969466
 20
165.381178
 42
0.0
  0
VERTEX
  8
0
 10
26.913078
 20
165.224206
 42
0.0
  0
VERTEX
  8
0
 10
26.884122
 20
165.109652
 42
0.0
  0
VERTEX
  8
0
 10
26.8732
 20
165.062916
 42
0.0
  0
VERTEX
  8
0
 10
26.848308
 20
164.897562
 42
0.0
  0
VERTEX
  8
0
 10
26.839926
 20
164.730684
 42
0.0
  0
VERTEX
  8
0
 10
26.848308
 20
164.56279
 42
0.0
  0
VERTEX
  8
0
 10
26.868882
 20
164.424868
 42
0.0
  0
VERTEX
  8
0
 10
26.8732
 20
164.398706
 42
0.0
  0
VERTEX
  8
0
 10
26.913078
 20
164.236146
 42
0.0
  0
VERTEX
  8
0
 10
26.966926
 20
164.085778
 42
0.0
  0
VERTEX
  8
0
 10
26.969466
 20
164.07765
 42
0.0
  0
VERTEX
  8
0
 10
27.039824
 20
163.927282
 42
0.0
  0
VERTEX
  8
0
 10
27.125422
 20
163.784026
 42
0.0
  0
VERTEX
  8
0
 10
27.224482
 20
163.650422
 42
0.0
  0
VERTEX
  8
0
 10
27.336242
 20
163.526216
 42
0.0
  0
VERTEX
  8
0
 10
27.45867
 20
163.41471
 42
0.0
  0
VERTEX
  8
0
 10
27.592528
 20
163.314126
 42
0.0
  0
VERTEX
  8
0
 10
27.734514
 20
163.228528
 42
0.0
  0
VERTEX
  8
0
 10
27.884628
 20
163.1569
 42
0.0
  0
VERTEX
  8
0
 10
28.04033
 20
163.100512
 42
0.0
  0
VERTEX
  8
0
 10
28.197302
 20
163.060634
 42
0.0
  0
VERTEX
  8
0
 10
28.20162
 20
163.060634
 42
0.0
  0
VERTEX
  8
0
 10
28.36545
 20
163.035488
 42
0.0
  0
VERTEX
  8
0
 10
28.532328
 20
163.02736
 42
0.0
  0
VERTEX
  8
0
 10
28.697682
 20
163.035488
 42
0.0
  0
VERTEX
  8
0
 10
28.861512
 20
163.060634
 42
0.0
  0
SEQEND
  0
POLYLINE
  8
0
 66
     1
 10
0.0
 20
0.0
 30
0.0
 70
     1
  0
VERTEX
  8
0
 10
5.5741824
 20
47.72025
 42
0.0
  0
VERTEX
  8
0
 10
5.6472074
 20
47.896526
 42
0.0
  0
VERTEX
  8
0
 10
5.7092088
 20
48.156876
 42
0.0
  0
VERTEX
  8
0
 10
5.7257696
 20
48.373284
 42
0.0
  0
VERTEX
  8
0
 10
5.7298844
 20
48.423068
 42
0.0
  0
VERTEX
  8
0
 10
5.7092088
 20
48.689006
 42
0.0
  0
VERTEX
  8
0
 10
5.6472074
 20
48.949356
 42
0.0
  0
VERTEX
  8
0
 10
5.5452518
 20
49.19599
 42
0.0
  0
VERTEX
  8
0
 10
5.4046628
 20
49.424844
 42
0.0
  0
VERTEX
  8
0
 10
5.28066
 20
49.570894
 42
0.0
  0
VERTEX
  8
0
 10
5.2324
 20
49.627282
 42
0.0
  0
VERTEX
  8
0
 10
5.0284634
 20
49.801018
 42
0.0
  0
VERTEX
  8
0
 10
4.8010826
 20
49.94021
 42
0.0
  0
VERTEX
  8
0
 10
4.5544232
 20
50.042318
 42
0.0
  0
VERTEX
  8
0
 10
4.4083478
 20
50.077878
 42
0.0
  0
VERTEX
  8
0
 10
4.3408346
 20
50.093118
 42
0.0
  0
VERTEX
  8
0
 10
4.2939716
 20
50.10531
 42
0.0
  0
VERTEX
  8
0
 10
4.0280082
 20
50.126138
 42
0.0
  0
VERTEX
  8
0
 10
3.7620448
 20
50.10531
 42
0.0
  0
VERTEX
  8
0
 10
3.5015932
 20
50.042318
 42
0.0
  0
VERTEX
  8
0
 10
3.396869
 20
49.998122
 42
0.0
  0
VERTEX
  8
0
 10
3.2549338
 20
49.94021
 42
0.0
  0
VERTEX
  8
0
 10
3.027553
 20
49.801018
 42
0.0
  0
VERTEX
  8
0
 10
2.823591
 20
49.627282
 42
0.0
  0
VERTEX
  8
0
 10
2.6513536
 20
49.424844
 42
0.0
  0
VERTEX
  8
0
 10
2.53972568
 20
49.24425
 42
0.0
  0
VERTEX
  8
0
 10
2.51078746
 20
49.19599
 42
0.0
  0
VERTEX
  8
0
 10
2.40881154
 20
48.949356
 42
0.0
  0
VERTEX
  8
0
 10
2.34542076
 20
48.689006
 42
0.0
  0
VERTEX
  8
0
 10
2.32475024
 20
48.423068
 42
0.0
  0
VERTEX
  8
0
 10
2.32888282
 20
48.373284
 42
0.0
  0
VERTEX
  8
0
 10
2.34542076
 20
48.156876
 42
0.0
  0
VERTEX
  8
0
 10
2.40881154
 20
47.896526
 42
0.0
  0
VERTEX
  8
0
 10
2.42121182
 20
47.867824
 42
0.0
  0
VERTEX
  8
0
 10
2.51078746
 20
47.649638
 42
0.0
  0
VERTEX
  8
0
 10
2.6513536
 20
47.422562
 42
0.0
  0
VERTEX
  8
0
 10
2.823591
 20
47.2186
 42
0.0
  0
VERTEX
  8
0
 10
3.027553
 20
47.046134
 42
0.0
  0
VERTEX
  8
0
 10
3.1777432
 20
46.953932
 42
0.0
  0
VERTEX
  8
0
 10
3.2549338
 20
46.905672
 42
0.0
  0
VERTEX
  8
0
 10
3.5015932
 20
46.803818
 42
0.0
  0
VERTEX
  8
0
 10
3.7620448
 20
46.741588
 42
0.0
  0
VERTEX
  8
0
 10
4.0280082
 20
46.721268
 42
0.0
  0
VERTEX
  8
0
 10
4.2429684
 20
46.737524
 42
0.0
  0
VERTEX
  8
0
 10
4.2939716
 20
46.741588
 42
0.0
  0
VERTEX
  8
0
 10
4.3408346
 20
46.75251
 42
0.0
  0
VERTEX
  8
0
 10
4.5544232
 20
46.803818
 42
0.0
  0
VERTEX
  8
0
 10
4.8010826
 20
46.905672
 42
0.0
  0
VERTEX
  8
0
 10
5.0284634
 20
47.046134
 42
0.0
  0
VERTEX
  8
0
 10
5.2324
 20
47.2186
 42
0.0
  0
VERTEX
  8
0
 10
5.4046628
 20
47.422562
 42
0.0
  0
VERTEX
  8
0
 10
5.4680612
 20
47.524416
 42
0.0
  0
VERTEX
  8
0
 10
5.5452518
 20
47.649638
 42
0.0
  0
SEQEND
  0
POLYLINE
  8
0
 66
     1
 10
0.0
 20
0.0
 30
0.0
 70
     1
  0
VERTEX
  8
0
 10
5.5741824
 20
111.007906
 42
0.0
  0
VERTEX
  8
0
 10
5.6472074
 20
111.181388
 42
0.0
  0
VERTEX
  8
0
 10
5.7092088
 20
111.441738
 42
0.0
  0
VERTEX
  8
0
 10
5.7298844
 20
111.7092
 42
0.0
  0
VERTEX
  8
0
 10
5.7174638
 20
111.860838
 42
0.0
  0
VERTEX
  8
0
 10
5.7092088
 20
111.975138
 42
0.0
  0
VERTEX
  8
0
 10
5.6472074
 20
112.235488
 42
0.0
  0
VERTEX
  8
0
 10
5.5452518
 20
112.481106
 42
0.0
  0
VERTEX
  8
0
 10
5.4046628
 20
112.709706
 42
0.0
  0
VERTEX
  8
0
 10
5.2820316
 20
112.852962
 42
0.0
  0
VERTEX
  8
0
 10
5.2324
 20
112.912144
 42
0.0
  0
VERTEX
  8
0
 10
5.0284634
 20
113.086134
 42
0.0
  0
VERTEX
  8
0
 10
4.8010826
 20
113.225072
 42
0.0
  0
VERTEX
  8
0
 10
4.5544232
 20
113.32845
 42
0.0
  0
VERTEX
  8
0
 10
4.402836
 20
113.364518
 42
0.0
  0
VERTEX
  8
0
 10
4.3408346
 20
113.379504
 42
0.0
  0
VERTEX
  8
0
 10
4.2939716
 20
113.390426
 42
0.0
  0
VERTEX
  8
0
 10
4.0280082
 20
113.411
 42
0.0
  0
VERTEX
  8
0
 10
3.7620448
 20
113.390426
 42
0.0
  0
VERTEX
  8
0
 10
3.5015932
 20
113.32845
 42
0.0
  0
VERTEX
  8
0
 10
3.3803336
 20
113.27765
 42
0.0
  0
VERTEX
  8
0
 10
3.2549338
 20
113.225072
 42
0.0
  0
VERTEX
  8
0
 10
3.027553
 20
113.086134
 42
0.0
  0
VERTEX
  8
0
 10
2.823591
 20
112.912144
 42
0.0
  0
VERTEX
  8
0
 10
2.6513536
 20
112.709706
 42
0.0
  0
VERTEX
  8
0
 10
2.5879552
 20
112.606328
 42
0.0
  0
VERTEX
  8
0
 10
2.51078746
 20
112.481106
 42
0.0
  0
VERTEX
  8
0
 10
2.40881154
 20
112.235488
 42
0.0
  0
VERTEX
  8
0
 10
2.34542076
 20
111.975138
 42
0.0
  0
VERTEX
  8
0
 10
2.33715306
 20
111.860838
 42
0.0
  0
VERTEX
  8
0
 10
2.32475024
 20
111.7092
 42
0.0
  0
VERTEX
  8
0
 10
2.34542076
 20
111.441738
 42
0.0
  0
VERTEX
  8
0
 10
2.40881154
 20
111.181388
 42
0.0
  0
VERTEX
  8
0
 10
2.42121182
 20
111.152432
 42
0.0
  0
VERTEX
  8
0
 10
2.51078746
 20
110.936278
 42
0.0
  0
VERTEX
  8
0
 10
2.6513536
 20
110.707424
 42
0.0
  0
VERTEX
  8
0
 10
2.823591
 20
110.504732
 42
0.0
  0
VERTEX
  8
0
 10
3.027553
 20
110.33125
 42
0.0
  0
VERTEX
  8
0
 10
3.0854142
 20
110.295182
 42
0.0
  0
VERTEX
  8
0
 10
3.175
 20
110.241588
 42
0.0
  0
VERTEX
  8
0
 10
3.2549338
 20
110.191804
 42
0.0
  0
VERTEX
  8
0
 10
3.5015932
 20
110.088934
 42
0.0
  0
VERTEX
  8
0
 10
3.7620448
 20
110.026704
 42
0.0
  0
VERTEX
  8
0
 10
4.0280082
 20
110.005876
 42
0.0
  0
VERTEX
  8
0
 10
4.2305732
 20
110.02264
 42
0.0
  0
VERTEX
  8
0
 10
4.2939716
 20
110.026704
 42
0.0
  0
VERTEX
  8
0
 10
4.3408346
 20
110.037626
 42
0.0
  0
VERTEX
  8
0
 10
4.5544232
 20
110.088934
 42
0.0
  0
VERTEX
  8
0
 10
4.8010826
 20
110.191804
 42
0.0
  0
VERTEX
  8
0
 10
5.0284634
 20
110.33125
 42
0.0
  0
VERTEX
  8
0
 10
5.2324
 20
110.504732
 42
0.0
  0
VERTEX
  8
0
 10
5.4046628
 20
110.707424
 42
0.0
  0
VERTEX
  8
0
 10
5.4501288
 20
110.781846
 42
0.0
  0
VERTEX
  8
0
 10
5.5452518
 20
110.936278
 42
0.0
  0
SEQEND
  0
POLYLINE
  8
0
 66
     1
 10
0.0
 20
0.0
 30
0.0
 70
     1
  0
VERTEX
  8
0
 10
3.0232771716235
 20
79.62541885774
 42
0.0
  0
VERTEX
  8
0
 10
3.0232771716235
 20
57.61962085774
 42
0.0
  0
VERTEX
  8
0
 10
5.0283277716235
 20
57.61962085774
 42
0.0
  0
VERTEX
  8
0
 10
5.0283277716235
 20
57.6267328577401
 42
0.0
  0
VERTEX
  8
0
 10
6.1169717716235
 20
57.6267328577401
 42
0.0
  0
VERTEX
  8
0
 10
6.1169717716235
 20
79.6325308577401
 42
0.0
  0
VERTEX
  8
0
 10
3.1114659716235
 20
79.6325308577401
 42
0.0
  0
VERTEX
  8
0
 10
3.1114659716235
 20
79.62541885774
 42
0.0
  0
SEQEND
  0
POLYLINE
  8
0
 66
     1
 10
0.0
 20
0.0
 30
0.0
 70
     1
  0
VERTEX
  8
0
 10
2.40054384
 20
8.9503504
 42
0.0
  0
VERTEX
  8
0
 10
2.34542076
 20
8.722995
 42
0.0
  0
VERTEX
  8
0
 10
2.32475024
 20
8.45566
 42
0.0
  0
VERTEX
  8
0
 10
2.34542076
 20
8.1896712
 42
0.0
  0
VERTEX
  8
0
 10
2.40881154
 20
7.9306166
 42
0.0
  0
VERTEX
  8
0
 10
2.42672616
 20
7.8865222
 42
0.0
  0
VERTEX
  8
0
 10
2.51078746
 20
7.6825602
 42
0.0
  0
VERTEX
  8
0
 10
2.6513536
 20
7.4551794
 42
0.0
  0
VERTEX
  8
0
 10
2.6871676
 20
7.4124566
 42
0.0
  0
VERTEX
  8
0
 10
2.823591
 20
7.2526144
 42
0.0
  0
VERTEX
  8
0
 10
3.027553
 20
7.07898
 42
0.0
  0
VERTEX
  8
0
 10
3.1529528
 20
7.0018402
 42
0.0
  0
VERTEX
  8
0
 10
3.2549338
 20
6.9384418
 42
0.0
  0
VERTEX
  8
0
 10
3.5015932
 20
6.8364354
 42
0.0
  0
VERTEX
  8
0
 10
3.7620448
 20
6.774434
 42
0.0
  0
VERTEX
  8
0
 10
4.0280082
 20
6.7537584
 42
0.0
  0
VERTEX
  8
0
 10
4.1795954
 20
6.766179
 42
0.0
  0
VERTEX
  8
0
 10
4.2939716
 20
6.774434
 42
0.0
  0
VERTEX
  8
0
 10
4.5544232
 20
6.8364354
 42
0.0
  0
VERTEX
  8
0
 10
4.8010826
 20
6.9384418
 42
0.0
  0
VERTEX
  8
0
 10
5.0284634
 20
7.07898
 42
0.0
  0
VERTEX
  8
0
 10
5.1552602
 20
7.1864728
 42
0.0
  0
VERTEX
  8
0
 10
5.2324
 20
7.2526144
 42
0.0
  0
VERTEX
  8
0
 10
5.3398928
 20
7.3794112
 42
0.0
  0
VERTEX
  8
0
 10
5.3688488
 20
7.4124566
 42
0.0
  0
VERTEX
  8
0
 10
5.4046628
 20
7.4551794
 42
0.0
  0
VERTEX
  8
0
 10
5.5452518
 20
7.6825602
 42
0.0
  0
VERTEX
  8
0
 10
5.5714138
 20
7.7473048
 42
0.0
  0
VERTEX
  8
0
 10
5.6472074
 20
7.9306166
 42
0.0
  0
VERTEX
  8
0
 10
5.7092088
 20
8.1896712
 42
0.0
  0
VERTEX
  8
0
 10
5.7298844
 20
8.45566
 42
0.0
  0
VERTEX
  8
0
 10
5.7092088
 20
8.722995
 42
0.0
  0
VERTEX
  8
0
 10
5.6540654
 20
8.9503504
 42
0.0
  0
VERTEX
  8
0
 10
5.6472074
 20
8.9820496
 42
0.0
  0
VERTEX
  8
0
 10
5.5452518
 20
9.2287344
 42
0.0
  0
VERTEX
  8
0
 10
5.4046628
 20
9.4574868
 42
0.0
  0
VERTEX
  8
0
 10
5.2764944
 20
9.6077024
 42
0.0
  0
VERTEX
  8
0
 10
5.2324
 20
9.6600518
 42
0.0
  0
VERTEX
  8
0
 10
5.0284634
 20
9.8336862
 42
0.0
  0
VERTEX
  8
0
 10
4.8010826
 20
9.9728528
 42
0.0
  0
VERTEX
  8
0
 10
4.5544232
 20
10.0748338
 42
0.0
  0
VERTEX
  8
0
 10
4.3628818
 20
10.1216968
 42
0.0
  0
VERTEX
  8
0
 10
4.3408346
 20
10.1271832
 42
0.0
  0
VERTEX
  8
0
 10
4.2939716
 20
10.1382322
 42
0.0
  0
VERTEX
  8
0
 10
4.0280082
 20
10.1589078
 42
0.0
  0
VERTEX
  8
0
 10
3.7620448
 20
10.1382322
 42
0.0
  0
VERTEX
  8
0
 10
3.5015932
 20
10.0748338
 42
0.0
  0
VERTEX
  8
0
 10
3.3293304
 20
10.0031804
 42
0.0
  0
VERTEX
  8
0
 10
3.2549338
 20
9.9728528
 42
0.0
  0
VERTEX
  8
0
 10
3.027553
 20
9.8336862
 42
0.0
  0
VERTEX
  8
0
 10
2.823591
 20
9.6600518
 42
0.0
  0
VERTEX
  8
0
 10
2.6540968
 20
9.4616016
 42
0.0
  0
VERTEX
  8
0
 10
2.6513536
 20
9.4574868
 42
0.0
  0
VERTEX
  8
0
 10
2.5603962
 20
9.3100144
 42
0.0
  0
VERTEX
  8
0
 10
2.51078746
 20
9.2287344
 42
0.0
  0
VERTEX
  8
0
 10
2.40881154
 20
8.9820496
 42
0.0
  0
SEQEND
  0
POLYLINE
  8
0
 66
     1
 10
0.0
 20
0.0
 30
0.0
 70
     1
  0
VERTEX
  8
0
 10
10.005949
 20
163.006532
 42
0.0
  0
VERTEX
  8
0
 10
10.1189282
 20
163.060634
 42
0.0
  0
VERTEX
  8
0
 10
10.1561646
 20
163.079684
 42
0.0
  0
VERTEX
  8
0
 10
10.2980744
 20
163.164012
 42
0.0
  0
VERTEX
  8
0
 10
10.4317546
 20
163.264596
 42
0.0
  0
VERTEX
  8
0
 10
10.485501
 20
163.312856
 42
0.0
  0
VERTEX
  8
0
 10
10.5544112
 20
163.376102
 42
0.0
  0
VERTEX
  8
0
 10
10.6660188
 20
163.500054
 42
0.0
  0
VERTEX
  8
0
 10
10.7652312
 20
163.633912
 42
0.0
  0
VERTEX
  8
0
 10
10.8506768
 20
163.777168
 42
0.0
  0
VERTEX
  8
0
 10
10.9209332
 20
163.928806
 42
0.0
  0
VERTEX
  8
0
 10
10.9774482
 20
164.085778
 42
0.0
  0
VERTEX
  8
0
 10
11.0174278
 20
164.248338
 42
0.0
  0
VERTEX
  8
0
 10
11.0422182
 20
164.413946
 42
0.0
  0
VERTEX
  8
0
 10
11.0504732
 20
164.580316
 42
0.0
  0
VERTEX
  8
0
 10
11.0422182
 20
164.747194
 42
0.0
  0
VERTEX
  8
0
 10
11.0174278
 20
164.912548
 42
0.0
  0
VERTEX
  8
0
 10
10.9774482
 20
165.073838
 42
0.0
  0
VERTEX
  8
0
 10
10.9650276
 20
165.109652
 42
0.0
  0
VERTEX
  8
0
 10
10.9209332
 20
165.232334
 42
0.0
  0
VERTEX
  8
0
 10
10.8506768
 20
165.382448
 42
0.0
  0
VERTEX
  8
0
 10
10.7652312
 20
165.525704
 42
0.0
  0
VERTEX
  8
0
 10
10.6660188
 20
165.659562
 42
0.0
  0
VERTEX
  8
0
 10
10.5544112
 20
165.783768
 42
0.0
  0
VERTEX
  8
0
 10
10.485501
 20
165.848284
 42
0.0
  0
VERTEX
  8
0
 10
10.4317546
 20
165.896544
 42
0.0
  0
VERTEX
  8
0
 10
10.2980744
 20
165.995604
 42
0.0
  0
VERTEX
  8
0
 10
10.1561646
 20
166.081202
 42
0.0
  0
VERTEX
  8
0
 10
10.005949
 20
166.152576
 42
0.0
  0
VERTEX
  8
0
 10
9.8502216
 20
166.209472
 42
0.0
  0
VERTEX
  8
0
 10
9.6889824
 20
166.250874
 42
0.0
  0
VERTEX
  8
0
 10
9.5236284
 20
166.273988
 42
0.0
  0
VERTEX
  8
0
 10
9.359646
 20
166.28364
 42
0.0
  0
VERTEX
  8
0
 10
9.192895
 20
166.273988
 42
0.0
  0
VERTEX
  8
0
 10
9.0289126
 20
166.250874
 42
0.0
  0
VERTEX
  8
0
 10
8.8676734
 20
166.209472
 42
0.0
  0
VERTEX
  8
0
 10
8.7105744
 20
166.152576
 42
0.0
  0
VERTEX
  8
0
 10
8.5603588
 20
166.081202
 42
0.0
  0
VERTEX
  8
0
 10
8.436356
 20
166.006526
 42
0.0
  0
VERTEX
  8
0
 10
8.418449
 20
165.995604
 42
0.0
  0
VERTEX
  8
0
 10
8.2847688
 20
165.896544
 42
0.0
  0
VERTEX
  8
0
 10
8.1621122
 20
165.783768
 42
0.0
  0
VERTEX
  8
0
 10
8.0505046
 20
165.659562
 42
0.0
  0
VERTEX
  8
0
 10
7.9526638
 20
165.525704
 42
0.0
  0
VERTEX
  8
0
 10
7.8672182
 20
165.382448
 42
0.0
  0
VERTEX
  8
0
 10
7.7955902
 20
165.232334
 42
0.0
  0
VERTEX
  8
0
 10
7.7528674
 20
165.109652
 42
0.0
  0
VERTEX
  8
0
 10
7.7404468
 20
165.073838
 42
0.0
  0
VERTEX
  8
0
 10
7.6990956
 20
164.912548
 42
0.0
  0
VERTEX
  8
0
 10
7.6756768
 20
164.747194
 42
0.0
  0
VERTEX
  8
0
 10
7.6674218
 20
164.580316
 42
0.0
  0
VERTEX
  8
0
 10
7.6756768
 20
164.413946
 42
0.0
  0
VERTEX
  8
0
 10
7.6990956
 20
164.248338
 42
0.0
  0
VERTEX
  8
0
 10
7.7404468
 20
164.085778
 42
0.0
  0
VERTEX
  8
0
 10
7.7955902
 20
163.928806
 42
0.0
  0
VERTEX
  8
0
 10
7.8672182
 20
163.777168
 42
0.0
  0
VERTEX
  8
0
 10
7.9526638
 20
163.633912
 42
0.0
  0
VERTEX
  8
0
 10
8.0505046
 20
163.500054
 42
0.0
  0
VERTEX
  8
0
 10
8.1621122
 20
163.376102
 42
0.0
  0
VERTEX
  8
0
 10
8.2847688
 20
163.264596
 42
0.0
  0
VERTEX
  8
0
 10
8.418449
 20
163.164012
 42
0.0
  0
VERTEX
  8
0
 10
8.436356
 20
163.152582
 42
0.0
  0
VERTEX
  8
0
 10
8.5603588
 20
163.079684
 42
0.0
  0
VERTEX
  8
0
 10
8.5989668
 20
163.060634
 42
0.0
  0
VERTEX
  8
0
 10
8.7105744
 20
163.006532
 42
0.0
  0
VERTEX
  8
0
 10
8.8676734
 20
162.951668
 42
0.0
  0
VERTEX
  8
0
 10
9.0289126
 20
162.910266
 42
0.0
  0
VERTEX
  8
0
 10
9.192895
 20
162.885628
 42
0.0
  0
VERTEX
  8
0
 10
9.359646
 20
162.878516
 42
0.0
  0
VERTEX
  8
0
 10
9.5236284
 20
162.885628
 42
0.0
  0
VERTEX
  8
0
 10
9.6889824
 20
162.910266
 42
0.0
  0
VERTEX
  8
0
 10
9.8502216
 20
162.951668
 42
0.0
  0
SEQEND
  0
POLYLINE
  8
0
 66
     1
 10
0.0
 20
0.0
 30
0.0
 70
     1
  0
VERTEX
  8
0
 10
24.3816378
 20
94.0689
 42
0.0
  0
VERTEX
  8
0
 10
24.3816378
 20
99.11969
 42
0.0
  0
VERTEX
  8
0
 10
22.5185224
 20
99.11969
 42
0.0
  0
VERTEX
  8
0
 10
22.5185224
 20
94.0689
 42
0.0
  0
SEQEND
  0
POLYLINE
  8
0
 66
     1
 10
0.0
 20
0.0
 30
0.0
 70
     1
  0
VERTEX
  8
0
 10
18.9990222
 20
136.44626
 42
0.0
  0
VERTEX
  8
0
 10
22.5874072
 20
138.517376
 42
0.0
  0
VERTEX
  8
0
 10
22.5874072
 20
142.66164
 42
0.0
  0
VERTEX
  8
0
 10
18.9990222
 20
144.732756
 42
0.0
  0
VERTEX
  8
0
 10
15.4106118
 20
142.66164
 42
0.0
  0
VERTEX
  8
0
 10
15.4106118
 20
138.517376
 42
0.0
  0
SEQEND
  0
POLYLINE
  8
0
 66
     1
 10
0.0
 20
0.0
 30
0.0
 70
     1
  0
VERTEX
  8
0
 10
31.722568
 20
166.859712
 42
0.0
  0
VERTEX
  8
0
 10
31.722568
 20
117.832124
 42
0.0
  0
VERTEX
  8
0
 10
31.8135
 20
117.832124
 42
0.0
  0
VERTEX
  8
0
 10
33.3375
 20
117.063012
 42
0.0
  0
VERTEX
  8
0
 10
33.381696
 20
117.041168
 42
0.0
  0
VERTEX
  8
0
 10
35.680396
 20
115.881912
 42
0.0
  0
VERTEX
  8
0
 10
35.969448
 20
115.735862
 42
0.0
  0
VERTEX
  8
0
 10
37.000434
 20
115.216432
 42
0.0
  0
VERTEX
  8
0
 10
37.000434
 20
43.616372
 42
0.0
  0
VERTEX
  8
0
 10
36.307268
 20
43.11904
 42
0.0
  0
VERTEX
  8
0
 10
36.281106
 20
43.099482
 42
0.0
  0
VERTEX
  8
0
 10
34.998152
 20
42.174922
 42
0.0
  0
VERTEX
  8
0
 10
34.998152
 20
30.172152
 42
0.0
  0
VERTEX
  8
0
 10
37.000434
 20
28.730702
 42
0.0
  0
VERTEX
  8
0
 10
37.000434
 20
4.4662344
 42
0.0
  0
VERTEX
  8
0
 10
36.829238
 20
4.4662344
 42
0.0
  0
VERTEX
  8
0
 10
31.018226
 20
1.62470846
 42
0.0
  0
VERTEX
  8
0
 10
30.945328
 20
1.58887922
 42
0.0
  0
VERTEX
  8
0
 10
30.852872
 20
1.54478228
 42
0.0
  0
VERTEX
  8
0
 10
30.169358
 20
1.20991884
 42
0.0
  0
VERTEX
  8
0
 10
30.093666
 20
1.17271038
 42
0.0
  0
VERTEX
  8
0
 10
30.093666
 20
1.1740896
 42
0.0
  0
VERTEX
  8
0
 10
29.557472
 20
1.5489174
 42
0.0
  0
VERTEX
  8
0
 10
28.194762
 20
2.50251722
 42
0.0
  0
VERTEX
  8
0
 10
28.194762
 20
11.7794532
 42
0.0
  0
VERTEX
  8
0
 10
25.677114
 20
13.5405876
 42
0.0
  0
VERTEX
  8
0
 10
23.091775
 20
15.3499566
 42
0.0
  0
VERTEX
  8
0
 10
19.0003938
 20
18.2121556
 42
0.0
  0
VERTEX
  8
0
 10
14.9089872
 20
15.3499566
 42
0.0
  0
VERTEX
  8
0
 10
12.265914
 20
13.5006334
 42
0.0
  0
VERTEX
  8
0
 10
10.1685344
 20
12.0344184
 42
0.0
  0
VERTEX
  8
0
 10
9.8061272
 20
11.7794532
 42
0.0
  0
VERTEX
  8
0
 10
9.8061272
 20
2.50251722
 42
0.0
  0
VERTEX
  8
0
 10
8.5617304
 20
1.63159694
 42
0.0
  0
VERTEX
  8
0
 10
8.4694268
 20
1.56820616
 42
0.0
  0
VERTEX
  8
0
 10
7.9058262
 20
1.1740896
 42
0.0
  0
VERTEX
  8
0
 10
7.7900276
 20
1.23058682
 42
0.0
  0
VERTEX
  8
0
 10
7.1740522
 20
1.53237946
 42
0.0
  0
VERTEX
  8
0
 10
6.9246496
 20
1.65364668
 42
0.0
  0
VERTEX
  8
0
 10
6.3279528
 20
1.9457924
 42
0.0
  0
VERTEX
  8
0
 10
1.17133116
 20
4.4662344
 42
0.0
  0
VERTEX
  8
0
 10
1.00045774
 20
4.4662344
 42
0.0
  0
VERTEX
  8
0
 10
1.00045774
 20
28.729432
 42
0.0
  0
VERTEX
  8
0
 10
3.0027372
 20
30.172152
 42
0.0
  0
VERTEX
  8
0
 10
3.0027372
 20
42.174922
 42
0.0
  0
VERTEX
  8
0
 10
2.32475024
 20
42.664126
 42
0.0
  0
VERTEX
  8
0
 10
1.09002576
 20
43.552872
 42
0.0
  0
VERTEX
  8
0
 10
1.00045774
 20
43.617896
 42
0.0
  0
VERTEX
  8
0
 10
1.00045774
 20
115.315746
 42
0.0
  0
VERTEX
  8
0
 10
1.96646038
 20
115.803426
 42
0.0
  0
VERTEX
  8
0
 10
2.32475024
 20
115.983766
 42
0.0
  0
VERTEX
  8
0
 10
4.6040294
 20
117.133116
 42
0.0
  0
VERTEX
  8
0
 10
6.2025276
 20
117.940582
 42
0.0
  0
VERTEX
  8
0
 10
6.2025276
 20
117.96014
 42
0.0
  0
VERTEX
  8
0
 10
6.2149482
 20
117.96014
 42
0.0
  0
VERTEX
  8
0
 10
6.2149482
 20
166.844472
 42
0.0
  0
VERTEX
  8
0
 10
6.3114174
 20
166.891462
 42
0.0
  0
VERTEX
  8
0
 10
6.3279528
 20
166.899844
 42
0.0
  0
VERTEX
  8
0
 10
6.9246496
 20
167.190674
 42
0.0
  0
VERTEX
  8
0
 10
7.1575422
 20
167.304974
 42
0.0
  0
VERTEX
  8
0
 10
7.1740522
 20
167.313102
 42
0.0
  0
VERTEX
  8
0
 10
8.452866
 20
167.938704
 42
0.0
  0
VERTEX
  8
0
 10
8.4694268
 20
167.946832
 42
0.0
  0
VERTEX
  8
0
 10
8.5466174
 20
167.984424
 42
0.0
  0
VERTEX
  8
0
 10
8.5617304
 20
167.991028
 42
0.0
  0
VERTEX
  8
0
 10
9.4436946
 20
168.422574
 42
0.0
  0
VERTEX
  8
0
 10
9.9825302
 20
168.685718
 42
0.0
  0
VERTEX
  8
0
 10
13.198856
 20
168.685718
 42
0.0
  0
VERTEX
  8
0
 10
14.48181
 20
167.945562
 42
0.0
  0
VERTEX
  8
0
 10
14.48181
 20
161.807906
 42
0.0
  0
VERTEX
  8
0
 10
14.6264884
 20
161.697416
 42
0.0
  0
VERTEX
  8
0
 10
16.4138102
 20
160.331912
 42
0.0
  0
VERTEX
  8
0
 10
16.7597074
 20
160.068768
 42
0.0
  0
VERTEX
  8
0
 10
16.9981118
 20
159.885634
 42
0.0
  0
VERTEX
  8
0
 10
17.6995328
 20
159.34944
 42
0.0
  0
VERTEX
  8
0
 10
18.9714378
 20
158.37789
 42
0.0
  0
VERTEX
  8
0
 10
18.9714378
 20
158.380684
 42
0.0
  0
VERTEX
  8
0
 10
18.9838584
 20
158.371032
 42
0.0
  0
VERTEX
  8
0
 10
18.996279
 20
158.380684
 42
0.0
  0
VERTEX
  8
0
 10
18.996279
 20
158.37789
 42
0.0
  0
VERTEX
  8
0
 10
20.268184
 20
159.34944
 42
0.0
  0
VERTEX
  8
0
 10
20.969605
 20
159.885634
 42
0.0
  0
VERTEX
  8
0
 10
21.2080094
 20
160.068768
 42
0.0
  0
VERTEX
  8
0
 10
21.5539066
 20
160.331912
 42
0.0
  0
VERTEX
  8
0
 10
23.286085
 20
161.654744
 42
0.0
  0
VERTEX
  8
0
 10
23.2915968
 20
161.659062
 42
0.0
  0
VERTEX
  8
0
 10
23.3412284
 20
161.697416
 42
0.0
  0
VERTEX
  8
0
 10
23.4859068
 20
161.807906
 42
0.0
  0
VERTEX
  8
0
 10
23.4859068
 20
167.945562
 42
0.0
  0
VERTEX
  8
0
 10
24.0371122
 20
168.264078
 42
0.0
  0
VERTEX
  8
0
 10
24.7674638
 20
168.685718
 42
0.0
  0
VERTEX
  8
0
 10
27.985212
 20
168.685718
 42
0.0
  0
VERTEX
  8
0
 10
28.540456
 20
168.414446
 42
0.0
  0
VERTEX
  8
0
 10
29.540962
 20
167.924988
 42
0.0
  0
VERTEX
  8
0
 10
29.557472
 20
167.917876
 42
0.0
  0
VERTEX
  8
0
 10
29.633418
 20
167.881046
 42
0.0
  0
VERTEX
  8
0
 10
29.648404
 20
167.87241
 42
0.0
  0
VERTEX
  8
0
 10
30.169358
 20
167.619172
 42
0.0
  0
VERTEX
  8
0
 10
30.836362
 20
167.292528
 42
0.0
  0
VERTEX
  8
0
 10
30.852872
 20
167.284146
 42
0.0
  0
VERTEX
  8
0
 10
30.928818
 20
167.247062
 42
0.0
  0
VERTEX
  8
0
 10
30.945328
 20
167.238934
 42
0.0
  0
VERTEX
  8
0
 10
31.018226
 20
167.202866
 42
0.0
  0
SEQEND
  0
POLYLINE
  8
0
 66
     1
 10
0.0
 20
0.0
 30
0.0
 70
     1
  0
VERTEX
  8
0
 10
18.9879732
 20
51.050698
 42
0.0
  0
VERTEX
  8
0
 10
18.9879732
 20
51.064668
 42
0.0
  0
VERTEX
  8
0
 10
18.9756034
 20
51.071526
 42
0.0
  0
VERTEX
  8
0
 10
16.9581322
 20
49.90719
 42
0.0
  0
VERTEX
  8
0
 10
16.5723062
 20
49.683924
 42
0.0
  0
VERTEX
  8
0
 10
16.077565
 20
49.398428
 42
0.0
  0
VERTEX
  8
0
 10
16.077565
 20
46.05401
 42
0.0
  0
VERTEX
  8
0
 10
16.5901878
 20
45.759116
 42
0.0
  0
VERTEX
  8
0
 10
18.9756034
 20
44.381166
 42
0.0
  0
VERTEX
  8
0
 10
18.9879732
 20
44.388024
 42
0.0
  0
VERTEX
  8
0
 10
18.9879732
 20
44.40301
 42
0.0
  0
VERTEX
  8
0
 10
19.0003938
 20
44.394882
 42
0.0
  0
VERTEX
  8
0
 10
19.0114174
 20
44.40301
 42
0.0
  0
VERTEX
  8
0
 10
19.0114174
 20
44.388024
 42
0.0
  0
VERTEX
  8
0
 10
19.0252096
 20
44.381166
 42
0.0
  0
VERTEX
  8
0
 10
21.4105744
 20
45.759116
 42
0.0
  0
VERTEX
  8
0
 10
21.8722194
 20
46.025054
 42
0.0
  0
VERTEX
  8
0
 10
21.9218256
 20
46.05401
 42
0.0
  0
VERTEX
  8
0
 10
21.9218256
 20
49.398428
 42
0.0
  0
VERTEX
  8
0
 10
21.4285068
 20
49.683924
 42
0.0
  0
VERTEX
  8
0
 10
21.04263
 20
49.90719
 42
0.0
  0
VERTEX
  8
0
 10
19.0252096
 20
51.071526
 42
0.0
  0
VERTEX
  8
0
 10
19.0114174
 20
51.064668
 42
0.0
  0
VERTEX
  8
0
 10
19.0114174
 20
51.050698
 42
0.0
  0
VERTEX
  8
0
 10
19.0003938
 20
51.057556
 42
0.0
  0
SEQEND
  0
POLYLINE
  8
0
 66
     1
 10
0.0
 20
0.0
 30
0.0
 70
     1
  0
VERTEX
  8
0
 10
18.9879732
 20
56.14289
 42
0.0
  0
VERTEX
  8
0
 10
19.0003938
 20
56.135778
 42
0.0
  0
VERTEX
  8
0
 10
19.0114174
 20
56.14289
 42
0.0
  0
VERTEX
  8
0
 10
19.0114174
 20
56.128666
 42
0.0
  0
VERTEX
  8
0
 10
19.0252096
 20
56.120538
 42
0.0
  0
VERTEX
  8
0
 10
20.2916028
 20
56.852312
 42
0.0
  0
VERTEX
  8
0
 10
21.1804504
 20
57.366154
 42
0.0
  0
VERTEX
  8
0
 10
21.9218256
 20
57.793382
 42
0.0
  0
VERTEX
  8
0
 10
21.9218256
 20
61.139578
 42
0.0
  0
VERTEX
  8
0
 10
21.8722194
 20
61.168534
 42
0.0
  0
VERTEX
  8
0
 10
21.8446604
 20
61.183774
 42
0.0
  0
VERTEX
  8
0
 10
19.3807334
 20
62.605666
 42
0.0
  0
VERTEX
  8
0
 10
19.0252096
 20
62.810898
 42
0.0
  0
VERTEX
  8
0
 10
19.0114174
 20
62.80404
 42
0.0
  0
VERTEX
  8
0
 10
19.0114174
 20
62.790324
 42
0.0
  0
VERTEX
  8
0
 10
19.0003938
 20
62.797182
 42
0.0
  0
VERTEX
  8
0
 10
18.9879732
 20
62.790324
 42
0.0
  0
VERTEX
  8
0
 10
18.9879732
 20
62.80404
 42
0.0
  0
VERTEX
  8
0
 10
18.9756034
 20
62.810898
 42
0.0
  0
VERTEX
  8
0
 10
18.6200796
 20
62.605666
 42
0.0
  0
VERTEX
  8
0
 10
17.8717956
 20
62.174374
 42
0.0
  0
VERTEX
  8
0
 10
16.1561272
 20
61.183774
 42
0.0
  0
VERTEX
  8
0
 10
16.077565
 20
61.139578
 42
0.0
  0
VERTEX
  8
0
 10
16.077565
 20
57.793382
 42
0.0
  0
VERTEX
  8
0
 10
16.8203372
 20
57.364884
 42
0.0
  0
VERTEX
  8
0
 10
17.7077878
 20
56.852312
 42
0.0
  0
VERTEX
  8
0
 10
18.9756034
 20
56.120538
 42
0.0
  0
VERTEX
  8
0
 10
18.9879732
 20
56.128666
 42
0.0
  0
SEQEND
  0
POLYLINE
  8
0
 66
     1
 10
0.0
 20
0.0
 30
0.0
 70
     1
  0
VERTEX
  8
0
 10
16.382111
 20
80.939132
 42
0.0
  0
VERTEX
  8
0
 10
16.4593016
 20
81.038446
 42
0.0
  0
VERTEX
  8
0
 10
16.53921
 20
81.141824
 42
0.0
  0
VERTEX
  8
0
 10
16.6287704
 20
81.257394
 42
0.0
  0
VERTEX
  8
0
 10
16.6976806
 20
81.345532
 42
0.0
  0
VERTEX
  8
0
 10
17.076674
 20
81.694274
 42
0.0
  0
VERTEX
  8
0
 10
17.507966
 20
81.976722
 42
0.0
  0
VERTEX
  8
0
 10
17.9792376
 20
82.183478
 42
0.0
  0
VERTEX
  8
0
 10
18.25625
 20
82.253582
 42
0.0
  0
VERTEX
  8
0
 10
18.25625
 20
83.871562
 42
0.0
  0
VERTEX
  8
0
 10
18.2176674
 20
83.868768
 42
0.0
  0
VERTEX
  8
0
 10
17.4666402
 20
83.678522
 42
0.0
  0
VERTEX
  8
0
 10
16.7555672
 20
83.366102
 42
0.0
  0
VERTEX
  8
0
 10
16.153384
 20
82.97291
 42
0.0
  0
VERTEX
  8
0
 10
16.106521
 20
82.942684
 42
0.0
  0
VERTEX
  8
0
 10
15.53464
 20
82.416396
 42
0.0
  0
VERTEX
  8
0
 10
15.0592028
 20
81.80451
 42
0.0
  0
VERTEX
  8
0
 10
14.6995388
 20
81.141824
 42
0.0
  0
VERTEX
  8
0
 10
14.6884898
 20
81.122266
 42
0.0
  0
VERTEX
  8
0
 10
14.4377156
 20
80.387952
 42
0.0
  0
VERTEX
  8
0
 10
14.315059
 20
79.654654
 42
0.0
  0
VERTEX
  8
0
 10
14.3095472
 20
79.622904
 42
0.0
  0
VERTEX
  8
0
 10
14.3095472
 20
78.847188
 42
0.0
  0
VERTEX
  8
0
 10
14.389481
 20
78.373224
 42
0.0
  0
VERTEX
  8
0
 10
14.4377156
 20
78.082394
 42
0.0
  0
VERTEX
  8
0
 10
14.5906744
 20
77.634338
 42
0.0
  0
VERTEX
  8
0
 10
14.6884898
 20
77.347826
 42
0.0
  0
VERTEX
  8
0
 10
14.8524976
 20
77.044804
 42
0.0
  0
VERTEX
  8
0
 10
15.0592028
 20
76.665582
 42
0.0
  0
VERTEX
  8
0
 10
15.1170894
 20
76.58989
 42
0.0
  0
VERTEX
  8
0
 10
15.53464
 20
76.052426
 42
0.0
  0
VERTEX
  8
0
 10
16.106521
 20
75.527662
 42
0.0
  0
VERTEX
  8
0
 10
16.6287704
 20
75.185778
 42
0.0
  0
VERTEX
  8
0
 10
16.7555672
 20
75.103228
 42
0.0
  0
VERTEX
  8
0
 10
17.4487078
 20
74.799952
 42
0.0
  0
VERTEX
  8
0
 10
17.4666402
 20
74.791824
 42
0.0
  0
VERTEX
  8
0
 10
17.5368966
 20
74.77379
 42
0.0
  0
VERTEX
  8
0
 10
18.1955948
 20
74.606912
 42
0.0
  0
VERTEX
  8
0
 10
18.2176674
 20
74.601578
 42
0.0
  0
VERTEX
  8
0
 10
18.25625
 20
74.59726
 42
0.0
  0
VERTEX
  8
0
 10
18.25625
 20
76.21651
 42
0.0
  0
VERTEX
  8
0
 10
18.1955948
 20
76.23175
 42
0.0
  0
VERTEX
  8
0
 10
18.0798724
 20
76.261976
 42
0.0
  0
VERTEX
  8
0
 10
17.9792376
 20
76.286868
 42
0.0
  0
VERTEX
  8
0
 10
17.507966
 20
76.493624
 42
0.0
  0
VERTEX
  8
0
 10
17.360519
 20
76.58989
 42
0.0
  0
VERTEX
  8
0
 10
17.1413932
 20
76.7334
 42
0.0
  0
VERTEX
  8
0
 10
17.076674
 20
76.774548
 42
0.0
  0
VERTEX
  8
0
 10
16.7831262
 20
77.044804
 42
0.0
  0
VERTEX
  8
0
 10
16.6976806
 20
77.12456
 42
0.0
  0
VERTEX
  8
0
 10
16.6287704
 20
77.212952
 42
0.0
  0
VERTEX
  8
0
 10
16.382111
 20
77.529944
 42
0.0
  0
VERTEX
  8
0
 10
16.1368232
 20
77.983334
 42
0.0
  0
VERTEX
  8
0
 10
15.9700722
 20
78.469744
 42
0.0
  0
VERTEX
  8
0
 10
15.8846266
 20
78.976728
 42
0.0
  0
VERTEX
  8
0
 10
15.8846266
 20
79.492094
 42
0.0
  0
VERTEX
  8
0
 10
15.912211
 20
79.654654
 42
0.0
  0
VERTEX
  8
0
 10
15.9700722
 20
80.000348
 42
0.0
  0
VERTEX
  8
0
 10
16.1368232
 20
80.487012
 42
0.0
  0
SEQEND
  0
POLYLINE
  8
0
 66
     1
 10
0.0
 20
0.0
 30
0.0
 70
     1
  0
VERTEX
  8
0
 10
16.3876228
 20
66.756026
 42
0.0
  0
VERTEX
  8
0
 10
18.1955948
 20
66.756026
 42
0.0
  0
VERTEX
  8
0
 10
18.1955948
 20
68.353432
 42
0.0
  0
VERTEX
  8
0
 10
16.9581322
 20
68.353432
 42
0.0
  0
VERTEX
  8
0
 10
17.9944268
 20
71.35749
 42
0.0
  0
VERTEX
  8
0
 10
18.1955948
 20
71.940674
 42
0.0
  0
VERTEX
  8
0
 10
18.1955948
 20
72.971406
 42
0.0
  0
VERTEX
  8
0
 10
16.8768268
 20
72.971406
 42
0.0
  0
VERTEX
  8
0
 10
16.8685718
 20
72.949054
 42
0.0
  0
VERTEX
  8
0
 10
16.6287704
 20
72.291956
 42
0.0
  0
VERTEX
  8
0
 10
15.3720038
 20
68.853812
 42
0.0
  0
VERTEX
  8
0
 10
14.1758924
 20
65.580768
 42
0.0
  0
VERTEX
  8
0
 10
13.9705588
 20
65.02019
 42
0.0
  0
VERTEX
  8
0
 10
13.8754612
 20
64.757046
 42
0.0
  0
VERTEX
  8
0
 10
13.1974844
 20
62.904878
 42
0.0
  0
VERTEX
  8
0
 10
13.004546
 20
62.374272
 42
0.0
  0
VERTEX
  8
0
 10
14.8166582
 20
62.374272
 42
0.0
  0
VERTEX
  8
0
 10
15.6586428
 20
64.725296
 42
0.0
  0
VERTEX
  8
0
 10
15.6710634
 20
64.757046
 42
0.0
  0
SEQEND
  0
POLYLINE
  8
0
 66
     1
 10
0.0
 20
0.0
 30
0.0
 70
     1
  0
VERTEX
  8
0
 10
18.9879732
 20
111.169196
 42
0.0
  0
VERTEX
  8
0
 10
19.0003938
 20
111.162084
 42
0.0
  0
VERTEX
  8
0
 10
19.0114174
 20
111.169196
 42
0.0
  0
VERTEX
  8
0
 10
19.0114174
 20
111.153956
 42
0.0
  0
VERTEX
  8
0
 10
19.0252096
 20
111.147098
 42
0.0
  0
VERTEX
  8
0
 10
19.1767968
 20
111.23549
 42
0.0
  0
VERTEX
  8
0
 10
21.1804504
 20
112.392968
 42
0.0
  0
VERTEX
  8
0
 10
21.8722194
 20
112.79124
 42
0.0
  0
VERTEX
  8
0
 10
21.9218256
 20
112.820196
 42
0.0
  0
VERTEX
  8
0
 10
21.9218256
 20
116.16436
 42
0.0
  0
VERTEX
  8
0
 10
21.8722194
 20
116.193316
 42
0.0
  0
VERTEX
  8
0
 10
21.6765378
 20
116.3066
 42
0.0
  0
VERTEX
  8
0
 10
21.1804504
 20
116.593112
 42
0.0
  0
VERTEX
  8
0
 10
19.798284
 20
117.390926
 42
0.0
  0
VERTEX
  8
0
 10
19.0252096
 20
117.837204
 42
0.0
  0
VERTEX
  8
0
 10
19.0114174
 20
117.829076
 42
0.0
  0
VERTEX
  8
0
 10
19.0114174
 20
117.81536
 42
0.0
  0
VERTEX
  8
0
 10
19.0003938
 20
117.822218
 42
0.0
  0
VERTEX
  8
0
 10
18.9879732
 20
117.81536
 42
0.0
  0
VERTEX
  8
0
 10
18.9879732
 20
117.829076
 42
0.0
  0
VERTEX
  8
0
 10
18.9756034
 20
117.837204
 42
0.0
  0
VERTEX
  8
0
 10
18.2011574
 20
117.390926
 42
0.0
  0
VERTEX
  8
0
 10
16.8203372
 20
116.593112
 42
0.0
  0
VERTEX
  8
0
 10
16.077565
 20
116.16436
 42
0.0
  0
VERTEX
  8
0
 10
16.077565
 20
112.820196
 42
0.0
  0
VERTEX
  8
0
 10
16.8203372
 20
112.391444
 42
0.0
  0
VERTEX
  8
0
 10
18.8226446
 20
111.23549
 42
0.0
  0
VERTEX
  8
0
 10
18.9756034
 20
111.147098
 42
0.0
  0
VERTEX
  8
0
 10
18.9879732
 20
111.153956
 42
0.0
  0
SEQEND
  0
POLYLINE
  8
0
 66
     1
 10
0.0
 20
0.0
 30
0.0
 70
     1
  0
VERTEX
  8
0
 10
18.9879732
 20
99.4283
 42
0.0
  0
VERTEX
  8
0
 10
19.0003938
 20
99.421188
 42
0.0
  0
VERTEX
  8
0
 10
19.0114174
 20
99.4283
 42
0.0
  0
VERTEX
  8
0
 10
19.0114174
 20
99.414584
 42
0.0
  0
VERTEX
  8
0
 10
19.0252096
 20
99.407472
 42
0.0
  0
VERTEX
  8
0
 10
20.8814162
 20
100.479606
 42
0.0
  0
VERTEX
  8
0
 10
21.8722194
 20
101.05136
 42
0.0
  0
VERTEX
  8
0
 10
21.9218256
 20
101.080316
 42
0.0
  0
VERTEX
  8
0
 10
21.9218256
 20
104.424988
 42
0.0
  0
VERTEX
  8
0
 10
21.8722194
 20
104.453944
 42
0.0
  0
VERTEX
  8
0
 10
20.0876662
 20
105.484676
 42
0.0
  0
VERTEX
  8
0
 10
19.0252096
 20
106.097832
 42
0.0
  0
VERTEX
  8
0
 10
19.0114174
 20
106.090974
 42
0.0
  0
VERTEX
  8
0
 10
19.0114174
 20
106.077004
 42
0.0
  0
VERTEX
  8
0
 10
19.0003938
 20
106.084116
 42
0.0
  0
VERTEX
  8
0
 10
18.9879732
 20
106.077004
 42
0.0
  0
VERTEX
  8
0
 10
18.9879732
 20
106.090974
 42
0.0
  0
VERTEX
  8
0
 10
18.9756034
 20
106.097832
 42
0.0
  0
VERTEX
  8
0
 10
17.9117244
 20
105.484676
 42
0.0
  0
VERTEX
  8
0
 10
16.077565
 20
104.424988
 42
0.0
  0
VERTEX
  8
0
 10
16.077565
 20
101.080316
 42
0.0
  0
VERTEX
  8
0
 10
17.119346
 20
100.479606
 42
0.0
  0
VERTEX
  8
0
 10
18.9756034
 20
99.407472
 42
0.0
  0
VERTEX
  8
0
 10
18.9879732
 20
99.414584
 42
0.0
  0
SEQEND
  0
POLYLINE
  8
0
 66
     1
 10
0.0
 20
0.0
 30
0.0
 70
     1
  0
VERTEX
  8
0
 10
21.0826096
 20
68.353432
 42
0.0
  0
VERTEX
  8
0
 10
19.8685404
 20
68.353432
 42
0.0
  0
VERTEX
  8
0
 10
19.8685404
 20
66.756026
 42
0.0
  0
VERTEX
  8
0
 10
21.6544906
 20
66.756026
 42
0.0
  0
VERTEX
  8
0
 10
21.8722194
 20
66.1416
 42
0.0
  0
VERTEX
  8
0
 10
22.3641666
 20
64.757046
 42
0.0
  0
VERTEX
  8
0
 10
23.2103168
 20
62.374272
 42
0.0
  0
VERTEX
  8
0
 10
25.0513596
 20
62.374272
 42
0.0
  0
VERTEX
  8
0
 10
24.8184924
 20
63.007748
 42
0.0
  0
VERTEX
  8
0
 10
24.1777012
 20
64.757046
 42
0.0
  0
VERTEX
  8
0
 10
24.1390932
 20
64.86271
 42
0.0
  0
VERTEX
  8
0
 10
23.4445556
 20
66.756026
 42
0.0
  0
VERTEX
  8
0
 10
21.8722194
 20
71.048626
 42
0.0
  0
VERTEX
  8
0
 10
21.1749132
 20
72.949054
 42
0.0
  0
VERTEX
  8
0
 10
21.1666582
 20
72.971406
 42
0.0
  0
VERTEX
  8
0
 10
19.8685404
 20
72.971406
 42
0.0
  0
VERTEX
  8
0
 10
19.8685404
 20
71.84009
 42
0.0
  0
VERTEX
  8
0
 10
20.0160128
 20
71.418196
 42
0.0
  0
VERTEX
  8
0
 10
20.4914246
 20
70.053962
 42
0.0
  0
SEQEND
  0
POLYLINE
  8
0
 66
     1
 10
0.0
 20
0.0
 30
0.0
 70
     1
  0
VERTEX
  8
0
 10
20.9062066
 20
76.774548
 42
0.0
  0
VERTEX
  8
0
 10
20.8607406
 20
76.745846
 42
0.0
  0
VERTEX
  8
0
 10
20.7256888
 20
76.657454
 42
0.0
  0
VERTEX
  8
0
 10
20.6223362
 20
76.58989
 42
0.0
  0
VERTEX
  8
0
 10
20.4749146
 20
76.493624
 42
0.0
  0
VERTEX
  8
0
 10
20.0035922
 20
76.286868
 42
0.0
  0
VERTEX
  8
0
 10
19.8203312
 20
76.239878
 42
0.0
  0
VERTEX
  8
0
 10
19.8203312
 20
74.615294
 42
0.0
  0
VERTEX
  8
0
 10
20.5176374
 20
74.791824
 42
0.0
  0
VERTEX
  8
0
 10
20.553426
 20
74.808334
 42
0.0
  0
VERTEX
  8
0
 10
20.7256888
 20
74.882756
 42
0.0
  0
VERTEX
  8
0
 10
21.2273134
 20
75.103228
 42
0.0
  0
VERTEX
  8
0
 10
21.8722194
 20
75.524868
 42
0.0
  0
VERTEX
  8
0
 10
21.8763596
 20
75.527662
 42
0.0
  0
VERTEX
  8
0
 10
22.4482406
 20
76.052426
 42
0.0
  0
VERTEX
  8
0
 10
22.8657912
 20
76.58989
 42
0.0
  0
VERTEX
  8
0
 10
22.9236778
 20
76.665582
 42
0.0
  0
VERTEX
  8
0
 10
23.1303576
 20
77.044804
 42
0.0
  0
VERTEX
  8
0
 10
23.2943654
 20
77.347826
 42
0.0
  0
VERTEX
  8
0
 10
23.545165
 20
78.082394
 42
0.0
  0
VERTEX
  8
0
 10
23.6733334
 20
78.847188
 42
0.0
  0
VERTEX
  8
0
 10
23.6733334
 20
79.622904
 42
0.0
  0
VERTEX
  8
0
 10
23.6677962
 20
79.654654
 42
0.0
  0
VERTEX
  8
0
 10
23.545165
 20
80.387952
 42
0.0
  0
VERTEX
  8
0
 10
23.2943654
 20
81.122266
 42
0.0
  0
VERTEX
  8
0
 10
23.2833418
 20
81.141824
 42
0.0
  0
VERTEX
  8
0
 10
22.9236778
 20
81.80451
 42
0.0
  0
VERTEX
  8
0
 10
22.4482406
 20
82.416396
 42
0.0
  0
VERTEX
  8
0
 10
21.8763596
 20
82.942684
 42
0.0
  0
VERTEX
  8
0
 10
21.8722194
 20
82.945478
 42
0.0
  0
VERTEX
  8
0
 10
21.8460574
 20
82.963512
 42
0.0
  0
VERTEX
  8
0
 10
21.2273134
 20
83.366102
 42
0.0
  0
VERTEX
  8
0
 10
20.7256888
 20
83.586574
 42
0.0
  0
VERTEX
  8
0
 10
20.5176374
 20
83.678522
 42
0.0
  0
VERTEX
  8
0
 10
19.8203312
 20
83.853528
 42
0.0
  0
VERTEX
  8
0
 10
19.8203312
 20
82.228944
 42
0.0
  0
VERTEX
  8
0
 10
20.0035922
 20
82.183478
 42
0.0
  0
VERTEX
  8
0
 10
20.4749146
 20
81.976722
 42
0.0
  0
VERTEX
  8
0
 10
20.7256888
 20
81.812638
 42
0.0
  0
VERTEX
  8
0
 10
20.9062066
 20
81.694274
 42
0.0
  0
VERTEX
  8
0
 10
21.2851746
 20
81.345532
 42
0.0
  0
VERTEX
  8
0
 10
21.4436706
 20
81.141824
 42
0.0
  0
VERTEX
  8
0
 10
21.5373712
 20
81.020412
 42
0.0
  0
VERTEX
  8
0
 10
21.6007696
 20
80.939132
 42
0.0
  0
VERTEX
  8
0
 10
21.8460574
 20
80.487012
 42
0.0
  0
VERTEX
  8
0
 10
21.8722194
 20
80.411574
 42
0.0
  0
VERTEX
  8
0
 10
22.0127576
 20
80.000348
 42
0.0
  0
VERTEX
  8
0
 10
22.0706696
 20
79.654654
 42
0.0
  0
VERTEX
  8
0
 10
22.0982032
 20
79.492094
 42
0.0
  0
VERTEX
  8
0
 10
22.0982032
 20
78.976728
 42
0.0
  0
VERTEX
  8
0
 10
22.0127576
 20
78.469744
 42
0.0
  0
VERTEX
  8
0
 10
21.8722194
 20
78.059026
 42
0.0
  0
VERTEX
  8
0
 10
21.8460574
 20
77.983334
 42
0.0
  0
VERTEX
  8
0
 10
21.6007696
 20
77.529944
 42
0.0
  0
VERTEX
  8
0
 10
21.2851746
 20
77.12456
 42
0.0
  0
VERTEX
  8
0
 10
21.1997544
 20
77.044804
 42
0.0
  0
SEQEND
  0
POLYLINE
  8
0
 66
     1
 10
0.0
 20
0.0
 30
0.0
 70
     1
  0
VERTEX
  8
0
 10
16.5226746
 20
88.212422
 42
0.0
  0
VERTEX
  8
0
 10
16.077565
 20
88.81999
 42
0.0
  0
VERTEX
  8
0
 10
16.050006
 20
88.858598
 42
0.0
  0
VERTEX
  8
0
 10
15.883255
 20
89.332816
 42
0.0
  0
VERTEX
  8
0
 10
15.7661356
 20
89.663524
 42
0.0
  0
VERTEX
  8
0
 10
15.672435
 20
90.626946
 42
0.0
  0
VERTEX
  8
0
 10
15.672435
 20
92.419678
 42
0.0
  0
VERTEX
  8
0
 10
13.8244834
 20
92.419678
 42
0.0
  0
VERTEX
  8
0
 10
13.8244834
 20
90.706702
 42
0.0
  0
VERTEX
  8
0
 10
13.8616944
 20
90.00236
 42
0.0
  0
VERTEX
  8
0
 10
13.9705588
 20
89.364312
 42
0.0
  0
VERTEX
  8
0
 10
13.974699
 20
89.346532
 42
0.0
  0
VERTEX
  8
0
 10
13.9774422
 20
89.332816
 42
0.0
  0
VERTEX
  8
0
 10
14.1607032
 20
88.73744
 42
0.0
  0
VERTEX
  8
0
 10
14.4225518
 20
88.171274
 42
0.0
  0
VERTEX
  8
0
 10
14.7546568
 20
87.662512
 42
0.0
  0
VERTEX
  8
0
 10
15.1584406
 20
87.21471
 42
0.0
  0
VERTEX
  8
0
 10
15.5291028
 20
86.90991
 42
0.0
  0
VERTEX
  8
0
 10
15.6324554
 20
86.82609
 42
0.0
  0
VERTEX
  8
0
 10
16.077565
 20
86.560152
 42
0.0
  0
VERTEX
  8
0
 10
16.1754312
 20
86.50224
 42
0.0
  0
VERTEX
  8
0
 10
16.6287704
 20
86.3092
 42
0.0
  0
VERTEX
  8
0
 10
16.7858694
 20
86.24316
 42
0.0
  0
VERTEX
  8
0
 10
17.313656
 20
86.09711
 42
0.0
  0
VERTEX
  8
0
 10
17.473549
 20
86.053168
 42
0.0
  0
VERTEX
  8
0
 10
18.1873398
 20
85.945472
 42
0.0
  0
VERTEX
  8
0
 10
18.1873398
 20
87.44204
 42
0.0
  0
VERTEX
  8
0
 10
18.0660548
 20
87.452962
 42
0.0
  0
VERTEX
  8
0
 10
17.1965366
 20
87.738204
 42
0.0
  0
VERTEX
  8
0
 10
16.6287704
 20
88.136476
 42
0.0
  0
SEQEND
  0
POLYLINE
  8
0
 66
     1
 10
0.0
 20
0.0
 30
0.0
 70
     1
  0
VERTEX
  8
0
 10
21.9549218
 20
88.584278
 42
0.0
  0
VERTEX
  8
0
 10
21.8722194
 20
88.479884
 42
0.0
  0
VERTEX
  8
0
 10
21.7123772
 20
88.276938
 42
0.0
  0
VERTEX
  8
0
 10
21.4133176
 20
88.002872
 42
0.0
  0
VERTEX
  8
0
 10
21.0605624
 20
87.775796
 42
0.0
  0
VERTEX
  8
0
 10
20.7256888
 20
87.625428
 42
0.0
  0
VERTEX
  8
0
 10
20.656804
 20
87.594948
 42
0.0
  0
VERTEX
  8
0
 10
20.2075796
 20
87.462868
 42
0.0
  0
VERTEX
  8
0
 10
19.8327518
 20
87.406226
 42
0.0
  0
VERTEX
  8
0
 10
19.8327518
 20
85.937344
 42
0.0
  0
VERTEX
  8
0
 10
19.9044052
 20
85.941154
 42
0.0
  0
VERTEX
  8
0
 10
20.6857346
 20
86.058502
 42
0.0
  0
VERTEX
  8
0
 10
20.7256888
 20
86.069678
 42
0.0
  0
VERTEX
  8
0
 10
21.0081876
 20
86.149434
 42
0.0
  0
VERTEX
  8
0
 10
21.3898988
 20
86.255606
 42
0.0
  0
VERTEX
  8
0
 10
21.487765
 20
86.298278
 42
0.0
  0
VERTEX
  8
0
 10
21.8722194
 20
86.466426
 42
0.0
  0
VERTEX
  8
0
 10
22.0196918
 20
86.531196
 42
0.0
  0
VERTEX
  8
0
 10
22.4523554
 20
86.792816
 42
0.0
  0
VERTEX
  8
0
 10
22.576409
 20
86.868762
 42
0.0
  0
VERTEX
  8
0
 10
22.7734622
 20
87.030052
 42
0.0
  0
VERTEX
  8
0
 10
22.9842822
 20
87.204804
 42
0.0
  0
VERTEX
  8
0
 10
23.0614728
 20
87.267034
 42
0.0
  0
VERTEX
  8
0
 10
23.4638596
 20
87.720424
 42
0.0
  0
VERTEX
  8
0
 10
23.7904528
 20
88.223344
 42
0.0
  0
VERTEX
  8
0
 10
24.044021
 20
88.775794
 42
0.0
  0
VERTEX
  8
0
 10
24.21763
 20
89.332816
 42
0.0
  0
VERTEX
  8
0
 10
24.2314222
 20
89.377012
 42
0.0
  0
VERTEX
  8
0
 10
24.3444268
 20
90.006678
 42
0.0
  0
VERTEX
  8
0
 10
24.3816378
 20
90.666824
 42
0.0
  0
VERTEX
  8
0
 10
24.3816378
 20
92.419678
 42
0.0
  0
VERTEX
  8
0
 10
22.5185224
 20
92.419678
 42
0.0
  0
VERTEX
  8
0
 10
22.5185224
 20
90.640662
 42
0.0
  0
VERTEX
  8
0
 10
22.5006154
 20
90.26144
 42
0.0
  0
VERTEX
  8
0
 10
22.4964752
 20
90.171778
 42
0.0
  0
VERTEX
  8
0
 10
22.427565
 20
89.729818
 42
0.0
  0
VERTEX
  8
0
 10
22.3187006
 20
89.332816
 42
0.0
  0
VERTEX
  8
0
 10
22.3145604
 20
89.314782
 42
0.0
  0
VERTEX
  8
0
 10
22.1560898
 20
88.93175
 42
0.0
  0
SEQEND
  0
POLYLINE
  8
0
 66
     1
 10
0.0
 20
0.0
 30
0.0
 70
     1
  0
VERTEX
  8
0
 10
8.5148928
 20
14.5507202
 42
0.0
  0
VERTEX
  8
0
 10
8.5245702
 20
14.5507202
 42
0.0
  0
VERTEX
  8
0
 10
8.5245702
 20
21.6834212
 42
0.0
  0
VERTEX
  8
0
 10
6.9990462
 20
21.6834212
 42
0.0
  0
VERTEX
  8
0
 10
6.9990462
 20
14.5507202
 42
0.0
  0
VERTEX
  8
0
 10
7.0307454
 20
14.5507202
 42
0.0
  0
VERTEX
  8
0
 10
7.0307454
 20
14.5452084
 42
0.0
  0
VERTEX
  8
0
 10
8.5148928
 20
14.5452084
 42
0.0
  0
SEQEND
  0
POLYLINE
  8
0
 66
     1
 10
0.0
 20
0.0
 30
0.0
 70
     1
  0
VERTEX
  8
0
 10
32.72282
 20
9.5993966
 42
0.0
  0
VERTEX
  8
0
 10
32.600392
 20
9.4574868
 42
0.0
  0
VERTEX
  8
0
 10
32.459676
 20
9.2287344
 42
0.0
  0
VERTEX
  8
0
 10
32.357822
 20
8.9820496
 42
0.0
  0
VERTEX
  8
0
 10
32.35071
 20
8.9503504
 42
0.0
  0
VERTEX
  8
0
 10
32.295592
 20
8.722995
 42
0.0
  0
VERTEX
  8
0
 10
32.275018
 20
8.45566
 42
0.0
  0
VERTEX
  8
0
 10
32.295592
 20
8.1896712
 42
0.0
  0
VERTEX
  8
0
 10
32.357822
 20
7.9306166
 42
0.0
  0
VERTEX
  8
0
 10
32.42945
 20
7.7556106
 42
0.0
  0
VERTEX
  8
0
 10
32.459676
 20
7.6825602
 42
0.0
  0
VERTEX
  8
0
 10
32.568642
 20
7.5061572
 42
0.0
  0
VERTEX
  8
0
 10
32.600392
 20
7.4551794
 42
0.0
  0
VERTEX
  8
0
 10
32.635952
 20
7.4124566
 42
0.0
  0
VERTEX
  8
0
 10
32.773874
 20
7.2526144
 42
0.0
  0
VERTEX
  8
0
 10
32.976566
 20
7.07898
 42
0.0
  0
VERTEX
  8
0
 10
33.203896
 20
6.9384418
 42
0.0
  0
VERTEX
  8
0
 10
33.45053
 20
6.8364354
 42
0.0
  0
VERTEX
  8
0
 10
33.71088
 20
6.774434
 42
0.0
  0
VERTEX
  8
0
 10
33.713674
 20
6.774434
 42
0.0
  0
VERTEX
  8
0
 10
33.976818
 20
6.7537584
 42
0.0
  0
VERTEX
  8
0
 10
34.24428
 20
6.774434
 42
0.0
  0
VERTEX
  8
0
 10
34.50336
 20
6.8364354
 42
0.0
  0
VERTEX
  8
0
 10
34.696146
 20
6.9163946
 42
0.0
  0
VERTEX
  8
0
 10
34.749994
 20
6.9384418
 42
0.0
  0
VERTEX
  8
0
 10
34.977324
 20
7.07898
 42
0.0
  0
VERTEX
  8
0
 10
35.181286
 20
7.2526144
 42
0.0
  0
VERTEX
  8
0
 10
35.318954
 20
7.4124566
 42
0.0
  0
VERTEX
  8
0
 10
35.355022
 20
7.4551794
 42
0.0
  0
VERTEX
  8
0
 10
35.49396
 20
7.6825602
 42
0.0
  0
VERTEX
  8
0
 10
35.561778
 20
7.8437994
 42
0.0
  0
VERTEX
  8
0
 10
35.597338
 20
7.9306166
 42
0.0
  0
VERTEX
  8
0
 10
35.659568
 20
8.1896712
 42
0.0
  0
VERTEX
  8
0
 10
35.680396
 20
8.45566
 42
0.0
  0
VERTEX
  8
0
 10
35.659568
 20
8.722995
 42
0.0
  0
VERTEX
  8
0
 10
35.597338
 20
8.9820496
 42
0.0
  0
VERTEX
  8
0
 10
35.49396
 20
9.2287344
 42
0.0
  0
VERTEX
  8
0
 10
35.355022
 20
9.4574868
 42
0.0
  0
VERTEX
  8
0
 10
35.352228
 20
9.4616016
 42
0.0
  0
VERTEX
  8
0
 10
35.294316
 20
9.5277432
 42
0.0
  0
VERTEX
  8
0
 10
35.181286
 20
9.6600518
 42
0.0
  0
VERTEX
  8
0
 10
34.977324
 20
9.8336862
 42
0.0
  0
VERTEX
  8
0
 10
34.749994
 20
9.9728528
 42
0.0
  0
VERTEX
  8
0
 10
34.674302
 20
10.0045774
 42
0.0
  0
VERTEX
  8
0
 10
34.50336
 20
10.0748338
 42
0.0
  0
VERTEX
  8
0
 10
34.42208
 20
10.0955094
 42
0.0
  0
VERTEX
  8
0
 10
34.24428
 20
10.1382322
 42
0.0
  0
VERTEX
  8
0
 10
33.976818
 20
10.1589078
 42
0.0
  0
VERTEX
  8
0
 10
33.71088
 20
10.1382322
 42
0.0
  0
VERTEX
  8
0
 10
33.636458
 20
10.1203252
 42
0.0
  0
VERTEX
  8
0
 10
33.45053
 20
10.0748338
 42
0.0
  0
VERTEX
  8
0
 10
33.348422
 20
10.032111
 42
0.0
  0
VERTEX
  8
0
 10
33.203896
 20
9.9728528
 42
0.0
  0
VERTEX
  8
0
 10
33.01365
 20
9.8557334
 42
0.0
  0
VERTEX
  8
0
 10
32.976566
 20
9.8336862
 42
0.0
  0
VERTEX
  8
0
 10
32.773874
 20
9.6600518
 42
0.0
  0
SEQEND
  0
POLYLINE
  8
0
 66
     1
 10
0.0
 20
0.0
 30
0.0
 70
     1
  0
VERTEX
  8
0
 10
32.538162
 20
47.523146
 42
0.0
  0
VERTEX
  8
0
 10
32.600392
 20
47.422562
 42
0.0
  0
VERTEX
  8
0
 10
32.773874
 20
47.2186
 42
0.0
  0
VERTEX
  8
0
 10
32.976566
 20
47.046134
 42
0.0
  0
VERTEX
  8
0
 10
33.01365
 20
47.02429
 42
0.0
  0
VERTEX
  8
0
 10
33.203896
 20
46.905672
 42
0.0
  0
VERTEX
  8
0
 10
33.45053
 20
46.803818
 42
0.0
  0
VERTEX
  8
0
 10
33.71088
 20
46.741588
 42
0.0
  0
VERTEX
  8
0
 10
33.75787
 20
46.738794
 42
0.0
  0
VERTEX
  8
0
 10
33.976818
 20
46.721268
 42
0.0
  0
VERTEX
  8
0
 10
34.24428
 20
46.741588
 42
0.0
  0
VERTEX
  8
0
 10
34.50336
 20
46.803818
 42
0.0
  0
VERTEX
  8
0
 10
34.749994
 20
46.905672
 42
0.0
  0
VERTEX
  8
0
 10
34.820352
 20
46.949868
 42
0.0
  0
VERTEX
  8
0
 10
34.977324
 20
47.046134
 42
0.0
  0
VERTEX
  8
0
 10
35.181286
 20
47.2186
 42
0.0
  0
VERTEX
  8
0
 10
35.355022
 20
47.422562
 42
0.0
  0
VERTEX
  8
0
 10
35.49396
 20
47.649638
 42
0.0
  0
VERTEX
  8
0
 10
35.54095
 20
47.764446
 42
0.0
  0
VERTEX
  8
0
 10
35.563048
 20
47.816516
 42
0.0
  0
VERTEX
  8
0
 10
35.597338
 20
47.896526
 42
0.0
  0
VERTEX
  8
0
 10
35.659568
 20
48.156876
 42
0.0
  0
VERTEX
  8
0
 10
35.676078
 20
48.373284
 42
0.0
  0
VERTEX
  8
0
 10
35.680396
 20
48.423068
 42
0.0
  0
VERTEX
  8
0
 10
35.659568
 20
48.689006
 42
0.0
  0
VERTEX
  8
0
 10
35.597338
 20
48.949356
 42
0.0
  0
VERTEX
  8
0
 10
35.49396
 20
49.19599
 42
0.0
  0
VERTEX
  8
0
 10
35.355022
 20
49.424844
 42
0.0
  0
VERTEX
  8
0
 10
35.298634
 20
49.490884
 42
0.0
  0
VERTEX
  8
0
 10
35.181286
 20
49.627282
 42
0.0
  0
VERTEX
  8
0
 10
35.061398
 20
49.73066
 42
0.0
  0
VERTEX
  8
0
 10
34.977324
 20
49.801018
 42
0.0
  0
VERTEX
  8
0
 10
34.749994
 20
49.94021
 42
0.0
  0
VERTEX
  8
0
 10
34.50336
 20
50.042318
 42
0.0
  0
VERTEX
  8
0
 10
34.467546
 20
50.050446
 42
0.0
  0
VERTEX
  8
0
 10
34.24428
 20
50.10531
 42
0.0
  0
VERTEX
  8
0
 10
34.008568
 20
50.123344
 42
0.0
  0
VERTEX
  8
0
 10
33.976818
 20
50.126138
 42
0.0
  0
VERTEX
  8
0
 10
33.71088
 20
50.10531
 42
0.0
  0
VERTEX
  8
0
 10
33.45053
 20
50.042318
 42
0.0
  0
VERTEX
  8
0
 10
33.203896
 20
49.94021
 42
0.0
  0
VERTEX
  8
0
 10
33.01365
 20
49.822862
 42
0.0
  0
VERTEX
  8
0
 10
32.976566
 20
49.801018
 42
0.0
  0
VERTEX
  8
0
 10
32.773874
 20
49.627282
 42
0.0
  0
VERTEX
  8
0
 10
32.718756
 20
49.562512
 42
0.0
  0
VERTEX
  8
0
 10
32.600392
 20
49.424844
 42
0.0
  0
VERTEX
  8
0
 10
32.459676
 20
49.19599
 42
0.0
  0
VERTEX
  8
0
 10
32.357822
 20
48.949356
 42
0.0
  0
VERTEX
  8
0
 10
32.295592
 20
48.689006
 42
0.0
  0
VERTEX
  8
0
 10
32.275018
 20
48.423068
 42
0.0
  0
VERTEX
  8
0
 10
32.279082
 20
48.373284
 42
0.0
  0
VERTEX
  8
0
 10
32.295592
 20
48.156876
 42
0.0
  0
VERTEX
  8
0
 10
32.357822
 20
47.896526
 42
0.0
  0
VERTEX
  8
0
 10
32.427926
 20
47.728378
 42
0.0
  0
VERTEX
  8
0
 10
32.459676
 20
47.649638
 42
0.0
  0
SEQEND
  0
POLYLINE
  8
0
 66
     1
 10
0.0
 20
0.0
 30
0.0
 70
     1
  0
VERTEX
  8
0
 10
32.546544
 20
110.794546
 42
0.0
  0
VERTEX
  8
0
 10
32.600392
 20
110.707424
 42
0.0
  0
VERTEX
  8
0
 10
32.773874
 20
110.504732
 42
0.0
  0
VERTEX
  8
0
 10
32.976566
 20
110.33125
 42
0.0
  0
VERTEX
  8
0
 10
33.01365
 20
110.309406
 42
0.0
  0
VERTEX
  8
0
 10
33.203896
 20
110.191804
 42
0.0
  0
VERTEX
  8
0
 10
33.45053
 20
110.088934
 42
0.0
  0
VERTEX
  8
0
 10
33.665414
 20
110.037626
 42
0.0
  0
VERTEX
  8
0
 10
33.71088
 20
110.026704
 42
0.0
  0
VERTEX
  8
0
 10
33.976818
 20
110.005876
 42
0.0
  0
VERTEX
  8
0
 10
34.24428
 20
110.026704
 42
0.0
  0
VERTEX
  8
0
 10
34.50336
 20
110.088934
 42
0.0
  0
VERTEX
  8
0
 10
34.672778
 20
110.160562
 42
0.0
  0
VERTEX
  8
0
 10
34.749994
 20
110.191804
 42
0.0
  0
VERTEX
  8
0
 10
34.914078
 20
110.292896
 42
0.0
  0
VERTEX
  8
0
 10
34.977324
 20
110.33125
 42
0.0
  0
VERTEX
  8
0
 10
35.061398
 20
110.402878
 42
0.0
  0
VERTEX
  8
0
 10
35.181286
 20
110.504732
 42
0.0
  0
VERTEX
  8
0
 10
35.355022
 20
110.707424
 42
0.0
  0
VERTEX
  8
0
 10
35.49396
 20
110.936278
 42
0.0
  0
VERTEX
  8
0
 10
35.580828
 20
111.144304
 42
0.0
  0
VERTEX
  8
0
 10
35.597338
 20
111.181388
 42
0.0
  0
VERTEX
  8
0
 10
35.659568
 20
111.441738
 42
0.0
  0
VERTEX
  8
0
 10
35.680396
 20
111.7092
 42
0.0
  0
VERTEX
  8
0
 10
35.667696
 20
111.860838
 42
0.0
  0
VERTEX
  8
0
 10
35.659568
 20
111.975138
 42
0.0
  0
VERTEX
  8
0
 10
35.597338
 20
112.235488
 42
0.0
  0
VERTEX
  8
0
 10
35.49396
 20
112.481106
 42
0.0
  0
VERTEX
  8
0
 10
35.421062
 20
112.602518
 42
0.0
  0
VERTEX
  8
0
 10
35.355022
 20
112.709706
 42
0.0
  0
VERTEX
  8
0
 10
35.181286
 20
112.912144
 42
0.0
  0
VERTEX
  8
0
 10
34.977324
 20
113.086134
 42
0.0
  0
VERTEX
  8
0
 10
34.749994
 20
113.225072
 42
0.0
  0
VERTEX
  8
0
 10
34.623248
 20
113.27765
 42
0.0
  0
VERTEX
  8
0
 10
34.50336
 20
113.32845
 42
0.0
  0
VERTEX
  8
0
 10
34.24428
 20
113.390426
 42
0.0
  0
VERTEX
  8
0
 10
33.976818
 20
113.411
 42
0.0
  0
VERTEX
  8
0
 10
33.71088
 20
113.390426
 42
0.0
  0
VERTEX
  8
0
 10
33.59785
 20
113.362994
 42
0.0
  0
VERTEX
  8
0
 10
33.45053
 20
113.32845
 42
0.0
  0
VERTEX
  8
0
 10
33.203896
 20
113.225072
 42
0.0
  0
VERTEX
  8
0
 10
33.01365
 20
113.107978
 42
0.0
  0
VERTEX
  8
0
 10
32.976566
 20
113.086134
 42
0.0
  0
VERTEX
  8
0
 10
32.773874
 20
112.912144
 42
0.0
  0
VERTEX
  8
0
 10
32.600392
 20
112.709706
 42
0.0
  0
VERTEX
  8
0
 10
32.459676
 20
112.481106
 42
0.0
  0
VERTEX
  8
0
 10
32.357822
 20
112.235488
 42
0.0
  0
VERTEX
  8
0
 10
32.295592
 20
111.975138
 42
0.0
  0
VERTEX
  8
0
 10
32.287464
 20
111.860838
 42
0.0
  0
VERTEX
  8
0
 10
32.275018
 20
111.7092
 42
0.0
  0
VERTEX
  8
0
 10
32.295592
 20
111.441738
 42
0.0
  0
VERTEX
  8
0
 10
32.357822
 20
111.181388
 42
0.0
  0
VERTEX
  8
0
 10
32.426656
 20
111.016034
 42
0.0
  0
VERTEX
  8
0
 10
32.459676
 20
110.936278
 42
0.0
  0
SEQEND
  0
POLYLINE
  8
0
 66
     1
 10
0.0
 20
0.0
 30
0.0
 70
     1
  0
VERTEX
  8
0
 10
12.265914
 20
28.052776
 42
0.0
  0
VERTEX
  8
0
 10
10.420731
 20
26.9875
 42
0.0
  0
VERTEX
  8
0
 10
10.420731
 20
23.388066
 42
0.0
  0
VERTEX
  8
0
 10
12.265914
 20
22.3228154
 42
0.0
  0
VERTEX
  8
0
 10
13.5405876
 20
21.5869774
 42
0.0
  0
VERTEX
  8
0
 10
13.8975084
 20
21.7936572
 42
0.0
  0
VERTEX
  8
0
 10
16.6577518
 20
23.388066
 42
0.0
  0
VERTEX
  8
0
 10
16.6577518
 20
26.9875
 42
0.0
  0
VERTEX
  8
0
 10
13.5405876
 20
28.788614
 42
0.0
  0
SEQEND
  0
POLYLINE
  8
0
 66
     1
 10
0.0
 20
0.0
 30
0.0
 70
     1
  0
VERTEX
  8
0
 10
13.096875
 20
56.214518
 42
0.0
  0
VERTEX
  8
0
 10
12.265914
 20
55.734712
 42
0.0
  0
VERTEX
  8
0
 10
11.0243112
 20
55.016654
 42
0.0
  0
VERTEX
  8
0
 10
11.0243112
 20
51.670966
 42
0.0
  0
VERTEX
  8
0
 10
12.265914
 20
50.954432
 42
0.0
  0
VERTEX
  8
0
 10
13.9222988
 20
49.999138
 42
0.0
  0
VERTEX
  8
0
 10
15.1322278
 20
50.696622
 42
0.0
  0
VERTEX
  8
0
 10
16.8203372
 20
51.670966
 42
0.0
  0
VERTEX
  8
0
 10
16.8203372
 20
55.016654
 42
0.0
  0
VERTEX
  8
0
 10
16.077565
 20
55.445406
 42
0.0
  0
VERTEX
  8
0
 10
14.2089378
 20
56.524652
 42
0.0
  0
VERTEX
  8
0
 10
13.9705588
 20
56.662066
 42
0.0
  0
VERTEX
  8
0
 10
13.9222988
 20
56.689752
 42
0.0
  0
SEQEND
  0
POLYLINE
  8
0
 66
     1
 10
0.0
 20
0.0
 30
0.0
 70
     1
  0
VERTEX
  8
0
 10
24.1018822
 20
21.7936572
 42
0.0
  0
VERTEX
  8
0
 10
24.3912644
 20
21.6269316
 42
0.0
  0
VERTEX
  8
0
 10
24.4601746
 20
21.5869774
 42
0.0
  0
VERTEX
  8
0
 10
25.677114
 20
22.28977
 42
0.0
  0
VERTEX
  8
0
 10
25.760934
 20
22.3393762
 42
0.0
  0
VERTEX
  8
0
 10
27.578558
 20
23.388066
 42
0.0
  0
VERTEX
  8
0
 10
27.578558
 20
26.9875
 42
0.0
  0
VERTEX
  8
0
 10
27.43962
 20
27.06878
 42
0.0
  0
VERTEX
  8
0
 10
25.677114
 20
28.085796
 42
0.0
  0
VERTEX
  8
0
 10
24.7674638
 20
28.610814
 42
0.0
  0
VERTEX
  8
0
 10
24.4601746
 20
28.788614
 42
0.0
  0
VERTEX
  8
0
 10
24.3912644
 20
28.748736
 42
0.0
  0
VERTEX
  8
0
 10
21.3416896
 20
26.9875
 42
0.0
  0
VERTEX
  8
0
 10
21.3416896
 20
23.388066
 42
0.0
  0
SEQEND
  0
POLYLINE
  8
0
 66
     1
 10
0.0
 20
0.0
 30
0.0
 70
     1
  0
VERTEX
  8
0
 10
21.1652866
 20
39.956232
 42
0.0
  0
VERTEX
  8
0
 10
19.0003938
 20
41.206166
 42
0.0
  0
VERTEX
  8
0
 10
16.8341294
 20
39.956232
 42
0.0
  0
VERTEX
  8
0
 10
13.8796268
 20
38.250368
 42
0.0
  0
VERTEX
  8
0
 10
13.8796268
 20
32.326072
 42
0.0
  0
VERTEX
  8
0
 10
18.4629298
 20
29.678884
 42
0.0
  0
VERTEX
  8
0
 10
19.0003938
 20
29.36875
 42
0.0
  0
VERTEX
  8
0
 10
19.5378324
 20
29.678884
 42
0.0
  0
VERTEX
  8
0
 10
21.1570316
 20
30.61462
 42
0.0
  0
VERTEX
  8
0
 10
24.1211862
 20
32.326072
 42
0.0
  0
VERTEX
  8
0
 10
24.1211862
 20
38.250368
 42
0.0
  0
VERTEX
  8
0
 10
23.1510332
 20
38.809676
 42
0.0
  0
SEQEND
  0
POLYLINE
  8
0
 66
     1
 10
0.0
 20
0.0
 30
0.0
 70
     1
  0
VERTEX
  8
0
 10
14.2117318
 20
94.0689
 42
0.0
  0
VERTEX
  8
0
 10
15.672435
 20
94.0689
 42
0.0
  0
VERTEX
  8
0
 10
15.672435
 20
99.094544
 42
0.0
  0
VERTEX
  8
0
 10
13.8244834
 20
99.094544
 42
0.0
  0
VERTEX
  8
0
 10
13.8244834
 20
94.0689
 42
0.0
  0
SEQEND
  0
POLYLINE
  8
0
 66
     1
 10
0.0
 20
0.0
 30
0.0
 70
     1
  0
VERTEX
  8
0
 10
12.265914
 20
110.759748
 42
0.0
  0
VERTEX
  8
0
 10
11.7932454
 20
110.486952
 42
0.0
  0
VERTEX
  8
0
 10
11.0243112
 20
110.043468
 42
0.0
  0
VERTEX
  8
0
 10
11.0243112
 20
106.698796
 42
0.0
  0
VERTEX
  8
0
 10
12.265914
 20
105.980738
 42
0.0
  0
VERTEX
  8
0
 10
12.5304804
 20
105.827576
 42
0.0
  0
VERTEX
  8
0
 10
13.9222988
 20
105.024428
 42
0.0
  0
VERTEX
  8
0
 10
16.8203372
 20
106.698796
 42
0.0
  0
VERTEX
  8
0
 10
16.8203372
 20
110.043468
 42
0.0
  0
VERTEX
  8
0
 10
16.077565
 20
110.471712
 42
0.0
  0
VERTEX
  8
0
 10
13.9222988
 20
111.716312
 42
0.0
  0
SEQEND
  0
POLYLINE
  8
0
 66
     1
 10
0.0
 20
0.0
 30
0.0
 70
     1
  0
VERTEX
  8
0
 10
24.1390932
 20
50.033682
 42
0.0
  0
VERTEX
  8
0
 10
25.677114
 20
50.921412
 42
0.0
  0
VERTEX
  8
0
 10
26.976578
 20
51.670966
 42
0.0
  0
VERTEX
  8
0
 10
26.976578
 20
55.016654
 42
0.0
  0
VERTEX
  8
0
 10
25.677114
 20
55.766462
 42
0.0
  0
VERTEX
  8
0
 10
24.9025156
 20
56.214518
 42
0.0
  0
VERTEX
  8
0
 10
24.1390932
 20
56.655462
 42
0.0
  0
VERTEX
  8
0
 10
24.0784634
 20
56.689752
 42
0.0
  0
VERTEX
  8
0
 10
24.0095532
 20
56.649874
 42
0.0
  0
VERTEX
  8
0
 10
23.7918244
 20
56.524652
 42
0.0
  0
VERTEX
  8
0
 10
21.9218256
 20
55.445406
 42
0.0
  0
VERTEX
  8
0
 10
21.1804504
 20
55.016654
 42
0.0
  0
VERTEX
  8
0
 10
21.1804504
 20
51.670966
 42
0.0
  0
VERTEX
  8
0
 10
22.8685344
 20
50.698146
 42
0.0
  0
VERTEX
  8
0
 10
24.0095532
 20
50.039524
 42
0.0
  0
VERTEX
  8
0
 10
24.0784634
 20
49.999138
 42
0.0
  0
SEQEND
  0
POLYLINE
  8
0
 66
     1
 10
0.0
 20
0.0
 30
0.0
 70
     1
  0
VERTEX
  8
0
 10
25.468834
 20
105.827576
 42
0.0
  0
VERTEX
  8
0
 10
25.677114
 20
105.947718
 42
0.0
  0
VERTEX
  8
0
 10
26.294334
 20
106.304588
 42
0.0
  0
VERTEX
  8
0
 10
26.976578
 20
106.698796
 42
0.0
  0
VERTEX
  8
0
 10
26.976578
 20
110.043468
 42
0.0
  0
VERTEX
  8
0
 10
26.207466
 20
110.486952
 42
0.0
  0
VERTEX
  8
0
 10
25.677114
 20
110.793022
 42
0.0
  0
VERTEX
  8
0
 10
25.573736
 20
110.852204
 42
0.0
  0
VERTEX
  8
0
 10
24.0784634
 20
111.716312
 42
0.0
  0
VERTEX
  8
0
 10
21.9218256
 20
110.470696
 42
0.0
  0
VERTEX
  8
0
 10
21.8722194
 20
110.44174
 42
0.0
  0
VERTEX
  8
0
 10
21.1804504
 20
110.043468
 42
0.0
  0
VERTEX
  8
0
 10
21.1804504
 20
106.698796
 42
0.0
  0
VERTEX
  8
0
 10
21.8722194
 20
106.299
 42
0.0
  0
VERTEX
  8
0
 10
24.0784634
 20
105.024428
 42
0.0
  0
SEQEND
  0
POLYLINE
  8
0
 66
     1
 10
0.0
 20
0.0
 30
0.0
 70
     1
  0
VERTEX
  8
0
 10
18.9990222
 20
155.872688
 42
0.0
  0
VERTEX
  8
0
 10
15.4106118
 20
153.801572
 42
0.0
  0
VERTEX
  8
0
 10
15.4106118
 20
149.658832
 42
0.0
  0
VERTEX
  8
0
 10
18.9990222
 20
147.586446
 42
0.0
  0
VERTEX
  8
0
 10
22.5874072
 20
149.658832
 42
0.0
  0
VERTEX
  8
0
 10
22.5874072
 20
153.801572
 42
0.0
  0
SEQEND
  0
POLYLINE
  8
0
 66
     1
 10
0.0
 20
0.0
 30
0.0
 70
     1
  0
VERTEX
  8
0
 10
25.522682
 20
143.24584
 42
0.0
  0
VERTEX
  8
0
 10
25.677114
 20
143.335248
 42
0.0
  0
VERTEX
  8
0
 10
28.066492
 20
144.714722
 42
0.0
  0
VERTEX
  8
0
 10
28.066492
 20
147.65274
 42
0.0
  0
VERTEX
  8
0
 10
25.677114
 20
149.03069
 42
0.0
  0
VERTEX
  8
0
 10
25.522682
 20
149.120352
 42
0.0
  0
VERTEX
  8
0
 10
22.9801674
 20
147.65274
 42
0.0
  0
VERTEX
  8
0
 10
22.9801674
 20
144.714722
 42
0.0
  0
SEQEND
  0
POLYLINE
  8
0
 66
     1
 10
0.0
 20
0.0
 30
0.0
 70
     1
  0
VERTEX
  8
0
 10
25.522682
 20
131.883912
 42
0.0
  0
VERTEX
  8
0
 10
25.677114
 20
131.97205
 42
0.0
  0
VERTEX
  8
0
 10
28.066492
 20
133.351524
 42
0.0
  0
VERTEX
  8
0
 10
28.066492
 20
136.288018
 42
0.0
  0
VERTEX
  8
0
 10
25.677114
 20
137.668762
 42
0.0
  0
VERTEX
  8
0
 10
25.522682
 20
137.7569
 42
0.0
  0
VERTEX
  8
0
 10
22.9801674
 20
136.288018
 42
0.0
  0
VERTEX
  8
0
 10
22.9801674
 20
133.351524
 42
0.0
  0
SEQEND
  0
POLYLINE
  8
0
 66
     1
 10
0.0
 20
0.0
 30
0.0
 70
     1
  0
VERTEX
  8
0
 10
14.9916896
 20
136.30021
 42
0.0
  0
VERTEX
  8
0
 10
13.890625
 20
136.935718
 42
0.0
  0
VERTEX
  8
0
 10
12.4464572
 20
137.769346
 42
0.0
  0
VERTEX
  8
0
 10
12.265914
 20
137.664444
 42
0.0
  0
VERTEX
  8
0
 10
10.1685344
 20
136.453372
 42
0.0
  0
VERTEX
  8
0
 10
9.9039426
 20
136.30021
 42
0.0
  0
VERTEX
  8
0
 10
9.9039426
 20
133.363716
 42
0.0
  0
VERTEX
  8
0
 10
10.1685344
 20
133.210554
 42
0.0
  0
VERTEX
  8
0
 10
12.265914
 20
131.999482
 42
0.0
  0
VERTEX
  8
0
 10
12.4464572
 20
131.894834
 42
0.0
  0
VERTEX
  8
0
 10
13.890625
 20
132.728462
 42
0.0
  0
VERTEX
  8
0
 10
14.9916896
 20
133.363716
 42
0.0
  0
SEQEND
  0
POLYLINE
  8
0
 66
     1
 10
0.0
 20
0.0
 30
0.0
 70
     1
  0
VERTEX
  8
0
 10
18.9990222
 20
133.592824
 42
0.0
  0
VERTEX
  8
0
 10
15.4106118
 20
131.5212
 42
0.0
  0
VERTEX
  8
0
 10
15.4106118
 20
127.377444
 42
0.0
  0
VERTEX
  8
0
 10
18.9990222
 20
125.306328
 42
0.0
  0
VERTEX
  8
0
 10
22.5874072
 20
127.377444
 42
0.0
  0
VERTEX
  8
0
 10
22.5874072
 20
131.5212
 42
0.0
  0
SEQEND
  0
POLYLINE
  8
0
 66
     1
 10
0.0
 20
0.0
 30
0.0
 70
     1
  0
VERTEX
  8
0
 10
12.265914
 20
149.027896
 42
0.0
  0
VERTEX
  8
0
 10
10.1685344
 20
147.816824
 42
0.0
  0
VERTEX
  8
0
 10
9.9039426
 20
147.663662
 42
0.0
  0
VERTEX
  8
0
 10
9.9039426
 20
144.727168
 42
0.0
  0
VERTEX
  8
0
 10
10.1685344
 20
144.574006
 42
0.0
  0
VERTEX
  8
0
 10
12.265914
 20
143.364204
 42
0.0
  0
VERTEX
  8
0
 10
12.4464572
 20
143.259556
 42
0.0
  0
VERTEX
  8
0
 10
13.890625
 20
144.09166
 42
0.0
  0
VERTEX
  8
0
 10
14.9916896
 20
144.727168
 42
0.0
  0
VERTEX
  8
0
 10
14.9916896
 20
147.663662
 42
0.0
  0
VERTEX
  8
0
 10
13.890625
 20
148.298916
 42
0.0
  0
VERTEX
  8
0
 10
12.4464572
 20
149.132544
 42
0.0
  0
SEQEND
  0
POLYLINE
  8
0
 66
     1
 10
0.0
 20
0.0
 30
0.0
 70
     1
  0
VERTEX
  8
0
 10
30.868112
 20
21.6834212
 42
0.0
  0
VERTEX
  8
0
 10
29.342588
 20
21.6834212
 42
0.0
  0
VERTEX
  8
0
 10
29.342588
 20
14.5327878
 42
0.0
  0
VERTEX
  8
0
 10
30.868112
 20
14.5327878
 42
0.0
  0
SEQEND
  0
POLYLINE
  8
0
 66
     1
 10
0.0
 20
0.0
 30
0.0
 70
     1
  0
VERTEX
  8
0
 10
28.86583
 20
163.060634
 42
0.0
  0
VERTEX
  8
0
 10
28.916884
 20
163.07435
 42
0.0
  0
VERTEX
  8
0
 10
29.022802
 20
163.100512
 42
0.0
  0
VERTEX
  8
0
 10
29.178504
 20
163.1569
 42
0.0
  0
VERTEX
  8
0
 10
29.328872
 20
163.228528
 42
0.0
  0
VERTEX
  8
0
 10
29.472128
 20
163.314126
 42
0.0
  0
VERTEX
  8
0
 10
29.604462
 20
163.41471
 42
0.0
  0
VERTEX
  8
0
 10
29.728414
 20
163.526216
 42
0.0
  0
VERTEX
  8
0
 10
29.83865
 20
163.650422
 42
0.0
  0
VERTEX
  8
0
 10
29.937964
 20
163.784026
 42
0.0
  0
VERTEX
  8
0
 10
30.023308
 20
163.927282
 42
0.0
  0
VERTEX
  8
0
 10
30.094936
 20
164.07765
 42
0.0
  0
VERTEX
  8
0
 10
30.09773
 20
164.085778
 42
0.0
  0
VERTEX
  8
0
 10
30.151578
 20
164.236146
 42
0.0
  0
VERTEX
  8
0
 10
30.191456
 20
164.398706
 42
0.0
  0
VERTEX
  8
0
 10
30.214824
 20
164.56279
 42
0.0
  0
VERTEX
  8
0
 10
30.223206
 20
164.730684
 42
0.0
  0
VERTEX
  8
0
 10
30.214824
 20
164.897562
 42
0.0
  0
VERTEX
  8
0
 10
30.191456
 20
165.062916
 42
0.0
  0
VERTEX
  8
0
 10
30.17901
 20
165.109652
 42
0.0
  0
VERTEX
  8
0
 10
30.151578
 20
165.224206
 42
0.0
  0
VERTEX
  8
0
 10
30.094936
 20
165.381178
 42
0.0
  0
VERTEX
  8
0
 10
30.023308
 20
165.532816
 42
0.0
  0
VERTEX
  8
0
 10
29.937964
 20
165.676072
 42
0.0
  0
VERTEX
  8
0
 10
29.83865
 20
165.809676
 42
0.0
  0
VERTEX
  8
0
 10
29.728414
 20
165.933628
 42
0.0
  0
VERTEX
  8
0
 10
29.604462
 20
166.046912
 42
0.0
  0
VERTEX
  8
0
 10
29.472128
 20
166.144702
 42
0.0
  0
VERTEX
  8
0
 10
29.328872
 20
166.231316
 42
0.0
  0
VERTEX
  8
0
 10
29.178504
 20
166.302944
 42
0.0
  0
VERTEX
  8
0
 10
29.022802
 20
166.359332
 42
0.0
  0
VERTEX
  8
0
 10
28.916884
 20
166.385748
 42
0.0
  0
VERTEX
  8
0
 10
28.861512
 20
166.399718
 42
0.0
  0
VERTEX
  8
0
 10
28.697682
 20
166.424356
 42
0.0
  0
VERTEX
  8
0
 10
28.532328
 20
166.432484
 42
0.0
  0
VERTEX
  8
0
 10
28.36545
 20
166.424356
 42
0.0
  0
VERTEX
  8
0
 10
28.20162
 20
166.399718
 42
0.0
  0
VERTEX
  8
0
 10
28.04033
 20
166.359332
 42
0.0
  0
VERTEX
  8
0
 10
27.892756
 20
166.305738
 42
0.0
  0
VERTEX
  8
0
 10
27.884628
 20
166.302944
 42
0.0
  0
VERTEX
  8
0
 10
27.734514
 20
166.231316
 42
0.0
  0
VERTEX
  8
0
 10
27.592528
 20
166.144702
 42
0.0
  0
VERTEX
  8
0
 10
27.45867
 20
166.046912
 42
0.0
  0
VERTEX
  8
0
 10
27.336242
 20
165.933628
 42
0.0
  0
VERTEX
  8
0
 10
27.224482
 20
165.809676
 42
0.0
  0
VERTEX
  8
0
 10
27.125422
 20
165.676072
 42
0.0
  0
VERTEX
  8
0
 10
27.039824
 20
165.532816
 42
0.0
  0
VERTEX
  8
0
 10
26.969466
 20
165.381178
 42
0.0
  0
VERTEX
  8
0
 10
26.913078
 20
165.224206
 42
0.0
  0
VERTEX
  8
0
 10
26.884122
 20
165.109652
 42
0.0
  0
VERTEX
  8
0
 10
26.8732
 20
165.062916
 42
0.0
  0
VERTEX
  8
0
 10
26.848308
 20
164.897562
 42
0.0
  0
VERTEX
  8
0
 10
26.839926
 20
164.730684
 42
0.0
  0
VERTEX
  8
0
 10
26.848308
 20
164.56279
 42
0.0
  0
VERTEX
  8
0
 10
26.868882
 20
164.424868
 42
0.0
  0
VERTEX
  8
0
 10
26.8732
 20
164.398706
 42
0.0
  0
VERTEX
  8
0
 10
26.913078
 20
164.236146
 42
0.0
  0
VERTEX
  8
0
 10
26.966926
 20
164.085778
 42
0.0
  0
VERTEX
  8
0
 10
26.969466
 20
164.07765
 42
0.0
  0
VERTEX
  8
0
 10
27.039824
 20
163.927282
 42
0.0
  0
VERTEX
  8
0
 10
27.125422
 20
163.784026
 42
0.0
  0
VERTEX
  8
0
 10
27.224482
 20
163.650422
 42
0.0
  0
VERTEX
  8
0
 10
27.336242
 20
163.526216
 42
0.0
  0
VERTEX
  8
0
 10
27.45867
 20
163.41471
 42
0.0
  0
VERTEX
  8
0
 10
27.592528
 20
163.314126
 42
0.0
  0
VERTEX
  8
0
 10
27.734514
 20
163.228528
 42
0.0
  0
VERTEX
  8
0
 10
27.884628
 20
163.1569
 42
0.0
  0
VERTEX
  8
0
 10
28.04033
 20
163.100512
 42
0.0
  0
VERTEX
  8
0
 10
28.197302
 20
163.060634
 42
0.0
  0
VERTEX
  8
0
 10
28.20162
 20
163.060634
 42
0.0
  0
VERTEX
  8
0
 10
28.36545
 20
163.035488
 42
0.0
  0
VERTEX
  8
0
 10
28.532328
 20
163.02736
 42
0.0
  0
VERTEX
  8
0
 10
28.697682
 20
163.035488
 42
0.0
  0
VERTEX
  8
0
 10
28.861512
 20
163.060634
 42
0.0
  0
SEQEND
  0
POLYLINE
  8
0
 66
     1
 10
0.0
 20
0.0
 30
0.0
 70
     1
  0
VERTEX
  8
0
 10
5.5741824
 20
47.72025
 42
0.0
  0
VERTEX
  8
0
 10
5.6472074
 20
47.896526
 42
0.0
  0
VERTEX
  8
0
 10
5.7092088
 20
48.156876
 42
0.0
  0
VERTEX
  8
0
 10
5.7257696
 20
48.373284
 42
0.0
  0
VERTEX
  8
0
 10
5.7298844
 20
48.423068
 42
0.0
  0
VERTEX
  8
0
 10
5.7092088
 20
48.689006
 42
0.0
  0
VERTEX
  8
0
 10
5.6472074
 20
48.949356
 42
0.0
  0
VERTEX
  8
0
 10
5.5452518
 20
49.19599
 42
0.0
  0
VERTEX
  8
0
 10
5.4046628
 20
49.424844
 42
0.0
  0
VERTEX
  8
0
 10
5.28066
 20
49.570894
 42
0.0
  0
VERTEX
  8
0
 10
5.2324
 20
49.627282
 42
0.0
  0
VERTEX
  8
0
 10
5.0284634
 20
49.801018
 42
0.0
  0
VERTEX
  8
0
 10
4.8010826
 20
49.94021
 42
0.0
  0
VERTEX
  8
0
 10
4.5544232
 20
50.042318
 42
0.0
  0
VERTEX
  8
0
 10
4.4083478
 20
50.077878
 42
0.0
  0
VERTEX
  8
0
 10
4.3408346
 20
50.093118
 42
0.0
  0
VERTEX
  8
0
 10
4.2939716
 20
50.10531
 42
0.0
  0
VERTEX
  8
0
 10
4.0280082
 20
50.126138
 42
0.0
  0
VERTEX
  8
0
 10
3.7620448
 20
50.10531
 42
0.0
  0
VERTEX
  8
0
 10
3.5015932
 20
50.042318
 42
0.0
  0
VERTEX
  8
0
 10
3.396869
 20
49.998122
 42
0.0
  0
VERTEX
  8
0
 10
3.2549338
 20
49.94021
 42
0.0
  0
VERTEX
  8
0
 10
3.027553
 20
49.801018
 42
0.0
  0
VERTEX
  8
0
 10
2.823591
 20
49.627282
 42
0.0
  0
VERTEX
  8
0
 10
2.6513536
 20
49.424844
 42
0.0
  0
VERTEX
  8
0
 10
2.53972568
 20
49.24425
 42
0.0
  0
VERTEX
  8
0
 10
2.51078746
 20
49.19599
 42
0.0
  0
VERTEX
  8
0
 10
2.40881154
 20
48.949356
 42
0.0
  0
VERTEX
  8
0
 10
2.34542076
 20
48.689006
 42
0.0
  0
VERTEX
  8
0
 10
2.32475024
 20
48.423068
 42
0.0
  0
VERTEX
  8
0
 10
2.32888282
 20
48.373284
 42
0.0
  0
VERTEX
  8
0
 10
2.34542076
 20
48.156876
 42
0.0
  0
VERTEX
  8
0
 10
2.40881154
 20
47.896526
 42
0.0
  0
VERTEX
  8
0
 10
2.42121182
 20
47.867824
 42
0.0
  0
VERTEX
  8
0
 10
2.51078746
 20
47.649638
 42
0.0
  0
VERTEX
  8
0
 10
2.6513536
 20
47.422562
 42
0.0
  0
VERTEX
  8
0
 10
2.823591
 20
47.2186
 42
0.0
  0
VERTEX
  8
0
 10
3.027553
 20
47.046134
 42
0.0
  0
VERTEX
  8
0
 10
3.1777432
 20
46.953932
 42
0.0
  0
VERTEX
  8
0
 10
3.2549338
 20
46.905672
 42
0.0
  0
VERTEX
  8
0
 10
3.5015932
 20
46.803818
 42
0.0
  0
VERTEX
  8
0
 10
3.7620448
 20
46.741588
 42
0.0
  0
VERTEX
  8
0
 10
4.0280082
 20
46.721268
 42
0.0
  0
VERTEX
  8
0
 10
4.2429684
 20
46.737524
 42
0.0
  0
VERTEX
  8
0
 10
4.2939716
 20
46.741588
 42
0.0
  0
VERTEX
  8
0
 10
4.3408346
 20
46.75251
 42
0.0
  0
VERTEX
  8
0
 10
4.5544232
 20
46.803818
 42
0.0
  0
VERTEX
  8
0
 10
4.8010826
 20
46.905672
 42
0.0
  0
VERTEX
  8
0
 10
5.0284634
 20
47.046134
 42
0.0
  0
VERTEX
  8
0
 10
5.2324
 20
47.2186
 42
0.0
  0
VERTEX
  8
0
 10
5.4046628
 20
47.422562
 42
0.0
  0
VERTEX
  8
0
 10
5.4680612
 20
47.524416
 42
0.0
  0
VERTEX
  8
0
 10
5.5452518
 20
47.649638
 42
0.0
  0
SEQEND
  0
POLYLINE
  8
0
 66
     1
 10
0.0
 20
0.0
 30
0.0
 70
     1
  0
VERTEX
  8
0
 10
5.5741824
 20
111.007906
 42
0.0
  0
VERTEX
  8
0
 10
5.6472074
 20
111.181388
 42
0.0
  0
VERTEX
  8
0
 10
5.7092088
 20
111.441738
 42
0.0
  0
VERTEX
  8
0
 10
5.7298844
 20
111.7092
 42
0.0
  0
VERTEX
  8
0
 10
5.7174638
 20
111.860838
 42
0.0
  0
VERTEX
  8
0
 10
5.7092088
 20
111.975138
 42
0.0
  0
VERTEX
  8
0
 10
5.6472074
 20
112.235488
 42
0.0
  0
VERTEX
  8
0
 10
5.5452518
 20
112.481106
 42
0.0
  0
VERTEX
  8
0
 10
5.4046628
 20
112.709706
 42
0.0
  0
VERTEX
  8
0
 10
5.2820316
 20
112.852962
 42
0.0
  0
VERTEX
  8
0
 10
5.2324
 20
112.912144
 42
0.0
  0
VERTEX
  8
0
 10
5.0284634
 20
113.086134
 42
0.0
  0
VERTEX
  8
0
 10
4.8010826
 20
113.225072
 42
0.0
  0
VERTEX
  8
0
 10
4.5544232
 20
113.32845
 42
0.0
  0
VERTEX
  8
0
 10
4.402836
 20
113.364518
 42
0.0
  0
VERTEX
  8
0
 10
4.3408346
 20
113.379504
 42
0.0
  0
VERTEX
  8
0
 10
4.2939716
 20
113.390426
 42
0.0
  0
VERTEX
  8
0
 10
4.0280082
 20
113.411
 42
0.0
  0
VERTEX
  8
0
 10
3.7620448
 20
113.390426
 42
0.0
  0
VERTEX
  8
0
 10
3.5015932
 20
113.32845
 42
0.0
  0
VERTEX
  8
0
 10
3.3803336
 20
113.27765
 42
0.0
  0
VERTEX
  8
0
 10
3.2549338
 20
113.225072
 42
0.0
  0
VERTEX
  8
0
 10
3.027553
 20
113.086134
 42
0.0
  0
VERTEX
  8
0
 10
2.823591
 20
112.912144
 42
0.0
  0
VERTEX
  8
0
 10
2.6513536
 20
112.709706
 42
0.0
  0
VERTEX
  8
0
 10
2.5879552
 20
112.606328
 42
0.0
  0
VERTEX
  8
0
 10
2.51078746
 20
112.481106
 42
0.0
  0
VERTEX
  8
0
 10
2.40881154
 20
112.235488
 42
0.0
  0
VERTEX
  8
0
 10
2.34542076
 20
111.975138
 42
0.0
  0
VERTEX
  8
0
 10
2.33715306
 20
111.860838
 42
0.0
  0
VERTEX
  8
0
 10
2.32475024
 20
111.7092
 42
0.0
  0
VERTEX
  8
0
 10
2.34542076
 20
111.441738
 42
0.0
  0
VERTEX
  8
0
 10
2.40881154
 20
111.181388
 42
0.0
  0
VERTEX
  8
0
 10
2.42121182
 20
111.152432
 42
0.0
  0
VERTEX
  8
0
 10
2.51078746
 20
110.936278
 42
0.0
  0
VERTEX
  8
0
 10
2.6513536
 20
110.707424
 42
0.0
  0
VERTEX
  8
0
 10
2.823591
 20
110.504732
 42
0.0
  0
VERTEX
  8
0
 10
3.027553
 20
110.33125
 42
0.0
  0
VERTEX
  8
0
 10
3.0854142
 20
110.295182
 42
0.0
  0
VERTEX
  8
0
 10
3.175
 20
110.241588
 42
0.0
  0
VERTEX
  8
0
 10
3.2549338
 20
110.191804
 42
0.0
  0
VERTEX
  8
0
 10
3.5015932
 20
110.088934
 42
0.0
  0
VERTEX
  8
0
 10
3.7620448
 20
110.026704
 42
0.0
  0
VERTEX
  8
0
 10
4.0280082
 20
110.005876
 42
0.0
  0
VERTEX
  8
0
 10
4.2305732
 20
110.02264
 42
0.0
  0
VERTEX
  8
0
 10
4.2939716
 20
110.026704
 42
0.0
  0
VERTEX
  8
0
 10
4.3408346
 20
110.037626
 42
0.0
  0
VERTEX
  8
0
 10
4.5544232
 20
110.088934
 42
0.0
  0
VERTEX
  8
0
 10
4.8010826
 20
110.191804
 42
0.0
  0
VERTEX
  8
0
 10
5.0284634
 20
110.33125
 42
0.0
  0
VERTEX
  8
0
 10
5.2324
 20
110.504732
 42
0.0
  0
VERTEX
  8
0
 10
5.4046628
 20
110.707424
 42
0.0
  0
VERTEX
  8
0
 10
5.4501288
 20
110.781846
 42
0.0
  0
VERTEX
  8
0
 10
5.5452518
 20
110.936278
 42
0.0
  0
SEQEND
  0
POLYLINE
  8
0
 66
     1
 10
0.0
 20
0.0
 30
0.0
 70
     1
  0
VERTEX
  8
0
 10
2.40054384
 20
8.9503504
 42
0.0
  0
VERTEX
  8
0
 10
2.34542076
 20
8.722995
 42
0.0
  0
VERTEX
  8
0
 10
2.32475024
 20
8.45566
 42
0.0
  0
VERTEX
  8
0
 10
2.34542076
 20
8.1896712
 42
0.0
  0
VERTEX
  8
0
 10
2.40881154
 20
7.9306166
 42
0.0
  0
VERTEX
  8
0
 10
2.42672616
 20
7.8865222
 42
0.0
  0
VERTEX
  8
0
 10
2.51078746
 20
7.6825602
 42
0.0
  0
VERTEX
  8
0
 10
2.6513536
 20
7.4551794
 42
0.0
  0
VERTEX
  8
0
 10
2.6871676
 20
7.4124566
 42
0.0
  0
VERTEX
  8
0
 10
2.823591
 20
7.2526144
 42
0.0
  0
VERTEX
  8
0
 10
3.027553
 20
7.07898
 42
0.0
  0
VERTEX
  8
0
 10
3.1529528
 20
7.0018402
 42
0.0
  0
VERTEX
  8
0
 10
3.2549338
 20
6.9384418
 42
0.0
  0
VERTEX
  8
0
 10
3.5015932
 20
6.8364354
 42
0.0
  0
VERTEX
  8
0
 10
3.7620448
 20
6.774434
 42
0.0
  0
VERTEX
  8
0
 10
4.0280082
 20
6.7537584
 42
0.0
  0
VERTEX
  8
0
 10
4.1795954
 20
6.766179
 42
0.0
  0
VERTEX
  8
0
 10
4.2939716
 20
6.774434
 42
0.0
  0
VERTEX
  8
0
 10
4.5544232
 20
6.8364354
 42
0.0
  0
VERTEX
  8
0
 10
4.8010826
 20
6.9384418
 42
0.0
  0
VERTEX
  8
0
 10
5.0284634
 20
7.07898
 42
0.0
  0
VERTEX
  8
0
 10
5.1552602
 20
7.1864728
 42
0.0
  0
VERTEX
  8
0
 10
5.2324
 20
7.2526144
 42
0.0
  0
VERTEX
  8
0
 10
5.3398928
 20
7.3794112
 42
0.0
  0
VERTEX
  8
0
 10
5.3688488
 20
7.4124566
 42
0.0
  0
VERTEX
  8
0
 10
5.4046628
 20
7.4551794
 42
0.0
  0
VERTEX
  8
0
 10
5.5452518
 20
7.6825602
 42
0.0
  0
VERTEX
  8
0
 10
5.5714138
 20
7.7473048
 42
0.0
  0
VERTEX
  8
0
 10
5.6472074
 20
7.9306166
 42
0.0
  0
VERTEX
  8
0
 10
5.7092088
 20
8.1896712
 42
0.0
  0
VERTEX
  8
0
 10
5.7298844
 20
8.45566
 42
0.0
  0
VERTEX
  8
0
 10
5.7092088
 20
8.722995
 42
0.0
  0
VERTEX
  8
0
 10
5.6540654
 20
8.9503504
 42
0.0
  0
VERTEX
  8
0
 10
5.6472074
 20
8.9820496
 42
0.0
  0
VERTEX
  8
0
 10
5.5452518
 20
9.2287344
 42
0.0
  0
VERTEX
  8
0
 10
5.4046628
 20
9.4574868
 42
0.0
  0
VERTEX
  8
0
 10
5.2764944
 20
9.6077024
 42
0.0
  0
VERTEX
  8
0
 10
5.2324
 20
9.6600518
 42
0.0
  0
VERTEX
  8
0
 10
5.0284634
 20
9.8336862
 42
0.0
  0
VERTEX
  8
0
 10
4.8010826
 20
9.9728528
 42
0.0
  0
VERTEX
  8
0
 10
4.5544232
 20
10.0748338
 42
0.0
  0
VERTEX
  8
0
 10
4.3628818
 20
10.1216968
 42
0.0
  0
VERTEX
  8
0
 10
4.3408346
 20
10.1271832
 42
0.0
  0
VERTEX
  8
0
 10
4.2939716
 20
10.1382322
 42
0.0
  0
VERTEX
  8
0
 10
4.0280082
 20
10.1589078
 42
0.0
  0
VERTEX
  8
0
 10
3.7620448
 20
10.1382322
 42
0.0
  0
VERTEX
  8
0
 10
3.5015932
 20
10.0748338
 42
0.0
  0
VERTEX
  8
0
 10
3.3293304
 20
10.0031804
 42
0.0
  0
VERTEX
  8
0
 10
3.2549338
 20
9.9728528
 42
0.0
  0
VERTEX
  8
0
 10
3.027553
 20
9.8336862
 42
0.0
  0
VERTEX
  8
0
 10
2.823591
 20
9.6600518
 42
0.0
  0
VERTEX
  8
0
 10
2.6540968
 20
9.4616016
 42
0.0
  0
VERTEX
  8
0
 10
2.6513536
 20
9.4574868
 42
0.0
  0
VERTEX
  8
0
 10
2.5603962
 20
9.3100144
 42
0.0
  0
VERTEX
  8
0
 10
2.51078746
 20
9.2287344
 42
0.0
  0
VERTEX
  8
0
 10
2.40881154
 20
8.9820496
 42
0.0
  0
SEQEND
  0
POLYLINE
  8
0
 66
     1
 10
0.0
 20
0.0
 30
0.0
 70
     1
  0
VERTEX
  8
0
 10
10.005949
 20
163.006532
 42
0.0
  0
VERTEX
  8
0
 10
10.1189282
 20
163.060634
 42
0.0
  0
VERTEX
  8
0
 10
10.1561646
 20
163.079684
 42
0.0
  0
VERTEX
  8
0
 10
10.2980744
 20
163.164012
 42
0.0
  0
VERTEX
  8
0
 10
10.4317546
 20
163.264596
 42
0.0
  0
VERTEX
  8
0
 10
10.485501
 20
163.312856
 42
0.0
  0
VERTEX
  8
0
 10
10.5544112
 20
163.376102
 42
0.0
  0
VERTEX
  8
0
 10
10.6660188
 20
163.500054
 42
0.0
  0
VERTEX
  8
0
 10
10.7652312
 20
163.633912
 42
0.0
  0
VERTEX
  8
0
 10
10.8506768
 20
163.777168
 42
0.0
  0
VERTEX
  8
0
 10
10.9209332
 20
163.928806
 42
0.0
  0
VERTEX
  8
0
 10
10.9774482
 20
164.085778
 42
0.0
  0
VERTEX
  8
0
 10
11.0174278
 20
164.248338
 42
0.0
  0
VERTEX
  8
0
 10
11.0422182
 20
164.413946
 42
0.0
  0
VERTEX
  8
0
 10
11.0504732
 20
164.580316
 42
0.0
  0
VERTEX
  8
0
 10
11.0422182
 20
164.747194
 42
0.0
  0
VERTEX
  8
0
 10
11.0174278
 20
164.912548
 42
0.0
  0
VERTEX
  8
0
 10
10.9774482
 20
165.073838
 42
0.0
  0
VERTEX
  8
0
 10
10.9650276
 20
165.109652
 42
0.0
  0
VERTEX
  8
0
 10
10.9209332
 20
165.232334
 42
0.0
  0
VERTEX
  8
0
 10
10.8506768
 20
165.382448
 42
0.0
  0
VERTEX
  8
0
 10
10.7652312
 20
165.525704
 42
0.0
  0
VERTEX
  8
0
 10
10.6660188
 20
165.659562
 42
0.0
  0
VERTEX
  8
0
 10
10.5544112
 20
165.783768
 42
0.0
  0
VERTEX
  8
0
 10
10.485501
 20
165.848284
 42
0.0
  0
VERTEX
  8
0
 10
10.4317546
 20
165.896544
 42
0.0
  0
VERTEX
  8
0
 10
10.2980744
 20
165.995604
 42
0.0
  0
VERTEX
  8
0
 10
10.1561646
 20
166.081202
 42
0.0
  0
VERTEX
  8
0
 10
10.005949
 20
166.152576
 42
0.0
  0
VERTEX
  8
0
 10
9.8502216
 20
166.209472
 42
0.0
  0
VERTEX
  8
0
 10
9.6889824
 20
166.250874
 42
0.0
  0
VERTEX
  8
0
 10
9.5236284
 20
166.273988
 42
0.0
  0
VERTEX
  8
0
 10
9.359646
 20
166.28364
 42
0.0
  0
VERTEX
  8
0
 10
9.192895
 20
166.273988
 42
0.0
  0
VERTEX
  8
0
 10
9.0289126
 20
166.250874
 42
0.0
  0
VERTEX
  8
0
 10
8.8676734
 20
166.209472
 42
0.0
  0
VERTEX
  8
0
 10
8.7105744
 20
166.152576
 42
0.0
  0
VERTEX
  8
0
 10
8.5603588
 20
166.081202
 42
0.0
  0
VERTEX
  8
0
 10
8.436356
 20
166.006526
 42
0.0
  0
VERTEX
  8
0
 10
8.418449
 20
165.995604
 42
0.0
  0
VERTEX
  8
0
 10
8.2847688
 20
165.896544
 42
0.0
  0
VERTEX
  8
0
 10
8.1621122
 20
165.783768
 42
0.0
  0
VERTEX
  8
0
 10
8.0505046
 20
165.659562
 42
0.0
  0
VERTEX
  8
0
 10
7.9526638
 20
165.525704
 42
0.0
  0
VERTEX
  8
0
 10
7.8672182
 20
165.382448
 42
0.0
  0
VERTEX
  8
0
 10
7.7955902
 20
165.232334
 42
0.0
  0
VERTEX
  8
0
 10
7.7528674
 20
165.109652
 42
0.0
  0
VERTEX
  8
0
 10
7.7404468
 20
165.073838
 42
0.0
  0
VERTEX
  8
0
 10
7.6990956
 20
164.912548
 42
0.0
  0
VERTEX
  8
0
 10
7.6756768
 20
164.747194
 42
0.0
  0
VERTEX
  8
0
 10
7.6674218
 20
164.580316
 42
0.0
  0
VERTEX
  8
0
 10
7.6756768
 20
164.413946
 42
0.0
  0
VERTEX
  8
0
 10
7.6990956
 20
164.248338
 42
0.0
  0
VERTEX
  8
0
 10
7.7404468
 20
164.085778
 42
0.0
  0
VERTEX
  8
0
 10
7.7955902
 20
163.928806
 42
0.0
  0
VERTEX
  8
0
 10
7.8672182
 20
163.777168
 42
0.0
  0
VERTEX
  8
0
 10
7.9526638
 20
163.633912
 42
0.0
  0
VERTEX
  8
0
 10
8.0505046
 20
163.500054
 42
0.0
  0
VERTEX
  8
0
 10
8.1621122
 20
163.376102
 42
0.0
  0
VERTEX
  8
0
 10
8.2847688
 20
163.264596
 42
0.0
  0
VERTEX
  8
0
 10
8.418449
 20
163.164012
 42
0.0
  0
VERTEX
  8
0
 10
8.436356
 20
163.152582
 42
0.0
  0
VERTEX
  8
0
 10
8.5603588
 20
163.079684
 42
0.0
  0
VERTEX
  8
0
 10
8.5989668
 20
163.060634
 42
0.0
  0
VERTEX
  8
0
 10
8.7105744
 20
163.006532
 42
0.0
  0
VERTEX
  8
0
 10
8.8676734
 20
162.951668
 42
0.0
  0
VERTEX
  8
0
 10
9.0289126
 20
162.910266
 42
0.0
  0
VERTEX
  8
0
 10
9.192895
 20
162.885628
 42
0.0
  0
VERTEX
  8
0
 10
9.359646
 20
162.878516
 42
0.0
  0
VERTEX
  8
0
 10
9.5236284
 20
162.885628
 42
0.0
  0
VERTEX
  8
0
 10
9.6889824
 20
162.910266
 42
0.0
  0
VERTEX
  8
0
 10
9.8502216
 20
162.951668
 42
0.0
  0
SEQEND
  0
POLYLINE
  8
0
 66
     1
 10
0.0
 20
0.0
 30
0.0
 70
     1
  0
VERTEX
  8
0
 10
24.3816378
 20
94.0689
 42
0.0
  0
VERTEX
  8
0
 10
24.3816378
 20
99.11969
 42
0.0
  0
VERTEX
  8
0
 10
22.5185224
 20
99.11969
 42
0.0
  0
VERTEX
  8
0
 10
22.5185224
 20
94.0689
 42
0.0
  0
SEQEND
  0
POLYLINE
  8
0
 66
     1
 10
0.0
 20
0.0
 30
0.0
 70
     1
  0
VERTEX
  8
0
 10
18.9990222
 20
136.44626
 42
0.0
  0
VERTEX
  8
0
 10
22.5874072
 20
138.517376
 42
0.0
  0
VERTEX
  8
0
 10
22.5874072
 20
142.66164
 42
0.0
  0
VERTEX
  8
0
 10
18.9990222
 20
144.732756
 42
0.0
  0
VERTEX
  8
0
 10
15.4106118
 20
142.66164
 42
0.0
  0
VERTEX
  8
0
 10
15.4106118
 20
138.517376
 42
0.0
  0
SEQEND
  0
POLYLINE
  8
0
 66
     1
 10
0.0
 20
0.0
 30
0.0
 70
     1
  0
VERTEX
  8
0
 10
35.0082994899159
 20
84.8135758234245
 42
0.0
  0
VERTEX
  8
0
 10
35.0082994899159
 20
106.819373823424
 42
0.0
  0
VERTEX
  8
0
 10
34.9188914899159
 20
106.819373823424
 42
0.0
  0
VERTEX
  8
0
 10
34.9188914899159
 20
106.826485823424
 42
0.0
  0
VERTEX
  8
0
 10
31.9133094899159
 20
106.826485823424
 42
0.0
  0
VERTEX
  8
0
 10
31.9133094899159
 20
84.8206878234245
 42
0.0
  0
VERTEX
  8
0
 10
33.0032234899159
 20
84.8206878234245
 42
0.0
  0
VERTEX
  8
0
 10
33.0032234899159
 20
84.8135758234245
 42
0.0
  0
SEQEND
  0
POLYLINE
  8
0
 66
     1
 10
0.0
 20
0.0
 30
0.0
 70
     1
  0
VERTEX
  8
0
 10
3.0020388899159
 20
106.819373823424
 42
0.0
  0
VERTEX
  8
0
 10
3.0020388899159
 20
84.8135758234245
 42
0.0
  0
VERTEX
  8
0
 10
5.0070894899159
 20
84.8135758234245
 42
0.0
  0
VERTEX
  8
0
 10
5.0070894899159
 20
84.8206878234245
 42
0.0
  0
VERTEX
  8
0
 10
6.0957334899159
 20
84.8206878234245
 42
0.0
  0
VERTEX
  8
0
 10
6.0957334899159
 20
106.826485823424
 42
0.0
  0
VERTEX
  8
0
 10
3.0902276899159
 20
106.826485823424
 42
0.0
  0
VERTEX
  8
0
 10
3.0902276899159
 20
106.819373823424
 42
0.0
  0
SEQEND
  0
ENDSEC
  0
EOF
