  0
SECTION
  2
HEADER
  9
$ACADVER
  1
AC1009
  9
$EXTMAX
 10
76.5319747924805
 20
71.3188858032227
 30
0.0
  9
$EXTMIN
 10
1.0004577636719
 20
1.0776255130768
 30
0.0
  9
$INSUNITS
 70
     4
  9
$LUNITS
 70
     2
  9
$LUPREC
 70
     4
  9
$MEASUREMENT
 70
     1
  0
ENDSEC
  0
SECTION
  2
TABLES
  0
TABLE
  2
LAYER
 70
     1
  0
LAYER
  2
0
 70
     0
 62
     7
  6
Continuous
  0
ENDTAB
  0
TABLE
  2
APPID
 70
     1
  0
APPID
  2
ACAD
 70
     0
  0
ENDTAB
  0
ENDSEC
  0
SECTION
  2
ENTITIES
  0
POLYLINE
  8
0
 66
     1
 10
0.0
 20
0.0
 30
0.0
 70
     1
  0
VERTEX
  8
0
 10
73.066402
 20
71.282052
 42
0.0
  0
VERTEX
  8
0
 10
74.2061
 20
71.044816
 42
0.0
  0
VERTEX
  8
0
 10
75.13066
 20
70.607682
 42
0.0
  0
VERTEX
  8
0
 10
75.830684
 20
69.978016
 42
0.0
  0
VERTEX
  8
0
 10
76.300584
 20
69.160898
 42
0.0
  0
VERTEX
  8
0
 10
76.531978
 20
68.16344
 42
0.0
  0
VERTEX
  8
0
 10
76.526644
 20
66.996056
 42
0.0
  0
VERTEX
  8
0
 10
76.284074
 20
65.668906
 42
0.0
  0
VERTEX
  8
0
 10
75.804522
 20
64.19469
 42
0.0
  0
VERTEX
  8
0
 10
75.294744
 20
63.041022
 42
0.0
  0
VERTEX
  8
0
 10
75.154028
 20
62.724284
 42
0.0
  0
VERTEX
  8
0
 10
75.094846
 20
62.589156
 42
0.0
  0
VERTEX
  8
0
 10
74.842624
 20
62.124844
 42
0.0
  0
VERTEX
  8
0
 10
74.606912
 20
61.689234
 42
0.0
  0
VERTEX
  8
0
 10
74.160634
 20
60.866528
 42
0.0
  0
VERTEX
  8
0
 10
73.00976
 20
59.04484
 42
0.0
  0
VERTEX
  8
0
 10
71.656702
 20
57.139078
 42
0.0
  0
VERTEX
  8
0
 10
70.111874
 20
55.169816
 42
0.0
  0
VERTEX
  8
0
 10
68.390516
 20
53.155088
 42
0.0
  0
VERTEX
  8
0
 10
66.509646
 20
51.114452
 42
0.0
  0
VERTEX
  8
0
 10
64.820038
 20
49.40554
 42
0.0
  0
VERTEX
  8
0
 10
64.71666
 20
49.300638
 42
0.0
  0
VERTEX
  8
0
 10
64.525144
 20
49.106328
 42
0.0
  0
VERTEX
  8
0
 10
64.482472
 20
49.063656
 42
0.0
  0
VERTEX
  8
0
 10
64.394334
 20
48.979582
 42
0.0
  0
VERTEX
  8
0
 10
64.263524
 20
48.8569
 42
0.0
  0
VERTEX
  8
0
 10
64.175132
 20
48.772826
 42
0.0
  0
VERTEX
  8
0
 10
64.023494
 20
48.648874
 42
0.0
  0
VERTEX
  8
0
 10
63.665354
 20
48.30445
 42
0.0
  0
VERTEX
  8
0
 10
63.250572
 20
47.906178
 42
0.0
  0
VERTEX
  8
0
 10
63.19266
 20
47.85106
 42
0.0
  0
VERTEX
  8
0
 10
62.993016
 20
47.659544
 42
0.0
  0
VERTEX
  8
0
 10
62.743334
 20
47.377096
 42
0.0
  0
VERTEX
  8
0
 10
62.727078
 20
47.353474
 42
0.0
  0
VERTEX
  8
0
 10
62.715648
 20
47.335694
 42
0.0
  0
VERTEX
  8
0
 10
62.46241
 20
47.061374
 42
0.0
  0
VERTEX
  8
0
 10
62.454028
 20
47.053246
 42
0.0
  0
VERTEX
  8
0
 10
62.320424
 20
46.876716
 42
0.0
  0
VERTEX
  8
0
 10
61.74994
 20
46.122844
 42
0.0
  0
VERTEX
  8
0
 10
61.241432
 20
45.305726
 42
0.0
  0
VERTEX
  8
0
 10
61.111638
 20
45.096176
 42
0.0
  0
VERTEX
  8
0
 10
60.545472
 20
43.984418
 42
0.0
  0
VERTEX
  8
0
 10
60.057538
 20
42.797476
 42
0.0
  0
VERTEX
  8
0
 10
59.873134
 20
42.227246
 42
0.0
  0
VERTEX
  8
0
 10
59.651138
 20
41.545256
 42
0.0
  0
VERTEX
  8
0
 10
59.331606
 20
40.242744
 42
0.0
  0
VERTEX
  8
0
 10
59.099704
 20
38.899338
 42
0.0
  0
VERTEX
  8
0
 10
58.960766
 20
37.529516
 42
0.0
  0
VERTEX
  8
0
 10
58.913776
 20
36.145978
 42
0.0
  0
VERTEX
  8
0
 10
58.960766
 20
34.76371
 42
0.0
  0
VERTEX
  8
0
 10
59.099704
 20
33.394142
 42
0.0
  0
VERTEX
  8
0
 10
59.331606
 20
32.051752
 42
0.0
  0
VERTEX
  8
0
 10
59.651138
 20
30.7467
 42
0.0
  0
VERTEX
  8
0
 10
60.057538
 20
29.49702
 42
0.0
  0
VERTEX
  8
0
 10
60.13069
 20
29.31922
 42
0.0
  0
VERTEX
  8
0
 10
60.294774
 20
28.920948
 42
0.0
  0
VERTEX
  8
0
 10
60.45454
 20
28.532328
 42
0.0
  0
VERTEX
  8
0
 10
60.545472
 20
28.309062
 42
0.0
  0
VERTEX
  8
0
 10
61.111638
 20
27.19705
 42
0.0
  0
VERTEX
  8
0
 10
61.205618
 20
27.045412
 42
0.0
  0
VERTEX
  8
0
 10
61.74994
 20
26.171652
 42
0.0
  0
VERTEX
  8
0
 10
61.950854
 20
25.905714
 42
0.0
  0
VERTEX
  8
0
 10
62.390528
 20
25.3256034
 42
0.0
  0
VERTEX
  8
0
 10
63.665354
 20
24.117046
 42
0.0
  0
VERTEX
  8
0
 10
64.48679
 20
23.3384852
 42
0.0
  0
VERTEX
  8
0
 10
66.509646
 20
21.2920834
 42
0.0
  0
VERTEX
  8
0
 10
68.390516
 20
19.2498218
 42
0.0
  0
VERTEX
  8
0
 10
70.111874
 20
17.2365162
 42
0.0
  0
VERTEX
  8
0
 10
71.407274
 20
15.5842462
 42
0.0
  0
VERTEX
  8
0
 10
71.656702
 20
15.2658826
 42
0.0
  0
VERTEX
  8
0
 10
73.00976
 20
13.3614668
 42
0.0
  0
VERTEX
  8
0
 10
73.530968
 20
12.5374146
 42
0.0
  0
VERTEX
  8
0
 10
74.160634
 20
11.5396772
 42
0.0
  0
VERTEX
  8
0
 10
75.094846
 20
9.8157538
 42
0.0
  0
VERTEX
  8
0
 10
75.804522
 20
8.2117184
 42
0.0
  0
VERTEX
  8
0
 10
76.284074
 20
6.7372484
 42
0.0
  0
VERTEX
  8
0
 10
76.427584
 20
5.953125
 42
0.0
  0
VERTEX
  8
0
 10
76.472796
 20
5.7037224
 42
0.0
  0
VERTEX
  8
0
 10
76.526644
 20
5.4101746
 42
0.0
  0
VERTEX
  8
0
 10
76.531978
 20
4.2429684
 42
0.0
  0
VERTEX
  8
0
 10
76.300584
 20
3.2439102
 42
0.0
  0
VERTEX
  8
0
 10
75.830684
 20
2.42810284
 42
0.0
  0
VERTEX
  8
0
 10
75.13066
 20
1.7969611
 42
0.0
  0
VERTEX
  8
0
 10
74.2061
 20
1.3615035
 42
0.0
  0
VERTEX
  8
0
 10
73.066402
 20
1.12447832
 42
0.0
  0
VERTEX
  8
0
 10
71.721472
 20
1.0872724
 42
0.0
  0
VERTEX
  8
0
 10
70.183502
 20
1.24988066
 42
0.0
  0
VERTEX
  8
0
 10
68.470526
 20
1.61368232
 42
0.0
  0
VERTEX
  8
0
 10
68.466462
 20
1.61506154
 42
0.0
  0
VERTEX
  8
0
 10
68.239132
 20
1.6825849
 42
0.0
  0
VERTEX
  8
0
 10
66.59626
 20
2.1717889
 42
0.0
  0
VERTEX
  8
0
 10
64.820038
 20
2.8318714
 42
0.0
  0
VERTEX
  8
0
 10
64.580516
 20
2.9200602
 42
0.0
  0
VERTEX
  8
0
 10
63.904876
 20
3.2135826
 42
0.0
  0
VERTEX
  8
0
 10
63.522352
 20
3.5057334
 42
0.0
  0
VERTEX
  8
0
 10
52.701952
 20
12.5374146
 42
0.0
  0
VERTEX
  8
0
 10
51.927252
 20
13.1850638
 42
0.0
  0
VERTEX
  8
0
 10
50.857912
 20
14.009116
 42
0.0
  0
VERTEX
  8
0
 10
49.715674
 20
14.7629372
 42
0.0
  0
VERTEX
  8
0
 10
48.504094
 20
15.4367738
 42
0.0
  0
VERTEX
  8
0
 10
48.436784
 20
15.46987
 42
0.0
  0
VERTEX
  8
0
 10
48.19015
 20
15.5842462
 42
0.0
  0
VERTEX
  8
0
 10
47.842678
 20
15.7468316
 42
0.0
  0
VERTEX
  8
0
 10
47.23384
 20
16.032099
 42
0.0
  0
VERTEX
  8
0
 10
47.08779
 20
16.088614
 42
0.0
  0
VERTEX
  8
0
 10
46.05401
 20
16.485489
 42
0.0
  0
VERTEX
  8
0
 10
45.912278
 20
16.5405816
 42
0.0
  0
VERTEX
  8
0
 10
45.847254
 20
16.5598856
 42
0.0
  0
VERTEX
  8
0
 10
44.647104
 20
16.9292016
 42
0.0
  0
VERTEX
  8
0
 10
44.546266
 20
16.9608754
 42
0.0
  0
VERTEX
  8
0
 10
43.836844
 20
17.1276518
 42
0.0
  0
VERTEX
  8
0
 10
43.143678
 20
17.2902372
 42
0.0
  0
VERTEX
  8
0
 10
42.3926
 20
17.4156624
 42
0.0
  0
VERTEX
  8
0
 10
41.717468
 20
17.52727
 42
0.0
  0
VERTEX
  8
0
 10
41.010332
 20
17.5975518
 42
0.0
  0
VERTEX
  8
0
 10
40.457882
 20
17.6512982
 42
0.0
  0
VERTEX
  8
0
 10
40.270176
 20
17.6705768
 42
0.0
  0
VERTEX
  8
0
 10
39.089584
 20
17.7091594
 42
0.0
  0
VERTEX
  8
0
 10
38.816534
 20
17.7188368
 42
0.0
  0
VERTEX
  8
0
 10
38.768528
 20
17.7174398
 42
0.0
  0
VERTEX
  8
0
 10
38.768528
 20
17.7077878
 42
0.0
  0
VERTEX
  8
0
 10
38.717474
 20
17.7091594
 42
0.0
  0
VERTEX
  8
0
 10
37.262054
 20
17.6609502
 42
0.0
  0
VERTEX
  8
0
 10
36.009326
 20
17.5382682
 42
0.0
  0
VERTEX
  8
0
 10
35.81654
 20
17.519015
 42
0.0
  0
VERTEX
  8
0
 10
34.387536
 20
17.2819822
 42
0.0
  0
VERTEX
  8
0
 10
33.695894
 20
17.1179744
 42
0.0
  0
VERTEX
  8
0
 10
32.987488
 20
16.9512488
 42
0.0
  0
VERTEX
  8
0
 10
32.885634
 20
16.9209212
 42
0.0
  0
VERTEX
  8
0
 10
32.051752
 20
16.6632382
 42
0.0
  0
VERTEX
  8
0
 10
31.68523
 20
16.550259
 42
0.0
  0
VERTEX
  8
0
 10
31.62046
 20
16.530955
 42
0.0
  0
VERTEX
  8
0
 10
30.446472
 20
16.0789366
 42
0.0
  0
VERTEX
  8
0
 10
30.298898
 20
16.0224724
 42
0.0
  0
VERTEX
  8
0
 10
29.688536
 20
15.737205
 42
0.0
  0
VERTEX
  8
0
 10
29.343858
 20
15.5759404
 42
0.0
  0
VERTEX
  8
0
 10
29.02839
 20
15.4285188
 42
0.0
  0
VERTEX
  8
0
 10
27.818588
 20
14.7532852
 42
0.0
  0
VERTEX
  8
0
 10
26.674572
 20
14.000861
 42
0.0
  0
VERTEX
  8
0
 10
25.605232
 20
13.1754372
 42
0.0
  0
VERTEX
  8
0
 10
24.8419112
 20
12.5374146
 42
0.0
  0
VERTEX
  8
0
 10
18.6958478
 20
7.4069448
 42
0.0
  0
VERTEX
  8
0
 10
15.6683202
 20
4.8796194
 42
0.0
  0
VERTEX
  8
0
 10
14.009116
 20
3.4947098
 42
0.0
  0
VERTEX
  8
0
 10
13.6274048
 20
3.2053276
 42
0.0
  0
VERTEX
  8
0
 10
12.9535682
 20
2.9118052
 42
0.0
  0
VERTEX
  8
0
 10
11.6981732
 20
2.44464078
 42
0.0
  0
VERTEX
  8
0
 10
10.9361224
 20
2.16214452
 42
0.0
  0
VERTEX
  8
0
 10
9.0619834
 20
1.60403794
 42
0.0
  0
VERTEX
  8
0
 10
8.8029034
 20
1.5489174
 42
0.0
  0
VERTEX
  8
0
 10
7.475855
 20
1.2691745
 42
0.0
  0
VERTEX
  8
0
 10
7.3476866
 20
1.24161296
 42
0.0
  0
VERTEX
  8
0
 10
5.8112152
 20
1.07762548
 42
0.0
  0
VERTEX
  8
0
 10
5.6706262
 20
1.0817606
 42
0.0
  0
VERTEX
  8
0
 10
5.4625494
 20
1.0872724
 42
0.0
  0
VERTEX
  8
0
 10
4.4662344
 20
1.11483394
 42
0.0
  0
VERTEX
  8
0
 10
3.3265872
 20
1.35185404
 42
0.0
  0
VERTEX
  8
0
 10
2.40191798
 20
1.7886934
 42
0.0
  0
VERTEX
  8
0
 10
1.70187874
 20
2.41845846
 42
0.0
  0
VERTEX
  8
0
 10
1.23334272
 20
3.2356298
 42
0.0
  0
VERTEX
  8
0
 10
1.00045774
 20
4.2333418
 42
0.0
  0
VERTEX
  8
0
 10
1.00459032
 20
5.4019196
 42
0.0
  0
VERTEX
  8
0
 10
1.24850144
 20
6.7289426
 42
0.0
  0
VERTEX
  8
0
 10
1.72806106
 20
8.2020918
 42
0.0
  0
VERTEX
  8
0
 10
2.43774976
 20
9.8074988
 42
0.0
  0
VERTEX
  8
0
 10
3.3720532
 20
11.5300506
 42
0.0
  0
VERTEX
  8
0
 10
4.0073326
 20
12.5374146
 42
0.0
  0
VERTEX
  8
0
 10
4.5213524
 20
13.3518148
 42
0.0
  0
VERTEX
  8
0
 10
5.8759598
 20
15.2576276
 42
0.0
  0
VERTEX
  8
0
 10
7.4207624
 20
17.2268388
 42
0.0
  0
VERTEX
  8
0
 10
9.1419172
 20
19.2415668
 42
0.0
  0
VERTEX
  8
0
 10
11.0229396
 20
21.282406
 42
0.0
  0
VERTEX
  8
0
 10
13.0458972
 20
23.3288078
 42
0.0
  0
VERTEX
  8
0
 10
13.8672062
 20
24.107394
 42
0.0
  0
VERTEX
  8
0
 10
15.1419052
 20
25.3172976
 42
0.0
  0
VERTEX
  8
0
 10
15.5676854
 20
25.879552
 42
0.0
  0
VERTEX
  8
0
 10
15.6683202
 20
26.010362
 42
0.0
  0
VERTEX
  8
0
 10
15.782671
 20
26.162
 42
0.0
  0
VERTEX
  8
0
 10
16.4193474
 20
27.187398
 42
0.0
  0
VERTEX
  8
0
 10
16.9856912
 20
28.29941
 42
0.0
  0
VERTEX
  8
0
 10
17.2420026
 20
28.920948
 42
0.0
  0
VERTEX
  8
0
 10
17.4018448
 20
29.309568
 42
0.0
  0
VERTEX
  8
0
 10
17.4749206
 20
29.487368
 42
0.0
  0
VERTEX
  8
0
 10
17.8814222
 20
30.738572
 42
0.0
  0
VERTEX
  8
0
 10
18.2011574
 20
32.0421
 42
0.0
  0
VERTEX
  8
0
 10
18.4326276
 20
33.38576
 42
0.0
  0
VERTEX
  8
0
 10
18.5718196
 20
34.754058
 42
0.0
  0
VERTEX
  8
0
 10
18.6186572
 20
36.13785
 42
0.0
  0
VERTEX
  8
0
 10
18.5718196
 20
37.51961
 42
0.0
  0
VERTEX
  8
0
 10
18.4326276
 20
38.889432
 42
0.0
  0
VERTEX
  8
0
 10
18.2011574
 20
40.231822
 42
0.0
  0
VERTEX
  8
0
 10
17.8814222
 20
41.536874
 42
0.0
  0
VERTEX
  8
0
 10
17.6595532
 20
42.217594
 42
0.0
  0
VERTEX
  8
0
 10
17.4749206
 20
42.788078
 42
0.0
  0
VERTEX
  8
0
 10
16.9856912
 20
43.975782
 42
0.0
  0
VERTEX
  8
0
 10
16.4193474
 20
45.088048
 42
0.0
  0
VERTEX
  8
0
 10
16.2842956
 20
45.305726
 42
0.0
  0
VERTEX
  8
0
 10
15.782671
 20
46.113446
 42
0.0
  0
VERTEX
  8
0
 10
15.6683202
 20
46.26356
 42
0.0
  0
VERTEX
  8
0
 10
15.21079
 20
46.868334
 42
0.0
  0
VERTEX
  8
0
 10
15.0785068
 20
47.043594
 42
0.0
  0
VERTEX
  8
0
 10
15.0674578
 20
47.054516
 42
0.0
  0
VERTEX
  8
0
 10
14.8194268
 20
47.321978
 42
0.0
  0
VERTEX
  8
0
 10
14.8001228
 20
47.353474
 42
0.0
  0
VERTEX
  8
0
 10
14.7904962
 20
47.36846
 42
0.0
  0
VERTEX
  8
0
 10
14.5396712
 20
47.649638
 42
0.0
  0
VERTEX
  8
0
 10
14.3302228
 20
47.85106
 42
0.0
  0
VERTEX
  8
0
 10
14.295755
 20
47.88535
 42
0.0
  0
VERTEX
  8
0
 10
13.8672062
 20
48.296068
 42
0.0
  0
VERTEX
  8
0
 10
13.6205468
 20
48.53305
 42
0.0
  0
VERTEX
  8
0
 10
13.5102854
 20
48.639222
 42
0.0
  0
VERTEX
  8
0
 10
13.3504432
 20
48.770032
 42
0.0
  0
VERTEX
  8
0
 10
13.2663946
 20
48.848772
 42
0.0
  0
VERTEX
  8
0
 10
13.1368546
 20
48.972724
 42
0.0
  0
VERTEX
  8
0
 10
13.0458972
 20
49.058322
 42
0.0
  0
VERTEX
  8
0
 10
13.0059176
 20
49.0982
 42
0.0
  0
VERTEX
  8
0
 10
12.9094738
 20
49.19726
 42
0.0
  0
VERTEX
  8
0
 10
12.8157478
 20
49.29124
 42
0.0
  0
VERTEX
  8
0
 10
11.0229396
 20
51.105816
 42
0.0
  0
VERTEX
  8
0
 10
9.1419172
 20
53.146706
 42
0.0
  0
VERTEX
  8
0
 10
8.5893402
 20
53.791612
 42
0.0
  0
VERTEX
  8
0
 10
7.4207624
 20
55.15991
 42
0.0
  0
VERTEX
  8
0
 10
5.8759598
 20
57.129172
 42
0.0
  0
VERTEX
  8
0
 10
4.5213524
 20
59.035188
 42
0.0
  0
VERTEX
  8
0
 10
3.3720532
 20
60.856876
 42
0.0
  0
VERTEX
  8
0
 10
2.9214318
 20
61.689234
 42
0.0
  0
VERTEX
  8
0
 10
2.6899362
 20
62.114938
 42
0.0
  0
VERTEX
  8
0
 10
2.43774976
 20
62.581028
 42
0.0
  0
VERTEX
  8
0
 10
1.72806106
 20
64.184784
 42
0.0
  0
VERTEX
  8
0
 10
1.24850144
 20
65.659254
 42
0.0
  0
VERTEX
  8
0
 10
1.00459032
 20
66.986404
 42
0.0
  0
VERTEX
  8
0
 10
1.00045774
 20
68.154804
 42
0.0
  0
VERTEX
  8
0
 10
1.23334272
 20
69.152516
 42
0.0
  0
VERTEX
  8
0
 10
1.70187874
 20
69.969888
 42
0.0
  0
VERTEX
  8
0
 10
2.40191798
 20
70.599554
 42
0.0
  0
VERTEX
  8
0
 10
3.3265872
 20
71.03491
 42
0.0
  0
VERTEX
  8
0
 10
4.4662344
 20
71.272146
 42
0.0
  0
VERTEX
  8
0
 10
5.3839872
 20
71.298054
 42
0.0
  0
VERTEX
  8
0
 10
5.640324
 20
71.305166
 42
0.0
  0
VERTEX
  8
0
 10
5.8112152
 20
71.309484
 42
0.0
  0
VERTEX
  8
0
 10
7.3476866
 20
71.146924
 42
0.0
  0
VERTEX
  8
0
 10
7.475855
 20
71.119238
 42
0.0
  0
VERTEX
  8
0
 10
9.0344244
 20
70.7898
 42
0.0
  0
VERTEX
  8
0
 10
9.0619834
 20
70.783196
 42
0.0
  0
VERTEX
  8
0
 10
10.9361224
 20
70.224904
 42
0.0
  0
VERTEX
  8
0
 10
11.860784
 20
69.88175
 42
0.0
  0
VERTEX
  8
0
 10
12.5677168
 20
69.619876
 42
0.0
  0
VERTEX
  8
0
 10
15.6683202
 20
67.237356
 42
0.0
  0
VERTEX
  8
0
 10
22.335236
 20
62.114938
 42
0.0
  0
VERTEX
  8
0
 10
22.8905816
 20
61.689234
 42
0.0
  0
VERTEX
  8
0
 10
24.6310404
 20
60.352432
 42
0.0
  0
VERTEX
  8
0
 10
26.101548
 20
59.22264
 42
0.0
  0
VERTEX
  8
0
 10
27.42565
 20
58.205624
 42
0.0
  0
VERTEX
  8
0
 10
31.416498
 20
55.13959
 42
0.0
  0
VERTEX
  8
0
 10
31.68523
 20
54.934104
 42
0.0
  0
VERTEX
  8
0
 10
32.051752
 20
54.651656
 42
0.0
  0
VERTEX
  8
0
 10
33.553908
 20
53.496972
 42
0.0
  0
VERTEX
  8
0
 10
35.429444
 20
52.057046
 42
0.0
  0
VERTEX
  8
0
 10
35.990276
 20
51.689
 42
0.0
  0
VERTEX
  8
0
 10
36.009326
 20
51.680618
 42
0.0
  0
VERTEX
  8
0
 10
36.147248
 20
51.614578
 42
0.0
  0
VERTEX
  8
0
 10
36.618672
 20
51.392582
 42
0.0
  0
VERTEX
  8
0
 10
37.300662
 20
51.176174
 42
0.0
  0
VERTEX
  8
0
 10
38.018974
 20
51.04384
 42
0.0
  0
VERTEX
  8
0
 10
38.69944
 20
51.002438
 42
0.0
  0
VERTEX
  8
0
 10
38.754304
 20
50.999644
 42
0.0
  0
VERTEX
  8
0
 10
38.76421
 20
50.999644
 42
0.0
  0
VERTEX
  8
0
 10
38.76421
 20
51.00955
 42
0.0
  0
VERTEX
  8
0
 10
38.777926
 20
51.008026
 42
0.0
  0
VERTEX
  8
0
 10
38.831774
 20
51.012344
 42
0.0
  0
VERTEX
  8
0
 10
39.188644
 20
51.032918
 42
0.0
  0
VERTEX
  8
0
 10
39.514018
 20
51.052222
 42
0.0
  0
VERTEX
  8
0
 10
40.230552
 20
51.185826
 42
0.0
  0
VERTEX
  8
0
 10
40.244268
 20
51.18989
 42
0.0
  0
VERTEX
  8
0
 10
40.912796
 20
51.402234
 42
0.0
  0
VERTEX
  8
0
 10
41.010332
 20
51.4477
 42
0.0
  0
VERTEX
  8
0
 10
41.542462
 20
51.698398
 42
0.0
  0
VERTEX
  8
0
 10
42.104818
 20
52.066444
 42
0.0
  0
VERTEX
  8
0
 10
43.966384
 20
53.496972
 42
0.0
  0
VERTEX
  8
0
 10
45.847254
 20
54.942232
 42
0.0
  0
VERTEX
  8
0
 10
46.11624
 20
55.148988
 42
0.0
  0
VERTEX
  8
0
 10
46.453806
 20
55.408322
 42
0.0
  0
VERTEX
  8
0
 10
47.095918
 20
55.90159
 42
0.0
  0
VERTEX
  8
0
 10
47.751746
 20
56.40451
 42
0.0
  0
VERTEX
  8
0
 10
48.43526
 20
56.929528
 42
0.0
  0
VERTEX
  8
0
 10
48.436784
 20
56.930798
 42
0.0
  0
VERTEX
  8
0
 10
52.901596
 20
60.361068
 42
0.0
  0
VERTEX
  8
0
 10
54.630828
 20
61.689234
 42
0.0
  0
VERTEX
  8
0
 10
55.197248
 20
62.124844
 42
0.0
  0
VERTEX
  8
0
 10
64.820038
 20
69.516498
 42
0.0
  0
VERTEX
  8
0
 10
64.966088
 20
69.628004
 42
0.0
  0
VERTEX
  8
0
 10
65.647062
 20
69.88175
 42
0.0
  0
VERTEX
  8
0
 10
66.59626
 20
70.234556
 42
0.0
  0
VERTEX
  8
0
 10
68.470526
 20
70.792594
 42
0.0
  0
VERTEX
  8
0
 10
68.498212
 20
70.798182
 42
0.0
  0
VERTEX
  8
0
 10
70.183502
 20
71.155052
 42
0.0
  0
VERTEX
  8
0
 10
71.721472
 20
71.318882
 42
0.0
  0
VERTEX
  8
0
 10
71.893684
 20
71.314818
 42
0.0
  0
VERTEX
  8
0
 10
72.075802
 20
71.309484
 42
0.0
  0
SEQEND
  0
POLYLINE
  8
0
 66
     1
 10
0.0
 20
0.0
 30
0.0
 70
     1
  0
VERTEX
  8
0
 10
40.5392947308322
 20
21.8832167242763
 42
0.0
  0
VERTEX
  8
0
 10
41.010332
 20
22.4027746
 42
0.0
  0
VERTEX
  8
0
 10
41.162224
 20
22.5557334
 42
0.0
  0
VERTEX
  8
0
 10
41.811194
 20
23.2047796
 42
0.0
  0
VERTEX
  8
0
 10
35.805618
 20
23.2047796
 42
0.0
  0
VERTEX
  8
0
 10
36.009326
 20
23.0008176
 42
0.0
  0
VERTEX
  8
0
 10
37.0320224462378
 20
21.8833814975554
 42
0.0
  0
VERTEX
  8
0
 10
37.033454
 20
21.881846
 42
0.0
  0
VERTEX
  8
0
 10
38.7891708228195
 20
21.3741062770814
 42
0.0
  0
VERTEX
  8
0
 10
40.539162
 20
21.881846
 42
0.0
  0
SEQEND
  0
POLYLINE
  8
0
 66
     1
 10
0.0
 20
0.0
 30
0.0
 70
     1
  0
VERTEX
  8
0
 10
52.901596
 20
48.309784
 42
0.0
  0
VERTEX
  8
0
 10
53.798724
 20
48.168052
 42
0.0
  0
VERTEX
  8
0
 10
54.723284
 20
48.314102
 42
0.0
  0
VERTEX
  8
0
 10
55.556912
 20
48.739806
 42
0.0
  0
VERTEX
  8
0
 10
56.219852
 20
49.404016
 42
0.0
  0
VERTEX
  8
0
 10
56.627776
 20
50.207418
 42
0.0
  0
VERTEX
  8
0
 10
56.645556
 20
50.241962
 42
0.0
  0
VERTEX
  8
0
 10
56.791606
 20
51.169316
 42
0.0
  0
VERTEX
  8
0
 10
56.645556
 20
52.098194
 42
0.0
  0
VERTEX
  8
0
 10
56.627776
 20
52.13096
 42
0.0
  0
VERTEX
  8
0
 10
56.219852
 20
52.934616
 42
0.0
  0
VERTEX
  8
0
 10
55.65775
 20
53.496972
 42
0.0
  0
VERTEX
  8
0
 10
55.556912
 20
53.598826
 42
0.0
  0
VERTEX
  8
0
 10
54.723284
 20
54.026054
 42
0.0
  0
VERTEX
  8
0
 10
53.798724
 20
54.172104
 42
0.0
  0
VERTEX
  8
0
 10
52.901596
 20
54.030118
 42
0.0
  0
VERTEX
  8
0
 10
52.87264
 20
54.026054
 42
0.0
  0
VERTEX
  8
0
 10
52.037488
 20
53.598826
 42
0.0
  0
VERTEX
  8
0
 10
51.936904
 20
53.496972
 42
0.0
  0
VERTEX
  8
0
 10
51.376072
 20
52.934616
 42
0.0
  0
VERTEX
  8
0
 10
50.950368
 20
52.098194
 42
0.0
  0
VERTEX
  8
0
 10
50.804318
 20
51.169316
 42
0.0
  0
VERTEX
  8
0
 10
50.950368
 20
50.241962
 42
0.0
  0
VERTEX
  8
0
 10
51.376072
 20
49.404016
 42
0.0
  0
VERTEX
  8
0
 10
52.037488
 20
48.739806
 42
0.0
  0
VERTEX
  8
0
 10
52.87264
 20
48.314102
 42
0.0
  0
SEQEND
  0
POLYLINE
  8
0
 66
     1
 10
0.0
 20
0.0
 30
0.0
 70
     1
  0
VERTEX
  8
0
 10
53.837078
 20
37.518594
 42
0.0
  0
VERTEX
  8
0
 10
58.135266
 20
37.518594
 42
0.0
  0
VERTEX
  8
0
 10
58.135266
 20
39.02329
 42
0.0
  0
VERTEX
  8
0
 10
53.379878
 20
39.02329
 42
0.0
  0
VERTEX
  8
0
 10
53.379878
 20
37.518594
 42
0.0
  0
SEQEND
  0
POLYLINE
  8
0
 66
     1
 10
0.0
 20
0.0
 30
0.0
 70
     1
  0
VERTEX
  8
0
 10
50.950368
 20
22.1395544
 42
0.0
  0
VERTEX
  8
0
 10
50.804318
 20
21.2107526
 42
0.0
  0
VERTEX
  8
0
 10
50.873152
 20
20.7766666
 42
0.0
  0
VERTEX
  8
0
 10
50.88001
 20
20.729829
 42
0.0
  0
VERTEX
  8
0
 10
50.950368
 20
20.2833478
 42
0.0
  0
VERTEX
  8
0
 10
51.376072
 20
19.446875
 42
0.0
  0
VERTEX
  8
0
 10
52.037488
 20
18.782665
 42
0.0
  0
VERTEX
  8
0
 10
52.87264
 20
18.3568594
 42
0.0
  0
VERTEX
  8
0
 10
52.901596
 20
18.3513222
 42
0.0
  0
VERTEX
  8
0
 10
53.798724
 20
18.2094124
 42
0.0
  0
VERTEX
  8
0
 10
54.723284
 20
18.3568594
 42
0.0
  0
VERTEX
  8
0
 10
55.556912
 20
18.782665
 42
0.0
  0
VERTEX
  8
0
 10
56.219852
 20
19.446875
 42
0.0
  0
VERTEX
  8
0
 10
56.645556
 20
20.2833478
 42
0.0
  0
VERTEX
  8
0
 10
56.716168
 20
20.729829
 42
0.0
  0
VERTEX
  8
0
 10
56.791606
 20
21.2107526
 42
0.0
  0
VERTEX
  8
0
 10
56.645556
 20
22.1395544
 42
0.0
  0
VERTEX
  8
0
 10
56.219852
 20
22.9760272
 42
0.0
  0
VERTEX
  8
0
 10
55.556912
 20
23.6402372
 42
0.0
  0
VERTEX
  8
0
 10
54.723284
 20
24.0674652
 42
0.0
  0
VERTEX
  8
0
 10
53.798724
 20
24.2148868
 42
0.0
  0
VERTEX
  8
0
 10
53.626512
 20
24.1873278
 42
0.0
  0
VERTEX
  8
0
 10
52.901596
 20
24.07158
 42
0.0
  0
VERTEX
  8
0
 10
52.87264
 20
24.0674652
 42
0.0
  0
VERTEX
  8
0
 10
52.037488
 20
23.6402372
 42
0.0
  0
VERTEX
  8
0
 10
51.376072
 20
22.9760272
 42
0.0
  0
SEQEND
  0
POLYLINE
  8
0
 66
     1
 10
0.0
 20
0.0
 30
0.0
 70
     1
  0
VERTEX
  8
0
 10
20.7408526
 20
39.02329
 42
0.0
  0
VERTEX
  8
0
 10
19.3793618
 20
39.02329
 42
0.0
  0
VERTEX
  8
0
 10
19.3793618
 20
37.518594
 42
0.0
  0
VERTEX
  8
0
 10
24.1349784
 20
37.518594
 42
0.0
  0
VERTEX
  8
0
 10
24.1349784
 20
39.02329
 42
0.0
  0
SEQEND
  0
POLYLINE
  8
0
 66
     1
 10
0.0
 20
0.0
 30
0.0
 70
     1
  0
VERTEX
  8
0
 10
26.58237
 20
52.088288
 42
0.0
  0
VERTEX
  8
0
 10
26.156412
 20
52.92471
 42
0.0
  0
VERTEX
  8
0
 10
25.585928
 20
53.496972
 42
0.0
  0
VERTEX
  8
0
 10
25.494996
 20
53.589174
 42
0.0
  0
VERTEX
  8
0
 10
24.659971
 20
54.016402
 42
0.0
  0
VERTEX
  8
0
 10
24.6310404
 20
54.020466
 42
0.0
  0
VERTEX
  8
0
 10
23.7353602
 20
54.162452
 42
0.0
  0
VERTEX
  8
0
 10
22.8106732
 20
54.016402
 42
0.0
  0
VERTEX
  8
0
 10
21.9755974
 20
53.589174
 42
0.0
  0
VERTEX
  8
0
 10
21.8832684
 20
53.496972
 42
0.0
  0
VERTEX
  8
0
 10
21.312759
 20
52.92471
 42
0.0
  0
VERTEX
  8
0
 10
20.8882996
 20
52.088288
 42
0.0
  0
VERTEX
  8
0
 10
20.7408526
 20
51.160934
 42
0.0
  0
VERTEX
  8
0
 10
20.8882996
 20
50.23231
 42
0.0
  0
VERTEX
  8
0
 10
21.312759
 20
49.395888
 42
0.0
  0
VERTEX
  8
0
 10
21.9755974
 20
48.731678
 42
0.0
  0
VERTEX
  8
0
 10
22.8106732
 20
48.30445
 42
0.0
  0
VERTEX
  8
0
 10
23.7353602
 20
48.156876
 42
0.0
  0
VERTEX
  8
0
 10
23.8593376
 20
48.17745
 42
0.0
  0
VERTEX
  8
0
 10
24.6310404
 20
48.300132
 42
0.0
  0
VERTEX
  8
0
 10
24.659971
 20
48.30445
 42
0.0
  0
VERTEX
  8
0
 10
25.494996
 20
48.731678
 42
0.0
  0
VERTEX
  8
0
 10
26.156412
 20
49.395888
 42
0.0
  0
VERTEX
  8
0
 10
26.58237
 20
50.23231
 42
0.0
  0
VERTEX
  8
0
 10
26.72842
 20
51.160934
 42
0.0
  0
SEQEND
  0
POLYLINE
  8
0
 66
     1
 10
0.0
 20
0.0
 30
0.0
 70
     1
  0
VERTEX
  8
0
 10
26.659586
 20
20.76704
 42
0.0
  0
VERTEX
  8
0
 10
26.72842
 20
21.2024976
 42
0.0
  0
VERTEX
  8
0
 10
26.59761
 20
22.0293184
 42
0.0
  0
VERTEX
  8
0
 10
26.58237
 20
22.1299278
 42
0.0
  0
VERTEX
  8
0
 10
26.156412
 20
22.9677722
 42
0.0
  0
VERTEX
  8
0
 10
25.494996
 20
23.6319822
 42
0.0
  0
VERTEX
  8
0
 10
24.659971
 20
24.0577878
 42
0.0
  0
VERTEX
  8
0
 10
24.6310404
 20
24.0619026
 42
0.0
  0
VERTEX
  8
0
 10
23.9062006
 20
24.1777012
 42
0.0
  0
VERTEX
  8
0
 10
23.7353602
 20
24.2038632
 42
0.0
  0
VERTEX
  8
0
 10
22.8106732
 20
24.0577878
 42
0.0
  0
VERTEX
  8
0
 10
21.9755974
 20
23.6319822
 42
0.0
  0
VERTEX
  8
0
 10
21.312759
 20
22.9677722
 42
0.0
  0
VERTEX
  8
0
 10
20.8882996
 20
22.1299278
 42
0.0
  0
VERTEX
  8
0
 10
20.8717896
 20
22.0293184
 42
0.0
  0
VERTEX
  8
0
 10
20.7408526
 20
21.2024976
 42
0.0
  0
VERTEX
  8
0
 10
20.8152746
 20
20.729829
 42
0.0
  0
VERTEX
  8
0
 10
20.8882996
 20
20.2750928
 42
0.0
  0
VERTEX
  8
0
 10
21.312759
 20
19.4372484
 42
0.0
  0
VERTEX
  8
0
 10
21.9755974
 20
18.7729876
 42
0.0
  0
VERTEX
  8
0
 10
22.8106732
 20
18.3458104
 42
0.0
  0
VERTEX
  8
0
 10
23.7353602
 20
18.199735
 42
0.0
  0
VERTEX
  8
0
 10
24.6310404
 20
18.3416956
 42
0.0
  0
VERTEX
  8
0
 10
24.659971
 20
18.3458104
 42
0.0
  0
VERTEX
  8
0
 10
25.494996
 20
18.7729876
 42
0.0
  0
VERTEX
  8
0
 10
26.156412
 20
19.4372484
 42
0.0
  0
VERTEX
  8
0
 10
26.58237
 20
20.2750928
 42
0.0
  0
VERTEX
  8
0
 10
26.653998
 20
20.729829
 42
0.0
  0
SEQEND
  0
POLYLINE
  8
0
 66
     1
 10
0.0
 20
0.0
 30
0.0
 70
     1
  0
VERTEX
  8
0
 10
56.791606
 20
35.02279
 42
0.0
  0
VERTEX
  8
0
 10
53.379878
 20
35.02279
 42
0.0
  0
VERTEX
  8
0
 10
53.379878
 20
33.518094
 42
0.0
  0
VERTEX
  8
0
 10
58.135266
 20
33.518094
 42
0.0
  0
VERTEX
  8
0
 10
58.135266
 20
35.02279
 42
0.0
  0
SEQEND
  0
POLYLINE
  8
0
 66
     1
 10
0.0
 20
0.0
 30
0.0
 70
     1
  0
VERTEX
  8
0
 10
23.6953806
 20
33.518094
 42
0.0
  0
VERTEX
  8
0
 10
24.1349784
 20
33.518094
 42
0.0
  0
VERTEX
  8
0
 10
24.1349784
 20
35.02279
 42
0.0
  0
VERTEX
  8
0
 10
19.3793618
 20
35.02279
 42
0.0
  0
VERTEX
  8
0
 10
19.3793618
 20
33.518094
 42
0.0
  0
SEQEND
  0
POLYLINE
  8
0
 66
     1
 10
0.0
 20
0.0
 30
0.0
 70
     1
  0
VERTEX
  8
0
 10
27.5831018033712
 20
44.9628203525088
 42
0.0
  0
VERTEX
  8
0
 10
27.8619132734633
 20
44.6839907930461
 42
0.0
  0
VERTEX
  8
0
 10
28.3359368883588
 20
44.4422208585752
 42
0.0
  0
VERTEX
  8
0
 10
28.8611347604232
 20
44.3586161093375
 42
0.0
  0
VERTEX
  8
0
 10
29.3878766833504
 20
44.4422208585752
 42
0.0
  0
VERTEX
  8
0
 10
29.8605768260777
 20
44.6839907930461
 42
0.0
  0
VERTEX
  8
0
 10
30.2362223431402
 20
45.0598812751066
 42
0.0
  0
VERTEX
  8
0
 10
30.4049650445804
 20
45.3901090049451
 42
0.0
  0
VERTEX
  8
0
 10
30.4779765925239
 20
45.5339356447946
 42
0.0
  0
VERTEX
  8
0
 10
30.5617964965072
 20
46.0589469988464
 42
0.0
  0
VERTEX
  8
0
 10
30.4779765925239
 20
46.5843995389099
 42
0.0
  0
VERTEX
  8
0
 10
30.2362223431402
 20
47.0584539085979
 42
0.0
  0
VERTEX
  8
0
 10
29.8605768260777
 20
47.4343443906584
 42
0.0
  0
VERTEX
  8
0
 10
29.3878766833504
 20
47.6761143251293
 42
0.0
  0
VERTEX
  8
0
 10
28.8611347604232
 20
47.7586161093375
 42
0.0
  0
VERTEX
  8
0
 10
28.3359368883588
 20
47.6761143251293
 42
0.0
  0
VERTEX
  8
0
 10
27.8619132734633
 20
47.4343443906584
 42
0.0
  0
VERTEX
  8
0
 10
27.4862677564009
 20
47.0584539085979
 42
0.0
  0
VERTEX
  8
0
 10
27.2445135070171
 20
46.5843995389099
 42
0.0
  0
VERTEX
  8
0
 10
27.1617964965072
 20
46.0589469988464
 42
0.0
  0
VERTEX
  8
0
 10
27.2445135070171
 20
45.5339356447946
 42
0.0
  0
VERTEX
  8
0
 10
27.3175250549606
 20
45.3901090049451
 42
0.0
  0
VERTEX
  8
0
 10
27.4862677564009
 20
45.0598812751066
 42
0.0
  0
SEQEND
  0
POLYLINE
  8
0
 66
     1
 10
0.0
 20
0.0
 30
0.0
 70
     1
  0
VERTEX
  8
0
 10
47.4936621481793
 20
44.9862349470223
 42
0.0
  0
VERTEX
  8
0
 10
47.7724736182714
 20
44.7074053875596
 42
0.0
  0
VERTEX
  8
0
 10
48.2464972331669
 20
44.4656354530887
 42
0.0
  0
VERTEX
  8
0
 10
48.7716951052314
 20
44.382030703851
 42
0.0
  0
VERTEX
  8
0
 10
49.2984370281585
 20
44.4656354530887
 42
0.0
  0
VERTEX
  8
0
 10
49.7711371708859
 20
44.7074053875596
 42
0.0
  0
VERTEX
  8
0
 10
50.1467826879484
 20
45.0832958696201
 42
0.0
  0
VERTEX
  8
0
 10
50.3155253893886
 20
45.4135235994586
 42
0.0
  0
VERTEX
  8
0
 10
50.388536937332
 20
45.5573502393081
 42
0.0
  0
VERTEX
  8
0
 10
50.4723568413154
 20
46.0823615933599
 42
0.0
  0
VERTEX
  8
0
 10
50.388536937332
 20
46.6078141334234
 42
0.0
  0
VERTEX
  8
0
 10
50.1467826879484
 20
47.0818685031114
 42
0.0
  0
VERTEX
  8
0
 10
49.7711371708859
 20
47.4577589851719
 42
0.0
  0
VERTEX
  8
0
 10
49.2984370281585
 20
47.6995289196428
 42
0.0
  0
VERTEX
  8
0
 10
48.7716951052314
 20
47.782030703851
 42
0.0
  0
VERTEX
  8
0
 10
48.2464972331669
 20
47.6995289196428
 42
0.0
  0
VERTEX
  8
0
 10
47.7724736182714
 20
47.4577589851719
 42
0.0
  0
VERTEX
  8
0
 10
47.396828101209
 20
47.0818685031114
 42
0.0
  0
VERTEX
  8
0
 10
47.1550738518253
 20
46.6078141334234
 42
0.0
  0
VERTEX
  8
0
 10
47.0723568413154
 20
46.0823615933599
 42
0.0
  0
VERTEX
  8
0
 10
47.1550738518253
 20
45.5573502393081
 42
0.0
  0
VERTEX
  8
0
 10
47.2280853997687
 20
45.4135235994586
 42
0.0
  0
VERTEX
  8
0
 10
47.396828101209
 20
45.0832958696201
 42
0.0
  0
SEQEND
  0
POLYLINE
  8
0
 66
     1
 10
0.0
 20
0.0
 30
0.0
 70
     1
  0
VERTEX
  8
0
 10
47.486894189969
 20
25.1211106439946
 42
0.0
  0
VERTEX
  8
0
 10
47.7657056600611
 20
24.8422810845319
 42
0.0
  0
VERTEX
  8
0
 10
48.2397292749567
 20
24.600511150061
 42
0.0
  0
VERTEX
  8
0
 10
48.7649271470211
 20
24.5169064008233
 42
0.0
  0
VERTEX
  8
0
 10
49.2916690699483
 20
24.600511150061
 42
0.0
  0
VERTEX
  8
0
 10
49.7643692126756
 20
24.8422810845319
 42
0.0
  0
VERTEX
  8
0
 10
50.1400147297381
 20
25.2181715665924
 42
0.0
  0
VERTEX
  8
0
 10
50.3087574311783
 20
25.5483992964309
 42
0.0
  0
VERTEX
  8
0
 10
50.3817689791217
 20
25.6922259362804
 42
0.0
  0
VERTEX
  8
0
 10
50.4655888831051
 20
26.2172372903322
 42
0.0
  0
VERTEX
  8
0
 10
50.3817689791217
 20
26.7426898303957
 42
0.0
  0
VERTEX
  8
0
 10
50.1400147297381
 20
27.2167442000837
 42
0.0
  0
VERTEX
  8
0
 10
49.7643692126756
 20
27.5926346821442
 42
0.0
  0
VERTEX
  8
0
 10
49.2916690699483
 20
27.8344046166151
 42
0.0
  0
VERTEX
  8
0
 10
48.7649271470211
 20
27.9169064008233
 42
0.0
  0
VERTEX
  8
0
 10
48.2397292749567
 20
27.8344046166151
 42
0.0
  0
VERTEX
  8
0
 10
47.7657056600611
 20
27.5926346821442
 42
0.0
  0
VERTEX
  8
0
 10
47.3900601429988
 20
27.2167442000837
 42
0.0
  0
VERTEX
  8
0
 10
47.148305893615
 20
26.7426898303957
 42
0.0
  0
VERTEX
  8
0
 10
47.0655888831051
 20
26.2172372903322
 42
0.0
  0
VERTEX
  8
0
 10
47.148305893615
 20
25.6922259362804
 42
0.0
  0
VERTEX
  8
0
 10
47.2213174415585
 20
25.5483992964309
 42
0.0
  0
VERTEX
  8
0
 10
47.3900601429988
 20
25.2181715665924
 42
0.0
  0
SEQEND
  0
POLYLINE
  8
0
 66
     1
 10
0.0
 20
0.0
 30
0.0
 70
     1
  0
VERTEX
  8
0
 10
27.5763338451609
 20
25.0976960494812
 42
0.0
  0
VERTEX
  8
0
 10
27.855145315253
 20
24.8188664900184
 42
0.0
  0
VERTEX
  8
0
 10
28.3291689301485
 20
24.5770965555475
 42
0.0
  0
VERTEX
  8
0
 10
28.8543668022129
 20
24.4934918063098
 42
0.0
  0
VERTEX
  8
0
 10
29.3811087251401
 20
24.5770965555475
 42
0.0
  0
VERTEX
  8
0
 10
29.8538088678675
 20
24.8188664900184
 42
0.0
  0
VERTEX
  8
0
 10
30.2294543849299
 20
25.1947569720789
 42
0.0
  0
VERTEX
  8
0
 10
30.3981970863702
 20
25.5249847019174
 42
0.0
  0
VERTEX
  8
0
 10
30.4712086343136
 20
25.6688113417669
 42
0.0
  0
VERTEX
  8
0
 10
30.5550285382969
 20
26.1938226958187
 42
0.0
  0
VERTEX
  8
0
 10
30.4712086343136
 20
26.7192752358822
 42
0.0
  0
VERTEX
  8
0
 10
30.2294543849299
 20
27.1933296055702
 42
0.0
  0
VERTEX
  8
0
 10
29.8538088678675
 20
27.5692200876307
 42
0.0
  0
VERTEX
  8
0
 10
29.3811087251401
 20
27.8109900221016
 42
0.0
  0
VERTEX
  8
0
 10
28.8543668022129
 20
27.8934918063098
 42
0.0
  0
VERTEX
  8
0
 10
28.3291689301485
 20
27.8109900221016
 42
0.0
  0
VERTEX
  8
0
 10
27.855145315253
 20
27.5692200876307
 42
0.0
  0
VERTEX
  8
0
 10
27.4794997981906
 20
27.1933296055702
 42
0.0
  0
VERTEX
  8
0
 10
27.2377455488069
 20
26.7192752358822
 42
0.0
  0
VERTEX
  8
0
 10
27.1550285382969
 20
26.1938226958187
 42
0.0
  0
VERTEX
  8
0
 10
27.2377455488069
 20
25.6688113417669
 42
0.0
  0
VERTEX
  8
0
 10
27.3107570967503
 20
25.5249847019174
 42
0.0
  0
VERTEX
  8
0
 10
27.4794997981906
 20
25.1947569720789
 42
0.0
  0
SEQEND
  0
POLYLINE
  8
0
 66
     1
 10
0.0
 20
0.0
 30
0.0
 70
     1
  0
VERTEX
  8
0
 10
37.5418833284074
 20
35.0080347322664
 42
0.0
  0
VERTEX
  8
0
 10
37.8206947984995
 20
34.7292051728036
 42
0.0
  0
VERTEX
  8
0
 10
38.294718413395
 20
34.4874352383328
 42
0.0
  0
VERTEX
  8
0
 10
38.8199162854594
 20
34.403830489095
 42
0.0
  0
VERTEX
  8
0
 10
39.3466582083866
 20
34.4874352383328
 42
0.0
  0
VERTEX
  8
0
 10
39.8193583511139
 20
34.7292051728036
 42
0.0
  0
VERTEX
  8
0
 10
40.1950038681764
 20
35.1050956548642
 42
0.0
  0
VERTEX
  8
0
 10
40.3637465696166
 20
35.4353233847027
 42
0.0
  0
VERTEX
  8
0
 10
40.4367581175601
 20
35.5791500245522
 42
0.0
  0
VERTEX
  8
0
 10
40.5205780215434
 20
36.1041613786039
 42
0.0
  0
VERTEX
  8
0
 10
40.4367581175601
 20
36.6296139186675
 42
0.0
  0
VERTEX
  8
0
 10
40.1950038681764
 20
37.1036682883555
 42
0.0
  0
VERTEX
  8
0
 10
39.8193583511139
 20
37.479558770416
 42
0.0
  0
VERTEX
  8
0
 10
39.3466582083866
 20
37.7213287048869
 42
0.0
  0
VERTEX
  8
0
 10
38.8199162854594
 20
37.803830489095
 42
0.0
  0
VERTEX
  8
0
 10
38.294718413395
 20
37.7213287048869
 42
0.0
  0
VERTEX
  8
0
 10
37.8206947984995
 20
37.479558770416
 42
0.0
  0
VERTEX
  8
0
 10
37.4450492814371
 20
37.1036682883555
 42
0.0
  0
VERTEX
  8
0
 10
37.2032950320533
 20
36.6296139186675
 42
0.0
  0
VERTEX
  8
0
 10
37.1205780215434
 20
36.1041613786039
 42
0.0
  0
VERTEX
  8
0
 10
37.2032950320533
 20
35.5791500245522
 42
0.0
  0
VERTEX
  8
0
 10
37.2763065799968
 20
35.4353233847027
 42
0.0
  0
VERTEX
  8
0
 10
37.4450492814371
 20
35.1050956548642
 42
0.0
  0
SEQEND
  0
POLYLINE
  8
0
 66
     1
 10
0.0
 20
0.0
 30
0.0
 70
     1
  0
VERTEX
  8
0
 10
68.8524749718607
 20
63.5456008370805
 42
0.0
  0
VERTEX
  8
0
 10
69.1312864419528
 20
63.2667712776177
 42
0.0
  0
VERTEX
  8
0
 10
69.6053100568484
 20
63.0250013431468
 42
0.0
  0
VERTEX
  8
0
 10
70.1305079289128
 20
62.9413965939091
 42
0.0
  0
VERTEX
  8
0
 10
70.65724985184
 20
63.0250013431468
 42
0.0
  0
VERTEX
  8
0
 10
71.1299499945673
 20
63.2667712776177
 42
0.0
  0
VERTEX
  8
0
 10
71.5055955116298
 20
63.6426617596782
 42
0.0
  0
VERTEX
  8
0
 10
71.67433821307
 20
63.9728894895167
 42
0.0
  0
VERTEX
  8
0
 10
71.7473497610134
 20
64.1167161293662
 42
0.0
  0
VERTEX
  8
0
 10
71.8311696649968
 20
64.641727483418
 42
0.0
  0
VERTEX
  8
0
 10
71.7473497610134
 20
65.1671800234815
 42
0.0
  0
VERTEX
  8
0
 10
71.5055955116298
 20
65.6412343931695
 42
0.0
  0
VERTEX
  8
0
 10
71.1299499945673
 20
66.0171248752301
 42
0.0
  0
VERTEX
  8
0
 10
70.65724985184
 20
66.2588948097009
 42
0.0
  0
VERTEX
  8
0
 10
70.1305079289128
 20
66.3413965939091
 42
0.0
  0
VERTEX
  8
0
 10
69.6053100568484
 20
66.2588948097009
 42
0.0
  0
VERTEX
  8
0
 10
69.1312864419528
 20
66.0171248752301
 42
0.0
  0
VERTEX
  8
0
 10
68.7556409248905
 20
65.6412343931695
 42
0.0
  0
VERTEX
  8
0
 10
68.5138866755067
 20
65.1671800234815
 42
0.0
  0
VERTEX
  8
0
 10
68.4311696649968
 20
64.641727483418
 42
0.0
  0
VERTEX
  8
0
 10
68.5138866755067
 20
64.1167161293662
 42
0.0
  0
VERTEX
  8
0
 10
68.5868982234501
 20
63.9728894895167
 42
0.0
  0
VERTEX
  8
0
 10
68.7556409248905
 20
63.6426617596782
 42
0.0
  0
SEQEND
  0
POLYLINE
  8
0
 66
     1
 10
0.0
 20
0.0
 30
0.0
 70
     1
  0
VERTEX
  8
0
 10
6.0967419771602
 20
63.630404085868
 42
0.0
  0
VERTEX
  8
0
 10
6.3755534472523
 20
63.3515745264053
 42
0.0
  0
VERTEX
  8
0
 10
6.8495770621479
 20
63.1098045919344
 42
0.0
  0
VERTEX
  8
0
 10
7.3747749342123
 20
63.0261998426967
 42
0.0
  0
VERTEX
  8
0
 10
7.9015168571395
 20
63.1098045919344
 42
0.0
  0
VERTEX
  8
0
 10
8.3742169998668
 20
63.3515745264053
 42
0.0
  0
VERTEX
  8
0
 10
8.7498625169293
 20
63.7274650084658
 42
0.0
  0
VERTEX
  8
0
 10
8.9186052183695
 20
64.0576927383043
 42
0.0
  0
VERTEX
  8
0
 10
8.9916167663129
 20
64.2015193781538
 42
0.0
  0
VERTEX
  8
0
 10
9.0754366702963
 20
64.7265307322056
 42
0.0
  0
VERTEX
  8
0
 10
8.9916167663129
 20
65.2519832722691
 42
0.0
  0
VERTEX
  8
0
 10
8.7498625169293
 20
65.7260376419571
 42
0.0
  0
VERTEX
  8
0
 10
8.3742169998668
 20
66.1019281240176
 42
0.0
  0
VERTEX
  8
0
 10
7.9015168571395
 20
66.3436980584885
 42
0.0
  0
VERTEX
  8
0
 10
7.3747749342123
 20
66.4261998426966
 42
0.0
  0
VERTEX
  8
0
 10
6.8495770621479
 20
66.3436980584885
 42
0.0
  0
VERTEX
  8
0
 10
6.3755534472523
 20
66.1019281240176
 42
0.0
  0
VERTEX
  8
0
 10
5.99990793019
 20
65.7260376419571
 42
0.0
  0
VERTEX
  8
0
 10
5.7581536808062
 20
65.2519832722691
 42
0.0
  0
VERTEX
  8
0
 10
5.6754366702963
 20
64.7265307322056
 42
0.0
  0
VERTEX
  8
0
 10
5.7581536808062
 20
64.2015193781538
 42
0.0
  0
VERTEX
  8
0
 10
5.8311652287496
 20
64.0576927383043
 42
0.0
  0
VERTEX
  8
0
 10
5.99990793019
 20
63.7274650084658
 42
0.0
  0
SEQEND
  0
POLYLINE
  8
0
 66
     1
 10
0.0
 20
0.0
 30
0.0
 70
     1
  0
VERTEX
  8
0
 10
6.177579394858
 20
6.6191792560924
 42
0.0
  0
VERTEX
  8
0
 10
6.4563908649501
 20
6.3403496966297
 42
0.0
  0
VERTEX
  8
0
 10
6.9304144798456
 20
6.0985797621588
 42
0.0
  0
VERTEX
  8
0
 10
7.45561235191
 20
6.0149750129211
 42
0.0
  0
VERTEX
  8
0
 10
7.9823542748372
 20
6.0985797621588
 42
0.0
  0
VERTEX
  8
0
 10
8.4550544175646
 20
6.3403496966297
 42
0.0
  0
VERTEX
  8
0
 10
8.830699934627
 20
6.7162401786902
 42
0.0
  0
VERTEX
  8
0
 10
8.9994426360672
 20
7.0464679085287
 42
0.0
  0
VERTEX
  8
0
 10
9.0724541840107
 20
7.1902945483782
 42
0.0
  0
VERTEX
  8
0
 10
9.1562740879941
 20
7.71530590243
 42
0.0
  0
VERTEX
  8
0
 10
9.0724541840107
 20
8.2407584424935
 42
0.0
  0
VERTEX
  8
0
 10
8.830699934627
 20
8.7148128121815
 42
0.0
  0
VERTEX
  8
0
 10
8.4550544175646
 20
9.090703294242
 42
0.0
  0
VERTEX
  8
0
 10
7.9823542748372
 20
9.3324732287129
 42
0.0
  0
VERTEX
  8
0
 10
7.45561235191
 20
9.4149750129211
 42
0.0
  0
VERTEX
  8
0
 10
6.9304144798456
 20
9.3324732287129
 42
0.0
  0
VERTEX
  8
0
 10
6.4563908649501
 20
9.090703294242
 42
0.0
  0
VERTEX
  8
0
 10
6.0807453478877
 20
8.7148128121815
 42
0.0
  0
VERTEX
  8
0
 10
5.838991098504
 20
8.2407584424935
 42
0.0
  0
VERTEX
  8
0
 10
5.756274087994
 20
7.71530590243
 42
0.0
  0
VERTEX
  8
0
 10
5.838991098504
 20
7.1902945483782
 42
0.0
  0
VERTEX
  8
0
 10
5.9120026464474
 20
7.0464679085287
 42
0.0
  0
VERTEX
  8
0
 10
6.0807453478877
 20
6.7162401786902
 42
0.0
  0
SEQEND
  0
POLYLINE
  8
0
 66
     1
 10
0.0
 20
0.0
 30
0.0
 70
     1
  0
VERTEX
  8
0
 10
68.9333123895585
 20
6.5577906546967
 42
0.0
  0
VERTEX
  8
0
 10
69.2121238596506
 20
6.2789610952339
 42
0.0
  0
VERTEX
  8
0
 10
69.6861474745461
 20
6.037191160763
 42
0.0
  0
VERTEX
  8
0
 10
70.2113453466105
 20
5.9535864115253
 42
0.0
  0
VERTEX
  8
0
 10
70.7380872695377
 20
6.037191160763
 42
0.0
  0
VERTEX
  8
0
 10
71.2107874122651
 20
6.2789610952339
 42
0.0
  0
VERTEX
  8
0
 10
71.5864329293275
 20
6.6548515772945
 42
0.0
  0
VERTEX
  8
0
 10
71.7551756307678
 20
6.985079307133
 42
0.0
  0
VERTEX
  8
0
 10
71.8281871787112
 20
7.1289059469825
 42
0.0
  0
VERTEX
  8
0
 10
71.9120070826946
 20
7.6539173010342
 42
0.0
  0
VERTEX
  8
0
 10
71.8281871787112
 20
8.1793698410978
 42
0.0
  0
VERTEX
  8
0
 10
71.5864329293275
 20
8.6534242107857
 42
0.0
  0
VERTEX
  8
0
 10
71.2107874122651
 20
9.0293146928463
 42
0.0
  0
VERTEX
  8
0
 10
70.7380872695377
 20
9.2710846273172
 42
0.0
  0
VERTEX
  8
0
 10
70.2113453466105
 20
9.3535864115253
 42
0.0
  0
VERTEX
  8
0
 10
69.6861474745461
 20
9.2710846273172
 42
0.0
  0
VERTEX
  8
0
 10
69.2121238596506
 20
9.0293146928463
 42
0.0
  0
VERTEX
  8
0
 10
68.8364783425882
 20
8.6534242107857
 42
0.0
  0
VERTEX
  8
0
 10
68.5947240932045
 20
8.1793698410978
 42
0.0
  0
VERTEX
  8
0
 10
68.5120070826946
 20
7.6539173010342
 42
0.0
  0
VERTEX
  8
0
 10
68.5947240932045
 20
7.1289059469825
 42
0.0
  0
VERTEX
  8
0
 10
68.6677356411479
 20
6.985079307133
 42
0.0
  0
VERTEX
  8
0
 10
68.8364783425882
 20
6.6548515772945
 42
0.0
  0
SEQEND
  0
ENDSEC
  0
EOF
