  0
SECTION
  2
HEADER
  9
$ACADVER
  1
AC1009
  9
$EXTMAX
 10
132.12727355957
 20
33.9489135742188
 30
0.0
  9
$EXTMIN
 10
1.0937248468399
 20
1.8388804197311
 30
0.0
  9
$INSUNITS
 70
     4
  9
$LUNITS
 70
     2
  9
$LUPREC
 70
     4
  9
$MEASUREMENT
 70
     1
  0
ENDSEC
  0
SECTION
  2
TABLES
  0
TABLE
  2
LAYER
 70
     1
  0
LAYER
  2
0
 70
     0
 62
     7
  6
Continuous
  0
ENDTAB
  0
TABLE
  2
APPID
 70
     1
  0
APPID
  2
ACAD
 70
     0
  0
ENDTAB
  0
ENDSEC
  0
SECTION
  2
ENTITIES
  0
POLYLINE
  8
0
 66
     1
 10
0.0
 20
0.0
 30
0.0
 70
     1
  0
VERTEX
  8
0
 10
7.8406908372101
 20
33.9489148097836
 42
0.0
  0
VERTEX
  8
0
 10
16.0482597893816
 20
31.4367718571158
 42
0.0
  0
VERTEX
  8
0
 10
18.0259296054621
 20
30.8312887508239
 42
0.0
  0
VERTEX
  8
0
 10
18.3618840941976
 20
30.7271602854202
 42
0.0
  0
VERTEX
  8
0
 10
27.7603034955073
 20
30.8873219749475
 42
0.0
  0
VERTEX
  8
0
 10
28.0528088198623
 20
30.4424881785536
 42
0.0
  0
VERTEX
  8
0
 10
29.2963485663558
 20
28.54432722238
 42
0.0
  0
VERTEX
  8
0
 10
29.4463957626324
 20
28.3151166646963
 42
0.0
  0
VERTEX
  8
0
 10
29.590474126151
 20
28.0967541105391
 42
0.0
  0
VERTEX
  8
0
 10
30.0361068954178
 20
27.4145315214128
 42
0.0
  0
VERTEX
  8
0
 10
30.0361076839828
 20
27.4145303337405
 42
0.2471626825756
  0
VERTEX
  8
0
 10
32.2293136273775
 20
26.2136627108055
 42
0.0
  0
VERTEX
  8
0
 10
33.8149717855417
 20
26.1900558153457
 42
0.0
  0
VERTEX
  8
0
 10
35.3510708448816
 20
26.1702754393484
 42
0.0
  0
VERTEX
  8
0
 10
36.8391679730124
 20
26.1539132170452
 42
0.0
  0
VERTEX
  8
0
 10
38.2808264082178
 20
26.1406007450213
 42
0.0
  0
VERTEX
  8
0
 10
38.9791543067292
 20
26.1350253540291
 42
0.0012977644774
  0
VERTEX
  8
0
 10
44.4783796250309
 20
26.109831181707
 42
0.0
  0
VERTEX
  8
0
 10
45.6813621429998
 20
26.1084744986295
 42
0.0
  0
VERTEX
  8
0
 10
46.8467692210519
 20
26.1084846061247
 42
0.0
  0
VERTEX
  8
0
 10
49.1046643979893
 20
26.1120536966307
 42
0.0
  0
VERTEX
  8
0
 10
51.2214310684947
 20
26.1194250020123
 42
0.0
  0
VERTEX
  8
0
 10
53.2058538031268
 20
26.1296455752876
 42
0.0
  0
VERTEX
  8
0
 10
54.1360875310291
 20
26.1354797686871
 42
0.00147554585
  0
VERTEX
  8
0
 10
54.5866574185423
 20
26.1385358700668
 42
0.0020845629075
  0
VERTEX
  8
0
 10
55.0301956484357
 20
26.1416878943185
 42
0.0025325535892
  0
VERTEX
  8
0
 10
55.4667969263959
 20
26.1449275644114
 42
0.0028959256567
  0
VERTEX
  8
0
 10
55.8965847622168
 20
26.1482472638321
 42
0.0032040667843
  0
VERTEX
  8
0
 10
56.31965427114
 20
26.1516395935746
 42
0.0034722739235
  0
VERTEX
  8
0
 10
56.7361250765796
 20
26.1550977592261
 42
0.0037095895488
  0
VERTEX
  8
0
 10
57.1460955403192
 20
26.1586151889348
 42
0.0039219599573
  0
VERTEX
  8
0
 10
57.5496535086705
 20
26.1621855840018
 42
0.0
  0
VERTEX
  8
0
 10
60.7274012357809
 20
26.1938473817413
 42
0.0052098276358
  0
VERTEX
  8
0
 10
61.0749954554364
 20
26.1976719079444
 42
0.0052965777881
  0
VERTEX
  8
0
 10
61.4171630106768
 20
26.2015023779266
 42
0.0053768206523
  0
VERTEX
  8
0
 10
61.7539802374199
 20
26.2053355608276
 42
0.0054511505047
  0
VERTEX
  8
0
 10
62.0855378947372
 20
26.2091685932039
 42
0.0055199265002
  0
VERTEX
  8
0
 10
62.4119175363925
 20
26.2129987039298
 42
0.0055835241692
  0
VERTEX
  8
0
 10
62.7331994926566
 20
26.2168232935778
 42
0.005642281377
  0
VERTEX
  8
0
 10
63.0494628862662
 20
26.2206399258062
 42
0.0056964157878
  0
VERTEX
  8
0
 10
63.3607761449086
 20
26.2244462022209
 42
0.0057463802391
  0
VERTEX
  8
0
 10
63.6672258243143
 20
26.2282401061859
 42
0.0057923648316
  0
VERTEX
  8
0
 10
63.9688898190026
 20
26.2320196721696
 42
0.0058345577864
  0
VERTEX
  8
0
 10
64.2658401942316
 20
26.235783008759
 42
0.0058731948086
  0
VERTEX
  8
0
 10
64.5581502665647
 20
26.2395283795926
 42
0.0059084730267
  0
VERTEX
  8
0
 10
64.8458922390394
 20
26.2432541676411
 42
0.0059405747462
  0
VERTEX
  8
0
 10
65.1291372164487
 20
26.2469588690824
 42
0.0059696692697
  0
VERTEX
  8
0
 10
65.4079552205041
 20
26.2506410874678
 42
0.0059959366944
  0
VERTEX
  8
0
 10
65.6824173030508
 20
26.2542995562623
 42
0.0060195008453
  0
VERTEX
  8
0
 10
65.952591266139
 20
26.2579330767745
 42
0.0060404750202
  0
VERTEX
  8
0
 10
66.2185418435117
 20
26.2615405140661
 42
0.0008739883583
  0
VERTEX
  8
0
 10
82.9702842746918
 20
26.5289771516564
 42
0.0
  0
VERTEX
  8
0
 10
86.8563002320998
 20
26.6310730275895
 42
0.0
  0
VERTEX
  8
0
 10
87.86364359472
 20
26.656490642278
 42
0.0
  0
VERTEX
  8
0
 10
92.6174725554471
 20
26.8205254629792
 42
0.0
  0
VERTEX
  8
0
 10
93.5815479196582
 20
26.8623300089307
 42
0.0
  0
VERTEX
  8
0
 10
97.2079581751786
 20
27.0188552068328
 42
0.0
  0
VERTEX
  8
0
 10
97.276750545709
 20
27.0212488051246
 42
0.0
  0
VERTEX
  8
0
 10
101.331294025523
 20
27.2395366415279
 42
0.0
  0
VERTEX
  8
0
 10
101.786915079133
 20
27.2636497580387
 42
0.0
  0
VERTEX
  8
0
 10
106.150757582714
 20
27.5478508634862
 42
0.0
  0
VERTEX
  8
0
 10
106.46707826919
 20
27.5726576398255
 42
0.0
  0
VERTEX
  8
0
 10
107.304540466658
 20
27.637657832586
 42
0.0
  0
VERTEX
  8
0
 10
110.365787287911
 20
27.872393026324
 42
0.0
  0
VERTEX
  8
0
 10
113.562941564928
 20
28.1601208452941
 42
0.0
  0
VERTEX
  8
0
 10
114.374174914099
 20
28.2338916738161
 42
0.0
  0
VERTEX
  8
0
 10
114.431702653025
 20
28.2386381845688
 42
0.0
  0
VERTEX
  8
0
 10
118.35002852286
 20
28.6465885637399
 42
0.0
  0
VERTEX
  8
0
 10
122.174420108944
 20
29.0954170424791
 42
0.0
  0
VERTEX
  8
0
 10
124.459808346042
 20
29.4011074391709
 42
0.0
  0
VERTEX
  8
0
 10
124.499591562311
 20
29.3680030194638
 42
0.0
  0
VERTEX
  8
0
 10
124.590565712402
 20
29.2953289561398
 42
0.0
  0
VERTEX
  8
0
 10
124.750616805894
 20
29.165738917418
 42
0.0
  0
VERTEX
  8
0
 10
125.096915335078
 20
28.8841136037292
 42
0.0
  0
VERTEX
  8
0
 10
125.099755340637
 20
28.8828399903726
 42
0.0
  0
VERTEX
  8
0
 10
126.240529519295
 20
27.9586801739472
 42
0.0
  0
VERTEX
  8
0
 10
131.953869480118
 20
23.3292204713246
 42
0.0
  0
VERTEX
  8
0
 10
131.52420017341
 20
21.6664173534872
 42
0.1435765265056
  0
VERTEX
  8
0
 10
131.564227812081
 20
20.4289298279191
 42
0.0
  0
VERTEX
  8
0
 10
132.127270816198
 20
18.7157819340158
 42
0.0
  0
VERTEX
  8
0
 10
131.746078540799
 20
18.2466127650014
 42
0.0
  0
VERTEX
  8
0
 10
131.663079391222
 20
18.1436620155331
 42
0.0
  0
VERTEX
  8
0
 10
128.132101018871
 20
13.7835272554906
 42
0.0
  0
VERTEX
  8
0
 10
127.897884486762
 20
13.4954020771329
 42
0.0
  0
VERTEX
  8
0
 10
127.371524971666
 20
12.8455156820086
 42
0.0
  0
VERTEX
  8
0
 10
126.656286569929
 20
11.9631146888101
 42
0.0
  0
VERTEX
  8
0
 10
125.992717312721
 20
11.1442708501391
 42
0.0
  0
VERTEX
  8
0
 10
125.412247346365
 20
10.4279466655842
 42
0.0
  0
VERTEX
  8
0
 10
125.410821425177
 20
10.4251013605448
 42
0.0
  0
VERTEX
  8
0
 10
125.348888193419
 20
10.3497501550873
 42
0.0
  0
VERTEX
  8
0
 10
125.327713301861
 20
10.3228355528143
 42
0.0
  0
VERTEX
  8
0
 10
125.138224485797
 20
10.3342872914804
 42
0.0
  0
VERTEX
  8
0
 10
124.88691851101
 20
10.3474004366898
 42
0.0
  0
VERTEX
  8
0
 10
122.489291406994
 20
10.5867513334883
 42
0.0
  0
VERTEX
  8
0
 10
118.651667266516
 20
10.9053624452676
 42
0.0
  0
VERTEX
  8
0
 10
114.721804669202
 20
11.1795912625984
 42
0.0
  0
VERTEX
  8
0
 10
113.922592570729
 20
11.2246808633013
 42
0.0
  0
VERTEX
  8
0
 10
112.523636526606
 20
11.2987577478349
 42
0.0
  0
VERTEX
  8
0
 10
110.425011606912
 20
11.4039461926345
 42
0.0
  0
VERTEX
  8
0
 10
108.326139732532
 20
11.5047084845242
 42
0.1469353456348
  0
VERTEX
  8
0
 10
107.678426150406
 20
11.3445157600055
 42
0.1031908531535
  0
VERTEX
  8
0
 10
107.317991414166
 20
11.005500362253
 42
0.108276587521
  0
VERTEX
  8
0
 10
107.038168419365
 20
10.3252075702929
 42
0.099421866383
  0
VERTEX
  8
0
 10
107.046132582042
 20
9.5896023076704
 42
0.0
  0
VERTEX
  8
0
 10
107.133990471874
 20
9.2229540322111
 42
-0.01387237016
  0
VERTEX
  8
0
 10
107.38712899745
 20
8.1206648027477
 42
-0.1050971119481
  0
VERTEX
  8
0
 10
107.359246469933
 20
5.7031483618553
 42
-0.1093893879196
  0
VERTEX
  8
0
 10
106.334492052515
 20
3.5133129181287
 42
-0.0506187507385
  0
VERTEX
  8
0
 10
105.659530928652
 20
2.7880516585881
 42
-0.0557338337902
  0
VERTEX
  8
0
 10
104.952060332309
 20
2.2919537658271
 42
-0.1024400535923
  0
VERTEX
  8
0
 10
103.520891033382
 20
1.8584304018148
 42
-0.0590421079625
  0
VERTEX
  8
0
 10
102.406955289747
 20
1.8884772254173
 42
-0.0141726425628
  0
VERTEX
  8
0
 10
102.303655614663
 20
1.903678914488
 42
-0.030887483196
  0
VERTEX
  8
0
 10
101.514479968204
 20
2.0777440498531
 42
-0.0302766315505
  0
VERTEX
  8
0
 10
100.372867033836
 20
2.4824599582699
 42
-0.0197354621676
  0
VERTEX
  8
0
 10
99.2789364987224
 20
3.0023933780266
 42
0.0
  0
VERTEX
  8
0
 10
96.8711794385725
 20
4.2665222213482
 42
0.0027579994944
  0
VERTEX
  8
0
 10
94.7573620382962
 20
5.3629999965858
 42
0.0
  0
VERTEX
  8
0
 10
94.2928959964406
 20
5.5995391007835
 42
0.0031469760274
  0
VERTEX
  8
0
 10
93.8419930666609
 20
5.8269983838966
 42
0.0252382042569
  0
VERTEX
  8
0
 10
93.7872755887941
 20
5.8544401217242
 42
0.0251208630268
  0
VERTEX
  8
0
 10
93.7327582815556
 20
5.8817449960667
 42
0.0040317372468
  0
VERTEX
  8
0
 10
93.2981299408061
 20
6.0980591591317
 42
0.0025430394979
  0
VERTEX
  8
0
 10
92.4529517601068
 20
6.5109040990589
 42
0.0
  0
VERTEX
  8
0
 10
92.0550884754913
 20
6.7011988033526
 42
0.0
  0
VERTEX
  8
0
 10
91.6684953947576
 20
6.8833323772219
 42
0.0040217251461
  0
VERTEX
  8
0
 10
90.916306777695
 20
7.2291313688545
 42
0.0069777543618
  0
VERTEX
  8
0
 10
89.4926696988412
 20
7.8483215265132
 42
0.0158590792731
  0
VERTEX
  8
0
 10
86.9542481657033
 20
8.8164972577541
 42
0.0288979778225
  0
VERTEX
  8
0
 10
83.033102071945
 20
9.9226754217906
 42
0.0
  0
VERTEX
  8
0
 10
82.5347988031146
 20
10.0290637162474
 42
0.0232649759989
  0
VERTEX
  8
0
 10
79.0124614080043
 20
10.5810332228748
 42
0.0114912541159
  0
VERTEX
  8
0
 10
78.93409081088
 20
10.5896779879294
 42
0.0114513535157
  0
VERTEX
  8
0
 10
78.8558730235377
 20
10.5982612832716
 42
0.0114116667071
  0
VERTEX
  8
0
 10
78.777805282462
 20
10.6067837185311
 42
0.0083860160391
  0
VERTEX
  8
0
 10
73.7845024662539
 20
11.0620946518824
 42
0.0
  0
VERTEX
  8
0
 10
72.6905058708533
 20
11.1390426582638
 42
0.0114705257118
  0
VERTEX
  8
0
 10
72.5579846135905
 20
11.1478286092881
 42
0.0041799597287
  0
VERTEX
  8
0
 10
70.4451902261638
 20
11.2726550381227
 42
0.0062199166095
  0
VERTEX
  8
0
 10
66.4803075927808
 20
11.4331993788886
 42
0.0086537495582
  0
VERTEX
  8
0
 10
59.5371310560565
 20
11.5100571608188
 42
0.0
  0
VERTEX
  8
0
 10
58.2353308007853
 20
11.4994748452598
 42
0.0
  0
VERTEX
  8
0
 10
57.6251037435774
 20
11.4921270161462
 42
0.0
  0
VERTEX
  8
0
 10
57.3295085415544
 20
11.4880392304846
 42
0.0
  0
VERTEX
  8
0
 10
56.1657953022987
 20
11.4687103259765
 42
0.0
  0
VERTEX
  8
0
 10
55.893025347853
 20
11.4634555535677
 42
0.0
  0
VERTEX
  8
0
 10
55.6245237502942
 20
11.458022643877
 42
0.0
  0
VERTEX
  8
0
 10
55.3602317826872
 20
11.4524264191644
 42
0.0029940429509
  0
VERTEX
  8
0
 10
51.1988013604416
 20
11.3346960993904
 42
0.0
  0
VERTEX
  8
0
 10
50.8086952746495
 20
11.3210903579218
 42
0.0
  0
VERTEX
  8
0
 10
49.2973910474316
 20
11.2648031935707
 42
0.0
  0
VERTEX
  8
0
 10
47.9751055126146
 20
11.2112911026572
 42
0.0
  0
VERTEX
  8
0
 10
46.81820624871
 20
11.1615833232314
 42
0.0
  0
VERTEX
  8
0
 10
44.794026533709
 20
11.0690660168645
 42
0.0
  0
VERTEX
  8
0
 10
43.2760396074999
 20
10.9958590634667
 42
0.0
  0
VERTEX
  8
0
 10
42.1376408936495
 20
10.9392489996444
 42
0.0
  0
VERTEX
  8
0
 10
41.2838585572323
 20
10.8960135679692
 42
0.0
  0
VERTEX
  8
0
 10
40.643534523007
 20
10.8632253319762
 42
0.0
  0
VERTEX
  8
0
 10
40.403408963288
 20
10.8508603486683
 42
0.0
  0
VERTEX
  8
0
 10
38.7228062456631
 20
10.7635044871968
 42
0.0
  0
VERTEX
  8
0
 10
33.0215299911026
 20
10.3812127095036
 42
0.2538196168929
  0
VERTEX
  8
0
 10
29.8548409557464
 20
8.5342127653477
 42
0.0
  0
VERTEX
  8
0
 10
29.8548398734879
 20
8.5342109827302
 42
0.0
  0
VERTEX
  8
0
 10
29.7231071632403
 20
8.3174090592734
 42
0.0
  0
VERTEX
  8
0
 10
28.3980367724603
 20
6.1381917912005
 42
0.0
  0
VERTEX
  8
0
 10
28.1867413038797
 20
5.7902738967006
 42
0.0
  0
VERTEX
  8
0
 10
19.503512152396
 20
5.6439412304636
 42
0.0
  0
VERTEX
  8
0
 10
19.1604055881381
 20
5.6373402262154
 42
0.0
  0
VERTEX
  8
0
 10
8.3852047635012
 20
1.9325002912909
 42
0.0
  0
VERTEX
  8
0
 10
5.767071214462
 20
5.4099757648086
 42
0.0
  0
VERTEX
  8
0
 10
3.9078822454769
 20
7.8797069245472
 42
0.0
  0
VERTEX
  8
0
 10
3.5435990454166
 20
8.3633940515633
 42
0.0
  0
VERTEX
  8
0
 10
2.9537034336269
 20
9.1480278547447
 42
0.0
  0
VERTEX
  8
0
 10
1.3143289274678
 20
11.3247943507771
 42
0.0
  0
VERTEX
  8
0
 10
2.6319303053743
 20
13.204587409258
 42
0.0
  0
VERTEX
  8
0
 10
2.95372182187
 20
13.6652802408812
 42
0.0
  0
VERTEX
  8
0
 10
4.4855194445072
 20
15.8489202106911
 42
0.0
  0
VERTEX
  8
0
 10
5.0464572450113
 20
16.6488929827508
 42
0.0
  0
VERTEX
  8
0
 10
4.2033607837949
 20
17.9349811790636
 42
0.0
  0
VERTEX
  8
0
 10
4.9623762704759
 20
19.1844546525354
 42
0.0
  0
VERTEX
  8
0
 10
1.0937248029468
 20
24.3226720404087
 42
0.0
  0
VERTEX
  8
0
 10
2.5637041063755
 20
26.4200616090491
 42
0.0
  0
VERTEX
  8
0
 10
3.584436842011
 20
27.8758138576141
 42
0.0
  0
VERTEX
  8
0
 10
5.346023407638
 20
30.3900973573384
 42
0.0
  0
VERTEX
  8
0
 10
5.8307650716125
 20
31.0812589170252
 42
0.0
  0
SEQEND
  0
POLYLINE
  8
0
 66
     1
 10
0.0
 20
0.0
 30
0.0
 70
     1
  0
VERTEX
  8
0
 10
104.302978643061
 20
5.0977717299923
 42
0.0
  0
VERTEX
  8
0
 10
104.486293710158
 20
5.3292695807904
 42
0.002483123754
  0
VERTEX
  8
0
 10
104.621340930993
 20
5.5049068757737
 42
0.0228945986167
  0
VERTEX
  8
0
 10
104.809215096852
 20
5.7790653036883
 42
0.035023403844
  0
VERTEX
  8
0
 10
104.966423116877
 20
6.0719842562699
 42
0.1131788331885
  0
VERTEX
  8
0
 10
105.099538680084
 20
6.7441806358529
 42
0.1397129611754
  0
VERTEX
  8
0
 10
104.788252988613
 20
7.7135942172777
 42
0.0718333464778
  0
VERTEX
  8
0
 10
104.446806749307
 20
8.0992066603151
 42
0.0806650733699
  0
VERTEX
  8
0
 10
104.005480540838
 20
8.3648062671238
 42
0.0989649131397
  0
VERTEX
  8
0
 10
103.312676181752
 20
8.4945633799736
 42
0.0729054352867
  0
VERTEX
  8
0
 10
102.793224967923
 20
8.4109904401148
 42
0.0801222582099
  0
VERTEX
  8
0
 10
102.092147978005
 20
8.0577087887158
 42
0.0527286686612
  0
VERTEX
  8
0
 10
101.505536236043
 20
7.5359162933727
 42
0.0
  0
VERTEX
  8
0
 10
101.428694644772
 20
7.4517199891139
 42
0.0195051521614
  0
VERTEX
  8
0
 10
101.151402352765
 20
7.1262236778435
 42
0.0171768535562
  0
VERTEX
  8
0
 10
100.963253697854
 20
6.8653714364935
 42
0.0520633442286
  0
VERTEX
  8
0
 10
100.739868533035
 20
6.4374730648989
 42
0.0685513875769
  0
VERTEX
  8
0
 10
100.627866853101
 20
5.9680226223396
 42
0.1316680513885
  0
VERTEX
  8
0
 10
100.748735732094
 20
5.0648642812592
 42
0.1842882358961
  0
VERTEX
  8
0
 10
101.681329634772
 20
4.0869941688861
 42
0.1003195707364
  0
VERTEX
  8
0
 10
102.351206882801
 20
3.9193848847838
 42
0.1060030446738
  0
VERTEX
  8
0
 10
103.031762168283
 20
4.0363972091859
 42
0.0603378389246
  0
VERTEX
  8
0
 10
103.397130594325
 20
4.2389228236982
 42
0.0440979153025
  0
VERTEX
  8
0
 10
103.866837004677
 20
4.6506439657182
 42
0.0
  0
VERTEX
  8
0
 10
104.083381659363
 20
4.87569492694
 42
0.0
  0
VERTEX
  8
0
 10
104.191785129301
 20
4.9880630513454
 42
-0.0140627125487
  0
VERTEX
  8
0
 10
104.21925780983
 20
5.0158763025637
 42
0.0
  0
VERTEX
  8
0
 10
104.26082846302
 20
5.0571564194774
 42
0.0
  0
SEQEND
  0
POLYLINE
  8
0
 66
     1
 10
0.0
 20
0.0
 30
0.0
 70
     1
  0
VERTEX
  8
0
 10
9.7211469779489
 20
26.6925966083924
 42
0.0
  0
VERTEX
  8
0
 10
9.6970165702347
 20
26.6724667357858
 42
0.0
  0
VERTEX
  8
0
 10
9.3163742527695
 20
26.2786527035271
 42
0.0
  0
VERTEX
  8
0
 10
9.1834220084772
 20
26.0961699281726
 42
0.0
  0
VERTEX
  8
0
 10
9.0972538760251
 20
25.8780560505824
 42
0.0
  0
VERTEX
  8
0
 10
9.0591657794478
 20
25.6257794225864
 42
0.0
  0
VERTEX
  8
0
 10
9.07153912461
 20
25.3490553295899
 42
0.0
  0
VERTEX
  8
0
 10
9.1328136672302
 20
25.0547424644612
 42
0.0
  0
VERTEX
  8
0
 10
9.2001159406921
 20
24.8640290595064
 42
0.0
  0
VERTEX
  8
0
 10
9.2414256648457
 20
24.7468782922008
 42
0.0
  0
VERTEX
  8
0
 10
9.3956678300183
 20
24.4350866647881
 42
0.0
  0
VERTEX
  8
0
 10
9.5925351847812
 20
24.1275738516496
 42
0.0
  0
VERTEX
  8
0
 10
9.8248347448305
 20
23.8309263109924
 42
0.0
  0
VERTEX
  8
0
 10
10.0881916449632
 20
23.5532772322879
 42
0.0
  0
VERTEX
  8
0
 10
10.5575998102994
 20
23.1007981410341
 42
0.0
  0
VERTEX
  8
0
 10
10.7273778247443
 20
22.937083303267
 42
0.0
  0
VERTEX
  8
0
 10
10.7644877395484
 20
22.9011918379912
 42
0.0
  0
VERTEX
  8
0
 10
10.9294567904883
 20
22.7566253563428
 42
0.0
  0
VERTEX
  8
0
 10
11.0518087675212
 20
22.6491819817103
 42
0.0
  0
VERTEX
  8
0
 10
11.3573167550885
 20
22.4281508848091
 42
0.0
  0
VERTEX
  8
0
 10
11.6711769490408
 20
22.2446439171248
 42
0.0
  0
VERTEX
  8
0
 10
11.9891807640503
 20
22.1012849183122
 42
0.0
  0
VERTEX
  8
0
 10
12.3000688331868
 20
22.0031972594232
 42
0.0
  0
VERTEX
  8
0
 10
12.5969190645342
 20
21.9528341188106
 42
0.0
  0
VERTEX
  8
0
 10
12.8741450711137
 20
21.9500519514984
 42
0.0
  0
VERTEX
  8
0
 10
13.0056546907018
 20
21.9753158788469
 42
0.0
  0
VERTEX
  8
0
 10
13.1248243019834
 20
21.9987780113705
 42
0.0
  0
VERTEX
  8
0
 10
13.3394024869379
 20
22.0931138958836
 42
0.0
  0
VERTEX
  8
0
 10
13.5165333568862
 20
22.2330381776071
 42
0.0
  0
VERTEX
  8
0
 10
13.8957580917987
 20
22.6281499003934
 42
0.0
  0
VERTEX
  8
0
 10
14.0301025340051
 20
22.8093341019735
 42
0.0
  0
VERTEX
  8
0
 10
14.1162229711408
 20
23.0288187500465
 42
0.0
  0
VERTEX
  8
0
 10
14.1530365711151
 20
23.2782807571216
 42
0.0
  0
VERTEX
  8
0
 10
14.1420331131891
 20
23.5550779300732
 42
0.0
  0
VERTEX
  8
0
 10
14.0806876813276
 20
23.852158604053
 42
0.0
  0
VERTEX
  8
0
 10
13.9720988776367
 20
24.1586257379454
 42
0.0
  0
VERTEX
  8
0
 10
13.8164868252281
 20
24.470344285403
 42
0.0
  0
VERTEX
  8
0
 10
13.6210410102248
 20
24.7779065603514
 42
0.0
  0
VERTEX
  8
0
 10
13.4377767346531
 20
25.0114764807757
 42
0.0
  0
VERTEX
  8
0
 10
13.3886897976522
 20
25.0745777191537
 42
0.0
  0
VERTEX
  8
0
 10
13.1239621270364
 20
25.3521791025417
 42
0.0
  0
VERTEX
  8
0
 10
12.449083615004
 20
26.0029668063104
 42
0.0
  0
VERTEX
  8
0
 10
12.1603948905092
 20
26.2563015042509
 42
0.0
  0
VERTEX
  8
0
 10
11.8562086706406
 20
26.4773277606984
 42
0.0
  0
VERTEX
  8
0
 10
11.5409037430036
 20
26.6621823049412
 42
0.0
  0
VERTEX
  8
0
 10
11.3433575705782
 20
26.7518109410932
 42
0.0
  0
VERTEX
  8
0
 10
11.2242960831155
 20
26.8055898823169
 42
0.0
  0
VERTEX
  8
0
 10
10.9120840555661
 20
26.902284460045
 42
0.0
  0
VERTEX
  8
0
 10
10.7844541958137
 20
26.9240214707363
 42
0.0
  0
VERTEX
  8
0
 10
10.615260092104
 20
26.9526230992658
 42
0.0
  0
VERTEX
  8
0
 10
10.4911152374433
 20
26.9538186726777
 42
0.0
  0
VERTEX
  8
0
 10
10.3380318948105
 20
26.9540073449631
 42
0.0
  0
VERTEX
  8
0
 10
10.0887041977061
 20
26.9080731711133
 42
0.0
  0
VERTEX
  8
0
 10
9.8727775529467
 20
26.8123179375539
 42
0.0
  0
SEQEND
  0
POLYLINE
  8
0
 66
     1
 10
0.0
 20
0.0
 30
0.0
 70
     1
  0
VERTEX
  8
0
 10
23.3783375997653
 20
25.9157801627955
 42
0.0
  0
VERTEX
  8
0
 10
23.124284822337
 20
25.6477291494598
 42
0.0
  0
VERTEX
  8
0
 10
22.8316922385868
 20
25.3383333681064
 42
0.0
  0
VERTEX
  8
0
 10
22.7385650626437
 20
25.2413357490651
 42
0.0
  0
VERTEX
  8
0
 10
22.4907405977664
 20
24.9527879198058
 42
0.0
  0
VERTEX
  8
0
 10
22.2738248862742
 20
24.6487955551642
 42
0.0
  0
VERTEX
  8
0
 10
22.0917372676359
 20
24.3335869014069
 42
0.0
  0
VERTEX
  8
0
 10
21.952442001709
 20
24.0171223274683
 42
0.0
  0
VERTEX
  8
0
 10
21.8557483072277
 20
23.7048849152805
 42
0.0
  0
VERTEX
  8
0
 10
21.806829017053
 20
23.4067124920132
 42
0.0
  0
VERTEX
  8
0
 10
21.8066394615207
 20
23.2536545340187
 42
0.0
  0
VERTEX
  8
0
 10
21.8053953095456
 20
23.1309058344797
 42
0.0
  0
VERTEX
  8
0
 10
21.8527020203718
 20
22.8815750634149
 42
0.0
  0
VERTEX
  8
0
 10
21.9457148297185
 20
22.6655784126609
 42
0.0
  0
VERTEX
  8
0
 10
22.0841952610038
 20
22.4897697346324
 42
0.0
  0
VERTEX
  8
0
 10
22.2983698335023
 20
22.277963435272
 42
0.0
  0
VERTEX
  8
0
 10
22.471080170179
 20
22.1088609062062
 42
0.0
  0
VERTEX
  8
0
 10
22.6494488675915
 20
21.9758163452417
 42
0.0
  0
VERTEX
  8
0
 10
22.8648212042158
 20
21.8895528221565
 42
0.0
  0
VERTEX
  8
0
 10
23.1116379442048
 20
21.8498769059448
 42
0.0
  0
VERTEX
  8
0
 10
23.2561579562708
 20
21.8576756874417
 42
0.0
  0
VERTEX
  8
0
 10
23.3827796074295
 20
21.8634538584691
 42
0.0
  0
VERTEX
  8
0
 10
23.6743771994774
 20
21.9246085090647
 42
0.0
  0
VERTEX
  8
0
 10
23.9753630179316
 20
22.0329557622124
 42
0.0
  0
VERTEX
  8
0
 10
24.282990681372
 20
22.1870784595806
 42
0.0
  0
VERTEX
  8
0
 10
24.5432349609937
 20
22.3560724652862
 42
0.0
  0
VERTEX
  8
0
 10
24.5836505253425
 20
22.3836819531225
 42
0.0
  0
VERTEX
  8
0
 10
24.8761594866657
 20
22.6158629286142
 42
0.0
  0
VERTEX
  8
0
 10
25.1483499848304
 20
22.8790553153657
 42
0.0
  0
VERTEX
  8
0
 10
25.2653143654209
 20
23.0016877405974
 42
0.0
  0
VERTEX
  8
0
 10
25.7879684476275
 20
23.5535451988937
 42
0.0
  0
VERTEX
  8
0
 10
26.0371654494811
 20
23.8420899541923
 42
0.0
  0
VERTEX
  8
0
 10
26.252737082596
 20
24.147458813017
 42
0.0
  0
VERTEX
  8
0
 10
26.4349748183517
 20
24.4612748446396
 42
0.0
  0
VERTEX
  8
0
 10
26.5741208504079
 20
24.7791066560747
 42
0.0
  0
VERTEX
  8
0
 10
26.6708114709288
 20
25.0899715312865
 42
0.0
  0
VERTEX
  8
0
 10
26.719703185751
 20
25.3867451496922
 42
0.0
  0
VERTEX
  8
0
 10
26.7194765591077
 20
25.4736070014584
 42
0.0
  0
VERTEX
  8
0
 10
26.7212406225265
 20
25.6639532618269
 42
0.0
  0
VERTEX
  8
0
 10
26.6752040268757
 20
25.9133028105832
 42
0.0
  0
VERTEX
  8
0
 10
26.5822927560831
 20
26.1293029943236
 42
0.0
  0
VERTEX
  8
0
 10
26.443713860204
 20
26.3064806763417
 42
0.0
  0
VERTEX
  8
0
 10
26.0553789526698
 20
26.6859666227356
 42
0.0
  0
VERTEX
  8
0
 10
25.8771148677723
 20
26.8203872536627
 42
0.0
  0
VERTEX
  8
0
 10
25.6616401093467
 20
26.9066726284001
 42
0.0
  0
VERTEX
  8
0
 10
25.415096452461
 20
26.9436131863722
 42
0.0
  0
VERTEX
  8
0
 10
25.143782361441
 20
26.9328005097122
 42
0.0
  0
VERTEX
  8
0
 10
25.1286478521772
 20
26.9295036361465
 42
0.0
  0
VERTEX
  8
0
 10
24.8521103819702
 20
26.8715924400998
 42
0.0
  0
VERTEX
  8
0
 10
24.5512484127487
 20
26.7618770662089
 42
0.0
  0
VERTEX
  8
0
 10
24.244991519791
 20
26.6078020641574
 42
0.0
  0
VERTEX
  8
0
 10
23.9429132100209
 20
26.4125216457818
 42
0.0
  0
VERTEX
  8
0
 10
23.6517973298587
 20
26.1790167118774
 42
0.0
  0
SEQEND
  0
POLYLINE
  8
0
 66
     1
 10
0.0
 20
0.0
 30
0.0
 70
     1
  0
VERTEX
  8
0
 10
21.9827792027169
 20
18.9839012632001
 42
0.0
  0
VERTEX
  8
0
 10
21.9458474177261
 20
19.09429137801
 42
0.0
  0
VERTEX
  8
0
 10
21.8069903244134
 20
19.5183188761188
 42
0.0
  0
VERTEX
  8
0
 10
21.5605028911915
 20
20.0240479033664
 42
0.0
  0
VERTEX
  8
0
 10
21.2450692360658
 20
20.4901698763959
 42
0.0
  0
VERTEX
  8
0
 10
20.8692535728497
 20
20.9086719567872
 42
0.0
  0
VERTEX
  8
0
 10
20.4375506587711
 20
21.2687056819872
 42
0.0
  0
VERTEX
  8
0
 10
19.9597506256833
 20
21.5664689896184
 42
0.0
  0
VERTEX
  8
0
 10
19.4457875746357
 20
21.7940221212144
 42
0.0
  0
VERTEX
  8
0
 10
19.1574820974328
 20
21.8763755398356
 42
0.0
  0
VERTEX
  8
0
 10
18.9054030589194
 20
21.9489591695186
 42
0.0
  0
VERTEX
  8
0
 10
18.3483841364265
 20
22.0261055351765
 42
0.0
  0
VERTEX
  8
0
 10
17.7858247774604
 20
22.0258218123142
 42
0.0
  0
VERTEX
  8
0
 10
17.2301818083922
 20
21.9458219857001
 42
0.0
  0
VERTEX
  8
0
 10
16.6881659956862
 20
21.7904568433651
 42
0.0
  0
VERTEX
  8
0
 10
16.1749096578927
 20
21.5616253372606
 42
0.0
  0
VERTEX
  8
0
 10
15.6985656454209
 20
21.2624068327754
 42
0.0
  0
VERTEX
  8
0
 10
15.268567912231
 20
20.8999663146399
 42
0.0
  0
VERTEX
  8
0
 10
15.098621910904
 20
20.7120536534196
 42
0.0
  0
VERTEX
  8
0
 10
14.8929017213915
 20
20.4814691918075
 42
0.0
  0
VERTEX
  8
0
 10
14.5795518769443
 20
20.0155549487598
 42
0.0
  0
VERTEX
  8
0
 10
14.3324447495262
 20
19.5091715210772
 42
0.0
  0
VERTEX
  8
0
 10
14.1593721711994
 20
18.9750435535593
 42
0.0
  0
VERTEX
  8
0
 10
14.0628617077393
 20
18.4201465571388
 42
0.0
  0
VERTEX
  8
0
 10
14.0438054099704
 20
17.8582867012376
 42
0.0
  0
VERTEX
  8
0
 10
14.103239297913
 20
17.2991324591926
 42
0.0
  0
VERTEX
  8
0
 10
14.2183952413599
 20
16.8426381541309
 42
0.0
  0
VERTEX
  8
0
 10
14.2408027774406
 20
16.7537778013049
 42
0.0
  0
VERTEX
  8
0
 10
14.451977473181
 20
16.2330195376037
 42
0.0
  0
VERTEX
  8
0
 10
14.7336354411819
 20
15.7464066736199
 42
0.0
  0
VERTEX
  8
0
 10
14.7927732972971
 20
15.671277866719
 42
0.0
  0
VERTEX
  8
0
 10
15.0799824671948
 20
15.30342085863
 42
0.0
  0
VERTEX
  8
0
 10
15.293988993326
 20
15.0971746783638
 42
0.0
  0
VERTEX
  8
0
 10
15.485123681664
 20
14.9135148242862
 42
0.0
  0
VERTEX
  8
0
 10
15.9406467543865
 20
14.5832580175969
 42
0.0
  0
VERTEX
  8
0
 10
16.4365619745815
 20
14.3192666628348
 42
0.0
  0
VERTEX
  8
0
 10
16.6110914567711
 20
14.2563874335977
 42
0.0
  0
VERTEX
  8
0
 10
16.8736087006315
 20
14.1621064545893
 42
0.0
  0
VERTEX
  8
0
 10
16.9657805462386
 20
14.1280545972782
 42
0.0
  0
VERTEX
  8
0
 10
17.0727473101933
 20
14.1055986238524
 42
0.0
  0
VERTEX
  8
0
 10
17.5158648448989
 20
14.0120864118759
 42
0.0
  0
VERTEX
  8
0
 10
18.0770251977342
 20
13.9736900934752
 42
0.0
  0
VERTEX
  8
0
 10
18.6382214776803
 20
14.0138793514196
 42
0.0
  0
VERTEX
  8
0
 10
19.1884319111425
 20
14.1309490889841
 42
0.0
  0
VERTEX
  8
0
 10
19.3341378373952
 20
14.1842826474047
 42
0.0
  0
VERTEX
  8
0
 10
19.4239611302871
 20
14.217728544057
 42
0.0
  0
VERTEX
  8
0
 10
19.5247549684706
 20
14.254351846471
 42
0.0
  0
VERTEX
  8
0
 10
19.7153222135153
 20
14.3243938944053
 42
0.0
  0
VERTEX
  8
0
 10
19.7979551370374
 20
14.3672728617707
 42
0.0
  0
VERTEX
  8
0
 10
20.2121776611255
 20
14.5885158273134
 42
0.0
  0
VERTEX
  8
0
 10
20.6667562860401
 20
14.9186953980032
 42
0.0
  0
VERTEX
  8
0
 10
21.070924898787
 20
15.3105577412708
 42
0.0
  0
VERTEX
  8
0
 10
21.2676048045677
 20
15.562837361494
 42
0.0
  0
VERTEX
  8
0
 10
21.4167205469765
 20
15.755565794436
 42
0.0
  0
VERTEX
  8
0
 10
21.6975965533029
 20
16.2424614980354
 42
0.0
  0
VERTEX
  8
0
 10
21.9069410749214
 20
16.7640509845177
 42
0.0
  0
VERTEX
  8
0
 10
21.9940908055949
 20
17.113189837068
 42
0.0
  0
VERTEX
  8
0
 10
22.0121191767784
 20
17.1896311766633
 42
0.0
  0
VERTEX
  8
0
 10
22.0424204012832
 20
17.3092481979944
 42
0.0
  0
VERTEX
  8
0
 10
22.1015743228678
 20
17.8684113572368
 42
0.0
  0
VERTEX
  8
0
 10
22.0806528888465
 20
18.4302526367157
 42
0.0
  0
SEQEND
  0
POLYLINE
  8
0
 66
     1
 10
0.0
 20
0.0
 30
0.0
 70
     1
  0
VERTEX
  8
0
 10
110.341868294709
 20
20.8682791271257
 42
0.0
  0
VERTEX
  8
0
 10
110.230247562623
 20
20.6285915264908
 42
0.0
  0
VERTEX
  8
0
 10
110.208570980433
 20
20.5795735109683
 42
0.0
  0
VERTEX
  8
0
 10
110.16220998708
 20
20.4511122866503
 42
0.0
  0
VERTEX
  8
0
 10
110.101849984983
 20
20.2794153198267
 42
0.0
  0
VERTEX
  8
0
 10
110.074047867655
 20
20.165400389205
 42
0.0
  0
VERTEX
  8
0
 10
110.027195421456
 20
19.9707150242802
 42
0.0
  0
VERTEX
  8
0
 10
109.98298793766
 20
19.6561865551372
 42
0.0
  0
VERTEX
  8
0
 10
109.969133026209
 20
19.3385460687249
 42
0.0
  0
VERTEX
  8
0
 10
109.98705572504
 20
19.0206642547211
 42
0.0
  0
VERTEX
  8
0
 10
110.036663293266
 20
18.7052065001756
 42
0.0
  0
VERTEX
  8
0
 10
110.114967339894
 20
18.3977110377254
 42
0.0
  0
VERTEX
  8
0
 10
110.215317694426
 20
18.1213032034997
 42
0.0
  0
VERTEX
  8
0
 10
110.224715129591
 20
18.0995696410639
 42
0.0
  0
VERTEX
  8
0
 10
110.245588466324
 20
18.0548024054374
 42
0.0
  0
VERTEX
  8
0
 10
110.262065510423
 20
18.0195146283731
 42
0.0
  0
VERTEX
  8
0
 10
110.325558703461
 20
17.889335178168
 42
0.0
  0
VERTEX
  8
0
 10
110.343448065438
 20
17.8499792519853
 42
0.0
  0
VERTEX
  8
0
 10
110.362813693659
 20
17.8120217064428
 42
0.0
  0
VERTEX
  8
0
 10
110.526783217128
 20
17.5405977467931
 42
0.0
  0
VERTEX
  8
0
 10
110.623529403449
 20
17.4116007342749
 42
0.0
  0
VERTEX
  8
0
 10
110.717594039963
 20
17.2866277085454
 42
0.0
  0
VERTEX
  8
0
 10
110.92946899392
 20
17.0554511286562
 42
0.0
  0
VERTEX
  8
0
 10
110.932405273358
 20
17.0514105896952
 42
0.0
  0
VERTEX
  8
0
 10
111.170262830398
 20
16.8404537440533
 42
0.0
  0
VERTEX
  8
0
 10
111.427662323492
 20
16.6522119773348
 42
0.0
  0
VERTEX
  8
0
 10
111.595034868023
 20
16.5532480530856
 42
0.0
  0
VERTEX
  8
0
 10
111.616328991309
 20
16.5402138411934
 42
0.0
  0
VERTEX
  8
0
 10
111.700650321164
 20
16.4907412679141
 42
0.0
  0
VERTEX
  8
0
 10
111.989481553046
 20
16.356025063619
 42
0.0
  0
VERTEX
  8
0
 10
112.28974523995
 20
16.2506547534931
 42
0.0
  0
VERTEX
  8
0
 10
112.598347529927
 20
16.1758951184259
 42
0.0
  0
VERTEX
  8
0
 10
112.716137371797
 20
16.1579330189814
 42
0.0
  0
VERTEX
  8
0
 10
112.913051500827
 20
16.1302958957417
 42
0.0
  0
VERTEX
  8
0
 10
113.231935375504
 20
16.1179583389026
 42
0.0
  0
VERTEX
  8
0
 10
113.549813232299
 20
16.1345338853977
 42
0.0
  0
VERTEX
  8
0
 10
113.862479559849
 20
16.1840189118575
 42
0.0
  0
VERTEX
  8
0
 10
113.929269249161
 20
16.200143374098
 42
0.0
  0
VERTEX
  8
0
 10
113.978640694983
 20
16.2128660859396
 42
0.0
  0
VERTEX
  8
0
 10
114.171553710345
 20
16.263699487474
 42
0.0
  0
VERTEX
  8
0
 10
114.470989299353
 20
16.3720436318556
 42
0.0
  0
VERTEX
  8
0
 10
114.756932702264
 20
16.5102388592196
 42
0.0
  0
VERTEX
  8
0
 10
115.000355159367
 20
16.6579594457255
 42
0.0
  0
VERTEX
  8
0
 10
115.028717770554
 20
16.6755171312014
 42
0.0
  0
VERTEX
  8
0
 10
115.28385461893
 20
16.8663939680185
 42
0.0
  0
VERTEX
  8
0
 10
115.517567861378
 20
17.0813307823346
 42
0.0
  0
VERTEX
  8
0
 10
115.729951122039
 20
17.3176368024608
 42
0.0
  0
VERTEX
  8
0
 10
115.836707949743
 20
17.4633724478514
 42
0.0
  0
VERTEX
  8
0
 10
115.918214740409
 20
17.5751387173548
 42
0.0
  0
VERTEX
  8
0
 10
115.929934250576
 20
17.5962346039882
 42
0.0
  0
VERTEX
  8
0
 10
116.079709492195
 20
17.8496270584424
 42
0.0
  0
VERTEX
  8
0
 10
116.21330923142
 20
18.1369453519444
 42
0.0
  0
VERTEX
  8
0
 10
116.280977081246
 20
18.332354979083
 42
0.0
  0
VERTEX
  8
0
 10
116.318507148556
 20
18.4370505482899
 42
0.0
  0
VERTEX
  8
0
 10
116.394636211833
 20
18.7471999937541
 42
0.0
  0
VERTEX
  8
0
 10
116.438842812382
 20
19.0617538475357
 42
0.0
  0
VERTEX
  8
0
 10
116.452444760696
 20
19.3793601168432
 42
0.0
  0
VERTEX
  8
0
 10
116.434775908249
 20
19.6972507633129
 42
0.0
  0
VERTEX
  8
0
 10
116.384963072202
 20
20.0113035302711
 42
0.0
  0
VERTEX
  8
0
 10
116.306864293396
 20
20.3202039803089
 42
0.0
  0
VERTEX
  8
0
 10
116.283892001564
 20
20.3814690054882
 42
0.0
  0
VERTEX
  8
0
 10
116.217056242212
 20
20.5638878163563
 42
0.0
  0
VERTEX
  8
0
 10
116.197116503699
 20
20.6183453769705
 42
0.0
  0
VERTEX
  8
0
 10
116.059066518194
 20
20.9044971564699
 42
0.0
  0
VERTEX
  8
0
 10
116.048495241734
 20
20.9234450156097
 42
0.0
  0
VERTEX
  8
0
 10
115.895048416163
 20
21.1773172712412
 42
0.0
  0
VERTEX
  8
0
 10
115.703983746942
 20
21.4312784770227
 42
0.0
  0
VERTEX
  8
0
 10
115.487951860181
 20
21.6650552784214
 42
0.0
  0
VERTEX
  8
0
 10
115.298540622038
 20
21.8349745528375
 42
0.0
  0
VERTEX
  8
0
 10
115.281513308744
 20
21.8495550717739
 42
0.0
  0
VERTEX
  8
0
 10
115.251568802891
 20
21.877461273981
 42
0.0
  0
VERTEX
  8
0
 10
115.066197019194
 20
22.0116345958597
 42
0.0
  0
VERTEX
  8
0
 10
114.99391634666
 20
22.0656688235948
 42
0.0
  0
VERTEX
  8
0
 10
114.853264973395
 20
22.1490170921336
 42
0.0
  0
VERTEX
  8
0
 10
114.720673619355
 20
22.2271560851878
 42
0.0
  0
VERTEX
  8
0
 10
114.622788553869
 20
22.272014009214
 42
0.0
  0
VERTEX
  8
0
 10
114.432397775561
 20
22.3605191839319
 42
0.0
  0
VERTEX
  8
0
 10
114.375023373494
 20
22.3805834102897
 42
0.0
  0
VERTEX
  8
0
 10
114.358283115345
 20
22.38691392169
 42
0.0
  0
VERTEX
  8
0
 10
114.132134088656
 20
22.4658894940581
 42
0.0
  0
VERTEX
  8
0
 10
114.126500889607
 20
22.4670913349272
 42
0.0
  0
VERTEX
  8
0
 10
113.95114498116
 20
22.5106261273
 42
0.0
  0
VERTEX
  8
0
 10
113.869258240115
 20
22.5339547483684
 42
0.0
  0
VERTEX
  8
0
 10
113.758019825712
 20
22.5535426470514
 42
0.0
  0
VERTEX
  8
0
 10
113.537623229802
 20
22.5913675643848
 42
0.0
  0
VERTEX
  8
0
 10
113.201950518414
 20
22.6114317877453
 42
0.0
  0
VERTEX
  8
0
 10
112.86478121955
 20
22.5941595891941
 42
0.0
  0
VERTEX
  8
0
 10
112.67683013582
 20
22.5614166721062
 42
0.0
  0
VERTEX
  8
0
 10
112.624777140191
 20
22.5527179470527
 42
0.0
  0
VERTEX
  8
0
 10
112.53276126806
 20
22.538460611642
 42
0.0
  0
VERTEX
  8
0
 10
112.209395051533
 20
22.4458800493734
 42
0.0
  0
VERTEX
  8
0
 10
112.195879894465
 20
22.4398692449994
 42
0.0
  0
VERTEX
  8
0
 10
112.077597716505
 20
22.3916325884762
 42
0.0
  0
VERTEX
  8
0
 10
111.950589370798
 20
22.3458371690736
 42
0.0
  0
VERTEX
  8
0
 10
111.865114675223
 20
22.3042825843417
 42
0.0
  0
VERTEX
  8
0
 10
111.816587439127
 20
22.2819059901359
 42
0.0
  0
VERTEX
  8
0
 10
111.718612972025
 20
22.2343759308941
 42
0.0
  0
VERTEX
  8
0
 10
111.664644201394
 20
22.2076927109871
 42
0.0
  0
VERTEX
  8
0
 10
111.393112979488
 20
22.0424232714716
 42
0.0
  0
VERTEX
  8
0
 10
111.379740908369
 20
22.0323001556489
 42
0.0
  0
VERTEX
  8
0
 10
111.137977014361
 20
21.8515210500155
 42
0.0
  0
VERTEX
  8
0
 10
111.033556748213
 20
21.7555029232128
 42
0.0
  0
VERTEX
  8
0
 10
110.90405850409
 20
21.6351792481121
 42
0.0
  0
VERTEX
  8
0
 10
110.691673476936
 20
21.3989239972628
 42
0.0
  0
VERTEX
  8
0
 10
110.683934604864
 20
21.3875990405714
 42
0.0
  0
VERTEX
  8
0
 10
110.503616892881
 20
21.1427763006792
 42
0.0
  0
VERTEX
  8
0
 10
110.448855127701
 20
21.0512308781822
 42
0.0
  0
VERTEX
  8
0
 10
110.435961776239
 20
21.0273492882535
 42
0.0
  0
SEQEND
  0
POLYLINE
  8
0
 66
     1
 10
0.0
 20
0.0
 30
0.0
 70
     1
  0
VERTEX
  8
0
 10
12.2888891281114
 20
14.0025832857756
 42
0.0
  0
VERTEX
  8
0
 10
12.1404416608932
 20
13.9491543367214
 42
0.0
  0
VERTEX
  8
0
 10
11.8300724564869
 20
13.7949362487202
 42
0.0
  0
VERTEX
  8
0
 10
11.5211140264174
 20
13.5994418551541
 42
0.0
  0
VERTEX
  8
0
 10
11.2553553552556
 20
13.3902521852599
 42
0.0
  0
VERTEX
  8
0
 10
11.2258858348062
 20
13.3657938353002
 42
0.0
  0
VERTEX
  8
0
 10
11.0790388386745
 20
13.2269232667735
 42
0.0
  0
VERTEX
  8
0
 10
10.9468191735489
 20
13.1037346256955
 42
0.0
  0
VERTEX
  8
0
 10
10.905560136939
 20
13.0609228133153
 42
0.0
  0
VERTEX
  8
0
 10
10.7312856582585
 20
12.8783492648301
 42
0.0
  0
VERTEX
  8
0
 10
10.474395065985
 20
12.6129697864652
 42
0.0
  0
VERTEX
  8
0
 10
10.3373119338215
 20
12.4703216569521
 42
0.0
  0
VERTEX
  8
0
 10
10.2946821267286
 20
12.4274621492551
 42
0.0
  0
VERTEX
  8
0
 10
10.0427453504027
 20
12.1387712340463
 42
0.0
  0
VERTEX
  8
0
 10
9.8216919428234
 20
11.8346349002085
 42
0.0
  0
VERTEX
  8
0
 10
9.7110645771648
 20
11.6460159277063
 42
0.0
  0
VERTEX
  8
0
 10
9.6368618999727
 20
11.5193562404566
 42
0.0
  0
VERTEX
  8
0
 10
9.4948268595732
 20
11.202745506608
 42
0.0
  0
VERTEX
  8
0
 10
9.4315837609795
 20
10.9992298411295
 42
0.0
  0
VERTEX
  8
0
 10
9.3967623946088
 20
10.8904603991038
 42
0.0
  0
VERTEX
  8
0
 10
9.3463974875027
 20
10.5936609370335
 42
0.0
  0
VERTEX
  8
0
 10
9.3460521945687
 20
10.5246970219538
 42
0.0
  0
VERTEX
  8
0
 10
9.345038626444
 20
10.3164336229868
 42
0.0
  0
VERTEX
  8
0
 10
9.3636423336529
 20
10.2178339075836
 42
0.0
  0
VERTEX
  8
0
 10
9.3923190693848
 20
10.0671273533135
 42
0.0
  0
VERTEX
  8
0
 10
9.4867026492146
 20
9.851178397876
 42
0.0
  0
VERTEX
  8
0
 10
9.4982468805764
 20
9.836407097674
 42
0.0
  0
VERTEX
  8
0
 10
9.6265792356213
 20
9.6754182984111
 42
0.0
  0
VERTEX
  8
0
 10
9.910457028849
 20
9.4025751092508
 42
0.0
  0
VERTEX
  8
0
 10
10.0203661167482
 20
9.2948258669763
 42
0.0
  0
VERTEX
  8
0
 10
10.0995514457796
 20
9.2381091158947
 42
0.0
  0
VERTEX
  8
0
 10
10.2028733934946
 20
9.1618998905691
 42
0.0
  0
VERTEX
  8
0
 10
10.4223589248143
 20
9.0757540687945
 42
0.0
  0
VERTEX
  8
0
 10
10.6718739266854
 20
9.0374173905064
 42
0.0
  0
VERTEX
  8
0
 10
10.795852501472
 20
9.0417311669109
 42
0.0
  0
VERTEX
  8
0
 10
10.9486658001575
 20
9.0485731562634
 42
0.0
  0
VERTEX
  8
0
 10
11.2278752643615
 20
9.107848091625
 42
0.0
  0
VERTEX
  8
0
 10
11.2456742774286
 20
9.1112630907226
 42
0.0
  0
VERTEX
  8
0
 10
11.4023267066064
 20
9.1662737114894
 42
0.0
  0
VERTEX
  8
0
 10
11.5521440610609
 20
9.2197757404977
 42
0.0
  0
VERTEX
  8
0
 10
11.8638844601708
 20
9.3754902147078
 42
0.0
  0
VERTEX
  8
0
 10
12.0216974188963
 20
9.4760347291513
 42
0.0
  0
VERTEX
  8
0
 10
12.1714712365111
 20
9.5709622975958
 42
0.0
  0
VERTEX
  8
0
 10
12.4681196604147
 20
9.8032364730065
 42
0.0
  0
VERTEX
  8
0
 10
12.7457678558724
 20
10.0666187577778
 42
0.0
  0
VERTEX
  8
0
 10
13.3979027119788
 20
10.7414933126027
 42
0.0
  0
VERTEX
  8
0
 10
13.6498394883047
 20
11.0301842278121
 42
0.0
  0
VERTEX
  8
0
 10
13.8708942033516
 20
11.3357438679027
 42
0.0
  0
VERTEX
  8
0
 10
14.0557233629557
 20
11.6510479122933
 42
0.0
  0
VERTEX
  8
0
 10
14.1991309403312
 20
11.9676555721815
 42
0.0
  0
VERTEX
  8
0
 10
14.2958478287371
 20
12.2784959460014
 42
0.0
  0
VERTEX
  8
0
 10
14.3461387726414
 20
12.5766906799463
 42
0.0
  0
VERTEX
  8
0
 10
14.3470755265554
 20
12.7477178880891
 42
0.0
  0
VERTEX
  8
0
 10
14.3475484029774
 20
12.8539197604865
 42
0.0
  0
VERTEX
  8
0
 10
14.320292782785
 20
13.0032270856748
 42
0.0
  0
VERTEX
  8
0
 10
14.3016396137661
 20
13.1032483408373
 42
0.0
  0
VERTEX
  8
0
 10
14.2072551506898
 20
13.3192226809135
 42
0.0
  0
VERTEX
  8
0
 10
14.0660077938001
 20
13.4949350850622
 42
0.0
  0
VERTEX
  8
0
 10
13.6722414568579
 20
13.8742066320447
 42
0.0
  0
VERTEX
  8
0
 10
13.4897118694336
 20
14.0085042621808
 42
0.0
  0
VERTEX
  8
0
 10
13.4058132252871
 20
14.04144613627
 42
0.0
  0
VERTEX
  8
0
 10
13.2715971085967
 20
14.0946977792716
 42
0.0
  0
VERTEX
  8
0
 10
13.0207389464002
 20
14.1314628006829
 42
0.0
  0
VERTEX
  8
0
 10
12.7439671580872
 20
14.1204602260037
 42
0.0
  0
VERTEX
  8
0
 10
12.4482327531986
 20
14.0591362215733
 42
0.0
  0
SEQEND
  0
POLYLINE
  8
0
 66
     1
 10
0.0
 20
0.0
 30
0.0
 70
     1
  0
VERTEX
  8
0
 10
23.0128167204179
 20
10.9781651466656
 42
0.0
  0
VERTEX
  8
0
 10
23.6558526578942
 20
10.370390579015
 42
0.0
  0
VERTEX
  8
0
 10
23.6886095939532
 20
10.33981195859
 42
0.0
  0
VERTEX
  8
0
 10
23.9757848862363
 20
10.0919905676735
 42
0.0
  0
VERTEX
  8
0
 10
24.2430301209142
 20
9.9012702727691
 42
0.0
  0
VERTEX
  8
0
 10
24.2812001329102
 20
9.8736248578223
 42
0.0
  0
VERTEX
  8
0
 10
24.5963593248581
 20
9.6929587789436
 42
0.0
  0
VERTEX
  8
0
 10
24.9128733606065
 20
9.5522419732567
 42
0.0
  0
VERTEX
  8
0
 10
24.9713962193299
 20
9.5349625669485
 42
0.0
  0
VERTEX
  8
0
 10
25.2236852410219
 20
9.4570744310506
 42
0.0
  0
VERTEX
  8
0
 10
25.5217623084611
 20
9.4079739154192
 42
0.0
  0
VERTEX
  8
0
 10
25.7383220680086
 20
9.4073760921262
 42
0.0
  0
VERTEX
  8
0
 10
25.7990885113223
 20
9.4066947412627
 42
0.0
  0
VERTEX
  8
0
 10
26.0483453539907
 20
9.4524739575409
 42
0.0
  0
VERTEX
  8
0
 10
26.2631690118907
 20
9.545598445376
 42
0.0
  0
VERTEX
  8
0
 10
26.3086843639506
 20
9.5814928811962
 42
0.0
  0
VERTEX
  8
0
 10
26.4403213092702
 20
9.6841764580082
 42
0.0
  0
VERTEX
  8
0
 10
26.7385431696674
 20
9.9881004797331
 42
0.0
  0
VERTEX
  8
0
 10
26.8197840965443
 20
10.0709856374884
 42
0.0
  0
VERTEX
  8
0
 10
26.9540764620062
 20
10.2507447663222
 42
0.0
  0
VERTEX
  8
0
 10
27.04041483154
 20
10.4646964464329
 42
0.0
  0
VERTEX
  8
0
 10
27.0788469004614
 20
10.7114699073386
 42
0.0
  0
VERTEX
  8
0
 10
27.0665658719716
 20
10.9840799223927
 42
0.0
  0
VERTEX
  8
0
 10
27.0334337356935
 20
11.1401211731654
 42
0.0
  0
VERTEX
  8
0
 10
27.0053836460237
 20
11.2742787095796
 42
0.0
  0
VERTEX
  8
0
 10
26.8954918871301
 20
11.5765578023283
 42
0.0
  0
VERTEX
  8
0
 10
26.7414930389942
 20
11.8828173450256
 42
0.0
  0
VERTEX
  8
0
 10
26.54494338869
 20
12.1848514924655
 42
0.0
  0
VERTEX
  8
0
 10
26.3126823020756
 20
12.4760106517114
 42
0.0
  0
VERTEX
  8
0
 10
26.0507902555914
 20
12.7495425785138
 42
0.0
  0
VERTEX
  8
0
 10
25.9882188108338
 20
12.8094043543553
 42
0.0
  0
VERTEX
  8
0
 10
25.6361319923718
 20
13.1405153169963
 42
0.0
  0
VERTEX
  8
0
 10
25.3751505731342
 20
13.38787568143
 42
0.0
  0
VERTEX
  8
0
 10
25.0865296639198
 20
13.6370700335437
 42
0.0
  0
VERTEX
  8
0
 10
24.7825110313931
 20
13.8540102464277
 42
0.0
  0
VERTEX
  8
0
 10
24.4673509561988
 20
14.0347017099443
 42
0.0
  0
VERTEX
  8
0
 10
24.1508386869436
 20
14.1753677463546
 42
0.0
  0
VERTEX
  8
0
 10
23.8400197405551
 20
14.2707383656696
 42
0.0
  0
VERTEX
  8
0
 10
23.5418727019268
 20
14.3196585390911
 42
0.0
  0
VERTEX
  8
0
 10
23.5184194866
 20
14.3202403408449
 42
0.0
  0
VERTEX
  8
0
 10
23.2646698892719
 20
14.3210436680346
 42
0.0
  0
VERTEX
  8
0
 10
23.0153159242821
 20
14.2751339955769
 42
0.0
  0
VERTEX
  8
0
 10
22.7993192735284
 20
14.1821211862301
 42
0.0
  0
VERTEX
  8
0
 10
22.622091246454
 20
14.0449892147497
 42
0.0
  0
VERTEX
  8
0
 10
22.2426026503205
 20
13.6567304611314
 42
0.0
  0
VERTEX
  8
0
 10
22.1095804000335
 20
13.4769901099894
 42
0.0
  0
VERTEX
  8
0
 10
22.0232691816319
 20
13.2629885438475
 42
0.0
  0
VERTEX
  8
0
 10
21.9849640359033
 20
13.016219499175
 42
0.0
  0
VERTEX
  8
0
 10
21.9850594265363
 20
13.0134779582095
 42
0.0
  0
VERTEX
  8
0
 10
21.9912218098358
 20
12.8758139892719
 42
0.0
  0
VERTEX
  8
0
 10
21.9958217581399
 20
12.7436107915878
 42
0.0
  0
VERTEX
  8
0
 10
22.0569287134186
 20
12.4533839700227
 42
0.0
  0
VERTEX
  8
0
 10
22.1666966230799
 20
12.1524729980171
 42
0.0
  0
VERTEX
  8
0
 10
22.3221686634995
 20
11.8462392989844
 42
0.0
  0
VERTEX
  8
0
 10
22.51742281399
 20
11.5441854906059
 42
0.0
  0
VERTEX
  8
0
 10
22.7496037894814
 20
11.2516765292827
 42
0.0
  0
SEQEND
  0
POLYLINE
  8
0
 66
     1
 10
0.0
 20
0.0
 30
0.0
 70
     1
  0
VERTEX
  8
0
 10
90.5954878282529
 20
19.8746302578015
 42
0.0
  0
VERTEX
  8
0
 10
90.5795012229559
 20
19.8458273162756
 42
0.0
  0
VERTEX
  8
0
 10
90.5679248680465
 20
19.8269860221909
 42
0.0
  0
VERTEX
  8
0
 10
90.497575452201
 20
19.6549221663945
 42
0.0
  0
VERTEX
  8
0
 10
90.4459480226621
 20
19.4786169617746
 42
0.0
  0
VERTEX
  8
0
 10
90.4388570126237
 20
19.4415385363617
 42
0.0
  0
VERTEX
  8
0
 10
90.4142596010441
 20
19.2956437165264
 42
0.0
  0
VERTEX
  8
0
 10
90.403470580798
 20
19.1109512703721
 42
0.0
  0
VERTEX
  8
0
 10
90.4137662706689
 20
18.9257239604942
 42
0.0
  0
VERTEX
  8
0
 10
90.4432068357816
 20
18.7436318250788
 42
0.0
  0
VERTEX
  8
0
 10
90.4951434166538
 20
18.5660146583808
 42
0.0
  0
VERTEX
  8
0
 10
90.5650086383563
 20
18.3939367336213
 42
0.0
  0
VERTEX
  8
0
 10
90.631722364738
 20
18.27337242439
 42
0.0
  0
VERTEX
  8
0
 10
90.6343810768584
 20
18.2685721614695
 42
0.0
  0
VERTEX
  8
0
 10
90.6525033637683
 20
18.235995296139
 42
0.0
  0
VERTEX
  8
0
 10
90.6539883504372
 20
18.2323773868821
 42
0.0
  0
VERTEX
  8
0
 10
90.703298040901
 20
18.1628081309888
 42
0.0
  0
VERTEX
  8
0
 10
90.7602741809142
 20
18.0812283932673
 42
0.0
  0
VERTEX
  8
0
 10
90.8828745642691
 20
17.9429469409413
 42
0.0
  0
VERTEX
  8
0
 10
90.9717100748036
 20
17.8636536245361
 42
0.0
  0
VERTEX
  8
0
 10
91.0210698360535
 20
17.8186858789673
 42
0.0
  0
VERTEX
  8
0
 10
91.1711094278025
 20
17.7120748936258
 42
0.0
  0
VERTEX
  8
0
 10
91.2838643838327
 20
17.6484280681256
 42
0.0
  0
VERTEX
  8
0
 10
91.2887012982206
 20
17.6461273287933
 42
0.0
  0
VERTEX
  8
0
 10
91.3339849050342
 20
17.6206567967531
 42
0.0
  0
VERTEX
  8
0
 10
91.4587565784754
 20
17.5697053196508
 42
0.0
  0
VERTEX
  8
0
 10
91.5047310392787
 20
17.5504200934448
 42
0.0
  0
VERTEX
  8
0
 10
91.6825294496683
 20
17.4988446193014
 42
0.0
  0
VERTEX
  8
0
 10
91.8642119428214
 20
17.4658427902379
 42
0.0
  0
VERTEX
  8
0
 10
92.0489289658027
 20
17.456300469742
 42
0.0
  0
VERTEX
  8
0
 10
92.2340947003149
 20
17.4664128033655
 42
0.0
  0
VERTEX
  8
0
 10
92.4160876791782
 20
17.4960990872945
 42
0.0
  0
VERTEX
  8
0
 10
92.5937357513467
 20
17.5464964265342
 42
0.0
  0
VERTEX
  8
0
 10
92.7029155476133
 20
17.5921103618617
 42
0.0
  0
VERTEX
  8
0
 10
92.7659045515174
 20
17.6176559582557
 42
0.0
  0
VERTEX
  8
0
 10
92.9272531944617
 20
17.7068322044782
 42
0.0
  0
VERTEX
  8
0
 10
93.0784596228717
 20
17.8140714056208
 42
0.0
  0
VERTEX
  8
0
 10
93.2182923294296
 20
17.9357064367305
 42
0.0
  0
VERTEX
  8
0
 10
93.2699046236193
 20
17.9952641488232
 42
0.0
  0
VERTEX
  8
0
 10
93.341238031461
 20
18.073946548063
 42
0.0
  0
VERTEX
  8
0
 10
93.4476945825086
 20
18.223867507742
 42
0.0
  0
VERTEX
  8
0
 10
93.537885864261
 20
18.3855450607863
 42
0.0
  0
VERTEX
  8
0
 10
93.5914044713445
 20
18.514007679824
 42
0.0
  0
VERTEX
  8
0
 10
93.6093672838013
 20
18.5576256524005
 42
0.0
  0
VERTEX
  8
0
 10
93.6433614228699
 20
18.6743322355471
 42
0.0
  0
VERTEX
  8
0
 10
93.661178447679
 20
18.7351604428613
 42
0.0
  0
VERTEX
  8
0
 10
93.6929093782565
 20
18.9169119742984
 42
0.0
  0
VERTEX
  8
0
 10
93.703470580798
 20
19.1016417970826
 42
0.0
  0
VERTEX
  8
0
 10
93.694759381219
 20
19.2869015868376
 42
0.0
  0
VERTEX
  8
0
 10
93.6634663607594
 20
19.4701524598281
 42
0.0
  0
VERTEX
  8
0
 10
93.6399734417067
 20
19.5529198822504
 42
0.0
  0
VERTEX
  8
0
 10
93.6133830224376
 20
19.6465882646209
 42
0.0
  0
VERTEX
  8
0
 10
93.6092794709989
 20
19.6538525959764
 42
0.0
  0
VERTEX
  8
0
 10
93.5570157180536
 20
19.7822814943256
 42
0.0
  0
VERTEX
  8
0
 10
93.5421603409443
 20
19.8186189572035
 42
0.0
  0
VERTEX
  8
0
 10
93.4529528111595
 20
19.9802156805726
 42
0.0
  0
VERTEX
  8
0
 10
93.3831612587878
 20
20.0785648193778
 42
0.0
  0
VERTEX
  8
0
 10
93.3457620074888
 20
20.1313331860695
 42
0.0
  0
VERTEX
  8
0
 10
93.3214340095079
 20
20.1599792444791
 42
0.0
  0
VERTEX
  8
0
 10
93.224249544463
 20
20.2708983366842
 42
0.0
  0
VERTEX
  8
0
 10
93.1896988762978
 20
20.3003892432465
 42
0.0
  0
VERTEX
  8
0
 10
93.0858728999488
 20
20.393861939828
 42
0.0
  0
VERTEX
  8
0
 10
92.9699444010663
 20
20.4771053399641
 42
0.0
  0
VERTEX
  8
0
 10
92.9358325209971
 20
20.5004955494989
 42
0.0
  0
VERTEX
  8
0
 10
92.8882447594435
 20
20.5270864507254
 42
0.0
  0
VERTEX
  8
0
 10
92.7740882602573
 20
20.5919530065194
 42
0.0
  0
VERTEX
  8
0
 10
92.6033413388093
 20
20.6622123341573
 42
0.0
  0
VERTEX
  8
0
 10
92.5127248416002
 20
20.6885292635834
 42
0.0
  0
VERTEX
  8
0
 10
92.4396983270023
 20
20.7105881083683
 42
0.0
  0
VERTEX
  8
0
 10
92.4307890332431
 20
20.7127471511691
 42
0.0
  0
VERTEX
  8
0
 10
92.4259954150169
 20
20.7138035523601
 42
0.0
  0
VERTEX
  8
0
 10
92.2427292187748
 20
20.7467502772165
 42
0.0
  0
VERTEX
  8
0
 10
92.0582384390923
 20
20.7563004697422
 42
0.0
  0
VERTEX
  8
0
 10
91.8730734917829
 20
20.7461655117892
 42
0.0
  0
VERTEX
  8
0
 10
91.6910805129196
 20
20.7164792278597
 42
0.0
  0
VERTEX
  8
0
 10
91.5728744457045
 20
20.682896415173
 42
0.0
  0
VERTEX
  8
0
 10
91.5630055456965
 20
20.6800839939209
 42
0.0
  0
VERTEX
  8
0
 10
91.5132069846556
 20
20.6660513922608
 42
0.0
  0
VERTEX
  8
0
 10
91.4187443396771
 20
20.6271334529289
 42
0.0
  0
VERTEX
  8
0
 10
91.3533091684505
 20
20.6002795503986
 42
0.0
  0
VERTEX
  8
0
 10
91.3412628533776
 20
20.5949449812285
 42
0.0
  0
VERTEX
  8
0
 10
91.1794625110395
 20
20.505730366617
 42
0.0
  0
VERTEX
  8
0
 10
91.0284406041711
 20
20.399698126986
 42
0.0
  0
VERTEX
  8
0
 10
90.8902333224584
 20
20.276919110601
 42
0.0
  0
VERTEX
  8
0
 10
90.765886077271
 20
20.1398987295626
 42
0.0
  0
VERTEX
  8
0
 10
90.6578906937035
 20
19.9886330788757
 42
0.0
  0
VERTEX
  8
0
 10
90.6069366562843
 20
19.8971366933203
 42
0.0
  0
SEQEND
  0
POLYLINE
  8
0
 66
     1
 10
0.0
 20
0.0
 30
0.0
 70
     1
  0
VERTEX
  8
0
 10
118.879846938561
 20
20.7168752625978
 42
0.0
  0
VERTEX
  8
0
 10
118.863860333264
 20
20.6880723210719
 42
0.0
  0
VERTEX
  8
0
 10
118.852283978354
 20
20.6692310269873
 42
0.0
  0
VERTEX
  8
0
 10
118.781934562509
 20
20.4971671711908
 42
0.0
  0
VERTEX
  8
0
 10
118.73030713297
 20
20.3208619665709
 42
0.0
  0
VERTEX
  8
0
 10
118.723216122932
 20
20.283783541158
 42
0.0
  0
VERTEX
  8
0
 10
118.698618711352
 20
20.1378887213227
 42
0.0
  0
VERTEX
  8
0
 10
118.687829691106
 20
19.9531962751684
 42
0.0
  0
VERTEX
  8
0
 10
118.698125380977
 20
19.7679689652905
 42
0.0
  0
VERTEX
  8
0
 10
118.727565946089
 20
19.5858768298751
 42
0.0
  0
VERTEX
  8
0
 10
118.779502526962
 20
19.4082596631771
 42
0.0
  0
VERTEX
  8
0
 10
118.849367748664
 20
19.2361817384176
 42
0.0
  0
VERTEX
  8
0
 10
118.916081475046
 20
19.1156174291864
 42
0.0
  0
VERTEX
  8
0
 10
118.918740187166
 20
19.1108171662658
 42
0.0
  0
VERTEX
  8
0
 10
118.936862474076
 20
19.0782403009353
 42
0.0
  0
VERTEX
  8
0
 10
118.938347460745
 20
19.0746223916784
 42
0.0
  0
VERTEX
  8
0
 10
118.987657151209
 20
19.0050531357852
 42
0.0
  0
VERTEX
  8
0
 10
119.044633291222
 20
18.9234733980636
 42
0.0
  0
VERTEX
  8
0
 10
119.167233674577
 20
18.7851919457377
 42
0.0
  0
VERTEX
  8
0
 10
119.256069185111
 20
18.7058986293324
 42
0.0
  0
VERTEX
  8
0
 10
119.305428946361
 20
18.6609308837637
 42
0.0
  0
VERTEX
  8
0
 10
119.45546853811
 20
18.5543198984221
 42
0.0
  0
VERTEX
  8
0
 10
119.56822349414
 20
18.4906730729219
 42
0.0
  0
VERTEX
  8
0
 10
119.573060408528
 20
18.4883723335896
 42
0.0
  0
VERTEX
  8
0
 10
119.618344015342
 20
18.4629018015494
 42
0.0
  0
VERTEX
  8
0
 10
119.743115688783
 20
18.4119503244471
 42
0.0
  0
VERTEX
  8
0
 10
119.789090149587
 20
18.3926650982411
 42
0.0
  0
VERTEX
  8
0
 10
119.966888559976
 20
18.3410896240977
 42
0.0
  0
VERTEX
  8
0
 10
120.148571053129
 20
18.3080877950342
 42
0.0
  0
VERTEX
  8
0
 10
120.333288076111
 20
18.2985454745383
 42
0.0
  0
VERTEX
  8
0
 10
120.518453810623
 20
18.3086578081619
 42
0.0
  0
VERTEX
  8
0
 10
120.700446789486
 20
18.3383440920908
 42
0.0
  0
VERTEX
  8
0
 10
120.878094861655
 20
18.3887414313305
 42
0.0
  0
VERTEX
  8
0
 10
120.987274657921
 20
18.434355366658
 42
0.0
  0
VERTEX
  8
0
 10
121.050263661825
 20
18.459900963052
 42
0.0
  0
VERTEX
  8
0
 10
121.21161230477
 20
18.5490772092745
 42
0.0
  0
VERTEX
  8
0
 10
121.36281873318
 20
18.6563164104171
 42
0.0
  0
VERTEX
  8
0
 10
121.502651439737
 20
18.7779514415268
 42
0.0
  0
VERTEX
  8
0
 10
121.554263733927
 20
18.8375091536195
 42
0.0
  0
VERTEX
  8
0
 10
121.625597141769
 20
18.9161915528593
 42
0.0
  0
VERTEX
  8
0
 10
121.732053692816
 20
19.0661125125383
 42
0.0
  0
VERTEX
  8
0
 10
121.822244974569
 20
19.2277900655827
 42
0.0
  0
VERTEX
  8
0
 10
121.875763581652
 20
19.3562526846203
 42
0.0
  0
VERTEX
  8
0
 10
121.893726394109
 20
19.3998706571968
 42
0.0
  0
VERTEX
  8
0
 10
121.927720533178
 20
19.5165772403434
 42
0.0
  0
VERTEX
  8
0
 10
121.945537557987
 20
19.5774054476577
 42
0.0
  0
VERTEX
  8
0
 10
121.977268488564
 20
19.7591569790947
 42
0.0
  0
VERTEX
  8
0
 10
121.987829691106
 20
19.9438868018789
 42
0.0
  0
VERTEX
  8
0
 10
121.979118491527
 20
20.1291465916339
 42
0.0
  0
VERTEX
  8
0
 10
121.947825471067
 20
20.3123974646244
 42
0.0
  0
VERTEX
  8
0
 10
121.924332552015
 20
20.3951648870467
 42
0.0
  0
VERTEX
  8
0
 10
121.897742132745
 20
20.4888332694173
 42
0.0
  0
VERTEX
  8
0
 10
121.893638581307
 20
20.4960976007727
 42
0.0
  0
VERTEX
  8
0
 10
121.841374828361
 20
20.6245264991219
 42
0.0
  0
VERTEX
  8
0
 10
121.826519451252
 20
20.6608639619998
 42
0.0
  0
VERTEX
  8
0
 10
121.737311921467
 20
20.8224606853689
 42
0.0
  0
VERTEX
  8
0
 10
121.667520369096
 20
20.9208098241741
 42
0.0
  0
VERTEX
  8
0
 10
121.630121117797
 20
20.9735781908658
 42
0.0
  0
VERTEX
  8
0
 10
121.605793119816
 20
21.0022242492754
 42
0.0
  0
VERTEX
  8
0
 10
121.508608654771
 20
21.1131433414806
 42
0.0
  0
VERTEX
  8
0
 10
121.474057986606
 20
21.1426342480428
 42
0.0
  0
VERTEX
  8
0
 10
121.370232010257
 20
21.2361069446244
 42
0.0
  0
VERTEX
  8
0
 10
121.254303511374
 20
21.3193503447604
 42
0.0
  0
VERTEX
  8
0
 10
121.220191631305
 20
21.3427405542953
 42
0.0
  0
VERTEX
  8
0
 10
121.172603869751
 20
21.3693314555217
 42
0.0
  0
VERTEX
  8
0
 10
121.058447370565
 20
21.4341980113158
 42
0.0
  0
VERTEX
  8
0
 10
120.887700449117
 20
21.5044573389536
 42
0.0
  0
VERTEX
  8
0
 10
120.797083951908
 20
21.5307742683798
 42
0.0
  0
VERTEX
  8
0
 10
120.72405743731
 20
21.5528331131646
 42
0.0
  0
VERTEX
  8
0
 10
120.715148143551
 20
21.5549921559655
 42
0.0
  0
VERTEX
  8
0
 10
120.710354525325
 20
21.5560485571564
 42
0.0
  0
VERTEX
  8
0
 10
120.527088329083
 20
21.5889952820128
 42
0.0
  0
VERTEX
  8
0
 10
120.3425975494
 20
21.5985454745386
 42
0.0
  0
VERTEX
  8
0
 10
120.157432602091
 20
21.5884105165856
 42
0.0
  0
VERTEX
  8
0
 10
119.975439623227
 20
21.558724232656
 42
0.0
  0
VERTEX
  8
0
 10
119.857233556012
 20
21.5251414199694
 42
0.0
  0
VERTEX
  8
0
 10
119.847364656004
 20
21.5223289987173
 42
0.0
  0
VERTEX
  8
0
 10
119.797566094963
 20
21.5082963970571
 42
0.0
  0
VERTEX
  8
0
 10
119.703103449985
 20
21.4693784577252
 42
0.0
  0
VERTEX
  8
0
 10
119.637668278758
 20
21.4425245551949
 42
0.0
  0
VERTEX
  8
0
 10
119.625621963685
 20
21.4371899860249
 42
0.0
  0
VERTEX
  8
0
 10
119.463821621347
 20
21.3479753714134
 42
0.0
  0
VERTEX
  8
0
 10
119.312799714479
 20
21.2419431317823
 42
0.0
  0
VERTEX
  8
0
 10
119.174592432766
 20
21.1191641153973
 42
0.0
  0
VERTEX
  8
0
 10
119.050245187579
 20
20.9821437343589
 42
0.0
  0
VERTEX
  8
0
 10
118.942249804011
 20
20.8308780836721
 42
0.0
  0
VERTEX
  8
0
 10
118.891295766592
 20
20.7393816981166
 42
0.0
  0
SEQEND
  0
ENDSEC
  0
EOF
