  0
SECTION
  2
HEADER
  9
$ACADVER
  1
AC1009
  9
$EXTMAX
 10
132.12727355957
 20
33.9489135742188
 30
0.0
  9
$EXTMIN
 10
1.0937248468399
 20
1.8392275571823
 30
0.0
  9
$INSUNITS
 70
     4
  9
$LUNITS
 70
     2
  9
$LUPREC
 70
     4
  9
$MEASUREMENT
 70
     1
  0
ENDSEC
  0
SECTION
  2
TABLES
  0
TABLE
  2
LAYER
 70
     1
  0
LAYER
  2
0
 70
     0
 62
     7
  6
Continuous
  0
ENDTAB
  0
TABLE
  2
APPID
 70
     1
  0
APPID
  2
ACAD
 70
     0
  0
ENDTAB
  0
ENDSEC
  0
SECTION
  2
ENTITIES
  0
POLYLINE
  8
0
 66
     1
 10
0.0
 20
0.0
 30
0.0
 70
     1
  0
VERTEX
  8
0
 10
7.8406908372101
 20
33.9489148097836
 42
0.0
  0
VERTEX
  8
0
 10
16.0482597893816
 20
31.4367718571158
 42
0.0
  0
VERTEX
  8
0
 10
18.0259296054621
 20
30.8312887508239
 42
0.0
  0
VERTEX
  8
0
 10
18.3618840941976
 20
30.7271602854202
 42
0.0
  0
VERTEX
  8
0
 10
27.7603034955073
 20
30.8873219749475
 42
0.0
  0
VERTEX
  8
0
 10
28.0528088198623
 20
30.4424881785536
 42
0.0
  0
VERTEX
  8
0
 10
29.2963485663558
 20
28.54432722238
 42
0.0
  0
VERTEX
  8
0
 10
29.4463957626324
 20
28.3151166646963
 42
0.0
  0
VERTEX
  8
0
 10
29.590474126151
 20
28.0967541105391
 42
0.0
  0
VERTEX
  8
0
 10
30.0361068954178
 20
27.4145315214128
 42
0.0
  0
VERTEX
  8
0
 10
30.0361076839828
 20
27.4145303337405
 42
0.2471626825756
  0
VERTEX
  8
0
 10
32.2293136273775
 20
26.2136627108055
 42
0.0
  0
VERTEX
  8
0
 10
33.8149717855417
 20
26.1900558153457
 42
0.0
  0
VERTEX
  8
0
 10
35.3510708448816
 20
26.1702754393484
 42
0.0
  0
VERTEX
  8
0
 10
36.8391679730124
 20
26.1539132170452
 42
0.0
  0
VERTEX
  8
0
 10
38.2808264082178
 20
26.1406007450213
 42
0.0
  0
VERTEX
  8
0
 10
38.9791543067292
 20
26.1350253540291
 42
0.0012977644774
  0
VERTEX
  8
0
 10
44.4783796250309
 20
26.109831181707
 42
0.0
  0
VERTEX
  8
0
 10
45.6813621429998
 20
26.1084744986295
 42
0.0
  0
VERTEX
  8
0
 10
46.8467692210519
 20
26.1084846061247
 42
0.0
  0
VERTEX
  8
0
 10
49.1046643979893
 20
26.1120536966307
 42
0.0
  0
VERTEX
  8
0
 10
51.2214310684947
 20
26.1194250020123
 42
0.0
  0
VERTEX
  8
0
 10
53.2058538031268
 20
26.1296455752876
 42
0.0
  0
VERTEX
  8
0
 10
54.1360875310291
 20
26.1354797686871
 42
0.00147554585
  0
VERTEX
  8
0
 10
54.5866574185423
 20
26.1385358700668
 42
0.0020845629075
  0
VERTEX
  8
0
 10
55.0301956484357
 20
26.1416878943185
 42
0.0025325535892
  0
VERTEX
  8
0
 10
55.4667969263959
 20
26.1449275644114
 42
0.0028959256567
  0
VERTEX
  8
0
 10
55.8965847622168
 20
26.1482472638321
 42
0.0032040667843
  0
VERTEX
  8
0
 10
56.31965427114
 20
26.1516395935746
 42
0.0034722739235
  0
VERTEX
  8
0
 10
56.7361250765796
 20
26.1550977592261
 42
0.0037095895488
  0
VERTEX
  8
0
 10
57.1460955403192
 20
26.1586151889348
 42
0.0039219599573
  0
VERTEX
  8
0
 10
57.5496535086705
 20
26.1621855840018
 42
0.0
  0
VERTEX
  8
0
 10
60.7274012357809
 20
26.1938473817413
 42
0.0052098276358
  0
VERTEX
  8
0
 10
61.0749954554364
 20
26.1976719079444
 42
0.0052965777881
  0
VERTEX
  8
0
 10
61.4171630106768
 20
26.2015023779266
 42
0.0053768206523
  0
VERTEX
  8
0
 10
61.7539802374199
 20
26.2053355608276
 42
0.0054511505047
  0
VERTEX
  8
0
 10
62.0855378947372
 20
26.2091685932039
 42
0.0055199265002
  0
VERTEX
  8
0
 10
62.4119175363925
 20
26.2129987039298
 42
0.0055835241692
  0
VERTEX
  8
0
 10
62.7331994926566
 20
26.2168232935778
 42
0.005642281377
  0
VERTEX
  8
0
 10
63.0494628862662
 20
26.2206399258062
 42
0.0056964157878
  0
VERTEX
  8
0
 10
63.3607761449086
 20
26.2244462022209
 42
0.0057463802391
  0
VERTEX
  8
0
 10
63.6672258243143
 20
26.2282401061859
 42
0.0057923648316
  0
VERTEX
  8
0
 10
63.9688898190026
 20
26.2320196721696
 42
0.0058345577864
  0
VERTEX
  8
0
 10
64.2658401942316
 20
26.235783008759
 42
0.0058731948086
  0
VERTEX
  8
0
 10
64.5581502665647
 20
26.2395283795926
 42
0.0059084730267
  0
VERTEX
  8
0
 10
64.8458922390394
 20
26.2432541676411
 42
0.0059405747462
  0
VERTEX
  8
0
 10
65.1291372164487
 20
26.2469588690824
 42
0.0059696692697
  0
VERTEX
  8
0
 10
65.4079552205041
 20
26.2506410874678
 42
0.0059959366944
  0
VERTEX
  8
0
 10
65.6824173030508
 20
26.2542995562623
 42
0.0060195008453
  0
VERTEX
  8
0
 10
65.952591266139
 20
26.2579330767745
 42
0.0060404750202
  0
VERTEX
  8
0
 10
66.2185418435117
 20
26.2615405140661
 42
0.0008739883583
  0
VERTEX
  8
0
 10
82.9702842746918
 20
26.5289771516564
 42
0.0
  0
VERTEX
  8
0
 10
86.8563002320998
 20
26.6310730275895
 42
0.0
  0
VERTEX
  8
0
 10
87.86364359472
 20
26.656490642278
 42
0.0
  0
VERTEX
  8
0
 10
92.6174725554471
 20
26.8205254629792
 42
0.0
  0
VERTEX
  8
0
 10
93.5815479196582
 20
26.8623300089307
 42
0.0
  0
VERTEX
  8
0
 10
97.2079581751786
 20
27.0188552068328
 42
0.0
  0
VERTEX
  8
0
 10
97.276750545709
 20
27.0212488051246
 42
0.0
  0
VERTEX
  8
0
 10
101.331294025523
 20
27.2395366415279
 42
0.0
  0
VERTEX
  8
0
 10
101.786915079133
 20
27.2636497580387
 42
0.0
  0
VERTEX
  8
0
 10
106.150757582714
 20
27.5478508634862
 42
0.0
  0
VERTEX
  8
0
 10
106.46707826919
 20
27.5726576398255
 42
0.0
  0
VERTEX
  8
0
 10
107.304540466658
 20
27.637657832586
 42
0.0
  0
VERTEX
  8
0
 10
110.365787287911
 20
27.872393026324
 42
0.0
  0
VERTEX
  8
0
 10
113.562941564928
 20
28.1601208452941
 42
0.0
  0
VERTEX
  8
0
 10
114.374174914099
 20
28.2338916738161
 42
0.0
  0
VERTEX
  8
0
 10
114.431702653025
 20
28.2386381845688
 42
0.0
  0
VERTEX
  8
0
 10
118.35002852286
 20
28.6465885637399
 42
0.0
  0
VERTEX
  8
0
 10
122.174420108944
 20
29.0954170424791
 42
0.0
  0
VERTEX
  8
0
 10
124.459808346042
 20
29.4011074391709
 42
0.0
  0
VERTEX
  8
0
 10
124.499591562311
 20
29.3680030194638
 42
0.0
  0
VERTEX
  8
0
 10
124.590565712402
 20
29.2953289561398
 42
0.0
  0
VERTEX
  8
0
 10
124.750616805894
 20
29.165738917418
 42
0.0
  0
VERTEX
  8
0
 10
125.096915335078
 20
28.8841136037292
 42
0.0
  0
VERTEX
  8
0
 10
125.099755340637
 20
28.8828399903726
 42
0.0
  0
VERTEX
  8
0
 10
126.240529519295
 20
27.9586801739472
 42
0.0
  0
VERTEX
  8
0
 10
131.953869480118
 20
23.3292204713246
 42
0.0
  0
VERTEX
  8
0
 10
131.52420017341
 20
21.6664173534872
 42
0.1435765265056
  0
VERTEX
  8
0
 10
131.564227812081
 20
20.4289298279191
 42
0.0
  0
VERTEX
  8
0
 10
132.127270816198
 20
18.7157819340158
 42
0.0
  0
VERTEX
  8
0
 10
131.746078540799
 20
18.2466127650014
 42
0.0
  0
VERTEX
  8
0
 10
131.663079391222
 20
18.1436620155331
 42
0.0
  0
VERTEX
  8
0
 10
128.132101018871
 20
13.7835272554906
 42
0.0
  0
VERTEX
  8
0
 10
127.897884486762
 20
13.4954020771329
 42
0.0
  0
VERTEX
  8
0
 10
127.371524971666
 20
12.8455156820086
 42
0.0
  0
VERTEX
  8
0
 10
126.656286569929
 20
11.9631146888101
 42
0.0
  0
VERTEX
  8
0
 10
125.992717312721
 20
11.1442708501391
 42
0.0
  0
VERTEX
  8
0
 10
125.412247346365
 20
10.4279466655842
 42
0.0
  0
VERTEX
  8
0
 10
125.410821425177
 20
10.4251013605448
 42
0.0
  0
VERTEX
  8
0
 10
125.348888193419
 20
10.3497501550873
 42
0.0
  0
VERTEX
  8
0
 10
125.327713301861
 20
10.3228355528143
 42
0.0
  0
VERTEX
  8
0
 10
125.138224485797
 20
10.3342872914804
 42
0.0
  0
VERTEX
  8
0
 10
124.88691851101
 20
10.3474004366898
 42
0.0
  0
VERTEX
  8
0
 10
122.489291406994
 20
10.5867513334883
 42
0.0
  0
VERTEX
  8
0
 10
118.651667266516
 20
10.9053624452676
 42
0.0
  0
VERTEX
  8
0
 10
114.721804669202
 20
11.1795912625984
 42
0.0
  0
VERTEX
  8
0
 10
113.922592570729
 20
11.2246808633013
 42
0.0
  0
VERTEX
  8
0
 10
112.523636526606
 20
11.2987577478349
 42
0.0
  0
VERTEX
  8
0
 10
110.425011606912
 20
11.4039461926345
 42
0.0
  0
VERTEX
  8
0
 10
108.326139732532
 20
11.5047084845242
 42
0.1469353456348
  0
VERTEX
  8
0
 10
107.678426150406
 20
11.3445157600055
 42
0.1031908531535
  0
VERTEX
  8
0
 10
107.317991414166
 20
11.005500362253
 42
0.108276587521
  0
VERTEX
  8
0
 10
107.038168419365
 20
10.3252075702929
 42
0.099421866383
  0
VERTEX
  8
0
 10
107.046132582042
 20
9.5896023076704
 42
0.0
  0
VERTEX
  8
0
 10
107.133990471874
 20
9.2229540322111
 42
-0.01387237016
  0
VERTEX
  8
0
 10
107.38712899745
 20
8.1206648027477
 42
-0.1050971119481
  0
VERTEX
  8
0
 10
107.359246469933
 20
5.7031483618553
 42
-0.1093893879196
  0
VERTEX
  8
0
 10
106.334492052515
 20
3.5133129181287
 42
-0.0506187507385
  0
VERTEX
  8
0
 10
105.659530928652
 20
2.7880516585881
 42
-0.0557338337902
  0
VERTEX
  8
0
 10
104.952060332309
 20
2.2919537658271
 42
-0.1024400535923
  0
VERTEX
  8
0
 10
103.520891033382
 20
1.8584304018148
 42
-0.0590421079625
  0
VERTEX
  8
0
 10
102.406955289747
 20
1.8884772254173
 42
-0.0141726425628
  0
VERTEX
  8
0
 10
102.303655614663
 20
1.903678914488
 42
-0.030887483196
  0
VERTEX
  8
0
 10
101.514479968204
 20
2.0777440498531
 42
-0.0302766315505
  0
VERTEX
  8
0
 10
100.372867033836
 20
2.4824599582699
 42
-0.0197354621676
  0
VERTEX
  8
0
 10
99.2789364987224
 20
3.0023933780266
 42
0.0
  0
VERTEX
  8
0
 10
96.8711794385725
 20
4.2665222213482
 42
0.0027579994944
  0
VERTEX
  8
0
 10
94.7573620382962
 20
5.3629999965858
 42
0.0
  0
VERTEX
  8
0
 10
94.2928959964406
 20
5.5995391007835
 42
0.0031469760274
  0
VERTEX
  8
0
 10
93.8419930666609
 20
5.8269983838966
 42
0.0252382042569
  0
VERTEX
  8
0
 10
93.7872755887941
 20
5.8544401217242
 42
0.0251208630268
  0
VERTEX
  8
0
 10
93.7327582815556
 20
5.8817449960667
 42
0.0040317372468
  0
VERTEX
  8
0
 10
93.2981299408061
 20
6.0980591591317
 42
0.0025430394979
  0
VERTEX
  8
0
 10
92.4529517601068
 20
6.5109040990589
 42
0.0
  0
VERTEX
  8
0
 10
92.0550884754913
 20
6.7011988033526
 42
0.0
  0
VERTEX
  8
0
 10
91.6684953947576
 20
6.8833323772219
 42
0.0040217251461
  0
VERTEX
  8
0
 10
90.916306777695
 20
7.2291313688545
 42
0.0069777543618
  0
VERTEX
  8
0
 10
89.4926696988412
 20
7.8483215265132
 42
0.0158590792731
  0
VERTEX
  8
0
 10
86.9542481657033
 20
8.8164972577541
 42
0.0288979778225
  0
VERTEX
  8
0
 10
83.033102071945
 20
9.9226754217906
 42
0.0
  0
VERTEX
  8
0
 10
82.5347988031146
 20
10.0290637162474
 42
0.0232649759989
  0
VERTEX
  8
0
 10
79.0124614080043
 20
10.5810332228748
 42
0.0114912541159
  0
VERTEX
  8
0
 10
78.93409081088
 20
10.5896779879294
 42
0.0114513535157
  0
VERTEX
  8
0
 10
78.8558730235377
 20
10.5982612832716
 42
0.0114116667071
  0
VERTEX
  8
0
 10
78.777805282462
 20
10.6067837185311
 42
0.0083860160391
  0
VERTEX
  8
0
 10
73.7845024662539
 20
11.0620946518824
 42
0.0
  0
VERTEX
  8
0
 10
72.6905058708533
 20
11.1390426582638
 42
0.0114705257118
  0
VERTEX
  8
0
 10
72.5579846135905
 20
11.1478286092881
 42
0.0041799597287
  0
VERTEX
  8
0
 10
70.4451902261638
 20
11.2726550381227
 42
0.0062199166095
  0
VERTEX
  8
0
 10
66.4803075927808
 20
11.4331993788886
 42
0.0086537495582
  0
VERTEX
  8
0
 10
59.5371310560565
 20
11.5100571608188
 42
0.0
  0
VERTEX
  8
0
 10
58.2353308007853
 20
11.4994748452598
 42
0.0
  0
VERTEX
  8
0
 10
57.6251037435774
 20
11.4921270161462
 42
0.0
  0
VERTEX
  8
0
 10
57.3295085415544
 20
11.4880392304846
 42
0.0
  0
VERTEX
  8
0
 10
56.1657953022987
 20
11.4687103259765
 42
0.0
  0
VERTEX
  8
0
 10
55.893025347853
 20
11.4634555535677
 42
0.0
  0
VERTEX
  8
0
 10
55.6245237502942
 20
11.458022643877
 42
0.0
  0
VERTEX
  8
0
 10
55.3602317826872
 20
11.4524264191644
 42
0.0029940429509
  0
VERTEX
  8
0
 10
51.1988013604416
 20
11.3346960993904
 42
0.0
  0
VERTEX
  8
0
 10
50.8086952746495
 20
11.3210903579218
 42
0.0
  0
VERTEX
  8
0
 10
49.2973910474316
 20
11.2648031935707
 42
0.0
  0
VERTEX
  8
0
 10
47.9751055126146
 20
11.2112911026572
 42
0.0
  0
VERTEX
  8
0
 10
46.81820624871
 20
11.1615833232314
 42
0.0
  0
VERTEX
  8
0
 10
44.794026533709
 20
11.0690660168645
 42
0.0
  0
VERTEX
  8
0
 10
43.2760396074999
 20
10.9958590634667
 42
0.0
  0
VERTEX
  8
0
 10
42.1376408936495
 20
10.9392489996444
 42
0.0
  0
VERTEX
  8
0
 10
41.2838585572323
 20
10.8960135679692
 42
0.0
  0
VERTEX
  8
0
 10
40.643534523007
 20
10.8632253319762
 42
0.0
  0
VERTEX
  8
0
 10
40.403408963288
 20
10.8508603486683
 42
0.0
  0
VERTEX
  8
0
 10
38.7228062456631
 20
10.7635044871968
 42
0.0
  0
VERTEX
  8
0
 10
33.0215299911026
 20
10.3812127095036
 42
0.2538196168929
  0
VERTEX
  8
0
 10
29.8548409557464
 20
8.5342127653477
 42
0.0
  0
VERTEX
  8
0
 10
29.8548398734879
 20
8.5342109827302
 42
0.0
  0
VERTEX
  8
0
 10
29.7231071632403
 20
8.3174090592734
 42
0.0
  0
VERTEX
  8
0
 10
28.3980367724603
 20
6.1381917912005
 42
0.0
  0
VERTEX
  8
0
 10
28.1867413038797
 20
5.7902738967006
 42
0.0
  0
VERTEX
  8
0
 10
19.503512152396
 20
5.6439412304636
 42
0.0
  0
VERTEX
  8
0
 10
19.1604055881381
 20
5.6373402262154
 42
0.0
  0
VERTEX
  8
0
 10
8.3852047635012
 20
1.9325002912909
 42
0.0
  0
VERTEX
  8
0
 10
5.767071214462
 20
5.4099757648086
 42
0.0
  0
VERTEX
  8
0
 10
3.9078822454769
 20
7.8797069245472
 42
0.0
  0
VERTEX
  8
0
 10
3.5435990454166
 20
8.3633940515633
 42
0.0
  0
VERTEX
  8
0
 10
2.9537034336269
 20
9.1480278547447
 42
0.0
  0
VERTEX
  8
0
 10
1.3143289274678
 20
11.3247943507771
 42
0.0
  0
VERTEX
  8
0
 10
2.6319303053743
 20
13.204587409258
 42
0.0
  0
VERTEX
  8
0
 10
2.95372182187
 20
13.6652802408812
 42
0.0
  0
VERTEX
  8
0
 10
4.4855194445072
 20
15.8489202106911
 42
0.0
  0
VERTEX
  8
0
 10
5.0464572450113
 20
16.6488929827508
 42
0.0
  0
VERTEX
  8
0
 10
4.2033607837949
 20
17.9349811790636
 42
0.0
  0
VERTEX
  8
0
 10
4.9623762704759
 20
19.1844546525354
 42
0.0
  0
VERTEX
  8
0
 10
1.0937248029468
 20
24.3226720404087
 42
0.0
  0
VERTEX
  8
0
 10
2.5637041063755
 20
26.4200616090491
 42
0.0
  0
VERTEX
  8
0
 10
3.584436842011
 20
27.8758138576141
 42
0.0
  0
VERTEX
  8
0
 10
5.346023407638
 20
30.3900973573384
 42
0.0
  0
VERTEX
  8
0
 10
5.8307650716125
 20
31.0812589170252
 42
0.0
  0
SEQEND
  0
POLYLINE
  8
0
 66
     1
 10
0.0
 20
0.0
 30
0.0
 70
     1
  0
VERTEX
  8
0
 10
104.302978643061
 20
5.0977717299923
 42
0.0
  0
VERTEX
  8
0
 10
104.486293710158
 20
5.3292695807904
 42
0.002483123754
  0
VERTEX
  8
0
 10
104.621340930993
 20
5.5049068757737
 42
0.0228945986167
  0
VERTEX
  8
0
 10
104.809215096852
 20
5.7790653036883
 42
0.035023403844
  0
VERTEX
  8
0
 10
104.966423116877
 20
6.0719842562699
 42
0.1131788331885
  0
VERTEX
  8
0
 10
105.099538680084
 20
6.7441806358529
 42
0.1397129611754
  0
VERTEX
  8
0
 10
104.788252988613
 20
7.7135942172777
 42
0.0718333464778
  0
VERTEX
  8
0
 10
104.446806749307
 20
8.0992066603151
 42
0.0806650733699
  0
VERTEX
  8
0
 10
104.005480540838
 20
8.3648062671238
 42
0.0989649131397
  0
VERTEX
  8
0
 10
103.312676181752
 20
8.4945633799736
 42
0.0729054352867
  0
VERTEX
  8
0
 10
102.793224967923
 20
8.4109904401148
 42
0.0801222582099
  0
VERTEX
  8
0
 10
102.092147978005
 20
8.0577087887158
 42
0.0527286686612
  0
VERTEX
  8
0
 10
101.505536236043
 20
7.5359162933727
 42
0.0
  0
VERTEX
  8
0
 10
101.428694644772
 20
7.4517199891139
 42
0.0195051521614
  0
VERTEX
  8
0
 10
101.151402352765
 20
7.1262236778435
 42
0.0171768535562
  0
VERTEX
  8
0
 10
100.963253697854
 20
6.8653714364935
 42
0.0520633442286
  0
VERTEX
  8
0
 10
100.739868533035
 20
6.4374730648989
 42
0.0685513875769
  0
VERTEX
  8
0
 10
100.627866853101
 20
5.9680226223396
 42
0.1316680513885
  0
VERTEX
  8
0
 10
100.748735732094
 20
5.0648642812592
 42
0.1842882358961
  0
VERTEX
  8
0
 10
101.681329634772
 20
4.0869941688861
 42
0.1003195707364
  0
VERTEX
  8
0
 10
102.351206882801
 20
3.9193848847838
 42
0.1060030446738
  0
VERTEX
  8
0
 10
103.031762168283
 20
4.0363972091859
 42
0.0603378389246
  0
VERTEX
  8
0
 10
103.397130594325
 20
4.2389228236982
 42
0.0440979153025
  0
VERTEX
  8
0
 10
103.866837004677
 20
4.6506439657182
 42
0.0
  0
VERTEX
  8
0
 10
104.083381659363
 20
4.87569492694
 42
0.0
  0
VERTEX
  8
0
 10
104.191785129301
 20
4.9880630513454
 42
-0.0140627125487
  0
VERTEX
  8
0
 10
104.21925780983
 20
5.0158763025637
 42
0.0
  0
VERTEX
  8
0
 10
104.26082846302
 20
5.0571564194774
 42
0.0
  0
SEQEND
  0
POLYLINE
  8
0
 66
     1
 10
0.0
 20
0.0
 30
0.0
 70
     1
  0
VERTEX
  8
0
 10
10.0801192960342
 20
26.6925966083924
 42
0.0
  0
VERTEX
  8
0
 10
10.05598888832
 20
26.6724667357858
 42
0.0
  0
VERTEX
  8
0
 10
9.6753465708548
 20
26.2786527035271
 42
0.0
  0
VERTEX
  8
0
 10
9.5423943265625
 20
26.0961699281726
 42
0.0
  0
VERTEX
  8
0
 10
9.4562261941104
 20
25.8780560505824
 42
0.0
  0
VERTEX
  8
0
 10
9.4181380975331
 20
25.6257794225864
 42
0.0
  0
VERTEX
  8
0
 10
9.4305114426953
 20
25.3490553295899
 42
0.0
  0
VERTEX
  8
0
 10
9.4917859853155
 20
25.0547424644612
 42
0.0
  0
VERTEX
  8
0
 10
9.5590882587774
 20
24.8640290595064
 42
0.0
  0
VERTEX
  8
0
 10
9.600397982931
 20
24.7468782922008
 42
0.0
  0
VERTEX
  8
0
 10
9.7546401481036
 20
24.4350866647881
 42
0.0
  0
VERTEX
  8
0
 10
9.9515075028665
 20
24.1275738516496
 42
0.0
  0
VERTEX
  8
0
 10
10.1838070629158
 20
23.8309263109924
 42
0.0
  0
VERTEX
  8
0
 10
10.4471639630485
 20
23.5532772322879
 42
0.0
  0
VERTEX
  8
0
 10
10.9165721283847
 20
23.1007981410341
 42
0.0
  0
VERTEX
  8
0
 10
11.0863501428296
 20
22.937083303267
 42
0.0
  0
VERTEX
  8
0
 10
11.1234600576337
 20
22.9011918379912
 42
0.0
  0
VERTEX
  8
0
 10
11.2884291085736
 20
22.7566253563428
 42
0.0
  0
VERTEX
  8
0
 10
11.4107810856065
 20
22.6491819817103
 42
0.0
  0
VERTEX
  8
0
 10
11.7162890731738
 20
22.4281508848091
 42
0.0
  0
VERTEX
  8
0
 10
12.0301492671261
 20
22.2446439171248
 42
0.0
  0
VERTEX
  8
0
 10
12.3481530821356
 20
22.1012849183122
 42
0.0
  0
VERTEX
  8
0
 10
12.6590411512721
 20
22.0031972594232
 42
0.0
  0
VERTEX
  8
0
 10
12.9558913826195
 20
21.9528341188106
 42
0.0
  0
VERTEX
  8
0
 10
13.233117389199
 20
21.9500519514984
 42
0.0
  0
VERTEX
  8
0
 10
13.3646270087871
 20
21.9753158788469
 42
0.0
  0
VERTEX
  8
0
 10
13.4837966200687
 20
21.9987780113705
 42
0.0
  0
VERTEX
  8
0
 10
13.6983748050232
 20
22.0931138958836
 42
0.0
  0
VERTEX
  8
0
 10
13.8755056749715
 20
22.2330381776071
 42
0.0
  0
VERTEX
  8
0
 10
14.254730409884
 20
22.6281499003934
 42
0.0
  0
VERTEX
  8
0
 10
14.3890748520904
 20
22.8093341019735
 42
0.0
  0
VERTEX
  8
0
 10
14.4751952892261
 20
23.0288187500465
 42
0.0
  0
VERTEX
  8
0
 10
14.5120088892004
 20
23.2782807571216
 42
0.0
  0
VERTEX
  8
0
 10
14.5010054312744
 20
23.5550779300732
 42
0.0
  0
VERTEX
  8
0
 10
14.4396599994129
 20
23.852158604053
 42
0.0
  0
VERTEX
  8
0
 10
14.331071195722
 20
24.1586257379454
 42
0.0
  0
VERTEX
  8
0
 10
14.1754591433134
 20
24.470344285403
 42
0.0
  0
VERTEX
  8
0
 10
13.9800133283101
 20
24.7779065603514
 42
0.0
  0
VERTEX
  8
0
 10
13.7967490527384
 20
25.0114764807757
 42
0.0
  0
VERTEX
  8
0
 10
13.7476621157375
 20
25.0745777191537
 42
0.0
  0
VERTEX
  8
0
 10
13.4829344451217
 20
25.3521791025417
 42
0.0
  0
VERTEX
  8
0
 10
12.8080559330893
 20
26.0029668063104
 42
0.0
  0
VERTEX
  8
0
 10
12.5193672085945
 20
26.2563015042509
 42
0.0
  0
VERTEX
  8
0
 10
12.2151809887259
 20
26.4773277606984
 42
0.0
  0
VERTEX
  8
0
 10
11.8998760610889
 20
26.6621823049412
 42
0.0
  0
VERTEX
  8
0
 10
11.7023298886635
 20
26.7518109410932
 42
0.0
  0
VERTEX
  8
0
 10
11.5832684012008
 20
26.8055898823169
 42
0.0
  0
VERTEX
  8
0
 10
11.2710563736514
 20
26.902284460045
 42
0.0
  0
VERTEX
  8
0
 10
11.143426513899
 20
26.9240214707363
 42
0.0
  0
VERTEX
  8
0
 10
10.9742324101893
 20
26.9526230992658
 42
0.0
  0
VERTEX
  8
0
 10
10.8500875555286
 20
26.9538186726777
 42
0.0
  0
VERTEX
  8
0
 10
10.6970042128958
 20
26.9540073449631
 42
0.0
  0
VERTEX
  8
0
 10
10.4476765157914
 20
26.9080731711133
 42
0.0
  0
VERTEX
  8
0
 10
10.231749871032
 20
26.8123179375539
 42
0.0
  0
SEQEND
  0
POLYLINE
  8
0
 66
     1
 10
0.0
 20
0.0
 30
0.0
 70
     1
  0
VERTEX
  8
0
 10
23.7373099178506
 20
25.9157801627955
 42
0.0
  0
VERTEX
  8
0
 10
23.4832571404223
 20
25.6477291494598
 42
0.0
  0
VERTEX
  8
0
 10
23.1906645566721
 20
25.3383333681064
 42
0.0
  0
VERTEX
  8
0
 10
23.097537380729
 20
25.2413357490651
 42
0.0
  0
VERTEX
  8
0
 10
22.8497129158517
 20
24.9527879198058
 42
0.0
  0
VERTEX
  8
0
 10
22.6327972043595
 20
24.6487955551642
 42
0.0
  0
VERTEX
  8
0
 10
22.4507095857212
 20
24.3335869014069
 42
0.0
  0
VERTEX
  8
0
 10
22.3114143197943
 20
24.0171223274683
 42
0.0
  0
VERTEX
  8
0
 10
22.214720625313
 20
23.7048849152805
 42
0.0
  0
VERTEX
  8
0
 10
22.1658013351383
 20
23.4067124920132
 42
0.0
  0
VERTEX
  8
0
 10
22.165611779606
 20
23.2536545340187
 42
0.0
  0
VERTEX
  8
0
 10
22.1643676276309
 20
23.1309058344797
 42
0.0
  0
VERTEX
  8
0
 10
22.2116743384571
 20
22.8815750634149
 42
0.0
  0
VERTEX
  8
0
 10
22.3046871478038
 20
22.6655784126609
 42
0.0
  0
VERTEX
  8
0
 10
22.4431675790891
 20
22.4897697346324
 42
0.0
  0
VERTEX
  8
0
 10
22.6573421515876
 20
22.277963435272
 42
0.0
  0
VERTEX
  8
0
 10
22.8300524882643
 20
22.1088609062062
 42
0.0
  0
VERTEX
  8
0
 10
23.0084211856768
 20
21.9758163452417
 42
0.0
  0
VERTEX
  8
0
 10
23.2237935223011
 20
21.8895528221565
 42
0.0
  0
VERTEX
  8
0
 10
23.4706102622901
 20
21.8498769059448
 42
0.0
  0
VERTEX
  8
0
 10
23.6151302743561
 20
21.8576756874417
 42
0.0
  0
VERTEX
  8
0
 10
23.7417519255148
 20
21.8634538584691
 42
0.0
  0
VERTEX
  8
0
 10
24.0333495175627
 20
21.9246085090647
 42
0.0
  0
VERTEX
  8
0
 10
24.3343353360169
 20
22.0329557622124
 42
0.0
  0
VERTEX
  8
0
 10
24.6419629994573
 20
22.1870784595806
 42
0.0
  0
VERTEX
  8
0
 10
24.902207279079
 20
22.3560724652862
 42
0.0
  0
VERTEX
  8
0
 10
24.9426228434278
 20
22.3836819531225
 42
0.0
  0
VERTEX
  8
0
 10
25.235131804751
 20
22.6158629286142
 42
0.0
  0
VERTEX
  8
0
 10
25.5073223029157
 20
22.8790553153657
 42
0.0
  0
VERTEX
  8
0
 10
25.6242866835062
 20
23.0016877405974
 42
0.0
  0
VERTEX
  8
0
 10
26.1469407657128
 20
23.5535451988937
 42
0.0
  0
VERTEX
  8
0
 10
26.3961377675664
 20
23.8420899541923
 42
0.0
  0
VERTEX
  8
0
 10
26.6117094006813
 20
24.147458813017
 42
0.0
  0
VERTEX
  8
0
 10
26.793947136437
 20
24.4612748446396
 42
0.0
  0
VERTEX
  8
0
 10
26.9330931684932
 20
24.7791066560747
 42
0.0
  0
VERTEX
  8
0
 10
27.0297837890141
 20
25.0899715312865
 42
0.0
  0
VERTEX
  8
0
 10
27.0786755038363
 20
25.3867451496922
 42
0.0
  0
VERTEX
  8
0
 10
27.078448877193
 20
25.4736070014584
 42
0.0
  0
VERTEX
  8
0
 10
27.0802129406118
 20
25.6639532618269
 42
0.0
  0
VERTEX
  8
0
 10
27.034176344961
 20
25.9133028105832
 42
0.0
  0
VERTEX
  8
0
 10
26.9412650741684
 20
26.1293029943236
 42
0.0
  0
VERTEX
  8
0
 10
26.8026861782893
 20
26.3064806763417
 42
0.0
  0
VERTEX
  8
0
 10
26.4143512707551
 20
26.6859666227356
 42
0.0
  0
VERTEX
  8
0
 10
26.2360871858576
 20
26.8203872536627
 42
0.0
  0
VERTEX
  8
0
 10
26.020612427432
 20
26.9066726284001
 42
0.0
  0
VERTEX
  8
0
 10
25.7740687705463
 20
26.9436131863722
 42
0.0
  0
VERTEX
  8
0
 10
25.5027546795263
 20
26.9328005097122
 42
0.0
  0
VERTEX
  8
0
 10
25.4876201702625
 20
26.9295036361465
 42
0.0
  0
VERTEX
  8
0
 10
25.2110827000555
 20
26.8715924400998
 42
0.0
  0
VERTEX
  8
0
 10
24.910220730834
 20
26.7618770662089
 42
0.0
  0
VERTEX
  8
0
 10
24.6039638378763
 20
26.6078020641574
 42
0.0
  0
VERTEX
  8
0
 10
24.3018855281062
 20
26.4125216457818
 42
0.0
  0
VERTEX
  8
0
 10
24.010769647944
 20
26.1790167118774
 42
0.0
  0
SEQEND
  0
POLYLINE
  8
0
 66
     1
 10
0.0
 20
0.0
 30
0.0
 70
     1
  0
VERTEX
  8
0
 10
22.3417515208022
 20
18.9839012632001
 42
0.0
  0
VERTEX
  8
0
 10
22.3048197358114
 20
19.09429137801
 42
0.0
  0
VERTEX
  8
0
 10
22.1659626424987
 20
19.5183188761188
 42
0.0
  0
VERTEX
  8
0
 10
21.9194752092768
 20
20.0240479033664
 42
0.0
  0
VERTEX
  8
0
 10
21.6040415541511
 20
20.4901698763959
 42
0.0
  0
VERTEX
  8
0
 10
21.228225890935
 20
20.9086719567872
 42
0.0
  0
VERTEX
  8
0
 10
20.7965229768564
 20
21.2687056819872
 42
0.0
  0
VERTEX
  8
0
 10
20.3187229437686
 20
21.5664689896184
 42
0.0
  0
VERTEX
  8
0
 10
19.804759892721
 20
21.7940221212144
 42
0.0
  0
VERTEX
  8
0
 10
19.5164544155181
 20
21.8763755398356
 42
0.0
  0
VERTEX
  8
0
 10
19.2643753770047
 20
21.9489591695186
 42
0.0
  0
VERTEX
  8
0
 10
18.7073564545118
 20
22.0261055351765
 42
0.0
  0
VERTEX
  8
0
 10
18.1447970955457
 20
22.0258218123142
 42
0.0
  0
VERTEX
  8
0
 10
17.5891541264775
 20
21.9458219857001
 42
0.0
  0
VERTEX
  8
0
 10
17.0471383137715
 20
21.7904568433651
 42
0.0
  0
VERTEX
  8
0
 10
16.533881975978
 20
21.5616253372606
 42
0.0
  0
VERTEX
  8
0
 10
16.0575379635062
 20
21.2624068327754
 42
0.0
  0
VERTEX
  8
0
 10
15.6275402303163
 20
20.8999663146399
 42
0.0
  0
VERTEX
  8
0
 10
15.4575942289893
 20
20.7120536534196
 42
0.0
  0
VERTEX
  8
0
 10
15.2518740394768
 20
20.4814691918075
 42
0.0
  0
VERTEX
  8
0
 10
14.9385241950296
 20
20.0155549487598
 42
0.0
  0
VERTEX
  8
0
 10
14.6914170676115
 20
19.5091715210772
 42
0.0
  0
VERTEX
  8
0
 10
14.5183444892847
 20
18.9750435535593
 42
0.0
  0
VERTEX
  8
0
 10
14.4218340258246
 20
18.4201465571388
 42
0.0
  0
VERTEX
  8
0
 10
14.4027777280557
 20
17.8582867012376
 42
0.0
  0
VERTEX
  8
0
 10
14.4622116159983
 20
17.2991324591926
 42
0.0
  0
VERTEX
  8
0
 10
14.5773675594452
 20
16.8426381541309
 42
0.0
  0
VERTEX
  8
0
 10
14.5997750955259
 20
16.7537778013049
 42
0.0
  0
VERTEX
  8
0
 10
14.8109497912663
 20
16.2330195376037
 42
0.0
  0
VERTEX
  8
0
 10
15.0926077592672
 20
15.7464066736199
 42
0.0
  0
VERTEX
  8
0
 10
15.1517456153824
 20
15.671277866719
 42
0.0
  0
VERTEX
  8
0
 10
15.4389547852801
 20
15.30342085863
 42
0.0
  0
VERTEX
  8
0
 10
15.6529613114113
 20
15.0971746783638
 42
0.0
  0
VERTEX
  8
0
 10
15.8440959997493
 20
14.9135148242862
 42
0.0
  0
VERTEX
  8
0
 10
16.2996190724718
 20
14.5832580175969
 42
0.0
  0
VERTEX
  8
0
 10
16.7955342926668
 20
14.3192666628348
 42
0.0
  0
VERTEX
  8
0
 10
16.9700637748564
 20
14.2563874335977
 42
0.0
  0
VERTEX
  8
0
 10
17.2325810187168
 20
14.1621064545893
 42
0.0
  0
VERTEX
  8
0
 10
17.3247528643239
 20
14.1280545972782
 42
0.0
  0
VERTEX
  8
0
 10
17.4317196282786
 20
14.1055986238524
 42
0.0
  0
VERTEX
  8
0
 10
17.8748371629842
 20
14.0120864118759
 42
0.0
  0
VERTEX
  8
0
 10
18.4359975158195
 20
13.9736900934752
 42
0.0
  0
VERTEX
  8
0
 10
18.9971937957656
 20
14.0138793514196
 42
0.0
  0
VERTEX
  8
0
 10
19.5474042292278
 20
14.1309490889841
 42
0.0
  0
VERTEX
  8
0
 10
19.6931101554805
 20
14.1842826474047
 42
0.0
  0
VERTEX
  8
0
 10
19.7829334483724
 20
14.217728544057
 42
0.0
  0
VERTEX
  8
0
 10
19.8837272865559
 20
14.254351846471
 42
0.0
  0
VERTEX
  8
0
 10
20.0742945316006
 20
14.3243938944053
 42
0.0
  0
VERTEX
  8
0
 10
20.1569274551227
 20
14.3672728617707
 42
0.0
  0
VERTEX
  8
0
 10
20.5711499792108
 20
14.5885158273134
 42
0.0
  0
VERTEX
  8
0
 10
21.0257286041254
 20
14.9186953980032
 42
0.0
  0
VERTEX
  8
0
 10
21.4298972168723
 20
15.3105577412708
 42
0.0
  0
VERTEX
  8
0
 10
21.626577122653
 20
15.562837361494
 42
0.0
  0
VERTEX
  8
0
 10
21.7756928650618
 20
15.755565794436
 42
0.0
  0
VERTEX
  8
0
 10
22.0565688713882
 20
16.2424614980354
 42
0.0
  0
VERTEX
  8
0
 10
22.2659133930067
 20
16.7640509845177
 42
0.0
  0
VERTEX
  8
0
 10
22.3530631236802
 20
17.113189837068
 42
0.0
  0
VERTEX
  8
0
 10
22.3710914948637
 20
17.1896311766633
 42
0.0
  0
VERTEX
  8
0
 10
22.4013927193685
 20
17.3092481979944
 42
0.0
  0
VERTEX
  8
0
 10
22.4605466409531
 20
17.8684113572368
 42
0.0
  0
VERTEX
  8
0
 10
22.4396252069318
 20
18.4302526367157
 42
0.0
  0
SEQEND
  0
POLYLINE
  8
0
 66
     1
 10
0.0
 20
0.0
 30
0.0
 70
     1
  0
VERTEX
  8
0
 10
110.341868294709
 20
20.8682791271257
 42
0.0
  0
VERTEX
  8
0
 10
110.230247562623
 20
20.6285915264908
 42
0.0
  0
VERTEX
  8
0
 10
110.208570980433
 20
20.5795735109683
 42
0.0
  0
VERTEX
  8
0
 10
110.16220998708
 20
20.4511122866503
 42
0.0
  0
VERTEX
  8
0
 10
110.101849984983
 20
20.2794153198267
 42
0.0
  0
VERTEX
  8
0
 10
110.074047867655
 20
20.165400389205
 42
0.0
  0
VERTEX
  8
0
 10
110.027195421456
 20
19.9707150242802
 42
0.0
  0
VERTEX
  8
0
 10
109.98298793766
 20
19.6561865551372
 42
0.0
  0
VERTEX
  8
0
 10
109.969133026209
 20
19.3385460687249
 42
0.0
  0
VERTEX
  8
0
 10
109.98705572504
 20
19.0206642547211
 42
0.0
  0
VERTEX
  8
0
 10
110.036663293266
 20
18.7052065001756
 42
0.0
  0
VERTEX
  8
0
 10
110.114967339894
 20
18.3977110377254
 42
0.0
  0
VERTEX
  8
0
 10
110.215317694426
 20
18.1213032034997
 42
0.0
  0
VERTEX
  8
0
 10
110.224715129591
 20
18.0995696410639
 42
0.0
  0
VERTEX
  8
0
 10
110.245588466324
 20
18.0548024054374
 42
0.0
  0
VERTEX
  8
0
 10
110.262065510423
 20
18.0195146283731
 42
0.0
  0
VERTEX
  8
0
 10
110.325558703461
 20
17.889335178168
 42
0.0
  0
VERTEX
  8
0
 10
110.343448065438
 20
17.8499792519853
 42
0.0
  0
VERTEX
  8
0
 10
110.362813693659
 20
17.8120217064428
 42
0.0
  0
VERTEX
  8
0
 10
110.526783217128
 20
17.5405977467931
 42
0.0
  0
VERTEX
  8
0
 10
110.623529403449
 20
17.4116007342749
 42
0.0
  0
VERTEX
  8
0
 10
110.717594039963
 20
17.2866277085454
 42
0.0
  0
VERTEX
  8
0
 10
110.92946899392
 20
17.0554511286562
 42
0.0
  0
VERTEX
  8
0
 10
110.932405273358
 20
17.0514105896952
 42
0.0
  0
VERTEX
  8
0
 10
111.170262830398
 20
16.8404537440533
 42
0.0
  0
VERTEX
  8
0
 10
111.427662323492
 20
16.6522119773348
 42
0.0
  0
VERTEX
  8
0
 10
111.595034868023
 20
16.5532480530856
 42
0.0
  0
VERTEX
  8
0
 10
111.616328991309
 20
16.5402138411934
 42
0.0
  0
VERTEX
  8
0
 10
111.700650321164
 20
16.4907412679141
 42
0.0
  0
VERTEX
  8
0
 10
111.989481553046
 20
16.356025063619
 42
0.0
  0
VERTEX
  8
0
 10
112.28974523995
 20
16.2506547534931
 42
0.0
  0
VERTEX
  8
0
 10
112.598347529927
 20
16.1758951184259
 42
0.0
  0
VERTEX
  8
0
 10
112.716137371797
 20
16.1579330189814
 42
0.0
  0
VERTEX
  8
0
 10
112.913051500827
 20
16.1302958957417
 42
0.0
  0
VERTEX
  8
0
 10
113.231935375504
 20
16.1179583389026
 42
0.0
  0
VERTEX
  8
0
 10
113.549813232299
 20
16.1345338853977
 42
0.0
  0
VERTEX
  8
0
 10
113.862479559849
 20
16.1840189118575
 42
0.0
  0
VERTEX
  8
0
 10
113.929269249161
 20
16.200143374098
 42
0.0
  0
VERTEX
  8
0
 10
113.978640694983
 20
16.2128660859396
 42
0.0
  0
VERTEX
  8
0
 10
114.171553710345
 20
16.263699487474
 42
0.0
  0
VERTEX
  8
0
 10
114.470989299353
 20
16.3720436318556
 42
0.0
  0
VERTEX
  8
0
 10
114.756932702264
 20
16.5102388592196
 42
0.0
  0
VERTEX
  8
0
 10
115.000355159367
 20
16.6579594457255
 42
0.0
  0
VERTEX
  8
0
 10
115.028717770554
 20
16.6755171312014
 42
0.0
  0
VERTEX
  8
0
 10
115.28385461893
 20
16.8663939680185
 42
0.0
  0
VERTEX
  8
0
 10
115.517567861378
 20
17.0813307823346
 42
0.0
  0
VERTEX
  8
0
 10
115.729951122039
 20
17.3176368024608
 42
0.0
  0
VERTEX
  8
0
 10
115.836707949743
 20
17.4633724478514
 42
0.0
  0
VERTEX
  8
0
 10
115.918214740409
 20
17.5751387173548
 42
0.0
  0
VERTEX
  8
0
 10
115.929934250576
 20
17.5962346039882
 42
0.0
  0
VERTEX
  8
0
 10
116.079709492195
 20
17.8496270584424
 42
0.0
  0
VERTEX
  8
0
 10
116.21330923142
 20
18.1369453519444
 42
0.0
  0
VERTEX
  8
0
 10
116.280977081246
 20
18.332354979083
 42
0.0
  0
VERTEX
  8
0
 10
116.318507148556
 20
18.4370505482899
 42
0.0
  0
VERTEX
  8
0
 10
116.394636211833
 20
18.7471999937541
 42
0.0
  0
VERTEX
  8
0
 10
116.438842812382
 20
19.0617538475357
 42
0.0
  0
VERTEX
  8
0
 10
116.452444760696
 20
19.3793601168432
 42
0.0
  0
VERTEX
  8
0
 10
116.434775908249
 20
19.6972507633129
 42
0.0
  0
VERTEX
  8
0
 10
116.384963072202
 20
20.0113035302711
 42
0.0
  0
VERTEX
  8
0
 10
116.306864293396
 20
20.3202039803089
 42
0.0
  0
VERTEX
  8
0
 10
116.283892001564
 20
20.3814690054882
 42
0.0
  0
VERTEX
  8
0
 10
116.217056242212
 20
20.5638878163563
 42
0.0
  0
VERTEX
  8
0
 10
116.197116503699
 20
20.6183453769705
 42
0.0
  0
VERTEX
  8
0
 10
116.059066518194
 20
20.9044971564699
 42
0.0
  0
VERTEX
  8
0
 10
116.048495241734
 20
20.9234450156097
 42
0.0
  0
VERTEX
  8
0
 10
115.895048416163
 20
21.1773172712412
 42
0.0
  0
VERTEX
  8
0
 10
115.703983746942
 20
21.4312784770227
 42
0.0
  0
VERTEX
  8
0
 10
115.487951860181
 20
21.6650552784214
 42
0.0
  0
VERTEX
  8
0
 10
115.298540622038
 20
21.8349745528375
 42
0.0
  0
VERTEX
  8
0
 10
115.281513308744
 20
21.8495550717739
 42
0.0
  0
VERTEX
  8
0
 10
115.251568802891
 20
21.877461273981
 42
0.0
  0
VERTEX
  8
0
 10
115.066197019194
 20
22.0116345958597
 42
0.0
  0
VERTEX
  8
0
 10
114.99391634666
 20
22.0656688235948
 42
0.0
  0
VERTEX
  8
0
 10
114.853264973395
 20
22.1490170921336
 42
0.0
  0
VERTEX
  8
0
 10
114.720673619355
 20
22.2271560851878
 42
0.0
  0
VERTEX
  8
0
 10
114.622788553869
 20
22.272014009214
 42
0.0
  0
VERTEX
  8
0
 10
114.432397775561
 20
22.3605191839319
 42
0.0
  0
VERTEX
  8
0
 10
114.375023373494
 20
22.3805834102897
 42
0.0
  0
VERTEX
  8
0
 10
114.358283115345
 20
22.38691392169
 42
0.0
  0
VERTEX
  8
0
 10
114.132134088656
 20
22.4658894940581
 42
0.0
  0
VERTEX
  8
0
 10
114.126500889607
 20
22.4670913349272
 42
0.0
  0
VERTEX
  8
0
 10
113.95114498116
 20
22.5106261273
 42
0.0
  0
VERTEX
  8
0
 10
113.869258240115
 20
22.5339547483684
 42
0.0
  0
VERTEX
  8
0
 10
113.758019825712
 20
22.5535426470514
 42
0.0
  0
VERTEX
  8
0
 10
113.537623229802
 20
22.5913675643848
 42
0.0
  0
VERTEX
  8
0
 10
113.201950518414
 20
22.6114317877453
 42
0.0
  0
VERTEX
  8
0
 10
112.86478121955
 20
22.5941595891941
 42
0.0
  0
VERTEX
  8
0
 10
112.67683013582
 20
22.5614166721062
 42
0.0
  0
VERTEX
  8
0
 10
112.624777140191
 20
22.5527179470527
 42
0.0
  0
VERTEX
  8
0
 10
112.53276126806
 20
22.538460611642
 42
0.0
  0
VERTEX
  8
0
 10
112.209395051533
 20
22.4458800493734
 42
0.0
  0
VERTEX
  8
0
 10
112.195879894465
 20
22.4398692449994
 42
0.0
  0
VERTEX
  8
0
 10
112.077597716505
 20
22.3916325884762
 42
0.0
  0
VERTEX
  8
0
 10
111.950589370798
 20
22.3458371690736
 42
0.0
  0
VERTEX
  8
0
 10
111.865114675223
 20
22.3042825843417
 42
0.0
  0
VERTEX
  8
0
 10
111.816587439127
 20
22.2819059901359
 42
0.0
  0
VERTEX
  8
0
 10
111.718612972025
 20
22.2343759308941
 42
0.0
  0
VERTEX
  8
0
 10
111.664644201394
 20
22.2076927109871
 42
0.0
  0
VERTEX
  8
0
 10
111.393112979488
 20
22.0424232714716
 42
0.0
  0
VERTEX
  8
0
 10
111.379740908369
 20
22.0323001556489
 42
0.0
  0
VERTEX
  8
0
 10
111.137977014361
 20
21.8515210500155
 42
0.0
  0
VERTEX
  8
0
 10
111.033556748213
 20
21.7555029232128
 42
0.0
  0
VERTEX
  8
0
 10
110.90405850409
 20
21.6351792481121
 42
0.0
  0
VERTEX
  8
0
 10
110.691673476936
 20
21.3989239972628
 42
0.0
  0
VERTEX
  8
0
 10
110.683934604864
 20
21.3875990405714
 42
0.0
  0
VERTEX
  8
0
 10
110.503616892881
 20
21.1427763006792
 42
0.0
  0
VERTEX
  8
0
 10
110.448855127701
 20
21.0512308781822
 42
0.0
  0
VERTEX
  8
0
 10
110.435961776239
 20
21.0273492882535
 42
0.0
  0
SEQEND
  0
POLYLINE
  8
0
 66
     1
 10
0.0
 20
0.0
 30
0.0
 70
     1
  0
VERTEX
  8
0
 10
12.6478614461967
 20
14.0025832857756
 42
0.0
  0
VERTEX
  8
0
 10
12.4994139789785
 20
13.9491543367214
 42
0.0
  0
VERTEX
  8
0
 10
12.1890447745722
 20
13.7949362487202
 42
0.0
  0
VERTEX
  8
0
 10
11.8800863445027
 20
13.5994418551541
 42
0.0
  0
VERTEX
  8
0
 10
11.6143276733409
 20
13.3902521852599
 42
0.0
  0
VERTEX
  8
0
 10
11.5848581528915
 20
13.3657938353002
 42
0.0
  0
VERTEX
  8
0
 10
11.4380111567598
 20
13.2269232667735
 42
0.0
  0
VERTEX
  8
0
 10
11.3057914916342
 20
13.1037346256955
 42
0.0
  0
VERTEX
  8
0
 10
11.2645324550243
 20
13.0609228133153
 42
0.0
  0
VERTEX
  8
0
 10
11.0902579763438
 20
12.8783492648301
 42
0.0
  0
VERTEX
  8
0
 10
10.8333673840703
 20
12.6129697864652
 42
0.0
  0
VERTEX
  8
0
 10
10.6962842519068
 20
12.4703216569521
 42
0.0
  0
VERTEX
  8
0
 10
10.6536544448139
 20
12.4274621492551
 42
0.0
  0
VERTEX
  8
0
 10
10.401717668488
 20
12.1387712340463
 42
0.0
  0
VERTEX
  8
0
 10
10.1806642609087
 20
11.8346349002085
 42
0.0
  0
VERTEX
  8
0
 10
10.0700368952501
 20
11.6460159277063
 42
0.0
  0
VERTEX
  8
0
 10
9.995834218058
 20
11.5193562404566
 42
0.0
  0
VERTEX
  8
0
 10
9.8537991776585
 20
11.202745506608
 42
0.0
  0
VERTEX
  8
0
 10
9.7905560790648
 20
10.9992298411295
 42
0.0
  0
VERTEX
  8
0
 10
9.7557347126941
 20
10.8904603991038
 42
0.0
  0
VERTEX
  8
0
 10
9.705369805588
 20
10.5936609370335
 42
0.0
  0
VERTEX
  8
0
 10
9.705024512654
 20
10.5246970219538
 42
0.0
  0
VERTEX
  8
0
 10
9.7040109445293
 20
10.3164336229868
 42
0.0
  0
VERTEX
  8
0
 10
9.7226146517382
 20
10.2178339075836
 42
0.0
  0
VERTEX
  8
0
 10
9.7512913874701
 20
10.0671273533135
 42
0.0
  0
VERTEX
  8
0
 10
9.8456749672999
 20
9.851178397876
 42
0.0
  0
VERTEX
  8
0
 10
9.8572191986617
 20
9.836407097674
 42
0.0
  0
VERTEX
  8
0
 10
9.9855515537066
 20
9.6754182984111
 42
0.0
  0
VERTEX
  8
0
 10
10.2694293469343
 20
9.4025751092508
 42
0.0
  0
VERTEX
  8
0
 10
10.3793384348335
 20
9.2948258669763
 42
0.0
  0
VERTEX
  8
0
 10
10.4585237638649
 20
9.2381091158947
 42
0.0
  0
VERTEX
  8
0
 10
10.5618457115799
 20
9.1618998905691
 42
0.0
  0
VERTEX
  8
0
 10
10.7813312428996
 20
9.0757540687945
 42
0.0
  0
VERTEX
  8
0
 10
11.0308462447707
 20
9.0374173905064
 42
0.0
  0
VERTEX
  8
0
 10
11.1548248195573
 20
9.0417311669109
 42
0.0
  0
VERTEX
  8
0
 10
11.3076381182428
 20
9.0485731562634
 42
0.0
  0
VERTEX
  8
0
 10
11.5868475824468
 20
9.107848091625
 42
0.0
  0
VERTEX
  8
0
 10
11.6046465955139
 20
9.1112630907226
 42
0.0
  0
VERTEX
  8
0
 10
11.7612990246917
 20
9.1662737114894
 42
0.0
  0
VERTEX
  8
0
 10
11.9111163791462
 20
9.2197757404977
 42
0.0
  0
VERTEX
  8
0
 10
12.2228567782561
 20
9.3754902147078
 42
0.0
  0
VERTEX
  8
0
 10
12.3806697369816
 20
9.4760347291513
 42
0.0
  0
VERTEX
  8
0
 10
12.5304435545964
 20
9.5709622975958
 42
0.0
  0
VERTEX
  8
0
 10
12.8270919785
 20
9.8032364730065
 42
0.0
  0
VERTEX
  8
0
 10
13.1047401739577
 20
10.0666187577778
 42
0.0
  0
VERTEX
  8
0
 10
13.7568750300641
 20
10.7414933126027
 42
0.0
  0
VERTEX
  8
0
 10
14.00881180639
 20
11.0301842278121
 42
0.0
  0
VERTEX
  8
0
 10
14.2298665214369
 20
11.3357438679027
 42
0.0
  0
VERTEX
  8
0
 10
14.414695681041
 20
11.6510479122933
 42
0.0
  0
VERTEX
  8
0
 10
14.5581032584165
 20
11.9676555721815
 42
0.0
  0
VERTEX
  8
0
 10
14.6548201468224
 20
12.2784959460014
 42
0.0
  0
VERTEX
  8
0
 10
14.7051110907267
 20
12.5766906799463
 42
0.0
  0
VERTEX
  8
0
 10
14.7060478446407
 20
12.7477178880891
 42
0.0
  0
VERTEX
  8
0
 10
14.7065207210627
 20
12.8539197604865
 42
0.0
  0
VERTEX
  8
0
 10
14.6792651008703
 20
13.0032270856748
 42
0.0
  0
VERTEX
  8
0
 10
14.6606119318514
 20
13.1032483408373
 42
0.0
  0
VERTEX
  8
0
 10
14.5662274687751
 20
13.3192226809135
 42
0.0
  0
VERTEX
  8
0
 10
14.4249801118854
 20
13.4949350850622
 42
0.0
  0
VERTEX
  8
0
 10
14.0312137749432
 20
13.8742066320447
 42
0.0
  0
VERTEX
  8
0
 10
13.8486841875189
 20
14.0085042621808
 42
0.0
  0
VERTEX
  8
0
 10
13.7647855433724
 20
14.04144613627
 42
0.0
  0
VERTEX
  8
0
 10
13.630569426682
 20
14.0946977792716
 42
0.0
  0
VERTEX
  8
0
 10
13.3797112644855
 20
14.1314628006829
 42
0.0
  0
VERTEX
  8
0
 10
13.1029394761725
 20
14.1204602260037
 42
0.0
  0
VERTEX
  8
0
 10
12.8072050712839
 20
14.0591362215733
 42
0.0
  0
SEQEND
  0
POLYLINE
  8
0
 66
     1
 10
0.0
 20
0.0
 30
0.0
 70
     1
  0
VERTEX
  8
0
 10
23.3717890385032
 20
10.9781651466656
 42
0.0
  0
VERTEX
  8
0
 10
24.0148249759795
 20
10.370390579015
 42
0.0
  0
VERTEX
  8
0
 10
24.0475819120385
 20
10.33981195859
 42
0.0
  0
VERTEX
  8
0
 10
24.3347572043216
 20
10.0919905676735
 42
0.0
  0
VERTEX
  8
0
 10
24.6020024389995
 20
9.9012702727691
 42
0.0
  0
VERTEX
  8
0
 10
24.6401724509955
 20
9.8736248578223
 42
0.0
  0
VERTEX
  8
0
 10
24.9553316429434
 20
9.6929587789436
 42
0.0
  0
VERTEX
  8
0
 10
25.2718456786918
 20
9.5522419732567
 42
0.0
  0
VERTEX
  8
0
 10
25.3303685374152
 20
9.5349625669485
 42
0.0
  0
VERTEX
  8
0
 10
25.5826575591072
 20
9.4570744310506
 42
0.0
  0
VERTEX
  8
0
 10
25.8807346265464
 20
9.4079739154192
 42
0.0
  0
VERTEX
  8
0
 10
26.0972943860939
 20
9.4073760921262
 42
0.0
  0
VERTEX
  8
0
 10
26.1580608294076
 20
9.4066947412627
 42
0.0
  0
VERTEX
  8
0
 10
26.407317672076
 20
9.4524739575409
 42
0.0
  0
VERTEX
  8
0
 10
26.622141329976
 20
9.545598445376
 42
0.0
  0
VERTEX
  8
0
 10
26.6676566820359
 20
9.5814928811962
 42
0.0
  0
VERTEX
  8
0
 10
26.7992936273555
 20
9.6841764580082
 42
0.0
  0
VERTEX
  8
0
 10
27.0975154877527
 20
9.9881004797331
 42
0.0
  0
VERTEX
  8
0
 10
27.1787564146296
 20
10.0709856374884
 42
0.0
  0
VERTEX
  8
0
 10
27.3130487800915
 20
10.2507447663222
 42
0.0
  0
VERTEX
  8
0
 10
27.3993871496253
 20
10.4646964464329
 42
0.0
  0
VERTEX
  8
0
 10
27.4378192185467
 20
10.7114699073386
 42
0.0
  0
VERTEX
  8
0
 10
27.4255381900569
 20
10.9840799223927
 42
0.0
  0
VERTEX
  8
0
 10
27.3924060537788
 20
11.1401211731654
 42
0.0
  0
VERTEX
  8
0
 10
27.364355964109
 20
11.2742787095796
 42
0.0
  0
VERTEX
  8
0
 10
27.2544642052154
 20
11.5765578023283
 42
0.0
  0
VERTEX
  8
0
 10
27.1004653570795
 20
11.8828173450256
 42
0.0
  0
VERTEX
  8
0
 10
26.9039157067753
 20
12.1848514924655
 42
0.0
  0
VERTEX
  8
0
 10
26.6716546201609
 20
12.4760106517114
 42
0.0
  0
VERTEX
  8
0
 10
26.4097625736767
 20
12.7495425785138
 42
0.0
  0
VERTEX
  8
0
 10
26.3471911289191
 20
12.8094043543553
 42
0.0
  0
VERTEX
  8
0
 10
25.9951043104571
 20
13.1405153169963
 42
0.0
  0
VERTEX
  8
0
 10
25.7341228912195
 20
13.38787568143
 42
0.0
  0
VERTEX
  8
0
 10
25.4455019820051
 20
13.6370700335437
 42
0.0
  0
VERTEX
  8
0
 10
25.1414833494784
 20
13.8540102464277
 42
0.0
  0
VERTEX
  8
0
 10
24.8263232742841
 20
14.0347017099443
 42
0.0
  0
VERTEX
  8
0
 10
24.5098110050289
 20
14.1753677463546
 42
0.0
  0
VERTEX
  8
0
 10
24.1989920586404
 20
14.2707383656696
 42
0.0
  0
VERTEX
  8
0
 10
23.9008450200121
 20
14.3196585390911
 42
0.0
  0
VERTEX
  8
0
 10
23.8773918046853
 20
14.3202403408449
 42
0.0
  0
VERTEX
  8
0
 10
23.6236422073572
 20
14.3210436680346
 42
0.0
  0
VERTEX
  8
0
 10
23.3742882423674
 20
14.2751339955769
 42
0.0
  0
VERTEX
  8
0
 10
23.1582915916137
 20
14.1821211862301
 42
0.0
  0
VERTEX
  8
0
 10
22.9810635645393
 20
14.0449892147497
 42
0.0
  0
VERTEX
  8
0
 10
22.6015749684058
 20
13.6567304611314
 42
0.0
  0
VERTEX
  8
0
 10
22.4685527181188
 20
13.4769901099894
 42
0.0
  0
VERTEX
  8
0
 10
22.3822414997172
 20
13.2629885438475
 42
0.0
  0
VERTEX
  8
0
 10
22.3439363539886
 20
13.016219499175
 42
0.0
  0
VERTEX
  8
0
 10
22.3440317446216
 20
13.0134779582095
 42
0.0
  0
VERTEX
  8
0
 10
22.3501941279211
 20
12.8758139892719
 42
0.0
  0
VERTEX
  8
0
 10
22.3547940762252
 20
12.7436107915878
 42
0.0
  0
VERTEX
  8
0
 10
22.4159010315039
 20
12.4533839700227
 42
0.0
  0
VERTEX
  8
0
 10
22.5256689411652
 20
12.1524729980171
 42
0.0
  0
VERTEX
  8
0
 10
22.6811409815848
 20
11.8462392989844
 42
0.0
  0
VERTEX
  8
0
 10
22.8763951320753
 20
11.5441854906059
 42
0.0
  0
VERTEX
  8
0
 10
23.1085761075667
 20
11.2516765292827
 42
0.0
  0
SEQEND
  0
POLYLINE
  8
0
 66
     1
 10
0.0
 20
0.0
 30
0.0
 70
     1
  0
VERTEX
  8
0
 10
90.5300134145573
 20
19.9041337568292
 42
0.0
  0
VERTEX
  8
0
 10
90.5132883897235
 20
19.8740004106085
 42
0.0
  0
VERTEX
  8
0
 10
90.5011773242566
 20
19.8542888392265
 42
0.0
  0
VERTEX
  8
0
 10
90.4275784766462
 20
19.6742773728935
 42
0.0
  0
VERTEX
  8
0
 10
90.3735663818266
 20
19.4898286503023
 42
0.0
  0
VERTEX
  8
0
 10
90.3661478388161
 20
19.4510375765059
 42
0.0
  0
VERTEX
  8
0
 10
90.3404142755064
 20
19.2984038910211
 42
0.0
  0
VERTEX
  8
0
 10
90.3291269116042
 20
19.1051805211334
 42
0.0
  0
VERTEX
  8
0
 10
90.3398981582556
 20
18.9113975822256
 42
0.0
  0
VERTEX
  8
0
 10
90.3706985798263
 20
18.7208946311433
 42
0.0
  0
VERTEX
  8
0
 10
90.4250341056452
 20
18.5350733470902
 42
0.0
  0
VERTEX
  8
0
 10
90.4981263942384
 20
18.3550471619503
 42
0.0
  0
VERTEX
  8
0
 10
90.5679216202894
 20
18.2289140005627
 42
0.0
  0
VERTEX
  8
0
 10
90.5707031380296
 20
18.2238920140269
 42
0.0
  0
VERTEX
  8
0
 10
90.5896624913747
 20
18.189810426877
 42
0.0
  0
VERTEX
  8
0
 10
90.5912160694141
 20
18.1860254067902
 42
0.0
  0
VERTEX
  8
0
 10
90.6428033690462
 20
18.1132427546343
 42
0.0
  0
VERTEX
  8
0
 10
90.7024112306874
 20
18.0278948578181
 42
0.0
  0
VERTEX
  8
0
 10
90.830674512238
 20
17.8832262004488
 42
0.0
  0
VERTEX
  8
0
 10
90.9236133252138
 20
17.8002703344975
 42
0.0
  0
VERTEX
  8
0
 10
90.975253008396
 20
17.7532255337167
 42
0.0
  0
VERTEX
  8
0
 10
91.1322229123524
 20
17.6416901987115
 42
0.0
  0
VERTEX
  8
0
 10
91.2501860073752
 20
17.5751035333558
 42
0.0
  0
VERTEX
  8
0
 10
91.2552463383057
 20
17.5726965231273
 42
0.0
  0
VERTEX
  8
0
 10
91.3026215899274
 20
17.5460495100192
 42
0.0
  0
VERTEX
  8
0
 10
91.4331564532141
 20
17.4927445898048
 42
0.0
  0
VERTEX
  8
0
 10
91.4812544692952
 20
17.4725685811257
 42
0.0
  0
VERTEX
  8
0
 10
91.667265368666
 20
17.4186108415156
 42
0.0
  0
VERTEX
  8
0
 10
91.8573397561551
 20
17.3840846616047
 42
0.0
  0
VERTEX
  8
0
 10
92.0505888380708
 20
17.3741015823767
 42
0.0
  0
VERTEX
  8
0
 10
92.2443073574535
 20
17.3846810035759
 42
0.0
  0
VERTEX
  8
0
 10
92.4347065719535
 20
17.4157384936879
 42
0.0
  0
VERTEX
  8
0
 10
92.6205601889974
 20
17.4684636804729
 42
0.0
  0
VERTEX
  8
0
 10
92.7347829880211
 20
17.5161845184462
 42
0.0
  0
VERTEX
  8
0
 10
92.8006814470737
 20
17.5429100631223
 42
0.0
  0
VERTEX
  8
0
 10
92.9694827660538
 20
17.63620535033
 42
0.0
  0
VERTEX
  8
0
 10
93.127673402728
 20
17.7483979183548
 42
0.0
  0
VERTEX
  8
0
 10
93.2739649665912
 20
17.8756512581464
 42
0.0
  0
VERTEX
  8
0
 10
93.3279612269615
 20
17.937959934397
 42
0.0
  0
VERTEX
  8
0
 10
93.40258951705
 20
18.0202766649863
 42
0.0
  0
VERTEX
  8
0
 10
93.5139632844582
 20
18.1771224572705
 42
0.0
  0
VERTEX
  8
0
 10
93.608320491575
 20
18.3462678786719
 42
0.0
  0
VERTEX
  8
0
 10
93.6643111172215
 20
18.4806641719254
 42
0.0
  0
VERTEX
  8
0
 10
93.6831036300061
 20
18.5262968538482
 42
0.0
  0
VERTEX
  8
0
 10
93.7186679546118
 20
18.6483941012084
 42
0.0
  0
VERTEX
  8
0
 10
93.7373079458333
 20
18.7120319567148
 42
0.0
  0
VERTEX
  8
0
 10
93.7705045245972
 20
18.9021785713586
 42
0.0
  0
VERTEX
  8
0
 10
93.7815535479202
 20
19.0954410442986
 42
0.0
  0
VERTEX
  8
0
 10
93.7724399789927
 20
19.2892579633254
 42
0.0
  0
VERTEX
  8
0
 10
93.7397015373668
 20
19.4809731739438
 42
0.0
  0
VERTEX
  8
0
 10
93.7151234829721
 20
19.5675636144862
 42
0.0
  0
VERTEX
  8
0
 10
93.6873048551674
 20
19.6655585291155
 42
0.0
  0
VERTEX
  8
0
 10
93.68301176114
 20
19.6731583991357
 42
0.0
  0
VERTEX
  8
0
 10
93.628333951206
 20
19.8075194141458
 42
0.0
  0
VERTEX
  8
0
 10
93.6127924058652
 20
19.8455353004294
 42
0.0
  0
VERTEX
  8
0
 10
93.519464390111
 20
20.0145961586418
 42
0.0
  0
VERTEX
  8
0
 10
93.4464491736267
 20
20.1174880333296
 42
0.0
  0
VERTEX
  8
0
 10
93.4073224550319
 20
20.1726937650633
 42
0.0
  0
VERTEX
  8
0
 10
93.3818707495054
 20
20.2026629817539
 42
0.0
  0
VERTEX
  8
0
 10
93.2801973447305
 20
20.3187054146039
 42
0.0
  0
VERTEX
  8
0
 10
93.2440507850105
 20
20.3495585028901
 42
0.0
  0
VERTEX
  8
0
 10
93.1354290982563
 20
20.4473486930254
 42
0.0
  0
VERTEX
  8
0
 10
93.0141458747866
 20
20.5344370966397
 42
0.0
  0
VERTEX
  8
0
 10
92.9784583707364
 20
20.5589076973752
 42
0.0
  0
VERTEX
  8
0
 10
92.9286725357211
 20
20.5867268293988
 42
0.0
  0
VERTEX
  8
0
 10
92.8092431604184
 20
20.6545895642562
 42
0.0
  0
VERTEX
  8
0
 10
92.6306094574863
 20
20.7280941624946
 42
0.0
  0
VERTEX
  8
0
 10
92.5358073942577
 20
20.7556266679906
 42
0.0
  0
VERTEX
  8
0
 10
92.4594077929986
 20
20.778704408385
 42
0.0
  0
VERTEX
  8
0
 10
92.4500869799425
 20
20.7809631771349
 42
0.0
  0
VERTEX
  8
0
 10
92.4450719450187
 20
20.7820683733804
 42
0.0
  0
VERTEX
  8
0
 10
92.2533407033694
 20
20.816536903827
 42
0.0
  0
VERTEX
  8
0
 10
92.0603283149056
 20
20.826528218693
 42
0.0
  0
VERTEX
  8
0
 10
91.8666106190865
 20
20.8159251281491
 42
0.0
  0
VERTEX
  8
0
 10
91.6762114045865
 20
20.7848676380365
 42
0.0
  0
VERTEX
  8
0
 10
91.5525454121539
 20
20.7497336389329
 42
0.0
  0
VERTEX
  8
0
 10
91.5422206687422
 20
20.7467913122531
 42
0.0
  0
VERTEX
  8
0
 10
91.4901219176549
 20
20.7321105462688
 42
0.0
  0
VERTEX
  8
0
 10
91.3912960535154
 20
20.6913949916082
 42
0.0
  0
VERTEX
  8
0
 10
91.3228384389412
 20
20.6633007102795
 42
0.0
  0
VERTEX
  8
0
 10
91.3102357059027
 20
20.6577197379474
 42
0.0
  0
VERTEX
  8
0
 10
91.1409618235836
 20
20.5643843101191
 42
0.0
  0
VERTEX
  8
0
 10
90.9829642314806
 20
20.453454453025
 42
0.0
  0
VERTEX
  8
0
 10
90.8383731706571
 20
20.3250042874043
 42
0.0
  0
VERTEX
  8
0
 10
90.7082823399185
 20
20.1816549500664
 42
0.0
  0
VERTEX
  8
0
 10
90.5952986614858
 20
20.0234023556449
 42
0.0
  0
VERTEX
  8
0
 10
90.5419910626938
 20
19.9276797621242
 42
0.0
  0
SEQEND
  0
POLYLINE
  8
0
 66
     1
 10
0.0
 20
0.0
 30
0.0
 70
     1
  0
VERTEX
  8
0
 10
118.824762706423
 20
20.7621191071379
 42
0.0
  0
VERTEX
  8
0
 10
118.808037681588
 20
20.7319857609169
 42
0.0
  0
VERTEX
  8
0
 10
118.795926616121
 20
20.7122741895349
 42
0.0
  0
VERTEX
  8
0
 10
118.72232776851
 20
20.5322627232022
 42
0.0
  0
VERTEX
  8
0
 10
118.668315673691
 20
20.347814000611
 42
0.0
  0
VERTEX
  8
0
 10
118.660897130682
 20
20.3090229268147
 42
0.0
  0
VERTEX
  8
0
 10
118.635163567372
 20
20.1563892413295
 42
0.0
  0
VERTEX
  8
0
 10
118.62387620347
 20
19.9631658714422
 42
0.0
  0
VERTEX
  8
0
 10
118.63464745012
 20
19.769382932534
 42
0.0
  0
VERTEX
  8
0
 10
118.665447871692
 20
19.578879981452
 42
0.0
  0
VERTEX
  8
0
 10
118.719783397509
 20
19.3930586973989
 42
0.0
  0
VERTEX
  8
0
 10
118.792875686104
 20
19.2130325122588
 42
0.0
  0
VERTEX
  8
0
 10
118.862670912155
 20
19.0868993508714
 42
0.0
  0
VERTEX
  8
0
 10
118.865452429894
 20
19.0818773643356
 42
0.0
  0
VERTEX
  8
0
 10
118.88441178324
 20
19.0477957771854
 42
0.0
  0
VERTEX
  8
0
 10
118.88596536128
 20
19.0440107570986
 42
0.0
  0
VERTEX
  8
0
 10
118.93755266091
 20
18.9712281049428
 42
0.0
  0
VERTEX
  8
0
 10
118.997160522553
 20
18.8858802081266
 42
0.0
  0
VERTEX
  8
0
 10
119.125423804103
 20
18.7412115507573
 42
0.0
  0
VERTEX
  8
0
 10
119.218362617079
 20
18.658255684806
 42
0.0
  0
VERTEX
  8
0
 10
119.270002300261
 20
18.6112108840251
 42
0.0
  0
VERTEX
  8
0
 10
119.426972204217
 20
18.4996755490203
 42
0.0
  0
VERTEX
  8
0
 10
119.544935299239
 20
18.4330888836646
 42
0.0
  0
VERTEX
  8
0
 10
119.549995630172
 20
18.4306818734361
 42
0.0
  0
VERTEX
  8
0
 10
119.597370881793
 20
18.404034860328
 42
0.0
  0
VERTEX
  8
0
 10
119.72790574508
 20
18.3507299401132
 42
0.0
  0
VERTEX
  8
0
 10
119.776003761161
 20
18.3305539314345
 42
0.0
  0
VERTEX
  8
0
 10
119.962014660531
 20
18.276596191824
 42
0.0
  0
VERTEX
  8
0
 10
120.152089048021
 20
18.2420700119135
 42
0.0
  0
VERTEX
  8
0
 10
120.345338129936
 20
18.2320869326854
 42
0.0
  0
VERTEX
  8
0
 10
120.539056649318
 20
18.2426663538841
 42
0.0
  0
VERTEX
  8
0
 10
120.729455863818
 20
18.2737238439967
 42
0.0
  0
VERTEX
  8
0
 10
120.915309480863
 20
18.3264490307817
 42
0.0
  0
VERTEX
  8
0
 10
121.029532279887
 20
18.3741698687546
 42
0.0
  0
VERTEX
  8
0
 10
121.095430738939
 20
18.4008954134311
 42
0.0
  0
VERTEX
  8
0
 10
121.26423205792
 20
18.4941907006387
 42
0.0
  0
VERTEX
  8
0
 10
121.422422694594
 20
18.6063832686632
 42
0.0
  0
VERTEX
  8
0
 10
121.568714258457
 20
18.7336366084552
 42
0.0
  0
VERTEX
  8
0
 10
121.622710518826
 20
18.7959452847054
 42
0.0
  0
VERTEX
  8
0
 10
121.697338808916
 20
18.8782620152951
 42
0.0
  0
VERTEX
  8
0
 10
121.808712576324
 20
19.0351078075789
 42
0.0
  0
VERTEX
  8
0
 10
121.903069783441
 20
19.2042532289807
 42
0.0
  0
VERTEX
  8
0
 10
121.959060409088
 20
19.3386495222338
 42
0.0
  0
VERTEX
  8
0
 10
121.97785292187
 20
19.3842822041567
 42
0.0
  0
VERTEX
  8
0
 10
122.013417246477
 20
19.5063794515171
 42
0.0
  0
VERTEX
  8
0
 10
122.032057237699
 20
19.5700173070232
 42
0.0
  0
VERTEX
  8
0
 10
122.065253816463
 20
19.760163921667
 42
0.0
  0
VERTEX
  8
0
 10
122.076302839786
 20
19.953426394607
 42
0.0
  0
VERTEX
  8
0
 10
122.067189270859
 20
20.1472433136342
 42
0.0
  0
VERTEX
  8
0
 10
122.034450829232
 20
20.3389585242522
 42
0.0
  0
VERTEX
  8
0
 10
122.009872774837
 20
20.425548964795
 42
0.0
  0
VERTEX
  8
0
 10
121.982054147033
 20
20.523543879424
 42
0.0
  0
VERTEX
  8
0
 10
121.977761053005
 20
20.5311437494445
 42
0.0
  0
VERTEX
  8
0
 10
121.923083243072
 20
20.6655047644543
 42
0.0
  0
VERTEX
  8
0
 10
121.907541697729
 20
20.7035206507378
 42
0.0
  0
VERTEX
  8
0
 10
121.814213681976
 20
20.8725815089506
 42
0.0
  0
VERTEX
  8
0
 10
121.741198465492
 20
20.9754733836384
 42
0.0
  0
VERTEX
  8
0
 10
121.702071746897
 20
21.0306791153717
 42
0.0
  0
VERTEX
  8
0
 10
121.67662004137
 20
21.0606483320624
 42
0.0
  0
VERTEX
  8
0
 10
121.574946636595
 20
21.1766907649123
 42
0.0
  0
VERTEX
  8
0
 10
121.538800076875
 20
21.2075438531986
 42
0.0
  0
VERTEX
  8
0
 10
121.430178390121
 20
21.3053340433338
 42
0.0
  0
VERTEX
  8
0
 10
121.308895166651
 20
21.3924224469482
 42
0.0
  0
VERTEX
  8
0
 10
121.273207662601
 20
21.416893047684
 42
0.0
  0
VERTEX
  8
0
 10
121.223421827587
 20
21.4447121797075
 42
0.0
  0
VERTEX
  8
0
 10
121.103992452284
 20
21.5125749145649
 42
0.0
  0
VERTEX
  8
0
 10
120.925358749352
 20
21.5860795128034
 42
0.0
  0
VERTEX
  8
0
 10
120.830556686123
 20
21.6136120182994
 42
0.0
  0
VERTEX
  8
0
 10
120.754157084865
 20
21.6366897586938
 42
0.0
  0
VERTEX
  8
0
 10
120.744836271807
 20
21.6389485274434
 42
0.0
  0
VERTEX
  8
0
 10
120.739821236884
 20
21.6400537236892
 42
0.0
  0
VERTEX
  8
0
 10
120.548089995235
 20
21.6745222541358
 42
0.0
  0
VERTEX
  8
0
 10
120.35507760677
 20
21.6845135690015
 42
0.0
  0
VERTEX
  8
0
 10
120.161359910951
 20
21.6739104784575
 42
0.0
  0
VERTEX
  8
0
 10
119.970960696451
 20
21.6428529883452
 42
0.0
  0
VERTEX
  8
0
 10
119.847294704019
 20
21.6077189892414
 42
0.0
  0
VERTEX
  8
0
 10
119.836969960606
 20
21.6047766625616
 42
0.0
  0
VERTEX
  8
0
 10
119.78487120952
 20
21.5900958965776
 42
0.0
  0
VERTEX
  8
0
 10
119.686045345381
 20
21.549380341917
 42
0.0
  0
VERTEX
  8
0
 10
119.617587730805
 20
21.5212860605882
 42
0.0
  0
VERTEX
  8
0
 10
119.604984997767
 20
21.5157050882561
 42
0.0
  0
VERTEX
  8
0
 10
119.435711115448
 20
21.4223696604278
 42
0.0
  0
VERTEX
  8
0
 10
119.277713523345
 20
21.3114398033334
 42
0.0
  0
VERTEX
  8
0
 10
119.133122462522
 20
21.1829896377127
 42
0.0
  0
VERTEX
  8
0
 10
119.003031631783
 20
21.0396403003748
 42
0.0
  0
VERTEX
  8
0
 10
118.890047953351
 20
20.8813877059537
 42
0.0
  0
VERTEX
  8
0
 10
118.836740354559
 20
20.785665112433
 42
0.0
  0
SEQEND
  0
ENDSEC
  0
EOF
