<svg id="Layer_1" data-name="Layer 1" xmlns="http://www.w3.org/2000/svg" viewBox="0 0 317.3245 339.6442"><defs><style>.cls-1{fill:#4c4c4c;stroke:red;stroke-miterlimit:11.3386;stroke-width:0.008px;}</style></defs><path class="cls-1" d="M42.0573,342.4705H2.8346V300.8072L19.619,288.6123l14.3684-10.44,9.6372-7.002,1.2294-.8933L43.1263,269.09l-2.6306-2.143-.8787-.8653-1.3351-1.3146-1.7717-2.2-1.3152-2.1968-.8419-2.1742-.3657-2.1316.1162-2.0637.5093-1.6951.086-.2863,1.0715-1.8765,1.5392-1.7518,1.9843-1.6158.3231-.1955,2.0948-1.2671,2.8261-1.2926,3.206-1.1112,2.2394-.58.9751-.2527.34-.0882,3.8693-.72,4.15-.51,4.3852-.3,4.5808-.085,4.7338.13,3.3371.2385,1.5017.1073,1.8386.2095.0635-.0736.25-.2892.2788-.3229,4.5057-5.2186L96.4261,221.521l5.7515-6.74,17.4388-20.6674,2.29-2.7446,15.0349-18.0164,17.0448-20.6589,16.5968-20.3555,15.5935-19.3607.4-.496,2.7354-3.442L201.81,93.3137l14.3263-18.292,8.184-10.62,1.2454-1.4843-3.3122-11.089,9.9524-11.4081,4.1547-4.7623,2.0776-2.3814.6424-.7364,12.67-29.7059L264.039,3.9314l10.2537.9151.1824.0162,10.4663.9341L287.826,18.394l.3888,1.698.84,3.6674,4.3113.67,1.1854,3.9693,15.2867,1.3643,2.8716.2563,1.4858,6.4862.1362.5942,4.8113,21.0032,1.0076,4.3986-13.078,7.8271-1.318.7888L293.389,78.5177l-6.77,7.7611-2.1481,2.4626-8.6,9.8589L264.24,96.794l-.56-.087-.0683-.0106-.11.11-8.6387,9.4649-6.0228,6.7067-9.5026,10.5818-16.2312,18.3288-16.7782,19.199-17.1638,19.8794L171.78,201.3392l-.0529.0627-3.7644,4.4614-13.6214,16.1433-17.3254,20.7609L121.9068,261.08l-1.9361,2.3465-6.3143,7.7443-8.269,10.1418-.8545.8251-1.9191,1.8533-3.101,2.9947-3.0867,2.9808-9.0944,8.7826L42.0573,342.4705m-16.639-27.4478-.0369.6349.0369.635.1077.6293.1757.6094.2438.59.3061.5556.3686.5188.1417.1587.2835.3175.4733.4252.5216.3656.5556.309.59.2438.61.1758.6292.1077.635.034.635-.034.6293-.1077.2437-.07.3657-.1054.59-.2438.4649-.2585.0907-.05.5216-.3656.4734-.4252.4252-.4762.3685-.5188.3061-.5556.2438-.59.1757-.6094.1078-.6293.0068-.1276.0272-.5074-.034-.6349-.1078-.6293-.1757-.6095-.2438-.59-.3061-.5556-.3685-.5216-.4252-.4733-.4734-.4252-.5216-.3685-.0907-.05-.4649-.2562-.4456-.1842-.144-.06-.6094-.1757-.6293-.1077-.635-.0369-.635.0369-.6292.1077-.61.1757-.144.06-.4456.1842-.5556.3062-.5216.3685-.4733.4252-.2835.3156-.1417.1577-.3686.5216-.3061.5556-.2438.59-.1757.6095-.1077.6293m11.4661-14.57-.051.9524.051.9525.1616.9411.2636.9184.3657.8816.462.8362.2353.3306.3175.4461.6349.7115.7115.6378.78.5527.8334.4592.8815.3657.9184.2636.7286.1251.2126.0365.9524.0539.9524-.0539.9411-.1616.9185-.2636.8815-.3657.8334-.4592.1134-.08.6661-.4723.7115-.6378.635-.7115.5528-.7767.462-.8362.3657-.8816.2636-.9184.1616-.9411.0538-.9525-.0538-.9524-.1616-.9411-.22-.7625-.044-.1531-.3657-.8816-.462-.8362-.5528-.78-.635-.7115-.7115-.635-.6661-.4724-.1134-.08-.8334-.462-.8815-.3657-.9185-.2636-.9411-.1587-.9524-.0539-.9524.0539-.2126.0358-.7286.1229-.9184.2636-.8815.3657-.8334.462-.78.5528-.7115.635-.6349.7115-.3175.4477-.2353.3318-.462.8362-.3657.8816-.0441.1531-.22.7625-.1616.9411M269.72,30.7134l-.0121-.5159-.1842-2.6533-.1276-1.08-.12-.5669-.1013-.479-.0868-.2746-.225-.7119-.3969-.9014-.302-.5143-.1657-.2822-.5329-.6719-.5783-.53-.4247-.2584-.19-.1158-.6349-.21-.6378-.04-.2183.0152-1.3294.0926-.5307.108-.0958.02-.5981.2977-.5584.4563-.4989.6038-.4079.6957-.0258.0442-.3179.7653-.0316.0761-.0049.0118-.2664.95-.1446.8532-.0283.1673L259.869,27.13l.0255,1.0857.1871,2.6532.0962.8334.0285.2466.2211,1.046.2372.7415.0774.2421.2842.6521.11.2521.1222.2068.3484.59.4329.5486.0972.1232.1382.1254.4429.4018.6151.377.635.21.1263.0079.5114.0318.1758-.0122.101-.0071,1.271-.0884.6264-.13.2171-.107.381-.1878.5556-.4564.5018-.6066.4337-.737.344-.8379.0075-.0182.0352-.1253.2312-.8215.1729-1.02.0447-.6463.029-.42-.0134-.57m-4.8253,12.4724-.6.1276-.96.2041-1.4967.5442L260.43,44.81l-1.29.9382-.1645.1587-.9807.9469-.9808,1.2585-.7966,1.3777-.5981,1.48-.0793.3177-.0813.326-.2249.9011-.1672,1.5874.0567,1.59.0906.5177.1843,1.0527.4933,1.5165.2988.611.4013.8205.1639.2432.5982.8878.128.19,1.0658,1.1849.428.3595.7938.6667,1.3521.8447,1.4542.6463,1.5335.4394,1.5789.2239h1.5931l1.5788-.2239,1.5308-.4394.1956-.0868,1.2614-.5595,1.3521-.8447,1.2189-1.0262,1.0687-1.1849.1279-.19.5605-.8317.2016-.2993.7-1.4315.49-1.5165.2778-1.57.0274-.7682.0293-.8221-.1673-1.5874L277.35,50.97l-.2241-.5546-.3453-.8541-.0287-.071-.7965-1.3777-.9808-1.2585-1.148-1.1056L272.54,44.81l-1.4088-.7484-.5442-.1979-.9525-.3463-.9594-.2041-.6-.1276-1.59-.1105-1.59.1105M246.5594,60.1621l.324-.1442.4819-.2884.309-.1849.6341-.5051.0349-.0279.53-.5811.377-.6122.2126-.6322.0214-.2982.0239-.3339-.0715-1.1764-.022-.3628-.1219-.618-.2014-.4125-.0877-.18-.4479-.55-.5924-.49-.5982-.3468-.13-.0756-.5865-.2409-.184-.0756-.0713-.0293-.9383-.2551-1.0092-.1644-1.0544-.0624-1.0744.034-.7568.06-1.8709.1474-1.0686.1332-.2223.0492-.8152.18-.978.32-.85.38-.0453.02-.6551.3907-.0484.0289-.09.0538-.669.5329-.53.5811-.3742.6123-.0384.1129-.177.5192-.0453.6321.08,1.3207.0131.2157.1219.6208.2891.5924.4479.55.5953.49.7256.4224.4.1636.4451.1822.9354.2552,1.0091.1644,1.0545.0623,1.0744-.034,1.2869-.1013,1.3408-.1056,1.0686-.1332,1.0375-.23.9622-.3151.0158-.0052.5745-.2555m20.2971,11.3816-.0909.0056-.0908.0182-.53.1065-.5925.2863-.547.4479-.224.27-.2693.325-.4224.7285-.25.6079-.0341.0831-.059.1435-.003.0073-.2551.9355-.1616,1.0091-.0652,1.0545.0182.5726.0158.5017.207,2.6278.1332,1.0714.23,1.0347.1861.57.1342.411.117.2622.2827.6335.4734.7937.0372.0467.1363.1712.3594.4511.5811.5273.398.245.1217.075.0926.057.6321.2126.6322.0453,1.4217-.0864.1175-.0071.5528-.1091.0651-.0128.38-.1854.2126-.1038.55-.445.49-.5953.4252-.7285.343-.8419.0637-.2344.1914-.7038.1644-1.0063.0624-1.0545-.0341-1.0772-.2-2.5455-.0065-.0822-.1332-1.0687-.0424-.1915-.1329-.6006-.0543-.2453-.3175-.978-.0845-.188-.318-.7077-.4327-.7255-.0407-.0682-.0555-.07-.4774-.5993-.1729-.1585-.4054-.3716-.6151-.3742-.0816-.0278-.55-.1876-.6322-.0454-1.4455.088m19.8027-22.065-.5811.3412-.2154.1265-.6718.533-.4907.5352-.0394.043-.0544.0893-.32.5258-.21.635-.0425.6378.1077,1.5477.0429.2061.0468.2248.0407.1956.2977.5981.4564.5584.1273.1053.4764.3936.74.4337.8532.3543.2321.0652.7175.2013,1.02.17,1.0658.0765,1.0857-.0283,2.4633-.1711.19-.0132,1.0772-.1247.1486-.0318.8973-.1921.6056-.1915.3809-.12.4439-.1954.0267-.0117.0912-.04.34-.15.7994-.4677.669-.5329.53-.5783.1845-.3033.19-.3118.2126-.635.0341-.5476.0056-.09-.0265-.38-.0167-.24-.0645-.9268-.13-.6265-.2948-.5981-.35-.4261-.1063-.13-.6066-.5017-.74-.4337-.8532-.3543-.7679-.2155-.0237-.0066-.158-.0444-1.0176-.17-1.0659-.0737-.6037.0142-.4848.0114-2.5108.1743-.1424.01-.0307.0036-1.0464.1211-1.046.224-.9865.3118-.9011.3967h0M97.3332,263.7581l.0369-.635-.0369-.6349-.1077-.6293-.1758-.61-.2437-.59-.3062-.5556-.0332-.047-.04-.0573-.2948-.4172-.4252-.4734-.4734-.4252-.5187-.3685-.5584-.3062-.5868-.2438-.6123-.1757-.6293-.1077-.6349-.0369-.635.0369-.4365.075-.19.0327-.6123.1757-.59.2438-.1852.1021-.37.2041-.5188.3685-.4762.4252-.4223.4734-.3685.5215-.309.5556-.2438.59-.1757.61-.0846.4938-.0232.1355-.034.6349.034.635.0272.1587.0806.4706.1757.6094.2438.59.309.5556.3685.5188.4223.4762.4762.4252.5188.3685.5556.3061.59.2438.6123.1758.19.0326.4365.0751.635.034.6349-.034.6293-.1077.6123-.1758.5868-.2438.5584-.3061.5187-.3685.4734-.4252.4252-.4762.2948-.415.0737-.1038.3062-.5556.2437-.59.1758-.6094.0805-.4706.0272-.1587M50.2044,252.9609l-.2211-.3379-.1276-.195-.1014-.1219-.3067-.3685-.4564-.4422-.5046-.3855-.5471-.3288-.5782-.2665-.6038-.1984-.6236-.13-.6322-.06-.6378.0113-.6293.0851-.0566.014-.5613.139-.5981.2211-.567.2863-.5329.3487-.49.4053-.4393.4593-.1615.21-.2269.2948-.3288.5443-.2664.5782-.1985.6038-.13.6236-.0595.635.0142.635.0822.6321.1531.6179.2211.5953.0227.0454.2636.5244.3486.53.4054.49.4592.4422.5046.3883.5442.326.5811.2665.6038.1984.3572.0747.2664.0557.6321.0595.635-.0113.6321-.0822.618-.1559.5953-.2212.57-.2863.5329-.3486.4876-.4054.4422-.4592.3883-.5045.0057-.0094.3232-.5349.2636-.5783.1984-.6037.13-.6237.0595-.6349-.0113-.635-.0822-.6321-.1531-.6151-.2211-.5981Z" transform="translate(-2.8306 -2.8304)"/></svg>
