<svg id="Layer_1" data-name="Layer 1" xmlns="http://www.w3.org/2000/svg" viewBox="0 0 99.8511 377.7903"><defs><style>.cls-1{fill:#4c4c4c;stroke:red;stroke-miterlimit:11.3386;stroke-width:0.008px;}</style></defs><path class="cls-1" d="M90.7588,358.68,80.65,365.753l-7.1793,5.0238-1.4062.984-8.61,6.0245-5.1965-3.9186L50.95,368.3556l-2.211-1.6673L45.0123,368.95,41.55,366.6756,26.6107,377.1277l-5.7976-4.372-4.0214-3.0325-6.9479-5.24-1.9106-1.4407L.0047,357.0636l7.9285-23.0012L9.8438,328.52l.3253-.9437.4741-26.6413,7.4525-4.523.6333-.3844,1.9752-1.1987.5489-.3331.2694-3.0143.0913-1.134.9916-12.325,1.0034-13.8841.9213-14.3036.0945-1.6523.2445-4.2778.5029-8.7959.76-15.1512.68-15.5706.5754-15.446.4621-15.052.25-10.5279.0983-4.1329.0819-5.0256.0012-.0759.0507-3.1076.0987-6.06.0968-11.0194.0251-2.8562.0056-13.4816-.0229-2.7373-.086-10.2879-.0016-.1927-.2192-11.5115L28.2035,91.58,27.83,79.1923l-.0378-.8986-.1-2.3787-.3664-8.6963-.4992-9.085L26.7,55.8268l-.0091-.1649-.7682-11.14L25.027,33.6454,24.3851,27.14l.0969-.1116.2172-.25.3807-.4379.8313-.9562.005-.0057,2.7318-3.1424L47.6934.3275,47.95.0326l.0234-.027.448.39,6.976,6.065L68.99,18.278l2.5839,2.2464L74,22.6344l2.2564,1.9617,1.972,1.7145.0066.0057.2095.1821.0718.0625-.0488.5374-.0647.7117L77.49,34.5778l-1.2813,10.84-1.165,11.1061-.1461,1.61-.8538,9.41-.0461.508-.8,10.2416-.0542.6946-.0014.0175.3124-.0343,4.8911-.5361,3.0445-.0875.5385-.0155,1.3465-.0387,4.36.3146,3.7445.7739.5018.1982.5386.2128.907.3583,1.12.4423.0255.01,2.4152,1.6554L98.5971,84.34l.9892,2.4775.2608,2.8573-.4734,3.206-.81,2.3811-.2672.7852-.1215.3571-.3094.6151-1.6068,3.1947L93.6452,104.27l-.2357.3061-1.0028,1.031-.7276.52-.903.3157-1.6294.324-1.7688.394-1.7575.5669-1.6554.7029-.0737.0313-1.6838.8958-1.6214,1.0459-1.546,1.1856-1.4513,1.3153-1.3465,1.4343-1.2274,1.5364L73.9179,117.5l-.9524,1.6951-.6123,1.3345-.1928.42-.6477,1.7986-.2856,1.3543-.1534,1.2958-.0954,1.6278-.0008.016L70.2392,141.37l-.1169,4.3316-.1014,5.3178-.1707,8.9489-.04,3.3932-.135,11.2706-.0737,15.06.0255,15.4573.1247,15.5849L69.97,235.902l.128,5.9472.0443,2.055.1451,6.7436.4111,14.3292.51,13.91.5129,11.46.0909,2.03.1459,2.7226.0361.6747,2.18,1.4315.6034.3963,2.8423,1.8667,3.1981,2.1.9637.6329-.438,24.6132-.0173.9727,9.4327,30.8916m-5.5177-263.47.0412.05.0027.0032.0678.0822.4252.4082.386.2948.0817.0623.5017.3034.5358.2465.5584.1843.5783.1191.5839.0566.59-.0113.1758-.023.4082-.0535.57-.1417.5528-.2042.5272-.2664.413-.2721.0774-.051.4536-.3742.3456-.36.0625-.0652.1474-.19.2126-.2745.3034-.5046.2466-.5357.1814-.5584.0352-.1673.0867-.411.0538-.5839-.0113-.59-.0765-.5839-.1418-.57-.2041-.5527L93.75,89.15l-.3231-.4933-.0993-.1193-.0484-.0583-.2294-.2759-.0258-.025-.2551-.2465-.1414-.1367-.0957-.0736-.1112-.0856-.0376-.029-.0748-.0576-.1484-.1142-.024-.0144-.0268-.0161-.0691-.0415-.0466-.0561-.0631-.076-.06-.0577-.0138-.0131-.3513-.3374-.3122-.24-.1475-.112-.02-.0245L90.6,86.0383h0l-.181-.1381-.0836-.0639-.2764-.2654-.2891-.2221-.1758-.135-.5045-.3062-.3-.1366-.2367-.1077-.5584-.1842-.5755-.1219-.5867-.0539-.59.0114-.584.0765-.57.1417-.5528.2041-.0659.034-.1147.0583-.3428.1742-.0482.0313-.445.289-.4536.377-.4082.4224L82.3,86.591l-.3062.5046-.03.0652-.0356.078-.1782.3922-.1843.5585-.1219.5754-.0538.5868.0113.59.0765.5839.1418.57.2041.5528.1048.2064.0407.08.1209.238.1013.156.219.3372.0314.0378.2184.2627.1272.1531.4224.4082h0l.181.1382.0836.0639.2764.2653.2126.1623.2488.19.02.0247.4224.4082.0953.0728.2224.17.15.1145.0282.0172.09.0544M63.4078,352.9471l.351.2222.8844.4365.5686.1994.3044.1067.8391.173.1928.0077.59.0234.284-.043.4275-.0647.6207-.2466.0423-.0312.4708-.3487,1.1169-1.08.1708-.2176.2232-.2841.2664-.6123.1333-.7058-.0013-.1767-.0013-.1735-.0031-.4351-.1387-.7947-.0087-.05-.142-.4507-.1358-.4309-.4082-.8957-.5244-.8929-.6293-.8618-.72-.8135-1.8482-1.9134-.7909-.7427-.8447-.6576-.873-.5528-.8845-.4365-.87-.3061-.839-.173-.4876-.0193-.2976-.0118-.4285.0649-.283.0428-.6208.2466-.5131.38-1.114,1.08-.3969.5018-.2664.6123-.13.7059.0057.7851.1445.8447.2807.8816.4053.8957.5244.8929.5677.7739.0644.0879.3782.4289.339.3846.1166.1206.4982.5149.726.75.3928.406.1174.1214.7909.7427.8419.6576.5221.3306M66.61,315.33l1.7873-1.76.0892-.0879.7314-.7908.6463-.8419.5442-.876.4281-.8843.0567-.1628.2466-.7075.1672-.839.0244-.6152.0068-.17-.1077-.7116-.241-.6179-.0963-.1329-.2778-.383-1.06-1.114-.4932-.3968-.601-.2666-.6945-.13-.771.0057-.4478.0779-.3827.0666-.8646.2807-.8844.4053-.8759.5272-.8476.6293-.7993.7172-.1747.1723-.9762.9629-.7257.7158-.7341.7909-.6435.8418-.5443.8758-.428.8816-.3033.8731-.1672.8391-.0026.0652-.0286.7171.1049.7115.2437.6208.3714.5159,1.063,1.1141.4932.3939.6009.2665.6945.1333h.0057l.393-.0029.3723-.0027.8306-.1446.8646-.2806.8815-.4082.8759-.5244.85-.6293.7994-.72M20.7833,351.4357l.0533.0725,1.08,1.1168.5017.394.6123.2665.7086.1332.7852-.0085.8419-.1445.5443-.1716.3373-.1062.8986-.4082.89-.5244.8645-.6294.8136-.72,1.3248-1.2835.4811-.4661.1046-.1013.4275-.4536.318-.3373.6548-.842.5528-.873.4365-.8844.309-.87.17-.8391.034-.7852-.0576-.3744-.0525-.3373-.2466-.6207-.38-.5131-1.08-1.114-.5017-.3969-.6123-.2665-.7059-.13-.7852.0057-.8447.1445-.8816.2779-.8957.4081-.8929.5244-.68.4969-.1814.1325-.8136.72-1.91,1.851-.7456.7909-.6576.8419-.5527.873-.2723.5516-.1643.3328-.3061.8731-.0745.36-.0984.4761-.014.35-.0172.4348.1077.7115.2494.6207.3238.4407m3.5455-38.612.7354.7456.8464.858.2693.273.7908.7313.8419.6463.8731.5443.8844.428.8731.3033.839.1672.4337.0173.3487.014.7115-.1077.6208-.241.513-.3742.618-.5866.4989-.4735.394-.4933.2665-.6009.1332-.6945-.0045-.411-.004-.36-.1446-.8305-.2778-.8645-.4082-.8845-.4535-.755-.0709-.118-.6293-.85-.72-.7993-.3378-.343-1.51-1.5336-.7908-.7341-.8447-.6434-.8731-.5442-.8844-.428-.87-.3034-.839-.1673-.2466-.01-.5386-.0214-.7115.1049-.6208.2438-.5131.3713-1.114,1.063-.3968.4933-.2665.6009-.13.6945.0057.771.0074.0425.1372.788.2806.8646.4053.8816.5244.8759.6322.85.7171.7994m19.5,4.6374-.314.0908-1.2167.3514-1.4571.6492-1.3492.8476L38.27,320.4263l-1.063,1.1877-.89,1.3209-.6974,1.4344-.2621.8107-.2283.7058-.2749,1.57-.0539,1.5931.17,1.5845.3883,1.5477.5982,1.4769.7993,1.38.9836,1.2529.5181.4989.63.6066,1.29.9354,1.4089.7484,1.4995.5414,1.559.3289,1.59.1105,1.59-.1134,1.3068-.28.2523-.0541,1.4967-.5471,1.4059-.7512.22-.16,1.07-.7782.6063-.5867.5389-.5216.9808-1.2586.7937-1.38.1956-.4862.4-.9935.0737-.2981.3089-1.25.1645-1.5846-.0567-1.5931-.2807-1.57-.136-.4176-.0838-.257-.2734-.8391-.1162-.2376-.584-1.1939-.8929-1.321-1.0686-1.1848-.6948-.5806-.53-.4427-1.3523-.8424-1.457-.6463-.9808-.2791-.2142-.061-.3386-.0964-1.5789-.2211-1.593.0028-1.5789.2239m3.336-249.4856.6709.34.1342.0681.3616.1417.4774.1871.3232.09.5471.1533.8872.1559.8986.0708.9014-.02.8958-.1077.8815-.1928.7937-.26L55,68.582l.1289-.0567.1-.0438.3773-.166.11-.0484.109-.0479.788-.4394.737-.5159.677-.5791.009-.0077.6236-.6519.5585-.7087.2976-.4665.0368-.0577.15-.2355.4082-.805.3288-.8391.2438-.8674.0595-.3327.0992-.5546.068-.9014-.017-.9014-.1077-.8929-.0425-.1913-.03-.1372L60.59,57.581l-.2778-.8588-.3628-.8249-.3969-.7047-.0453-.0805-.5159-.74-.5868-.6859-.6491-.6237-.4-.3154-.3084-.243-.7625-.4848-.8022-.4081L54.9381,51.4l-.0978-.038-.197-.0765-.87-.2466-.8872-.1559-.8986-.0709-.9014.02L50.19,50.94l-.8816.1927-.1757.0577-.5247.1719-.1556.0511-.8249.3628-.054.03-.734.4092-.74.516-.6831.5867-.4992.5219-.0438.0458-.0807.0843-.4.5082-.158.2-.25.3914-.235.3683-.1388.2737-.2694.5313-.0628.16-.0174.0442-.2486.6345-.0036.0128-.1385.4927-.0762.2314-.0658.3147-.13.6208-.0878.95.017.9553.0708.5363.02.1472.0344.26.23.9269.0151.0408.1252.3383.1176.3636.1076.2446.0616.14.1239.2815.07.1588.4422.7852.0251.0361.4908.7037.2621.3064.3247.38.6491.6236.03.0241.6782.5344.255.1626.0639.0409.4407.2812m6.82-24.1739.0517-.0426.2438-.2012.4082-.4252.2494-.324.1106-.1436.068-.1126.0085-.0141.2268-.3751.2438-.5358.1842-.5584.0741-.3515.0478-.2268.0539-.5839-.0114-.59-.0765-.5839-.1417-.5726-.2041-.55-.2665-.5273-.13-.2-.0085-.013-.1814-.2778-.055-.0661-.0089-.0107-.3131-.3767-.4224-.4082-.0992-.0764-.2246-.1729L53.67,35.37l-.08-.0482-.4244-.2551-.3387-.1559L52.63,34.82l-.3007-.0991-.2577-.0851-.5755-.119-.5867-.0539-.59.0113-.5811.0766-.5726.1417-.0768.0284-.3933.1452-.0827.0305-.0282.0142-.4962.2494-.2466.1616-.2466.1616-.01.008-.4035.3355-.04.0335-.4082.4223-.0594.0778-.0086.0073-.0135.0218-.2756.3608-.3033.5046-.0564.1219-.0626.1352-.0851.1369-.0251.1012-.0174.0378-.1865.5629-.0794.3836-.04.1919-.017.176-.04.4107.0113.5868.0283.2163.0482.3676.0084.034h0l.0815.3293.0349.1409.0169.068.2041.55.2664.5273.3232.4932.0369.0448.3372.4088.4252.4081.1476.1134.3173.2438.2641.1588.0119.0071.205.1232.0142.0085.0094.0057.5357.2466.34.1122.2183.0721.5754.119.5868.0567.59-.0113.5839-.0765.57-.1418.5527-.2069.35-.1758.0169-.0085.1579-.0793.4933-.3232.158-.13M46.04,116.9728l-.089.1468-.2172.3578-.2437.5357-.0937.2839-.0764.2316-.0085.0258-.0057.0172-.1219.5782-.0538.584.0113.59.0765.5839.0936.3761.0085.0342.04.16.1115.3021.079.2138.0136.0369.2664.5244.32.4932.377.4535.4224.4082.4677.36.2837.17.07.0421.09.0539.0141.0085.0472.0283.5357.2438.5585.1842.1162.0246.4592.0973.5868.0539.59-.0114.5839-.0765.57-.1417.5527-.2041.3906-.1984.0167-.0085.106-.0539L53,124.4765l.2271-.1474.2662-.1729.4535-.377.2608-.27.1474-.1526.3572-.4677.2126-.35.0085-.014.085-.14.178-.3912.0658-.1446.1842-.5584.1219-.5754.0539-.5868-.0113-.59-.0766-.5811-.1417-.5726-.1294-.35-.0747-.2024-.2665-.5244-.3231-.4932-.3742-.4535-.18-.173-.2451-.2353-.4649-.3571-.5045-.3033-.4009-.1846-.1349-.062-.3694-.1219-.189-.0624-.5754-.1191-.5868-.0566-.59.0113-.584.0765-.2664.0663-.3033.0755-.0231.0085-.4144.153-.1153.0426-.5244.2664-.32.21-.173.1134-.0929.0766-.3607.2976-.1006.1048-.3075.32-.2765.36Z" transform="translate(0 0)"/></svg>