<svg id="Layer_1" data-name="Layer 1" xmlns="http://www.w3.org/2000/svg" viewBox="0 0 90.7606 377.9313"><defs><style>.cls-1{fill:#4c4c4c;stroke:red;stroke-miterlimit:11.3386;stroke-width:0.008px;}</style></defs><path class="cls-1" d="M52.5971,127.43l.0191.0047.2159.0539.0341.0085.1188-.0085.7526-.0539.6338-.0453.0187-.0076.2934-.1182,1.0882-.4383.0226-.019.0049-.0041.896-.751.204-.171.029-.0243.4365-.7.3629-.5815.0079-.032.3492-1.4078.0057-.0229-.0057-.0815-.0992-1.4265-.01-.0244-.1012-.2506-.4531-1.1225-.01-.0117-.0469-.0559L56.452,119.05l-.0029-.0018-.0056-.0068-.6492-.4049-.1368-.0854-.4953-.309L53.7,117.8759l-1.508.1077-1.3975.5641-.0034.0029-.5993.5024-.5538.4642-.645,1.0338-.1544.2475-.1325.53-.2275.91-.0056.0227.0056.0814.0138.1982-.0138.0549.0964,1.3918.5187,1.2955.8958,1.0714,1.182.74,1.355.34.0711-.0047M84.6879,305.1978l-.4722,24.6137v.0026l-.0186.97,3.2368,10.6551L93.5858,361.69l-9.8,6.8372L66.257,380.7553l-4.5508-3.4417-10.1476-7.6745-3.7324,2.258-3.46-2.2791-7.357,5.1321L29.4123,380.05,14.8025,369,2.8347,359.949l9.8532-28.4532L13.04,330.48l.5129-26.6486,8.0905-4.8939,2.5261-1.528.1746-1.9206.1-1.0941,1.1026-13.459,1.0233-13.8811.9411-14.3037.2169-3.7049.6449-11.0211.5405-10.4643.2418-4.6812.7-15.5707.5981-15.446.4819-15.052L31.303,162.15l.1071-5.99.148-8.2772.1389-13.8756.0227-13.4844-.04-5.7875-.0283-4.1213-.0062-.8969-.0165-2.4123-.2239-12.8041L31.0479,82.114,30.56,70.1405l-.3688-6.8655-.252-4.6914-.0077-.1148-.7434-11.0282-.8816-10.8793L27.5826,29.12l.1109-.1271.2332-.2673.1583-.1814,9.1709-10.5128,4.823-5.5286,8.4345-9.6685L64.3217,14.8806,65.71,16.0915l15.529,13.5469.207.1806.2293.2.1113.0971L80.77,37.57,79.4721,48.4072l-.8938,8.4181-.2854,2.6881-.347,3.7616-.716,7.7612-.9467,11.9452L75.45,95.349l-.7144,12.7843-.0721,1.5845-.0373.82-.4915,10.802-.4932,13.473-.394,13.87-.1546,7.4778-.02.9611-.12,5.8278L72.76,177.6133l-.0964,15.06.0029,15.4573.102,15.585.1368,10.3109.0645,4.8572.2031,10.1622.0917,4.5836.2537,9.2925.1245,4.5617.0129.475.49,13.9124.584,13.49.0067.1275.1708,3.2667,2.1776,1.4343,3.4474,2.2706,3.1521,2.0761,1.0035.661M37.9827,328.9251l-.2445,1.3962-.0119.068-.0567,1.5931.1673,1.5846.2439.9794.0447.1794.0961.3856.0008.0033.2557.6344.2433.6035.0962.2389.2488.43.4034.6968.1472.2542.3414.4371.55.7035.09.1152,1.1452,1.1083,1.29.9354.3136.1673.9251.4932.17.0907,1.4967.5442,1.559.3317,1.59.1105,1.59-.1105.5359-.114,1.0232-.2177,1.5-.5442.17-.0907.9231-.4932.3131-.1673.6519-.4729.6378-.4625.3461-.3341.802-.7742.2741-.3511.7067-.9047.2915-.5052.505-.8753.2984-.7368.3-.74.3225-1.2948.063-.2529.1673-1.5846-.0354-.9949-.0213-.5982-.0119-.068-.1695-.9676v-.0006l-.0935-.5342-.4932-1.5165-.7-1.4315-.89-1.3238-1.0658-1.1849-1.2217-1.0233-.0114-.0071-1.3407-.8376-1.0529-.4691-.4041-.18-1.5336-.4394-1.5761-.2211H48.291l-1.5789.2211-1.5307.4394-.9978.4445-.4592.2046-1.3521.8447-1.2217,1.0233-1.0659,1.1849-.89,1.3238-.7,1.4315-.4932,1.5165-.0186.1062m-.9735-9.367.7275-.6888.1677-.1587.009-.0086.3969-.4931.068-.1535.0677-.1527.1307-.2948.1147-.5979.0185-.0966-.0056-.771-.1446-.8306-.1638-.5114-.0176-.055-.0964-.301-.3245-.7058-.0808-.1758-.3938-.6576-.1307-.2182-.3429-.4635-.2864-.387-.7171-.7993-1.8482-1.8822-.788-.7313-.7966-.6115-.0453-.0348-.7655-.48-.1076-.0675-.2694-.13-.4475-.2167-.1675-.081-.602-.21-.2683-.0935-.4488-.0909-.39-.0792-.3627-.0143-.4225-.0168-.7087.1048-.6208.241-.5159.3713-.09.0851-.3826.3631-.6447.612-.0506.0629-.3463.43-.2136.4818-.0528.1192-.1332.6945.001.1388.0033.4529.0013.1793.1446.83.2778.8674.1337.2908.13.2818.142.309.5245.8759.5967.8064.0325.044.7172.7994,1.8482,1.8822.06.056.7276.6753.4653.3572.3766.2891.8731.5443.8844.4308.1162.0406.1866.0649.5674.1978.8391.17.7852.0312.7115-.1049.6179-.241.5159-.3741.2127-.2013m23.3914-.9751.0924.1276.055.0761.224.3094.3429.3612.4848.5107.2324.2449.2008.1616.2925.2353.6009.2665.4488.0861.2457.0471.771-.0057.1106-.0189.72-.1228.0588-.019.8057-.2589.8845-.4081.4337-.2583.4422-.2632.85-.6294.3508-.3146.0084-.0076.44-.3949,1.8794-1.8482.7342-.7909.0538-.07.5925-.7717.41-.6585.1337-.2146.4309-.8816.0581-.1672.087-.25.1582-.4553.17-.8362.0312-.7853-.1049-.7114-.1916-.4935-.0494-.1273-.3742-.5159-.2467-.26-.0594-.0626-.73-.7688-.0215-.0226-.4932-.3969L71.7,307.1l-.3352-.15-.6945-.13-.7711.0057-.8305.1417-.416.1333-.4514.1445-.7965.3689-.0851.0393-.8759.5216-.85.6293-.7994.7172-1.8822,1.8482-.7313.7908-.5742.7455-.0069.0089-.0652.0846-.4176.6686-.1232.1974-.0063.01-.3657.7531-.0623.1284-.0114.0327-.2919.84-.0363.1786-.1338.6577-.034.7851.0987.652.009.06.2409.6208M72.88,350.0236l-.5053-.8605-.6265-.8645-.495-.5613-.225-.2551L69.18,345.5689l-.788-.7455-.8419-.6577-.1445-.0916-.4555-.2883-.273-.1728-.539-.2678-.3455-.1716-.41-.1455-.46-.1635-.3234-.0667-.5157-.1062-.3493-.0139-.4358-.0173-.7087.1077-.6208.2467-.2769.2023-.0916.067-.1474.1077-.731.7068-.3858.3731-.3772.4741-.02.0249-.2665.6122-.1332.7086.0005.07.0052.7151.1134.66.0311.1814.0653.2071.2125.6745.0661.1465.3393.7522.5244.8928.6293.8646.7172.8135,1.2294,1.2728.6187.6407.1477.14.64.6059.5934.4635.2485.1941.7076.45.1654.1053.7157.3532.0951.0469.0736.0364.7191.2553.1512.0537.8033.1655.0357.0074.7852.034.26-.0394.0741-.0112.377-.0571.618-.2466.5159-.38,1.1168-1.0771.1265-.16.1485-.1878.1219-.154.2664-.6123.1183-.6265.015-.0794-.0057-.7851-.1446-.8448-.2778-.8816-.0935-.2067-.0618-.1366-.25-.5524-.0191-.0325M37.2671,345.189l-.1408-.3543-.1058-.2665-.0113-.0154-.3657-.4977-.196-.2032-.8036-.8331-.0776-.08-.5017-.3969-.6123-.2664-.7058-.1333-.7852.0058-.3884.0664-.4564.0781-.4583.1444-.4232.1334-.2811.1268-.6175.2786-.8929.5244-.7663.557-.0955.0694-.8163.72-.9978.9638-.9114.88-.0042.004-.7455.788-.1993.2551-.0729.0934-.3855.4934-.2568.4036-.2988.4695-.1813.3674-.186.3768-.0692.14-.309.87-.1729.8391-.034.7823.1077.7115.1025.258.1441.3628.1506.2045.2293.3114.4044.4194.6727.6975.3137.2481.1881.1487.6123.2665.7058.1332.086-.0006.11-.0008.59-.0042.8447-.1446.8816-.2778.7661-.3456.1325-.06.89-.5244.8646-.6294.8164-.7171.02-.0192.0712-.0687,1.8224-1.76.7455-.788.6576-.842.5556-.873.04-.0819.3961-.8025.0159-.0447.1316-.37.086-.2425.0755-.2125.1729-.8391.0312-.7852-.1077-.7115M45.9293,63.275l.0969,1.4173.9921,2.4718,1.7064,2.041,1.9934,1.2495.263.1649,2.5824.6492,2.656-.1814.0877-.0353,2.3813-.9569,2.0438-1.7064,1.4145-2.2564.6491-2.5823-.0188-.275-.1626-2.3811-.995-2.469-1.7064-2.0438-2.2564-1.4145-2.58-.6491-2.6561.1814-2.4718.995L47.9084,57.2l-1.4145,2.2564-.6492,2.58.0846,1.2388m4.8963-16.8944.5949.3712.2863.1786.001,0,1.439.36.0227.0057.0813-.0057,1.4239-.0992.0273-.0111,1.0579-.4283.0344-.0139.2807-.1136.0209-.0176.3568-.2991.7536-.6316.0252-.0212.0765-.1224.7229-1.156L58.04,44.34l.3479-1.3945.0085-.0341-.0085-.1221-.0963-1.3831-.01-.0236-.5379-1.3285-.02-.0482-.012-.0144-.4047-.4827-.5527-.66-.0079-.0049-.0006-.0007-.9022-.5641-.3762-.2353-1.4656-.3657-1.5052.1049-1.2252.4961-.1751.0708-.7916.6636-.3649.3059-.4591.7342-.2059.3293-.1344.2149-.3089,1.2383-.0567.2272.0567.8136.0306.44.0175.2513.3823.9441.1847.4562.9694,1.1566.0079.0049.0006.0007Z" transform="translate(-2.8299 -2.829)"/></svg>