<svg id="Layer_1" data-name="Layer 1" xmlns="http://www.w3.org/2000/svg" viewBox="0 0 333.7882 203.0575"><defs><style>.cls-1{fill:#4c4c4c;stroke:red;stroke-miterlimit:11.3386;stroke-width:0.008px;}</style></defs><path class="cls-1" d="M323.348,187.7839l-10.3273,6.6808-10.4866,6.784-7.164,4.6344-11.8257-9.61L271.17,186.2163l-24.54-9.4688-1.83-8.6062-.1519-.7144-.4574-2.1509-.1152-.5419-.0829-.39-.3225-1.5167-.01-.0455-.0692.0147-.0061.0013-.0008-.004L232.3114,158.4l-4.075-1.5885-7.2379-2.8214-1.5132-.59-3.503-1.3656-.6629-.2584-.7958-.31-16.3495-6.3732-.5422-.2113-8.3173-3.2422-46.4428-18.1039-32.57-12.6959-13.8733-5.408-1.2672-.494-.8341-.3251-.2623-.1023-1.9456.2257-.1713.02-2.5041.2905-7.594.6747-7.2737.428-6.8825.1786-6.4262-.0709-5.9045-.32-5.3292-.5669-.0481-.0083-4.6545-.7968-4.0309-1.04-1.7745-.6764-1.542-.5879-2.5739-1.474-1.8057-1.6724-.3719-.6747-.6485-1.1763-.2268-2.0155L32.93,93.09l1.3663-2.2819,2.143-2.3811,2.9027-2.46.1842-.1273,3.45-2.3842,3.6883-2.1666.2211-.13.4191-.2462,2.4507-1.2553-6.11-4.44L16.8981,55.7843l-.0093-.0067-5.2049-3.7817-5.9873-4.35L5.61,47.5826l-.354-.2765L3.6142,46.0236l-.0709-.0554-.7086-.5537V2.8346H41.9912l1.6022,2.7185L44.915,7.7953l4.1018,5.4538.9382,1.2473L56.109,21.26l3.7419,3.5093.2714.2546.1338.1394.4156.3758,2.643,2.4787,1.0115.8257,1.1371,1.0282L70.8757,34.25l.7445.6022,3.1449,2.3248,2.4875,1.8389.986.7289.4257.3146.9545.6525,2.4161,1.6517,2.12,1.4489,1.3913.9511.3715.254.6132.4191.4707.3009,8.1381,5.2012,1.29.7752.4694.2821.2735.1644,3.7773,2.27.67.403,2.7917,1.6779,1.8588,1.0549,6.922,3.9283,1.064.6039,10.3238,5.55,4.4588,2.2743,6.2448,3.1852,2.6341,1.2756,4.9542,2.3991,3.3874,1.64,10.63,4.8813.5185.2381,11.2082,4.8756,11.1656,4.5836,9.5329,3.6782,1.48.5709,4.561,1.6426,6.1909,2.23,10.3889,3.4582,9.927,3.0132,9.3685,2.5342,4.5269,1.0564,4.1953.9789.6483.1231,1.686.32,3.1221.7208,4.6147,1.0652,3.0518.7046.9178.2118,3.4567.798,2.8206.6511.1453.0336,2.1146.4881.001-.0045.0107-.046.0053-.0231,2.0656-1.5356.58-.4312,6.7229-4.998,22.9689,8.8626.9028.3483,32.2571,1.7478,5.4257,20.3891,1.2964,4.8715.5119,1.9237,1.3352,5.0173-4.79,3.0991L328.89,158.4l-7.75,5.0145.8445,4.2775-3.3249,2.4721,2.6021,9.7791,1.2415,4.6659.7686,2.8885.0762.2863M300.5093,180.76l.04-.9241-.0092-.1219-.0645-.8617-.1871-1.0148-.2948-1.029-.394-1.0091-.7519-1.6889-.331-.7433-.4875-.9694-.567-.9071-.6293-.8192-.68-.7144-.7143-.5867-.7285-.4507-.7257-.2977-.1729-.0347-.5329-.107-.6662.02-.6151.1785-1.4173.6322-.5442.3344-.4593.4819-.3684.6208-.2637.74-.153.842-.04.924.0492.6548.0245.326.1871,1.0176.2948,1.0262.3968,1.012,1.08,2.4236.0025.0057.4848.9723.5669.907.6322.8192.68.7115.66.5474.0511.0422.7284.4479.3247.1339.4038.1666.703.1417.669-.02.6123-.1786,1.4173-.6321.5443-.3345.462-.4847.3657-.618.2636-.74.1531-.8419m-45.74-19.042-.0031.0039-.3649.4485-.041.0668-.0374.0607-.3694.601-.2977.7285-.1445.703.013.61v.0041l.0011.0519.1758.6123.6123,1.4117.3288.5386.4734.4591.1421.0851.4645.2778.7257.2579.83.1474.9071.0369.7937-.0673.1757-.0149,1.0035-.19,1.012-.3.3654-.1474.0455-.0184.5869-.2367,2.3981-1.0914.9609-.4932.8958-.57.8078-.6321.7059-.6831.5839-.7172.4479-.7285.26-.635.0372-.0907.1446-.7058-.017-.6662-.1729-.6094-.6123-1.4116-.2514-.4139-.0774-.1276-.4734-.4564-.6066-.3628-.7257-.2608-.8305-.1473-.8589-.0322-.0511-.0019-.9666.0794-1.0035.1928-1.0119.2976-.9978.4025-.3373.1539-.576.2628-.8612.3929-.6236.2846-.961.49-.8957.57-.8107.635-.7059.6832-.2131.2619m26.2352,1.864,1.1962.298.3515.0875,1.5846.1673,1.593-.0539,1.57-.2778,1.5137-.4932,1.4344-.6973,1.3209-.893,1.1849-1.0658,1.0233-1.2217.6446-1.0318.2-.32.6492-1.4542.0381-.1332.4012-1.4.2211-1.5789V151.92l-.2211-1.5789-.3759-1.31-.0634-.2211-.6492-1.457-.8447-1.3522-.94-1.12-.0833-.0992-1.1849-1.0687-1.3209-.89-1.4344-.7-1.5137-.49-1.57-.2778-1.593-.0567-1.5846.1672-.3515.0876-1.1962.298-1.4769.5981-1.38.7965-1.2558.9808-.6322.6548-.4761.4932-.9355,1.29-.7483,1.406-.5471,1.4967-.3316,1.559-.1106,1.59.1106,1.59.3316,1.559.2285.6265.3186.873L274.65,158.4l.1976.3713.9355,1.29,1.1083,1.1452,1.2558.9836,1.38.7965,1.4769.5953m32.519-26.5379-.3277-.1168-.4121-.1468-.8419-.1531-.7143-.0307-.21-.009-.5811.0437-.4.03-1.0176.1871-1.0261.2948-1.012.394-1.5591.6949-.87.388-.9723.4875-.9071.5669-.8192.6293-.7115.68-.59.7144-.4479.7284-.3.7258-.1418.7058.02.6661.1036.3572.075.2579.6321,1.4173.3345.5443.4847.4592.6179.3685.74.2637.8419.153.9241.04.9836-.0737.0028,0,1.012-.1866,1.029-.2948,1.0091-.3968.8087-.36,1.6234-.7228.9695-.4847.9071-.567.54-.4166.2792-.2155.7143-.68.5868-.7115.4507-.7285.2976-.7285.1418-.703-.02-.6689-.1786-.6123-.3375-.7569-.2711-.6078-.0235-.0527-.3345-.5442-.4819-.462-.6208-.3657M269.84,122.658l-.0015.0009-.3744.2287-.0569.0586-.4024.4148-.36.6066-.2608.7284-.1473.8278-.0369.91.0329.3868,0,.0025.0491.5773.19,1.0035.3,1.0119.4025.9978,1.0914,2.401.2349.4564.0882.1713.17.33.57.8957.6322.8107.6831.7059.4649.3767.2523.2044.7285.4479.7256.2976.7059.1445.6661-.0141.207-.06.4025-.1161,1.4116-.6122.5414-.3289.4564-.4733.3629-.6067.2607-.7256.1474-.8306.0232-.6179.0109-.2892-.0794-.9694-.1928-1.0035-.2976-1.012-.4025-.9977-.6979-1.5336-.3934-.8646-.4933-.9609-.57-.8929-.635-.8107-.6832-.7059-.7143-.5839-.7285-.4479-.7257-.2976-.2891-.0592-.4167-.0854-.6661.017-.6123.173-.8249.3577-.5868.2545-.1626.0993M50.8451,94.7849l-.1078-.6265-.1757-.6123-.2438-.59-.309-.5556-.0226-.0319-.3459-.4868-.4223-.4762-.4763-.4224-.5187-.3685-.5584-.309-.5868-.2437-.6123-.1758-.6264-.1077-.635-.034-.6378.034-.3855.0663-.2409.0414-.6123.1758-.5868.2437-.5584.309-.5188.3685-.4734.4224-.4252.4762-.3685.5187-.1292.2325-.18.3231-.2438.59-.1758.6123-.1048.6265-.0369.6349.0369.635.1048.6293.1758.6123.2438.5867.3074.5556.0015.0029.3685.5187.4252.4734.4734.4252.5188.3685.5584.3061.5868.2438.6123.1786.2409.04.3855.0646.6378.0368.635-.0368.6264-.1049.6123-.1786.5868-.2438.5584-.3061.5187-.3685.4763-.4252L49.64,98.96l.3459-.4868.0226-.0319.0016-.0029.3074-.5556.2438-.5867.1757-.6123.1078-.6293.034-.635-.034-.6349M25.2142,31.646l-.0369.6349.0369.6378.1049.6265.1757.6123.2438.5868.309.5584.3685.5187.3486.3882.0766.0852.4734.4252.5187.3685.5584.309.5868.2438.6123.1757.6264.1049.6378.0368.635-.0368.6264-.1049.4536-.13.1587-.0455.5868-.2438.5584-.309.5188-.3685.4762-.4252.4223-.4734.3686-.5187.3089-.5584.0683-.1644.1755-.4224.1758-.6123.1048-.6265.0369-.6378-.0369-.6349-.1048-.6265-.1758-.6122-.2438-.5868L35.66,29.262l-.3464-.4875-.0222-.0312-.4223-.4762-.4762-.4224-.5188-.3685-.5584-.309-.5868-.2437-.1587-.0456-.4536-.13-.6264-.1049-.635-.0368-.6378.0368-.6264.1049-.6123.1758-.5868.2437-.5584.309-.5187.3685-.4734.4224-.0766.0857-.3486.3905-.0222.0312-.3463.4875-.309.5585-.2438.5868-.1757.6122-.1049.6265M44.1836,55.2643l.9553.0538.9524-.0538.9412-.1588.9155-.2664.8816-.3657.8362-.4592.32-.2272.4592-.3256.7115-.6378.6349-.7115.0827-.1162.47-.66.462-.8362.3657-.8816.2636-.9184.1588-.9411.0538-.9524-.0538-.9525-.1588-.9411-.2636-.9156-.3657-.8815-.462-.8363-.5528-.7795-.6349-.7115-.4511-.4025-.26-.2324-.4592-.3257-.32-.2271-.8362-.4621-.8816-.3656-.9155-.2636-.9412-.1588-.9524-.0538-.9553.0538-.9411.1588-.9156.2636-.8815.3656-.8363.4621-.7767.5528-.2614.2324-.4529.4025-.6349.7115-.5528.7795-.462.8363-.3629.8815-.2664.9156-.1588.9411-.0538.9525.0538.9524.1588.9411.2664.9184.3629.8816.462.8362.47.66.0828.1162.6349.7115.7143.6378.7767.5528.8363.4592.8815.3657.9156.2664.9383.1583.0028,0M91.2388,90.0028l.6349.0369.635-.0369.6264-.1077.6123-.1757.59-.2438.5556-.3062.5187-.3685.4763-.4252.4223-.4733.1191-.1686.2494-.353.3074-.5528.0016-.0028.2438-.59.1757-.61.1077-.6293.0341-.6349-.0341-.635-.1077-.6293-.1757-.6094-.2438-.59-.309-.5556-.2494-.3511-.1191-.1677-.4223-.4762-.4763-.4252-.5187-.3656-.5556-.309-.59-.2438-.6123-.1757-.6264-.1078-.635-.034-.6349.034-.6152.1053-.0141.0025-.6123.1757-.5868.2438-.5584.309-.5188.3656-.4734.4252-.4252.4762-.1409.1985-.2275.32-.3062.5556-.2438.59-.1757.6094-.1077.6293-.0369.635.0369.6349.1077.6293.1757.61.2438.59.0016.0028.3046.5528.3684.5216.4252.4733.4734.4252.5188.3685.5584.3062.5868.2438.6123.1757.0141.0024Z" transform="translate(-2.8306 -2.8306)"/></svg>