<svg id="Layer_1" data-name="Layer 1" xmlns="http://www.w3.org/2000/svg" viewBox="0 0 99.5143 382.4817"><defs><style>.cls-1{fill:#4c4c4c;stroke:red;stroke-miterlimit:11.3386;stroke-width:0.008px;}</style></defs><path class="cls-1" d="M34.3871,22.0377l3.75-5.89.3694-.58,3-4.7116,2.0816-2.4469,4.7424-5.5746,2.605.1848,9.6577.685,3.9883.2829.4139.0294,3.45,7.0127,1.3241,2.6916.9595,1.9505.48.9749-.7174.855-2.8736,3.4247L64.5817,24.544l-.0783.0933-1.3843,1.5321L60.93,29.1354,57.96,33.16l-.2876.4836-1.8663,3.1388-4.15,6.5058-1.4581,2.8034-4.7015,9.04L39.9515,68.1789l-1.8142,5.2578-3.0586,8.8644-2.823,10.2331-1.3326,4.83-3.3959,15.857-2.6078,16.5005-1.21,11.4758-.5811,5.5094L22.17,164.0125l-.1191,17.4587.7285,17.4415.93,10.2764.6321,6.9866,2.3839,16.9115,3.18,16.3985,3.9487,15.7294,4.1063,13.09.1768.5637.394,1.2561,5.3632,13.9436L49.89,306.9156l2.3535,4.1628,2.5624,4.5322.6938,1.4672,2.3813,3.9721,2.2172,3.6984.8837,1.4741,3.6,4.8535,2.75,3.7071,1.2952,1.4289.3768.4158.1535.2217,1.6691,1.9736,4.25,5.0252,6.531,6.3439.3092.2457,1.89,1.5017,4.8821,3.8794,7.5628,4.8529,4.7043,2.3848,1.3858,1.1519-.07.3263-.38,1.7753-.6358,2.9668-.5913,2.759-1.53,7.1376-19.1253,6.1342-12.244-8.8332-3.0632-2.8509-.119-.1107-2.4946-2.3217-2.0116-1.8722-3.9868-4.69-2.6556-3.1239-8.6372-12.5461-2.1232-3.7565-4.5354-8.0245-1.3521-2.3923-4.6863-10.0375-2.6271-5.6267L23.709,304.1361l-.7767-2.02L17.229,283.9351l-1.4135-5.63L12.4129,264.753l-1.1245-5.7958L8.5323,244.7518,5.6268,224.1269l-1.9049-21.05-.8873-21.2712.1446-21.2909,1.1679-21.1011,2.1855-20.7157,3.18-20.1231,1.2936-6.0406,2.8478-13.2973,5.0683-18.3685L23.709,46.4142l.1114-.3229.8439-2.4463,1.9615-4.6164,4.7991-11.2944,2.174-4.1807.7882-1.5158m20.7836-2.5155.5924.0368.5953-.0368.584-.1077.5669-.1814.5414-.25.49-.303.0142-.0088.462-.3742.4139-.4252.36-.4762.1924-.3316.1052-.1815.2325-.55.1615-.57.0907-.59.02-.5924-.0567-.5924-.0124-.0566-.1152-.5245-.1956-.5613-.2664-.5329-.3288-.496-.3856-.4508-.1175-.1077-.3218-.2948-.2523-.1775-.2353-.1655-.5216-.2806-.5555-.2154-.5755-.1446-.5924-.0737h-.5953l-.59.0737-.5754.1446-.5556.2154-.5244.2806-.4848.343-.3218.2948-.1175.1077-.3884.4508-.326.496-.2664.5329-.1984.5613-.1276.5811-.0539.5924.02.5924.0907.59.1616.57.2324.55.1052.1815.0759.1307.1166.2009.3571.4762.4139.4252.4648.3742.5046.3118.5414.25.567.1814.5839.1077M86.315,365.8989l-.1127-.5131-.0149-.068-.1984-.5613-.2637-.5329-.3288-.4961-.3855-.4507-.4422-.4025-.4847-.343-.5244-.2806-.5528-.2155-.5782-.1445-.2907-.0364-.2989-.0373h-.5953l-.59.0737-.5783.1445-.5528.2155-.5244.2806-.4847.343-.4394.4025-.08.0926-.3085.3581-.3288.4961-.2636.5329-.1985.5613-.0149.068-.1126.5131-.0539.59.017.5952.0907.5868.1644.5726.2325.55.2976.5131.3572.4762.4138.4253.4649.3741.5046.3118.5414.2495.15.0482.4143.1332.5868.1077.5924.0368.0265-.0016.1946-.012.3742-.0232.5839-.1077.4164-.1332.15-.0482.5386-.2495.5074-.3118.4621-.3741.4138-.4253.36-.4762.2977-.5131.0654-.1566.1642-.3933.1644-.5726.0907-.5868.017-.5952Z" transform="translate(-2.8306 -2.8305)"/></svg>