<svg id="Layer_1" data-name="Layer 1" xmlns="http://www.w3.org/2000/svg" viewBox="0 0 397.4998 430.8121"><defs><style>.cls-1{fill:#4c4c4c;stroke:red;stroke-miterlimit:11.3386;stroke-width:0.008px;}</style></defs><path class="cls-1" d="M104.6071,373.0127l-.0042.004-.0872.0829-12.2024,11.604-43.9761,41.82-1.9508,1.8551v5.26H2.8632V390.8608H2.8347l.0285-.02,13.4079-9.5849,3.3383-2.3865,14.6192-10.4508,9.4957-6.7883,1.2626-.9025-1.7186-1.2008-2.6136-2.1629-.7908-.7908-1.406-1.406-1.7547-2.2139-1.2982-2.2081-.8278-2.18-.3486-2.1316.13-2.0636.6123-1.9758,1.0884-1.8681,1.5506-1.7432,1.9985-1.6016.2551-.1512,2.1741-1.2888,2.8347-1.2728.9978-.337,2.2167-.7486,3.1152-.7814.4451-.1116,3.8749-.6916,4.1528-.479,4.388-.2665,4.5836-.051,4.7311.1672,3.3348.2658,1.5011.12,1.8345.223.063-.0718.2541-.29.3632-.4142.1058-.1206.1027-.1171v0l4.2555-4.8532,6.8313-7.88.0143-.0164.0312-.0349.2438-.2753,2.8377-3.2049,1.3434-1.5173,5.091-5.794,5.7-6.5253,6.2476-7.1887,6.7294-7.77,7.1348-8.2658,7.4608-8.6712,6.6178-7.713,1.09-1.27,7.869-9.1985,7.9427-9.309,7.9341-9.3175,7.8321-9.2267.1643-.1941,7.4836-8.84.745-.8823,2.6623-3.1531,3.9741-4.7067,4.2233-5.0185,2.8067-3.3352,4.4022-5.2486,2.2025-2.6261,1.2191-1.46,4.8867-5.8508,4.0944-4.9217,1.4473-1.74,4.9125-5.9443.2227-.2714.3052-.372,1.4316-1.745.7724-.9217,1.6506-1.97,2.3908-2.8529,2.6777-3.1954,1.4658-1.7491,2.0395-2.4337,1.14-1.3609.5527-.6673.3162-.3817,15.8867-19.179,13.0668-15.9738,3.0172-3.6885.0593-.0725.7415-.9183.38-.4707,10.6-13.1276.1785-.221,3.4811-4.3113,3.2975-4.1438,1.6168-2.0318,9.1274-11.47.4263-.5357,6.0413-7.7174,2.2091-2.8218,1.2717-1.4921v0L302.508,51.6019l9.9581-11.241,4.2684-4.8184,2.0976-2.3678.6433-.7262,12.904-29.6139,12.2752,1.1908,10.2517.9945h0l.1784.0173.0049,0,10.455,1.0142,2.7609,12.4923,1.2162,5.5027,4.3029.7024,1.1556,3.98,15.2812,1.4823,2.8671.2781,1.4343,6.4922.001.0043.1312.5938.9691,4.3866,3.68,16.6589.9728,4.4031L387.183,70.7524l-1.3159.7738-12.4324,7.3112-6.8137,7.6908-2.0386,2.301-8.82,9.9553L344.1488,96.889l-.0031-.0005-.5579-.0911-.003-.0005-.0691-.0113-.0565.0553-8.761,9.4526-.19.2082-.2781.3049-.4693.5145-.0416.0286-.2117.1457-2.5115,2.4661-3.9911,4.218-5.4341,5.9216-1.4634,1.6242-4.5019,4.9964-.8463.9394-3.28,3.6847-4.838,5.4343-2.9481,3.3393-.32.3623-.8412.9528-3.3864,3.8358-.5195.5884-1.32,1.4947-9.4351,10.761-1.0134,1.1558-7.7586,8.898-1.0147,1.1636-2.673,3.0656-7.1128,8.1928-.2481.2857-1.4349,1.6528-1.6495,1.9-.4306.496-1.4463,1.6659-12.3527,14.2859-.7065.8171-1.7775,2.0626-11.88,13.7859-14.1023,16.4211-.6981.8155-10.93,12.7677-2.7666,3.232-.1828.2143-8.5869,10.0613L193.3486,267.8l-8.15,9.575-6.3553,7.4669L164.5259,301.72l-13.9805,16.5261-9.4508,11.211-4.0336,4.7849-7.8205,9.3121-5.02,5.9779-2.0636,2.4662-1.6248,1.9417-6.4351,7.69-1.9379,2.3159-7.4108,8.8978-.1408.1691M31.4364,411.6444l.6265-.1021.6151-.17.59-.2382.5584-.3061.4026-.28.0311-.0217.0879-.0611.4791-.42.428-.4734.3713-.5159.3118-.5555.2495-.5839.1814-.6123.1106-.6265.0306-.49.0091-.1446-.0312-.6349-.0992-.6294-.1729-.6122-.2381-.59-.3033-.5613-.3657-.5216-.42-.4762-.4733-.428-.156-.1131-.0311-.0226-.3288-.2385-.5528-.3118-.5868-.2466-.6122-.1814-.53-.0936-.0964-.0169-.635-.0426-.6349.0312-.1748.0283-.4545.0737-.6123.1729-.5556.2244-.034.0138-.5585.3033-.5244.3657-.4762.42-.428.4705-.3713.5159-.3147.5556-.2466.5868-.1814.6094-.1106.6265-.0425.6349.0114.2325.02.4054.102.6264.173.6151.2381.59.3033.5584.3656.5217.42.479.4705.4281.5187.3712.5528.3119.1134.0482.4734.2012.6094.1814.6265.1106.6378.04.6349-.0312m5.7459-17.0362.3571.8844.4564.839.5471.7824.6293.7172.7058.6406.7739.5584.8334.4678.8787.3712.9156.2722.9383.1672.9524.06.7-.0332.2551-.0121.9411-.153.9184-.258.8844-.3572.8391-.4564.7823-.5442.7172-.6321.6406-.7059.5585-.7738.4677-.8334.3742-.8787.0451-.1532.2242-.76.1672-.9411.0623-.9524-.0481-.9524-.15-.944-.2579-.9184-.1374-.3373-.2226-.5472-.4536-.839-.547-.7824-.6293-.7171-.7087-.6407-.7739-.5584-.8305-.4677-.8788-.3713-.9156-.2722-.9411-.1672-.3826-.0239-.57-.0357-.9524.0454-.9411.1531-.9185.2551-.8872.36-.8362.4536-.7852.547-.7143.6321-.6435.7058-.5585.7739-.4677.8334-.28.6634-.0911.2154-.2721.9127-.1673.9411-.0595.9524.0454.9525.153.9439.2492.8872.0088.0313M96.9735,356.434l.2494-.5868.1814-.6094.1106-.6265.04-.635-.0017-.0368-.0294-.5981-.1021-.6293-.17-.6123-.2381-.59-.3061-.5613-.0313-.0449-.3315-.4766-.42-.4762-.4733-.4281-.516-.3742-.5555-.3118-.584-.2466-.6123-.1814-.6264-.1134-.2438-.0152-.3912-.0244-.635.0311-.6292.1021-.6123.17-.59.2409-.5613.3033-.5216.3629-.4762.4223-.428.4705-.3742.5159-.3118.5557-.2466.5867-.0283.0953-.1531.5142-.0868.4919-.0238.1346-.0425.6349.0025.051.0287.5867.102.6265.173.6123.2381.5925.3033.5584.3656.5215.42.4791.4705.4281.5159.3712.5556.3119.5868.25.6094.1785.6265.1134.635.04.479-.0234.1587-.0078.6265-.1021.6151-.17.59-.241.5584-.3032.5216-.3629.4791-.4224.428-.4705.3714-.5159.0827-.1474.2291-.4082M50.8,348.3638l.0769-.23.1244-.3714.136-.6236.0652-.6321-.0085-.6378-.0765-.6294-.15-.6207-.2154-.5981-.2834-.57-.343-.5357-.4026-.4933-.0959-.0935-.36-.3515-.5018-.3912-.5414-.3316-.5783-.2693-.6009-.2041-.6236-.1333-.55-.0566-.0822-.0085-.635.0056-.6321.0794-.6208.1474-.5981.2183-.57.2806-.5357.3458-.49.4025-.2615.2665-.1836.1871-.3912.5017-.3344.5443-.2693.5754-.2041.6038-.1333.6207-.0651.6322.0056.6378.0794.6321.1474.618.092.2523.1263.3458.2834.57.343.5357.4026.4932.4535.4451.5017.3911.5443.3317.5754.2693.6038.2041.6207.136.635.0624.5925-.0053.0425,0,.6321-.0793.618-.1474.5981-.2155.57-.2834.5358-.3459.4932-.4.4451-.4564.3912-.5018.3316-.5414.2721-.5782M380.8264,54.3543l.039-.5483.0063-.0895-.0385-.62,0-.0047-.0575-.9259-.0209-.1049-.1039-.5216-.2919-.6009-.3481-.4334-.1026-.1279-.601-.5046-.737-.4393-.0256-.0109-.2149-.091-.61-.2581-.9439-.2714-.0029-.0008-1.0176-.1814-1.0658-.0822-1.0857.017-2.5129.1582-.12.0077-.0227.0014-.0268.0028-1.0532.1134-1.0459.2126-.9893.3061-.6681.2869-.2362.1015-.6545.3793-.1477.0856-.6746.5244-.533.5754-.38.6123-.0473.1389-.1681.4932-.0112.1578-.0342.48.0964,1.55.0416.209.0831.4175.2221.4572.07.1437.4507.5613.6009.5046.737.4365.6638.2832.1554.0663.0312.0134.9468.2721,1.0176.1814,1.0659.0822.51-.008.5755-.009,2.656-.1673.5549-.06h.0014l.5237-.0564,1.046-.2154.4479-.1373.1553-.0476.0057-.0018.38-.1166.561-.2409.3432-.1475.8022-.4648.6747-.5244.5329-.5783.38-.6095.2155-.6321M349.96,27.68l-.0805-.7479-.0357-.3321-.2154-1.046-.0907-.2959-.2126-.6934-.3884-.9042-.4649-.8023-.5244-.6746-.1984-.1828-.38-.35-.61-.38-.6321-.2155-.0411-.0029L345.49,21.01l-1.5506.0963-.6264.1247-.601.292-.3162.2539-.245.1968-.5046.601-.2738.4592-.1392.2336-.0264.0442-.36.85-.2254.7845-.0293.1016-.0174.0607-.1814,1.0176-.0822,1.0658.017,1.0857.0353.5613.1319,2.0948.1163,1.08.2126,1.046.3061.9893.1527.3555.103.24.1326.309.1262.2177.3387.5845.4186.5385.1058.1361.5681.5261.0074.0068.6123.38.6321.2154.1322.0094.5056.036,1.55-.0964.6265-.1247.6009-.292.0057-.0045.5556-.4462.5046-.6009.4365-.7371.0624-.1461.0328-.077.2676-.6273.2722-.9467.1814-1.0177.0822-1.0658-.0064-.4087-.0025-.1587-.0081-.5183-.0943-1.4966-.0212-.3372L349.96,27.68M357.0831,49.84l-.0621-.1568-.7852-1.3861-.9723-1.2643-1.1366-1.114-1.2841-.9468-1.4-.76-1.4938-.5555-.3631-.0808-.1283-.0285-1.0648-.2366-.6435-.0493-.9468-.0726-1.59.0992-1.5619.3175-1.5024.5358-.1407.0734-1.2709.6636-.4252.3042-.87.6227-1.1566,1.097-.9893,1.25-.8078,1.3748-.6095,1.4712-.2731,1.063-.0616.24-.0621.2422-.1786,1.5817.023.8645.0195.7285.2664,1.5733L336.09,58.81l.4142.8642.2746.5729.6617.9978.22.3317,1.0573,1.1934,1.2132,1.0318,1.3437.856,1.4513.6577.59.175.9383.2785,1.576.2325,1.5959.0113.3232-.0429,1.2558-.1668,1.5363-.4253,1.46-.6377,1.1111-.6821.2467-.1513,1.23-1.0148,1.0743-1.1764.9015-1.3153.7086-1.4286.1392-.4169.1128-.3378.2526-.7562.2891-1.5676.068-1.5931-.153-1.5845-.0047-.0192-.1533-.6356-.2162-.8958-.5247-1.3257M324.5275,51.51l-.8816-.0616-1.0743.0255-2.6306.1871-1.0686.1276-.15.0319-.89.1891-.1619.0511-.8188.2579-.8986.394-.7966.4678-.2143.1675-.46.36-.5329.5783-.38.6094-.0385.1111-.18.5182-.051.6321.0822,1.5393.0326.17.0339.177.0525.2737.2835.5953.4422.55.59.4989.7257.4281.839.3486.4343.1224h0l.5008.1412,1.0063.1729.4.0268.6548.044,1.0744-.0255,2.63-.1871,1.0715-.1275.3742-.08.6633-.1414.9808-.3089.2069-.0907.5887-.2582.103-.0451.7965-.4677.6746-.5273.434-.4709.099-.1074.3374-.5414.0424-.068.2183-.6293.051-.6321-.0171-.32-.0135-.2513-.0516-.9674-.1162-.6208-.2835-.5953-.3369-.4162-.1081-.1337-.59-.4989-.7256-.4281-.214-.0889-.3727-.1548-.2524-.1049-.9354-.2636-1.0063-.17-.1729-.0121m19.6441,22.3151-.348.8373-.0007.0017-.1741.618-.0895.3175-.1729,1.0063-.0709,1.0545.0255,1.0743.1674,2.3528.02.2777.1247,1.0687.224,1.04.309.9808.3279.7479.0661.1507.4677.7965.1158.1483.0658.0842.3456.4421.0738.0681.5045.4649.3919.2443.2175.1355.6293.2183.2134.0172.1438.0116.275.0222,1.4224-.0759.1168-.0063.5867-.11.0341-.0064.5952-.2863.55-.4422.1583-.1871.3406-.4025.428-.7257.3486-.8391.1075-.3813.1562-.5541.1362-.8063.0338-.2.0159-.2272.0578-.8273-.02-.8418-.0056-.2325-.1871-2.6306-.1275-1.0686-.2211-1.04-.2626-.8334-.0464-.1474-.394-.8986-.2343-.3991-.0166-.0281L351.38,73.44l-.5273-.6747-.5782-.5329-.61-.38-.6293-.2183-.6321-.051-.6548.035-.2254.012-.5632.03-.0958.0051-.5274.0987-.0934.0175-.5953.2863-.55.4422-.4989.59-.428.7257M218.4808,211.5845l-.0626.2854-.0539.5924.017.5953.0907.5868.1644.5726.1654.394.0643.1531.2976.5159.36.4733.4138.4281.0936.0758.3685.2984.5074.3118.5386.2494.5669.1786.5868.1106.5924.0368.5925-.0368.5867-.1106.567-.1786.5385-.2494.36-.2213.1475-.09.462-.3742.4139-.4281.3571-.4733.2977-.5159.065-.1531.1674-.394.1644-.5726.0907-.5868.017-.5953-.0538-.5924-.1276-.5811-.1984-.5613-.2636-.53-.3289-.4961-.3883-.4536-.4394-.4-.3827-.2708-.102-.0722-.5244-.2806-.5528-.2155-.5782-.1445-.59-.0737h-.5953l-.5181.0647-.0715.009-.5783.1445-.5527.2155-.5244.2806-.4848.343-.1332.1212-.3061.2784-.3884.4536-.3288.4961-.2636.53-.1985.5613Z" transform="translate(-2.8221 -2.8303)"/></svg>