<svg id="Layer_1" data-name="Layer 1" xmlns="http://www.w3.org/2000/svg" viewBox="0 0 421.9343 240.2877"><defs><style>.cls-1{fill:#4c4c4c;stroke:#000;stroke-miterlimit:11.3386;stroke-width:0.008px;}</style></defs><path class="cls-1" d="M150.0788,80.3562l7.3,3.5693,1.2113.5923,4.5571,2.16,4.8143,2.2819,9.9241,4.5638,7.285,3.2625,2.1009.9408.9945.4455,10.7377,4.6857,10.99,4.6771,11.1373,4.6234,1.9317.7823,8.5508,3.4633.6945.2812,11.109,4.3881,10.9332,4.2038,10.6555,3.98,10.27,3.7162,1.0228.3575,1.758.6142,6.4084,2.24.6016.21,3.0688,1.0292,6.1438,2.0606.8574.2737,7.25,2.314.4451.1421,7.2541,2.1773.1641.0507.0612.0169.3215.0965,6.9817,1.9332.137.0338.3322.0821,1.5208.42,4.8954,1.1708,3.8154.9126,2.3581.46,10.9353,2.5845,4.2038.9936,2.7394.6474.0607.0144,2.0691.489.1861.044.0012-.0052.01-.0441.006-.0255,2.0723-1.5237.5782-.4252,6.7542-4.9666,22.9206,8.9822.91.3565,32.2388,1.9149,5.3188,20.4138,1.2716,4.88.46,1.7655,1.3516,5.1874-4.809,3.0756-2.3226,1.4854-8.3945,5.3686.8228,4.2833-3.3393,2.4555,2.6788,10.2851,1.0517,4.0377.7368,2.829.1278.49-10.3634,6.6273-10.5184,6.7266-7.19,4.5979-11.776-9.672-12.3261-10.1238L334.6521,213.72l-1.783-8.6119-.1474-.7119-.4461-2.1545-.1127-.5444-.0807-.39-.314-1.5167-.01-.0472-.0719.0149-.0027.0006,0-.0018-10.9764-4.345-2.525-1-1.8029-.7137-7.2039-2.8517-1.61-.6374-3.4265-1.3565-.6664-.2638-.8033-.318-1.3912-.5507L287.82,182.3934l-.6681-.2645-.8774-.3755-4.573-1.9575-.5475-.2324-3.0978-1.3152-5.3689-2.2792-9.513-4.011-2.3207-.9712-7.5949-3.1787-10.2246-4.2548L232.6,159.2362l-.9865-.4058-9.5612-3.934-10.5534-4.3172-10.4627-4.252-10.2671-4.15-5.5984-2.25-4.3767-1.7586-8.6874-3.4651-.8994-.3588-9.1048-3.6057-8.538-3.3534-7.886-3.0642-6.9505-2.6691-.21-.0805-6.3609-2.4095-5.5077-2.0409-4.595-1.6583-1.2271-.423-.8221-.3254-1.8559-.7347-2.6265-1.04-2.0064-.7942-3.3545-1.328L98.2,106.0838l-4.2414-1.679-1.6742.185-.2726.03-.1714.019-.5472.06-.9447.1045-1.0149.1121-7.5969.6322-7.2765.3911-6.8825.1446-6.4262-.1049-5.9045-.3515-5.3263-.5953-4.0791-.7213-.6179-.1092-4.0252-1.06-1.732-.67-1.5789-.6111-2.5654-1.4882L33.5254,98.691l-1.012-1.8567-.2154-2.0182.5839-2.1544L34.26,90.3883l2.1572-2.37,1.6005-1.3407,1.3164-1.1027.4027-.2756,3.2426-2.2189.0595-.0345,1.9479-1.1311.8556-.4968,1.0558-.6131.4211-.2445L49.777,79.32l-.1257-.0923-.3447-.2533-.5462-.4011-.7216-.53-2.1969-1.6139L17.0453,55.2751l-.0062-.0045-.7965-.5852L5.8887,47.08l-.0515-.0378-.3882-.3066L3.8121,45.4424l-.6435-.5082-.0567-.0448H2.8346V2.8346H46.3578V8.8341l.2964.3984,2.7348,3.6747.9316,1.2518,6.1172,6.7947,3.5051,3.3222.4351.4124.1842.1942.5638.5148L63.61,27.7512l.982.81,1.1553,1.0549L69.0633,32.33l2.0358,1.6656.7762.6352.4662.3481L75.0337,36.99l2.437,1.82.9655.721.4577.3418.5245.3628.4477.31L82.24,42.1868l2.1278,1.4719,1.3905.9619.33.2282.6406.4431.442.2858,5.1139,3.305,3.0274,1.9566,1.3934.8476,4.4051,2.68.6873.4181,2.7552,1.6759,9.4438,5.4241.3726.214,10.2954,5.6041,4.3512,2.249,6.3212,3.2672,2.7448,1.3464.6455.3167,7.56,3.7086,3.7912,1.7656M50.78,95.7232l.04-.635-.0341-.6349-.102-.6294-.173-.6123-.2409-.59-.0761-.1389-.23-.42-.3657-.5216-.4195-.4762-.4734-.428-.5159-.3714-.5556-.3089-.5868-.2466-.6122-.1814-.5925-.1019-.034-.0059-.635-.04-.6349.0311-.6293.1049-.6123.1729-.59.241-.5584.3033-.5216.3656-.4762.4224-.428.4734-.3714.5159-.2617.4706-.0473.085-.2466.5868-.1814.6123-.1077.6264-.04.635.0312.6349.1049.6293.1729.6123.2409.59.3033.5584.165.2353.2007.2863.4223.4762.4734.4253.516.3712.5555.3119.5868.2465.6123.1787.6264.1105.635.04.635-.034.0935-.0152.5358-.0868.6123-.173.59-.2409.5585-.3061.5215-.3657.4762-.42.4253-.4733.2387-.3317.1326-.1842.3118-.5557.2466-.5867.1786-.6123.1105-.6264M28.6356,36.9467l.5868.2467.6094.1785.6265.1106.6378.04.6349-.034.6265-.1021.6123-.1729.59-.2409.5612-.3062.1106-.0779.4082-.2877.479-.4195.4252-.4735.3714-.5159.2593-.462.0525-.0935.2466-.5868.1786-.6123.1105-.6265.0369-.6349-.0312-.635-.102-.6292-.173-.6123-.2409-.59-.3062-.5584-.1589-.2268-.2067-.2947-.4224-.4762-.47-.4281-.4564-.3267-.0624-.0446-.5556-.309-.5867-.2467-.6095-.1814-.6264-.1077-.6378-.04-.635.0312-.6264.1049-.6123.1729-.59.2409-.2637.1433-.2947.16-.5216.3657-.4791.4223-.4252.4734-.2448.34-.1265.1758-.3118.5556-.2467.5868-.1786.6122-.1105.6265-.0368.6349.0311.635.1021.6293.1729.6123.2409.59.0808.1474.2254.4111.3657.5215.4223.4762.4706.4252.5187.3714.3458.194.21.1177M39.2825,52.4325l.7087.6378.7739.5555.8333.4677.8816.3686.9156.2693.9383.1643.9524.0595.5556-.028.4-.02.9411-.1559.9184-.258.8844-.36.8362-.4593.7824-.5471.7143-.6321.5869-.6491.0538-.0595.5555-.7768.4649-.8333.3714-.8788.2693-.9156.1644-.9411.0595-.9524L53.82,46.04l-.027-.5046-.1531-.9411-.2608-.9183-.36-.8845-.4564-.839-.55-.78-.6321-.7143-.2477-.224-.461-.4167-.7738-.5555-.8334-.4677-.8787-.3686-.9156-.2693-.9411-.1643-.9525-.0595-.9524.0482-.944.1558-.9184.258-.8815.3628-.8391.4564-.7824.5471-.5349.4733-.1794.1588-.6378.7086-.5584.7768-.4649.8333-.3713.8787-.2693.9157-.1644.9411-.0353.5924-.0214.36.0481.9524.1531.9411.2608.9183.36.8845.4564.839.55.78.1149.13.5172.5868m47.46,34.2481.3061.5584.3657.5216.4195.4762.4734.428.5187.3686.5557.3118.5867.2466.6095.1786.6264.1105.635.04.445-.0218.1928-.01.6264-.1048.6123-.1729.59-.241.5584-.3033.5215-.3657.4763-.4223.428-.4734.3713-.5159.309-.5557.0238-.0566.2228-.53.1814-.6122.1106-.6265.0368-.635-.0312-.6349L97.41,83.01l-.1729-.6123-.2381-.59-.3062-.5585-.2643-.377-.1013-.1445-.4224-.4763-.4706-.428-.5187-.3685-.5556-.3118-.5868-.2466-.6094-.1786-.6293-.1105-.2495-.0157-.3855-.024-.635.0311-.6292.105-.6123.1729-.59.2409-.5584.3033-.5216.3657-.4762.4223-.4252.4734-.1367.19-.2347.3261-.3118.5555-.2466.5868-.1786.6123-.1105.6265-.04.6349.034.635.102.6292.173.6123.24.5868.0011.0028M385.2879,221.6523l.1672-.0735,1.2529-.55.5471-.3344.4621-.4791.0085-.0142.3628-.6038.2665-.7369.1587-.8419.0425-.9242-.068-.9835-.1814-1.0177-.196-.6973-.0932-.3317-.3911-1.0119-.7418-1.69-.3269-.7448-.4819-.9751-.5613-.91-.108-.1418-.5184-.68-.6775-.7171-.7115-.59-.7257-.4536-.2211-.0928-.5017-.21-.7058-.1474-.6662.017-.6151.1757-.4138.1814-1.0092.4423-.5442.3345-.4621.479-.3713.618-.2326.6434-.0339.0936-.1587.8419-.0454.9241.0709.9836.1814,1.0176.2892,1.029.3539.9156.0372.0963,1.0687,2.435.4819.9751.5612.91.6265.822.5356.5669.1419.15.7086.5895.703.4394.0227.0142.3251.1359.4006.1674.7058.1446.6662-.0142.6151-.1757m-42.8265-22.4-.41.6607-.136.3256-.1673.4-.1474.703.01.6106.0009.0556.17.6123.07.1643.0628.1463.4733,1.1038.326.5443.4706.4592.6038.3657.7256.2608.3033.0561.5244.0969.91.04.9694-.0737.4989-.093.5046-.0941,1.0148-.2948.4133-.1631.5845-.2308,2.4066-1.0829.9609-.4847.8806-.5557.018-.0113.8136-.6292.7086-.68.5868-.7114.4507-.7257.06-.1446.2429-.5811.1474-.703-.0113-.6661-.17-.6123-.1459-.34-.4607-1.0743-.2954-.4932-.0306-.0511-.4706-.4591-.6066-.3658-.7228-.2607-.8277-.1531-.2466-.0108-.6633-.0289-.9695.0737-1.0035.1871-1.0148.2948-1.0006.394-.3231.1456-.52.2343-.31.14-1.25.563-.9609.4848-.6021.38-.2965.1871-.8135.6293-.7087.6775-.2187.2662-.3681.4481-.04.0649m28.18,1.88.3.0333,1.2841.1424,1.5931-.0482,1.57-.2664,1.5194-.4847,1.4371-.6917,1.3238-.8844,1.1906-1.06,1.0318-1.216.7859-1.2444.0645-.1021.6576-1.4542.4479-1.5307.1676-1.1508.062-.4253.0085-1.593-.2155-1.5789-.4308-1.5364-.6406-1.46-.8363-1.355-1.0176-1.2274-1.1792-1.0715-1.3181-.8985-.941-.4649-.4877-.241-1.5137-.5017-1.5676-.2835-1.593-.0652-1.4032.1406-.1814.0181-1.55.377-1.3944.5557-.0853.034-1.3862.7908-1.2585.9752-1.1141,1.1395-.9439,1.2841-.7569,1.4031-.5527,1.4967-.3373,1.5563-.1219,1.59.0884,1.3409.0165.2494.3231,1.5591.5358,1.5024.4876.9269.255.4847.93,1.2926,1.1,1.1537,1.25.9864,1.3777.8051,1.474.6038,1.5449.394m31.113-26.7619-.3281-.1186-.4089-.1478-.8419-.1588-.2069-.01-.7172-.0352-.5791.0418-.4045.0291-1.0176.1814-1.029.2891-1.012.3912-1.046.4591-1.3889.61-.9751.4819-.9071.5612-.8249.6265-.7144.6775-.5924.7087-.3791.6066-.0234.0373-.051.0817-.3033.7257-.1446.703.0142.6689.1757.6152.309.7036.3146.7165.3345.5442.4791.4649.6179.3685.481.1758.256.0935.8419.1559.9241.0454.9836-.068.5726-.1021.4451-.0793,1.029-.2891,1.0119-.3912.8086-.3545,1.6292-.7142.8816-.437.0907-.0449.91-.5612.8221-.6265.7171-.6775.5925-.7115.4507-.7257.1327-.3174.1706-.4083.1474-.7029-.017-.669-.1758-.6123-.2236-.51-.3761-.8581-.0239-.0546-.3316-.5442-.4819-.4649-.618-.3685m-44.04-14.33-.4045.4144-.3657.6038-.2636.7257-.0671.3628-.0859.4649-.04.91.0306.3877.0459.5817.1871,1.0035.2948,1.0148.394.9978.2.445.88,1.9617.4876.9609.3231.5148.241.3837.6321.8136.6775.7087.377.3109.1832.1511.1513.1247.7285.4507.7256.3033.703.1474.6662-.0113.6123-.17.1077-.0462,1.3067-.56.3955-.2382.146-.0879.4592-.47.3656-.6038.2637-.7256.153-.8278.0082-.187.0315-.7229-.0737-.97-.1871-1.0034-.06-.207-.2347-.8079-.3968-1.0006-1.08-2.4037-.4876-.9609-.3968-.6322-.1673-.2665-.0453-.0586-.584-.7549-.68-.7086-.7115-.5868-.7285-.4507-.1984-.0833-.5244-.22-.4507-.0941-.2551-.0533-.6662.0114-.6094.17-.3969.17-1.02.4368-.1651.0993-.3764.2266-.0547.0562m-109.3966-21.58.5953.0369.1162-.0073.4762-.03.584-.1106.5669-.1814.5414-.2466.5046-.3146.4649-.3714.4138-.428.3572-.4734.2976-.5159.2325-.5471.1615-.5726.0907-.5867.02-.5954-.0361-.3968-.0178-.1956-.1275-.581-.1985-.5614-.2664-.5329-.326-.496-.3884-.4507-.4393-.4-.4847-.343-.5245-.2834-.5556-.2155-.5754-.1446-.59-.0708h-.5953l-.59.0708-.5782.1446-.5556.2155-.5216.2834-.4876.343-.4393.4-.3855.4507-.3289.496-.2664.5329-.1956.5614-.1276.581-.0187.1956-.038.3968.02.5954.0907.5867.1616.5726.2324.5471.1178.2041.18.3118.36.4734.4139.428.462.3714.5046.3146.5414.2466.567.1814Z" transform="translate(-2.8306 -2.8306)"/></svg>