<svg id="Layer_1" data-name="Layer 1" xmlns="http://www.w3.org/2000/svg" viewBox="0 0 214.1145 199.1192"><defs><style>.cls-1{fill:#4c4c4c;stroke:red;stroke-miterlimit:11.3386;stroke-width:0.008px;}</style></defs><path class="cls-1" d="M207.1162,2.9423l3.2315.6718L212.97,4.85l1.9842,1.7859,1.3295,2.3158.6576,2.8291-.0142,3.3108-.6888,3.7616L214.88,23.0314l-1.447,3.2712-.3963.8958-.1693.3827-.7153,1.3181-.6691,1.2331-1.266,2.3329-3.26,5.1647-3.8353,5.4-4.3795,5.5842-4.8813,5.709L188.53,60.1087l-4.7877,4.8445-.2941.2975-.5418.5482-.1081.1094-.0135.0128-.2509.2379-.3689.35-.25.2366-.4325.3534-1.0148.9744-1.1757,1.129-.1625.156-.5667.5441-.7086.7994-.044.068-.0323.05-.719.7775-.0142.0153-.01.0105-.3772.4982-1.6184,2.138-1.44,2.316-.3684.5924L171.6265,80.32l-1.3833,3.3648L169.7181,85.3l-.6286,1.9338-.9071,3.6935-.6548,3.807-.394,3.8834-.1333,3.92.1333,3.92.394,3.8807.6548,3.8069.9071,3.6963,1.1537,3.5462.2061.5017.4634,1.1282.4536,1.1042.26.6335,1.6044,3.1521.2659.4272,1.5426,2.4783.5708.7541,1.2436,1.6428,3.6139,3.4253,2.33,2.2084,5.7317,5.8025,5.3319,5.7855,4.8813,5.709,3.6726,4.6828.7069.9014,3.8353,5.4,1.4743,2.3358,1.7855,2.8289,2.65,4.8841,2.0126,4.55,1.3578,4.1783.4075,2.2252.1293.7058.152.8306.0142,3.3108-.6576,2.829-1.3295,2.3159-1.9842,1.7858-2.6221,1.236-3.2315.6718-3.8126.1048-4.3568-.462-4.8558-1.029-.0141-.0042-.6435-.1916-4.6545-1.3859-5.0371-1.87-.68-.2526-1.9111-.8324-1.0866-.825-30.672-25.6034-2.197-1.834-3.03-2.3387-3.24-2.1344-3.4327-1.9134-.1928-.09-.6981-.3265-.9829-.46-1.7262-.8074-.4167-.16-2.928-1.1274-.4027-.1551-.1814-.0557-.0029-.0008-3.4012-1.0458-.2867-.0882-2.0111-.4733-1.963-.4622-2.13-.3538-1.9147-.318-2.0041-.1981-1.5655-.1548-.5293-.0523-3.3511-.1106-.7733-.0255-.1332.0044v.0259l-.1474-.0048-4.1244.136-3.549.351-.55.0544-4.0479.6718-1.9616.4621-2.01.4734-.2859.088-2.3645.7287-1.04.3207-.1815.0559-3.3309,1.28-.4165.16-1.7292.8088-.98.4583-.891.4167-3.4327,1.9134-3.24,2.1345-3.03,2.3386-2.1665,1.8085-17.4208,14.542-8.5834,7.165-4.7023,3.9252-1.0805.82-1.9132.8336-3.5589,1.3217L31,198.87l-5.3121,1.5817-.7349.1556-3.7609.7966-.3628.0768-4.3569.4649-.3968-.0109-.5925-.0164L12.66,201.841l-3.2315-.6747L6.8088,199.93l-1.9842-1.7859-1.33-2.3158L2.8347,193l.0141-3.3108.6917-3.7616,1.3578-4.1754,2.0126-4.5525,2.6475-4.8841,1.8017-2.8544,1.4582-2.31,3.8381-5.4,4.38-5.5842,4.8784-5.709,5.332-5.7855,5.7345-5.8,2.3272-2.2078,3.6143-3.4288,1.2081-1.5943.2828-.3732.3232-.4265,1.8085-2.9083,1.6044-3.1522.7257-1.7631.4527-1.1.2077-.5046,1.1509-3.5462.9071-3.6963.6548-3.807.3969-3.8806.13-3.92-.13-3.92-.3969-3.8807-.6548-3.8069-.9071-3.6964-.6271-1.9321-.5238-1.614-1.3861-3.3676L46.5449,77.193l-.3843-.6179-1.4242-2.29-.3232-.4269-1.2955-1.7114-.3769-.4979-.0279-.03-.7044-.7608-.0567-.0879-.0274-.0424-.7087-.7966-.5963-.5732-.0977-.0939L39.308,68.097l-.7-.6729-.3118-.3-.454-.3709-.2358-.2236-.3675-.3486-.258-.2445-.0086-.0087-.0068-.007-.0977-.0988-.2755-.2788-.2641-.2672-5.0818-5.1421-5.332-5.7855L24.35,52.5175,21.0359,48.64l-4.3795-5.5814-3.8381-5.4028-3.26-5.1647L8.28,30.1323l-.6546-1.2076-.7145-1.3181-2.0126-4.55L3.5405,18.8787l-.6917-3.7616-.0141-3.3108.66-2.829,1.33-2.3159L6.8088,4.8755,9.428,3.64,12.66,2.9678l2.6022-.0715.7257-.02.4847-.0133,4.3569.462.3628.0768,4.4192.9359.0766.0163L31,5.9385l2.6218.9724,2.0034.7429,8.7883,6.7511,18.9012,14.52,1.572,1.2076,4.9338,3.79,4.168,3.2018,3.753,2.883L89.056,48.6991l.76.5837,1.04.7992,4.2589,3.2716,5.3137,4.0819,1.59,1.0432.0567.0267.3912.1848,1.3351.63,1.9332.6123,2.0353.377,1.93.1156.1532.0091.0283-.0017v-.0261l.04.0023.1532-.0092,1.0112-.06.9219-.0551,2.0324-.377.0369-.0117,1.8964-.6035.2749-.1293,1.5081-.71L119.35,57.41l5.28-4.0564,5.33-4.0942.0029-.0021.76-.5837.9582-.7361,1.82-1.3979,1.8585-1.4277,1.9362-1.4873.0036-.0028,12.66-9.725,4.9006-3.7645,1.6052-1.2331L183.7418,7.9448l.4133-.3176,1.9292-.7163L188.7789,5.91l5.3121-1.5817.0766-.0163L198.9468,3.3l4.3568-.4649.4876.0138.5187.0147,2.8063.0792m-97.22,71.5362-1.5364.0386-2.7978.3516-2.7468.6264-.74.2494-1.9332.652-.3947.1786-2.1735.9836-1.82,1.0545-.6211.36-.8381.6044,7.78,7.8028,7.8,7.8227.0065.0065v-.0129l6.3666-6.3856,9.2328-9.26-.8366-.6033-.5771-.3345-1.8635-1.08-2.12-.9581-.4515-.2041-2.67-.9015-.7144-.1635-2.0352-.4657-2.795-.3515-.9855-.0238-.5367-.0129v.0264m4.8793,68.4925,1.4731-1.4746.4327-.4331,1.8379-1.84H101.4973l.5783.5787,3.1666,3.1687h-.2668l4.9692,4.9776,4.9691-4.9776h-.138m10.7157-17-2.944-2.9528-6.2986-6.3173-6.3476-6.3665-.0048-.0048v.01l-7.8208,7.8435-4.8215,4.8355-2.9685,2.9772.848.6115,2.4406,1.4144,2.5682,1.1623,1.9332.6519.74.25,2.7468.6293,2.7978.3515.9855.0238.5367.0129v-.0264l1.5364-.0387,2.795-.3515,2.0352-.4637.7144-.1627,2.67-.9015,2.571-1.1622,2.4406-1.4144.8464-.61m69.3-100.5412.5613.5613.1474.1474.323.1644,1.2248.6236,1.7121.2722,1.715-.2722,1.2248-.6236.3229-.1644.3764-.3763.851-.8511.1847-.3621.3567-.6992.2466-.4835.2721-1.715-.2721-1.715-.2466-.4844-.4634-.91-.01-.02-.0678-.1332-1.2274-1.2274-.9966-.5074-.5511-.2806-1.715-.2722-1.7121.2722-.5512.2806-.9966.5074-.0517.0517-1.1756,1.1757-.0679.1332-.037.0728-.6832,1.3417-.2721,1.715.2721,1.715.6832,1.3392.1049.2056.5186.5187M149.9584,68.0587l2.54.4036,2.622-.4167,2.3641-1.2075,1.8794-1.8822,1.1565-2.2777.0482-.0949.4167-2.6306-.4167-2.63-.0482-.0949L159.3638,54.95l-1.5935-1.596-.2859-.2862-2.3641-1.21-2.622-.4167-2.54.4036-.0822.0131-2.3669,1.21-.2854.2862-1.5911,1.596-1.2076,2.3726-.4139,2.63.4139,2.6306,1.2076,2.3726,1.8765,1.8822,2.3669,1.2075.0822.0131m-8.2261,10.529.6236-.6237.3827-.3826.5123-1.0063.2757-.5415.2722-1.7149-.2722-1.7149-.788-1.545-.3827-.3826-.6066-.6067-.2381-.238-1.5449-.7909-1.715-.2693-1.7149.2693-1.5477.7909-.2381.238-.6288.6289-.2585.2584-.102.102-.7881,1.545-.2721,1.7149.2721,1.7149.2757.5415.5124,1.0063.102.102.9043.9043.2211.2211,1.5477.7881,1.7149.272,1.715-.272,1.5449-.7881.2211-.2211m10.8765,20.0607h12.1833V94.3823H151.3134v4.2661h1.2954m-15.5934,9.7343.2835-1.8758.1389-.9192.1389-2.8234-.1389-2.8232-.1389-.9192-.2835-1.8758-.6944-2.7383-.9638-2.656-1.2217-2.5484-.2722-.4462-.0283-.0465-1.1707-1.9195-.177-.2345-2.5244,2.5318-.0029.0029-13.625,13.6645.5613.5629L129.96,116.42l.0029.0029,2.5316,2.5391.17-.2247,1.1707-1.92.0283-.0464.2722-.4462,1.2217-2.5484.9638-2.656.6944-2.7383m7.41,33.86-.4139,2.63.194,1.2331.021.1332.1989,1.2643,1.2076,2.3726,1.8765,1.8822,2.3669,1.2076.0822.013,2.54.4037,2.622-.4167,2.3641-1.2076,1.8794-1.8822,1.2047-2.3726.2-1.2643.2164-1.3663-.4167-2.63-1.2047-2.3726-1.8794-1.8822-2.3641-1.21-2.622-.4167-.487.0774-2.0529.3263-.0822.013-2.3669,1.21-1.8765,1.8822-1.2076,2.3726m-2.5859-7.4155.1979-.1983.2875-.2883.4167-.4176.7881-1.5449.2721-1.7149-.2721-1.715-.7881-1.5477-.4167-.4167-.6689-.669-.1418-.1417-1.5477-.7881-1.715-.2721-.9524.1511-.7625.121-1.5449.7881-.142.1417-.6077.6063-.3785.3776-.0283.0282-.0737.0736-.7881,1.5477-.2693,1.715.2693,1.7149.7881,1.5449.0737.0737.0283.0284.6038.6038.1984.1983.326.3261,1.5449.788.7625.12.9524.15,1.715-.2693,1.5477-.788.3253-.3261m61.7925,51.4021.0687-.1348.5584-1.0969.2721-1.715-.2721-1.7149-.2526-.4961-.3058-.6007-.23-.4508-1.2274-1.2275-.4179-.2128-.2057-.1047-.9241-.4706-1.715-.2692-1.715.2692-.9224.4706-.6224.3175-.2181.218-1.0093,1.01-.1229.2411-.2938.5772-.1188.2332-.2526.4961-.2721,1.7149.2721,1.715.3714.7294.4167.8183.1128.1129,1.1146,1.1146.1386.0706.556.2837.85.4337,1.715.2721,1.715-.2721.8518-.4337.6959-.3543.21-.21,1.0173-1.0173.1609-.316M58.7934,94.3823h-3.858v4.2661H68.4142V94.3823H58.7934M25.0608,24.9905l.2412-.2412.309-.6068.4791-.941.2693-1.7121L26.09,19.7745l-.4791-.941-.1589-.312-.15-.2948-.9925-.9925-.2348-.2349-.6292-.32-.9186-.4677-1.3351-.2119-.38-.06-1.715.2721-.9186.4677-.6291.32-1.2274,1.2274-.15.2948-.1844.3622-.4535.8908-.2722,1.7149.2722,1.7121.4535.8908.2085.4094.126.2476,1.0336,1.0336.1938.1937.69.3515.8574.4366,1.715.2721.38-.06,1.3351-.2119.8574-.4366.4047-.2059.2857-.1456.9861-.9861m50.29,32.3572-1.2048-2.3726-1.6165-1.6215-.26-.2607-2.3669-1.21L69.82,51.87l-2.54-.4008-2.622.4138-2.3669,1.21-.26.2607-1.6165,1.6215L59.21,57.3477l-.4167,2.63.4167,2.6306,1.2047,2.3726,1.8766,1.8822,2.3669,1.21,2.622.4167.3543-.0563,2.1856-.3473.0822-.0131,2.3669-1.21,1.8765-1.8822,1.2048-2.3726.4167-2.6306-.4167-2.63M77.587,77.97l.6436.6436.2664.2664,1.5477.7881,1.715.2722,1.715-.2722L85.02,78.88l.2665-.2664.6293-.6293.3316-.3316.55-1.0772.2386-.4677.2721-1.715-.2721-1.7149L86.2469,71.13l-.3316-.3317-.029-.029-.674-.674-.1928-.1928-1.5448-.788-1.715-.2721-1.715.2721-1.5477.788-.1927.1928-.2455.2455L77.42,70.98l-.15.15-.788,1.5477L76.21,74.3924l.2721,1.715.2386.4677.5494,1.0772.15.15.1671.1672m4.7538,21.9969-.1417,2.8234.1417,2.8233.4195,2.795.6973,2.7382.9638,2.6561,1.2218,2.5483.3.4927,1.1707,1.92.1684.2231,2.5331-2.54,12.26-12.2955,1.3651-1.369-1.3651-1.3691-12.26-12.2954L87.29,86.584l-.1759.2327-1.1707,1.92-.3.4926-1.2218,2.5484-.9638,2.656L82.76,97.1716l-.394,2.6249-.0255.17m3.05,34.886.2239-.2238.3288-.3289.3033-.3033.7881-1.5477.2721-1.715-.2721-1.7149-.7881-1.5449-.3033-.3033-.1912-.1912-.6393-.6394-.0936-.0935-1.5448-.7881-1.715-.2721-1.715.2721-.7993.4071-.7484.381-.0935.0935-.3326.3326-.617.617-.034.034-.15.15-.788,1.5449-.2721,1.7149.2721,1.715.788,1.5477.15.15.034.034.4478.448.224.2238.3713.3714,1.5477.788,1.715.2722,1.715-.2722,1.5448-.788.3714-.3714m-9.8191,11.28.1955-1.2338-.3714-2.3443-.0453-.2863-1.2048-2.3726-1.8765-1.8822-2.3669-1.2076-.0822-.0131-2.0541-.3263-.4858-.0773-2.622.4167-2.3669,1.2076-1.8766,1.8822L59.21,142.268l-.0454.2863-.3713,2.3443.2124,1.3407.2043,1.29,1.2047,2.3726,1.8766,1.8822,2.3669,1.21,2.622.4167,2.54-.4037.0822-.013,2.3669-1.21,1.8765-1.8822,1.2048-2.3726.2043-1.29.0169-.1069M24.2929,187.611l.8707-.8727.3567-.3575.1814-.3557.6066-1.1893.2722-1.7149-.2722-1.715-.17-.3345-.4363-.8568-.1814-.3563-.7342-.7342-.4932-.4933-.2556-.13-1.2893-.6577-1.5562-.2469-.1587-.0252-1.715.2721-1.2916.6577-.0312.0159-.2249.1144-1.2274,1.2275-.4677.9186-.15.2945-.17.3345-.2722,1.715.2722,1.7149.32.628.4677.917.1518.1521L17.77,187.611l.13.0662.939.4781.4788.2437,1.715.2693.1587-.0249,1.5562-.2444.376-.1917.1019-.052.7306-.3727.3364-.1716m136.6923-81.89h-9.6718v4.2661h13.4787v-4.2661h-3.8069M67.1669,109.987h1.2473v-4.2661H54.9354v4.2661H67.1669Z" transform="translate(-2.8306 -2.8306)"/></svg>