<svg id="Layer_1" data-name="Layer 1" xmlns="http://www.w3.org/2000/svg" viewBox="0 0 84.3075 97.3214"><defs><style>.cls-1{fill:#4c4c4c;stroke:red;stroke-miterlimit:11.3386;stroke-width:0.008px;}</style></defs><path class="cls-1" d="M76.7565,7.5826l-.001.0015.001.1154.0015.1711.0018.2027.002.2353.0021.24.0024.2712.0026.3016,0,.0151.41-.0046,9.95-.1119L76.931,27.6766l-18.3544,33.58L42.2589,91.1109l-1.5959,2.92-6.6669.0749-1.4714.0165-.3191.0037-.2819.0031.0072.8267.0047.5441.0009.0975.163.2165.2353.4507.1417.4592.0482.4621-.0482.4648-.1417.4592-.2353.4507-.1347.1789-.0009.0012.0006.06.0011.1283.0058.6719.0034.3854-12.4324.1077-6.2167.0539h0l-.0048-.547-.0019-.2156-.0045-.5149-.0008-.0944-.1609-.2155-.2353-.4507-.1446-.4592-.0453-.4648.0453-.4621.1446-.4592.2353-.4507.1335-.1788-.0006-.0634-.0011-.1245-.0015-.1754-.0017-.1879-.002-.2365-.0045-.5087-.5473.0061-9.893.1113,2.3613-4.32L7.652,85.6424l7.5462-13.8061-.1491-.1216L5.4,63.8475,5.1959,40.32l9.8532-8.3245.36-.3041,1.4544-1.2288-.035-4.0142L16.6819,9.6349,18.21,9.6214l.5423-.0048-.0075-.8586-.0058-.6712-.0013-.1488-.1932-.327L18.36,7.16l-.1071-.4451L18.25,6.701l-.04-.4649.04-.462.11-.4592.1843-.4507.1639-.2775,0-.0376-.001-.1106-.0014-.1637-.0016-.1823-.0019-.2152L18.7,3.6349,18.6978,3.4l-.0005-.0581,14.5049-.1276.0048.547.0055.6287.0012.1446.1926.33.1842.4507.1134.4592.0369.462-.0369.4649L33.7,6.7152l-.11.4451-.1842.4507-.1632.2793,0,.0385.001.116.0013.1471.0017.1926.0018.2116.002.2315.0024.2657.0023.2727.0011.1228.4838-.0044,1.5874-.0139.2192,25.1359,6.7115-12.2791.3884-.71L48.73,10.4874l.4167-.7624.1531-.28,8.2516-.0928.312-.0035.2594-.0029-.0083-.9417L58.11,7.8663,58.11,7.779l-.1353-.1964-.2325-.4847L57.6,6.6018,57.5518,6.1,57.6,5.5983l.1417-.496.2325-.4876.1063-.1534-.0007-.074L58.0677,2.999,76.714,2.8346l.0117,1.3363.0034.3869v.0171l.0273.04.2353.4876.1417.496.0454.5017-.0454.5018-.0324.1134-.1093.3827-.2353.4847m-41.8,46.2131.1417-.2862.1162-.3175.0092-.034.0787-.2919.0538-.3345.0227-.3373-.0113-.3374-.0454-.3344-.0765-.3289-.1077-.32-.1418-.309-.04-.0693-.1276-.2227-.0123-.0169-.1861-.258-.0489-.0557-.1751-.2-.2466-.23-.2664-.204-.1319-.0814-.1389-.0858-.0184-.0114-.0014-.0008-.3019-.1494-.3146-.1191-.3288-.0879-.156-.0253-.1757-.0286-.3373-.0226-.34.0113-.3345.0453-.3288.0766-.32.1106-.3061.1389-.1081.0624-.1867.1077-.2722.1984-.07.0606-.1228.1065-.0624.054-.23.2466-.2069.2693-.0724.116-.1062.17-.0482.0991-.0992.2042-.1191.3175-.0878.3259-.0539.3345-.0227.3373.0114.3374.0453.3344.0766.3289.0228.068.0849.2523.1417.309.1672.2919.1985.275.2239.2552.1361.1266.1105.1029.2693.2041.0088.0055.2775.1731.1431.0709.16.0793.3175.1191.326.0878.3345.0539.3373.0227.3373-.0113.2806-.0381.0539-.0073.3288-.0765.32-.1106.2624-.119.0438-.02.1444-.0833.15-.0868.22-.1565.0548-.0391.2523-.2238.2325-.2467.2041-.2693.0129-.0206.1656-.2657.0086-.0171m13.7735-.054.1361-.2747.1158-.309.0032-.0084.0851-.3261.0566-.3344.02-.3374-.0114-.3373-.0425-.3345-.0793-.3317-.1078-.3175-.1389-.3089-.0368-.0633-.1184-.2031-.0148-.0255-.1985-.275-.0252-.0292L48.1776,49.7l-.2494-.23-.2665-.207-.0691-.042-.22-.1337-.1316-.0653-.1717-.085-.0539-.02-.2608-.0987-.3288-.0879-.3316-.0538-.3374-.0227-.3373.0113-.3373.0454-.3288.0765-.32.1106-.2749.1246-.0313.0142-.0141.0083-.2778.1618-.2193.1561-.0557.0395-.2551.224-.23.2466-.2069.2693-.0019.0028-.0689.1106-.1078.1728-.0425.0876-.1049.2158-.1191.3175-.0879.3259-.0538.3345-.0227.3374.0113.3372.0454.3346.0765.3288.0382.1105.0724.21.1389.3089.0057.01.1644.2823.1955.2749.224.2522.2466.2325.2693.2041.0735.0459.2037.1271.0091.0056.0794.0393.15.0741.0744.0368.3175.1191.326.085.3344.0567.3374.02.3373-.0114.3345-.0425.3288-.0766.32-.11.0425-.0192.1278-.0574.1387-.0624.0973-.0566.1947-.1134.2749-.1985.07-.0611.1826-.16.2324-.2466.2041-.2693.0835-.1338.0951-.1525.0142-.0286M16.8236,55.29l.105.0511.1525.0741.0458.0222.3175.1192.326.0878.2183.0352.1162.0187.3373.0226.3373-.0113.3345-.0453.04-.0094.2885-.0672.32-.1077.3027-.1389.0062-.0028.292-.1673.2577-.186.0173-.0124.2522-.2214.0029-.0025.23-.2467.2041-.2692.0413-.0662.1231-.1974.0142-.0228.15-.3033.0085-.0226.1105-.2949.0451-.1672.0428-.1587.0539-.3317L21.94,52.33l-.0142-.34-.0425-.3345-.0766-.3288-.11-.32-.0312-.0687L21.5575,50.7l-.0652-.113-.1049-.1818-.11-.15-.0889-.122-.0647-.0746-.1564-.18-.2466-.2324-.2693-.2041-.1539-.096-.1324-.0826L20.16,49.26l-.2974-.1446-.3175-.119-.326-.0879-.1237-.02-.2108-.0339-.3373-.0226-.3373.0113-.2211.03-.1134.0153-.3288.0766-.32.1077-.2.0915-.1094.05-.0792.0453-.2128.1219-.275.1984-.0343.03-.2208.1937-.23.2466-.1563.2042-.0478.0623-.0437.0708-.1349.2184-.0737.1488-.0765.1545-.1191.3146-.0878.3288-.0539.3317-.0227.3372.0114.34.0453.3344.0607.2608.0159.068.1105.32.1162.2561.0227.05.17.2948.1506.2095.045.0627.2239.2551.2466.23.2533.1946.016.0123.2863.1785m4.6687-16.1029.034.0985.1389.3062.17.2919L22,40.1148l.031.0436.2239.2551.2466.23.2621.2015.0072.0055.2863.1786.175.085.1283.0624.3175.119.1162.0314.21.0565.3345.0538.3373.0227.3373-.0113.3345-.0454.3288-.0765.32-.1106.227-.102.082-.0368.292-.17.0992-.0706.09-.0638.086-.0612.2523-.2239.2325-.2467.2-.2642.0038-.0051.1785-.2862.0057-.0115.1446-.2919.119-.3175.0851-.3259.0158-.0935.0409-.241.02-.3373-.0113-.3373-.0425-.3345-.0794-.3289-.1077-.32-.1389-.3089-.0454-.0779-.1247-.2142-.1984-.2749-.0477-.0543-.0641-.0733-.1093-.1246-.25-.2325-.2664-.2041-.2433-.15-.0459-.0284-.3033-.15-.3146-.1191-.3288-.085-.3317-.0567-.3373-.02-.3374.0114-.3373.0454-.3118.0725-.017.004-.32.1077-.3061.1417-.1337.0766-.1583.0907-.275.1984-.0921.0809-.163.1431-.1847.1983-.0449.0482-.2069.2665-.1786.2891-.0482.0992-.0992.2041-.0737.1949-.0454.12-.0878.3288-.0539.3316-.0227.3374.0114.3373.0453.3373.002.0086.0746.32Z" transform="translate(-2.8278 -2.8305)"/></svg>