<svg id="Layer_1" data-name="Layer 1" xmlns="http://www.w3.org/2000/svg" viewBox="0 0 214.7334 477.7215"><defs><style>.cls-1{fill:#4c4c4c;stroke:red;stroke-miterlimit:11.3386;stroke-width:0.008px;}</style></defs><path class="cls-1" d="M158.1687,48.6449v77.7135h.1219v2.4491l.4438,2.6646,3.176,19.063,8.1485,4.1584.2506.1279,4.2264,2.1569.1332-.0653,5.1107-2.22.9725-.4224,5.7316-2.1231,5.3263-1.5818,1.7207-.3635,3.1493-.6654,4.371-.4649,3.8239.1049,3.24.6746,2.6278,1.2359,1.99,1.783,1.0472,1.8227.2851.4961.6633,2.829-.0171,3.3108-.6916,3.7616-.3954,1.2132-.9652,2.9622-2.0183,4.5524-2.2288,4.0961-.4272.7852-3.2684,5.1676-3.85,5.4-4.3932,5.5817-2.9424,3.4351-1.95,2.2767-.5314.5755-4.8119,5.21-5.7515,5.8-4.5326,4.286-1.2983,1.4-.6261.8248-1.3751,1.8114-1.8141,2.9056-.5025.9835-1.1077,2.1686-1.3889,3.3675-1.1537,3.5462-.91,3.6963-.6577,3.807-.3969,3.8806-.13,3.92.13,3.92.3969,3.8834.6577,3.807.91,3.6936,1.1537,3.5489L169.163,270.8l.0667.1616,1.08,2.1143.53,1.0378.2031.3257,1.611,2.5827.5058.6674,1.2489,1.6484,6.0774,5.743,5.7515,5.8025,2.9,3.138,2.4437,2.6447,1.95,2.2768,2.9424,3.435,4.3936,5.5815,3.85,5.4,2.4562,3.8834.8122,1.2841,2.656,4.8812,2.0183,4.5525.2907.893,1.07,3.2853.6916,3.7616.0171,3.3108-.2941,1.2529-.3692,1.5733-1.3323,2.3187-1.99,1.7859-2.6278,1.233-3.24.6747-3.8239.1048-4.371-.462-3.1493-.6654-1.7207-.3636-5.3263-1.5845-5.7316-2.1233-5.7366-2.4916-.0915-.04-.0777.04-4.5379,2.3149-8.3424,4.2561-.8957,5.38-1.8762,11.27-.9046,5.434v96.1257l-11.2025,5.4767-5.9472,2.9075-.6916.3381-7.67,3.75H81.9536L74.3511,474,57.48,465.7513l-1.0354-.5062V369.12l-.9053-5.434-1.3369-8.0245-1.07-6.4245-.3669-2.2017-12.8794-6.5708-.0777-.04-.0914.04-5.7338,2.4916-5.732,2.123-5.3291,1.5845-4.87,1.029-4.371.462L9.8572,348.05,7.76,347.6132l-1.1424-.2378-2.6279-1.2327-1.99-1.7859L.667,342.0381l-.6632-2.8262.0141-3.3108L.7125,332.14l1.3605-4.1783,2.0183-4.5525,2.6561-4.8812.8121-1.2841.2-.3159,2.2563-3.5675,3.85-5.4,4.3937-5.5815,4.8926-5.7118,5.3462-5.7827,5.7514-5.8025,6.0747-5.743,1.7575-2.3158,1.8141-2.9084,1.61-3.1521.0667-.1615,1.3223-3.2032,1.1536-3.5489.91-3.6936.6576-3.807.3969-3.8834.13-3.92-.13-3.92-.3969-3.8806-.6576-3.807-.91-3.6963-1.1536-3.5462-1.389-3.3675-1.1077-2.1686-.5024-.9835-1.8141-2.9056-1.3752-1.8114-.6261-.8248-1.3011-1.4-4.53-4.286-5.7514-5.8-5.3462-5.7855-4.8925-5.7122-4.3937-5.5814-3.85-5.4L7.7593,180.3l-1.012-1.6-2.6561-4.8813-2.018-4.5524-1.36-4.1754-.6951-3.7616L.004,158.0186l.6632-2.829,1.3321-2.3188,1.99-1.783,2.6278-1.2359L7.76,149.614l2.0976-.4367,3.8239-.1049,4.371.4649,4.87,1.0289,5.3291,1.5818,5.7317,2.1231.9725.4224,5.1106,2.22.1332.0653,4.477-2.2848,8.1486-4.1584,1.3776-8.2691,1.7983-10.7939.4439-2.6646V126.1h.0708V48.5894l9.2977-4.69,3.9623-1.9989,1.5171-.7653V5.2112L74.351,3.7157l3.0727-1.5024L81.9421.004h50.8252l7.682,3.7554.6916.3382L143.8452,5.42V31.8531l.0113.0055V41.424l3.2316,1.63,11.0806,5.59m43.8973,117.39.0673.2693.0744.2976.085.5755.0284.5839-.0284.5839-.085.5783-.0709.2835-.0708.2835-.1984.55-.2494.5272-.3006.5017-.3457.4678-.3941.4337-.1529.1388-.2808.2551-.4677.3459-.34.2037-.1615.0968-.5273.2494-.55.1985-.567.1417-.5782.085-.584.0284-.5839-.0284-.5754-.085-.5669-.1417-.55-.1985-.53-.2494-.0312-.0188-.4677-.2817-.4706-.3459-.2808-.2551-.1529-.1388-.3912-.4337-.3485-.4668-.3-.5017-.25-.5272-.1956-.55-.0708-.2835-.0709-.2835-.0879-.5783-.0283-.5839.0283-.5839.0879-.5755.0744-.2976.0619-.2475.0054-.0218.1956-.55.25-.53.3-.4989.3487-.47.3912-.4337.4337-.3912.4706-.3487.4677-.2817.0312-.0187.53-.25.55-.1956.5669-.1417.5754-.0879.5839-.0284.584.0284.5782.0879.567.1417.55.1956.5273.25.1615.0967.34.2037.4677.3487.4337.3912.3941.4337.3457.47.3006.4989.2494.53.1984.55m-1.413-3.916-.0922-.0752-.3682-.2353-.315-.2012-.5414-.2655-.187-.0917-.7654-.2721-.7937-.1843-.8051-.0935h-.8135l-.8079.0935-.7908.1843-.7654.2721-.0765.0374-.6548.32-.315.2012-.3682.2353-.6292.5131-.5641.5811-.4989.6406-.0851.1408-.3345.5537-.3374.737-.2465.7711-.0658.3231-.0958.4706-.0708.805.0226.8107.1134.8022.0038.0142.2032.7682.2947.754.38.7172.1333.194.2026.2953.12.1739.0039.0057.3338.3857.1962.2266.2735.2489.3275.2982.1978.1433.4089.2961.0509.0368.7059.4.2948.124.4535.1906.7823.2268.7995.139.8107.0453.8106-.0453.8023-.139.78-.2268.5669-.2383.1815-.0763.7086-.4.0509-.0368.6068-.4394.5981-.5471.5329-.6123.0039-.0057.3022-.44.1531-.2229.377-.7172.2948-.754.2031-.7682.0039-.0142.1161-.8022.0227-.8107-.068-.805-.0958-.4706-.0657-.3231-.2522-.7711-.3374-.737-.3515-.5818-.068-.1127-.4961-.6406-.5583-.5723-.0086-.0088-.5371-.4379m-59.2626,58.2619-.0284.5839-.0793.5223-.0086.0559-.1332.53-.0084.0338-.1956.5528-.2495.5273-.2381.3975-.0624.1042-.3486.4677-.1816.2012-.21.2325-.3125.2818-.1212.1094-.47.3486-.077.0464-.422.2541-.53.2494-.55.1956-.567.1446-.5754.0851-.5443.0264-.04.0019-.5839-.0283-.5783-.0851-.5669-.1446-.55-.1956-.5272-.2494-.5018-.3-.4677-.3486-.4337-.3912-.2111-.2325-.1829-.2012-.3459-.4677-.3-.5017-.25-.5273-.1984-.5528-.068-.2707-.0737-.2934-.0709-.4818-.0142-.0964-.0283-.5839.0283-.584.0142-.0964.0709-.4818.0737-.2948.068-.2722.0358-.0992.1626-.4507.25-.5273.3-.5017.3459-.4677.1663-.1832.2277-.25.4337-.3912.1749-.13.2928-.2182.5018-.3.5272-.2494.55-.1985.5669-.1418.5783-.085.5839-.0283.04.0019.5443.0264.5754.085.567.1418.55.1985.53.2494.499.3.2945.2182.1759.13.4337.3912.3913.4337.3486.4677.0623.1041.2381.3976.2495.5273.16.4507.0353.0992.0084.034.1332.533.0086.0559.0793.5223.0284.584m.1559,55.6837.0263.5414.0022.0425-.0284.5812-.085.5782-.1417.5669-.0369.1022-.1418.3928-.02.055-.2495.53-.3.4989-.1219.1644-.2267.3061-.3912.4336-.4339.3912-.3155.2353-.1522.1133-.5017.3-.5272.2494-.55.1956-.2722.0681-.2948.0737-.5783.0878-.5839.0284-.1446-.007-.4393-.0213-.5783-.0878-.2948-.0737-.2721-.0682-.55-.1955-.5273-.2494-.5016-.3-.4679-.3486-.4335-.3912-.3913-.4337-.3486-.4705-.3-.4989-.25-.53-.1957-.55-.1446-.5669-.085-.5782-.0255-.523-.0029-.0582.0021-.0425.0008-.0159.0255-.5255.085-.5783.1446-.5669.1957-.55.25-.5272.3-.5018.3486-.4705.3913-.4309.4335-.394.4679-.3459.5016-.3.5273-.25.55-.1984.5669-.1417.0579-.0085.52-.0766.5838-.0283.5839.0283.52.0766.0579.0085.5671.1417.55.1984.5272.25.5017.3.4677.3459.4338.394.3912.4309.2267.306.1219.1645.2173.3628.0831.139.25.5272.02.055.1418.3928.0369.1021.1417.5669.085.5783m.0284-3.1775-.1559-.2581-.0419-.054-.0942-.1217-.1418-.183-.1884-.2434-.03-.0385-.4517-.463-.0217-.0222-.0935-.0959-.4308-.3528-.1957-.16-.147-.0935-.1648-.1049-.3742-.2381-.7285-.3572-.7654-.2721-.7908-.1842-.8079-.0936h-.8136l-.8079.0936-.7908.1842-.7654.2721-.7285.3572-.3727.2381-.164.1049-.1464.0935-.5545.4522-.0748.0609-.4306.4414-.1364.14-.33.4268-.1628.21-.0029.0036-.1416.2347-.2777.46-.3374.737-.2523.771-.1617.7937-.0708.8051.0055.1757.02.635.1134.8022.2069.7823.2948.754.38.7173.0795.1155.1416.2065.0029.0042.2056.3.03.0431.4086.47.1243.1427.3961.3623.202.1848.3.2172.0955.0691.2623.19.7086.3969.7484.3175.78.2267.7993.1389.7455.0416.068.0038.8108-.0454.7994-.1389.78-.2267.7484-.3175.7086-.3969.2622-.19.3954-.2863.4-.3656.1985-.1815.0814-.0935.4117-.4732.02-.023.02-.0226.1021-.1486.2737-.3988.0183-.0266.0652-.0949.38-.7173.2948-.754.2069-.7823.1134-.8022.02-.635.0055-.1757-.0708-.8051-.1616-.7937-.25-.771-.34-.737-.2636-.4364m58.6765,50.672-.1553-.0992-.7313-.3572-.0284-.01-.123-.0438-.614-.2183-.7908-.1842-.8078-.0936h-.8136l-.805.0936-.7937.1842-.6139.2183-.1514.0538-.2921.1432-.4366.214-.1553.0992-.5278.3373-.6293.5131-.5669.5811-.496.6406-.1332.2206-.06.1-.226.3743-.3373.7369-.2523.771-.1616.7937-.0184.2269-.0468.5782.02.8107.1163.8022.1881.7114.0188.0708.2948.7541.377.7172.0879.128.2045.2979.1668.243.276.3172.2569.2951.0867.0794.5114.4678.6576.4762.7087.4.0765.0321.6718.2826.78.2267.8022.1389.8108.0454.8106-.0454.8023-.1389.78-.2267.7483-.3147.7058-.4.1918-.1388.4659-.3374.5137-.4678.0872-.0794.53-.6123.2608-.38.1984-.289.38-.7172.2948-.7541.0188-.0708.1882-.7114.1161-.8022.0228-.8107-.0509-.5782-.02-.2269-.1616-.7937-.2494-.771-.3374-.7369-.2259-.3743-.1737-.2874-.02-.0329-.4961-.6406-.1077-.11-.4592-.4707-.02-.016-.5321-.4339-.0776-.0632-.4584-.293-.0694-.0443m2.1266,4.7906.0742.5046.0109.0737.0283.5839-.0283.5839-.0851.5754-.1417.567-.1872.5187-.0113.0311-.2494.53-.3.4989-.3486.4706-.3912.4337-.4337.3912-.4677.3487-.3314.1983-.17.1021-.0086.0041-.5187.2454-.55.1956-.567.1416-.5782.0879-.584.0284-.5839-.0284-.5782-.0879-.5641-.1416-.55-.1956-.53-.25-.17-.1021-.0308-.0184-.3-.18-.4677-.3487-.4337-.3912-.3912-.4337-.3487-.4706-.3-.4989-.25-.53-.0111-.0311-.1845-.5187-.1446-.567-.085-.5754-.0283-.5839.0283-.5839.0109-.0737.0361-.2456.038-.259.1446-.567.1956-.55.25-.5273.3-.5016.1869-.2524.1618-.2182.3912-.4309.4337-.394.4677-.3458.3-.18.2012-.12.53-.2494.55-.1985.5641-.1417.5782-.085.5839-.0284.584.0284.5782.085.567.1417.55.1985.5187.2454.0086.004.5017.3.4677.3458.4337.394.3912.4309.1617.2182.1869.2524.3.5016.2494.5273.1985.55.1417.567M129.4849,224.1949l.0425.0616.07.1012.2619.38.5329.6123.5981.55.599.4337.0586.0425.7087.3968.7483.3147.78.23.8023.1389.7908.0443.02.0011.8107-.0454.8022-.1389.78-.23.7483-.3147.7059-.3968.0587-.0425.2849-.2063.3141-.2274.2382-.218.19-.1737.02-.0182.153-.14.53-.6115.0007-.0008.0084-.0124.2534-.3675.1973-.2863.38-.7171.2948-.754.2069-.7852.1163-.8022.0226-.8079-.0708-.8079-.1616-.7937-.0165-.051-.233-.72-.3373-.7371-.4195-.6916-.0907-.1171-.1418-.183-.2636-.34-.1106-.1134-.3174-.3253-.1389-.1424-.58-.4731-.0491-.04-.3746-.2409-.3085-.1984-.7313-.3572-.7654-.2721-.7908-.1842-.808-.0908h-.8157l-.805.0908-.7937.1842-.7654.2721-.7285.3572-.3086.1984-.306.1969-.0685.044-.461.3759-.1684.1372-.3319.34-.1244.1275-.1105.1134-.2321.3-.213.2751-.0511.0659-.0935.1543-.3259.5373-.3374.7371-.2356.72-.0167.051-.1616.7937-.0679.8079.0226.8079.1162.8022.2069.7852.2948.754.377.7171.0851.1235m5.2039-94.6092-.232.0183-.1936.0462-.0133.002-.079.02-.3322.0793-.1188.0283-.2289.0949-.1481.0525-.1606.0755-.16.0662-.0618.0379-.0459.0216-.4054.2439-.0888.0663-.0444.0272-.0556.0474-.1911.1425-.3514.3175-.0091.01-.3084.3415-.11.1474-.0535.0718-.12.1606-.2409.4054-.0676.1415-.1366.2865-.09.2538-.0688.1941-.1162.4592-.0457.3141-.0224.1536-.0157.2926-.01.1808.0255.4734.0681.4677.0069.0275.1093.4317.0924.2589.0663.1862.2042.428.0636.1079.1522.2578.0251.0425.1565.21.127.17.3175.3515.1649.149.1865.1685.38.2806.0445.0268.3609.217.2754.1314.1526.0727.4478.1588.0989.025.36.0911.3421.05.1256.0182.3738.0179.1.0048.2863-.0138.1872-.0089.4066-.0592.061-.0089.4593-.1161.0286-.01.4164-.1485.4086-.1936.0223-.01.4053-.2438.1347-.1.041-.0252.0452-.0385.159-.1174.3515-.3175h0l.0195-.0166.0834-.0972.2142-.2373.0736-.0986.0613-.0715.0607-.0708.07-.1155.0175-.0234.0973-.1649.1268-.2078.0821-.1347.1247-.2991.0142-.03.0106-.0295.1095-.2627.033-.0792.1757-.737.06-.754-.06-.754-.1757-.737-.2919-.7-.3941-.6463-.051-.06-.4422-.516-.5755-.49-.6463-.3969-.6973-.2891-.7369-.1758-.7569-.0595-.18.0142-.2464.02-.0673.0032-.0288.0043M23.1117,162.4762l-.5269-.43-.033-.021-.3-.1917-.3505-.2238-.7285-.3572-.7653-.2722-.791-.1842-.2465-.0286-.5613-.0649h-.8136l-.8078.0935-.7909.1842-.7653.2722-.7286.3572-.35.2238-.3327.2127-.0076.0062-.4969.4051-.1248.1018-.0255.0261-.3366.345-.2048.21-.2325.3-.2635.34-.132.2182-.0381.0634-.25.4129-.3373.737-.2523.771-.0653.32-.0963.4734-.0709.8051.0255.8106.1135.8023.2069.7824.2948.7539.38.7172.0511.0744.1951.2843.2072.3017.0058.0086.533.6122.2664.2439.3317.3034.6381.462.02.0142.7087.4.7483.3147.78.2268.7993.1388.8107.0454.8135-.0454.156-.027.6434-.1118.7795-.2268.7484-.3147.7087-.4.02-.0142.6381-.462.204-.1866.3941-.3606.1253-.1439.4077-.4684.0058-.0086.218-.3177.2353-.3427.38-.7172.2948-.7539.0028-.0107.2041-.7717.1133-.8023.0256-.8106-.0709-.8051-.0963-.4734-.0653-.32-.11-.3379-.1417-.4331-.3373-.737-.42-.6945-.0142-.0184-.28-.3615-.2019-.2608-.567-.581-.1023-.0835m.896,3.5842.061.2438.0807.3232.0852.5783.0282.581-.0282.5839-.0852.5783-.1417.567-.1984.55-.2494.5272-.3.5017-.3458.4706-.394.4309-.1249.1133-.3089.2807-.4676.3487-.5018.2976-.5272.2523-.55.1956-.5669.1417-.102.015-.4762.07-.584.0284-.584-.0284-.5754-.085-.5669-.1417-.55-.1956-.53-.2523-.4989-.2976-.4706-.3487-.3088-.2807-.1248-.1133-.3912-.4309-.1446-.1951-.2041-.2755-.3-.5017-.2495-.5272-.1955-.55-.1417-.567-.0879-.5783-.0283-.5839.0283-.581.0879-.5783.0808-.3232.0609-.2438.1955-.55.2495-.5272.3-.5017.2041-.2755.1446-.1951.3912-.4309.1965-.1786.2371-.2154.4706-.3487.4989-.3.53-.25.55-.1956.5669-.1417.5754-.085.584-.0313.584.0313.4762.07.102.015.5669.1417.55.1956.5272.25.5018.3.4676.3487.2372.2154.1966.1786.394.4309.3458.4706.3.5017.2494.5272.1984.55M74.0707,217.06l.2807-.3819.0651-.0887.394-.4337.4309-.3912.1569-.1162.3136-.2324.5018-.3.5272-.2494.55-.1956.1332-.0333.4337-.1085.5782-.0878.584-.0284.5811.0284.5783.0878.5669.1418.55.1956.53.2494.4989.3.3137.2324.1569.1162.4336.3912.3912.4337.1361.1836.2126.287.3.4988.2495.53.1642.4621.0313.0879.1417.5669.0879.5782.0283.5812-.0283.5839-.0767.5046-.0112.0737-.1417.5669-.1955.55-.2495.5273-.3.5017-.2126.2869-.1361.1836-.193.2126-.1982.2183-.4336.394-.4706.3459-.4989.3-.53.2523-.55.1956-.5669.1418-.5783.085-.5811.0284-.584-.0284-.5782-.085-.4337-.1085-.1332-.0333-.55-.1956-.5272-.2523-.5018-.3-.4705-.3459-.4309-.394-.2-.2183-.1945-.2126-.0651-.0887-.2807-.3818-.3-.5017-.2494-.5273-.1984-.55-.1417-.5669-.0114-.0726-.0742-.5046-.0283-.5839.0283-.5812.0851-.5782.1417-.5669.0316-.0879.1668-.4621.2494-.53.3-.4988m-.5812-1.0376-.3061.397-.11.1819-.0058.01-.3033.5-.3374.737-.2274.703-.022.0681-.1616.7937-.0708.8078.0226.8078.0616.4253.0546.377.2069.7824.2948.7568.38.7143.1021.1487.0847.1234.2724.3969.53.6122.3969.3614.204.1858.56.4054.0979.0708.7058.4.7483.3146.7569.2229.0226.0067.8023.1361.8107.0481.8107-.0481.7994-.1361.25-.0737.5293-.1559.7484-.3146.7086-.4.0979-.0708.2252-.1632.0625-.0452.2721-.197.1927-.1763.4054-.3709.5328-.6122.2708-.3969.007-.01.1787-.2618.38-.7143.2948-.7568.1389-.5252.068-.2572.0546-.377.0616-.4253.0227-.8078-.068-.8078-.1389-.6824-.0227-.1113-.0222-.0681-.23-.703-.3373-.737-.38-.6262-.04-.0654-.4961-.6436-.5669-.581-.1134-.092-.4209-.3412-.095-.077-.0114-.0074-.4117-.2648-.26-.1672-.7275-.3579-.7654-.2721-.7937-.1843-.8051-.0906h-.8106l-.8079.0906-.4224.0985-.3685.0858-.7654.2721-.7313.3572-.26.1672-.4231.2722-.5244.4251-.105.0851-.4424.4535-.1244.1275-.19.2466m.7655,57.3024.0964-.1292.2522-.3384.3912-.4338.4337-.3912.4677-.3486.5017-.3.5273-.2494.4989-.1775.051-.0181.5447-.1389.0223-.0057.5782-.0851.584-.0282.5839.0282.5782.0851.0223.0057.5447.1389.55.1956.5273.2494.5017.3.0049.0037.4628.3449.2494.2251.1843.1661.1015.1126.2415.2677.0482.0535.2668.3578.0818.11.3.5018.2494.53.1985.55.1418.5641.085.5782.0269.5556.0014.0284-.0283.5839-.085.5783-.1418.5669-.1985.55-.2494.5273-.3.5017-.3486.4677-.0482.0535-.343.38-.1843.1662-.2494.225-.4677.3486-.5017.3006-.5273.2494-.55.1983-.3175.0795-.2495.0624-.5782.085-.5839.0282-.584-.0282-.5782-.085-.2495-.0624-.3175-.0795-.051-.0184-.4989-.18-.5273-.2494-.5017-.3006-.4677-.3486-.4337-.3912-.3912-.4337-.2522-.3384-.0964-.1293-.26-.4337-.0407-.068-.2494-.5273-.1985-.55-.1418-.5669-.085-.5783-.0283-.5839.0014-.0284.0074-.1516.02-.404.085-.5782.1418-.5641.1985-.55.2494-.53.0747-.1248.1641-.274.0617-.103M73.252,272.62l-.02.0256-.4194.6945-.1661.3628-.1713.3743-.2523.771-.1616.7937-.068.805.0044.1587.0183.652.1162.8022.2069.7824.26.6661.0343.0879.377.7171.241.3511.2106.3066.0077.0114.4376.5027.0953.11.3487.3188.0555.0509.1939.1773.3644.264.0075.0053.2858.2069.7086.3968.7483.3175.7087.2062.0708.0206.8023.1389.8106.0454.8108-.0454.8022-.1389.78-.2268.7456-.3175.7058-.3968.043-.0312.2427-.1757.3719-.2692.1474-.1342.4536-.4128.53-.6123.4167-.6071.0425-.062.38-.7171.2948-.754.0907-.343.1162-.4394.1162-.8022.0183-.652.0044-.1587-.0709-.805-.1616-.7937-.0226-.07-.2268-.7008-.3373-.7371-.2438-.4035-.1757-.291-.0191-.0246-.417-.5385-.06-.0775-.3537-.3627-.0673-.0689-.1458-.1495-.1616-.1317-.2258-.1842-.1829-.1492-.059-.0481-.06-.0379-.1135-.0726-.1862-.1189-.3239-.207-.7313-.3573-.7653-.272-.791-.1843-.805-.0935h-.8136l-.805.0935-.7937.1843-.7654.272-.7285.3573-.3238.207-.1863.1189-.173.1105-.5726.4669-.0568.0462-.5669.5811-.2853.3685-.1909.2465m-52.86,50.99.55.1956.5273.2494.5017.3006.4678.3486.4336.3912.3941.4337.31.4223L23.611,326l.3.4989.2494.53.1984.55.1418.5669.085.5754.0064.1333.0219.4508-.0283.5839-.085.5783-.1418.5668-.1984.55-.2494.5271-.3.5018-.3458.47-.3941.4309-.4336.3941-.4678.3458-.0409.0245-.4608.276-.2217.1048-.3056.1447-.55.1983-.5669.1418-.4535.0667-.1248.0184-.5839.0283-.584-.0283-.5753-.0851-.567-.1418-.55-.1983-.3072-.1447-.2229-.1048-.5018-.3-.4676-.3459-.4338-.394-.3911-.4309-.3487-.4705-.1474-.2461-.1531-.2557-.2494-.5272-.1956-.55-.1418-.5668-.0879-.5783-.0282-.5839.0218-.4507.0064-.1333.0879-.5754.1418-.567.1956-.55.2494-.53.1531-.2542.1474-.2447.0357-.0482.313-.4223.3911-.4337.4338-.3912.4676-.3486.5018-.3006.53-.2494.55-.1956.567-.1417.5753-.0878.584-.0284.5839.0284.1248.0189.0357.0054.4178.0635.5669.1417m4.2236,1.9162-.0822-.136-.115-.1485-.381-.492-.0436-.0448-.4728-.4847-.05-.053-.4821-.3931-.1471-.12-.3811-.2435-.0936-.06-.2084-.1332-.3483-.17-.3832-.1871-.7653-.2722-.7908-.1842-.4989-.0577-.309-.0358h-.8108l-.8078.0935-.7937.1842-.7654.2722-.3815.1871-.3469.17-.2086.1332-.3054.1951-.1692.1082-.4161.3392-.2132.1738-.2771.284-.0007.0008-.2892.2964-.496.6406-.0708.1173-.3488.5771-.3372.737-.2523.771-.1616.7937-.04.4678-.0286.3372.0228.8108.1162.8022.2069.7823.2948.754.38.7172.1475.216.2074.3041.1016.1489.3666.4212.1662.1911.0142.013.336.3072.2479.2269.5129.3713.1448.1049.7086.3968.7484.3175.7795.2268.8022.1389.8107.0453.7144-.04.0964-.0054.8021-.1389.78-.2268.7484-.3175.7058-.3968.1449-.1049.5127-.3713.2492-.2269.0557-.0507.2961-.2695.1981-.2288.332-.3835.12-.1752.2028-.2956.1361-.1982.38-.7172.0454-.116.25-.638.2069-.7823.1162-.8022.0227-.8108-.03-.3372-.0411-.4678-.1616-.7937-.25-.771-.1134-.2478-.2239-.4893-.0805-.1332-.2569-.4252m58.6687-194.048-.0045-.0061-.11-.1469-.2949-.3264-.0226-.0251-.3514-.3175-.2237-.1669-.1562-.1166-.3761-.2245-.0321-.0193-.428-.2012-.445-.1587-.0337-.0086-.4256-.1077-.3124-.0473-.1552-.0235-.4735-.0227-.1933.0093-.28.0134-.4677.0708-.0251.0063-.2876.0724-.1493.0376-.445.1587-.1673.0787-.2608.1225-.1308.0787-.1961.118-.0784.0471-.38.2835-.1691.1527-.1824.1648-.3174.3515-.11.1474-.1734.2324-.0472.0786-.118.1961-.0786.1307-.2013.428-.1616.4479-.0382.1551-.0751.3041-.0659.435-.005.0327-.0147.3087-.008.1647.0227.4734.0709.4677.0024.01.1.407.01.0424.1616.4451.2013.428.0153.0257.2285.3825.133.1782h0l.0229.0308.127.17.3174.3515.0146.0131.0081.01.043.0366.2858.2582.1286.0949.1181.1006.1072.066.026.0191.2558.1539.1357.0834.1215.0745.1531.0633.1079.0445.0594.0283.0673.024.246.1016.0664.0274.7371.1787.754.06.754-.06.7342-.1787.7-.2891.6463-.3969.5755-.49.4638-.5443.0266-.0311.394-.6417.0029-.0046.2891-.7.1757-.737.06-.754-.06-.754-.1757-.737-.11-.2667-.04-.1132-.0494-.1037-.0886-.2144-.0008-.0022-.0029-.0046-.0174-.0284-.0417-.0678-.0033-.0069-.2437-.4054-.0359-.0486-.052-.0845-.0794-.0931m71.0192,27.4332-.2891-.6972-.3969-.6464-.49-.5754-.5754-.4932-.6463-.3941-.7-.2919-.7371-.1758-.754-.0595-.7539.0595-.7371.1758-.7.2919-.4336.2645-.2127.13-.5754.4932-.49.5754-.3968.6463-.2892.6973-.1785.737-.06.7568.06.7542.1785.7368.2892.6973.3968.6463.49.5755.5754.4932.2127.13.4336.2645.7.2919.7371.1757.7539.0595.754-.0595.7371-.1757.7-.2919.6463-.3941.5754-.4932.49-.5755.3969-.6463.2891-.6973.1786-.7369.05-.6605.007-.0936-.0567-.7569-.1786-.737m-.1417,44.79-.2551-.4224-.2948-.3939-.3345-.3628-.3713-.3231-.0114-.0082-.3911-.2782-.4281-.2438-.4508-.1955-.47-.15-.4819-.102-.49-.051h-.4933l-.49.051-.4819.102-.4677.15-.4535.1955-.428.2438-.2778.1976-.1248.0888-.3685.3231-.3345.3628-.2976.394-.2523.4224-.21.445-.1616.4677-.1134.4791-.0624.4876-.0142.4931.04.49.0684.3769.02.1078.1389.4734.1842.4564.2325.4365.275.4082.3146.377.3543.3458.3119.2477.0737.0585.4166.2636.4394.2211.4621.1729.4762.1247.4876.0766.49.0255.4931-.0255.4876-.0766.4762-.1247.4593-.1729.4422-.2211.4167-.2636.1842-.1463.2013-.16.3514-.3458.3175-.377.275-.4082.23-.4365.1871-.4564.139-.4734.0195-.1078.0684-.3769.0368-.49-.0113-.4931-.0654-.4875-.1133-.4791-.1616-.4677-.2069-.445m-5.6466,82.9758-.4706.15-.4507.1985-.4281.2409-.0764.0545-.326.2319-.3714.3259-.3134.3374-.0211.0227-.2948.394-.2522.4224-.21.4479-.1616.4648-.1133.4791-.0653.49-.0113.49.0369.4932.0906.4848.1361.4733.1871.4565.23.4336.17.2522.105.156.3175.38.3515.343.3883.306.1276.0813.2862.1824.4422.2211.4592.1729.4762.1276.4877.0737.4932.0255.49-.0255.4875-.0737.4762-.1276.4621-.1729.4393-.2211.4167-.2637.3856-.306.3543-.343.3146-.38.1051-.156.17-.2522.2324-.4336.1871-.4565.1361-.4733.0879-.4848.04-.4932-.0142-.49-.0624-.49-.1134-.4791-.1616-.4648-.21-.4479-.2522-.4224-.2977-.394-.021-.0227-.3134-.3374-.3685-.3259-.4025-.2863-.4281-.2409-.4535-.1985-.4678-.15-.4818-.0993-.49-.051h-.4933l-.49.051-.4818.0993m5.7883,51.6273-.2891-.7-.3969-.6463-.49-.5755-.5754-.49-.6463-.397-.7-.289-.7371-.1786-.754-.06-.7539.06-.7371.1786-.7.289-.4336.2663-.2127.1307-.5754.49-.49.5755-.3968.6463-.2892.7-.1785.7371-.06.7539.0528.669.0068.085.1785.7371.2892.7.3968.6462.49.5755.5754.49.2127.13.4336.2663.7.2891.7371.1758.7539.06.754-.06.7371-.1758.7-.2891.6463-.3968.5754-.49.49-.5755.3969-.6462.2891-.7.1786-.7371.0064-.085.05-.669-.0567-.7539-.1786-.7371m-5.3376,110.03-.7342.1757-.7.2921-.4421.2708-.2013.1231-.5755.49-.49.5755-.3968.6434-.2892.7-.1757.7342-.06.754.06.7541.1757.7369.2892.6973.3968.6463.49.5726.0827.0709.4928.4224.2013.1232.4421.2708.7.2891.7342.1758.754.06.754-.06.737-.1758.6973-.2891.6463-.394.49-.4224.0823-.0709.4933-.5726.394-.6463.2891-.6973.1786-.7369.0567-.7541-.0567-.754-.1786-.7342-.2891-.7-.085-.1388-.309-.5046-.4933-.5755-.5726-.49-.6463-.3939-.6973-.2921-.737-.1757-.754-.06-.754.06M100.6452,129.217l2.1245,2.2551,4.5852,4.8671,4.5851-4.8671,9.237-9.805.5608-.5954V90.537l-7.5467-8.0108-1.2151-1.29-5.6211-5.9668-6.8364,7.2566-7.5466,8.0108v30.5347l.5607.5954,7.1126,7.55m23.2214,48.5846,5.6608-3.2679.1531-.0884v-9.4847l-.1531-.0884-5.6608-3.2659-2.4009-1.3853-8.2148,4.74v9.4847l6.01,3.47,2.2047,1.2728,2.2046-1.2728.1321-.0762.0642-.0371m-8.5152-21.1089v-9.084l-7.9851-4.6119-6.721,3.88-1.2671.7315v9.4819l1.2671.7316,6.721,3.88,5.8847-3.3989,2.1-1.2131v-.3982m0,24.1951-5.1484-2.9736-2.8367-1.6384-2.8379,1.6384-3.8831,2.242-1.2671.7316v9.4819l1.2671.731.0916.0529,6.6294,3.8252,7.9851-4.6091v-9.4819M85.9646,164.434l-.9128.5266v9.4847l.9128.5269,5.0974,2.9427,2.2047,1.2728,2.2046-1.2728,5.1739-2.9868.8362-.4828v-9.4847l-.8362-.4825-7.3785-4.2571-7.3021,4.213m14.6806,149.3684,5.96,3.441.761.4394.7607-.4394,7.2244-4.1726v-9.4814l-7.9851-4.6119-6.721,3.88-1.2671.7315v9.4819l1.2671.7316m23.2214,19.9784,5.6608-3.2679.1531-.0884v-9.4819l-.1531-.0883-5.6608-3.268-.5939-.3429-1.807-1.0432-1.8064,1.0431-6.4079,3.6992v9.4819l2.1,1.2126,6.1144,3.53,2.4009-1.3861m-8.5153,3.0869-7.9851-4.612-6.721,3.88-1.2671.7316v9.4819l1.2671.731,6.721,3.878,7.9851-4.609v-9.4819m-13.87-15.9252-.8362-.4826-5.5716-3.2165L93.2667,316.2l-1.8074,1.0435-5.495,3.1723-.9128.5269v9.4819l.9128.5269,7.3021,4.2155,7.3785-4.26.8362-.4828v-9.4819m20.1033,64.321V368.4711l-8.2876-4.7848-5.9309-3.4243-5.931,3.4243-.79.456-7.4977,4.3288v16.7925l7.4977,4.3272,6.721,3.8791,14.2185-8.2063m-5.366,13.3156v14.0076l5.366,3.0973,6.9109,3.9893.0312-.0171V391.3382l-.0312-.02-12.2769,7.0895v.1714m6.82-339.9575-2.7206-1.57-1.8,1.039-4.4185,2.55-1.1232.6484v8.4784l7.3417,4.2379,7.3417-4.2379v-8.478l-4.6211-2.6674m-15.6835-4.3146,5.6211-5.2786,5.5417-5.2039V22.8626l-2.49-2.3385-8.6724-8.144-6.71,6.3007-1.9629,1.8433-2.49,2.3385V43.8249l6.1115,5.739,5.0514,4.7435m-5.0518,6.982-6.1115-3.528-1.23-.71L92.972,58.2,87.62,61.2894v8.4784l5.3519,3.0892,1.99,1.1487,1.23-.71,6.1115-3.5277V61.2894m32.4141,21.2145.4734.0226.2863-.0136.1872-.009.4676-.068.4593-.1163.445-.1587.4309-.2041.4053-.2438.38-.2806.3515-.3175.3174-.3515.2835-.38.2409-.4082.2041-.4281.1153-.3231.0434-.1219.1163-.4592.068-.4677.0227-.4734-.0227-.4734-.068-.4677-.1112-.4394-.0051-.02-.1587-.4479-.2041-.4281-.2409-.4052-.2835-.38-.3174-.3516-.3515-.3174-.38-.2834-.4053-.2438-.0546-.0255-.3763-.1758-.445-.1587-.4593-.1163-.4676-.068-.4735-.0255-.4734.0255-.4677.068-.4592.1163-.4478.1587-.3738.1758-.0542.0255-.4054.2438-.38.2834-.3514.3174-.3175.3516-.2835.38-.2409.4052-.2042.4281-.1587.4479-.005.02-.1112.4394-.0681.4677-.0255.4734.0255.4734.0681.4677.1162.4592.0435.1219.1152.3231.2042.4281.2409.4082.2835.38.3175.3515.3514.3175.38.2806.4054.2438.428.2041.4478.1587.4592.1163.4677.068m-2.2506-68.0945.1077.0511.3175.15.4451.1615.4564.1134.4649.0709.47.0227.4706-.0227.2777-.0423.1872-.0286.4563-.1134.4422-.1615.4252-.2013.4054-.2438.3769-.2834.3488-.3175.3146-.3486.2806-.3827.2234-.3713.02-.0341.2013-.428.1587-.445.1133-.4593.0681-.47.0227-.4734-.0227-.4706-.0176-.1219-.05-.3486-.1133-.4592-.1587-.445-.2013-.4281-.2438-.4053-.2806-.3827-.3146-.3487-.3488-.32-.3769-.2806-.4054-.2438-.4252-.2013-.4422-.1615-.4563-.1134-.1872-.0286-.2777-.0423-.4706-.0227-.47.0227-.4649.0709-.4564.1134-.4451.1615-.3175.15-.1077.051-.4025.2438-.377.2806-.3486.32-.3175.3487-.2806.3827-.241.4053-.2012.4281-.1588.445-.1134.4592-.0525.3486-.0183.1219-.0227.4706.0227.4734.0708.47.1134.4593.1588.445.2012.428.241.4054.2806.3827.3175.3486.3486.3175.377.2834.4025.2438M69.41,158.9114l-.2919-.6972-.3941-.6464-.4931-.5754-.5755-.4932-.6463-.3941-.6973-.2919-.4989-.119-.2381-.0568-.7569-.06-.754.06-.737.1758-.6973.2919-.6463.3941-.5755.4932-.4932.5754-.394.6464-.2919.6972-.1758.737-.0595.7569.0073.0936.0522.6605.1758.7369.2919.6973.394.6463.4932.5755.5755.4932.6463.3941.6973.2919.737.1757.754.06.7569-.06.2381-.0567.4989-.119.6973-.2919.6463-.3941.5755-.4932.4931-.5755.3941-.6463.2919-.6973.1758-.7369.0521-.6605.0074-.0936-.0595-.7569-.1758-.737m-.3854,44.79-.2555-.422-.2949-.394-.3345-.3628-.3706-.3232-.4-.2864-.428-.2438-.4536-.1955-.4676-.15-.207-.0435-.2778-.0585-.4876-.051h-.4932l-.49.051-.4819.102-.47.15-.4507.1955-.4309.2438-.4.2864-.3713.3231-.3345.3628-.2949.394-.2551.4224-.1568.3373-.05.1077-.1616.4677-.1133.4791-.0652.4876-.0114.4931.0369.49.0683.3769.02.1078.1388.4734.1843.4564.2324.4365.275.4082.3175.377.3515.3458.3748.2977.0107.0085.4167.2636.4422.2211.4592.1729.4763.1247.4875.0766.4932.0255.49-.0255.4875-.0766.0341-.0089.4422-.1158.4621-.1729.4393-.2211.4167-.2636.3855-.3062.3544-.3458.3146-.377.275-.4082.2324-.4365.1843-.4564.1388-.4734.02-.1078.0683-.3769.0369-.49-.0114-.4931-.0623-.4876-.1134-.4791-.1616-.4677-.21-.445m-2.8043,82.9758-.4082-.0841-.0737-.0152-.49-.051h-.4932l-.49.051-.4819.0993-.4706.15-.4507.1985-.428.2409-.4025.2863-.3685.3259-.3135.3374-.021.0227-.2977.394-.2522.4224-.21.4479-.1616.4648-.1134.4791-.0624.49-.0141.49.04.4932.0879.4848.136.4733.1871.4565.2325.4336.17.2523.105.1559.3146.38.3516.343.3883.306.4139.2637.4422.2211.462.1729.4762.1276.4847.0737.4933.0255.4933-.0255.3174-.0483.1672-.0254.4791-.1276.4592-.1729.4422-.2211.4139-.2637.3883-.306.3515-.343.3147-.38.106-.1559.1718-.2523.23-.4336.1872-.4565.136-.4733.0879-.4848.04-.4932-.0141-.49-.0623-.49-.1134-.4791-.1616-.4648-.21-.4479-.2523-.4224-.2948-.394-.0213-.0227-.316-.3374-.3685-.3259-.4025-.2863-.428-.2409-.4507-.1985-.4706-.15m3.3647,52.3644-.1758-.7371-.2919-.7-.3941-.6463-.4931-.5754-.5755-.49-.6463-.3969-.6973-.2891-.4989-.1209-.2381-.0577-.7569-.06-.754.06-.737.1786-.6973.2891-.6463.3969-.5755.49-.4932.5754-.394.6463-.2919.7-.1758.7371-.0595.7539.0527.669.0068.085.1758.7371.2919.7.394.6462.4932.5755.5755.49.6463.3968.6973.2891.737.1758.754.06.7569-.06.2381-.0568.4989-.119.6973-.2891.6463-.3968.5755-.49.4931-.5755.3941-.6462.2919-.7.1758-.7371.0067-.085.0528-.669-.0595-.7539m4.096,91.0289h4.252V413.0771h-4.252v16.9937m-4.575,20.8346-.3941-.6434-.4932-.5755-.5726-.49-.6463-.3939-.6974-.2921-.49-.1168-.2466-.0589-.7541-.06-.754.06-.7341.1757-.7.2921-.6436.3939-.5754.49-.49.5755-.3112.5046-.0856.1388-.2891.7-.1758.7342-.0595.754.0595.7541.1758.7369.2891.6973.3968.6463.49.5726.0827.0709.4927.4224.6436.394.7.2891.7341.1758.754.06.7541-.06.7369-.1758.6974-.2891.6463-.394.49-.4224.0822-.0709.4932-.5726.3941-.6463.2891-.6973.1786-.7369.0567-.7541-.0567-.754-.1786-.7342-.2891-.7M78.9658,82.5036l.4734.0226.4735-.0226.4138-.06.0538-.0078.459-.1164.445-.1587.428-.2041.4082-.2438.38-.2806.3514-.3175.3174-.3516.0595-.0806.2212-.2992.2437-.4082.0624-.1308.1417-.2973.1153-.3231.0434-.1219.1134-.4592.0709-.4677.0227-.4734-.0227-.4734-.0709-.4677-.1134-.4592-.1587-.4479-.1417-.2973-.0624-.1308L83.45,75.02l-.2212-.2994-.0595-.0805-.3175-.3516L82.5,73.9713l-.38-.2834-.4082-.2438-.0542-.0255-.3738-.1758-.445-.1587-.4593-.1163-.4676-.068-.4735-.0255-.4734.0255-.4677.068-.462.1163-.445.1587-.1673.0786-.2065.0972-.0543.0255-.4053.2438-.38.2834-.3515.3174-.3174.3516-.2835.38-.2438.4052-.2013.4281-.1616.4479-.0048.02-.1085.4394-.0709.4677-.0227.4734.0227.4734.0709.4677.1133.4592.0443.1219.1173.3231.2013.4281.2438.4082.2835.38.3174.3515.3515.3175.38.2806.4053.2438.2608.1243.1673.08.445.1587.462.1163.4677.068m.944-67.1215.4705.0226.4677-.0226.1123-.0171.3555-.0539.4563-.1162.4422-.1587.4252-.2013.4025-.2438.1871-.14.1928-.1439.3487-.3174.3146-.3515.2806-.38.241-.4052.2013-.4281.1587-.4479.1162-.4592.0681-.4677.0226-.4734-.0226-.4734-.0681-.4677L85.0632,9.56l-.0968-.3827-.1587-.445-.2013-.428-.241-.4082-.2806-.38L83.77,7.1645l-.3487-.3175-.1922-.1425-.1871-.1382-.4029-.2438-.425-.2041-.4422-.159-.4563-.1163-.4678-.068L80.38,5.7525l-.4705.0226-.4649.068-.4564.1163-.445.1587-.4253.2041-.4025.2438-.2919.2157-.0879.0649-.3486.3175-.3147.3514-.2806.38-.241.4082-.2012.428-.1587.445-.0969.3827-.0194.0766-.068.4677-.0227.4734.0227.4734.068.4677.1163.4592.1587.4479.2012.4281.241.4052.2806.38.3147.3515.3486.3174.0879.0657.2919.2178.4025.2438.4253.2013.445.1587.4564.1162.3533.0539.1116.0171m61.3814,414.6887V413.0771h-4.2519v16.9937h4.252m-19.7065-5.19-14.2185-8.2091-6.721,3.88L93.1476,424.88v16.7925L100.6453,446l6.721,3.879,14.2185-8.2063V424.8805M86.2056,391.3382v28.3181l.0311.0171,12.2768-7.0866v-14.179l-12.2768-7.0895-.0311.02m54.8787-.4138V369.5767h-4.252v21.3477h4.252M73.4751,369.5767v21.3477h4.252V369.5767h-4.252m1.2486-234.0373h0m.7347,1.7791-.0169-.041.0169.041" transform="translate(0.0002 0)"/></svg>