<svg id="Layer_1" data-name="Layer 1" xmlns="http://www.w3.org/2000/svg" viewBox="0 0 214.7333 451.2826"><defs><style>.cls-1{fill:#4c4c4c;stroke:red;stroke-miterlimit:11.3386;stroke-width:0.008px;}</style></defs><path class="cls-1" d="M9.8573,122.7385l2.5-.0686,1.3238-.0362,4.371.4649,4.3739.9241.496.1048,1.3408.398,3.9884,1.1838,5.7316,2.1231,6.0832,2.6419.1332.0652,5.4482-2.78,7.1773-3.6628,2.641-15.8541.9788-5.8762V48.6309l12.4249-6.2677,2.4349-1.2284V5.2112l4.26-2.0832L81.9537.004h50.8251l5.7544,2.8133,1.525.7455L143.8566,5.42V41.4183l2.0935,1.0562,1.9445.9811,2.12,1.0694,8.2762,4.1757V102.366l.9789,5.8762,1.9341,11.6106.5509,3.3076.156.9359,4.3785,2.2345,4.4195,2.2554,3.8275,1.9533.1332-.0652,6.0832-2.6419,5.7288-2.1231,3.9345-1.1678,1.3947-.414,4.87-1.0289,4.371-.4649,1.27.0348,2.554.07,3.24.6747,2.6277,1.2359,1.99,1.783,1.3323,2.3187.6361,2.7128.0272.1162-.017,3.3109-.6916,3.7616-1.3607,4.1754-1.9717,4.4475-.0466.1049-2.4434,4.49-.2126.3908-1.5329,2.4236-1.736,2.7449-2.2252,3.1215-1.6242,2.2785-4.3937,5.5814-4.8926,5.7119-.9949,1.0767-.17.184-2.3319,2.5235-1.8492,2.0013-5.7515,5.8-4.53,4.2831-1.2982,1.4031-.617.8127-1.3843,1.8235-1.8143,2.9048-1.61,3.1522-1.3891,3.3675-1.1536,3.5461-.91,3.6964-.6576,3.807-.3968,3.8806-.13,3.92.068,2.0438.0625,1.8765.3968,3.8834.6576,3.807.91,3.6936,1.1536,3.5489,1.079,2.6137.31.751,1.61,3.1522.2258.3619,1.5884,2.5464.5176.6824,1.2371,1.6306,3.4374,3.2514.0119.0113,2.6253,2.4832,5.7515,5.8025,4.1811,4.5225.17.184.9949,1.0762.4832.564,4.4094,5.1478,4.3937,5.5813,1.6242,2.2785,2.2252,3.1215,3.2684,5.1676.2126.3907,2.4434,4.49,2.0183,4.5525,1.3607,4.1783.6108,3.3222.0808.4393.017,3.3109-.6633,2.8262-.94,1.6355-.3926.6832-1.99,1.7858-2.6277,1.2331-3.24.6746-3.824.1049-4.371-.462-4.87-1.029-1.2246-.3641-.17-.0506-3.9345-1.17-3.7937-1.406-1.9351-.7172-5.828-2.5313-6.3675,3.2485-1.7.8671-4.89,2.4948-.2127,1.277-.683,4.1034-2.41,14.4791-.37,2.2252v96.1257l-19.7574,9.6592-5.7544,2.8132H81.9537L68.8694,444.882l-12.4243-6.0748V342.6815l-3.6793-22.0847-6.59-3.3619-.5281-.2694-5.8394-2.9791-5.8252,2.5313-1.936.7172-3.7956,1.406-5.3292,1.5846-.496.1048-4.3739.9242-4.371.462-.9723-.0266-.3515-.01-2.5-.0686-3.24-.6746-2.6282-1.2328-1.99-1.7858-.3925-.6832-.94-1.6355-.6633-2.8262.0142-3.3109.6945-3.7615.0249-.0766,1.3357-4.1017L4.0912,296.97,5.7,294.0135l1.0474-1.9247,3.2683-5.1676,2.3414-3.2845.3515-.4931,1.1566-1.6224,4.3943-5.5818,4.167-4.8647.2424-.283.4833-.5641,1.4626-1.5821,3.8835-4.2006,5.7515-5.8024,6.0746-5.7459,1.7575-2.313,1.8142-2.9083.0536-.105,1.5564-3.0472,1.389-3.3647,1.1534-3.549.91-3.6936.6577-3.807.3969-3.8834.0624-1.8765.0679-2.0438-.13-3.92-.3969-3.8806-.6577-3.807-.91-3.6964L46.895,203.455l-.96-2.3273-.2874-.6966-.1418-.3436-1.61-3.1522-1.8143-2.9059-1.3751-1.8113-.6261-.8249-1.3009-1.4027-4.53-4.2831-5.7515-5.8-1.8493-2.0013-2.0342-2.2013-1.4626-1.5829-.7257-.8472-4.167-4.8647-4.3936-5.5806-1.1561-1.6229-.3515-.493-2.3419-3.2841-1.7355-2.7439-1.5328-2.4241L4.0916,147.38l-1.9089-4.3058-.1094-.2466L.7127,138.6523l-.6945-3.7616L.004,131.5794l.0273-.1162.636-2.7128,1.3321-2.3183,1.99-1.783,2.6278-1.2359,3.24-.6747m63.2382,71.7733-.0284-.5839.0284-.584.085-.5783.0709-.2834.0708-.2835.1956-.55.2523-.5273.2976-.5017.3487-.4677.394-.4337.2217-.2012.2092-.19.4706-.3486.5016-.3006.5273-.2494.55-.1984.567-.1417.5783-.085.5839-.0284.5811.0284.5783.085.5669.1417.55.1984.5272.2494.5017.3006.4706.3486.2092.19.2217.2012.394.4337.3487.4677.3.5017.2495.5273.1956.55.1417.5669.085.5783.0313.584-.0313.5839-.085.5783-.0584.2324-.0833.3316-.1956.5528-.2495.5272-.3.5018-.3487.4677-.394.4337-.4309.3911-.4706.3488-.5017.3-.5272.25-.55.1956-.2665.0679-.3.0766-.5783.0851-.5811.0283-.5839-.0283-.5783-.0851-.567-.1445-.55-.1956-.5273-.25-.5016-.3-.4706-.3488-.4309-.3911-.1361-.15-.2579-.2839-.3487-.4677-.2976-.5018-.2523-.5272-.1956-.5528-.0708-.282-.0125-.05-.0584-.2324-.085-.5783m62.5262,61.6482-.2336-.0113-.35-.017-.5783-.085-.5668-.1418-.55-.1984-.5272-.2494-.0879-.0526-.4139-.2479-.4677-.3458-.4337-.3941-.3911-.4336-.3487-.4678-.3-.5017-.2495-.5273-.1983-.55-.1418-.567-.085-.5782-.0284-.5839.0284-.584.085-.5782.1418-.5641.1983-.55.1695-.36.08-.17.3-.5018.3487-.4676.3911-.4338.4337-.3912.4677-.3486.4139-.2478.0879-.0527.5272-.2494.55-.1956.5668-.1418.5783-.0879.584-.0283.5839.0283.5783.0879.5669.1418.55.1956.5272.2494.1049.0628.3968.2377.4677.3486.4338.3912.3911.4338.3487.4676.3.5018.08.17.1694.36.1984.55.1417.5641.0851.5782.0283.584-.0283.5839-.0851.5782-.1417.567-.1984.55-.2494.5273-.3.5017-.3487.4678-.3911.4336-.4338.3941-.4677.3458-.3968.2377-.1049.0628-.5272.2494-.55.1984-.5669.1418-.5783.085-.35.017-.2335.0113m-6.1087-61.6365-.0283-.5839.0283-.5812.085-.5782.0709-.2835.0709-.2834.1984-.55.2495-.53.3-.4989.3459-.47.394-.4337.2342-.2125.1967-.1787.47-.3486.5017-.3.5273-.2494.55-.1956.5669-.1418.5783-.085.5839-.0312.584.0312.5754.085.5669.1418.55.1956.53.2494.4988.3.4705.3486.1981.1787.2357.2125.3912.4337.3486.47.3.4989.2494.53.1956.55.1418.5669.0878.5782.0284.5812-.0284.5839-.0878.5783-.0553.2211-.0865.3458-.1956.55-.2494.5273-.3.5017-.3486.4706-.3912.4308-.4338.394-.4705.3487-.21.1251-.2891.1725-.53.2523-.55.1956-.5669.1418-.5754.085-.584.0284-.5839-.0284-.5783-.085-.5669-.1418-.55-.1956-.4309-.2062-.0964-.0461-.5017-.2976-.47-.3487-.4309-.394-.394-.4308-.3459-.4706-.3-.5017-.25-.5273-.1984-.55-.0709-.2835-.0156-.0623-.0553-.2211-.085-.5783m-48.583,49.9748.55.1985.53.2494.5018.3.4677.3458.4337.394.3911.4309.3487.47.3.5017.0858.1814.1637.3459.1956.55.1445.567.085.5782.0284.584-.0284.5839-.085.5754-.1445.5669-.1956.55-.2495.53-.2254.3741-.0751.1246-.3487.4707-.3911.4336-.4337.3912-.4677.3487-.5018.3-.53.2494-.55.1956-.4507.1132-.1133.0286-.5783.0879-.5839.0283-.584-.0283-.5783-.0879-.5669-.1418-.55-.1956-.5273-.2494-.5017-.3-.4677-.3486-.4337-.3912-.3912-.4337-.3486-.4706-.0752-.1247-.2254-.3741-.2494-.53-.1984-.55-.1417-.5669-.085-.5754-.0284-.5839.0284-.584.085-.5782.1417-.567.1984-.55.1636-.3459.0858-.1814.3006-.5017.3486-.47.3912-.4309.4337-.3939.4677-.3458.5017-.3.5273-.25.55-.1985.5669-.1418.5783-.085.584-.0283.5839.0283.5783.085.1133.0286.4507.1132M23.9114,300.0594l.25.5272.1984.55.1418.567.085.5783.0283.5839-.0283.5839-.085.5755-.1418.5669-.1984.55-.2268.4819-.0227.0481-.3.4989-.3486.4707-.3912.4336-.4337.3912-.0113.0085-.4564.34-.5017.3-.5273.2493-.55.1956-.5669.1417-.5783.0879-.5839.0284-.584-.0284-.5782-.0879-.5641-.1417-.3147-.1113-.2381-.0843-.5272-.2493-.5018-.3-.4677-.3487-.4337-.3912-.3911-.4336-.3487-.4706-.3-.4989-.0227-.0482-.2267-.4819-.1956-.55-.1446-.5669-.0851-.5755-.0283-.5839.0283-.5839.0851-.5783.1446-.567.1956-.55.2494-.5272.1443-.241.1562-.2608.3487-.4676.3911-.4338.4337-.394.4677-.3458.5018-.3.5272-.2494.2381-.0855.3147-.1129.5641-.1417.5782-.0851.584-.0284.5839.0284.5783.0851.5669.1417.55.1984.5273.2494.5017.3.4564.3375.0113.0083.4337.394.3912.4338.3486.4676.1562.2608.1443.241m.3232-159.2957.0283.5839-.0283.5839-.0851.5783-.141.5641-.0007.0029-.1984.55-.25.5272-.3.5017-.3487.4677-.3912.4338-.0935.0843-.34.3069-.4677.3486-.5017.3-.5273.25-.55.1985-.5669.1416-.5783.0851-.5839.0284-.584-.0284-.5782-.0851-.5273-.1324-.0368-.0092-.55-.1985-.53-.25-.5017-.3-.4678-.3486-.4337-.3912-.3912-.4338-.3486-.4677-.3-.5017-.25-.5272-.1955-.55-.0007-.0029-.1411-.5641-.0878-.5783-.0284-.5839.0284-.5839.0878-.5783.1418-.5669.1955-.55.25-.5273.3-.5017.3486-.4678.2736-.3033.1176-.13.4337-.3912.4678-.3487.5017-.3.53-.25.55-.1985.0368-.0092.5273-.1325.5782-.085.584-.0284.5839.0284.5783.085.5669.1417.55.1985.5273.25.5017.3.4677.3487.34.3067.0935.0845.3912.4336.3487.4678.3.5017.25.5273.1984.55.1417.5669.0851.5783m173.4661,156.47.5669.1417.55.1956.5272.25.5018.3.4677.3487.4337.3912.3911.4336.3487.4706.0324.0538.2681.4451.2494.53.1984.55.1418.564.085.5783.0283.5839-.0283.5839-.085.5783-.1418.5669-.1984.55-.13.275-.1194.2523-.3.5017-.3487.4677-.3911.4337-.4337.394-.4677.3459-.5018.3-.5272.25-.55.1985-.5669.1417-.5782.085-.5358.026-.0482.0024-.584-.0284-.5782-.085-.5669-.1417-.55-.1985-.5272-.25-.5017-.3-.4677-.3459-.4337-.394-.3912-.4337-.3486-.4677-.3006-.5017-.1208-.2525-.13-.275-.1984-.55-.1418-.5669-.085-.5783-.0283-.5839.0283-.5839.085-.5783.1418-.5641.1984-.55.2494-.53.2681-.4451.0325-.0538.3486-.4707.3912-.4336.4337-.3912.4677-.3487.5017-.3.5272-.25.55-.1956.5669-.1417.5782-.0879.584-.0284.0482.0024.5358.026.5782.0879M200.578,137.113l.1406.1558.2506.2778.3486.4678.3.5017.2494.5273.1985.55.1417.5669.0851.5782.0283.584-.0283.5839-.0851.5754-.1417.567-.0092.0255-.1893.5244-.2494.53-.3.499-.3486.47-.3912.4338-.4338.3911-.4676.3487-.5018.3-.5272.2494-.55.1956-.567.1417-.5782.0879-.3657.0177-.2184.0106-.5838-.0283-.5783-.0879-.5641-.1417-.55-.1956-.53-.2494-.5016-.3-.4679-.3487-.4335-.3911-.3913-.4338-.3486-.47-.3-.499-.2494-.53-.0879-.247-.0987-.2774-.009-.0255-.1447-.567-.085-.5754-.0283-.5839.0283-.584.085-.5782.1447-.5669.1956-.55.2494-.5273.3-.5017.3486-.4678.25-.2778.1408-.1558.4335-.3941.4678-.3458.5017-.3.53-.25.55-.1984.5641-.1417.5782-.085.5839-.0284.2183.0106.3658.0178.5782.085.567.1417.55.1984.5272.25.5018.3.4676.3458.4338.3941M11.3568,140.3394l-.0709.805.0255.8107.1134.8022.084.3175.1229.4649.2948.754.38.7171.051.0744.4082.5947.2591.2976.2738.3146.1562.1429.4419.4042.0763.0552.5618.4069.02.0141.7086.4.7484.3146.6094.1774.17.0495.7994.1388.8107.0454.8135-.0454.7994-.1388.78-.2269.7484-.3146.7086-.4.02-.0141.1562-.1131.4818-.349.5982-.5471.5329-.6122.2239-.3263.2353-.3428.38-.7171.2949-.754.1229-.4649.084-.3175.1134-.8022.0255-.8107-.0709-.805-.034-.1673-.1276-.6264-.2523-.771-.3373-.7371-.42-.6945-.0142-.0183-.0429-.0554-.1655-.2137-.2734-.3532-.1694-.1736-.3976-.4075-.1015-.0827-.5278-.43-.0315-.02-.1272-.0813-.174-.1112-.35-.2239-.7286-.3572-.7653-.2721-.7909-.1843-.8078-.0935h-.8136l-.8078.0935-.567.1321-.2239.0522-.7653.2721-.7286.3572-.35.2239-.3327.2126-.6293.5131-.3639.373-.2031.2081-.25.3233-.1886.2436-.0571.0737-.17.2816-.2494.4129-.3373.7372-.2523.7709-.1276.6265-.034.1672m.6661,160.044-.2522.7711-.1616.7937-.0654.7739-.0027.0311.0227.8107.1162.8022.207.7824.1861.4762.1087.2778.1757.3318.2041.3854.1474.216.309.453.5329.6123.5981.547.5128.3714.1449.1048.7086.3968.7484.3175.3571.104.4224.1228.8022.139.8107.0453.8107-.0453.8022-.139.78-.2268.7484-.3175.6293-.3538.0765-.043.1448-.1048.5128-.3714.601-.547.53-.6123.3231-.4708.1361-.1982.38-.7172.1087-.2778.1861-.4762.207-.7824.1162-.8022.0227-.8107-.0028-.0311-.0681-.7739-.1616-.7937-.2494-.7711-.2582-.564-.0792-.173-.3373-.5584-.0822-.1361-.115-.1485-.381-.492-.04-.0412-.4753-.4872-.0543-.0541-.4808-.392-.1484-.1211-.3923-.2506-.0216-.0138-.0564-.036-.0044-.0029-.2085-.1332-.7314-.3572-.7653-.2721-.7909-.1843-.8079-.0935h-.8106l-.8079.0935-.7937.1843-.0284.01-.737.262-.7285.3572-.2085.1332-.4747.3033-.6292.5131-.567.5812-.1837.2372-.3123.4033-.0709.1173-.3486.5772-.0029.0062-.0763.1667-.2582.5641m142.2794,11.4832-.2891-.7-.3969-.6463-.49-.5754-.5754-.49-.6463-.3968-.5766-.2381-.1236-.051-.737-.1787-.3231-.0255-.4309-.034-.754.06-.737.1787-.1236.051-.5766.2381-.6463.3968-.5754.49-.49.5754-.3968.6463-.109.2637-.18.4365-.1786.737-.06.754.06.754.1786.737.2892.7.3968.6463.49.5755.5455.4648.03.0256.6463.3968.7.2891.737.1757.754.06.754-.06.737-.1757.7-.2891.6463-.3968.03-.0256.5455-.4648.49-.5755.3969-.6463.2891-.7.1786-.737.0567-.754-.0567-.754-.1786-.737m-38.9511-1.437-.04-.023-2.7481-1.5871-5.1975-3.002-5.1993,3.002-2.7887,1.61v9.4818l7.988,4.6091,7.9456-4.5861.04-.023v-9.4817m-45.7653,2.1741-.1758-.737-.292-.7-.2494-.4091-.1446-.2372-.4932-.5754-.5754-.49-.6463-.3968-.5743-.2381-.123-.051-.7371-.1787-.7568-.06-.754.06-.737.1787-.123.051-.5744.2381-.6463.3968-.5754.49-.4932.5754-.394.6463-.11.2637-.182.4365-.1757.737-.06.754.06.754.1757.737.292.7.394.6463.4932.5755.5455.4648.03.0256.6463.3968.6974.2891.737.1757.754.06.7568-.06.7371-.1757.6973-.2891.6463-.3968.03-.0256.5455-.4648.4932-.5755.1446-.2371.2494-.4092.292-.7.1758-.737.0595-.754-.0595-.754m71.4982,34.9675v-4.4327h-4.2521v21.3478h4.2519V347.5706m-47.9366-4.4327v15.6869l8.4083,4.853,1.4.8079,4.41,2.5454,4.41-2.5454,1.4-.8079,2.1353-1.2325,6.273-3.62V342.0324l-2.73-1.5761-3.5036-2.0228-.04-.0229-7.9456-4.5873-14.2174,8.2091v1.1055m-19.6725,4.3329v17.0149h4.2492V343.1379H73.4752v4.3329m55.02,17.4088-6.9108,3.9908-5.366,3.0987V386.148l5.366,3.0974,6.9108,3.9892.0313-.02v-28.318l-.0313-.0171m-42.29.0171v28.318l.0312.02,10.9755-6.3354,1.3013-.7512V371.9694l-12.2764-7.09-.0312.0171m-12.5234,35.585v3.1506h4.2491V386.6383H73.6822v13.8432m80.7987,25.42-.1786-.7341-.2891-.7-.3941-.6435-.4932-.5754-.5726-.49-.6463-.3939-.6973-.2921-.737-.1757-.3288-.0259-.4253-.0336-.754.0595-.7341.1757-.7.2921-.6436.3939-.5754.49-.49.5754-.3968.6435-.2891.7-.1758.7341-.06.754.06.7541.03.1275.1454.6095.2891.6973.3968.6463.49.5726.5754.4932.6436.3941.7.2891.7341.1758.754.06.4253-.0336.3288-.0259.737-.1758.6973-.2891.6463-.3941.5726-.4932.4932-.5726.3941-.6463.2891-.6973.1476-.61.031-.1275.0567-.7541-.0567-.754m-85.3739-1.4343-.2381-.3889-.1559-.2546-.4932-.5754-.5726-.49L67,422.3649l-.6972-.2921-.737-.1757-.754-.06-.7541.06-.7342.1757-.2607.1088-.4394.1833-.6435.3939-.5755.49-.49.5754-.3969.6435-.2891.7-.1757.7341-.06.754.06.7541.03.1275.1453.61.2891.6973.3969.6463.49.5726.5755.4932.6435.3941.7.2891.7342.1758.7541.06.754-.06.737-.1758L67,430.95l.6464-.3941.5726-.4932.4932-.5726.1559-.2557.2381-.3906.2891-.6973.1787-.737.0566-.7541-.0566-.754-.1787-.7341-.2891-.7M69.0239,177.264l-.1559-.2582-.0992-.1642-.2948-.3941-.3345-.3628-.3713-.3231-.4-.2863-.4281-.2438-.4535-.1956-.4677-.15-.4848-.102-.4875-.0511h-.4932l-.49.0511-.4819.102-.47.15-.0482.021-.4025.1746-.4309.2438-.4.2863-.3714.3231-.3345.3628-.2947.3941-.2552.4224-.2069.445-.0685.1984-.093.2693-.1134.4791-.0653.4875-.0113.4932.0369.49.0878.4848.139.4734.1841.4564.2325.4365.275.4081.3175.3771.3514.3458.3856.3061.4167.2637.068.034.3741.1871.4593.1728.4762.1248.4876.0765.4932.0256.49-.0256.4875-.0765.4762-.1248.4621-.1728.3718-.1871.0676-.034.4167-.2637.3855-.3061.3543-.3458.3146-.3771.241-.3576.034-.05.2325-.4365.1842-.4564.1389-.4734.0879-.4848.0368-.49-.0113-.4932-.0624-.4875-.1134-.4791-.093-.2693-.0685-.1984-.21-.445m3.0558,18.13.21.7823.2919.7569.38.7143.1048.1519.1843.2668.1729.25.5273.6122.2506.2282.35.319.1219.0882.4379.317.0979.071.7059.4.7483.3147.7795.23.8022.136.8107.0482.8107-.0482.6123-.1038.19-.0322.7795-.23.7483-.3147.7087-.4.0978-.071.56-.4053.5981-.5472.1975-.2268.3354-.3854.0619-.0907.0261-.0383.19-.2783.1785-.2617.0057-.0107.3742-.7036.2948-.7569.2069-.7823.01-.0709.1059-.7314.0226-.8078-.0679-.8079-.1131-.5556-.0485-.2381-.2523-.771-.3373-.737-.1956-.3225-.1842-.3038-.04-.0654-.1838-.2383-.1746-.2265-.1378-.1787-.5668-.5811-.6294-.51-.4231-.2721-.26-.1672-.7285-.3572-.7653-.2722-.584-.1355-.21-.0487-.8078-.0907H78.65l-.8079.0907-.7909.1842-.7654.2722-.7313.3572-.26.1672-.304.1955-.1191.0766-.1985.1609-.2238.1814-.2071.1679-.3006.31-.2634.2714-.1385.1787-.2895.3734-.0709.0914-.1134.1882-.3033.5035-.34.737-.2466.771-.1645.7937-.068.8079.02.8078.106.7314.01.0709m-2.3058,69.1048-.0624-.49-.1134-.4791-.1616-.4649-.21-.4478-.2522-.4224-.1049-.14-.19-.2538-.3373-.36-.3685-.326-.4025-.2863-.4281-.2409-.4507-.1985-.4706-.15-.4816-.1-.49-.051h-.4933l-.49.051-.4818.0992-.4706.15-.2494.11-.2013.0886-.4281.2409-.4025.2863-.3685.326-.3344.36-.2977.394-.2522.4224-.21.4478-.1616.4649-.1134.4791-.0624.49-.014.4875v.0028l.04.4932.0879.4848.1361.4733.1871.4564.2324.4337.275.4082.3146.38.3515.343.3884.3061.4138.2637.42.21.0226.0113.4621.1729.4762.1275.4847.0737.4932.0255.4933-.0255.4847-.0737.4791-.1275.4592-.1729.4422-.2211.4138-.2637.3884-.3061.3515-.343.3146-.38.04-.0583.2381-.35.23-.4337.1871-.4564.1361-.4734.0879-.4847.04-.4932-.0141-.49m3.4554-18.292-.1616.2693-.2551.4252-.3087.6689-.0314.0681-.2524.771-.1587.7937-.0709.8051.0227.8106.1191.8023.2069.7824.292.7539.0907.1713.0249.047.2643.4989.0566.0831.1843.27.2154.3158.5329.6123.5982.5471.0764.0553.5381.39.0431.0312.1771.0992.5315.2977.7484.3175.7795.2268.8022.1388.8107.0455.8107-.0455.5641-.0976.2381-.0412.78-.2268.7483-.3175.7058-.3968.0431-.0312.6145-.445.601-.5471.0994-.1149.4307-.4974.0078-.0113.3807-.5547.0282-.0411.0425-.0619.1984-.3745.0659-.1244.1155-.2183.2949-.7539.2069-.7824.1162-.8023.01-.3457.013-.4649-.0709-.8051-.1615-.7937-.2495-.771-.0311-.0681-.3061-.6689-.2438-.4036-.1758-.2909-.496-.6407-.5669-.581-.6294-.5131-.3081-.1969-.0511-.0327-.3239-.2069-.7314-.3572-.7653-.2721-.6293-.1467-.1615-.0376-.8079-.0935H78.7l-.805.0935-.7937.1843-.7653.2721-.7286.3572-.3238.2069-.3226.2062-.0367.0234-.24.1956-.0068.0054-.2662.2172-.1164.0949-.3978.4077-.1692.1733-.3057.3949-.1676.2165-.0227.0293m42.1228,30.943-.04-.023-7.9456-4.589-7.988,4.612v9.4818l7.988,4.6121,7.9456-4.5891.04-.023V277.15m-13.87,17.3537-.8494-.49-1.2539-.7238L93.27,289.762l-7.3653,4.252-.85.49v9.4819l7.0384,4.0632,1.1764.6791,8.2148-4.7423V294.504m88.8179,5.383-.3373.737-.2523.771-.1615.7937-.0681.805.0227.8108.1163.8021.2069.7824.0919.2353.2029.5188.2948.5607.0822.1564.0879.1281.1956.2848.1757.2561.3651.42.1678.1928.4215.3854.1766.1616.4619.3346.1958.1417.7086.4.7484.3146.78.2268.8022.1389.8022.0449h.0085l.8107-.0453.8022-.1389.78-.2268.7484-.3146.7058-.4.1958-.1417.2944-.2134.1674-.1212.1775-.1616.1877-.1707.2358-.2147.2561-.2958.274-.3165.1615-.2354.0129-.0187.0863-.1259.1985-.289.38-.7171.2029-.5188.0919-.2353.207-.7824.1161-.8021.0228-.8108-.0709-.805-.1615-.7937-.25-.771-.3373-.737-.0411-.0681-.3587-.5936-.02-.0328-.4961-.6406-.567-.5812-.6293-.513-.5323-.34-.1508-.0964-.7314-.3571-.7653-.2721-.7908-.1843-.8079-.0936H196.19l-.805.0936-.7937.1843-.7654.2721-.7285.3571-.1508.0964-.2956.1889-.2368.1513-.3416.2785-.2876.2345-.2085.2138-.3585.3674-.109.1407-.0019.0024-.3227.4169-.0623.0806-.0454.0751-.0878.1455-.17.2815-.0752.1243-.0411.0682m-51.6187-43.328.7087-.3969.0039-.0029.0156-.0113.6381-.4621.5981-.547.5329-.6123.394-.574.0653-.095.2552-.4819.1246-.2353.2947-.754.207-.7824.1134-.8021.01-.3288.0152-.482-.0709-.805-.1616-.7937-.2494-.771-.0236-.0511-.3166-.686-.2636-.4363-.1559-.2581-.4961-.6406-.5668-.5812-.6265-.513-.3163-.2013-.37-.2352-.51-.25-.2183-.107-.7654-.2721-.7908-.1843-.8079-.0935h-.8135l-.8079.0935-.7909.1843-.7654.2721-.0453.0222-.6831.335-.3682.2352-.315.2013-.6293.513-.5669.5812-.4961.6406-.1842.305-.2353.3894-.314.686-.0234.0511-.2522.771-.1616.7937-.0709.805.0152.482.01.3288.1134.8021.2069.7824.2948.754.1246.2353.2553.4819.0368.0537.1842.2684.2076.3023.03.0446.4088.47.1241.1428.3694.3378.2287.2092.3238.2345.3143.2276.0157.0113.0039.0029.7087.3969.3231.137.4252.18.78.2268.7994.1389.8135.0453.8107-.0453.7994-.1389.78-.2268.5981-.2538.15-.0636m15.6443,6.97-.1616-.4649-.21-.4478-.2523-.4224-.2976-.394-.3345-.36-.3686-.326-.4025-.2863-.428-.2409-.4536-.1985-.4676-.15-.482-.0992-.3259-.0339-.1645-.0171h-.4931l-.49.051-.482.0992-.47.15-.4508.1985-.4279.2409-.4026.2863-.3713.326-.3345.36-.212.2835-.0828.1105-.2523.4224-.21.4478-.1616.4649-.1133.4791-.0652.49-.0112.4875v.0029l.0368.4932.0908.4847.136.4734.1871.4564.23.4336.275.4082.1255.15.1919.23.3515.3429.3883.3061.4139.2637.4422.2211.4593.1729.4762.1275.4875.0737.4932.0256.4111-.0213.0793-.0043.4876-.0737.4762-.1275.462-.1729.44-.2211.4166-.2637.3855-.3061.3544-.3429.3146-.38.275-.4082.2324-.4336.1871-.4564.1361-.4734.0878-.4847.04-.4932v-.0029l-.0141-.4875-.0624-.49-.1134-.4791m-24.6473,30.9742-.0113-.0066-.8381-.4838-7.3653-4.252-6.154,3.5527-1.2114.6993-.8495.49v9.4819l2.0609,1.19,6.154,3.5526,8.2034-4.7358.0113-.0065v-9.4819m-1.23-101.5455-.068.8079.0227.8078.1084.7484.0078.0538.2069.7852.2948.754.377.7172.0851.1234.1842.2672.19.2756.5328.6123.2062.19.3919.36.16.1161.4346.3148.0627.0453.7086.3968.3714.1561.377.1586.78.23.8023.1388.8106.0455.8108-.0455.8021-.1388.78-.23.6435-.2706.1048-.0441.7059-.3968.0626-.0453.595-.4309.601-.55.53-.6123.258-.3743.1842-.2672.0171-.0247.38-.7172.2947-.754.207-.7852.0078-.0538.1084-.7484.0227-.8078-.0708-.8079-.11-.5386-.0519-.2551-.2494-.7711-.3374-.737-.2183-.36-.1842-.3038-.0171-.028-.1886-.2438-.1582-.204-.1492-.1929-.567-.581-.6292-.5131-.3791-.2438-.3041-.1956-.4648-.227-.2665-.13-.7654-.2721-.7908-.1842-.8079-.0907h-.8138l-.8051.0907-.7937.1842-.7625.2712-.0029.0009-.7284.3572-.3042.1956-.3391.2181-.04.0257-.461.3759-.1683.1372-.3319.34-.235.2408-.1493.1929-.2986.3856-.0482.0622-.136.2243-.2835.4673-.3373.737-.2523.7711-.0519.2551-.11.5386m25.71-15.6954-.2551-.4224-.2949-.3941-.3345-.3628-.3713-.3231-.4025-.2863-.428-.2438-.4507-.1956-.4706-.15-.4819-.102-.49-.0511h-.4932l-.49.0511-.4819.102-.4677.15-.4536.1956-.428.2438-.4025.2863-.3685.3231-.3345.3628-.2976.3941-.2523.4224-.21.445-.0686.1984-.093.2693-.1134.4791-.0623.4875-.0142.4932.04.49.0879.4848.1389.4734.1843.4564.2324.4365.2749.4081.3146.3771.3544.3458.3855.3061.4167.2637.0676.034.3718.1871.462.1728.4763.1248.4875.0765.49.0256.21-.0109.2834-.0147.4876-.0765.4762-.1248.4592-.1728.3742-.1871.068-.034.4167-.2637.3855-.3061.3515-.3458.3175-.3771.275-.4081.23-.4365.1871-.4564.1388-.4734.0879-.4848.0369-.49-.0114-.4932-.0651-.4875-.1134-.4791-.0931-.2693-.0685-.1984-.2069-.445M129.6813,147.3v-8.779l-8.2147-4.7395-6.154,3.5506-2.0609,1.1889v9.4848l2.0609,1.19,6.154,3.5526,8.0192-4.6294.1842-.1064.0113-.0065V147.3M139.8635,9.72l-.0248-.17-.0432-.2977-.1163-.4592-.1587-.4478-.2012-.4281-.2439-.4053-.2834-.38-.3176-.3515-.1105-.1-.241-.2175-.38-.2835-.4054-.2438-.4279-.2013-.448-.1587-.4592-.1162-.4678-.071-.4733-.0226-.4734.0226-.4677.071-.4592.1162-.445.1587-.428.2013-.23.1371-.1786.1067-.38.2835-.3515.3174-.3176.3515-.28.38-.2439.4053-.2041.4281-.1588.4478-.1161.4592-.0434.2977-.0247.17-.0227.4734.0227.4734.0681.4677.1161.4593.1588.4449.2041.4281.2439.4082.28.38.3176.3514.3515.3175.38.2806.1786.1067.23.1371.428.2041.445.1587.4592.1163.4677.068.4734.0226.4733-.0226.4678-.068.4592-.1163.448-.1587.4279-.2041.4054-.2438.38-.2806.241-.2176.1105-.1.3176-.3514.2834-.38.2439-.4082.2012-.4281.1587-.4449.1163-.4593.068-.4677.0255-.4734-.0255-.4734M118.7842,25.1049l-3.4724,2.0059-4.1924,2.4218v8.85l.3388.1956,3.3547,1.9367.499.288,3.4724,2.0046,7.326-4.2293.3389-.1956v-8.85l-7.6649-4.4277m-22.8359,0L92.09,27.3334l-3.807,2.1992v8.85l.3388.1956L92.09,40.58l3.858,2.2272,4.9439-2.8541,2.3821-1.3752.3389-.1956v-8.85l-7.6649-4.4277m-15.086-9.7286.131-.02.3367-.051.4592-.1134.4479-.1616.428-.2012.4054-.2438.38-.2806.3515-.32.3175-.3486.2834-.3827.2438-.4054.1853-.394.016-.034.1588-.445.1161-.4593.071-.47.0226-.4706-.0226-.4733-.071-.4706-.02-.0793-.0961-.38-.1588-.4451-.2013-.428-.2438-.4053-.2834-.38-.3175-.3516-.3515-.32-.38-.2807-.4054-.2437-.428-.2013-.4477-.1622L81.33,5.8406l-.4679-.0712-.3829-.018-.09-.0044-.4739.0224-.4677.0709-.4592.1134-.445.1616-.4281.2013-.4082.2437-.13.0963-.2494.1844-.3515.32-.3175.3516-.2806.38-.2438.4053-.2041.428-.1587.4451-.0962.38-.02.0793-.068.4706-.0226.4733.0226.4706.068.47.1163.4593.1587.445.0162.034.1879.394.2438.4054.2806.3827.3175.3486.3515.32.38.2806.4082.2438.4281.2012.445.1616.4592.1134.3368.051.1309.02.4734.0227.4734-.0227M139.9476,50.14l-.1757-.7341-.2892-.6974-.394-.6463-.4932-.5754-.0623-.0534-.51-.437-.6462-.394-.6974-.2891-.737-.1786-.754-.0595-.7541.0595-.7341.1786-.7.2891-.6435.394-.5753.49-.49.5754-.3969.6463-.2891.6974-.1758.7341-.0038.0482-.0557.7058.06.754.1758.7371.2891.6973.3969.6463.49.5754.5753.49.6435.3941.7.2891.7341.1785.7541.06.754-.06.737-.1785.6974-.2891.6462-.3941.51-.4369.0623-.0535.4932-.5754.394-.6463.2892-.6973.1757-.7371.06-.754-.06-.754m-11.7614,14.05-4.1409-2.39-3.5264-2.0354-3.5272,2.0354-1.68.97-2.46,1.42v8.8527l2.46,1.42,5.2072,3.005,7.6677-4.4248V64.1894m-28.2677-7.345,7.4466,4.2973,7.4466-4.2973V47.9918l-7.4466-4.3-7.4466,4.3v8.8526M80.9162,46.3534l-.4366-.1063-.2976-.0724-.7541-.0595-.754.0595-.737.1787-.6973.2891-.6463.394-.5755.49-.49.5755-.394.6462-.2891.6974-.1787.7342-.0006.0084-.0589.7455.0595.754.1787.7371.2891.6973.394.6463.49.5726.5755.4932.6463.394.6973.2892.737.1785.754.0568.7541-.0568.2976-.0724.4366-.1061.7-.2892.6435-.394.5754-.4932.49-.5726.3969-.6463.2891-.6973.1757-.7371.06-.754-.0589-.7455-.0007-.0084-.1757-.7342-.2891-.6974-.3969-.6462-.49-.5755-.5754-.49-.6435-.394-.7-.2891m20.9646,17.836-4.1409-2.39L94.2135,59.764,92.09,60.9894l-1.4037.81-4.1408,2.39v8.8527l5.4826,3.1639,2.1851,1.2609,7.6677-4.4248V64.1894m38.0982,42.987-.1758-.7371-.292-.7-.394-.6463-.4932-.5754-.0907-.0772-.4847-.4131-.6463-.3969-.6974-.2891-.737-.1758-.7568-.0595-.754.0595-.7371.1758-.6973.2891-.6463.3969-.5754.49-.4933.5754-.3939.6463-.2921.7-.1757.7371-.06.7539.0246.3119.0349.4421.1757.7371.2921.7.3939.6462.4933.5755.5754.49.6463.3968.6973.2892.7371.1785.754.06.7568-.06.737-.1785.6974-.2892.6463-.3968.4847-.4132.0907-.0772.4932-.5755.394-.6462.292-.7.1758-.7371.0348-.4421.0247-.3119-.06-.7539m8.2431,22.198-.7.292-.6463.394-.5754.4933-.49.5754-.2054.3345-.1914.3118-.2892.6973-.1786.737-.06.7569.06.7539.1786.7371.2892.6973.3968.6463.49.5754.5754.4933.6463.394.7.292.737.1757.754.06.4309-.034.3231-.0255.737-.1757.7-.292.6463-.394.5754-.4933.49-.5754.3969-.6463.2891-.6973.1786-.7371.0567-.7539-.0567-.7569-.1786-.737-.2891-.6973-.1915-.3118-.2054-.3345-.49-.5754-.5754-.4933-.6463-.394-.7-.292-.737-.1757-.754-.06-.754.06-.737.1757m-32.8706-8.2035-.04-.0229-7.9456-4.589-7.988,4.6119v9.4819l1.4041.8108,6.5839,3.8012,5.8847-3.3988.6968-.4024,1.3641-.7878.04-.023v-9.4819m-.5386-33.2673v-8.85l-7.4466-4.303-5.485,3.1695-1.9623,1.134v8.85l7.4466,4.2973,7.4466-4.2973M80.95,103.3807l-.4706-.114-.2665-.0645-.7539-.0567-.754.0567-.7371.1785-.7.2892-.6462.3968-.5755.49-.49.5755-.3968.6462-.2892.7-.1785.7371-.06.754.0215.2721.0381.4818.1785.7371.2892.7.3968.6463.49.5754.5755.49.6462.3969.7.2891.7371.1786.754.06.7539-.06.2665-.0646.4706-.114.7-.2891.6463-.3969.5754-.49.49-.5754.3969-.6463.2891-.7.1758-.7371.0381-.4818.0214-.2721-.0595-.754-.1758-.7371-.2891-.7-.3969-.6462-.49-.5755-.5754-.49L81.65,103.67l-.7-.2892m108.6576,40.1556.2948.754.38.7173.1332.194.326.4749.04.0459.22.2546.27.3118.6008.5471.1993.1442.4075.2951.051.0369.7058.4.7483.3146.7824.2268.7993.1389.8108.0454.21-.0118.6009-.0336.8023-.1389.7795-.2268.7483-.3146.7087-.4.0509-.0369.2809-.2033.3258-.236.2444-.2236.3537-.3235.1309-.15.1405-.1615.2615-.3.0478-.07.2584-.3765.0708-.1032.0824-.12.377-.7173.2948-.754.1221-.462.0847-.32.1162-.8022.0227-.8107-.0679-.8051-.1617-.7937-.2523-.771-.3374-.737-.2806-.4646-.0708-.1173-.0679-.1126-.055-.0709-.4411-.57-.5669-.5811-.6294-.5131-.3681-.2353-.315-.2012-.7285-.3572-.7653-.2722-.7938-.1842-.805-.0935h-.8135l-.8079.0935-.7908.1842-.7655.2722-.7313.3572-.3149.2012-.313.2-.0552.0353-.4807.392-.1486.1211-.36.3706-.2043.21-.26.3338-.0317.0406-.1521.1953-.0552.0709-.085.1407-.3345.5538-.3373.737-.25.771-.1616.7937-.0708.8051.0225.8107.1164.8022.0847.32.1221.462M92.0894,134.46,85.051,138.521v9.4848l.1049.06,6.9335,4.0028,1.1764.679,6.1115-3.5281,2.1033-1.2142v-9.4848l-8.2147-4.7395L92.09,134.46m-22.972-2.6856-.19-.3118-.0594-.0973-.1446-.2372-.4932-.5754-.5754-.4933-.6463-.394-.6973-.292-.7371-.1757-.7568-.06-.754.06-.737.1757-.6974.292-.6463.394-.5754.4933-.4932.5754-.204.3345-.19.3118-.292.6973-.1757.737-.06.7569.06.7539.1757.7371.292.6973.394.6463.4009.4677.0923.1077.5754.4933.6463.394.6975.292.737.1757.7539.06.7568-.06.7371-.1757.6973-.292.6464-.394.5754-.4933.0923-.1077.4009-.4677.1446-.2371.2494-.4092.292-.6973.1757-.7371.0595-.7539-.0595-.7569-.1757-.737-.292-.6973M121.584,398.4405l-6.2731-3.6218-7.9456-4.5873-14.2185,8.2091V415.233l14.2185,8.2062,7.9456-4.5857,6.2731-3.62V398.4418m19.4994,5.19h.2069V386.6383h-4.2509v16.9938h4.045m-25.733-249.1827-.04-.0229-7.9456-4.5891-5.8847,3.3977-2.1033,1.2143v9.4819l7.988,4.6092,7.9456-4.5862.04-.023v-9.4819" transform="translate(0.0004 0)"/></svg>