<svg id="Layer_1" data-name="Layer 1" xmlns="http://www.w3.org/2000/svg" viewBox="0 0 102.0581 448.3838"><defs><style>.cls-1{fill:#4c4c4c;stroke:red;stroke-miterlimit:11.3386;stroke-width:0.008px;}</style></defs><path class="cls-1" d="M14.1789,295.1688h3.0869v-44.66H8.7477v.02H8.4955v44.66h5.6834v-.02m0-55.2756h3.0869V177.5168H8.7477v.02H8.4955v62.3764h5.6834v-.02M2.8346,127.66l3.7475-1.8912.0113-.0057.4762-.24.0085-.0043,8.6-4.34.0114-.0058,1.576-.7954.3175-.16V8.0966l.3572-.1746,2.3952-1.1711L22.13,5.8738,24.01,4.955l.2607-.1275,4.0763-1.9929h9.1169l3.6333,2.0981V22.3314l.4138.3161,5.0659,3.87L48.2289,27.78l5.5954,4.2741v-.0022l.0354.0271.0354-.0271v.0022L59.49,27.78l1.6507-1.261,4.926-3.7628.1417-.1083.4139-.3161V4.9327l1.5623-.9021,2.071-1.196h9.1169L83.7836,4.991l.2637.1289,3.41,1.6671.2636.1289,2.4152,1.1807V120.5008l.3146.1587,1.5789.7968.0085.0043.0709.0357.0085.0043,8.5209,4.3.0114.0058.49.2474,3.7417,1.8881.0028.0014v313.933h-.487L87.7209,450.029l-.2636.1289-1.8226.8911-.3291.1608-.0012-.0008-1.5208-1.0639-3.8636-2.703V421.1433L65.4555,411.0246,53.86,402.9127l-11.5965,8.1115L27.7965,421.1433v26.2988l-3.5263,2.467-.2607.1824-1.5974,1.1175-.33-.1614-1.7462-.8537-2.3952-1.171-14.6188-7.147H2.8346V127.66m50.99,11.7522.034.02.0368-.0212v.0425l.0341.02,6.1114-3.5273,1.9588-1.13.1417-.0819v-9.4847l-.1417-.0818-.5556-.3206-1.4032-.81-6.1114-3.5272-.0341.02v.0426l-.0368-.0213-.034.02v-.0392l-.0369-.0213-6.1086,3.5256-2.1034,1.2139v9.4847l2.1034,1.214,6.1086,3.5256.0369-.0213v-.0393m0-43.0689.034.02.0368-.0213v.0426l.0425.0246,6.103-3.5255,1.4032-.8106.1587-.0917v-8.85l-.1587-.0916-1.4032-.81-.7937-.4582-5.3093-3.0651-.0425.0246v.0426l-.0368-.0213-.034.02v-.0393l-.0454-.0262L48.47,81.7718l-.7908.4565-1.5648.9033v8.85l1.5648.9039,6.1,3.5239.0454-.0262v-.0394m0-31.0591.034.02.0368-.0213v.0426l.0425.0245,5.7034-3.2946.4-.2308,1.4032-.8106.1587-.0917v-8.85l-.1587-.0916-1.4032-.81-.4-.2308-1.8738-1.0816-3.83-2.2108-.0425.0245v.0425l-.0368-.0212-.034.02v-.0393l-.0454-.0261-3.8267,2.2091-1.8738,1.0817-.4.2307-1.5648.9033v8.85l1.5648.9039.4.2309,5.7,3.2929.0454-.0262v-.0392m0,244.5433v-.0393l-.0369-.0213-5.7146,3.2982-2.4974,1.4414v9.4819l.1418.0818,8.07,4.6605.0369-.0213V328.67l.034.02.0368-.0213v.0426l.0341.02,8.07-4.6605.1417-.0818v-9.4819l-2.4945-1.44-5.7174-3.3-.0341.02v.0426l-.0368-.0213-.034.02m0-14.4361.034.02.0368-.0213v.0425l.0341.02,6.1114-3.5272,1.9588-1.13.1417-.0818v-9.4819l-.1417-.0819-.08-.0459-7.9907-4.6146-.0341.02v.0426l-.0368-.0213-.034.02V276.51l-.0369-.0213-3.1267,1.8056-4.8626,2.8082-.2227.1286v9.4819l2.1034,1.2139,6.1086,3.5256.0369-.0213v-.0393m0-122.7.034.02.0368-.0213v.0425l.0341.02,8.07-4.6605.1417-.0818v-9.4819l-.1417-.0818-2.3528-1.3579-5.7174-3.3-.0341.02v.0426l-.0368-.0213-.034.02v-.0392l-.0369-.0212-5.7146,3.2981-2.3556,1.36-.1418.0818V168.01l.1418.0818,8.07,4.6605.0369-.0213v-.0393m8.1014,53.695.0737.2144.1417.4125.258.7507.1641.9808.0569.34.02.1191v1.46l-.2409,1.44-.258.7522-.1417.4133-.0737.215-.6945,1.2813-.8958,1.1537-1.0743.9864-.8058.5273-.4159.2721-1.3352.5867-.1347.0341-.2479.0626-.1389.0351v4.6052l.1389-.0351,1.7927-.4529.0441-.0111,2.0154-.8844,1.4536-.95.372-.2431.0141-.0093.1276-.1174,1.491-1.3736.8193-1.0534.3624-.4659.1676-.2155L65.62,236.04l.1354-.25.275-.5068.7143-2.0806.36-2.1713v-2.1969l-.0151-.0907-.3449-2.0807-.7143-2.0778-.275-.5075-.7739-1.4285-1.3493-1.7348-1.491-1.3709-.1276-.1173-.0141-.0093-1.12-.733-.7061-.4624-1.24-.5423-.4711-.2061-.3046-.1332-1.9757-.5018v4.6069l.5215.1327,1.3352.5839,1.2217.7994,1.0743.9893.8958,1.1509.6945,1.2841m-.5443,38.92.618,1.74.1417.3992,1.2673,3.569,1.6026,4.5133.7443,2.0959.0368.1038h5.2186l-.5663-1.5453-2.7923-7.6185-1.8968-5.1752-3.6142-9.861-.1417-.3867-.3059-.8345-.3449-.9411-1.3475-3.6765h-3.68v3.21l.49,1.4077,2.9509,8.47H56.3216v4.53h5.06M51.2135,206.6372l-2.3706-.7739-.0955-.0312-1.9134-1.3436-1.2586-1.7279-.0793-.109L44.691,200.37l-.2664-2.73v-5.0826H39.1862v4.8587l.1077,1.9955.309,1.81.0084.05L40.1443,203l.737,1.6016.8268,1.2614.1171.1786.7087.7876.4365.4852,1.3436,1.1,1.2614.754.275.1644,1.7319.737,1.95.5357,2.0239.3069v-4.2447l-.343-.0306M48.07,260.7761l2.9219-8.47.5874-1.7028v-2.9148H47.8425l-1.6876,4.6176-.5795,1.5858-3.0415,8.3226-.6222,1.7023-1.7241,4.7179-.5847,1.6-1.9344,5.293-.2661.7279-.37,1.0136-.1674.4582h5.1363l.26-.7269.2726-.7605.2552-.7123,1.6-4.4664,1.1861-3.3106.876-2.4448h5.1278v-4.53H48.07m1.5591-23.0712-.4159-.2721-.8059-.5273-1.0714-.9864-.8986-1.1537-.6945-1.2813-.1673-.4877-.3061-.8928-.241-1.44v-1.46l.02-.1191.0569-.34.1641-.9808.3061-.8909.1673-.4867.6945-1.2841.8986-1.1509,1.0714-.9893,1.2218-.7994,1.3379-.5839.7852-.2V216.79l-.1077.0089-2.1345.5415-.3041.1332-1.7085.7484-1.8425,1.2047-.0794.0731-.92.8477-.6161.5674-.8211,1.0535-.531.6813-.153.2833-.8929,1.6527-.7144,2.0778-.3476,2.0807-.0152.0907v2.1969l.3628,2.1713.7144,2.0806.8929,1.65.153.2829.168.2155.6558.8414.5283.6779.615.5675.9214.85.0794.0732.3868.2524,1.4557.95,2.0126.8844,2.1345.5385.1077.009V238.49l-.7852-.1983-1.3379-.5867m12.6057-34.2765-.0936.119-.1417.18-.4507.5736-.85.7767-.9978.6463-.31.1389-.8351.3742-1.2756.3713-1.06.1649v4.1614l.2013-.0091,2.2167-.3373,1.9956-.5585,1.3663-.5973.1417-.062.275-.12,1.5789-.9553,1.3776-1.1281.3827-.4322.7568-.8548.93-1.4258.7143-1.5676.53-1.7036.32-1.7858.1049-1.868v-4.9721H63.8334v5.0457l-.0652,1.3267-.1927,1.2528-.3232,1.1793-.4479,1.0885-.57.978M15.4709,319.8672l.2075-.338.04-.0646.2892-.7.1785-.737.06-.754-.06-.754-.0858-.3543-.0927-.3827-.2892-.7-.04-.0647-.3571-.5816-.093-.1091-.3975-.4664-.5753-.49-.0733-.045-.5731-.3519-.102-.0421-.1382-.0571-.46-.19-.737-.1758-.754-.06-.754.06-.7371.1758-.46.19-.24.0992-.5362.3293-.11.0676-.5754.49-.3034.356-.0993.1165-.0878.103-.3968.6463-.0482.1167-.241.5835-.1757.737-.0595.754.0595.754.1757.737.241.5835.0482.1167.3968.6463.0214.0251.1657.1944.3034.3559.5754.49.084.0516.4192.2573.1431.0879.7.2892.4446.1077.2925.0709.754.06.754-.06.2924-.0709.4446-.1077.5981-.247.102-.0422.1431-.0879.5033-.3089.2189-.1866.3564-.3038.4905-.5754.15-.2437m-7.9222-179.11.153.18.3034.3577.5754.49.0771.0473.463.2843.1062.0652.7.2892.7371.1757.754.06.754-.06.737-.1757.5981-.2471.102-.0421.1062-.0652.54-.3316.1748-.1491.4-.3413.4905-.5783.127-.206.23-.3731.0114-.0184.0283-.046.2892-.7.1785-.7369.06-.7541-.06-.7568-.1785-.7342-.08-.1927-.21-.5074-.0283-.0462-.0114-.0185-.3571-.5817-.4905-.5753-.5753-.4933-.084-.0512-.5624-.3428-.1784-.0737-.5217-.2154-.737-.1787-.754-.06-.754.06-.7371.1787-.5217.2154-.1784.0737-.59.36-.0561.0343-.5754.4933-.3034.3558-.1871.22-.3968.6464-.04.096-.0085.0207-.1613.3907-.08.1927-.1757.7342-.0595.7568.0595.7541.1757.7369.241.5835.0085.0206.04.0961.3968.6435.0341.04M7.1178,428.3745l-.04.0961-.25.6041-.0216.0906-.1541.6464-.0595.754.0595.754.1757.737.25.6041.04.096.3968.6464.0179.0209.1692.1986.3034.3559.5754.49.01.006.6365.3908.0549.0227.6452.2665.7371.1786.754.06.754-.06.737-.1786.6452-.2665.0549-.0227.6464-.3968.0572-.0488.5181-.4416.4905-.5754.0471-.0767.3214-.5235.0283-.0462.2-.4847.089-.2154.1785-.737.06-.754-.06-.754-.1566-.6464-.0219-.0906-.2892-.7-.0283-.0462-.3685-.6-.1083-.1271-.3822-.4483-.5753-.49-.1429-.0876-.1757-.1079-.3093-.19-.0185-.0114-.7-.2891-.737-.1757-.754-.06-.754.06-.7371.1757-.7.2891-.0185.0114-.3093.19-.3185.1955L8.49,426.74l-.4846.4131-.3034.3558-.1871.22-.3968.6463m12.994-15.33h3.7191V392.6381H19.5477v20.4067h.5641M39.4639,137.86l-7.3751,4.2577-.84.4847v9.4848l8.2148,4.7423,8.2149-4.7423v-9.4848l-.84-.4847-1.2637-.73L39.4639,137.86m2.6816-90.9722L47.3042,43.91l.3746-.2161.4-.2308,1.732-1V33.61l-7.6649-4.4248L37.1368,32.077,34.4806,33.61V42.463l7.6649,4.4249M61.4438,67.2285l-1.4032.81-.4.2308v8.85l.4.2308,1.4032.81.5556.3208,5.3092,3.0659,7.6678-4.4278V68.27l-1.4794-.8543-6.1884-3.5734-5.3092,3.0659-.3969.2291-.1587.0916m-1.03-23.3195,1.03.5946.5556.3208,3.5744,2.0635.852-.4918,2.7661-1.5969,3.9051-2.2544.1418-.0818V33.61l-.1418-.0818L70.5826,32.077l-5.0088-2.8914-.1887.1089L60.06,32.3688,57.909,33.61V42.463l1.732,1,.4.2308.3731.2154M60.0406,306.24v1.8265l8.0178,4.6286.197.1138,2.2305-1.2882,5.9815-3.4542v-9.4848l-.3912-.2258-7.8208-4.5165-.197.1137-8.0178,4.6286V306.24m-22.8075,5.281,2.2308,1.2879,8.2149-4.7424v-9.4848l-2.1034-1.2142-6.1115-3.5281-8.2148,4.7423v9.4848l5.984,3.4545m1.9531-128.8791v5.2413h5.2384V173.6391H39.1862v9.0028M68.2554,156.83l7.8208-4.5165.3912-.2258v-9.4848l-.3912-.2258-.4481-.2589-5.3392-3.0833L68.2554,137.86l-.197.1138L60.88,142.1178l-.84.4847v9.4848l1.9588,1.1307,6.256,3.6116m.8561,16.7358H63.8334v14.3178h5.2781V173.5654M35.9781,391.9567l2.403,1.3872,8.8413-5.1023V378.034l-7.8775-4.5462-.9638-.5561-8.8384,5.1023v10.2076l6.4354,3.7151M47.747,367.7539l6.1127,3.5295,6.1141-3.53.5232-.302,7.8775-4.5484v-16.79L53.86,337.7324l-14.5148,8.3807v16.79l7.8775,4.5484.5246.3028m30.43,20.4877V378.034l-.394-.2274-8.4444-4.8749-.1971.1136L60.497,378.034v10.2076l8.6442,4.9887.1971.1136L71.736,391.96l6.4407-3.7181M77.3405,15.9562l.0255.0542.1757.3738.2438.4054.2835.38.3175.3515.3515.3175.38.2835.4054.2409.428.2042.3175.1124.13.0463.4592.1162.4677.0681.4734.0226.4734-.0226.4677-.0681.4308-.109.0284-.0072.445-.1587.1389-.0663.2183-.1041.0312-.0148.0142-.0068.0254-.0122.4083-.2409.38-.2835.3515-.3175.3175-.3515.2806-.38.2438-.4054.2041-.428.1587-.4479.1163-.4591.0679-.4678.0142-.2948.0086-.1785-.0228-.4735-.0679-.4676-.1163-.4593-.1587-.4478-.2041-.4281-.2438-.4053-.0314-.0426-.2492-.3373-.3175-.3515-.3515-.3175-.38-.2834-.4083-.241-.0254-.0122-.0142-.0067-.0312-.0149-.2183-.104-.1389-.0663L83.2,9.49l-.0284-.0071-.4308-.1091-.4677-.068-.4734-.0255-.4734.0255-.4677.068-.4592.1162-.13.0462-.3175.1125-.428.2041-.4054.241-.38.2834-.3515.3175-.3175.3515-.2835.38-.2438.4053-.1757.3738-.0255.0543-.1588.4478-.1162.4593-.0708.4676-.0227.4735.0085.1785.0142.2948.0708.4678.1162.4591.1588.4479M25.1093,18.9468l.0085.003.4394.1558.4592.1161.4677.068.4734.0228.4734-.0228.4677-.068.4592-.1161.445-.1588.4281-.2041.4082-.2438.38-.2806.3515-.3175.3175-.3515.2352-.3184.0454-.0615.2438-.4082.2041-.428.1587-.445.1163-.4593.068-.4676.0227-.4735-.01-.2012-.013-.2721-.068-.4678-.1163-.4591-.1587-.4479-.2041-.428-.2438-.4054-.0454-.0614-.2352-.3184L30.37,11.075l-.3515-.3175-.38-.2835-.4082-.2438-.4281-.2013-.445-.1587-.4592-.1162-.4677-.0708-.4734-.0227-.4734.0227-.4677.0708-.4592.1162-.4394.1558-.0085.0029-.428.2013-.4054.2438-.0057.0043-.2607.1946-.1134.0846-.3515.3175-.3175.3515-.2835.38-.2438.4054-.2012.428-.1588.4479-.1162.4591-.068.4678-.0147.2721-.0108.2012.0255.4735.068.4676.1162.4593.1588.445.2012.428.2438.4082.2835.38.3175.3515.3515.3175.1134.0838.2607.1926.0057.0042.4054.2438.428.2041M93.2624,320.9929l.2157.1838.3509.2154.1523.0935.1431.0879.6576.2717.0426.0175.4428.1077.2913.0709.7569.06.754-.06.2925-.0709.4445-.1077.7-.2892.1425-.0879.1516-.0935.2538-.1565.0955-.0589.5755-.49.4467-.5212.0465-.0542.3685-.6.0283-.0461.0341-.0824.2551-.6178.1757-.737.06-.754-.06-.754-.1757-.737-.2551-.6178-.0341-.0824-.0283-.0461-.3685-.6-.08-.0932-.4133-.4823-.5755-.49-.1035-.0638-.54-.3331-.24-.0992-.46-.19-.737-.1758-.754-.06-.7569.06-.7341.1758-.0426.0176-.4174.1723-.24.0992-.6023.37-.044.0271-.5754.49-.41.4788-.0829.0967-.292.479-.0085.0139-.0709.1162-.0227.0372-.2919.7-.0913.3827-.0845.3543-.0595.754.0595.754.1758.737.2919.7.0227.0372.0709.1163.0085.0139.1519.2491.14.23.4932.5754.36.3066m.0441-179.353.1716.1463.54.3316.1062.0652.6576.2716.0426.0176.7341.1757.7569.06.754-.06.737-.1757.7-.2892.1057-.0652.4347-.2681.103-.0635.5755-.49.446-.523.0472-.0553.3685-.5975.0283-.046.0227-.0549.0114-.0274.2551-.6179.1757-.7369.06-.7541-.06-.7568-.1757-.7342-.08-.1927-.1755-.4251-.0114-.0275-.0227-.0548-.0283-.0462-.3685-.6-.0342-.04-.459-.5354-.5755-.4933-.0519-.0318-.5915-.3622-.1785-.0737-.5217-.2154-.737-.1787-.754-.06-.7569.06-.7341.1787-.0426.0175-.4791.1979-.1785.0737-.5916.3607-.0547.0333-.5754.4933-.4932.5753-.292.479-.0085.0139-.0709.1163-.0085.0139-.0142.0233-.2116.5074-.08.1927-.1758.7342-.0595.7568.0595.7541.1758.7369.2919.7.0142.0231.0085.0139.0709.1158.0085.0138.1743.2847.1177.1922.4932.5783.4038.3441m.2311,153.5289v.02h5.6835v-44.66h-.2523v-.02H90.4507v44.66h3.0869m5.6835-55.2557V177.5367h-.2523v-.02H90.4507v62.3764h3.0869v.02h5.6835m-6.3184,187.24-.399.4654-.0942.11-.292.4789-.0085.0139-.0936.1535-.2919.7-.0217.0906-.1541.6464-.0595.754.0595.754.1758.737.09.2154.2021.4847.0142.0233.0794.13.0085.0139.2532.4154.0388.0636.4932.5754.5754.49.6463.3968.0549.0227.6027.2489.0426.0176.7341.1786.7569.06.754-.06.737-.1786.6453-.2665.0549-.0227.6083-.3751.0351-.0217.5755-.49.462-.539.0312-.0364.3685-.6.0283-.0462.0227-.0548.2665-.6453.1757-.737.06-.754-.06-.754-.1541-.6464-.0216-.0906-.2665-.6453-.0227-.0549-.0283-.0462-.3155-.5138-.053-.0863-.4932-.5754-.4821-.4109-.0934-.08-.3171-.1955-.3079-.19-.0184-.0114-.7-.2891-.737-.1757-.754-.06-.7569.06-.7341.1757-.7.2891-.0185.0114-.3093.19-.2054.1262-.1131.0693-.5754.49m-5.17-34.5147h-3.73v20.4067h4.2832V392.6381h-.5528M40.4107,81.5471l7.2681-4.197.4-.2308V68.27l-.4-.2308-1.5648-.9035-5.7033-3.2934-6.19,3.5743-1.478.8534v8.85Z" transform="translate(-2.8306 -2.8306)"/></svg>