<svg id="Layer_1" data-name="Layer 1" xmlns="http://www.w3.org/2000/svg" viewBox="0 0 102.0581 474.8481"><defs><style>.cls-1{fill:#4c4c4c;stroke:red;stroke-miterlimit:11.3386;stroke-width:0.008px;}</style></defs><path class="cls-1" d="M89.9206,8.0135V146.9877h.26l4.3192,2.179.1244.0627,6.5156,3.287.8226.415,2.9191,1.4726.0029.0014V357.36l-.0029.002-1.9619,1.413-.0766.0551-3.6365,2.6187v34.0243l5.675,4.0868.0029.002V468.34h-.4871l-16.4726,8.0533-.2069.1011-.2609.1275-1.9388.9479-.2128.1041-.0012-.0008-1.5208-1.064L79.92,473.9064V447.6076l-7.1348-4.9912-7.33-5.1276L53.8583,429.376l-11.596,8.112L34.77,442.7294l-5.9442,4.1584-1.029.72v26.2988l-3.5263,2.467-.2608.1824-1.5974,1.1175-.33-.1614-1.7461-.8538-.7059-.345-1.6922-.8274L3.3217,468.34h-.487V399.5616l5.6777-4.0888V361.4485l-1.9218-1.384L3.0892,357.543l-.2545-.1833V154.122l2.7414-1.383,1.0145-.5118,6.46-3.259,4.5326-2.2866v-.0567h.034V8.0565l.275-.1345L17.9377,7.9,19.63,7.0725l.6577-.3215.0482-.0235,3.6255-1.7726.0482-.0235.2154-.1053.0454-.0222,2.4982-1.2213,1.53-.7479h9.1172l3.6359,2.0989V22.3313l.411.314,5.0667,3.87.98.7482.6755.5158,1.9891,1.5194,3.6057,2.7541v-.0043l.0341.026.034-.026v.0043l3.6056-2.7541L59.4418,27.78l.6754-.5158.98-.7482,4.91-3.75.0155-.0118.1418-.1083.411-.314V4.9319l1.5615-.9014,2.0716-1.1958h9.12l1.5766.7707L83.7383,4.991l.0454.0222.2154.1053.0453.0222,1.4741.7206,1.8935.9258.0453.0221.2154.1054.0455.0221.2069.1011,1.9955.9757M53.8243,336.2893V336.25l-.0369-.0213L48.07,339.5305l-1.095.6324-1.4.8081v9.4819l1.451.838,6.7609,3.9044.0369-.0213v-.0393l.034.02.034-.02v.0393l.0368.0213,6.7623-3.9052,1.308-.7553.1417-.0819V340.971l-1.4-.8081-1.095-.6324-5.7175-3.3018-.0368.0213v.0393l-.034-.02-.034.02m0-14.4333.034.02.034-.02v.0393l.0368.0213,3.5923-2.0746,2.5193-1.4548,2.1-1.213v-9.4819l-.1417-.0818-.0771-.0445-6.9852-4.0315-1.008-.5817-.0368.0213v.0392l-.034-.02-.034.02v-.0392l-.0369-.0213-1.0079.5817-2.1206,1.2239-4.8632,2.8068-.22.1271v9.4819l2.1033,1.2146,2.5164,1.4532,3.5922,2.0746.0369-.0213v-.0393m-7.3871-70.29.22-.2829.2249-.29.2555-.3293.1956-.2519,1.0744-.9864,1.2217-.7994,1.3351-.5868.7853-.1983v-4.587l-.1078.0089-2.1316.5386-2.0126.8845-.36.2347-1.3491.88-.1334.087-1.6185,1.491-1.3494,1.7348-1.02,1.88-.0293.0538-.7115,2.0806-.3481,2.0807-.0147.0878v2.2l.225,1.3449.1378.8236.4336,1.2679.2779.8128.4653.8588.5835,1.0772.1654.2126,1.184,1.5222,1.6185,1.4882,1.4825.9693.36.2354,1.9621.8595.05.0221.1992.0506,1.8672.4743.0652.0165.1078.0089V264.953l-.173-.0441-.3264-.083-.2859-.0728-1.3351-.5868-.4174-.2721-.62-.4045-.184-.12-.8312-.7654-.2432-.2239-.1956-.2513-.7-.9-.6945-1.2841-.4734-1.38-.2409-1.4373v-1.46l.0768-.4592.1641-.9808.4734-1.3805.6945-1.2813m.0141,40.2038h5.1251v-4.53H48.07l2.9359-8.5129.5705-1.6541v-2.9205H47.841l-.0228.0623-.6809,1.8629-3.5628,9.7479-3.39,9.2757-.5812,1.59-.2722.7445-1.92,5.2528-.549,1.5022h5.1391l2.3874-6.6634.0328-.0916,2.03-5.6664m7.373-125.8933.034.02.034-.02v.0393l.0368.0212.43-.2483,5.6814-3.281,1.9587-1.1312.1417-.0818v-9.4819l-.1417-.0819-.5556-.3206-1.4031-.81L56.1226,148.24l-2.1935-1.2659-.0368.0212v.0393l-.034-.02-.034.02v-.0393l-.0369-.0212L51.594,148.24l-3.9152,2.26-2.1033,1.214v9.4819l2.1033,1.2146,5.6785,3.2794.43.2483.0369-.0212v-.0393m0,33.2787.034.02.034-.02v.0393l.0368.0213,5.2616-3.0386,2.8087-1.6219.1417-.0819v-9.4819l-.1417-.0818-5.0571-2.92-3.0132-1.74-.0368.0213v.0393l-.034-.02-.034.02v-.0393l-.0369-.0213-3.0131,1.74-5.1988,3.0022v9.4819l2.95,1.7038,5.2615,3.0386.0369-.0213v-.0393M59.7629,287.24H56.3216v4.53h5.06l.618,1.74,1.3942,3.9262,2.3985,6.755h5.2186l-.6583-1.7963-1.8173-4.9587-.1095-.299L66.4584,291.77l-4.459-12.1669-1.9747-5.3881-.0228-.0623h-3.68V277.36l.4163,1.1951,1.3469,3.867,1.6781,4.8179m-.5018-23.87-.13.0849-.3829.25-.2913.19-.4174.2721-1.3351.5868-.5216.1327v4.6069l1.9757-.5018.1023-.0448.4874-.2135,1.4229-.6233,1.8284-1.1955.0142-.0092,1.6185-1.4882,1.184-1.5222.1654-.2126.5835-1.0772.4653-.8588.7115-2.0807.3628-2.1685v-2.2l-.0147-.0878-.3481-2.0807-.7115-2.0806-.0293-.0538-1.02-1.88L63.6321,247.38l-1.6185-1.491-.0142-.0093-.0755-.0492-1.7529-1.1433-1.4229-.6254-.59-.2591-1.9757-.4991v4.6052l.5216.1317,1.3351.5868.7087.4636.513.3358,1.0744.9864.4511.5812.265.3411.18.2314.6945,1.2813.0737.2149.4,1.1656.1641.9808.0768.4592v1.46l-.2409,1.4373-.4,1.1655-.0737.2149-.6945,1.2841-.8957,1.1509-.2432.2239-.8312.7654m-12.427-32.42-1.2586-1.7252-.0794-.1088-.474-1.3436-.3311-.9383-.2664-2.73v-5.0825H39.1862V223.88l.1077,1.9927.309,1.8124.0085.05.0113.0369.5188,1.69.74,1.6043.9411,1.44,1.1452,1.2727,1.0518.861.2918.2388,1.2643.7544.2749.1641,1.2869.5455.4451.1886,1.4955.4136.4519.125,2.0267.3069v-4.2446l-.3457-.0308-2.4662-.8078-1.6073-1.13-.3032-.2134m15.4005-1.0572-.2352.2994-.4507.5736-.85.7767-.9978.6435-.9524.4267-.1928.0863-1.2756.3742-1.06.1628v4.1608l.2012-.0093,2.2167-.3345.1106-.0309.8034-.2248,1.0816-.3027.2769-.121,1.0894-.4763.4167-.1822,1.2285-.7433.35-.212.5584-.4594.6-.4939.216-.1777,1.1423-1.2841.9269-1.4258.7173-1.5676.4912-1.5789.0388-.1248.32-1.7858.105-1.868v-4.972H63.8334v5.0457l-.0528,1.074-.0124.2527-.1927,1.2528-.3084,1.1254-.0148.0539-.4478,1.0856-.57.9809M92.756,453.7881l-.3465.4044-.3969.6463-.2891.7-.0217.0906-.1541.6435-.0595.7569.0595.754.1758.737.2042.4945.0849.2056.3092.5035.0877.1428.102.1191.3912.4563.5754.49.6435.3969.7.2891.7371.1758.0081.0006.7459.0589.7568-.0595.7342-.1758.5475-.226.1527-.0631.6463-.3969.5754-.49.3912-.4563.1021-.1191.3939-.6463.19-.4558.1019-.2443.1757-.737.06-.754-.06-.7569-.1757-.7341-.292-.7-.3939-.6463-.01-.0114-.1627-.19-.3208-.3743-.5754-.4932-.6463-.394-.2141-.0884-.4861-.2008-.2306-.056-.5036-.1225-.7568-.0595-.754.0595-.21.0508-.5275.1277-.2915.12-.4086.1688-.5414.3315-.1021.0625-.5754.4932-.1467.1711m-.5212-107.4974.1747.2845.4932.5754.5754.49.1021.063.5414.3339.7.2891.7371.1758.1321.01.6219.049.7568-.06.7342-.1758.7-.2891.199-.1222.4473-.2747.5754-.49.4933-.5754.3939-.6463.1349-.3234.0617-.1482.0954-.2286.1757-.737.0484-.6123.0112-.1417-.06-.754-.1757-.7371-.292-.7-.3939-.6463-.1615-.1883-.3318-.3872-.34-.2915-.2353-.2017-.6463-.394-.7-.2891-.1011-.0247L97.07,338.97l-.6682-.0525-.0886-.007-.754.06-.7371.1786-.7.2891-.5414.3315-.1021.0625-.5754.4932-.1577.184L92.41,340.9l-.3969.6463-.2891.7-.1758.7371-.0595.754.0112.1417.0483.6123.1758.737.1977.4786.0914.2216.2222.3618m1.3028-24.6576v.02h5.6835v-44.66h-.2522v-.02H90.4507v44.66h3.0869M92.2587,166.9362l.1508.2455.4932.5755.5754.4932.1021.0625.5414.3315.7.292.6066.1446.1305.0311.754.06.7568-.06.7342-.1757.4823-.2011.2179-.0909.4649-.2834.1814-.1106.2353-.2017.34-.2915.4933-.5755.3939-.6463.2469-.59.0451-.1077.1757-.737.06-.7569-.034-.4308-.0256-.3232-.1757-.737-.292-.6973-.2085-.342-.1854-.3043-.4933-.5754-.5754-.4932-.6463-.3941-.36-.15-.34-.1417-.7342-.1758-.7568-.0595-.754.0595-.32.0764-.417.0994-.7.2919-.5414.3315-.1021.0626-.5754.4932-.1632.19-.33.385-.3969.6463-.2891.6973-.1758.737-.0255.3232-.034.4308.0595.7569.1758.737.1946.47.0945.2278.2461.4008m6.9624,99.4411V204.001h-.2522v-.02H90.4507v62.3764h3.0869v.02h5.6835M34.77,401.48l-5.23,3.0182V414.703l5.23,3.02,3.6114,2.0853,1.0139-.5857,7.8244-4.52V404.4983l-8.8383-5.1023L34.77,401.48m2.3569-79.8272L34.77,323.0136l-3.5207,2.0324v9.4847l3.5207,2.0312L39.464,339.27l3.43-1.9791,4.7846-2.76V325.046l-2.1033-1.2143-5.299-3.059-.6736-.3889-.1389-.08-2.3373,1.3493m31.1948,97.57.8183.4727.1956.113,3.45-1.992.24-.1386,5.1513-2.9746V404.4983l-.394-.2274-4.9975-2.8841L70.2081,399.9l-.8727-.5035-.1956.1128-8.6427,4.9895V414.703l7.8244,4.52m-8.3242-51.4833-6.139-3.5434-6.139,3.5434-8.3772,4.8353v16.7924l12.9934,7.5023,1.5228.8792,1.5228-.8792,4.5928-2.6518,8.4006-4.8505V372.5745l-2.7479-1.5861-5.6293-3.2492M40.2859,214.3474h4.1387v-14.244H39.1862v14.244h1.1M34.77,167.0343l-1.3411.7743-2.18,1.2582v9.4819l3.5207,2.0324.7517.434,3.9425,2.276,8.2148-4.7424v-9.4819l-2.1033-1.2142-6.1115-3.5282-4.6942,2.71M68.4256,339.1705l4.36-2.5153,3.6823-2.1245V325.046L72.7852,322.92,70.59,321.6529l-2.1643-1.2494-.173-.1-.1956.1129-.6169.3564-5.299,3.06-2.1,1.213v9.4847l4.7818,2.76,3.2345,1.8668.1956.1129.173-.1m3.7695-158.1554.59-.3407,1.751-1.0108,1.9313-1.1149v-9.4819l-2.18-1.2582-1.5027-.8675-.2918-.1685-4.2408-2.4482-6.1115,3.5294-.1417.0818-1.9587,1.1312v9.4819l1.9587,1.1312,6.2532,3.6112,3.9425-2.276m-18.34-141.86L43.6848,45.0255V56.77l10.1706,5.8733L64.0262,56.77V45.0255L53.8554,39.1549M72.3487,74.9481l.4365-.2521L79.56,70.784V62.4586l-6.7748-3.9093-.4365-.2519L65.14,62.4586V70.784l7.2085,4.1641m0,32.21.4365-.252,6.7748-3.9094V94.6715L72.7852,90.76l-.4365-.2521L65.14,94.6715v8.3253l7.2085,4.1614M42.4942,94.6375l-3.1209-1.8021-4.09-2.362-.513.2963-5.9442,3.4338-.7513.434V102.96l.7513.4339,5.9442,3.4338.513.2964,4.09-2.3619,3.1209-1.8022V94.6375m11.3612,7.6762-10.1706,5.8706v11.7439l10.1706,5.8734,10.1708-5.8734V108.1843l-10.1708-5.8706M34.77,58.56l-5.9442,3.4314-.7513.4337V70.75l.7513.4336L34.77,74.615l.513.2962,4.09-2.36,3.1209-1.801V62.4246l-3.1209-1.8009-4.09-2.36-.513.2962M87.3808,419.556H83.1742V439.77h4.2066V419.556M81.8247,18.78l.1448-.0368.3-.0766.4421-.1587.4253-.2012.4053-.2438.377-.2835.3487-.3175.3146-.3514.2806-.38.2438-.4054.2013-.428.007-.02.1517-.428.1134-.4593.068-.4677.0227-.4734-.0227-.4734-.068-.4677-.0329-.1332-.0805-.326-.1587-.4451-.2013-.428-.2438-.4081-.2806-.38-.3146-.3515-.3487-.3175-.377-.2807-.4053-.2437L82.7121,9.59,82.27,9.4309l-.3-.0765-.1559-.04-.4649-.0681-.47-.0227-.4706.0227-.4649.0681-.4564.1162-.4195.15-.0255.0091-.4252.2041-.4025.2437-.377.2807-.3487.3175-.3175.3515-.2806.38-.2409.4081-.2013.428-.1588.4451-.08.326-.033.1332-.0113.0748-.0595.3929-.0227.4734.0227.4734.0595.3929.0113.0748.1134.4593.1518.428.007.02.2013.428.2409.4054.2806.38.3175.3514.3487.3175.377.2835.4025.2438.4252.2012.445.1587.4452.1134.0112.0029.4649.068.4706.0255.47-.0255.4649-.068.0111-.0029M15.7993,345.7322l.208-.5035.1758-.737.0482-.6123.0113-.1417-.0595-.754-.1758-.7371-.2891-.7-.3969-.6463-.3534-.4147-.137-.1608-.5755-.4932-.6463-.394-.7-.2891-.4115-.1-.1923-.0467-.1332-.0322-.7541-.06-.754.06-.7369.1786-.299.1234-.4012.1657-.6463.394-.5754.4932-.49.5755-.3142.5116-.0827.1347-.2891.7-.1786.7371-.0595.754.0112.1417.0483.6123.1786.737.0352.0852.2539.615.3969.6463.49.5754.5754.49.4266.262.22.1349.7.2891.7369.1758.754.06.61-.0481.1445-.0114.1332-.0317.6038-.1441.7-.2891.6463-.3969.5755-.49.49-.5754.1782-.29.2187-.356.0811-.1967m.003-179.4.205-.4942.1758-.737.0595-.7569-.0341-.4308-.0254-.3232-.1758-.737-.2891-.6973-.3969-.6463-.3479-.4082-.1425-.1672-.5755-.4932-.6463-.3941-.7-.2919-.43-.1026-.1737-.0414-.1332-.0318-.7541-.0595-.754.0595-.7369.1758-.3441.1435-.3561.1484-.6463.3941-.5754.4932-.49.5754-.18.2927-.2171.3536-.2891.6973-.1786.737-.0255.3232-.034.4308.0595.7569.1786.737.0354.0854.2537.6119.3969.6463.49.5755.5754.4932.1672.1019.2514.1533.2277.1388.7.292.7369.1757.754.06.5737-.0452.18-.0143.1332-.0317.6038-.144.7-.292.6463-.394.5755-.4932.49-.5755.1273-.2073.27-.439.0841-.2031M8.4955,276.9931v44.66H14.179v-.02h3.0869v-44.66H8.7477v.02H8.4955m0-72.9921v62.3763H14.179v-.02h3.0869V203.9811H8.7477v.02H8.4955M6.8066,455.63l-.1565.6435-.0595.7569.0595.754.1786.737.0508.1229.2383.5772.3969.6463.1014.1191.389.4563.5754.49.3569.2192.2894.1777.7.2891.7369.1758.754.0595.4292-.0339.3249-.0256.737-.1758.7-.2891.6463-.3969.3577-.3047.2178-.1857.3063-.3593.0826-.097.1015-.1191.3969-.6463.0746-.1809.2145-.5192.1758-.737.0595-.754-.0595-.7569-.1541-.6435-.0217-.0906-.2891-.7-.3969-.6463-.3645-.4277-.1259-.1478-.5755-.4932-.6463-.394-.7-.2892-.5405-.1309-.0633-.0153-.1332-.0323-.7541-.0595-.754.0595-.7369.1785-.49.2025-.21.0867-.6463.394-.5754.4932-.4807.5641-.01.0114-.2557.4164-.1412.23-.2891.7-.0221.0906M24.1371,419.556H19.93V439.77h4.2067V419.556M28.3635,18.9326l.3189-.1531.1063-.051.4025-.2409.38-.2835.15-.1368.1985-.1807.3146-.3515.2807-.38.2409-.4054.2013-.4309.1587-.445.1163-.4592.068-.4677.0226-.4734L31.3,14l-.068-.4677-.1163-.4592-.0351-.0992-.1236-.3486-.2013-.4281-.2409-.4054-.2807-.38-.3146-.3515-.1985-.1807-.15-.1368-.38-.2834-.4025-.241-.4252-.2041-.4422-.1588L27.4649,9.74l-.4677-.0681L26.53,9.6463l-.4706.0255L25.594,9.74l-.4563.1161-.4451.1588-.4252.2041-.3514.21-.0511.0306-.38.2834-.3487.3175-.3147.3515-.2806.38-.2409.4054-.2013.4281-.1235.3486-.0352.0992-.1162.4592L21.7559,14l-.0227.4734.0227.4734.0681.4677.1162.4592.001.0029.1577.4421L22.3,16.75l.2409.4054.2806.38.3147.3515.3487.3175.38.2835.0511.03.3514.21.1064.051.3188.1531.4451.1587.4563.1163.4649.068.4706.0227.4677-.0227.4677-.068.4564-.1163.4422-.1587M69.1116,214.3474V200.03H63.8334v14.3177h5.2782M53.8554,94.2208,64.0262,88.35V76.6063L53.8554,70.7329,43.6848,76.6063V88.35Z" transform="translate(-2.8307 -2.8306)"/></svg>