  0
SECTION
  2
HEADER
  9
$ACADVER
  1
AC1009
  9
$EXTMAX
 10
36.3441467285156
 20
130.639022827148
 30
0.0
  9
$EXTMIN
 10
2.143764257431
 20
1.5804313421249
 30
0.0
  9
$INSUNITS
 70
     4
  9
$LUNITS
 70
     2
  9
$LUPREC
 70
     4
  9
$MEASUREMENT
 70
     1
  0
ENDSEC
  0
SECTION
  2
TABLES
  0
TABLE
  2
LAYER
 70
     1
  0
LAYER
  2
0
 70
     0
 62
     7
  6
Continuous
  0
ENDTAB
  0
TABLE
  2
APPID
 70
     1
  0
APPID
  2
ACAD
 70
     0
  0
ENDTAB
  0
ENDSEC
  0
SECTION
  2
ENTITIES
  0
POLYLINE
  8
0
 66
     1
 10
0.0
 20
0.0
 30
0.0
 70
     1
  0
VERTEX
  8
0
 10
26.8065141465738
 20
130.639017678149
 42
0.0
  0
VERTEX
  8
0
 10
30.3269824052934
 20
128.102651310795
 42
0.0
  0
VERTEX
  8
0
 10
33.902304518843
 20
125.528264491925
 42
0.0
  0
VERTEX
  8
0
 10
36.3441475091767
 20
123.768785702996
 42
0.0
  0
VERTEX
  8
0
 10
34.7046291201687
 20
118.648682618884
 42
0.0
  0
VERTEX
  8
0
 10
32.987726150768
 20
113.29111076939
 42
0.0
  0
VERTEX
  8
0
 10
33.0258630600963
 20
104.012254081034
 42
0.0
  0
VERTEX
  8
0
 10
30.4327158409392
 20
102.307033954139
 42
0.0
  0
VERTEX
  8
0
 10
30.2174414717351
 20
102.165139424556
 42
0.0
  0
VERTEX
  8
0
 10
29.570106396275
 20
101.739137959689
 42
0.0
  0
VERTEX
  8
0
 10
29.4066861376912
 20
101.631131685592
 42
0.0
  0
VERTEX
  8
0
 10
29.2888458311812
 20
101.554017648259
 42
0.0
  0
VERTEX
  8
0
 10
28.8319412433812
 20
101.254207729398
 42
0.0
  0
VERTEX
  8
0
 10
28.8179939810615
 20
101.244397017577
 42
0.0
  0
VERTEX
  8
0
 10
28.832208027084
 20
101.223225500307
 42
0.0
  0
VERTEX
  8
0
 10
28.8326700844582
 20
101.222042536663
 42
0.0
  0
VERTEX
  8
0
 10
28.8313924837227
 20
101.221543514699
 42
0.0
  0
VERTEX
  8
0
 10
28.8342115659182
 20
96.9531684821481
 42
0.0
  0
VERTEX
  8
0
 10
28.8361413691044
 20
95.410508122695
 42
0.0
  0
VERTEX
  8
0
 10
28.8371189470359
 20
92.6695574100753
 42
0.0
  0
VERTEX
  8
0
 10
28.8378046788857
 20
92.0958169946288
 42
0.0
  0
VERTEX
  8
0
 10
28.8396066542622
 20
90.7693482971295
 42
0.0
  0
VERTEX
  8
0
 10
28.839508049767
 20
90.519527567267
 42
0.0
  0
VERTEX
  8
0
 10
28.8391263081249
 20
90.2175128364122
 42
0.0
  0
VERTEX
  8
0
 10
28.843767105949
 20
84.0279442705945
 42
0.0
  0
VERTEX
  8
0
 10
28.8441473477191
 20
83.8224860321037
 42
0.0
  0
VERTEX
  8
0
 10
28.8462152359049
 20
80.6734745506069
 42
0.0
  0
VERTEX
  8
0
 10
28.8579705077178
 20
63.0877807245638
 42
0.0
  0
VERTEX
  8
0
 10
28.8664563970231
 20
50.755780509013
 42
0.0
  0
VERTEX
  8
0
 10
28.8693346999752
 20
45.503297585607
 42
0.0
  0
VERTEX
  8
0
 10
28.8701901109047
 20
45.0228827444789
 42
0.0
  0
VERTEX
  8
0
 10
28.8705510478693
 20
44.7077963863158
 42
0.0
  0
VERTEX
  8
0
 10
28.8709734312071
 20
44.6089756192862
 42
0.0
  0
VERTEX
  8
0
 10
29.1935397967059
 20
43.9981648003439
 42
0.0
  0
VERTEX
  8
0
 10
29.2222507356
 20
43.9442066594584
 42
0.0
  0
VERTEX
  8
0
 10
29.6398586742539
 20
43.1591852117124
 42
0.0
  0
VERTEX
  8
0
 10
30.8366830717785
 20
40.7506160760283
 42
0.0
  0
VERTEX
  8
0
 10
31.9098135006489
 20
38.4150790999356
 42
0.0
  0
VERTEX
  8
0
 10
32.8523969000692
 20
36.1764027999463
 42
0.0
  0
VERTEX
  8
0
 10
33.654192094925
 20
34.0559197602412
 42
0.0
  0
VERTEX
  8
0
 10
34.3067230660369
 20
32.0739340881841
 42
0.0
  0
VERTEX
  8
0
 10
34.8046245773542
 20
30.2504651573535
 42
0.0
  0
VERTEX
  8
0
 10
34.8071175099413
 20
30.2322143749013
 42
0.0
  0
VERTEX
  8
0
 10
35.1423445861746
 20
28.6011236366163
 42
0.0
  0
VERTEX
  8
0
 10
35.3183438850378
 20
27.1431148491846
 42
0.0
  0
VERTEX
  8
0
 10
35.3242844429982
 20
26.4737500876958
 42
0.0
  0
VERTEX
  8
0
 10
35.3297265112072
 20
25.8915325886448
 42
0.0
  0
VERTEX
  8
0
 10
35.1746369777401
 20
24.8560142590149
 42
0.0
  0
VERTEX
  8
0
 10
34.8568980231852
 20
24.0484151397092
 42
0.0
  0
VERTEX
  8
0
 10
34.6823663249851
 20
23.8397008724107
 42
0.0
  0
VERTEX
  8
0
 10
34.3794820069903
 20
23.4757862746414
 42
0.0
  0
VERTEX
  8
0
 10
33.7460950163604
 20
23.1426020725978
 42
0.0
  0
VERTEX
  8
0
 10
32.9645372571341
 20
23.0533272173878
 42
0.0
  0
VERTEX
  8
0
 10
32.0395313427398
 20
23.2098335977812
 42
0.0
  0
VERTEX
  8
0
 10
30.9816700957261
 20
23.6073417987415
 42
0.0
  0
VERTEX
  8
0
 10
29.7999679893579
 20
24.2465095867611
 42
0.0
  0
VERTEX
  8
0
 10
29.7352544107577
 20
24.2907138174341
 42
0.0
  0
VERTEX
  8
0
 10
28.5082338622745
 20
25.1178145641444
 42
0.0
  0
VERTEX
  8
0
 10
27.3239781026904
 20
26.0518514020138
 42
0.0
  0
VERTEX
  8
0
 10
27.2528270246334
 20
26.1083481490111
 42
0.0
  0
VERTEX
  8
0
 10
27.1184948018205
 20
26.2142015744253
 42
0.0
  0
VERTEX
  8
0
 10
26.3908204317894
 20
26.8575525541282
 42
0.0
  0
VERTEX
  8
0
 10
25.7168292906018
 20
24.2804840123177
 42
0.0
  0
VERTEX
  8
0
 10
22.7635643757172
 20
12.9973087497959
 42
0.0
  0
VERTEX
  8
0
 10
22.7619598996288
 20
12.9937370221017
 42
0.0
  0
VERTEX
  8
0
 10
22.1879312668234
 20
10.7974457530712
 42
0.0
  0
VERTEX
  8
0
 10
21.5267922635956
 20
8.2712496555884
 42
0.0
  0
VERTEX
  8
0
 10
21.5170004888699
 20
8.2348824695481
 42
0.0
  0
VERTEX
  8
0
 10
21.4717733502597
 20
8.082588267076
 42
0.0
  0
VERTEX
  8
0
 10
21.2609760315523
 20
7.3788890429892
 42
0.0
  0
VERTEX
  8
0
 10
21.2522555574115
 20
7.3488549024094
 42
0.0
  0
VERTEX
  8
0
 10
21.1605887835815
 20
7.0452763274853
 42
0.0
  0
VERTEX
  8
0
 10
7.1694411737702
 20
1.5804313510559
 42
0.0
  0
VERTEX
  8
0
 10
2.143764173361
 20
14.4472169699044
 42
0.0
  0
VERTEX
  8
0
 10
2.8315782326325
 20
15.3224395648425
 42
0.0
  0
VERTEX
  8
0
 10
3.3988638275185
 20
16.0440726435674
 42
0.0
  0
VERTEX
  8
0
 10
4.6643951889308
 20
18.0917476336033
 42
0.0
  0
VERTEX
  8
0
 10
4.9536082210733
 20
18.5597792887193
 42
0.0
  0
VERTEX
  8
0
 10
6.3867150190125
 20
21.4511323860954
 42
0.0
  0
VERTEX
  8
0
 10
7.059086153178
 20
23.1310517994335
 42
0.0
  0
VERTEX
  8
0
 10
7.1075405859493
 20
23.2520448854907
 42
0.0
  0
VERTEX
  8
0
 10
7.1363638217194
 20
23.3150864937578
 42
0.0
  0
VERTEX
  8
0
 10
7.2064827942364
 20
23.49929735048
 42
0.0
  0
VERTEX
  8
0
 10
7.6823632316939
 20
24.6867287263737
 42
0.0
  0
VERTEX
  8
0
 10
7.8231687089792
 20
25.124907556094
 42
0.0
  0
VERTEX
  8
0
 10
8.0148965376269
 20
25.6302876716408
 42
0.0
  0
VERTEX
  8
0
 10
8.7594552098568
 20
27.9701393443324
 42
0.0
  0
VERTEX
  8
0
 10
8.8614807197447
 20
28.2925763821493
 42
0.0
  0
VERTEX
  8
0
 10
9.2216226553407
 20
29.6241283881268
 42
0.0
  0
VERTEX
  8
0
 10
9.5067430203389
 20
30.6779041770588
 42
0.0
  0
VERTEX
  8
0
 10
9.6203215612204
 20
31.0950316728095
 42
0.0
  0
VERTEX
  8
0
 10
9.6685318051365
 20
31.2752935598116
 42
0.0
  0
VERTEX
  8
0
 10
9.7603878434729
 20
31.6719381247373
 42
0.0
  0
VERTEX
  8
0
 10
9.9929580120452
 20
32.6787374355169
 42
0.0
  0
VERTEX
  8
0
 10
10.1967383774804
 20
33.5616715019245
 42
0.0
  0
VERTEX
  8
0
 10
10.3305942215596
 20
34.1405152080161
 42
0.0
  0
VERTEX
  8
0
 10
10.3661905410742
 20
34.2951258952179
 42
0.0
  0
VERTEX
  8
0
 10
10.4259551223242
 20
34.5505270202037
 42
0.0
  0
VERTEX
  8
0
 10
10.464691012835
 20
34.7431768831321
 42
0.0
  0
VERTEX
  8
0
 10
11.1282305613665
 20
38.0856341274323
 42
0.0
  0
VERTEX
  8
0
 10
11.2185707612176
 20
38.6090319162763
 42
0.0
  0
VERTEX
  8
0
 10
11.2695088370457
 20
38.9100693111145
 42
0.0
  0
VERTEX
  8
0
 10
11.5304585211598
 20
40.4425157350656
 42
0.0
  0
VERTEX
  8
0
 10
11.576493950524
 20
40.7149147654664
 42
0.0
  0
VERTEX
  8
0
 10
11.7704627332452
 20
41.8470709676177
 42
0.0
  0
VERTEX
  8
0
 10
11.8781356486714
 20
42.593480385259
 42
0.0
  0
VERTEX
  8
0
 10
12.2811072547309
 20
45.3722281168348
 42
0.0
  0
VERTEX
  8
0
 10
12.3419449702804
 20
45.8001145338741
 42
0.0
  0
VERTEX
  8
0
 10
12.8413046475814
 20
49.9035981752215
 42
0.0
  0
VERTEX
  8
0
 10
13.0158829869657
 20
51.6613621603736
 42
0.0
  0
VERTEX
  8
0
 10
13.261372860317
 20
54.1228172703031
 42
0.0
  0
VERTEX
  8
0
 10
13.34219322677
 20
55.1516051899689
 42
0.0
  0
VERTEX
  8
0
 10
13.494585070916
 20
57.0869491940338
 42
0.0
  0
VERTEX
  8
0
 10
13.5990763221612
 20
58.4104871414404
 42
0.0
  0
VERTEX
  8
0
 10
13.8389155483151
 20
62.5312231826308
 42
0.0
  0
VERTEX
  8
0
 10
13.8509169443021
 20
62.7308827704155
 42
0.0
  0
VERTEX
  8
0
 10
14.0139472361388
 20
67.0405862466022
 42
0.0
  0
VERTEX
  8
0
 10
14.0866910332222
 20
71.2972997251556
 42
0.0
  0
VERTEX
  8
0
 10
14.072111308704
 20
74.9028122804732
 42
0.0
  0
VERTEX
  8
0
 10
14.0699568149999
 20
75.4612538553017
 42
0.0
  0
VERTEX
  8
0
 10
14.0248155029421
 20
77.1713731934701
 42
0.0
  0
VERTEX
  8
0
 10
13.9630410930717
 20
79.4923614101462
 42
0.0
  0
VERTEX
  8
0
 10
13.7657024364117
 20
83.349352199151
 42
0.0
  0
VERTEX
  8
0
 10
13.4810155828349
 20
86.9985231284614
 42
0.0
  0
VERTEX
  8
0
 10
13.1117852931771
 20
90.4019753329672
 42
0.0
  0
VERTEX
  8
0
 10
12.8772178755569
 20
92.0252898149845
 42
0.0
  0
VERTEX
  8
0
 10
12.6610679197243
 20
93.5295434816623
 42
0.0
  0
VERTEX
  8
0
 10
12.61873572297
 20
93.7587007154515
 42
0.0
  0
VERTEX
  8
0
 10
12.5067784954508
 20
94.3525155642977
 42
0.0
  0
VERTEX
  8
0
 10
12.3430152016017
 20
95.4720167165221
 42
0.0
  0
VERTEX
  8
0
 10
12.1013287136104
 20
97.1247277241342
 42
0.0
  0
VERTEX
  8
0
 10
11.9408399792468
 20
98.2176937196759
 42
0.0
  0
VERTEX
  8
0
 10
11.8923370183554
 20
98.5464260110146
 42
0.0
  0
VERTEX
  8
0
 10
11.7117606420411
 20
99.7850692619699
 42
0.0
  0
VERTEX
  8
0
 10
11.5628625322398
 20
100.79530231221
 42
0.0
  0
VERTEX
  8
0
 10
11.5554188121325
 20
100.848568576609
 42
0.0
  0
VERTEX
  8
0
 10
11.4446934150581
 20
101.605386622827
 42
0.0
  0
VERTEX
  8
0
 10
11.4432738586853
 20
101.604832153978
 42
0.0
  0
VERTEX
  8
0
 10
11.4263243362415
 20
101.602847484503
 42
0.0
  0
VERTEX
  8
0
 10
11.4181989000711
 20
101.601309873681
 42
0.0
  0
VERTEX
  8
0
 10
10.6486546809577
 20
102.083073148214
 42
0.0
  0
VERTEX
  8
0
 10
10.4317828511959
 20
102.217332990102
 42
0.0
  0
VERTEX
  8
0
 10
7.9266654966359
 20
103.786575631252
 42
0.0
  0
VERTEX
  8
0
 10
7.8913401217596
 20
112.471797939244
 42
0.0
  0
VERTEX
  8
0
 10
7.8895862390564
 20
112.812790959295
 42
0.0
  0
VERTEX
  8
0
 10
4.3230122988986
 20
123.636952813837
 42
0.0
  0
VERTEX
  8
0
 10
10.3270711187513
 20
128.03707327365
 42
0.0
  0
VERTEX
  8
0
 10
11.7617445572956
 20
129.087194406475
 42
0.0
  0
VERTEX
  8
0
 10
12.328970641127
 20
129.502357456832
 42
0.0
  0
VERTEX
  8
0
 10
13.8056759633238
 20
130.584984543658
 42
0.0
  0
VERTEX
  8
0
 10
15.4381975795969
 20
129.408988192691
 42
0.0
  0
VERTEX
  8
0
 10
16.4385059761195
 20
128.688770751318
 42
0.0
  0
VERTEX
  8
0
 10
19.0813990179302
 20
126.785852675819
 42
0.0
  0
VERTEX
  8
0
 10
20.3786879455453
 20
127.611882368698
 42
0.0
  0
VERTEX
  8
0
 10
21.6179057926657
 20
126.836911709075
 42
0.0
  0
VERTEX
  8
0
 10
24.4967416831997
 20
128.946859453584
 42
0.0
  0
VERTEX
  8
0
 10
25.8712571869387
 20
129.954122466759
 42
0.0
  0
VERTEX
  8
0
 10
26.7211329593479
 20
130.577308827204
 42
0.0
  0
SEQEND
  0
POLYLINE
  8
0
 66
     1
 10
0.0
 20
0.0
 30
0.0
 70
     1
  0
VERTEX
  8
0
 10
27.4287749407812
 20
122.231859417497
 42
0.0
  0
VERTEX
  8
0
 10
27.1202969223459
 20
122.127731328833
 42
0.0
  0
VERTEX
  8
0
 10
27.0820730204356
 20
122.108165642375
 42
0.0
  0
VERTEX
  8
0
 10
26.8063693847242
 20
121.977026550507
 42
0.0
  0
VERTEX
  8
0
 10
26.4967274171526
 20
121.784910980729
 42
0.0
  0
VERTEX
  8
0
 10
26.1972304393491
 20
121.555582084158
 42
0.0
  0
VERTEX
  8
0
 10
25.9167130850747
 20
121.29658092744
 42
0.0
  0
VERTEX
  8
0
 10
25.4571097919114
 20
120.833194860062
 42
0.0
  0
VERTEX
  8
0
 10
25.2558316969766
 20
120.628867863819
 42
0.0
  0
VERTEX
  8
0
 10
25.0003123240094
 20
120.34363592769
 42
0.0
  0
VERTEX
  8
0
 10
24.7751721347806
 20
120.04136496062
 42
0.0
  0
VERTEX
  8
0
 10
24.5862972564081
 20
119.729535115094
 42
0.0
  0
VERTEX
  8
0
 10
24.4387131797195
 20
119.414199633013
 42
0.0
  0
VERTEX
  8
0
 10
24.3377774478732
 20
119.104541021699
 42
0.0
  0
VERTEX
  8
0
 10
24.2822252332382
 20
118.8074278245
 42
0.0
  0
VERTEX
  8
0
 10
24.2779899814779
 20
118.530358676194
 42
0.0
  0
VERTEX
  8
0
 10
24.2883221165783
 20
118.469767278351
 42
0.0
  0
VERTEX
  8
0
 10
24.3225314898427
 20
118.279976655484
 42
0.0
  0
VERTEX
  8
0
 10
24.4141465325999
 20
118.064342510507
 42
0.0
  0
VERTEX
  8
0
 10
24.5523967116484
 20
117.884648446054
 42
0.0
  0
VERTEX
  8
0
 10
24.9422962549529
 20
117.500017808304
 42
0.0
  0
VERTEX
  8
0
 10
25.1211598257065
 20
117.364001229118
 42
0.0
  0
VERTEX
  8
0
 10
25.3381814975298
 20
117.274248059855
 42
0.0
  0
VERTEX
  8
0
 10
25.5894198968291
 20
117.23330914752
 42
0.0
  0
VERTEX
  8
0
 10
25.866845047036
 20
117.242683735239
 42
0.0
  0
VERTEX
  8
0
 10
26.1628600959397
 20
117.299131857351
 42
0.0
  0
VERTEX
  8
0
 10
26.4720612462614
 20
117.405178524351
 42
0.0
  0
VERTEX
  8
0
 10
26.6812703745885
 20
117.505982315835
 42
0.0
  0
VERTEX
  8
0
 10
26.7848272538954
 20
117.555156929132
 42
0.0
  0
VERTEX
  8
0
 10
27.0956307514547
 20
117.747998872456
 42
0.0
  0
VERTEX
  8
0
 10
27.3938501285228
 20
117.976828747062
 42
0.0
  0
VERTEX
  8
0
 10
27.6757848135533
 20
118.236110815311
 42
0.0
  0
VERTEX
  8
0
 10
28.3339712701598
 20
118.903043945437
 42
0.0
  0
VERTEX
  8
0
 10
28.3352488708952
 20
118.903542967401
 42
0.0
  0
VERTEX
  8
0
 10
28.592600313447
 20
119.187854369122
 42
0.0
  0
VERTEX
  8
0
 10
28.8173021045745
 20
119.491317540983
 42
0.0
  0
VERTEX
  8
0
 10
29.006108230745
 20
119.803393220386
 42
0.0
  0
VERTEX
  8
0
 10
29.151997742253
 20
120.119157569123
 42
0.0
  0
VERTEX
  8
0
 10
29.2468798451353
 20
120.406545450446
 42
0.0
  0
VERTEX
  8
0
 10
29.254604380007
 20
120.428378072633
 42
0.0
  0
VERTEX
  8
0
 10
29.3089026531795
 20
120.725001489016
 42
0.0
  0
VERTEX
  8
0
 10
29.3109688479613
 20
120.848518134081
 42
0.0
  0
VERTEX
  8
0
 10
29.3140222005029
 20
121.003506789053
 42
0.0
  0
VERTEX
  8
0
 10
29.2700588202601
 20
121.252478494538
 42
0.0
  0
VERTEX
  8
0
 10
29.177841990108
 20
121.469513713593
 42
0.0
  0
VERTEX
  8
0
 10
29.0400087755047
 20
121.648279889426
 42
0.0
  0
VERTEX
  8
0
 10
28.6506400417764
 20
122.031481729655
 42
0.0
  0
VERTEX
  8
0
 10
28.4713144136486
 20
122.168681272486
 42
0.0
  0
VERTEX
  8
0
 10
28.2529914818169
 20
122.257926178636
 42
0.0
  0
VERTEX
  8
0
 10
28.0017530825176
 20
122.298865090971
 42
0.0
  0
VERTEX
  8
0
 10
27.7256528515919
 20
122.290008007512
 42
0.0
  0
SEQEND
  0
POLYLINE
  8
0
 66
     1
 10
0.0
 20
0.0
 30
0.0
 70
     1
  0
VERTEX
  8
0
 10
27.0429450343268
 20
104.758651209401
 42
0.0
  0
VERTEX
  8
0
 10
27.0447320109823
 20
104.757985750016
 42
0.0
  0
VERTEX
  8
0
 10
27.2391024207468
 20
104.695925348403
 42
0.0
  0
VERTEX
  8
0
 10
27.2664609588321
 20
104.690250122657
 42
0.0
  0
VERTEX
  8
0
 10
27.2901553577482
 20
104.686415965727
 42
0.0
  0
VERTEX
  8
0
 10
27.5353968329258
 20
104.641771256485
 42
0.0
  0
VERTEX
  8
0
 10
27.8136097546685
 20
104.637819141872
 42
0.0
  0
VERTEX
  8
0
 10
28.0618472485669
 20
104.680241379335
 42
0.0
  0
VERTEX
  8
0
 10
28.2619907628288
 20
104.76250636454
 42
0.0
  0
VERTEX
  8
0
 10
28.2799718102169
 20
104.769529636628
 42
0.0
  0
VERTEX
  8
0
 10
28.4588606852645
 20
104.906210949455
 42
0.0
  0
VERTEX
  8
0
 10
28.8434005565598
 20
105.289012420598
 42
0.0
  0
VERTEX
  8
0
 10
28.9784903115515
 20
105.465850583414
 42
0.0
  0
VERTEX
  8
0
 10
29.0688493323784
 20
105.681390962194
 42
0.0
  0
VERTEX
  8
0
 10
29.0777319136639
 20
105.738307286317
 42
0.0
  0
VERTEX
  8
0
 10
29.1091459607717
 20
105.926733848079
 42
0.0
  0
VERTEX
  8
0
 10
29.1019966510437
 20
106.198810889807
 42
0.0
  0
VERTEX
  8
0
 10
29.0432312749134
 20
106.489448752066
 42
0.0
  0
VERTEX
  8
0
 10
28.9396161425093
 20
106.792564292279
 42
0.0
  0
VERTEX
  8
0
 10
28.8143863532027
 20
107.044970656502
 42
0.0
  0
VERTEX
  8
0
 10
28.7879127396593
 20
107.101438809163
 42
0.0
  0
VERTEX
  8
0
 10
28.5966668537869
 20
107.405503139441
 42
0.0
  0
VERTEX
  8
0
 10
28.3674258206917
 20
107.700725965575
 42
0.0
  0
VERTEX
  8
0
 10
28.2720886759659
 20
107.800922695921
 42
0.0
  0
VERTEX
  8
0
 10
28.2609242086133
 20
107.81428665314
 42
0.0
  0
VERTEX
  8
0
 10
28.1074127341325
 20
107.97629417735
 42
0.0
  0
VERTEX
  8
0
 10
27.4414596978524
 20
108.624501307482
 42
0.0
  0
VERTEX
  8
0
 10
27.1550543295242
 20
108.876671853103
 42
0.0
  0
VERTEX
  8
0
 10
26.8540830258247
 20
109.098065748878
 42
0.0
  0
VERTEX
  8
0
 10
26.5424560017138
 20
109.282302345341
 42
0.0
  0
VERTEX
  8
0
 10
26.2269707259538
 20
109.427128302377
 42
0.0
  0
VERTEX
  8
0
 10
25.9161590516723
 20
109.526059334198
 42
0.0
  0
VERTEX
  8
0
 10
25.6197249094728
 20
109.58043153655
 42
0.0
  0
VERTEX
  8
0
 10
25.3769605940338
 20
109.584595229896
 42
0.0
  0
VERTEX
  8
0
 10
25.3427895884655
 20
109.584882673128
 42
0.0
  0
VERTEX
  8
0
 10
25.0919968930962
 20
109.541462391736
 42
0.0
  0
VERTEX
  8
0
 10
24.8757044010307
 20
109.451253600034
 42
0.0
  0
VERTEX
  8
0
 10
24.6981404452644
 20
109.315089791467
 42
0.0
  0
VERTEX
  8
0
 10
24.3117211858387
 20
108.933190372437
 42
0.0
  0
VERTEX
  8
0
 10
24.208277958131
 20
108.796527299991
 42
0.0
  0
VERTEX
  8
0
 10
24.176631430847
 20
108.756352209621
 42
0.0
  0
VERTEX
  8
0
 10
24.0876424222304
 20
108.541074260077
 42
0.0
  0
VERTEX
  8
0
 10
24.0459757816268
 20
108.295468944956
 42
0.0
  0
VERTEX
  8
0
 10
24.0532175028297
 20
108.0231553105
 42
0.0
  0
VERTEX
  8
0
 10
24.1120065382329
 20
107.732526689388
 42
0.0
  0
VERTEX
  8
0
 10
24.2107764547598
 20
107.445516050091
 42
0.0
  0
VERTEX
  8
0
 10
24.2173376694738
 20
107.428717966347
 42
0.0
  0
VERTEX
  8
0
 10
24.3672090027392
 20
107.120763983872
 42
0.0
  0
VERTEX
  8
0
 10
24.5590093574607
 20
106.815280097222
 42
0.0
  0
VERTEX
  8
0
 10
24.7876959217069
 20
106.52147682746
 42
0.0
  0
VERTEX
  8
0
 10
25.0478250790138
 20
106.245681264103
 42
0.0
  0
VERTEX
  8
0
 10
25.1409281884309
 20
106.154974079416
 42
0.0
  0
VERTEX
  8
0
 10
25.3011360596471
 20
105.998581689303
 42
0.0
  0
VERTEX
  8
0
 10
25.5412442467374
 20
105.76650410776
 42
0.0
  0
VERTEX
  8
0
 10
25.7151244682313
 20
105.59772732206
 42
0.0
  0
VERTEX
  8
0
 10
25.9987661528659
 20
105.345022676821
 42
0.0
  0
VERTEX
  8
0
 10
26.3010387165739
 20
105.124137044157
 42
0.0
  0
VERTEX
  8
0
 10
26.6144978102692
 20
104.938979913286
 42
0.0
  0
VERTEX
  8
0
 10
26.9299830860293
 20
104.794153956249
 42
0.0
  0
SEQEND
  0
POLYLINE
  8
0
 66
     1
 10
0.0
 20
0.0
 30
0.0
 70
     1
  0
VERTEX
  8
0
 10
24.2881188597166
 20
113.618295531397
 42
0.0
  0
VERTEX
  8
0
 10
24.2322866528276
 20
114.049149953417
 42
0.0
  0
VERTEX
  8
0
 10
24.2166005549087
 20
114.176367508709
 42
0.0
  0
VERTEX
  8
0
 10
24.0669375587169
 20
114.718641865354
 42
0.0
  0
VERTEX
  8
0
 10
23.8458435889802
 20
115.235469972464
 42
0.0
  0
VERTEX
  8
0
 10
23.5530662317381
 20
115.716118406577
 42
0.0
  0
VERTEX
  8
0
 10
23.1959897444264
 20
116.149291630871
 42
0.0
  0
VERTEX
  8
0
 10
22.7836133112911
 20
116.530869399908
 42
0.0
  0
VERTEX
  8
0
 10
22.3197021435279
 20
116.851142170661
 42
0.0
  0
VERTEX
  8
0
 10
21.817267776795
 20
117.10346657413
 42
0.0
  0
VERTEX
  8
0
 10
21.285494218288
 20
117.28324917942
 42
0.0
  0
VERTEX
  8
0
 10
20.8626129228454
 20
117.362130453156
 42
0.0
  0
VERTEX
  8
0
 10
20.731754839274
 20
117.386552773873
 42
0.0
  0
VERTEX
  8
0
 10
20.1710006551919
 20
117.413217983982
 42
0.0
  0
VERTEX
  8
0
 10
20.1223827363611
 20
117.408953315376
 42
0.0
  0
VERTEX
  8
0
 10
19.6111670055183
 20
117.361708602031
 42
0.0
  0
VERTEX
  8
0
 10
19.0632323734648
 20
117.230586299055
 42
0.0
  0
VERTEX
  8
0
 10
18.5408356282933
 20
117.026541762597
 42
0.0
  0
VERTEX
  8
0
 10
18.0490398543998
 20
116.75155259822
 42
0.0
  0
VERTEX
  8
0
 10
17.6671789482156
 20
116.460329930989
 42
0.0
  0
VERTEX
  8
0
 10
17.602526332159
 20
116.409989771918
 42
0.0
  0
VERTEX
  8
0
 10
17.2070200250118
 20
116.009815862781
 42
0.0
  0
VERTEX
  8
0
 10
16.8711944030428
 20
115.559054364058
 42
0.0
  0
VERTEX
  8
0
 10
16.6248552633994
 20
115.106432782011
 42
0.0
  0
VERTEX
  8
0
 10
16.6020069374993
 20
115.066421951828
 42
0.0
  0
VERTEX
  8
0
 10
16.4036063230061
 20
114.540356277574
 42
0.0
  0
VERTEX
  8
0
 10
16.2809094790038
 20
113.99095849609
 42
0.0
  0
VERTEX
  8
0
 10
16.2350531150158
 20
113.430398182573
 42
0.0
  0
VERTEX
  8
0
 10
16.2673587635154
 20
112.87037172676
 42
0.0
  0
VERTEX
  8
0
 10
16.3778887417695
 20
112.318538733574
 42
0.0
  0
VERTEX
  8
0
 10
16.5630442760028
 20
111.787673323435
 42
0.0
  0
VERTEX
  8
0
 10
16.8218001794404
 20
111.288009897841
 42
0.0
  0
VERTEX
  8
0
 10
16.8965398224656
 20
111.183858246671
 42
0.0
  0
VERTEX
  8
0
 10
17.1474900527889
 20
110.829215567955
 42
0.0
  0
VERTEX
  8
0
 10
17.5333979525927
 20
110.420665405325
 42
0.0
  0
VERTEX
  8
0
 10
17.9722267591471
 20
110.069871350048
 42
0.0
  0
VERTEX
  8
0
 10
18.4557691722946
 20
109.782626392022
 42
0.0
  0
VERTEX
  8
0
 10
18.7526294717038
 20
109.658885201588
 42
0.0
  0
VERTEX
  8
0
 10
18.9756330689278
 20
109.565196706603
 42
0.0
  0
VERTEX
  8
0
 10
19.5190176212279
 20
109.424035275799
 42
0.0
  0
VERTEX
  8
0
 10
20.0772835658712
 20
109.3582218555
 42
0.0
  0
VERTEX
  8
0
 10
20.6391323179091
 20
109.370433185198
 42
0.0
  0
VERTEX
  8
0
 10
21.1939099471003
 20
109.46141629797
 42
0.0
  0
VERTEX
  8
0
 10
21.7304456479231
 20
109.629262146922
 42
0.0
  0
VERTEX
  8
0
 10
22.2400283567246
 20
109.870022875144
 42
0.0
  0
VERTEX
  8
0
 10
22.709578946836
 20
110.179135242714
 42
0.0
  0
VERTEX
  8
0
 10
22.8854858342243
 20
110.334830724511
 42
0.0
  0
VERTEX
  8
0
 10
23.1322635171179
 20
110.551475783287
 42
0.0
  0
VERTEX
  8
0
 10
23.4005092565115
 20
110.864584342357
 42
0.0
  0
VERTEX
  8
0
 10
23.4968511703986
 20
110.977749402367
 42
0.0
  0
VERTEX
  8
0
 10
23.8019591213633
 20
111.450326105407
 42
0.0
  0
VERTEX
  8
0
 10
24.0355484288393
 20
111.962049373617
 42
0.0
  0
VERTEX
  8
0
 10
24.1976912318366
 20
112.501494487643
 42
0.0
  0
VERTEX
  8
0
 10
24.282584089735
 20
113.056850583637
 42
0.0
  0
SEQEND
  0
POLYLINE
  8
0
 66
     1
 10
0.0
 20
0.0
 30
0.0
 70
     1
  0
VERTEX
  8
0
 10
11.3935251814364
 20
120.897983480651
 42
0.0
  0
VERTEX
  8
0
 10
11.3971711769914
 20
120.775061849365
 42
0.0
  0
VERTEX
  8
0
 10
11.402198167691
 20
120.621865880238
 42
0.0
  0
VERTEX
  8
0
 10
11.4606757619091
 20
120.324843788174
 42
0.0
  0
VERTEX
  8
0
 10
11.5418454534136
 20
120.086314289048
 42
0.0
  0
VERTEX
  8
0
 10
11.5651365318825
 20
120.015514035915
 42
0.0
  0
VERTEX
  8
0
 10
11.6547214735545
 20
119.83153682056
 42
0.0
  0
VERTEX
  8
0
 10
11.7154624231617
 20
119.702556528481
 42
0.0
  0
VERTEX
  8
0
 10
11.9072767121788
 20
119.392987764345
 42
0.0
  0
VERTEX
  8
0
 10
12.1367897059548
 20
119.093508156028
 42
0.0
  0
VERTEX
  8
0
 10
12.395095454229
 20
118.811001245598
 42
0.0
  0
VERTEX
  8
0
 10
12.8235514839873
 20
118.388256341751
 42
0.0
  0
VERTEX
  8
0
 10
13.063720923919
 20
118.152112365017
 42
0.0
  0
VERTEX
  8
0
 10
13.3477484143654
 20
117.894650028695
 42
0.0
  0
VERTEX
  8
0
 10
13.651407150196
 20
117.6702155051
 42
0.0
  0
VERTEX
  8
0
 10
13.9633275686437
 20
117.481457810284
 42
0.0
  0
VERTEX
  8
0
 10
14.2779736417696
 20
117.334940626491
 42
0.0
  0
VERTEX
  8
0
 10
14.5885479008118
 20
117.232917293837
 42
0.0
  0
VERTEX
  8
0
 10
14.8844963263642
 20
117.179718813981
 42
0.0
  0
VERTEX
  8
0
 10
15.161777633998
 20
117.174312065341
 42
0.0
  0
VERTEX
  8
0
 10
15.4127788115899
 20
117.217268402423
 42
0.0
  0
VERTEX
  8
0
 10
15.6284007640586
 20
117.309124102079
 42
0.0
  0
VERTEX
  8
0
 10
15.7329921196711
 20
117.389789207577
 42
0.0
  0
VERTEX
  8
0
 10
15.8081975939422
 20
117.447250807785
 42
0.0
  0
VERTEX
  8
0
 10
16.1929136276354
 20
117.837210974952
 42
0.0
  0
VERTEX
  8
0
 10
16.3281957049374
 20
118.017396513626
 42
0.0
  0
VERTEX
  8
0
 10
16.4161681873307
 20
118.235276983187
 42
0.0
  0
VERTEX
  8
0
 10
16.4589114458077
 20
118.485665825896
 42
0.0
  0
VERTEX
  8
0
 10
16.4501911410073
 20
118.761764944013
 42
0.0
  0
VERTEX
  8
0
 10
16.3919242546285
 20
119.058596649087
 42
0.0
  0
VERTEX
  8
0
 10
16.2876934005339
 20
119.367198140864
 42
0.0
  0
VERTEX
  8
0
 10
16.1369742040824
 20
119.681092778066
 42
0.0
  0
VERTEX
  8
0
 10
16.1365121467082
 20
119.68227574171
 42
0.0
  0
VERTEX
  8
0
 10
15.944972866499
 20
119.990861170341
 42
0.0
  0
VERTEX
  8
0
 10
15.7156232620165
 20
120.290131909371
 42
0.0
  0
VERTEX
  8
0
 10
15.4560635722797
 20
120.572149038985
 42
0.0
  0
VERTEX
  8
0
 10
15.234270807291
 20
120.791474272446
 42
0.0
  0
VERTEX
  8
0
 10
14.7888081148
 20
121.231300348801
 42
0.0
  0
VERTEX
  8
0
 10
14.5034106121433
 20
121.488500255887
 42
0.0
  0
VERTEX
  8
0
 10
14.201053136321
 20
121.713443042594
 42
0.0
  0
VERTEX
  8
0
 10
13.9957488040613
 20
121.837495916128
 42
0.0
  0
VERTEX
  8
0
 10
13.8890403063985
 20
121.902437330139
 42
0.0
  0
VERTEX
  8
0
 10
13.5731166325371
 20
122.048455491967
 42
0.0
  0
VERTEX
  8
0
 10
13.2638887264324
 20
122.150732012709
 42
0.0
  0
VERTEX
  8
0
 10
12.9673858320309
 20
122.205350048938
 42
0.0
  0
VERTEX
  8
0
 10
12.6893577332378
 20
122.208828978094
 42
0.0
  0
VERTEX
  8
0
 10
12.4402122845033
 20
122.164961347751
 42
0.0
  0
VERTEX
  8
0
 10
12.2231966605514
 20
122.072833977712
 42
0.0
  0
VERTEX
  8
0
 10
12.044215374029
 20
121.936389257614
 42
0.0
  0
VERTEX
  8
0
 10
11.8401210031112
 20
121.727962675462
 42
0.0
  0
VERTEX
  8
0
 10
11.6745232205289
 20
121.561023329857
 42
0.0
  0
VERTEX
  8
0
 10
11.6595229996087
 20
121.546438331594
 42
0.0
  0
VERTEX
  8
0
 10
11.5242645815796
 20
121.366262034068
 42
0.0
  0
VERTEX
  8
0
 10
11.4344363703289
 20
121.149292857769
 42
0.0
  0
SEQEND
  0
POLYLINE
  8
0
 66
     1
 10
0.0
 20
0.0
 30
0.0
 70
     1
  0
VERTEX
  8
0
 10
12.2726968428606
 20
104.697127665236
 42
0.0
  0
VERTEX
  8
0
 10
12.2741163992334
 20
104.697682134085
 42
0.0
  0
VERTEX
  8
0
 10
12.3965528944681
 20
104.603434525486
 42
0.0
  0
VERTEX
  8
0
 10
12.4235312391663
 20
104.591611662662
 42
0.0
  0
VERTEX
  8
0
 10
12.6111376611848
 20
104.512729518032
 42
0.0
  0
VERTEX
  8
0
 10
12.85740843569
 20
104.472849854084
 42
0.0
  0
VERTEX
  8
0
 10
13.1297682758841
 20
104.479973278923
 42
0.0
  0
VERTEX
  8
0
 10
13.4204246204381
 20
104.538691336507
 42
0.0
  0
VERTEX
  8
0
 10
13.7244680492722
 20
104.642723433356
 42
0.0
  0
VERTEX
  8
0
 10
13.8473191865694
 20
104.703797257805
 42
0.0
  0
VERTEX
  8
0
 10
13.8485021502134
 20
104.704259315179
 42
0.0
  0
VERTEX
  8
0
 10
14.0309673977204
 20
104.793526380731
 42
0.0
  0
VERTEX
  8
0
 10
14.3364328020757
 20
104.985374053998
 42
0.0
  0
VERTEX
  8
0
 10
14.6303100010174
 20
105.213871344061
 42
0.0
  0
VERTEX
  8
0
 10
14.9071868753955
 20
105.474722810744
 42
0.0
  0
VERTEX
  8
0
 10
15.5566416572035
 20
106.140972289488
 42
0.0
  0
VERTEX
  8
0
 10
15.6756613470175
 20
106.276084155498
 42
0.0
  0
VERTEX
  8
0
 10
15.7204189821142
 20
106.32765217761
 42
0.0
  0
VERTEX
  8
0
 10
15.8081005377022
 20
106.425708977525
 42
0.0
  0
VERTEX
  8
0
 10
16.0288512302588
 20
106.727628877757
 42
0.0
  0
VERTEX
  8
0
 10
16.2146423232008
 20
107.040163034193
 42
0.0
  0
VERTEX
  8
0
 10
16.3577659253986
 20
107.355119725994
 42
0.0
  0
VERTEX
  8
0
 10
16.4227007109428
 20
107.556093879104
 42
0.0
  0
VERTEX
  8
0
 10
16.4567986098417
 20
107.665671148273
 42
0.0
  0
VERTEX
  8
0
 10
16.5111678608329
 20
107.962322288098
 42
0.0
  0
VERTEX
  8
0
 10
16.5155879355428
 20
108.238918250946
 42
0.0
  0
VERTEX
  8
0
 10
16.4723240279135
 20
108.489799293621
 42
0.0
  0
VERTEX
  8
0
 10
16.3818941744169
 20
108.706169053291
 42
0.0
  0
VERTEX
  8
0
 10
16.3360210215379
 20
108.766785465131
 42
0.0
  0
VERTEX
  8
0
 10
16.2459617816001
 20
108.883768860839
 42
0.0
  0
VERTEX
  8
0
 10
15.8641662408098
 20
109.270201425582
 42
0.0
  0
VERTEX
  8
0
 10
15.6858807981781
 20
109.404807689543
 42
0.0
  0
VERTEX
  8
0
 10
15.4719946815644
 20
109.494422144827
 42
0.0
  0
VERTEX
  8
0
 10
15.2264448133289
 20
109.535946829794
 42
0.0
  0
VERTEX
  8
0
 10
14.9540849731348
 20
109.528823404955
 42
0.0
  0
VERTEX
  8
0
 10
14.663192035852
 20
109.470012935896
 42
0.0
  0
VERTEX
  8
0
 10
14.4562919364387
 20
109.397925211901
 42
0.0
  0
VERTEX
  8
0
 10
14.3596106643922
 20
109.364797875403
 42
0.0
  0
VERTEX
  8
0
 10
14.0514662949258
 20
109.214715834298
 42
0.0
  0
VERTEX
  8
0
 10
13.7465553594195
 20
109.021448604658
 42
0.0
  0
VERTEX
  8
0
 10
13.4522161031036
 20
108.794134278239
 42
0.0
  0
VERTEX
  8
0
 10
13.1766663736234
 20
108.534073873134
 42
0.0
  0
VERTEX
  8
0
 10
12.7619822179144
 20
108.107321069108
 42
0.0
  0
VERTEX
  8
0
 10
12.5284869669343
 20
107.868049859035
 42
0.0
  0
VERTEX
  8
0
 10
12.2757527113168
 20
107.583087706353
 42
0.0
  0
VERTEX
  8
0
 10
12.0550944302349
 20
107.280931213392
 42
0.0
  0
VERTEX
  8
0
 10
11.8710925395651
 20
106.96800515489
 42
0.0
  0
VERTEX
  8
0
 10
11.7265493809945
 20
106.65249399424
 42
0.0
  0
VERTEX
  8
0
 10
11.6268180464484
 20
106.34303312413
 42
0.0
  0
VERTEX
  8
0
 10
11.5725197732759
 20
106.046409707747
 42
0.0
  0
VERTEX
  8
0
 10
11.5683791586072
 20
105.769377524032
 42
0.0
  0
VERTEX
  8
0
 10
11.5862721489879
 20
105.667018510324
 42
0.0
  0
VERTEX
  8
0
 10
11.611479676943
 20
105.518705350643
 42
0.0
  0
VERTEX
  8
0
 10
11.7019805082583
 20
105.302363314415
 42
0.0
  0
VERTEX
  8
0
 10
11.8371683355324
 20
105.123109244702
 42
0.0
  0
VERTEX
  8
0
 10
12.0610392458968
 20
104.898323896183
 42
0.0
  0
VERTEX
  8
0
 10
12.2196870082091
 20
104.738595258296
 42
0.0
  0
SEQEND
  0
POLYLINE
  8
0
 66
     1
 10
0.0
 20
0.0
 30
0.0
 70
     1
  0
VERTEX
  8
0
 10
31.2222143585351
 20
29.1574565364143
 42
0.0
  0
VERTEX
  8
0
 10
31.0303901510089
 20
29.0425825414809
 42
0.0
  0
VERTEX
  8
0
 10
30.8516166209645
 20
28.906164432017
 42
0.0
  0
VERTEX
  8
0
 10
30.6891968254575
 20
28.7495196279433
 42
0.0
  0
VERTEX
  8
0
 10
30.5463913896779
 20
28.5768667372778
 42
0.0
  0
VERTEX
  8
0
 10
30.5380383116283
 20
28.5647417227995
 42
0.0
  0
VERTEX
  8
0
 10
30.4231744771189
 20
28.3896681837058
 42
0.0
  0
VERTEX
  8
0
 10
30.3204573810418
 20
28.1897796960847
 42
0.0
  0
VERTEX
  8
0
 10
30.2429811971699
 20
27.9790258446385
 42
0.0
  0
VERTEX
  8
0
 10
30.1878108209429
 20
27.7607322812704
 42
0.0
  0
VERTEX
  8
0
 10
30.1582511963523
 20
27.5376078717674
 42
0.0
  0
VERTEX
  8
0
 10
30.1534965533971
 20
27.3138099713065
 42
0.0
  0
VERTEX
  8
0
 10
30.1747206145737
 20
27.0898242965346
 42
0.0
  0
VERTEX
  8
0
 10
30.218735087234
 20
26.8703228522924
 42
0.0
  0
VERTEX
  8
0
 10
30.2902810671013
 20
26.6571302088038
 42
0.0
  0
VERTEX
  8
0
 10
30.3821740216447
 20
26.4518849521518
 42
0.0
  0
VERTEX
  8
0
 10
30.4540479412903
 20
26.3334976761533
 42
0.0
  0
VERTEX
  8
0
 10
30.4985951104627
 20
26.2606377599392
 42
0.0
  0
VERTEX
  8
0
 10
30.6348032378319
 20
26.081564061942
 42
0.0
  0
VERTEX
  8
0
 10
30.7899667972448
 20
25.920283637022
 42
0.0
  0
VERTEX
  8
0
 10
30.9629305484997
 20
25.7762634499863
 42
0.0
  0
VERTEX
  8
0
 10
31.1514506829279
 20
25.6531537057084
 42
0.0
  0
VERTEX
  8
0
 10
31.3507621552354
 20
25.5519837035159
 42
0.0
  0
VERTEX
  8
0
 10
31.5622752806474
 20
25.4733315715309
 42
0.0
  0
VERTEX
  8
0
 10
31.7797518975481
 20
25.4192055417356
 42
0.0
  0
VERTEX
  8
0
 10
31.8727480805991
 20
25.4052182666988
 42
0.0
  0
VERTEX
  8
0
 10
32.002271471529
 20
25.3877735445455
 42
0.0
  0
VERTEX
  8
0
 10
32.2273554881284
 20
25.3839848192258
 42
0.0
  0
VERTEX
  8
0
 10
32.451262782487
 20
25.4048510399479
 42
0.0
  0
VERTEX
  8
0
 10
32.6701635521428
 20
25.4504033653454
 42
0.0
  0
VERTEX
  8
0
 10
32.8826474818704
 20
25.5200636672962
 42
0.0
  0
VERTEX
  8
0
 10
33.0875131257309
 20
25.6134172069718
 42
0.0
  0
VERTEX
  8
0
 10
33.2807568896299
 20
25.7288456707542
 42
0.0
  0
VERTEX
  8
0
 10
33.4595304196743
 20
25.8652637802181
 42
0.0
  0
VERTEX
  8
0
 10
33.6210389219202
 20
26.0200528554345
 42
0.0
  0
VERTEX
  8
0
 10
33.7633711722423
 20
26.1925209231502
 42
0.0
  0
VERTEX
  8
0
 10
33.7642917066509
 20
26.1943529927348
 42
0.0
  0
VERTEX
  8
0
 10
33.8879818046674
 20
26.3817363692564
 42
0.0
  0
VERTEX
  8
0
 10
33.9887710812601
 20
26.5823716480368
 42
0.0
  0
VERTEX
  8
0
 10
34.0676926580113
 20
26.7922175446469
 42
0.0
  0
VERTEX
  8
0
 10
34.1219166633232
 20
27.0101414621157
 42
0.0
  0
VERTEX
  8
0
 10
34.1514762879137
 20
27.2332658716186
 42
0.0
  0
VERTEX
  8
0
 10
34.1557762277063
 20
27.4568316305841
 42
0.0
  0
VERTEX
  8
0
 10
34.1362083156313
 20
27.6814641856799
 42
0.0
  0
VERTEX
  8
0
 10
34.1183961248124
 20
27.7647665985515
 42
0.0
  0
VERTEX
  8
0
 10
34.090528452722
 20
27.9003424088711
 42
0.0
  0
VERTEX
  8
0
 10
34.0206386219562
 20
28.1141819326837
 42
0.0
  0
VERTEX
  8
0
 10
33.9270895183112
 20
28.3187803090117
 42
0.0
  0
VERTEX
  8
0
 10
33.8123338197423
 20
28.5106507222753
 42
0.0
  0
VERTEX
  8
0
 10
33.6744695432715
 20
28.6890775399487
 42
0.0
  0
VERTEX
  8
0
 10
33.5197606870213
 20
28.8505901063641
 42
0.0
  0
VERTEX
  8
0
 10
33.3467969357664
 20
28.9946102933998
 42
0.0
  0
VERTEX
  8
0
 10
33.1592231722533
 20
29.1180896835771
 42
0.0
  0
VERTEX
  8
0
 10
32.9584663070665
 20
29.2201676406056
 42
0.0
  0
VERTEX
  8
0
 10
32.7488810011389
 20
29.2980729814314
 42
0.0
  0
VERTEX
  8
0
 10
32.5443446517799
 20
29.3483910294845
 42
0.0
  0
VERTEX
  8
0
 10
32.5309311987806
 20
29.352014188277
 42
0.0
  0
VERTEX
  8
0
 10
32.5290126204436
 20
29.3527373201634
 42
0.0
  0
VERTEX
  8
0
 10
32.3079642758487
 20
29.3817989388322
 42
0.0
  0
VERTEX
  8
0
 10
32.0837915525104
 20
29.3874433930094
 42
0.0
  0
VERTEX
  8
0
 10
31.8598842581518
 20
29.3665771722872
 42
0.0
  0
VERTEX
  8
0
 10
31.6395639321233
 20
29.3204703780407
 42
0.0
  0
VERTEX
  8
0
 10
31.4256789283179
 20
29.2502082886951
 42
0.0
  0
SEQEND
  0
POLYLINE
  8
0
 66
     1
 10
0.0
 20
0.0
 30
0.0
 70
     1
  0
VERTEX
  8
0
 10
13.7639119761824
 20
12.6318172058487
 42
0.0
  0
VERTEX
  8
0
 10
13.9778320576418
 20
12.7005932122363
 42
0.0
  0
VERTEX
  8
0
 10
14.1822079206856
 20
12.7952006933746
 42
0.0
  0
VERTEX
  8
0
 10
14.3752150918558
 20
12.9105367456821
 42
0.0
  0
VERTEX
  8
0
 10
14.5528148994037
 20
13.0464691384989
 42
0.0
  0
VERTEX
  8
0
 10
14.7157337168749
 20
13.2018363418372
 42
0.0
  0
VERTEX
  8
0
 10
14.8583025599258
 20
13.3743968210278
 42
0.0
  0
VERTEX
  8
0
 10
14.9812478021019
 20
13.562989046083
 42
0.0
  0
VERTEX
  8
0
 10
15.065110634928
 20
13.7273717871114
 42
0.0
  0
VERTEX
  8
0
 10
15.0825545829537
 20
13.7622994055822
 42
0.0
  0
VERTEX
  8
0
 10
15.1614503231984
 20
13.9736077258774
 42
0.0
  0
VERTEX
  8
0
 10
15.217110480242
 20
14.190647347783
 42
0.0
  0
VERTEX
  8
0
 10
15.2466793459801
 20
14.413748098013
 42
0.0
  0
VERTEX
  8
0
 10
15.2506983742424
 20
14.6387311877346
 42
0.0
  0
VERTEX
  8
0
 10
15.2299918173249
 20
14.8613919432252
 42
0.0
  0
VERTEX
  8
0
 10
15.184267635614
 20
15.0817799086474
 42
0.0
  0
VERTEX
  8
0
 10
15.1139046193907
 20
15.2954346095102
 42
0.0
  0
VERTEX
  8
0
 10
15.0213277231675
 20
15.4989402080525
 42
0.0
  0
VERTEX
  8
0
 10
14.9055998171768
 20
15.6919033991019
 42
0.0
  0
VERTEX
  8
0
 10
14.8050951776032
 20
15.8242495493331
 42
0.0
  0
VERTEX
  8
0
 10
14.7693916898075
 20
15.8709770970991
 42
0.0
  0
VERTEX
  8
0
 10
14.614455481976
 20
16.0323735927669
 42
0.0
  0
VERTEX
  8
0
 10
14.4415009718686
 20
16.1763701205296
 42
0.0
  0
VERTEX
  8
0
 10
14.2529808374404
 20
16.2994798648075
 42
0.0
  0
VERTEX
  8
0
 10
14.0522405676127
 20
16.4001190574238
 42
0.0
  0
VERTEX
  8
0
 10
13.8421469985734
 20
16.479325658258
 42
0.0
  0
VERTEX
  8
0
 10
13.6244337889438
 20
16.5333592765784
 42
0.0
  0
VERTEX
  8
0
 10
13.4026498296559
 20
16.5636060845079
 42
0.0
  0
VERTEX
  8
0
 10
13.3382677711738
 20
16.5650732497242
 42
0.0
  0
VERTEX
  8
0
 10
13.177575054204
 20
16.5673711505547
 42
0.0
  0
VERTEX
  8
0
 10
12.9548507234893
 20
16.5469669872068
 42
0.0
  0
VERTEX
  8
0
 10
12.7347669901896
 20
16.5009526044351
 42
0.0
  0
VERTEX
  8
0
 10
12.5203644821251
 20
16.4320154343707
 42
0.0
  0
VERTEX
  8
0
 10
12.3164710456863
 20
16.3375691169093
 42
0.0
  0
VERTEX
  8
0
 10
12.1246468381601
 20
16.2226951219759
 42
0.0
  0
VERTEX
  8
0
 10
11.9454001226581
 20
16.0860921895623
 42
0.0
  0
VERTEX
  8
0
 10
11.7838823792648
 20
15.9313267736189
 42
0.0
  0
VERTEX
  8
0
 10
11.6401305725699
 20
15.758304237054
 42
0.0
  0
VERTEX
  8
0
 10
11.5241188520706
 20
15.5812825576281
 42
0.0
  0
VERTEX
  8
0
 10
11.5164404745534
 20
15.5709208605324
 42
0.0
  0
VERTEX
  8
0
 10
11.4147048270455
 20
15.3699159358526
 42
0.0
  0
VERTEX
  8
0
 10
11.3365022696281
 20
15.1603236143942
 42
0.0
  0
VERTEX
  8
0
 10
11.2827514497739
 20
14.9425845198751
 42
0.0
  0
VERTEX
  8
0
 10
11.2529459913071
 20
14.7193913581702
 42
0.0
  0
VERTEX
  8
0
 10
11.2472357362892
 20
14.4952474710827
 42
0.0
  0
VERTEX
  8
0
 10
11.2536017257147
 20
14.437060900436
 42
0.0
  0
VERTEX
  8
0
 10
11.2679866120082
 20
14.2710769733612
 42
0.0
  0
VERTEX
  8
0
 10
11.3155758121069
 20
14.0514992775564
 42
0.0
  0
VERTEX
  8
0
 10
11.3837836572646
 20
13.8384752971052
 42
0.0
  0
VERTEX
  8
0
 10
11.4785157245535
 20
13.6343389781513
 42
0.0
  0
VERTEX
  8
0
 10
11.5923786121563
 20
13.4405655174845
 42
0.0
  0
VERTEX
  8
0
 10
11.728542420724
 20
13.2630015617182
 42
0.0
  0
VERTEX
  8
0
 10
11.8851698553111
 20
13.1007658634163
 42
0.0
  0
VERTEX
  8
0
 10
12.0583609581473
 20
12.9568617471284
 42
0.0
  0
VERTEX
  8
0
 10
12.2449717553861
 20
12.834451475464
 42
0.0
  0
VERTEX
  8
0
 10
12.4450188423866
 20
12.7320962840109
 42
0.0
  0
VERTEX
  8
0
 10
12.4827010001693
 20
12.7187005391791
 42
0.0
  0
VERTEX
  8
0
 10
12.6555412780819
 20
12.6545842483574
 42
0.0
  0
VERTEX
  8
0
 10
12.6687366206473
 20
12.6508213595443
 42
0.0
  0
VERTEX
  8
0
 10
12.8739993435518
 20
12.5993417815034
 42
0.0
  0
VERTEX
  8
0
 10
13.0969662664838
 20
12.5695570309482
 42
0.0
  0
VERTEX
  8
0
 10
13.3206399678578
 20
12.5651901775066
 42
0.0
  0
VERTEX
  8
0
 10
13.5450112065266
 20
12.5862648804513
 42
0.0
  0
SEQEND
  0
POLYLINE
  8
0
 66
     1
 10
0.0
 20
0.0
 30
0.0
 70
     1
  0
VERTEX
  8
0
 10
19.0911831191166
 20
21.8967141974614
 42
0.0
  0
VERTEX
  8
0
 10
18.9846746850394
 20
22.2175696443353
 42
0.0
  0
VERTEX
  8
0
 10
18.8465237394647
 20
22.5230934469367
 42
0.0
  0
VERTEX
  8
0
 10
18.6726897237082
 20
22.8117619287392
 42
0.0
  0
VERTEX
  8
0
 10
18.4678082102332
 20
23.0793865759325
 42
0.0
  0
VERTEX
  8
0
 10
18.2343392312063
 20
23.3210654677973
 42
0.0
  0
VERTEX
  8
0
 10
17.9768038849813
 20
23.5370919986705
 42
0.0
  0
VERTEX
  8
0
 10
17.8599803466095
 20
23.6127804317595
 42
0.0
  0
VERTEX
  8
0
 10
17.6943610336051
 20
23.7226382737787
 42
0.0
  0
VERTEX
  8
0
 10
17.3937201372153
 20
23.8744894382225
 42
0.0
  0
VERTEX
  8
0
 10
17.078247053964
 20
23.992405851146
 42
0.0
  0
VERTEX
  8
0
 10
17.0293933649149
 20
24.0043831040304
 42
0.0
  0
VERTEX
  8
0
 10
16.7522687213417
 20
24.0736873073137
 42
0.0
  0
VERTEX
  8
0
 10
16.4184227370191
 20
24.1178642499911
 42
0.0
  0
VERTEX
  8
0
 10
16.0812301993499
 20
24.1252300735148
 42
0.0
  0
VERTEX
  8
0
 10
15.7454838770704
 20
24.0946845007387
 42
0.0
  0
VERTEX
  8
0
 10
15.4162038904987
 20
24.0252433252642
 42
0.0
  0
VERTEX
  8
0
 10
15.0959410866381
 20
23.9208479206848
 42
0.0
  0
VERTEX
  8
0
 10
14.7899429373877
 20
23.7806301513496
 42
0.0
  0
VERTEX
  8
0
 10
14.5017159018138
 20
23.608877377479
 42
0.0
  0
VERTEX
  8
0
 10
14.234150765675
 20
23.4037736894005
 42
0.0
  0
VERTEX
  8
0
 10
13.9909813396188
 20
23.1697225180822
 42
0.0
  0
VERTEX
  8
0
 10
13.7754590076876
 20
22.9109661308149
 42
0.0
  0
VERTEX
  8
0
 10
13.590870231578
 20
22.6302607119318
 42
0.0
  0
VERTEX
  8
0
 10
13.4390726754662
 20
22.3298316361896
 42
0.0
  0
VERTEX
  8
0
 10
13.364482100375
 20
22.1305397589854
 42
0.0
  0
VERTEX
  8
0
 10
13.3209444418951
 20
22.0144121612702
 42
0.0
  0
VERTEX
  8
0
 10
13.2736302989872
 20
21.8213839918906
 42
0.0
  0
VERTEX
  8
0
 10
13.2404540473052
 20
21.68710668375
 42
0.0
  0
VERTEX
  8
0
 10
13.1949141079483
 20
21.3527010536004
 42
0.0
  0
VERTEX
  8
0
 10
13.1882414672519
 20
21.017224514768
 42
0.0
  0
VERTEX
  8
0
 10
13.2189907323364
 20
20.6815850220889
 42
0.0
  0
VERTEX
  8
0
 10
13.2884873546959
 20
20.3521630798798
 42
0.0
  0
VERTEX
  8
0
 10
13.392095761867
 20
20.033147201951
 42
0.0
  0
VERTEX
  8
0
 10
13.5331467343478
 20
19.7257838304044
 42
0.0
  0
VERTEX
  8
0
 10
13.7053153598553
 20
19.436492127551
 42
0.0
  0
VERTEX
  8
0
 10
13.9097070925137
 20
19.1701214218203
 42
0.0
  0
VERTEX
  8
0
 10
14.1424921298607
 20
18.9267028718457
 42
0.0
  0
VERTEX
  8
0
 10
14.402620754955
 20
18.7117165264687
 42
0.0
  0
VERTEX
  8
0
 10
14.6831542691417
 20
18.5268697239741
 42
0.0
  0
VERTEX
  8
0
 10
14.7938658286863
 20
18.4710180671307
 42
0.0
  0
VERTEX
  8
0
 10
14.9842849463482
 20
18.3737646180677
 42
0.0
  0
VERTEX
  8
0
 10
15.299013173759
 20
18.2570570536777
 42
0.0
  0
VERTEX
  8
0
 10
15.625499769493
 20
18.1744743375015
 42
0.0
  0
VERTEX
  8
0
 10
15.9593365126681
 20
18.1303210540971
 42
0.0
  0
VERTEX
  8
0
 10
16.296266621102
 20
18.1243252427836
 42
0.0
  0
VERTEX
  8
0
 10
16.6320221845289
 20
18.1548471562869
 42
0.0
  0
VERTEX
  8
0
 10
16.9608548221497
 20
18.2226410851266
 42
0.0
  0
VERTEX
  8
0
 10
17.2808810332815
 20
18.3269440782312
 42
0.0
  0
VERTEX
  8
0
 10
17.5871157752606
 20
18.4672542590411
 42
0.0
  0
VERTEX
  8
0
 10
17.8757901597856
 20
18.6406542795466
 42
0.0
  0
VERTEX
  8
0
 10
18.1433460547769
 20
18.845781626898
 42
0.0
  0
VERTEX
  8
0
 10
18.3867779100684
 20
19.078462786006
 42
0.0
  0
VERTEX
  8
0
 10
18.6023094831471
 20
19.3371955140004
 42
0.0
  0
VERTEX
  8
0
 10
18.7586061233606
 20
19.5772363036119
 42
0.0
  0
VERTEX
  8
0
 10
18.7863899961451
 20
19.6192021928919
 42
0.0
  0
VERTEX
  8
0
 10
18.9389324080973
 20
19.9184224201006
 42
0.0
  0
VERTEX
  8
0
 10
19.0565708608517
 20
20.2350958364825
 42
0.0
  0
VERTEX
  8
0
 10
19.1389705926311
 20
20.5617018413892
 42
0.0
  0
VERTEX
  8
0
 10
19.1819172531187
 20
20.8950672860426
 42
0.0
  0
VERTEX
  8
0
 10
19.189273835495
 20
21.2322834829847
 42
0.0
  0
VERTEX
  8
0
 10
19.1590143512271
 20
21.5666690342013
 42
0.0
  0
VERTEX
  8
0
 10
19.0916821410808
 20
21.8954365967259
 42
0.0
  0
SEQEND
  0
POLYLINE
  8
0
 66
     1
 10
0.0
 20
0.0
 30
0.0
 70
     1
  0
VERTEX
  8
0
 10
24.4666222192502
 20
41.8175481624681
 42
0.0
  0
VERTEX
  8
0
 10
24.3962869264693
 20
42.0311318855123
 42
0.0
  0
VERTEX
  8
0
 10
24.3037007890986
 20
42.2346611433275
 42
0.0
  0
VERTEX
  8
0
 10
24.1869710653079
 20
42.4273966441148
 42
0.0
  0
VERTEX
  8
0
 10
24.0510623317639
 20
42.6050056928102
 42
0.0
  0
VERTEX
  8
0
 10
23.895882176992
 20
42.7677248821425
 42
0.0
  0
VERTEX
  8
0
 10
23.7226725918608
 20
42.9116763169762
 42
0.0
  0
VERTEX
  8
0
 10
23.5358436841882
 20
43.0339468586199
 42
0.0
  0
VERTEX
  8
0
 10
23.3346043923964
 20
43.1358636519717
 42
0.0
  0
VERTEX
  8
0
 10
23.1250098453212
 20
43.2137926520704
 42
0.0
  0
VERTEX
  8
0
 10
23.0543586117389
 20
43.2320083568685
 42
0.0
  0
VERTEX
  8
0
 10
22.9056516146735
 20
43.2685471766606
 42
0.0
  0
VERTEX
  8
0
 10
22.6854757118138
 20
43.2981677154118
 42
0.0
  0
VERTEX
  8
0
 10
22.6835940980668
 20
43.2987962102067
 42
0.0
  0
VERTEX
  8
0
 10
22.4587743976387
 20
43.3026063691826
 42
0.0
  0
VERTEX
  8
0
 10
22.2359761377442
 20
43.2823914800177
 42
0.0
  0
VERTEX
  8
0
 10
22.0152399600788
 20
43.2373493530507
 42
0.0
  0
VERTEX
  8
0
 10
21.803208846578
 20
43.1665297467289
 42
0.0
  0
VERTEX
  8
0
 10
21.5983635719483
 20
43.074520334374
 42
0.0
  0
VERTEX
  8
0
 10
21.4055356596862
 20
42.958027203312
 42
0.0
  0
VERTEX
  8
0
 10
21.2277824297368
 20
42.8217894655645
 42
0.0
  0
VERTEX
  8
0
 10
21.0648266476757
 20
42.6665168993177
 42
0.0
  0
VERTEX
  8
0
 10
20.9225313619436
 20
42.4939541945104
 42
0.0
  0
VERTEX
  8
0
 10
20.8389042993357
 20
42.3666673064206
 42
0.0
  0
VERTEX
  8
0
 10
20.7993033213013
 20
42.3053878543448
 42
0.0
  0
VERTEX
  8
0
 10
20.6970686518292
 20
42.1056605304005
 42
0.0
  0
VERTEX
  8
0
 10
20.618182152732
 20
41.8943285508323
 42
0.0
  0
VERTEX
  8
0
 10
20.5651060334101
 20
41.6783527736958
 42
0.0
  0
VERTEX
  8
0
 10
20.5353190572382
 20
41.4551122934452
 42
0.0
  0
VERTEX
  8
0
 10
20.5300893418895
 20
41.229738124168
 42
0.0
  0
VERTEX
  8
0
 10
20.5505408237832
 20
41.0070322757483
 42
0.0
  0
VERTEX
  8
0
 10
20.5967659143942
 20
40.7867581554572
 42
0.0
  0
VERTEX
  8
0
 10
20.6661659643433
 20
40.5741725731073
 42
0.0
  0
VERTEX
  8
0
 10
20.7596873445457
 20
40.3696451745979
 42
0.0
  0
VERTEX
  8
0
 10
20.8729644595172
 20
40.1815602449949
 42
0.0
  0
VERTEX
  8
0
 10
20.8749975119638
 20
40.1763552049615
 42
0.0
  0
VERTEX
  8
0
 10
21.0113683028819
 20
39.9975631926221
 42
0.0
  0
VERTEX
  8
0
 10
21.1675059566523
 20
39.8365814357829
 42
0.0
  0
VERTEX
  8
0
 10
21.3407155417835
 20
39.6926300009492
 42
0.0
  0
VERTEX
  8
0
 10
21.5266793619325
 20
39.5683854340836
 42
0.0
  0
VERTEX
  8
0
 10
21.7273641848753
 20
39.4678881971046
 42
0.0
  0
VERTEX
  8
0
 10
21.9383671602398
 20
39.3891458792613
 42
0.0
  0
VERTEX
  8
0
 10
22.0217794024558
 20
39.3682792714754
 42
0.0
  0
VERTEX
  8
0
 10
22.1563169625981
 20
39.3352046724157
 42
0.0
  0
VERTEX
  8
0
 10
22.377439236373
 20
39.3059537795639
 42
0.0
  0
VERTEX
  8
0
 10
22.6029575869041
 20
39.3010530684188
 42
0.0
  0
VERTEX
  8
0
 10
22.8259924395275
 20
39.3213603690586
 42
0.0
  0
VERTEX
  8
0
 10
23.0462665598186
 20
39.3675854596695
 42
0.0
  0
VERTEX
  8
0
 10
23.260168158983
 20
39.4364087846028
 42
0.0
  0
VERTEX
  8
0
 10
23.4631429479491
 20
39.5304144783463
 42
0.0
  0
VERTEX
  8
0
 10
23.6564329175855
 20
39.6457246457643
 42
0.0
  0
VERTEX
  8
0
 10
23.833949554806
 20
39.781869972037
 42
0.0
  0
VERTEX
  8
0
 10
23.9962066867641
 20
39.9382330904529
 42
0.0
  0
VERTEX
  8
0
 10
23.9976262431369
 20
39.9387875593019
 42
0.0
  0
VERTEX
  8
0
 10
24.1394372153281
 20
40.1097976545659
 42
0.0
  0
VERTEX
  8
0
 10
24.2640736842598
 20
40.2975506769869
 42
0.0
  0
VERTEX
  8
0
 10
24.3648999254424
 20
40.4980913186758
 42
0.0
  0
VERTEX
  8
0
 10
24.4443408933887
 20
40.7080037418712
 42
0.0
  0
VERTEX
  8
0
 10
24.4982821002343
 20
40.9259535442295
 42
0.0
  0
VERTEX
  8
0
 10
24.5280690764062
 20
41.1491940244802
 42
0.0
  0
VERTEX
  8
0
 10
24.5323412927563
 20
41.3728307612643
 42
0.0
  0
VERTEX
  8
0
 10
24.5114277534884
 20
41.596719573328
 42
0.0
  0
VERTEX
  8
0
 10
24.5105776646858
 20
41.6023866707356
 42
0.0
  0
SEQEND
  0
POLYLINE
  8
0
 66
     1
 10
0.0
 20
0.0
 30
0.0
 70
     1
  0
VERTEX
  8
0
 10
26.8065141465738
 20
130.639017678149
 42
0.0
  0
VERTEX
  8
0
 10
30.3269824052934
 20
128.102651310795
 42
0.0
  0
VERTEX
  8
0
 10
33.902304518843
 20
125.528264491925
 42
0.0
  0
VERTEX
  8
0
 10
36.3441475091767
 20
123.768785702996
 42
0.0
  0
VERTEX
  8
0
 10
34.7046291201687
 20
118.648682618884
 42
0.0
  0
VERTEX
  8
0
 10
32.987726150768
 20
113.29111076939
 42
0.0
  0
VERTEX
  8
0
 10
33.0258630600963
 20
104.012254081034
 42
0.0
  0
VERTEX
  8
0
 10
30.4327158409392
 20
102.307033954139
 42
0.0
  0
VERTEX
  8
0
 10
30.2174414717351
 20
102.165139424556
 42
0.0
  0
VERTEX
  8
0
 10
29.570106396275
 20
101.739137959689
 42
0.0
  0
VERTEX
  8
0
 10
29.4066861376912
 20
101.631131685592
 42
0.0
  0
VERTEX
  8
0
 10
29.2888458311812
 20
101.554017648259
 42
0.0
  0
VERTEX
  8
0
 10
28.8319412433812
 20
101.254207729398
 42
0.0
  0
VERTEX
  8
0
 10
28.8179939810615
 20
101.244397017577
 42
0.0
  0
VERTEX
  8
0
 10
28.832208027084
 20
101.223225500307
 42
0.0
  0
VERTEX
  8
0
 10
28.8326700844582
 20
101.222042536663
 42
0.0
  0
VERTEX
  8
0
 10
28.8313924837227
 20
101.221543514699
 42
0.0
  0
VERTEX
  8
0
 10
28.8342115659182
 20
96.9531684821481
 42
0.0
  0
VERTEX
  8
0
 10
28.8361413691044
 20
95.410508122695
 42
0.0
  0
VERTEX
  8
0
 10
28.8371189470359
 20
92.6695574100753
 42
0.0
  0
VERTEX
  8
0
 10
28.8378046788857
 20
92.0958169946288
 42
0.0
  0
VERTEX
  8
0
 10
28.8396066542622
 20
90.7693482971295
 42
0.0
  0
VERTEX
  8
0
 10
28.839508049767
 20
90.519527567267
 42
0.0
  0
VERTEX
  8
0
 10
28.8391263081249
 20
90.2175128364122
 42
0.0
  0
VERTEX
  8
0
 10
28.843767105949
 20
84.0279442705945
 42
0.0
  0
VERTEX
  8
0
 10
28.8441473477191
 20
83.8224860321037
 42
0.0
  0
VERTEX
  8
0
 10
28.8462152359049
 20
80.6734745506069
 42
0.0
  0
VERTEX
  8
0
 10
28.8579705077178
 20
63.0877807245638
 42
0.0
  0
VERTEX
  8
0
 10
28.8664563970231
 20
50.755780509013
 42
0.0
  0
VERTEX
  8
0
 10
28.8693346999752
 20
45.503297585607
 42
0.0
  0
VERTEX
  8
0
 10
28.8701901109047
 20
45.0228827444789
 42
0.0
  0
VERTEX
  8
0
 10
28.8705510478693
 20
44.7077963863158
 42
0.0
  0
VERTEX
  8
0
 10
28.8709734312071
 20
44.6089756192862
 42
0.0
  0
VERTEX
  8
0
 10
29.1935397967059
 20
43.9981648003439
 42
0.0
  0
VERTEX
  8
0
 10
29.2222507356
 20
43.9442066594584
 42
0.0
  0
VERTEX
  8
0
 10
29.6398586742539
 20
43.1591852117124
 42
0.0
  0
VERTEX
  8
0
 10
30.8366830717785
 20
40.7506160760283
 42
0.0
  0
VERTEX
  8
0
 10
31.9098135006489
 20
38.4150790999356
 42
0.0
  0
VERTEX
  8
0
 10
32.8523969000692
 20
36.1764027999463
 42
0.0
  0
VERTEX
  8
0
 10
33.654192094925
 20
34.0559197602412
 42
0.0
  0
VERTEX
  8
0
 10
34.3067230660369
 20
32.0739340881841
 42
0.0
  0
VERTEX
  8
0
 10
34.8046245773542
 20
30.2504651573535
 42
0.0
  0
VERTEX
  8
0
 10
34.8071175099413
 20
30.2322143749013
 42
0.0
  0
VERTEX
  8
0
 10
35.1423445861746
 20
28.6011236366163
 42
0.0
  0
VERTEX
  8
0
 10
35.3183438850378
 20
27.1431148491846
 42
0.0
  0
VERTEX
  8
0
 10
35.3242844429982
 20
26.4737500876958
 42
0.0
  0
VERTEX
  8
0
 10
35.3297265112072
 20
25.8915325886448
 42
0.0
  0
VERTEX
  8
0
 10
35.1746369777401
 20
24.8560142590149
 42
0.0
  0
VERTEX
  8
0
 10
34.8568980231852
 20
24.0484151397092
 42
0.0
  0
VERTEX
  8
0
 10
34.6823663249851
 20
23.8397008724107
 42
0.0
  0
VERTEX
  8
0
 10
34.3794820069903
 20
23.4757862746414
 42
0.0
  0
VERTEX
  8
0
 10
33.7460950163604
 20
23.1426020725978
 42
0.0
  0
VERTEX
  8
0
 10
32.9645372571341
 20
23.0533272173878
 42
0.0
  0
VERTEX
  8
0
 10
32.0395313427398
 20
23.2098335977812
 42
0.0
  0
VERTEX
  8
0
 10
30.9816700957261
 20
23.6073417987415
 42
0.0
  0
VERTEX
  8
0
 10
29.7999679893579
 20
24.2465095867611
 42
0.0
  0
VERTEX
  8
0
 10
29.7352544107577
 20
24.2907138174341
 42
0.0
  0
VERTEX
  8
0
 10
28.5082338622745
 20
25.1178145641444
 42
0.0
  0
VERTEX
  8
0
 10
27.3239781026904
 20
26.0518514020138
 42
0.0
  0
VERTEX
  8
0
 10
27.2528270246334
 20
26.1083481490111
 42
0.0
  0
VERTEX
  8
0
 10
27.1184948018205
 20
26.2142015744253
 42
0.0
  0
VERTEX
  8
0
 10
26.3908204317894
 20
26.8575525541282
 42
0.0
  0
VERTEX
  8
0
 10
25.7168292906018
 20
24.2804840123177
 42
0.0
  0
VERTEX
  8
0
 10
22.7635643757172
 20
12.9973087497959
 42
0.0
  0
VERTEX
  8
0
 10
22.7619598996288
 20
12.9937370221017
 42
0.0
  0
VERTEX
  8
0
 10
22.1879312668234
 20
10.7974457530712
 42
0.0
  0
VERTEX
  8
0
 10
21.5267922635956
 20
8.2712496555884
 42
0.0
  0
VERTEX
  8
0
 10
21.5170004888699
 20
8.2348824695481
 42
0.0
  0
VERTEX
  8
0
 10
21.4717733502597
 20
8.082588267076
 42
0.0
  0
VERTEX
  8
0
 10
21.2609760315523
 20
7.3788890429892
 42
0.0
  0
VERTEX
  8
0
 10
21.2522555574115
 20
7.3488549024094
 42
0.0
  0
VERTEX
  8
0
 10
21.1605887835815
 20
7.0452763274853
 42
0.0
  0
VERTEX
  8
0
 10
7.1694411737702
 20
1.5804313510559
 42
0.0
  0
VERTEX
  8
0
 10
2.143764173361
 20
14.4472169699044
 42
0.0
  0
VERTEX
  8
0
 10
2.8315782326325
 20
15.3224395648425
 42
0.0
  0
VERTEX
  8
0
 10
3.3988638275185
 20
16.0440726435674
 42
0.0
  0
VERTEX
  8
0
 10
4.6643951889308
 20
18.0917476336033
 42
0.0
  0
VERTEX
  8
0
 10
4.9536082210733
 20
18.5597792887193
 42
0.0
  0
VERTEX
  8
0
 10
6.3867150190125
 20
21.4511323860954
 42
0.0
  0
VERTEX
  8
0
 10
7.059086153178
 20
23.1310517994335
 42
0.0
  0
VERTEX
  8
0
 10
7.1075405859493
 20
23.2520448854907
 42
0.0
  0
VERTEX
  8
0
 10
7.1363638217194
 20
23.3150864937578
 42
0.0
  0
VERTEX
  8
0
 10
7.2064827942364
 20
23.49929735048
 42
0.0
  0
VERTEX
  8
0
 10
7.6823632316939
 20
24.6867287263737
 42
0.0
  0
VERTEX
  8
0
 10
7.8231687089792
 20
25.124907556094
 42
0.0
  0
VERTEX
  8
0
 10
8.0148965376269
 20
25.6302876716408
 42
0.0
  0
VERTEX
  8
0
 10
8.7594552098568
 20
27.9701393443324
 42
0.0
  0
VERTEX
  8
0
 10
8.8614807197447
 20
28.2925763821493
 42
0.0
  0
VERTEX
  8
0
 10
9.2216226553407
 20
29.6241283881268
 42
0.0
  0
VERTEX
  8
0
 10
9.5067430203389
 20
30.6779041770588
 42
0.0
  0
VERTEX
  8
0
 10
9.6203215612204
 20
31.0950316728095
 42
0.0
  0
VERTEX
  8
0
 10
9.6685318051365
 20
31.2752935598116
 42
0.0
  0
VERTEX
  8
0
 10
9.7603878434729
 20
31.6719381247373
 42
0.0
  0
VERTEX
  8
0
 10
9.9929580120452
 20
32.6787374355169
 42
0.0
  0
VERTEX
  8
0
 10
10.1967383774804
 20
33.5616715019245
 42
0.0
  0
VERTEX
  8
0
 10
10.3305942215596
 20
34.1405152080161
 42
0.0
  0
VERTEX
  8
0
 10
10.3661905410742
 20
34.2951258952179
 42
0.0
  0
VERTEX
  8
0
 10
10.4259551223242
 20
34.5505270202037
 42
0.0
  0
VERTEX
  8
0
 10
10.464691012835
 20
34.7431768831321
 42
0.0
  0
VERTEX
  8
0
 10
11.1282305613665
 20
38.0856341274323
 42
0.0
  0
VERTEX
  8
0
 10
11.2185707612176
 20
38.6090319162763
 42
0.0
  0
VERTEX
  8
0
 10
11.2695088370457
 20
38.9100693111145
 42
0.0
  0
VERTEX
  8
0
 10
11.5304585211598
 20
40.4425157350656
 42
0.0
  0
VERTEX
  8
0
 10
11.576493950524
 20
40.7149147654664
 42
0.0
  0
VERTEX
  8
0
 10
11.7704627332452
 20
41.8470709676177
 42
0.0
  0
VERTEX
  8
0
 10
11.8781356486714
 20
42.593480385259
 42
0.0
  0
VERTEX
  8
0
 10
12.2811072547309
 20
45.3722281168348
 42
0.0
  0
VERTEX
  8
0
 10
12.3419449702804
 20
45.8001145338741
 42
0.0
  0
VERTEX
  8
0
 10
12.8413046475814
 20
49.9035981752215
 42
0.0
  0
VERTEX
  8
0
 10
13.0158829869657
 20
51.6613621603736
 42
0.0
  0
VERTEX
  8
0
 10
13.261372860317
 20
54.1228172703031
 42
0.0
  0
VERTEX
  8
0
 10
13.34219322677
 20
55.1516051899689
 42
0.0
  0
VERTEX
  8
0
 10
13.494585070916
 20
57.0869491940338
 42
0.0
  0
VERTEX
  8
0
 10
13.5990763221612
 20
58.4104871414404
 42
0.0
  0
VERTEX
  8
0
 10
13.8389155483151
 20
62.5312231826308
 42
0.0
  0
VERTEX
  8
0
 10
13.8509169443021
 20
62.7308827704155
 42
0.0
  0
VERTEX
  8
0
 10
14.0139472361388
 20
67.0405862466022
 42
0.0
  0
VERTEX
  8
0
 10
14.0866910332222
 20
71.2972997251556
 42
0.0
  0
VERTEX
  8
0
 10
14.072111308704
 20
74.9028122804732
 42
0.0
  0
VERTEX
  8
0
 10
14.0699568149999
 20
75.4612538553017
 42
0.0
  0
VERTEX
  8
0
 10
14.0248155029421
 20
77.1713731934701
 42
0.0
  0
VERTEX
  8
0
 10
13.9630410930717
 20
79.4923614101462
 42
0.0
  0
VERTEX
  8
0
 10
13.7657024364117
 20
83.349352199151
 42
0.0
  0
VERTEX
  8
0
 10
13.4810155828349
 20
86.9985231284614
 42
0.0
  0
VERTEX
  8
0
 10
13.1117852931771
 20
90.4019753329672
 42
0.0
  0
VERTEX
  8
0
 10
12.8772178755569
 20
92.0252898149845
 42
0.0
  0
VERTEX
  8
0
 10
12.6610679197243
 20
93.5295434816623
 42
0.0
  0
VERTEX
  8
0
 10
12.61873572297
 20
93.7587007154515
 42
0.0
  0
VERTEX
  8
0
 10
12.5067784954508
 20
94.3525155642977
 42
0.0
  0
VERTEX
  8
0
 10
12.3430152016017
 20
95.4720167165221
 42
0.0
  0
VERTEX
  8
0
 10
12.1013287136104
 20
97.1247277241342
 42
0.0
  0
VERTEX
  8
0
 10
11.9408399792468
 20
98.2176937196759
 42
0.0
  0
VERTEX
  8
0
 10
11.8923370183554
 20
98.5464260110146
 42
0.0
  0
VERTEX
  8
0
 10
11.7117606420411
 20
99.7850692619699
 42
0.0
  0
VERTEX
  8
0
 10
11.5628625322398
 20
100.79530231221
 42
0.0
  0
VERTEX
  8
0
 10
11.5554188121325
 20
100.848568576609
 42
0.0
  0
VERTEX
  8
0
 10
11.4446934150581
 20
101.605386622827
 42
0.0
  0
VERTEX
  8
0
 10
11.4432738586853
 20
101.604832153978
 42
0.0
  0
VERTEX
  8
0
 10
11.4263243362415
 20
101.602847484503
 42
0.0
  0
VERTEX
  8
0
 10
11.4181989000711
 20
101.601309873681
 42
0.0
  0
VERTEX
  8
0
 10
10.6486546809577
 20
102.083073148214
 42
0.0
  0
VERTEX
  8
0
 10
10.4317828511959
 20
102.217332990102
 42
0.0
  0
VERTEX
  8
0
 10
7.9266654966359
 20
103.786575631252
 42
0.0
  0
VERTEX
  8
0
 10
7.8913401217596
 20
112.471797939244
 42
0.0
  0
VERTEX
  8
0
 10
7.8895862390564
 20
112.812790959295
 42
0.0
  0
VERTEX
  8
0
 10
4.3230122988986
 20
123.636952813837
 42
0.0
  0
VERTEX
  8
0
 10
10.3270711187513
 20
128.03707327365
 42
0.0
  0
VERTEX
  8
0
 10
11.7617445572956
 20
129.087194406475
 42
0.0
  0
VERTEX
  8
0
 10
12.328970641127
 20
129.502357456832
 42
0.0
  0
VERTEX
  8
0
 10
13.8056759633238
 20
130.584984543658
 42
0.0
  0
VERTEX
  8
0
 10
15.4381975795969
 20
129.408988192691
 42
0.0
  0
VERTEX
  8
0
 10
16.4385059761195
 20
128.688770751318
 42
0.0
  0
VERTEX
  8
0
 10
19.0813990179302
 20
126.785852675819
 42
0.0
  0
VERTEX
  8
0
 10
20.3786879455453
 20
127.611882368698
 42
0.0
  0
VERTEX
  8
0
 10
21.6179057926657
 20
126.836911709075
 42
0.0
  0
VERTEX
  8
0
 10
24.4967416831997
 20
128.946859453584
 42
0.0
  0
VERTEX
  8
0
 10
25.8712571869387
 20
129.954122466759
 42
0.0
  0
VERTEX
  8
0
 10
26.7211329593479
 20
130.577308827204
 42
0.0
  0
SEQEND
  0
POLYLINE
  8
0
 66
     1
 10
0.0
 20
0.0
 30
0.0
 70
     1
  0
VERTEX
  8
0
 10
27.4287749407812
 20
122.231859417497
 42
0.0
  0
VERTEX
  8
0
 10
27.1202969223459
 20
122.127731328833
 42
0.0
  0
VERTEX
  8
0
 10
27.0820730204356
 20
122.108165642375
 42
0.0
  0
VERTEX
  8
0
 10
26.8063693847242
 20
121.977026550507
 42
0.0
  0
VERTEX
  8
0
 10
26.4967274171526
 20
121.784910980729
 42
0.0
  0
VERTEX
  8
0
 10
26.1972304393491
 20
121.555582084158
 42
0.0
  0
VERTEX
  8
0
 10
25.9167130850747
 20
121.29658092744
 42
0.0
  0
VERTEX
  8
0
 10
25.4571097919114
 20
120.833194860062
 42
0.0
  0
VERTEX
  8
0
 10
25.2558316969766
 20
120.628867863819
 42
0.0
  0
VERTEX
  8
0
 10
25.0003123240094
 20
120.34363592769
 42
0.0
  0
VERTEX
  8
0
 10
24.7751721347806
 20
120.04136496062
 42
0.0
  0
VERTEX
  8
0
 10
24.5862972564081
 20
119.729535115094
 42
0.0
  0
VERTEX
  8
0
 10
24.4387131797195
 20
119.414199633013
 42
0.0
  0
VERTEX
  8
0
 10
24.3377774478732
 20
119.104541021699
 42
0.0
  0
VERTEX
  8
0
 10
24.2822252332382
 20
118.8074278245
 42
0.0
  0
VERTEX
  8
0
 10
24.2779899814779
 20
118.530358676194
 42
0.0
  0
VERTEX
  8
0
 10
24.2883221165783
 20
118.469767278351
 42
0.0
  0
VERTEX
  8
0
 10
24.3225314898427
 20
118.279976655484
 42
0.0
  0
VERTEX
  8
0
 10
24.4141465325999
 20
118.064342510507
 42
0.0
  0
VERTEX
  8
0
 10
24.5523967116484
 20
117.884648446054
 42
0.0
  0
VERTEX
  8
0
 10
24.9422962549529
 20
117.500017808304
 42
0.0
  0
VERTEX
  8
0
 10
25.1211598257065
 20
117.364001229118
 42
0.0
  0
VERTEX
  8
0
 10
25.3381814975298
 20
117.274248059855
 42
0.0
  0
VERTEX
  8
0
 10
25.5894198968291
 20
117.23330914752
 42
0.0
  0
VERTEX
  8
0
 10
25.866845047036
 20
117.242683735239
 42
0.0
  0
VERTEX
  8
0
 10
26.1628600959397
 20
117.299131857351
 42
0.0
  0
VERTEX
  8
0
 10
26.4720612462614
 20
117.405178524351
 42
0.0
  0
VERTEX
  8
0
 10
26.6812703745885
 20
117.505982315835
 42
0.0
  0
VERTEX
  8
0
 10
26.7848272538954
 20
117.555156929132
 42
0.0
  0
VERTEX
  8
0
 10
27.0956307514547
 20
117.747998872456
 42
0.0
  0
VERTEX
  8
0
 10
27.3938501285228
 20
117.976828747062
 42
0.0
  0
VERTEX
  8
0
 10
27.6757848135533
 20
118.236110815311
 42
0.0
  0
VERTEX
  8
0
 10
28.3339712701598
 20
118.903043945437
 42
0.0
  0
VERTEX
  8
0
 10
28.3352488708952
 20
118.903542967401
 42
0.0
  0
VERTEX
  8
0
 10
28.592600313447
 20
119.187854369122
 42
0.0
  0
VERTEX
  8
0
 10
28.8173021045745
 20
119.491317540983
 42
0.0
  0
VERTEX
  8
0
 10
29.006108230745
 20
119.803393220386
 42
0.0
  0
VERTEX
  8
0
 10
29.151997742253
 20
120.119157569123
 42
0.0
  0
VERTEX
  8
0
 10
29.2468798451353
 20
120.406545450446
 42
0.0
  0
VERTEX
  8
0
 10
29.254604380007
 20
120.428378072633
 42
0.0
  0
VERTEX
  8
0
 10
29.3089026531795
 20
120.725001489016
 42
0.0
  0
VERTEX
  8
0
 10
29.3109688479613
 20
120.848518134081
 42
0.0
  0
VERTEX
  8
0
 10
29.3140222005029
 20
121.003506789053
 42
0.0
  0
VERTEX
  8
0
 10
29.2700588202601
 20
121.252478494538
 42
0.0
  0
VERTEX
  8
0
 10
29.177841990108
 20
121.469513713593
 42
0.0
  0
VERTEX
  8
0
 10
29.0400087755047
 20
121.648279889426
 42
0.0
  0
VERTEX
  8
0
 10
28.6506400417764
 20
122.031481729655
 42
0.0
  0
VERTEX
  8
0
 10
28.4713144136486
 20
122.168681272486
 42
0.0
  0
VERTEX
  8
0
 10
28.2529914818169
 20
122.257926178636
 42
0.0
  0
VERTEX
  8
0
 10
28.0017530825176
 20
122.298865090971
 42
0.0
  0
VERTEX
  8
0
 10
27.7256528515919
 20
122.290008007512
 42
0.0
  0
SEQEND
  0
POLYLINE
  8
0
 66
     1
 10
0.0
 20
0.0
 30
0.0
 70
     1
  0
VERTEX
  8
0
 10
27.0429450343268
 20
104.758651209401
 42
0.0
  0
VERTEX
  8
0
 10
27.0447320109823
 20
104.757985750016
 42
0.0
  0
VERTEX
  8
0
 10
27.2391024207468
 20
104.695925348403
 42
0.0
  0
VERTEX
  8
0
 10
27.2664609588321
 20
104.690250122657
 42
0.0
  0
VERTEX
  8
0
 10
27.2901553577482
 20
104.686415965727
 42
0.0
  0
VERTEX
  8
0
 10
27.5353968329258
 20
104.641771256485
 42
0.0
  0
VERTEX
  8
0
 10
27.8136097546685
 20
104.637819141872
 42
0.0
  0
VERTEX
  8
0
 10
28.0618472485669
 20
104.680241379335
 42
0.0
  0
VERTEX
  8
0
 10
28.2619907628288
 20
104.76250636454
 42
0.0
  0
VERTEX
  8
0
 10
28.2799718102169
 20
104.769529636628
 42
0.0
  0
VERTEX
  8
0
 10
28.4588606852645
 20
104.906210949455
 42
0.0
  0
VERTEX
  8
0
 10
28.8434005565598
 20
105.289012420598
 42
0.0
  0
VERTEX
  8
0
 10
28.9784903115515
 20
105.465850583414
 42
0.0
  0
VERTEX
  8
0
 10
29.0688493323784
 20
105.681390962194
 42
0.0
  0
VERTEX
  8
0
 10
29.0777319136639
 20
105.738307286317
 42
0.0
  0
VERTEX
  8
0
 10
29.1091459607717
 20
105.926733848079
 42
0.0
  0
VERTEX
  8
0
 10
29.1019966510437
 20
106.198810889807
 42
0.0
  0
VERTEX
  8
0
 10
29.0432312749134
 20
106.489448752066
 42
0.0
  0
VERTEX
  8
0
 10
28.9396161425093
 20
106.792564292279
 42
0.0
  0
VERTEX
  8
0
 10
28.8143863532027
 20
107.044970656502
 42
0.0
  0
VERTEX
  8
0
 10
28.7879127396593
 20
107.101438809163
 42
0.0
  0
VERTEX
  8
0
 10
28.5966668537869
 20
107.405503139441
 42
0.0
  0
VERTEX
  8
0
 10
28.3674258206917
 20
107.700725965575
 42
0.0
  0
VERTEX
  8
0
 10
28.2720886759659
 20
107.800922695921
 42
0.0
  0
VERTEX
  8
0
 10
28.2609242086133
 20
107.81428665314
 42
0.0
  0
VERTEX
  8
0
 10
28.1074127341325
 20
107.97629417735
 42
0.0
  0
VERTEX
  8
0
 10
27.4414596978524
 20
108.624501307482
 42
0.0
  0
VERTEX
  8
0
 10
27.1550543295242
 20
108.876671853103
 42
0.0
  0
VERTEX
  8
0
 10
26.8540830258247
 20
109.098065748878
 42
0.0
  0
VERTEX
  8
0
 10
26.5424560017138
 20
109.282302345341
 42
0.0
  0
VERTEX
  8
0
 10
26.2269707259538
 20
109.427128302377
 42
0.0
  0
VERTEX
  8
0
 10
25.9161590516723
 20
109.526059334198
 42
0.0
  0
VERTEX
  8
0
 10
25.6197249094728
 20
109.58043153655
 42
0.0
  0
VERTEX
  8
0
 10
25.3769605940338
 20
109.584595229896
 42
0.0
  0
VERTEX
  8
0
 10
25.3427895884655
 20
109.584882673128
 42
0.0
  0
VERTEX
  8
0
 10
25.0919968930962
 20
109.541462391736
 42
0.0
  0
VERTEX
  8
0
 10
24.8757044010307
 20
109.451253600034
 42
0.0
  0
VERTEX
  8
0
 10
24.6981404452644
 20
109.315089791467
 42
0.0
  0
VERTEX
  8
0
 10
24.3117211858387
 20
108.933190372437
 42
0.0
  0
VERTEX
  8
0
 10
24.208277958131
 20
108.796527299991
 42
0.0
  0
VERTEX
  8
0
 10
24.176631430847
 20
108.756352209621
 42
0.0
  0
VERTEX
  8
0
 10
24.0876424222304
 20
108.541074260077
 42
0.0
  0
VERTEX
  8
0
 10
24.0459757816268
 20
108.295468944956
 42
0.0
  0
VERTEX
  8
0
 10
24.0532175028297
 20
108.0231553105
 42
0.0
  0
VERTEX
  8
0
 10
24.1120065382329
 20
107.732526689388
 42
0.0
  0
VERTEX
  8
0
 10
24.2107764547598
 20
107.445516050091
 42
0.0
  0
VERTEX
  8
0
 10
24.2173376694738
 20
107.428717966347
 42
0.0
  0
VERTEX
  8
0
 10
24.3672090027392
 20
107.120763983872
 42
0.0
  0
VERTEX
  8
0
 10
24.5590093574607
 20
106.815280097222
 42
0.0
  0
VERTEX
  8
0
 10
24.7876959217069
 20
106.52147682746
 42
0.0
  0
VERTEX
  8
0
 10
25.0478250790138
 20
106.245681264103
 42
0.0
  0
VERTEX
  8
0
 10
25.1409281884309
 20
106.154974079416
 42
0.0
  0
VERTEX
  8
0
 10
25.3011360596471
 20
105.998581689303
 42
0.0
  0
VERTEX
  8
0
 10
25.5412442467374
 20
105.76650410776
 42
0.0
  0
VERTEX
  8
0
 10
25.7151244682313
 20
105.59772732206
 42
0.0
  0
VERTEX
  8
0
 10
25.9987661528659
 20
105.345022676821
 42
0.0
  0
VERTEX
  8
0
 10
26.3010387165739
 20
105.124137044157
 42
0.0
  0
VERTEX
  8
0
 10
26.6144978102692
 20
104.938979913286
 42
0.0
  0
VERTEX
  8
0
 10
26.9299830860293
 20
104.794153956249
 42
0.0
  0
SEQEND
  0
POLYLINE
  8
0
 66
     1
 10
0.0
 20
0.0
 30
0.0
 70
     1
  0
VERTEX
  8
0
 10
24.2881188597166
 20
113.618295531397
 42
0.0
  0
VERTEX
  8
0
 10
24.2322866528276
 20
114.049149953417
 42
0.0
  0
VERTEX
  8
0
 10
24.2166005549087
 20
114.176367508709
 42
0.0
  0
VERTEX
  8
0
 10
24.0669375587169
 20
114.718641865354
 42
0.0
  0
VERTEX
  8
0
 10
23.8458435889802
 20
115.235469972464
 42
0.0
  0
VERTEX
  8
0
 10
23.5530662317381
 20
115.716118406577
 42
0.0
  0
VERTEX
  8
0
 10
23.1959897444264
 20
116.149291630871
 42
0.0
  0
VERTEX
  8
0
 10
22.7836133112911
 20
116.530869399908
 42
0.0
  0
VERTEX
  8
0
 10
22.3197021435279
 20
116.851142170661
 42
0.0
  0
VERTEX
  8
0
 10
21.817267776795
 20
117.10346657413
 42
0.0
  0
VERTEX
  8
0
 10
21.285494218288
 20
117.28324917942
 42
0.0
  0
VERTEX
  8
0
 10
20.8626129228454
 20
117.362130453156
 42
0.0
  0
VERTEX
  8
0
 10
20.731754839274
 20
117.386552773873
 42
0.0
  0
VERTEX
  8
0
 10
20.1710006551919
 20
117.413217983982
 42
0.0
  0
VERTEX
  8
0
 10
20.1223827363611
 20
117.408953315376
 42
0.0
  0
VERTEX
  8
0
 10
19.6111670055183
 20
117.361708602031
 42
0.0
  0
VERTEX
  8
0
 10
19.0632323734648
 20
117.230586299055
 42
0.0
  0
VERTEX
  8
0
 10
18.5408356282933
 20
117.026541762597
 42
0.0
  0
VERTEX
  8
0
 10
18.0490398543998
 20
116.75155259822
 42
0.0
  0
VERTEX
  8
0
 10
17.6671789482156
 20
116.460329930989
 42
0.0
  0
VERTEX
  8
0
 10
17.602526332159
 20
116.409989771918
 42
0.0
  0
VERTEX
  8
0
 10
17.2070200250118
 20
116.009815862781
 42
0.0
  0
VERTEX
  8
0
 10
16.8711944030428
 20
115.559054364058
 42
0.0
  0
VERTEX
  8
0
 10
16.6248552633994
 20
115.106432782011
 42
0.0
  0
VERTEX
  8
0
 10
16.6020069374993
 20
115.066421951828
 42
0.0
  0
VERTEX
  8
0
 10
16.4036063230061
 20
114.540356277574
 42
0.0
  0
VERTEX
  8
0
 10
16.2809094790038
 20
113.99095849609
 42
0.0
  0
VERTEX
  8
0
 10
16.2350531150158
 20
113.430398182573
 42
0.0
  0
VERTEX
  8
0
 10
16.2673587635154
 20
112.87037172676
 42
0.0
  0
VERTEX
  8
0
 10
16.3778887417695
 20
112.318538733574
 42
0.0
  0
VERTEX
  8
0
 10
16.5630442760028
 20
111.787673323435
 42
0.0
  0
VERTEX
  8
0
 10
16.8218001794404
 20
111.288009897841
 42
0.0
  0
VERTEX
  8
0
 10
16.8965398224656
 20
111.183858246671
 42
0.0
  0
VERTEX
  8
0
 10
17.1474900527889
 20
110.829215567955
 42
0.0
  0
VERTEX
  8
0
 10
17.5333979525927
 20
110.420665405325
 42
0.0
  0
VERTEX
  8
0
 10
17.9722267591471
 20
110.069871350048
 42
0.0
  0
VERTEX
  8
0
 10
18.4557691722946
 20
109.782626392022
 42
0.0
  0
VERTEX
  8
0
 10
18.7526294717038
 20
109.658885201588
 42
0.0
  0
VERTEX
  8
0
 10
18.9756330689278
 20
109.565196706603
 42
0.0
  0
VERTEX
  8
0
 10
19.5190176212279
 20
109.424035275799
 42
0.0
  0
VERTEX
  8
0
 10
20.0772835658712
 20
109.3582218555
 42
0.0
  0
VERTEX
  8
0
 10
20.6391323179091
 20
109.370433185198
 42
0.0
  0
VERTEX
  8
0
 10
21.1939099471003
 20
109.46141629797
 42
0.0
  0
VERTEX
  8
0
 10
21.7304456479231
 20
109.629262146922
 42
0.0
  0
VERTEX
  8
0
 10
22.2400283567246
 20
109.870022875144
 42
0.0
  0
VERTEX
  8
0
 10
22.709578946836
 20
110.179135242714
 42
0.0
  0
VERTEX
  8
0
 10
22.8854858342243
 20
110.334830724511
 42
0.0
  0
VERTEX
  8
0
 10
23.1322635171179
 20
110.551475783287
 42
0.0
  0
VERTEX
  8
0
 10
23.4005092565115
 20
110.864584342357
 42
0.0
  0
VERTEX
  8
0
 10
23.4968511703986
 20
110.977749402367
 42
0.0
  0
VERTEX
  8
0
 10
23.8019591213633
 20
111.450326105407
 42
0.0
  0
VERTEX
  8
0
 10
24.0355484288393
 20
111.962049373617
 42
0.0
  0
VERTEX
  8
0
 10
24.1976912318366
 20
112.501494487643
 42
0.0
  0
VERTEX
  8
0
 10
24.282584089735
 20
113.056850583637
 42
0.0
  0
SEQEND
  0
POLYLINE
  8
0
 66
     1
 10
0.0
 20
0.0
 30
0.0
 70
     1
  0
VERTEX
  8
0
 10
11.3935251814364
 20
120.897983480651
 42
0.0
  0
VERTEX
  8
0
 10
11.3971711769914
 20
120.775061849365
 42
0.0
  0
VERTEX
  8
0
 10
11.402198167691
 20
120.621865880238
 42
0.0
  0
VERTEX
  8
0
 10
11.4606757619091
 20
120.324843788174
 42
0.0
  0
VERTEX
  8
0
 10
11.5418454534136
 20
120.086314289048
 42
0.0
  0
VERTEX
  8
0
 10
11.5651365318825
 20
120.015514035915
 42
0.0
  0
VERTEX
  8
0
 10
11.6547214735545
 20
119.83153682056
 42
0.0
  0
VERTEX
  8
0
 10
11.7154624231617
 20
119.702556528481
 42
0.0
  0
VERTEX
  8
0
 10
11.9072767121788
 20
119.392987764345
 42
0.0
  0
VERTEX
  8
0
 10
12.1367897059548
 20
119.093508156028
 42
0.0
  0
VERTEX
  8
0
 10
12.395095454229
 20
118.811001245598
 42
0.0
  0
VERTEX
  8
0
 10
12.8235514839873
 20
118.388256341751
 42
0.0
  0
VERTEX
  8
0
 10
13.063720923919
 20
118.152112365017
 42
0.0
  0
VERTEX
  8
0
 10
13.3477484143654
 20
117.894650028695
 42
0.0
  0
VERTEX
  8
0
 10
13.651407150196
 20
117.6702155051
 42
0.0
  0
VERTEX
  8
0
 10
13.9633275686437
 20
117.481457810284
 42
0.0
  0
VERTEX
  8
0
 10
14.2779736417696
 20
117.334940626491
 42
0.0
  0
VERTEX
  8
0
 10
14.5885479008118
 20
117.232917293837
 42
0.0
  0
VERTEX
  8
0
 10
14.8844963263642
 20
117.179718813981
 42
0.0
  0
VERTEX
  8
0
 10
15.161777633998
 20
117.174312065341
 42
0.0
  0
VERTEX
  8
0
 10
15.4127788115899
 20
117.217268402423
 42
0.0
  0
VERTEX
  8
0
 10
15.6284007640586
 20
117.309124102079
 42
0.0
  0
VERTEX
  8
0
 10
15.7329921196711
 20
117.389789207577
 42
0.0
  0
VERTEX
  8
0
 10
15.8081975939422
 20
117.447250807785
 42
0.0
  0
VERTEX
  8
0
 10
16.1929136276354
 20
117.837210974952
 42
0.0
  0
VERTEX
  8
0
 10
16.3281957049374
 20
118.017396513626
 42
0.0
  0
VERTEX
  8
0
 10
16.4161681873307
 20
118.235276983187
 42
0.0
  0
VERTEX
  8
0
 10
16.4589114458077
 20
118.485665825896
 42
0.0
  0
VERTEX
  8
0
 10
16.4501911410073
 20
118.761764944013
 42
0.0
  0
VERTEX
  8
0
 10
16.3919242546285
 20
119.058596649087
 42
0.0
  0
VERTEX
  8
0
 10
16.2876934005339
 20
119.367198140864
 42
0.0
  0
VERTEX
  8
0
 10
16.1369742040824
 20
119.681092778066
 42
0.0
  0
VERTEX
  8
0
 10
16.1365121467082
 20
119.68227574171
 42
0.0
  0
VERTEX
  8
0
 10
15.944972866499
 20
119.990861170341
 42
0.0
  0
VERTEX
  8
0
 10
15.7156232620165
 20
120.290131909371
 42
0.0
  0
VERTEX
  8
0
 10
15.4560635722797
 20
120.572149038985
 42
0.0
  0
VERTEX
  8
0
 10
15.234270807291
 20
120.791474272446
 42
0.0
  0
VERTEX
  8
0
 10
14.7888081148
 20
121.231300348801
 42
0.0
  0
VERTEX
  8
0
 10
14.5034106121433
 20
121.488500255887
 42
0.0
  0
VERTEX
  8
0
 10
14.201053136321
 20
121.713443042594
 42
0.0
  0
VERTEX
  8
0
 10
13.9957488040613
 20
121.837495916128
 42
0.0
  0
VERTEX
  8
0
 10
13.8890403063985
 20
121.902437330139
 42
0.0
  0
VERTEX
  8
0
 10
13.5731166325371
 20
122.048455491967
 42
0.0
  0
VERTEX
  8
0
 10
13.2638887264324
 20
122.150732012709
 42
0.0
  0
VERTEX
  8
0
 10
12.9673858320309
 20
122.205350048938
 42
0.0
  0
VERTEX
  8
0
 10
12.6893577332378
 20
122.208828978094
 42
0.0
  0
VERTEX
  8
0
 10
12.4402122845033
 20
122.164961347751
 42
0.0
  0
VERTEX
  8
0
 10
12.2231966605514
 20
122.072833977712
 42
0.0
  0
VERTEX
  8
0
 10
12.044215374029
 20
121.936389257614
 42
0.0
  0
VERTEX
  8
0
 10
11.8401210031112
 20
121.727962675462
 42
0.0
  0
VERTEX
  8
0
 10
11.6745232205289
 20
121.561023329857
 42
0.0
  0
VERTEX
  8
0
 10
11.6595229996087
 20
121.546438331594
 42
0.0
  0
VERTEX
  8
0
 10
11.5242645815796
 20
121.366262034068
 42
0.0
  0
VERTEX
  8
0
 10
11.4344363703289
 20
121.149292857769
 42
0.0
  0
SEQEND
  0
POLYLINE
  8
0
 66
     1
 10
0.0
 20
0.0
 30
0.0
 70
     1
  0
VERTEX
  8
0
 10
12.2726968428606
 20
104.697127665236
 42
0.0
  0
VERTEX
  8
0
 10
12.2741163992334
 20
104.697682134085
 42
0.0
  0
VERTEX
  8
0
 10
12.3965528944681
 20
104.603434525486
 42
0.0
  0
VERTEX
  8
0
 10
12.4235312391663
 20
104.591611662662
 42
0.0
  0
VERTEX
  8
0
 10
12.6111376611848
 20
104.512729518032
 42
0.0
  0
VERTEX
  8
0
 10
12.85740843569
 20
104.472849854084
 42
0.0
  0
VERTEX
  8
0
 10
13.1297682758841
 20
104.479973278923
 42
0.0
  0
VERTEX
  8
0
 10
13.4204246204381
 20
104.538691336507
 42
0.0
  0
VERTEX
  8
0
 10
13.7244680492722
 20
104.642723433356
 42
0.0
  0
VERTEX
  8
0
 10
13.8473191865694
 20
104.703797257805
 42
0.0
  0
VERTEX
  8
0
 10
13.8485021502134
 20
104.704259315179
 42
0.0
  0
VERTEX
  8
0
 10
14.0309673977204
 20
104.793526380731
 42
0.0
  0
VERTEX
  8
0
 10
14.3364328020757
 20
104.985374053998
 42
0.0
  0
VERTEX
  8
0
 10
14.6303100010174
 20
105.213871344061
 42
0.0
  0
VERTEX
  8
0
 10
14.9071868753955
 20
105.474722810744
 42
0.0
  0
VERTEX
  8
0
 10
15.5566416572035
 20
106.140972289488
 42
0.0
  0
VERTEX
  8
0
 10
15.6756613470175
 20
106.276084155498
 42
0.0
  0
VERTEX
  8
0
 10
15.7204189821142
 20
106.32765217761
 42
0.0
  0
VERTEX
  8
0
 10
15.8081005377022
 20
106.425708977525
 42
0.0
  0
VERTEX
  8
0
 10
16.0288512302588
 20
106.727628877757
 42
0.0
  0
VERTEX
  8
0
 10
16.2146423232008
 20
107.040163034193
 42
0.0
  0
VERTEX
  8
0
 10
16.3577659253986
 20
107.355119725994
 42
0.0
  0
VERTEX
  8
0
 10
16.4227007109428
 20
107.556093879104
 42
0.0
  0
VERTEX
  8
0
 10
16.4567986098417
 20
107.665671148273
 42
0.0
  0
VERTEX
  8
0
 10
16.5111678608329
 20
107.962322288098
 42
0.0
  0
VERTEX
  8
0
 10
16.5155879355428
 20
108.238918250946
 42
0.0
  0
VERTEX
  8
0
 10
16.4723240279135
 20
108.489799293621
 42
0.0
  0
VERTEX
  8
0
 10
16.3818941744169
 20
108.706169053291
 42
0.0
  0
VERTEX
  8
0
 10
16.3360210215379
 20
108.766785465131
 42
0.0
  0
VERTEX
  8
0
 10
16.2459617816001
 20
108.883768860839
 42
0.0
  0
VERTEX
  8
0
 10
15.8641662408098
 20
109.270201425582
 42
0.0
  0
VERTEX
  8
0
 10
15.6858807981781
 20
109.404807689543
 42
0.0
  0
VERTEX
  8
0
 10
15.4719946815644
 20
109.494422144827
 42
0.0
  0
VERTEX
  8
0
 10
15.2264448133289
 20
109.535946829794
 42
0.0
  0
VERTEX
  8
0
 10
14.9540849731348
 20
109.528823404955
 42
0.0
  0
VERTEX
  8
0
 10
14.663192035852
 20
109.470012935896
 42
0.0
  0
VERTEX
  8
0
 10
14.4562919364387
 20
109.397925211901
 42
0.0
  0
VERTEX
  8
0
 10
14.3596106643922
 20
109.364797875403
 42
0.0
  0
VERTEX
  8
0
 10
14.0514662949258
 20
109.214715834298
 42
0.0
  0
VERTEX
  8
0
 10
13.7465553594195
 20
109.021448604658
 42
0.0
  0
VERTEX
  8
0
 10
13.4522161031036
 20
108.794134278239
 42
0.0
  0
VERTEX
  8
0
 10
13.1766663736234
 20
108.534073873134
 42
0.0
  0
VERTEX
  8
0
 10
12.7619822179144
 20
108.107321069108
 42
0.0
  0
VERTEX
  8
0
 10
12.5284869669343
 20
107.868049859035
 42
0.0
  0
VERTEX
  8
0
 10
12.2757527113168
 20
107.583087706353
 42
0.0
  0
VERTEX
  8
0
 10
12.0550944302349
 20
107.280931213392
 42
0.0
  0
VERTEX
  8
0
 10
11.8710925395651
 20
106.96800515489
 42
0.0
  0
VERTEX
  8
0
 10
11.7265493809945
 20
106.65249399424
 42
0.0
  0
VERTEX
  8
0
 10
11.6268180464484
 20
106.34303312413
 42
0.0
  0
VERTEX
  8
0
 10
11.5725197732759
 20
106.046409707747
 42
0.0
  0
VERTEX
  8
0
 10
11.5683791586072
 20
105.769377524032
 42
0.0
  0
VERTEX
  8
0
 10
11.5862721489879
 20
105.667018510324
 42
0.0
  0
VERTEX
  8
0
 10
11.611479676943
 20
105.518705350643
 42
0.0
  0
VERTEX
  8
0
 10
11.7019805082583
 20
105.302363314415
 42
0.0
  0
VERTEX
  8
0
 10
11.8371683355324
 20
105.123109244702
 42
0.0
  0
VERTEX
  8
0
 10
12.0610392458968
 20
104.898323896183
 42
0.0
  0
VERTEX
  8
0
 10
12.2196870082091
 20
104.738595258296
 42
0.0
  0
SEQEND
  0
POLYLINE
  8
0
 66
     1
 10
0.0
 20
0.0
 30
0.0
 70
     1
  0
VERTEX
  8
0
 10
31.2222143585351
 20
29.1574565364143
 42
0.0
  0
VERTEX
  8
0
 10
31.0303901510089
 20
29.0425825414809
 42
0.0
  0
VERTEX
  8
0
 10
30.8516166209645
 20
28.906164432017
 42
0.0
  0
VERTEX
  8
0
 10
30.6891968254575
 20
28.7495196279433
 42
0.0
  0
VERTEX
  8
0
 10
30.5463913896779
 20
28.5768667372778
 42
0.0
  0
VERTEX
  8
0
 10
30.5380383116283
 20
28.5647417227995
 42
0.0
  0
VERTEX
  8
0
 10
30.4231744771189
 20
28.3896681837058
 42
0.0
  0
VERTEX
  8
0
 10
30.3204573810418
 20
28.1897796960847
 42
0.0
  0
VERTEX
  8
0
 10
30.2429811971699
 20
27.9790258446385
 42
0.0
  0
VERTEX
  8
0
 10
30.1878108209429
 20
27.7607322812704
 42
0.0
  0
VERTEX
  8
0
 10
30.1582511963523
 20
27.5376078717674
 42
0.0
  0
VERTEX
  8
0
 10
30.1534965533971
 20
27.3138099713065
 42
0.0
  0
VERTEX
  8
0
 10
30.1747206145737
 20
27.0898242965346
 42
0.0
  0
VERTEX
  8
0
 10
30.218735087234
 20
26.8703228522924
 42
0.0
  0
VERTEX
  8
0
 10
30.2902810671013
 20
26.6571302088038
 42
0.0
  0
VERTEX
  8
0
 10
30.3821740216447
 20
26.4518849521518
 42
0.0
  0
VERTEX
  8
0
 10
30.4540479412903
 20
26.3334976761533
 42
0.0
  0
VERTEX
  8
0
 10
30.4985951104627
 20
26.2606377599392
 42
0.0
  0
VERTEX
  8
0
 10
30.6348032378319
 20
26.081564061942
 42
0.0
  0
VERTEX
  8
0
 10
30.7899667972448
 20
25.920283637022
 42
0.0
  0
VERTEX
  8
0
 10
30.9629305484997
 20
25.7762634499863
 42
0.0
  0
VERTEX
  8
0
 10
31.1514506829279
 20
25.6531537057084
 42
0.0
  0
VERTEX
  8
0
 10
31.3507621552354
 20
25.5519837035159
 42
0.0
  0
VERTEX
  8
0
 10
31.5622752806474
 20
25.4733315715309
 42
0.0
  0
VERTEX
  8
0
 10
31.7797518975481
 20
25.4192055417356
 42
0.0
  0
VERTEX
  8
0
 10
31.8727480805991
 20
25.4052182666988
 42
0.0
  0
VERTEX
  8
0
 10
32.002271471529
 20
25.3877735445455
 42
0.0
  0
VERTEX
  8
0
 10
32.2273554881284
 20
25.3839848192258
 42
0.0
  0
VERTEX
  8
0
 10
32.451262782487
 20
25.4048510399479
 42
0.0
  0
VERTEX
  8
0
 10
32.6701635521428
 20
25.4504033653454
 42
0.0
  0
VERTEX
  8
0
 10
32.8826474818704
 20
25.5200636672962
 42
0.0
  0
VERTEX
  8
0
 10
33.0875131257309
 20
25.6134172069718
 42
0.0
  0
VERTEX
  8
0
 10
33.2807568896299
 20
25.7288456707542
 42
0.0
  0
VERTEX
  8
0
 10
33.4595304196743
 20
25.8652637802181
 42
0.0
  0
VERTEX
  8
0
 10
33.6210389219202
 20
26.0200528554345
 42
0.0
  0
VERTEX
  8
0
 10
33.7633711722423
 20
26.1925209231502
 42
0.0
  0
VERTEX
  8
0
 10
33.7642917066509
 20
26.1943529927348
 42
0.0
  0
VERTEX
  8
0
 10
33.8879818046674
 20
26.3817363692564
 42
0.0
  0
VERTEX
  8
0
 10
33.9887710812601
 20
26.5823716480368
 42
0.0
  0
VERTEX
  8
0
 10
34.0676926580113
 20
26.7922175446469
 42
0.0
  0
VERTEX
  8
0
 10
34.1219166633232
 20
27.0101414621157
 42
0.0
  0
VERTEX
  8
0
 10
34.1514762879137
 20
27.2332658716186
 42
0.0
  0
VERTEX
  8
0
 10
34.1557762277063
 20
27.4568316305841
 42
0.0
  0
VERTEX
  8
0
 10
34.1362083156313
 20
27.6814641856799
 42
0.0
  0
VERTEX
  8
0
 10
34.1183961248124
 20
27.7647665985515
 42
0.0
  0
VERTEX
  8
0
 10
34.090528452722
 20
27.9003424088711
 42
0.0
  0
VERTEX
  8
0
 10
34.0206386219562
 20
28.1141819326837
 42
0.0
  0
VERTEX
  8
0
 10
33.9270895183112
 20
28.3187803090117
 42
0.0
  0
VERTEX
  8
0
 10
33.8123338197423
 20
28.5106507222753
 42
0.0
  0
VERTEX
  8
0
 10
33.6744695432715
 20
28.6890775399487
 42
0.0
  0
VERTEX
  8
0
 10
33.5197606870213
 20
28.8505901063641
 42
0.0
  0
VERTEX
  8
0
 10
33.3467969357664
 20
28.9946102933998
 42
0.0
  0
VERTEX
  8
0
 10
33.1592231722533
 20
29.1180896835771
 42
0.0
  0
VERTEX
  8
0
 10
32.9584663070665
 20
29.2201676406056
 42
0.0
  0
VERTEX
  8
0
 10
32.7488810011389
 20
29.2980729814314
 42
0.0
  0
VERTEX
  8
0
 10
32.5443446517799
 20
29.3483910294845
 42
0.0
  0
VERTEX
  8
0
 10
32.5309311987806
 20
29.352014188277
 42
0.0
  0
VERTEX
  8
0
 10
32.5290126204436
 20
29.3527373201634
 42
0.0
  0
VERTEX
  8
0
 10
32.3079642758487
 20
29.3817989388322
 42
0.0
  0
VERTEX
  8
0
 10
32.0837915525104
 20
29.3874433930094
 42
0.0
  0
VERTEX
  8
0
 10
31.8598842581518
 20
29.3665771722872
 42
0.0
  0
VERTEX
  8
0
 10
31.6395639321233
 20
29.3204703780407
 42
0.0
  0
VERTEX
  8
0
 10
31.4256789283179
 20
29.2502082886951
 42
0.0
  0
SEQEND
  0
POLYLINE
  8
0
 66
     1
 10
0.0
 20
0.0
 30
0.0
 70
     1
  0
VERTEX
  8
0
 10
13.7639119761824
 20
12.6318172058487
 42
0.0
  0
VERTEX
  8
0
 10
13.9778320576418
 20
12.7005932122363
 42
0.0
  0
VERTEX
  8
0
 10
14.1822079206856
 20
12.7952006933746
 42
0.0
  0
VERTEX
  8
0
 10
14.3752150918558
 20
12.9105367456821
 42
0.0
  0
VERTEX
  8
0
 10
14.5528148994037
 20
13.0464691384989
 42
0.0
  0
VERTEX
  8
0
 10
14.7157337168749
 20
13.2018363418372
 42
0.0
  0
VERTEX
  8
0
 10
14.8583025599258
 20
13.3743968210278
 42
0.0
  0
VERTEX
  8
0
 10
14.9812478021019
 20
13.562989046083
 42
0.0
  0
VERTEX
  8
0
 10
15.065110634928
 20
13.7273717871114
 42
0.0
  0
VERTEX
  8
0
 10
15.0825545829537
 20
13.7622994055822
 42
0.0
  0
VERTEX
  8
0
 10
15.1614503231984
 20
13.9736077258774
 42
0.0
  0
VERTEX
  8
0
 10
15.217110480242
 20
14.190647347783
 42
0.0
  0
VERTEX
  8
0
 10
15.2466793459801
 20
14.413748098013
 42
0.0
  0
VERTEX
  8
0
 10
15.2506983742424
 20
14.6387311877346
 42
0.0
  0
VERTEX
  8
0
 10
15.2299918173249
 20
14.8613919432252
 42
0.0
  0
VERTEX
  8
0
 10
15.184267635614
 20
15.0817799086474
 42
0.0
  0
VERTEX
  8
0
 10
15.1139046193907
 20
15.2954346095102
 42
0.0
  0
VERTEX
  8
0
 10
15.0213277231675
 20
15.4989402080525
 42
0.0
  0
VERTEX
  8
0
 10
14.9055998171768
 20
15.6919033991019
 42
0.0
  0
VERTEX
  8
0
 10
14.8050951776032
 20
15.8242495493331
 42
0.0
  0
VERTEX
  8
0
 10
14.7693916898075
 20
15.8709770970991
 42
0.0
  0
VERTEX
  8
0
 10
14.614455481976
 20
16.0323735927669
 42
0.0
  0
VERTEX
  8
0
 10
14.4415009718686
 20
16.1763701205296
 42
0.0
  0
VERTEX
  8
0
 10
14.2529808374404
 20
16.2994798648075
 42
0.0
  0
VERTEX
  8
0
 10
14.0522405676127
 20
16.4001190574238
 42
0.0
  0
VERTEX
  8
0
 10
13.8421469985734
 20
16.479325658258
 42
0.0
  0
VERTEX
  8
0
 10
13.6244337889438
 20
16.5333592765784
 42
0.0
  0
VERTEX
  8
0
 10
13.4026498296559
 20
16.5636060845079
 42
0.0
  0
VERTEX
  8
0
 10
13.3382677711738
 20
16.5650732497242
 42
0.0
  0
VERTEX
  8
0
 10
13.177575054204
 20
16.5673711505547
 42
0.0
  0
VERTEX
  8
0
 10
12.9548507234893
 20
16.5469669872068
 42
0.0
  0
VERTEX
  8
0
 10
12.7347669901896
 20
16.5009526044351
 42
0.0
  0
VERTEX
  8
0
 10
12.5203644821251
 20
16.4320154343707
 42
0.0
  0
VERTEX
  8
0
 10
12.3164710456863
 20
16.3375691169093
 42
0.0
  0
VERTEX
  8
0
 10
12.1246468381601
 20
16.2226951219759
 42
0.0
  0
VERTEX
  8
0
 10
11.9454001226581
 20
16.0860921895623
 42
0.0
  0
VERTEX
  8
0
 10
11.7838823792648
 20
15.9313267736189
 42
0.0
  0
VERTEX
  8
0
 10
11.6401305725699
 20
15.758304237054
 42
0.0
  0
VERTEX
  8
0
 10
11.5241188520706
 20
15.5812825576281
 42
0.0
  0
VERTEX
  8
0
 10
11.5164404745534
 20
15.5709208605324
 42
0.0
  0
VERTEX
  8
0
 10
11.4147048270455
 20
15.3699159358526
 42
0.0
  0
VERTEX
  8
0
 10
11.3365022696281
 20
15.1603236143942
 42
0.0
  0
VERTEX
  8
0
 10
11.2827514497739
 20
14.9425845198751
 42
0.0
  0
VERTEX
  8
0
 10
11.2529459913071
 20
14.7193913581702
 42
0.0
  0
VERTEX
  8
0
 10
11.2472357362892
 20
14.4952474710827
 42
0.0
  0
VERTEX
  8
0
 10
11.2536017257147
 20
14.437060900436
 42
0.0
  0
VERTEX
  8
0
 10
11.2679866120082
 20
14.2710769733612
 42
0.0
  0
VERTEX
  8
0
 10
11.3155758121069
 20
14.0514992775564
 42
0.0
  0
VERTEX
  8
0
 10
11.3837836572646
 20
13.8384752971052
 42
0.0
  0
VERTEX
  8
0
 10
11.4785157245535
 20
13.6343389781513
 42
0.0
  0
VERTEX
  8
0
 10
11.5923786121563
 20
13.4405655174845
 42
0.0
  0
VERTEX
  8
0
 10
11.728542420724
 20
13.2630015617182
 42
0.0
  0
VERTEX
  8
0
 10
11.8851698553111
 20
13.1007658634163
 42
0.0
  0
VERTEX
  8
0
 10
12.0583609581473
 20
12.9568617471284
 42
0.0
  0
VERTEX
  8
0
 10
12.2449717553861
 20
12.834451475464
 42
0.0
  0
VERTEX
  8
0
 10
12.4450188423866
 20
12.7320962840109
 42
0.0
  0
VERTEX
  8
0
 10
12.4827010001693
 20
12.7187005391791
 42
0.0
  0
VERTEX
  8
0
 10
12.6555412780819
 20
12.6545842483574
 42
0.0
  0
VERTEX
  8
0
 10
12.6687366206473
 20
12.6508213595443
 42
0.0
  0
VERTEX
  8
0
 10
12.8739993435518
 20
12.5993417815034
 42
0.0
  0
VERTEX
  8
0
 10
13.0969662664838
 20
12.5695570309482
 42
0.0
  0
VERTEX
  8
0
 10
13.3206399678578
 20
12.5651901775066
 42
0.0
  0
VERTEX
  8
0
 10
13.5450112065266
 20
12.5862648804513
 42
0.0
  0
SEQEND
  0
POLYLINE
  8
0
 66
     1
 10
0.0
 20
0.0
 30
0.0
 70
     1
  0
VERTEX
  8
0
 10
19.0911831191166
 20
21.8967141974614
 42
0.0
  0
VERTEX
  8
0
 10
18.9846746850394
 20
22.2175696443353
 42
0.0
  0
VERTEX
  8
0
 10
18.8465237394647
 20
22.5230934469367
 42
0.0
  0
VERTEX
  8
0
 10
18.6726897237082
 20
22.8117619287392
 42
0.0
  0
VERTEX
  8
0
 10
18.4678082102332
 20
23.0793865759325
 42
0.0
  0
VERTEX
  8
0
 10
18.2343392312063
 20
23.3210654677973
 42
0.0
  0
VERTEX
  8
0
 10
17.9768038849813
 20
23.5370919986705
 42
0.0
  0
VERTEX
  8
0
 10
17.8599803466095
 20
23.6127804317595
 42
0.0
  0
VERTEX
  8
0
 10
17.6943610336051
 20
23.7226382737787
 42
0.0
  0
VERTEX
  8
0
 10
17.3937201372153
 20
23.8744894382225
 42
0.0
  0
VERTEX
  8
0
 10
17.078247053964
 20
23.992405851146
 42
0.0
  0
VERTEX
  8
0
 10
17.0293933649149
 20
24.0043831040304
 42
0.0
  0
VERTEX
  8
0
 10
16.7522687213417
 20
24.0736873073137
 42
0.0
  0
VERTEX
  8
0
 10
16.4184227370191
 20
24.1178642499911
 42
0.0
  0
VERTEX
  8
0
 10
16.0812301993499
 20
24.1252300735148
 42
0.0
  0
VERTEX
  8
0
 10
15.7454838770704
 20
24.0946845007387
 42
0.0
  0
VERTEX
  8
0
 10
15.4162038904987
 20
24.0252433252642
 42
0.0
  0
VERTEX
  8
0
 10
15.0959410866381
 20
23.9208479206848
 42
0.0
  0
VERTEX
  8
0
 10
14.7899429373877
 20
23.7806301513496
 42
0.0
  0
VERTEX
  8
0
 10
14.5017159018138
 20
23.608877377479
 42
0.0
  0
VERTEX
  8
0
 10
14.234150765675
 20
23.4037736894005
 42
0.0
  0
VERTEX
  8
0
 10
13.9909813396188
 20
23.1697225180822
 42
0.0
  0
VERTEX
  8
0
 10
13.7754590076876
 20
22.9109661308149
 42
0.0
  0
VERTEX
  8
0
 10
13.590870231578
 20
22.6302607119318
 42
0.0
  0
VERTEX
  8
0
 10
13.4390726754662
 20
22.3298316361896
 42
0.0
  0
VERTEX
  8
0
 10
13.364482100375
 20
22.1305397589854
 42
0.0
  0
VERTEX
  8
0
 10
13.3209444418951
 20
22.0144121612702
 42
0.0
  0
VERTEX
  8
0
 10
13.2736302989872
 20
21.8213839918906
 42
0.0
  0
VERTEX
  8
0
 10
13.2404540473052
 20
21.68710668375
 42
0.0
  0
VERTEX
  8
0
 10
13.1949141079483
 20
21.3527010536004
 42
0.0
  0
VERTEX
  8
0
 10
13.1882414672519
 20
21.017224514768
 42
0.0
  0
VERTEX
  8
0
 10
13.2189907323364
 20
20.6815850220889
 42
0.0
  0
VERTEX
  8
0
 10
13.2884873546959
 20
20.3521630798798
 42
0.0
  0
VERTEX
  8
0
 10
13.392095761867
 20
20.033147201951
 42
0.0
  0
VERTEX
  8
0
 10
13.5331467343478
 20
19.7257838304044
 42
0.0
  0
VERTEX
  8
0
 10
13.7053153598553
 20
19.436492127551
 42
0.0
  0
VERTEX
  8
0
 10
13.9097070925137
 20
19.1701214218203
 42
0.0
  0
VERTEX
  8
0
 10
14.1424921298607
 20
18.9267028718457
 42
0.0
  0
VERTEX
  8
0
 10
14.402620754955
 20
18.7117165264687
 42
0.0
  0
VERTEX
  8
0
 10
14.6831542691417
 20
18.5268697239741
 42
0.0
  0
VERTEX
  8
0
 10
14.7938658286863
 20
18.4710180671307
 42
0.0
  0
VERTEX
  8
0
 10
14.9842849463482
 20
18.3737646180677
 42
0.0
  0
VERTEX
  8
0
 10
15.299013173759
 20
18.2570570536777
 42
0.0
  0
VERTEX
  8
0
 10
15.625499769493
 20
18.1744743375015
 42
0.0
  0
VERTEX
  8
0
 10
15.9593365126681
 20
18.1303210540971
 42
0.0
  0
VERTEX
  8
0
 10
16.296266621102
 20
18.1243252427836
 42
0.0
  0
VERTEX
  8
0
 10
16.6320221845289
 20
18.1548471562869
 42
0.0
  0
VERTEX
  8
0
 10
16.9608548221497
 20
18.2226410851266
 42
0.0
  0
VERTEX
  8
0
 10
17.2808810332815
 20
18.3269440782312
 42
0.0
  0
VERTEX
  8
0
 10
17.5871157752606
 20
18.4672542590411
 42
0.0
  0
VERTEX
  8
0
 10
17.8757901597856
 20
18.6406542795466
 42
0.0
  0
VERTEX
  8
0
 10
18.1433460547769
 20
18.845781626898
 42
0.0
  0
VERTEX
  8
0
 10
18.3867779100684
 20
19.078462786006
 42
0.0
  0
VERTEX
  8
0
 10
18.6023094831471
 20
19.3371955140004
 42
0.0
  0
VERTEX
  8
0
 10
18.7586061233606
 20
19.5772363036119
 42
0.0
  0
VERTEX
  8
0
 10
18.7863899961451
 20
19.6192021928919
 42
0.0
  0
VERTEX
  8
0
 10
18.9389324080973
 20
19.9184224201006
 42
0.0
  0
VERTEX
  8
0
 10
19.0565708608517
 20
20.2350958364825
 42
0.0
  0
VERTEX
  8
0
 10
19.1389705926311
 20
20.5617018413892
 42
0.0
  0
VERTEX
  8
0
 10
19.1819172531187
 20
20.8950672860426
 42
0.0
  0
VERTEX
  8
0
 10
19.189273835495
 20
21.2322834829847
 42
0.0
  0
VERTEX
  8
0
 10
19.1590143512271
 20
21.5666690342013
 42
0.0
  0
VERTEX
  8
0
 10
19.0916821410808
 20
21.8954365967259
 42
0.0
  0
SEQEND
  0
POLYLINE
  8
0
 66
     1
 10
0.0
 20
0.0
 30
0.0
 70
     1
  0
VERTEX
  8
0
 10
24.4666222192502
 20
41.8175481624681
 42
0.0
  0
VERTEX
  8
0
 10
24.3962869264693
 20
42.0311318855123
 42
0.0
  0
VERTEX
  8
0
 10
24.3037007890986
 20
42.2346611433275
 42
0.0
  0
VERTEX
  8
0
 10
24.1869710653079
 20
42.4273966441148
 42
0.0
  0
VERTEX
  8
0
 10
24.0510623317639
 20
42.6050056928102
 42
0.0
  0
VERTEX
  8
0
 10
23.895882176992
 20
42.7677248821425
 42
0.0
  0
VERTEX
  8
0
 10
23.7226725918608
 20
42.9116763169762
 42
0.0
  0
VERTEX
  8
0
 10
23.5358436841882
 20
43.0339468586199
 42
0.0
  0
VERTEX
  8
0
 10
23.3346043923964
 20
43.1358636519717
 42
0.0
  0
VERTEX
  8
0
 10
23.1250098453212
 20
43.2137926520704
 42
0.0
  0
VERTEX
  8
0
 10
23.0543586117389
 20
43.2320083568685
 42
0.0
  0
VERTEX
  8
0
 10
22.9056516146735
 20
43.2685471766606
 42
0.0
  0
VERTEX
  8
0
 10
22.6854757118138
 20
43.2981677154118
 42
0.0
  0
VERTEX
  8
0
 10
22.6835940980668
 20
43.2987962102067
 42
0.0
  0
VERTEX
  8
0
 10
22.4587743976387
 20
43.3026063691826
 42
0.0
  0
VERTEX
  8
0
 10
22.2359761377442
 20
43.2823914800177
 42
0.0
  0
VERTEX
  8
0
 10
22.0152399600788
 20
43.2373493530507
 42
0.0
  0
VERTEX
  8
0
 10
21.803208846578
 20
43.1665297467289
 42
0.0
  0
VERTEX
  8
0
 10
21.5983635719483
 20
43.074520334374
 42
0.0
  0
VERTEX
  8
0
 10
21.4055356596862
 20
42.958027203312
 42
0.0
  0
VERTEX
  8
0
 10
21.2277824297368
 20
42.8217894655645
 42
0.0
  0
VERTEX
  8
0
 10
21.0648266476757
 20
42.6665168993177
 42
0.0
  0
VERTEX
  8
0
 10
20.9225313619436
 20
42.4939541945104
 42
0.0
  0
VERTEX
  8
0
 10
20.8389042993357
 20
42.3666673064206
 42
0.0
  0
VERTEX
  8
0
 10
20.7993033213013
 20
42.3053878543448
 42
0.0
  0
VERTEX
  8
0
 10
20.6970686518292
 20
42.1056605304005
 42
0.0
  0
VERTEX
  8
0
 10
20.618182152732
 20
41.8943285508323
 42
0.0
  0
VERTEX
  8
0
 10
20.5651060334101
 20
41.6783527736958
 42
0.0
  0
VERTEX
  8
0
 10
20.5353190572382
 20
41.4551122934452
 42
0.0
  0
VERTEX
  8
0
 10
20.5300893418895
 20
41.229738124168
 42
0.0
  0
VERTEX
  8
0
 10
20.5505408237832
 20
41.0070322757483
 42
0.0
  0
VERTEX
  8
0
 10
20.5967659143942
 20
40.7867581554572
 42
0.0
  0
VERTEX
  8
0
 10
20.6661659643433
 20
40.5741725731073
 42
0.0
  0
VERTEX
  8
0
 10
20.7596873445457
 20
40.3696451745979
 42
0.0
  0
VERTEX
  8
0
 10
20.8729644595172
 20
40.1815602449949
 42
0.0
  0
VERTEX
  8
0
 10
20.8749975119638
 20
40.1763552049615
 42
0.0
  0
VERTEX
  8
0
 10
21.0113683028819
 20
39.9975631926221
 42
0.0
  0
VERTEX
  8
0
 10
21.1675059566523
 20
39.8365814357829
 42
0.0
  0
VERTEX
  8
0
 10
21.3407155417835
 20
39.6926300009492
 42
0.0
  0
VERTEX
  8
0
 10
21.5266793619325
 20
39.5683854340836
 42
0.0
  0
VERTEX
  8
0
 10
21.7273641848753
 20
39.4678881971046
 42
0.0
  0
VERTEX
  8
0
 10
21.9383671602398
 20
39.3891458792613
 42
0.0
  0
VERTEX
  8
0
 10
22.0217794024558
 20
39.3682792714754
 42
0.0
  0
VERTEX
  8
0
 10
22.1563169625981
 20
39.3352046724157
 42
0.0
  0
VERTEX
  8
0
 10
22.377439236373
 20
39.3059537795639
 42
0.0
  0
VERTEX
  8
0
 10
22.6029575869041
 20
39.3010530684188
 42
0.0
  0
VERTEX
  8
0
 10
22.8259924395275
 20
39.3213603690586
 42
0.0
  0
VERTEX
  8
0
 10
23.0462665598186
 20
39.3675854596695
 42
0.0
  0
VERTEX
  8
0
 10
23.260168158983
 20
39.4364087846028
 42
0.0
  0
VERTEX
  8
0
 10
23.4631429479491
 20
39.5304144783463
 42
0.0
  0
VERTEX
  8
0
 10
23.6564329175855
 20
39.6457246457643
 42
0.0
  0
VERTEX
  8
0
 10
23.833949554806
 20
39.781869972037
 42
0.0
  0
VERTEX
  8
0
 10
23.9962066867641
 20
39.9382330904529
 42
0.0
  0
VERTEX
  8
0
 10
23.9976262431369
 20
39.9387875593019
 42
0.0
  0
VERTEX
  8
0
 10
24.1394372153281
 20
40.1097976545659
 42
0.0
  0
VERTEX
  8
0
 10
24.2640736842598
 20
40.2975506769869
 42
0.0
  0
VERTEX
  8
0
 10
24.3648999254424
 20
40.4980913186758
 42
0.0
  0
VERTEX
  8
0
 10
24.4443408933887
 20
40.7080037418712
 42
0.0
  0
VERTEX
  8
0
 10
24.4982821002343
 20
40.9259535442295
 42
0.0
  0
VERTEX
  8
0
 10
24.5280690764062
 20
41.1491940244802
 42
0.0
  0
VERTEX
  8
0
 10
24.5323412927563
 20
41.3728307612643
 42
0.0
  0
VERTEX
  8
0
 10
24.5114277534884
 20
41.596719573328
 42
0.0
  0
VERTEX
  8
0
 10
24.5105776646858
 20
41.6023866707356
 42
0.0
  0
SEQEND
  0
ENDSEC
  0
EOF
