  0
SECTION
  2
HEADER
  9
$ACADVER
  1
AC1009
  9
$EXTMAX
 10
39.767276763916
 20
164.731704711914
 30
0.0
  9
$EXTMIN
 10
2.4739747047424
 20
2.0499539375305
 30
0.0
  9
$INSUNITS
 70
     4
  9
$LUNITS
 70
     2
  9
$LUPREC
 70
     4
  9
$MEASUREMENT
 70
     1
  0
ENDSEC
  0
SECTION
  2
TABLES
  0
TABLE
  2
LAYER
 70
     1
  0
LAYER
  2
0
 70
     0
 62
     7
  6
Continuous
  0
ENDTAB
  0
TABLE
  2
APPID
 70
     1
  0
APPID
  2
ACAD
 70
     0
  0
ENDTAB
  0
ENDSEC
  0
SECTION
  2
ENTITIES
  0
POLYLINE
  8
0
 66
     1
 10
0.0
 20
0.0
 30
0.0
 70
     1
  0
VERTEX
  8
0
 10
15.1248858244708
 20
60.3064417674429
 42
0.0
  0
VERTEX
  8
0
 10
15.3931913368937
 20
63.1610377618358
 42
0.0
  0
VERTEX
  8
0
 10
15.4382310410764
 20
63.6347532793472
 42
0.0
  0
VERTEX
  8
0
 10
15.5828343562155
 20
65.408117041707
 42
0.0
  0
VERTEX
  8
0
 10
15.7354887783282
 20
67.2809127313361
 42
0.0
  0
VERTEX
  8
0
 10
16.003454683182
 20
71.1253493723679
 42
0.0
  0
VERTEX
  8
0
 10
16.1718008863869
 20
73.9362080668822
 42
0.0
  0
VERTEX
  8
0
 10
16.2210130908838
 20
74.7460149358877
 42
0.0
  0
VERTEX
  8
0
 10
16.2436182439743
 20
75.1303413272971
 42
0.0
  0
VERTEX
  8
0
 10
16.4517610307432
 20
79.258182491092
 42
0.0
  0
VERTEX
  8
0
 10
16.6250111137446
 20
83.467602626686
 42
0.0
  0
VERTEX
  8
0
 10
16.7626614266539
 20
87.719506974517
 42
0.0
  0
VERTEX
  8
0
 10
16.7793536715384
 20
88.4551210666854
 42
0.0
  0
VERTEX
  8
0
 10
16.8555598453526
 20
91.7082340309177
 42
0.0
  0
VERTEX
  8
0
 10
16.8617502730459
 20
91.9728629063206
 42
0.0
  0
VERTEX
  8
0
 10
16.9255888590796
 20
96.1865639482785
 42
0.0
  0
VERTEX
  8
0
 10
16.9493146179108
 20
100.318859338677
 42
0.0
  0
VERTEX
  8
0
 10
16.9350454046446
 20
104.330363940754
 42
0.0
  0
VERTEX
  8
0
 10
16.8807646510224
 20
108.182574363432
 42
0.0
  0
VERTEX
  8
0
 10
16.8716832227495
 20
108.56524765427
 42
0.0
  0
VERTEX
  8
0
 10
16.8547678447759
 20
109.221642186468
 42
0.0
  0
VERTEX
  8
0
 10
16.7945384574914
 20
111.616247732179
 42
0.0
  0
VERTEX
  8
0
 10
16.7892026577902
 20
111.84095271972
 42
0.0
  0
VERTEX
  8
0
 10
16.7451779146864
 20
112.982361549067
 42
0.0
  0
VERTEX
  8
0
 10
16.6601592674694
 20
115.26578119033
 42
0.0
  0
VERTEX
  8
0
 10
16.6435068038298
 20
115.583687205854
 42
0.0
  0
VERTEX
  8
0
 10
16.5025181886423
 20
118.264648658696
 42
0.0
  0
VERTEX
  8
0
 10
16.4948017489423
 20
118.42953400146
 42
0.0
  0
VERTEX
  8
0
 10
16.3084562367065
 20
121.09471759557
 42
0.0
  0
VERTEX
  8
0
 10
16.3046220495609
 20
121.155176070186
 42
0.0
  0
VERTEX
  8
0
 10
16.3039142281695
 20
121.177173459051
 42
0.0
  0
VERTEX
  8
0
 10
16.2944083659418
 20
121.295767088658
 42
0.0
  0
VERTEX
  8
0
 10
16.0621897928478
 20
123.840170357518
 42
0.0
  0
VERTEX
  8
0
 10
16.0567769547379
 20
123.889714597341
 42
0.0
  0
VERTEX
  8
0
 10
16.0423921514986
 20
124.009723265677
 42
0.0
  0
VERTEX
  8
0
 10
15.9907077928809
 20
124.563380122502
 42
0.0
  0
VERTEX
  8
0
 10
15.7669419576913
 20
126.325735352985
 42
0.0
  0
VERTEX
  8
0
 10
15.5933007931239
 20
127.69811525528
 42
0.0
  0
VERTEX
  8
0
 10
15.4497793595744
 20
128.533671376419
 42
0.0
  0
VERTEX
  8
0
 10
14.939714290427
 20
132.465391002773
 42
0.0
  0
VERTEX
  8
0
 10
14.7429915686306
 20
133.976487286307
 42
0.0
  0
VERTEX
  8
0
 10
14.6156944110042
 20
134.960993341352
 42
0.0
  0
VERTEX
  8
0
 10
14.6129642612717
 20
134.983312798658
 42
0.0
  0
VERTEX
  8
0
 10
14.5165804963875
 20
135.726439246699
 42
0.0
  0
VERTEX
  8
0
 10
14.5073498452994
 20
135.793276160695
 42
0.0
  0
VERTEX
  8
0
 10
14.5061618012877
 20
135.792827327289
 42
0.0
  0
VERTEX
  8
0
 10
14.4903792395672
 20
135.791480676058
 42
0.0
  0
VERTEX
  8
0
 10
14.4809012716723
 20
135.789257586185
 42
0.0
  0
VERTEX
  8
0
 10
13.7195032374352
 20
136.283862248346
 42
0.0
  0
VERTEX
  8
0
 10
13.5069937902629
 20
136.421610008047
 42
0.0
  0
VERTEX
  8
0
 10
11.0264320198378
 20
138.031349540568
 42
0.0
  0
VERTEX
  8
0
 10
11.1322247826387
 20
146.715760795058
 42
0.0
  0
VERTEX
  8
0
 10
11.136228212662
 20
147.060205452917
 42
0.0
  0
VERTEX
  8
0
 10
7.7499149121751
 20
157.938278016372
 42
0.0
  0
VERTEX
  8
0
 10
13.8237915399992
 20
162.238128849866
 42
0.0
  0
VERTEX
  8
0
 10
15.2751925749679
 20
163.266507174097
 42
0.0
  0
VERTEX
  8
0
 10
15.8004299649905
 20
163.638711639857
 42
0.0
  0
VERTEX
  8
0
 10
17.3437957977123
 20
164.7317009319
 42
0.0
  0
VERTEX
  8
0
 10
18.9578657646787
 20
163.527988539711
 42
0.0
  0
VERTEX
  8
0
 10
19.737510679319
 20
162.94605929235
 42
0.0
  0
VERTEX
  8
0
 10
22.556590798037
 20
160.845410777477
 42
0.0
  0
VERTEX
  8
0
 10
23.8667011694396
 20
161.651252472469
 42
0.0
  0
VERTEX
  8
0
 10
25.0939688414288
 20
160.855314037946
 42
0.0
  0
VERTEX
  8
0
 10
28.1541887621817
 20
163.021773432138
 42
0.0
  0
VERTEX
  8
0
 10
29.3560435061443
 20
163.872246434981
 42
0.0
  0
VERTEX
  8
0
 10
30.1977191002501
 20
164.467448545853
 42
0.0
  0
VERTEX
  8
0
 10
30.3427971540657
 20
164.57086028465
 42
0.0
  0
VERTEX
  8
0
 10
33.822515484385
 20
161.97718306407
 42
0.0
  0
VERTEX
  8
0
 10
37.3538431714369
 20
159.344354704153
 42
0.0
  0
VERTEX
  8
0
 10
39.7672753505165
 20
157.545526433413
 42
0.0
  0
VERTEX
  8
0
 10
38.0437495192761
 20
152.45310816488
 42
0.0
  0
VERTEX
  8
0
 10
36.2389120181573
 20
147.123614341101
 42
0.0
  0
VERTEX
  8
0
 10
36.1247970491225
 20
137.845227310277
 42
0.0
  0
VERTEX
  8
0
 10
33.5061451586689
 20
136.182818975711
 42
0.0
  0
VERTEX
  8
0
 10
33.2881767150616
 20
136.046167877497
 42
0.0
  0
VERTEX
  8
0
 10
32.6334582978775
 20
135.630748488792
 42
0.0
  0
VERTEX
  8
0
 10
32.4670640205653
 20
135.525257135798
 42
0.0
  0
VERTEX
  8
0
 10
32.3496777344831
 20
135.449956047869
 42
0.0
  0
VERTEX
  8
0
 10
31.887097090976
 20
135.157627832489
 42
0.0
  0
VERTEX
  8
0
 10
31.8731547915237
 20
135.147744671904
 42
0.0
  0
VERTEX
  8
0
 10
31.8869945097289
 20
135.126635578391
 42
0.0
  0
VERTEX
  8
0
 10
31.887533109816
 20
135.125209925577
 42
0.0
  0
VERTEX
  8
0
 10
31.8213626999446
 20
130.960587974116
 42
0.0
  0
VERTEX
  8
0
 10
31.8071733727683
 20
130.0038145273
 42
0.0
  0
VERTEX
  8
0
 10
31.7962966626478
 20
129.318999922088
 42
0.0
  0
VERTEX
  8
0
 10
31.7532966404035
 20
126.586449499323
 42
0.0
  0
VERTEX
  8
0
 10
31.7438499538563
 20
125.975757587784
 42
0.0
  0
VERTEX
  8
0
 10
31.7228269983877
 20
124.674556344834
 42
0.0
  0
VERTEX
  8
0
 10
31.7191973179065
 20
124.422841863799
 42
0.0
  0
VERTEX
  8
0
 10
31.713868072187
 20
124.117267002993
 42
0.0
  0
VERTEX
  8
0
 10
31.7055028055599
 20
123.589526309099
 42
0.0
  0
VERTEX
  8
0
 10
31.6261962661848
 20
118.484820116023
 42
0.0
  0
VERTEX
  8
0
 10
31.6218458591383
 20
118.231204218763
 42
0.0
  0
VERTEX
  8
0
 10
31.6077043126026
 20
117.894333383546
 42
0.0
  0
VERTEX
  8
0
 10
31.5316089524233
 20
116.142235498972
 42
0.0
  0
VERTEX
  8
0
 10
31.5229387983657
 20
115.931245710457
 42
0.0
  0
VERTEX
  8
0
 10
31.4759779750243
 20
114.745416959663
 42
0.0
  0
VERTEX
  8
0
 10
31.3922353263393
 20
112.689855217693
 42
0.0
  0
VERTEX
  8
0
 10
31.2543530309556
 20
109.050688219107
 42
0.0
  0
VERTEX
  8
0
 10
31.2242984298609
 20
108.162861052282
 42
0.0
  0
VERTEX
  8
0
 10
31.1217871451521
 20
105.260391349899
 42
0.0
  0
VERTEX
  8
0
 10
30.9925016803469
 20
101.356480021849
 42
0.0
  0
VERTEX
  8
0
 10
30.8674202345104
 20
97.3746010133633
 42
0.0
  0
VERTEX
  8
0
 10
30.857846567265
 20
96.9981845529694
 42
0.0
  0
VERTEX
  8
0
 10
30.7507929288457
 20
93.3516578363854
 42
0.0
  0
VERTEX
  8
0
 10
30.6417691048559
 20
89.3315871932053
 42
0.0
  0
VERTEX
  8
0
 10
30.5439230556208
 20
85.3480505321724
 42
0.0
  0
VERTEX
  8
0
 10
30.4534366661353
 20
81.4427773868308
 42
0.0
  0
VERTEX
  8
0
 10
30.4102707578256
 20
79.3153866700287
 42
0.0
  0
VERTEX
  8
0
 10
30.3745653646451
 20
77.6505010986618
 42
0.0
  0
VERTEX
  8
0
 10
30.314316582925
 20
74.3515560197765
 42
0.0
  0
VERTEX
  8
0
 10
30.3076888419911
 20
74.0104642693484
 42
0.0
  0
VERTEX
  8
0
 10
30.2529334100978
 20
70.5561118155941
 42
0.0
  0
VERTEX
  8
0
 10
30.211734882824
 20
67.3202972856177
 42
0.0
  0
VERTEX
  8
0
 10
30.1823767771155
 20
64.336312446959
 42
0.0
  0
VERTEX
  8
0
 10
30.1686753958164
 20
61.7090489222987
 42
0.0
  0
VERTEX
  8
0
 10
30.1687766826629
 20
61.6311603944594
 42
0.0
  0
VERTEX
  8
0
 10
30.1669477161971
 20
59.2304871086577
 42
0.0
  0
VERTEX
  8
0
 10
30.1793290461973
 20
57.1580219295603
 42
0.0
  0
VERTEX
  8
0
 10
30.2054504600742
 20
55.4358520127132
 42
0.0
  0
VERTEX
  8
0
 10
30.2179860826251
 20
54.9779145049468
 42
0.0
  0
VERTEX
  8
0
 10
30.2138449715253
 20
54.6654574197353
 42
0.0
  0
VERTEX
  8
0
 10
30.202664888423
 20
53.9612501458154
 42
0.0
  0
VERTEX
  8
0
 10
30.1869949395541
 20
52.9656327403395
 42
0.0
  0
VERTEX
  8
0
 10
30.1754195465104
 20
52.2042565167523
 42
0.0
  0
VERTEX
  8
0
 10
30.1556714159839
 20
50.9312321289448
 42
0.0
  0
VERTEX
  8
0
 10
30.083171995577
 20
46.3933201756098
 42
0.0
  0
VERTEX
  8
0
 10
30.0591615980551
 20
44.7844420451105
 42
0.0
  0
VERTEX
  8
0
 10
30.3281900763563
 20
44.2556049097778
 42
0.0
  0
VERTEX
  8
0
 10
30.3725185937061
 20
44.1691735321793
 42
0.0
  0
VERTEX
  8
0
 10
30.4006258769741
 20
44.1148984954931
 42
0.0
  0
VERTEX
  8
0
 10
30.4880051009808
 20
43.9418245156926
 42
0.0
  0
VERTEX
  8
0
 10
30.6407972473167
 20
43.6430398603535
 42
0.0
  0
VERTEX
  8
0
 10
30.8033369636178
 20
43.3213286091099
 42
0.0
  0
VERTEX
  8
0
 10
31.9589642873008
 20
40.8941734835859
 42
0.0
  0
VERTEX
  8
0
 10
32.9950201048751
 20
38.5413148595334
 42
0.0
  0
VERTEX
  8
0
 10
33.9009040629043
 20
36.2879366164791
 42
0.0
  0
VERTEX
  8
0
 10
34.6685419213187
 20
34.1546922361862
 42
0.0
  0
VERTEX
  8
0
 10
35.2889538881803
 20
32.1617573292919
 42
0.0
  0
VERTEX
  8
0
 10
35.7555362595739
 20
30.3302051732452
 42
0.0
  0
VERTEX
  8
0
 10
36.0266125249186
 20
28.8946882414089
 42
0.0
  0
VERTEX
  8
0
 10
36.0681663349527
 20
28.6761721196517
 42
0.0
  0
VERTEX
  8
0
 10
36.2193275192818
 20
27.2159607556704
 42
0.0
  0
VERTEX
  8
0
 10
36.2150655090092
 20
26.5602814315761
 42
0.0
  0
VERTEX
  8
0
 10
36.2091358124275
 20
25.9629194795585
 42
0.0
  0
VERTEX
  8
0
 10
36.037715645119
 20
24.9318117887076
 42
0.0
  0
VERTEX
  8
0
 10
35.7076521467609
 20
24.1280129792957
 42
0.0
  0
VERTEX
  8
0
 10
35.2217120123292
 20
23.5628861195224
 42
0.0
  0
VERTEX
  8
0
 10
34.581759113959
 20
23.2401221063878
 42
0.0
  0
VERTEX
  8
0
 10
33.7973062346064
 20
23.1647267062736
 42
0.0
  0
VERTEX
  8
0
 10
32.875747814565
 20
23.3350948236114
 42
0.0
  0
VERTEX
  8
0
 10
31.82516309892
 20
23.7528396655467
 42
0.0
  0
VERTEX
  8
0
 10
31.1837988055582
 20
24.1129902824998
 42
0.0
  0
VERTEX
  8
0
 10
30.6547022852905
 20
24.4095525944033
 42
0.0
  0
VERTEX
  8
0
 10
30.5139932110126
 20
24.5096136693959
 42
0.0
  0
VERTEX
  8
0
 10
29.3774635168376
 20
25.3029051949314
 42
0.0
  0
VERTEX
  8
0
 10
29.3585136776747
 20
25.317847984064
 42
0.0
  0
VERTEX
  8
0
 10
28.7417296956296
 20
25.8199233051407
 42
0.0
  0
VERTEX
  8
0
 10
28.4713654369049
 20
26.0403770798668
 42
0.0
  0
VERTEX
  8
0
 10
28.1374325027156
 20
26.3119452411678
 42
0.0
  0
VERTEX
  8
0
 10
28.0047640378225
 20
26.4209088669007
 42
0.0
  0
VERTEX
  8
0
 10
27.2885600542521
 20
27.076901379848
 42
0.0
  0
VERTEX
  8
0
 10
27.2734920146034
 20
27.0240725898893
 42
0.0
  0
VERTEX
  8
0
 10
27.2329554610519
 20
26.8776674216622
 42
0.0
  0
VERTEX
  8
0
 10
27.1690132388347
 20
26.6487558824426
 42
0.0
  0
VERTEX
  8
0
 10
27.0837477839418
 20
26.3440438777016
 42
0.0
  0
VERTEX
  8
0
 10
26.8252116542914
 20
25.4184735126383
 42
0.0
  0
VERTEX
  8
0
 10
23.4333582480709
 20
13.2773492103461
 42
0.0
  0
VERTEX
  8
0
 10
23.4333772930183
 20
13.2744239685561
 42
0.0
  0
VERTEX
  8
0
 10
23.3393174906455
 20
12.9383684676437
 42
0.0
  0
VERTEX
  8
0
 10
22.1198089384114
 20
8.5739311028952
 42
0.0
  0
VERTEX
  8
0
 10
22.1152223930017
 20
8.5515735375727
 42
0.0
  0
VERTEX
  8
0
 10
22.0615027989273
 20
8.3854415675207
 42
0.0
  0
VERTEX
  8
0
 10
21.8388168049206
 20
7.6840835264619
 42
0.0
  0
VERTEX
  8
0
 10
21.7518975457335
 20
7.4081851352309
 42
0.0
  0
VERTEX
  8
0
 10
21.7444596946956
 20
7.3847503697342
 42
0.0
  0
VERTEX
  8
0
 10
21.7790369226201
 20
7.2932258351608
 42
0.0
  0
VERTEX
  8
0
 10
7.9003067779246
 20
2.0499539873237
 42
0.0
  0
VERTEX
  8
0
 10
2.47397463482
 20
16.4132373865436
 42
0.0
  0
VERTEX
  8
0
 10
4.4542063935239
 20
17.1613529075139
 42
0.0
  0
VERTEX
  8
0
 10
4.5488493665109
 20
17.3075633763184
 42
0.0
  0
VERTEX
  8
0
 10
5.4192536165751
 20
18.6690472474068
 42
0.0
  0
VERTEX
  8
0
 10
5.7172614115098
 20
19.1322212916075
 42
0.0
  0
VERTEX
  8
0
 10
7.1964337616004
 20
21.9979180741223
 42
0.0
  0
VERTEX
  8
0
 10
7.8563864392312
 20
23.5686043110471
 42
0.0
  0
VERTEX
  8
0
 10
7.9372722444109
 20
23.764166188503
 42
0.0
  0
VERTEX
  8
0
 10
7.9790113349461
 20
23.8491729703812
 42
0.0
  0
VERTEX
  8
0
 10
8.07877589728
 20
24.0989761438146
 42
0.0
  0
VERTEX
  8
0
 10
8.5452949444393
 20
25.2121368245913
 42
0.0
  0
VERTEX
  8
0
 10
8.6910823837137
 20
25.6369455471113
 42
0.0
  0
VERTEX
  8
0
 10
8.8950229658321
 20
26.1500297107211
 42
0.0
  0
VERTEX
  8
0
 10
9.3775714492652
 20
27.5829897699177
 42
0.0
  0
VERTEX
  8
0
 10
9.6729419137765
 20
28.4620893717044
 42
0.0
  0
VERTEX
  8
0
 10
9.7863135948437
 20
28.798055347557
 42
0.0
  0
VERTEX
  8
0
 10
9.8428876682006
 20
28.9947231306776
 42
0.0
  0
VERTEX
  8
0
 10
10.1694921635825
 20
30.134689760456
 42
0.0
  0
VERTEX
  8
0
 10
10.4669934423061
 20
31.1648274490753
 42
0.0
  0
VERTEX
  8
0
 10
10.5845788848637
 20
31.5744472694484
 42
0.0
  0
VERTEX
  8
0
 10
10.6397283970177
 20
31.7676987324524
 42
0.0
  0
VERTEX
  8
0
 10
10.694222856178
 20
31.9856827390694
 42
0.0
  0
VERTEX
  8
0
 10
10.7401426233244
 20
32.1724605379568
 42
0.0
  0
VERTEX
  8
0
 10
10.9870018379351
 20
33.1598436572017
 42
0.0
  0
VERTEX
  8
0
 10
11.2077093712683
 20
34.0461155154202
 42
0.0
  0
VERTEX
  8
0
 10
11.3515776610303
 20
34.6247766321171
 42
0.0
  0
VERTEX
  8
0
 10
11.3850419937426
 20
34.7625907945683
 42
0.0
  0
VERTEX
  8
0
 10
11.451991887337
 20
35.0295384376216
 42
0.0
  0
VERTEX
  8
0
 10
11.4910579974992
 20
35.2107402392042
 42
0.0
  0
VERTEX
  8
0
 10
11.9441594304869
 20
37.31026702005
 42
0.0
  0
VERTEX
  8
0
 10
12.2126010275589
 20
38.553160264541
 42
0.0
  0
VERTEX
  8
0
 10
12.318388526464
 20
39.1190638984253
 42
0.0
  0
VERTEX
  8
0
 10
12.6539350000281
 20
40.9059157032929
 42
0.0
  0
VERTEX
  8
0
 10
12.7061687669779
 20
41.1852241600969
 42
0.0
  0
VERTEX
  8
0
 10
12.9152780610969
 20
42.3041529401705
 42
0.0
  0
VERTEX
  8
0
 10
13.5275994611827
 20
46.0959500412397
 42
0.0
  0
VERTEX
  8
0
 10
13.5518760521867
 20
46.2465844649324
 42
0.0
  0
VERTEX
  8
0
 10
14.1182082621076
 20
50.3419461407069
 42
0.0
  0
VERTEX
  8
0
 10
14.3180961816761
 20
52.0588122295474
 42
0.0
  0
VERTEX
  8
0
 10
14.6079177816765
 20
54.5517239623316
 42
0.0
  0
VERTEX
  8
0
 10
14.7101137288272
 20
55.6259173949488
 42
0.0
  0
VERTEX
  8
0
 10
14.7343204221991
 20
55.8780746127634
 42
0.0
  0
VERTEX
  8
0
 10
15.0149486929953
 20
58.8358885051491
 42
0.0
  0
SEQEND
  0
POLYLINE
  8
0
 66
     1
 10
0.0
 20
0.0
 30
0.0
 70
     1
  0
VERTEX
  8
0
 10
32.5765841522601
 20
29.4533113853985
 42
0.0
  0
VERTEX
  8
0
 10
32.3628606608829
 20
29.3872848697264
 42
0.0
  0
VERTEX
  8
0
 10
32.1569574848534
 20
29.2962460473262
 42
0.0
  0
VERTEX
  8
0
 10
31.9619534703228
 20
29.1842633659629
 42
0.0
  0
VERTEX
  8
0
 10
31.7811846629975
 20
29.0511309382782
 42
0.0
  0
VERTEX
  8
0
 10
31.6167715887623
 20
28.8977041861632
 42
0.0
  0
VERTEX
  8
0
 10
31.5806432523451
 20
28.8560612825362
 42
0.0
  0
VERTEX
  8
0
 10
31.4701388088201
 20
28.7273994297344
 42
0.0
  0
VERTEX
  8
0
 10
31.3445948930674
 20
28.5415209242889
 42
0.0
  0
VERTEX
  8
0
 10
31.2394164010124
 20
28.3441397107077
 42
0.0
  0
VERTEX
  8
0
 10
31.1572181210919
 20
28.1333655024543
 42
0.0
  0
VERTEX
  8
0
 10
31.0991315082811
 20
27.9169839982897
 42
0.0
  0
VERTEX
  8
0
 10
31.0663535832596
 20
27.6954202707397
 42
0.0
  0
VERTEX
  8
0
 10
31.0581434980051
 20
27.471354022431
 42
0.0
  0
VERTEX
  8
0
 10
31.0752045564508
 20
27.246517174302
 42
0.0
  0
VERTEX
  8
0
 10
31.1140505365334
 20
27.0387621079723
 42
0.0
  0
VERTEX
  8
0
 10
31.1172431065634
 20
27.0267179650122
 42
0.0
  0
VERTEX
  8
0
 10
31.1835552986038
 20
26.8116633336377
 42
0.0
  0
VERTEX
  8
0
 10
31.2726684131953
 20
26.6066889245516
 42
0.0
  0
VERTEX
  8
0
 10
31.3862457119541
 20
26.4124231045223
 42
0.0
  0
VERTEX
  8
0
 10
31.5190222571395
 20
26.231302630129
 42
0.0
  0
VERTEX
  8
0
 10
31.6728798742229
 20
26.0669708766111
 42
0.0
  0
VERTEX
  8
0
 10
31.8413751039255
 20
25.919953146247
 42
0.0
  0
VERTEX
  8
0
 10
32.0280446024725
 20
25.7931060819098
 42
0.0
  0
VERTEX
  8
0
 10
32.2259775780375
 20
25.6896294116649
 42
0.0
  0
VERTEX
  8
0
 10
32.4356503398364
 20
25.6068249488449
 42
0.0
  0
VERTEX
  8
0
 10
32.6522815985955
 20
25.5487240825262
 42
0.0
  0
VERTEX
  8
0
 10
32.8405545294061
 20
25.5211266981695
 42
0.0
  0
VERTEX
  8
0
 10
32.8734767671497
 20
25.5159155276721
 42
0.0
  0
VERTEX
  8
0
 10
33.0989982366968
 20
25.5083095176014
 42
0.0
  0
VERTEX
  8
0
 10
33.3231433959804
 20
25.5237516519657
 42
0.0
  0
VERTEX
  8
0
 10
33.543973284687
 20
25.5673742808956
 42
0.0
  0
VERTEX
  8
0
 10
33.757715275206
 20
25.6319144147925
 42
0.0
  0
VERTEX
  8
0
 10
33.9640942146458
 20
25.7216939105403
 42
0.0
  0
VERTEX
  8
0
 10
34.158613489098
 20
25.8349596794362
 42
0.0
  0
VERTEX
  8
0
 10
34.3389065330131
 20
25.9693514337733
 42
0.0
  0
VERTEX
  8
0
 10
34.5038043473266
 20
26.1214950983557
 42
0.0
  0
VERTEX
  8
0
 10
34.6504371272688
 20
26.2917998547844
 42
0.0
  0
VERTEX
  8
0
 10
34.7072021613881
 20
26.3751250722219
 42
0.0
  0
VERTEX
  8
0
 10
34.7759720663534
 20
26.4777021211102
 42
0.0
  0
VERTEX
  8
0
 10
34.88066581833
 20
26.676366422224
 42
0.0
  0
VERTEX
  8
0
 10
34.9624073797877
 20
26.8854747153399
 42
0.0
  0
VERTEX
  8
0
 10
35.0204850159304
 20
27.1018799803847
 42
0.0
  0
VERTEX
  8
0
 10
35.0542223528293
 20
27.3237790137792
 42
0.0
  0
VERTEX
  8
0
 10
35.0624234614157
 20
27.5478690229681
 42
0.0
  0
VERTEX
  8
0
 10
35.04536240297
 20
27.7727058710971
 42
0.0
  0
VERTEX
  8
0
 10
35.0035524849917
 20
27.9926186079483
 42
0.0
  0
VERTEX
  8
0
 10
34.9370026841488
 20
28.2075834726416
 42
0.0
  0
VERTEX
  8
0
 10
34.845979176665
 20
28.4133023691732
 42
0.0
  0
VERTEX
  8
0
 10
34.8302522051353
 20
28.4427130016579
 42
0.0
  0
VERTEX
  8
0
 10
34.734311724993
 20
28.6082625617718
 42
0.0
  0
VERTEX
  8
0
 10
34.6015447022813
 20
28.7879204152701
 42
0.0
  0
VERTEX
  8
0
 10
34.4481712794707
 20
28.9524079412701
 42
0.0
  0
VERTEX
  8
0
 10
34.2777841560175
 20
29.0986837773046
 42
0.0
  0
VERTEX
  8
0
 10
34.0913343129366
 20
29.2256681300834
 42
0.0
  0
VERTEX
  8
0
 10
33.894113617973
 20
29.3308529603867
 42
0.0
  0
VERTEX
  8
0
 10
33.6849166195844
 20
29.4123980965542
 42
0.0
  0
VERTEX
  8
0
 10
33.5456661902344
 20
29.4496641701039
 42
0.0
  0
VERTEX
  8
0
 10
33.4682853608253
 20
29.4704989628729
 42
0.0
  0
VERTEX
  8
0
 10
33.245664539457
 20
29.5027689176399
 42
0.0
  0
VERTEX
  8
0
 10
33.0210750059775
 20
29.5122203762106
 42
0.0
  0
VERTEX
  8
0
 10
32.7969578683095
 20
29.493829239176
 42
0.0
  0
SEQEND
  0
POLYLINE
  8
0
 66
     1
 10
0.0
 20
0.0
 30
0.0
 70
     1
  0
VERTEX
  8
0
 10
15.9400519175136
 20
14.8171272321312
 42
0.0
  0
VERTEX
  8
0
 10
15.9494410701117
 20
15.0416660747261
 42
0.0
  0
VERTEX
  8
0
 10
15.9316946610689
 20
15.264723480156
 42
0.0
  0
VERTEX
  8
0
 10
15.8908351782999
 20
15.484995283732
 42
0.0
  0
VERTEX
  8
0
 10
15.8240202928448
 20
15.7013805243996
 42
0.0
  0
VERTEX
  8
0
 10
15.7334905021074
 20
15.9057925725183
 42
0.0
  0
VERTEX
  8
0
 10
15.6218140737674
 20
16.1007765259971
 42
0.0
  0
VERTEX
  8
0
 10
15.4890470510557
 20
16.2804343794954
 42
0.0
  0
VERTEX
  8
0
 10
15.3356736282451
 20
16.4449219054954
 42
0.0
  0
VERTEX
  8
0
 10
15.1648017647135
 20
16.5924808290625
 42
0.0
  0
VERTEX
  8
0
 10
15.1254954785211
 20
16.6189025654506
 42
0.0
  0
VERTEX
  8
0
 10
14.9788546150472
 20
16.7181345725482
 42
0.0
  0
VERTEX
  8
0
 10
14.7816159667474
 20
16.823366924612
 42
0.0
  0
VERTEX
  8
0
 10
14.5709933155447
 20
16.9043734606924
 42
0.0
  0
VERTEX
  8
0
 10
14.3548372743903
 20
16.9626538603735
 42
0.0
  0
VERTEX
  8
0
 10
14.1701374522829
 20
16.9915739840677
 42
0.0
  0
VERTEX
  8
0
 10
14.132682148153
 20
16.9965659693979
 42
0.0
  0
VERTEX
  8
0
 10
13.90858633142
 20
17.0047105795557
 42
0.0
  0
VERTEX
  8
0
 10
13.6839844536735
 20
16.9876025300537
 42
0.0
  0
VERTEX
  8
0
 10
13.4641044543706
 20
16.9457778278633
 42
0.0
  0
VERTEX
  8
0
 10
13.2489463335113
 20
16.8792364729844
 42
0.0
  0
VERTEX
  8
0
 10
13.0439840702175
 20
16.7900193382039
 42
0.0
  0
VERTEX
  8
0
 10
12.8489710790188
 20
16.6780604177209
 42
0.0
  0
VERTEX
  8
0
 10
12.6686870117718
 20
16.5436449025036
 42
0.0
  0
VERTEX
  8
0
 10
12.5037981741264
 20
16.3914774770409
 42
0.0
  0
VERTEX
  8
0
 10
12.3581253518672
 20
16.2200691664419
 42
0.0
  0
VERTEX
  8
0
 10
12.3025113634761
 20
16.1401655459608
 42
0.0
  0
VERTEX
  8
0
 10
12.2304424110879
 20
16.0348216208805
 42
0.0
  0
VERTEX
  8
0
 10
12.1264530546557
 20
15.8350115206757
 42
0.0
  0
VERTEX
  8
0
 10
12.0442357297879
 20
15.6271625542122
 42
0.0
  0
VERTEX
  8
0
 10
11.9928610284669
 20
15.4354186407479
 42
0.0
  0
VERTEX
  8
0
 10
11.9866338570554
 20
15.409497962515
 42
0.0
  0
VERTEX
  8
0
 10
11.9538649087021
 20
15.1879104740848
 42
0.0
  0
VERTEX
  8
0
 10
11.9456548234476
 20
14.963844225776
 42
0.0
  0
VERTEX
  8
0
 10
11.9607965123328
 20
14.7397756259729
 42
0.0
  0
VERTEX
  8
0
 10
12.0045168232035
 20
14.5191184016761
 42
0.0
  0
VERTEX
  8
0
 10
12.0698875567027
 20
14.3036809426966
 42
0.0
  0
VERTEX
  8
0
 10
12.1590006712942
 20
14.0987065336106
 42
0.0
  0
VERTEX
  8
0
 10
12.2723403612506
 20
13.9043509469001
 42
0.0
  0
VERTEX
  8
0
 10
12.4055921240407
 20
13.7234100058691
 42
0.0
  0
VERTEX
  8
0
 10
12.5584718301048
 20
13.560229328282
 42
0.0
  0
VERTEX
  8
0
 10
12.6391085192609
 20
13.490528777335
 42
0.0
  0
VERTEX
  8
0
 10
12.7283927126214
 20
13.4137501980049
 42
0.0
  0
VERTEX
  8
0
 10
12.9138741671568
 20
13.2864543002619
 42
0.0
  0
VERTEX
  8
0
 10
13.1139736435584
 20
13.1808365274773
 42
0.0
  0
VERTEX
  8
0
 10
13.3226769252004
 20
13.1005982397227
 42
0.0
  0
VERTEX
  8
0
 10
13.4655195082011
 20
13.0617296637204
 42
0.0
  0
VERTEX
  8
0
 10
13.5398019007061
 20
13.0411905249911
 42
0.0
  0
VERTEX
  8
0
 10
13.7609970692603
 20
13.0083819701369
 42
0.0
  0
VERTEX
  8
0
 10
13.9850928859933
 20
13.0002373599791
 42
0.0
  0
VERTEX
  8
0
 10
14.2101610046763
 20
13.0175487037237
 42
0.0
  0
VERTEX
  8
0
 10
14.4300499806474
 20
13.0593496450339
 42
0.0
  0
VERTEX
  8
0
 10
14.644732883902
 20
13.1257114665504
 42
0.0
  0
VERTEX
  8
0
 10
14.8496861705277
 20
13.2149523622112
 42
0.0
  0
VERTEX
  8
0
 10
15.0461248145405
 20
13.3274498827812
 42
0.0
  0
VERTEX
  8
0
 10
15.2254769457199
 20
13.4600199494986
 42
0.0
  0
VERTEX
  8
0
 10
15.3901186520893
 20
13.6135602291751
 42
0.0
  0
VERTEX
  8
0
 10
15.4290792491871
 20
13.6592055747663
 42
0.0
  0
VERTEX
  8
0
 10
15.5365138232292
 20
13.7837752189227
 42
0.0
  0
VERTEX
  8
0
 10
15.6634744151277
 20
13.9702160853355
 42
0.0
  0
VERTEX
  8
0
 10
15.7681861204406
 20
14.1688328646888
 42
0.0
  0
VERTEX
  8
0
 10
15.848484075748
 20
14.3774500794781
 42
0.0
  0
VERTEX
  8
0
 10
15.9079963413729
 20
14.5943701837297
 42
0.0
  0
VERTEX
  8
0
 10
15.9276143436503
 20
14.7328996448931
 42
0.0
  0
SEQEND
  0
POLYLINE
  8
0
 66
     1
 10
0.0
 20
0.0
 30
0.0
 70
     1
  0
VERTEX
  8
0
 10
19.7243639055275
 20
20.2610441332762
 42
0.0
  0
VERTEX
  8
0
 10
19.8457834424654
 20
20.5749890499916
 42
0.0
  0
VERTEX
  8
0
 10
19.9323148513418
 20
20.8993487699756
 42
0.0
  0
VERTEX
  8
0
 10
19.9834924370257
 20
21.2324811389709
 42
0.0
  0
VERTEX
  8
0
 10
19.994609998422
 20
21.5695942989231
 42
0.0
  0
VERTEX
  8
0
 10
19.9692882566026
 20
21.9046978846947
 42
0.0
  0
VERTEX
  8
0
 10
19.9068154767715
 20
22.2346448762126
 42
0.0
  0
VERTEX
  8
0
 10
19.808407724556
 20
22.5569351042126
 42
0.0
  0
VERTEX
  8
0
 10
19.7285495547944
 20
22.7374120457773
 42
0.0
  0
VERTEX
  8
0
 10
19.6724572357652
 20
22.8664810566005
 42
0.0
  0
VERTEX
  8
0
 10
19.5035261900119
 20
23.1576751958439
 42
0.0
  0
VERTEX
  8
0
 10
19.3040097202671
 20
23.4284899469647
 42
0.0
  0
VERTEX
  8
0
 10
19.0753800001022
 20
23.6750285256043
 42
0.0
  0
VERTEX
  8
0
 10
18.8202792937639
 20
23.8938905025708
 42
0.0
  0
VERTEX
  8
0
 10
18.5406179941446
 20
24.0843313904187
 42
0.0
  0
VERTEX
  8
0
 10
18.2438275398218
 20
24.2417733300291
 42
0.0
  0
VERTEX
  8
0
 10
17.9557304718899
 20
24.3539242877842
 42
0.0
  0
VERTEX
  8
0
 10
17.9294422356644
 20
24.3645741671447
 42
0.0
  0
VERTEX
  8
0
 10
17.6039060867567
 20
24.4507697394723
 42
0.0
  0
VERTEX
  8
0
 10
17.2712679652121
 20
24.5004234596971
 42
0.0
  0
VERTEX
  8
0
 10
16.9348818700735
 20
24.5132819187001
 42
0.0
  0
VERTEX
  8
0
 10
16.5997476544691
 20
24.4883287358765
 42
0.0
  0
VERTEX
  8
0
 10
16.2684975143667
 20
24.4250649629438
 42
0.0
  0
VERTEX
  8
0
 10
15.94659645222
 20
24.3255552335694
 42
0.0
  0
VERTEX
  8
0
 10
15.8012639300343
 20
24.2617710166754
 42
0.0
  0
VERTEX
  8
0
 10
15.6383399256129
 20
24.1899289662393
 42
0.0
  0
VERTEX
  8
0
 10
15.3467888273604
 20
24.0223021304791
 42
0.0
  0
VERTEX
  8
0
 10
15.076458816318
 20
23.8215025732017
 42
0.0
  0
VERTEX
  8
0
 10
14.8299619518949
 20
23.5928343079443
 42
0.0
  0
VERTEX
  8
0
 10
14.60964739211
 20
23.3372662841596
 42
0.0
  0
VERTEX
  8
0
 10
14.4207509614773
 20
23.0581884679681
 42
0.0
  0
VERTEX
  8
0
 10
14.2637013568442
 20
22.7602157771776
 42
0.0
  0
VERTEX
  8
0
 10
14.2207248797467
 20
22.6511734173713
 42
0.0
  0
VERTEX
  8
0
 10
14.1401427948797
 20
22.4469018203463
 42
0.0
  0
VERTEX
  8
0
 10
14.0538579714738
 20
22.1226081061633
 42
0.0
  0
VERTEX
  8
0
 10
14.0040880852677
 20
21.7900618590155
 42
0.0
  0
VERTEX
  8
0
 10
13.9912977397812
 20
21.4537829531901
 42
0.0
  0
VERTEX
  8
0
 10
14.0166469574106
 20
21.117169224763
 42
0.0
  0
VERTEX
  8
0
 10
14.0798420861224
 20
20.7860289123936
 42
0.0
  0
VERTEX
  8
0
 10
14.1789441656031
 20
20.4654943662124
 42
0.0
  0
VERTEX
  8
0
 10
14.3129752848334
 20
20.1567166621502
 42
0.0
  0
VERTEX
  8
0
 10
14.4826286794674
 20
19.8643292020554
 42
0.0
  0
VERTEX
  8
0
 10
14.6823827580145
 20
19.5936042176158
 42
0.0
  0
VERTEX
  8
0
 10
14.9122005221912
 20
19.3475144723821
 42
0.0
  0
VERTEX
  8
0
 10
15.1678039219441
 20
19.1273218861225
 42
0.0
  0
VERTEX
  8
0
 10
15.4455458520028
 20
18.9376492466004
 42
0.0
  0
VERTEX
  8
0
 10
15.6681408004605
 20
18.8199215666762
 42
0.0
  0
VERTEX
  8
0
 10
15.7437529824715
 20
18.7807696679573
 42
0.0
  0
VERTEX
  8
0
 10
16.0562458470728
 20
18.6586657965268
 42
0.0
  0
VERTEX
  8
0
 10
16.3825043448612
 20
18.5712769033477
 42
0.0
  0
VERTEX
  8
0
 10
16.7148958809353
 20
18.521557177322
 42
0.0
  0
VERTEX
  8
0
 10
17.0512819760739
 20
18.5086987183189
 42
0.0
  0
VERTEX
  8
0
 10
17.3878328678242
 20
18.5342142621099
 42
0.0
  0
VERTEX
  8
0
 10
17.7188453991243
 20
18.5973882683614
 42
0.0
  0
VERTEX
  8
0
 10
17.9178276222827
 20
18.6593118706952
 42
0.0
  0
VERTEX
  8
0
 10
18.039320808457
 20
18.6963593976487
 42
0.0
  0
VERTEX
  8
0
 10
18.3478149438664
 20
18.83207543166
 42
0.0
  0
VERTEX
  8
0
 10
18.6393839954552
 20
18.9996547456597
 42
0.0
  0
VERTEX
  8
0
 10
18.9096960531612
 20
19.2005018246976
 42
0.0
  0
VERTEX
  8
0
 10
19.1576365237347
 20
19.4296611682816
 42
0.0
  0
VERTEX
  8
0
 10
19.3774579125787
 20
19.6850971804644
 42
0.0
  0
VERTEX
  8
0
 10
19.5656504934725
 20
19.9638819357321
 42
0.0
  0
VERTEX
  8
0
 10
19.5940621701414
 20
20.0173260362718
 42
0.0
  0
SEQEND
  0
POLYLINE
  8
0
 66
     1
 10
0.0
 20
0.0
 30
0.0
 70
     1
  0
VERTEX
  8
0
 10
25.1087847965618
 20
40.1933085461593
 42
0.0
  0
VERTEX
  8
0
 10
25.2544217121484
 20
40.3648119002793
 42
0.0
  0
VERTEX
  8
0
 10
25.3821585129364
 20
40.5499168805592
 42
0.0
  0
VERTEX
  8
0
 10
25.4866146561108
 20
40.7484914149919
 42
0.0
  0
VERTEX
  8
0
 10
25.5683023575597
 20
40.9577422733892
 42
0.0
  0
VERTEX
  8
0
 10
25.6259491136327
 20
41.1752880606852
 42
0.0
  0
VERTEX
  8
0
 10
25.6586731786454
 20
41.3969943535166
 42
0.0
  0
VERTEX
  8
0
 10
25.6680533545754
 20
41.6215569569917
 42
0.0
  0
VERTEX
  8
0
 10
25.6503248988688
 20
41.8445668406612
 42
0.0
  0
VERTEX
  8
0
 10
25.6097120015704
 20
42.0649046500381
 42
0.0
  0
VERTEX
  8
0
 10
25.5431891307319
 20
42.2797982320907
 42
0.0
  0
VERTEX
  8
0
 10
25.479782464603
 20
42.4239157802603
 42
0.0
  0
VERTEX
  8
0
 10
25.4535284393852
 20
42.486222054871
 42
0.0
  0
VERTEX
  8
0
 10
25.3402336327694
 20
42.6804588371803
 42
0.0
  0
VERTEX
  8
0
 10
25.2075025167301
 20
42.8600216471577
 42
0.0
  0
VERTEX
  8
0
 10
25.0540572805746
 20
43.0246992601996
 42
0.0
  0
VERTEX
  8
0
 10
24.8836522037851
 20
43.1710226179945
 42
0.0
  0
VERTEX
  8
0
 10
24.6986369901864
 20
43.2985218099802
 42
0.0
  0
VERTEX
  8
0
 10
24.5000624557537
 20
43.4029779531545
 42
0.0
  0
VERTEX
  8
0
 10
24.2898611621471
 20
43.4843065878787
 42
0.0
  0
VERTEX
  8
0
 10
24.0732658100604
 20
43.5423124106765
 42
0.0
  0
VERTEX
  8
0
 10
23.851559517229
 20
43.5750364756892
 42
0.0
  0
VERTEX
  8
0
 10
23.8303277231686
 20
43.5773331090895
 42
0.0
  0
VERTEX
  8
0
 10
23.6269969137539
 20
43.5844166516192
 42
0.0
  0
VERTEX
  8
0
 10
23.4023501526668
 20
43.5674274065184
 42
0.0
  0
VERTEX
  8
0
 10
23.182550943377
 20
43.5253888564059
 42
0.0
  0
VERTEX
  8
0
 10
22.9673299858408
 20
43.4590138276886
 42
0.0
  0
VERTEX
  8
0
 10
22.7626591913581
 20
43.3697438943079
 42
0.0
  0
VERTEX
  8
0
 10
22.5669069895536
 20
43.2561480964073
 42
0.0
  0
VERTEX
  8
0
 10
22.3871065707738
 20
43.1233272136868
 42
0.0
  0
VERTEX
  8
0
 10
22.2224553419307
 20
42.9712495549054
 42
0.0
  0
VERTEX
  8
0
 10
22.0764910508605
 20
42.7998940429065
 42
0.0
  0
VERTEX
  8
0
 10
21.9839462839774
 20
42.6660973978718
 42
0.0
  0
VERTEX
  8
0
 10
21.949081625556
 20
42.6146412205054
 42
0.0
  0
VERTEX
  8
0
 10
21.8443878735794
 20
42.4159769193916
 42
0.0
  0
VERTEX
  8
0
 10
21.7626104054493
 20
42.2069636697967
 42
0.0
  0
VERTEX
  8
0
 10
21.7062414600691
 20
41.9896291071042
 42
0.0
  0
VERTEX
  8
0
 10
21.6724771931659
 20
41.7678013563504
 42
0.0
  0
VERTEX
  8
0
 10
21.6640474524452
 20
41.5435978196
 42
0.0
  0
VERTEX
  8
0
 10
21.6808254729424
 20
41.3202288692058
 42
0.0
  0
VERTEX
  8
0
 10
21.7229274055374
 20
41.0988244737396
 42
0.0
  0
VERTEX
  8
0
 10
21.7493242678607
 20
41.0145788857039
 42
0.0
  0
VERTEX
  8
0
 10
21.7882622323641
 20
40.8834820582811
 42
0.0
  0
VERTEX
  8
0
 10
21.877621932426
 20
40.678573654996
 42
0.0
  0
VERTEX
  8
0
 10
21.9907688969207
 20
40.4840094972031
 42
0.0
  0
VERTEX
  8
0
 10
22.1239488463659
 20
40.303258643214
 42
0.0
  0
VERTEX
  8
0
 10
22.2773940825214
 20
40.1385810301721
 42
0.0
  0
VERTEX
  8
0
 10
22.4477093926297
 20
39.9924952811796
 42
0.0
  0
VERTEX
  8
0
 10
22.6327246062285
 20
39.8649960891939
 42
0.0
  0
VERTEX
  8
0
 10
22.832576951354
 20
39.7607511706232
 42
0.0
  0
VERTEX
  8
0
 10
23.0412892096642
 20
39.6804891219883
 42
0.0
  0
VERTEX
  8
0
 10
23.1201231676972
 20
39.6586827866509
 42
0.0
  0
VERTEX
  8
0
 10
23.2577367196297
 20
39.622155923707
 42
0.0
  0
VERTEX
  8
0
 10
23.479891845867
 20
39.5882438146826
 42
0.0
  0
VERTEX
  8
0
 10
23.7037680071339
 20
39.5799619160831
 42
0.0
  0
VERTEX
  8
0
 10
23.9285626103421
 20
39.5972785366674
 42
0.0
  0
VERTEX
  8
0
 10
24.1484515863131
 20
39.6390794779776
 42
0.0
  0
VERTEX
  8
0
 10
24.3641213772552
 20
39.7042664626832
 42
0.0
  0
VERTEX
  8
0
 10
24.5685809471344
 20
39.7948142067568
 42
0.0
  0
VERTEX
  8
0
 10
24.7645443735425
 20
39.9071321939645
 42
0.0
  0
VERTEX
  8
0
 10
24.9438959589163
 20
40.0411411206967
 42
0.0
  0
SEQEND
  0
POLYLINE
  8
0
 66
     1
 10
0.0
 20
0.0
 30
0.0
 70
     1
  0
VERTEX
  8
0
 10
32.4296702328237
 20
155.545375485476
 42
0.0
  0
VERTEX
  8
0
 10
32.3842808894672
 20
155.59149236826
 42
0.0
  0
VERTEX
  8
0
 10
32.0466751971451
 20
155.935309738019
 42
0.0
  0
VERTEX
  8
0
 10
31.8688911006877
 20
156.074501011104
 42
0.0
  0
VERTEX
  8
0
 10
31.6523217099623
 20
156.168086014395
 42
0.0
  0
VERTEX
  8
0
 10
31.6462019263387
 20
156.168760750907
 42
0.0
  0
VERTEX
  8
0
 10
31.4024373646677
 20
156.213515525159
 42
0.0
  0
VERTEX
  8
0
 10
31.1257591600731
 20
156.208908809537
 42
0.0
  0
VERTEX
  8
0
 10
30.8284807555584
 20
156.157420347662
 42
0.0
  0
VERTEX
  8
0
 10
30.5181159567254
 20
156.054829224325
 42
0.0
  0
VERTEX
  8
0
 10
30.201629264396
 20
155.910011575863
 42
0.0
  0
VERTEX
  8
0
 10
29.8887864305488
 20
155.724213126937
 42
0.0
  0
VERTEX
  8
0
 10
29.6829996599648
 20
155.570985455791
 42
0.0
  0
VERTEX
  8
0
 10
29.584479542991
 20
155.50036815641
 42
0.0
  0
VERTEX
  8
0
 10
29.2998735619114
 20
155.243780783528
 42
0.0
  0
VERTEX
  8
0
 10
28.8355392601651
 20
154.788419937629
 42
0.0
  0
VERTEX
  8
0
 10
28.6297002648317
 20
154.588470764867
 42
0.0
  0
VERTEX
  8
0
 10
28.3678206617728
 20
154.306800514537
 42
0.0
  0
VERTEX
  8
0
 10
28.1370523135307
 20
154.00918860771
 42
0.0
  0
VERTEX
  8
0
 10
28.1043578557742
 20
153.955294051449
 42
0.0
  0
VERTEX
  8
0
 10
27.9448006843774
 20
153.699247334594
 42
0.0
  0
VERTEX
  8
0
 10
27.791886730631
 20
153.386518591372
 42
0.0
  0
VERTEX
  8
0
 10
27.6858373140804
 20
153.078461838238
 42
0.0
  0
VERTEX
  8
0
 10
27.6269506818812
 20
152.781977798738
 42
0.0
  0
VERTEX
  8
0
 10
27.6249452411531
 20
152.697591405806
 42
0.0
  0
VERTEX
  8
0
 10
27.6177374663691
 20
152.506160627261
 42
0.0
  0
VERTEX
  8
0
 10
27.6568934122472
 20
152.254318893704
 42
0.0
  0
VERTEX
  8
0
 10
27.7447906424275
 20
152.037182538259
 42
0.0
  0
VERTEX
  8
0
 10
27.8797447577319
 20
151.855472818198
 42
0.0
  0
VERTEX
  8
0
 10
27.9920406106895
 20
151.741500651752
 42
0.0
  0
VERTEX
  8
0
 10
28.2633021543779
 20
151.46412188951
 42
0.0
  0
VERTEX
  8
0
 10
28.441854499161
 20
151.326849985985
 42
0.0
  0
VERTEX
  8
0
 10
28.6570932805934
 20
151.23276228928
 42
0.0
  0
VERTEX
  8
0
 10
28.9070251476484
 20
151.187350731852
 42
0.0
  0
VERTEX
  8
0
 10
29.1485238912826
 20
151.191428462626
 42
0.0
  0
VERTEX
  8
0
 10
29.1837931189242
 20
151.191719838672
 42
0.0
  0
VERTEX
  8
0
 10
29.4822410834101
 20
151.243921672759
 42
0.0
  0
VERTEX
  8
0
 10
29.7917716281164
 20
151.344840012007
 42
0.0
  0
VERTEX
  8
0
 10
30.1079230146013
 20
151.490617072345
 42
0.0
  0
VERTEX
  8
0
 10
30.420652320887
 20
151.676644153406
 42
0.0
  0
VERTEX
  8
0
 10
30.7249829693251
 20
151.900498100601
 42
0.0
  0
VERTEX
  8
0
 10
30.982192836711
 20
152.13207325952
 42
0.0
  0
VERTEX
  8
0
 10
31.0095889504047
 20
152.157085473483
 42
0.0
  0
VERTEX
  8
0
 10
31.6798520141656
 20
152.812157883341
 42
0.0
  0
VERTEX
  8
0
 10
31.941684095464
 20
153.093810180335
 42
0.0
  0
VERTEX
  8
0
 10
32.1724101987854
 20
153.391677649302
 42
0.0
  0
VERTEX
  8
0
 10
32.3646618279387
 20
153.701618922418
 42
0.0
  0
VERTEX
  8
0
 10
32.4848920286216
 20
153.948781710642
 42
0.0
  0
VERTEX
  8
0
 10
32.5176655483663
 20
154.014110056837
 42
0.0
  0
VERTEX
  8
0
 10
32.6241637983228
 20
154.320978765959
 42
0.0
  0
VERTEX
  8
0
 10
32.68083285911
 20
154.607664801332
 42
0.0
  0
VERTEX
  8
0
 10
32.683116436323
 20
154.617216219988
 42
0.0
  0
VERTEX
  8
0
 10
32.6878433413555
 20
154.741186873798
 42
0.0
  0
VERTEX
  8
0
 10
32.6930979001608
 20
154.894952761026
 42
0.0
  0
VERTEX
  8
0
 10
32.6526351058698
 20
155.146300777837
 42
0.0
  0
VERTEX
  8
0
 10
32.5646243481281
 20
155.363665765416
 42
0.0
  0
SEQEND
  0
POLYLINE
  8
0
 66
     1
 10
0.0
 20
0.0
 30
0.0
 70
     1
  0
VERTEX
  8
0
 10
30.377626786007
 20
138.618919755515
 42
0.0
  0
VERTEX
  8
0
 10
30.6465675384653
 20
138.566027416959
 42
0.0
  0
VERTEX
  8
0
 10
30.7706184515837
 20
138.561303681051
 42
0.0
  0
VERTEX
  8
0
 10
30.9243758928478
 20
138.555855866079
 42
0.0
  0
VERTEX
  8
0
 10
31.1743779854497
 20
138.596000246453
 42
0.0
  0
VERTEX
  8
0
 10
31.3745686480585
 20
138.674345876761
 42
0.0
  0
VERTEX
  8
0
 10
31.3920883169493
 20
138.682593797345
 42
0.0
  0
VERTEX
  8
0
 10
31.5735678580673
 20
138.814419907321
 42
0.0
  0
VERTEX
  8
0
 10
31.6189217693648
 20
138.858163396592
 42
0.0
  0
VERTEX
  8
0
 10
31.6588001547317
 20
138.896851535309
 42
0.0
  0
VERTEX
  8
0
 10
31.9647615278698
 20
139.190559648599
 42
0.0
  0
VERTEX
  8
0
 10
32.1029849582154
 20
139.366593340077
 42
0.0
  0
VERTEX
  8
0
 10
32.1966877649045
 20
139.578754276361
 42
0.0
  0
VERTEX
  8
0
 10
32.2410438659309
 20
139.823861593118
 42
0.0
  0
VERTEX
  8
0
 10
32.2368638451493
 20
140.096248039957
 42
0.0
  0
VERTEX
  8
0
 10
32.2187724956069
 20
140.202637918381
 42
0.0
  0
VERTEX
  8
0
 10
32.183886423485
 20
140.388483815718
 42
0.0
  0
VERTEX
  8
0
 10
32.084630344851
 20
140.694189389411
 42
0.0
  0
VERTEX
  8
0
 10
31.9393069244588
 20
141.004755892531
 42
0.0
  0
VERTEX
  8
0
 10
31.8464972541795
 20
141.156771758785
 42
0.0
  0
VERTEX
  8
0
 10
31.7522090720806
 20
141.312844928016
 42
0.0
  0
VERTEX
  8
0
 10
31.528186781616
 20
141.609427907182
 42
0.0
  0
VERTEX
  8
0
 10
31.4237029814157
 20
141.726079881965
 42
0.0
  0
VERTEX
  8
0
 10
31.2732912377718
 20
141.890274392345
 42
0.0
  0
VERTEX
  8
0
 10
30.6161227144236
 20
142.549699250089
 42
0.0
  0
VERTEX
  8
0
 10
30.3366005261936
 20
142.806036760509
 42
0.0
  0
VERTEX
  8
0
 10
30.0439653480277
 20
143.027009833652
 42
0.0
  0
VERTEX
  8
0
 10
30.0375788574764
 20
143.032199683214
 42
0.0
  0
VERTEX
  8
0
 10
29.7288605189402
 20
143.221573607439
 42
0.0
  0
VERTEX
  8
0
 10
29.4158683285232
 20
143.371591357116
 42
0.0
  0
VERTEX
  8
0
 10
29.1081833186103
 20
143.476369301222
 42
0.0
  0
VERTEX
  8
0
 10
28.8122843395498
 20
143.534282268035
 42
0.0
  0
VERTEX
  8
0
 10
28.7568763183385
 20
143.536700452124
 42
0.0
  0
VERTEX
  8
0
 10
28.5346555185297
 20
143.54397860131
 42
0.0
  0
VERTEX
  8
0
 10
28.2840488200397
 20
143.505506459221
 42
0.0
  0
VERTEX
  8
0
 10
28.0664044943412
 20
143.418666322859
 42
0.0
  0
VERTEX
  8
0
 10
27.8854635533102
 20
143.285414560069
 42
0.0
  0
VERTEX
  8
0
 10
27.7912892957222
 20
143.195531902751
 42
0.0
  0
VERTEX
  8
0
 10
27.4942038777067
 20
142.909521404262
 42
0.0
  0
VERTEX
  8
0
 10
27.3674990464215
 20
142.749786311031
 42
0.0
  0
VERTEX
  8
0
 10
27.3547633656294
 20
142.732756387234
 42
0.0
  0
VERTEX
  8
0
 10
27.2622776406721
 20
142.521326776499
 42
0.0
  0
VERTEX
  8
0
 10
27.2166146912328
 20
142.275725742996
 42
0.0
  0
VERTEX
  8
0
 10
27.2202561119274
 20
142.004764948971
 42
0.0
  0
VERTEX
  8
0
 10
27.273413066954
 20
141.712053955605
 42
0.0
  0
VERTEX
  8
0
 10
27.3014335692915
 20
141.630050897182
 42
0.0
  0
VERTEX
  8
0
 10
27.3738862273197
 20
141.407079707461
 42
0.0
  0
VERTEX
  8
0
 10
27.5190961201505
 20
141.096741836475
 42
0.0
  0
VERTEX
  8
0
 10
27.7061042058475
 20
140.788890409793
 42
0.0
  0
VERTEX
  8
0
 10
27.9294717755477
 20
140.490159428931
 42
0.0
  0
VERTEX
  8
0
 10
28.1843435585117
 20
140.2093039671
 42
0.0
  0
VERTEX
  8
0
 10
28.2737335000861
 20
140.120889895707
 42
0.0
  0
VERTEX
  8
0
 10
28.41471714909
 20
139.977842022929
 42
0.0
  0
VERTEX
  8
0
 10
28.8414460760589
 20
139.550125694828
 42
0.0
  0
VERTEX
  8
0
 10
29.1224308851839
 20
139.293797706881
 42
0.0
  0
VERTEX
  8
0
 10
29.3225293433237
 20
139.14240095243
 42
0.0
  0
VERTEX
  8
0
 10
29.4213865481001
 20
139.067881369646
 42
0.0
  0
VERTEX
  8
0
 10
29.7301946533176
 20
138.878269836619
 42
0.0
  0
VERTEX
  8
0
 10
30.0413651561148
 20
138.729192999678
 42
0.0
  0
VERTEX
  8
0
 10
30.1562843534972
 20
138.690065875786
 42
0.0
  0
VERTEX
  8
0
 10
30.3508480927672
 20
138.623465166168
 42
0.0
  0
SEQEND
  0
POLYLINE
  8
0
 66
     1
 10
0.0
 20
0.0
 30
0.0
 70
     1
  0
VERTEX
  8
0
 10
27.484288820934
 20
148.152936824855
 42
0.0
  0
VERTEX
  8
0
 10
27.457192097783
 20
148.255924546062
 42
0.0
  0
VERTEX
  8
0
 10
27.3445568918217
 20
148.698310039955
 42
0.0
  0
VERTEX
  8
0
 10
27.1305246600149
 20
149.218056899787
 42
0.0
  0
VERTEX
  8
0
 10
26.84571678696
 20
149.702919637727
 42
0.0
  0
VERTEX
  8
0
 10
26.4964458874515
 20
150.143879187566
 42
0.0
  0
VERTEX
  8
0
 10
26.0890060922438
 20
150.5321810219
 42
0.0
  0
VERTEX
  8
0
 10
25.6330418464067
 20
150.857892637595
 42
0.0
  0
VERTEX
  8
0
 10
25.1339284461183
 20
151.118428905246
 42
0.0
  0
VERTEX
  8
0
 10
24.6043516989156
 20
151.307450021173
 42
0.0
  0
VERTEX
  8
0
 10
24.0947853838903
 20
151.412528026753
 42
0.0
  0
VERTEX
  8
0
 10
24.0535388472985
 20
151.420296305039
 42
0.0
  0
VERTEX
  8
0
 10
23.4922193158586
 20
151.45559080801
 42
0.0
  0
VERTEX
  8
0
 10
22.9307687393026
 20
151.413180531935
 42
0.0
  0
VERTEX
  8
0
 10
22.5307772961732
 20
151.325603135197
 42
0.0
  0
VERTEX
  8
0
 10
22.3825355158876
 20
151.292949476948
 42
0.0
  0
VERTEX
  8
0
 10
21.8555772375341
 20
151.096855648309
 42
0.0
  0
VERTEX
  8
0
 10
21.3616265022381
 20
150.829060004595
 42
0.0
  0
VERTEX
  8
0
 10
20.9073283959014
 20
150.495331268571
 42
0.0
  0
VERTEX
  8
0
 10
20.5062582812959
 20
150.102427233915
 42
0.0
  0
VERTEX
  8
0
 10
20.1637174278296
 20
149.656151984258
 42
0.0
  0
VERTEX
  8
0
 10
19.8855878593105
 20
149.167959446095
 42
0.0
  0
VERTEX
  8
0
 10
19.6780473441939
 20
148.645070925008
 42
0.0
  0
VERTEX
  8
0
 10
19.545694818755
 20
148.098455607413
 42
0.0
  0
VERTEX
  8
0
 10
19.5096433891491
 20
147.729956510051
 42
0.0
  0
VERTEX
  8
0
 10
19.4918566854158
 20
147.539144970593
 42
0.0
  0
VERTEX
  8
0
 10
19.5146266761073
 20
146.975922109374
 42
0.0
  0
VERTEX
  8
0
 10
19.6170592094839
 20
146.424060098614
 42
0.0
  0
VERTEX
  8
0
 10
19.7938951100449
 20
145.889717722228
 42
0.0
  0
VERTEX
  8
0
 10
20.0151656040844
 20
145.444387208104
 42
0.0
  0
VERTEX
  8
0
 10
20.0439329453619
 20
145.387646316713
 42
0.0
  0
VERTEX
  8
0
 10
20.3610608017668
 20
144.922596420699
 42
0.0
  0
VERTEX
  8
0
 10
20.7179926845392
 20
144.531504421749
 42
0.0
  0
VERTEX
  8
0
 10
20.7403837567155
 20
144.507380956178
 42
0.0
  0
VERTEX
  8
0
 10
21.1735563435952
 20
144.148350340912
 42
0.0
  0
VERTEX
  8
0
 10
21.6526713151144
 20
143.855007289579
 42
0.0
  0
VERTEX
  8
0
 10
22.1678704688891
 20
143.629872457489
 42
0.0
  0
VERTEX
  8
0
 10
22.7086725126069
 20
143.477403277045
 42
0.0
  0
VERTEX
  8
0
 10
23.2670672854997
 20
143.402990754134
 42
0.0
  0
VERTEX
  8
0
 10
23.8295558936679
 20
143.407508598369
 42
0.0
  0
VERTEX
  8
0
 10
24.3849944540792
 20
143.489190438341
 42
0.0
  0
VERTEX
  8
0
 10
24.9247392529653
 20
143.647485968266
 42
0.0
  0
VERTEX
  8
0
 10
25.3569914865054
 20
143.844727602316
 42
0.0
  0
VERTEX
  8
0
 10
25.4363210748405
 20
143.880399638793
 42
0.0
  0
VERTEX
  8
0
 10
25.9114711635861
 20
144.182363883482
 42
0.0
  0
VERTEX
  8
0
 10
26.3398086982636
 20
144.545927127195
 42
0.0
  0
VERTEX
  8
0
 10
26.5844642864714
 20
144.822447893845
 42
0.0
  0
VERTEX
  8
0
 10
26.7138754160009
 20
144.967185610913
 42
0.0
  0
VERTEX
  8
0
 10
27.0233354245041
 20
145.434903426193
 42
0.0
  0
VERTEX
  8
0
 10
27.2676343837749
 20
145.942354621613
 42
0.0
  0
VERTEX
  8
0
 10
27.4366581798027
 20
146.477572508988
 42
0.0
  0
VERTEX
  8
0
 10
27.5307791771209
 20
147.031737541015
 42
0.0
  0
VERTEX
  8
0
 10
27.5464729559047
 20
147.59455799682
 42
0.0
  0
SEQEND
  0
POLYLINE
  8
0
 66
     1
 10
0.0
 20
0.0
 30
0.0
 70
     1
  0
VERTEX
  8
0
 10
14.7735196528332
 20
155.084188227534
 42
0.0
  0
VERTEX
  8
0
 10
14.7744874588985
 20
154.960739857892
 42
0.0
  0
VERTEX
  8
0
 10
14.7778766138614
 20
154.807524276447
 42
0.0
  0
VERTEX
  8
0
 10
14.82976637228
 20
154.510261717553
 42
0.0
  0
VERTEX
  8
0
 10
14.8518174356229
 20
154.44039411558
 42
0.0
  0
VERTEX
  8
0
 10
14.9297617521278
 20
154.198861963467
 42
0.0
  0
VERTEX
  8
0
 10
15.0161009252573
 20
154.013448096058
 42
0.0
  0
VERTEX
  8
0
 10
15.0764079118575
 20
153.884722351643
 42
0.0
  0
VERTEX
  8
0
 10
15.2628906952762
 20
153.570427465682
 42
0.0
  0
VERTEX
  8
0
 10
15.4863216776615
 20
153.267647612707
 42
0.0
  0
VERTEX
  8
0
 10
15.7414364066729
 20
152.982268061158
 42
0.0
  0
VERTEX
  8
0
 10
16.0240743163697
 20
152.694253491848
 42
0.0
  0
VERTEX
  8
0
 10
16.3985918738338
 20
152.311162828011
 42
0.0
  0
VERTEX
  8
0
 10
16.678333247231
 20
152.050292251204
 42
0.0
  0
VERTEX
  8
0
 10
16.9774420895135
 20
151.820089433054
 42
0.0
  0
VERTEX
  8
0
 10
17.2865591465793
 20
151.625707224838
 42
0.0
  0
VERTEX
  8
0
 10
17.5998443979201
 20
151.474985625422
 42
0.0
  0
VERTEX
  8
0
 10
17.9067611595072
 20
151.368288311756
 42
0.0
  0
VERTEX
  8
0
 10
18.1538074365771
 20
151.318799860599
 42
0.0
  0
VERTEX
  8
0
 10
18.1696718950232
 20
151.31583310091
 42
0.0
  0
VERTEX
  8
0
 10
18.2030192052925
 20
151.309424909733
 42
0.0
  0
VERTEX
  8
0
 10
18.4808750814354
 20
151.299271312189
 42
0.0
  0
VERTEX
  8
0
 10
18.7296600923056
 20
151.338684367015
 42
0.0
  0
VERTEX
  8
0
 10
18.9493742379031
 20
151.427664074209
 42
0.0
  0
VERTEX
  8
0
 10
19.129776578847
 20
151.562341489813
 42
0.0
  0
VERTEX
  8
0
 10
19.3234289565468
 20
151.751713174725
 42
0.0
  0
VERTEX
  8
0
 10
19.5216513234099
 20
151.944440496096
 42
0.0
  0
VERTEX
  8
0
 10
19.658934842023
 20
152.123105837737
 42
0.0
  0
VERTEX
  8
0
 10
19.7529755476724
 20
152.338109648787
 42
0.0
  0
VERTEX
  8
0
 10
19.7966873910059
 20
152.588947052609
 42
0.0
  0
VERTEX
  8
0
 10
19.7947473175079
 20
152.769590756117
 42
0.0
  0
VERTEX
  8
0
 10
19.7940623509163
 20
152.864907699763
 42
0.0
  0
VERTEX
  8
0
 10
19.740350904878
 20
153.163111171392
 42
0.0
  0
VERTEX
  8
0
 10
19.6410076526786
 20
153.47285664053
 42
0.0
  0
VERTEX
  8
0
 10
19.4949924528331
 20
153.78913527738
 42
0.0
  0
VERTEX
  8
0
 10
19.3899455668011
 20
153.965852390799
 42
0.0
  0
VERTEX
  8
0
 10
19.3086892027767
 20
154.102954945737
 42
0.0
  0
VERTEX
  8
0
 10
19.0851024479093
 20
154.406218992984
 42
0.0
  0
VERTEX
  8
0
 10
18.8301672522603
 20
154.691123326929
 42
0.0
  0
VERTEX
  8
0
 10
18.6119382760161
 20
154.913868833592
 42
0.0
  0
VERTEX
  8
0
 10
18.1730117850994
 20
155.362228560076
 42
0.0
  0
VERTEX
  8
0
 10
17.9185629647882
 20
155.598985739591
 42
0.0
  0
VERTEX
  8
0
 10
17.8931568841407
 20
155.623327769017
 42
0.0
  0
VERTEX
  8
0
 10
17.5940718027385
 20
155.853539563836
 42
0.0
  0
VERTEX
  8
0
 10
17.2850207514736
 20
156.047675186581
 42
0.0
  0
VERTEX
  8
0
 10
16.9715797276507
 20
156.19888098027
 42
0.0
  0
VERTEX
  8
0
 10
16.6629072842448
 20
156.306272621201
 42
0.0
  0
VERTEX
  8
0
 10
16.3684946869595
 20
156.364204087157
 42
0.0
  0
VERTEX
  8
0
 10
16.2461756947797
 20
156.368224519132
 42
0.0
  0
VERTEX
  8
0
 10
16.0907285774978
 20
156.374120075898
 42
0.0
  0
VERTEX
  8
0
 10
15.8401218790078
 20
156.335647933808
 42
0.0
  0
VERTEX
  8
0
 10
15.6222056601498
 20
156.24571833721
 42
0.0
  0
VERTEX
  8
0
 10
15.4416237858436
 20
156.111516139211
 42
0.0
  0
VERTEX
  8
0
 10
15.3005828811868
 20
155.974060230169
 42
0.0
  0
VERTEX
  8
0
 10
15.0637414556092
 20
155.743120533491
 42
0.0
  0
VERTEX
  8
0
 10
15.0485557204292
 20
155.728694784047
 42
0.0
  0
VERTEX
  8
0
 10
14.9108471292904
 20
155.551226463086
 42
0.0
  0
VERTEX
  8
0
 10
14.8177700962538
 20
155.333599978542
 42
0.0
  0
SEQEND
  0
POLYLINE
  8
0
 66
     1
 10
0.0
 20
0.0
 30
0.0
 70
     1
  0
VERTEX
  8
0
 10
15.5344902199036
 20
138.76376652799
 42
0.0
  0
VERTEX
  8
0
 10
15.7229317334476
 20
138.681819838555
 42
0.0
  0
VERTEX
  8
0
 10
15.9669048662009
 20
138.636872338842
 42
0.0
  0
VERTEX
  8
0
 10
16.2396862864372
 20
138.640006880893
 42
0.0
  0
VERTEX
  8
0
 10
16.3677894241666
 20
138.663151669591
 42
0.0
  0
VERTEX
  8
0
 10
16.5320567122203
 20
138.692627889354
 42
0.0
  0
VERTEX
  8
0
 10
16.8372416391622
 20
138.793262099041
 42
0.0
  0
VERTEX
  8
0
 10
16.9607980653658
 20
138.852159202941
 42
0.0
  0
VERTEX
  8
0
 10
17.1477273522693
 20
138.938799367356
 42
0.0
  0
VERTEX
  8
0
 10
17.4556146856243
 20
139.125712409532
 42
0.0
  0
VERTEX
  8
0
 10
17.7538070663983
 20
139.350505632046
 42
0.0
  0
VERTEX
  8
0
 10
18.0333176654284
 20
139.604624967001
 42
0.0
  0
VERTEX
  8
0
 10
18.1554423767085
 20
139.726245789703
 42
0.0
  0
VERTEX
  8
0
 10
18.692935794439
 20
140.260563201416
 42
0.0
  0
VERTEX
  8
0
 10
18.949281735722
 20
140.541500488781
 42
0.0
  0
VERTEX
  8
0
 10
19.0790146316658
 20
140.71269739356
 42
0.0
  0
VERTEX
  8
0
 10
19.1754721342372
 20
140.839012014843
 42
0.0
  0
VERTEX
  8
0
 10
19.3648275593204
 20
141.149216735154
 42
0.0
  0
VERTEX
  8
0
 10
19.5146077001945
 20
141.46211915889
 42
0.0
  0
VERTEX
  8
0
 10
19.5697734355027
 20
141.624423251136
 42
0.0
  0
VERTEX
  8
0
 10
19.5973457645787
 20
141.703806423341
 42
0.0
  0
VERTEX
  8
0
 10
19.6193317842918
 20
141.769946734084
 42
0.0
  0
VERTEX
  8
0
 10
19.677138623201
 20
142.065479792569
 42
0.0
  0
VERTEX
  8
0
 10
19.6870303203576
 20
142.343453942409
 42
0.0
  0
VERTEX
  8
0
 10
19.6484367354468
 20
142.593878999821
 42
0.0
  0
VERTEX
  8
0
 10
19.5612364709516
 20
142.812907794821
 42
0.0
  0
VERTEX
  8
0
 10
19.4286003984333
 20
142.992506511471
 42
0.0
  0
VERTEX
  8
0
 10
19.4006570898325
 20
143.023492610694
 42
0.0
  0
VERTEX
  8
0
 10
19.0525646773447
 20
143.383712327066
 42
0.0
  0
VERTEX
  8
0
 10
18.9241854223953
 20
143.485634832091
 42
0.0
  0
VERTEX
  8
0
 10
18.8777190298781
 20
143.522384590817
 42
0.0
  0
VERTEX
  8
0
 10
18.6643969795864
 20
143.61556728146
 42
0.0
  0
VERTEX
  8
0
 10
18.4203340801519
 20
143.660752389976
 42
0.0
  0
VERTEX
  8
0
 10
18.1475526599156
 20
143.657617847924
 42
0.0
  0
VERTEX
  8
0
 10
17.8552720008137
 20
143.604759230661
 42
0.0
  0
VERTEX
  8
0
 10
17.7925960453934
 20
143.583795981577
 42
0.0
  0
VERTEX
  8
0
 10
17.5499973071906
 20
143.504362629776
 42
0.0
  0
VERTEX
  8
0
 10
17.2396013607647
 20
143.358587752659
 42
0.0
  0
VERTEX
  8
0
 10
16.9316242607284
 20
143.171912319286
 42
0.0
  0
VERTEX
  8
0
 10
16.8707914023137
 20
143.126665359995
 42
0.0
  0
VERTEX
  8
0
 10
16.6328932798674
 20
142.948544749585
 42
0.0
  0
VERTEX
  8
0
 10
16.3527332369127
 20
142.692550928411
 42
0.0
  0
VERTEX
  8
0
 10
15.6943929185949
 20
142.036823918599
 42
0.0
  0
VERTEX
  8
0
 10
15.4379572106308
 20
141.756124240036
 42
0.0
  0
VERTEX
  8
0
 10
15.2787400480673
 20
141.545821659583
 42
0.0
  0
VERTEX
  8
0
 10
15.2117668121156
 20
141.458612713975
 42
0.0
  0
VERTEX
  8
0
 10
15.1981177246005
 20
141.435807273966
 42
0.0
  0
VERTEX
  8
0
 10
15.0212233430207
 20
141.147959160257
 42
0.0
  0
VERTEX
  8
0
 10
14.8727210128394
 20
140.835267961125
 42
0.0
  0
VERTEX
  8
0
 10
14.767907162061
 20
140.527677994733
 42
0.0
  0
VERTEX
  8
0
 10
14.7089360400204
 20
140.231705079511
 42
0.0
  0
VERTEX
  8
0
 10
14.7068037739222
 20
140.155416430805
 42
0.0
  0
VERTEX
  8
0
 10
14.69983107523
 20
139.955385760425
 42
0.0
  0
VERTEX
  8
0
 10
14.7239795205752
 20
139.793721555112
 42
0.0
  0
VERTEX
  8
0
 10
14.7390345428686
 20
139.703561980203
 42
0.0
  0
VERTEX
  8
0
 10
14.8260499971617
 20
139.484734887332
 42
0.0
  0
VERTEX
  8
0
 10
14.9573554603869
 20
139.304633477268
 42
0.0
  0
VERTEX
  8
0
 10
15.0634258721151
 20
139.195640481586
 42
0.0
  0
VERTEX
  8
0
 10
15.3349118778104
 20
138.914002168433
 42
0.0
  0
VERTEX
  8
0
 10
15.3879047028417
 20
138.870757819447
 42
0.0
  0
VERTEX
  8
0
 10
15.5095199164747
 20
138.775240138
 42
0.0
  0
SEQEND
  0
POLYLINE
  8
0
 66
     1
 10
0.0
 20
0.0
 30
0.0
 70
     1
  0
VERTEX
  8
0
 10
22.052773252593
 20
99.9704648389785
 42
0.0
  0
VERTEX
  8
0
 10
21.9898199718455
 20
100.172316321101
 42
0.0
  0
VERTEX
  8
0
 10
21.9738521166799
 20
100.210270346993
 42
0.0
  0
VERTEX
  8
0
 10
21.9046582286428
 20
100.36251936284
 42
0.0
  0
VERTEX
  8
0
 10
21.7957092210073
 20
100.542378159086
 42
0.0
  0
VERTEX
  8
0
 10
21.6643247561992
 20
100.706158407343
 42
0.0
  0
VERTEX
  8
0
 10
21.5155263103088
 20
100.854942614827
 42
0.0
  0
VERTEX
  8
0
 10
21.3493298044634
 20
100.982220270151
 42
0.0
  0
VERTEX
  8
0
 10
21.1690617618958
 20
101.089248106852
 42
0.0
  0
VERTEX
  8
0
 10
20.9758310740214
 20
101.172372226213
 42
0.0
  0
VERTEX
  8
0
 10
20.7752875836988
 20
101.231011873835
 42
0.0
  0
VERTEX
  8
0
 10
20.568027966455
 20
101.26430638119
 42
0.0
  0
VERTEX
  8
0
 10
20.3584189474134
 20
101.273633939735
 42
0.0
  0
VERTEX
  8
0
 10
20.1488789199235
 20
101.254749282272
 42
0.0
  0
VERTEX
  8
0
 10
19.9442445196708
 20
101.211380304082
 42
0.0
  0
VERTEX
  8
0
 10
19.7443942887329
 20
101.144567207057
 42
0.0
  0
VERTEX
  8
0
 10
19.6190320658342
 20
101.082544190443
 42
0.0
  0
VERTEX
  8
0
 10
19.5565251807048
 20
101.053227634994
 42
0.0
  0
VERTEX
  8
0
 10
19.3803678955431
 20
100.938074414299
 42
0.0
  0
VERTEX
  8
0
 10
19.2195129494816
 20
100.801821622564
 42
0.0
  0
VERTEX
  8
0
 10
19.0774294008318
 20
100.648223539271
 42
0.0
  0
VERTEX
  8
0
 10
18.9541119425512
 20
100.479450334884
 42
0.0
  0
VERTEX
  8
0
 10
18.8545873577727
 20
100.294414346156
 42
0.0
  0
VERTEX
  8
0
 10
18.7763421794231
 20
100.099768619552
 42
0.0
  0
VERTEX
  8
0
 10
18.723325990461
 20
99.8972767974556
 42
0.0
  0
VERTEX
  8
0
 10
18.6961301593711
 20
99.6882483818004
 42
0.0
  0
VERTEX
  8
0
 10
18.6942952386627
 20
99.4782117575227
 42
0.0
  0
VERTEX
  8
0
 10
18.7183175230966
 20
99.2708842058211
 42
0.0
  0
VERTEX
  8
0
 10
18.7688781478388
 20
99.0673376198274
 42
0.0
  0
VERTEX
  8
0
 10
18.8429356598139
 20
98.8713103578967
 42
0.0
  0
VERTEX
  8
0
 10
18.9395026255289
 20
98.6854161168546
 42
0.0
  0
VERTEX
  8
0
 10
19.0591070309861
 20
98.5125695848118
 42
0.0
  0
VERTEX
  8
0
 10
19.1997212408018
 20
98.3552630006715
 42
0.0
  0
VERTEX
  8
0
 10
19.3574378263302
 20
98.2188082177239
 42
0.0
  0
VERTEX
  8
0
 10
19.5316390348879
 20
98.100528156661
 42
0.0
  0
VERTEX
  8
0
 10
19.7190404975547
 20
98.0062415796188
 42
0.0
  0
VERTEX
  8
0
 10
19.9154233313286
 20
97.934897670622
 42
0.0
  0
VERTEX
  8
0
 10
20.1201591694412
 20
97.8881596912868
 42
0.0
  0
VERTEX
  8
0
 10
20.328849595528
 20
97.8654520432427
 42
0.0
  0
VERTEX
  8
0
 10
20.5389864495584
 20
97.8712576024927
 42
0.0
  0
VERTEX
  8
0
 10
20.7467416064962
 20
97.902772524764
 42
0.0
  0
VERTEX
  8
0
 10
20.8136470590035
 20
97.9204462488988
 42
0.0
  0
VERTEX
  8
0
 10
20.9487040834698
 20
97.9568075148601
 42
0.0
  0
VERTEX
  8
0
 10
21.1431683135368
 20
98.0378771400255
 42
0.0
  0
VERTEX
  8
0
 10
21.3250019767693
 20
98.1415987540095
 42
0.0
  0
VERTEX
  8
0
 10
21.4946855978144
 20
98.2659817197122
 42
0.0
  0
VERTEX
  8
0
 10
21.6462155741313
 20
98.4103870562805
 42
0.0
  0
VERTEX
  8
0
 10
21.6981404539527
 20
98.475619539167
 42
0.0
  0
VERTEX
  8
0
 10
21.7790586126752
 20
98.5740702460662
 42
0.0
  0
VERTEX
  8
0
 10
21.8904637885842
 20
98.7513761391682
 42
0.0
  0
VERTEX
  8
0
 10
21.9804627930994
 20
98.9415021424983
 42
0.0
  0
VERTEX
  8
0
 10
22.045290883667
 20
99.1400392256071
 42
0.0
  0
VERTEX
  8
0
 10
22.0858140358576
 20
99.3454138935595
 42
0.0
  0
VERTEX
  8
0
 10
22.0991545598445
 20
99.5551813688071
 42
0.0
  0
VERTEX
  8
0
 10
22.0894258018346
 20
99.7649221578291
 42
0.0
  0
SEQEND
  0
POLYLINE
  8
0
 66
     1
 10
0.0
 20
0.0
 30
0.0
 70
     1
  0
VERTEX
  8
0
 10
15.1248858244708
 20
60.3064417674429
 42
0.0
  0
VERTEX
  8
0
 10
15.3931913368937
 20
63.1610377618358
 42
0.0
  0
VERTEX
  8
0
 10
15.4382310410764
 20
63.6347532793472
 42
0.0
  0
VERTEX
  8
0
 10
15.5828343562155
 20
65.408117041707
 42
0.0
  0
VERTEX
  8
0
 10
15.7354887783282
 20
67.2809127313361
 42
0.0
  0
VERTEX
  8
0
 10
16.003454683182
 20
71.1253493723679
 42
0.0
  0
VERTEX
  8
0
 10
16.1718008863869
 20
73.9362080668822
 42
0.0
  0
VERTEX
  8
0
 10
16.2210130908838
 20
74.7460149358877
 42
0.0
  0
VERTEX
  8
0
 10
16.2436182439743
 20
75.1303413272971
 42
0.0
  0
VERTEX
  8
0
 10
16.4517610307432
 20
79.258182491092
 42
0.0
  0
VERTEX
  8
0
 10
16.6250111137446
 20
83.467602626686
 42
0.0
  0
VERTEX
  8
0
 10
16.7626614266539
 20
87.719506974517
 42
0.0
  0
VERTEX
  8
0
 10
16.7793536715384
 20
88.4551210666854
 42
0.0
  0
VERTEX
  8
0
 10
16.8555598453526
 20
91.7082340309177
 42
0.0
  0
VERTEX
  8
0
 10
16.8617502730459
 20
91.9728629063206
 42
0.0
  0
VERTEX
  8
0
 10
16.9255888590796
 20
96.1865639482785
 42
0.0
  0
VERTEX
  8
0
 10
16.9493146179108
 20
100.318859338677
 42
0.0
  0
VERTEX
  8
0
 10
16.9350454046446
 20
104.330363940754
 42
0.0
  0
VERTEX
  8
0
 10
16.8807646510224
 20
108.182574363432
 42
0.0
  0
VERTEX
  8
0
 10
16.8716832227495
 20
108.56524765427
 42
0.0
  0
VERTEX
  8
0
 10
16.8547678447759
 20
109.221642186468
 42
0.0
  0
VERTEX
  8
0
 10
16.7945384574914
 20
111.616247732179
 42
0.0
  0
VERTEX
  8
0
 10
16.7892026577902
 20
111.84095271972
 42
0.0
  0
VERTEX
  8
0
 10
16.7451779146864
 20
112.982361549067
 42
0.0
  0
VERTEX
  8
0
 10
16.6601592674694
 20
115.26578119033
 42
0.0
  0
VERTEX
  8
0
 10
16.6435068038298
 20
115.583687205854
 42
0.0
  0
VERTEX
  8
0
 10
16.5025181886423
 20
118.264648658696
 42
0.0
  0
VERTEX
  8
0
 10
16.4948017489423
 20
118.42953400146
 42
0.0
  0
VERTEX
  8
0
 10
16.3084562367065
 20
121.09471759557
 42
0.0
  0
VERTEX
  8
0
 10
16.3046220495609
 20
121.155176070186
 42
0.0
  0
VERTEX
  8
0
 10
16.3039142281695
 20
121.177173459051
 42
0.0
  0
VERTEX
  8
0
 10
16.2944083659418
 20
121.295767088658
 42
0.0
  0
VERTEX
  8
0
 10
16.0621897928478
 20
123.840170357518
 42
0.0
  0
VERTEX
  8
0
 10
16.0567769547379
 20
123.889714597341
 42
0.0
  0
VERTEX
  8
0
 10
16.0423921514986
 20
124.009723265677
 42
0.0
  0
VERTEX
  8
0
 10
15.9907077928809
 20
124.563380122502
 42
0.0
  0
VERTEX
  8
0
 10
15.7669419576913
 20
126.325735352985
 42
0.0
  0
VERTEX
  8
0
 10
15.5933007931239
 20
127.69811525528
 42
0.0
  0
VERTEX
  8
0
 10
15.4497793595744
 20
128.533671376419
 42
0.0
  0
VERTEX
  8
0
 10
14.939714290427
 20
132.465391002773
 42
0.0
  0
VERTEX
  8
0
 10
14.7429915686306
 20
133.976487286307
 42
0.0
  0
VERTEX
  8
0
 10
14.6156944110042
 20
134.960993341352
 42
0.0
  0
VERTEX
  8
0
 10
14.6129642612717
 20
134.983312798658
 42
0.0
  0
VERTEX
  8
0
 10
14.5165804963875
 20
135.726439246699
 42
0.0
  0
VERTEX
  8
0
 10
14.5073498452994
 20
135.793276160695
 42
0.0
  0
VERTEX
  8
0
 10
14.5061618012877
 20
135.792827327289
 42
0.0
  0
VERTEX
  8
0
 10
14.4903792395672
 20
135.791480676058
 42
0.0
  0
VERTEX
  8
0
 10
14.4809012716723
 20
135.789257586185
 42
0.0
  0
VERTEX
  8
0
 10
13.7195032374352
 20
136.283862248346
 42
0.0
  0
VERTEX
  8
0
 10
13.5069937902629
 20
136.421610008047
 42
0.0
  0
VERTEX
  8
0
 10
11.0264320198378
 20
138.031349540568
 42
0.0
  0
VERTEX
  8
0
 10
11.1322247826387
 20
146.715760795058
 42
0.0
  0
VERTEX
  8
0
 10
11.136228212662
 20
147.060205452917
 42
0.0
  0
VERTEX
  8
0
 10
7.7499149121751
 20
157.938278016372
 42
0.0
  0
VERTEX
  8
0
 10
13.8237915399992
 20
162.238128849866
 42
0.0
  0
VERTEX
  8
0
 10
15.2751925749679
 20
163.266507174097
 42
0.0
  0
VERTEX
  8
0
 10
15.8004299649905
 20
163.638711639857
 42
0.0
  0
VERTEX
  8
0
 10
17.3437957977123
 20
164.7317009319
 42
0.0
  0
VERTEX
  8
0
 10
18.9578657646787
 20
163.527988539711
 42
0.0
  0
VERTEX
  8
0
 10
19.737510679319
 20
162.94605929235
 42
0.0
  0
VERTEX
  8
0
 10
22.556590798037
 20
160.845410777477
 42
0.0
  0
VERTEX
  8
0
 10
23.8667011694396
 20
161.651252472469
 42
0.0
  0
VERTEX
  8
0
 10
25.0939688414288
 20
160.855314037946
 42
0.0
  0
VERTEX
  8
0
 10
28.1541887621817
 20
163.021773432138
 42
0.0
  0
VERTEX
  8
0
 10
29.3560435061443
 20
163.872246434981
 42
0.0
  0
VERTEX
  8
0
 10
30.1977191002501
 20
164.467448545853
 42
0.0
  0
VERTEX
  8
0
 10
30.3427971540657
 20
164.57086028465
 42
0.0
  0
VERTEX
  8
0
 10
33.822515484385
 20
161.97718306407
 42
0.0
  0
VERTEX
  8
0
 10
37.3538431714369
 20
159.344354704153
 42
0.0
  0
VERTEX
  8
0
 10
39.7672753505165
 20
157.545526433413
 42
0.0
  0
VERTEX
  8
0
 10
38.0437495192761
 20
152.45310816488
 42
0.0
  0
VERTEX
  8
0
 10
36.2389120181573
 20
147.123614341101
 42
0.0
  0
VERTEX
  8
0
 10
36.1247970491225
 20
137.845227310277
 42
0.0
  0
VERTEX
  8
0
 10
33.5061451586689
 20
136.182818975711
 42
0.0
  0
VERTEX
  8
0
 10
33.2881767150616
 20
136.046167877497
 42
0.0
  0
VERTEX
  8
0
 10
32.6334582978775
 20
135.630748488792
 42
0.0
  0
VERTEX
  8
0
 10
32.4670640205653
 20
135.525257135798
 42
0.0
  0
VERTEX
  8
0
 10
32.3496777344831
 20
135.449956047869
 42
0.0
  0
VERTEX
  8
0
 10
31.887097090976
 20
135.157627832489
 42
0.0
  0
VERTEX
  8
0
 10
31.8731547915237
 20
135.147744671904
 42
0.0
  0
VERTEX
  8
0
 10
31.8869945097289
 20
135.126635578391
 42
0.0
  0
VERTEX
  8
0
 10
31.887533109816
 20
135.125209925577
 42
0.0
  0
VERTEX
  8
0
 10
31.8213626999446
 20
130.960587974116
 42
0.0
  0
VERTEX
  8
0
 10
31.8071733727683
 20
130.0038145273
 42
0.0
  0
VERTEX
  8
0
 10
31.7962966626478
 20
129.318999922088
 42
0.0
  0
VERTEX
  8
0
 10
31.7532966404035
 20
126.586449499323
 42
0.0
  0
VERTEX
  8
0
 10
31.7438499538563
 20
125.975757587784
 42
0.0
  0
VERTEX
  8
0
 10
31.7228269983877
 20
124.674556344834
 42
0.0
  0
VERTEX
  8
0
 10
31.7191973179065
 20
124.422841863799
 42
0.0
  0
VERTEX
  8
0
 10
31.713868072187
 20
124.117267002993
 42
0.0
  0
VERTEX
  8
0
 10
31.7055028055599
 20
123.589526309099
 42
0.0
  0
VERTEX
  8
0
 10
31.6261962661848
 20
118.484820116023
 42
0.0
  0
VERTEX
  8
0
 10
31.6218458591383
 20
118.231204218763
 42
0.0
  0
VERTEX
  8
0
 10
31.6077043126026
 20
117.894333383546
 42
0.0
  0
VERTEX
  8
0
 10
31.5316089524233
 20
116.142235498972
 42
0.0
  0
VERTEX
  8
0
 10
31.5229387983657
 20
115.931245710457
 42
0.0
  0
VERTEX
  8
0
 10
31.4759779750243
 20
114.745416959663
 42
0.0
  0
VERTEX
  8
0
 10
31.3922353263393
 20
112.689855217693
 42
0.0
  0
VERTEX
  8
0
 10
31.2543530309556
 20
109.050688219107
 42
0.0
  0
VERTEX
  8
0
 10
31.2242984298609
 20
108.162861052282
 42
0.0
  0
VERTEX
  8
0
 10
31.1217871451521
 20
105.260391349899
 42
0.0
  0
VERTEX
  8
0
 10
30.9925016803469
 20
101.356480021849
 42
0.0
  0
VERTEX
  8
0
 10
30.8674202345104
 20
97.3746010133633
 42
0.0
  0
VERTEX
  8
0
 10
30.857846567265
 20
96.9981845529694
 42
0.0
  0
VERTEX
  8
0
 10
30.7507929288457
 20
93.3516578363854
 42
0.0
  0
VERTEX
  8
0
 10
30.6417691048559
 20
89.3315871932053
 42
0.0
  0
VERTEX
  8
0
 10
30.5439230556208
 20
85.3480505321724
 42
0.0
  0
VERTEX
  8
0
 10
30.4534366661353
 20
81.4427773868308
 42
0.0
  0
VERTEX
  8
0
 10
30.4102707578256
 20
79.3153866700287
 42
0.0
  0
VERTEX
  8
0
 10
30.3745653646451
 20
77.6505010986618
 42
0.0
  0
VERTEX
  8
0
 10
30.314316582925
 20
74.3515560197765
 42
0.0
  0
VERTEX
  8
0
 10
30.3076888419911
 20
74.0104642693484
 42
0.0
  0
VERTEX
  8
0
 10
30.2529334100978
 20
70.5561118155941
 42
0.0
  0
VERTEX
  8
0
 10
30.211734882824
 20
67.3202972856177
 42
0.0
  0
VERTEX
  8
0
 10
30.1823767771155
 20
64.336312446959
 42
0.0
  0
VERTEX
  8
0
 10
30.1686753958164
 20
61.7090489222987
 42
0.0
  0
VERTEX
  8
0
 10
30.1687766826629
 20
61.6311603944594
 42
0.0
  0
VERTEX
  8
0
 10
30.1669477161971
 20
59.2304871086577
 42
0.0
  0
VERTEX
  8
0
 10
30.1793290461973
 20
57.1580219295603
 42
0.0
  0
VERTEX
  8
0
 10
30.2054504600742
 20
55.4358520127132
 42
0.0
  0
VERTEX
  8
0
 10
30.2179860826251
 20
54.9779145049468
 42
0.0
  0
VERTEX
  8
0
 10
30.2138449715253
 20
54.6654574197353
 42
0.0
  0
VERTEX
  8
0
 10
30.202664888423
 20
53.9612501458154
 42
0.0
  0
VERTEX
  8
0
 10
30.1869949395541
 20
52.9656327403395
 42
0.0
  0
VERTEX
  8
0
 10
30.1754195465104
 20
52.2042565167523
 42
0.0
  0
VERTEX
  8
0
 10
30.1556714159839
 20
50.9312321289448
 42
0.0
  0
VERTEX
  8
0
 10
30.083171995577
 20
46.3933201756098
 42
0.0
  0
VERTEX
  8
0
 10
30.0591615980551
 20
44.7844420451105
 42
0.0
  0
VERTEX
  8
0
 10
30.3281900763563
 20
44.2556049097778
 42
0.0
  0
VERTEX
  8
0
 10
30.3725185937061
 20
44.1691735321793
 42
0.0
  0
VERTEX
  8
0
 10
30.4006258769741
 20
44.1148984954931
 42
0.0
  0
VERTEX
  8
0
 10
30.4880051009808
 20
43.9418245156926
 42
0.0
  0
VERTEX
  8
0
 10
30.6407972473167
 20
43.6430398603535
 42
0.0
  0
VERTEX
  8
0
 10
30.8033369636178
 20
43.3213286091099
 42
0.0
  0
VERTEX
  8
0
 10
31.9589642873008
 20
40.8941734835859
 42
0.0
  0
VERTEX
  8
0
 10
32.9950201048751
 20
38.5413148595334
 42
0.0
  0
VERTEX
  8
0
 10
33.9009040629043
 20
36.2879366164791
 42
0.0
  0
VERTEX
  8
0
 10
34.6685419213187
 20
34.1546922361862
 42
0.0
  0
VERTEX
  8
0
 10
35.2889538881803
 20
32.1617573292919
 42
0.0
  0
VERTEX
  8
0
 10
35.7555362595739
 20
30.3302051732452
 42
0.0
  0
VERTEX
  8
0
 10
36.0266125249186
 20
28.8946882414089
 42
0.0
  0
VERTEX
  8
0
 10
36.0681663349527
 20
28.6761721196517
 42
0.0
  0
VERTEX
  8
0
 10
36.2193275192818
 20
27.2159607556704
 42
0.0
  0
VERTEX
  8
0
 10
36.2150655090092
 20
26.5602814315761
 42
0.0
  0
VERTEX
  8
0
 10
36.2091358124275
 20
25.9629194795585
 42
0.0
  0
VERTEX
  8
0
 10
36.037715645119
 20
24.9318117887076
 42
0.0
  0
VERTEX
  8
0
 10
35.7076521467609
 20
24.1280129792957
 42
0.0
  0
VERTEX
  8
0
 10
35.2217120123292
 20
23.5628861195224
 42
0.0
  0
VERTEX
  8
0
 10
34.581759113959
 20
23.2401221063878
 42
0.0
  0
VERTEX
  8
0
 10
33.7973062346064
 20
23.1647267062736
 42
0.0
  0
VERTEX
  8
0
 10
32.875747814565
 20
23.3350948236114
 42
0.0
  0
VERTEX
  8
0
 10
31.82516309892
 20
23.7528396655467
 42
0.0
  0
VERTEX
  8
0
 10
31.1837988055582
 20
24.1129902824998
 42
0.0
  0
VERTEX
  8
0
 10
30.6547022852905
 20
24.4095525944033
 42
0.0
  0
VERTEX
  8
0
 10
30.5139932110126
 20
24.5096136693959
 42
0.0
  0
VERTEX
  8
0
 10
29.3774635168376
 20
25.3029051949314
 42
0.0
  0
VERTEX
  8
0
 10
29.3585136776747
 20
25.317847984064
 42
0.0
  0
VERTEX
  8
0
 10
28.7417296956296
 20
25.8199233051407
 42
0.0
  0
VERTEX
  8
0
 10
28.4713654369049
 20
26.0403770798668
 42
0.0
  0
VERTEX
  8
0
 10
28.1374325027156
 20
26.3119452411678
 42
0.0
  0
VERTEX
  8
0
 10
28.0047640378225
 20
26.4209088669007
 42
0.0
  0
VERTEX
  8
0
 10
27.2885600542521
 20
27.076901379848
 42
0.0
  0
VERTEX
  8
0
 10
27.2734920146034
 20
27.0240725898893
 42
0.0
  0
VERTEX
  8
0
 10
27.2329554610519
 20
26.8776674216622
 42
0.0
  0
VERTEX
  8
0
 10
27.1690132388347
 20
26.6487558824426
 42
0.0
  0
VERTEX
  8
0
 10
27.0837477839418
 20
26.3440438777016
 42
0.0
  0
VERTEX
  8
0
 10
26.8252116542914
 20
25.4184735126383
 42
0.0
  0
VERTEX
  8
0
 10
23.4333582480709
 20
13.2773492103461
 42
0.0
  0
VERTEX
  8
0
 10
23.4333772930183
 20
13.2744239685561
 42
0.0
  0
VERTEX
  8
0
 10
23.3393174906455
 20
12.9383684676437
 42
0.0
  0
VERTEX
  8
0
 10
22.1198089384114
 20
8.5739311028952
 42
0.0
  0
VERTEX
  8
0
 10
22.1152223930017
 20
8.5515735375727
 42
0.0
  0
VERTEX
  8
0
 10
22.0615027989273
 20
8.3854415675207
 42
0.0
  0
VERTEX
  8
0
 10
21.8388168049206
 20
7.6840835264619
 42
0.0
  0
VERTEX
  8
0
 10
21.7518975457335
 20
7.4081851352309
 42
0.0
  0
VERTEX
  8
0
 10
21.7444596946956
 20
7.3847503697342
 42
0.0
  0
VERTEX
  8
0
 10
21.7790369226201
 20
7.2932258351608
 42
0.0
  0
VERTEX
  8
0
 10
7.9003067779246
 20
2.0499539873237
 42
0.0
  0
VERTEX
  8
0
 10
2.47397463482
 20
16.4132373865436
 42
0.0
  0
VERTEX
  8
0
 10
4.4542063935239
 20
17.1613529075139
 42
0.0
  0
VERTEX
  8
0
 10
4.5488493665109
 20
17.3075633763184
 42
0.0
  0
VERTEX
  8
0
 10
5.4192536165751
 20
18.6690472474068
 42
0.0
  0
VERTEX
  8
0
 10
5.7172614115098
 20
19.1322212916075
 42
0.0
  0
VERTEX
  8
0
 10
7.1964337616004
 20
21.9979180741223
 42
0.0
  0
VERTEX
  8
0
 10
7.8563864392312
 20
23.5686043110471
 42
0.0
  0
VERTEX
  8
0
 10
7.9372722444109
 20
23.764166188503
 42
0.0
  0
VERTEX
  8
0
 10
7.9790113349461
 20
23.8491729703812
 42
0.0
  0
VERTEX
  8
0
 10
8.07877589728
 20
24.0989761438146
 42
0.0
  0
VERTEX
  8
0
 10
8.5452949444393
 20
25.2121368245913
 42
0.0
  0
VERTEX
  8
0
 10
8.6910823837137
 20
25.6369455471113
 42
0.0
  0
VERTEX
  8
0
 10
8.8950229658321
 20
26.1500297107211
 42
0.0
  0
VERTEX
  8
0
 10
9.3775714492652
 20
27.5829897699177
 42
0.0
  0
VERTEX
  8
0
 10
9.6729419137765
 20
28.4620893717044
 42
0.0
  0
VERTEX
  8
0
 10
9.7863135948437
 20
28.798055347557
 42
0.0
  0
VERTEX
  8
0
 10
9.8428876682006
 20
28.9947231306776
 42
0.0
  0
VERTEX
  8
0
 10
10.1694921635825
 20
30.134689760456
 42
0.0
  0
VERTEX
  8
0
 10
10.4669934423061
 20
31.1648274490753
 42
0.0
  0
VERTEX
  8
0
 10
10.5845788848637
 20
31.5744472694484
 42
0.0
  0
VERTEX
  8
0
 10
10.6397283970177
 20
31.7676987324524
 42
0.0
  0
VERTEX
  8
0
 10
10.694222856178
 20
31.9856827390694
 42
0.0
  0
VERTEX
  8
0
 10
10.7401426233244
 20
32.1724605379568
 42
0.0
  0
VERTEX
  8
0
 10
10.9870018379351
 20
33.1598436572017
 42
0.0
  0
VERTEX
  8
0
 10
11.2077093712683
 20
34.0461155154202
 42
0.0
  0
VERTEX
  8
0
 10
11.3515776610303
 20
34.6247766321171
 42
0.0
  0
VERTEX
  8
0
 10
11.3850419937426
 20
34.7625907945683
 42
0.0
  0
VERTEX
  8
0
 10
11.451991887337
 20
35.0295384376216
 42
0.0
  0
VERTEX
  8
0
 10
11.4910579974992
 20
35.2107402392042
 42
0.0
  0
VERTEX
  8
0
 10
11.9441594304869
 20
37.31026702005
 42
0.0
  0
VERTEX
  8
0
 10
12.2126010275589
 20
38.553160264541
 42
0.0
  0
VERTEX
  8
0
 10
12.318388526464
 20
39.1190638984253
 42
0.0
  0
VERTEX
  8
0
 10
12.6539350000281
 20
40.9059157032929
 42
0.0
  0
VERTEX
  8
0
 10
12.7061687669779
 20
41.1852241600969
 42
0.0
  0
VERTEX
  8
0
 10
12.9152780610969
 20
42.3041529401705
 42
0.0
  0
VERTEX
  8
0
 10
13.5275994611827
 20
46.0959500412397
 42
0.0
  0
VERTEX
  8
0
 10
13.5518760521867
 20
46.2465844649324
 42
0.0
  0
VERTEX
  8
0
 10
14.1182082621076
 20
50.3419461407069
 42
0.0
  0
VERTEX
  8
0
 10
14.3180961816761
 20
52.0588122295474
 42
0.0
  0
VERTEX
  8
0
 10
14.6079177816765
 20
54.5517239623316
 42
0.0
  0
VERTEX
  8
0
 10
14.7101137288272
 20
55.6259173949488
 42
0.0
  0
VERTEX
  8
0
 10
14.7343204221991
 20
55.8780746127634
 42
0.0
  0
VERTEX
  8
0
 10
15.0149486929953
 20
58.8358885051491
 42
0.0
  0
SEQEND
  0
POLYLINE
  8
0
 66
     1
 10
0.0
 20
0.0
 30
0.0
 70
     1
  0
VERTEX
  8
0
 10
32.5765841522601
 20
29.4533113853985
 42
0.0
  0
VERTEX
  8
0
 10
32.3628606608829
 20
29.3872848697264
 42
0.0
  0
VERTEX
  8
0
 10
32.1569574848534
 20
29.2962460473262
 42
0.0
  0
VERTEX
  8
0
 10
31.9619534703228
 20
29.1842633659629
 42
0.0
  0
VERTEX
  8
0
 10
31.7811846629975
 20
29.0511309382782
 42
0.0
  0
VERTEX
  8
0
 10
31.6167715887623
 20
28.8977041861632
 42
0.0
  0
VERTEX
  8
0
 10
31.5806432523451
 20
28.8560612825362
 42
0.0
  0
VERTEX
  8
0
 10
31.4701388088201
 20
28.7273994297344
 42
0.0
  0
VERTEX
  8
0
 10
31.3445948930674
 20
28.5415209242889
 42
0.0
  0
VERTEX
  8
0
 10
31.2394164010124
 20
28.3441397107077
 42
0.0
  0
VERTEX
  8
0
 10
31.1572181210919
 20
28.1333655024543
 42
0.0
  0
VERTEX
  8
0
 10
31.0991315082811
 20
27.9169839982897
 42
0.0
  0
VERTEX
  8
0
 10
31.0663535832596
 20
27.6954202707397
 42
0.0
  0
VERTEX
  8
0
 10
31.0581434980051
 20
27.471354022431
 42
0.0
  0
VERTEX
  8
0
 10
31.0752045564508
 20
27.246517174302
 42
0.0
  0
VERTEX
  8
0
 10
31.1140505365334
 20
27.0387621079723
 42
0.0
  0
VERTEX
  8
0
 10
31.1172431065634
 20
27.0267179650122
 42
0.0
  0
VERTEX
  8
0
 10
31.1835552986038
 20
26.8116633336377
 42
0.0
  0
VERTEX
  8
0
 10
31.2726684131953
 20
26.6066889245516
 42
0.0
  0
VERTEX
  8
0
 10
31.3862457119541
 20
26.4124231045223
 42
0.0
  0
VERTEX
  8
0
 10
31.5190222571395
 20
26.231302630129
 42
0.0
  0
VERTEX
  8
0
 10
31.6728798742229
 20
26.0669708766111
 42
0.0
  0
VERTEX
  8
0
 10
31.8413751039255
 20
25.919953146247
 42
0.0
  0
VERTEX
  8
0
 10
32.0280446024725
 20
25.7931060819098
 42
0.0
  0
VERTEX
  8
0
 10
32.2259775780375
 20
25.6896294116649
 42
0.0
  0
VERTEX
  8
0
 10
32.4356503398364
 20
25.6068249488449
 42
0.0
  0
VERTEX
  8
0
 10
32.6522815985955
 20
25.5487240825262
 42
0.0
  0
VERTEX
  8
0
 10
32.8405545294061
 20
25.5211266981695
 42
0.0
  0
VERTEX
  8
0
 10
32.8734767671497
 20
25.5159155276721
 42
0.0
  0
VERTEX
  8
0
 10
33.0989982366968
 20
25.5083095176014
 42
0.0
  0
VERTEX
  8
0
 10
33.3231433959804
 20
25.5237516519657
 42
0.0
  0
VERTEX
  8
0
 10
33.543973284687
 20
25.5673742808956
 42
0.0
  0
VERTEX
  8
0
 10
33.757715275206
 20
25.6319144147925
 42
0.0
  0
VERTEX
  8
0
 10
33.9640942146458
 20
25.7216939105403
 42
0.0
  0
VERTEX
  8
0
 10
34.158613489098
 20
25.8349596794362
 42
0.0
  0
VERTEX
  8
0
 10
34.3389065330131
 20
25.9693514337733
 42
0.0
  0
VERTEX
  8
0
 10
34.5038043473266
 20
26.1214950983557
 42
0.0
  0
VERTEX
  8
0
 10
34.6504371272688
 20
26.2917998547844
 42
0.0
  0
VERTEX
  8
0
 10
34.7072021613881
 20
26.3751250722219
 42
0.0
  0
VERTEX
  8
0
 10
34.7759720663534
 20
26.4777021211102
 42
0.0
  0
VERTEX
  8
0
 10
34.88066581833
 20
26.676366422224
 42
0.0
  0
VERTEX
  8
0
 10
34.9624073797877
 20
26.8854747153399
 42
0.0
  0
VERTEX
  8
0
 10
35.0204850159304
 20
27.1018799803847
 42
0.0
  0
VERTEX
  8
0
 10
35.0542223528293
 20
27.3237790137792
 42
0.0
  0
VERTEX
  8
0
 10
35.0624234614157
 20
27.5478690229681
 42
0.0
  0
VERTEX
  8
0
 10
35.04536240297
 20
27.7727058710971
 42
0.0
  0
VERTEX
  8
0
 10
35.0035524849917
 20
27.9926186079483
 42
0.0
  0
VERTEX
  8
0
 10
34.9370026841488
 20
28.2075834726416
 42
0.0
  0
VERTEX
  8
0
 10
34.845979176665
 20
28.4133023691732
 42
0.0
  0
VERTEX
  8
0
 10
34.8302522051353
 20
28.4427130016579
 42
0.0
  0
VERTEX
  8
0
 10
34.734311724993
 20
28.6082625617718
 42
0.0
  0
VERTEX
  8
0
 10
34.6015447022813
 20
28.7879204152701
 42
0.0
  0
VERTEX
  8
0
 10
34.4481712794707
 20
28.9524079412701
 42
0.0
  0
VERTEX
  8
0
 10
34.2777841560175
 20
29.0986837773046
 42
0.0
  0
VERTEX
  8
0
 10
34.0913343129366
 20
29.2256681300834
 42
0.0
  0
VERTEX
  8
0
 10
33.894113617973
 20
29.3308529603867
 42
0.0
  0
VERTEX
  8
0
 10
33.6849166195844
 20
29.4123980965542
 42
0.0
  0
VERTEX
  8
0
 10
33.5456661902344
 20
29.4496641701039
 42
0.0
  0
VERTEX
  8
0
 10
33.4682853608253
 20
29.4704989628729
 42
0.0
  0
VERTEX
  8
0
 10
33.245664539457
 20
29.5027689176399
 42
0.0
  0
VERTEX
  8
0
 10
33.0210750059775
 20
29.5122203762106
 42
0.0
  0
VERTEX
  8
0
 10
32.7969578683095
 20
29.493829239176
 42
0.0
  0
SEQEND
  0
POLYLINE
  8
0
 66
     1
 10
0.0
 20
0.0
 30
0.0
 70
     1
  0
VERTEX
  8
0
 10
15.9400519175136
 20
14.8171272321312
 42
0.0
  0
VERTEX
  8
0
 10
15.9494410701117
 20
15.0416660747261
 42
0.0
  0
VERTEX
  8
0
 10
15.9316946610689
 20
15.264723480156
 42
0.0
  0
VERTEX
  8
0
 10
15.8908351782999
 20
15.484995283732
 42
0.0
  0
VERTEX
  8
0
 10
15.8240202928448
 20
15.7013805243996
 42
0.0
  0
VERTEX
  8
0
 10
15.7334905021074
 20
15.9057925725183
 42
0.0
  0
VERTEX
  8
0
 10
15.6218140737674
 20
16.1007765259971
 42
0.0
  0
VERTEX
  8
0
 10
15.4890470510557
 20
16.2804343794954
 42
0.0
  0
VERTEX
  8
0
 10
15.3356736282451
 20
16.4449219054954
 42
0.0
  0
VERTEX
  8
0
 10
15.1648017647135
 20
16.5924808290625
 42
0.0
  0
VERTEX
  8
0
 10
15.1254954785211
 20
16.6189025654506
 42
0.0
  0
VERTEX
  8
0
 10
14.9788546150472
 20
16.7181345725482
 42
0.0
  0
VERTEX
  8
0
 10
14.7816159667474
 20
16.823366924612
 42
0.0
  0
VERTEX
  8
0
 10
14.5709933155447
 20
16.9043734606924
 42
0.0
  0
VERTEX
  8
0
 10
14.3548372743903
 20
16.9626538603735
 42
0.0
  0
VERTEX
  8
0
 10
14.1701374522829
 20
16.9915739840677
 42
0.0
  0
VERTEX
  8
0
 10
14.132682148153
 20
16.9965659693979
 42
0.0
  0
VERTEX
  8
0
 10
13.90858633142
 20
17.0047105795557
 42
0.0
  0
VERTEX
  8
0
 10
13.6839844536735
 20
16.9876025300537
 42
0.0
  0
VERTEX
  8
0
 10
13.4641044543706
 20
16.9457778278633
 42
0.0
  0
VERTEX
  8
0
 10
13.2489463335113
 20
16.8792364729844
 42
0.0
  0
VERTEX
  8
0
 10
13.0439840702175
 20
16.7900193382039
 42
0.0
  0
VERTEX
  8
0
 10
12.8489710790188
 20
16.6780604177209
 42
0.0
  0
VERTEX
  8
0
 10
12.6686870117718
 20
16.5436449025036
 42
0.0
  0
VERTEX
  8
0
 10
12.5037981741264
 20
16.3914774770409
 42
0.0
  0
VERTEX
  8
0
 10
12.3581253518672
 20
16.2200691664419
 42
0.0
  0
VERTEX
  8
0
 10
12.3025113634761
 20
16.1401655459608
 42
0.0
  0
VERTEX
  8
0
 10
12.2304424110879
 20
16.0348216208805
 42
0.0
  0
VERTEX
  8
0
 10
12.1264530546557
 20
15.8350115206757
 42
0.0
  0
VERTEX
  8
0
 10
12.0442357297879
 20
15.6271625542122
 42
0.0
  0
VERTEX
  8
0
 10
11.9928610284669
 20
15.4354186407479
 42
0.0
  0
VERTEX
  8
0
 10
11.9866338570554
 20
15.409497962515
 42
0.0
  0
VERTEX
  8
0
 10
11.9538649087021
 20
15.1879104740848
 42
0.0
  0
VERTEX
  8
0
 10
11.9456548234476
 20
14.963844225776
 42
0.0
  0
VERTEX
  8
0
 10
11.9607965123328
 20
14.7397756259729
 42
0.0
  0
VERTEX
  8
0
 10
12.0045168232035
 20
14.5191184016761
 42
0.0
  0
VERTEX
  8
0
 10
12.0698875567027
 20
14.3036809426966
 42
0.0
  0
VERTEX
  8
0
 10
12.1590006712942
 20
14.0987065336106
 42
0.0
  0
VERTEX
  8
0
 10
12.2723403612506
 20
13.9043509469001
 42
0.0
  0
VERTEX
  8
0
 10
12.4055921240407
 20
13.7234100058691
 42
0.0
  0
VERTEX
  8
0
 10
12.5584718301048
 20
13.560229328282
 42
0.0
  0
VERTEX
  8
0
 10
12.6391085192609
 20
13.490528777335
 42
0.0
  0
VERTEX
  8
0
 10
12.7283927126214
 20
13.4137501980049
 42
0.0
  0
VERTEX
  8
0
 10
12.9138741671568
 20
13.2864543002619
 42
0.0
  0
VERTEX
  8
0
 10
13.1139736435584
 20
13.1808365274773
 42
0.0
  0
VERTEX
  8
0
 10
13.3226769252004
 20
13.1005982397227
 42
0.0
  0
VERTEX
  8
0
 10
13.4655195082011
 20
13.0617296637204
 42
0.0
  0
VERTEX
  8
0
 10
13.5398019007061
 20
13.0411905249911
 42
0.0
  0
VERTEX
  8
0
 10
13.7609970692603
 20
13.0083819701369
 42
0.0
  0
VERTEX
  8
0
 10
13.9850928859933
 20
13.0002373599791
 42
0.0
  0
VERTEX
  8
0
 10
14.2101610046763
 20
13.0175487037237
 42
0.0
  0
VERTEX
  8
0
 10
14.4300499806474
 20
13.0593496450339
 42
0.0
  0
VERTEX
  8
0
 10
14.644732883902
 20
13.1257114665504
 42
0.0
  0
VERTEX
  8
0
 10
14.8496861705277
 20
13.2149523622112
 42
0.0
  0
VERTEX
  8
0
 10
15.0461248145405
 20
13.3274498827812
 42
0.0
  0
VERTEX
  8
0
 10
15.2254769457199
 20
13.4600199494986
 42
0.0
  0
VERTEX
  8
0
 10
15.3901186520893
 20
13.6135602291751
 42
0.0
  0
VERTEX
  8
0
 10
15.4290792491871
 20
13.6592055747663
 42
0.0
  0
VERTEX
  8
0
 10
15.5365138232292
 20
13.7837752189227
 42
0.0
  0
VERTEX
  8
0
 10
15.6634744151277
 20
13.9702160853355
 42
0.0
  0
VERTEX
  8
0
 10
15.7681861204406
 20
14.1688328646888
 42
0.0
  0
VERTEX
  8
0
 10
15.848484075748
 20
14.3774500794781
 42
0.0
  0
VERTEX
  8
0
 10
15.9079963413729
 20
14.5943701837297
 42
0.0
  0
VERTEX
  8
0
 10
15.9276143436503
 20
14.7328996448931
 42
0.0
  0
SEQEND
  0
POLYLINE
  8
0
 66
     1
 10
0.0
 20
0.0
 30
0.0
 70
     1
  0
VERTEX
  8
0
 10
19.7243639055275
 20
20.2610441332762
 42
0.0
  0
VERTEX
  8
0
 10
19.8457834424654
 20
20.5749890499916
 42
0.0
  0
VERTEX
  8
0
 10
19.9323148513418
 20
20.8993487699756
 42
0.0
  0
VERTEX
  8
0
 10
19.9834924370257
 20
21.2324811389709
 42
0.0
  0
VERTEX
  8
0
 10
19.994609998422
 20
21.5695942989231
 42
0.0
  0
VERTEX
  8
0
 10
19.9692882566026
 20
21.9046978846947
 42
0.0
  0
VERTEX
  8
0
 10
19.9068154767715
 20
22.2346448762126
 42
0.0
  0
VERTEX
  8
0
 10
19.808407724556
 20
22.5569351042126
 42
0.0
  0
VERTEX
  8
0
 10
19.7285495547944
 20
22.7374120457773
 42
0.0
  0
VERTEX
  8
0
 10
19.6724572357652
 20
22.8664810566005
 42
0.0
  0
VERTEX
  8
0
 10
19.5035261900119
 20
23.1576751958439
 42
0.0
  0
VERTEX
  8
0
 10
19.3040097202671
 20
23.4284899469647
 42
0.0
  0
VERTEX
  8
0
 10
19.0753800001022
 20
23.6750285256043
 42
0.0
  0
VERTEX
  8
0
 10
18.8202792937639
 20
23.8938905025708
 42
0.0
  0
VERTEX
  8
0
 10
18.5406179941446
 20
24.0843313904187
 42
0.0
  0
VERTEX
  8
0
 10
18.2438275398218
 20
24.2417733300291
 42
0.0
  0
VERTEX
  8
0
 10
17.9557304718899
 20
24.3539242877842
 42
0.0
  0
VERTEX
  8
0
 10
17.9294422356644
 20
24.3645741671447
 42
0.0
  0
VERTEX
  8
0
 10
17.6039060867567
 20
24.4507697394723
 42
0.0
  0
VERTEX
  8
0
 10
17.2712679652121
 20
24.5004234596971
 42
0.0
  0
VERTEX
  8
0
 10
16.9348818700735
 20
24.5132819187001
 42
0.0
  0
VERTEX
  8
0
 10
16.5997476544691
 20
24.4883287358765
 42
0.0
  0
VERTEX
  8
0
 10
16.2684975143667
 20
24.4250649629438
 42
0.0
  0
VERTEX
  8
0
 10
15.94659645222
 20
24.3255552335694
 42
0.0
  0
VERTEX
  8
0
 10
15.8012639300343
 20
24.2617710166754
 42
0.0
  0
VERTEX
  8
0
 10
15.6383399256129
 20
24.1899289662393
 42
0.0
  0
VERTEX
  8
0
 10
15.3467888273604
 20
24.0223021304791
 42
0.0
  0
VERTEX
  8
0
 10
15.076458816318
 20
23.8215025732017
 42
0.0
  0
VERTEX
  8
0
 10
14.8299619518949
 20
23.5928343079443
 42
0.0
  0
VERTEX
  8
0
 10
14.60964739211
 20
23.3372662841596
 42
0.0
  0
VERTEX
  8
0
 10
14.4207509614773
 20
23.0581884679681
 42
0.0
  0
VERTEX
  8
0
 10
14.2637013568442
 20
22.7602157771776
 42
0.0
  0
VERTEX
  8
0
 10
14.2207248797467
 20
22.6511734173713
 42
0.0
  0
VERTEX
  8
0
 10
14.1401427948797
 20
22.4469018203463
 42
0.0
  0
VERTEX
  8
0
 10
14.0538579714738
 20
22.1226081061633
 42
0.0
  0
VERTEX
  8
0
 10
14.0040880852677
 20
21.7900618590155
 42
0.0
  0
VERTEX
  8
0
 10
13.9912977397812
 20
21.4537829531901
 42
0.0
  0
VERTEX
  8
0
 10
14.0166469574106
 20
21.117169224763
 42
0.0
  0
VERTEX
  8
0
 10
14.0798420861224
 20
20.7860289123936
 42
0.0
  0
VERTEX
  8
0
 10
14.1789441656031
 20
20.4654943662124
 42
0.0
  0
VERTEX
  8
0
 10
14.3129752848334
 20
20.1567166621502
 42
0.0
  0
VERTEX
  8
0
 10
14.4826286794674
 20
19.8643292020554
 42
0.0
  0
VERTEX
  8
0
 10
14.6823827580145
 20
19.5936042176158
 42
0.0
  0
VERTEX
  8
0
 10
14.9122005221912
 20
19.3475144723821
 42
0.0
  0
VERTEX
  8
0
 10
15.1678039219441
 20
19.1273218861225
 42
0.0
  0
VERTEX
  8
0
 10
15.4455458520028
 20
18.9376492466004
 42
0.0
  0
VERTEX
  8
0
 10
15.6681408004605
 20
18.8199215666762
 42
0.0
  0
VERTEX
  8
0
 10
15.7437529824715
 20
18.7807696679573
 42
0.0
  0
VERTEX
  8
0
 10
16.0562458470728
 20
18.6586657965268
 42
0.0
  0
VERTEX
  8
0
 10
16.3825043448612
 20
18.5712769033477
 42
0.0
  0
VERTEX
  8
0
 10
16.7148958809353
 20
18.521557177322
 42
0.0
  0
VERTEX
  8
0
 10
17.0512819760739
 20
18.5086987183189
 42
0.0
  0
VERTEX
  8
0
 10
17.3878328678242
 20
18.5342142621099
 42
0.0
  0
VERTEX
  8
0
 10
17.7188453991243
 20
18.5973882683614
 42
0.0
  0
VERTEX
  8
0
 10
17.9178276222827
 20
18.6593118706952
 42
0.0
  0
VERTEX
  8
0
 10
18.039320808457
 20
18.6963593976487
 42
0.0
  0
VERTEX
  8
0
 10
18.3478149438664
 20
18.83207543166
 42
0.0
  0
VERTEX
  8
0
 10
18.6393839954552
 20
18.9996547456597
 42
0.0
  0
VERTEX
  8
0
 10
18.9096960531612
 20
19.2005018246976
 42
0.0
  0
VERTEX
  8
0
 10
19.1576365237347
 20
19.4296611682816
 42
0.0
  0
VERTEX
  8
0
 10
19.3774579125787
 20
19.6850971804644
 42
0.0
  0
VERTEX
  8
0
 10
19.5656504934725
 20
19.9638819357321
 42
0.0
  0
VERTEX
  8
0
 10
19.5940621701414
 20
20.0173260362718
 42
0.0
  0
SEQEND
  0
POLYLINE
  8
0
 66
     1
 10
0.0
 20
0.0
 30
0.0
 70
     1
  0
VERTEX
  8
0
 10
25.1087847965618
 20
40.1933085461593
 42
0.0
  0
VERTEX
  8
0
 10
25.2544217121484
 20
40.3648119002793
 42
0.0
  0
VERTEX
  8
0
 10
25.3821585129364
 20
40.5499168805592
 42
0.0
  0
VERTEX
  8
0
 10
25.4866146561108
 20
40.7484914149919
 42
0.0
  0
VERTEX
  8
0
 10
25.5683023575597
 20
40.9577422733892
 42
0.0
  0
VERTEX
  8
0
 10
25.6259491136327
 20
41.1752880606852
 42
0.0
  0
VERTEX
  8
0
 10
25.6586731786454
 20
41.3969943535166
 42
0.0
  0
VERTEX
  8
0
 10
25.6680533545754
 20
41.6215569569917
 42
0.0
  0
VERTEX
  8
0
 10
25.6503248988688
 20
41.8445668406612
 42
0.0
  0
VERTEX
  8
0
 10
25.6097120015704
 20
42.0649046500381
 42
0.0
  0
VERTEX
  8
0
 10
25.5431891307319
 20
42.2797982320907
 42
0.0
  0
VERTEX
  8
0
 10
25.479782464603
 20
42.4239157802603
 42
0.0
  0
VERTEX
  8
0
 10
25.4535284393852
 20
42.486222054871
 42
0.0
  0
VERTEX
  8
0
 10
25.3402336327694
 20
42.6804588371803
 42
0.0
  0
VERTEX
  8
0
 10
25.2075025167301
 20
42.8600216471577
 42
0.0
  0
VERTEX
  8
0
 10
25.0540572805746
 20
43.0246992601996
 42
0.0
  0
VERTEX
  8
0
 10
24.8836522037851
 20
43.1710226179945
 42
0.0
  0
VERTEX
  8
0
 10
24.6986369901864
 20
43.2985218099802
 42
0.0
  0
VERTEX
  8
0
 10
24.5000624557537
 20
43.4029779531545
 42
0.0
  0
VERTEX
  8
0
 10
24.2898611621471
 20
43.4843065878787
 42
0.0
  0
VERTEX
  8
0
 10
24.0732658100604
 20
43.5423124106765
 42
0.0
  0
VERTEX
  8
0
 10
23.851559517229
 20
43.5750364756892
 42
0.0
  0
VERTEX
  8
0
 10
23.8303277231686
 20
43.5773331090895
 42
0.0
  0
VERTEX
  8
0
 10
23.6269969137539
 20
43.5844166516192
 42
0.0
  0
VERTEX
  8
0
 10
23.4023501526668
 20
43.5674274065184
 42
0.0
  0
VERTEX
  8
0
 10
23.182550943377
 20
43.5253888564059
 42
0.0
  0
VERTEX
  8
0
 10
22.9673299858408
 20
43.4590138276886
 42
0.0
  0
VERTEX
  8
0
 10
22.7626591913581
 20
43.3697438943079
 42
0.0
  0
VERTEX
  8
0
 10
22.5669069895536
 20
43.2561480964073
 42
0.0
  0
VERTEX
  8
0
 10
22.3871065707738
 20
43.1233272136868
 42
0.0
  0
VERTEX
  8
0
 10
22.2224553419307
 20
42.9712495549054
 42
0.0
  0
VERTEX
  8
0
 10
22.0764910508605
 20
42.7998940429065
 42
0.0
  0
VERTEX
  8
0
 10
21.9839462839774
 20
42.6660973978718
 42
0.0
  0
VERTEX
  8
0
 10
21.949081625556
 20
42.6146412205054
 42
0.0
  0
VERTEX
  8
0
 10
21.8443878735794
 20
42.4159769193916
 42
0.0
  0
VERTEX
  8
0
 10
21.7626104054493
 20
42.2069636697967
 42
0.0
  0
VERTEX
  8
0
 10
21.7062414600691
 20
41.9896291071042
 42
0.0
  0
VERTEX
  8
0
 10
21.6724771931659
 20
41.7678013563504
 42
0.0
  0
VERTEX
  8
0
 10
21.6640474524452
 20
41.5435978196
 42
0.0
  0
VERTEX
  8
0
 10
21.6808254729424
 20
41.3202288692058
 42
0.0
  0
VERTEX
  8
0
 10
21.7229274055374
 20
41.0988244737396
 42
0.0
  0
VERTEX
  8
0
 10
21.7493242678607
 20
41.0145788857039
 42
0.0
  0
VERTEX
  8
0
 10
21.7882622323641
 20
40.8834820582811
 42
0.0
  0
VERTEX
  8
0
 10
21.877621932426
 20
40.678573654996
 42
0.0
  0
VERTEX
  8
0
 10
21.9907688969207
 20
40.4840094972031
 42
0.0
  0
VERTEX
  8
0
 10
22.1239488463659
 20
40.303258643214
 42
0.0
  0
VERTEX
  8
0
 10
22.2773940825214
 20
40.1385810301721
 42
0.0
  0
VERTEX
  8
0
 10
22.4477093926297
 20
39.9924952811796
 42
0.0
  0
VERTEX
  8
0
 10
22.6327246062285
 20
39.8649960891939
 42
0.0
  0
VERTEX
  8
0
 10
22.832576951354
 20
39.7607511706232
 42
0.0
  0
VERTEX
  8
0
 10
23.0412892096642
 20
39.6804891219883
 42
0.0
  0
VERTEX
  8
0
 10
23.1201231676972
 20
39.6586827866509
 42
0.0
  0
VERTEX
  8
0
 10
23.2577367196297
 20
39.622155923707
 42
0.0
  0
VERTEX
  8
0
 10
23.479891845867
 20
39.5882438146826
 42
0.0
  0
VERTEX
  8
0
 10
23.7037680071339
 20
39.5799619160831
 42
0.0
  0
VERTEX
  8
0
 10
23.9285626103421
 20
39.5972785366674
 42
0.0
  0
VERTEX
  8
0
 10
24.1484515863131
 20
39.6390794779776
 42
0.0
  0
VERTEX
  8
0
 10
24.3641213772552
 20
39.7042664626832
 42
0.0
  0
VERTEX
  8
0
 10
24.5685809471344
 20
39.7948142067568
 42
0.0
  0
VERTEX
  8
0
 10
24.7645443735425
 20
39.9071321939645
 42
0.0
  0
VERTEX
  8
0
 10
24.9438959589163
 20
40.0411411206967
 42
0.0
  0
SEQEND
  0
POLYLINE
  8
0
 66
     1
 10
0.0
 20
0.0
 30
0.0
 70
     1
  0
VERTEX
  8
0
 10
32.4296702328237
 20
155.545375485476
 42
0.0
  0
VERTEX
  8
0
 10
32.3842808894672
 20
155.59149236826
 42
0.0
  0
VERTEX
  8
0
 10
32.0466751971451
 20
155.935309738019
 42
0.0
  0
VERTEX
  8
0
 10
31.8688911006877
 20
156.074501011104
 42
0.0
  0
VERTEX
  8
0
 10
31.6523217099623
 20
156.168086014395
 42
0.0
  0
VERTEX
  8
0
 10
31.6462019263387
 20
156.168760750907
 42
0.0
  0
VERTEX
  8
0
 10
31.4024373646677
 20
156.213515525159
 42
0.0
  0
VERTEX
  8
0
 10
31.1257591600731
 20
156.208908809537
 42
0.0
  0
VERTEX
  8
0
 10
30.8284807555584
 20
156.157420347662
 42
0.0
  0
VERTEX
  8
0
 10
30.5181159567254
 20
156.054829224325
 42
0.0
  0
VERTEX
  8
0
 10
30.201629264396
 20
155.910011575863
 42
0.0
  0
VERTEX
  8
0
 10
29.8887864305488
 20
155.724213126937
 42
0.0
  0
VERTEX
  8
0
 10
29.6829996599648
 20
155.570985455791
 42
0.0
  0
VERTEX
  8
0
 10
29.584479542991
 20
155.50036815641
 42
0.0
  0
VERTEX
  8
0
 10
29.2998735619114
 20
155.243780783528
 42
0.0
  0
VERTEX
  8
0
 10
28.8355392601651
 20
154.788419937629
 42
0.0
  0
VERTEX
  8
0
 10
28.6297002648317
 20
154.588470764867
 42
0.0
  0
VERTEX
  8
0
 10
28.3678206617728
 20
154.306800514537
 42
0.0
  0
VERTEX
  8
0
 10
28.1370523135307
 20
154.00918860771
 42
0.0
  0
VERTEX
  8
0
 10
28.1043578557742
 20
153.955294051449
 42
0.0
  0
VERTEX
  8
0
 10
27.9448006843774
 20
153.699247334594
 42
0.0
  0
VERTEX
  8
0
 10
27.791886730631
 20
153.386518591372
 42
0.0
  0
VERTEX
  8
0
 10
27.6858373140804
 20
153.078461838238
 42
0.0
  0
VERTEX
  8
0
 10
27.6269506818812
 20
152.781977798738
 42
0.0
  0
VERTEX
  8
0
 10
27.6249452411531
 20
152.697591405806
 42
0.0
  0
VERTEX
  8
0
 10
27.6177374663691
 20
152.506160627261
 42
0.0
  0
VERTEX
  8
0
 10
27.6568934122472
 20
152.254318893704
 42
0.0
  0
VERTEX
  8
0
 10
27.7447906424275
 20
152.037182538259
 42
0.0
  0
VERTEX
  8
0
 10
27.8797447577319
 20
151.855472818198
 42
0.0
  0
VERTEX
  8
0
 10
27.9920406106895
 20
151.741500651752
 42
0.0
  0
VERTEX
  8
0
 10
28.2633021543779
 20
151.46412188951
 42
0.0
  0
VERTEX
  8
0
 10
28.441854499161
 20
151.326849985985
 42
0.0
  0
VERTEX
  8
0
 10
28.6570932805934
 20
151.23276228928
 42
0.0
  0
VERTEX
  8
0
 10
28.9070251476484
 20
151.187350731852
 42
0.0
  0
VERTEX
  8
0
 10
29.1485238912826
 20
151.191428462626
 42
0.0
  0
VERTEX
  8
0
 10
29.1837931189242
 20
151.191719838672
 42
0.0
  0
VERTEX
  8
0
 10
29.4822410834101
 20
151.243921672759
 42
0.0
  0
VERTEX
  8
0
 10
29.7917716281164
 20
151.344840012007
 42
0.0
  0
VERTEX
  8
0
 10
30.1079230146013
 20
151.490617072345
 42
0.0
  0
VERTEX
  8
0
 10
30.420652320887
 20
151.676644153406
 42
0.0
  0
VERTEX
  8
0
 10
30.7249829693251
 20
151.900498100601
 42
0.0
  0
VERTEX
  8
0
 10
30.982192836711
 20
152.13207325952
 42
0.0
  0
VERTEX
  8
0
 10
31.0095889504047
 20
152.157085473483
 42
0.0
  0
VERTEX
  8
0
 10
31.6798520141656
 20
152.812157883341
 42
0.0
  0
VERTEX
  8
0
 10
31.941684095464
 20
153.093810180335
 42
0.0
  0
VERTEX
  8
0
 10
32.1724101987854
 20
153.391677649302
 42
0.0
  0
VERTEX
  8
0
 10
32.3646618279387
 20
153.701618922418
 42
0.0
  0
VERTEX
  8
0
 10
32.4848920286216
 20
153.948781710642
 42
0.0
  0
VERTEX
  8
0
 10
32.5176655483663
 20
154.014110056837
 42
0.0
  0
VERTEX
  8
0
 10
32.6241637983228
 20
154.320978765959
 42
0.0
  0
VERTEX
  8
0
 10
32.68083285911
 20
154.607664801332
 42
0.0
  0
VERTEX
  8
0
 10
32.683116436323
 20
154.617216219988
 42
0.0
  0
VERTEX
  8
0
 10
32.6878433413555
 20
154.741186873798
 42
0.0
  0
VERTEX
  8
0
 10
32.6930979001608
 20
154.894952761026
 42
0.0
  0
VERTEX
  8
0
 10
32.6526351058698
 20
155.146300777837
 42
0.0
  0
VERTEX
  8
0
 10
32.5646243481281
 20
155.363665765416
 42
0.0
  0
SEQEND
  0
POLYLINE
  8
0
 66
     1
 10
0.0
 20
0.0
 30
0.0
 70
     1
  0
VERTEX
  8
0
 10
30.377626786007
 20
138.618919755515
 42
0.0
  0
VERTEX
  8
0
 10
30.6465675384653
 20
138.566027416959
 42
0.0
  0
VERTEX
  8
0
 10
30.7706184515837
 20
138.561303681051
 42
0.0
  0
VERTEX
  8
0
 10
30.9243758928478
 20
138.555855866079
 42
0.0
  0
VERTEX
  8
0
 10
31.1743779854497
 20
138.596000246453
 42
0.0
  0
VERTEX
  8
0
 10
31.3745686480585
 20
138.674345876761
 42
0.0
  0
VERTEX
  8
0
 10
31.3920883169493
 20
138.682593797345
 42
0.0
  0
VERTEX
  8
0
 10
31.5735678580673
 20
138.814419907321
 42
0.0
  0
VERTEX
  8
0
 10
31.6189217693648
 20
138.858163396592
 42
0.0
  0
VERTEX
  8
0
 10
31.6588001547317
 20
138.896851535309
 42
0.0
  0
VERTEX
  8
0
 10
31.9647615278698
 20
139.190559648599
 42
0.0
  0
VERTEX
  8
0
 10
32.1029849582154
 20
139.366593340077
 42
0.0
  0
VERTEX
  8
0
 10
32.1966877649045
 20
139.578754276361
 42
0.0
  0
VERTEX
  8
0
 10
32.2410438659309
 20
139.823861593118
 42
0.0
  0
VERTEX
  8
0
 10
32.2368638451493
 20
140.096248039957
 42
0.0
  0
VERTEX
  8
0
 10
32.2187724956069
 20
140.202637918381
 42
0.0
  0
VERTEX
  8
0
 10
32.183886423485
 20
140.388483815718
 42
0.0
  0
VERTEX
  8
0
 10
32.084630344851
 20
140.694189389411
 42
0.0
  0
VERTEX
  8
0
 10
31.9393069244588
 20
141.004755892531
 42
0.0
  0
VERTEX
  8
0
 10
31.8464972541795
 20
141.156771758785
 42
0.0
  0
VERTEX
  8
0
 10
31.7522090720806
 20
141.312844928016
 42
0.0
  0
VERTEX
  8
0
 10
31.528186781616
 20
141.609427907182
 42
0.0
  0
VERTEX
  8
0
 10
31.4237029814157
 20
141.726079881965
 42
0.0
  0
VERTEX
  8
0
 10
31.2732912377718
 20
141.890274392345
 42
0.0
  0
VERTEX
  8
0
 10
30.6161227144236
 20
142.549699250089
 42
0.0
  0
VERTEX
  8
0
 10
30.3366005261936
 20
142.806036760509
 42
0.0
  0
VERTEX
  8
0
 10
30.0439653480277
 20
143.027009833652
 42
0.0
  0
VERTEX
  8
0
 10
30.0375788574764
 20
143.032199683214
 42
0.0
  0
VERTEX
  8
0
 10
29.7288605189402
 20
143.221573607439
 42
0.0
  0
VERTEX
  8
0
 10
29.4158683285232
 20
143.371591357116
 42
0.0
  0
VERTEX
  8
0
 10
29.1081833186103
 20
143.476369301222
 42
0.0
  0
VERTEX
  8
0
 10
28.8122843395498
 20
143.534282268035
 42
0.0
  0
VERTEX
  8
0
 10
28.7568763183385
 20
143.536700452124
 42
0.0
  0
VERTEX
  8
0
 10
28.5346555185297
 20
143.54397860131
 42
0.0
  0
VERTEX
  8
0
 10
28.2840488200397
 20
143.505506459221
 42
0.0
  0
VERTEX
  8
0
 10
28.0664044943412
 20
143.418666322859
 42
0.0
  0
VERTEX
  8
0
 10
27.8854635533102
 20
143.285414560069
 42
0.0
  0
VERTEX
  8
0
 10
27.7912892957222
 20
143.195531902751
 42
0.0
  0
VERTEX
  8
0
 10
27.4942038777067
 20
142.909521404262
 42
0.0
  0
VERTEX
  8
0
 10
27.3674990464215
 20
142.749786311031
 42
0.0
  0
VERTEX
  8
0
 10
27.3547633656294
 20
142.732756387234
 42
0.0
  0
VERTEX
  8
0
 10
27.2622776406721
 20
142.521326776499
 42
0.0
  0
VERTEX
  8
0
 10
27.2166146912328
 20
142.275725742996
 42
0.0
  0
VERTEX
  8
0
 10
27.2202561119274
 20
142.004764948971
 42
0.0
  0
VERTEX
  8
0
 10
27.273413066954
 20
141.712053955605
 42
0.0
  0
VERTEX
  8
0
 10
27.3014335692915
 20
141.630050897182
 42
0.0
  0
VERTEX
  8
0
 10
27.3738862273197
 20
141.407079707461
 42
0.0
  0
VERTEX
  8
0
 10
27.5190961201505
 20
141.096741836475
 42
0.0
  0
VERTEX
  8
0
 10
27.7061042058475
 20
140.788890409793
 42
0.0
  0
VERTEX
  8
0
 10
27.9294717755477
 20
140.490159428931
 42
0.0
  0
VERTEX
  8
0
 10
28.1843435585117
 20
140.2093039671
 42
0.0
  0
VERTEX
  8
0
 10
28.2737335000861
 20
140.120889895707
 42
0.0
  0
VERTEX
  8
0
 10
28.41471714909
 20
139.977842022929
 42
0.0
  0
VERTEX
  8
0
 10
28.8414460760589
 20
139.550125694828
 42
0.0
  0
VERTEX
  8
0
 10
29.1224308851839
 20
139.293797706881
 42
0.0
  0
VERTEX
  8
0
 10
29.3225293433237
 20
139.14240095243
 42
0.0
  0
VERTEX
  8
0
 10
29.4213865481001
 20
139.067881369646
 42
0.0
  0
VERTEX
  8
0
 10
29.7301946533176
 20
138.878269836619
 42
0.0
  0
VERTEX
  8
0
 10
30.0413651561148
 20
138.729192999678
 42
0.0
  0
VERTEX
  8
0
 10
30.1562843534972
 20
138.690065875786
 42
0.0
  0
VERTEX
  8
0
 10
30.3508480927672
 20
138.623465166168
 42
0.0
  0
SEQEND
  0
POLYLINE
  8
0
 66
     1
 10
0.0
 20
0.0
 30
0.0
 70
     1
  0
VERTEX
  8
0
 10
27.484288820934
 20
148.152936824855
 42
0.0
  0
VERTEX
  8
0
 10
27.457192097783
 20
148.255924546062
 42
0.0
  0
VERTEX
  8
0
 10
27.3445568918217
 20
148.698310039955
 42
0.0
  0
VERTEX
  8
0
 10
27.1305246600149
 20
149.218056899787
 42
0.0
  0
VERTEX
  8
0
 10
26.84571678696
 20
149.702919637727
 42
0.0
  0
VERTEX
  8
0
 10
26.4964458874515
 20
150.143879187566
 42
0.0
  0
VERTEX
  8
0
 10
26.0890060922438
 20
150.5321810219
 42
0.0
  0
VERTEX
  8
0
 10
25.6330418464067
 20
150.857892637595
 42
0.0
  0
VERTEX
  8
0
 10
25.1339284461183
 20
151.118428905246
 42
0.0
  0
VERTEX
  8
0
 10
24.6043516989156
 20
151.307450021173
 42
0.0
  0
VERTEX
  8
0
 10
24.0947853838903
 20
151.412528026753
 42
0.0
  0
VERTEX
  8
0
 10
24.0535388472985
 20
151.420296305039
 42
0.0
  0
VERTEX
  8
0
 10
23.4922193158586
 20
151.45559080801
 42
0.0
  0
VERTEX
  8
0
 10
22.9307687393026
 20
151.413180531935
 42
0.0
  0
VERTEX
  8
0
 10
22.5307772961732
 20
151.325603135197
 42
0.0
  0
VERTEX
  8
0
 10
22.3825355158876
 20
151.292949476948
 42
0.0
  0
VERTEX
  8
0
 10
21.8555772375341
 20
151.096855648309
 42
0.0
  0
VERTEX
  8
0
 10
21.3616265022381
 20
150.829060004595
 42
0.0
  0
VERTEX
  8
0
 10
20.9073283959014
 20
150.495331268571
 42
0.0
  0
VERTEX
  8
0
 10
20.5062582812959
 20
150.102427233915
 42
0.0
  0
VERTEX
  8
0
 10
20.1637174278296
 20
149.656151984258
 42
0.0
  0
VERTEX
  8
0
 10
19.8855878593105
 20
149.167959446095
 42
0.0
  0
VERTEX
  8
0
 10
19.6780473441939
 20
148.645070925008
 42
0.0
  0
VERTEX
  8
0
 10
19.545694818755
 20
148.098455607413
 42
0.0
  0
VERTEX
  8
0
 10
19.5096433891491
 20
147.729956510051
 42
0.0
  0
VERTEX
  8
0
 10
19.4918566854158
 20
147.539144970593
 42
0.0
  0
VERTEX
  8
0
 10
19.5146266761073
 20
146.975922109374
 42
0.0
  0
VERTEX
  8
0
 10
19.6170592094839
 20
146.424060098614
 42
0.0
  0
VERTEX
  8
0
 10
19.7938951100449
 20
145.889717722228
 42
0.0
  0
VERTEX
  8
0
 10
20.0151656040844
 20
145.444387208104
 42
0.0
  0
VERTEX
  8
0
 10
20.0439329453619
 20
145.387646316713
 42
0.0
  0
VERTEX
  8
0
 10
20.3610608017668
 20
144.922596420699
 42
0.0
  0
VERTEX
  8
0
 10
20.7179926845392
 20
144.531504421749
 42
0.0
  0
VERTEX
  8
0
 10
20.7403837567155
 20
144.507380956178
 42
0.0
  0
VERTEX
  8
0
 10
21.1735563435952
 20
144.148350340912
 42
0.0
  0
VERTEX
  8
0
 10
21.6526713151144
 20
143.855007289579
 42
0.0
  0
VERTEX
  8
0
 10
22.1678704688891
 20
143.629872457489
 42
0.0
  0
VERTEX
  8
0
 10
22.7086725126069
 20
143.477403277045
 42
0.0
  0
VERTEX
  8
0
 10
23.2670672854997
 20
143.402990754134
 42
0.0
  0
VERTEX
  8
0
 10
23.8295558936679
 20
143.407508598369
 42
0.0
  0
VERTEX
  8
0
 10
24.3849944540792
 20
143.489190438341
 42
0.0
  0
VERTEX
  8
0
 10
24.9247392529653
 20
143.647485968266
 42
0.0
  0
VERTEX
  8
0
 10
25.3569914865054
 20
143.844727602316
 42
0.0
  0
VERTEX
  8
0
 10
25.4363210748405
 20
143.880399638793
 42
0.0
  0
VERTEX
  8
0
 10
25.9114711635861
 20
144.182363883482
 42
0.0
  0
VERTEX
  8
0
 10
26.3398086982636
 20
144.545927127195
 42
0.0
  0
VERTEX
  8
0
 10
26.5844642864714
 20
144.822447893845
 42
0.0
  0
VERTEX
  8
0
 10
26.7138754160009
 20
144.967185610913
 42
0.0
  0
VERTEX
  8
0
 10
27.0233354245041
 20
145.434903426193
 42
0.0
  0
VERTEX
  8
0
 10
27.2676343837749
 20
145.942354621613
 42
0.0
  0
VERTEX
  8
0
 10
27.4366581798027
 20
146.477572508988
 42
0.0
  0
VERTEX
  8
0
 10
27.5307791771209
 20
147.031737541015
 42
0.0
  0
VERTEX
  8
0
 10
27.5464729559047
 20
147.59455799682
 42
0.0
  0
SEQEND
  0
POLYLINE
  8
0
 66
     1
 10
0.0
 20
0.0
 30
0.0
 70
     1
  0
VERTEX
  8
0
 10
14.7735196528332
 20
155.084188227534
 42
0.0
  0
VERTEX
  8
0
 10
14.7744874588985
 20
154.960739857892
 42
0.0
  0
VERTEX
  8
0
 10
14.7778766138614
 20
154.807524276447
 42
0.0
  0
VERTEX
  8
0
 10
14.82976637228
 20
154.510261717553
 42
0.0
  0
VERTEX
  8
0
 10
14.8518174356229
 20
154.44039411558
 42
0.0
  0
VERTEX
  8
0
 10
14.9297617521278
 20
154.198861963467
 42
0.0
  0
VERTEX
  8
0
 10
15.0161009252573
 20
154.013448096058
 42
0.0
  0
VERTEX
  8
0
 10
15.0764079118575
 20
153.884722351643
 42
0.0
  0
VERTEX
  8
0
 10
15.2628906952762
 20
153.570427465682
 42
0.0
  0
VERTEX
  8
0
 10
15.4863216776615
 20
153.267647612707
 42
0.0
  0
VERTEX
  8
0
 10
15.7414364066729
 20
152.982268061158
 42
0.0
  0
VERTEX
  8
0
 10
16.0240743163697
 20
152.694253491848
 42
0.0
  0
VERTEX
  8
0
 10
16.3985918738338
 20
152.311162828011
 42
0.0
  0
VERTEX
  8
0
 10
16.678333247231
 20
152.050292251204
 42
0.0
  0
VERTEX
  8
0
 10
16.9774420895135
 20
151.820089433054
 42
0.0
  0
VERTEX
  8
0
 10
17.2865591465793
 20
151.625707224838
 42
0.0
  0
VERTEX
  8
0
 10
17.5998443979201
 20
151.474985625422
 42
0.0
  0
VERTEX
  8
0
 10
17.9067611595072
 20
151.368288311756
 42
0.0
  0
VERTEX
  8
0
 10
18.1538074365771
 20
151.318799860599
 42
0.0
  0
VERTEX
  8
0
 10
18.1696718950232
 20
151.31583310091
 42
0.0
  0
VERTEX
  8
0
 10
18.2030192052925
 20
151.309424909733
 42
0.0
  0
VERTEX
  8
0
 10
18.4808750814354
 20
151.299271312189
 42
0.0
  0
VERTEX
  8
0
 10
18.7296600923056
 20
151.338684367015
 42
0.0
  0
VERTEX
  8
0
 10
18.9493742379031
 20
151.427664074209
 42
0.0
  0
VERTEX
  8
0
 10
19.129776578847
 20
151.562341489813
 42
0.0
  0
VERTEX
  8
0
 10
19.3234289565468
 20
151.751713174725
 42
0.0
  0
VERTEX
  8
0
 10
19.5216513234099
 20
151.944440496096
 42
0.0
  0
VERTEX
  8
0
 10
19.658934842023
 20
152.123105837737
 42
0.0
  0
VERTEX
  8
0
 10
19.7529755476724
 20
152.338109648787
 42
0.0
  0
VERTEX
  8
0
 10
19.7966873910059
 20
152.588947052609
 42
0.0
  0
VERTEX
  8
0
 10
19.7947473175079
 20
152.769590756117
 42
0.0
  0
VERTEX
  8
0
 10
19.7940623509163
 20
152.864907699763
 42
0.0
  0
VERTEX
  8
0
 10
19.740350904878
 20
153.163111171392
 42
0.0
  0
VERTEX
  8
0
 10
19.6410076526786
 20
153.47285664053
 42
0.0
  0
VERTEX
  8
0
 10
19.4949924528331
 20
153.78913527738
 42
0.0
  0
VERTEX
  8
0
 10
19.3899455668011
 20
153.965852390799
 42
0.0
  0
VERTEX
  8
0
 10
19.3086892027767
 20
154.102954945737
 42
0.0
  0
VERTEX
  8
0
 10
19.0851024479093
 20
154.406218992984
 42
0.0
  0
VERTEX
  8
0
 10
18.8301672522603
 20
154.691123326929
 42
0.0
  0
VERTEX
  8
0
 10
18.6119382760161
 20
154.913868833592
 42
0.0
  0
VERTEX
  8
0
 10
18.1730117850994
 20
155.362228560076
 42
0.0
  0
VERTEX
  8
0
 10
17.9185629647882
 20
155.598985739591
 42
0.0
  0
VERTEX
  8
0
 10
17.8931568841407
 20
155.623327769017
 42
0.0
  0
VERTEX
  8
0
 10
17.5940718027385
 20
155.853539563836
 42
0.0
  0
VERTEX
  8
0
 10
17.2850207514736
 20
156.047675186581
 42
0.0
  0
VERTEX
  8
0
 10
16.9715797276507
 20
156.19888098027
 42
0.0
  0
VERTEX
  8
0
 10
16.6629072842448
 20
156.306272621201
 42
0.0
  0
VERTEX
  8
0
 10
16.3684946869595
 20
156.364204087157
 42
0.0
  0
VERTEX
  8
0
 10
16.2461756947797
 20
156.368224519132
 42
0.0
  0
VERTEX
  8
0
 10
16.0907285774978
 20
156.374120075898
 42
0.0
  0
VERTEX
  8
0
 10
15.8401218790078
 20
156.335647933808
 42
0.0
  0
VERTEX
  8
0
 10
15.6222056601498
 20
156.24571833721
 42
0.0
  0
VERTEX
  8
0
 10
15.4416237858436
 20
156.111516139211
 42
0.0
  0
VERTEX
  8
0
 10
15.3005828811868
 20
155.974060230169
 42
0.0
  0
VERTEX
  8
0
 10
15.0637414556092
 20
155.743120533491
 42
0.0
  0
VERTEX
  8
0
 10
15.0485557204292
 20
155.728694784047
 42
0.0
  0
VERTEX
  8
0
 10
14.9108471292904
 20
155.551226463086
 42
0.0
  0
VERTEX
  8
0
 10
14.8177700962538
 20
155.333599978542
 42
0.0
  0
SEQEND
  0
POLYLINE
  8
0
 66
     1
 10
0.0
 20
0.0
 30
0.0
 70
     1
  0
VERTEX
  8
0
 10
15.5344902199036
 20
138.76376652799
 42
0.0
  0
VERTEX
  8
0
 10
15.7229317334476
 20
138.681819838555
 42
0.0
  0
VERTEX
  8
0
 10
15.9669048662009
 20
138.636872338842
 42
0.0
  0
VERTEX
  8
0
 10
16.2396862864372
 20
138.640006880893
 42
0.0
  0
VERTEX
  8
0
 10
16.3677894241666
 20
138.663151669591
 42
0.0
  0
VERTEX
  8
0
 10
16.5320567122203
 20
138.692627889354
 42
0.0
  0
VERTEX
  8
0
 10
16.8372416391622
 20
138.793262099041
 42
0.0
  0
VERTEX
  8
0
 10
16.9607980653658
 20
138.852159202941
 42
0.0
  0
VERTEX
  8
0
 10
17.1477273522693
 20
138.938799367356
 42
0.0
  0
VERTEX
  8
0
 10
17.4556146856243
 20
139.125712409532
 42
0.0
  0
VERTEX
  8
0
 10
17.7538070663983
 20
139.350505632046
 42
0.0
  0
VERTEX
  8
0
 10
18.0333176654284
 20
139.604624967001
 42
0.0
  0
VERTEX
  8
0
 10
18.1554423767085
 20
139.726245789703
 42
0.0
  0
VERTEX
  8
0
 10
18.692935794439
 20
140.260563201416
 42
0.0
  0
VERTEX
  8
0
 10
18.949281735722
 20
140.541500488781
 42
0.0
  0
VERTEX
  8
0
 10
19.0790146316658
 20
140.71269739356
 42
0.0
  0
VERTEX
  8
0
 10
19.1754721342372
 20
140.839012014843
 42
0.0
  0
VERTEX
  8
0
 10
19.3648275593204
 20
141.149216735154
 42
0.0
  0
VERTEX
  8
0
 10
19.5146077001945
 20
141.46211915889
 42
0.0
  0
VERTEX
  8
0
 10
19.5697734355027
 20
141.624423251136
 42
0.0
  0
VERTEX
  8
0
 10
19.5973457645787
 20
141.703806423341
 42
0.0
  0
VERTEX
  8
0
 10
19.6193317842918
 20
141.769946734084
 42
0.0
  0
VERTEX
  8
0
 10
19.677138623201
 20
142.065479792569
 42
0.0
  0
VERTEX
  8
0
 10
19.6870303203576
 20
142.343453942409
 42
0.0
  0
VERTEX
  8
0
 10
19.6484367354468
 20
142.593878999821
 42
0.0
  0
VERTEX
  8
0
 10
19.5612364709516
 20
142.812907794821
 42
0.0
  0
VERTEX
  8
0
 10
19.4286003984333
 20
142.992506511471
 42
0.0
  0
VERTEX
  8
0
 10
19.4006570898325
 20
143.023492610694
 42
0.0
  0
VERTEX
  8
0
 10
19.0525646773447
 20
143.383712327066
 42
0.0
  0
VERTEX
  8
0
 10
18.9241854223953
 20
143.485634832091
 42
0.0
  0
VERTEX
  8
0
 10
18.8777190298781
 20
143.522384590817
 42
0.0
  0
VERTEX
  8
0
 10
18.6643969795864
 20
143.61556728146
 42
0.0
  0
VERTEX
  8
0
 10
18.4203340801519
 20
143.660752389976
 42
0.0
  0
VERTEX
  8
0
 10
18.1475526599156
 20
143.657617847924
 42
0.0
  0
VERTEX
  8
0
 10
17.8552720008137
 20
143.604759230661
 42
0.0
  0
VERTEX
  8
0
 10
17.7925960453934
 20
143.583795981577
 42
0.0
  0
VERTEX
  8
0
 10
17.5499973071906
 20
143.504362629776
 42
0.0
  0
VERTEX
  8
0
 10
17.2396013607647
 20
143.358587752659
 42
0.0
  0
VERTEX
  8
0
 10
16.9316242607284
 20
143.171912319286
 42
0.0
  0
VERTEX
  8
0
 10
16.8707914023137
 20
143.126665359995
 42
0.0
  0
VERTEX
  8
0
 10
16.6328932798674
 20
142.948544749585
 42
0.0
  0
VERTEX
  8
0
 10
16.3527332369127
 20
142.692550928411
 42
0.0
  0
VERTEX
  8
0
 10
15.6943929185949
 20
142.036823918599
 42
0.0
  0
VERTEX
  8
0
 10
15.4379572106308
 20
141.756124240036
 42
0.0
  0
VERTEX
  8
0
 10
15.2787400480673
 20
141.545821659583
 42
0.0
  0
VERTEX
  8
0
 10
15.2117668121156
 20
141.458612713975
 42
0.0
  0
VERTEX
  8
0
 10
15.1981177246005
 20
141.435807273966
 42
0.0
  0
VERTEX
  8
0
 10
15.0212233430207
 20
141.147959160257
 42
0.0
  0
VERTEX
  8
0
 10
14.8727210128394
 20
140.835267961125
 42
0.0
  0
VERTEX
  8
0
 10
14.767907162061
 20
140.527677994733
 42
0.0
  0
VERTEX
  8
0
 10
14.7089360400204
 20
140.231705079511
 42
0.0
  0
VERTEX
  8
0
 10
14.7068037739222
 20
140.155416430805
 42
0.0
  0
VERTEX
  8
0
 10
14.69983107523
 20
139.955385760425
 42
0.0
  0
VERTEX
  8
0
 10
14.7239795205752
 20
139.793721555112
 42
0.0
  0
VERTEX
  8
0
 10
14.7390345428686
 20
139.703561980203
 42
0.0
  0
VERTEX
  8
0
 10
14.8260499971617
 20
139.484734887332
 42
0.0
  0
VERTEX
  8
0
 10
14.9573554603869
 20
139.304633477268
 42
0.0
  0
VERTEX
  8
0
 10
15.0634258721151
 20
139.195640481586
 42
0.0
  0
VERTEX
  8
0
 10
15.3349118778104
 20
138.914002168433
 42
0.0
  0
VERTEX
  8
0
 10
15.3879047028417
 20
138.870757819447
 42
0.0
  0
VERTEX
  8
0
 10
15.5095199164747
 20
138.775240138
 42
0.0
  0
SEQEND
  0
POLYLINE
  8
0
 66
     1
 10
0.0
 20
0.0
 30
0.0
 70
     1
  0
VERTEX
  8
0
 10
22.052773252593
 20
99.9704648389785
 42
0.0
  0
VERTEX
  8
0
 10
21.9898199718455
 20
100.172316321101
 42
0.0
  0
VERTEX
  8
0
 10
21.9738521166799
 20
100.210270346993
 42
0.0
  0
VERTEX
  8
0
 10
21.9046582286428
 20
100.36251936284
 42
0.0
  0
VERTEX
  8
0
 10
21.7957092210073
 20
100.542378159086
 42
0.0
  0
VERTEX
  8
0
 10
21.6643247561992
 20
100.706158407343
 42
0.0
  0
VERTEX
  8
0
 10
21.5155263103088
 20
100.854942614827
 42
0.0
  0
VERTEX
  8
0
 10
21.3493298044634
 20
100.982220270151
 42
0.0
  0
VERTEX
  8
0
 10
21.1690617618958
 20
101.089248106852
 42
0.0
  0
VERTEX
  8
0
 10
20.9758310740214
 20
101.172372226213
 42
0.0
  0
VERTEX
  8
0
 10
20.7752875836988
 20
101.231011873835
 42
0.0
  0
VERTEX
  8
0
 10
20.568027966455
 20
101.26430638119
 42
0.0
  0
VERTEX
  8
0
 10
20.3584189474134
 20
101.273633939735
 42
0.0
  0
VERTEX
  8
0
 10
20.1488789199235
 20
101.254749282272
 42
0.0
  0
VERTEX
  8
0
 10
19.9442445196708
 20
101.211380304082
 42
0.0
  0
VERTEX
  8
0
 10
19.7443942887329
 20
101.144567207057
 42
0.0
  0
VERTEX
  8
0
 10
19.6190320658342
 20
101.082544190443
 42
0.0
  0
VERTEX
  8
0
 10
19.5565251807048
 20
101.053227634994
 42
0.0
  0
VERTEX
  8
0
 10
19.3803678955431
 20
100.938074414299
 42
0.0
  0
VERTEX
  8
0
 10
19.2195129494816
 20
100.801821622564
 42
0.0
  0
VERTEX
  8
0
 10
19.0774294008318
 20
100.648223539271
 42
0.0
  0
VERTEX
  8
0
 10
18.9541119425512
 20
100.479450334884
 42
0.0
  0
VERTEX
  8
0
 10
18.8545873577727
 20
100.294414346156
 42
0.0
  0
VERTEX
  8
0
 10
18.7763421794231
 20
100.099768619552
 42
0.0
  0
VERTEX
  8
0
 10
18.723325990461
 20
99.8972767974556
 42
0.0
  0
VERTEX
  8
0
 10
18.6961301593711
 20
99.6882483818004
 42
0.0
  0
VERTEX
  8
0
 10
18.6942952386627
 20
99.4782117575227
 42
0.0
  0
VERTEX
  8
0
 10
18.7183175230966
 20
99.2708842058211
 42
0.0
  0
VERTEX
  8
0
 10
18.7688781478388
 20
99.0673376198274
 42
0.0
  0
VERTEX
  8
0
 10
18.8429356598139
 20
98.8713103578967
 42
0.0
  0
VERTEX
  8
0
 10
18.9395026255289
 20
98.6854161168546
 42
0.0
  0
VERTEX
  8
0
 10
19.0591070309861
 20
98.5125695848118
 42
0.0
  0
VERTEX
  8
0
 10
19.1997212408018
 20
98.3552630006715
 42
0.0
  0
VERTEX
  8
0
 10
19.3574378263302
 20
98.2188082177239
 42
0.0
  0
VERTEX
  8
0
 10
19.5316390348879
 20
98.100528156661
 42
0.0
  0
VERTEX
  8
0
 10
19.7190404975547
 20
98.0062415796188
 42
0.0
  0
VERTEX
  8
0
 10
19.9154233313286
 20
97.934897670622
 42
0.0
  0
VERTEX
  8
0
 10
20.1201591694412
 20
97.8881596912868
 42
0.0
  0
VERTEX
  8
0
 10
20.328849595528
 20
97.8654520432427
 42
0.0
  0
VERTEX
  8
0
 10
20.5389864495584
 20
97.8712576024927
 42
0.0
  0
VERTEX
  8
0
 10
20.7467416064962
 20
97.902772524764
 42
0.0
  0
VERTEX
  8
0
 10
20.8136470590035
 20
97.9204462488988
 42
0.0
  0
VERTEX
  8
0
 10
20.9487040834698
 20
97.9568075148601
 42
0.0
  0
VERTEX
  8
0
 10
21.1431683135368
 20
98.0378771400255
 42
0.0
  0
VERTEX
  8
0
 10
21.3250019767693
 20
98.1415987540095
 42
0.0
  0
VERTEX
  8
0
 10
21.4946855978144
 20
98.2659817197122
 42
0.0
  0
VERTEX
  8
0
 10
21.6462155741313
 20
98.4103870562805
 42
0.0
  0
VERTEX
  8
0
 10
21.6981404539527
 20
98.475619539167
 42
0.0
  0
VERTEX
  8
0
 10
21.7790586126752
 20
98.5740702460662
 42
0.0
  0
VERTEX
  8
0
 10
21.8904637885842
 20
98.7513761391682
 42
0.0
  0
VERTEX
  8
0
 10
21.9804627930994
 20
98.9415021424983
 42
0.0
  0
VERTEX
  8
0
 10
22.045290883667
 20
99.1400392256071
 42
0.0
  0
VERTEX
  8
0
 10
22.0858140358576
 20
99.3454138935595
 42
0.0
  0
VERTEX
  8
0
 10
22.0991545598445
 20
99.5551813688071
 42
0.0
  0
VERTEX
  8
0
 10
22.0894258018346
 20
99.7649221578291
 42
0.0
  0
SEQEND
  0
ENDSEC
  0
EOF
