  0
SECTION
  2
HEADER
  9
$ACADVER
  1
AC1009
  9
$EXTMAX
 10
36.221923828125
 20
134.466079711914
 30
0.0
  9
$EXTMIN
 10
1.0004577636719
 20
1.1947600841522
 30
0.0
  9
$INSUNITS
 70
     4
  9
$LUNITS
 70
     2
  9
$LUPREC
 70
     4
  9
$MEASUREMENT
 70
     1
  0
ENDSEC
  0
SECTION
  2
TABLES
  0
TABLE
  2
LAYER
 70
     1
  0
LAYER
  2
0
 70
     0
 62
     7
  6
Continuous
  0
ENDTAB
  0
TABLE
  2
APPID
 70
     1
  0
APPID
  2
ACAD
 70
     0
  0
ENDTAB
  0
ENDSEC
  0
SECTION
  2
ENTITIES
  0
POLYLINE
  8
0
 66
     1
 10
0.0
 20
0.0
 30
0.0
 70
     1
  0
VERTEX
  8
0
 10
1.00045774
 20
8.5038946
 42
0.0
  0
VERTEX
  8
0
 10
3.7964872
 20
16.6191438
 42
0.0
  0
VERTEX
  8
0
 10
4.4703746
 20
18.5745628
 42
0.0
  0
VERTEX
  8
0
 10
4.5861224
 20
18.9066932
 42
0.0
  0
VERTEX
  8
0
 10
4.7528734
 20
28.304998
 42
0.0
  0
VERTEX
  8
0
 10
5.2076096
 20
28.581858
 42
0.0
  0
VERTEX
  8
0
 10
7.1478648
 20
29.75864
 42
0.0
  0
VERTEX
  8
0
 10
7.3821544
 20
29.900626
 42
0.0
  0
VERTEX
  8
0
 10
7.605395
 20
30.037024
 42
0.0
  0
VERTEX
  8
0
 10
8.3027012
 20
30.458664
 42
0.0
  0
VERTEX
  8
0
 10
8.4955888
 20
30.577282
 42
0.0
  0
VERTEX
  8
0
 10
8.5907118
 20
31.639764
 42
0.0
  0
VERTEX
  8
0
 10
8.6237572
 20
32.04083
 42
0.0
  0
VERTEX
  8
0
 10
8.9723976
 20
36.388294
 42
0.0
  0
VERTEX
  8
0
 10
9.3265752
 20
41.285922
 42
0.0
  0
VERTEX
  8
0
 10
9.6517968
 20
46.332394
 42
0.0
  0
VERTEX
  8
0
 10
9.6848422
 20
46.915324
 42
0.0
  0
VERTEX
  8
0
 10
9.7716594
 20
48.424338
 42
0.0
  0
VERTEX
  8
0
 10
9.949434
 20
51.52771
 42
0.0
  0
VERTEX
  8
0
 10
10.216769
 20
56.87314
 42
0.0
  0
VERTEX
  8
0
 10
10.456545
 20
62.36589
 42
0.0
  0
VERTEX
  8
0
 10
10.6605324
 20
67.814444
 42
0.0
  0
VERTEX
  8
0
 10
10.8231178
 20
73.12406
 42
0.0
  0
VERTEX
  8
0
 10
10.9113066
 20
76.838302
 42
0.0
  0
VERTEX
  8
0
 10
10.945749
 20
78.295754
 42
0.0
  0
VERTEX
  8
0
 10
10.974705
 20
80.06969
 42
0.0
  0
VERTEX
  8
0
 10
10.974705
 20
80.095852
 42
0.0
  0
VERTEX
  8
0
 10
10.9926374
 20
81.192624
 42
0.0
  0
VERTEX
  8
0
 10
11.028426
 20
83.330034
 42
0.0
  0
VERTEX
  8
0
 10
11.0615222
 20
87.21725
 42
0.0
  0
VERTEX
  8
0
 10
11.0711488
 20
88.224868
 42
0.0
  0
VERTEX
  8
0
 10
11.0725204
 20
92.981526
 42
0.0
  0
VERTEX
  8
0
 10
11.0642654
 20
93.946472
 42
0.0
  0
VERTEX
  8
0
 10
11.0339378
 20
97.576132
 42
0.0
  0
VERTEX
  8
0
 10
11.0339378
 20
97.644966
 42
0.0
  0
VERTEX
  8
0
 10
10.9567726
 20
101.704648
 42
0.0
  0
VERTEX
  8
0
 10
10.9485176
 20
102.160832
 42
0.0
  0
VERTEX
  8
0
 10
10.8162344
 20
106.531918
 42
0.0
  0
VERTEX
  8
0
 10
10.8024422
 20
106.84891
 42
0.0
  0
VERTEX
  8
0
 10
10.7666028
 20
107.688126
 42
0.0
  0
VERTEX
  8
0
 10
10.6384598
 20
110.755684
 42
0.0
  0
VERTEX
  8
0
 10
10.4620822
 20
113.96091
 42
0.0
  0
VERTEX
  8
0
 10
10.4165654
 20
114.774218
 42
0.0
  0
VERTEX
  8
0
 10
10.4138222
 20
114.831876
 42
0.0
  0
VERTEX
  8
0
 10
10.1423724
 20
118.762018
 42
0.0
  0
VERTEX
  8
0
 10
9.8268028
 20
122.599704
 42
0.0
  0
VERTEX
  8
0
 10
9.6007682
 20
124.89434
 42
0.0
  0
VERTEX
  8
0
 10
9.635236
 20
124.932948
 42
0.0
  0
VERTEX
  8
0
 10
9.7110296
 20
125.02134
 42
0.0
  0
VERTEX
  8
0
 10
9.8461068
 20
125.176788
 42
0.0
  0
VERTEX
  8
0
 10
10.1396038
 20
125.513084
 42
0.0
  0
VERTEX
  8
0
 10
10.1409754
 20
125.515878
 42
0.0
  0
VERTEX
  8
0
 10
11.104245
 20
126.623826
 42
0.0
  0
VERTEX
  8
0
 10
17.8235356
 20
134.3533
 42
0.0
  0
VERTEX
  8
0
 10
17.9145184
 20
134.456678
 42
0.0
  0
VERTEX
  8
0
 10
17.9227734
 20
134.466076
 42
0.0
  0
VERTEX
  8
0
 10
18.0798724
 20
134.329678
 42
0.0
  0
VERTEX
  8
0
 10
20.5410562
 20
132.189728
 42
0.0
  0
VERTEX
  8
0
 10
21.1018882
 20
131.701794
 42
0.0
  0
VERTEX
  8
0
 10
25.3366016
 20
128.021334
 42
0.0
  0
VERTEX
  8
0
 10
25.616408
 20
127.77724
 42
0.0
  0
VERTEX
  8
0
 10
26.247598
 20
127.2286
 42
0.0
  0
VERTEX
  8
0
 10
27.104594
 20
126.48311
 42
0.0
  0
VERTEX
  8
0
 10
27.899868
 20
125.791468
 42
0.0
  0
VERTEX
  8
0
 10
28.595574
 20
125.18644
 42
0.0
  0
VERTEX
  8
0
 10
28.598368
 20
125.184916
 42
0.0
  0
VERTEX
  8
0
 10
28.67152
 20
125.1204
 42
0.0
  0
VERTEX
  8
0
 10
28.697682
 20
125.098302
 42
0.0
  0
VERTEX
  8
0
 10
28.679648
 20
124.909326
 42
0.0
  0
VERTEX
  8
0
 10
28.657804
 20
124.658628
 42
0.0
  0
VERTEX
  8
0
 10
28.335224
 20
122.270774
 42
0.0
  0
VERTEX
  8
0
 10
27.883358
 20
118.44655
 42
0.0
  0
VERTEX
  8
0
 10
27.47264
 20
114.5286
 42
0.0
  0
VERTEX
  8
0
 10
27.420316
 20
113.96091
 42
0.0
  0
VERTEX
  8
0
 10
27.367738
 20
113.37671
 42
0.0
  0
VERTEX
  8
0
 10
27.119834
 20
110.63986
 42
0.0
  0
VERTEX
  8
0
 10
27.103324
 20
110.46079
 42
0.0
  0
VERTEX
  8
0
 10
27.056334
 20
109.864144
 42
0.0
  0
VERTEX
  8
0
 10
26.896568
 20
107.816396
 42
0.0
  0
VERTEX
  8
0
 10
26.855166
 20
107.295696
 42
0.0
  0
VERTEX
  8
0
 10
26.899362
 20
107.232196
 42
0.0
  0
VERTEX
  8
0
 10
26.940764
 20
107.185206
 42
0.0
  0
VERTEX
  8
0
 10
27.08402
 20
107.031028
 42
0.0
  0
VERTEX
  8
0
 10
27.269948
 20
106.869738
 42
0.0
  0
VERTEX
  8
0
 10
27.39136
 20
106.792522
 42
0.0
  0
VERTEX
  8
0
 10
27.45867
 20
106.74985
 42
0.0
  0
VERTEX
  8
0
 10
27.50566
 20
106.729022
 42
0.0
  0
VERTEX
  8
0
 10
27.60345
 20
106.684826
 42
0.0
  0
VERTEX
  8
0
 10
28.570936
 20
106.790998
 42
0.0
  0
VERTEX
  8
0
 10
28.636976
 20
106.797856
 42
0.0
  0
VERTEX
  8
0
 10
28.825698
 20
106.803444
 42
0.0
  0
VERTEX
  8
0
 10
30.176216
 20
106.842052
 42
0.0
  0
VERTEX
  8
0
 10
30.22727
 20
106.843322
 42
0.0
  0
VERTEX
  8
0
 10
30.376114
 20
106.84891
 42
0.0
  0
VERTEX
  8
0
 10
30.411928
 20
106.846116
 42
0.0
  0
VERTEX
  8
0
 10
30.618684
 20
106.830876
 42
0.0
  0
VERTEX
  8
0
 10
30.654498
 20
106.828082
 42
0.0
  0
VERTEX
  8
0
 10
31.914084
 20
106.737404
 42
0.0
  0
VERTEX
  8
0
 10
32.957262
 20
106.522266
 42
0.0
  0
VERTEX
  8
0
 10
33.235392
 20
106.464354
 42
0.0
  0
VERTEX
  8
0
 10
33.411922
 20
106.39425
 42
0.0
  0
VERTEX
  8
0
 10
33.602168
 20
106.319828
 42
0.0
  0
VERTEX
  8
0
 10
33.9217
 20
106.193082
 42
0.0
  0
VERTEX
  8
0
 10
34.317178
 20
106.037126
 42
0.0
  0
VERTEX
  8
0
 10
34.32556
 20
106.033062
 42
0.0
  0
VERTEX
  8
0
 10
34.755582
 20
105.739438
 42
0.0
  0
VERTEX
  8
0
 10
35.178492
 20
105.448862
 42
0.0
  0
VERTEX
  8
0
 10
35.780726
 20
104.715818
 42
0.0
  0
VERTEX
  8
0
 10
36.129468
 20
103.840788
 42
0.0
  0
VERTEX
  8
0
 10
36.221924
 20
102.833424
 42
0.0
  0
VERTEX
  8
0
 10
36.055046
 20
101.701854
 42
0.0
  0
VERTEX
  8
0
 10
35.769804
 20
100.862638
 42
0.0
  0
VERTEX
  8
0
 10
35.674554
 20
100.585778
 42
0.0
  0
VERTEX
  8
0
 10
35.631882
 20
100.459032
 42
0.0
  0
VERTEX
  8
0
 10
35.522916
 20
100.242624
 42
0.0
  0
VERTEX
  8
0
 10
34.955226
 20
99.115372
 42
0.0
  0
VERTEX
  8
0
 10
34.71545
 20
98.741738
 42
0.0
  0
VERTEX
  8
0
 10
34.555684
 20
98.49231
 42
0.0
  0
VERTEX
  8
0
 10
34.544762
 20
98.480118
 42
0.0
  0
VERTEX
  8
0
 10
34.397188
 20
98.32975
 42
0.0
  0
VERTEX
  8
0
 10
34.237422
 20
98.1837
 42
0.0
  0
VERTEX
  8
0
 10
34.06648
 20
98.041968
 42
0.0
  0
VERTEX
  8
0
 10
33.883092
 20
97.902776
 42
0.0
  0
VERTEX
  8
0
 10
33.687512
 20
97.770696
 42
0.0
  0
VERTEX
  8
0
 10
33.479486
 20
97.640902
 42
0.0
  0
VERTEX
  8
0
 10
33.367726
 20
97.576132
 42
0.0
  0
VERTEX
  8
0
 10
33.260284
 20
97.515426
 42
0.0
  0
VERTEX
  8
0
 10
33.02889
 20
97.403666
 42
0.0
  0
VERTEX
  8
0
 10
32.783526
 20
97.29216
 42
0.0
  0
VERTEX
  8
0
 10
32.711898
 20
97.261934
 42
0.0
  0
VERTEX
  8
0
 10
32.521652
 20
97.182178
 42
0.0
  0
VERTEX
  8
0
 10
32.246062
 20
97.073212
 42
0.0
  0
VERTEX
  8
0
 10
31.955232
 20
96.964246
 42
0.0
  0
VERTEX
  8
0
 10
31.758382
 20
96.895412
 42
0.0
  0
VERTEX
  8
0
 10
31.649416
 20
96.856804
 42
0.0
  0
VERTEX
  8
0
 10
31.62173
 20
96.848422
 42
0.0
  0
VERTEX
  8
0
 10
31.285688
 20
96.73844
 42
0.0
  0
VERTEX
  8
0
 10
30.953456
 20
96.615504
 42
0.0
  0
VERTEX
  8
0
 10
30.935676
 20
96.6089
 42
0.0
  0
VERTEX
  8
0
 10
30.654498
 20
96.494346
 42
0.0
  0
VERTEX
  8
0
 10
30.618684
 20
96.480376
 42
0.0
  0
VERTEX
  8
0
 10
30.596586
 20
96.470978
 42
0.0
  0
VERTEX
  8
0
 10
30.268672
 20
96.322134
 42
0.0
  0
VERTEX
  8
0
 10
29.95295
 20
96.162368
 42
0.0
  0
VERTEX
  8
0
 10
29.649928
 20
95.992696
 42
0.0
  0
VERTEX
  8
0
 10
29.355034
 20
95.79991
 42
0.0
  0
VERTEX
  8
0
 10
29.072586
 20
95.593154
 42
0.0
  0
VERTEX
  8
0
 10
28.984194
 20
95.522796
 42
0.0
  0
VERTEX
  8
0
 10
28.799536
 20
95.372682
 42
0.0
  0
VERTEX
  8
0
 10
28.537662
 20
95.138494
 42
0.0
  0
VERTEX
  8
0
 10
28.288488
 20
94.889066
 42
0.0
  0
VERTEX
  8
0
 10
28.058364
 20
94.636844
 42
0.0
  0
VERTEX
  8
0
 10
28.048458
 20
94.625668
 42
0.0
  0
VERTEX
  8
0
 10
27.81427
 20
94.348554
 42
0.0
  0
VERTEX
  8
0
 10
27.69997
 20
94.1959
 42
0.0
  0
VERTEX
  8
0
 10
27.591004
 20
94.04985
 42
0.0
  0
VERTEX
  8
0
 10
27.389836
 20
93.750638
 42
0.0
  0
VERTEX
  8
0
 10
27.37739
 20
93.732604
 42
0.0
  0
VERTEX
  8
0
 10
27.31008
 20
93.618304
 42
0.0
  0
VERTEX
  8
0
 10
27.254708
 20
93.480382
 42
0.0
  0
VERTEX
  8
0
 10
27.234134
 20
93.428312
 42
0.0
  0
VERTEX
  8
0
 10
27.13228
 20
93.171772
 42
0.0
  0
VERTEX
  8
0
 10
26.909014
 20
92.533978
 42
0.0
  0
VERTEX
  8
0
 10
26.705052
 20
91.868244
 42
0.0
  0
VERTEX
  8
0
 10
26.523188
 20
91.18346
 42
0.0
  0
VERTEX
  8
0
 10
26.520394
 20
91.176602
 42
0.0
  0
VERTEX
  8
0
 10
26.357834
 20
90.457274
 42
0.0
  0
VERTEX
  8
0
 10
26.214324
 20
89.711784
 42
0.0
  0
VERTEX
  8
0
 10
26.157936
 20
89.383616
 42
0.0
  0
VERTEX
  8
0
 10
26.083514
 20
88.953594
 42
0.0
  0
VERTEX
  8
0
 10
25.970484
 20
88.175084
 42
0.0
  0
VERTEX
  8
0
 10
25.953974
 20
88.033352
 42
0.0
  0
VERTEX
  8
0
 10
25.813512
 20
85.288374
 42
0.0
  0
VERTEX
  8
0
 10
25.777698
 20
84.596478
 42
0.0
  0
VERTEX
  8
0
 10
25.736296
 20
83.06816
 42
0.0
  0
VERTEX
  8
0
 10
25.700482
 20
81.192624
 42
0.0
  0
VERTEX
  8
0
 10
25.639776
 20
78.035404
 42
0.0
  0
VERTEX
  8
0
 10
25.62606
 20
76.838302
 42
0.0
  0
VERTEX
  8
0
 10
25.616408
 20
76.115926
 42
0.0
  0
VERTEX
  8
0
 10
25.5778
 20
72.86244
 42
0.0
  0
VERTEX
  8
0
 10
25.551638
 20
67.549776
 42
0.0
  0
VERTEX
  8
0
 10
25.56129
 20
62.095888
 42
0.0
  0
VERTEX
  8
0
 10
25.601168
 20
57.089294
 42
0.0
  0
VERTEX
  8
0
 10
25.605232
 20
56.599074
 42
0.0
  0
VERTEX
  8
0
 10
25.616408
 20
55.764938
 42
0.0
  0
VERTEX
  8
0
 10
25.682448
 20
51.248056
 42
0.0
  0
VERTEX
  8
0
 10
25.726644
 20
49.149
 42
0.0
  0
VERTEX
  8
0
 10
25.743154
 20
48.424338
 42
0.0
  0
VERTEX
  8
0
 10
25.794208
 20
46.045628
 42
0.0
  0
VERTEX
  8
0
 10
25.938734
 20
40.989504
 42
0.0
  0
VERTEX
  8
0
 10
26.119328
 20
36.084002
 42
0.0
  0
VERTEX
  8
0
 10
26.299922
 20
32.04083
 42
0.0
  0
VERTEX
  8
0
 10
26.331672
 20
31.324296
 42
0.0
  0
VERTEX
  8
0
 10
26.383996
 20
30.363668
 42
0.0
  0
VERTEX
  8
0
 10
26.396442
 20
30.125162
 42
0.0
  0
VERTEX
  8
0
 10
27.1653
 20
29.620972
 42
0.0
  0
VERTEX
  8
0
 10
27.37739
 20
29.48178
 42
0.0
  0
VERTEX
  8
0
 10
29.509212
 20
28.081732
 42
0.0
  0
VERTEX
  8
0
 10
29.849572
 20
27.858466
 42
0.0
  0
VERTEX
  8
0
 10
29.69387
 20
19.1753998
 42
0.0
  0
VERTEX
  8
0
 10
29.688536
 20
18.8322712
 42
0.0
  0
VERTEX
  8
0
 10
33.016444
 20
7.9347568
 42
0.0
  0
VERTEX
  8
0
 10
29.45003
 20
5.4391306
 42
0.0
  0
VERTEX
  8
0
 10
26.917142
 20
3.6669472
 42
0.0
  0
VERTEX
  8
0
 10
26.42108
 20
3.3197038
 42
0.0
  0
VERTEX
  8
0
 10
25.616408
 20
2.7574494
 42
0.0
  0
VERTEX
  8
0
 10
23.3839512
 20
1.19476012
 42
0.0
  0
VERTEX
  8
0
 10
21.5511126
 20
2.5769316
 42
0.0
  0
VERTEX
  8
0
 10
21.1018882
 20
2.9145484
 42
0.0
  0
VERTEX
  8
0
 10
18.9728348
 20
4.5213524
 42
0.0
  0
VERTEX
  8
0
 10
18.1928516
 20
5.1097688
 42
0.0
  0
VERTEX
  8
0
 10
16.8782238
 20
4.311904
 42
0.0
  0
VERTEX
  8
0
 10
15.6558996
 20
5.113909
 42
0.0
  0
VERTEX
  8
0
 10
10.3862632
 20
1.42627096
 42
0.0
  0
VERTEX
  8
0
 10
8.3412584
 20
2.9682948
 42
0.0
  0
VERTEX
  8
0
 10
6.921881
 20
4.0390318
 42
0.0
  0
VERTEX
  8
0
 10
4.4703746
 20
5.8869834
 42
0.0
  0
VERTEX
  8
0
 10
3.7964872
 20
6.395466
 42
0.0
  0
SEQEND
  0
POLYLINE
  8
0
 66
     1
 10
0.0
 20
0.0
 30
0.0
 70
     1
  0
VERTEX
  8
0
 10
33.268666
 20
103.847646
 42
0.0
  0
VERTEX
  8
0
 10
33.152842
 20
103.947976
 42
0.0
  0
VERTEX
  8
0
 10
33.071562
 20
104.019604
 42
0.0
  0
VERTEX
  8
0
 10
32.958532
 20
104.117648
 42
0.0
  0
VERTEX
  8
0
 10
32.875728
 20
104.1908
 42
0.0
  0
VERTEX
  8
0
 10
32.750506
 20
104.299512
 42
0.0
  0
VERTEX
  8
0
 10
32.725614
 20
104.32161
 42
0.0
  0
VERTEX
  8
0
 10
32.666432
 20
104.364282
 42
0.0
  0
VERTEX
  8
0
 10
32.60852
 20
104.408478
 42
0.0
  0
VERTEX
  8
0
 10
32.5755
 20
104.424988
 42
0.0
  0
VERTEX
  8
0
 10
32.426656
 20
104.516174
 42
0.0
  0
VERTEX
  8
0
 10
32.322008
 20
104.562656
 42
0.0
  0
VERTEX
  8
0
 10
32.237934
 20
104.601518
 42
0.0
  0
VERTEX
  8
0
 10
32.04083
 20
104.666034
 42
0.0
  0
VERTEX
  8
0
 10
31.838138
 20
104.70896
 42
0.0
  0
VERTEX
  8
0
 10
31.631382
 20
104.72801
 42
0.0
  0
VERTEX
  8
0
 10
31.423356
 20
104.723946
 42
0.0
  0
VERTEX
  8
0
 10
31.2166
 20
104.697784
 42
0.0
  0
VERTEX
  8
0
 10
31.015432
 20
104.646984
 42
0.0
  0
VERTEX
  8
0
 10
30.821122
 20
104.575356
 42
0.0
  0
VERTEX
  8
0
 10
30.797754
 20
104.562656
 42
0.0
  0
VERTEX
  8
0
 10
30.756352
 20
104.543606
 42
0.0
  0
VERTEX
  8
0
 10
30.654498
 20
104.491028
 42
0.0
  0
VERTEX
  8
0
 10
30.636464
 20
104.481376
 42
0.0
  0
VERTEX
  8
0
 10
30.618684
 20
104.470454
 42
0.0
  0
VERTEX
  8
0
 10
30.461458
 20
104.3686
 42
0.0
  0
VERTEX
  8
0
 10
30.301692
 20
104.234996
 42
0.0
  0
VERTEX
  8
0
 10
30.158436
 20
104.085898
 42
0.0
  0
VERTEX
  8
0
 10
30.03169
 20
103.922068
 42
0.0
  0
VERTEX
  8
0
 10
29.923994
 20
103.742744
 42
0.0
  0
VERTEX
  8
0
 10
29.913072
 20
103.7209
 42
0.0
  0
VERTEX
  8
0
 10
29.900626
 20
103.693468
 42
0.0
  0
VERTEX
  8
0
 10
29.83865
 20
103.554022
 42
0.0
  0
VERTEX
  8
0
 10
29.77261
 20
103.356918
 42
0.0
  0
VERTEX
  8
0
 10
29.729684
 20
103.154226
 42
0.0
  0
VERTEX
  8
0
 10
29.710634
 20
102.947724
 42
0.0
  0
VERTEX
  8
0
 10
29.714698
 20
102.739444
 42
0.0
  0
VERTEX
  8
0
 10
29.74213
 20
102.533196
 42
0.0
  0
VERTEX
  8
0
 10
29.791914
 20
102.331774
 42
0.0
  0
VERTEX
  8
0
 10
29.863542
 20
102.13721
 42
0.0
  0
VERTEX
  8
0
 10
29.900626
 20
102.064312
 42
0.0
  0
VERTEX
  8
0
 10
29.915866
 20
102.036626
 42
0.0
  0
VERTEX
  8
0
 10
29.958538
 20
101.952806
 42
0.0
  0
VERTEX
  8
0
 10
29.994352
 20
101.897688
 42
0.0
  0
VERTEX
  8
0
 10
30.071568
 20
101.7778
 42
0.0
  0
VERTEX
  8
0
 10
30.08249
 20
101.765354
 42
0.0
  0
VERTEX
  8
0
 10
30.159706
 20
101.673152
 42
0.0
  0
VERTEX
  8
0
 10
30.203902
 20
101.618034
 42
0.0
  0
VERTEX
  8
0
 10
30.235652
 20
101.587554
 42
0.0
  0
VERTEX
  8
0
 10
30.269942
 20
101.554534
 42
0.0
  0
VERTEX
  8
0
 10
30.294834
 20
101.518974
 42
0.0
  0
VERTEX
  8
0
 10
30.398212
 20
101.415596
 42
0.0
  0
VERTEX
  8
0
 10
30.494478
 20
101.331268
 42
0.0
  0
VERTEX
  8
0
 10
30.555184
 20
101.278944
 42
0.0
  0
VERTEX
  8
0
 10
30.618684
 20
101.223826
 42
0.0
  0
VERTEX
  8
0
 10
30.654498
 20
101.1936
 42
0.0
  0
VERTEX
  8
0
 10
30.818328
 20
101.05009
 42
0.0
  0
VERTEX
  8
0
 10
31.03626
 20
100.862638
 42
0.0
  0
VERTEX
  8
0
 10
31.067756
 20
100.833682
 42
0.0
  0
VERTEX
  8
0
 10
31.098236
 20
100.807774
 42
0.0
  0
VERTEX
  8
0
 10
31.209742
 20
100.711
 42
0.0
  0
VERTEX
  8
0
 10
31.303468
 20
100.629974
 42
0.0
  0
VERTEX
  8
0
 10
31.364174
 20
100.585778
 42
0.0
  0
VERTEX
  8
0
 10
31.375096
 20
100.57765
 42
0.0
  0
VERTEX
  8
0
 10
31.420562
 20
100.544376
 42
0.0
  0
VERTEX
  8
0
 10
31.508954
 20
100.49764
 42
0.0
  0
VERTEX
  8
0
 10
31.551626
 20
100.476812
 42
0.0
  0
VERTEX
  8
0
 10
31.58871
 20
100.464366
 42
0.0
  0
VERTEX
  8
0
 10
31.601156
 20
100.456238
 42
0.0
  0
VERTEX
  8
0
 10
31.789878
 20
100.369624
 42
0.0
  0
VERTEX
  8
0
 10
31.986982
 20
100.3046
 42
0.0
  0
VERTEX
  8
0
 10
32.190944
 20
100.261928
 42
0.0
  0
VERTEX
  8
0
 10
32.3977
 20
100.242624
 42
0.0
  0
VERTEX
  8
0
 10
32.604456
 20
100.246688
 42
0.0
  0
VERTEX
  8
0
 10
32.666432
 20
100.255324
 42
0.0
  0
VERTEX
  8
0
 10
32.810958
 20
100.27285
 42
0.0
  0
VERTEX
  8
0
 10
33.01238
 20
100.323904
 42
0.0
  0
VERTEX
  8
0
 10
33.20669
 20
100.395532
 42
0.0
  0
VERTEX
  8
0
 10
33.392618
 20
100.489512
 42
0.0
  0
VERTEX
  8
0
 10
33.538668
 20
100.585778
 42
0.0
  0
VERTEX
  8
0
 10
33.566354
 20
100.603812
 42
0.0
  0
VERTEX
  8
0
 10
33.72612
 20
100.736146
 42
0.0
  0
VERTEX
  8
0
 10
33.847278
 20
100.862638
 42
0.0
  0
VERTEX
  8
0
 10
33.869376
 20
100.88499
 42
0.0
  0
VERTEX
  8
0
 10
33.9217
 20
100.9523
 42
0.0
  0
VERTEX
  8
0
 10
33.997646
 20
101.049074
 42
0.0
  0
VERTEX
  8
0
 10
34.103818
 20
101.22789
 42
0.0
  0
VERTEX
  8
0
 10
34.190432
 20
101.416612
 42
0.0
  0
VERTEX
  8
0
 10
34.255202
 20
101.613716
 42
0.0
  0
VERTEX
  8
0
 10
34.267648
 20
101.673152
 42
0.0
  0
VERTEX
  8
0
 10
34.298128
 20
101.817678
 42
0.0
  0
VERTEX
  8
0
 10
34.317178
 20
102.02291
 42
0.0
  0
VERTEX
  8
0
 10
34.313114
 20
102.23119
 42
0.0
  0
VERTEX
  8
0
 10
34.285682
 20
102.437946
 42
0.0
  0
VERTEX
  8
0
 10
34.235898
 20
102.63886
 42
0.0
  0
VERTEX
  8
0
 10
34.16427
 20
102.833424
 42
0.0
  0
VERTEX
  8
0
 10
34.070544
 20
103.018082
 42
0.0
  0
VERTEX
  8
0
 10
33.957514
 20
103.193088
 42
0.0
  0
VERTEX
  8
0
 10
33.9217
 20
103.23449
 42
0.0
  0
VERTEX
  8
0
 10
33.90519
 20
103.25481
 42
0.0
  0
VERTEX
  8
0
 10
33.82391
 20
103.352854
 42
0.0
  0
VERTEX
  8
0
 10
33.814258
 20
103.360982
 42
0.0
  0
VERTEX
  8
0
 10
33.72485
 20
103.44785
 42
0.0
  0
VERTEX
  8
0
 10
33.675066
 20
103.49611
 42
0.0
  0
VERTEX
  8
0
 10
33.640776
 20
103.522272
 42
0.0
  0
VERTEX
  8
0
 10
33.631124
 20
103.530654
 42
0.0
  0
VERTEX
  8
0
 10
33.622742
 20
103.538782
 42
0.0
  0
VERTEX
  8
0
 10
33.602168
 20
103.556816
 42
0.0
  0
VERTEX
  8
0
 10
33.588198
 20
103.567738
 42
0.0
  0
VERTEX
  8
0
 10
33.555178
 20
103.598218
 42
0.0
  0
VERTEX
  8
0
 10
33.489138
 20
103.654606
 42
0.0
  0
VERTEX
  8
0
 10
33.477962
 20
103.664512
 42
0.0
  0
VERTEX
  8
0
 10
33.414716
 20
103.7209
 42
0.0
  0
VERTEX
  8
0
 10
33.290764
 20
103.828088
 42
0.0
  0
VERTEX
  8
0
 10
33.279588
 20
103.839518
 42
0.0
  0
SEQEND
  0
POLYLINE
  8
0
 66
     1
 10
0.0
 20
0.0
 30
0.0
 70
     1
  0
VERTEX
  8
0
 10
8.3302602
 20
10.4896412
 42
0.0
  0
VERTEX
  8
0
 10
8.3495388
 20
10.4648254
 42
0.0
  0
VERTEX
  8
0
 10
8.7298784
 20
10.070719
 42
0.0
  0
VERTEX
  8
0
 10
8.9076276
 20
9.9315016
 42
0.0
  0
VERTEX
  8
0
 10
9.1226132
 20
9.837801
 42
0.0
  0
VERTEX
  8
0
 10
9.3734128
 20
9.7909634
 42
0.0
  0
VERTEX
  8
0
 10
9.6503998
 20
9.7937066
 42
0.0
  0
VERTEX
  8
0
 10
9.9466654
 20
9.8447098
 42
0.0
  0
VERTEX
  8
0
 10
10.1396038
 20
9.9053396
 42
0.0
  0
VERTEX
  8
0
 10
10.2581202
 20
9.9425506
 42
0.0
  0
VERTEX
  8
0
 10
10.5750868
 20
10.0858574
 42
0.0
  0
VERTEX
  8
0
 10
10.8892594
 20
10.2719124
 42
0.0
  0
VERTEX
  8
0
 10
11.1938054
 20
10.493756
 42
0.0
  0
VERTEX
  8
0
 10
11.4804444
 20
10.7472988
 42
0.0
  0
VERTEX
  8
0
 10
11.9489728
 20
11.2006888
 42
0.0
  0
VERTEX
  8
0
 10
12.1184924
 20
11.3646712
 42
0.0
  0
VERTEX
  8
0
 10
12.1556526
 20
11.4005106
 42
0.0
  0
VERTEX
  8
0
 10
12.3058682
 20
11.5603528
 42
0.0
  0
VERTEX
  8
0
 10
12.4175012
 20
11.6788946
 42
0.0
  0
VERTEX
  8
0
 10
12.6490222
 20
11.9765318
 42
0.0
  0
VERTEX
  8
0
 10
12.8433322
 20
12.283821
 42
0.0
  0
VERTEX
  8
0
 10
12.9976626
 20
12.5966474
 42
0.0
  0
VERTEX
  8
0
 10
13.1065016
 20
12.9039366
 42
0.0
  0
VERTEX
  8
0
 10
13.1671568
 20
13.198856
 42
0.0
  0
VERTEX
  8
0
 10
13.1795774
 20
13.4758176
 42
0.0
  0
VERTEX
  8
0
 10
13.1589018
 20
13.6081262
 42
0.0
  0
VERTEX
  8
0
 10
13.1395978
 20
13.7280396
 42
0.0
  0
VERTEX
  8
0
 10
13.0527806
 20
13.9457684
 42
0.0
  0
VERTEX
  8
0
 10
12.9191004
 20
14.1276578
 42
0.0
  0
VERTEX
  8
0
 10
12.5374146
 20
14.5203926
 42
0.0
  0
VERTEX
  8
0
 10
12.3610116
 20
14.6609562
 42
0.0
  0
VERTEX
  8
0
 10
12.1446544
 20
14.7546568
 42
0.0
  0
VERTEX
  8
0
 10
11.8966234
 20
14.8001228
 42
0.0
  0
VERTEX
  8
0
 10
11.619611
 20
14.7987512
 42
0.0
  0
VERTEX
  8
0
 10
11.3205768
 20
14.7477734
 42
0.0
  0
VERTEX
  8
0
 10
11.010519
 20
14.6499072
 42
0.0
  0
VERTEX
  8
0
 10
10.6935778
 20
14.5052288
 42
0.0
  0
VERTEX
  8
0
 10
10.3794052
 20
14.3205962
 42
0.0
  0
VERTEX
  8
0
 10
10.1396038
 20
14.1455648
 42
0.0
  0
VERTEX
  8
0
 10
10.0748338
 20
14.0987018
 42
0.0
  0
VERTEX
  8
0
 10
9.7881948
 20
13.8437874
 42
0.0
  0
VERTEX
  8
0
 10
9.1143328
 20
13.1919472
 42
0.0
  0
VERTEX
  8
0
 10
8.8511126
 20
12.9122424
 42
0.0
  0
VERTEX
  8
0
 10
8.6196424
 20
12.615926
 42
0.0
  0
VERTEX
  8
0
 10
8.4239354
 20
12.3072398
 42
0.0
  0
VERTEX
  8
0
 10
8.3274916
 20
12.1129298
 42
0.0
  0
VERTEX
  8
0
 10
8.269605
 20
11.9958104
 42
0.0
  0
VERTEX
  8
0
 10
8.1621122
 20
11.6871496
 42
0.0
  0
VERTEX
  8
0
 10
8.1359502
 20
11.5603528
 42
0.0
  0
VERTEX
  8
0
 10
8.1014824
 20
11.3922556
 42
0.0
  0
VERTEX
  8
0
 10
8.0959706
 20
11.2682274
 42
0.0
  0
VERTEX
  8
0
 10
8.0904588
 20
11.1152432
 42
0.0
  0
VERTEX
  8
0
 10
8.1276952
 20
10.864469
 42
0.0
  0
VERTEX
  8
0
 10
8.215884
 20
10.6453432
 42
0.0
  0
SEQEND
  0
POLYLINE
  8
0
 66
     1
 10
0.0
 20
0.0
 30
0.0
 70
     1
  0
VERTEX
  8
0
 10
9.581515
 20
24.1115596
 42
0.0
  0
VERTEX
  8
0
 10
9.8405696
 20
23.8483394
 42
0.0
  0
VERTEX
  8
0
 10
10.1396038
 20
23.545165
 42
0.0
  0
VERTEX
  8
0
 10
10.2333044
 20
23.4487212
 42
0.0
  0
VERTEX
  8
0
 10
10.51306
 20
23.1910128
 42
0.0
  0
VERTEX
  8
0
 10
10.8093256
 20
22.9636574
 42
0.0
  0
VERTEX
  8
0
 10
11.1180118
 20
22.770719
 42
0.0
  0
VERTEX
  8
0
 10
11.4294412
 20
22.6205034
 42
0.0
  0
VERTEX
  8
0
 10
11.7381274
 20
22.5130106
 42
0.0
  0
VERTEX
  8
0
 10
12.0344184
 20
22.4537524
 42
0.0
  0
VERTEX
  8
0
 10
12.1873772
 20
22.4482406
 42
0.0
  0
VERTEX
  8
0
 10
12.3100084
 20
22.4427288
 42
0.0
  0
VERTEX
  8
0
 10
12.5608334
 20
22.4813368
 42
0.0
  0
VERTEX
  8
0
 10
12.7799338
 20
22.5667824
 42
0.0
  0
VERTEX
  8
0
 10
12.9604516
 20
22.6990656
 42
0.0
  0
VERTEX
  8
0
 10
13.1795774
 20
22.9057454
 42
0.0
  0
VERTEX
  8
0
 10
13.3545834
 20
23.072471
 42
0.0
  0
VERTEX
  8
0
 10
13.49375
 20
23.2461054
 42
0.0
  0
VERTEX
  8
0
 10
13.5874506
 20
23.4583478
 42
0.0
  0
VERTEX
  8
0
 10
13.6356852
 20
23.7036356
 42
0.0
  0
VERTEX
  8
0
 10
13.6329166
 20
23.8483394
 42
0.0
  0
VERTEX
  8
0
 10
13.631545
 20
23.9750854
 42
0.0
  0
VERTEX
  8
0
 10
13.5805672
 20
24.2686332
 42
0.0
  0
VERTEX
  8
0
 10
13.4827518
 20
24.5732046
 42
0.0
  0
VERTEX
  8
0
 10
13.3394196
 20
24.8860056
 42
0.0
  0
VERTEX
  8
0
 10
13.1795774
 20
25.151969
 42
0.0
  0
VERTEX
  8
0
 10
13.15339
 20
25.1933202
 42
0.0
  0
VERTEX
  8
0
 10
12.931521
 20
25.493726
 42
0.0
  0
VERTEX
  8
0
 10
12.6779528
 20
25.774904
 42
0.0
  0
VERTEX
  8
0
 10
12.5594618
 20
25.896062
 42
0.0
  0
VERTEX
  8
0
 10
12.0261126
 20
26.43759
 42
0.0
  0
VERTEX
  8
0
 10
11.7464078
 20
26.69667
 42
0.0
  0
VERTEX
  8
0
 10
11.4487198
 20
26.92273
 42
0.0
  0
VERTEX
  8
0
 10
11.1414306
 20
27.11577
 42
0.0
  0
VERTEX
  8
0
 10
10.8286296
 20
27.265884
 42
0.0
  0
VERTEX
  8
0
 10
10.521315
 20
27.373326
 42
0.0
  0
VERTEX
  8
0
 10
10.226421
 20
27.432508
 42
0.0
  0
VERTEX
  8
0
 10
10.1396038
 20
27.435302
 42
0.0
  0
VERTEX
  8
0
 10
9.949434
 20
27.443684
 42
0.0
  0
VERTEX
  8
0
 10
9.6986344
 20
27.406346
 42
0.0
  0
VERTEX
  8
0
 10
9.479534
 20
27.321002
 42
0.0
  0
VERTEX
  8
0
 10
9.2976446
 20
27.188668
 42
0.0
  0
VERTEX
  8
0
 10
8.9048844
 20
26.813764
 42
0.0
  0
VERTEX
  8
0
 10
8.7643462
 20
26.640282
 42
0.0
  0
VERTEX
  8
0
 10
8.6706202
 20
26.427938
 42
0.0
  0
VERTEX
  8
0
 10
8.6251288
 20
26.182828
 42
0.0
  0
VERTEX
  8
0
 10
8.6265004
 20
25.911302
 42
0.0
  0
VERTEX
  8
0
 10
8.629269
 20
25.896062
 42
0.0
  0
VERTEX
  8
0
 10
8.677529
 20
25.617678
 42
0.0
  0
VERTEX
  8
0
 10
8.776716
 20
25.3131828
 42
0.0
  0
VERTEX
  8
0
 10
8.9200482
 20
25.0017534
 42
0.0
  0
VERTEX
  8
0
 10
9.1047062
 20
24.6930672
 42
0.0
  0
VERTEX
  8
0
 10
9.3279468
 20
24.3940076
 42
0.0
  0
SEQEND
  0
POLYLINE
  8
0
 66
     1
 10
0.0
 20
0.0
 30
0.0
 70
     1
  0
VERTEX
  8
0
 10
16.4606732
 20
22.4757996
 42
0.0
  0
VERTEX
  8
0
 10
16.3490656
 20
22.4427288
 42
0.0
  0
VERTEX
  8
0
 10
15.920466
 20
22.3187006
 42
0.0
  0
VERTEX
  8
0
 10
15.4064716
 20
22.0899482
 42
0.0
  0
VERTEX
  8
0
 10
14.9296628
 20
21.790914
 42
0.0
  0
VERTEX
  8
0
 10
14.4983454
 20
21.4298784
 42
0.0
  0
VERTEX
  8
0
 10
14.1235176
 20
21.0109562
 42
0.0
  0
VERTEX
  8
0
 10
13.8093196
 20
20.5437994
 42
0.0
  0
VERTEX
  8
0
 10
13.5640318
 20
20.03806
 42
0.0
  0
VERTEX
  8
0
 10
13.4717028
 20
19.7527926
 42
0.0
  0
VERTEX
  8
0
 10
13.3903974
 20
19.50339
 42
0.0
  0
VERTEX
  8
0
 10
13.2939282
 20
18.9493906
 42
0.0
  0
VERTEX
  8
0
 10
13.2746496
 20
18.3871616
 42
0.0
  0
VERTEX
  8
0
 10
13.3352794
 20
17.8290728
 42
0.0
  0
VERTEX
  8
0
 10
13.4717028
 20
17.2819822
 42
0.0
  0
VERTEX
  8
0
 10
13.6825482
 20
16.761079
 42
0.0
  0
VERTEX
  8
0
 10
13.9650216
 20
16.2746182
 42
0.0
  0
VERTEX
  8
0
 10
14.3122904
 20
15.8322772
 42
0.0
  0
VERTEX
  8
0
 10
14.4941798
 20
15.6558996
 42
0.0
  0
VERTEX
  8
0
 10
14.7174712
 20
15.4422856
 42
0.0
  0
VERTEX
  8
0
 10
15.1722074
 20
15.1129238
 42
0.0
  0
VERTEX
  8
0
 10
15.6696918
 20
14.8483574
 42
0.0
  0
VERTEX
  8
0
 10
16.1974784
 20
14.656816
 42
0.0
  0
VERTEX
  8
0
 10
16.7486838
 20
14.5410682
 42
0.0
  0
VERTEX
  8
0
 10
17.3095412
 20
14.5024856
 42
0.0
  0
VERTEX
  8
0
 10
17.870424
 20
14.5424398
 42
0.0
  0
VERTEX
  8
0
 10
18.3306466
 20
14.6416522
 42
0.0
  0
VERTEX
  8
0
 10
18.4202324
 20
14.6609562
 42
0.0
  0
VERTEX
  8
0
 10
18.948019
 20
14.8538946
 42
0.0
  0
VERTEX
  8
0
 10
19.4441318
 20
15.118461
 42
0.0
  0
VERTEX
  8
0
 10
19.5212716
 20
15.1749506
 42
0.0
  0
VERTEX
  8
0
 10
19.8988934
 20
15.4491944
 42
0.0
  0
VERTEX
  8
0
 10
20.1124566
 20
15.6558996
 42
0.0
  0
VERTEX
  8
0
 10
20.3026518
 20
15.8405322
 42
0.0
  0
VERTEX
  8
0
 10
20.648549
 20
16.2842956
 42
0.0
  0
VERTEX
  8
0
 10
20.9296254
 20
16.770731
 42
0.0
  0
VERTEX
  8
0
 10
20.9985356
 20
16.9429684
 42
0.0
  0
VERTEX
  8
0
 10
21.1018882
 20
17.2020484
 42
0.0
  0
VERTEX
  8
0
 10
21.1391246
 20
17.2929804
 42
0.0
  0
VERTEX
  8
0
 10
21.1652866
 20
17.3991016
 42
0.0
  0
VERTEX
  8
0
 10
21.274151
 20
17.8386994
 42
0.0
  0
VERTEX
  8
0
 10
21.3320376
 20
18.3981852
 42
0.0
  0
VERTEX
  8
0
 10
21.3113874
 20
18.9604396
 42
0.0
  0
VERTEX
  8
0
 10
21.2135212
 20
19.5143882
 42
0.0
  0
VERTEX
  8
0
 10
21.1652866
 20
19.6618606
 42
0.0
  0
VERTEX
  8
0
 10
21.1349844
 20
19.7527926
 42
0.0
  0
VERTEX
  8
0
 10
21.1018882
 20
19.854799
 42
0.0
  0
VERTEX
  8
0
 10
21.0385152
 20
20.0476866
 42
0.0
  0
VERTEX
  8
0
 10
20.9985356
 20
20.1317606
 42
0.0
  0
VERTEX
  8
0
 10
20.7918304
 20
20.553426
 42
0.0
  0
VERTEX
  8
0
 10
20.4776578
 20
21.0192112
 42
0.0
  0
VERTEX
  8
0
 10
20.1000868
 20
21.4367618
 42
0.0
  0
VERTEX
  8
0
 10
19.854799
 20
21.6420954
 42
0.0
  0
VERTEX
  8
0
 10
19.6673724
 20
21.7978228
 42
0.0
  0
VERTEX
  8
0
 10
19.1905382
 20
22.09546
 42
0.0
  0
VERTEX
  8
0
 10
18.6765438
 20
22.3228154
 42
0.0
  0
VERTEX
  8
0
 10
18.3306466
 20
22.4220532
 42
0.0
  0
VERTEX
  8
0
 10
18.2548784
 20
22.4427288
 42
0.0
  0
VERTEX
  8
0
 10
18.1363874
 20
22.4771712
 42
0.0
  0
VERTEX
  8
0
 10
17.5796194
 20
22.5557334
 42
0.0
  0
VERTEX
  8
0
 10
17.0173904
 20
22.5543618
 42
0.0
  0
SEQEND
  0
POLYLINE
  8
0
 66
     1
 10
0.0
 20
0.0
 30
0.0
 70
     1
  0
VERTEX
  8
0
 10
17.637506
 20
110.488222
 42
0.0
  0
VERTEX
  8
0
 10
17.8731672
 20
110.368334
 42
0.0
  0
VERTEX
  8
0
 10
17.9214018
 20
110.344966
 42
0.0
  0
VERTEX
  8
0
 10
18.0481732
 20
110.294166
 42
0.0
  0
VERTEX
  8
0
 10
18.2176674
 20
110.227872
 42
0.0
  0
VERTEX
  8
0
 10
18.3306466
 20
110.196122
 42
0.0
  0
VERTEX
  8
0
 10
18.523585
 20
110.142528
 42
0.0
  0
VERTEX
  8
0
 10
18.836386
 20
110.08741
 42
0.0
  0
VERTEX
  8
0
 10
19.1533526
 20
110.062518
 42
0.0
  0
VERTEX
  8
0
 10
19.4716654
 20
110.069376
 42
0.0
  0
VERTEX
  8
0
 10
19.7886574
 20
110.107984
 42
0.0
  0
VERTEX
  8
0
 10
20.0986898
 20
110.175548
 42
0.0
  0
VERTEX
  8
0
 10
20.37842
 20
110.266226
 42
0.0
  0
VERTEX
  8
0
 10
20.4004672
 20
110.274862
 42
0.0
  0
VERTEX
  8
0
 10
20.4459332
 20
110.294166
 42
0.0
  0
VERTEX
  8
0
 10
20.4817726
 20
110.309406
 42
0.0
  0
VERTEX
  8
0
 10
20.6140812
 20
110.368334
 42
0.0
  0
VERTEX
  8
0
 10
20.6540354
 20
110.384844
 42
0.0
  0
VERTEX
  8
0
 10
20.6926434
 20
110.402878
 42
0.0
  0
VERTEX
  8
0
 10
20.969605
 20
110.55731
 42
0.0
  0
VERTEX
  8
0
 10
21.1018882
 20
110.649512
 42
0.0
  0
VERTEX
  8
0
 10
21.2300566
 20
110.739174
 42
0.0
  0
VERTEX
  8
0
 10
21.468461
 20
110.942882
 42
0.0
  0
VERTEX
  8
0
 10
21.4726012
 20
110.945676
 42
0.0
  0
VERTEX
  8
0
 10
21.6917016
 20
111.176054
 42
0.0
  0
VERTEX
  8
0
 10
21.8887802
 20
111.426752
 42
0.0
  0
VERTEX
  8
0
 10
21.9935044
 20
111.590582
 42
0.0
  0
VERTEX
  8
0
 10
22.0072712
 20
111.61141
 42
0.0
  0
VERTEX
  8
0
 10
22.059646
 20
111.69396
 42
0.0
  0
VERTEX
  8
0
 10
22.2043244
 20
111.977932
 42
0.0
  0
VERTEX
  8
0
 10
22.3200722
 20
112.27435
 42
0.0
  0
VERTEX
  8
0
 10
22.4055178
 20
112.580166
 42
0.0
  0
VERTEX
  8
0
 10
22.427565
 20
112.69726
 42
0.0
  0
VERTEX
  8
0
 10
22.4620328
 20
112.893094
 42
0.0
  0
VERTEX
  8
0
 10
22.4854516
 20
113.211356
 42
0.0
  0
VERTEX
  8
0
 10
22.4799398
 20
113.529618
 42
0.0
  0
VERTEX
  8
0
 10
22.4413572
 20
113.843816
 42
0.0
  0
VERTEX
  8
0
 10
22.427565
 20
113.911126
 42
0.0
  0
VERTEX
  8
0
 10
22.4165668
 20
113.96091
 42
0.0
  0
VERTEX
  8
0
 10
22.3724724
 20
114.155474
 42
0.0
  0
VERTEX
  8
0
 10
22.2746062
 20
114.458496
 42
0.0
  0
VERTEX
  8
0
 10
22.1464378
 20
114.749072
 42
0.0
  0
VERTEX
  8
0
 10
22.0072712
 20
114.997484
 42
0.0
  0
VERTEX
  8
0
 10
21.9907104
 20
115.02644
 42
0.0
  0
VERTEX
  8
0
 10
21.808821
 20
115.28806
 42
0.0
  0
VERTEX
  8
0
 10
21.6021412
 20
115.529106
 42
0.0
  0
VERTEX
  8
0
 10
21.3733634
 20
115.749578
 42
0.0
  0
VERTEX
  8
0
 10
21.2314282
 20
115.861338
 42
0.0
  0
VERTEX
  8
0
 10
21.1225638
 20
115.946682
 42
0.0
  0
VERTEX
  8
0
 10
21.1018882
 20
115.959128
 42
0.0
  0
VERTEX
  8
0
 10
20.8538572
 20
116.117624
 42
0.0
  0
VERTEX
  8
0
 10
20.5713584
 20
116.261134
 42
0.0
  0
VERTEX
  8
0
 10
20.37842
 20
116.335556
 42
0.0
  0
VERTEX
  8
0
 10
20.2750928
 20
116.376704
 42
0.0
  0
VERTEX
  8
0
 10
19.9677782
 20
116.463572
 42
0.0
  0
VERTEX
  8
0
 10
19.6549518
 20
116.51869
 42
0.0
  0
VERTEX
  8
0
 10
19.3380106
 20
116.543328
 42
0.0
  0
VERTEX
  8
0
 10
19.0196978
 20
116.536724
 42
0.0
  0
VERTEX
  8
0
 10
18.7041028
 20
116.497862
 42
0.0
  0
VERTEX
  8
0
 10
18.3926734
 20
116.430552
 42
0.0
  0
VERTEX
  8
0
 10
18.3306466
 20
116.409724
 42
0.0
  0
VERTEX
  8
0
 10
18.146014
 20
116.349272
 42
0.0
  0
VERTEX
  8
0
 10
18.090896
 20
116.331238
 42
0.0
  0
VERTEX
  8
0
 10
17.8001168
 20
116.203222
 42
0.0
  0
VERTEX
  8
0
 10
17.7808128
 20
116.193316
 42
0.0
  0
VERTEX
  8
0
 10
17.5217582
 20
116.04879
 42
0.0
  0
VERTEX
  8
0
 10
17.2613066
 20
115.866672
 42
0.0
  0
VERTEX
  8
0
 10
17.020159
 20
115.6589
 42
0.0
  0
VERTEX
  8
0
 10
16.843756
 20
115.475512
 42
0.0
  0
VERTEX
  8
0
 10
16.8285922
 20
115.459002
 42
0.0
  0
VERTEX
  8
0
 10
16.7996616
 20
115.430046
 42
0.0
  0
VERTEX
  8
0
 10
16.6591234
 20
115.249452
 42
0.0
  0
VERTEX
  8
0
 10
16.6026084
 20
115.179094
 42
0.0
  0
VERTEX
  8
0
 10
16.5144196
 20
115.041426
 42
0.0
  0
VERTEX
  8
0
 10
16.4317172
 20
114.911632
 42
0.0
  0
VERTEX
  8
0
 10
16.3834826
 20
114.815366
 42
0.0
  0
VERTEX
  8
0
 10
16.2884104
 20
114.628168
 42
0.0
  0
VERTEX
  8
0
 10
16.2663632
 20
114.571526
 42
0.0
  0
VERTEX
  8
0
 10
16.2594544
 20
114.555016
 42
0.0
  0
VERTEX
  8
0
 10
16.1726626
 20
114.33175
 42
0.0
  0
VERTEX
  8
0
 10
16.1712656
 20
114.326162
 42
0.0
  0
VERTEX
  8
0
 10
16.1216594
 20
114.152426
 42
0.0
  0
VERTEX
  8
0
 10
16.0954974
 20
114.0714
 42
0.0
  0
VERTEX
  8
0
 10
16.0720532
 20
113.96091
 42
0.0
  0
VERTEX
  8
0
 10
16.0265872
 20
113.741962
 42
0.0
  0
VERTEX
  8
0
 10
15.9948626
 20
113.40719
 42
0.0
  0
VERTEX
  8
0
 10
16.0003998
 20
113.069624
 42
0.0
  0
VERTEX
  8
0
 10
16.0265872
 20
112.880648
 42
0.0
  0
VERTEX
  8
0
 10
16.0334706
 20
112.828324
 42
0.0
  0
VERTEX
  8
0
 10
16.0445196
 20
112.735868
 42
0.0
  0
VERTEX
  8
0
 10
16.1257996
 20
112.409478
 42
0.0
  0
VERTEX
  8
0
 10
16.1313368
 20
112.395762
 42
0.0
  0
VERTEX
  8
0
 10
16.1754312
 20
112.275874
 42
0.0
  0
VERTEX
  8
0
 10
16.2167824
 20
112.14735
 42
0.0
  0
VERTEX
  8
0
 10
16.2553396
 20
112.060482
 42
0.0
  0
VERTEX
  8
0
 10
16.2760152
 20
112.011206
 42
0.0
  0
VERTEX
  8
0
 10
16.3201096
 20
111.911638
 42
0.0
  0
VERTEX
  8
0
 10
16.3449
 20
111.856774
 42
0.0
  0
VERTEX
  8
0
 10
16.5006274
 20
111.57966
 42
0.0
  0
VERTEX
  8
0
 10
16.5102794
 20
111.565944
 42
0.0
  0
VERTEX
  8
0
 10
16.6825422
 20
111.31804
 42
0.0
  0
VERTEX
  8
0
 10
16.7748712
 20
111.210344
 42
0.0
  0
VERTEX
  8
0
 10
16.890619
 20
111.07674
 42
0.0
  0
VERTEX
  8
0
 10
17.119346
 20
110.856268
 42
0.0
  0
VERTEX
  8
0
 10
17.130395
 20
110.84814
 42
0.0
  0
VERTEX
  8
0
 10
17.3687994
 20
110.659418
 42
0.0
  0
VERTEX
  8
0
 10
17.4583852
 20
110.601506
 42
0.0
  0
VERTEX
  8
0
 10
17.481804
 20
110.58779
 42
0.0
  0
SEQEND
  0
POLYLINE
  8
0
 66
     1
 10
0.0
 20
0.0
 30
0.0
 70
     1
  0
VERTEX
  8
0
 10
20.0422002
 20
119.017034
 42
0.0
  0
VERTEX
  8
0
 10
20.0614788
 20
119.03075
 42
0.0
  0
VERTEX
  8
0
 10
20.1469244
 20
119.102378
 42
0.0
  0
VERTEX
  8
0
 10
20.2916028
 20
119.252746
 42
0.0
  0
VERTEX
  8
0
 10
20.37842
 20
119.367046
 42
0.0
  0
VERTEX
  8
0
 10
20.4183996
 20
119.4181
 42
0.0
  0
VERTEX
  8
0
 10
20.4418184
 20
119.456454
 42
0.0
  0
VERTEX
  8
0
 10
20.4445616
 20
119.462296
 42
0.0
  0
VERTEX
  8
0
 10
20.5244954
 20
119.594376
 42
0.0
  0
VERTEX
  8
0
 10
20.6113126
 20
119.783352
 42
0.0
  0
VERTEX
  8
0
 10
20.6760826
 20
119.980456
 42
0.0
  0
VERTEX
  8
0
 10
20.70227
 20
120.104154
 42
0.0
  0
VERTEX
  8
0
 10
20.7188054
 20
120.184418
 42
0.0
  0
VERTEX
  8
0
 10
20.7381094
 20
120.391174
 42
0.0
  0
VERTEX
  8
0
 10
20.7339438
 20
120.598946
 42
0.0
  0
VERTEX
  8
0
 10
20.7064102
 20
120.804432
 42
0.0
  0
VERTEX
  8
0
 10
20.656804
 20
121.007124
 42
0.0
  0
VERTEX
  8
0
 10
20.5851506
 20
121.19991
 42
0.0
  0
VERTEX
  8
0
 10
20.4914246
 20
121.385838
 42
0.0
  0
VERTEX
  8
0
 10
20.4445616
 20
121.456196
 42
0.0
  0
VERTEX
  8
0
 10
20.4418184
 20
121.461784
 42
0.0
  0
VERTEX
  8
0
 10
20.37842
 20
121.559574
 42
0.0
  0
VERTEX
  8
0
 10
20.359116
 20
121.583196
 42
0.0
  0
VERTEX
  8
0
 10
20.3550012
 20
121.587006
 42
0.0
  0
VERTEX
  8
0
 10
20.2447652
 20
121.71934
 42
0.0
  0
VERTEX
  8
0
 10
20.0959212
 20
121.863866
 42
0.0
  0
VERTEX
  8
0
 10
20.0614788
 20
121.890282
 42
0.0
  0
VERTEX
  8
0
 10
19.981545
 20
121.950988
 42
0.0
  0
VERTEX
  8
0
 10
19.9305672
 20
121.990866
 42
0.0
  0
VERTEX
  8
0
 10
19.9030082
 20
122.007376
 42
0.0
  0
VERTEX
  8
0
 10
19.7527926
 20
122.097038
 42
0.0
  0
VERTEX
  8
0
 10
19.6329046
 20
122.152156
 42
0.0
  0
VERTEX
  8
0
 10
19.5639944
 20
122.183906
 42
0.0
  0
VERTEX
  8
0
 10
19.457924
 20
122.219466
 42
0.0
  0
VERTEX
  8
0
 10
19.3669412
 20
122.249946
 42
0.0
  0
VERTEX
  8
0
 10
19.1643762
 20
122.291094
 42
0.0
  0
VERTEX
  8
0
 10
18.957671
 20
122.310652
 42
0.0
  0
VERTEX
  8
0
 10
18.7495688
 20
122.306334
 42
0.0
  0
VERTEX
  8
0
 10
18.5442606
 20
122.278902
 42
0.0
  0
VERTEX
  8
0
 10
18.3416956
 20
122.229372
 42
0.0
  0
VERTEX
  8
0
 10
18.3155082
 20
122.219466
 42
0.0
  0
VERTEX
  8
0
 10
18.1763162
 20
122.168666
 42
0.0
  0
VERTEX
  8
0
 10
18.1473856
 20
122.15749
 42
0.0
  0
VERTEX
  8
0
 10
18.137759
 20
122.152156
 42
0.0
  0
VERTEX
  8
0
 10
17.961356
 20
122.064018
 42
0.0
  0
VERTEX
  8
0
 10
17.7877216
 20
121.950988
 42
0.0
  0
VERTEX
  8
0
 10
17.7849784
 20
121.948194
 42
0.0
  0
VERTEX
  8
0
 10
17.6416462
 20
121.829576
 42
0.0
  0
VERTEX
  8
0
 10
17.6278794
 20
121.817384
 42
0.0
  0
VERTEX
  8
0
 10
17.4845472
 20
121.66854
 42
0.0
  0
VERTEX
  8
0
 10
17.4625
 20
121.640854
 42
0.0
  0
VERTEX
  8
0
 10
17.4597568
 20
121.63806
 42
0.0
  0
VERTEX
  8
0
 10
17.4556166
 20
121.631202
 42
0.0
  0
VERTEX
  8
0
 10
17.3577504
 20
121.502932
 42
0.0
  0
VERTEX
  8
0
 10
17.2516546
 20
121.325132
 42
0.0
  0
VERTEX
  8
0
 10
17.2310044
 20
121.28246
 42
0.0
  0
VERTEX
  8
0
 10
17.2089572
 20
121.2342
 42
0.0
  0
VERTEX
  8
0
 10
17.1786296
 20
121.186194
 42
0.0
  0
VERTEX
  8
0
 10
17.1703746
 20
121.150126
 42
0.0
  0
VERTEX
  8
0
 10
17.1634404
 20
121.137934
 42
0.0
  0
VERTEX
  8
0
 10
17.0987212
 20
120.939306
 42
0.0
  0
VERTEX
  8
0
 10
17.05737
 20
120.736868
 42
0.0
  0
VERTEX
  8
0
 10
17.0504612
 20
120.674638
 42
0.0
  0
VERTEX
  8
0
 10
17.0366944
 20
120.528588
 42
0.0
  0
VERTEX
  8
0
 10
17.0408346
 20
120.321832
 42
0.0
  0
VERTEX
  8
0
 10
17.0504612
 20
120.24614
 42
0.0
  0
VERTEX
  8
0
 10
17.0683682
 20
120.1166
 42
0.0
  0
VERTEX
  8
0
 10
17.0711368
 20
120.104154
 42
0.0
  0
VERTEX
  8
0
 10
17.1124626
 20
119.9388
 42
0.0
  0
VERTEX
  8
0
 10
17.1179744
 20
119.914162
 42
0.0
  0
VERTEX
  8
0
 10
17.1896532
 20
119.719852
 42
0.0
  0
VERTEX
  8
0
 10
17.2833538
 20
119.533924
 42
0.0
  0
VERTEX
  8
0
 10
17.39773
 20
119.360188
 42
0.0
  0
VERTEX
  8
0
 10
17.4115222
 20
119.344948
 42
0.0
  0
VERTEX
  8
0
 10
17.5300132
 20
119.200422
 42
0.0
  0
VERTEX
  8
0
 10
17.6802288
 20
119.056912
 42
0.0
  0
VERTEX
  8
0
 10
17.7325782
 20
119.017034
 42
0.0
  0
VERTEX
  8
0
 10
17.8442112
 20
118.930166
 42
0.0
  0
VERTEX
  8
0
 10
17.9365656
 20
118.873778
 42
0.0
  0
VERTEX
  8
0
 10
17.9406804
 20
118.872254
 42
0.0
  0
VERTEX
  8
0
 10
18.0137054
 20
118.828312
 42
0.0
  0
VERTEX
  8
0
 10
18.0192172
 20
118.825518
 42
0.0
  0
VERTEX
  8
0
 10
18.0219604
 20
118.822724
 42
0.0
  0
VERTEX
  8
0
 10
18.210784
 20
118.735856
 42
0.0
  0
VERTEX
  8
0
 10
18.3306466
 20
118.697248
 42
0.0
  0
VERTEX
  8
0
 10
18.4078372
 20
118.67134
 42
0.0
  0
VERTEX
  8
0
 10
18.6104022
 20
118.629684
 42
0.0
  0
VERTEX
  8
0
 10
18.8185044
 20
118.60911
 42
0.0
  0
VERTEX
  8
0
 10
19.0265812
 20
118.613428
 42
0.0
  0
VERTEX
  8
0
 10
19.2318894
 20
118.64086
 42
0.0
  0
VERTEX
  8
0
 10
19.4330828
 20
118.69039
 42
0.0
  0
VERTEX
  8
0
 10
19.6273928
 20
118.763288
 42
0.0
  0
VERTEX
  8
0
 10
19.7569328
 20
118.828312
 42
0.0
  0
VERTEX
  8
0
 10
19.8134478
 20
118.855744
 42
0.0
  0
VERTEX
  8
0
 10
19.9870822
 20
118.970044
 42
0.0
  0
SEQEND
  0
POLYLINE
  8
0
 66
     1
 10
0.0
 20
0.0
 30
0.0
 70
     1
  0
VERTEX
  8
0
 10
17.85112
 20
90.55481
 42
0.0
  0
VERTEX
  8
0
 10
17.8827938
 20
90.53576
 42
0.0
  0
VERTEX
  8
0
 10
17.9034694
 20
90.522044
 42
0.0
  0
VERTEX
  8
0
 10
18.0936646
 20
90.436446
 42
0.0
  0
VERTEX
  8
0
 10
18.2893462
 20
90.371676
 42
0.0
  0
VERTEX
  8
0
 10
18.3306466
 20
90.362278
 42
0.0
  0
VERTEX
  8
0
 10
18.4932828
 20
90.329004
 42
0.0
  0
VERTEX
  8
0
 10
18.6999626
 20
90.3097
 42
0.0
  0
VERTEX
  8
0
 10
18.9080648
 20
90.314018
 42
0.0
  0
VERTEX
  8
0
 10
19.1133984
 20
90.339926
 42
0.0
  0
VERTEX
  8
0
 10
19.3145918
 20
90.391234
 42
0.0
  0
VERTEX
  8
0
 10
19.5102734
 20
90.462862
 42
0.0
  0
VERTEX
  8
0
 10
19.6480684
 20
90.532966
 42
0.0
  0
VERTEX
  8
0
 10
19.6535548
 20
90.53576
 42
0.0
  0
VERTEX
  8
0
 10
19.6907912
 20
90.55481
 42
0.0
  0
VERTEX
  8
0
 10
19.694906
 20
90.556334
 42
0.0
  0
VERTEX
  8
0
 10
19.7748398
 20
90.608912
 42
0.0
  0
VERTEX
  8
0
 10
19.8685404
 20
90.669618
 42
0.0
  0
VERTEX
  8
0
 10
20.0283826
 20
90.801698
 42
0.0
  0
VERTEX
  8
0
 10
20.1207624
 20
90.898218
 42
0.0
  0
VERTEX
  8
0
 10
20.1731118
 20
90.951812
 42
0.0
  0
VERTEX
  8
0
 10
20.2985116
 20
91.115896
 42
0.0
  0
VERTEX
  8
0
 10
20.3742798
 20
91.239848
 42
0.0
  0
VERTEX
  8
0
 10
20.3770484
 20
91.245182
 42
0.0
  0
VERTEX
  8
0
 10
20.407376
 20
91.294966
 42
0.0
  0
VERTEX
  8
0
 10
20.4693774
 20
91.432888
 42
0.0
  0
VERTEX
  8
0
 10
20.4927962
 20
91.483688
 42
0.0
  0
VERTEX
  8
0
 10
20.5575662
 20
91.681046
 42
0.0
  0
VERTEX
  8
0
 10
20.6016606
 20
91.883484
 42
0.0
  0
VERTEX
  8
0
 10
20.6195676
 20
92.09024
 42
0.0
  0
VERTEX
  8
0
 10
20.6154528
 20
92.298266
 42
0.0
  0
VERTEX
  8
0
 10
20.5892654
 20
92.503498
 42
0.0
  0
VERTEX
  8
0
 10
20.5396846
 20
92.704666
 42
0.0
  0
VERTEX
  8
0
 10
20.4927962
 20
92.828872
 42
0.0
  0
VERTEX
  8
0
 10
20.4666088
 20
92.9005
 42
0.0
  0
VERTEX
  8
0
 10
20.3729082
 20
93.084904
 42
0.0
  0
VERTEX
  8
0
 10
20.2585574
 20
93.25864
 42
0.0
  0
VERTEX
  8
0
 10
20.1276204
 20
93.420184
 42
0.0
  0
VERTEX
  8
0
 10
20.0628504
 20
93.480382
 42
0.0
  0
VERTEX
  8
0
 10
19.9774048
 20
93.56344
 42
0.0
  0
VERTEX
  8
0
 10
19.8134478
 20
93.688662
 42
0.0
  0
VERTEX
  8
0
 10
19.6356732
 20
93.796104
 42
0.0
  0
VERTEX
  8
0
 10
19.4937126
 20
93.861128
 42
0.0
  0
VERTEX
  8
0
 10
19.4455034
 20
93.882972
 42
0.0
  0
VERTEX
  8
0
 10
19.3159634
 20
93.925644
 42
0.0
  0
VERTEX
  8
0
 10
19.2484502
 20
93.947996
 42
0.0
  0
VERTEX
  8
0
 10
19.0458852
 20
93.990668
 42
0.0
  0
VERTEX
  8
0
 10
18.8391546
 20
94.009718
 42
0.0
  0
VERTEX
  8
0
 10
18.6310778
 20
94.007178
 42
0.0
  0
VERTEX
  8
0
 10
18.4243726
 20
93.979238
 42
0.0
  0
VERTEX
  8
0
 10
18.3306466
 20
93.956124
 42
0.0
  0
VERTEX
  8
0
 10
18.2245762
 20
93.929962
 42
0.0
  0
VERTEX
  8
0
 10
18.2162704
 20
93.925644
 42
0.0
  0
VERTEX
  8
0
 10
18.0702204
 20
93.87205
 42
0.0
  0
VERTEX
  8
0
 10
18.0288946
 20
93.85681
 42
0.0
  0
VERTEX
  8
0
 10
17.8442112
 20
93.763084
 42
0.0
  0
VERTEX
  8
0
 10
17.7312066
 20
93.688662
 42
0.0
  0
VERTEX
  8
0
 10
17.6705768
 20
93.648784
 42
0.0
  0
VERTEX
  8
0
 10
17.637506
 20
93.622622
 42
0.0
  0
VERTEX
  8
0
 10
17.5093376
 20
93.517974
 42
0.0
  0
VERTEX
  8
0
 10
17.4749206
 20
93.480382
 42
0.0
  0
VERTEX
  8
0
 10
17.3660562
 20
93.367606
 42
0.0
  0
VERTEX
  8
0
 10
17.26819
 20
93.24086
 42
0.0
  0
VERTEX
  8
0
 10
17.240631
 20
93.203522
 42
0.0
  0
VERTEX
  8
0
 10
17.2089572
 20
93.151198
 42
0.0
  0
VERTEX
  8
0
 10
17.1317666
 20
93.025722
 42
0.0
  0
VERTEX
  8
0
 10
17.046321
 20
92.837
 42
0.0
  0
VERTEX
  8
0
 10
17.0132756
 20
92.736416
 42
0.0
  0
VERTEX
  8
0
 10
16.9856912
 20
92.65539
 42
0.0
  0
VERTEX
  8
0
 10
16.9829226
 20
92.645484
 42
0.0
  0
VERTEX
  8
0
 10
16.981551
 20
92.64015
 42
0.0
  0
VERTEX
  8
0
 10
16.9374566
 20
92.435934
 42
0.0
  0
VERTEX
  8
0
 10
16.9195496
 20
92.229432
 42
0.0
  0
VERTEX
  8
0
 10
16.9236898
 20
92.021406
 42
0.0
  0
VERTEX
  8
0
 10
16.9498772
 20
91.816174
 42
0.0
  0
VERTEX
  8
0
 10
16.9829226
 20
91.682316
 42
0.0
  0
VERTEX
  8
0
 10
16.9856912
 20
91.67114
 42
0.0
  0
VERTEX
  8
0
 10
16.9994834
 20
91.614752
 42
0.0
  0
VERTEX
  8
0
 10
17.0394376
 20
91.50731
 42
0.0
  0
VERTEX
  8
0
 10
17.0669966
 20
91.432888
 42
0.0
  0
VERTEX
  8
0
 10
17.0725084
 20
91.419172
 42
0.0
  0
VERTEX
  8
0
 10
17.1662344
 20
91.23426
 42
0.0
  0
VERTEX
  8
0
 10
17.279239
 20
91.060778
 42
0.0
  0
VERTEX
  8
0
 10
17.4115222
 20
90.901012
 42
0.0
  0
VERTEX
  8
0
 10
17.5603154
 20
90.756232
 42
0.0
  0
VERTEX
  8
0
 10
17.7257202
 20
90.629232
 42
0.0
  0
VERTEX
  8
0
 10
17.8263296
 20
90.568526
 42
0.0
  0
SEQEND
  0
POLYLINE
  8
0
 66
     1
 10
0.0
 20
0.0
 30
0.0
 70
     1
  0
VERTEX
  8
0
 10
21.1018882
 20
12.6145544
 42
0.0
  0
VERTEX
  8
0
 10
21.1501228
 20
12.4643388
 42
0.0
  0
VERTEX
  8
0
 10
21.293455
 20
12.1487946
 42
0.0
  0
VERTEX
  8
0
 10
21.4780876
 20
11.833225
 42
0.0
  0
VERTEX
  8
0
 10
21.6779094
 20
11.5603528
 42
0.0
  0
VERTEX
  8
0
 10
21.7013282
 20
11.5300506
 42
0.0
  0
VERTEX
  8
0
 10
21.8350084
 20
11.3784634
 42
0.0
  0
VERTEX
  8
0
 10
21.9535248
 20
11.24204
 42
0.0
  0
VERTEX
  8
0
 10
21.994876
 20
11.1993172
 42
0.0
  0
VERTEX
  8
0
 10
22.171279
 20
11.0187994
 42
0.0
  0
VERTEX
  8
0
 10
22.427565
 20
10.752836
 42
0.0
  0
VERTEX
  8
0
 10
22.56536
 20
10.6108754
 42
0.0
  0
VERTEX
  8
0
 10
22.6067112
 20
10.566781
 42
0.0
  0
VERTEX
  8
0
 10
22.8864668
 20
10.3049578
 42
0.0
  0
VERTEX
  8
0
 10
23.1827324
 20
10.0734622
 42
0.0
  0
VERTEX
  8
0
 10
23.3673904
 20
9.9563428
 42
0.0
  0
VERTEX
  8
0
 10
23.4913932
 20
9.8777806
 42
0.0
  0
VERTEX
  8
0
 10
23.8028734
 20
9.7248218
 42
0.0
  0
VERTEX
  8
0
 10
24.0040668
 20
9.65454
 42
0.0
  0
VERTEX
  8
0
 10
24.1115596
 20
9.6159574
 42
0.0
  0
VERTEX
  8
0
 10
24.4064282
 20
9.5553022
 42
0.0
  0
VERTEX
  8
0
 10
24.4753384
 20
9.552559
 42
0.0
  0
VERTEX
  8
0
 10
24.6834406
 20
9.544304
 42
0.0
  0
VERTEX
  8
0
 10
24.7826276
 20
9.5594678
 42
0.0
  0
VERTEX
  8
0
 10
24.9342402
 20
9.5828866
 42
0.0
  0
VERTEX
  8
0
 10
25.1533406
 20
9.6697038
 42
0.0
  0
VERTEX
  8
0
 10
25.1685044
 20
9.6807274
 42
0.0
  0
VERTEX
  8
0
 10
25.3338584
 20
9.803384
 42
0.0
  0
VERTEX
  8
0
 10
25.616408
 20
10.0776024
 42
0.0
  0
VERTEX
  8
0
 10
25.727914
 20
10.1836982
 42
0.0
  0
VERTEX
  8
0
 10
25.78735
 20
10.2608634
 42
0.0
  0
VERTEX
  8
0
 10
25.867106
 20
10.3614728
 42
0.0
  0
VERTEX
  8
0
 10
25.960832
 20
10.57783
 42
0.0
  0
VERTEX
  8
0
 10
26.007822
 20
10.825861
 42
0.0
  0
VERTEX
  8
0
 10
26.007822
 20
10.9499146
 42
0.0
  0
VERTEX
  8
0
 10
26.006298
 20
11.1028734
 42
0.0
  0
VERTEX
  8
0
 10
25.956768
 20
11.3839752
 42
0.0
  0
VERTEX
  8
0
 10
25.953974
 20
11.4018822
 42
0.0
  0
VERTEX
  8
0
 10
25.904444
 20
11.5603528
 42
0.0
  0
VERTEX
  8
0
 10
25.856184
 20
11.71194
 42
0.0
  0
VERTEX
  8
0
 10
25.711404
 20
12.0289066
 42
0.0
  0
VERTEX
  8
0
 10
25.616408
 20
12.1901204
 42
0.0
  0
VERTEX
  8
0
 10
25.526746
 20
12.3431046
 42
0.0
  0
VERTEX
  8
0
 10
25.3049278
 20
12.6476506
 42
0.0
  0
VERTEX
  8
0
 10
25.0513596
 20
12.9342896
 42
0.0
  0
VERTEX
  8
0
 10
24.3995702
 20
13.6094978
 42
0.0
  0
VERTEX
  8
0
 10
24.1198146
 20
13.871321
 42
0.0
  0
VERTEX
  8
0
 10
23.8221266
 20
14.1028674
 42
0.0
  0
VERTEX
  8
0
 10
23.5134404
 20
14.298549
 42
0.0
  0
VERTEX
  8
0
 10
23.202011
 20
14.4528794
 42
0.0
  0
VERTEX
  8
0
 10
22.8947218
 20
14.5603468
 42
0.0
  0
VERTEX
  8
0
 10
22.5984562
 20
14.6209766
 42
0.0
  0
VERTEX
  8
0
 10
22.427565
 20
14.62786
 42
0.0
  0
VERTEX
  8
0
 10
22.3214438
 20
14.6320256
 42
0.0
  0
VERTEX
  8
0
 10
22.171279
 20
14.6099784
 42
0.0
  0
VERTEX
  8
0
 10
22.0706696
 20
14.5948146
 42
0.0
  0
VERTEX
  8
0
 10
21.8515438
 20
14.5079974
 42
0.0
  0
VERTEX
  8
0
 10
21.671026
 20
14.3729456
 42
0.0
  0
VERTEX
  8
0
 10
21.2782912
 20
13.992606
 42
0.0
  0
VERTEX
  8
0
 10
21.1377276
 20
13.8148568
 42
0.0
  0
VERTEX
  8
0
 10
21.1018882
 20
13.7321544
 42
0.0
  0
VERTEX
  8
0
 10
21.0440016
 20
13.5998712
 42
0.0
  0
VERTEX
  8
0
 10
20.9985356
 20
13.3504432
 42
0.0
  0
VERTEX
  8
0
 10
20.9999072
 20
13.0734562
 42
0.0
  0
VERTEX
  8
0
 10
21.0509104
 20
12.7757682
 42
0.0
  0
SEQEND
  0
POLYLINE
  8
0
 66
     1
 10
0.0
 20
0.0
 30
0.0
 70
     1
  0
VERTEX
  8
0
 10
24.4973856
 20
23.2268268
 42
0.0
  0
VERTEX
  8
0
 10
25.1271532
 20
23.8483394
 42
0.0
  0
VERTEX
  8
0
 10
25.1588524
 20
23.8800132
 42
0.0
  0
VERTEX
  8
0
 10
25.41651
 20
24.1583972
 42
0.0
  0
VERTEX
  8
0
 10
25.616408
 20
24.4188488
 42
0.0
  0
VERTEX
  8
0
 10
25.645364
 20
24.4560344
 42
0.0
  0
VERTEX
  8
0
 10
25.83688
 20
24.7647206
 42
0.0
  0
VERTEX
  8
0
 10
25.988518
 20
25.07615
 42
0.0
  0
VERTEX
  8
0
 10
26.007822
 20
25.1340366
 42
0.0
  0
VERTEX
  8
0
 10
26.094436
 20
25.3834646
 42
0.0
  0
VERTEX
  8
0
 10
26.153872
 20
25.679654
 42
0.0
  0
VERTEX
  8
0
 10
26.162
 20
25.896062
 42
0.0
  0
VERTEX
  8
0
 10
26.164794
 20
25.956768
 42
0.0
  0
VERTEX
  8
0
 10
26.12771
 20
26.207466
 42
0.0
  0
VERTEX
  8
0
 10
26.042112
 20
26.425398
 42
0.0
  0
VERTEX
  8
0
 10
26.007822
 20
26.472134
 42
0.0
  0
VERTEX
  8
0
 10
25.909778
 20
26.607262
 42
0.0
  0
VERTEX
  8
0
 10
25.616408
 20
26.915872
 42
0.0
  0
VERTEX
  8
0
 10
25.536398
 20
26.999946
 42
0.0
  0
VERTEX
  8
0
 10
25.3614174
 20
27.140408
 42
0.0
  0
VERTEX
  8
0
 10
25.1505974
 20
27.234134
 42
0.0
  0
VERTEX
  8
0
 10
24.9053096
 20
27.281124
 42
0.0
  0
VERTEX
  8
0
 10
24.6324374
 20
27.27833
 42
0.0
  0
VERTEX
  8
0
 10
24.4753384
 20
27.250644
 42
0.0
  0
VERTEX
  8
0
 10
24.3402866
 20
27.227276
 42
0.0
  0
VERTEX
  8
0
 10
24.034369
 20
27.127962
 42
0.0
  0
VERTEX
  8
0
 10
23.7229396
 20
26.984706
 42
0.0
  0
VERTEX
  8
0
 10
23.4142534
 20
26.798778
 42
0.0
  0
VERTEX
  8
0
 10
23.1151938
 20
26.576782
 42
0.0
  0
VERTEX
  8
0
 10
22.8327204
 20
26.32456
 42
0.0
  0
VERTEX
  8
0
 10
22.770719
 20
26.264108
 42
0.0
  0
VERTEX
  8
0
 10
22.427565
 20
25.923748
 42
0.0
  0
VERTEX
  8
0
 10
22.171279
 20
25.671526
 42
0.0
  0
VERTEX
  8
0
 10
21.912199
 20
25.391745
 42
0.0
  0
VERTEX
  8
0
 10
21.6848182
 20
25.095454
 42
0.0
  0
VERTEX
  8
0
 10
21.4932768
 20
24.7867678
 42
0.0
  0
VERTEX
  8
0
 10
21.3416896
 20
24.4753384
 42
0.0
  0
VERTEX
  8
0
 10
21.2355684
 20
24.1680238
 42
0.0
  0
VERTEX
  8
0
 10
21.1763102
 20
23.8717582
 42
0.0
  0
VERTEX
  8
0
 10
21.1749132
 20
23.8483394
 42
0.0
  0
VERTEX
  8
0
 10
21.1652866
 20
23.5947712
 42
0.0
  0
VERTEX
  8
0
 10
21.2024976
 20
23.3439716
 42
0.0
  0
VERTEX
  8
0
 10
21.2879432
 20
23.1248712
 42
0.0
  0
VERTEX
  8
0
 10
21.4188294
 20
22.9429818
 42
0.0
  0
VERTEX
  8
0
 10
21.7936572
 20
22.5502216
 42
0.0
  0
VERTEX
  8
0
 10
21.9686632
 20
22.4110296
 42
0.0
  0
VERTEX
  8
0
 10
22.179534
 20
22.317329
 42
0.0
  0
VERTEX
  8
0
 10
22.4248218
 20
22.270466
 42
0.0
  0
VERTEX
  8
0
 10
22.427565
 20
22.270466
 42
0.0
  0
VERTEX
  8
0
 10
22.56536
 20
22.2718376
 42
0.0
  0
VERTEX
  8
0
 10
22.6976432
 20
22.2718376
 42
0.0
  0
VERTEX
  8
0
 10
22.9898194
 20
22.3228154
 42
0.0
  0
VERTEX
  8
0
 10
23.2943654
 20
22.4220532
 42
0.0
  0
VERTEX
  8
0
 10
23.6058202
 20
22.5667824
 42
0.0
  0
VERTEX
  8
0
 10
23.914481
 20
22.751415
 42
0.0
  0
VERTEX
  8
0
 10
24.2148868
 20
22.973284
 42
0.0
  0
SEQEND
  0
POLYLINE
  8
0
 66
     1
 10
0.0
 20
0.0
 30
0.0
 70
     1
  0
VERTEX
  8
0
 10
1.00045774
 20
8.5038946
 42
0.0
  0
VERTEX
  8
0
 10
3.7964872
 20
16.6191438
 42
0.0
  0
VERTEX
  8
0
 10
4.4703746
 20
18.5745628
 42
0.0
  0
VERTEX
  8
0
 10
4.5861224
 20
18.9066932
 42
0.0
  0
VERTEX
  8
0
 10
4.7528734
 20
28.304998
 42
0.0
  0
VERTEX
  8
0
 10
5.2076096
 20
28.581858
 42
0.0
  0
VERTEX
  8
0
 10
7.1478648
 20
29.75864
 42
0.0
  0
VERTEX
  8
0
 10
7.3821544
 20
29.900626
 42
0.0
  0
VERTEX
  8
0
 10
7.605395
 20
30.037024
 42
0.0
  0
VERTEX
  8
0
 10
8.3027012
 20
30.458664
 42
0.0
  0
VERTEX
  8
0
 10
8.4955888
 20
30.577282
 42
0.0
  0
VERTEX
  8
0
 10
8.5907118
 20
31.639764
 42
0.0
  0
VERTEX
  8
0
 10
8.6237572
 20
32.04083
 42
0.0
  0
VERTEX
  8
0
 10
8.9723976
 20
36.388294
 42
0.0
  0
VERTEX
  8
0
 10
9.3265752
 20
41.285922
 42
0.0
  0
VERTEX
  8
0
 10
9.6517968
 20
46.332394
 42
0.0
  0
VERTEX
  8
0
 10
9.6848422
 20
46.915324
 42
0.0
  0
VERTEX
  8
0
 10
9.7716594
 20
48.424338
 42
0.0
  0
VERTEX
  8
0
 10
9.949434
 20
51.52771
 42
0.0
  0
VERTEX
  8
0
 10
10.216769
 20
56.87314
 42
0.0
  0
VERTEX
  8
0
 10
10.456545
 20
62.36589
 42
0.0
  0
VERTEX
  8
0
 10
10.6605324
 20
67.814444
 42
0.0
  0
VERTEX
  8
0
 10
10.8231178
 20
73.12406
 42
0.0
  0
VERTEX
  8
0
 10
10.9113066
 20
76.838302
 42
0.0
  0
VERTEX
  8
0
 10
10.945749
 20
78.295754
 42
0.0
  0
VERTEX
  8
0
 10
10.974705
 20
80.06969
 42
0.0
  0
VERTEX
  8
0
 10
10.974705
 20
80.095852
 42
0.0
  0
VERTEX
  8
0
 10
10.9926374
 20
81.192624
 42
0.0
  0
VERTEX
  8
0
 10
11.028426
 20
83.330034
 42
0.0
  0
VERTEX
  8
0
 10
11.0615222
 20
87.21725
 42
0.0
  0
VERTEX
  8
0
 10
11.0711488
 20
88.224868
 42
0.0
  0
VERTEX
  8
0
 10
11.0725204
 20
92.981526
 42
0.0
  0
VERTEX
  8
0
 10
11.0642654
 20
93.946472
 42
0.0
  0
VERTEX
  8
0
 10
11.0339378
 20
97.576132
 42
0.0
  0
VERTEX
  8
0
 10
11.0339378
 20
97.644966
 42
0.0
  0
VERTEX
  8
0
 10
10.9567726
 20
101.704648
 42
0.0
  0
VERTEX
  8
0
 10
10.9485176
 20
102.160832
 42
0.0
  0
VERTEX
  8
0
 10
10.8162344
 20
106.531918
 42
0.0
  0
VERTEX
  8
0
 10
10.8024422
 20
106.84891
 42
0.0
  0
VERTEX
  8
0
 10
10.7666028
 20
107.688126
 42
0.0
  0
VERTEX
  8
0
 10
10.6384598
 20
110.755684
 42
0.0
  0
VERTEX
  8
0
 10
10.4620822
 20
113.96091
 42
0.0
  0
VERTEX
  8
0
 10
10.4165654
 20
114.774218
 42
0.0
  0
VERTEX
  8
0
 10
10.4138222
 20
114.831876
 42
0.0
  0
VERTEX
  8
0
 10
10.1423724
 20
118.762018
 42
0.0
  0
VERTEX
  8
0
 10
9.8268028
 20
122.599704
 42
0.0
  0
VERTEX
  8
0
 10
9.6007682
 20
124.89434
 42
0.0
  0
VERTEX
  8
0
 10
9.635236
 20
124.932948
 42
0.0
  0
VERTEX
  8
0
 10
9.7110296
 20
125.02134
 42
0.0
  0
VERTEX
  8
0
 10
9.8461068
 20
125.176788
 42
0.0
  0
VERTEX
  8
0
 10
10.1396038
 20
125.513084
 42
0.0
  0
VERTEX
  8
0
 10
10.1409754
 20
125.515878
 42
0.0
  0
VERTEX
  8
0
 10
11.104245
 20
126.623826
 42
0.0
  0
VERTEX
  8
0
 10
17.8235356
 20
134.3533
 42
0.0
  0
VERTEX
  8
0
 10
17.9145184
 20
134.456678
 42
0.0
  0
VERTEX
  8
0
 10
17.9227734
 20
134.466076
 42
0.0
  0
VERTEX
  8
0
 10
18.0798724
 20
134.329678
 42
0.0
  0
VERTEX
  8
0
 10
20.5410562
 20
132.189728
 42
0.0
  0
VERTEX
  8
0
 10
21.1018882
 20
131.701794
 42
0.0
  0
VERTEX
  8
0
 10
25.3366016
 20
128.021334
 42
0.0
  0
VERTEX
  8
0
 10
25.616408
 20
127.77724
 42
0.0
  0
VERTEX
  8
0
 10
26.247598
 20
127.2286
 42
0.0
  0
VERTEX
  8
0
 10
27.104594
 20
126.48311
 42
0.0
  0
VERTEX
  8
0
 10
27.899868
 20
125.791468
 42
0.0
  0
VERTEX
  8
0
 10
28.595574
 20
125.18644
 42
0.0
  0
VERTEX
  8
0
 10
28.598368
 20
125.184916
 42
0.0
  0
VERTEX
  8
0
 10
28.67152
 20
125.1204
 42
0.0
  0
VERTEX
  8
0
 10
28.697682
 20
125.098302
 42
0.0
  0
VERTEX
  8
0
 10
28.679648
 20
124.909326
 42
0.0
  0
VERTEX
  8
0
 10
28.657804
 20
124.658628
 42
0.0
  0
VERTEX
  8
0
 10
28.335224
 20
122.270774
 42
0.0
  0
VERTEX
  8
0
 10
27.883358
 20
118.44655
 42
0.0
  0
VERTEX
  8
0
 10
27.47264
 20
114.5286
 42
0.0
  0
VERTEX
  8
0
 10
27.420316
 20
113.96091
 42
0.0
  0
VERTEX
  8
0
 10
27.367738
 20
113.37671
 42
0.0
  0
VERTEX
  8
0
 10
27.119834
 20
110.63986
 42
0.0
  0
VERTEX
  8
0
 10
27.103324
 20
110.46079
 42
0.0
  0
VERTEX
  8
0
 10
27.056334
 20
109.864144
 42
0.0
  0
VERTEX
  8
0
 10
26.896568
 20
107.816396
 42
0.0
  0
VERTEX
  8
0
 10
26.855166
 20
107.295696
 42
0.0
  0
VERTEX
  8
0
 10
26.899362
 20
107.232196
 42
0.0
  0
VERTEX
  8
0
 10
26.940764
 20
107.185206
 42
0.0
  0
VERTEX
  8
0
 10
27.08402
 20
107.031028
 42
0.0
  0
VERTEX
  8
0
 10
27.269948
 20
106.869738
 42
0.0
  0
VERTEX
  8
0
 10
27.39136
 20
106.792522
 42
0.0
  0
VERTEX
  8
0
 10
27.45867
 20
106.74985
 42
0.0
  0
VERTEX
  8
0
 10
27.50566
 20
106.729022
 42
0.0
  0
VERTEX
  8
0
 10
27.60345
 20
106.684826
 42
0.0
  0
VERTEX
  8
0
 10
28.570936
 20
106.790998
 42
0.0
  0
VERTEX
  8
0
 10
28.636976
 20
106.797856
 42
0.0
  0
VERTEX
  8
0
 10
28.825698
 20
106.803444
 42
0.0
  0
VERTEX
  8
0
 10
30.176216
 20
106.842052
 42
0.0
  0
VERTEX
  8
0
 10
30.22727
 20
106.843322
 42
0.0
  0
VERTEX
  8
0
 10
30.376114
 20
106.84891
 42
0.0
  0
VERTEX
  8
0
 10
30.411928
 20
106.846116
 42
0.0
  0
VERTEX
  8
0
 10
30.618684
 20
106.830876
 42
0.0
  0
VERTEX
  8
0
 10
30.654498
 20
106.828082
 42
0.0
  0
VERTEX
  8
0
 10
31.914084
 20
106.737404
 42
0.0
  0
VERTEX
  8
0
 10
32.957262
 20
106.522266
 42
0.0
  0
VERTEX
  8
0
 10
33.235392
 20
106.464354
 42
0.0
  0
VERTEX
  8
0
 10
33.411922
 20
106.39425
 42
0.0
  0
VERTEX
  8
0
 10
33.602168
 20
106.319828
 42
0.0
  0
VERTEX
  8
0
 10
33.9217
 20
106.193082
 42
0.0
  0
VERTEX
  8
0
 10
34.317178
 20
106.037126
 42
0.0
  0
VERTEX
  8
0
 10
34.32556
 20
106.033062
 42
0.0
  0
VERTEX
  8
0
 10
34.755582
 20
105.739438
 42
0.0
  0
VERTEX
  8
0
 10
35.178492
 20
105.448862
 42
0.0
  0
VERTEX
  8
0
 10
35.780726
 20
104.715818
 42
0.0
  0
VERTEX
  8
0
 10
36.129468
 20
103.840788
 42
0.0
  0
VERTEX
  8
0
 10
36.221924
 20
102.833424
 42
0.0
  0
VERTEX
  8
0
 10
36.055046
 20
101.701854
 42
0.0
  0
VERTEX
  8
0
 10
35.769804
 20
100.862638
 42
0.0
  0
VERTEX
  8
0
 10
35.674554
 20
100.585778
 42
0.0
  0
VERTEX
  8
0
 10
35.631882
 20
100.459032
 42
0.0
  0
VERTEX
  8
0
 10
35.522916
 20
100.242624
 42
0.0
  0
VERTEX
  8
0
 10
34.955226
 20
99.115372
 42
0.0
  0
VERTEX
  8
0
 10
34.71545
 20
98.741738
 42
0.0
  0
VERTEX
  8
0
 10
34.555684
 20
98.49231
 42
0.0
  0
VERTEX
  8
0
 10
34.544762
 20
98.480118
 42
0.0
  0
VERTEX
  8
0
 10
34.397188
 20
98.32975
 42
0.0
  0
VERTEX
  8
0
 10
34.237422
 20
98.1837
 42
0.0
  0
VERTEX
  8
0
 10
34.06648
 20
98.041968
 42
0.0
  0
VERTEX
  8
0
 10
33.883092
 20
97.902776
 42
0.0
  0
VERTEX
  8
0
 10
33.687512
 20
97.770696
 42
0.0
  0
VERTEX
  8
0
 10
33.479486
 20
97.640902
 42
0.0
  0
VERTEX
  8
0
 10
33.367726
 20
97.576132
 42
0.0
  0
VERTEX
  8
0
 10
33.260284
 20
97.515426
 42
0.0
  0
VERTEX
  8
0
 10
33.02889
 20
97.403666
 42
0.0
  0
VERTEX
  8
0
 10
32.783526
 20
97.29216
 42
0.0
  0
VERTEX
  8
0
 10
32.711898
 20
97.261934
 42
0.0
  0
VERTEX
  8
0
 10
32.521652
 20
97.182178
 42
0.0
  0
VERTEX
  8
0
 10
32.246062
 20
97.073212
 42
0.0
  0
VERTEX
  8
0
 10
31.955232
 20
96.964246
 42
0.0
  0
VERTEX
  8
0
 10
31.758382
 20
96.895412
 42
0.0
  0
VERTEX
  8
0
 10
31.649416
 20
96.856804
 42
0.0
  0
VERTEX
  8
0
 10
31.62173
 20
96.848422
 42
0.0
  0
VERTEX
  8
0
 10
31.285688
 20
96.73844
 42
0.0
  0
VERTEX
  8
0
 10
30.953456
 20
96.615504
 42
0.0
  0
VERTEX
  8
0
 10
30.935676
 20
96.6089
 42
0.0
  0
VERTEX
  8
0
 10
30.654498
 20
96.494346
 42
0.0
  0
VERTEX
  8
0
 10
30.618684
 20
96.480376
 42
0.0
  0
VERTEX
  8
0
 10
30.596586
 20
96.470978
 42
0.0
  0
VERTEX
  8
0
 10
30.268672
 20
96.322134
 42
0.0
  0
VERTEX
  8
0
 10
29.95295
 20
96.162368
 42
0.0
  0
VERTEX
  8
0
 10
29.649928
 20
95.992696
 42
0.0
  0
VERTEX
  8
0
 10
29.355034
 20
95.79991
 42
0.0
  0
VERTEX
  8
0
 10
29.072586
 20
95.593154
 42
0.0
  0
VERTEX
  8
0
 10
28.984194
 20
95.522796
 42
0.0
  0
VERTEX
  8
0
 10
28.799536
 20
95.372682
 42
0.0
  0
VERTEX
  8
0
 10
28.537662
 20
95.138494
 42
0.0
  0
VERTEX
  8
0
 10
28.288488
 20
94.889066
 42
0.0
  0
VERTEX
  8
0
 10
28.058364
 20
94.636844
 42
0.0
  0
VERTEX
  8
0
 10
28.048458
 20
94.625668
 42
0.0
  0
VERTEX
  8
0
 10
27.81427
 20
94.348554
 42
0.0
  0
VERTEX
  8
0
 10
27.69997
 20
94.1959
 42
0.0
  0
VERTEX
  8
0
 10
27.591004
 20
94.04985
 42
0.0
  0
VERTEX
  8
0
 10
27.389836
 20
93.750638
 42
0.0
  0
VERTEX
  8
0
 10
27.37739
 20
93.732604
 42
0.0
  0
VERTEX
  8
0
 10
27.31008
 20
93.618304
 42
0.0
  0
VERTEX
  8
0
 10
27.254708
 20
93.480382
 42
0.0
  0
VERTEX
  8
0
 10
27.234134
 20
93.428312
 42
0.0
  0
VERTEX
  8
0
 10
27.13228
 20
93.171772
 42
0.0
  0
VERTEX
  8
0
 10
26.909014
 20
92.533978
 42
0.0
  0
VERTEX
  8
0
 10
26.705052
 20
91.868244
 42
0.0
  0
VERTEX
  8
0
 10
26.523188
 20
91.18346
 42
0.0
  0
VERTEX
  8
0
 10
26.520394
 20
91.176602
 42
0.0
  0
VERTEX
  8
0
 10
26.357834
 20
90.457274
 42
0.0
  0
VERTEX
  8
0
 10
26.214324
 20
89.711784
 42
0.0
  0
VERTEX
  8
0
 10
26.157936
 20
89.383616
 42
0.0
  0
VERTEX
  8
0
 10
26.083514
 20
88.953594
 42
0.0
  0
VERTEX
  8
0
 10
25.970484
 20
88.175084
 42
0.0
  0
VERTEX
  8
0
 10
25.953974
 20
88.033352
 42
0.0
  0
VERTEX
  8
0
 10
25.813512
 20
85.288374
 42
0.0
  0
VERTEX
  8
0
 10
25.777698
 20
84.596478
 42
0.0
  0
VERTEX
  8
0
 10
25.736296
 20
83.06816
 42
0.0
  0
VERTEX
  8
0
 10
25.700482
 20
81.192624
 42
0.0
  0
VERTEX
  8
0
 10
25.639776
 20
78.035404
 42
0.0
  0
VERTEX
  8
0
 10
25.62606
 20
76.838302
 42
0.0
  0
VERTEX
  8
0
 10
25.616408
 20
76.115926
 42
0.0
  0
VERTEX
  8
0
 10
25.5778
 20
72.86244
 42
0.0
  0
VERTEX
  8
0
 10
25.551638
 20
67.549776
 42
0.0
  0
VERTEX
  8
0
 10
25.56129
 20
62.095888
 42
0.0
  0
VERTEX
  8
0
 10
25.601168
 20
57.089294
 42
0.0
  0
VERTEX
  8
0
 10
25.605232
 20
56.599074
 42
0.0
  0
VERTEX
  8
0
 10
25.616408
 20
55.764938
 42
0.0
  0
VERTEX
  8
0
 10
25.682448
 20
51.248056
 42
0.0
  0
VERTEX
  8
0
 10
25.726644
 20
49.149
 42
0.0
  0
VERTEX
  8
0
 10
25.743154
 20
48.424338
 42
0.0
  0
VERTEX
  8
0
 10
25.794208
 20
46.045628
 42
0.0
  0
VERTEX
  8
0
 10
25.938734
 20
40.989504
 42
0.0
  0
VERTEX
  8
0
 10
26.119328
 20
36.084002
 42
0.0
  0
VERTEX
  8
0
 10
26.299922
 20
32.04083
 42
0.0
  0
VERTEX
  8
0
 10
26.331672
 20
31.324296
 42
0.0
  0
VERTEX
  8
0
 10
26.383996
 20
30.363668
 42
0.0
  0
VERTEX
  8
0
 10
26.396442
 20
30.125162
 42
0.0
  0
VERTEX
  8
0
 10
27.1653
 20
29.620972
 42
0.0
  0
VERTEX
  8
0
 10
27.37739
 20
29.48178
 42
0.0
  0
VERTEX
  8
0
 10
29.509212
 20
28.081732
 42
0.0
  0
VERTEX
  8
0
 10
29.849572
 20
27.858466
 42
0.0
  0
VERTEX
  8
0
 10
29.69387
 20
19.1753998
 42
0.0
  0
VERTEX
  8
0
 10
29.688536
 20
18.8322712
 42
0.0
  0
VERTEX
  8
0
 10
33.016444
 20
7.9347568
 42
0.0
  0
VERTEX
  8
0
 10
29.45003
 20
5.4391306
 42
0.0
  0
VERTEX
  8
0
 10
26.917142
 20
3.6669472
 42
0.0
  0
VERTEX
  8
0
 10
26.42108
 20
3.3197038
 42
0.0
  0
VERTEX
  8
0
 10
25.616408
 20
2.7574494
 42
0.0
  0
VERTEX
  8
0
 10
23.3839512
 20
1.19476012
 42
0.0
  0
VERTEX
  8
0
 10
21.5511126
 20
2.5769316
 42
0.0
  0
VERTEX
  8
0
 10
21.1018882
 20
2.9145484
 42
0.0
  0
VERTEX
  8
0
 10
18.9728348
 20
4.5213524
 42
0.0
  0
VERTEX
  8
0
 10
18.1928516
 20
5.1097688
 42
0.0
  0
VERTEX
  8
0
 10
16.8782238
 20
4.311904
 42
0.0
  0
VERTEX
  8
0
 10
15.6558996
 20
5.113909
 42
0.0
  0
VERTEX
  8
0
 10
10.3862632
 20
1.42627096
 42
0.0
  0
VERTEX
  8
0
 10
8.3412584
 20
2.9682948
 42
0.0
  0
VERTEX
  8
0
 10
6.921881
 20
4.0390318
 42
0.0
  0
VERTEX
  8
0
 10
4.4703746
 20
5.8869834
 42
0.0
  0
VERTEX
  8
0
 10
3.7964872
 20
6.395466
 42
0.0
  0
SEQEND
  0
POLYLINE
  8
0
 66
     1
 10
0.0
 20
0.0
 30
0.0
 70
     1
  0
VERTEX
  8
0
 10
33.268666
 20
103.847646
 42
0.0
  0
VERTEX
  8
0
 10
33.152842
 20
103.947976
 42
0.0
  0
VERTEX
  8
0
 10
33.071562
 20
104.019604
 42
0.0
  0
VERTEX
  8
0
 10
32.958532
 20
104.117648
 42
0.0
  0
VERTEX
  8
0
 10
32.875728
 20
104.1908
 42
0.0
  0
VERTEX
  8
0
 10
32.750506
 20
104.299512
 42
0.0
  0
VERTEX
  8
0
 10
32.725614
 20
104.32161
 42
0.0
  0
VERTEX
  8
0
 10
32.666432
 20
104.364282
 42
0.0
  0
VERTEX
  8
0
 10
32.60852
 20
104.408478
 42
0.0
  0
VERTEX
  8
0
 10
32.5755
 20
104.424988
 42
0.0
  0
VERTEX
  8
0
 10
32.426656
 20
104.516174
 42
0.0
  0
VERTEX
  8
0
 10
32.322008
 20
104.562656
 42
0.0
  0
VERTEX
  8
0
 10
32.237934
 20
104.601518
 42
0.0
  0
VERTEX
  8
0
 10
32.04083
 20
104.666034
 42
0.0
  0
VERTEX
  8
0
 10
31.838138
 20
104.70896
 42
0.0
  0
VERTEX
  8
0
 10
31.631382
 20
104.72801
 42
0.0
  0
VERTEX
  8
0
 10
31.423356
 20
104.723946
 42
0.0
  0
VERTEX
  8
0
 10
31.2166
 20
104.697784
 42
0.0
  0
VERTEX
  8
0
 10
31.015432
 20
104.646984
 42
0.0
  0
VERTEX
  8
0
 10
30.821122
 20
104.575356
 42
0.0
  0
VERTEX
  8
0
 10
30.797754
 20
104.562656
 42
0.0
  0
VERTEX
  8
0
 10
30.756352
 20
104.543606
 42
0.0
  0
VERTEX
  8
0
 10
30.654498
 20
104.491028
 42
0.0
  0
VERTEX
  8
0
 10
30.636464
 20
104.481376
 42
0.0
  0
VERTEX
  8
0
 10
30.618684
 20
104.470454
 42
0.0
  0
VERTEX
  8
0
 10
30.461458
 20
104.3686
 42
0.0
  0
VERTEX
  8
0
 10
30.301692
 20
104.234996
 42
0.0
  0
VERTEX
  8
0
 10
30.158436
 20
104.085898
 42
0.0
  0
VERTEX
  8
0
 10
30.03169
 20
103.922068
 42
0.0
  0
VERTEX
  8
0
 10
29.923994
 20
103.742744
 42
0.0
  0
VERTEX
  8
0
 10
29.913072
 20
103.7209
 42
0.0
  0
VERTEX
  8
0
 10
29.900626
 20
103.693468
 42
0.0
  0
VERTEX
  8
0
 10
29.83865
 20
103.554022
 42
0.0
  0
VERTEX
  8
0
 10
29.77261
 20
103.356918
 42
0.0
  0
VERTEX
  8
0
 10
29.729684
 20
103.154226
 42
0.0
  0
VERTEX
  8
0
 10
29.710634
 20
102.947724
 42
0.0
  0
VERTEX
  8
0
 10
29.714698
 20
102.739444
 42
0.0
  0
VERTEX
  8
0
 10
29.74213
 20
102.533196
 42
0.0
  0
VERTEX
  8
0
 10
29.791914
 20
102.331774
 42
0.0
  0
VERTEX
  8
0
 10
29.863542
 20
102.13721
 42
0.0
  0
VERTEX
  8
0
 10
29.900626
 20
102.064312
 42
0.0
  0
VERTEX
  8
0
 10
29.915866
 20
102.036626
 42
0.0
  0
VERTEX
  8
0
 10
29.958538
 20
101.952806
 42
0.0
  0
VERTEX
  8
0
 10
29.994352
 20
101.897688
 42
0.0
  0
VERTEX
  8
0
 10
30.071568
 20
101.7778
 42
0.0
  0
VERTEX
  8
0
 10
30.08249
 20
101.765354
 42
0.0
  0
VERTEX
  8
0
 10
30.159706
 20
101.673152
 42
0.0
  0
VERTEX
  8
0
 10
30.203902
 20
101.618034
 42
0.0
  0
VERTEX
  8
0
 10
30.235652
 20
101.587554
 42
0.0
  0
VERTEX
  8
0
 10
30.269942
 20
101.554534
 42
0.0
  0
VERTEX
  8
0
 10
30.294834
 20
101.518974
 42
0.0
  0
VERTEX
  8
0
 10
30.398212
 20
101.415596
 42
0.0
  0
VERTEX
  8
0
 10
30.494478
 20
101.331268
 42
0.0
  0
VERTEX
  8
0
 10
30.555184
 20
101.278944
 42
0.0
  0
VERTEX
  8
0
 10
30.618684
 20
101.223826
 42
0.0
  0
VERTEX
  8
0
 10
30.654498
 20
101.1936
 42
0.0
  0
VERTEX
  8
0
 10
30.818328
 20
101.05009
 42
0.0
  0
VERTEX
  8
0
 10
31.03626
 20
100.862638
 42
0.0
  0
VERTEX
  8
0
 10
31.067756
 20
100.833682
 42
0.0
  0
VERTEX
  8
0
 10
31.098236
 20
100.807774
 42
0.0
  0
VERTEX
  8
0
 10
31.209742
 20
100.711
 42
0.0
  0
VERTEX
  8
0
 10
31.303468
 20
100.629974
 42
0.0
  0
VERTEX
  8
0
 10
31.364174
 20
100.585778
 42
0.0
  0
VERTEX
  8
0
 10
31.375096
 20
100.57765
 42
0.0
  0
VERTEX
  8
0
 10
31.420562
 20
100.544376
 42
0.0
  0
VERTEX
  8
0
 10
31.508954
 20
100.49764
 42
0.0
  0
VERTEX
  8
0
 10
31.551626
 20
100.476812
 42
0.0
  0
VERTEX
  8
0
 10
31.58871
 20
100.464366
 42
0.0
  0
VERTEX
  8
0
 10
31.601156
 20
100.456238
 42
0.0
  0
VERTEX
  8
0
 10
31.789878
 20
100.369624
 42
0.0
  0
VERTEX
  8
0
 10
31.986982
 20
100.3046
 42
0.0
  0
VERTEX
  8
0
 10
32.190944
 20
100.261928
 42
0.0
  0
VERTEX
  8
0
 10
32.3977
 20
100.242624
 42
0.0
  0
VERTEX
  8
0
 10
32.604456
 20
100.246688
 42
0.0
  0
VERTEX
  8
0
 10
32.666432
 20
100.255324
 42
0.0
  0
VERTEX
  8
0
 10
32.810958
 20
100.27285
 42
0.0
  0
VERTEX
  8
0
 10
33.01238
 20
100.323904
 42
0.0
  0
VERTEX
  8
0
 10
33.20669
 20
100.395532
 42
0.0
  0
VERTEX
  8
0
 10
33.392618
 20
100.489512
 42
0.0
  0
VERTEX
  8
0
 10
33.538668
 20
100.585778
 42
0.0
  0
VERTEX
  8
0
 10
33.566354
 20
100.603812
 42
0.0
  0
VERTEX
  8
0
 10
33.72612
 20
100.736146
 42
0.0
  0
VERTEX
  8
0
 10
33.847278
 20
100.862638
 42
0.0
  0
VERTEX
  8
0
 10
33.869376
 20
100.88499
 42
0.0
  0
VERTEX
  8
0
 10
33.9217
 20
100.9523
 42
0.0
  0
VERTEX
  8
0
 10
33.997646
 20
101.049074
 42
0.0
  0
VERTEX
  8
0
 10
34.103818
 20
101.22789
 42
0.0
  0
VERTEX
  8
0
 10
34.190432
 20
101.416612
 42
0.0
  0
VERTEX
  8
0
 10
34.255202
 20
101.613716
 42
0.0
  0
VERTEX
  8
0
 10
34.267648
 20
101.673152
 42
0.0
  0
VERTEX
  8
0
 10
34.298128
 20
101.817678
 42
0.0
  0
VERTEX
  8
0
 10
34.317178
 20
102.02291
 42
0.0
  0
VERTEX
  8
0
 10
34.313114
 20
102.23119
 42
0.0
  0
VERTEX
  8
0
 10
34.285682
 20
102.437946
 42
0.0
  0
VERTEX
  8
0
 10
34.235898
 20
102.63886
 42
0.0
  0
VERTEX
  8
0
 10
34.16427
 20
102.833424
 42
0.0
  0
VERTEX
  8
0
 10
34.070544
 20
103.018082
 42
0.0
  0
VERTEX
  8
0
 10
33.957514
 20
103.193088
 42
0.0
  0
VERTEX
  8
0
 10
33.9217
 20
103.23449
 42
0.0
  0
VERTEX
  8
0
 10
33.90519
 20
103.25481
 42
0.0
  0
VERTEX
  8
0
 10
33.82391
 20
103.352854
 42
0.0
  0
VERTEX
  8
0
 10
33.814258
 20
103.360982
 42
0.0
  0
VERTEX
  8
0
 10
33.72485
 20
103.44785
 42
0.0
  0
VERTEX
  8
0
 10
33.675066
 20
103.49611
 42
0.0
  0
VERTEX
  8
0
 10
33.640776
 20
103.522272
 42
0.0
  0
VERTEX
  8
0
 10
33.631124
 20
103.530654
 42
0.0
  0
VERTEX
  8
0
 10
33.622742
 20
103.538782
 42
0.0
  0
VERTEX
  8
0
 10
33.602168
 20
103.556816
 42
0.0
  0
VERTEX
  8
0
 10
33.588198
 20
103.567738
 42
0.0
  0
VERTEX
  8
0
 10
33.555178
 20
103.598218
 42
0.0
  0
VERTEX
  8
0
 10
33.489138
 20
103.654606
 42
0.0
  0
VERTEX
  8
0
 10
33.477962
 20
103.664512
 42
0.0
  0
VERTEX
  8
0
 10
33.414716
 20
103.7209
 42
0.0
  0
VERTEX
  8
0
 10
33.290764
 20
103.828088
 42
0.0
  0
VERTEX
  8
0
 10
33.279588
 20
103.839518
 42
0.0
  0
SEQEND
  0
POLYLINE
  8
0
 66
     1
 10
0.0
 20
0.0
 30
0.0
 70
     1
  0
VERTEX
  8
0
 10
8.3302602
 20
10.4896412
 42
0.0
  0
VERTEX
  8
0
 10
8.3495388
 20
10.4648254
 42
0.0
  0
VERTEX
  8
0
 10
8.7298784
 20
10.070719
 42
0.0
  0
VERTEX
  8
0
 10
8.9076276
 20
9.9315016
 42
0.0
  0
VERTEX
  8
0
 10
9.1226132
 20
9.837801
 42
0.0
  0
VERTEX
  8
0
 10
9.3734128
 20
9.7909634
 42
0.0
  0
VERTEX
  8
0
 10
9.6503998
 20
9.7937066
 42
0.0
  0
VERTEX
  8
0
 10
9.9466654
 20
9.8447098
 42
0.0
  0
VERTEX
  8
0
 10
10.1396038
 20
9.9053396
 42
0.0
  0
VERTEX
  8
0
 10
10.2581202
 20
9.9425506
 42
0.0
  0
VERTEX
  8
0
 10
10.5750868
 20
10.0858574
 42
0.0
  0
VERTEX
  8
0
 10
10.8892594
 20
10.2719124
 42
0.0
  0
VERTEX
  8
0
 10
11.1938054
 20
10.493756
 42
0.0
  0
VERTEX
  8
0
 10
11.4804444
 20
10.7472988
 42
0.0
  0
VERTEX
  8
0
 10
11.9489728
 20
11.2006888
 42
0.0
  0
VERTEX
  8
0
 10
12.1184924
 20
11.3646712
 42
0.0
  0
VERTEX
  8
0
 10
12.1556526
 20
11.4005106
 42
0.0
  0
VERTEX
  8
0
 10
12.3058682
 20
11.5603528
 42
0.0
  0
VERTEX
  8
0
 10
12.4175012
 20
11.6788946
 42
0.0
  0
VERTEX
  8
0
 10
12.6490222
 20
11.9765318
 42
0.0
  0
VERTEX
  8
0
 10
12.8433322
 20
12.283821
 42
0.0
  0
VERTEX
  8
0
 10
12.9976626
 20
12.5966474
 42
0.0
  0
VERTEX
  8
0
 10
13.1065016
 20
12.9039366
 42
0.0
  0
VERTEX
  8
0
 10
13.1671568
 20
13.198856
 42
0.0
  0
VERTEX
  8
0
 10
13.1795774
 20
13.4758176
 42
0.0
  0
VERTEX
  8
0
 10
13.1589018
 20
13.6081262
 42
0.0
  0
VERTEX
  8
0
 10
13.1395978
 20
13.7280396
 42
0.0
  0
VERTEX
  8
0
 10
13.0527806
 20
13.9457684
 42
0.0
  0
VERTEX
  8
0
 10
12.9191004
 20
14.1276578
 42
0.0
  0
VERTEX
  8
0
 10
12.5374146
 20
14.5203926
 42
0.0
  0
VERTEX
  8
0
 10
12.3610116
 20
14.6609562
 42
0.0
  0
VERTEX
  8
0
 10
12.1446544
 20
14.7546568
 42
0.0
  0
VERTEX
  8
0
 10
11.8966234
 20
14.8001228
 42
0.0
  0
VERTEX
  8
0
 10
11.619611
 20
14.7987512
 42
0.0
  0
VERTEX
  8
0
 10
11.3205768
 20
14.7477734
 42
0.0
  0
VERTEX
  8
0
 10
11.010519
 20
14.6499072
 42
0.0
  0
VERTEX
  8
0
 10
10.6935778
 20
14.5052288
 42
0.0
  0
VERTEX
  8
0
 10
10.3794052
 20
14.3205962
 42
0.0
  0
VERTEX
  8
0
 10
10.1396038
 20
14.1455648
 42
0.0
  0
VERTEX
  8
0
 10
10.0748338
 20
14.0987018
 42
0.0
  0
VERTEX
  8
0
 10
9.7881948
 20
13.8437874
 42
0.0
  0
VERTEX
  8
0
 10
9.1143328
 20
13.1919472
 42
0.0
  0
VERTEX
  8
0
 10
8.8511126
 20
12.9122424
 42
0.0
  0
VERTEX
  8
0
 10
8.6196424
 20
12.615926
 42
0.0
  0
VERTEX
  8
0
 10
8.4239354
 20
12.3072398
 42
0.0
  0
VERTEX
  8
0
 10
8.3274916
 20
12.1129298
 42
0.0
  0
VERTEX
  8
0
 10
8.269605
 20
11.9958104
 42
0.0
  0
VERTEX
  8
0
 10
8.1621122
 20
11.6871496
 42
0.0
  0
VERTEX
  8
0
 10
8.1359502
 20
11.5603528
 42
0.0
  0
VERTEX
  8
0
 10
8.1014824
 20
11.3922556
 42
0.0
  0
VERTEX
  8
0
 10
8.0959706
 20
11.2682274
 42
0.0
  0
VERTEX
  8
0
 10
8.0904588
 20
11.1152432
 42
0.0
  0
VERTEX
  8
0
 10
8.1276952
 20
10.864469
 42
0.0
  0
VERTEX
  8
0
 10
8.215884
 20
10.6453432
 42
0.0
  0
SEQEND
  0
POLYLINE
  8
0
 66
     1
 10
0.0
 20
0.0
 30
0.0
 70
     1
  0
VERTEX
  8
0
 10
9.581515
 20
24.1115596
 42
0.0
  0
VERTEX
  8
0
 10
9.8405696
 20
23.8483394
 42
0.0
  0
VERTEX
  8
0
 10
10.1396038
 20
23.545165
 42
0.0
  0
VERTEX
  8
0
 10
10.2333044
 20
23.4487212
 42
0.0
  0
VERTEX
  8
0
 10
10.51306
 20
23.1910128
 42
0.0
  0
VERTEX
  8
0
 10
10.8093256
 20
22.9636574
 42
0.0
  0
VERTEX
  8
0
 10
11.1180118
 20
22.770719
 42
0.0
  0
VERTEX
  8
0
 10
11.4294412
 20
22.6205034
 42
0.0
  0
VERTEX
  8
0
 10
11.7381274
 20
22.5130106
 42
0.0
  0
VERTEX
  8
0
 10
12.0344184
 20
22.4537524
 42
0.0
  0
VERTEX
  8
0
 10
12.1873772
 20
22.4482406
 42
0.0
  0
VERTEX
  8
0
 10
12.3100084
 20
22.4427288
 42
0.0
  0
VERTEX
  8
0
 10
12.5608334
 20
22.4813368
 42
0.0
  0
VERTEX
  8
0
 10
12.7799338
 20
22.5667824
 42
0.0
  0
VERTEX
  8
0
 10
12.9604516
 20
22.6990656
 42
0.0
  0
VERTEX
  8
0
 10
13.1795774
 20
22.9057454
 42
0.0
  0
VERTEX
  8
0
 10
13.3545834
 20
23.072471
 42
0.0
  0
VERTEX
  8
0
 10
13.49375
 20
23.2461054
 42
0.0
  0
VERTEX
  8
0
 10
13.5874506
 20
23.4583478
 42
0.0
  0
VERTEX
  8
0
 10
13.6356852
 20
23.7036356
 42
0.0
  0
VERTEX
  8
0
 10
13.6329166
 20
23.8483394
 42
0.0
  0
VERTEX
  8
0
 10
13.631545
 20
23.9750854
 42
0.0
  0
VERTEX
  8
0
 10
13.5805672
 20
24.2686332
 42
0.0
  0
VERTEX
  8
0
 10
13.4827518
 20
24.5732046
 42
0.0
  0
VERTEX
  8
0
 10
13.3394196
 20
24.8860056
 42
0.0
  0
VERTEX
  8
0
 10
13.1795774
 20
25.151969
 42
0.0
  0
VERTEX
  8
0
 10
13.15339
 20
25.1933202
 42
0.0
  0
VERTEX
  8
0
 10
12.931521
 20
25.493726
 42
0.0
  0
VERTEX
  8
0
 10
12.6779528
 20
25.774904
 42
0.0
  0
VERTEX
  8
0
 10
12.5594618
 20
25.896062
 42
0.0
  0
VERTEX
  8
0
 10
12.0261126
 20
26.43759
 42
0.0
  0
VERTEX
  8
0
 10
11.7464078
 20
26.69667
 42
0.0
  0
VERTEX
  8
0
 10
11.4487198
 20
26.92273
 42
0.0
  0
VERTEX
  8
0
 10
11.1414306
 20
27.11577
 42
0.0
  0
VERTEX
  8
0
 10
10.8286296
 20
27.265884
 42
0.0
  0
VERTEX
  8
0
 10
10.521315
 20
27.373326
 42
0.0
  0
VERTEX
  8
0
 10
10.226421
 20
27.432508
 42
0.0
  0
VERTEX
  8
0
 10
10.1396038
 20
27.435302
 42
0.0
  0
VERTEX
  8
0
 10
9.949434
 20
27.443684
 42
0.0
  0
VERTEX
  8
0
 10
9.6986344
 20
27.406346
 42
0.0
  0
VERTEX
  8
0
 10
9.479534
 20
27.321002
 42
0.0
  0
VERTEX
  8
0
 10
9.2976446
 20
27.188668
 42
0.0
  0
VERTEX
  8
0
 10
8.9048844
 20
26.813764
 42
0.0
  0
VERTEX
  8
0
 10
8.7643462
 20
26.640282
 42
0.0
  0
VERTEX
  8
0
 10
8.6706202
 20
26.427938
 42
0.0
  0
VERTEX
  8
0
 10
8.6251288
 20
26.182828
 42
0.0
  0
VERTEX
  8
0
 10
8.6265004
 20
25.911302
 42
0.0
  0
VERTEX
  8
0
 10
8.629269
 20
25.896062
 42
0.0
  0
VERTEX
  8
0
 10
8.677529
 20
25.617678
 42
0.0
  0
VERTEX
  8
0
 10
8.776716
 20
25.3131828
 42
0.0
  0
VERTEX
  8
0
 10
8.9200482
 20
25.0017534
 42
0.0
  0
VERTEX
  8
0
 10
9.1047062
 20
24.6930672
 42
0.0
  0
VERTEX
  8
0
 10
9.3279468
 20
24.3940076
 42
0.0
  0
SEQEND
  0
POLYLINE
  8
0
 66
     1
 10
0.0
 20
0.0
 30
0.0
 70
     1
  0
VERTEX
  8
0
 10
16.4606732
 20
22.4757996
 42
0.0
  0
VERTEX
  8
0
 10
16.3490656
 20
22.4427288
 42
0.0
  0
VERTEX
  8
0
 10
15.920466
 20
22.3187006
 42
0.0
  0
VERTEX
  8
0
 10
15.4064716
 20
22.0899482
 42
0.0
  0
VERTEX
  8
0
 10
14.9296628
 20
21.790914
 42
0.0
  0
VERTEX
  8
0
 10
14.4983454
 20
21.4298784
 42
0.0
  0
VERTEX
  8
0
 10
14.1235176
 20
21.0109562
 42
0.0
  0
VERTEX
  8
0
 10
13.8093196
 20
20.5437994
 42
0.0
  0
VERTEX
  8
0
 10
13.5640318
 20
20.03806
 42
0.0
  0
VERTEX
  8
0
 10
13.4717028
 20
19.7527926
 42
0.0
  0
VERTEX
  8
0
 10
13.3903974
 20
19.50339
 42
0.0
  0
VERTEX
  8
0
 10
13.2939282
 20
18.9493906
 42
0.0
  0
VERTEX
  8
0
 10
13.2746496
 20
18.3871616
 42
0.0
  0
VERTEX
  8
0
 10
13.3352794
 20
17.8290728
 42
0.0
  0
VERTEX
  8
0
 10
13.4717028
 20
17.2819822
 42
0.0
  0
VERTEX
  8
0
 10
13.6825482
 20
16.761079
 42
0.0
  0
VERTEX
  8
0
 10
13.9650216
 20
16.2746182
 42
0.0
  0
VERTEX
  8
0
 10
14.3122904
 20
15.8322772
 42
0.0
  0
VERTEX
  8
0
 10
14.4941798
 20
15.6558996
 42
0.0
  0
VERTEX
  8
0
 10
14.7174712
 20
15.4422856
 42
0.0
  0
VERTEX
  8
0
 10
15.1722074
 20
15.1129238
 42
0.0
  0
VERTEX
  8
0
 10
15.6696918
 20
14.8483574
 42
0.0
  0
VERTEX
  8
0
 10
16.1974784
 20
14.656816
 42
0.0
  0
VERTEX
  8
0
 10
16.7486838
 20
14.5410682
 42
0.0
  0
VERTEX
  8
0
 10
17.3095412
 20
14.5024856
 42
0.0
  0
VERTEX
  8
0
 10
17.870424
 20
14.5424398
 42
0.0
  0
VERTEX
  8
0
 10
18.3306466
 20
14.6416522
 42
0.0
  0
VERTEX
  8
0
 10
18.4202324
 20
14.6609562
 42
0.0
  0
VERTEX
  8
0
 10
18.948019
 20
14.8538946
 42
0.0
  0
VERTEX
  8
0
 10
19.4441318
 20
15.118461
 42
0.0
  0
VERTEX
  8
0
 10
19.5212716
 20
15.1749506
 42
0.0
  0
VERTEX
  8
0
 10
19.8988934
 20
15.4491944
 42
0.0
  0
VERTEX
  8
0
 10
20.1124566
 20
15.6558996
 42
0.0
  0
VERTEX
  8
0
 10
20.3026518
 20
15.8405322
 42
0.0
  0
VERTEX
  8
0
 10
20.648549
 20
16.2842956
 42
0.0
  0
VERTEX
  8
0
 10
20.9296254
 20
16.770731
 42
0.0
  0
VERTEX
  8
0
 10
20.9985356
 20
16.9429684
 42
0.0
  0
VERTEX
  8
0
 10
21.1018882
 20
17.2020484
 42
0.0
  0
VERTEX
  8
0
 10
21.1391246
 20
17.2929804
 42
0.0
  0
VERTEX
  8
0
 10
21.1652866
 20
17.3991016
 42
0.0
  0
VERTEX
  8
0
 10
21.274151
 20
17.8386994
 42
0.0
  0
VERTEX
  8
0
 10
21.3320376
 20
18.3981852
 42
0.0
  0
VERTEX
  8
0
 10
21.3113874
 20
18.9604396
 42
0.0
  0
VERTEX
  8
0
 10
21.2135212
 20
19.5143882
 42
0.0
  0
VERTEX
  8
0
 10
21.1652866
 20
19.6618606
 42
0.0
  0
VERTEX
  8
0
 10
21.1349844
 20
19.7527926
 42
0.0
  0
VERTEX
  8
0
 10
21.1018882
 20
19.854799
 42
0.0
  0
VERTEX
  8
0
 10
21.0385152
 20
20.0476866
 42
0.0
  0
VERTEX
  8
0
 10
20.9985356
 20
20.1317606
 42
0.0
  0
VERTEX
  8
0
 10
20.7918304
 20
20.553426
 42
0.0
  0
VERTEX
  8
0
 10
20.4776578
 20
21.0192112
 42
0.0
  0
VERTEX
  8
0
 10
20.1000868
 20
21.4367618
 42
0.0
  0
VERTEX
  8
0
 10
19.854799
 20
21.6420954
 42
0.0
  0
VERTEX
  8
0
 10
19.6673724
 20
21.7978228
 42
0.0
  0
VERTEX
  8
0
 10
19.1905382
 20
22.09546
 42
0.0
  0
VERTEX
  8
0
 10
18.6765438
 20
22.3228154
 42
0.0
  0
VERTEX
  8
0
 10
18.3306466
 20
22.4220532
 42
0.0
  0
VERTEX
  8
0
 10
18.2548784
 20
22.4427288
 42
0.0
  0
VERTEX
  8
0
 10
18.1363874
 20
22.4771712
 42
0.0
  0
VERTEX
  8
0
 10
17.5796194
 20
22.5557334
 42
0.0
  0
VERTEX
  8
0
 10
17.0173904
 20
22.5543618
 42
0.0
  0
SEQEND
  0
POLYLINE
  8
0
 66
     1
 10
0.0
 20
0.0
 30
0.0
 70
     1
  0
VERTEX
  8
0
 10
17.637506
 20
110.488222
 42
0.0
  0
VERTEX
  8
0
 10
17.8731672
 20
110.368334
 42
0.0
  0
VERTEX
  8
0
 10
17.9214018
 20
110.344966
 42
0.0
  0
VERTEX
  8
0
 10
18.0481732
 20
110.294166
 42
0.0
  0
VERTEX
  8
0
 10
18.2176674
 20
110.227872
 42
0.0
  0
VERTEX
  8
0
 10
18.3306466
 20
110.196122
 42
0.0
  0
VERTEX
  8
0
 10
18.523585
 20
110.142528
 42
0.0
  0
VERTEX
  8
0
 10
18.836386
 20
110.08741
 42
0.0
  0
VERTEX
  8
0
 10
19.1533526
 20
110.062518
 42
0.0
  0
VERTEX
  8
0
 10
19.4716654
 20
110.069376
 42
0.0
  0
VERTEX
  8
0
 10
19.7886574
 20
110.107984
 42
0.0
  0
VERTEX
  8
0
 10
20.0986898
 20
110.175548
 42
0.0
  0
VERTEX
  8
0
 10
20.37842
 20
110.266226
 42
0.0
  0
VERTEX
  8
0
 10
20.4004672
 20
110.274862
 42
0.0
  0
VERTEX
  8
0
 10
20.4459332
 20
110.294166
 42
0.0
  0
VERTEX
  8
0
 10
20.4817726
 20
110.309406
 42
0.0
  0
VERTEX
  8
0
 10
20.6140812
 20
110.368334
 42
0.0
  0
VERTEX
  8
0
 10
20.6540354
 20
110.384844
 42
0.0
  0
VERTEX
  8
0
 10
20.6926434
 20
110.402878
 42
0.0
  0
VERTEX
  8
0
 10
20.969605
 20
110.55731
 42
0.0
  0
VERTEX
  8
0
 10
21.1018882
 20
110.649512
 42
0.0
  0
VERTEX
  8
0
 10
21.2300566
 20
110.739174
 42
0.0
  0
VERTEX
  8
0
 10
21.468461
 20
110.942882
 42
0.0
  0
VERTEX
  8
0
 10
21.4726012
 20
110.945676
 42
0.0
  0
VERTEX
  8
0
 10
21.6917016
 20
111.176054
 42
0.0
  0
VERTEX
  8
0
 10
21.8887802
 20
111.426752
 42
0.0
  0
VERTEX
  8
0
 10
21.9935044
 20
111.590582
 42
0.0
  0
VERTEX
  8
0
 10
22.0072712
 20
111.61141
 42
0.0
  0
VERTEX
  8
0
 10
22.059646
 20
111.69396
 42
0.0
  0
VERTEX
  8
0
 10
22.2043244
 20
111.977932
 42
0.0
  0
VERTEX
  8
0
 10
22.3200722
 20
112.27435
 42
0.0
  0
VERTEX
  8
0
 10
22.4055178
 20
112.580166
 42
0.0
  0
VERTEX
  8
0
 10
22.427565
 20
112.69726
 42
0.0
  0
VERTEX
  8
0
 10
22.4620328
 20
112.893094
 42
0.0
  0
VERTEX
  8
0
 10
22.4854516
 20
113.211356
 42
0.0
  0
VERTEX
  8
0
 10
22.4799398
 20
113.529618
 42
0.0
  0
VERTEX
  8
0
 10
22.4413572
 20
113.843816
 42
0.0
  0
VERTEX
  8
0
 10
22.427565
 20
113.911126
 42
0.0
  0
VERTEX
  8
0
 10
22.4165668
 20
113.96091
 42
0.0
  0
VERTEX
  8
0
 10
22.3724724
 20
114.155474
 42
0.0
  0
VERTEX
  8
0
 10
22.2746062
 20
114.458496
 42
0.0
  0
VERTEX
  8
0
 10
22.1464378
 20
114.749072
 42
0.0
  0
VERTEX
  8
0
 10
22.0072712
 20
114.997484
 42
0.0
  0
VERTEX
  8
0
 10
21.9907104
 20
115.02644
 42
0.0
  0
VERTEX
  8
0
 10
21.808821
 20
115.28806
 42
0.0
  0
VERTEX
  8
0
 10
21.6021412
 20
115.529106
 42
0.0
  0
VERTEX
  8
0
 10
21.3733634
 20
115.749578
 42
0.0
  0
VERTEX
  8
0
 10
21.2314282
 20
115.861338
 42
0.0
  0
VERTEX
  8
0
 10
21.1225638
 20
115.946682
 42
0.0
  0
VERTEX
  8
0
 10
21.1018882
 20
115.959128
 42
0.0
  0
VERTEX
  8
0
 10
20.8538572
 20
116.117624
 42
0.0
  0
VERTEX
  8
0
 10
20.5713584
 20
116.261134
 42
0.0
  0
VERTEX
  8
0
 10
20.37842
 20
116.335556
 42
0.0
  0
VERTEX
  8
0
 10
20.2750928
 20
116.376704
 42
0.0
  0
VERTEX
  8
0
 10
19.9677782
 20
116.463572
 42
0.0
  0
VERTEX
  8
0
 10
19.6549518
 20
116.51869
 42
0.0
  0
VERTEX
  8
0
 10
19.3380106
 20
116.543328
 42
0.0
  0
VERTEX
  8
0
 10
19.0196978
 20
116.536724
 42
0.0
  0
VERTEX
  8
0
 10
18.7041028
 20
116.497862
 42
0.0
  0
VERTEX
  8
0
 10
18.3926734
 20
116.430552
 42
0.0
  0
VERTEX
  8
0
 10
18.3306466
 20
116.409724
 42
0.0
  0
VERTEX
  8
0
 10
18.146014
 20
116.349272
 42
0.0
  0
VERTEX
  8
0
 10
18.090896
 20
116.331238
 42
0.0
  0
VERTEX
  8
0
 10
17.8001168
 20
116.203222
 42
0.0
  0
VERTEX
  8
0
 10
17.7808128
 20
116.193316
 42
0.0
  0
VERTEX
  8
0
 10
17.5217582
 20
116.04879
 42
0.0
  0
VERTEX
  8
0
 10
17.2613066
 20
115.866672
 42
0.0
  0
VERTEX
  8
0
 10
17.020159
 20
115.6589
 42
0.0
  0
VERTEX
  8
0
 10
16.843756
 20
115.475512
 42
0.0
  0
VERTEX
  8
0
 10
16.8285922
 20
115.459002
 42
0.0
  0
VERTEX
  8
0
 10
16.7996616
 20
115.430046
 42
0.0
  0
VERTEX
  8
0
 10
16.6591234
 20
115.249452
 42
0.0
  0
VERTEX
  8
0
 10
16.6026084
 20
115.179094
 42
0.0
  0
VERTEX
  8
0
 10
16.5144196
 20
115.041426
 42
0.0
  0
VERTEX
  8
0
 10
16.4317172
 20
114.911632
 42
0.0
  0
VERTEX
  8
0
 10
16.3834826
 20
114.815366
 42
0.0
  0
VERTEX
  8
0
 10
16.2884104
 20
114.628168
 42
0.0
  0
VERTEX
  8
0
 10
16.2663632
 20
114.571526
 42
0.0
  0
VERTEX
  8
0
 10
16.2594544
 20
114.555016
 42
0.0
  0
VERTEX
  8
0
 10
16.1726626
 20
114.33175
 42
0.0
  0
VERTEX
  8
0
 10
16.1712656
 20
114.326162
 42
0.0
  0
VERTEX
  8
0
 10
16.1216594
 20
114.152426
 42
0.0
  0
VERTEX
  8
0
 10
16.0954974
 20
114.0714
 42
0.0
  0
VERTEX
  8
0
 10
16.0720532
 20
113.96091
 42
0.0
  0
VERTEX
  8
0
 10
16.0265872
 20
113.741962
 42
0.0
  0
VERTEX
  8
0
 10
15.9948626
 20
113.40719
 42
0.0
  0
VERTEX
  8
0
 10
16.0003998
 20
113.069624
 42
0.0
  0
VERTEX
  8
0
 10
16.0265872
 20
112.880648
 42
0.0
  0
VERTEX
  8
0
 10
16.0334706
 20
112.828324
 42
0.0
  0
VERTEX
  8
0
 10
16.0445196
 20
112.735868
 42
0.0
  0
VERTEX
  8
0
 10
16.1257996
 20
112.409478
 42
0.0
  0
VERTEX
  8
0
 10
16.1313368
 20
112.395762
 42
0.0
  0
VERTEX
  8
0
 10
16.1754312
 20
112.275874
 42
0.0
  0
VERTEX
  8
0
 10
16.2167824
 20
112.14735
 42
0.0
  0
VERTEX
  8
0
 10
16.2553396
 20
112.060482
 42
0.0
  0
VERTEX
  8
0
 10
16.2760152
 20
112.011206
 42
0.0
  0
VERTEX
  8
0
 10
16.3201096
 20
111.911638
 42
0.0
  0
VERTEX
  8
0
 10
16.3449
 20
111.856774
 42
0.0
  0
VERTEX
  8
0
 10
16.5006274
 20
111.57966
 42
0.0
  0
VERTEX
  8
0
 10
16.5102794
 20
111.565944
 42
0.0
  0
VERTEX
  8
0
 10
16.6825422
 20
111.31804
 42
0.0
  0
VERTEX
  8
0
 10
16.7748712
 20
111.210344
 42
0.0
  0
VERTEX
  8
0
 10
16.890619
 20
111.07674
 42
0.0
  0
VERTEX
  8
0
 10
17.119346
 20
110.856268
 42
0.0
  0
VERTEX
  8
0
 10
17.130395
 20
110.84814
 42
0.0
  0
VERTEX
  8
0
 10
17.3687994
 20
110.659418
 42
0.0
  0
VERTEX
  8
0
 10
17.4583852
 20
110.601506
 42
0.0
  0
VERTEX
  8
0
 10
17.481804
 20
110.58779
 42
0.0
  0
SEQEND
  0
POLYLINE
  8
0
 66
     1
 10
0.0
 20
0.0
 30
0.0
 70
     1
  0
VERTEX
  8
0
 10
20.0422002
 20
119.017034
 42
0.0
  0
VERTEX
  8
0
 10
20.0614788
 20
119.03075
 42
0.0
  0
VERTEX
  8
0
 10
20.1469244
 20
119.102378
 42
0.0
  0
VERTEX
  8
0
 10
20.2916028
 20
119.252746
 42
0.0
  0
VERTEX
  8
0
 10
20.37842
 20
119.367046
 42
0.0
  0
VERTEX
  8
0
 10
20.4183996
 20
119.4181
 42
0.0
  0
VERTEX
  8
0
 10
20.4418184
 20
119.456454
 42
0.0
  0
VERTEX
  8
0
 10
20.4445616
 20
119.462296
 42
0.0
  0
VERTEX
  8
0
 10
20.5244954
 20
119.594376
 42
0.0
  0
VERTEX
  8
0
 10
20.6113126
 20
119.783352
 42
0.0
  0
VERTEX
  8
0
 10
20.6760826
 20
119.980456
 42
0.0
  0
VERTEX
  8
0
 10
20.70227
 20
120.104154
 42
0.0
  0
VERTEX
  8
0
 10
20.7188054
 20
120.184418
 42
0.0
  0
VERTEX
  8
0
 10
20.7381094
 20
120.391174
 42
0.0
  0
VERTEX
  8
0
 10
20.7339438
 20
120.598946
 42
0.0
  0
VERTEX
  8
0
 10
20.7064102
 20
120.804432
 42
0.0
  0
VERTEX
  8
0
 10
20.656804
 20
121.007124
 42
0.0
  0
VERTEX
  8
0
 10
20.5851506
 20
121.19991
 42
0.0
  0
VERTEX
  8
0
 10
20.4914246
 20
121.385838
 42
0.0
  0
VERTEX
  8
0
 10
20.4445616
 20
121.456196
 42
0.0
  0
VERTEX
  8
0
 10
20.4418184
 20
121.461784
 42
0.0
  0
VERTEX
  8
0
 10
20.37842
 20
121.559574
 42
0.0
  0
VERTEX
  8
0
 10
20.359116
 20
121.583196
 42
0.0
  0
VERTEX
  8
0
 10
20.3550012
 20
121.587006
 42
0.0
  0
VERTEX
  8
0
 10
20.2447652
 20
121.71934
 42
0.0
  0
VERTEX
  8
0
 10
20.0959212
 20
121.863866
 42
0.0
  0
VERTEX
  8
0
 10
20.0614788
 20
121.890282
 42
0.0
  0
VERTEX
  8
0
 10
19.981545
 20
121.950988
 42
0.0
  0
VERTEX
  8
0
 10
19.9305672
 20
121.990866
 42
0.0
  0
VERTEX
  8
0
 10
19.9030082
 20
122.007376
 42
0.0
  0
VERTEX
  8
0
 10
19.7527926
 20
122.097038
 42
0.0
  0
VERTEX
  8
0
 10
19.6329046
 20
122.152156
 42
0.0
  0
VERTEX
  8
0
 10
19.5639944
 20
122.183906
 42
0.0
  0
VERTEX
  8
0
 10
19.457924
 20
122.219466
 42
0.0
  0
VERTEX
  8
0
 10
19.3669412
 20
122.249946
 42
0.0
  0
VERTEX
  8
0
 10
19.1643762
 20
122.291094
 42
0.0
  0
VERTEX
  8
0
 10
18.957671
 20
122.310652
 42
0.0
  0
VERTEX
  8
0
 10
18.7495688
 20
122.306334
 42
0.0
  0
VERTEX
  8
0
 10
18.5442606
 20
122.278902
 42
0.0
  0
VERTEX
  8
0
 10
18.3416956
 20
122.229372
 42
0.0
  0
VERTEX
  8
0
 10
18.3155082
 20
122.219466
 42
0.0
  0
VERTEX
  8
0
 10
18.1763162
 20
122.168666
 42
0.0
  0
VERTEX
  8
0
 10
18.1473856
 20
122.15749
 42
0.0
  0
VERTEX
  8
0
 10
18.137759
 20
122.152156
 42
0.0
  0
VERTEX
  8
0
 10
17.961356
 20
122.064018
 42
0.0
  0
VERTEX
  8
0
 10
17.7877216
 20
121.950988
 42
0.0
  0
VERTEX
  8
0
 10
17.7849784
 20
121.948194
 42
0.0
  0
VERTEX
  8
0
 10
17.6416462
 20
121.829576
 42
0.0
  0
VERTEX
  8
0
 10
17.6278794
 20
121.817384
 42
0.0
  0
VERTEX
  8
0
 10
17.4845472
 20
121.66854
 42
0.0
  0
VERTEX
  8
0
 10
17.4625
 20
121.640854
 42
0.0
  0
VERTEX
  8
0
 10
17.4597568
 20
121.63806
 42
0.0
  0
VERTEX
  8
0
 10
17.4556166
 20
121.631202
 42
0.0
  0
VERTEX
  8
0
 10
17.3577504
 20
121.502932
 42
0.0
  0
VERTEX
  8
0
 10
17.2516546
 20
121.325132
 42
0.0
  0
VERTEX
  8
0
 10
17.2310044
 20
121.28246
 42
0.0
  0
VERTEX
  8
0
 10
17.2089572
 20
121.2342
 42
0.0
  0
VERTEX
  8
0
 10
17.1786296
 20
121.186194
 42
0.0
  0
VERTEX
  8
0
 10
17.1703746
 20
121.150126
 42
0.0
  0
VERTEX
  8
0
 10
17.1634404
 20
121.137934
 42
0.0
  0
VERTEX
  8
0
 10
17.0987212
 20
120.939306
 42
0.0
  0
VERTEX
  8
0
 10
17.05737
 20
120.736868
 42
0.0
  0
VERTEX
  8
0
 10
17.0504612
 20
120.674638
 42
0.0
  0
VERTEX
  8
0
 10
17.0366944
 20
120.528588
 42
0.0
  0
VERTEX
  8
0
 10
17.0408346
 20
120.321832
 42
0.0
  0
VERTEX
  8
0
 10
17.0504612
 20
120.24614
 42
0.0
  0
VERTEX
  8
0
 10
17.0683682
 20
120.1166
 42
0.0
  0
VERTEX
  8
0
 10
17.0711368
 20
120.104154
 42
0.0
  0
VERTEX
  8
0
 10
17.1124626
 20
119.9388
 42
0.0
  0
VERTEX
  8
0
 10
17.1179744
 20
119.914162
 42
0.0
  0
VERTEX
  8
0
 10
17.1896532
 20
119.719852
 42
0.0
  0
VERTEX
  8
0
 10
17.2833538
 20
119.533924
 42
0.0
  0
VERTEX
  8
0
 10
17.39773
 20
119.360188
 42
0.0
  0
VERTEX
  8
0
 10
17.4115222
 20
119.344948
 42
0.0
  0
VERTEX
  8
0
 10
17.5300132
 20
119.200422
 42
0.0
  0
VERTEX
  8
0
 10
17.6802288
 20
119.056912
 42
0.0
  0
VERTEX
  8
0
 10
17.7325782
 20
119.017034
 42
0.0
  0
VERTEX
  8
0
 10
17.8442112
 20
118.930166
 42
0.0
  0
VERTEX
  8
0
 10
17.9365656
 20
118.873778
 42
0.0
  0
VERTEX
  8
0
 10
17.9406804
 20
118.872254
 42
0.0
  0
VERTEX
  8
0
 10
18.0137054
 20
118.828312
 42
0.0
  0
VERTEX
  8
0
 10
18.0192172
 20
118.825518
 42
0.0
  0
VERTEX
  8
0
 10
18.0219604
 20
118.822724
 42
0.0
  0
VERTEX
  8
0
 10
18.210784
 20
118.735856
 42
0.0
  0
VERTEX
  8
0
 10
18.3306466
 20
118.697248
 42
0.0
  0
VERTEX
  8
0
 10
18.4078372
 20
118.67134
 42
0.0
  0
VERTEX
  8
0
 10
18.6104022
 20
118.629684
 42
0.0
  0
VERTEX
  8
0
 10
18.8185044
 20
118.60911
 42
0.0
  0
VERTEX
  8
0
 10
19.0265812
 20
118.613428
 42
0.0
  0
VERTEX
  8
0
 10
19.2318894
 20
118.64086
 42
0.0
  0
VERTEX
  8
0
 10
19.4330828
 20
118.69039
 42
0.0
  0
VERTEX
  8
0
 10
19.6273928
 20
118.763288
 42
0.0
  0
VERTEX
  8
0
 10
19.7569328
 20
118.828312
 42
0.0
  0
VERTEX
  8
0
 10
19.8134478
 20
118.855744
 42
0.0
  0
VERTEX
  8
0
 10
19.9870822
 20
118.970044
 42
0.0
  0
SEQEND
  0
POLYLINE
  8
0
 66
     1
 10
0.0
 20
0.0
 30
0.0
 70
     1
  0
VERTEX
  8
0
 10
17.85112
 20
90.55481
 42
0.0
  0
VERTEX
  8
0
 10
17.8827938
 20
90.53576
 42
0.0
  0
VERTEX
  8
0
 10
17.9034694
 20
90.522044
 42
0.0
  0
VERTEX
  8
0
 10
18.0936646
 20
90.436446
 42
0.0
  0
VERTEX
  8
0
 10
18.2893462
 20
90.371676
 42
0.0
  0
VERTEX
  8
0
 10
18.3306466
 20
90.362278
 42
0.0
  0
VERTEX
  8
0
 10
18.4932828
 20
90.329004
 42
0.0
  0
VERTEX
  8
0
 10
18.6999626
 20
90.3097
 42
0.0
  0
VERTEX
  8
0
 10
18.9080648
 20
90.314018
 42
0.0
  0
VERTEX
  8
0
 10
19.1133984
 20
90.339926
 42
0.0
  0
VERTEX
  8
0
 10
19.3145918
 20
90.391234
 42
0.0
  0
VERTEX
  8
0
 10
19.5102734
 20
90.462862
 42
0.0
  0
VERTEX
  8
0
 10
19.6480684
 20
90.532966
 42
0.0
  0
VERTEX
  8
0
 10
19.6535548
 20
90.53576
 42
0.0
  0
VERTEX
  8
0
 10
19.6907912
 20
90.55481
 42
0.0
  0
VERTEX
  8
0
 10
19.694906
 20
90.556334
 42
0.0
  0
VERTEX
  8
0
 10
19.7748398
 20
90.608912
 42
0.0
  0
VERTEX
  8
0
 10
19.8685404
 20
90.669618
 42
0.0
  0
VERTEX
  8
0
 10
20.0283826
 20
90.801698
 42
0.0
  0
VERTEX
  8
0
 10
20.1207624
 20
90.898218
 42
0.0
  0
VERTEX
  8
0
 10
20.1731118
 20
90.951812
 42
0.0
  0
VERTEX
  8
0
 10
20.2985116
 20
91.115896
 42
0.0
  0
VERTEX
  8
0
 10
20.3742798
 20
91.239848
 42
0.0
  0
VERTEX
  8
0
 10
20.3770484
 20
91.245182
 42
0.0
  0
VERTEX
  8
0
 10
20.407376
 20
91.294966
 42
0.0
  0
VERTEX
  8
0
 10
20.4693774
 20
91.432888
 42
0.0
  0
VERTEX
  8
0
 10
20.4927962
 20
91.483688
 42
0.0
  0
VERTEX
  8
0
 10
20.5575662
 20
91.681046
 42
0.0
  0
VERTEX
  8
0
 10
20.6016606
 20
91.883484
 42
0.0
  0
VERTEX
  8
0
 10
20.6195676
 20
92.09024
 42
0.0
  0
VERTEX
  8
0
 10
20.6154528
 20
92.298266
 42
0.0
  0
VERTEX
  8
0
 10
20.5892654
 20
92.503498
 42
0.0
  0
VERTEX
  8
0
 10
20.5396846
 20
92.704666
 42
0.0
  0
VERTEX
  8
0
 10
20.4927962
 20
92.828872
 42
0.0
  0
VERTEX
  8
0
 10
20.4666088
 20
92.9005
 42
0.0
  0
VERTEX
  8
0
 10
20.3729082
 20
93.084904
 42
0.0
  0
VERTEX
  8
0
 10
20.2585574
 20
93.25864
 42
0.0
  0
VERTEX
  8
0
 10
20.1276204
 20
93.420184
 42
0.0
  0
VERTEX
  8
0
 10
20.0628504
 20
93.480382
 42
0.0
  0
VERTEX
  8
0
 10
19.9774048
 20
93.56344
 42
0.0
  0
VERTEX
  8
0
 10
19.8134478
 20
93.688662
 42
0.0
  0
VERTEX
  8
0
 10
19.6356732
 20
93.796104
 42
0.0
  0
VERTEX
  8
0
 10
19.4937126
 20
93.861128
 42
0.0
  0
VERTEX
  8
0
 10
19.4455034
 20
93.882972
 42
0.0
  0
VERTEX
  8
0
 10
19.3159634
 20
93.925644
 42
0.0
  0
VERTEX
  8
0
 10
19.2484502
 20
93.947996
 42
0.0
  0
VERTEX
  8
0
 10
19.0458852
 20
93.990668
 42
0.0
  0
VERTEX
  8
0
 10
18.8391546
 20
94.009718
 42
0.0
  0
VERTEX
  8
0
 10
18.6310778
 20
94.007178
 42
0.0
  0
VERTEX
  8
0
 10
18.4243726
 20
93.979238
 42
0.0
  0
VERTEX
  8
0
 10
18.3306466
 20
93.956124
 42
0.0
  0
VERTEX
  8
0
 10
18.2245762
 20
93.929962
 42
0.0
  0
VERTEX
  8
0
 10
18.2162704
 20
93.925644
 42
0.0
  0
VERTEX
  8
0
 10
18.0702204
 20
93.87205
 42
0.0
  0
VERTEX
  8
0
 10
18.0288946
 20
93.85681
 42
0.0
  0
VERTEX
  8
0
 10
17.8442112
 20
93.763084
 42
0.0
  0
VERTEX
  8
0
 10
17.7312066
 20
93.688662
 42
0.0
  0
VERTEX
  8
0
 10
17.6705768
 20
93.648784
 42
0.0
  0
VERTEX
  8
0
 10
17.637506
 20
93.622622
 42
0.0
  0
VERTEX
  8
0
 10
17.5093376
 20
93.517974
 42
0.0
  0
VERTEX
  8
0
 10
17.4749206
 20
93.480382
 42
0.0
  0
VERTEX
  8
0
 10
17.3660562
 20
93.367606
 42
0.0
  0
VERTEX
  8
0
 10
17.26819
 20
93.24086
 42
0.0
  0
VERTEX
  8
0
 10
17.240631
 20
93.203522
 42
0.0
  0
VERTEX
  8
0
 10
17.2089572
 20
93.151198
 42
0.0
  0
VERTEX
  8
0
 10
17.1317666
 20
93.025722
 42
0.0
  0
VERTEX
  8
0
 10
17.046321
 20
92.837
 42
0.0
  0
VERTEX
  8
0
 10
17.0132756
 20
92.736416
 42
0.0
  0
VERTEX
  8
0
 10
16.9856912
 20
92.65539
 42
0.0
  0
VERTEX
  8
0
 10
16.9829226
 20
92.645484
 42
0.0
  0
VERTEX
  8
0
 10
16.981551
 20
92.64015
 42
0.0
  0
VERTEX
  8
0
 10
16.9374566
 20
92.435934
 42
0.0
  0
VERTEX
  8
0
 10
16.9195496
 20
92.229432
 42
0.0
  0
VERTEX
  8
0
 10
16.9236898
 20
92.021406
 42
0.0
  0
VERTEX
  8
0
 10
16.9498772
 20
91.816174
 42
0.0
  0
VERTEX
  8
0
 10
16.9829226
 20
91.682316
 42
0.0
  0
VERTEX
  8
0
 10
16.9856912
 20
91.67114
 42
0.0
  0
VERTEX
  8
0
 10
16.9994834
 20
91.614752
 42
0.0
  0
VERTEX
  8
0
 10
17.0394376
 20
91.50731
 42
0.0
  0
VERTEX
  8
0
 10
17.0669966
 20
91.432888
 42
0.0
  0
VERTEX
  8
0
 10
17.0725084
 20
91.419172
 42
0.0
  0
VERTEX
  8
0
 10
17.1662344
 20
91.23426
 42
0.0
  0
VERTEX
  8
0
 10
17.279239
 20
91.060778
 42
0.0
  0
VERTEX
  8
0
 10
17.4115222
 20
90.901012
 42
0.0
  0
VERTEX
  8
0
 10
17.5603154
 20
90.756232
 42
0.0
  0
VERTEX
  8
0
 10
17.7257202
 20
90.629232
 42
0.0
  0
VERTEX
  8
0
 10
17.8263296
 20
90.568526
 42
0.0
  0
SEQEND
  0
POLYLINE
  8
0
 66
     1
 10
0.0
 20
0.0
 30
0.0
 70
     1
  0
VERTEX
  8
0
 10
21.1018882
 20
12.6145544
 42
0.0
  0
VERTEX
  8
0
 10
21.1501228
 20
12.4643388
 42
0.0
  0
VERTEX
  8
0
 10
21.293455
 20
12.1487946
 42
0.0
  0
VERTEX
  8
0
 10
21.4780876
 20
11.833225
 42
0.0
  0
VERTEX
  8
0
 10
21.6779094
 20
11.5603528
 42
0.0
  0
VERTEX
  8
0
 10
21.7013282
 20
11.5300506
 42
0.0
  0
VERTEX
  8
0
 10
21.8350084
 20
11.3784634
 42
0.0
  0
VERTEX
  8
0
 10
21.9535248
 20
11.24204
 42
0.0
  0
VERTEX
  8
0
 10
21.994876
 20
11.1993172
 42
0.0
  0
VERTEX
  8
0
 10
22.171279
 20
11.0187994
 42
0.0
  0
VERTEX
  8
0
 10
22.427565
 20
10.752836
 42
0.0
  0
VERTEX
  8
0
 10
22.56536
 20
10.6108754
 42
0.0
  0
VERTEX
  8
0
 10
22.6067112
 20
10.566781
 42
0.0
  0
VERTEX
  8
0
 10
22.8864668
 20
10.3049578
 42
0.0
  0
VERTEX
  8
0
 10
23.1827324
 20
10.0734622
 42
0.0
  0
VERTEX
  8
0
 10
23.3673904
 20
9.9563428
 42
0.0
  0
VERTEX
  8
0
 10
23.4913932
 20
9.8777806
 42
0.0
  0
VERTEX
  8
0
 10
23.8028734
 20
9.7248218
 42
0.0
  0
VERTEX
  8
0
 10
24.0040668
 20
9.65454
 42
0.0
  0
VERTEX
  8
0
 10
24.1115596
 20
9.6159574
 42
0.0
  0
VERTEX
  8
0
 10
24.4064282
 20
9.5553022
 42
0.0
  0
VERTEX
  8
0
 10
24.4753384
 20
9.552559
 42
0.0
  0
VERTEX
  8
0
 10
24.6834406
 20
9.544304
 42
0.0
  0
VERTEX
  8
0
 10
24.7826276
 20
9.5594678
 42
0.0
  0
VERTEX
  8
0
 10
24.9342402
 20
9.5828866
 42
0.0
  0
VERTEX
  8
0
 10
25.1533406
 20
9.6697038
 42
0.0
  0
VERTEX
  8
0
 10
25.1685044
 20
9.6807274
 42
0.0
  0
VERTEX
  8
0
 10
25.3338584
 20
9.803384
 42
0.0
  0
VERTEX
  8
0
 10
25.616408
 20
10.0776024
 42
0.0
  0
VERTEX
  8
0
 10
25.727914
 20
10.1836982
 42
0.0
  0
VERTEX
  8
0
 10
25.78735
 20
10.2608634
 42
0.0
  0
VERTEX
  8
0
 10
25.867106
 20
10.3614728
 42
0.0
  0
VERTEX
  8
0
 10
25.960832
 20
10.57783
 42
0.0
  0
VERTEX
  8
0
 10
26.007822
 20
10.825861
 42
0.0
  0
VERTEX
  8
0
 10
26.007822
 20
10.9499146
 42
0.0
  0
VERTEX
  8
0
 10
26.006298
 20
11.1028734
 42
0.0
  0
VERTEX
  8
0
 10
25.956768
 20
11.3839752
 42
0.0
  0
VERTEX
  8
0
 10
25.953974
 20
11.4018822
 42
0.0
  0
VERTEX
  8
0
 10
25.904444
 20
11.5603528
 42
0.0
  0
VERTEX
  8
0
 10
25.856184
 20
11.71194
 42
0.0
  0
VERTEX
  8
0
 10
25.711404
 20
12.0289066
 42
0.0
  0
VERTEX
  8
0
 10
25.616408
 20
12.1901204
 42
0.0
  0
VERTEX
  8
0
 10
25.526746
 20
12.3431046
 42
0.0
  0
VERTEX
  8
0
 10
25.3049278
 20
12.6476506
 42
0.0
  0
VERTEX
  8
0
 10
25.0513596
 20
12.9342896
 42
0.0
  0
VERTEX
  8
0
 10
24.3995702
 20
13.6094978
 42
0.0
  0
VERTEX
  8
0
 10
24.1198146
 20
13.871321
 42
0.0
  0
VERTEX
  8
0
 10
23.8221266
 20
14.1028674
 42
0.0
  0
VERTEX
  8
0
 10
23.5134404
 20
14.298549
 42
0.0
  0
VERTEX
  8
0
 10
23.202011
 20
14.4528794
 42
0.0
  0
VERTEX
  8
0
 10
22.8947218
 20
14.5603468
 42
0.0
  0
VERTEX
  8
0
 10
22.5984562
 20
14.6209766
 42
0.0
  0
VERTEX
  8
0
 10
22.427565
 20
14.62786
 42
0.0
  0
VERTEX
  8
0
 10
22.3214438
 20
14.6320256
 42
0.0
  0
VERTEX
  8
0
 10
22.171279
 20
14.6099784
 42
0.0
  0
VERTEX
  8
0
 10
22.0706696
 20
14.5948146
 42
0.0
  0
VERTEX
  8
0
 10
21.8515438
 20
14.5079974
 42
0.0
  0
VERTEX
  8
0
 10
21.671026
 20
14.3729456
 42
0.0
  0
VERTEX
  8
0
 10
21.2782912
 20
13.992606
 42
0.0
  0
VERTEX
  8
0
 10
21.1377276
 20
13.8148568
 42
0.0
  0
VERTEX
  8
0
 10
21.1018882
 20
13.7321544
 42
0.0
  0
VERTEX
  8
0
 10
21.0440016
 20
13.5998712
 42
0.0
  0
VERTEX
  8
0
 10
20.9985356
 20
13.3504432
 42
0.0
  0
VERTEX
  8
0
 10
20.9999072
 20
13.0734562
 42
0.0
  0
VERTEX
  8
0
 10
21.0509104
 20
12.7757682
 42
0.0
  0
SEQEND
  0
POLYLINE
  8
0
 66
     1
 10
0.0
 20
0.0
 30
0.0
 70
     1
  0
VERTEX
  8
0
 10
24.4973856
 20
23.2268268
 42
0.0
  0
VERTEX
  8
0
 10
25.1271532
 20
23.8483394
 42
0.0
  0
VERTEX
  8
0
 10
25.1588524
 20
23.8800132
 42
0.0
  0
VERTEX
  8
0
 10
25.41651
 20
24.1583972
 42
0.0
  0
VERTEX
  8
0
 10
25.616408
 20
24.4188488
 42
0.0
  0
VERTEX
  8
0
 10
25.645364
 20
24.4560344
 42
0.0
  0
VERTEX
  8
0
 10
25.83688
 20
24.7647206
 42
0.0
  0
VERTEX
  8
0
 10
25.988518
 20
25.07615
 42
0.0
  0
VERTEX
  8
0
 10
26.007822
 20
25.1340366
 42
0.0
  0
VERTEX
  8
0
 10
26.094436
 20
25.3834646
 42
0.0
  0
VERTEX
  8
0
 10
26.153872
 20
25.679654
 42
0.0
  0
VERTEX
  8
0
 10
26.162
 20
25.896062
 42
0.0
  0
VERTEX
  8
0
 10
26.164794
 20
25.956768
 42
0.0
  0
VERTEX
  8
0
 10
26.12771
 20
26.207466
 42
0.0
  0
VERTEX
  8
0
 10
26.042112
 20
26.425398
 42
0.0
  0
VERTEX
  8
0
 10
26.007822
 20
26.472134
 42
0.0
  0
VERTEX
  8
0
 10
25.909778
 20
26.607262
 42
0.0
  0
VERTEX
  8
0
 10
25.616408
 20
26.915872
 42
0.0
  0
VERTEX
  8
0
 10
25.536398
 20
26.999946
 42
0.0
  0
VERTEX
  8
0
 10
25.3614174
 20
27.140408
 42
0.0
  0
VERTEX
  8
0
 10
25.1505974
 20
27.234134
 42
0.0
  0
VERTEX
  8
0
 10
24.9053096
 20
27.281124
 42
0.0
  0
VERTEX
  8
0
 10
24.6324374
 20
27.27833
 42
0.0
  0
VERTEX
  8
0
 10
24.4753384
 20
27.250644
 42
0.0
  0
VERTEX
  8
0
 10
24.3402866
 20
27.227276
 42
0.0
  0
VERTEX
  8
0
 10
24.034369
 20
27.127962
 42
0.0
  0
VERTEX
  8
0
 10
23.7229396
 20
26.984706
 42
0.0
  0
VERTEX
  8
0
 10
23.4142534
 20
26.798778
 42
0.0
  0
VERTEX
  8
0
 10
23.1151938
 20
26.576782
 42
0.0
  0
VERTEX
  8
0
 10
22.8327204
 20
26.32456
 42
0.0
  0
VERTEX
  8
0
 10
22.770719
 20
26.264108
 42
0.0
  0
VERTEX
  8
0
 10
22.427565
 20
25.923748
 42
0.0
  0
VERTEX
  8
0
 10
22.171279
 20
25.671526
 42
0.0
  0
VERTEX
  8
0
 10
21.912199
 20
25.391745
 42
0.0
  0
VERTEX
  8
0
 10
21.6848182
 20
25.095454
 42
0.0
  0
VERTEX
  8
0
 10
21.4932768
 20
24.7867678
 42
0.0
  0
VERTEX
  8
0
 10
21.3416896
 20
24.4753384
 42
0.0
  0
VERTEX
  8
0
 10
21.2355684
 20
24.1680238
 42
0.0
  0
VERTEX
  8
0
 10
21.1763102
 20
23.8717582
 42
0.0
  0
VERTEX
  8
0
 10
21.1749132
 20
23.8483394
 42
0.0
  0
VERTEX
  8
0
 10
21.1652866
 20
23.5947712
 42
0.0
  0
VERTEX
  8
0
 10
21.2024976
 20
23.3439716
 42
0.0
  0
VERTEX
  8
0
 10
21.2879432
 20
23.1248712
 42
0.0
  0
VERTEX
  8
0
 10
21.4188294
 20
22.9429818
 42
0.0
  0
VERTEX
  8
0
 10
21.7936572
 20
22.5502216
 42
0.0
  0
VERTEX
  8
0
 10
21.9686632
 20
22.4110296
 42
0.0
  0
VERTEX
  8
0
 10
22.179534
 20
22.317329
 42
0.0
  0
VERTEX
  8
0
 10
22.4248218
 20
22.270466
 42
0.0
  0
VERTEX
  8
0
 10
22.427565
 20
22.270466
 42
0.0
  0
VERTEX
  8
0
 10
22.56536
 20
22.2718376
 42
0.0
  0
VERTEX
  8
0
 10
22.6976432
 20
22.2718376
 42
0.0
  0
VERTEX
  8
0
 10
22.9898194
 20
22.3228154
 42
0.0
  0
VERTEX
  8
0
 10
23.2943654
 20
22.4220532
 42
0.0
  0
VERTEX
  8
0
 10
23.6058202
 20
22.5667824
 42
0.0
  0
VERTEX
  8
0
 10
23.914481
 20
22.751415
 42
0.0
  0
VERTEX
  8
0
 10
24.2148868
 20
22.973284
 42
0.0
  0
SEQEND
  0
ENDSEC
  0
EOF
