  0
SECTION
  2
HEADER
  9
$ACADVER
  1
AC1009
  9
$EXTMAX
 10
36.1033058166504
 20
136.230102539063
 30
0.0
  9
$EXTMIN
 10
1.0004577636719
 20
1.3022478818893
 30
0.0
  9
$INSUNITS
 70
     4
  9
$LUNITS
 70
     2
  9
$LUPREC
 70
     4
  9
$MEASUREMENT
 70
     1
  0
ENDSEC
  0
SECTION
  2
TABLES
  0
TABLE
  2
LAYER
 70
     1
  0
LAYER
  2
0
 70
     0
 62
     7
  6
Continuous
  0
ENDTAB
  0
TABLE
  2
APPID
 70
     1
  0
APPID
  2
ACAD
 70
     0
  0
ENDTAB
  0
ENDSEC
  0
SECTION
  2
ENTITIES
  0
POLYLINE
  8
0
 66
     1
 10
0.0
 20
0.0
 30
0.0
 70
     1
  0
VERTEX
  8
0
 10
12.1308622
 20
129.455672
 42
0.0
  0
VERTEX
  8
0
 10
13.4537704
 20
131.5339
 42
0.0
  0
VERTEX
  8
0
 10
13.5847074
 20
131.739132
 42
0.0
  0
VERTEX
  8
0
 10
14.6430238
 20
133.401054
 42
0.0
  0
VERTEX
  8
0
 10
15.3775156
 20
134.263638
 42
0.0
  0
VERTEX
  8
0
 10
17.0504612
 20
136.230106
 42
0.0
  0
VERTEX
  8
0
 10
17.969611
 20
136.165082
 42
0.0
  0
VERTEX
  8
0
 10
21.3761574
 20
135.92429
 42
0.0
  0
VERTEX
  8
0
 10
22.7830888
 20
135.823706
 42
0.0
  0
VERTEX
  8
0
 10
22.9291896
 20
135.8138
 42
0.0
  0
VERTEX
  8
0
 10
24.1459766
 20
133.339078
 42
0.0
  0
VERTEX
  8
0
 10
24.6131334
 20
132.389372
 42
0.0
  0
VERTEX
  8
0
 10
24.9521472
 20
131.701794
 42
0.0
  0
VERTEX
  8
0
 10
25.1202444
 20
131.35864
 42
0.0
  0
VERTEX
  8
0
 10
24.8680732
 20
131.056888
 42
0.0
  0
VERTEX
  8
0
 10
23.8538512
 20
129.848356
 42
0.0
  0
VERTEX
  8
0
 10
22.7830888
 20
128.57226
 42
0.0
  0
VERTEX
  8
0
 10
22.7555298
 20
128.53924
 42
0.0
  0
VERTEX
  8
0
 10
22.2663512
 20
127.998982
 42
0.0
  0
VERTEX
  8
0
 10
21.4946484
 20
126.95174
 42
0.0
  0
VERTEX
  8
0
 10
20.4473048
 20
125.532388
 42
0.0
  0
VERTEX
  8
0
 10
20.3453746
 20
125.361446
 42
0.0
  0
VERTEX
  8
0
 10
19.686651
 20
124.255022
 42
0.0
  0
VERTEX
  8
0
 10
18.2232046
 20
121.959116
 42
0.0
  0
VERTEX
  8
0
 10
17.7091594
 20
120.971056
 42
0.0
  0
VERTEX
  8
0
 10
16.050006
 20
117.780816
 42
0.0
  0
VERTEX
  8
0
 10
14.0945616
 20
113.178082
 42
0.0
  0
VERTEX
  8
0
 10
13.4537704
 20
111.323628
 42
0.0
  0
VERTEX
  8
0
 10
12.3747784
 20
108.196634
 42
0.0
  0
VERTEX
  8
0
 10
11.3784634
 20
104.586278
 42
0.0
  0
VERTEX
  8
0
 10
10.9085634
 20
102.882954
 42
0.0
  0
VERTEX
  8
0
 10
9.7110296
 20
97.288096
 42
0.0
  0
VERTEX
  8
0
 10
8.7905082
 20
91.467178
 42
0.0
  0
VERTEX
  8
0
 10
8.3633056
 20
87.418672
 42
0.0
  0
VERTEX
  8
0
 10
8.159369
 20
85.475572
 42
0.0
  0
VERTEX
  8
0
 10
7.8203806
 20
79.370682
 42
0.0
  0
VERTEX
  8
0
 10
7.7790294
 20
73.210928
 42
0.0
  0
VERTEX
  8
0
 10
8.0353154
 20
67.058032
 42
0.0
  0
VERTEX
  8
0
 10
8.3633056
 20
63.43396
 42
0.0
  0
VERTEX
  8
0
 10
8.5865462
 20
60.968382
 42
0.0
  0
VERTEX
  8
0
 10
9.4285562
 20
55.002938
 42
0.0
  0
VERTEX
  8
0
 10
10.550271
 20
49.218088
 42
0.0
  0
VERTEX
  8
0
 10
11.943461
 20
43.668696
 42
0.0
  0
VERTEX
  8
0
 10
13.391769
 20
39.050722
 42
0.0
  0
VERTEX
  8
0
 10
13.4537704
 20
38.851078
 42
0.0
  0
VERTEX
  8
0
 10
13.5929878
 20
38.40861
 42
0.0
  0
VERTEX
  8
0
 10
15.4850084
 20
33.489138
 42
0.0
  0
VERTEX
  8
0
 10
17.600295
 20
28.958032
 42
0.0
  0
VERTEX
  8
0
 10
18.4298844
 20
27.48915
 42
0.0
  0
VERTEX
  8
0
 10
19.3338704
 20
25.890474
 42
0.0
  0
VERTEX
  8
0
 10
19.5791582
 20
25.372441
 42
0.0
  0
VERTEX
  8
0
 10
20.4183996
 20
23.9709706
 42
0.0
  0
VERTEX
  8
0
 10
21.201126
 20
22.6659694
 42
0.0
  0
VERTEX
  8
0
 10
21.5125554
 20
22.1464378
 42
0.0
  0
VERTEX
  8
0
 10
22.7830888
 20
20.434935
 42
0.0
  0
VERTEX
  8
0
 10
23.7532418
 20
19.1271906
 42
0.0
  0
VERTEX
  8
0
 10
24.209375
 20
18.6228228
 42
0.0
  0
VERTEX
  8
0
 10
24.3430298
 20
18.4753504
 42
0.0
  0
VERTEX
  8
0
 10
24.3968016
 20
18.3981852
 42
0.0
  0
VERTEX
  8
0
 10
24.985218
 20
17.7009044
 42
0.0
  0
VERTEX
  8
0
 10
26.48458
 20
15.928721
 42
0.0
  0
VERTEX
  8
0
 10
28.788614
 20
13.6908032
 42
0.0
  0
VERTEX
  8
0
 10
28.89758
 20
13.603986
 42
0.0
  0
VERTEX
  8
0
 10
29.56433
 20
13.0734562
 42
0.0
  0
VERTEX
  8
0
 10
31.286958
 20
11.7050566
 42
0.0
  0
VERTEX
  8
0
 10
33.954974
 20
9.9935284
 42
0.0
  0
VERTEX
  8
0
 10
35.614102
 20
9.1529154
 42
0.0
  0
VERTEX
  8
0
 10
36.103306
 20
8.7464138
 42
0.0
  0
VERTEX
  8
0
 10
36.078668
 20
8.6306406
 42
0.0
  0
VERTEX
  8
0
 10
35.94481
 20
8.0050132
 42
0.0
  0
VERTEX
  8
0
 10
35.720274
 20
6.9577204
 42
0.0
  0
VERTEX
  8
0
 10
35.511994
 20
5.9847988
 42
0.0
  0
VERTEX
  8
0
 10
34.971736
 20
3.4671508
 42
0.0
  0
VERTEX
  8
0
 10
28.224988
 20
1.30224784
 42
0.0
  0
VERTEX
  8
0
 10
23.9062006
 20
4.419346
 42
0.0
  0
VERTEX
  8
0
 10
22.82444
 20
5.4239668
 42
0.0
  0
VERTEX
  8
0
 10
22.7830888
 20
5.463921
 42
0.0
  0
VERTEX
  8
0
 10
21.9025216
 20
6.2824868
 42
0.0
  0
VERTEX
  8
0
 10
21.1928456
 20
6.9425566
 42
0.0
  0
VERTEX
  8
0
 10
19.787235
 20
8.5975698
 42
0.0
  0
VERTEX
  8
0
 10
18.8501782
 20
9.700006
 42
0.0
  0
VERTEX
  8
0
 10
15.8033466
 20
14.1249146
 42
0.0
  0
VERTEX
  8
0
 10
15.053691
 20
15.450566
 42
0.0
  0
VERTEX
  8
0
 10
13.4537704
 20
18.2810404
 42
0.0
  0
VERTEX
  8
0
 10
12.9770124
 20
19.1257682
 42
0.0
  0
VERTEX
  8
0
 10
11.3233454
 20
22.6659694
 42
0.0
  0
VERTEX
  8
0
 10
10.3973122
 20
24.651716
 42
0.0
  0
VERTEX
  8
0
 10
8.3633056
 20
29.937964
 42
0.0
  0
VERTEX
  8
0
 10
8.0904588
 20
30.650434
 42
0.0
  0
VERTEX
  8
0
 10
6.0785248
 20
37.06495
 42
0.0
  0
VERTEX
  8
0
 10
5.5796688
 20
39.050722
 42
0.0
  0
VERTEX
  8
0
 10
4.3794172
 20
43.831256
 42
0.0
  0
VERTEX
  8
0
 10
3.9825422
 20
45.87621
 42
0.0
  0
VERTEX
  8
0
 10
3.009646
 20
50.888138
 42
0.0
  0
VERTEX
  8
0
 10
1.984375
 20
58.164222
 42
0.0
  0
VERTEX
  8
0
 10
1.31327144
 20
65.58915
 42
0.0
  0
VERTEX
  8
0
 10
1.00045774
 20
73.093834
 42
0.0
  0
VERTEX
  8
0
 10
1.05144316
 20
80.604106
 42
0.0
  0
VERTEX
  8
0
 10
1.46347688
 20
88.048338
 42
0.0
  0
VERTEX
  8
0
 10
2.23380046
 20
95.356172
 42
0.0
  0
VERTEX
  8
0
 10
3.3555178
 20
102.455726
 42
0.0
  0
VERTEX
  8
0
 10
3.8130226
 20
104.586278
 42
0.0
  0
VERTEX
  8
0
 10
4.8176434
 20
109.27715
 42
0.0
  0
VERTEX
  8
0
 10
6.6049652
 20
115.75796
 42
0.0
  0
VERTEX
  8
0
 10
8.3633056
 20
120.856756
 42
0.0
  0
VERTEX
  8
0
 10
8.4032598
 20
120.971056
 42
0.0
  0
VERTEX
  8
0
 10
8.7009478
 20
121.83364
 42
0.0
  0
VERTEX
  8
0
 10
9.3927168
 20
123.462796
 42
0.0
  0
VERTEX
  8
0
 10
11.0863126
 20
127.446532
 42
0.0
  0
VERTEX
  8
0
 10
11.852529
 20
128.921002
 42
0.0
  0
SEQEND
  0
POLYLINE
  8
0
 66
     1
 10
0.0
 20
0.0
 30
0.0
 70
     1
  0
VERTEX
  8
0
 10
19.4634104
 20
130.343148
 42
0.0
  0
VERTEX
  8
0
 10
19.6714872
 20
130.330702
 42
0.0
  0
VERTEX
  8
0
 10
19.8823326
 20
130.343148
 42
0.0
  0
VERTEX
  8
0
 10
20.0876662
 20
130.381756
 42
0.0
  0
VERTEX
  8
0
 10
20.2874626
 20
130.445256
 42
0.0
  0
VERTEX
  8
0
 10
20.4790294
 20
130.533394
 42
0.0
  0
VERTEX
  8
0
 10
20.6526638
 20
130.640582
 42
0.0
  0
VERTEX
  8
0
 10
20.656804
 20
130.643376
 42
0.0
  0
VERTEX
  8
0
 10
20.8193894
 20
130.77571
 42
0.0
  0
VERTEX
  8
0
 10
20.9654648
 20
130.926078
 42
0.0
  0
VERTEX
  8
0
 10
21.0936332
 20
131.093972
 42
0.0
  0
VERTEX
  8
0
 10
21.1611718
 20
131.21005
 42
0.0
  0
VERTEX
  8
0
 10
21.1983574
 20
131.274566
 42
0.0
  0
VERTEX
  8
0
 10
21.2796628
 20
131.468876
 42
0.0
  0
VERTEX
  8
0
 10
21.3375494
 20
131.670044
 42
0.0
  0
VERTEX
  8
0
 10
21.3692232
 20
131.8768
 42
0.0
  0
VERTEX
  8
0
 10
21.3761574
 20
132.08635
 42
0.0
  0
VERTEX
  8
0
 10
21.3554818
 20
132.2959
 42
0.0
  0
VERTEX
  8
0
 10
21.3513162
 20
132.31495
 42
0.0
  0
VERTEX
  8
0
 10
21.3113874
 20
132.501132
 42
0.0
  0
VERTEX
  8
0
 10
21.2424518
 20
132.697982
 42
0.0
  0
VERTEX
  8
0
 10
21.1473796
 20
132.887212
 42
0.0
  0
VERTEX
  8
0
 10
21.0316318
 20
133.062218
 42
0.0
  0
VERTEX
  8
0
 10
20.89658
 20
133.22046
 42
0.0
  0
VERTEX
  8
0
 10
20.8538572
 20
133.259068
 42
0.0
  0
VERTEX
  8
0
 10
20.7408526
 20
133.362446
 42
0.0
  0
VERTEX
  8
0
 10
20.6526638
 20
133.425946
 42
0.0
  0
VERTEX
  8
0
 10
20.5685898
 20
133.483604
 42
0.0
  0
VERTEX
  8
0
 10
20.3853288
 20
133.582918
 42
0.0
  0
VERTEX
  8
0
 10
20.1896472
 20
133.65861
 42
0.0
  0
VERTEX
  8
0
 10
19.9856852
 20
133.709918
 42
0.0
  0
VERTEX
  8
0
 10
19.7776084
 20
133.735826
 42
0.0
  0
VERTEX
  8
0
 10
19.5667376
 20
133.735826
 42
0.0
  0
VERTEX
  8
0
 10
19.3586862
 20
133.709918
 42
0.0
  0
VERTEX
  8
0
 10
19.1561212
 20
133.65861
 42
0.0
  0
VERTEX
  8
0
 10
18.9604396
 20
133.582918
 42
0.0
  0
VERTEX
  8
0
 10
18.77441
 20
133.483604
 42
0.0
  0
VERTEX
  8
0
 10
18.6035188
 20
133.362446
 42
0.0
  0
VERTEX
  8
0
 10
18.4905396
 20
133.259068
 42
0.0
  0
VERTEX
  8
0
 10
18.4491884
 20
133.22046
 42
0.0
  0
VERTEX
  8
0
 10
18.3113934
 20
133.062218
 42
0.0
  0
VERTEX
  8
0
 10
18.1969918
 20
132.887212
 42
0.0
  0
VERTEX
  8
0
 10
18.1032912
 20
132.697982
 42
0.0
  0
VERTEX
  8
0
 10
18.0330094
 20
132.501132
 42
0.0
  0
VERTEX
  8
0
 10
17.9875434
 20
132.2959
 42
0.0
  0
VERTEX
  8
0
 10
17.969611
 20
132.08635
 42
0.0
  0
VERTEX
  8
0
 10
17.9764944
 20
131.8768
 42
0.0
  0
VERTEX
  8
0
 10
18.008219
 20
131.670044
 42
0.0
  0
VERTEX
  8
0
 10
18.0646832
 20
131.468876
 42
0.0
  0
VERTEX
  8
0
 10
18.1473856
 20
131.274566
 42
0.0
  0
VERTEX
  8
0
 10
18.1845966
 20
131.21005
 42
0.0
  0
VERTEX
  8
0
 10
18.210784
 20
131.164584
 42
0.0
  0
VERTEX
  8
0
 10
18.2521352
 20
131.093972
 42
0.0
  0
VERTEX
  8
0
 10
18.377535
 20
130.926078
 42
0.0
  0
VERTEX
  8
0
 10
18.523585
 20
130.77571
 42
0.0
  0
VERTEX
  8
0
 10
18.6875928
 20
130.643376
 42
0.0
  0
VERTEX
  8
0
 10
18.8653674
 20
130.533394
 42
0.0
  0
VERTEX
  8
0
 10
19.0568834
 20
130.445256
 42
0.0
  0
VERTEX
  8
0
 10
19.2566798
 20
130.381756
 42
0.0
  0
SEQEND
  0
POLYLINE
  8
0
 66
     1
 10
0.0
 20
0.0
 30
0.0
 70
     1
  0
VERTEX
  8
0
 10
30.450536
 20
8.1497424
 42
0.0
  0
VERTEX
  8
0
 10
30.410658
 20
8.3302602
 42
0.0
  0
VERTEX
  8
0
 10
30.40507
 20
8.3550506
 42
0.0
  0
VERTEX
  8
0
 10
30.334712
 20
8.5521038
 42
0.0
  0
VERTEX
  8
0
 10
30.24251
 20
8.7408766
 42
0.0
  0
VERTEX
  8
0
 10
30.126686
 20
8.9158826
 42
0.0
  0
VERTEX
  8
0
 10
29.990288
 20
9.074404
 42
0.0
  0
VERTEX
  8
0
 10
29.834586
 20
9.2163138
 42
0.0
  0
VERTEX
  8
0
 10
29.663644
 20
9.3375988
 42
0.0
  0
VERTEX
  8
0
 10
29.477716
 20
9.4368112
 42
0.0
  0
VERTEX
  8
0
 10
29.283406
 20
9.5125794
 42
0.0
  0
VERTEX
  8
0
 10
29.079444
 20
9.5635826
 42
0.0
  0
VERTEX
  8
0
 10
28.976066
 20
9.5759778
 42
0.0
  0
VERTEX
  8
0
 10
28.871164
 20
9.58977
 42
0.0
  0
VERTEX
  8
0
 10
28.660344
 20
9.58977
 42
0.0
  0
VERTEX
  8
0
 10
28.452318
 20
9.5635826
 42
0.0
  0
VERTEX
  8
0
 10
28.248356
 20
9.5125794
 42
0.0
  0
VERTEX
  8
0
 10
28.054046
 20
9.4368112
 42
0.0
  0
VERTEX
  8
0
 10
27.869388
 20
9.3375988
 42
0.0
  0
VERTEX
  8
0
 10
27.698446
 20
9.2163138
 42
0.0
  0
VERTEX
  8
0
 10
27.542744
 20
9.074404
 42
0.0
  0
VERTEX
  8
0
 10
27.515312
 20
9.0413078
 42
0.0
  0
VERTEX
  8
0
 10
27.406346
 20
8.9158826
 42
0.0
  0
VERTEX
  8
0
 10
27.290776
 20
8.7408766
 42
0.0
  0
VERTEX
  8
0
 10
27.19705
 20
8.5521038
 42
0.0
  0
VERTEX
  8
0
 10
27.126692
 20
8.3550506
 42
0.0
  0
VERTEX
  8
0
 10
27.121104
 20
8.3302602
 42
0.0
  0
VERTEX
  8
0
 10
27.082496
 20
8.1497424
 42
0.0
  0
VERTEX
  8
0
 10
27.063192
 20
7.9416148
 42
0.0
  0
VERTEX
  8
0
 10
27.06878
 20
7.7321918
 42
0.0
  0
VERTEX
  8
0
 10
27.10053
 20
7.5240896
 42
0.0
  0
VERTEX
  8
0
 10
27.158442
 20
7.3228962
 42
0.0
  0
VERTEX
  8
0
 10
27.240992
 20
7.1285862
 42
0.0
  0
VERTEX
  8
0
 10
27.345894
 20
6.9480684
 42
0.0
  0
VERTEX
  8
0
 10
27.47264
 20
6.7799712
 42
0.0
  0
VERTEX
  8
0
 10
27.61869
 20
6.6297556
 42
0.0
  0
VERTEX
  8
0
 10
27.78252
 20
6.4974724
 42
0.0
  0
VERTEX
  8
0
 10
27.96032
 20
6.387211
 42
0.0
  0
VERTEX
  8
0
 10
28.150566
 20
6.2990222
 42
0.0
  0
VERTEX
  8
0
 10
28.204414
 20
6.2824868
 42
0.0
  0
VERTEX
  8
0
 10
28.350464
 20
6.2356238
 42
0.0
  0
VERTEX
  8
0
 10
28.556966
 20
6.1970412
 42
0.0
  0
VERTEX
  8
0
 10
28.766516
 20
6.184646
 42
0.0
  0
VERTEX
  8
0
 10
28.774898
 20
6.184646
 42
0.0
  0
VERTEX
  8
0
 10
28.843732
 20
6.1887862
 42
0.0
  0
VERTEX
  8
0
 10
28.976066
 20
6.1970412
 42
0.0
  0
VERTEX
  8
0
 10
29.181298
 20
6.2356238
 42
0.0
  0
VERTEX
  8
0
 10
29.328872
 20
6.2824868
 42
0.0
  0
VERTEX
  8
0
 10
29.382466
 20
6.2990222
 42
0.0
  0
VERTEX
  8
0
 10
29.571442
 20
6.387211
 42
0.0
  0
VERTEX
  8
0
 10
29.750512
 20
6.4974724
 42
0.0
  0
VERTEX
  8
0
 10
29.914342
 20
6.6297556
 42
0.0
  0
VERTEX
  8
0
 10
30.060392
 20
6.7799712
 42
0.0
  0
VERTEX
  8
0
 10
30.187392
 20
6.9480684
 42
0.0
  0
VERTEX
  8
0
 10
30.29204
 20
7.1285862
 42
0.0
  0
VERTEX
  8
0
 10
30.315408
 20
7.1837296
 42
0.0
  0
VERTEX
  8
0
 10
30.37332
 20
7.3228962
 42
0.0
  0
VERTEX
  8
0
 10
30.431232
 20
7.5240896
 42
0.0
  0
VERTEX
  8
0
 10
30.462982
 20
7.7321918
 42
0.0
  0
VERTEX
  8
0
 10
30.468316
 20
7.9416148
 42
0.0
  0
SEQEND
  0
POLYLINE
  8
0
 66
     1
 10
0.0
 20
0.0
 30
0.0
 70
     1
  0
VERTEX
  8
0
 10
12.1308622
 20
129.455672
 42
0.0
  0
VERTEX
  8
0
 10
13.4537704
 20
131.5339
 42
0.0
  0
VERTEX
  8
0
 10
13.5847074
 20
131.739132
 42
0.0
  0
VERTEX
  8
0
 10
14.6430238
 20
133.401054
 42
0.0
  0
VERTEX
  8
0
 10
15.3775156
 20
134.263638
 42
0.0
  0
VERTEX
  8
0
 10
17.0504612
 20
136.230106
 42
0.0
  0
VERTEX
  8
0
 10
17.969611
 20
136.165082
 42
0.0
  0
VERTEX
  8
0
 10
21.3761574
 20
135.92429
 42
0.0
  0
VERTEX
  8
0
 10
22.7830888
 20
135.823706
 42
0.0
  0
VERTEX
  8
0
 10
22.9291896
 20
135.8138
 42
0.0
  0
VERTEX
  8
0
 10
24.1459766
 20
133.339078
 42
0.0
  0
VERTEX
  8
0
 10
24.6131334
 20
132.389372
 42
0.0
  0
VERTEX
  8
0
 10
24.9521472
 20
131.701794
 42
0.0
  0
VERTEX
  8
0
 10
25.1202444
 20
131.35864
 42
0.0
  0
VERTEX
  8
0
 10
24.8680732
 20
131.056888
 42
0.0
  0
VERTEX
  8
0
 10
23.8538512
 20
129.848356
 42
0.0
  0
VERTEX
  8
0
 10
22.7830888
 20
128.57226
 42
0.0
  0
VERTEX
  8
0
 10
22.7555298
 20
128.53924
 42
0.0
  0
VERTEX
  8
0
 10
22.2663512
 20
127.998982
 42
0.0
  0
VERTEX
  8
0
 10
21.4946484
 20
126.95174
 42
0.0
  0
VERTEX
  8
0
 10
20.4473048
 20
125.532388
 42
0.0
  0
VERTEX
  8
0
 10
20.3453746
 20
125.361446
 42
0.0
  0
VERTEX
  8
0
 10
19.686651
 20
124.255022
 42
0.0
  0
VERTEX
  8
0
 10
18.2232046
 20
121.959116
 42
0.0
  0
VERTEX
  8
0
 10
17.7091594
 20
120.971056
 42
0.0
  0
VERTEX
  8
0
 10
16.050006
 20
117.780816
 42
0.0
  0
VERTEX
  8
0
 10
14.0945616
 20
113.178082
 42
0.0
  0
VERTEX
  8
0
 10
13.4537704
 20
111.323628
 42
0.0
  0
VERTEX
  8
0
 10
12.3747784
 20
108.196634
 42
0.0
  0
VERTEX
  8
0
 10
11.3784634
 20
104.586278
 42
0.0
  0
VERTEX
  8
0
 10
10.9085634
 20
102.882954
 42
0.0
  0
VERTEX
  8
0
 10
9.7110296
 20
97.288096
 42
0.0
  0
VERTEX
  8
0
 10
8.7905082
 20
91.467178
 42
0.0
  0
VERTEX
  8
0
 10
8.3633056
 20
87.418672
 42
0.0
  0
VERTEX
  8
0
 10
8.159369
 20
85.475572
 42
0.0
  0
VERTEX
  8
0
 10
7.8203806
 20
79.370682
 42
0.0
  0
VERTEX
  8
0
 10
7.7790294
 20
73.210928
 42
0.0
  0
VERTEX
  8
0
 10
8.0353154
 20
67.058032
 42
0.0
  0
VERTEX
  8
0
 10
8.3633056
 20
63.43396
 42
0.0
  0
VERTEX
  8
0
 10
8.5865462
 20
60.968382
 42
0.0
  0
VERTEX
  8
0
 10
9.4285562
 20
55.002938
 42
0.0
  0
VERTEX
  8
0
 10
10.550271
 20
49.218088
 42
0.0
  0
VERTEX
  8
0
 10
11.943461
 20
43.668696
 42
0.0
  0
VERTEX
  8
0
 10
13.391769
 20
39.050722
 42
0.0
  0
VERTEX
  8
0
 10
13.4537704
 20
38.851078
 42
0.0
  0
VERTEX
  8
0
 10
13.5929878
 20
38.40861
 42
0.0
  0
VERTEX
  8
0
 10
15.4850084
 20
33.489138
 42
0.0
  0
VERTEX
  8
0
 10
17.600295
 20
28.958032
 42
0.0
  0
VERTEX
  8
0
 10
18.4298844
 20
27.48915
 42
0.0
  0
VERTEX
  8
0
 10
19.3338704
 20
25.890474
 42
0.0
  0
VERTEX
  8
0
 10
19.5791582
 20
25.372441
 42
0.0
  0
VERTEX
  8
0
 10
20.4183996
 20
23.9709706
 42
0.0
  0
VERTEX
  8
0
 10
21.201126
 20
22.6659694
 42
0.0
  0
VERTEX
  8
0
 10
21.5125554
 20
22.1464378
 42
0.0
  0
VERTEX
  8
0
 10
22.7830888
 20
20.434935
 42
0.0
  0
VERTEX
  8
0
 10
23.7532418
 20
19.1271906
 42
0.0
  0
VERTEX
  8
0
 10
24.209375
 20
18.6228228
 42
0.0
  0
VERTEX
  8
0
 10
24.3430298
 20
18.4753504
 42
0.0
  0
VERTEX
  8
0
 10
24.3968016
 20
18.3981852
 42
0.0
  0
VERTEX
  8
0
 10
24.985218
 20
17.7009044
 42
0.0
  0
VERTEX
  8
0
 10
26.48458
 20
15.928721
 42
0.0
  0
VERTEX
  8
0
 10
28.788614
 20
13.6908032
 42
0.0
  0
VERTEX
  8
0
 10
28.89758
 20
13.603986
 42
0.0
  0
VERTEX
  8
0
 10
29.56433
 20
13.0734562
 42
0.0
  0
VERTEX
  8
0
 10
31.286958
 20
11.7050566
 42
0.0
  0
VERTEX
  8
0
 10
33.954974
 20
9.9935284
 42
0.0
  0
VERTEX
  8
0
 10
35.614102
 20
9.1529154
 42
0.0
  0
VERTEX
  8
0
 10
36.103306
 20
8.7464138
 42
0.0
  0
VERTEX
  8
0
 10
36.078668
 20
8.6306406
 42
0.0
  0
VERTEX
  8
0
 10
35.94481
 20
8.0050132
 42
0.0
  0
VERTEX
  8
0
 10
35.720274
 20
6.9577204
 42
0.0
  0
VERTEX
  8
0
 10
35.511994
 20
5.9847988
 42
0.0
  0
VERTEX
  8
0
 10
34.971736
 20
3.4671508
 42
0.0
  0
VERTEX
  8
0
 10
28.224988
 20
1.30224784
 42
0.0
  0
VERTEX
  8
0
 10
23.9062006
 20
4.419346
 42
0.0
  0
VERTEX
  8
0
 10
22.82444
 20
5.4239668
 42
0.0
  0
VERTEX
  8
0
 10
22.7830888
 20
5.463921
 42
0.0
  0
VERTEX
  8
0
 10
21.9025216
 20
6.2824868
 42
0.0
  0
VERTEX
  8
0
 10
21.1928456
 20
6.9425566
 42
0.0
  0
VERTEX
  8
0
 10
19.787235
 20
8.5975698
 42
0.0
  0
VERTEX
  8
0
 10
18.8501782
 20
9.700006
 42
0.0
  0
VERTEX
  8
0
 10
15.8033466
 20
14.1249146
 42
0.0
  0
VERTEX
  8
0
 10
15.053691
 20
15.450566
 42
0.0
  0
VERTEX
  8
0
 10
13.4537704
 20
18.2810404
 42
0.0
  0
VERTEX
  8
0
 10
12.9770124
 20
19.1257682
 42
0.0
  0
VERTEX
  8
0
 10
11.3233454
 20
22.6659694
 42
0.0
  0
VERTEX
  8
0
 10
10.3973122
 20
24.651716
 42
0.0
  0
VERTEX
  8
0
 10
8.3633056
 20
29.937964
 42
0.0
  0
VERTEX
  8
0
 10
8.0904588
 20
30.650434
 42
0.0
  0
VERTEX
  8
0
 10
6.0785248
 20
37.06495
 42
0.0
  0
VERTEX
  8
0
 10
5.5796688
 20
39.050722
 42
0.0
  0
VERTEX
  8
0
 10
4.3794172
 20
43.831256
 42
0.0
  0
VERTEX
  8
0
 10
3.9825422
 20
45.87621
 42
0.0
  0
VERTEX
  8
0
 10
3.009646
 20
50.888138
 42
0.0
  0
VERTEX
  8
0
 10
1.984375
 20
58.164222
 42
0.0
  0
VERTEX
  8
0
 10
1.31327144
 20
65.58915
 42
0.0
  0
VERTEX
  8
0
 10
1.00045774
 20
73.093834
 42
0.0
  0
VERTEX
  8
0
 10
1.05144316
 20
80.604106
 42
0.0
  0
VERTEX
  8
0
 10
1.46347688
 20
88.048338
 42
0.0
  0
VERTEX
  8
0
 10
2.23380046
 20
95.356172
 42
0.0
  0
VERTEX
  8
0
 10
3.3555178
 20
102.455726
 42
0.0
  0
VERTEX
  8
0
 10
3.8130226
 20
104.586278
 42
0.0
  0
VERTEX
  8
0
 10
4.8176434
 20
109.27715
 42
0.0
  0
VERTEX
  8
0
 10
6.6049652
 20
115.75796
 42
0.0
  0
VERTEX
  8
0
 10
8.3633056
 20
120.856756
 42
0.0
  0
VERTEX
  8
0
 10
8.4032598
 20
120.971056
 42
0.0
  0
VERTEX
  8
0
 10
8.7009478
 20
121.83364
 42
0.0
  0
VERTEX
  8
0
 10
9.3927168
 20
123.462796
 42
0.0
  0
VERTEX
  8
0
 10
11.0863126
 20
127.446532
 42
0.0
  0
VERTEX
  8
0
 10
11.852529
 20
128.921002
 42
0.0
  0
SEQEND
  0
POLYLINE
  8
0
 66
     1
 10
0.0
 20
0.0
 30
0.0
 70
     1
  0
VERTEX
  8
0
 10
19.4634104
 20
130.343148
 42
0.0
  0
VERTEX
  8
0
 10
19.6714872
 20
130.330702
 42
0.0
  0
VERTEX
  8
0
 10
19.8823326
 20
130.343148
 42
0.0
  0
VERTEX
  8
0
 10
20.0876662
 20
130.381756
 42
0.0
  0
VERTEX
  8
0
 10
20.2874626
 20
130.445256
 42
0.0
  0
VERTEX
  8
0
 10
20.4790294
 20
130.533394
 42
0.0
  0
VERTEX
  8
0
 10
20.6526638
 20
130.640582
 42
0.0
  0
VERTEX
  8
0
 10
20.656804
 20
130.643376
 42
0.0
  0
VERTEX
  8
0
 10
20.8193894
 20
130.77571
 42
0.0
  0
VERTEX
  8
0
 10
20.9654648
 20
130.926078
 42
0.0
  0
VERTEX
  8
0
 10
21.0936332
 20
131.093972
 42
0.0
  0
VERTEX
  8
0
 10
21.1611718
 20
131.21005
 42
0.0
  0
VERTEX
  8
0
 10
21.1983574
 20
131.274566
 42
0.0
  0
VERTEX
  8
0
 10
21.2796628
 20
131.468876
 42
0.0
  0
VERTEX
  8
0
 10
21.3375494
 20
131.670044
 42
0.0
  0
VERTEX
  8
0
 10
21.3692232
 20
131.8768
 42
0.0
  0
VERTEX
  8
0
 10
21.3761574
 20
132.08635
 42
0.0
  0
VERTEX
  8
0
 10
21.3554818
 20
132.2959
 42
0.0
  0
VERTEX
  8
0
 10
21.3513162
 20
132.31495
 42
0.0
  0
VERTEX
  8
0
 10
21.3113874
 20
132.501132
 42
0.0
  0
VERTEX
  8
0
 10
21.2424518
 20
132.697982
 42
0.0
  0
VERTEX
  8
0
 10
21.1473796
 20
132.887212
 42
0.0
  0
VERTEX
  8
0
 10
21.0316318
 20
133.062218
 42
0.0
  0
VERTEX
  8
0
 10
20.89658
 20
133.22046
 42
0.0
  0
VERTEX
  8
0
 10
20.8538572
 20
133.259068
 42
0.0
  0
VERTEX
  8
0
 10
20.7408526
 20
133.362446
 42
0.0
  0
VERTEX
  8
0
 10
20.6526638
 20
133.425946
 42
0.0
  0
VERTEX
  8
0
 10
20.5685898
 20
133.483604
 42
0.0
  0
VERTEX
  8
0
 10
20.3853288
 20
133.582918
 42
0.0
  0
VERTEX
  8
0
 10
20.1896472
 20
133.65861
 42
0.0
  0
VERTEX
  8
0
 10
19.9856852
 20
133.709918
 42
0.0
  0
VERTEX
  8
0
 10
19.7776084
 20
133.735826
 42
0.0
  0
VERTEX
  8
0
 10
19.5667376
 20
133.735826
 42
0.0
  0
VERTEX
  8
0
 10
19.3586862
 20
133.709918
 42
0.0
  0
VERTEX
  8
0
 10
19.1561212
 20
133.65861
 42
0.0
  0
VERTEX
  8
0
 10
18.9604396
 20
133.582918
 42
0.0
  0
VERTEX
  8
0
 10
18.77441
 20
133.483604
 42
0.0
  0
VERTEX
  8
0
 10
18.6035188
 20
133.362446
 42
0.0
  0
VERTEX
  8
0
 10
18.4905396
 20
133.259068
 42
0.0
  0
VERTEX
  8
0
 10
18.4491884
 20
133.22046
 42
0.0
  0
VERTEX
  8
0
 10
18.3113934
 20
133.062218
 42
0.0
  0
VERTEX
  8
0
 10
18.1969918
 20
132.887212
 42
0.0
  0
VERTEX
  8
0
 10
18.1032912
 20
132.697982
 42
0.0
  0
VERTEX
  8
0
 10
18.0330094
 20
132.501132
 42
0.0
  0
VERTEX
  8
0
 10
17.9875434
 20
132.2959
 42
0.0
  0
VERTEX
  8
0
 10
17.969611
 20
132.08635
 42
0.0
  0
VERTEX
  8
0
 10
17.9764944
 20
131.8768
 42
0.0
  0
VERTEX
  8
0
 10
18.008219
 20
131.670044
 42
0.0
  0
VERTEX
  8
0
 10
18.0646832
 20
131.468876
 42
0.0
  0
VERTEX
  8
0
 10
18.1473856
 20
131.274566
 42
0.0
  0
VERTEX
  8
0
 10
18.1845966
 20
131.21005
 42
0.0
  0
VERTEX
  8
0
 10
18.210784
 20
131.164584
 42
0.0
  0
VERTEX
  8
0
 10
18.2521352
 20
131.093972
 42
0.0
  0
VERTEX
  8
0
 10
18.377535
 20
130.926078
 42
0.0
  0
VERTEX
  8
0
 10
18.523585
 20
130.77571
 42
0.0
  0
VERTEX
  8
0
 10
18.6875928
 20
130.643376
 42
0.0
  0
VERTEX
  8
0
 10
18.8653674
 20
130.533394
 42
0.0
  0
VERTEX
  8
0
 10
19.0568834
 20
130.445256
 42
0.0
  0
VERTEX
  8
0
 10
19.2566798
 20
130.381756
 42
0.0
  0
SEQEND
  0
POLYLINE
  8
0
 66
     1
 10
0.0
 20
0.0
 30
0.0
 70
     1
  0
VERTEX
  8
0
 10
30.450536
 20
8.1497424
 42
0.0
  0
VERTEX
  8
0
 10
30.410658
 20
8.3302602
 42
0.0
  0
VERTEX
  8
0
 10
30.40507
 20
8.3550506
 42
0.0
  0
VERTEX
  8
0
 10
30.334712
 20
8.5521038
 42
0.0
  0
VERTEX
  8
0
 10
30.24251
 20
8.7408766
 42
0.0
  0
VERTEX
  8
0
 10
30.126686
 20
8.9158826
 42
0.0
  0
VERTEX
  8
0
 10
29.990288
 20
9.074404
 42
0.0
  0
VERTEX
  8
0
 10
29.834586
 20
9.2163138
 42
0.0
  0
VERTEX
  8
0
 10
29.663644
 20
9.3375988
 42
0.0
  0
VERTEX
  8
0
 10
29.477716
 20
9.4368112
 42
0.0
  0
VERTEX
  8
0
 10
29.283406
 20
9.5125794
 42
0.0
  0
VERTEX
  8
0
 10
29.079444
 20
9.5635826
 42
0.0
  0
VERTEX
  8
0
 10
28.976066
 20
9.5759778
 42
0.0
  0
VERTEX
  8
0
 10
28.871164
 20
9.58977
 42
0.0
  0
VERTEX
  8
0
 10
28.660344
 20
9.58977
 42
0.0
  0
VERTEX
  8
0
 10
28.452318
 20
9.5635826
 42
0.0
  0
VERTEX
  8
0
 10
28.248356
 20
9.5125794
 42
0.0
  0
VERTEX
  8
0
 10
28.054046
 20
9.4368112
 42
0.0
  0
VERTEX
  8
0
 10
27.869388
 20
9.3375988
 42
0.0
  0
VERTEX
  8
0
 10
27.698446
 20
9.2163138
 42
0.0
  0
VERTEX
  8
0
 10
27.542744
 20
9.074404
 42
0.0
  0
VERTEX
  8
0
 10
27.515312
 20
9.0413078
 42
0.0
  0
VERTEX
  8
0
 10
27.406346
 20
8.9158826
 42
0.0
  0
VERTEX
  8
0
 10
27.290776
 20
8.7408766
 42
0.0
  0
VERTEX
  8
0
 10
27.19705
 20
8.5521038
 42
0.0
  0
VERTEX
  8
0
 10
27.126692
 20
8.3550506
 42
0.0
  0
VERTEX
  8
0
 10
27.121104
 20
8.3302602
 42
0.0
  0
VERTEX
  8
0
 10
27.082496
 20
8.1497424
 42
0.0
  0
VERTEX
  8
0
 10
27.063192
 20
7.9416148
 42
0.0
  0
VERTEX
  8
0
 10
27.06878
 20
7.7321918
 42
0.0
  0
VERTEX
  8
0
 10
27.10053
 20
7.5240896
 42
0.0
  0
VERTEX
  8
0
 10
27.158442
 20
7.3228962
 42
0.0
  0
VERTEX
  8
0
 10
27.240992
 20
7.1285862
 42
0.0
  0
VERTEX
  8
0
 10
27.345894
 20
6.9480684
 42
0.0
  0
VERTEX
  8
0
 10
27.47264
 20
6.7799712
 42
0.0
  0
VERTEX
  8
0
 10
27.61869
 20
6.6297556
 42
0.0
  0
VERTEX
  8
0
 10
27.78252
 20
6.4974724
 42
0.0
  0
VERTEX
  8
0
 10
27.96032
 20
6.387211
 42
0.0
  0
VERTEX
  8
0
 10
28.150566
 20
6.2990222
 42
0.0
  0
VERTEX
  8
0
 10
28.204414
 20
6.2824868
 42
0.0
  0
VERTEX
  8
0
 10
28.350464
 20
6.2356238
 42
0.0
  0
VERTEX
  8
0
 10
28.556966
 20
6.1970412
 42
0.0
  0
VERTEX
  8
0
 10
28.766516
 20
6.184646
 42
0.0
  0
VERTEX
  8
0
 10
28.774898
 20
6.184646
 42
0.0
  0
VERTEX
  8
0
 10
28.843732
 20
6.1887862
 42
0.0
  0
VERTEX
  8
0
 10
28.976066
 20
6.1970412
 42
0.0
  0
VERTEX
  8
0
 10
29.181298
 20
6.2356238
 42
0.0
  0
VERTEX
  8
0
 10
29.328872
 20
6.2824868
 42
0.0
  0
VERTEX
  8
0
 10
29.382466
 20
6.2990222
 42
0.0
  0
VERTEX
  8
0
 10
29.571442
 20
6.387211
 42
0.0
  0
VERTEX
  8
0
 10
29.750512
 20
6.4974724
 42
0.0
  0
VERTEX
  8
0
 10
29.914342
 20
6.6297556
 42
0.0
  0
VERTEX
  8
0
 10
30.060392
 20
6.7799712
 42
0.0
  0
VERTEX
  8
0
 10
30.187392
 20
6.9480684
 42
0.0
  0
VERTEX
  8
0
 10
30.29204
 20
7.1285862
 42
0.0
  0
VERTEX
  8
0
 10
30.315408
 20
7.1837296
 42
0.0
  0
VERTEX
  8
0
 10
30.37332
 20
7.3228962
 42
0.0
  0
VERTEX
  8
0
 10
30.431232
 20
7.5240896
 42
0.0
  0
VERTEX
  8
0
 10
30.462982
 20
7.7321918
 42
0.0
  0
VERTEX
  8
0
 10
30.468316
 20
7.9416148
 42
0.0
  0
SEQEND
  0
ENDSEC
  0
EOF
